<?xml version="1.0" encoding="UTF-8" standalone="no"?>
<!DOCTYPE svg PUBLIC "-//W3C//DTD SVG 1.1//EN"
 "http://www.w3.org/Graphics/SVG/1.1/DTD/svg11.dtd">
<!-- Generated by graphviz version 2.44.0 ()
 -->
<!-- Title: v8::Boolean::New Pages: 1 -->
<svg width="192pt" height="66pt"
 viewBox="0.00 0.00 192.00 66.00" xmlns="http://www.w3.org/2000/svg" xmlns:xlink="http://www.w3.org/1999/xlink">
<g id="graph0" class="graph" transform="scale(1 1) rotate(0) translate(4 62)">
<title>v8::Boolean::New</title>
<polygon fill="white" stroke="transparent" points="-4,4 -4,-62 188,-62 188,4 -4,4"/>
<!-- Node1 -->
<g id="node1" class="node">
<title>Node1</title>
<g id="a_node1"><a xlink:title=" ">
<polygon fill="#bfbfbf" stroke="black" points="0,-19.5 0,-38.5 92,-38.5 92,-19.5 0,-19.5"/>
<text text-anchor="middle" x="46" y="-26.5" font-family="Helvetica,sans-Serif" font-size="10.00">v8::Boolean::New</text>
</a>
</g>
</g>
<!-- Node2 -->
<g id="node2" class="node">
<title>Node2</title>
<g id="a_node2"><a xlink:href="namespacev8.html#aa1ad232eac398fa555cadf6b70582314" target="_top" xlink:title=" ">
<polygon fill="white" stroke="black" points="128,-38.5 128,-57.5 184,-57.5 184,-38.5 128,-38.5"/>
<text text-anchor="middle" x="156" y="-45.5" font-family="Helvetica,sans-Serif" font-size="10.00">v8::False</text>
</a>
</g>
</g>
<!-- Node1&#45;&gt;Node2 -->
<g id="edge1" class="edge">
<title>Node1&#45;&gt;Node2</title>
<path fill="none" stroke="midnightblue" d="M92.18,-36.95C100.71,-38.45 109.55,-40 117.8,-41.46"/>
<polygon fill="midnightblue" stroke="midnightblue" points="117.43,-44.94 127.88,-43.23 118.64,-38.05 117.43,-44.94"/>
</g>
<!-- Node3 -->
<g id="node3" class="node">
<title>Node3</title>
<g id="a_node3"><a xlink:href="namespacev8.html#ac3785e63e7e1823430447032c4be7233" target="_top" xlink:title=" ">
<polygon fill="white" stroke="black" points="130.5,-0.5 130.5,-19.5 181.5,-19.5 181.5,-0.5 130.5,-0.5"/>
<text text-anchor="middle" x="156" y="-7.5" font-family="Helvetica,sans-Serif" font-size="10.00">v8::True</text>
</a>
</g>
</g>
<!-- Node1&#45;&gt;Node3 -->
<g id="edge2" class="edge">
<title>Node1&#45;&gt;Node3</title>
<path fill="none" stroke="midnightblue" d="M92.18,-21.05C101.57,-19.4 111.32,-17.68 120.26,-16.11"/>
<polygon fill="midnightblue" stroke="midnightblue" points="121.08,-19.52 130.32,-14.34 119.86,-12.63 121.08,-19.52"/>
</g>
</g>
</svg>
