<?xml version="1.0" encoding="UTF-8" standalone="no"?>
<!DOCTYPE svg PUBLIC "-//W3C//DTD SVG 1.1//EN"
 "http://www.w3.org/Graphics/SVG/1.1/DTD/svg11.dtd">
<!-- Generated by graphviz version 2.44.0 ()
 -->
<!-- Title: v8::GlobalValueMap::Set Pages: 1 -->
<svg width="486pt" height="186pt"
 viewBox="0.00 0.00 486.00 186.00" xmlns="http://www.w3.org/2000/svg" xmlns:xlink="http://www.w3.org/1999/xlink">
<g id="graph0" class="graph" transform="scale(1 1) rotate(0) translate(4 182)">
<title>v8::GlobalValueMap::Set</title>
<polygon fill="white" stroke="transparent" points="-4,4 -4,-182 482,-182 482,4 -4,4"/>
<!-- Node1 -->
<g id="node1" class="node">
<title>Node1</title>
<g id="a_node1"><a xlink:title=" ">
<polygon fill="#bfbfbf" stroke="black" points="0,-103 0,-122 122,-122 122,-103 0,-103"/>
<text text-anchor="middle" x="61" y="-110" font-family="Helvetica,sans-Serif" font-size="10.00">v8::GlobalValueMap::Set</text>
</a>
</g>
</g>
<!-- Node2 -->
<g id="node2" class="node">
<title>Node2</title>
<g id="a_node2"><a xlink:href="classv8_1_1PersistentValueMapBase.html#adacf68ca7b9fb19deab68711a70a8313" target="_top" xlink:title=" ">
<polygon fill="white" stroke="black" points="158,-122.5 158,-152.5 300,-152.5 300,-122.5 158,-122.5"/>
<text text-anchor="start" x="166" y="-140.5" font-family="Helvetica,sans-Serif" font-size="10.00">v8::PersistentValueMapBase</text>
<text text-anchor="middle" x="229" y="-129.5" font-family="Helvetica,sans-Serif" font-size="10.00">::Leak</text>
</a>
</g>
</g>
<!-- Node1&#45;&gt;Node2 -->
<g id="edge1" class="edge">
<title>Node1&#45;&gt;Node2</title>
<path fill="none" stroke="midnightblue" d="M122.4,-121.6C130.66,-122.84 139.25,-124.13 147.79,-125.42"/>
<polygon fill="midnightblue" stroke="midnightblue" points="147.38,-128.9 157.79,-126.93 148.42,-121.98 147.38,-128.9"/>
</g>
<!-- Node3 -->
<g id="node3" class="node">
<title>Node3</title>
<g id="a_node3"><a xlink:href="classv8_1_1GlobalValueMap.html#aad73de3912571a2f245454d3edea4a41" target="_top" xlink:title=" ">
<polygon fill="white" stroke="black" points="177.5,-73.5 177.5,-103.5 280.5,-103.5 280.5,-73.5 177.5,-73.5"/>
<text text-anchor="start" x="185.5" y="-91.5" font-family="Helvetica,sans-Serif" font-size="10.00">v8::GlobalValueMap</text>
<text text-anchor="middle" x="229" y="-80.5" font-family="Helvetica,sans-Serif" font-size="10.00">::SetUnique</text>
</a>
</g>
</g>
<!-- Node1&#45;&gt;Node3 -->
<g id="edge2" class="edge">
<title>Node1&#45;&gt;Node3</title>
<path fill="none" stroke="midnightblue" d="M122.4,-103.77C137.09,-101.64 152.8,-99.37 167.49,-97.25"/>
<polygon fill="midnightblue" stroke="midnightblue" points="168.08,-100.7 177.47,-95.81 167.08,-93.77 168.08,-100.7"/>
</g>
<!-- Node4 -->
<g id="node4" class="node">
<title>Node4</title>
<g id="a_node4"><a xlink:href="classv8_1_1PersistentValueMapBase.html#a7b083c75829bbc4177729ffe9827c4ac" target="_top" xlink:title=" ">
<polygon fill="white" stroke="black" points="336,-147.5 336,-177.5 478,-177.5 478,-147.5 336,-147.5"/>
<text text-anchor="start" x="344" y="-165.5" font-family="Helvetica,sans-Serif" font-size="10.00">v8::PersistentValueMapBase</text>
<text text-anchor="middle" x="407" y="-154.5" font-family="Helvetica,sans-Serif" font-size="10.00">::ClearAndLeak</text>
</a>
</g>
</g>
<!-- Node3&#45;&gt;Node4 -->
<g id="edge3" class="edge">
<title>Node3&#45;&gt;Node4</title>
<path fill="none" stroke="midnightblue" d="M277.41,-103.51C285.11,-106.49 292.88,-109.84 300,-113.5 317.32,-122.41 318.62,-129.7 336,-138.5 339.51,-140.28 343.18,-141.97 346.93,-143.58"/>
<polygon fill="midnightblue" stroke="midnightblue" points="345.75,-146.88 356.34,-147.39 348.38,-140.39 345.75,-146.88"/>
</g>
<!-- Node5 -->
<g id="node5" class="node">
<title>Node5</title>
<g id="a_node5"><a xlink:href="classv8_1_1PersistentValueMapBase.html#aacd576258fbffaf366436a6ecdd8cdf5" target="_top" xlink:title=" ">
<polygon fill="white" stroke="black" points="336,-98.5 336,-128.5 478,-128.5 478,-98.5 336,-98.5"/>
<text text-anchor="start" x="344" y="-116.5" font-family="Helvetica,sans-Serif" font-size="10.00">v8::PersistentValueMapBase</text>
<text text-anchor="middle" x="407" y="-105.5" font-family="Helvetica,sans-Serif" font-size="10.00">::impl</text>
</a>
</g>
</g>
<!-- Node3&#45;&gt;Node5 -->
<g id="edge4" class="edge">
<title>Node3&#45;&gt;Node5</title>
<path fill="none" stroke="midnightblue" d="M280.91,-95.73C294.98,-97.73 310.6,-99.95 325.91,-102.12"/>
<polygon fill="midnightblue" stroke="midnightblue" points="325.5,-105.6 335.9,-103.54 326.49,-98.67 325.5,-105.6"/>
</g>
<!-- Node6 -->
<g id="node6" class="node">
<title>Node6</title>
<g id="a_node6"><a xlink:href="classv8_1_1PersistentValueMapBase.html#af2e83791955c6027213dd979eebeb8f4" target="_top" xlink:title=" ">
<polygon fill="white" stroke="black" points="336,-49.5 336,-79.5 478,-79.5 478,-49.5 336,-49.5"/>
<text text-anchor="start" x="344" y="-67.5" font-family="Helvetica,sans-Serif" font-size="10.00">v8::PersistentValueMapBase</text>
<text text-anchor="middle" x="407" y="-56.5" font-family="Helvetica,sans-Serif" font-size="10.00">::isolate</text>
</a>
</g>
</g>
<!-- Node3&#45;&gt;Node6 -->
<g id="edge5" class="edge">
<title>Node3&#45;&gt;Node6</title>
<path fill="none" stroke="midnightblue" d="M280.91,-81.56C294.98,-79.64 310.6,-77.51 325.91,-75.42"/>
<polygon fill="midnightblue" stroke="midnightblue" points="326.46,-78.88 335.9,-74.06 325.52,-71.94 326.46,-78.88"/>
</g>
<!-- Node7 -->
<g id="node7" class="node">
<title>Node7</title>
<g id="a_node7"><a xlink:href="classv8_1_1PersistentValueMapBase.html#a9ffa7a4e0c59121c0471d71c04112966" target="_top" xlink:title=" ">
<polygon fill="white" stroke="black" points="336,-0.5 336,-30.5 478,-30.5 478,-0.5 336,-0.5"/>
<text text-anchor="start" x="344" y="-18.5" font-family="Helvetica,sans-Serif" font-size="10.00">v8::PersistentValueMapBase</text>
<text text-anchor="middle" x="407" y="-7.5" font-family="Helvetica,sans-Serif" font-size="10.00">::Release</text>
</a>
</g>
</g>
<!-- Node3&#45;&gt;Node7 -->
<g id="edge6" class="edge">
<title>Node3&#45;&gt;Node7</title>
<path fill="none" stroke="midnightblue" d="M261.71,-73.32C282.62,-63.51 310.72,-50.72 336,-40.5 341.37,-38.33 347,-36.16 352.64,-34.04"/>
<polygon fill="midnightblue" stroke="midnightblue" points="353.93,-37.3 362.1,-30.55 351.51,-30.73 353.93,-37.3"/>
</g>
</g>
</svg>
