<?xml version="1.0" encoding="UTF-8" standalone="no"?>
<!DOCTYPE svg PUBLIC "-//W3C//DTD SVG 1.1//EN"
 "http://www.w3.org/Graphics/SVG/1.1/DTD/svg11.dtd">
<!-- Generated by graphviz version 2.44.0 ()
 -->
<!-- Title: v8::PersistentValueMapBase::FromVal Pages: 1 -->
<svg width="353pt" height="290pt"
 viewBox="0.00 0.00 353.00 290.00" xmlns="http://www.w3.org/2000/svg" xmlns:xlink="http://www.w3.org/1999/xlink">
<g id="graph0" class="graph" transform="scale(1 1) rotate(0) translate(4 286)">
<title>v8::PersistentValueMapBase::FromVal</title>
<polygon fill="white" stroke="transparent" points="-4,4 -4,-286 349,-286 349,4 -4,4"/>
<!-- Node1 -->
<g id="node1" class="node">
<title>Node1</title>
<g id="a_node1"><a xlink:title=" ">
<polygon fill="#bfbfbf" stroke="black" points="203,-126 203,-156 345,-156 345,-126 203,-126"/>
<text text-anchor="start" x="211" y="-144" font-family="Helvetica,sans-Serif" font-size="10.00">v8::PersistentValueMapBase</text>
<text text-anchor="middle" x="274" y="-133" font-family="Helvetica,sans-Serif" font-size="10.00">::FromVal</text>
</a>
</g>
</g>
<!-- Node2 -->
<g id="node2" class="node">
<title>Node2</title>
<g id="a_node2"><a xlink:href="classv8_1_1PersistentValueMapBase.html#a16b8f906ea42036c2f37d44813bf2a72" target="_top" xlink:title=" ">
<polygon fill="white" stroke="black" points="0,-240.5 0,-281.5 167,-281.5 167,-240.5 0,-240.5"/>
<text text-anchor="start" x="8" y="-269.5" font-family="Helvetica,sans-Serif" font-size="10.00">v8::PersistentValueMapBase</text>
<text text-anchor="start" x="8" y="-258.5" font-family="Helvetica,sans-Serif" font-size="10.00">&lt; K, V, DefaultPersistentValueMap</text>
<text text-anchor="middle" x="83.5" y="-247.5" font-family="Helvetica,sans-Serif" font-size="10.00">Traits&lt; K, V &gt; &gt;::Get</text>
</a>
</g>
</g>
<!-- Node1&#45;&gt;Node2 -->
<g id="edge1" class="edge">
<title>Node1&#45;&gt;Node2</title>
<path fill="none" stroke="midnightblue" d="M251.35,-163.47C231.09,-183.44 199.21,-212.29 167,-231 161.07,-234.45 154.68,-237.61 148.16,-240.48"/>
<polygon fill="midnightblue" stroke="midnightblue" points="253.93,-165.84 258.52,-156.29 248.98,-160.89 253.93,-165.84"/>
</g>
<!-- Node3 -->
<g id="node3" class="node">
<title>Node3</title>
<g id="a_node3"><a xlink:href="classv8_1_1PersistentValueMapBase_1_1PersistentValueReference.html#ac59d20538e1986a423605b013f33e040" target="_top" xlink:title=" ">
<polygon fill="white" stroke="black" points="12.5,-180.5 12.5,-221.5 154.5,-221.5 154.5,-180.5 12.5,-180.5"/>
<text text-anchor="start" x="20.5" y="-209.5" font-family="Helvetica,sans-Serif" font-size="10.00">v8::PersistentValueMapBase</text>
<text text-anchor="start" x="20.5" y="-198.5" font-family="Helvetica,sans-Serif" font-size="10.00">::PersistentValueReference</text>
<text text-anchor="middle" x="83.5" y="-187.5" font-family="Helvetica,sans-Serif" font-size="10.00">::NewLocal</text>
</a>
</g>
</g>
<!-- Node1&#45;&gt;Node3 -->
<g id="edge2" class="edge">
<title>Node1&#45;&gt;Node3</title>
<path fill="none" stroke="midnightblue" d="M215.69,-159.24C194.68,-165.93 170.75,-173.55 149.14,-180.42"/>
<polygon fill="midnightblue" stroke="midnightblue" points="216.97,-162.51 225.43,-156.14 214.84,-155.84 216.97,-162.51"/>
</g>
<!-- Node4 -->
<g id="node4" class="node">
<title>Node4</title>
<g id="a_node4"><a xlink:href="classv8_1_1PersistentValueMapBase.html#a9ffa7a4e0c59121c0471d71c04112966" target="_top" xlink:title=" ">
<polygon fill="white" stroke="black" points="0,-120.5 0,-161.5 167,-161.5 167,-120.5 0,-120.5"/>
<text text-anchor="start" x="8" y="-149.5" font-family="Helvetica,sans-Serif" font-size="10.00">v8::PersistentValueMapBase</text>
<text text-anchor="start" x="8" y="-138.5" font-family="Helvetica,sans-Serif" font-size="10.00">&lt; K, V, DefaultPersistentValueMap</text>
<text text-anchor="middle" x="83.5" y="-127.5" font-family="Helvetica,sans-Serif" font-size="10.00">Traits&lt; K, V &gt; &gt;::Release</text>
</a>
</g>
</g>
<!-- Node1&#45;&gt;Node4 -->
<g id="edge3" class="edge">
<title>Node1&#45;&gt;Node4</title>
<path fill="none" stroke="midnightblue" d="M192.62,-141C184.19,-141 175.61,-141 167.16,-141"/>
<polygon fill="midnightblue" stroke="midnightblue" points="192.81,-144.5 202.81,-141 192.81,-137.5 192.81,-144.5"/>
</g>
<!-- Node5 -->
<g id="node5" class="node">
<title>Node5</title>
<g id="a_node5"><a xlink:href="classv8_1_1PersistentValueMapBase.html#a5c16ace49c257f760c92a010a93b4884" target="_top" xlink:title=" ">
<polygon fill="white" stroke="black" points="0,-60.5 0,-101.5 167,-101.5 167,-60.5 0,-60.5"/>
<text text-anchor="start" x="8" y="-89.5" font-family="Helvetica,sans-Serif" font-size="10.00">v8::PersistentValueMapBase</text>
<text text-anchor="start" x="8" y="-78.5" font-family="Helvetica,sans-Serif" font-size="10.00">&lt; K, V, DefaultPersistentValueMap</text>
<text text-anchor="middle" x="83.5" y="-67.5" font-family="Helvetica,sans-Serif" font-size="10.00">Traits&lt; K, V &gt; &gt;::RemoveWeak</text>
</a>
</g>
</g>
<!-- Node1&#45;&gt;Node5 -->
<g id="edge4" class="edge">
<title>Node1&#45;&gt;Node5</title>
<path fill="none" stroke="midnightblue" d="M215.69,-122.76C194.68,-116.07 170.75,-108.45 149.14,-101.58"/>
<polygon fill="midnightblue" stroke="midnightblue" points="214.84,-126.16 225.43,-125.86 216.97,-119.49 214.84,-126.16"/>
</g>
<!-- Node6 -->
<g id="node6" class="node">
<title>Node6</title>
<g id="a_node6"><a xlink:href="classv8_1_1PersistentValueMapBase.html#a6fa5f720b283dd9fa626a67e7687dcd0" target="_top" xlink:title=" ">
<polygon fill="white" stroke="black" points="0,-0.5 0,-41.5 167,-41.5 167,-0.5 0,-0.5"/>
<text text-anchor="start" x="8" y="-29.5" font-family="Helvetica,sans-Serif" font-size="10.00">v8::PersistentValueMapBase</text>
<text text-anchor="start" x="8" y="-18.5" font-family="Helvetica,sans-Serif" font-size="10.00">&lt; K, V, DefaultPersistentValueMap</text>
<text text-anchor="middle" x="83.5" y="-7.5" font-family="Helvetica,sans-Serif" font-size="10.00">Traits&lt; K, V &gt; &gt;::SetReference</text>
</a>
</g>
</g>
<!-- Node1&#45;&gt;Node6 -->
<g id="edge5" class="edge">
<title>Node1&#45;&gt;Node6</title>
<path fill="none" stroke="midnightblue" d="M251.35,-118.53C231.09,-98.56 199.21,-69.71 167,-51 161.07,-47.55 154.68,-44.39 148.16,-41.52"/>
<polygon fill="midnightblue" stroke="midnightblue" points="248.98,-121.11 258.52,-125.71 253.93,-116.16 248.98,-121.11"/>
</g>
</g>
</svg>
