<?xml version="1.0" encoding="UTF-8" standalone="no"?>
<!DOCTYPE svg PUBLIC "-//W3C//DTD SVG 1.1//EN"
 "http://www.w3.org/Graphics/SVG/1.1/DTD/svg11.dtd">
<!-- Generated by graphviz version 2.44.0 ()
 -->
<!-- Title: v8::GlobalValueMap::Set Pages: 1 -->
<svg width="447pt" height="186pt"
 viewBox="0.00 0.00 447.00 186.00" xmlns="http://www.w3.org/2000/svg" xmlns:xlink="http://www.w3.org/1999/xlink">
<g id="graph0" class="graph" transform="scale(1 1) rotate(0) translate(4 182)">
<title>v8::GlobalValueMap::Set</title>
<polygon fill="white" stroke="transparent" points="-4,4 -4,-182 443,-182 443,4 -4,4"/>
<!-- Node1 -->
<g id="node1" class="node">
<title>Node1</title>
<g id="a_node1"><a xlink:title=" ">
<polygon fill="#bfbfbf" stroke="black" points="0,-126 0,-145 122,-145 122,-126 0,-126"/>
<text text-anchor="middle" x="61" y="-133" font-family="Helvetica,sans-Serif" font-size="10.00">v8::GlobalValueMap::Set</text>
</a>
</g>
</g>
<!-- Node2 -->
<g id="node2" class="node">
<title>Node2</title>
<g id="a_node2"><a xlink:href="classv8_1_1PersistentValueMapBase.html#af2e83791955c6027213dd979eebeb8f4" target="_top" xlink:title=" ">
<polygon fill="white" stroke="black" points="297,-147.5 297,-177.5 439,-177.5 439,-147.5 297,-147.5"/>
<text text-anchor="start" x="305" y="-165.5" font-family="Helvetica,sans-Serif" font-size="10.00">v8::PersistentValueMapBase</text>
<text text-anchor="middle" x="368" y="-154.5" font-family="Helvetica,sans-Serif" font-size="10.00">::isolate</text>
</a>
</g>
</g>
<!-- Node1&#45;&gt;Node2 -->
<g id="edge1" class="edge">
<title>Node1&#45;&gt;Node2</title>
<path fill="none" stroke="midnightblue" d="M122.26,-140.83C169.38,-145.01 235.31,-150.84 286.88,-155.41"/>
<polygon fill="midnightblue" stroke="midnightblue" points="286.72,-158.91 296.99,-156.3 287.33,-151.93 286.72,-158.91"/>
</g>
<!-- Node3 -->
<g id="node3" class="node">
<title>Node3</title>
<g id="a_node3"><a xlink:href="classv8_1_1GlobalValueMap.html#aad73de3912571a2f245454d3edea4a41" target="_top" xlink:title=" ">
<polygon fill="white" stroke="black" points="158,-98.5 158,-128.5 261,-128.5 261,-98.5 158,-98.5"/>
<text text-anchor="start" x="166" y="-116.5" font-family="Helvetica,sans-Serif" font-size="10.00">v8::GlobalValueMap</text>
<text text-anchor="middle" x="209.5" y="-105.5" font-family="Helvetica,sans-Serif" font-size="10.00">::SetUnique</text>
</a>
</g>
</g>
<!-- Node1&#45;&gt;Node3 -->
<g id="edge2" class="edge">
<title>Node1&#45;&gt;Node3</title>
<path fill="none" stroke="midnightblue" d="M122.01,-126.49C130.44,-125.22 139.11,-123.92 147.55,-122.65"/>
<polygon fill="midnightblue" stroke="midnightblue" points="148.34,-126.07 157.71,-121.13 147.3,-119.15 148.34,-126.07"/>
</g>
<!-- Node3&#45;&gt;Node2 -->
<g id="edge5" class="edge">
<title>Node3&#45;&gt;Node2</title>
<path fill="none" stroke="midnightblue" d="M258.73,-128.6C274.72,-133.61 292.69,-139.23 309.32,-144.44"/>
<polygon fill="midnightblue" stroke="midnightblue" points="308.34,-147.8 318.93,-147.45 310.43,-141.12 308.34,-147.8"/>
</g>
<!-- Node4 -->
<g id="node4" class="node">
<title>Node4</title>
<g id="a_node4"><a xlink:href="classv8_1_1PersistentValueMapBase.html#a7b083c75829bbc4177729ffe9827c4ac" target="_top" xlink:title=" ">
<polygon fill="white" stroke="black" points="297,-98.5 297,-128.5 439,-128.5 439,-98.5 297,-98.5"/>
<text text-anchor="start" x="305" y="-116.5" font-family="Helvetica,sans-Serif" font-size="10.00">v8::PersistentValueMapBase</text>
<text text-anchor="middle" x="368" y="-105.5" font-family="Helvetica,sans-Serif" font-size="10.00">::ClearAndLeak</text>
</a>
</g>
</g>
<!-- Node3&#45;&gt;Node4 -->
<g id="edge3" class="edge">
<title>Node3&#45;&gt;Node4</title>
<path fill="none" stroke="midnightblue" d="M261.31,-113.5C269.46,-113.5 278.06,-113.5 286.69,-113.5"/>
<polygon fill="midnightblue" stroke="midnightblue" points="286.82,-117 296.82,-113.5 286.82,-110 286.82,-117"/>
</g>
<!-- Node5 -->
<g id="node5" class="node">
<title>Node5</title>
<g id="a_node5"><a xlink:href="classv8_1_1PersistentValueMapBase.html#aacd576258fbffaf366436a6ecdd8cdf5" target="_top" xlink:title=" ">
<polygon fill="white" stroke="black" points="297,-49.5 297,-79.5 439,-79.5 439,-49.5 297,-49.5"/>
<text text-anchor="start" x="305" y="-67.5" font-family="Helvetica,sans-Serif" font-size="10.00">v8::PersistentValueMapBase</text>
<text text-anchor="middle" x="368" y="-56.5" font-family="Helvetica,sans-Serif" font-size="10.00">::impl</text>
</a>
</g>
</g>
<!-- Node3&#45;&gt;Node5 -->
<g id="edge4" class="edge">
<title>Node3&#45;&gt;Node5</title>
<path fill="none" stroke="midnightblue" d="M258.73,-98.4C274.72,-93.39 292.69,-87.77 309.32,-82.56"/>
<polygon fill="midnightblue" stroke="midnightblue" points="310.43,-85.88 318.93,-79.55 308.34,-79.2 310.43,-85.88"/>
</g>
<!-- Node6 -->
<g id="node6" class="node">
<title>Node6</title>
<g id="a_node6"><a xlink:href="classv8_1_1PersistentValueMapBase.html#a9ffa7a4e0c59121c0471d71c04112966" target="_top" xlink:title=" ">
<polygon fill="white" stroke="black" points="297,-0.5 297,-30.5 439,-30.5 439,-0.5 297,-0.5"/>
<text text-anchor="start" x="305" y="-18.5" font-family="Helvetica,sans-Serif" font-size="10.00">v8::PersistentValueMapBase</text>
<text text-anchor="middle" x="368" y="-7.5" font-family="Helvetica,sans-Serif" font-size="10.00">::Release</text>
</a>
</g>
</g>
<!-- Node3&#45;&gt;Node6 -->
<g id="edge6" class="edge">
<title>Node3&#45;&gt;Node6</title>
<path fill="none" stroke="midnightblue" d="M224.79,-98.23C240.94,-81.74 268.69,-55.67 297,-39.5 299.99,-37.79 303.12,-36.18 306.33,-34.66"/>
<polygon fill="midnightblue" stroke="midnightblue" points="307.79,-37.84 315.54,-30.62 304.98,-31.43 307.79,-37.84"/>
</g>
</g>
</svg>
