<?xml version="1.0" encoding="UTF-8" standalone="no"?>
<!DOCTYPE svg PUBLIC "-//W3C//DTD SVG 1.1//EN"
 "http://www.w3.org/Graphics/SVG/1.1/DTD/svg11.dtd">
<!-- Generated by graphviz version 2.44.0 ()
 -->
<!-- Title: v8::PersistentValueMapBase::ClearAndLeak Pages: 1 -->
<svg width="498pt" height="99pt"
 viewBox="0.00 0.00 498.00 98.50" xmlns="http://www.w3.org/2000/svg" xmlns:xlink="http://www.w3.org/1999/xlink">
<g id="graph0" class="graph" transform="scale(1 1) rotate(0) translate(4 94.5)">
<title>v8::PersistentValueMapBase::ClearAndLeak</title>
<polygon fill="white" stroke="transparent" points="-4,4 -4,-94.5 494,-94.5 494,4 -4,4"/>
<!-- Node1 -->
<g id="node1" class="node">
<title>Node1</title>
<g id="a_node1"><a xlink:title=" ">
<polygon fill="#bfbfbf" stroke="black" points="348,-27.5 348,-57.5 490,-57.5 490,-27.5 348,-27.5"/>
<text text-anchor="start" x="356" y="-45.5" font-family="Helvetica,sans-Serif" font-size="10.00">v8::PersistentValueMapBase</text>
<text text-anchor="middle" x="419" y="-34.5" font-family="Helvetica,sans-Serif" font-size="10.00">::ClearAndLeak</text>
</a>
</g>
</g>
<!-- Node2 -->
<g id="node2" class="node">
<title>Node2</title>
<g id="a_node2"><a xlink:href="classv8_1_1PersistentValueMap.html#a97ab74c7670e65dd5f95ec2940c4ab11" target="_top" xlink:title=" ">
<polygon fill="white" stroke="black" points="158,-49 158,-90 312,-90 312,-49 158,-49"/>
<text text-anchor="start" x="166" y="-78" font-family="Helvetica,sans-Serif" font-size="10.00">v8::PersistentValueMap</text>
<text text-anchor="start" x="166" y="-67" font-family="Helvetica,sans-Serif" font-size="10.00">&lt; K, V, DefaultPersistentValue</text>
<text text-anchor="middle" x="235" y="-56" font-family="Helvetica,sans-Serif" font-size="10.00">MapTraits&lt; K, V &gt; &gt;::SetUnique</text>
</a>
</g>
</g>
<!-- Node1&#45;&gt;Node2 -->
<g id="edge1" class="edge">
<title>Node1&#45;&gt;Node2</title>
<path fill="none" stroke="midnightblue" d="M337.91,-54.38C329.34,-55.65 320.64,-56.94 312.12,-58.21"/>
<polygon fill="midnightblue" stroke="midnightblue" points="338.52,-57.83 347.89,-52.9 337.49,-50.91 338.52,-57.83"/>
</g>
<!-- Node3 -->
<g id="node3" class="node">
<title>Node3</title>
<g id="a_node3"><a xlink:href="classv8_1_1GlobalValueMap.html#aad73de3912571a2f245454d3edea4a41" target="_top" xlink:title=" ">
<polygon fill="white" stroke="black" points="183.5,-0.5 183.5,-30.5 286.5,-30.5 286.5,-0.5 183.5,-0.5"/>
<text text-anchor="start" x="191.5" y="-18.5" font-family="Helvetica,sans-Serif" font-size="10.00">v8::GlobalValueMap</text>
<text text-anchor="middle" x="235" y="-7.5" font-family="Helvetica,sans-Serif" font-size="10.00">::SetUnique</text>
</a>
</g>
</g>
<!-- Node1&#45;&gt;Node3 -->
<g id="edge2" class="edge">
<title>Node1&#45;&gt;Node3</title>
<path fill="none" stroke="midnightblue" d="M337.74,-30.59C320.36,-28.01 302.44,-25.36 286.58,-23"/>
<polygon fill="midnightblue" stroke="midnightblue" points="337.49,-34.09 347.89,-32.1 338.52,-27.17 337.49,-34.09"/>
</g>
<!-- Node4 -->
<g id="node4" class="node">
<title>Node4</title>
<g id="a_node4"><a xlink:href="classv8_1_1GlobalValueMap.html#aa13f7914642c705b8e96824747ea115a" target="_top" xlink:title=" ">
<polygon fill="white" stroke="black" points="0,-6 0,-25 122,-25 122,-6 0,-6"/>
<text text-anchor="middle" x="61" y="-13" font-family="Helvetica,sans-Serif" font-size="10.00">v8::GlobalValueMap::Set</text>
</a>
</g>
</g>
<!-- Node3&#45;&gt;Node4 -->
<g id="edge3" class="edge">
<title>Node3&#45;&gt;Node4</title>
<path fill="none" stroke="midnightblue" d="M173.18,-15.5C156.57,-15.5 138.59,-15.5 122.02,-15.5"/>
<polygon fill="midnightblue" stroke="midnightblue" points="173.32,-19 183.32,-15.5 173.32,-12 173.32,-19"/>
</g>
</g>
</svg>
