<?xml version="1.0" encoding="UTF-8" standalone="no"?>
<!DOCTYPE svg PUBLIC "-//W3C//DTD SVG 1.1//EN"
 "http://www.w3.org/Graphics/SVG/1.1/DTD/svg11.dtd">
<!-- Generated by graphviz version 2.44.0 ()
 -->
<!-- Title: v8::PersistentValueMapBase::isolate Pages: 1 -->
<svg width="498pt" height="257pt"
 viewBox="0.00 0.00 498.00 256.50" xmlns="http://www.w3.org/2000/svg" xmlns:xlink="http://www.w3.org/1999/xlink">
<g id="graph0" class="graph" transform="scale(1 1) rotate(0) translate(4 252.5)">
<title>v8::PersistentValueMapBase::isolate</title>
<polygon fill="white" stroke="transparent" points="-4,4 -4,-252.5 494,-252.5 494,4 -4,4"/>
<!-- Node1 -->
<g id="node1" class="node">
<title>Node1</title>
<g id="a_node1"><a xlink:title=" ">
<polygon fill="#bfbfbf" stroke="black" points="348,-103.5 348,-133.5 490,-133.5 490,-103.5 348,-103.5"/>
<text text-anchor="start" x="356" y="-121.5" font-family="Helvetica,sans-Serif" font-size="10.00">v8::PersistentValueMapBase</text>
<text text-anchor="middle" x="419" y="-110.5" font-family="Helvetica,sans-Serif" font-size="10.00">::isolate</text>
</a>
</g>
</g>
<!-- Node2 -->
<g id="node2" class="node">
<title>Node2</title>
<g id="a_node2"><a xlink:href="classv8_1_1PersistentValueMapBase_1_1PersistentValueReference.html#ac59d20538e1986a423605b013f33e040" target="_top" xlink:title=" ">
<polygon fill="white" stroke="black" points="164,-207 164,-248 306,-248 306,-207 164,-207"/>
<text text-anchor="start" x="172" y="-236" font-family="Helvetica,sans-Serif" font-size="10.00">v8::PersistentValueMapBase</text>
<text text-anchor="start" x="172" y="-225" font-family="Helvetica,sans-Serif" font-size="10.00">::PersistentValueReference</text>
<text text-anchor="middle" x="235" y="-214" font-family="Helvetica,sans-Serif" font-size="10.00">::NewLocal</text>
</a>
</g>
</g>
<!-- Node1&#45;&gt;Node2 -->
<g id="edge1" class="edge">
<title>Node1&#45;&gt;Node2</title>
<path fill="none" stroke="midnightblue" d="M392.93,-140.19C372.23,-157.33 341.56,-181.03 312,-197.5 306.05,-200.81 299.66,-203.94 293.21,-206.83"/>
<polygon fill="midnightblue" stroke="midnightblue" points="395.2,-142.85 400.61,-133.74 390.7,-137.49 395.2,-142.85"/>
</g>
<!-- Node3 -->
<g id="node3" class="node">
<title>Node3</title>
<g id="a_node3"><a xlink:href="classv8_1_1PersistentValueMap.html#a4527a2e1b25a9f1772317f948382d9f9" target="_top" xlink:title=" ">
<polygon fill="white" stroke="black" points="160.5,-147 160.5,-188 309.5,-188 309.5,-147 160.5,-147"/>
<text text-anchor="start" x="168.5" y="-176" font-family="Helvetica,sans-Serif" font-size="10.00">v8::PersistentValueMap</text>
<text text-anchor="start" x="168.5" y="-165" font-family="Helvetica,sans-Serif" font-size="10.00">&lt; K, V, DefaultPersistentValue</text>
<text text-anchor="middle" x="235" y="-154" font-family="Helvetica,sans-Serif" font-size="10.00">MapTraits&lt; K, V &gt; &gt;::Set</text>
</a>
</g>
</g>
<!-- Node1&#45;&gt;Node3 -->
<g id="edge2" class="edge">
<title>Node1&#45;&gt;Node3</title>
<path fill="none" stroke="midnightblue" d="M352.05,-136.25C338.29,-139.96 323.7,-143.89 309.67,-147.67"/>
<polygon fill="midnightblue" stroke="midnightblue" points="353.16,-139.58 361.91,-133.6 351.34,-132.82 353.16,-139.58"/>
</g>
<!-- Node4 -->
<g id="node4" class="node">
<title>Node4</title>
<g id="a_node4"><a xlink:href="classv8_1_1GlobalValueMap.html#aa13f7914642c705b8e96824747ea115a" target="_top" xlink:title=" ">
<polygon fill="white" stroke="black" points="0,-57 0,-76 122,-76 122,-57 0,-57"/>
<text text-anchor="middle" x="61" y="-64" font-family="Helvetica,sans-Serif" font-size="10.00">v8::GlobalValueMap::Set</text>
</a>
</g>
</g>
<!-- Node1&#45;&gt;Node4 -->
<g id="edge3" class="edge">
<title>Node1&#45;&gt;Node4</title>
<path fill="none" stroke="midnightblue" d="M337.69,-117.96C285.93,-116.31 217.44,-111.67 158,-99.5 132.1,-94.2 103.59,-83.78 84.43,-76.06"/>
<polygon fill="midnightblue" stroke="midnightblue" points="337.71,-121.46 347.81,-118.25 337.91,-114.47 337.71,-121.46"/>
</g>
<!-- Node5 -->
<g id="node5" class="node">
<title>Node5</title>
<g id="a_node5"><a xlink:href="classv8_1_1PersistentValueMap.html#a97ab74c7670e65dd5f95ec2940c4ab11" target="_top" xlink:title=" ">
<polygon fill="white" stroke="black" points="158,-49 158,-90 312,-90 312,-49 158,-49"/>
<text text-anchor="start" x="166" y="-78" font-family="Helvetica,sans-Serif" font-size="10.00">v8::PersistentValueMap</text>
<text text-anchor="start" x="166" y="-67" font-family="Helvetica,sans-Serif" font-size="10.00">&lt; K, V, DefaultPersistentValue</text>
<text text-anchor="middle" x="235" y="-56" font-family="Helvetica,sans-Serif" font-size="10.00">MapTraits&lt; K, V &gt; &gt;::SetUnique</text>
</a>
</g>
</g>
<!-- Node1&#45;&gt;Node5 -->
<g id="edge4" class="edge">
<title>Node1&#45;&gt;Node5</title>
<path fill="none" stroke="midnightblue" d="M352.18,-100.78C339.24,-97.3 325.57,-93.62 312.33,-90.05"/>
<polygon fill="midnightblue" stroke="midnightblue" points="351.34,-104.18 361.91,-103.4 353.16,-97.42 351.34,-104.18"/>
</g>
<!-- Node6 -->
<g id="node6" class="node">
<title>Node6</title>
<g id="a_node6"><a xlink:href="classv8_1_1GlobalValueMap.html#aad73de3912571a2f245454d3edea4a41" target="_top" xlink:title=" ">
<polygon fill="white" stroke="black" points="183.5,-0.5 183.5,-30.5 286.5,-30.5 286.5,-0.5 183.5,-0.5"/>
<text text-anchor="start" x="191.5" y="-18.5" font-family="Helvetica,sans-Serif" font-size="10.00">v8::GlobalValueMap</text>
<text text-anchor="middle" x="235" y="-7.5" font-family="Helvetica,sans-Serif" font-size="10.00">::SetUnique</text>
</a>
</g>
</g>
<!-- Node1&#45;&gt;Node6 -->
<g id="edge5" class="edge">
<title>Node1&#45;&gt;Node6</title>
<path fill="none" stroke="midnightblue" d="M393.96,-96.87C373.44,-79.35 342.48,-55.1 312,-39.5 304.12,-35.46 295.43,-31.95 286.82,-28.94"/>
<polygon fill="midnightblue" stroke="midnightblue" points="391.71,-99.55 401.56,-103.45 396.29,-94.26 391.71,-99.55"/>
</g>
<!-- Node6&#45;&gt;Node4 -->
<g id="edge6" class="edge">
<title>Node6&#45;&gt;Node4</title>
<path fill="none" stroke="midnightblue" d="M173.65,-33.39C146.9,-41.33 116.5,-50.34 94.18,-56.96"/>
<polygon fill="midnightblue" stroke="midnightblue" points="174.73,-36.72 183.32,-30.53 172.74,-30.01 174.73,-36.72"/>
</g>
</g>
</svg>
