<?xml version="1.0" encoding="UTF-8" standalone="no"?>
<!DOCTYPE svg PUBLIC "-//W3C//DTD SVG 1.1//EN"
 "http://www.w3.org/Graphics/SVG/1.1/DTD/svg11.dtd">
<!-- Generated by graphviz version 2.44.0 ()
 -->
<!-- Title: v8::JitCodeEvent Pages: 1 -->
<svg width="550pt" height="116pt"
 viewBox="0.00 0.00 550.00 116.00" xmlns="http://www.w3.org/2000/svg" xmlns:xlink="http://www.w3.org/1999/xlink">
<g id="graph0" class="graph" transform="scale(1 1) rotate(0) translate(4 112)">
<title>v8::JitCodeEvent</title>
<polygon fill="white" stroke="transparent" points="-4,4 -4,-112 546,-112 546,4 -4,4"/>
<!-- Node1 -->
<g id="node1" class="node">
<title>Node1</title>
<g id="a_node1"><a xlink:title=" ">
<polygon fill="#bfbfbf" stroke="black" points="453,-44.5 453,-63.5 542,-63.5 542,-44.5 453,-44.5"/>
<text text-anchor="middle" x="497.5" y="-51.5" font-family="Helvetica,sans-Serif" font-size="10.00">v8::JitCodeEvent</text>
</a>
</g>
</g>
<!-- Node2 -->
<g id="node2" class="node">
<title>Node2</title>
<g id="a_node2"><a xlink:href="structv8_1_1JitCodeEvent_1_1name__t.html" target="_top" xlink:title=" ">
<polygon fill="white" stroke="black" points="236,-88.5 236,-107.5 362,-107.5 362,-88.5 236,-88.5"/>
<text text-anchor="middle" x="299" y="-95.5" font-family="Helvetica,sans-Serif" font-size="10.00">v8::JitCodeEvent::name_t</text>
</a>
</g>
</g>
<!-- Node2&#45;&gt;Node1 -->
<g id="edge1" class="edge">
<title>Node2&#45;&gt;Node1</title>
<path fill="none" stroke="#9a32cd" stroke-dasharray="5,2" d="M355.79,-86.38C380.14,-81.21 409.02,-74.96 435,-69 442.5,-67.28 450.49,-65.38 458.16,-63.53"/>
<polygon fill="#9a32cd" stroke="#9a32cd" points="355.06,-82.96 346,-88.45 356.5,-89.8 355.06,-82.96"/>
<text text-anchor="middle" x="415.5" y="-80" font-family="Helvetica,sans-Serif" font-size="10.00"> name</text>
</g>
<!-- Node3 -->
<g id="node3" class="node">
<title>Node3</title>
<g id="a_node3"><a xlink:href="structv8_1_1JitCodeEvent_1_1line__info__t.html" target="_top" xlink:title=" ">
<polygon fill="white" stroke="black" points="244.5,-39 244.5,-69 353.5,-69 353.5,-39 244.5,-39"/>
<text text-anchor="start" x="252.5" y="-57" font-family="Helvetica,sans-Serif" font-size="10.00">v8::JitCodeEvent::line</text>
<text text-anchor="middle" x="299" y="-46" font-family="Helvetica,sans-Serif" font-size="10.00">_info_t</text>
</a>
</g>
</g>
<!-- Node3&#45;&gt;Node1 -->
<g id="edge2" class="edge">
<title>Node3&#45;&gt;Node1</title>
<path fill="none" stroke="#9a32cd" stroke-dasharray="5,2" d="M363.78,-54C392.89,-54 426.63,-54 452.8,-54"/>
<polygon fill="#9a32cd" stroke="#9a32cd" points="363.69,-50.5 353.69,-54 363.69,-57.5 363.69,-50.5"/>
<text text-anchor="middle" x="415.5" y="-57" font-family="Helvetica,sans-Serif" font-size="10.00"> line_info</text>
</g>
<!-- Node4 -->
<g id="node4" class="node">
<title>Node4</title>
<g id="a_node4"><a xlink:href="classv8_1_1Handle.html" target="_top" xlink:title=" ">
<polygon fill="white" stroke="black" points="220,-0.5 220,-19.5 378,-19.5 378,-0.5 220,-0.5"/>
<text text-anchor="middle" x="299" y="-7.5" font-family="Helvetica,sans-Serif" font-size="10.00">v8::Handle&lt; v8::UnboundScript &gt;</text>
</a>
</g>
</g>
<!-- Node4&#45;&gt;Node1 -->
<g id="edge3" class="edge">
<title>Node4&#45;&gt;Node1</title>
<path fill="none" stroke="#9a32cd" stroke-dasharray="5,2" d="M355.79,-21.62C380.14,-26.79 409.02,-33.04 435,-39 442.5,-40.72 450.49,-42.62 458.16,-44.47"/>
<polygon fill="#9a32cd" stroke="#9a32cd" points="356.5,-18.2 346,-19.55 355.06,-25.04 356.5,-18.2"/>
<text text-anchor="middle" x="415.5" y="-42" font-family="Helvetica,sans-Serif" font-size="10.00"> script</text>
</g>
<!-- Node5 -->
<g id="node5" class="node">
<title>Node5</title>
<g id="a_node5"><a xlink:href="classv8_1_1Handle.html" target="_top" xlink:title=" ">
<polygon fill="white" stroke="black" points="0,-0.5 0,-19.5 85,-19.5 85,-0.5 0,-0.5"/>
<text text-anchor="middle" x="42.5" y="-7.5" font-family="Helvetica,sans-Serif" font-size="10.00">v8::Handle&lt; T &gt;</text>
</a>
</g>
</g>
<!-- Node5&#45;&gt;Node4 -->
<g id="edge4" class="edge">
<title>Node5&#45;&gt;Node4</title>
<path fill="none" stroke="orange" stroke-dasharray="5,2" d="M95.47,-10C131.3,-10 179.56,-10 219.99,-10"/>
<polygon fill="orange" stroke="orange" points="95.24,-6.5 85.24,-10 95.24,-13.5 95.24,-6.5"/>
<text text-anchor="middle" x="152.5" y="-13" font-family="Helvetica,sans-Serif" font-size="10.00"> &lt; v8::UnboundScript &gt;</text>
</g>
</g>
</svg>
