<?xml version="1.0" encoding="UTF-8" standalone="no"?>
<!DOCTYPE svg PUBLIC "-//W3C//DTD SVG 1.1//EN"
 "http://www.w3.org/Graphics/SVG/1.1/DTD/svg11.dtd">
<!-- Generated by graphviz version 2.44.0 ()
 -->
<!-- Title: v8::Isolate::GetCurrent Pages: 1 -->
<svg width="321pt" height="819pt"
 viewBox="0.00 0.00 321.00 818.50" xmlns="http://www.w3.org/2000/svg" xmlns:xlink="http://www.w3.org/1999/xlink">
<g id="graph0" class="graph" transform="scale(1 1) rotate(0) translate(4 814.5)">
<title>v8::Isolate::GetCurrent</title>
<polygon fill="white" stroke="transparent" points="-4,4 -4,-814.5 317,-814.5 317,4 -4,4"/>
<!-- Node1 -->
<g id="node1" class="node">
<title>Node1</title>
<g id="a_node1"><a xlink:title=" ">
<polygon fill="#bfbfbf" stroke="black" points="200,-373 200,-392 313,-392 313,-373 200,-373"/>
<text text-anchor="middle" x="256.5" y="-380" font-family="Helvetica,sans-Serif" font-size="10.00">v8::Isolate::GetCurrent</text>
</a>
</g>
</g>
<!-- Node2 -->
<g id="node2" class="node">
<title>Node2</title>
<g id="a_node2"><a xlink:href="classv8_1_1V8.html#a8021e7accd9d5f739ecc0eff876f9f0f" target="_top" xlink:title=" ">
<polygon fill="white" stroke="black" points="12,-791 12,-810 152,-810 152,-791 12,-791"/>
<text text-anchor="middle" x="82" y="-798" font-family="Helvetica,sans-Serif" font-size="10.00">v8::V8::AddMessageListener</text>
</a>
</g>
</g>
<!-- Node1&#45;&gt;Node2 -->
<g id="edge1" class="edge">
<title>Node1&#45;&gt;Node2</title>
<path fill="none" stroke="midnightblue" d="M253.69,-402.31C246.66,-475.12 218.72,-726.51 164,-781.5 160.23,-785.29 155.86,-788.38 151.14,-790.89"/>
<polygon fill="midnightblue" stroke="midnightblue" points="257.19,-402.5 254.64,-392.22 250.22,-401.85 257.19,-402.5"/>
</g>
<!-- Node3 -->
<g id="node3" class="node">
<title>Node3</title>
<g id="a_node3"><a xlink:href="classv8_1_1V8.html#ae5af79b24fc62e987e08c43ee148424d" target="_top" xlink:title=" ">
<polygon fill="white" stroke="black" points="42.5,-753 42.5,-772 121.5,-772 121.5,-753 42.5,-753"/>
<text text-anchor="middle" x="82" y="-760" font-family="Helvetica,sans-Serif" font-size="10.00">v8::V8::IsDead</text>
</a>
</g>
</g>
<!-- Node1&#45;&gt;Node3 -->
<g id="edge2" class="edge">
<title>Node1&#45;&gt;Node3</title>
<path fill="none" stroke="midnightblue" d="M253.15,-402.6C244.71,-471.2 213.81,-694.57 164,-743.5 152.87,-754.43 136.72,-759.52 121.76,-761.75"/>
<polygon fill="midnightblue" stroke="midnightblue" points="256.66,-402.66 254.38,-392.31 249.71,-401.82 256.66,-402.66"/>
</g>
<!-- Node4 -->
<g id="node4" class="node">
<title>Node4</title>
<g id="a_node4"><a xlink:href="classv8_1_1V8.html#ac9336f620bc684ff6e3c68ee6f549d18" target="_top" xlink:title=" ">
<polygon fill="white" stroke="black" points="7.5,-715 7.5,-734 156.5,-734 156.5,-715 7.5,-715"/>
<text text-anchor="middle" x="82" y="-722" font-family="Helvetica,sans-Serif" font-size="10.00">v8::V8::IsExecutionTerminating</text>
</a>
</g>
</g>
<!-- Node1&#45;&gt;Node4 -->
<g id="edge3" class="edge">
<title>Node1&#45;&gt;Node4</title>
<path fill="none" stroke="midnightblue" d="M256.28,-402.2C257.35,-458.44 252.31,-621.13 164,-705.5 160.03,-709.29 155.46,-712.38 150.54,-714.88"/>
<polygon fill="midnightblue" stroke="midnightblue" points="259.77,-402.05 255.99,-392.15 252.78,-402.25 259.77,-402.05"/>
</g>
<!-- Node5 -->
<g id="node5" class="node">
<title>Node5</title>
<g id="a_node5"><a xlink:href="classv8_1_1V8.html#abee47a7f81e85bf58578b52bc9d95727" target="_top" xlink:title=" ">
<polygon fill="white" stroke="black" points="14.5,-665.5 14.5,-695.5 149.5,-695.5 149.5,-665.5 14.5,-665.5"/>
<text text-anchor="start" x="22.5" y="-683.5" font-family="Helvetica,sans-Serif" font-size="10.00">v8::V8::RemoveGCEpilogue</text>
<text text-anchor="middle" x="82" y="-672.5" font-family="Helvetica,sans-Serif" font-size="10.00">Callback</text>
</a>
</g>
</g>
<!-- Node1&#45;&gt;Node5 -->
<g id="edge4" class="edge">
<title>Node1&#45;&gt;Node5</title>
<path fill="none" stroke="midnightblue" d="M254.86,-402.26C252.14,-452.29 237.94,-585.05 164,-656.5 159.78,-660.58 154.9,-663.97 149.68,-666.78"/>
<polygon fill="midnightblue" stroke="midnightblue" points="258.36,-402.29 255.31,-392.15 251.37,-401.98 258.36,-402.29"/>
</g>
<!-- Node6 -->
<g id="node6" class="node">
<title>Node6</title>
<g id="a_node6"><a xlink:href="classv8_1_1V8.html#aea7e6f15c1e26cc07057f422db80776c" target="_top" xlink:title=" ">
<polygon fill="white" stroke="black" points="13.5,-616.5 13.5,-646.5 150.5,-646.5 150.5,-616.5 13.5,-616.5"/>
<text text-anchor="start" x="21.5" y="-634.5" font-family="Helvetica,sans-Serif" font-size="10.00">v8::V8::RemoveGCPrologue</text>
<text text-anchor="middle" x="82" y="-623.5" font-family="Helvetica,sans-Serif" font-size="10.00">Callback</text>
</a>
</g>
</g>
<!-- Node1&#45;&gt;Node6 -->
<g id="edge5" class="edge">
<title>Node1&#45;&gt;Node6</title>
<path fill="none" stroke="midnightblue" d="M253.1,-402.34C246.79,-445.8 225.73,-550 164,-606.5 159.77,-610.38 154.94,-613.65 149.81,-616.42"/>
<polygon fill="midnightblue" stroke="midnightblue" points="256.6,-402.6 254.46,-392.23 249.66,-401.67 256.6,-402.6"/>
</g>
<!-- Node7 -->
<g id="node7" class="node">
<title>Node7</title>
<g id="a_node7"><a xlink:href="classv8_1_1V8.html#a103099e00d03c714261e00d75f0d745a" target="_top" xlink:title=" ">
<polygon fill="white" stroke="black" points="0,-578 0,-597 164,-597 164,-578 0,-578"/>
<text text-anchor="middle" x="82" y="-585" font-family="Helvetica,sans-Serif" font-size="10.00">v8::V8::RemoveMessageListeners</text>
</a>
</g>
</g>
<!-- Node1&#45;&gt;Node7 -->
<g id="edge6" class="edge">
<title>Node1&#45;&gt;Node7</title>
<path fill="none" stroke="midnightblue" d="M251.71,-401.84C243.2,-439.96 218.85,-524.86 164,-568.5 159.14,-572.37 153.63,-575.47 147.82,-577.96"/>
<polygon fill="midnightblue" stroke="midnightblue" points="255.15,-402.51 253.79,-392.01 248.3,-401.07 255.15,-402.51"/>
</g>
<!-- Node8 -->
<g id="node8" class="node">
<title>Node8</title>
<g id="a_node8"><a xlink:href="classv8_1_1V8.html#a699f7f6cd694d83ebf3cf28b0137b811" target="_top" xlink:title=" ">
<polygon fill="white" stroke="black" points="3.5,-528.5 3.5,-558.5 160.5,-558.5 160.5,-528.5 3.5,-528.5"/>
<text text-anchor="start" x="11.5" y="-546.5" font-family="Helvetica,sans-Serif" font-size="10.00">v8::V8::SetAllowCodeGeneration</text>
<text text-anchor="middle" x="82" y="-535.5" font-family="Helvetica,sans-Serif" font-size="10.00">FromStringsCallback</text>
</a>
</g>
</g>
<!-- Node1&#45;&gt;Node8 -->
<g id="edge7" class="edge">
<title>Node1&#45;&gt;Node8</title>
<path fill="none" stroke="midnightblue" d="M247.97,-401.37C235.19,-431 206.43,-488.24 164,-519.5 159.39,-522.89 154.31,-525.81 149.01,-528.32"/>
<polygon fill="midnightblue" stroke="midnightblue" points="251.2,-402.71 251.82,-392.14 244.74,-400.02 251.2,-402.71"/>
</g>
<!-- Node9 -->
<g id="node9" class="node">
<title>Node9</title>
<g id="a_node9"><a xlink:href="classv8_1_1V8.html#a6ed3c6cd32b8d225013445b145381d34" target="_top" xlink:title=" ">
<polygon fill="white" stroke="black" points="8.5,-479.5 8.5,-509.5 155.5,-509.5 155.5,-479.5 8.5,-479.5"/>
<text text-anchor="start" x="16.5" y="-497.5" font-family="Helvetica,sans-Serif" font-size="10.00">v8::V8::SetCaptureStackTrace</text>
<text text-anchor="middle" x="82" y="-486.5" font-family="Helvetica,sans-Serif" font-size="10.00">ForUncaughtExceptions</text>
</a>
</g>
</g>
<!-- Node1&#45;&gt;Node9 -->
<g id="edge8" class="edge">
<title>Node1&#45;&gt;Node9</title>
<path fill="none" stroke="midnightblue" d="M241.62,-400.21C225.15,-420.09 195.86,-451.96 164,-470.5 158.17,-473.89 151.82,-476.84 145.32,-479.4"/>
<polygon fill="midnightblue" stroke="midnightblue" points="244.49,-402.23 248.06,-392.26 239.05,-397.83 244.49,-402.23"/>
</g>
<!-- Node10 -->
<g id="node10" class="node">
<title>Node10</title>
<g id="a_node10"><a xlink:href="classv8_1_1V8.html#affcb65e1fdf849fadc6302655b981bbc" target="_top" xlink:title=" ">
<polygon fill="white" stroke="black" points="7,-430.5 7,-460.5 157,-460.5 157,-430.5 7,-430.5"/>
<text text-anchor="start" x="15" y="-448.5" font-family="Helvetica,sans-Serif" font-size="10.00">v8::V8::SetFailedAccessCheck</text>
<text text-anchor="middle" x="82" y="-437.5" font-family="Helvetica,sans-Serif" font-size="10.00">CallbackFunction</text>
</a>
</g>
</g>
<!-- Node1&#45;&gt;Node10 -->
<g id="edge9" class="edge">
<title>Node1&#45;&gt;Node10</title>
<path fill="none" stroke="midnightblue" d="M224.68,-396.15C207.07,-403.74 184.48,-413.11 164,-420.5 154.45,-423.95 144.16,-427.35 134.23,-430.49"/>
<polygon fill="midnightblue" stroke="midnightblue" points="226.13,-399.34 233.91,-392.14 223.34,-392.92 226.13,-399.34"/>
</g>
<!-- Node11 -->
<g id="node11" class="node">
<title>Node11</title>
<g id="a_node11"><a xlink:href="classv8_1_1V8.html#a290bf883bb4bf8f312089a23a628c067" target="_top" xlink:title=" ">
<polygon fill="white" stroke="black" points="12.5,-392 12.5,-411 151.5,-411 151.5,-392 12.5,-392"/>
<text text-anchor="middle" x="82" y="-399" font-family="Helvetica,sans-Serif" font-size="10.00">v8::V8::SetFatalErrorHandler</text>
</a>
</g>
</g>
<!-- Node1&#45;&gt;Node11 -->
<g id="edge10" class="edge">
<title>Node1&#45;&gt;Node11</title>
<path fill="none" stroke="midnightblue" d="M189.7,-389.75C177.27,-391.12 164.24,-392.55 151.73,-393.93"/>
<polygon fill="midnightblue" stroke="midnightblue" points="190.41,-393.19 199.97,-388.62 189.65,-386.23 190.41,-393.19"/>
</g>
<!-- Node12 -->
<g id="node12" class="node">
<title>Node12</title>
<g id="a_node12"><a xlink:href="classv8_1_1Value.html#a155927c52d88aa0145a55484b3035171" target="_top" xlink:title=" ">
<polygon fill="white" stroke="black" points="28.5,-354 28.5,-373 135.5,-373 135.5,-354 28.5,-354"/>
<text text-anchor="middle" x="82" y="-361" font-family="Helvetica,sans-Serif" font-size="10.00">v8::Value::ToBoolean</text>
</a>
</g>
</g>
<!-- Node1&#45;&gt;Node12 -->
<g id="edge11" class="edge">
<title>Node1&#45;&gt;Node12</title>
<path fill="none" stroke="midnightblue" d="M189.65,-375.25C171.83,-373.28 152.78,-371.19 135.78,-369.31"/>
<polygon fill="midnightblue" stroke="midnightblue" points="189.65,-378.77 199.97,-376.38 190.41,-371.81 189.65,-378.77"/>
</g>
<!-- Node13 -->
<g id="node13" class="node">
<title>Node13</title>
<g id="a_node13"><a xlink:href="classv8_1_1Value.html#a252d8ff83acb9af12fca51f08cf855fc" target="_top" xlink:title=" ">
<polygon fill="white" stroke="black" points="21,-316 21,-335 143,-335 143,-316 21,-316"/>
<text text-anchor="middle" x="82" y="-323" font-family="Helvetica,sans-Serif" font-size="10.00">v8::Value::ToDetailString</text>
</a>
</g>
</g>
<!-- Node1&#45;&gt;Node13 -->
<g id="edge12" class="edge">
<title>Node1&#45;&gt;Node13</title>
<path fill="none" stroke="midnightblue" d="M225.92,-368.77C208.22,-360.92 185.13,-351.32 164,-344.5 153,-340.95 140.97,-337.77 129.62,-335.06"/>
<polygon fill="midnightblue" stroke="midnightblue" points="224.59,-372.01 235.15,-372.92 227.46,-365.63 224.59,-372.01"/>
</g>
<!-- Node14 -->
<g id="node14" class="node">
<title>Node14</title>
<g id="a_node14"><a xlink:href="classv8_1_1Value.html#a9f0fbbd6cfd95af7b7d8e0ccc9cf75f2" target="_top" xlink:title=" ">
<polygon fill="white" stroke="black" points="35,-278 35,-297 129,-297 129,-278 35,-278"/>
<text text-anchor="middle" x="82" y="-285" font-family="Helvetica,sans-Serif" font-size="10.00">v8::Value::ToInt32</text>
</a>
</g>
</g>
<!-- Node1&#45;&gt;Node14 -->
<g id="edge13" class="edge">
<title>Node1&#45;&gt;Node14</title>
<path fill="none" stroke="midnightblue" d="M239.99,-365.64C223,-348.22 194.14,-321.5 164,-306.5 153.27,-301.16 140.98,-297.28 129.27,-294.49"/>
<polygon fill="midnightblue" stroke="midnightblue" points="237.49,-368.1 246.92,-372.92 242.56,-363.27 237.49,-368.1"/>
</g>
<!-- Node15 -->
<g id="node15" class="node">
<title>Node15</title>
<g id="a_node15"><a xlink:href="classv8_1_1Value.html#a5d79bcfef2172049c6d0ecfe3a382323" target="_top" xlink:title=" ">
<polygon fill="white" stroke="black" points="31,-240 31,-259 133,-259 133,-240 31,-240"/>
<text text-anchor="middle" x="82" y="-247" font-family="Helvetica,sans-Serif" font-size="10.00">v8::Value::ToInteger</text>
</a>
</g>
</g>
<!-- Node1&#45;&gt;Node15 -->
<g id="edge14" class="edge">
<title>Node1&#45;&gt;Node15</title>
<path fill="none" stroke="midnightblue" d="M245.7,-363.67C231.34,-338.01 202.1,-292.51 164,-268.5 154.71,-262.65 143.8,-258.59 133.05,-255.79"/>
<polygon fill="midnightblue" stroke="midnightblue" points="242.78,-365.62 250.62,-372.74 248.93,-362.28 242.78,-365.62"/>
</g>
<!-- Node16 -->
<g id="node16" class="node">
<title>Node16</title>
<g id="a_node16"><a xlink:href="classv8_1_1Value.html#af11bb17e54339256ade5979779ccd218" target="_top" xlink:title=" ">
<polygon fill="white" stroke="black" points="28.5,-202 28.5,-221 135.5,-221 135.5,-202 28.5,-202"/>
<text text-anchor="middle" x="82" y="-209" font-family="Helvetica,sans-Serif" font-size="10.00">v8::Value::ToNumber</text>
</a>
</g>
</g>
<!-- Node1&#45;&gt;Node16 -->
<g id="edge15" class="edge">
<title>Node1&#45;&gt;Node16</title>
<path fill="none" stroke="midnightblue" d="M249.43,-363.12C238.14,-330.43 210.75,-264.56 164,-230.5 155.71,-224.46 145.79,-220.31 135.78,-217.46"/>
<polygon fill="midnightblue" stroke="midnightblue" points="246.18,-364.45 252.64,-372.84 252.83,-362.25 246.18,-364.45"/>
</g>
<!-- Node17 -->
<g id="node17" class="node">
<title>Node17</title>
<g id="a_node17"><a xlink:href="classv8_1_1Value.html#ac4c1254c7bd010dc8c307a3e9a771dc6" target="_top" xlink:title=" ">
<polygon fill="white" stroke="black" points="31.5,-164 31.5,-183 132.5,-183 132.5,-164 31.5,-164"/>
<text text-anchor="middle" x="82" y="-171" font-family="Helvetica,sans-Serif" font-size="10.00">v8::Value::ToObject</text>
</a>
</g>
</g>
<!-- Node1&#45;&gt;Node17 -->
<g id="edge16" class="edge">
<title>Node1&#45;&gt;Node17</title>
<path fill="none" stroke="midnightblue" d="M251.85,-362.75C243.57,-323.83 219.62,-237.13 164,-192.5 155.1,-185.36 143.98,-180.82 132.86,-177.95"/>
<polygon fill="midnightblue" stroke="midnightblue" points="248.46,-363.68 253.85,-372.8 255.33,-362.3 248.46,-363.68"/>
</g>
<!-- Node18 -->
<g id="node18" class="node">
<title>Node18</title>
<g id="a_node18"><a xlink:href="classv8_1_1Value.html#a1a61145878edc60ae25d5dc57bc44d6d" target="_top" xlink:title=" ">
<polygon fill="white" stroke="black" points="33,-126 33,-145 131,-145 131,-126 33,-126"/>
<text text-anchor="middle" x="82" y="-133" font-family="Helvetica,sans-Serif" font-size="10.00">v8::Value::ToString</text>
</a>
</g>
</g>
<!-- Node1&#45;&gt;Node18 -->
<g id="edge17" class="edge">
<title>Node1&#45;&gt;Node18</title>
<path fill="none" stroke="midnightblue" d="M253.61,-362.88C248.26,-318.57 228.88,-210.24 164,-154.5 154.8,-146.59 142.91,-141.83 131.1,-139"/>
<polygon fill="midnightblue" stroke="midnightblue" points="250.14,-363.37 254.71,-372.93 257.1,-362.6 250.14,-363.37"/>
</g>
<!-- Node19 -->
<g id="node19" class="node">
<title>Node19</title>
<g id="a_node19"><a xlink:href="classv8_1_1Value.html#a6607c42219918519b1a1ad31fcffafbb" target="_top" xlink:title=" ">
<polygon fill="white" stroke="black" points="31.5,-88 31.5,-107 132.5,-107 132.5,-88 31.5,-88"/>
<text text-anchor="middle" x="82" y="-95" font-family="Helvetica,sans-Serif" font-size="10.00">v8::Value::ToUint32</text>
</a>
</g>
</g>
<!-- Node1&#45;&gt;Node19 -->
<g id="edge18" class="edge">
<title>Node1&#45;&gt;Node19</title>
<path fill="none" stroke="midnightblue" d="M254.88,-362.71C252.21,-313.27 238.11,-183.49 164,-116.5 155.32,-108.65 144.02,-103.87 132.64,-101"/>
<polygon fill="midnightblue" stroke="midnightblue" points="251.38,-362.9 255.32,-372.74 258.38,-362.6 251.38,-362.9"/>
</g>
<!-- Node20 -->
<g id="node20" class="node">
<title>Node20</title>
<g id="a_node20"><a xlink:href="classv8_1_1V8.html#a7eb03e6ab4e2eca21632e55a4ad30061" target="_top" xlink:title=" ">
<polygon fill="white" stroke="black" points="7.5,-50 7.5,-69 156.5,-69 156.5,-50 7.5,-50"/>
<text text-anchor="middle" x="82" y="-57" font-family="Helvetica,sans-Serif" font-size="10.00">v8::V8::VisitExternalResources</text>
</a>
</g>
</g>
<!-- Node1&#45;&gt;Node20 -->
<g id="edge19" class="edge">
<title>Node1&#45;&gt;Node20</title>
<path fill="none" stroke="midnightblue" d="M255.87,-362.54C255.71,-308.27 247.44,-156.92 164,-78.5 160,-74.74 155.4,-71.68 150.47,-69.19"/>
<polygon fill="midnightblue" stroke="midnightblue" points="252.36,-362.82 255.8,-372.84 259.36,-362.87 252.36,-362.82"/>
</g>
<!-- Node21 -->
<g id="node21" class="node">
<title>Node21</title>
<g id="a_node21"><a xlink:href="classv8_1_1V8.html#a824fd99c5cbc7c576370c9ffeca233d4" target="_top" xlink:title=" ">
<polygon fill="white" stroke="black" points="20.5,-0.5 20.5,-30.5 143.5,-30.5 143.5,-0.5 20.5,-0.5"/>
<text text-anchor="start" x="28.5" y="-18.5" font-family="Helvetica,sans-Serif" font-size="10.00">v8::V8::VisitHandlesWith</text>
<text text-anchor="middle" x="82" y="-7.5" font-family="Helvetica,sans-Serif" font-size="10.00">ClassIds</text>
</a>
</g>
</g>
<!-- Node1&#45;&gt;Node21 -->
<g id="edge20" class="edge">
<title>Node1&#45;&gt;Node21</title>
<path fill="none" stroke="midnightblue" d="M252.75,-362.73C243.24,-297.14 209.84,-88.12 164,-40.5 158.28,-34.56 151.19,-30.03 143.6,-26.56"/>
<polygon fill="midnightblue" stroke="midnightblue" points="249.33,-363.53 254.2,-372.93 256.26,-362.54 249.33,-363.53"/>
</g>
</g>
</svg>
