<?xml version="1.0" encoding="UTF-8" standalone="no"?>
<!DOCTYPE svg PUBLIC "-//W3C//DTD SVG 1.1//EN"
 "http://www.w3.org/Graphics/SVG/1.1/DTD/svg11.dtd">
<!-- Generated by graphviz version 2.44.0 ()
 -->
<!-- Title: v8::CTypeInfo::FromWrapperType Pages: 1 -->
<svg width="392pt" height="122pt"
 viewBox="0.00 0.00 392.00 121.50" xmlns="http://www.w3.org/2000/svg" xmlns:xlink="http://www.w3.org/1999/xlink">
<g id="graph0" class="graph" transform="scale(1 1) rotate(0) translate(4 117.5)">
<title>v8::CTypeInfo::FromWrapperType</title>
<polygon fill="white" stroke="transparent" points="-4,4 -4,-117.5 388,-117.5 388,4 -4,4"/>
<!-- Node1 -->
<g id="node1" class="node">
<title>Node1</title>
<g id="a_node1"><a xlink:title=" ">
<polygon fill="#bfbfbf" stroke="black" points="224,-50 224,-69 384,-69 384,-50 224,-50"/>
<text text-anchor="middle" x="304" y="-57" font-family="Helvetica,sans-Serif" font-size="10.00">v8::CTypeInfo::FromWrapperType</text>
</a>
</g>
</g>
<!-- Node2 -->
<g id="node2" class="node">
<title>Node2</title>
<g id="a_node2"><a xlink:href="structv8_1_1internal_1_1GetCTypePointerImpl_3_01T_00_01typename_01EnableIfHasWrapperTypeInfo_3_01T_01_4_1_1type_01_4.html#a5f29b6a4a36f04348c9c8af56595f60f" target="_top" xlink:title=" ">
<polygon fill="white" stroke="black" points="0,-72 0,-113 188,-113 188,-72 0,-72"/>
<text text-anchor="start" x="8" y="-101" font-family="Helvetica,sans-Serif" font-size="10.00">v8::internal::GetCTypePointer</text>
<text text-anchor="start" x="8" y="-90" font-family="Helvetica,sans-Serif" font-size="10.00">Impl&lt; T, typename EnableIfHasWrapper</text>
<text text-anchor="middle" x="94" y="-79" font-family="Helvetica,sans-Serif" font-size="10.00">TypeInfo&lt; T &gt;::type &gt;::Get</text>
</a>
</g>
</g>
<!-- Node1&#45;&gt;Node2 -->
<g id="edge1" class="edge">
<title>Node1&#45;&gt;Node2</title>
<path fill="none" stroke="midnightblue" d="M232.85,-70.63C218.5,-72.91 203.18,-75.34 188.17,-77.72"/>
<polygon fill="midnightblue" stroke="midnightblue" points="233.79,-74.02 243.12,-69 232.69,-67.11 233.79,-74.02"/>
</g>
<!-- Node3 -->
<g id="node3" class="node">
<title>Node3</title>
<g id="a_node3"><a xlink:href="structv8_1_1internal_1_1GetCTypePointerPointerImpl_3_01T_00_01typename_01EnableIfHasWrapperTypeInfo_3_01T_01_4_1_1type_01_4.html#a72ce09b40c45c8ce762eb00fd316aaad" target="_top" xlink:title=" ">
<polygon fill="white" stroke="black" points="21,-0.5 21,-52.5 167,-52.5 167,-0.5 21,-0.5"/>
<text text-anchor="start" x="29" y="-40.5" font-family="Helvetica,sans-Serif" font-size="10.00">v8::internal::GetCTypePointer</text>
<text text-anchor="start" x="29" y="-29.5" font-family="Helvetica,sans-Serif" font-size="10.00">PointerImpl&lt; T, typename</text>
<text text-anchor="start" x="29" y="-18.5" font-family="Helvetica,sans-Serif" font-size="10.00"> EnableIfHasWrapperTypeInfo</text>
<text text-anchor="middle" x="94" y="-7.5" font-family="Helvetica,sans-Serif" font-size="10.00">&lt; T &gt;::type &gt;::Get</text>
</a>
</g>
</g>
<!-- Node1&#45;&gt;Node3 -->
<g id="edge2" class="edge">
<title>Node1&#45;&gt;Node3</title>
<path fill="none" stroke="midnightblue" d="M233.23,-48.43C212.04,-45.07 188.72,-41.37 167.36,-37.98"/>
<polygon fill="midnightblue" stroke="midnightblue" points="232.69,-51.89 243.12,-50 233.79,-44.98 232.69,-51.89"/>
</g>
</g>
</svg>
