<?xml version="1.0" encoding="UTF-8" standalone="no"?>
<!DOCTYPE svg PUBLIC "-//W3C//DTD SVG 1.1//EN"
 "http://www.w3.org/Graphics/SVG/1.1/DTD/svg11.dtd">
<!-- Generated by graphviz version 2.44.0 ()
 -->
<!-- Title: include/v8&#45;internal.h Pages: 1 -->
<svg width="340pt" height="207pt"
 viewBox="0.00 0.00 339.50 207.00" xmlns="http://www.w3.org/2000/svg" xmlns:xlink="http://www.w3.org/1999/xlink">
<g id="graph0" class="graph" transform="scale(1 1) rotate(0) translate(4 203)">
<title>include/v8&#45;internal.h</title>
<polygon fill="white" stroke="transparent" points="-4,4 -4,-203 335.5,-203 335.5,4 -4,4"/>
<!-- Node1 -->
<g id="node1" class="node">
<title>Node1</title>
<g id="a_node1"><a xlink:title=" ">
<polygon fill="#bfbfbf" stroke="black" points="128,-179.5 128,-198.5 231,-198.5 231,-179.5 128,-179.5"/>
<text text-anchor="middle" x="179.5" y="-186.5" font-family="Helvetica,sans-Serif" font-size="10.00">include/v8&#45;internal.h</text>
</a>
</g>
</g>
<!-- Node2 -->
<g id="node2" class="node">
<title>Node2</title>
<g id="a_node2"><a xlink:href="v8_8h.html" target="_top" xlink:title=" ">
<polygon fill="white" stroke="black" points="145.5,-123.5 145.5,-142.5 213.5,-142.5 213.5,-123.5 145.5,-123.5"/>
<text text-anchor="middle" x="179.5" y="-130.5" font-family="Helvetica,sans-Serif" font-size="10.00">include/v8.h</text>
</a>
</g>
</g>
<!-- Node1&#45;&gt;Node2 -->
<g id="edge1" class="edge">
<title>Node1&#45;&gt;Node2</title>
<path fill="none" stroke="midnightblue" d="M179.5,-168.8C179.5,-159.91 179.5,-149.78 179.5,-142.75"/>
<polygon fill="midnightblue" stroke="midnightblue" points="176,-169.08 179.5,-179.08 183,-169.08 176,-169.08"/>
</g>
<!-- Node3 -->
<g id="node3" class="node">
<title>Node3</title>
<g id="a_node3"><a xlink:href="v8-inspector_8h.html" target="_top" xlink:title=" ">
<polygon fill="white" stroke="black" points="0,-67.5 0,-86.5 111,-86.5 111,-67.5 0,-67.5"/>
<text text-anchor="middle" x="55.5" y="-74.5" font-family="Helvetica,sans-Serif" font-size="10.00">include/v8&#45;inspector.h</text>
</a>
</g>
</g>
<!-- Node2&#45;&gt;Node3 -->
<g id="edge2" class="edge">
<title>Node2&#45;&gt;Node3</title>
<path fill="none" stroke="midnightblue" d="M150.49,-119.37C127.27,-109.26 95.34,-95.35 75.06,-86.52"/>
<polygon fill="midnightblue" stroke="midnightblue" points="149.29,-122.66 159.85,-123.44 152.08,-116.24 149.29,-122.66"/>
</g>
<!-- Node5 -->
<g id="node5" class="node">
<title>Node5</title>
<g id="a_node5"><a xlink:href="v8-profiler_8h.html" target="_top" xlink:title=" ">
<polygon fill="white" stroke="black" points="129.5,-67.5 129.5,-86.5 229.5,-86.5 229.5,-67.5 129.5,-67.5"/>
<text text-anchor="middle" x="179.5" y="-74.5" font-family="Helvetica,sans-Serif" font-size="10.00">include/v8&#45;profiler.h</text>
</a>
</g>
</g>
<!-- Node2&#45;&gt;Node5 -->
<g id="edge4" class="edge">
<title>Node2&#45;&gt;Node5</title>
<path fill="none" stroke="midnightblue" d="M179.5,-112.8C179.5,-103.91 179.5,-93.78 179.5,-86.75"/>
<polygon fill="midnightblue" stroke="midnightblue" points="176,-113.08 179.5,-123.08 183,-113.08 176,-113.08"/>
</g>
<!-- Node6 -->
<g id="node6" class="node">
<title>Node6</title>
<g id="a_node6"><a xlink:href="v8-util_8h.html" target="_top" xlink:title=" ">
<polygon fill="white" stroke="black" points="247.5,-67.5 247.5,-86.5 331.5,-86.5 331.5,-67.5 247.5,-67.5"/>
<text text-anchor="middle" x="289.5" y="-74.5" font-family="Helvetica,sans-Serif" font-size="10.00">include/v8&#45;util.h</text>
</a>
</g>
</g>
<!-- Node2&#45;&gt;Node6 -->
<g id="edge5" class="edge">
<title>Node2&#45;&gt;Node6</title>
<path fill="none" stroke="midnightblue" d="M206.26,-118.86C226.66,-108.85 254.17,-95.35 271.87,-86.65"/>
<polygon fill="midnightblue" stroke="midnightblue" points="204.61,-115.78 197.17,-123.32 207.69,-122.06 204.61,-115.78"/>
</g>
<!-- Node4 -->
<g id="node4" class="node">
<title>Node4</title>
<g id="a_node4"><a xlink:href="v8-inspector-protocol_8h.html" target="_top" xlink:title=" ">
<polygon fill="white" stroke="black" points="3.5,-0.5 3.5,-30.5 107.5,-30.5 107.5,-0.5 3.5,-0.5"/>
<text text-anchor="start" x="11.5" y="-18.5" font-family="Helvetica,sans-Serif" font-size="10.00">include/v8&#45;inspector</text>
<text text-anchor="middle" x="55.5" y="-7.5" font-family="Helvetica,sans-Serif" font-size="10.00">&#45;protocol.h</text>
</a>
</g>
</g>
<!-- Node3&#45;&gt;Node4 -->
<g id="edge3" class="edge">
<title>Node3&#45;&gt;Node4</title>
<path fill="none" stroke="midnightblue" d="M55.5,-57.23C55.5,-48.59 55.5,-38.5 55.5,-30.52"/>
<polygon fill="midnightblue" stroke="midnightblue" points="52,-57.48 55.5,-67.48 59,-57.48 52,-57.48"/>
</g>
</g>
</svg>
