<?xml version="1.0" encoding="UTF-8" standalone="no"?>
<!DOCTYPE svg PUBLIC "-//W3C//DTD SVG 1.1//EN"
 "http://www.w3.org/Graphics/SVG/1.1/DTD/svg11.dtd">
<!-- Generated by graphviz version 2.44.0 ()
 -->
<!-- Title: include/v8&#45;inspector.h Pages: 1 -->
<svg width="699pt" height="196pt"
 viewBox="0.00 0.00 699.28 196.00" xmlns="http://www.w3.org/2000/svg" xmlns:xlink="http://www.w3.org/1999/xlink">
<g id="graph0" class="graph" transform="scale(1 1) rotate(0) translate(4 192)">
<title>include/v8&#45;inspector.h</title>
<polygon fill="white" stroke="transparent" points="-4,4 -4,-192 695.28,-192 695.28,4 -4,4"/>
<!-- Node1 -->
<g id="node1" class="node">
<title>Node1</title>
<g id="a_node1"><a xlink:title=" ">
<polygon fill="#bfbfbf" stroke="black" points="238.28,-168.5 238.28,-187.5 349.28,-187.5 349.28,-168.5 238.28,-168.5"/>
<text text-anchor="middle" x="293.78" y="-175.5" font-family="Helvetica,sans-Serif" font-size="10.00">include/v8&#45;inspector.h</text>
</a>
</g>
</g>
<!-- Node2 -->
<g id="node2" class="node">
<title>Node2</title>
<g id="a_node2"><a xlink:title=" ">
<polygon fill="white" stroke="#bfbfbf" points="261.78,-0.5 261.78,-19.5 309.78,-19.5 309.78,-0.5 261.78,-0.5"/>
<text text-anchor="middle" x="285.78" y="-7.5" font-family="Helvetica,sans-Serif" font-size="10.00">stdint.h</text>
</a>
</g>
</g>
<!-- Node1&#45;&gt;Node2 -->
<g id="edge1" class="edge">
<title>Node1&#45;&gt;Node2</title>
<path fill="none" stroke="midnightblue" d="M238.09,-172.67C138.89,-162.91 -52.07,-133.64 13.78,-56 43.84,-20.56 184.81,-12.99 251.12,-11.4"/>
<polygon fill="midnightblue" stroke="midnightblue" points="251.55,-14.9 261.47,-11.19 251.4,-7.9 251.55,-14.9"/>
</g>
<!-- Node3 -->
<g id="node3" class="node">
<title>Node3</title>
<g id="a_node3"><a xlink:title=" ">
<polygon fill="white" stroke="#bfbfbf" points="329.28,-112.5 329.28,-131.5 374.28,-131.5 374.28,-112.5 329.28,-112.5"/>
<text text-anchor="middle" x="351.78" y="-119.5" font-family="Helvetica,sans-Serif" font-size="10.00">cctype</text>
</a>
</g>
</g>
<!-- Node1&#45;&gt;Node3 -->
<g id="edge2" class="edge">
<title>Node1&#45;&gt;Node3</title>
<path fill="none" stroke="midnightblue" d="M303.1,-168.32C311.67,-160.34 324.59,-148.31 334.97,-138.65"/>
<polygon fill="midnightblue" stroke="midnightblue" points="337.36,-141.21 342.29,-131.83 332.59,-136.09 337.36,-141.21"/>
</g>
<!-- Node4 -->
<g id="node4" class="node">
<title>Node4</title>
<g id="a_node4"><a xlink:title=" ">
<polygon fill="white" stroke="#bfbfbf" points="23.28,-56.5 23.28,-75.5 74.28,-75.5 74.28,-56.5 23.28,-56.5"/>
<text text-anchor="middle" x="48.78" y="-63.5" font-family="Helvetica,sans-Serif" font-size="10.00">memory</text>
</a>
</g>
</g>
<!-- Node1&#45;&gt;Node4 -->
<g id="edge3" class="edge">
<title>Node1&#45;&gt;Node4</title>
<path fill="none" stroke="midnightblue" d="M274.56,-168.37C231.62,-149.09 127.75,-102.45 77.27,-79.79"/>
<polygon fill="midnightblue" stroke="midnightblue" points="78.47,-76.49 67.92,-75.59 75.61,-82.88 78.47,-76.49"/>
</g>
<!-- Node5 -->
<g id="node5" class="node">
<title>Node5</title>
<g id="a_node5"><a xlink:title=" ">
<polygon fill="white" stroke="#bfbfbf" points="392.28,-112.5 392.28,-131.5 475.28,-131.5 475.28,-112.5 392.28,-112.5"/>
<text text-anchor="middle" x="433.78" y="-119.5" font-family="Helvetica,sans-Serif" font-size="10.00">unordered_map</text>
</a>
</g>
</g>
<!-- Node1&#45;&gt;Node5 -->
<g id="edge4" class="edge">
<title>Node1&#45;&gt;Node5</title>
<path fill="none" stroke="midnightblue" d="M315.96,-168.44C339.21,-159.48 375.93,-145.31 402.2,-135.18"/>
<polygon fill="midnightblue" stroke="midnightblue" points="403.63,-138.38 411.7,-131.52 401.11,-131.85 403.63,-138.38"/>
</g>
<!-- Node6 -->
<g id="node6" class="node">
<title>Node6</title>
<g id="a_node6"><a xlink:href="v8_8h.html" target="_top" xlink:title=" ">
<polygon fill="white" stroke="black" points="276.28,-112.5 276.28,-131.5 311.28,-131.5 311.28,-112.5 276.28,-112.5"/>
<text text-anchor="middle" x="293.78" y="-119.5" font-family="Helvetica,sans-Serif" font-size="10.00">v8.h</text>
</a>
</g>
</g>
<!-- Node1&#45;&gt;Node6 -->
<g id="edge5" class="edge">
<title>Node1&#45;&gt;Node6</title>
<path fill="none" stroke="midnightblue" d="M293.78,-168.08C293.78,-161.01 293.78,-150.86 293.78,-141.99"/>
<polygon fill="midnightblue" stroke="midnightblue" points="297.28,-141.75 293.78,-131.75 290.28,-141.75 297.28,-141.75"/>
</g>
<!-- Node6&#45;&gt;Node2 -->
<g id="edge7" class="edge">
<title>Node6&#45;&gt;Node2</title>
<path fill="none" stroke="midnightblue" d="M302.83,-112.38C314.53,-100.13 332.56,-76.85 324.78,-56 320.61,-44.81 312.26,-34.56 304.36,-26.68"/>
<polygon fill="midnightblue" stroke="midnightblue" points="306.48,-23.87 296.77,-19.63 301.72,-29 306.48,-23.87"/>
</g>
<!-- Node6&#45;&gt;Node4 -->
<g id="edge9" class="edge">
<title>Node6&#45;&gt;Node4</title>
<path fill="none" stroke="midnightblue" d="M276.21,-117.55C241.42,-110.67 161.14,-94.46 84.21,-76.26"/>
<polygon fill="midnightblue" stroke="midnightblue" points="84.91,-72.83 74.37,-73.92 83.28,-79.64 84.91,-72.83"/>
</g>
<!-- Node7 -->
<g id="node7" class="node">
<title>Node7</title>
<g id="a_node7"><a xlink:title=" ">
<polygon fill="white" stroke="#bfbfbf" points="472.28,-0.5 472.28,-19.5 523.28,-19.5 523.28,-0.5 472.28,-0.5"/>
<text text-anchor="middle" x="497.78" y="-7.5" font-family="Helvetica,sans-Serif" font-size="10.00">stddef.h</text>
</a>
</g>
</g>
<!-- Node6&#45;&gt;Node7 -->
<g id="edge6" class="edge">
<title>Node6&#45;&gt;Node7</title>
<path fill="none" stroke="midnightblue" d="M311.31,-114.61C314.13,-113.67 317.02,-112.77 319.78,-112 393.33,-91.47 435.39,-131.55 487.78,-76 499.15,-63.94 500.84,-44.65 500.18,-30.21"/>
<polygon fill="midnightblue" stroke="midnightblue" points="503.63,-29.56 499.27,-19.91 496.66,-30.17 503.63,-29.56"/>
</g>
<!-- Node8 -->
<g id="node8" class="node">
<title>Node8</title>
<g id="a_node8"><a xlink:title=" ">
<polygon fill="white" stroke="#bfbfbf" points="92.28,-56.5 92.28,-75.5 137.28,-75.5 137.28,-56.5 92.28,-56.5"/>
<text text-anchor="middle" x="114.78" y="-63.5" font-family="Helvetica,sans-Serif" font-size="10.00">stdio.h</text>
</a>
</g>
</g>
<!-- Node6&#45;&gt;Node8 -->
<g id="edge8" class="edge">
<title>Node6&#45;&gt;Node8</title>
<path fill="none" stroke="midnightblue" d="M275.96,-115.62C246.06,-106.6 185.33,-88.28 147.55,-76.89"/>
<polygon fill="midnightblue" stroke="midnightblue" points="148.13,-73.41 137.55,-73.87 146.11,-80.11 148.13,-73.41"/>
</g>
<!-- Node9 -->
<g id="node9" class="node">
<title>Node9</title>
<g id="a_node9"><a xlink:title=" ">
<polygon fill="white" stroke="#bfbfbf" points="155.28,-56.5 155.28,-75.5 196.28,-75.5 196.28,-56.5 155.28,-56.5"/>
<text text-anchor="middle" x="175.78" y="-63.5" font-family="Helvetica,sans-Serif" font-size="10.00">string</text>
</a>
</g>
</g>
<!-- Node6&#45;&gt;Node9 -->
<g id="edge10" class="edge">
<title>Node6&#45;&gt;Node9</title>
<path fill="none" stroke="midnightblue" d="M276.11,-112.92C257.07,-104.2 226.49,-90.2 204.09,-79.95"/>
<polygon fill="midnightblue" stroke="midnightblue" points="205.29,-76.66 194.74,-75.68 202.38,-83.02 205.29,-76.66"/>
</g>
<!-- Node10 -->
<g id="node10" class="node">
<title>Node10</title>
<g id="a_node10"><a xlink:title=" ">
<polygon fill="white" stroke="#bfbfbf" points="541.78,-0.5 541.78,-19.5 603.78,-19.5 603.78,-0.5 541.78,-0.5"/>
<text text-anchor="middle" x="572.78" y="-7.5" font-family="Helvetica,sans-Serif" font-size="10.00">type_traits</text>
</a>
</g>
</g>
<!-- Node6&#45;&gt;Node10 -->
<g id="edge11" class="edge">
<title>Node6&#45;&gt;Node10</title>
<path fill="none" stroke="midnightblue" d="M311.3,-114.55C314.11,-113.63 317.01,-112.74 319.78,-112 401.97,-90.03 432.61,-115.83 507.78,-76 529.71,-64.38 548.98,-42.9 560.73,-27.82"/>
<polygon fill="midnightblue" stroke="midnightblue" points="563.54,-29.9 566.74,-19.8 557.94,-25.7 563.54,-29.9"/>
</g>
<!-- Node11 -->
<g id="node11" class="node">
<title>Node11</title>
<g id="a_node11"><a xlink:title=" ">
<polygon fill="white" stroke="#bfbfbf" points="214.28,-56.5 214.28,-75.5 253.28,-75.5 253.28,-56.5 214.28,-56.5"/>
<text text-anchor="middle" x="233.78" y="-63.5" font-family="Helvetica,sans-Serif" font-size="10.00">utility</text>
</a>
</g>
</g>
<!-- Node6&#45;&gt;Node11 -->
<g id="edge12" class="edge">
<title>Node6&#45;&gt;Node11</title>
<path fill="none" stroke="midnightblue" d="M284.14,-112.32C275.27,-104.34 261.91,-92.31 251.17,-82.65"/>
<polygon fill="midnightblue" stroke="midnightblue" points="253.37,-79.92 243.6,-75.83 248.69,-85.13 253.37,-79.92"/>
</g>
<!-- Node12 -->
<g id="node12" class="node">
<title>Node12</title>
<g id="a_node12"><a xlink:title=" ">
<polygon fill="white" stroke="#bfbfbf" points="271.78,-56.5 271.78,-75.5 315.78,-75.5 315.78,-56.5 271.78,-56.5"/>
<text text-anchor="middle" x="293.78" y="-63.5" font-family="Helvetica,sans-Serif" font-size="10.00">vector</text>
</a>
</g>
</g>
<!-- Node6&#45;&gt;Node12 -->
<g id="edge13" class="edge">
<title>Node6&#45;&gt;Node12</title>
<path fill="none" stroke="midnightblue" d="M293.78,-112.08C293.78,-105.01 293.78,-94.86 293.78,-85.99"/>
<polygon fill="midnightblue" stroke="midnightblue" points="297.28,-85.75 293.78,-75.75 290.28,-85.75 297.28,-85.75"/>
</g>
<!-- Node13 -->
<g id="node13" class="node">
<title>Node13</title>
<g id="a_node13"><a xlink:href="v8-internal_8h.html" target="_top" xlink:title=" ">
<polygon fill="white" stroke="black" points="410.28,-56.5 410.28,-75.5 479.28,-75.5 479.28,-56.5 410.28,-56.5"/>
<text text-anchor="middle" x="444.78" y="-63.5" font-family="Helvetica,sans-Serif" font-size="10.00">v8&#45;internal.h</text>
</a>
</g>
</g>
<!-- Node6&#45;&gt;Node13 -->
<g id="edge14" class="edge">
<title>Node6&#45;&gt;Node13</title>
<path fill="none" stroke="midnightblue" d="M311.4,-114.7C335.83,-105.96 380.46,-90 411.33,-78.96"/>
<polygon fill="midnightblue" stroke="midnightblue" points="412.59,-82.23 420.83,-75.57 410.23,-75.64 412.59,-82.23"/>
</g>
<!-- Node15 -->
<g id="node15" class="node">
<title>Node15</title>
<g id="a_node15"><a xlink:href="v8-version_8h.html" target="_top" xlink:title=" ">
<polygon fill="white" stroke="black" points="622.28,-0.5 622.28,-19.5 691.28,-19.5 691.28,-0.5 622.28,-0.5"/>
<text text-anchor="middle" x="656.78" y="-7.5" font-family="Helvetica,sans-Serif" font-size="10.00">v8&#45;version.h</text>
</a>
</g>
</g>
<!-- Node6&#45;&gt;Node15 -->
<g id="edge21" class="edge">
<title>Node6&#45;&gt;Node15</title>
<path fill="none" stroke="midnightblue" d="M311.28,-114.49C314.1,-113.58 317,-112.71 319.78,-112 414.1,-88 443.68,-107.45 535.78,-76 572.84,-63.35 612.14,-40.18 635.56,-25.2"/>
<polygon fill="midnightblue" stroke="midnightblue" points="637.53,-28.09 644,-19.71 633.71,-22.22 637.53,-28.09"/>
</g>
<!-- Node16 -->
<g id="node16" class="node">
<title>Node16</title>
<g id="a_node16"><a xlink:href="v8config_8h.html" target="_top" xlink:title=" ">
<polygon fill="white" stroke="black" points="327.78,-0.5 327.78,-19.5 387.78,-19.5 387.78,-0.5 327.78,-0.5"/>
<text text-anchor="middle" x="357.78" y="-7.5" font-family="Helvetica,sans-Serif" font-size="10.00">v8config.h</text>
</a>
</g>
</g>
<!-- Node6&#45;&gt;Node16 -->
<g id="edge22" class="edge">
<title>Node6&#45;&gt;Node16</title>
<path fill="none" stroke="midnightblue" d="M305.7,-112.32C316.16,-104.09 331.03,-90.82 339.78,-76 348.24,-61.66 352.86,-43.2 355.29,-29.62"/>
<polygon fill="midnightblue" stroke="midnightblue" points="358.78,-29.97 356.85,-19.55 351.86,-28.9 358.78,-29.97"/>
</g>
<!-- Node13&#45;&gt;Node2 -->
<g id="edge16" class="edge">
<title>Node13&#45;&gt;Node2</title>
<path fill="none" stroke="midnightblue" d="M419.59,-56.44C392.52,-47.25 349.38,-32.6 319.43,-22.43"/>
<polygon fill="midnightblue" stroke="midnightblue" points="320.41,-19.06 309.82,-19.16 318.16,-25.69 320.41,-19.06"/>
</g>
<!-- Node13&#45;&gt;Node7 -->
<g id="edge15" class="edge">
<title>Node13&#45;&gt;Node7</title>
<path fill="none" stroke="midnightblue" d="M453.53,-56.08C461.25,-48.22 472.69,-36.57 482,-27.08"/>
<polygon fill="midnightblue" stroke="midnightblue" points="484.68,-29.34 489.19,-19.75 479.69,-24.44 484.68,-29.34"/>
</g>
<!-- Node13&#45;&gt;Node10 -->
<g id="edge18" class="edge">
<title>Node13&#45;&gt;Node10</title>
<path fill="none" stroke="midnightblue" d="M465.06,-56.44C486.13,-47.56 519.3,-33.56 543.27,-23.45"/>
<polygon fill="midnightblue" stroke="midnightblue" points="544.74,-26.63 552.59,-19.52 542.02,-20.18 544.74,-26.63"/>
</g>
<!-- Node14 -->
<g id="node14" class="node">
<title>Node14</title>
<g id="a_node14"><a xlink:title=" ">
<polygon fill="white" stroke="#bfbfbf" points="405.78,-0.5 405.78,-19.5 453.78,-19.5 453.78,-0.5 405.78,-0.5"/>
<text text-anchor="middle" x="429.78" y="-7.5" font-family="Helvetica,sans-Serif" font-size="10.00">string.h</text>
</a>
</g>
</g>
<!-- Node13&#45;&gt;Node14 -->
<g id="edge17" class="edge">
<title>Node13&#45;&gt;Node14</title>
<path fill="none" stroke="midnightblue" d="M442.3,-56.08C440.29,-48.85 437.39,-38.41 434.89,-29.4"/>
<polygon fill="midnightblue" stroke="midnightblue" points="438.26,-28.45 432.21,-19.75 431.52,-30.32 438.26,-28.45"/>
</g>
<!-- Node13&#45;&gt;Node15 -->
<g id="edge19" class="edge">
<title>Node13&#45;&gt;Node15</title>
<path fill="none" stroke="midnightblue" d="M478.37,-56.44C514.97,-47.12 573.62,-32.18 613.61,-22"/>
<polygon fill="midnightblue" stroke="midnightblue" points="614.52,-25.38 623.35,-19.52 612.79,-18.59 614.52,-25.38"/>
</g>
<!-- Node13&#45;&gt;Node16 -->
<g id="edge20" class="edge">
<title>Node13&#45;&gt;Node16</title>
<path fill="none" stroke="midnightblue" d="M430.8,-56.32C417.23,-47.9 396.4,-34.97 380.46,-25.07"/>
<polygon fill="midnightblue" stroke="midnightblue" points="382.07,-21.95 371.72,-19.65 378.37,-27.9 382.07,-21.95"/>
</g>
</g>
</svg>
