<?xml version="1.0" encoding="UTF-8" standalone="no"?>
<!DOCTYPE svg PUBLIC "-//W3C//DTD SVG 1.1//EN"
 "http://www.w3.org/Graphics/SVG/1.1/DTD/svg11.dtd">
<!-- Generated by graphviz version 2.44.0 ()
 -->
<!-- Title: v8::Value Pages: 1 -->
<svg width="693pt" height="864pt"
 viewBox="0.00 0.00 693.00 864.00" xmlns="http://www.w3.org/2000/svg" xmlns:xlink="http://www.w3.org/1999/xlink">
<g id="graph0" class="graph" transform="scale(1 1) rotate(0) translate(4 860)">
<title>v8::Value</title>
<polygon fill="white" stroke="transparent" points="-4,4 -4,-860 689,-860 689,4 -4,4"/>
<!-- Node1 -->
<g id="node1" class="node">
<title>Node1</title>
<g id="a_node1"><a xlink:title=" ">
<polygon fill="#bfbfbf" stroke="black" points="88,-418.5 88,-437.5 144,-437.5 144,-418.5 88,-418.5"/>
<text text-anchor="middle" x="116" y="-425.5" font-family="Helvetica,sans-Serif" font-size="10.00">v8::Value</text>
</a>
</g>
</g>
<!-- Node3 -->
<g id="node3" class="node">
<title>Node3</title>
<g id="a_node3"><a xlink:href="classv8_1_1External.html" target="_top" xlink:title=" ">
<polygon fill="white" stroke="black" points="182,-456.5 182,-475.5 248,-475.5 248,-456.5 182,-456.5"/>
<text text-anchor="middle" x="215" y="-463.5" font-family="Helvetica,sans-Serif" font-size="10.00">v8::External</text>
</a>
</g>
</g>
<!-- Node1&#45;&gt;Node3 -->
<g id="edge2" class="edge">
<title>Node1&#45;&gt;Node3</title>
<path fill="none" stroke="midnightblue" d="M150.86,-441.26C163.59,-446.25 177.81,-451.82 189.53,-456.41"/>
<polygon fill="midnightblue" stroke="midnightblue" points="152.06,-437.98 141.48,-437.59 149.51,-444.5 152.06,-437.98"/>
</g>
<!-- Node4 -->
<g id="node4" class="node">
<title>Node4</title>
<g id="a_node4"><a xlink:href="classv8_1_1Object.html" target="_top" xlink:title=" ">
<polygon fill="white" stroke="black" points="185,-418.5 185,-437.5 245,-437.5 245,-418.5 185,-418.5"/>
<text text-anchor="middle" x="215" y="-425.5" font-family="Helvetica,sans-Serif" font-size="10.00">v8::Object</text>
</a>
</g>
</g>
<!-- Node1&#45;&gt;Node4 -->
<g id="edge3" class="edge">
<title>Node1&#45;&gt;Node4</title>
<path fill="none" stroke="midnightblue" d="M154.23,-428C164.34,-428 175.14,-428 184.75,-428"/>
<polygon fill="midnightblue" stroke="midnightblue" points="154.02,-424.5 144.02,-428 154.02,-431.5 154.02,-424.5"/>
</g>
<!-- Node35 -->
<g id="node35" class="node">
<title>Node35</title>
<g id="a_node35"><a xlink:href="classv8_1_1Primitive.html" target="_top" xlink:title=" ">
<polygon fill="white" stroke="black" points="180,-76.5 180,-95.5 250,-95.5 250,-76.5 180,-76.5"/>
<text text-anchor="middle" x="215" y="-83.5" font-family="Helvetica,sans-Serif" font-size="10.00">v8::Primitive</text>
</a>
</g>
</g>
<!-- Node1&#45;&gt;Node35 -->
<g id="edge34" class="edge">
<title>Node1&#45;&gt;Node35</title>
<path fill="none" stroke="midnightblue" d="M122.52,-408.53C140.67,-344.55 198.06,-142.19 211.27,-95.62"/>
<polygon fill="midnightblue" stroke="midnightblue" points="119.06,-407.92 119.7,-418.5 125.79,-409.83 119.06,-407.92"/>
</g>
<!-- Node2 -->
<g id="node2" class="node">
<title>Node2</title>
<g id="a_node2"><a xlink:href="classv8_1_1Data.html" target="_top" xlink:title=" ">
<polygon fill="white" stroke="black" points="0,-418.5 0,-437.5 52,-437.5 52,-418.5 0,-418.5"/>
<text text-anchor="middle" x="26" y="-425.5" font-family="Helvetica,sans-Serif" font-size="10.00">v8::Data</text>
</a>
</g>
</g>
<!-- Node2&#45;&gt;Node1 -->
<g id="edge1" class="edge">
<title>Node2&#45;&gt;Node1</title>
<path fill="none" stroke="midnightblue" d="M62.72,-428C71.08,-428 79.84,-428 87.76,-428"/>
<polygon fill="midnightblue" stroke="midnightblue" points="62.45,-424.5 52.45,-428 62.45,-431.5 62.45,-424.5"/>
</g>
<!-- Node5 -->
<g id="node5" class="node">
<title>Node5</title>
<g id="a_node5"><a xlink:href="classv8_1_1Array.html" target="_top" xlink:title=" ">
<polygon fill="white" stroke="black" points="324.5,-741.5 324.5,-760.5 378.5,-760.5 378.5,-741.5 324.5,-741.5"/>
<text text-anchor="middle" x="351.5" y="-748.5" font-family="Helvetica,sans-Serif" font-size="10.00">v8::Array</text>
</a>
</g>
</g>
<!-- Node4&#45;&gt;Node5 -->
<g id="edge4" class="edge">
<title>Node4&#45;&gt;Node5</title>
<path fill="none" stroke="midnightblue" d="M247.6,-443.94C248.47,-444.91 249.28,-445.93 250,-447 321.4,-552.84 203.26,-634.76 286,-732 295.38,-743.02 310.81,-747.83 324.22,-749.85"/>
<polygon fill="midnightblue" stroke="midnightblue" points="249.84,-441.25 239.92,-437.52 245.35,-446.62 249.84,-441.25"/>
</g>
<!-- Node6 -->
<g id="node6" class="node">
<title>Node6</title>
<g id="a_node6"><a xlink:href="classv8_1_1ArrayBuffer.html" target="_top" xlink:title=" ">
<polygon fill="white" stroke="black" points="311.5,-703.5 311.5,-722.5 391.5,-722.5 391.5,-703.5 311.5,-703.5"/>
<text text-anchor="middle" x="351.5" y="-710.5" font-family="Helvetica,sans-Serif" font-size="10.00">v8::ArrayBuffer</text>
</a>
</g>
</g>
<!-- Node4&#45;&gt;Node6 -->
<g id="edge5" class="edge">
<title>Node4&#45;&gt;Node6</title>
<path fill="none" stroke="midnightblue" d="M247.58,-443.96C248.45,-444.92 249.27,-445.93 250,-447 312.91,-538.37 213.31,-610.2 286,-694 292.5,-701.5 301.8,-706.11 311.31,-708.93"/>
<polygon fill="midnightblue" stroke="midnightblue" points="249.79,-441.25 239.86,-437.56 245.32,-446.64 249.79,-441.25"/>
</g>
<!-- Node7 -->
<g id="node7" class="node">
<title>Node7</title>
<g id="a_node7"><a xlink:href="classv8_1_1ArrayBufferView.html" target="_top" xlink:title=" ">
<polygon fill="white" stroke="black" points="301,-665.5 301,-684.5 402,-684.5 402,-665.5 301,-665.5"/>
<text text-anchor="middle" x="351.5" y="-672.5" font-family="Helvetica,sans-Serif" font-size="10.00">v8::ArrayBufferView</text>
</a>
</g>
</g>
<!-- Node4&#45;&gt;Node7 -->
<g id="edge6" class="edge">
<title>Node4&#45;&gt;Node7</title>
<path fill="none" stroke="midnightblue" d="M247.54,-443.99C248.43,-444.94 249.25,-445.94 250,-447 304.45,-523.94 223.32,-585.6 286,-656 290.11,-660.62 295.29,-664.14 300.91,-666.82"/>
<polygon fill="midnightblue" stroke="midnightblue" points="249.73,-441.26 239.78,-437.62 245.29,-446.67 249.73,-441.26"/>
</g>
<!-- Node21 -->
<g id="node21" class="node">
<title>Node21</title>
<g id="a_node21"><a xlink:href="classv8_1_1BooleanObject.html" target="_top" xlink:title=" ">
<polygon fill="white" stroke="black" points="304,-627.5 304,-646.5 399,-646.5 399,-627.5 304,-627.5"/>
<text text-anchor="middle" x="351.5" y="-634.5" font-family="Helvetica,sans-Serif" font-size="10.00">v8::BooleanObject</text>
</a>
</g>
</g>
<!-- Node4&#45;&gt;Node21 -->
<g id="edge20" class="edge">
<title>Node4&#45;&gt;Node21</title>
<path fill="none" stroke="midnightblue" d="M247.49,-444.02C248.39,-444.97 249.23,-445.96 250,-447 296.03,-509.56 233.29,-560.96 286,-618 290.91,-623.32 297.23,-627.17 303.98,-629.96"/>
<polygon fill="midnightblue" stroke="midnightblue" points="249.65,-441.26 239.67,-437.7 245.24,-446.71 249.65,-441.26"/>
</g>
<!-- Node22 -->
<g id="node22" class="node">
<title>Node22</title>
<g id="a_node22"><a xlink:href="classv8_1_1Date.html" target="_top" xlink:title=" ">
<polygon fill="white" stroke="black" points="325.5,-589.5 325.5,-608.5 377.5,-608.5 377.5,-589.5 325.5,-589.5"/>
<text text-anchor="middle" x="351.5" y="-596.5" font-family="Helvetica,sans-Serif" font-size="10.00">v8::Date</text>
</a>
</g>
</g>
<!-- Node4&#45;&gt;Node22 -->
<g id="edge21" class="edge">
<title>Node4&#45;&gt;Node22</title>
<path fill="none" stroke="midnightblue" d="M247.33,-444C248.29,-444.95 249.18,-445.95 250,-447 287.68,-495.27 243.18,-536.22 286,-580 296.28,-590.52 312.07,-595.28 325.45,-597.41"/>
<polygon fill="midnightblue" stroke="midnightblue" points="249.19,-441 239.15,-437.61 244.88,-446.52 249.19,-441"/>
</g>
<!-- Node23 -->
<g id="node23" class="node">
<title>Node23</title>
<g id="a_node23"><a xlink:href="classv8_1_1Function.html" target="_top" xlink:title=" ">
<polygon fill="white" stroke="black" points="317,-551.5 317,-570.5 386,-570.5 386,-551.5 317,-551.5"/>
<text text-anchor="middle" x="351.5" y="-558.5" font-family="Helvetica,sans-Serif" font-size="10.00">v8::Function</text>
</a>
</g>
</g>
<!-- Node4&#45;&gt;Node23 -->
<g id="edge22" class="edge">
<title>Node4&#45;&gt;Node23</title>
<path fill="none" stroke="midnightblue" d="M246.78,-443.71C247.92,-444.75 249.01,-445.85 250,-447 279.49,-481.19 252.89,-511.3 286,-542 294.39,-549.78 305.81,-554.38 316.71,-557.11"/>
<polygon fill="midnightblue" stroke="midnightblue" points="248.64,-440.74 238.52,-437.62 244.49,-446.37 248.64,-440.74"/>
</g>
<!-- Node24 -->
<g id="node24" class="node">
<title>Node24</title>
<g id="a_node24"><a xlink:href="classv8_1_1Map.html" target="_top" xlink:title=" ">
<polygon fill="white" stroke="black" points="326.5,-513.5 326.5,-532.5 376.5,-532.5 376.5,-513.5 326.5,-513.5"/>
<text text-anchor="middle" x="351.5" y="-520.5" font-family="Helvetica,sans-Serif" font-size="10.00">v8::Map</text>
</a>
</g>
</g>
<!-- Node4&#45;&gt;Node24 -->
<g id="edge23" class="edge">
<title>Node4&#45;&gt;Node24</title>
<path fill="none" stroke="midnightblue" d="M245.39,-443.11C247.01,-444.34 248.56,-445.64 250,-447 271.75,-467.61 262.09,-485.94 286,-504 297.64,-512.8 313.29,-517.53 326.26,-520.08"/>
<polygon fill="midnightblue" stroke="midnightblue" points="247.18,-440.1 236.9,-437.52 243.33,-445.94 247.18,-440.1"/>
</g>
<!-- Node25 -->
<g id="node25" class="node">
<title>Node25</title>
<g id="a_node25"><a xlink:href="classv8_1_1NumberObject.html" target="_top" xlink:title=" ">
<polygon fill="white" stroke="black" points="304,-475.5 304,-494.5 399,-494.5 399,-475.5 304,-475.5"/>
<text text-anchor="middle" x="351.5" y="-482.5" font-family="Helvetica,sans-Serif" font-size="10.00">v8::NumberObject</text>
</a>
</g>
</g>
<!-- Node4&#45;&gt;Node25 -->
<g id="edge24" class="edge">
<title>Node4&#45;&gt;Node25</title>
<path fill="none" stroke="midnightblue" d="M242.18,-442.56C260.11,-452.47 281.43,-464.11 286,-466 294.63,-469.57 304.17,-472.76 313.2,-475.46"/>
<polygon fill="midnightblue" stroke="midnightblue" points="243.67,-439.38 233.23,-437.6 240.28,-445.5 243.67,-439.38"/>
</g>
<!-- Node26 -->
<g id="node26" class="node">
<title>Node26</title>
<g id="a_node26"><a xlink:href="classv8_1_1Promise.html" target="_top" xlink:title=" ">
<polygon fill="white" stroke="black" points="317.5,-437.5 317.5,-456.5 385.5,-456.5 385.5,-437.5 317.5,-437.5"/>
<text text-anchor="middle" x="351.5" y="-444.5" font-family="Helvetica,sans-Serif" font-size="10.00">v8::Promise</text>
</a>
</g>
</g>
<!-- Node4&#45;&gt;Node26 -->
<g id="edge25" class="edge">
<title>Node4&#45;&gt;Node26</title>
<path fill="none" stroke="midnightblue" d="M255.33,-433.56C274.94,-436.33 298.39,-439.64 317.11,-442.28"/>
<polygon fill="midnightblue" stroke="midnightblue" points="255.58,-430.06 245.18,-432.12 254.6,-436.99 255.58,-430.06"/>
</g>
<!-- Node27 -->
<g id="node27" class="node">
<title>Node27</title>
<g id="a_node27"><a xlink:href="classv8_1_1Promise_1_1Resolver.html" target="_top" xlink:title=" ">
<polygon fill="white" stroke="black" points="296.5,-399.5 296.5,-418.5 406.5,-418.5 406.5,-399.5 296.5,-399.5"/>
<text text-anchor="middle" x="351.5" y="-406.5" font-family="Helvetica,sans-Serif" font-size="10.00">v8::Promise::Resolver</text>
</a>
</g>
</g>
<!-- Node4&#45;&gt;Node27 -->
<g id="edge26" class="edge">
<title>Node4&#45;&gt;Node27</title>
<path fill="none" stroke="midnightblue" d="M255.12,-422.47C268.03,-420.65 282.62,-418.59 296.43,-416.64"/>
<polygon fill="midnightblue" stroke="midnightblue" points="254.6,-419.01 245.18,-423.88 255.58,-425.94 254.6,-419.01"/>
</g>
<!-- Node28 -->
<g id="node28" class="node">
<title>Node28</title>
<g id="a_node28"><a xlink:href="classv8_1_1Proxy.html" target="_top" xlink:title=" ">
<polygon fill="white" stroke="black" points="323.5,-361.5 323.5,-380.5 379.5,-380.5 379.5,-361.5 323.5,-361.5"/>
<text text-anchor="middle" x="351.5" y="-368.5" font-family="Helvetica,sans-Serif" font-size="10.00">v8::Proxy</text>
</a>
</g>
</g>
<!-- Node4&#45;&gt;Node28 -->
<g id="edge27" class="edge">
<title>Node4&#45;&gt;Node28</title>
<path fill="none" stroke="midnightblue" d="M240.28,-413.17C253.48,-405.54 270.27,-396.5 286,-390 297.98,-385.05 311.69,-380.82 323.39,-377.62"/>
<polygon fill="midnightblue" stroke="midnightblue" points="238.22,-410.33 231.38,-418.42 241.77,-416.35 238.22,-410.33"/>
</g>
<!-- Node29 -->
<g id="node29" class="node">
<title>Node29</title>
<g id="a_node29"><a xlink:href="classv8_1_1RegExp.html" target="_top" xlink:title=" ">
<polygon fill="white" stroke="black" points="319,-323.5 319,-342.5 384,-342.5 384,-323.5 319,-323.5"/>
<text text-anchor="middle" x="351.5" y="-330.5" font-family="Helvetica,sans-Serif" font-size="10.00">v8::RegExp</text>
</a>
</g>
</g>
<!-- Node4&#45;&gt;Node29 -->
<g id="edge28" class="edge">
<title>Node4&#45;&gt;Node29</title>
<path fill="none" stroke="midnightblue" d="M228.39,-409.62C240.97,-392.34 261.97,-366.95 286,-352 295.91,-345.83 307.92,-341.59 318.88,-338.7"/>
<polygon fill="midnightblue" stroke="midnightblue" points="225.2,-408.08 222.31,-418.27 230.92,-412.11 225.2,-408.08"/>
</g>
<!-- Node30 -->
<g id="node30" class="node">
<title>Node30</title>
<g id="a_node30"><a xlink:href="classv8_1_1Set.html" target="_top" xlink:title=" ">
<polygon fill="white" stroke="black" points="328,-285.5 328,-304.5 375,-304.5 375,-285.5 328,-285.5"/>
<text text-anchor="middle" x="351.5" y="-292.5" font-family="Helvetica,sans-Serif" font-size="10.00">v8::Set</text>
</a>
</g>
</g>
<!-- Node4&#45;&gt;Node30 -->
<g id="edge29" class="edge">
<title>Node4&#45;&gt;Node30</title>
<path fill="none" stroke="midnightblue" d="M222.75,-408.78C232.66,-383.35 253.56,-338.83 286,-314 298.05,-304.78 314.5,-300.02 327.76,-297.57"/>
<polygon fill="midnightblue" stroke="midnightblue" points="219.37,-407.81 219.17,-418.4 225.94,-410.25 219.37,-407.81"/>
</g>
<!-- Node31 -->
<g id="node31" class="node">
<title>Node31</title>
<g id="a_node31"><a xlink:href="classv8_1_1SharedArrayBuffer.html" target="_top" xlink:title=" ">
<polygon fill="white" stroke="black" points="296.5,-247.5 296.5,-266.5 406.5,-266.5 406.5,-247.5 296.5,-247.5"/>
<text text-anchor="middle" x="351.5" y="-254.5" font-family="Helvetica,sans-Serif" font-size="10.00">v8::SharedArrayBuffer</text>
</a>
</g>
</g>
<!-- Node4&#45;&gt;Node31 -->
<g id="edge30" class="edge">
<title>Node4&#45;&gt;Node31</title>
<path fill="none" stroke="midnightblue" d="M219.66,-408.08C226.68,-375.61 245.11,-311.35 286,-276 290.5,-272.11 295.77,-269.01 301.32,-266.55"/>
<polygon fill="midnightblue" stroke="midnightblue" points="216.18,-407.65 217.64,-418.14 223.04,-409.03 216.18,-407.65"/>
</g>
<!-- Node32 -->
<g id="node32" class="node">
<title>Node32</title>
<g id="a_node32"><a xlink:href="classv8_1_1StringObject.html" target="_top" xlink:title=" ">
<polygon fill="white" stroke="black" points="308.5,-209.5 308.5,-228.5 394.5,-228.5 394.5,-209.5 308.5,-209.5"/>
<text text-anchor="middle" x="351.5" y="-216.5" font-family="Helvetica,sans-Serif" font-size="10.00">v8::StringObject</text>
</a>
</g>
</g>
<!-- Node4&#45;&gt;Node32 -->
<g id="edge31" class="edge">
<title>Node4&#45;&gt;Node32</title>
<path fill="none" stroke="midnightblue" d="M217.57,-408.13C221.69,-369.63 236.22,-284.58 286,-238 292.22,-232.18 300.14,-228.13 308.28,-225.32"/>
<polygon fill="midnightblue" stroke="midnightblue" points="214.05,-408.2 216.6,-418.49 221.02,-408.86 214.05,-408.2"/>
</g>
<!-- Node33 -->
<g id="node33" class="node">
<title>Node33</title>
<g id="a_node33"><a xlink:href="classv8_1_1SymbolObject.html" target="_top" xlink:title=" ">
<polygon fill="white" stroke="black" points="305.5,-171.5 305.5,-190.5 397.5,-190.5 397.5,-171.5 305.5,-171.5"/>
<text text-anchor="middle" x="351.5" y="-178.5" font-family="Helvetica,sans-Serif" font-size="10.00">v8::SymbolObject</text>
</a>
</g>
</g>
<!-- Node4&#45;&gt;Node33 -->
<g id="edge32" class="edge">
<title>Node4&#45;&gt;Node33</title>
<path fill="none" stroke="midnightblue" d="M216.15,-407.87C217.59,-363.78 227.34,-257.99 286,-200 291.4,-194.67 298.21,-190.81 305.37,-188.04"/>
<polygon fill="midnightblue" stroke="midnightblue" points="212.64,-408.06 215.93,-418.14 219.64,-408.21 212.64,-408.06"/>
</g>
<!-- Node34 -->
<g id="node34" class="node">
<title>Node34</title>
<g id="a_node34"><a xlink:href="classv8_1_1WasmCompiledModule.html" target="_top" xlink:title=" ">
<polygon fill="white" stroke="black" points="286,-133.5 286,-152.5 417,-152.5 417,-133.5 286,-133.5"/>
<text text-anchor="middle" x="351.5" y="-140.5" font-family="Helvetica,sans-Serif" font-size="10.00">v8::WasmCompiledModule</text>
</a>
</g>
</g>
<!-- Node4&#45;&gt;Node34 -->
<g id="edge33" class="edge">
<title>Node4&#45;&gt;Node34</title>
<path fill="none" stroke="midnightblue" d="M218.63,-408.46C226.44,-353.27 251.14,-197.89 286,-162 289.74,-158.15 294.22,-155.07 299.05,-152.6"/>
<polygon fill="midnightblue" stroke="midnightblue" points="215.17,-407.98 217.26,-418.37 222.1,-408.94 215.17,-407.98"/>
</g>
<!-- Node8 -->
<g id="node8" class="node">
<title>Node8</title>
<g id="a_node8"><a xlink:href="classv8_1_1DataView.html" target="_top" xlink:title=" ">
<polygon fill="white" stroke="black" points="456,-684.5 456,-703.5 530,-703.5 530,-684.5 456,-684.5"/>
<text text-anchor="middle" x="493" y="-691.5" font-family="Helvetica,sans-Serif" font-size="10.00">v8::DataView</text>
</a>
</g>
</g>
<!-- Node7&#45;&gt;Node8 -->
<g id="edge7" class="edge">
<title>Node7&#45;&gt;Node8</title>
<path fill="none" stroke="midnightblue" d="M412.2,-683.13C427.01,-685.15 442.44,-687.25 455.74,-689.06"/>
<polygon fill="midnightblue" stroke="midnightblue" points="412.46,-679.63 402.08,-681.75 411.51,-686.57 412.46,-679.63"/>
</g>
<!-- Node9 -->
<g id="node9" class="node">
<title>Node9</title>
<g id="a_node9"><a xlink:href="classv8_1_1TypedArray.html" target="_top" xlink:title=" ">
<polygon fill="white" stroke="black" points="453,-646.5 453,-665.5 533,-665.5 533,-646.5 453,-646.5"/>
<text text-anchor="middle" x="493" y="-653.5" font-family="Helvetica,sans-Serif" font-size="10.00">v8::TypedArray</text>
</a>
</g>
</g>
<!-- Node7&#45;&gt;Node9 -->
<g id="edge8" class="edge">
<title>Node7&#45;&gt;Node9</title>
<path fill="none" stroke="midnightblue" d="M412.36,-666.85C425.99,-664.99 440.14,-663.06 452.66,-661.36"/>
<polygon fill="midnightblue" stroke="midnightblue" points="411.51,-663.43 402.08,-668.25 412.46,-670.37 411.51,-663.43"/>
</g>
<!-- Node10 -->
<g id="node10" class="node">
<title>Node10</title>
<g id="a_node10"><a xlink:href="classv8_1_1BigInt64Array.html" target="_top" xlink:title=" ">
<polygon fill="white" stroke="black" points="582,-836.5 582,-855.5 672,-855.5 672,-836.5 582,-836.5"/>
<text text-anchor="middle" x="627" y="-843.5" font-family="Helvetica,sans-Serif" font-size="10.00">v8::BigInt64Array</text>
</a>
</g>
</g>
<!-- Node9&#45;&gt;Node10 -->
<g id="edge9" class="edge">
<title>Node9&#45;&gt;Node10</title>
<path fill="none" stroke="midnightblue" d="M529.92,-671.67C531.03,-672.72 532.06,-673.82 533,-675 576.38,-729.2 522.15,-775.77 569,-827 572.59,-830.93 577.01,-834.04 581.79,-836.51"/>
<polygon fill="midnightblue" stroke="midnightblue" points="531.94,-668.81 521.82,-665.68 527.78,-674.44 531.94,-668.81"/>
</g>
<!-- Node11 -->
<g id="node11" class="node">
<title>Node11</title>
<g id="a_node11"><a xlink:href="classv8_1_1BigUint64Array.html" target="_top" xlink:title=" ">
<polygon fill="white" stroke="black" points="578.5,-798.5 578.5,-817.5 675.5,-817.5 675.5,-798.5 578.5,-798.5"/>
<text text-anchor="middle" x="627" y="-805.5" font-family="Helvetica,sans-Serif" font-size="10.00">v8::BigUint64Array</text>
</a>
</g>
</g>
<!-- Node9&#45;&gt;Node11 -->
<g id="edge10" class="edge">
<title>Node9&#45;&gt;Node11</title>
<path fill="none" stroke="midnightblue" d="M529.71,-671.67C530.88,-672.71 531.99,-673.82 533,-675 567.7,-715.24 531.73,-751.13 569,-789 572.8,-792.87 577.42,-795.95 582.35,-798.4"/>
<polygon fill="midnightblue" stroke="midnightblue" points="531.38,-668.56 521.2,-665.64 527.34,-674.28 531.38,-668.56"/>
</g>
<!-- Node12 -->
<g id="node12" class="node">
<title>Node12</title>
<g id="a_node12"><a xlink:href="classv8_1_1Float32Array.html" target="_top" xlink:title=" ">
<polygon fill="white" stroke="black" points="584,-760.5 584,-779.5 670,-779.5 670,-760.5 584,-760.5"/>
<text text-anchor="middle" x="627" y="-767.5" font-family="Helvetica,sans-Serif" font-size="10.00">v8::Float32Array</text>
</a>
</g>
</g>
<!-- Node9&#45;&gt;Node12 -->
<g id="edge11" class="edge">
<title>Node9&#45;&gt;Node12</title>
<path fill="none" stroke="midnightblue" d="M528.49,-671.05C530.09,-672.28 531.61,-673.59 533,-675 559.28,-701.57 541.03,-726.21 569,-751 573.37,-754.87 578.56,-757.96 583.99,-760.42"/>
<polygon fill="midnightblue" stroke="midnightblue" points="530.28,-668.03 519.98,-665.58 526.5,-673.93 530.28,-668.03"/>
</g>
<!-- Node13 -->
<g id="node13" class="node">
<title>Node13</title>
<g id="a_node13"><a xlink:href="classv8_1_1Float64Array.html" target="_top" xlink:title=" ">
<polygon fill="white" stroke="black" points="584,-722.5 584,-741.5 670,-741.5 670,-722.5 584,-722.5"/>
<text text-anchor="middle" x="627" y="-729.5" font-family="Helvetica,sans-Serif" font-size="10.00">v8::Float64Array</text>
</a>
</g>
</g>
<!-- Node9&#45;&gt;Node13 -->
<g id="edge12" class="edge">
<title>Node9&#45;&gt;Node13</title>
<path fill="none" stroke="midnightblue" d="M526.01,-670.4C528.44,-671.85 530.8,-673.39 533,-675 551.76,-688.76 549.38,-700.5 569,-713 574.98,-716.81 581.81,-719.94 588.61,-722.47"/>
<polygon fill="midnightblue" stroke="midnightblue" points="527.52,-667.24 517.07,-665.54 524.18,-673.39 527.52,-667.24"/>
</g>
<!-- Node14 -->
<g id="node14" class="node">
<title>Node14</title>
<g id="a_node14"><a xlink:href="classv8_1_1Int16Array.html" target="_top" xlink:title=" ">
<polygon fill="white" stroke="black" points="589,-684.5 589,-703.5 665,-703.5 665,-684.5 589,-684.5"/>
<text text-anchor="middle" x="627" y="-691.5" font-family="Helvetica,sans-Serif" font-size="10.00">v8::Int16Array</text>
</a>
</g>
</g>
<!-- Node9&#45;&gt;Node14 -->
<g id="edge13" class="edge">
<title>Node9&#45;&gt;Node14</title>
<path fill="none" stroke="midnightblue" d="M537.04,-668.39C555.12,-673.59 575.82,-679.55 592.7,-684.41"/>
<polygon fill="midnightblue" stroke="midnightblue" points="537.89,-664.99 527.31,-665.59 535.95,-671.72 537.89,-664.99"/>
</g>
<!-- Node15 -->
<g id="node15" class="node">
<title>Node15</title>
<g id="a_node15"><a xlink:href="classv8_1_1Int32Array.html" target="_top" xlink:title=" ">
<polygon fill="white" stroke="black" points="589,-646.5 589,-665.5 665,-665.5 665,-646.5 589,-646.5"/>
<text text-anchor="middle" x="627" y="-653.5" font-family="Helvetica,sans-Serif" font-size="10.00">v8::Int32Array</text>
</a>
</g>
</g>
<!-- Node9&#45;&gt;Node15 -->
<g id="edge14" class="edge">
<title>Node9&#45;&gt;Node15</title>
<path fill="none" stroke="midnightblue" d="M543.45,-656C558.52,-656 574.83,-656 588.94,-656"/>
<polygon fill="midnightblue" stroke="midnightblue" points="543.25,-652.5 533.25,-656 543.25,-659.5 543.25,-652.5"/>
</g>
<!-- Node16 -->
<g id="node16" class="node">
<title>Node16</title>
<g id="a_node16"><a xlink:href="classv8_1_1Int8Array.html" target="_top" xlink:title=" ">
<polygon fill="white" stroke="black" points="591.5,-608.5 591.5,-627.5 662.5,-627.5 662.5,-608.5 591.5,-608.5"/>
<text text-anchor="middle" x="627" y="-615.5" font-family="Helvetica,sans-Serif" font-size="10.00">v8::Int8Array</text>
</a>
</g>
</g>
<!-- Node9&#45;&gt;Node16 -->
<g id="edge15" class="edge">
<title>Node9&#45;&gt;Node16</title>
<path fill="none" stroke="midnightblue" d="M537.04,-643.61C555.12,-638.41 575.82,-632.45 592.7,-627.59"/>
<polygon fill="midnightblue" stroke="midnightblue" points="535.95,-640.28 527.31,-646.41 537.89,-647.01 535.95,-640.28"/>
</g>
<!-- Node17 -->
<g id="node17" class="node">
<title>Node17</title>
<g id="a_node17"><a xlink:href="classv8_1_1Uint16Array.html" target="_top" xlink:title=" ">
<polygon fill="white" stroke="black" points="585.5,-570.5 585.5,-589.5 668.5,-589.5 668.5,-570.5 585.5,-570.5"/>
<text text-anchor="middle" x="627" y="-577.5" font-family="Helvetica,sans-Serif" font-size="10.00">v8::Uint16Array</text>
</a>
</g>
</g>
<!-- Node9&#45;&gt;Node17 -->
<g id="edge16" class="edge">
<title>Node9&#45;&gt;Node17</title>
<path fill="none" stroke="midnightblue" d="M512.11,-639.51C526.62,-626.99 547.96,-610.11 569,-599 575.92,-595.35 583.68,-592.2 591.19,-589.58"/>
<polygon fill="midnightblue" stroke="midnightblue" points="509.6,-637.05 504.41,-646.29 514.23,-642.31 509.6,-637.05"/>
</g>
<!-- Node18 -->
<g id="node18" class="node">
<title>Node18</title>
<g id="a_node18"><a xlink:href="classv8_1_1Uint32Array.html" target="_top" xlink:title=" ">
<polygon fill="white" stroke="black" points="585.5,-532.5 585.5,-551.5 668.5,-551.5 668.5,-532.5 585.5,-532.5"/>
<text text-anchor="middle" x="627" y="-539.5" font-family="Helvetica,sans-Serif" font-size="10.00">v8::Uint32Array</text>
</a>
</g>
</g>
<!-- Node9&#45;&gt;Node18 -->
<g id="edge17" class="edge">
<title>Node9&#45;&gt;Node18</title>
<path fill="none" stroke="midnightblue" d="M504.01,-637.65C516.53,-616.31 539.92,-581.42 569,-561 574.46,-557.16 580.76,-554.06 587.13,-551.56"/>
<polygon fill="midnightblue" stroke="midnightblue" points="500.93,-635.98 499.03,-646.4 507.02,-639.43 500.93,-635.98"/>
</g>
<!-- Node19 -->
<g id="node19" class="node">
<title>Node19</title>
<g id="a_node19"><a xlink:href="classv8_1_1Uint8Array.html" target="_top" xlink:title=" ">
<polygon fill="white" stroke="black" points="588.5,-494.5 588.5,-513.5 665.5,-513.5 665.5,-494.5 588.5,-494.5"/>
<text text-anchor="middle" x="627" y="-501.5" font-family="Helvetica,sans-Serif" font-size="10.00">v8::Uint8Array</text>
</a>
</g>
</g>
<!-- Node9&#45;&gt;Node19 -->
<g id="edge18" class="edge">
<title>Node9&#45;&gt;Node19</title>
<path fill="none" stroke="midnightblue" d="M499.88,-636.67C509.63,-607.83 531.82,-553.66 569,-523 574.63,-518.35 581.45,-514.83 588.38,-512.16"/>
<polygon fill="midnightblue" stroke="midnightblue" points="496.49,-635.79 496.75,-646.38 503.15,-637.94 496.49,-635.79"/>
</g>
<!-- Node20 -->
<g id="node20" class="node">
<title>Node20</title>
<g id="a_node20"><a xlink:href="classv8_1_1Uint8ClampedArray.html" target="_top" xlink:title=" ">
<polygon fill="white" stroke="black" points="569,-456.5 569,-475.5 685,-475.5 685,-456.5 569,-456.5"/>
<text text-anchor="middle" x="627" y="-463.5" font-family="Helvetica,sans-Serif" font-size="10.00">v8::Uint8ClampedArray</text>
</a>
</g>
</g>
<!-- Node9&#45;&gt;Node20 -->
<g id="edge19" class="edge">
<title>Node9&#45;&gt;Node20</title>
<path fill="none" stroke="midnightblue" d="M497.27,-636.26C504.15,-600.91 523.4,-526.6 569,-485 573.24,-481.13 578.29,-478.05 583.6,-475.59"/>
<polygon fill="midnightblue" stroke="midnightblue" points="493.79,-635.82 495.45,-646.28 500.68,-637.06 493.79,-635.82"/>
</g>
<!-- Node36 -->
<g id="node36" class="node">
<title>Node36</title>
<g id="a_node36"><a xlink:href="classv8_1_1Boolean.html" target="_top" xlink:title=" ">
<polygon fill="white" stroke="black" points="318,-95.5 318,-114.5 385,-114.5 385,-95.5 318,-95.5"/>
<text text-anchor="middle" x="351.5" y="-102.5" font-family="Helvetica,sans-Serif" font-size="10.00">v8::Boolean</text>
</a>
</g>
</g>
<!-- Node35&#45;&gt;Node36 -->
<g id="edge35" class="edge">
<title>Node35&#45;&gt;Node36</title>
<path fill="none" stroke="midnightblue" d="M260.35,-92.27C279.05,-94.91 300.42,-97.93 317.67,-100.36"/>
<polygon fill="midnightblue" stroke="midnightblue" points="260.68,-88.78 250.29,-90.84 259.7,-95.71 260.68,-88.78"/>
</g>
<!-- Node37 -->
<g id="node37" class="node">
<title>Node37</title>
<g id="a_node37"><a xlink:href="classv8_1_1Name.html" target="_top" xlink:title=" ">
<polygon fill="white" stroke="black" points="322.5,-57.5 322.5,-76.5 380.5,-76.5 380.5,-57.5 322.5,-57.5"/>
<text text-anchor="middle" x="351.5" y="-64.5" font-family="Helvetica,sans-Serif" font-size="10.00">v8::Name</text>
</a>
</g>
</g>
<!-- Node35&#45;&gt;Node37 -->
<g id="edge36" class="edge">
<title>Node35&#45;&gt;Node37</title>
<path fill="none" stroke="midnightblue" d="M260.3,-79.74C280.67,-76.86 304.24,-73.54 322.17,-71"/>
<polygon fill="midnightblue" stroke="midnightblue" points="259.7,-76.29 250.29,-81.16 260.68,-83.22 259.7,-76.29"/>
</g>
<!-- Node40 -->
<g id="node40" class="node">
<title>Node40</title>
<g id="a_node40"><a xlink:href="classv8_1_1Number.html" target="_top" xlink:title=" ">
<polygon fill="white" stroke="black" points="318.5,-19.5 318.5,-38.5 384.5,-38.5 384.5,-19.5 318.5,-19.5"/>
<text text-anchor="middle" x="351.5" y="-26.5" font-family="Helvetica,sans-Serif" font-size="10.00">v8::Number</text>
</a>
</g>
</g>
<!-- Node35&#45;&gt;Node40 -->
<g id="edge39" class="edge">
<title>Node35&#45;&gt;Node40</title>
<path fill="none" stroke="midnightblue" d="M240.28,-71.17C253.48,-63.54 270.27,-54.5 286,-48 296.25,-43.76 307.77,-40.06 318.22,-37.07"/>
<polygon fill="midnightblue" stroke="midnightblue" points="238.22,-68.33 231.38,-76.42 241.77,-74.35 238.22,-68.33"/>
</g>
<!-- Node38 -->
<g id="node38" class="node">
<title>Node38</title>
<g id="a_node38"><a xlink:href="classv8_1_1String.html" target="_top" xlink:title=" ">
<polygon fill="white" stroke="black" points="464.5,-95.5 464.5,-114.5 521.5,-114.5 521.5,-95.5 464.5,-95.5"/>
<text text-anchor="middle" x="493" y="-102.5" font-family="Helvetica,sans-Serif" font-size="10.00">v8::String</text>
</a>
</g>
</g>
<!-- Node37&#45;&gt;Node38 -->
<g id="edge37" class="edge">
<title>Node37&#45;&gt;Node38</title>
<path fill="none" stroke="midnightblue" d="M390.63,-77.39C413.93,-83.73 443.2,-91.71 464.29,-97.45"/>
<polygon fill="midnightblue" stroke="midnightblue" points="391.3,-73.94 380.73,-74.69 389.46,-80.7 391.3,-73.94"/>
</g>
<!-- Node39 -->
<g id="node39" class="node">
<title>Node39</title>
<g id="a_node39"><a xlink:href="classv8_1_1Symbol.html" target="_top" xlink:title=" ">
<polygon fill="white" stroke="black" points="461,-57.5 461,-76.5 525,-76.5 525,-57.5 461,-57.5"/>
<text text-anchor="middle" x="493" y="-64.5" font-family="Helvetica,sans-Serif" font-size="10.00">v8::Symbol</text>
</a>
</g>
</g>
<!-- Node37&#45;&gt;Node39 -->
<g id="edge38" class="edge">
<title>Node37&#45;&gt;Node39</title>
<path fill="none" stroke="midnightblue" d="M390.76,-67C412.81,-67 440.18,-67 460.9,-67"/>
<polygon fill="midnightblue" stroke="midnightblue" points="390.73,-63.5 380.73,-67 390.73,-70.5 390.73,-63.5"/>
</g>
<!-- Node41 -->
<g id="node41" class="node">
<title>Node41</title>
<g id="a_node41"><a xlink:href="classv8_1_1Integer.html" target="_top" xlink:title=" ">
<polygon fill="white" stroke="black" points="462,-19.5 462,-38.5 524,-38.5 524,-19.5 462,-19.5"/>
<text text-anchor="middle" x="493" y="-26.5" font-family="Helvetica,sans-Serif" font-size="10.00">v8::Integer</text>
</a>
</g>
</g>
<!-- Node40&#45;&gt;Node41 -->
<g id="edge40" class="edge">
<title>Node40&#45;&gt;Node41</title>
<path fill="none" stroke="midnightblue" d="M394.7,-29C416.26,-29 441.99,-29 461.58,-29"/>
<polygon fill="midnightblue" stroke="midnightblue" points="394.5,-25.5 384.5,-29 394.5,-32.5 394.5,-25.5"/>
</g>
<!-- Node42 -->
<g id="node42" class="node">
<title>Node42</title>
<g id="a_node42"><a xlink:href="classv8_1_1Int32.html" target="_top" xlink:title=" ">
<polygon fill="white" stroke="black" points="600.5,-38.5 600.5,-57.5 653.5,-57.5 653.5,-38.5 600.5,-38.5"/>
<text text-anchor="middle" x="627" y="-45.5" font-family="Helvetica,sans-Serif" font-size="10.00">v8::Int32</text>
</a>
</g>
</g>
<!-- Node41&#45;&gt;Node42 -->
<g id="edge41" class="edge">
<title>Node41&#45;&gt;Node42</title>
<path fill="none" stroke="midnightblue" d="M534.42,-34.82C555.87,-37.91 581.59,-41.61 600.3,-44.3"/>
<polygon fill="midnightblue" stroke="midnightblue" points="534.68,-31.32 524.28,-33.36 533.68,-38.25 534.68,-31.32"/>
</g>
<!-- Node43 -->
<g id="node43" class="node">
<title>Node43</title>
<g id="a_node43"><a xlink:href="classv8_1_1Uint32.html" target="_top" xlink:title=" ">
<polygon fill="white" stroke="black" points="597,-0.5 597,-19.5 657,-19.5 657,-0.5 597,-0.5"/>
<text text-anchor="middle" x="627" y="-7.5" font-family="Helvetica,sans-Serif" font-size="10.00">v8::Uint32</text>
</a>
</g>
</g>
<!-- Node41&#45;&gt;Node43 -->
<g id="edge42" class="edge">
<title>Node41&#45;&gt;Node43</title>
<path fill="none" stroke="midnightblue" d="M534.42,-23.18C554.55,-20.28 578.43,-16.85 596.77,-14.21"/>
<polygon fill="midnightblue" stroke="midnightblue" points="533.68,-19.75 524.28,-24.64 534.68,-26.68 533.68,-19.75"/>
</g>
</g>
</svg>
