<?xml version="1.0" encoding="UTF-8" standalone="no"?>
<!DOCTYPE svg PUBLIC "-//W3C//DTD SVG 1.1//EN"
 "http://www.w3.org/Graphics/SVG/1.1/DTD/svg11.dtd">
<!-- Generated by graphviz version 2.44.0 ()
 -->
<!-- Title: Graphical Class Hierarchy Pages: 1 -->
<svg width="305pt" height="88pt"
 viewBox="0.00 0.00 305.00 88.00" xmlns="http://www.w3.org/2000/svg" xmlns:xlink="http://www.w3.org/1999/xlink">
<g id="graph0" class="graph" transform="scale(1 1) rotate(0) translate(4 84)">
<title>Graphical Class Hierarchy</title>
<polygon fill="white" stroke="transparent" points="-4,4 -4,-84 301,-84 301,4 -4,4"/>
<!-- Node0 -->
<g id="node1" class="node">
<title>Node0</title>
<g id="a_node1"><a xlink:href="classv8_1_1PersistentValueMapBase.html" target="_top" xlink:title=" ">
<polygon fill="white" stroke="black" points="0,-24.5 0,-54.5 142,-54.5 142,-24.5 0,-24.5"/>
<text text-anchor="start" x="8" y="-42.5" font-family="Helvetica,sans-Serif" font-size="10.00">v8::PersistentValueMapBase</text>
<text text-anchor="middle" x="71" y="-31.5" font-family="Helvetica,sans-Serif" font-size="10.00">&lt; K, V, Traits &gt;</text>
</a>
</g>
</g>
<!-- Node1 -->
<g id="node2" class="node">
<title>Node1</title>
<g id="a_node2"><a xlink:href="classv8_1_1GlobalValueMap.html" target="_top" xlink:title=" ">
<polygon fill="white" stroke="black" points="186,-49.5 186,-79.5 289,-79.5 289,-49.5 186,-49.5"/>
<text text-anchor="start" x="194" y="-67.5" font-family="Helvetica,sans-Serif" font-size="10.00">v8::GlobalValueMap</text>
<text text-anchor="middle" x="237.5" y="-56.5" font-family="Helvetica,sans-Serif" font-size="10.00">&lt; K, V, Traits &gt;</text>
</a>
</g>
</g>
<!-- Node0&#45;&gt;Node1 -->
<g id="edge1" class="edge">
<title>Node0&#45;&gt;Node1</title>
<path fill="none" stroke="midnightblue" d="M152.27,-51.7C163.72,-53.44 175.23,-55.19 185.89,-56.81"/>
<polygon fill="midnightblue" stroke="midnightblue" points="152.65,-48.22 142.24,-50.17 151.6,-55.14 152.65,-48.22"/>
</g>
<!-- Node2 -->
<g id="node3" class="node">
<title>Node2</title>
<g id="a_node3"><a xlink:href="classv8_1_1PersistentValueMap.html" target="_top" xlink:title=" ">
<polygon fill="white" stroke="black" points="178,-0.5 178,-30.5 297,-30.5 297,-0.5 178,-0.5"/>
<text text-anchor="start" x="186" y="-18.5" font-family="Helvetica,sans-Serif" font-size="10.00">v8::PersistentValueMap</text>
<text text-anchor="middle" x="237.5" y="-7.5" font-family="Helvetica,sans-Serif" font-size="10.00">&lt; K, V, Traits &gt;</text>
</a>
</g>
</g>
<!-- Node0&#45;&gt;Node2 -->
<g id="edge2" class="edge">
<title>Node0&#45;&gt;Node2</title>
<path fill="none" stroke="midnightblue" d="M152.32,-27.78C160.94,-26.52 169.58,-25.26 177.87,-24.05"/>
<polygon fill="midnightblue" stroke="midnightblue" points="151.63,-24.35 142.24,-29.25 152.64,-31.27 151.63,-24.35"/>
</g>
</g>
</svg>
