<?xml version="1.0" encoding="UTF-8" standalone="no"?>
<!DOCTYPE svg PUBLIC "-//W3C//DTD SVG 1.1//EN"
 "http://www.w3.org/Graphics/SVG/1.1/DTD/svg11.dtd">
<!-- Generated by graphviz version 2.44.0 ()
 -->
<!-- Title: v8::PersistentValueMapBase::isolate Pages: 1 -->
<svg width="340pt" height="290pt"
 viewBox="0.00 0.00 340.00 290.00" xmlns="http://www.w3.org/2000/svg" xmlns:xlink="http://www.w3.org/1999/xlink">
<g id="graph0" class="graph" transform="scale(1 1) rotate(0) translate(4 286)">
<title>v8::PersistentValueMapBase::isolate</title>
<polygon fill="white" stroke="transparent" points="-4,4 -4,-286 336,-286 336,4 -4,4"/>
<!-- Node1 -->
<g id="node1" class="node">
<title>Node1</title>
<g id="a_node1"><a xlink:title=" ">
<polygon fill="#bfbfbf" stroke="black" points="190,-126 190,-156 332,-156 332,-126 190,-126"/>
<text text-anchor="start" x="198" y="-144" font-family="Helvetica,sans-Serif" font-size="10.00">v8::PersistentValueMapBase</text>
<text text-anchor="middle" x="261" y="-133" font-family="Helvetica,sans-Serif" font-size="10.00">::isolate</text>
</a>
</g>
</g>
<!-- Node2 -->
<g id="node2" class="node">
<title>Node2</title>
<g id="a_node2"><a xlink:href="classv8_1_1PersistentValueMapBase_1_1PersistentValueReference.html#ac59d20538e1986a423605b013f33e040" target="_top" xlink:title=" ">
<polygon fill="white" stroke="black" points="6,-240.5 6,-281.5 148,-281.5 148,-240.5 6,-240.5"/>
<text text-anchor="start" x="14" y="-269.5" font-family="Helvetica,sans-Serif" font-size="10.00">v8::PersistentValueMapBase</text>
<text text-anchor="start" x="14" y="-258.5" font-family="Helvetica,sans-Serif" font-size="10.00">::PersistentValueReference</text>
<text text-anchor="middle" x="77" y="-247.5" font-family="Helvetica,sans-Serif" font-size="10.00">::NewLocal</text>
</a>
</g>
</g>
<!-- Node1&#45;&gt;Node2 -->
<g id="edge1" class="edge">
<title>Node1&#45;&gt;Node2</title>
<path fill="none" stroke="midnightblue" d="M238.23,-163.26C217.89,-183.09 185.95,-211.85 154,-231 148.4,-234.35 142.36,-237.47 136.22,-240.33"/>
<polygon fill="midnightblue" stroke="midnightblue" points="240.78,-165.66 245.43,-156.14 235.86,-160.68 240.78,-165.66"/>
</g>
<!-- Node3 -->
<g id="node3" class="node">
<title>Node3</title>
<g id="a_node3"><a xlink:href="classv8_1_1PersistentValueMap.html#a4527a2e1b25a9f1772317f948382d9f9" target="_top" xlink:title=" ">
<polygon fill="white" stroke="black" points="2.5,-180.5 2.5,-221.5 151.5,-221.5 151.5,-180.5 2.5,-180.5"/>
<text text-anchor="start" x="10.5" y="-209.5" font-family="Helvetica,sans-Serif" font-size="10.00">v8::PersistentValueMap</text>
<text text-anchor="start" x="10.5" y="-198.5" font-family="Helvetica,sans-Serif" font-size="10.00">&lt; K, V, DefaultPersistentValue</text>
<text text-anchor="middle" x="77" y="-187.5" font-family="Helvetica,sans-Serif" font-size="10.00">MapTraits&lt; K, V &gt; &gt;::Set</text>
</a>
</g>
</g>
<!-- Node1&#45;&gt;Node3 -->
<g id="edge2" class="edge">
<title>Node1&#45;&gt;Node3</title>
<path fill="none" stroke="midnightblue" d="M204.39,-159.33C184.17,-166 161.18,-173.58 140.41,-180.42"/>
<polygon fill="midnightblue" stroke="midnightblue" points="205.67,-162.6 214.07,-156.14 203.48,-155.95 205.67,-162.6"/>
</g>
<!-- Node4 -->
<g id="node4" class="node">
<title>Node4</title>
<g id="a_node4"><a xlink:href="classv8_1_1GlobalValueMap.html#aa13f7914642c705b8e96824747ea115a" target="_top" xlink:title=" ">
<polygon fill="white" stroke="black" points="1.5,-120.5 1.5,-161.5 152.5,-161.5 152.5,-120.5 1.5,-120.5"/>
<text text-anchor="start" x="9.5" y="-149.5" font-family="Helvetica,sans-Serif" font-size="10.00">v8::GlobalValueMap</text>
<text text-anchor="start" x="9.5" y="-138.5" font-family="Helvetica,sans-Serif" font-size="10.00">&lt; K, V, DefaultGlobalMapTraits</text>
<text text-anchor="middle" x="77" y="-127.5" font-family="Helvetica,sans-Serif" font-size="10.00">&lt; K, V &gt; &gt;::Set</text>
</a>
</g>
</g>
<!-- Node1&#45;&gt;Node4 -->
<g id="edge3" class="edge">
<title>Node1&#45;&gt;Node4</title>
<path fill="none" stroke="midnightblue" d="M179.77,-141C170.74,-141 161.56,-141 152.6,-141"/>
<polygon fill="midnightblue" stroke="midnightblue" points="179.89,-144.5 189.89,-141 179.89,-137.5 179.89,-144.5"/>
</g>
<!-- Node5 -->
<g id="node5" class="node">
<title>Node5</title>
<g id="a_node5"><a xlink:href="classv8_1_1PersistentValueMap.html#a97ab74c7670e65dd5f95ec2940c4ab11" target="_top" xlink:title=" ">
<polygon fill="white" stroke="black" points="0,-60.5 0,-101.5 154,-101.5 154,-60.5 0,-60.5"/>
<text text-anchor="start" x="8" y="-89.5" font-family="Helvetica,sans-Serif" font-size="10.00">v8::PersistentValueMap</text>
<text text-anchor="start" x="8" y="-78.5" font-family="Helvetica,sans-Serif" font-size="10.00">&lt; K, V, DefaultPersistentValue</text>
<text text-anchor="middle" x="77" y="-67.5" font-family="Helvetica,sans-Serif" font-size="10.00">MapTraits&lt; K, V &gt; &gt;::SetUnique</text>
</a>
</g>
</g>
<!-- Node1&#45;&gt;Node5 -->
<g id="edge4" class="edge">
<title>Node1&#45;&gt;Node5</title>
<path fill="none" stroke="midnightblue" d="M204.39,-122.67C184.17,-116 161.18,-108.42 140.41,-101.58"/>
<polygon fill="midnightblue" stroke="midnightblue" points="203.48,-126.05 214.07,-125.86 205.67,-119.4 203.48,-126.05"/>
</g>
<!-- Node6 -->
<g id="node6" class="node">
<title>Node6</title>
<g id="a_node6"><a xlink:href="classv8_1_1GlobalValueMap.html#aad73de3912571a2f245454d3edea4a41" target="_top" xlink:title=" ">
<polygon fill="white" stroke="black" points="1.5,-0.5 1.5,-41.5 152.5,-41.5 152.5,-0.5 1.5,-0.5"/>
<text text-anchor="start" x="9.5" y="-29.5" font-family="Helvetica,sans-Serif" font-size="10.00">v8::GlobalValueMap</text>
<text text-anchor="start" x="9.5" y="-18.5" font-family="Helvetica,sans-Serif" font-size="10.00">&lt; K, V, DefaultGlobalMapTraits</text>
<text text-anchor="middle" x="77" y="-7.5" font-family="Helvetica,sans-Serif" font-size="10.00">&lt; K, V &gt; &gt;::SetUnique</text>
</a>
</g>
</g>
<!-- Node1&#45;&gt;Node6 -->
<g id="edge5" class="edge">
<title>Node1&#45;&gt;Node6</title>
<path fill="none" stroke="midnightblue" d="M238.23,-118.74C217.89,-98.91 185.95,-70.15 154,-51 148.4,-47.65 142.36,-44.53 136.22,-41.67"/>
<polygon fill="midnightblue" stroke="midnightblue" points="235.86,-121.32 245.43,-125.86 240.78,-116.34 235.86,-121.32"/>
</g>
</g>
</svg>
