<?xml version="1.0" encoding="UTF-8" standalone="no"?>
<!DOCTYPE svg PUBLIC "-//W3C//DTD SVG 1.1//EN"
 "http://www.w3.org/Graphics/SVG/1.1/DTD/svg11.dtd">
<!-- Generated by graphviz version 2.44.0 ()
 -->
<!-- Title: v8::internal::IntToSmi Pages: 1 -->
<svg width="273pt" height="127pt"
 viewBox="0.00 0.00 273.00 127.00" xmlns="http://www.w3.org/2000/svg" xmlns:xlink="http://www.w3.org/1999/xlink">
<g id="graph0" class="graph" transform="scale(1 1) rotate(0) translate(4 123)">
<title>v8::internal::IntToSmi</title>
<polygon fill="white" stroke="transparent" points="-4,4 -4,-123 269,-123 269,4 -4,4"/>
<!-- Node1 -->
<g id="node1" class="node">
<title>Node1</title>
<g id="a_node1"><a xlink:title=" ">
<polygon fill="#bfbfbf" stroke="black" points="158,-50 158,-69 265,-69 265,-50 158,-50"/>
<text text-anchor="middle" x="211.5" y="-57" font-family="Helvetica,sans-Serif" font-size="10.00">v8::internal::IntToSmi</text>
</a>
</g>
</g>
<!-- Node2 -->
<g id="node2" class="node">
<title>Node2</title>
<g id="a_node2"><a xlink:href="classv8_1_1internal_1_1Internals.html#a94ffd89fdf64fad84fb4ef16a9749850" target="_top" xlink:title=" ">
<polygon fill="white" stroke="black" points="8.5,-88.5 8.5,-118.5 113.5,-118.5 113.5,-88.5 8.5,-88.5"/>
<text text-anchor="start" x="16.5" y="-106.5" font-family="Helvetica,sans-Serif" font-size="10.00">v8::internal::Internals</text>
<text text-anchor="middle" x="61" y="-95.5" font-family="Helvetica,sans-Serif" font-size="10.00">::IntToSmi</text>
</a>
</g>
</g>
<!-- Node1&#45;&gt;Node2 -->
<g id="edge1" class="edge">
<title>Node1&#45;&gt;Node2</title>
<path fill="none" stroke="midnightblue" d="M168.46,-71.96C151.16,-77.08 130.97,-83.06 112.85,-88.43"/>
<polygon fill="midnightblue" stroke="midnightblue" points="169.68,-75.24 178.28,-69.05 167.7,-68.53 169.68,-75.24"/>
</g>
<!-- Node3 -->
<g id="node3" class="node">
<title>Node3</title>
<g id="a_node3"><a xlink:href="classv8_1_1ReturnValue.html#ab214555052e3d03b8c44a7e8779bcbc2" target="_top" xlink:title=" ">
<polygon fill="white" stroke="black" points="9,-50 9,-69 113,-69 113,-50 9,-50"/>
<text text-anchor="middle" x="61" y="-57" font-family="Helvetica,sans-Serif" font-size="10.00">v8::ReturnValue::Set</text>
</a>
</g>
</g>
<!-- Node1&#45;&gt;Node3 -->
<g id="edge2" class="edge">
<title>Node1&#45;&gt;Node3</title>
<path fill="none" stroke="midnightblue" d="M147.71,-59.5C136.17,-59.5 124.25,-59.5 113.11,-59.5"/>
<polygon fill="midnightblue" stroke="midnightblue" points="147.73,-63 157.73,-59.5 147.73,-56 147.73,-63"/>
</g>
<!-- Node4 -->
<g id="node4" class="node">
<title>Node4</title>
<g id="a_node4"><a xlink:href="classv8_1_1PropertyCallbackInfo.html#a82d79a9cdaac9807a0fa17331b159ce9" target="_top" xlink:title=" ">
<polygon fill="white" stroke="black" points="0,-0.5 0,-30.5 122,-30.5 122,-0.5 0,-0.5"/>
<text text-anchor="start" x="8" y="-18.5" font-family="Helvetica,sans-Serif" font-size="10.00">v8::PropertyCallbackInfo</text>
<text text-anchor="middle" x="61" y="-7.5" font-family="Helvetica,sans-Serif" font-size="10.00">::ShouldThrowOnError</text>
</a>
</g>
</g>
<!-- Node1&#45;&gt;Node4 -->
<g id="edge3" class="edge">
<title>Node1&#45;&gt;Node4</title>
<path fill="none" stroke="midnightblue" d="M168.46,-47.04C151.16,-41.92 130.97,-35.94 112.85,-30.57"/>
<polygon fill="midnightblue" stroke="midnightblue" points="167.7,-50.47 178.28,-49.95 169.68,-43.76 167.7,-50.47"/>
</g>
</g>
</svg>
