<?xml version="1.0" encoding="UTF-8" standalone="no"?>
<!DOCTYPE svg PUBLIC "-//W3C//DTD SVG 1.1//EN"
 "http://www.w3.org/Graphics/SVG/1.1/DTD/svg11.dtd">
<!-- Generated by graphviz version 2.44.0 ()
 -->
<!-- Title: include/v8&#45;version.h Pages: 1 -->
<svg width="720pt" height="218pt"
 viewBox="0.00 0.00 720.00 218.00" xmlns="http://www.w3.org/2000/svg" xmlns:xlink="http://www.w3.org/1999/xlink">
<g id="graph0" class="graph" transform="scale(1 1) rotate(0) translate(4 214)">
<title>include/v8&#45;version.h</title>
<polygon fill="white" stroke="transparent" points="-4,4 -4,-214 716,-214 716,4 -4,4"/>
<!-- Node1 -->
<g id="node1" class="node">
<title>Node1</title>
<g id="a_node1"><a xlink:title=" ">
<polygon fill="#bfbfbf" stroke="black" points="376.5,-190.5 376.5,-209.5 479.5,-209.5 479.5,-190.5 376.5,-190.5"/>
<text text-anchor="middle" x="428" y="-197.5" font-family="Helvetica,sans-Serif" font-size="10.00">include/v8&#45;version.h</text>
</a>
</g>
</g>
<!-- Node2 -->
<g id="node2" class="node">
<title>Node2</title>
<g id="a_node2"><a xlink:href="v8_8h.html" target="_top" xlink:title=" ">
<polygon fill="white" stroke="black" points="344,-129 344,-148 412,-148 412,-129 344,-129"/>
<text text-anchor="middle" x="378" y="-136" font-family="Helvetica,sans-Serif" font-size="10.00">include/v8.h</text>
</a>
</g>
</g>
<!-- Node1&#45;&gt;Node2 -->
<g id="edge1" class="edge">
<title>Node1&#45;&gt;Node2</title>
<path fill="none" stroke="midnightblue" d="M414.28,-182.67C404.85,-171.45 392.72,-157.02 385.15,-148.01"/>
<polygon fill="midnightblue" stroke="midnightblue" points="411.72,-185.07 420.84,-190.48 417.08,-180.57 411.72,-185.07"/>
</g>
<!-- Node10 -->
<g id="node10" class="node">
<title>Node10</title>
<g id="a_node10"><a xlink:href="v8-version-string_8h.html" target="_top" xlink:title=" ">
<polygon fill="white" stroke="black" points="430.5,-123.5 430.5,-153.5 525.5,-153.5 525.5,-123.5 430.5,-123.5"/>
<text text-anchor="start" x="438.5" y="-141.5" font-family="Helvetica,sans-Serif" font-size="10.00">include/v8&#45;version</text>
<text text-anchor="middle" x="478" y="-130.5" font-family="Helvetica,sans-Serif" font-size="10.00">&#45;string.h</text>
</a>
</g>
</g>
<!-- Node1&#45;&gt;Node10 -->
<g id="edge9" class="edge">
<title>Node1&#45;&gt;Node10</title>
<path fill="none" stroke="midnightblue" d="M441.6,-182.81C449.3,-173.65 458.84,-162.3 466.22,-153.52"/>
<polygon fill="midnightblue" stroke="midnightblue" points="438.92,-180.57 435.16,-190.48 444.28,-185.07 438.92,-180.57"/>
</g>
<!-- Node3 -->
<g id="node3" class="node">
<title>Node3</title>
<g id="a_node3"><a xlink:href="v8-debug_8h.html" target="_top" xlink:title=" ">
<polygon fill="white" stroke="black" points="0,-67.5 0,-86.5 98,-86.5 98,-67.5 0,-67.5"/>
<text text-anchor="middle" x="49" y="-74.5" font-family="Helvetica,sans-Serif" font-size="10.00">include/v8&#45;debug.h</text>
</a>
</g>
</g>
<!-- Node2&#45;&gt;Node3 -->
<g id="edge2" class="edge">
<title>Node2&#45;&gt;Node3</title>
<path fill="none" stroke="midnightblue" d="M333.86,-129.52C271.9,-118.31 159.64,-98.01 96.12,-86.52"/>
<polygon fill="midnightblue" stroke="midnightblue" points="333.26,-132.97 343.72,-131.3 334.5,-126.08 333.26,-132.97"/>
</g>
<!-- Node4 -->
<g id="node4" class="node">
<title>Node4</title>
<g id="a_node4"><a xlink:href="v8-experimental_8h.html" target="_top" xlink:title=" ">
<polygon fill="white" stroke="black" points="116,-67.5 116,-86.5 242,-86.5 242,-67.5 116,-67.5"/>
<text text-anchor="middle" x="179" y="-74.5" font-family="Helvetica,sans-Serif" font-size="10.00">include/v8&#45;experimental.h</text>
</a>
</g>
</g>
<!-- Node2&#45;&gt;Node4 -->
<g id="edge3" class="edge">
<title>Node2&#45;&gt;Node4</title>
<path fill="none" stroke="midnightblue" d="M339.63,-126.03C300.96,-114.46 242.16,-96.88 207.46,-86.51"/>
<polygon fill="midnightblue" stroke="midnightblue" points="338.9,-129.46 349.49,-128.98 340.91,-122.76 338.9,-129.46"/>
</g>
<!-- Node5 -->
<g id="node5" class="node">
<title>Node5</title>
<g id="a_node5"><a xlink:href="v8-inspector_8h.html" target="_top" xlink:title=" ">
<polygon fill="white" stroke="black" points="260.5,-67.5 260.5,-86.5 371.5,-86.5 371.5,-67.5 260.5,-67.5"/>
<text text-anchor="middle" x="316" y="-74.5" font-family="Helvetica,sans-Serif" font-size="10.00">include/v8&#45;inspector.h</text>
</a>
</g>
</g>
<!-- Node2&#45;&gt;Node5 -->
<g id="edge4" class="edge">
<title>Node2&#45;&gt;Node5</title>
<path fill="none" stroke="midnightblue" d="M361.67,-121.82C349.89,-110.52 334.44,-95.69 324.87,-86.51"/>
<polygon fill="midnightblue" stroke="midnightblue" points="359.48,-124.58 369.12,-128.98 364.33,-119.53 359.48,-124.58"/>
</g>
<!-- Node7 -->
<g id="node7" class="node">
<title>Node7</title>
<g id="a_node7"><a xlink:href="v8-profiler_8h.html" target="_top" xlink:title=" ">
<polygon fill="white" stroke="black" points="390,-67.5 390,-86.5 490,-86.5 490,-67.5 390,-67.5"/>
<text text-anchor="middle" x="440" y="-74.5" font-family="Helvetica,sans-Serif" font-size="10.00">include/v8&#45;profiler.h</text>
</a>
</g>
</g>
<!-- Node2&#45;&gt;Node7 -->
<g id="edge6" class="edge">
<title>Node2&#45;&gt;Node7</title>
<path fill="none" stroke="midnightblue" d="M394.33,-121.82C406.11,-110.52 421.56,-95.69 431.13,-86.51"/>
<polygon fill="midnightblue" stroke="midnightblue" points="391.67,-119.53 386.88,-128.98 396.52,-124.58 391.67,-119.53"/>
</g>
<!-- Node8 -->
<g id="node8" class="node">
<title>Node8</title>
<g id="a_node8"><a xlink:href="v8-testing_8h.html" target="_top" xlink:title=" ">
<polygon fill="white" stroke="black" points="508.5,-67.5 508.5,-86.5 609.5,-86.5 609.5,-67.5 508.5,-67.5"/>
<text text-anchor="middle" x="559" y="-74.5" font-family="Helvetica,sans-Serif" font-size="10.00">include/v8&#45;testing.h</text>
</a>
</g>
</g>
<!-- Node2&#45;&gt;Node8 -->
<g id="edge7" class="edge">
<title>Node2&#45;&gt;Node8</title>
<path fill="none" stroke="midnightblue" d="M413.63,-125.76C416.46,-124.82 419.28,-123.9 422,-123 460.64,-110.29 505.43,-95.58 532.99,-86.54"/>
<polygon fill="midnightblue" stroke="midnightblue" points="412.46,-122.46 404.06,-128.91 414.65,-129.1 412.46,-122.46"/>
</g>
<!-- Node9 -->
<g id="node9" class="node">
<title>Node9</title>
<g id="a_node9"><a xlink:href="v8-util_8h.html" target="_top" xlink:title=" ">
<polygon fill="white" stroke="black" points="628,-67.5 628,-86.5 712,-86.5 712,-67.5 628,-67.5"/>
<text text-anchor="middle" x="670" y="-74.5" font-family="Helvetica,sans-Serif" font-size="10.00">include/v8&#45;util.h</text>
</a>
</g>
</g>
<!-- Node2&#45;&gt;Node9 -->
<g id="edge8" class="edge">
<title>Node2&#45;&gt;Node9</title>
<path fill="none" stroke="midnightblue" d="M411.66,-125.88C415.13,-124.84 418.62,-123.86 422,-123 431.91,-120.48 559.67,-97.63 627.82,-85.5"/>
<polygon fill="midnightblue" stroke="midnightblue" points="410.52,-122.57 402.03,-128.91 412.62,-129.25 410.52,-122.57"/>
</g>
<!-- Node6 -->
<g id="node6" class="node">
<title>Node6</title>
<g id="a_node6"><a xlink:href="v8-inspector-protocol_8h.html" target="_top" xlink:title=" ">
<polygon fill="white" stroke="black" points="264,-0.5 264,-30.5 368,-30.5 368,-0.5 264,-0.5"/>
<text text-anchor="start" x="272" y="-18.5" font-family="Helvetica,sans-Serif" font-size="10.00">include/v8&#45;inspector</text>
<text text-anchor="middle" x="316" y="-7.5" font-family="Helvetica,sans-Serif" font-size="10.00">&#45;protocol.h</text>
</a>
</g>
</g>
<!-- Node5&#45;&gt;Node6 -->
<g id="edge5" class="edge">
<title>Node5&#45;&gt;Node6</title>
<path fill="none" stroke="midnightblue" d="M316,-57.23C316,-48.59 316,-38.5 316,-30.52"/>
<polygon fill="midnightblue" stroke="midnightblue" points="312.5,-57.48 316,-67.48 319.5,-57.48 312.5,-57.48"/>
</g>
</g>
</svg>
