<?xml version="1.0" encoding="UTF-8" standalone="no"?>
<!DOCTYPE svg PUBLIC "-//W3C//DTD SVG 1.1//EN"
 "http://www.w3.org/Graphics/SVG/1.1/DTD/svg11.dtd">
<!-- Generated by graphviz version 2.44.0 ()
 -->
<!-- Title: include/v8.h Pages: 1 -->
<svg width="575pt" height="151pt"
 viewBox="0.00 0.00 575.00 151.00" xmlns="http://www.w3.org/2000/svg" xmlns:xlink="http://www.w3.org/1999/xlink">
<g id="graph0" class="graph" transform="scale(1 1) rotate(0) translate(4 147)">
<title>include/v8.h</title>
<polygon fill="white" stroke="transparent" points="-4,4 -4,-147 571,-147 571,4 -4,4"/>
<!-- Node1 -->
<g id="node1" class="node">
<title>Node1</title>
<g id="a_node1"><a xlink:title=" ">
<polygon fill="#bfbfbf" stroke="black" points="261,-123.5 261,-142.5 329,-142.5 329,-123.5 261,-123.5"/>
<text text-anchor="middle" x="295" y="-130.5" font-family="Helvetica,sans-Serif" font-size="10.00">include/v8.h</text>
</a>
</g>
</g>
<!-- Node2 -->
<g id="node2" class="node">
<title>Node2</title>
<g id="a_node2"><a xlink:href="v8-debug_8h.html" target="_top" xlink:title=" ">
<polygon fill="white" stroke="black" points="0,-67.5 0,-86.5 98,-86.5 98,-67.5 0,-67.5"/>
<text text-anchor="middle" x="49" y="-74.5" font-family="Helvetica,sans-Serif" font-size="10.00">include/v8&#45;debug.h</text>
</a>
</g>
</g>
<!-- Node1&#45;&gt;Node2 -->
<g id="edge1" class="edge">
<title>Node1&#45;&gt;Node2</title>
<path fill="none" stroke="midnightblue" d="M251.02,-122.35C204.59,-112.15 132.13,-96.25 87.78,-86.51"/>
<polygon fill="midnightblue" stroke="midnightblue" points="250.28,-125.77 260.79,-124.49 251.78,-118.93 250.28,-125.77"/>
</g>
<!-- Node3 -->
<g id="node3" class="node">
<title>Node3</title>
<g id="a_node3"><a xlink:href="v8-inspector_8h.html" target="_top" xlink:title=" ">
<polygon fill="white" stroke="black" points="115.5,-67.5 115.5,-86.5 226.5,-86.5 226.5,-67.5 115.5,-67.5"/>
<text text-anchor="middle" x="171" y="-74.5" font-family="Helvetica,sans-Serif" font-size="10.00">include/v8&#45;inspector.h</text>
</a>
</g>
</g>
<!-- Node1&#45;&gt;Node3 -->
<g id="edge2" class="edge">
<title>Node1&#45;&gt;Node3</title>
<path fill="none" stroke="midnightblue" d="M265.99,-119.37C242.77,-109.26 210.84,-95.35 190.56,-86.52"/>
<polygon fill="midnightblue" stroke="midnightblue" points="264.79,-122.66 275.35,-123.44 267.58,-116.24 264.79,-122.66"/>
</g>
<!-- Node5 -->
<g id="node5" class="node">
<title>Node5</title>
<g id="a_node5"><a xlink:href="v8-profiler_8h.html" target="_top" xlink:title=" ">
<polygon fill="white" stroke="black" points="245,-67.5 245,-86.5 345,-86.5 345,-67.5 245,-67.5"/>
<text text-anchor="middle" x="295" y="-74.5" font-family="Helvetica,sans-Serif" font-size="10.00">include/v8&#45;profiler.h</text>
</a>
</g>
</g>
<!-- Node1&#45;&gt;Node5 -->
<g id="edge4" class="edge">
<title>Node1&#45;&gt;Node5</title>
<path fill="none" stroke="midnightblue" d="M295,-112.8C295,-103.91 295,-93.78 295,-86.75"/>
<polygon fill="midnightblue" stroke="midnightblue" points="291.5,-113.08 295,-123.08 298.5,-113.08 291.5,-113.08"/>
</g>
<!-- Node6 -->
<g id="node6" class="node">
<title>Node6</title>
<g id="a_node6"><a xlink:href="v8-testing_8h.html" target="_top" xlink:title=" ">
<polygon fill="white" stroke="black" points="363.5,-67.5 363.5,-86.5 464.5,-86.5 464.5,-67.5 363.5,-67.5"/>
<text text-anchor="middle" x="414" y="-74.5" font-family="Helvetica,sans-Serif" font-size="10.00">include/v8&#45;testing.h</text>
</a>
</g>
</g>
<!-- Node1&#45;&gt;Node6 -->
<g id="edge5" class="edge">
<title>Node1&#45;&gt;Node6</title>
<path fill="none" stroke="midnightblue" d="M323.14,-119.23C345.4,-109.13 375.86,-95.31 395.23,-86.52"/>
<polygon fill="midnightblue" stroke="midnightblue" points="321.52,-116.12 313.86,-123.44 324.41,-122.5 321.52,-116.12"/>
</g>
<!-- Node7 -->
<g id="node7" class="node">
<title>Node7</title>
<g id="a_node7"><a xlink:href="v8-util_8h.html" target="_top" xlink:title=" ">
<polygon fill="white" stroke="black" points="483,-67.5 483,-86.5 567,-86.5 567,-67.5 483,-67.5"/>
<text text-anchor="middle" x="525" y="-74.5" font-family="Helvetica,sans-Serif" font-size="10.00">include/v8&#45;util.h</text>
</a>
</g>
</g>
<!-- Node1&#45;&gt;Node7 -->
<g id="edge6" class="edge">
<title>Node1&#45;&gt;Node7</title>
<path fill="none" stroke="midnightblue" d="M339.42,-121.57C382.78,-111.39 447.97,-96.09 488.43,-86.59"/>
<polygon fill="midnightblue" stroke="midnightblue" points="338.37,-118.22 329.43,-123.92 339.97,-125.04 338.37,-118.22"/>
</g>
<!-- Node4 -->
<g id="node4" class="node">
<title>Node4</title>
<g id="a_node4"><a xlink:href="v8-inspector-protocol_8h.html" target="_top" xlink:title=" ">
<polygon fill="white" stroke="black" points="119,-0.5 119,-30.5 223,-30.5 223,-0.5 119,-0.5"/>
<text text-anchor="start" x="127" y="-18.5" font-family="Helvetica,sans-Serif" font-size="10.00">include/v8&#45;inspector</text>
<text text-anchor="middle" x="171" y="-7.5" font-family="Helvetica,sans-Serif" font-size="10.00">&#45;protocol.h</text>
</a>
</g>
</g>
<!-- Node3&#45;&gt;Node4 -->
<g id="edge3" class="edge">
<title>Node3&#45;&gt;Node4</title>
<path fill="none" stroke="midnightblue" d="M171,-57.23C171,-48.59 171,-38.5 171,-30.52"/>
<polygon fill="midnightblue" stroke="midnightblue" points="167.5,-57.48 171,-67.48 174.5,-57.48 167.5,-57.48"/>
</g>
</g>
</svg>
