<?xml version="1.0" encoding="UTF-8" standalone="no"?>
<!DOCTYPE svg PUBLIC "-//W3C//DTD SVG 1.1//EN"
 "http://www.w3.org/Graphics/SVG/1.1/DTD/svg11.dtd">
<!-- Generated by graphviz version 2.44.0 ()
 -->
<!-- Title: v8::TypedArray Pages: 1 -->
<svg width="653pt" height="408pt"
 viewBox="0.00 0.00 653.00 408.00" xmlns="http://www.w3.org/2000/svg" xmlns:xlink="http://www.w3.org/1999/xlink">
<g id="graph0" class="graph" transform="scale(1 1) rotate(0) translate(4 404)">
<title>v8::TypedArray</title>
<polygon fill="white" stroke="transparent" points="-4,4 -4,-404 649,-404 649,4 -4,4"/>
<!-- Node1 -->
<g id="node1" class="node">
<title>Node1</title>
<g id="a_node1"><a xlink:title=" ">
<polygon fill="#bfbfbf" stroke="black" points="413,-190.5 413,-209.5 493,-209.5 493,-190.5 413,-190.5"/>
<text text-anchor="middle" x="453" y="-197.5" font-family="Helvetica,sans-Serif" font-size="10.00">v8::TypedArray</text>
</a>
</g>
</g>
<!-- Node6 -->
<g id="node6" class="node">
<title>Node6</title>
<g id="a_node6"><a xlink:href="classv8_1_1BigInt64Array.html" target="_top" xlink:title=" ">
<polygon fill="white" stroke="black" points="542,-380.5 542,-399.5 632,-399.5 632,-380.5 542,-380.5"/>
<text text-anchor="middle" x="587" y="-387.5" font-family="Helvetica,sans-Serif" font-size="10.00">v8::BigInt64Array</text>
</a>
</g>
</g>
<!-- Node1&#45;&gt;Node6 -->
<g id="edge5" class="edge">
<title>Node1&#45;&gt;Node6</title>
<path fill="none" stroke="midnightblue" d="M457.27,-219.74C464.15,-255.09 483.4,-329.4 529,-371 533.24,-374.87 538.29,-377.95 543.6,-380.41"/>
<polygon fill="midnightblue" stroke="midnightblue" points="460.68,-218.94 455.45,-209.72 453.79,-220.18 460.68,-218.94"/>
</g>
<!-- Node7 -->
<g id="node7" class="node">
<title>Node7</title>
<g id="a_node7"><a xlink:href="classv8_1_1BigUint64Array.html" target="_top" xlink:title=" ">
<polygon fill="white" stroke="black" points="538.5,-342.5 538.5,-361.5 635.5,-361.5 635.5,-342.5 538.5,-342.5"/>
<text text-anchor="middle" x="587" y="-349.5" font-family="Helvetica,sans-Serif" font-size="10.00">v8::BigUint64Array</text>
</a>
</g>
</g>
<!-- Node1&#45;&gt;Node7 -->
<g id="edge6" class="edge">
<title>Node1&#45;&gt;Node7</title>
<path fill="none" stroke="midnightblue" d="M459.88,-219.33C469.63,-248.17 491.82,-302.34 529,-333 533.67,-336.85 539.15,-339.93 544.83,-342.39"/>
<polygon fill="midnightblue" stroke="midnightblue" points="463.15,-218.06 456.75,-209.62 456.49,-220.21 463.15,-218.06"/>
</g>
<!-- Node8 -->
<g id="node8" class="node">
<title>Node8</title>
<g id="a_node8"><a xlink:href="classv8_1_1Float32Array.html" target="_top" xlink:title=" ">
<polygon fill="white" stroke="black" points="544,-304.5 544,-323.5 630,-323.5 630,-304.5 544,-304.5"/>
<text text-anchor="middle" x="587" y="-311.5" font-family="Helvetica,sans-Serif" font-size="10.00">v8::Float32Array</text>
</a>
</g>
</g>
<!-- Node1&#45;&gt;Node8 -->
<g id="edge7" class="edge">
<title>Node1&#45;&gt;Node8</title>
<path fill="none" stroke="midnightblue" d="M464.01,-218.35C476.53,-239.69 499.92,-274.58 529,-295 534.46,-298.84 540.76,-301.94 547.13,-304.44"/>
<polygon fill="midnightblue" stroke="midnightblue" points="467.02,-216.57 459.03,-209.6 460.93,-220.02 467.02,-216.57"/>
</g>
<!-- Node9 -->
<g id="node9" class="node">
<title>Node9</title>
<g id="a_node9"><a xlink:href="classv8_1_1Float64Array.html" target="_top" xlink:title=" ">
<polygon fill="white" stroke="black" points="544,-266.5 544,-285.5 630,-285.5 630,-266.5 544,-266.5"/>
<text text-anchor="middle" x="587" y="-273.5" font-family="Helvetica,sans-Serif" font-size="10.00">v8::Float64Array</text>
</a>
</g>
</g>
<!-- Node1&#45;&gt;Node9 -->
<g id="edge8" class="edge">
<title>Node1&#45;&gt;Node9</title>
<path fill="none" stroke="midnightblue" d="M472.11,-216.49C486.62,-229.01 507.96,-245.89 529,-257 535.92,-260.65 543.68,-263.8 551.19,-266.42"/>
<polygon fill="midnightblue" stroke="midnightblue" points="474.23,-213.69 464.41,-209.71 469.6,-218.95 474.23,-213.69"/>
</g>
<!-- Node10 -->
<g id="node10" class="node">
<title>Node10</title>
<g id="a_node10"><a xlink:href="classv8_1_1Int16Array.html" target="_top" xlink:title=" ">
<polygon fill="white" stroke="black" points="549,-228.5 549,-247.5 625,-247.5 625,-228.5 549,-228.5"/>
<text text-anchor="middle" x="587" y="-235.5" font-family="Helvetica,sans-Serif" font-size="10.00">v8::Int16Array</text>
</a>
</g>
</g>
<!-- Node1&#45;&gt;Node10 -->
<g id="edge9" class="edge">
<title>Node1&#45;&gt;Node10</title>
<path fill="none" stroke="midnightblue" d="M497.04,-212.39C515.12,-217.59 535.82,-223.55 552.7,-228.41"/>
<polygon fill="midnightblue" stroke="midnightblue" points="497.89,-208.99 487.31,-209.59 495.95,-215.72 497.89,-208.99"/>
</g>
<!-- Node11 -->
<g id="node11" class="node">
<title>Node11</title>
<g id="a_node11"><a xlink:href="classv8_1_1Int32Array.html" target="_top" xlink:title=" ">
<polygon fill="white" stroke="black" points="549,-190.5 549,-209.5 625,-209.5 625,-190.5 549,-190.5"/>
<text text-anchor="middle" x="587" y="-197.5" font-family="Helvetica,sans-Serif" font-size="10.00">v8::Int32Array</text>
</a>
</g>
</g>
<!-- Node1&#45;&gt;Node11 -->
<g id="edge10" class="edge">
<title>Node1&#45;&gt;Node11</title>
<path fill="none" stroke="midnightblue" d="M503.45,-200C518.52,-200 534.83,-200 548.94,-200"/>
<polygon fill="midnightblue" stroke="midnightblue" points="503.25,-196.5 493.25,-200 503.25,-203.5 503.25,-196.5"/>
</g>
<!-- Node12 -->
<g id="node12" class="node">
<title>Node12</title>
<g id="a_node12"><a xlink:href="classv8_1_1Int8Array.html" target="_top" xlink:title=" ">
<polygon fill="white" stroke="black" points="551.5,-152.5 551.5,-171.5 622.5,-171.5 622.5,-152.5 551.5,-152.5"/>
<text text-anchor="middle" x="587" y="-159.5" font-family="Helvetica,sans-Serif" font-size="10.00">v8::Int8Array</text>
</a>
</g>
</g>
<!-- Node1&#45;&gt;Node12 -->
<g id="edge11" class="edge">
<title>Node1&#45;&gt;Node12</title>
<path fill="none" stroke="midnightblue" d="M497.04,-187.61C515.12,-182.41 535.82,-176.45 552.7,-171.59"/>
<polygon fill="midnightblue" stroke="midnightblue" points="495.95,-184.28 487.31,-190.41 497.89,-191.01 495.95,-184.28"/>
</g>
<!-- Node13 -->
<g id="node13" class="node">
<title>Node13</title>
<g id="a_node13"><a xlink:href="classv8_1_1Uint16Array.html" target="_top" xlink:title=" ">
<polygon fill="white" stroke="black" points="545.5,-114.5 545.5,-133.5 628.5,-133.5 628.5,-114.5 545.5,-114.5"/>
<text text-anchor="middle" x="587" y="-121.5" font-family="Helvetica,sans-Serif" font-size="10.00">v8::Uint16Array</text>
</a>
</g>
</g>
<!-- Node1&#45;&gt;Node13 -->
<g id="edge12" class="edge">
<title>Node1&#45;&gt;Node13</title>
<path fill="none" stroke="midnightblue" d="M472.11,-183.51C486.62,-170.99 507.96,-154.11 529,-143 535.92,-139.35 543.68,-136.2 551.19,-133.58"/>
<polygon fill="midnightblue" stroke="midnightblue" points="469.6,-181.05 464.41,-190.29 474.23,-186.31 469.6,-181.05"/>
</g>
<!-- Node14 -->
<g id="node14" class="node">
<title>Node14</title>
<g id="a_node14"><a xlink:href="classv8_1_1Uint32Array.html" target="_top" xlink:title=" ">
<polygon fill="white" stroke="black" points="545.5,-76.5 545.5,-95.5 628.5,-95.5 628.5,-76.5 545.5,-76.5"/>
<text text-anchor="middle" x="587" y="-83.5" font-family="Helvetica,sans-Serif" font-size="10.00">v8::Uint32Array</text>
</a>
</g>
</g>
<!-- Node1&#45;&gt;Node14 -->
<g id="edge13" class="edge">
<title>Node1&#45;&gt;Node14</title>
<path fill="none" stroke="midnightblue" d="M464.01,-181.65C476.53,-160.31 499.92,-125.42 529,-105 534.46,-101.16 540.76,-98.06 547.13,-95.56"/>
<polygon fill="midnightblue" stroke="midnightblue" points="460.93,-179.98 459.03,-190.4 467.02,-183.43 460.93,-179.98"/>
</g>
<!-- Node15 -->
<g id="node15" class="node">
<title>Node15</title>
<g id="a_node15"><a xlink:href="classv8_1_1Uint8Array.html" target="_top" xlink:title=" ">
<polygon fill="white" stroke="black" points="548.5,-38.5 548.5,-57.5 625.5,-57.5 625.5,-38.5 548.5,-38.5"/>
<text text-anchor="middle" x="587" y="-45.5" font-family="Helvetica,sans-Serif" font-size="10.00">v8::Uint8Array</text>
</a>
</g>
</g>
<!-- Node1&#45;&gt;Node15 -->
<g id="edge14" class="edge">
<title>Node1&#45;&gt;Node15</title>
<path fill="none" stroke="midnightblue" d="M459.88,-180.67C469.63,-151.83 491.82,-97.66 529,-67 534.63,-62.35 541.45,-58.83 548.38,-56.16"/>
<polygon fill="midnightblue" stroke="midnightblue" points="456.49,-179.79 456.75,-190.38 463.15,-181.94 456.49,-179.79"/>
</g>
<!-- Node16 -->
<g id="node16" class="node">
<title>Node16</title>
<g id="a_node16"><a xlink:href="classv8_1_1Uint8ClampedArray.html" target="_top" xlink:title=" ">
<polygon fill="white" stroke="black" points="529,-0.5 529,-19.5 645,-19.5 645,-0.5 529,-0.5"/>
<text text-anchor="middle" x="587" y="-7.5" font-family="Helvetica,sans-Serif" font-size="10.00">v8::Uint8ClampedArray</text>
</a>
</g>
</g>
<!-- Node1&#45;&gt;Node16 -->
<g id="edge15" class="edge">
<title>Node1&#45;&gt;Node16</title>
<path fill="none" stroke="midnightblue" d="M457.27,-180.26C464.15,-144.91 483.4,-70.6 529,-29 533.24,-25.13 538.29,-22.05 543.6,-19.59"/>
<polygon fill="midnightblue" stroke="midnightblue" points="453.79,-179.82 455.45,-190.28 460.68,-181.06 453.79,-179.82"/>
</g>
<!-- Node2 -->
<g id="node2" class="node">
<title>Node2</title>
<g id="a_node2"><a xlink:href="classv8_1_1ArrayBufferView.html" target="_top" xlink:title=" ">
<polygon fill="white" stroke="black" points="276,-190.5 276,-209.5 377,-209.5 377,-190.5 276,-190.5"/>
<text text-anchor="middle" x="326.5" y="-197.5" font-family="Helvetica,sans-Serif" font-size="10.00">v8::ArrayBufferView</text>
</a>
</g>
</g>
<!-- Node2&#45;&gt;Node1 -->
<g id="edge1" class="edge">
<title>Node2&#45;&gt;Node1</title>
<path fill="none" stroke="midnightblue" d="M387.25,-200C395.98,-200 404.78,-200 412.96,-200"/>
<polygon fill="midnightblue" stroke="midnightblue" points="387.06,-196.5 377.06,-200 387.06,-203.5 387.06,-196.5"/>
</g>
<!-- Node3 -->
<g id="node3" class="node">
<title>Node3</title>
<g id="a_node3"><a xlink:href="classv8_1_1Object.html" target="_top" xlink:title=" ">
<polygon fill="white" stroke="black" points="180,-190.5 180,-209.5 240,-209.5 240,-190.5 180,-190.5"/>
<text text-anchor="middle" x="210" y="-197.5" font-family="Helvetica,sans-Serif" font-size="10.00">v8::Object</text>
</a>
</g>
</g>
<!-- Node3&#45;&gt;Node2 -->
<g id="edge2" class="edge">
<title>Node3&#45;&gt;Node2</title>
<path fill="none" stroke="midnightblue" d="M250.28,-200C258.53,-200 267.33,-200 275.9,-200"/>
<polygon fill="midnightblue" stroke="midnightblue" points="250.19,-196.5 240.19,-200 250.19,-203.5 250.19,-196.5"/>
</g>
<!-- Node4 -->
<g id="node4" class="node">
<title>Node4</title>
<g id="a_node4"><a xlink:href="classv8_1_1Value.html" target="_top" xlink:title=" ">
<polygon fill="white" stroke="black" points="88,-190.5 88,-209.5 144,-209.5 144,-190.5 88,-190.5"/>
<text text-anchor="middle" x="116" y="-197.5" font-family="Helvetica,sans-Serif" font-size="10.00">v8::Value</text>
</a>
</g>
</g>
<!-- Node4&#45;&gt;Node3 -->
<g id="edge3" class="edge">
<title>Node4&#45;&gt;Node3</title>
<path fill="none" stroke="midnightblue" d="M154.22,-200C162.76,-200 171.71,-200 179.84,-200"/>
<polygon fill="midnightblue" stroke="midnightblue" points="154.11,-196.5 144.11,-200 154.11,-203.5 154.11,-196.5"/>
</g>
<!-- Node5 -->
<g id="node5" class="node">
<title>Node5</title>
<g id="a_node5"><a xlink:href="classv8_1_1Data.html" target="_top" xlink:title=" ">
<polygon fill="white" stroke="black" points="0,-190.5 0,-209.5 52,-209.5 52,-190.5 0,-190.5"/>
<text text-anchor="middle" x="26" y="-197.5" font-family="Helvetica,sans-Serif" font-size="10.00">v8::Data</text>
</a>
</g>
</g>
<!-- Node5&#45;&gt;Node4 -->
<g id="edge4" class="edge">
<title>Node5&#45;&gt;Node4</title>
<path fill="none" stroke="midnightblue" d="M62.72,-200C71.08,-200 79.84,-200 87.76,-200"/>
<polygon fill="midnightblue" stroke="midnightblue" points="62.45,-196.5 52.45,-200 62.45,-203.5 62.45,-196.5"/>
</g>
</g>
</svg>
