<?xml version="1.0" encoding="UTF-8" standalone="no"?>
<!DOCTYPE svg PUBLIC "-//W3C//DTD SVG 1.1//EN"
 "http://www.w3.org/Graphics/SVG/1.1/DTD/svg11.dtd">
<!-- Generated by graphviz version 2.44.0 ()
 -->
<!-- Title: v8::Value Pages: 1 -->
<svg width="693pt" height="940pt"
 viewBox="0.00 0.00 693.00 940.00" xmlns="http://www.w3.org/2000/svg" xmlns:xlink="http://www.w3.org/1999/xlink">
<g id="graph0" class="graph" transform="scale(1 1) rotate(0) translate(4 936)">
<title>v8::Value</title>
<polygon fill="white" stroke="transparent" points="-4,4 -4,-936 689,-936 689,4 -4,4"/>
<!-- Node1 -->
<g id="node1" class="node">
<title>Node1</title>
<g id="a_node1"><a xlink:title=" ">
<polygon fill="#bfbfbf" stroke="black" points="88,-475.5 88,-494.5 144,-494.5 144,-475.5 88,-475.5"/>
<text text-anchor="middle" x="116" y="-482.5" font-family="Helvetica,sans-Serif" font-size="10.00">v8::Value</text>
</a>
</g>
</g>
<!-- Node3 -->
<g id="node3" class="node">
<title>Node3</title>
<g id="a_node3"><a xlink:href="classv8_1_1External.html" target="_top" xlink:title=" ">
<polygon fill="white" stroke="black" points="182,-513.5 182,-532.5 248,-532.5 248,-513.5 182,-513.5"/>
<text text-anchor="middle" x="215" y="-520.5" font-family="Helvetica,sans-Serif" font-size="10.00">v8::External</text>
</a>
</g>
</g>
<!-- Node1&#45;&gt;Node3 -->
<g id="edge2" class="edge">
<title>Node1&#45;&gt;Node3</title>
<path fill="none" stroke="midnightblue" d="M150.86,-498.26C163.59,-503.25 177.81,-508.82 189.53,-513.41"/>
<polygon fill="midnightblue" stroke="midnightblue" points="152.06,-494.98 141.48,-494.59 149.51,-501.5 152.06,-494.98"/>
</g>
<!-- Node4 -->
<g id="node4" class="node">
<title>Node4</title>
<g id="a_node4"><a xlink:href="classv8_1_1Object.html" target="_top" xlink:title=" ">
<polygon fill="white" stroke="black" points="185,-475.5 185,-494.5 245,-494.5 245,-475.5 185,-475.5"/>
<text text-anchor="middle" x="215" y="-482.5" font-family="Helvetica,sans-Serif" font-size="10.00">v8::Object</text>
</a>
</g>
</g>
<!-- Node1&#45;&gt;Node4 -->
<g id="edge3" class="edge">
<title>Node1&#45;&gt;Node4</title>
<path fill="none" stroke="midnightblue" d="M154.23,-485C164.34,-485 175.14,-485 184.75,-485"/>
<polygon fill="midnightblue" stroke="midnightblue" points="154.02,-481.5 144.02,-485 154.02,-488.5 154.02,-481.5"/>
</g>
<!-- Node36 -->
<g id="node36" class="node">
<title>Node36</title>
<g id="a_node36"><a xlink:href="classv8_1_1Primitive.html" target="_top" xlink:title=" ">
<polygon fill="white" stroke="black" points="180,-95.5 180,-114.5 250,-114.5 250,-95.5 180,-95.5"/>
<text text-anchor="middle" x="215" y="-102.5" font-family="Helvetica,sans-Serif" font-size="10.00">v8::Primitive</text>
</a>
</g>
</g>
<!-- Node1&#45;&gt;Node36 -->
<g id="edge35" class="edge">
<title>Node1&#45;&gt;Node36</title>
<path fill="none" stroke="midnightblue" d="M122.06,-465.19C139.78,-395.76 198.7,-164.96 211.52,-114.71"/>
<polygon fill="midnightblue" stroke="midnightblue" points="118.58,-464.67 119.5,-475.22 125.36,-466.4 118.58,-464.67"/>
</g>
<!-- Node2 -->
<g id="node2" class="node">
<title>Node2</title>
<g id="a_node2"><a xlink:href="classv8_1_1Data.html" target="_top" xlink:title=" ">
<polygon fill="white" stroke="black" points="0,-475.5 0,-494.5 52,-494.5 52,-475.5 0,-475.5"/>
<text text-anchor="middle" x="26" y="-482.5" font-family="Helvetica,sans-Serif" font-size="10.00">v8::Data</text>
</a>
</g>
</g>
<!-- Node2&#45;&gt;Node1 -->
<g id="edge1" class="edge">
<title>Node2&#45;&gt;Node1</title>
<path fill="none" stroke="midnightblue" d="M62.72,-485C71.08,-485 79.84,-485 87.76,-485"/>
<polygon fill="midnightblue" stroke="midnightblue" points="62.45,-481.5 52.45,-485 62.45,-488.5 62.45,-481.5"/>
</g>
<!-- Node5 -->
<g id="node5" class="node">
<title>Node5</title>
<g id="a_node5"><a xlink:href="classv8_1_1Array.html" target="_top" xlink:title=" ">
<polygon fill="white" stroke="black" points="324.5,-817.5 324.5,-836.5 378.5,-836.5 378.5,-817.5 324.5,-817.5"/>
<text text-anchor="middle" x="351.5" y="-824.5" font-family="Helvetica,sans-Serif" font-size="10.00">v8::Array</text>
</a>
</g>
</g>
<!-- Node4&#45;&gt;Node5 -->
<g id="edge4" class="edge">
<title>Node4&#45;&gt;Node5</title>
<path fill="none" stroke="midnightblue" d="M247.61,-500.94C248.48,-501.9 249.28,-502.93 250,-504 325.64,-617.09 198.24,-704.04 286,-808 295.34,-819.06 310.76,-823.86 324.19,-825.88"/>
<polygon fill="midnightblue" stroke="midnightblue" points="249.85,-498.25 239.94,-494.51 245.36,-503.61 249.85,-498.25"/>
</g>
<!-- Node6 -->
<g id="node6" class="node">
<title>Node6</title>
<g id="a_node6"><a xlink:href="classv8_1_1ArrayBuffer.html" target="_top" xlink:title=" ">
<polygon fill="white" stroke="black" points="311.5,-779.5 311.5,-798.5 391.5,-798.5 391.5,-779.5 311.5,-779.5"/>
<text text-anchor="middle" x="351.5" y="-786.5" font-family="Helvetica,sans-Serif" font-size="10.00">v8::ArrayBuffer</text>
</a>
</g>
</g>
<!-- Node4&#45;&gt;Node6 -->
<g id="edge5" class="edge">
<title>Node4&#45;&gt;Node6</title>
<path fill="none" stroke="midnightblue" d="M247.59,-500.95C248.46,-501.92 249.27,-502.93 250,-504 317.15,-602.61 208.29,-679.48 286,-770 292.46,-777.53 301.75,-782.15 311.26,-784.97"/>
<polygon fill="midnightblue" stroke="midnightblue" points="249.81,-498.25 239.89,-494.54 245.34,-503.63 249.81,-498.25"/>
</g>
<!-- Node7 -->
<g id="node7" class="node">
<title>Node7</title>
<g id="a_node7"><a xlink:href="classv8_1_1ArrayBufferView.html" target="_top" xlink:title=" ">
<polygon fill="white" stroke="black" points="301,-741.5 301,-760.5 402,-760.5 402,-741.5 301,-741.5"/>
<text text-anchor="middle" x="351.5" y="-748.5" font-family="Helvetica,sans-Serif" font-size="10.00">v8::ArrayBufferView</text>
</a>
</g>
</g>
<!-- Node4&#45;&gt;Node7 -->
<g id="edge6" class="edge">
<title>Node4&#45;&gt;Node7</title>
<path fill="none" stroke="midnightblue" d="M247.56,-500.97C248.44,-501.93 249.26,-502.94 250,-504 308.68,-588.15 218.32,-654.9 286,-732 290.08,-736.65 295.24,-740.19 300.85,-742.88"/>
<polygon fill="midnightblue" stroke="midnightblue" points="249.76,-498.25 239.82,-494.59 245.31,-503.65 249.76,-498.25"/>
</g>
<!-- Node21 -->
<g id="node21" class="node">
<title>Node21</title>
<g id="a_node21"><a xlink:href="classv8_1_1BigIntObject.html" target="_top" xlink:title=" ">
<polygon fill="white" stroke="black" points="308.5,-703.5 308.5,-722.5 394.5,-722.5 394.5,-703.5 308.5,-703.5"/>
<text text-anchor="middle" x="351.5" y="-710.5" font-family="Helvetica,sans-Serif" font-size="10.00">v8::BigIntObject</text>
</a>
</g>
</g>
<!-- Node4&#45;&gt;Node21 -->
<g id="edge20" class="edge">
<title>Node4&#45;&gt;Node21</title>
<path fill="none" stroke="midnightblue" d="M247.52,-501C248.41,-501.95 249.24,-502.95 250,-504 300.23,-573.74 228.31,-630.29 286,-694 291.88,-700.49 299.85,-704.81 308.18,-707.67"/>
<polygon fill="midnightblue" stroke="midnightblue" points="249.69,-498.26 239.73,-494.65 245.27,-503.69 249.69,-498.26"/>
</g>
<!-- Node22 -->
<g id="node22" class="node">
<title>Node22</title>
<g id="a_node22"><a xlink:href="classv8_1_1BooleanObject.html" target="_top" xlink:title=" ">
<polygon fill="white" stroke="black" points="304,-665.5 304,-684.5 399,-684.5 399,-665.5 304,-665.5"/>
<text text-anchor="middle" x="351.5" y="-672.5" font-family="Helvetica,sans-Serif" font-size="10.00">v8::BooleanObject</text>
</a>
</g>
</g>
<!-- Node4&#45;&gt;Node22 -->
<g id="edge21" class="edge">
<title>Node4&#45;&gt;Node22</title>
<path fill="none" stroke="midnightblue" d="M247.38,-500.96C248.32,-501.93 249.2,-502.94 250,-504 291.84,-559.4 238.25,-605.6 286,-656 290.9,-661.17 297.12,-664.95 303.77,-667.72"/>
<polygon fill="midnightblue" stroke="midnightblue" points="249.26,-497.99 239.25,-494.53 244.92,-503.48 249.26,-497.99"/>
</g>
<!-- Node23 -->
<g id="node23" class="node">
<title>Node23</title>
<g id="a_node23"><a xlink:href="classv8_1_1Date.html" target="_top" xlink:title=" ">
<polygon fill="white" stroke="black" points="325.5,-627.5 325.5,-646.5 377.5,-646.5 377.5,-627.5 325.5,-627.5"/>
<text text-anchor="middle" x="351.5" y="-634.5" font-family="Helvetica,sans-Serif" font-size="10.00">v8::Date</text>
</a>
</g>
</g>
<!-- Node4&#45;&gt;Node23 -->
<g id="edge22" class="edge">
<title>Node4&#45;&gt;Node23</title>
<path fill="none" stroke="midnightblue" d="M247.28,-501.04C248.25,-501.98 249.16,-502.97 250,-504 283.56,-545.2 248.07,-580.8 286,-618 296.42,-628.22 312.04,-632.99 325.3,-635.19"/>
<polygon fill="midnightblue" stroke="midnightblue" points="249.09,-498.02 239.03,-494.7 244.83,-503.57 249.09,-498.02"/>
</g>
<!-- Node24 -->
<g id="node24" class="node">
<title>Node24</title>
<g id="a_node24"><a xlink:href="classv8_1_1Function.html" target="_top" xlink:title=" ">
<polygon fill="white" stroke="black" points="317,-589.5 317,-608.5 386,-608.5 386,-589.5 317,-589.5"/>
<text text-anchor="middle" x="351.5" y="-596.5" font-family="Helvetica,sans-Serif" font-size="10.00">v8::Function</text>
</a>
</g>
</g>
<!-- Node4&#45;&gt;Node24 -->
<g id="edge23" class="edge">
<title>Node4&#45;&gt;Node24</title>
<path fill="none" stroke="midnightblue" d="M246.2,-500.42C247.55,-501.55 248.83,-502.74 250,-504 275.53,-531.3 257.59,-555.71 286,-580 294.61,-587.36 305.95,-591.87 316.72,-594.63"/>
<polygon fill="midnightblue" stroke="midnightblue" points="248.13,-497.5 237.94,-494.61 244.11,-503.22 248.13,-497.5"/>
</g>
<!-- Node25 -->
<g id="node25" class="node">
<title>Node25</title>
<g id="a_node25"><a xlink:href="classv8_1_1Map.html" target="_top" xlink:title=" ">
<polygon fill="white" stroke="black" points="326.5,-551.5 326.5,-570.5 376.5,-570.5 376.5,-551.5 326.5,-551.5"/>
<text text-anchor="middle" x="351.5" y="-558.5" font-family="Helvetica,sans-Serif" font-size="10.00">v8::Map</text>
</a>
</g>
</g>
<!-- Node4&#45;&gt;Node25 -->
<g id="edge24" class="edge">
<title>Node4&#45;&gt;Node25</title>
<path fill="none" stroke="midnightblue" d="M244.39,-499.98C246.33,-501.27 248.22,-502.62 250,-504 268.36,-518.28 266.16,-529.85 286,-542 298.25,-549.5 313.61,-554.18 326.28,-557.02"/>
<polygon fill="midnightblue" stroke="midnightblue" points="246.06,-496.9 235.7,-494.68 242.42,-502.88 246.06,-496.9"/>
</g>
<!-- Node26 -->
<g id="node26" class="node">
<title>Node26</title>
<g id="a_node26"><a xlink:href="classv8_1_1NumberObject.html" target="_top" xlink:title=" ">
<polygon fill="white" stroke="black" points="304,-513.5 304,-532.5 399,-532.5 399,-513.5 304,-513.5"/>
<text text-anchor="middle" x="351.5" y="-520.5" font-family="Helvetica,sans-Serif" font-size="10.00">v8::NumberObject</text>
</a>
</g>
</g>
<!-- Node4&#45;&gt;Node26 -->
<g id="edge25" class="edge">
<title>Node4&#45;&gt;Node26</title>
<path fill="none" stroke="midnightblue" d="M254.99,-496.01C274.49,-501.53 297.88,-508.13 316.63,-513.43"/>
<polygon fill="midnightblue" stroke="midnightblue" points="255.76,-492.6 245.18,-493.25 253.86,-499.33 255.76,-492.6"/>
</g>
<!-- Node27 -->
<g id="node27" class="node">
<title>Node27</title>
<g id="a_node27"><a xlink:href="classv8_1_1Promise.html" target="_top" xlink:title=" ">
<polygon fill="white" stroke="black" points="317.5,-475.5 317.5,-494.5 385.5,-494.5 385.5,-475.5 317.5,-475.5"/>
<text text-anchor="middle" x="351.5" y="-482.5" font-family="Helvetica,sans-Serif" font-size="10.00">v8::Promise</text>
</a>
</g>
</g>
<!-- Node4&#45;&gt;Node27 -->
<g id="edge26" class="edge">
<title>Node4&#45;&gt;Node27</title>
<path fill="none" stroke="midnightblue" d="M255.33,-485C274.94,-485 298.39,-485 317.11,-485"/>
<polygon fill="midnightblue" stroke="midnightblue" points="255.18,-481.5 245.18,-485 255.18,-488.5 255.18,-481.5"/>
</g>
<!-- Node28 -->
<g id="node28" class="node">
<title>Node28</title>
<g id="a_node28"><a xlink:href="classv8_1_1Promise_1_1Resolver.html" target="_top" xlink:title=" ">
<polygon fill="white" stroke="black" points="296.5,-437.5 296.5,-456.5 406.5,-456.5 406.5,-437.5 296.5,-437.5"/>
<text text-anchor="middle" x="351.5" y="-444.5" font-family="Helvetica,sans-Serif" font-size="10.00">v8::Promise::Resolver</text>
</a>
</g>
</g>
<!-- Node4&#45;&gt;Node28 -->
<g id="edge27" class="edge">
<title>Node4&#45;&gt;Node28</title>
<path fill="none" stroke="midnightblue" d="M254.99,-473.99C274.49,-468.47 297.88,-461.87 316.63,-456.57"/>
<polygon fill="midnightblue" stroke="midnightblue" points="253.86,-470.67 245.18,-476.75 255.76,-477.4 253.86,-470.67"/>
</g>
<!-- Node29 -->
<g id="node29" class="node">
<title>Node29</title>
<g id="a_node29"><a xlink:href="classv8_1_1Proxy.html" target="_top" xlink:title=" ">
<polygon fill="white" stroke="black" points="323.5,-399.5 323.5,-418.5 379.5,-418.5 379.5,-399.5 323.5,-399.5"/>
<text text-anchor="middle" x="351.5" y="-406.5" font-family="Helvetica,sans-Serif" font-size="10.00">v8::Proxy</text>
</a>
</g>
</g>
<!-- Node4&#45;&gt;Node29 -->
<g id="edge28" class="edge">
<title>Node4&#45;&gt;Node29</title>
<path fill="none" stroke="midnightblue" d="M232.98,-467.88C246.36,-455.26 266.02,-438.53 286,-428 297.57,-421.91 311.36,-417.51 323.21,-414.49"/>
<polygon fill="midnightblue" stroke="midnightblue" points="230.26,-465.64 225.52,-475.11 235.14,-470.67 230.26,-465.64"/>
</g>
<!-- Node30 -->
<g id="node30" class="node">
<title>Node30</title>
<g id="a_node30"><a xlink:href="classv8_1_1RegExp.html" target="_top" xlink:title=" ">
<polygon fill="white" stroke="black" points="319,-361.5 319,-380.5 384,-380.5 384,-361.5 319,-361.5"/>
<text text-anchor="middle" x="351.5" y="-368.5" font-family="Helvetica,sans-Serif" font-size="10.00">v8::RegExp</text>
</a>
</g>
</g>
<!-- Node4&#45;&gt;Node30 -->
<g id="edge29" class="edge">
<title>Node4&#45;&gt;Node30</title>
<path fill="none" stroke="midnightblue" d="M225.07,-466.17C236.39,-444.63 257.75,-409.79 286,-390 295.66,-383.23 307.73,-378.85 318.82,-376.02"/>
<polygon fill="midnightblue" stroke="midnightblue" points="221.84,-464.79 220.46,-475.29 228.09,-467.95 221.84,-464.79"/>
</g>
<!-- Node31 -->
<g id="node31" class="node">
<title>Node31</title>
<g id="a_node31"><a xlink:href="classv8_1_1Set.html" target="_top" xlink:title=" ">
<polygon fill="white" stroke="black" points="328,-323.5 328,-342.5 375,-342.5 375,-323.5 328,-323.5"/>
<text text-anchor="middle" x="351.5" y="-330.5" font-family="Helvetica,sans-Serif" font-size="10.00">v8::Set</text>
</a>
</g>
</g>
<!-- Node4&#45;&gt;Node31 -->
<g id="edge30" class="edge">
<title>Node4&#45;&gt;Node31</title>
<path fill="none" stroke="midnightblue" d="M220.99,-465.52C229.43,-436.49 249.31,-382.06 286,-352 297.83,-342.31 314.44,-337.56 327.84,-335.23"/>
<polygon fill="midnightblue" stroke="midnightblue" points="217.58,-464.73 218.3,-475.3 224.33,-466.59 217.58,-464.73"/>
</g>
<!-- Node32 -->
<g id="node32" class="node">
<title>Node32</title>
<g id="a_node32"><a xlink:href="classv8_1_1SharedArrayBuffer.html" target="_top" xlink:title=" ">
<polygon fill="white" stroke="black" points="296.5,-285.5 296.5,-304.5 406.5,-304.5 406.5,-285.5 296.5,-285.5"/>
<text text-anchor="middle" x="351.5" y="-292.5" font-family="Helvetica,sans-Serif" font-size="10.00">v8::SharedArrayBuffer</text>
</a>
</g>
</g>
<!-- Node4&#45;&gt;Node32 -->
<g id="edge31" class="edge">
<title>Node4&#45;&gt;Node32</title>
<path fill="none" stroke="midnightblue" d="M218.5,-465.13C224.05,-429.56 240.67,-354.93 286,-314 290.33,-310.09 295.43,-306.98 300.84,-304.51"/>
<polygon fill="midnightblue" stroke="midnightblue" points="215.01,-464.82 217.07,-475.21 221.94,-465.8 215.01,-464.82"/>
</g>
<!-- Node33 -->
<g id="node33" class="node">
<title>Node33</title>
<g id="a_node33"><a xlink:href="classv8_1_1StringObject.html" target="_top" xlink:title=" ">
<polygon fill="white" stroke="black" points="308.5,-247.5 308.5,-266.5 394.5,-266.5 394.5,-247.5 308.5,-247.5"/>
<text text-anchor="middle" x="351.5" y="-254.5" font-family="Helvetica,sans-Serif" font-size="10.00">v8::StringObject</text>
</a>
</g>
</g>
<!-- Node4&#45;&gt;Node33 -->
<g id="edge32" class="edge">
<title>Node4&#45;&gt;Node33</title>
<path fill="none" stroke="midnightblue" d="M216.77,-465.42C219.48,-424.3 231.61,-328.43 286,-276 292.22,-270 300.23,-265.89 308.48,-263.06"/>
<polygon fill="midnightblue" stroke="midnightblue" points="213.27,-465.32 216.23,-475.49 220.26,-465.69 213.27,-465.32"/>
</g>
<!-- Node34 -->
<g id="node34" class="node">
<title>Node34</title>
<g id="a_node34"><a xlink:href="classv8_1_1SymbolObject.html" target="_top" xlink:title=" ">
<polygon fill="white" stroke="black" points="305.5,-209.5 305.5,-228.5 397.5,-228.5 397.5,-209.5 305.5,-209.5"/>
<text text-anchor="middle" x="351.5" y="-216.5" font-family="Helvetica,sans-Serif" font-size="10.00">v8::SymbolObject</text>
</a>
</g>
</g>
<!-- Node4&#45;&gt;Node34 -->
<g id="edge33" class="edge">
<title>Node4&#45;&gt;Node34</title>
<path fill="none" stroke="midnightblue" d="M215.58,-465.13C215.71,-418.66 222.7,-301.96 286,-238 291.34,-232.61 298.12,-228.73 305.28,-225.94"/>
<polygon fill="midnightblue" stroke="midnightblue" points="212.08,-465.39 215.66,-475.36 219.08,-465.33 212.08,-465.39"/>
</g>
<!-- Node35 -->
<g id="node35" class="node">
<title>Node35</title>
<g id="a_node35"><a xlink:href="classv8_1_1WasmCompiledModule.html" target="_top" xlink:title=" ">
<polygon fill="white" stroke="black" points="286,-171.5 286,-190.5 417,-190.5 417,-171.5 286,-171.5"/>
<text text-anchor="middle" x="351.5" y="-178.5" font-family="Helvetica,sans-Serif" font-size="10.00">v8::WasmCompiledModule</text>
</a>
</g>
</g>
<!-- Node4&#45;&gt;Node35 -->
<g id="edge34" class="edge">
<title>Node4&#45;&gt;Node35</title>
<path fill="none" stroke="midnightblue" d="M218.29,-465.23C225.41,-407.17 248.88,-238.85 286,-200 289.71,-196.12 294.17,-193.02 298.99,-190.54"/>
<polygon fill="midnightblue" stroke="midnightblue" points="214.8,-464.95 217.09,-475.3 221.75,-465.78 214.8,-464.95"/>
</g>
<!-- Node8 -->
<g id="node8" class="node">
<title>Node8</title>
<g id="a_node8"><a xlink:href="classv8_1_1DataView.html" target="_top" xlink:title=" ">
<polygon fill="white" stroke="black" points="456,-760.5 456,-779.5 530,-779.5 530,-760.5 456,-760.5"/>
<text text-anchor="middle" x="493" y="-767.5" font-family="Helvetica,sans-Serif" font-size="10.00">v8::DataView</text>
</a>
</g>
</g>
<!-- Node7&#45;&gt;Node8 -->
<g id="edge7" class="edge">
<title>Node7&#45;&gt;Node8</title>
<path fill="none" stroke="midnightblue" d="M412.2,-759.13C427.01,-761.15 442.44,-763.25 455.74,-765.06"/>
<polygon fill="midnightblue" stroke="midnightblue" points="412.46,-755.63 402.08,-757.75 411.51,-762.57 412.46,-755.63"/>
</g>
<!-- Node9 -->
<g id="node9" class="node">
<title>Node9</title>
<g id="a_node9"><a xlink:href="classv8_1_1TypedArray.html" target="_top" xlink:title=" ">
<polygon fill="white" stroke="black" points="453,-722.5 453,-741.5 533,-741.5 533,-722.5 453,-722.5"/>
<text text-anchor="middle" x="493" y="-729.5" font-family="Helvetica,sans-Serif" font-size="10.00">v8::TypedArray</text>
</a>
</g>
</g>
<!-- Node7&#45;&gt;Node9 -->
<g id="edge8" class="edge">
<title>Node7&#45;&gt;Node9</title>
<path fill="none" stroke="midnightblue" d="M412.36,-742.85C425.99,-740.99 440.14,-739.06 452.66,-737.36"/>
<polygon fill="midnightblue" stroke="midnightblue" points="411.51,-739.43 402.08,-744.25 412.46,-746.37 411.51,-739.43"/>
</g>
<!-- Node10 -->
<g id="node10" class="node">
<title>Node10</title>
<g id="a_node10"><a xlink:href="classv8_1_1BigInt64Array.html" target="_top" xlink:title=" ">
<polygon fill="white" stroke="black" points="582,-912.5 582,-931.5 672,-931.5 672,-912.5 582,-912.5"/>
<text text-anchor="middle" x="627" y="-919.5" font-family="Helvetica,sans-Serif" font-size="10.00">v8::BigInt64Array</text>
</a>
</g>
</g>
<!-- Node9&#45;&gt;Node10 -->
<g id="edge9" class="edge">
<title>Node9&#45;&gt;Node10</title>
<path fill="none" stroke="midnightblue" d="M529.92,-747.67C531.03,-748.72 532.06,-749.82 533,-751 576.38,-805.2 522.15,-851.77 569,-903 572.59,-906.93 577.01,-910.04 581.79,-912.51"/>
<polygon fill="midnightblue" stroke="midnightblue" points="531.94,-744.81 521.82,-741.68 527.78,-750.44 531.94,-744.81"/>
</g>
<!-- Node11 -->
<g id="node11" class="node">
<title>Node11</title>
<g id="a_node11"><a xlink:href="classv8_1_1BigUint64Array.html" target="_top" xlink:title=" ">
<polygon fill="white" stroke="black" points="578.5,-874.5 578.5,-893.5 675.5,-893.5 675.5,-874.5 578.5,-874.5"/>
<text text-anchor="middle" x="627" y="-881.5" font-family="Helvetica,sans-Serif" font-size="10.00">v8::BigUint64Array</text>
</a>
</g>
</g>
<!-- Node9&#45;&gt;Node11 -->
<g id="edge10" class="edge">
<title>Node9&#45;&gt;Node11</title>
<path fill="none" stroke="midnightblue" d="M529.71,-747.67C530.88,-748.71 531.99,-749.82 533,-751 567.7,-791.24 531.73,-827.13 569,-865 572.8,-868.87 577.42,-871.95 582.35,-874.4"/>
<polygon fill="midnightblue" stroke="midnightblue" points="531.38,-744.56 521.2,-741.64 527.34,-750.28 531.38,-744.56"/>
</g>
<!-- Node12 -->
<g id="node12" class="node">
<title>Node12</title>
<g id="a_node12"><a xlink:href="classv8_1_1Float32Array.html" target="_top" xlink:title=" ">
<polygon fill="white" stroke="black" points="584,-836.5 584,-855.5 670,-855.5 670,-836.5 584,-836.5"/>
<text text-anchor="middle" x="627" y="-843.5" font-family="Helvetica,sans-Serif" font-size="10.00">v8::Float32Array</text>
</a>
</g>
</g>
<!-- Node9&#45;&gt;Node12 -->
<g id="edge11" class="edge">
<title>Node9&#45;&gt;Node12</title>
<path fill="none" stroke="midnightblue" d="M528.49,-747.05C530.09,-748.28 531.61,-749.59 533,-751 559.28,-777.57 541.03,-802.21 569,-827 573.37,-830.87 578.56,-833.96 583.99,-836.42"/>
<polygon fill="midnightblue" stroke="midnightblue" points="530.28,-744.03 519.98,-741.58 526.5,-749.93 530.28,-744.03"/>
</g>
<!-- Node13 -->
<g id="node13" class="node">
<title>Node13</title>
<g id="a_node13"><a xlink:href="classv8_1_1Float64Array.html" target="_top" xlink:title=" ">
<polygon fill="white" stroke="black" points="584,-798.5 584,-817.5 670,-817.5 670,-798.5 584,-798.5"/>
<text text-anchor="middle" x="627" y="-805.5" font-family="Helvetica,sans-Serif" font-size="10.00">v8::Float64Array</text>
</a>
</g>
</g>
<!-- Node9&#45;&gt;Node13 -->
<g id="edge12" class="edge">
<title>Node9&#45;&gt;Node13</title>
<path fill="none" stroke="midnightblue" d="M526.01,-746.4C528.44,-747.85 530.8,-749.39 533,-751 551.76,-764.76 549.38,-776.5 569,-789 574.98,-792.81 581.81,-795.94 588.61,-798.47"/>
<polygon fill="midnightblue" stroke="midnightblue" points="527.52,-743.24 517.07,-741.54 524.18,-749.39 527.52,-743.24"/>
</g>
<!-- Node14 -->
<g id="node14" class="node">
<title>Node14</title>
<g id="a_node14"><a xlink:href="classv8_1_1Int16Array.html" target="_top" xlink:title=" ">
<polygon fill="white" stroke="black" points="589,-760.5 589,-779.5 665,-779.5 665,-760.5 589,-760.5"/>
<text text-anchor="middle" x="627" y="-767.5" font-family="Helvetica,sans-Serif" font-size="10.00">v8::Int16Array</text>
</a>
</g>
</g>
<!-- Node9&#45;&gt;Node14 -->
<g id="edge13" class="edge">
<title>Node9&#45;&gt;Node14</title>
<path fill="none" stroke="midnightblue" d="M537.04,-744.39C555.12,-749.59 575.82,-755.55 592.7,-760.41"/>
<polygon fill="midnightblue" stroke="midnightblue" points="537.89,-740.99 527.31,-741.59 535.95,-747.72 537.89,-740.99"/>
</g>
<!-- Node15 -->
<g id="node15" class="node">
<title>Node15</title>
<g id="a_node15"><a xlink:href="classv8_1_1Int32Array.html" target="_top" xlink:title=" ">
<polygon fill="white" stroke="black" points="589,-722.5 589,-741.5 665,-741.5 665,-722.5 589,-722.5"/>
<text text-anchor="middle" x="627" y="-729.5" font-family="Helvetica,sans-Serif" font-size="10.00">v8::Int32Array</text>
</a>
</g>
</g>
<!-- Node9&#45;&gt;Node15 -->
<g id="edge14" class="edge">
<title>Node9&#45;&gt;Node15</title>
<path fill="none" stroke="midnightblue" d="M543.45,-732C558.52,-732 574.83,-732 588.94,-732"/>
<polygon fill="midnightblue" stroke="midnightblue" points="543.25,-728.5 533.25,-732 543.25,-735.5 543.25,-728.5"/>
</g>
<!-- Node16 -->
<g id="node16" class="node">
<title>Node16</title>
<g id="a_node16"><a xlink:href="classv8_1_1Int8Array.html" target="_top" xlink:title=" ">
<polygon fill="white" stroke="black" points="591.5,-684.5 591.5,-703.5 662.5,-703.5 662.5,-684.5 591.5,-684.5"/>
<text text-anchor="middle" x="627" y="-691.5" font-family="Helvetica,sans-Serif" font-size="10.00">v8::Int8Array</text>
</a>
</g>
</g>
<!-- Node9&#45;&gt;Node16 -->
<g id="edge15" class="edge">
<title>Node9&#45;&gt;Node16</title>
<path fill="none" stroke="midnightblue" d="M537.04,-719.61C555.12,-714.41 575.82,-708.45 592.7,-703.59"/>
<polygon fill="midnightblue" stroke="midnightblue" points="535.95,-716.28 527.31,-722.41 537.89,-723.01 535.95,-716.28"/>
</g>
<!-- Node17 -->
<g id="node17" class="node">
<title>Node17</title>
<g id="a_node17"><a xlink:href="classv8_1_1Uint16Array.html" target="_top" xlink:title=" ">
<polygon fill="white" stroke="black" points="585.5,-646.5 585.5,-665.5 668.5,-665.5 668.5,-646.5 585.5,-646.5"/>
<text text-anchor="middle" x="627" y="-653.5" font-family="Helvetica,sans-Serif" font-size="10.00">v8::Uint16Array</text>
</a>
</g>
</g>
<!-- Node9&#45;&gt;Node17 -->
<g id="edge16" class="edge">
<title>Node9&#45;&gt;Node17</title>
<path fill="none" stroke="midnightblue" d="M512.11,-715.51C526.62,-702.99 547.96,-686.11 569,-675 575.92,-671.35 583.68,-668.2 591.19,-665.58"/>
<polygon fill="midnightblue" stroke="midnightblue" points="509.6,-713.05 504.41,-722.29 514.23,-718.31 509.6,-713.05"/>
</g>
<!-- Node18 -->
<g id="node18" class="node">
<title>Node18</title>
<g id="a_node18"><a xlink:href="classv8_1_1Uint32Array.html" target="_top" xlink:title=" ">
<polygon fill="white" stroke="black" points="585.5,-608.5 585.5,-627.5 668.5,-627.5 668.5,-608.5 585.5,-608.5"/>
<text text-anchor="middle" x="627" y="-615.5" font-family="Helvetica,sans-Serif" font-size="10.00">v8::Uint32Array</text>
</a>
</g>
</g>
<!-- Node9&#45;&gt;Node18 -->
<g id="edge17" class="edge">
<title>Node9&#45;&gt;Node18</title>
<path fill="none" stroke="midnightblue" d="M504.01,-713.65C516.53,-692.31 539.92,-657.42 569,-637 574.46,-633.16 580.76,-630.06 587.13,-627.56"/>
<polygon fill="midnightblue" stroke="midnightblue" points="500.93,-711.98 499.03,-722.4 507.02,-715.43 500.93,-711.98"/>
</g>
<!-- Node19 -->
<g id="node19" class="node">
<title>Node19</title>
<g id="a_node19"><a xlink:href="classv8_1_1Uint8Array.html" target="_top" xlink:title=" ">
<polygon fill="white" stroke="black" points="588.5,-570.5 588.5,-589.5 665.5,-589.5 665.5,-570.5 588.5,-570.5"/>
<text text-anchor="middle" x="627" y="-577.5" font-family="Helvetica,sans-Serif" font-size="10.00">v8::Uint8Array</text>
</a>
</g>
</g>
<!-- Node9&#45;&gt;Node19 -->
<g id="edge18" class="edge">
<title>Node9&#45;&gt;Node19</title>
<path fill="none" stroke="midnightblue" d="M499.88,-712.67C509.63,-683.83 531.82,-629.66 569,-599 574.63,-594.35 581.45,-590.83 588.38,-588.16"/>
<polygon fill="midnightblue" stroke="midnightblue" points="496.49,-711.79 496.75,-722.38 503.15,-713.94 496.49,-711.79"/>
</g>
<!-- Node20 -->
<g id="node20" class="node">
<title>Node20</title>
<g id="a_node20"><a xlink:href="classv8_1_1Uint8ClampedArray.html" target="_top" xlink:title=" ">
<polygon fill="white" stroke="black" points="569,-532.5 569,-551.5 685,-551.5 685,-532.5 569,-532.5"/>
<text text-anchor="middle" x="627" y="-539.5" font-family="Helvetica,sans-Serif" font-size="10.00">v8::Uint8ClampedArray</text>
</a>
</g>
</g>
<!-- Node9&#45;&gt;Node20 -->
<g id="edge19" class="edge">
<title>Node9&#45;&gt;Node20</title>
<path fill="none" stroke="midnightblue" d="M497.27,-712.26C504.15,-676.91 523.4,-602.6 569,-561 573.24,-557.13 578.29,-554.05 583.6,-551.59"/>
<polygon fill="midnightblue" stroke="midnightblue" points="493.79,-711.82 495.45,-722.28 500.68,-713.06 493.79,-711.82"/>
</g>
<!-- Node37 -->
<g id="node37" class="node">
<title>Node37</title>
<g id="a_node37"><a xlink:href="classv8_1_1BigInt.html" target="_top" xlink:title=" ">
<polygon fill="white" stroke="black" points="323,-133.5 323,-152.5 380,-152.5 380,-133.5 323,-133.5"/>
<text text-anchor="middle" x="351.5" y="-140.5" font-family="Helvetica,sans-Serif" font-size="10.00">v8::BigInt</text>
</a>
</g>
</g>
<!-- Node36&#45;&gt;Node37 -->
<g id="edge36" class="edge">
<title>Node36&#45;&gt;Node37</title>
<path fill="none" stroke="midnightblue" d="M259.82,-117.38C280.58,-123.25 304.74,-130.07 322.91,-135.2"/>
<polygon fill="midnightblue" stroke="midnightblue" points="260.51,-113.94 249.94,-114.59 258.61,-120.68 260.51,-113.94"/>
</g>
<!-- Node38 -->
<g id="node38" class="node">
<title>Node38</title>
<g id="a_node38"><a xlink:href="classv8_1_1Boolean.html" target="_top" xlink:title=" ">
<polygon fill="white" stroke="black" points="318,-95.5 318,-114.5 385,-114.5 385,-95.5 318,-95.5"/>
<text text-anchor="middle" x="351.5" y="-102.5" font-family="Helvetica,sans-Serif" font-size="10.00">v8::Boolean</text>
</a>
</g>
</g>
<!-- Node36&#45;&gt;Node38 -->
<g id="edge37" class="edge">
<title>Node36&#45;&gt;Node38</title>
<path fill="none" stroke="midnightblue" d="M260.35,-105C279.05,-105 300.42,-105 317.67,-105"/>
<polygon fill="midnightblue" stroke="midnightblue" points="260.29,-101.5 250.29,-105 260.29,-108.5 260.29,-101.5"/>
</g>
<!-- Node39 -->
<g id="node39" class="node">
<title>Node39</title>
<g id="a_node39"><a xlink:href="classv8_1_1Name.html" target="_top" xlink:title=" ">
<polygon fill="white" stroke="black" points="322.5,-57.5 322.5,-76.5 380.5,-76.5 380.5,-57.5 322.5,-57.5"/>
<text text-anchor="middle" x="351.5" y="-64.5" font-family="Helvetica,sans-Serif" font-size="10.00">v8::Name</text>
</a>
</g>
</g>
<!-- Node36&#45;&gt;Node39 -->
<g id="edge38" class="edge">
<title>Node36&#45;&gt;Node39</title>
<path fill="none" stroke="midnightblue" d="M259.75,-92.64C280.36,-86.82 304.34,-80.04 322.47,-74.92"/>
<polygon fill="midnightblue" stroke="midnightblue" points="258.61,-89.32 249.94,-95.41 260.51,-96.06 258.61,-89.32"/>
</g>
<!-- Node42 -->
<g id="node42" class="node">
<title>Node42</title>
<g id="a_node42"><a xlink:href="classv8_1_1Number.html" target="_top" xlink:title=" ">
<polygon fill="white" stroke="black" points="318.5,-19.5 318.5,-38.5 384.5,-38.5 384.5,-19.5 318.5,-19.5"/>
<text text-anchor="middle" x="351.5" y="-26.5" font-family="Helvetica,sans-Serif" font-size="10.00">v8::Number</text>
</a>
</g>
</g>
<!-- Node36&#45;&gt;Node42 -->
<g id="edge41" class="edge">
<title>Node36&#45;&gt;Node42</title>
<path fill="none" stroke="midnightblue" d="M232.98,-87.88C246.36,-75.26 266.02,-58.53 286,-48 296.02,-42.72 307.7,-38.72 318.36,-35.78"/>
<polygon fill="midnightblue" stroke="midnightblue" points="230.26,-85.64 225.52,-95.11 235.14,-90.67 230.26,-85.64"/>
</g>
<!-- Node40 -->
<g id="node40" class="node">
<title>Node40</title>
<g id="a_node40"><a xlink:href="classv8_1_1String.html" target="_top" xlink:title=" ">
<polygon fill="white" stroke="black" points="464.5,-95.5 464.5,-114.5 521.5,-114.5 521.5,-95.5 464.5,-95.5"/>
<text text-anchor="middle" x="493" y="-102.5" font-family="Helvetica,sans-Serif" font-size="10.00">v8::String</text>
</a>
</g>
</g>
<!-- Node39&#45;&gt;Node40 -->
<g id="edge39" class="edge">
<title>Node39&#45;&gt;Node40</title>
<path fill="none" stroke="midnightblue" d="M390.63,-77.39C413.93,-83.73 443.2,-91.71 464.29,-97.45"/>
<polygon fill="midnightblue" stroke="midnightblue" points="391.3,-73.94 380.73,-74.69 389.46,-80.7 391.3,-73.94"/>
</g>
<!-- Node41 -->
<g id="node41" class="node">
<title>Node41</title>
<g id="a_node41"><a xlink:href="classv8_1_1Symbol.html" target="_top" xlink:title=" ">
<polygon fill="white" stroke="black" points="461,-57.5 461,-76.5 525,-76.5 525,-57.5 461,-57.5"/>
<text text-anchor="middle" x="493" y="-64.5" font-family="Helvetica,sans-Serif" font-size="10.00">v8::Symbol</text>
</a>
</g>
</g>
<!-- Node39&#45;&gt;Node41 -->
<g id="edge40" class="edge">
<title>Node39&#45;&gt;Node41</title>
<path fill="none" stroke="midnightblue" d="M390.76,-67C412.81,-67 440.18,-67 460.9,-67"/>
<polygon fill="midnightblue" stroke="midnightblue" points="390.73,-63.5 380.73,-67 390.73,-70.5 390.73,-63.5"/>
</g>
<!-- Node43 -->
<g id="node43" class="node">
<title>Node43</title>
<g id="a_node43"><a xlink:href="classv8_1_1Integer.html" target="_top" xlink:title=" ">
<polygon fill="white" stroke="black" points="462,-19.5 462,-38.5 524,-38.5 524,-19.5 462,-19.5"/>
<text text-anchor="middle" x="493" y="-26.5" font-family="Helvetica,sans-Serif" font-size="10.00">v8::Integer</text>
</a>
</g>
</g>
<!-- Node42&#45;&gt;Node43 -->
<g id="edge42" class="edge">
<title>Node42&#45;&gt;Node43</title>
<path fill="none" stroke="midnightblue" d="M394.7,-29C416.26,-29 441.99,-29 461.58,-29"/>
<polygon fill="midnightblue" stroke="midnightblue" points="394.5,-25.5 384.5,-29 394.5,-32.5 394.5,-25.5"/>
</g>
<!-- Node44 -->
<g id="node44" class="node">
<title>Node44</title>
<g id="a_node44"><a xlink:href="classv8_1_1Int32.html" target="_top" xlink:title=" ">
<polygon fill="white" stroke="black" points="600.5,-38.5 600.5,-57.5 653.5,-57.5 653.5,-38.5 600.5,-38.5"/>
<text text-anchor="middle" x="627" y="-45.5" font-family="Helvetica,sans-Serif" font-size="10.00">v8::Int32</text>
</a>
</g>
</g>
<!-- Node43&#45;&gt;Node44 -->
<g id="edge43" class="edge">
<title>Node43&#45;&gt;Node44</title>
<path fill="none" stroke="midnightblue" d="M534.42,-34.82C555.87,-37.91 581.59,-41.61 600.3,-44.3"/>
<polygon fill="midnightblue" stroke="midnightblue" points="534.68,-31.32 524.28,-33.36 533.68,-38.25 534.68,-31.32"/>
</g>
<!-- Node45 -->
<g id="node45" class="node">
<title>Node45</title>
<g id="a_node45"><a xlink:href="classv8_1_1Uint32.html" target="_top" xlink:title=" ">
<polygon fill="white" stroke="black" points="597,-0.5 597,-19.5 657,-19.5 657,-0.5 597,-0.5"/>
<text text-anchor="middle" x="627" y="-7.5" font-family="Helvetica,sans-Serif" font-size="10.00">v8::Uint32</text>
</a>
</g>
</g>
<!-- Node43&#45;&gt;Node45 -->
<g id="edge44" class="edge">
<title>Node43&#45;&gt;Node45</title>
<path fill="none" stroke="midnightblue" d="M534.42,-23.18C554.55,-20.28 578.43,-16.85 596.77,-14.21"/>
<polygon fill="midnightblue" stroke="midnightblue" points="533.68,-19.75 524.28,-24.64 534.68,-26.68 533.68,-19.75"/>
</g>
</g>
</svg>
