<?xml version="1.0" encoding="UTF-8" standalone="no"?>
<!DOCTYPE svg PUBLIC "-//W3C//DTD SVG 1.1//EN"
 "http://www.w3.org/Graphics/SVG/1.1/DTD/svg11.dtd">
<!-- Generated by graphviz version 2.44.0 ()
 -->
<!-- Title: v8::ReturnValue::Get Pages: 1 -->
<svg width="229pt" height="66pt"
 viewBox="0.00 0.00 229.00 66.00" xmlns="http://www.w3.org/2000/svg" xmlns:xlink="http://www.w3.org/1999/xlink">
<g id="graph0" class="graph" transform="scale(1 1) rotate(0) translate(4 62)">
<title>v8::ReturnValue::Get</title>
<polygon fill="white" stroke="transparent" points="-4,4 -4,-62 225,-62 225,4 -4,4"/>
<!-- Node1 -->
<g id="node1" class="node">
<title>Node1</title>
<g id="a_node1"><a xlink:title=" ">
<polygon fill="#bfbfbf" stroke="black" points="0,-19.5 0,-38.5 105,-38.5 105,-19.5 0,-19.5"/>
<text text-anchor="middle" x="52.5" y="-26.5" font-family="Helvetica,sans-Serif" font-size="10.00">v8::ReturnValue::Get</text>
</a>
</g>
</g>
<!-- Node2 -->
<g id="node2" class="node">
<title>Node2</title>
<g id="a_node2"><a xlink:href="classv8_1_1Local.html#a1b3c386fb10d9e8f67aecec9174de1fa" target="_top" xlink:title=" ">
<polygon fill="white" stroke="black" points="141,-38.5 141,-57.5 221,-57.5 221,-38.5 141,-38.5"/>
<text text-anchor="middle" x="181" y="-45.5" font-family="Helvetica,sans-Serif" font-size="10.00">v8::Local::New</text>
</a>
</g>
</g>
<!-- Node1&#45;&gt;Node2 -->
<g id="edge1" class="edge">
<title>Node1&#45;&gt;Node2</title>
<path fill="none" stroke="midnightblue" d="M105.32,-36.78C113.76,-38.05 122.48,-39.36 130.85,-40.62"/>
<polygon fill="midnightblue" stroke="midnightblue" points="130.44,-44.1 140.85,-42.12 131.48,-37.17 130.44,-44.1"/>
</g>
<!-- Node3 -->
<g id="node3" class="node">
<title>Node3</title>
<g id="a_node3"><a xlink:href="namespacev8.html#a61ff26a76e48cb9d79d5c6984a241094" target="_top" xlink:title=" ">
<polygon fill="white" stroke="black" points="143.5,-0.5 143.5,-19.5 218.5,-19.5 218.5,-0.5 143.5,-0.5"/>
<text text-anchor="middle" x="181" y="-7.5" font-family="Helvetica,sans-Serif" font-size="10.00">v8::Undefined</text>
</a>
</g>
</g>
<!-- Node1&#45;&gt;Node3 -->
<g id="edge2" class="edge">
<title>Node1&#45;&gt;Node3</title>
<path fill="none" stroke="midnightblue" d="M105.32,-21.22C114.54,-19.83 124.09,-18.4 133.17,-17.03"/>
<polygon fill="midnightblue" stroke="midnightblue" points="133.79,-20.48 143.16,-15.53 132.75,-13.56 133.79,-20.48"/>
</g>
</g>
</svg>
