<?xml version="1.0" encoding="UTF-8" standalone="no"?>
<!DOCTYPE svg PUBLIC "-//W3C//DTD SVG 1.1//EN"
 "http://www.w3.org/Graphics/SVG/1.1/DTD/svg11.dtd">
<!-- Generated by graphviz version 2.44.0 ()
 -->
<!-- Title: v8::Data Pages: 1 -->
<svg width="760pt" height="940pt"
 viewBox="0.00 0.00 760.00 940.00" xmlns="http://www.w3.org/2000/svg" xmlns:xlink="http://www.w3.org/1999/xlink">
<g id="graph0" class="graph" transform="scale(1 1) rotate(0) translate(4 936)">
<title>v8::Data</title>
<polygon fill="white" stroke="transparent" points="-4,4 -4,-936 756,-936 756,4 -4,4"/>
<!-- Node1 -->
<g id="node1" class="node">
<title>Node1</title>
<g id="a_node1"><a xlink:title=" ">
<polygon fill="#bfbfbf" stroke="black" points="0,-589.5 0,-608.5 52,-608.5 52,-589.5 0,-589.5"/>
<text text-anchor="middle" x="26" y="-596.5" font-family="Helvetica,sans-Serif" font-size="10.00">v8::Data</text>
</a>
</g>
</g>
<!-- Node2 -->
<g id="node2" class="node">
<title>Node2</title>
<g id="a_node2"><a xlink:href="classv8_1_1AccessorSignature.html" target="_top" xlink:title=" ">
<polygon fill="white" stroke="black" points="88,-665.5 88,-684.5 202,-684.5 202,-665.5 88,-665.5"/>
<text text-anchor="middle" x="145" y="-672.5" font-family="Helvetica,sans-Serif" font-size="10.00">v8::AccessorSignature</text>
</a>
</g>
</g>
<!-- Node1&#45;&gt;Node2 -->
<g id="edge1" class="edge">
<title>Node1&#45;&gt;Node2</title>
<path fill="none" stroke="midnightblue" d="M41.83,-616.36C53.33,-628.88 70.25,-645.38 88,-656 94.25,-659.74 101.35,-662.87 108.33,-665.44"/>
<polygon fill="midnightblue" stroke="midnightblue" points="44.37,-613.95 35.11,-608.81 39.14,-618.61 44.37,-613.95"/>
</g>
<!-- Node3 -->
<g id="node3" class="node">
<title>Node3</title>
<g id="a_node3"><a xlink:href="classv8_1_1Private.html" target="_top" xlink:title=" ">
<polygon fill="white" stroke="black" points="114,-627.5 114,-646.5 176,-646.5 176,-627.5 114,-627.5"/>
<text text-anchor="middle" x="145" y="-634.5" font-family="Helvetica,sans-Serif" font-size="10.00">v8::Private</text>
</a>
</g>
</g>
<!-- Node1&#45;&gt;Node3 -->
<g id="edge2" class="edge">
<title>Node1&#45;&gt;Node3</title>
<path fill="none" stroke="midnightblue" d="M62.03,-610.38C78.72,-615.8 98.46,-622.21 114.39,-627.38"/>
<polygon fill="midnightblue" stroke="midnightblue" points="62.69,-606.91 52.1,-607.15 60.53,-613.57 62.69,-606.91"/>
</g>
<!-- Node4 -->
<g id="node4" class="node">
<title>Node4</title>
<g id="a_node4"><a xlink:href="classv8_1_1Signature.html" target="_top" xlink:title=" ">
<polygon fill="white" stroke="black" points="108.5,-589.5 108.5,-608.5 181.5,-608.5 181.5,-589.5 108.5,-589.5"/>
<text text-anchor="middle" x="145" y="-596.5" font-family="Helvetica,sans-Serif" font-size="10.00">v8::Signature</text>
</a>
</g>
</g>
<!-- Node1&#45;&gt;Node4 -->
<g id="edge3" class="edge">
<title>Node1&#45;&gt;Node4</title>
<path fill="none" stroke="midnightblue" d="M62.24,-599C76.8,-599 93.67,-599 108.29,-599"/>
<polygon fill="midnightblue" stroke="midnightblue" points="62.1,-595.5 52.1,-599 62.1,-602.5 62.1,-595.5"/>
</g>
<!-- Node5 -->
<g id="node5" class="node">
<title>Node5</title>
<g id="a_node5"><a xlink:href="classv8_1_1Template.html" target="_top" xlink:title=" ">
<polygon fill="white" stroke="black" points="109,-551.5 109,-570.5 181,-570.5 181,-551.5 109,-551.5"/>
<text text-anchor="middle" x="145" y="-558.5" font-family="Helvetica,sans-Serif" font-size="10.00">v8::Template</text>
</a>
</g>
</g>
<!-- Node1&#45;&gt;Node5 -->
<g id="edge4" class="edge">
<title>Node1&#45;&gt;Node5</title>
<path fill="none" stroke="midnightblue" d="M62.03,-587.62C78.72,-582.2 98.46,-575.79 114.39,-570.62"/>
<polygon fill="midnightblue" stroke="midnightblue" points="60.53,-584.43 52.1,-590.85 62.69,-591.09 60.53,-584.43"/>
</g>
<!-- Node8 -->
<g id="node8" class="node">
<title>Node8</title>
<g id="a_node8"><a xlink:href="classv8_1_1Value.html" target="_top" xlink:title=" ">
<polygon fill="white" stroke="black" points="117,-494.5 117,-513.5 173,-513.5 173,-494.5 117,-494.5"/>
<text text-anchor="middle" x="145" y="-501.5" font-family="Helvetica,sans-Serif" font-size="10.00">v8::Value</text>
</a>
</g>
</g>
<!-- Node1&#45;&gt;Node8 -->
<g id="edge7" class="edge">
<title>Node1&#45;&gt;Node8</title>
<path fill="none" stroke="midnightblue" d="M43.6,-582.16C55.52,-570.4 72.21,-554.61 88,-542 101.04,-531.59 116.84,-521.04 128.33,-513.7"/>
<polygon fill="midnightblue" stroke="midnightblue" points="41.12,-579.69 36.51,-589.23 46.06,-584.64 41.12,-579.69"/>
</g>
<!-- Node6 -->
<g id="node6" class="node">
<title>Node6</title>
<g id="a_node6"><a xlink:href="classv8_1_1FunctionTemplate.html" target="_top" xlink:title=" ">
<polygon fill="white" stroke="black" points="238,-589.5 238,-608.5 348,-608.5 348,-589.5 238,-589.5"/>
<text text-anchor="middle" x="293" y="-596.5" font-family="Helvetica,sans-Serif" font-size="10.00">v8::FunctionTemplate</text>
</a>
</g>
</g>
<!-- Node5&#45;&gt;Node6 -->
<g id="edge5" class="edge">
<title>Node5&#45;&gt;Node6</title>
<path fill="none" stroke="midnightblue" d="M191.17,-572.76C211.82,-578.13 235.97,-584.42 255.46,-589.49"/>
<polygon fill="midnightblue" stroke="midnightblue" points="191.9,-569.33 181.34,-570.2 190.14,-576.1 191.9,-569.33"/>
</g>
<!-- Node7 -->
<g id="node7" class="node">
<title>Node7</title>
<g id="a_node7"><a xlink:href="classv8_1_1ObjectTemplate.html" target="_top" xlink:title=" ">
<polygon fill="white" stroke="black" points="242.5,-551.5 242.5,-570.5 343.5,-570.5 343.5,-551.5 242.5,-551.5"/>
<text text-anchor="middle" x="293" y="-558.5" font-family="Helvetica,sans-Serif" font-size="10.00">v8::ObjectTemplate</text>
</a>
</g>
</g>
<!-- Node5&#45;&gt;Node7 -->
<g id="edge6" class="edge">
<title>Node5&#45;&gt;Node7</title>
<path fill="none" stroke="midnightblue" d="M191.6,-561C207.72,-561 225.92,-561 242.36,-561"/>
<polygon fill="midnightblue" stroke="midnightblue" points="191.34,-557.5 181.34,-561 191.34,-564.5 191.34,-557.5"/>
</g>
<!-- Node9 -->
<g id="node9" class="node">
<title>Node9</title>
<g id="a_node9"><a xlink:href="classv8_1_1External.html" target="_top" xlink:title=" ">
<polygon fill="white" stroke="black" points="260,-513.5 260,-532.5 326,-532.5 326,-513.5 260,-513.5"/>
<text text-anchor="middle" x="293" y="-520.5" font-family="Helvetica,sans-Serif" font-size="10.00">v8::External</text>
</a>
</g>
</g>
<!-- Node8&#45;&gt;Node9 -->
<g id="edge8" class="edge">
<title>Node8&#45;&gt;Node9</title>
<path fill="none" stroke="midnightblue" d="M183.16,-508.84C206.87,-511.92 237.29,-515.88 259.94,-518.83"/>
<polygon fill="midnightblue" stroke="midnightblue" points="183.49,-505.35 173.12,-507.53 182.58,-512.29 183.49,-505.35"/>
</g>
<!-- Node10 -->
<g id="node10" class="node">
<title>Node10</title>
<g id="a_node10"><a xlink:href="classv8_1_1Object.html" target="_top" xlink:title=" ">
<polygon fill="white" stroke="black" points="263,-475.5 263,-494.5 323,-494.5 323,-475.5 263,-475.5"/>
<text text-anchor="middle" x="293" y="-482.5" font-family="Helvetica,sans-Serif" font-size="10.00">v8::Object</text>
</a>
</g>
</g>
<!-- Node8&#45;&gt;Node10 -->
<g id="edge9" class="edge">
<title>Node8&#45;&gt;Node10</title>
<path fill="none" stroke="midnightblue" d="M183.22,-499.16C207.92,-495.94 239.89,-491.78 262.77,-488.8"/>
<polygon fill="midnightblue" stroke="midnightblue" points="182.58,-495.71 173.12,-500.47 183.49,-502.65 182.58,-495.71"/>
</g>
<!-- Node43 -->
<g id="node42" class="node">
<title>Node43</title>
<g id="a_node42"><a xlink:href="classv8_1_1Primitive.html" target="_top" xlink:title=" ">
<polygon fill="white" stroke="black" points="258,-76.5 258,-95.5 328,-95.5 328,-76.5 258,-76.5"/>
<text text-anchor="middle" x="293" y="-83.5" font-family="Helvetica,sans-Serif" font-size="10.00">v8::Primitive</text>
</a>
</g>
</g>
<!-- Node8&#45;&gt;Node43 -->
<g id="edge41" class="edge">
<title>Node8&#45;&gt;Node43</title>
<path fill="none" stroke="midnightblue" d="M152.75,-484.68C178.47,-411.05 269.85,-149.41 288.62,-95.68"/>
<polygon fill="midnightblue" stroke="midnightblue" points="149.32,-483.89 149.32,-494.48 155.93,-486.2 149.32,-483.89"/>
</g>
<!-- Node11 -->
<g id="node11" class="node">
<title>Node11</title>
<g id="a_node11"><a xlink:href="classv8_1_1Array.html" target="_top" xlink:title=" ">
<polygon fill="white" stroke="black" points="416.5,-836.5 416.5,-855.5 470.5,-855.5 470.5,-836.5 416.5,-836.5"/>
<text text-anchor="middle" x="443.5" y="-843.5" font-family="Helvetica,sans-Serif" font-size="10.00">v8::Array</text>
</a>
</g>
</g>
<!-- Node10&#45;&gt;Node11 -->
<g id="edge10" class="edge">
<title>Node10&#45;&gt;Node11</title>
<path fill="none" stroke="midnightblue" d="M332.62,-492.51C338.52,-495.23 343.98,-498.95 348,-504 437.89,-617.06 292.74,-715.04 384,-827 391.89,-836.68 404.79,-841.49 416.47,-843.84"/>
<polygon fill="midnightblue" stroke="midnightblue" points="333.7,-489.18 323.11,-488.98 331.27,-495.74 333.7,-489.18"/>
</g>
<!-- Node12 -->
<g id="node12" class="node">
<title>Node12</title>
<g id="a_node12"><a xlink:href="classv8_1_1ArrayBuffer.html" target="_top" xlink:title=" ">
<polygon fill="white" stroke="black" points="403.5,-798.5 403.5,-817.5 483.5,-817.5 483.5,-798.5 403.5,-798.5"/>
<text text-anchor="middle" x="443.5" y="-805.5" font-family="Helvetica,sans-Serif" font-size="10.00">v8::ArrayBuffer</text>
</a>
</g>
</g>
<!-- Node10&#45;&gt;Node12 -->
<g id="edge11" class="edge">
<title>Node10&#45;&gt;Node12</title>
<path fill="none" stroke="midnightblue" d="M332.56,-492.56C338.47,-495.28 343.94,-498.98 348,-504 428.19,-603.35 302.61,-690.63 384,-789 389.04,-795.09 396.05,-799.24 403.48,-802.08"/>
<polygon fill="midnightblue" stroke="midnightblue" points="333.64,-489.23 323.05,-489.03 331.21,-495.79 333.64,-489.23"/>
</g>
<!-- Node13 -->
<g id="node13" class="node">
<title>Node13</title>
<g id="a_node13"><a xlink:href="classv8_1_1ArrayBufferView.html" target="_top" xlink:title=" ">
<polygon fill="white" stroke="black" points="393,-760.5 393,-779.5 494,-779.5 494,-760.5 393,-760.5"/>
<text text-anchor="middle" x="443.5" y="-767.5" font-family="Helvetica,sans-Serif" font-size="10.00">v8::ArrayBufferView</text>
</a>
</g>
</g>
<!-- Node10&#45;&gt;Node13 -->
<g id="edge12" class="edge">
<title>Node10&#45;&gt;Node13</title>
<path fill="none" stroke="midnightblue" d="M332.66,-492.7C338.51,-495.41 343.94,-499.06 348,-504 418.5,-589.66 312.47,-666.2 384,-751 387.24,-754.84 391.26,-757.9 395.66,-760.36"/>
<polygon fill="midnightblue" stroke="midnightblue" points="333.84,-489.41 323.25,-489.18 331.39,-495.97 333.84,-489.41"/>
</g>
<!-- Node27 -->
<g id="node26" class="node">
<title>Node27</title>
<g id="a_node26"><a xlink:href="classv8_1_1BigIntObject.html" target="_top" xlink:title=" ">
<polygon fill="white" stroke="black" points="400.5,-722.5 400.5,-741.5 486.5,-741.5 486.5,-722.5 400.5,-722.5"/>
<text text-anchor="middle" x="443.5" y="-729.5" font-family="Helvetica,sans-Serif" font-size="10.00">v8::BigIntObject</text>
</a>
</g>
</g>
<!-- Node10&#45;&gt;Node27 -->
<g id="edge25" class="edge">
<title>Node10&#45;&gt;Node27</title>
<path fill="none" stroke="midnightblue" d="M332.55,-492.79C338.41,-495.49 343.87,-499.12 348,-504 408.83,-576 322.3,-641.74 384,-713 388.4,-718.09 394.18,-721.82 400.39,-724.56"/>
<polygon fill="midnightblue" stroke="midnightblue" points="333.73,-489.5 323.14,-489.28 331.28,-496.05 333.73,-489.5"/>
</g>
<!-- Node28 -->
<g id="node27" class="node">
<title>Node28</title>
<g id="a_node27"><a xlink:href="classv8_1_1BooleanObject.html" target="_top" xlink:title=" ">
<polygon fill="white" stroke="black" points="396,-684.5 396,-703.5 491,-703.5 491,-684.5 396,-684.5"/>
<text text-anchor="middle" x="443.5" y="-691.5" font-family="Helvetica,sans-Serif" font-size="10.00">v8::BooleanObject</text>
</a>
</g>
</g>
<!-- Node10&#45;&gt;Node28 -->
<g id="edge26" class="edge">
<title>Node10&#45;&gt;Node28</title>
<path fill="none" stroke="midnightblue" d="M332.99,-493.2C338.65,-495.85 343.93,-499.36 348,-504 399.21,-562.39 332.08,-617.24 384,-675 387.5,-678.89 391.8,-681.99 396.47,-684.46"/>
<polygon fill="midnightblue" stroke="midnightblue" points="333.85,-489.78 323.26,-489.5 331.36,-496.32 333.85,-489.78"/>
</g>
<!-- Node29 -->
<g id="node28" class="node">
<title>Node29</title>
<g id="a_node28"><a xlink:href="classv8_1_1Date.html" target="_top" xlink:title=" ">
<polygon fill="white" stroke="black" points="417.5,-646.5 417.5,-665.5 469.5,-665.5 469.5,-646.5 417.5,-646.5"/>
<text text-anchor="middle" x="443.5" y="-653.5" font-family="Helvetica,sans-Serif" font-size="10.00">v8::Date</text>
</a>
</g>
</g>
<!-- Node10&#45;&gt;Node29 -->
<g id="edge27" class="edge">
<title>Node10&#45;&gt;Node29</title>
<path fill="none" stroke="midnightblue" d="M332.77,-493.4C338.45,-496.03 343.8,-499.47 348,-504 389.67,-548.87 341.79,-592.64 384,-637 392.69,-646.13 405.79,-650.88 417.4,-653.35"/>
<polygon fill="midnightblue" stroke="midnightblue" points="333.62,-489.98 323.03,-489.71 331.14,-496.52 333.62,-489.98"/>
</g>
<!-- Node30 -->
<g id="node29" class="node">
<title>Node30</title>
<g id="a_node29"><a xlink:href="classv8_1_1FinalizationGroup.html" target="_top" xlink:title=" ">
<polygon fill="white" stroke="black" points="390,-608.5 390,-627.5 497,-627.5 497,-608.5 390,-608.5"/>
<text text-anchor="middle" x="443.5" y="-615.5" font-family="Helvetica,sans-Serif" font-size="10.00">v8::FinalizationGroup</text>
</a>
</g>
</g>
<!-- Node10&#45;&gt;Node30 -->
<g id="edge28" class="edge">
<title>Node10&#45;&gt;Node30</title>
<path fill="none" stroke="midnightblue" d="M332.75,-493.92C338.35,-496.48 343.67,-499.77 348,-504 380.31,-535.54 351.31,-567.85 384,-599 388.1,-602.9 393.01,-606.01 398.21,-608.47"/>
<polygon fill="midnightblue" stroke="midnightblue" points="333.78,-490.57 323.19,-490.27 331.28,-497.11 333.78,-490.57"/>
</g>
<!-- Node31 -->
<g id="node30" class="node">
<title>Node31</title>
<g id="a_node30"><a xlink:href="classv8_1_1Function.html" target="_top" xlink:title=" ">
<polygon fill="white" stroke="black" points="409,-570.5 409,-589.5 478,-589.5 478,-570.5 409,-570.5"/>
<text text-anchor="middle" x="443.5" y="-577.5" font-family="Helvetica,sans-Serif" font-size="10.00">v8::Function</text>
</a>
</g>
</g>
<!-- Node10&#45;&gt;Node31 -->
<g id="edge29" class="edge">
<title>Node10&#45;&gt;Node31</title>
<path fill="none" stroke="midnightblue" d="M332.41,-494.87C337.97,-497.31 343.37,-500.31 348,-504 371.43,-522.67 360.34,-542.61 384,-561 391.25,-566.64 400.23,-570.63 408.96,-573.45"/>
<polygon fill="midnightblue" stroke="midnightblue" points="333.6,-491.58 323.01,-491.29 331.11,-498.12 333.6,-491.58"/>
</g>
<!-- Node32 -->
<g id="node31" class="node">
<title>Node32</title>
<g id="a_node31"><a xlink:href="classv8_1_1Map.html" target="_top" xlink:title=" ">
<polygon fill="white" stroke="black" points="418.5,-532.5 418.5,-551.5 468.5,-551.5 468.5,-532.5 418.5,-532.5"/>
<text text-anchor="middle" x="443.5" y="-539.5" font-family="Helvetica,sans-Serif" font-size="10.00">v8::Map</text>
</a>
</g>
</g>
<!-- Node10&#45;&gt;Node32 -->
<g id="edge30" class="edge">
<title>Node10&#45;&gt;Node32</title>
<path fill="none" stroke="midnightblue" d="M332.91,-497.91C338.03,-499.84 343.17,-501.89 348,-504 364.58,-511.24 367.34,-515.96 384,-523 395.02,-527.66 407.59,-531.87 418.25,-535.15"/>
<polygon fill="midnightblue" stroke="midnightblue" points="333.76,-494.5 323.17,-494.38 331.38,-501.08 333.76,-494.5"/>
</g>
<!-- Node33 -->
<g id="node32" class="node">
<title>Node33</title>
<g id="a_node32"><a xlink:href="classv8_1_1NumberObject.html" target="_top" xlink:title=" ">
<polygon fill="white" stroke="black" points="396,-494.5 396,-513.5 491,-513.5 491,-494.5 396,-494.5"/>
<text text-anchor="middle" x="443.5" y="-501.5" font-family="Helvetica,sans-Serif" font-size="10.00">v8::NumberObject</text>
</a>
</g>
</g>
<!-- Node10&#45;&gt;Node33 -->
<g id="edge31" class="edge">
<title>Node10&#45;&gt;Node33</title>
<path fill="none" stroke="midnightblue" d="M333.28,-490.03C352.53,-492.49 375.84,-495.47 395.98,-498.05"/>
<polygon fill="midnightblue" stroke="midnightblue" points="333.7,-486.55 323.34,-488.75 332.81,-493.49 333.7,-486.55"/>
</g>
<!-- Node34 -->
<g id="node33" class="node">
<title>Node34</title>
<g id="a_node33"><a xlink:href="classv8_1_1Promise.html" target="_top" xlink:title=" ">
<polygon fill="white" stroke="black" points="409.5,-456.5 409.5,-475.5 477.5,-475.5 477.5,-456.5 409.5,-456.5"/>
<text text-anchor="middle" x="443.5" y="-463.5" font-family="Helvetica,sans-Serif" font-size="10.00">v8::Promise</text>
</a>
</g>
</g>
<!-- Node10&#45;&gt;Node34 -->
<g id="edge32" class="edge">
<title>Node10&#45;&gt;Node34</title>
<path fill="none" stroke="midnightblue" d="M333.41,-479.96C357.08,-476.93 386.87,-473.12 409.34,-470.24"/>
<polygon fill="midnightblue" stroke="midnightblue" points="332.81,-476.51 323.34,-481.25 333.7,-483.45 332.81,-476.51"/>
</g>
<!-- Node35 -->
<g id="node34" class="node">
<title>Node35</title>
<g id="a_node34"><a xlink:href="classv8_1_1Promise_1_1Resolver.html" target="_top" xlink:title=" ">
<polygon fill="white" stroke="black" points="388.5,-418.5 388.5,-437.5 498.5,-437.5 498.5,-418.5 388.5,-418.5"/>
<text text-anchor="middle" x="443.5" y="-425.5" font-family="Helvetica,sans-Serif" font-size="10.00">v8::Promise::Resolver</text>
</a>
</g>
</g>
<!-- Node10&#45;&gt;Node35 -->
<g id="edge33" class="edge">
<title>Node10&#45;&gt;Node35</title>
<path fill="none" stroke="midnightblue" d="M324.81,-471.22C342.07,-463.7 364.07,-454.43 384,-447 392.81,-443.72 402.47,-440.45 411.36,-437.57"/>
<polygon fill="midnightblue" stroke="midnightblue" points="323,-468.19 315.25,-475.42 325.81,-474.6 323,-468.19"/>
</g>
<!-- Node36 -->
<g id="node35" class="node">
<title>Node36</title>
<g id="a_node35"><a xlink:href="classv8_1_1Proxy.html" target="_top" xlink:title=" ">
<polygon fill="white" stroke="black" points="415.5,-380.5 415.5,-399.5 471.5,-399.5 471.5,-380.5 415.5,-380.5"/>
<text text-anchor="middle" x="443.5" y="-387.5" font-family="Helvetica,sans-Serif" font-size="10.00">v8::Proxy</text>
</a>
</g>
</g>
<!-- Node10&#45;&gt;Node36 -->
<g id="edge34" class="edge">
<title>Node10&#45;&gt;Node36</title>
<path fill="none" stroke="midnightblue" d="M310.19,-467.89C327.15,-450.84 355.28,-424.98 384,-409 393.71,-403.6 405.18,-399.45 415.38,-396.43"/>
<polygon fill="midnightblue" stroke="midnightblue" points="307.28,-465.86 302.81,-475.46 312.29,-470.75 307.28,-465.86"/>
</g>
<!-- Node37 -->
<g id="node36" class="node">
<title>Node37</title>
<g id="a_node36"><a xlink:href="classv8_1_1RegExp.html" target="_top" xlink:title=" ">
<polygon fill="white" stroke="black" points="411,-342.5 411,-361.5 476,-361.5 476,-342.5 411,-342.5"/>
<text text-anchor="middle" x="443.5" y="-349.5" font-family="Helvetica,sans-Serif" font-size="10.00">v8::RegExp</text>
</a>
</g>
</g>
<!-- Node10&#45;&gt;Node37 -->
<g id="edge35" class="edge">
<title>Node10&#45;&gt;Node37</title>
<path fill="none" stroke="midnightblue" d="M303.85,-466.61C318.22,-441.46 347.28,-396.57 384,-371 391.97,-365.45 401.67,-361.44 410.86,-358.58"/>
<polygon fill="midnightblue" stroke="midnightblue" points="300.71,-465.04 298.92,-475.49 306.83,-468.44 300.71,-465.04"/>
</g>
<!-- Node38 -->
<g id="node37" class="node">
<title>Node38</title>
<g id="a_node37"><a xlink:href="classv8_1_1Set.html" target="_top" xlink:title=" ">
<polygon fill="white" stroke="black" points="420,-304.5 420,-323.5 467,-323.5 467,-304.5 420,-304.5"/>
<text text-anchor="middle" x="443.5" y="-311.5" font-family="Helvetica,sans-Serif" font-size="10.00">v8::Set</text>
</a>
</g>
</g>
<!-- Node10&#45;&gt;Node38 -->
<g id="edge36" class="edge">
<title>Node10&#45;&gt;Node38</title>
<path fill="none" stroke="midnightblue" d="M300.36,-465.57C311.88,-433.34 339.26,-368.82 384,-333 394.25,-324.79 408.16,-320.08 419.84,-317.41"/>
<polygon fill="midnightblue" stroke="midnightblue" points="297,-464.58 297.05,-475.18 303.62,-466.86 297,-464.58"/>
</g>
<!-- Node39 -->
<g id="node38" class="node">
<title>Node39</title>
<g id="a_node38"><a xlink:href="classv8_1_1SharedArrayBuffer.html" target="_top" xlink:title=" ">
<polygon fill="white" stroke="black" points="388.5,-266.5 388.5,-285.5 498.5,-285.5 498.5,-266.5 388.5,-266.5"/>
<text text-anchor="middle" x="443.5" y="-273.5" font-family="Helvetica,sans-Serif" font-size="10.00">v8::SharedArrayBuffer</text>
</a>
</g>
</g>
<!-- Node10&#45;&gt;Node39 -->
<g id="edge37" class="edge">
<title>Node10&#45;&gt;Node39</title>
<path fill="none" stroke="midnightblue" d="M297.94,-465.11C306.59,-426.64 330.86,-341.72 384,-295 388.41,-291.12 393.63,-288.03 399.1,-285.57"/>
<polygon fill="midnightblue" stroke="midnightblue" points="294.48,-464.55 295.82,-475.06 301.33,-466.01 294.48,-464.55"/>
</g>
<!-- Node40 -->
<g id="node39" class="node">
<title>Node40</title>
<g id="a_node39"><a xlink:href="classv8_1_1StringObject.html" target="_top" xlink:title=" ">
<polygon fill="white" stroke="black" points="400.5,-228.5 400.5,-247.5 486.5,-247.5 486.5,-228.5 400.5,-228.5"/>
<text text-anchor="middle" x="443.5" y="-235.5" font-family="Helvetica,sans-Serif" font-size="10.00">v8::StringObject</text>
</a>
</g>
</g>
<!-- Node10&#45;&gt;Node40 -->
<g id="edge38" class="edge">
<title>Node10&#45;&gt;Node40</title>
<path fill="none" stroke="midnightblue" d="M296.17,-465.16C302.01,-421.26 322.1,-315.18 384,-257 388.67,-252.61 394.36,-249.24 400.34,-246.64"/>
<polygon fill="midnightblue" stroke="midnightblue" points="292.69,-464.79 294.94,-475.14 299.63,-465.64 292.69,-464.79"/>
</g>
<!-- Node41 -->
<g id="node40" class="node">
<title>Node41</title>
<g id="a_node40"><a xlink:href="classv8_1_1SymbolObject.html" target="_top" xlink:title=" ">
<polygon fill="white" stroke="black" points="397.5,-190.5 397.5,-209.5 489.5,-209.5 489.5,-190.5 397.5,-190.5"/>
<text text-anchor="middle" x="443.5" y="-197.5" font-family="Helvetica,sans-Serif" font-size="10.00">v8::SymbolObject</text>
</a>
</g>
</g>
<!-- Node10&#45;&gt;Node41 -->
<g id="edge39" class="edge">
<title>Node10&#45;&gt;Node41</title>
<path fill="none" stroke="midnightblue" d="M294.87,-465.28C298.09,-416.48 313.2,-288.94 384,-219 387.95,-215.1 392.71,-212 397.79,-209.53"/>
<polygon fill="midnightblue" stroke="midnightblue" points="291.36,-465.25 294.3,-475.43 298.35,-465.64 291.36,-465.25"/>
</g>
<!-- Node42 -->
<g id="node41" class="node">
<title>Node42</title>
<g id="a_node41"><a xlink:href="classv8_1_1WasmModuleObject.html" target="_top" xlink:title=" ">
<polygon fill="white" stroke="black" points="384,-152.5 384,-171.5 503,-171.5 503,-152.5 384,-152.5"/>
<text text-anchor="middle" x="443.5" y="-159.5" font-family="Helvetica,sans-Serif" font-size="10.00">v8::WasmModuleObject</text>
</a>
</g>
</g>
<!-- Node10&#45;&gt;Node42 -->
<g id="edge40" class="edge">
<title>Node10&#45;&gt;Node42</title>
<path fill="none" stroke="midnightblue" d="M293.89,-465.05C294.69,-411.42 304.39,-262.73 384,-181 387.8,-177.1 392.41,-174 397.35,-171.53"/>
<polygon fill="midnightblue" stroke="midnightblue" points="290.39,-465.23 293.83,-475.25 297.39,-465.27 290.39,-465.23"/>
</g>
<!-- Node14 -->
<g id="node14" class="node">
<title>Node14</title>
<g id="a_node14"><a xlink:href="classv8_1_1DataView.html" target="_top" xlink:title=" ">
<polygon fill="white" stroke="black" points="542,-779.5 542,-798.5 616,-798.5 616,-779.5 542,-779.5"/>
<text text-anchor="middle" x="579" y="-786.5" font-family="Helvetica,sans-Serif" font-size="10.00">v8::DataView</text>
</a>
</g>
</g>
<!-- Node13&#45;&gt;Node14 -->
<g id="edge13" class="edge">
<title>Node13&#45;&gt;Node14</title>
<path fill="none" stroke="midnightblue" d="M504.3,-778.51C517.02,-780.32 530.07,-782.18 541.6,-783.82"/>
<polygon fill="midnightblue" stroke="midnightblue" points="504.6,-775.02 494.21,-777.07 503.62,-781.95 504.6,-775.02"/>
</g>
<!-- Node15 -->
<g id="node15" class="node">
<title>Node15</title>
<g id="a_node15"><a xlink:href="classv8_1_1TypedArray.html" target="_top" xlink:title=" ">
<polygon fill="white" stroke="red" points="539,-741.5 539,-760.5 619,-760.5 619,-741.5 539,-741.5"/>
<text text-anchor="middle" x="579" y="-748.5" font-family="Helvetica,sans-Serif" font-size="10.00">v8::TypedArray</text>
</a>
</g>
</g>
<!-- Node13&#45;&gt;Node15 -->
<g id="edge14" class="edge">
<title>Node13&#45;&gt;Node15</title>
<path fill="none" stroke="midnightblue" d="M504.33,-761.48C515.97,-759.83 527.9,-758.13 538.67,-756.6"/>
<polygon fill="midnightblue" stroke="midnightblue" points="503.62,-758.05 494.21,-762.93 504.6,-764.98 503.62,-758.05"/>
</g>
<!-- Node16 -->
<g id="node16" class="node">
<title>Node16</title>
<g id="a_node16"><a xlink:href="classv8_1_1BigInt64Array.html" target="_top" xlink:title=" ">
<polygon fill="white" stroke="black" points="658.5,-912.5 658.5,-931.5 748.5,-931.5 748.5,-912.5 658.5,-912.5"/>
<text text-anchor="middle" x="703.5" y="-919.5" font-family="Helvetica,sans-Serif" font-size="10.00">v8::BigInt64Array</text>
</a>
</g>
</g>
<!-- Node15&#45;&gt;Node16 -->
<g id="edge15" class="edge">
<title>Node15&#45;&gt;Node16</title>
<path fill="none" stroke="midnightblue" d="M615.77,-766.61C616.93,-767.68 618.01,-768.8 619,-770 658.02,-817.19 614.28,-857.26 655,-903 658.43,-906.85 662.74,-909.93 667.36,-912.39"/>
<polygon fill="midnightblue" stroke="midnightblue" points="617.49,-763.54 607.33,-760.53 613.39,-769.22 617.49,-763.54"/>
</g>
<!-- Node17 -->
<g id="node17" class="node">
<title>Node17</title>
<g id="a_node17"><a xlink:href="classv8_1_1BigUint64Array.html" target="_top" xlink:title=" ">
<polygon fill="white" stroke="black" points="655,-874.5 655,-893.5 752,-893.5 752,-874.5 655,-874.5"/>
<text text-anchor="middle" x="703.5" y="-881.5" font-family="Helvetica,sans-Serif" font-size="10.00">v8::BigUint64Array</text>
</a>
</g>
</g>
<!-- Node15&#45;&gt;Node17 -->
<g id="edge16" class="edge">
<title>Node15&#45;&gt;Node17</title>
<path fill="none" stroke="midnightblue" d="M615.14,-766.33C616.52,-767.48 617.81,-768.7 619,-770 649.44,-803.35 623.37,-832.78 655,-865 658.73,-868.8 663.33,-871.87 668.17,-874.33"/>
<polygon fill="midnightblue" stroke="midnightblue" points="616.87,-763.27 606.62,-760.57 612.94,-769.07 616.87,-763.27"/>
</g>
<!-- Node18 -->
<g id="node18" class="node">
<title>Node18</title>
<g id="a_node18"><a xlink:href="classv8_1_1Float32Array.html" target="_top" xlink:title=" ">
<polygon fill="white" stroke="black" points="660.5,-836.5 660.5,-855.5 746.5,-855.5 746.5,-836.5 660.5,-836.5"/>
<text text-anchor="middle" x="703.5" y="-843.5" font-family="Helvetica,sans-Serif" font-size="10.00">v8::Float32Array</text>
</a>
</g>
</g>
<!-- Node15&#45;&gt;Node18 -->
<g id="edge17" class="edge">
<title>Node15&#45;&gt;Node18</title>
<path fill="none" stroke="midnightblue" d="M613.57,-765.75C615.49,-767.07 617.31,-768.49 619,-770 641.32,-789.99 631.97,-807.84 655,-827 659.51,-830.75 664.85,-833.83 670.29,-836.33"/>
<polygon fill="midnightblue" stroke="midnightblue" points="615.19,-762.64 604.81,-760.52 611.61,-768.65 615.19,-762.64"/>
</g>
<!-- Node19 -->
<g id="node19" class="node">
<title>Node19</title>
<g id="a_node19"><a xlink:href="classv8_1_1Float64Array.html" target="_top" xlink:title=" ">
<polygon fill="white" stroke="black" points="660.5,-798.5 660.5,-817.5 746.5,-817.5 746.5,-798.5 660.5,-798.5"/>
<text text-anchor="middle" x="703.5" y="-805.5" font-family="Helvetica,sans-Serif" font-size="10.00">v8::Float64Array</text>
</a>
</g>
</g>
<!-- Node15&#45;&gt;Node19 -->
<g id="edge18" class="edge">
<title>Node15&#45;&gt;Node19</title>
<path fill="none" stroke="midnightblue" d="M609.13,-765.07C612.47,-766.71 615.81,-768.38 619,-770 635.13,-778.19 638.58,-781.41 655,-789 662.09,-792.28 669.92,-795.55 677.15,-798.43"/>
<polygon fill="midnightblue" stroke="midnightblue" points="610.42,-761.8 599.9,-760.54 607.34,-768.09 610.42,-761.8"/>
</g>
<!-- Node20 -->
<g id="node20" class="node">
<title>Node20</title>
<g id="a_node20"><a xlink:href="classv8_1_1Int16Array.html" target="_top" xlink:title=" ">
<polygon fill="white" stroke="black" points="665.5,-760.5 665.5,-779.5 741.5,-779.5 741.5,-760.5 665.5,-760.5"/>
<text text-anchor="middle" x="703.5" y="-767.5" font-family="Helvetica,sans-Serif" font-size="10.00">v8::Int16Array</text>
</a>
</g>
</g>
<!-- Node15&#45;&gt;Node20 -->
<g id="edge19" class="edge">
<title>Node15&#45;&gt;Node20</title>
<path fill="none" stroke="midnightblue" d="M629.08,-758.61C641.21,-760.49 654,-762.48 665.44,-764.25"/>
<polygon fill="midnightblue" stroke="midnightblue" points="629.51,-755.14 619.1,-757.06 628.44,-762.06 629.51,-755.14"/>
</g>
<!-- Node21 -->
<g id="node21" class="node">
<title>Node21</title>
<g id="a_node21"><a xlink:href="classv8_1_1Int32Array.html" target="_top" xlink:title=" ">
<polygon fill="white" stroke="black" points="665.5,-722.5 665.5,-741.5 741.5,-741.5 741.5,-722.5 665.5,-722.5"/>
<text text-anchor="middle" x="703.5" y="-729.5" font-family="Helvetica,sans-Serif" font-size="10.00">v8::Int32Array</text>
</a>
</g>
</g>
<!-- Node15&#45;&gt;Node21 -->
<g id="edge20" class="edge">
<title>Node15&#45;&gt;Node21</title>
<path fill="none" stroke="midnightblue" d="M629.08,-743.39C641.21,-741.51 654,-739.52 665.44,-737.75"/>
<polygon fill="midnightblue" stroke="midnightblue" points="628.44,-739.94 619.1,-744.94 629.51,-746.86 628.44,-739.94"/>
</g>
<!-- Node22 -->
<g id="node22" class="node">
<title>Node22</title>
<g id="a_node22"><a xlink:href="classv8_1_1Int8Array.html" target="_top" xlink:title=" ">
<polygon fill="white" stroke="black" points="668,-684.5 668,-703.5 739,-703.5 739,-684.5 668,-684.5"/>
<text text-anchor="middle" x="703.5" y="-691.5" font-family="Helvetica,sans-Serif" font-size="10.00">v8::Int8Array</text>
</a>
</g>
</g>
<!-- Node15&#45;&gt;Node22 -->
<g id="edge21" class="edge">
<title>Node15&#45;&gt;Node22</title>
<path fill="none" stroke="midnightblue" d="M606.84,-736.67C621.02,-729.29 638.79,-720.33 655,-713 662.12,-709.78 669.96,-706.53 677.18,-703.65"/>
<polygon fill="midnightblue" stroke="midnightblue" points="604.89,-733.74 597.67,-741.49 608.15,-739.94 604.89,-733.74"/>
</g>
<!-- Node23 -->
<g id="node23" class="node">
<title>Node23</title>
<g id="a_node23"><a xlink:href="classv8_1_1Uint16Array.html" target="_top" xlink:title=" ">
<polygon fill="white" stroke="black" points="662,-646.5 662,-665.5 745,-665.5 745,-646.5 662,-646.5"/>
<text text-anchor="middle" x="703.5" y="-653.5" font-family="Helvetica,sans-Serif" font-size="10.00">v8::Uint16Array</text>
</a>
</g>
</g>
<!-- Node15&#45;&gt;Node23 -->
<g id="edge22" class="edge">
<title>Node15&#45;&gt;Node23</title>
<path fill="none" stroke="midnightblue" d="M593.73,-733.36C607.64,-716.48 630.54,-691.24 655,-675 660.47,-671.36 666.75,-668.24 672.91,-665.64"/>
<polygon fill="midnightblue" stroke="midnightblue" points="590.85,-731.35 587.31,-741.34 596.31,-735.74 590.85,-731.35"/>
</g>
<!-- Node24 -->
<g id="node24" class="node">
<title>Node24</title>
<g id="a_node24"><a xlink:href="classv8_1_1Uint32Array.html" target="_top" xlink:title=" ">
<polygon fill="white" stroke="black" points="662,-608.5 662,-627.5 745,-627.5 745,-608.5 662,-608.5"/>
<text text-anchor="middle" x="703.5" y="-615.5" font-family="Helvetica,sans-Serif" font-size="10.00">v8::Uint32Array</text>
</a>
</g>
</g>
<!-- Node15&#45;&gt;Node24 -->
<g id="edge23" class="edge">
<title>Node15&#45;&gt;Node24</title>
<path fill="none" stroke="midnightblue" d="M588.13,-731.86C599.63,-706.86 622.89,-663.22 655,-637 659.68,-633.18 665.22,-630.05 670.84,-627.51"/>
<polygon fill="midnightblue" stroke="midnightblue" points="584.79,-730.76 583.93,-741.32 591.18,-733.6 584.79,-730.76"/>
</g>
<!-- Node25 -->
<g id="node25" class="node">
<title>Node25</title>
<g id="a_node25"><a xlink:href="classv8_1_1Uint8Array.html" target="_top" xlink:title=" ">
<polygon fill="white" stroke="black" points="665,-570.5 665,-589.5 742,-589.5 742,-570.5 665,-570.5"/>
<text text-anchor="middle" x="703.5" y="-577.5" font-family="Helvetica,sans-Serif" font-size="10.00">v8::Uint8Array</text>
</a>
</g>
</g>
<!-- Node15&#45;&gt;Node25 -->
<g id="edge24" class="edge">
<title>Node15&#45;&gt;Node25</title>
<path fill="none" stroke="midnightblue" d="M584.74,-731.49C593.42,-699.61 614.81,-636.18 655,-599 659.17,-595.14 664.23,-592.02 669.46,-589.52"/>
<polygon fill="midnightblue" stroke="midnightblue" points="581.3,-730.8 582.18,-741.36 588.08,-732.55 581.3,-730.8"/>
</g>
<!-- Node44 -->
<g id="node43" class="node">
<title>Node44</title>
<g id="a_node43"><a xlink:href="classv8_1_1BigInt.html" target="_top" xlink:title=" ">
<polygon fill="white" stroke="black" points="415,-114.5 415,-133.5 472,-133.5 472,-114.5 415,-114.5"/>
<text text-anchor="middle" x="443.5" y="-121.5" font-family="Helvetica,sans-Serif" font-size="10.00">v8::BigInt</text>
</a>
</g>
</g>
<!-- Node43&#45;&gt;Node44 -->
<g id="edge42" class="edge">
<title>Node43&#45;&gt;Node44</title>
<path fill="none" stroke="midnightblue" d="M337.97,-97.25C362.77,-103.6 393,-111.33 414.56,-116.85"/>
<polygon fill="midnightblue" stroke="midnightblue" points="338.62,-93.81 328.07,-94.72 336.89,-100.59 338.62,-93.81"/>
</g>
<!-- Node45 -->
<g id="node44" class="node">
<title>Node45</title>
<g id="a_node44"><a xlink:href="classv8_1_1Boolean.html" target="_top" xlink:title=" ">
<polygon fill="white" stroke="black" points="410,-76.5 410,-95.5 477,-95.5 477,-76.5 410,-76.5"/>
<text text-anchor="middle" x="443.5" y="-83.5" font-family="Helvetica,sans-Serif" font-size="10.00">v8::Boolean</text>
</a>
</g>
</g>
<!-- Node43&#45;&gt;Node45 -->
<g id="edge43" class="edge">
<title>Node43&#45;&gt;Node45</title>
<path fill="none" stroke="midnightblue" d="M338.27,-86C361.25,-86 388.84,-86 409.86,-86"/>
<polygon fill="midnightblue" stroke="midnightblue" points="338.07,-82.5 328.07,-86 338.07,-89.5 338.07,-82.5"/>
</g>
<!-- Node46 -->
<g id="node45" class="node">
<title>Node46</title>
<g id="a_node45"><a xlink:href="classv8_1_1Name.html" target="_top" xlink:title=" ">
<polygon fill="white" stroke="black" points="414.5,-38.5 414.5,-57.5 472.5,-57.5 472.5,-38.5 414.5,-38.5"/>
<text text-anchor="middle" x="443.5" y="-45.5" font-family="Helvetica,sans-Serif" font-size="10.00">v8::Name</text>
</a>
</g>
</g>
<!-- Node43&#45;&gt;Node46 -->
<g id="edge44" class="edge">
<title>Node43&#45;&gt;Node46</title>
<path fill="none" stroke="midnightblue" d="M337.9,-74.77C362.53,-68.46 392.53,-60.79 414.08,-55.27"/>
<polygon fill="midnightblue" stroke="midnightblue" points="336.89,-71.41 328.07,-77.28 338.62,-78.19 336.89,-71.41"/>
</g>
<!-- Node49 -->
<g id="node48" class="node">
<title>Node49</title>
<g id="a_node48"><a xlink:href="classv8_1_1Number.html" target="_top" xlink:title=" ">
<polygon fill="white" stroke="black" points="410.5,-0.5 410.5,-19.5 476.5,-19.5 476.5,-0.5 410.5,-0.5"/>
<text text-anchor="middle" x="443.5" y="-7.5" font-family="Helvetica,sans-Serif" font-size="10.00">v8::Number</text>
</a>
</g>
</g>
<!-- Node43&#45;&gt;Node49 -->
<g id="edge47" class="edge">
<title>Node43&#45;&gt;Node49</title>
<path fill="none" stroke="midnightblue" d="M315.25,-70.38C332.96,-57.91 359.2,-40.66 384,-29 392.31,-25.09 401.64,-21.67 410.37,-18.84"/>
<polygon fill="midnightblue" stroke="midnightblue" points="312.92,-67.75 306.82,-76.41 316.99,-73.44 312.92,-67.75"/>
</g>
<!-- Node47 -->
<g id="node46" class="node">
<title>Node47</title>
<g id="a_node46"><a xlink:href="classv8_1_1String.html" target="_top" xlink:title=" ">
<polygon fill="white" stroke="black" points="550.5,-76.5 550.5,-95.5 607.5,-95.5 607.5,-76.5 550.5,-76.5"/>
<text text-anchor="middle" x="579" y="-83.5" font-family="Helvetica,sans-Serif" font-size="10.00">v8::String</text>
</a>
</g>
</g>
<!-- Node46&#45;&gt;Node47 -->
<g id="edge45" class="edge">
<title>Node46&#45;&gt;Node47</title>
<path fill="none" stroke="midnightblue" d="M482.63,-58.85C504.17,-64.98 530.61,-72.51 550.19,-78.08"/>
<polygon fill="midnightblue" stroke="midnightblue" points="483.39,-55.43 472.81,-56.06 481.47,-62.16 483.39,-55.43"/>
</g>
<!-- Node48 -->
<g id="node47" class="node">
<title>Node48</title>
<g id="a_node47"><a xlink:href="classv8_1_1Symbol.html" target="_top" xlink:title=" ">
<polygon fill="white" stroke="black" points="547,-38.5 547,-57.5 611,-57.5 611,-38.5 547,-38.5"/>
<text text-anchor="middle" x="579" y="-45.5" font-family="Helvetica,sans-Serif" font-size="10.00">v8::Symbol</text>
</a>
</g>
</g>
<!-- Node46&#45;&gt;Node48 -->
<g id="edge46" class="edge">
<title>Node46&#45;&gt;Node48</title>
<path fill="none" stroke="midnightblue" d="M482.99,-48C503.28,-48 527.86,-48 546.93,-48"/>
<polygon fill="midnightblue" stroke="midnightblue" points="482.81,-44.5 472.81,-48 482.81,-51.5 482.81,-44.5"/>
</g>
<!-- Node50 -->
<g id="node49" class="node">
<title>Node50</title>
<g id="a_node49"><a xlink:href="classv8_1_1Integer.html" target="_top" xlink:title=" ">
<polygon fill="white" stroke="red" points="548,-0.5 548,-19.5 610,-19.5 610,-0.5 548,-0.5"/>
<text text-anchor="middle" x="579" y="-7.5" font-family="Helvetica,sans-Serif" font-size="10.00">v8::Integer</text>
</a>
</g>
</g>
<!-- Node49&#45;&gt;Node50 -->
<g id="edge48" class="edge">
<title>Node49&#45;&gt;Node50</title>
<path fill="none" stroke="midnightblue" d="M486.83,-10C506.65,-10 529.8,-10 547.81,-10"/>
<polygon fill="midnightblue" stroke="midnightblue" points="486.82,-6.5 476.82,-10 486.82,-13.5 486.82,-6.5"/>
</g>
</g>
</svg>
