<?xml version="1.0" encoding="UTF-8" standalone="no"?>
<!DOCTYPE svg PUBLIC "-//W3C//DTD SVG 1.1//EN"
 "http://www.w3.org/Graphics/SVG/1.1/DTD/svg11.dtd">
<!-- Generated by graphviz version 2.44.0 ()
 -->
<!-- Title: v8::Object Pages: 1 -->
<svg width="671pt" height="807pt"
 viewBox="0.00 0.00 671.00 807.00" xmlns="http://www.w3.org/2000/svg" xmlns:xlink="http://www.w3.org/1999/xlink">
<g id="graph0" class="graph" transform="scale(1 1) rotate(0) translate(4 803)">
<title>v8::Object</title>
<polygon fill="white" stroke="transparent" points="-4,4 -4,-803 667,-803 667,4 -4,4"/>
<!-- Node1 -->
<g id="node1" class="node">
<title>Node1</title>
<g id="a_node1"><a xlink:title=" ">
<polygon fill="#bfbfbf" stroke="black" points="180,-342.5 180,-361.5 240,-361.5 240,-342.5 180,-342.5"/>
<text text-anchor="middle" x="210" y="-349.5" font-family="Helvetica,sans-Serif" font-size="10.00">v8::Object</text>
</a>
</g>
</g>
<!-- Node4 -->
<g id="node4" class="node">
<title>Node4</title>
<g id="a_node4"><a xlink:href="classv8_1_1Array.html" target="_top" xlink:title=" ">
<polygon fill="white" stroke="black" points="308.5,-684.5 308.5,-703.5 362.5,-703.5 362.5,-684.5 308.5,-684.5"/>
<text text-anchor="middle" x="335.5" y="-691.5" font-family="Helvetica,sans-Serif" font-size="10.00">v8::Array</text>
</a>
</g>
</g>
<!-- Node1&#45;&gt;Node4 -->
<g id="edge3" class="edge">
<title>Node1&#45;&gt;Node4</title>
<path fill="none" stroke="midnightblue" d="M212.41,-371.8C217.27,-434.84 235.35,-629.36 276,-675 284.17,-684.17 296.8,-688.94 308.24,-691.4"/>
<polygon fill="midnightblue" stroke="midnightblue" points="215.88,-371.34 211.65,-361.63 208.9,-371.86 215.88,-371.34"/>
</g>
<!-- Node5 -->
<g id="node5" class="node">
<title>Node5</title>
<g id="a_node5"><a xlink:href="classv8_1_1ArrayBuffer.html" target="_top" xlink:title=" ">
<polygon fill="white" stroke="black" points="295.5,-646.5 295.5,-665.5 375.5,-665.5 375.5,-646.5 295.5,-646.5"/>
<text text-anchor="middle" x="335.5" y="-653.5" font-family="Helvetica,sans-Serif" font-size="10.00">v8::ArrayBuffer</text>
</a>
</g>
</g>
<!-- Node1&#45;&gt;Node5 -->
<g id="edge4" class="edge">
<title>Node1&#45;&gt;Node5</title>
<path fill="none" stroke="midnightblue" d="M212.98,-371.71C219.16,-429.59 239.89,-597.49 276,-637 281.19,-642.68 288.08,-646.66 295.32,-649.46"/>
<polygon fill="midnightblue" stroke="midnightblue" points="216.45,-371.26 211.93,-361.67 209.49,-371.98 216.45,-371.26"/>
</g>
<!-- Node6 -->
<g id="node6" class="node">
<title>Node6</title>
<g id="a_node6"><a xlink:href="classv8_1_1ArrayBufferView.html" target="_top" xlink:title=" ">
<polygon fill="white" stroke="black" points="285,-608.5 285,-627.5 386,-627.5 386,-608.5 285,-608.5"/>
<text text-anchor="middle" x="335.5" y="-615.5" font-family="Helvetica,sans-Serif" font-size="10.00">v8::ArrayBufferView</text>
</a>
</g>
</g>
<!-- Node1&#45;&gt;Node6 -->
<g id="edge5" class="edge">
<title>Node1&#45;&gt;Node6</title>
<path fill="none" stroke="midnightblue" d="M210.24,-371.72C209.58,-417.87 214.52,-533.93 276,-599 279.67,-602.88 284.13,-605.97 288.95,-608.43"/>
<polygon fill="midnightblue" stroke="midnightblue" points="213.75,-371.65 210.5,-361.56 206.75,-371.47 213.75,-371.65"/>
</g>
<!-- Node20 -->
<g id="node20" class="node">
<title>Node20</title>
<g id="a_node20"><a xlink:href="classv8_1_1BigIntObject.html" target="_top" xlink:title=" ">
<polygon fill="white" stroke="black" points="292.5,-570.5 292.5,-589.5 378.5,-589.5 378.5,-570.5 292.5,-570.5"/>
<text text-anchor="middle" x="335.5" y="-577.5" font-family="Helvetica,sans-Serif" font-size="10.00">v8::BigIntObject</text>
</a>
</g>
</g>
<!-- Node1&#45;&gt;Node20 -->
<g id="edge19" class="edge">
<title>Node1&#45;&gt;Node20</title>
<path fill="none" stroke="midnightblue" d="M211.4,-372C213.31,-413.14 223.53,-507.87 276,-561 280.58,-565.63 286.29,-569.14 292.35,-571.79"/>
<polygon fill="midnightblue" stroke="midnightblue" points="214.89,-371.77 211.05,-361.89 207.9,-372.01 214.89,-371.77"/>
</g>
<!-- Node21 -->
<g id="node21" class="node">
<title>Node21</title>
<g id="a_node21"><a xlink:href="classv8_1_1BooleanObject.html" target="_top" xlink:title=" ">
<polygon fill="white" stroke="black" points="288,-532.5 288,-551.5 383,-551.5 383,-532.5 288,-532.5"/>
<text text-anchor="middle" x="335.5" y="-539.5" font-family="Helvetica,sans-Serif" font-size="10.00">v8::BooleanObject</text>
</a>
</g>
</g>
<!-- Node1&#45;&gt;Node21 -->
<g id="edge20" class="edge">
<title>Node1&#45;&gt;Node21</title>
<path fill="none" stroke="midnightblue" d="M212.99,-371.72C217.6,-407.04 232.2,-481.31 276,-523 280.1,-526.9 285.01,-530 290.22,-532.47"/>
<polygon fill="midnightblue" stroke="midnightblue" points="216.46,-371.24 211.82,-361.71 209.5,-372.05 216.46,-371.24"/>
</g>
<!-- Node22 -->
<g id="node22" class="node">
<title>Node22</title>
<g id="a_node22"><a xlink:href="classv8_1_1Date.html" target="_top" xlink:title=" ">
<polygon fill="white" stroke="black" points="309.5,-494.5 309.5,-513.5 361.5,-513.5 361.5,-494.5 309.5,-494.5"/>
<text text-anchor="middle" x="335.5" y="-501.5" font-family="Helvetica,sans-Serif" font-size="10.00">v8::Date</text>
</a>
</g>
</g>
<!-- Node1&#45;&gt;Node22 -->
<g id="edge21" class="edge">
<title>Node1&#45;&gt;Node22</title>
<path fill="none" stroke="midnightblue" d="M215.43,-371.71C222.93,-400.66 240.88,-454.5 276,-485 285.27,-493.05 298.02,-497.7 309.25,-500.39"/>
<polygon fill="midnightblue" stroke="midnightblue" points="218.74,-370.51 212.98,-361.62 211.93,-372.16 218.74,-370.51"/>
</g>
<!-- Node23 -->
<g id="node23" class="node">
<title>Node23</title>
<g id="a_node23"><a xlink:href="classv8_1_1FinalizationGroup.html" target="_top" xlink:title=" ">
<polygon fill="white" stroke="black" points="282,-456.5 282,-475.5 389,-475.5 389,-456.5 282,-456.5"/>
<text text-anchor="middle" x="335.5" y="-463.5" font-family="Helvetica,sans-Serif" font-size="10.00">v8::FinalizationGroup</text>
</a>
</g>
</g>
<!-- Node1&#45;&gt;Node23 -->
<g id="edge22" class="edge">
<title>Node1&#45;&gt;Node23</title>
<path fill="none" stroke="midnightblue" d="M219.31,-370.99C229.62,-392.43 249.19,-426.94 276,-447 281.13,-450.84 287.07,-453.92 293.16,-456.39"/>
<polygon fill="midnightblue" stroke="midnightblue" points="222.36,-369.25 215,-361.63 216.01,-372.18 222.36,-369.25"/>
</g>
<!-- Node24 -->
<g id="node24" class="node">
<title>Node24</title>
<g id="a_node24"><a xlink:href="classv8_1_1Function.html" target="_top" xlink:title=" ">
<polygon fill="white" stroke="black" points="301,-418.5 301,-437.5 370,-437.5 370,-418.5 301,-418.5"/>
<text text-anchor="middle" x="335.5" y="-425.5" font-family="Helvetica,sans-Serif" font-size="10.00">v8::Function</text>
</a>
</g>
</g>
<!-- Node1&#45;&gt;Node24 -->
<g id="edge23" class="edge">
<title>Node1&#45;&gt;Node24</title>
<path fill="none" stroke="midnightblue" d="M226.98,-369.38C239.31,-381.91 257.38,-398.41 276,-409 283.61,-413.33 292.35,-416.83 300.71,-419.6"/>
<polygon fill="midnightblue" stroke="midnightblue" points="229.19,-366.63 219.75,-361.83 224.13,-371.47 229.19,-366.63"/>
</g>
<!-- Node25 -->
<g id="node25" class="node">
<title>Node25</title>
<g id="a_node25"><a xlink:href="classv8_1_1Map.html" target="_top" xlink:title=" ">
<polygon fill="white" stroke="black" points="310.5,-380.5 310.5,-399.5 360.5,-399.5 360.5,-380.5 310.5,-380.5"/>
<text text-anchor="middle" x="335.5" y="-387.5" font-family="Helvetica,sans-Serif" font-size="10.00">v8::Map</text>
</a>
</g>
</g>
<!-- Node1&#45;&gt;Node25 -->
<g id="edge24" class="edge">
<title>Node1&#45;&gt;Node25</title>
<path fill="none" stroke="midnightblue" d="M249.95,-363.99C269.78,-370.08 293.24,-377.31 310.42,-382.59"/>
<polygon fill="midnightblue" stroke="midnightblue" points="250.85,-360.6 240.27,-361.01 248.8,-367.29 250.85,-360.6"/>
</g>
<!-- Node26 -->
<g id="node26" class="node">
<title>Node26</title>
<g id="a_node26"><a xlink:href="classv8_1_1NumberObject.html" target="_top" xlink:title=" ">
<polygon fill="white" stroke="black" points="288,-342.5 288,-361.5 383,-361.5 383,-342.5 288,-342.5"/>
<text text-anchor="middle" x="335.5" y="-349.5" font-family="Helvetica,sans-Serif" font-size="10.00">v8::NumberObject</text>
</a>
</g>
</g>
<!-- Node1&#45;&gt;Node26 -->
<g id="edge25" class="edge">
<title>Node1&#45;&gt;Node26</title>
<path fill="none" stroke="midnightblue" d="M250.3,-352C262.16,-352 275.29,-352 287.58,-352"/>
<polygon fill="midnightblue" stroke="midnightblue" points="250.27,-348.5 240.27,-352 250.27,-355.5 250.27,-348.5"/>
</g>
<!-- Node27 -->
<g id="node27" class="node">
<title>Node27</title>
<g id="a_node27"><a xlink:href="classv8_1_1Promise.html" target="_top" xlink:title=" ">
<polygon fill="white" stroke="black" points="301.5,-304.5 301.5,-323.5 369.5,-323.5 369.5,-304.5 301.5,-304.5"/>
<text text-anchor="middle" x="335.5" y="-311.5" font-family="Helvetica,sans-Serif" font-size="10.00">v8::Promise</text>
</a>
</g>
</g>
<!-- Node1&#45;&gt;Node27 -->
<g id="edge26" class="edge">
<title>Node1&#45;&gt;Node27</title>
<path fill="none" stroke="midnightblue" d="M250.02,-339.99C267.2,-334.71 287.11,-328.58 303.28,-323.61"/>
<polygon fill="midnightblue" stroke="midnightblue" points="248.8,-336.71 240.27,-342.99 250.85,-343.4 248.8,-336.71"/>
</g>
<!-- Node28 -->
<g id="node28" class="node">
<title>Node28</title>
<g id="a_node28"><a xlink:href="classv8_1_1Promise_1_1Resolver.html" target="_top" xlink:title=" ">
<polygon fill="white" stroke="black" points="280.5,-266.5 280.5,-285.5 390.5,-285.5 390.5,-266.5 280.5,-266.5"/>
<text text-anchor="middle" x="335.5" y="-273.5" font-family="Helvetica,sans-Serif" font-size="10.00">v8::Promise::Resolver</text>
</a>
</g>
</g>
<!-- Node1&#45;&gt;Node28 -->
<g id="edge27" class="edge">
<title>Node1&#45;&gt;Node28</title>
<path fill="none" stroke="midnightblue" d="M226.98,-334.62C239.31,-322.09 257.38,-305.59 276,-295 282.59,-291.25 290.03,-288.12 297.33,-285.56"/>
<polygon fill="midnightblue" stroke="midnightblue" points="224.13,-332.53 219.75,-342.17 229.19,-337.37 224.13,-332.53"/>
</g>
<!-- Node29 -->
<g id="node29" class="node">
<title>Node29</title>
<g id="a_node29"><a xlink:href="classv8_1_1Proxy.html" target="_top" xlink:title=" ">
<polygon fill="white" stroke="black" points="307.5,-228.5 307.5,-247.5 363.5,-247.5 363.5,-228.5 307.5,-228.5"/>
<text text-anchor="middle" x="335.5" y="-235.5" font-family="Helvetica,sans-Serif" font-size="10.00">v8::Proxy</text>
</a>
</g>
</g>
<!-- Node1&#45;&gt;Node29 -->
<g id="edge28" class="edge">
<title>Node1&#45;&gt;Node29</title>
<path fill="none" stroke="midnightblue" d="M219.31,-333.01C229.62,-311.57 249.19,-277.06 276,-257 285.15,-250.15 296.87,-245.71 307.41,-242.86"/>
<polygon fill="midnightblue" stroke="midnightblue" points="216.01,-331.82 215,-342.37 222.36,-334.75 216.01,-331.82"/>
</g>
<!-- Node30 -->
<g id="node30" class="node">
<title>Node30</title>
<g id="a_node30"><a xlink:href="classv8_1_1RegExp.html" target="_top" xlink:title=" ">
<polygon fill="white" stroke="black" points="303,-190.5 303,-209.5 368,-209.5 368,-190.5 303,-190.5"/>
<text text-anchor="middle" x="335.5" y="-197.5" font-family="Helvetica,sans-Serif" font-size="10.00">v8::RegExp</text>
</a>
</g>
</g>
<!-- Node1&#45;&gt;Node30 -->
<g id="edge29" class="edge">
<title>Node1&#45;&gt;Node30</title>
<path fill="none" stroke="midnightblue" d="M215.43,-332.29C222.93,-303.34 240.88,-249.5 276,-219 283.58,-212.42 293.48,-208.11 302.97,-205.29"/>
<polygon fill="midnightblue" stroke="midnightblue" points="211.93,-331.84 212.98,-342.38 218.74,-333.49 211.93,-331.84"/>
</g>
<!-- Node31 -->
<g id="node31" class="node">
<title>Node31</title>
<g id="a_node31"><a xlink:href="classv8_1_1Set.html" target="_top" xlink:title=" ">
<polygon fill="white" stroke="black" points="312,-152.5 312,-171.5 359,-171.5 359,-152.5 312,-152.5"/>
<text text-anchor="middle" x="335.5" y="-159.5" font-family="Helvetica,sans-Serif" font-size="10.00">v8::Set</text>
</a>
</g>
</g>
<!-- Node1&#45;&gt;Node31 -->
<g id="edge30" class="edge">
<title>Node1&#45;&gt;Node31</title>
<path fill="none" stroke="midnightblue" d="M212.99,-332.28C217.6,-296.96 232.2,-222.69 276,-181 285.67,-171.8 299.84,-167.05 311.82,-164.6"/>
<polygon fill="midnightblue" stroke="midnightblue" points="209.5,-331.95 211.82,-342.29 216.46,-332.76 209.5,-331.95"/>
</g>
<!-- Node32 -->
<g id="node32" class="node">
<title>Node32</title>
<g id="a_node32"><a xlink:href="classv8_1_1SharedArrayBuffer.html" target="_top" xlink:title=" ">
<polygon fill="white" stroke="black" points="280.5,-114.5 280.5,-133.5 390.5,-133.5 390.5,-114.5 280.5,-114.5"/>
<text text-anchor="middle" x="335.5" y="-121.5" font-family="Helvetica,sans-Serif" font-size="10.00">v8::SharedArrayBuffer</text>
</a>
</g>
</g>
<!-- Node1&#45;&gt;Node32 -->
<g id="edge31" class="edge">
<title>Node1&#45;&gt;Node32</title>
<path fill="none" stroke="midnightblue" d="M211.4,-332C213.31,-290.86 223.53,-196.13 276,-143 279.83,-139.13 284.45,-136.04 289.4,-133.58"/>
<polygon fill="midnightblue" stroke="midnightblue" points="207.9,-331.99 211.05,-342.11 214.89,-332.23 207.9,-331.99"/>
</g>
<!-- Node33 -->
<g id="node33" class="node">
<title>Node33</title>
<g id="a_node33"><a xlink:href="classv8_1_1StringObject.html" target="_top" xlink:title=" ">
<polygon fill="white" stroke="black" points="292.5,-76.5 292.5,-95.5 378.5,-95.5 378.5,-76.5 292.5,-76.5"/>
<text text-anchor="middle" x="335.5" y="-83.5" font-family="Helvetica,sans-Serif" font-size="10.00">v8::StringObject</text>
</a>
</g>
</g>
<!-- Node1&#45;&gt;Node33 -->
<g id="edge32" class="edge">
<title>Node1&#45;&gt;Node33</title>
<path fill="none" stroke="midnightblue" d="M210.24,-332.28C209.58,-286.13 214.52,-170.07 276,-105 280.55,-100.19 286.32,-96.59 292.47,-93.91"/>
<polygon fill="midnightblue" stroke="midnightblue" points="206.75,-332.53 210.5,-342.44 213.75,-332.35 206.75,-332.53"/>
</g>
<!-- Node34 -->
<g id="node34" class="node">
<title>Node34</title>
<g id="a_node34"><a xlink:href="classv8_1_1SymbolObject.html" target="_top" xlink:title=" ">
<polygon fill="white" stroke="black" points="289.5,-38.5 289.5,-57.5 381.5,-57.5 381.5,-38.5 289.5,-38.5"/>
<text text-anchor="middle" x="335.5" y="-45.5" font-family="Helvetica,sans-Serif" font-size="10.00">v8::SymbolObject</text>
</a>
</g>
</g>
<!-- Node1&#45;&gt;Node34 -->
<g id="edge33" class="edge">
<title>Node1&#45;&gt;Node34</title>
<path fill="none" stroke="midnightblue" d="M212.98,-332.29C219.16,-274.41 239.89,-106.51 276,-67 279.75,-62.9 284.38,-59.68 289.4,-57.16"/>
<polygon fill="midnightblue" stroke="midnightblue" points="209.49,-332.02 211.93,-342.33 216.45,-332.74 209.49,-332.02"/>
</g>
<!-- Node35 -->
<g id="node35" class="node">
<title>Node35</title>
<g id="a_node35"><a xlink:href="classv8_1_1WasmModuleObject.html" target="_top" xlink:title=" ">
<polygon fill="white" stroke="black" points="276,-0.5 276,-19.5 395,-19.5 395,-0.5 276,-0.5"/>
<text text-anchor="middle" x="335.5" y="-7.5" font-family="Helvetica,sans-Serif" font-size="10.00">v8::WasmModuleObject</text>
</a>
</g>
</g>
<!-- Node1&#45;&gt;Node35 -->
<g id="edge34" class="edge">
<title>Node1&#45;&gt;Node35</title>
<path fill="none" stroke="midnightblue" d="M212.41,-332.2C217.27,-269.16 235.35,-74.64 276,-29 279.48,-25.09 283.77,-21.99 288.44,-19.51"/>
<polygon fill="midnightblue" stroke="midnightblue" points="208.9,-332.14 211.65,-342.37 215.88,-332.66 208.9,-332.14"/>
</g>
<!-- Node2 -->
<g id="node2" class="node">
<title>Node2</title>
<g id="a_node2"><a xlink:href="classv8_1_1Value.html" target="_top" xlink:title=" ">
<polygon fill="white" stroke="black" points="88,-342.5 88,-361.5 144,-361.5 144,-342.5 88,-342.5"/>
<text text-anchor="middle" x="116" y="-349.5" font-family="Helvetica,sans-Serif" font-size="10.00">v8::Value</text>
</a>
</g>
</g>
<!-- Node2&#45;&gt;Node1 -->
<g id="edge1" class="edge">
<title>Node2&#45;&gt;Node1</title>
<path fill="none" stroke="midnightblue" d="M154.22,-352C162.76,-352 171.71,-352 179.84,-352"/>
<polygon fill="midnightblue" stroke="midnightblue" points="154.11,-348.5 144.11,-352 154.11,-355.5 154.11,-348.5"/>
</g>
<!-- Node3 -->
<g id="node3" class="node">
<title>Node3</title>
<g id="a_node3"><a xlink:href="classv8_1_1Data.html" target="_top" xlink:title=" ">
<polygon fill="white" stroke="black" points="0,-342.5 0,-361.5 52,-361.5 52,-342.5 0,-342.5"/>
<text text-anchor="middle" x="26" y="-349.5" font-family="Helvetica,sans-Serif" font-size="10.00">v8::Data</text>
</a>
</g>
</g>
<!-- Node3&#45;&gt;Node2 -->
<g id="edge2" class="edge">
<title>Node3&#45;&gt;Node2</title>
<path fill="none" stroke="midnightblue" d="M62.72,-352C71.08,-352 79.84,-352 87.76,-352"/>
<polygon fill="midnightblue" stroke="midnightblue" points="62.45,-348.5 52.45,-352 62.45,-355.5 62.45,-348.5"/>
</g>
<!-- Node7 -->
<g id="node7" class="node">
<title>Node7</title>
<g id="a_node7"><a xlink:href="classv8_1_1DataView.html" target="_top" xlink:title=" ">
<polygon fill="white" stroke="black" points="434,-627.5 434,-646.5 508,-646.5 508,-627.5 434,-627.5"/>
<text text-anchor="middle" x="471" y="-634.5" font-family="Helvetica,sans-Serif" font-size="10.00">v8::DataView</text>
</a>
</g>
</g>
<!-- Node6&#45;&gt;Node7 -->
<g id="edge6" class="edge">
<title>Node6&#45;&gt;Node7</title>
<path fill="none" stroke="midnightblue" d="M396.3,-626.51C409.02,-628.32 422.07,-630.18 433.6,-631.82"/>
<polygon fill="midnightblue" stroke="midnightblue" points="396.6,-623.02 386.21,-625.07 395.62,-629.95 396.6,-623.02"/>
</g>
<!-- Node8 -->
<g id="node8" class="node">
<title>Node8</title>
<g id="a_node8"><a xlink:href="classv8_1_1TypedArray.html" target="_top" xlink:title=" ">
<polygon fill="white" stroke="black" points="431,-589.5 431,-608.5 511,-608.5 511,-589.5 431,-589.5"/>
<text text-anchor="middle" x="471" y="-596.5" font-family="Helvetica,sans-Serif" font-size="10.00">v8::TypedArray</text>
</a>
</g>
</g>
<!-- Node6&#45;&gt;Node8 -->
<g id="edge7" class="edge">
<title>Node6&#45;&gt;Node8</title>
<path fill="none" stroke="midnightblue" d="M396.33,-609.48C407.97,-607.83 419.9,-606.13 430.67,-604.6"/>
<polygon fill="midnightblue" stroke="midnightblue" points="395.62,-606.05 386.21,-610.93 396.6,-612.98 395.62,-606.05"/>
</g>
<!-- Node9 -->
<g id="node9" class="node">
<title>Node9</title>
<g id="a_node9"><a xlink:href="classv8_1_1BigInt64Array.html" target="_top" xlink:title=" ">
<polygon fill="white" stroke="black" points="560,-779.5 560,-798.5 650,-798.5 650,-779.5 560,-779.5"/>
<text text-anchor="middle" x="605" y="-786.5" font-family="Helvetica,sans-Serif" font-size="10.00">v8::BigInt64Array</text>
</a>
</g>
</g>
<!-- Node8&#45;&gt;Node9 -->
<g id="edge8" class="edge">
<title>Node8&#45;&gt;Node9</title>
<path fill="none" stroke="midnightblue" d="M507.92,-614.67C509.03,-615.72 510.06,-616.82 511,-618 554.38,-672.2 500.15,-718.77 547,-770 550.59,-773.93 555.01,-777.04 559.79,-779.51"/>
<polygon fill="midnightblue" stroke="midnightblue" points="509.94,-611.81 499.82,-608.68 505.78,-617.44 509.94,-611.81"/>
</g>
<!-- Node10 -->
<g id="node10" class="node">
<title>Node10</title>
<g id="a_node10"><a xlink:href="classv8_1_1BigUint64Array.html" target="_top" xlink:title=" ">
<polygon fill="white" stroke="black" points="556.5,-741.5 556.5,-760.5 653.5,-760.5 653.5,-741.5 556.5,-741.5"/>
<text text-anchor="middle" x="605" y="-748.5" font-family="Helvetica,sans-Serif" font-size="10.00">v8::BigUint64Array</text>
</a>
</g>
</g>
<!-- Node8&#45;&gt;Node10 -->
<g id="edge9" class="edge">
<title>Node8&#45;&gt;Node10</title>
<path fill="none" stroke="midnightblue" d="M507.71,-614.67C508.88,-615.71 509.99,-616.82 511,-618 545.7,-658.24 509.73,-694.13 547,-732 550.8,-735.87 555.42,-738.95 560.35,-741.4"/>
<polygon fill="midnightblue" stroke="midnightblue" points="509.38,-611.56 499.2,-608.64 505.34,-617.28 509.38,-611.56"/>
</g>
<!-- Node11 -->
<g id="node11" class="node">
<title>Node11</title>
<g id="a_node11"><a xlink:href="classv8_1_1Float32Array.html" target="_top" xlink:title=" ">
<polygon fill="white" stroke="black" points="562,-703.5 562,-722.5 648,-722.5 648,-703.5 562,-703.5"/>
<text text-anchor="middle" x="605" y="-710.5" font-family="Helvetica,sans-Serif" font-size="10.00">v8::Float32Array</text>
</a>
</g>
</g>
<!-- Node8&#45;&gt;Node11 -->
<g id="edge10" class="edge">
<title>Node8&#45;&gt;Node11</title>
<path fill="none" stroke="midnightblue" d="M506.49,-614.05C508.09,-615.28 509.61,-616.59 511,-618 537.28,-644.57 519.03,-669.21 547,-694 551.37,-697.87 556.56,-700.96 561.99,-703.42"/>
<polygon fill="midnightblue" stroke="midnightblue" points="508.28,-611.03 497.98,-608.58 504.5,-616.93 508.28,-611.03"/>
</g>
<!-- Node12 -->
<g id="node12" class="node">
<title>Node12</title>
<g id="a_node12"><a xlink:href="classv8_1_1Float64Array.html" target="_top" xlink:title=" ">
<polygon fill="white" stroke="black" points="562,-665.5 562,-684.5 648,-684.5 648,-665.5 562,-665.5"/>
<text text-anchor="middle" x="605" y="-672.5" font-family="Helvetica,sans-Serif" font-size="10.00">v8::Float64Array</text>
</a>
</g>
</g>
<!-- Node8&#45;&gt;Node12 -->
<g id="edge11" class="edge">
<title>Node8&#45;&gt;Node12</title>
<path fill="none" stroke="midnightblue" d="M504.01,-613.4C506.44,-614.85 508.8,-616.39 511,-618 529.76,-631.76 527.38,-643.5 547,-656 552.98,-659.81 559.81,-662.94 566.61,-665.47"/>
<polygon fill="midnightblue" stroke="midnightblue" points="505.52,-610.24 495.07,-608.54 502.18,-616.39 505.52,-610.24"/>
</g>
<!-- Node13 -->
<g id="node13" class="node">
<title>Node13</title>
<g id="a_node13"><a xlink:href="classv8_1_1Int16Array.html" target="_top" xlink:title=" ">
<polygon fill="white" stroke="black" points="567,-627.5 567,-646.5 643,-646.5 643,-627.5 567,-627.5"/>
<text text-anchor="middle" x="605" y="-634.5" font-family="Helvetica,sans-Serif" font-size="10.00">v8::Int16Array</text>
</a>
</g>
</g>
<!-- Node8&#45;&gt;Node13 -->
<g id="edge12" class="edge">
<title>Node8&#45;&gt;Node13</title>
<path fill="none" stroke="midnightblue" d="M515.04,-611.39C533.12,-616.59 553.82,-622.55 570.7,-627.41"/>
<polygon fill="midnightblue" stroke="midnightblue" points="515.89,-607.99 505.31,-608.59 513.95,-614.72 515.89,-607.99"/>
</g>
<!-- Node14 -->
<g id="node14" class="node">
<title>Node14</title>
<g id="a_node14"><a xlink:href="classv8_1_1Int32Array.html" target="_top" xlink:title=" ">
<polygon fill="white" stroke="black" points="567,-589.5 567,-608.5 643,-608.5 643,-589.5 567,-589.5"/>
<text text-anchor="middle" x="605" y="-596.5" font-family="Helvetica,sans-Serif" font-size="10.00">v8::Int32Array</text>
</a>
</g>
</g>
<!-- Node8&#45;&gt;Node14 -->
<g id="edge13" class="edge">
<title>Node8&#45;&gt;Node14</title>
<path fill="none" stroke="midnightblue" d="M521.45,-599C536.52,-599 552.83,-599 566.94,-599"/>
<polygon fill="midnightblue" stroke="midnightblue" points="521.25,-595.5 511.25,-599 521.25,-602.5 521.25,-595.5"/>
</g>
<!-- Node15 -->
<g id="node15" class="node">
<title>Node15</title>
<g id="a_node15"><a xlink:href="classv8_1_1Int8Array.html" target="_top" xlink:title=" ">
<polygon fill="white" stroke="black" points="569.5,-551.5 569.5,-570.5 640.5,-570.5 640.5,-551.5 569.5,-551.5"/>
<text text-anchor="middle" x="605" y="-558.5" font-family="Helvetica,sans-Serif" font-size="10.00">v8::Int8Array</text>
</a>
</g>
</g>
<!-- Node8&#45;&gt;Node15 -->
<g id="edge14" class="edge">
<title>Node8&#45;&gt;Node15</title>
<path fill="none" stroke="midnightblue" d="M515.04,-586.61C533.12,-581.41 553.82,-575.45 570.7,-570.59"/>
<polygon fill="midnightblue" stroke="midnightblue" points="513.95,-583.28 505.31,-589.41 515.89,-590.01 513.95,-583.28"/>
</g>
<!-- Node16 -->
<g id="node16" class="node">
<title>Node16</title>
<g id="a_node16"><a xlink:href="classv8_1_1Uint16Array.html" target="_top" xlink:title=" ">
<polygon fill="white" stroke="black" points="563.5,-513.5 563.5,-532.5 646.5,-532.5 646.5,-513.5 563.5,-513.5"/>
<text text-anchor="middle" x="605" y="-520.5" font-family="Helvetica,sans-Serif" font-size="10.00">v8::Uint16Array</text>
</a>
</g>
</g>
<!-- Node8&#45;&gt;Node16 -->
<g id="edge15" class="edge">
<title>Node8&#45;&gt;Node16</title>
<path fill="none" stroke="midnightblue" d="M490.11,-582.51C504.62,-569.99 525.96,-553.11 547,-542 553.92,-538.35 561.68,-535.2 569.19,-532.58"/>
<polygon fill="midnightblue" stroke="midnightblue" points="487.6,-580.05 482.41,-589.29 492.23,-585.31 487.6,-580.05"/>
</g>
<!-- Node17 -->
<g id="node17" class="node">
<title>Node17</title>
<g id="a_node17"><a xlink:href="classv8_1_1Uint32Array.html" target="_top" xlink:title=" ">
<polygon fill="white" stroke="black" points="563.5,-475.5 563.5,-494.5 646.5,-494.5 646.5,-475.5 563.5,-475.5"/>
<text text-anchor="middle" x="605" y="-482.5" font-family="Helvetica,sans-Serif" font-size="10.00">v8::Uint32Array</text>
</a>
</g>
</g>
<!-- Node8&#45;&gt;Node17 -->
<g id="edge16" class="edge">
<title>Node8&#45;&gt;Node17</title>
<path fill="none" stroke="midnightblue" d="M482.01,-580.65C494.53,-559.31 517.92,-524.42 547,-504 552.46,-500.16 558.76,-497.06 565.13,-494.56"/>
<polygon fill="midnightblue" stroke="midnightblue" points="478.93,-578.98 477.03,-589.4 485.02,-582.43 478.93,-578.98"/>
</g>
<!-- Node18 -->
<g id="node18" class="node">
<title>Node18</title>
<g id="a_node18"><a xlink:href="classv8_1_1Uint8Array.html" target="_top" xlink:title=" ">
<polygon fill="white" stroke="black" points="566.5,-437.5 566.5,-456.5 643.5,-456.5 643.5,-437.5 566.5,-437.5"/>
<text text-anchor="middle" x="605" y="-444.5" font-family="Helvetica,sans-Serif" font-size="10.00">v8::Uint8Array</text>
</a>
</g>
</g>
<!-- Node8&#45;&gt;Node18 -->
<g id="edge17" class="edge">
<title>Node8&#45;&gt;Node18</title>
<path fill="none" stroke="midnightblue" d="M477.88,-579.67C487.63,-550.83 509.82,-496.66 547,-466 552.63,-461.35 559.45,-457.83 566.38,-455.16"/>
<polygon fill="midnightblue" stroke="midnightblue" points="474.49,-578.79 474.75,-589.38 481.15,-580.94 474.49,-578.79"/>
</g>
<!-- Node19 -->
<g id="node19" class="node">
<title>Node19</title>
<g id="a_node19"><a xlink:href="classv8_1_1Uint8ClampedArray.html" target="_top" xlink:title=" ">
<polygon fill="white" stroke="black" points="547,-399.5 547,-418.5 663,-418.5 663,-399.5 547,-399.5"/>
<text text-anchor="middle" x="605" y="-406.5" font-family="Helvetica,sans-Serif" font-size="10.00">v8::Uint8ClampedArray</text>
</a>
</g>
</g>
<!-- Node8&#45;&gt;Node19 -->
<g id="edge18" class="edge">
<title>Node8&#45;&gt;Node19</title>
<path fill="none" stroke="midnightblue" d="M475.27,-579.26C482.15,-543.91 501.4,-469.6 547,-428 551.24,-424.13 556.29,-421.05 561.6,-418.59"/>
<polygon fill="midnightblue" stroke="midnightblue" points="471.79,-578.82 473.45,-589.28 478.68,-580.06 471.79,-578.82"/>
</g>
</g>
</svg>
