<?xml version="1.0" encoding="UTF-8" standalone="no"?>
<!DOCTYPE svg PUBLIC "-//W3C//DTD SVG 1.1//EN"
 "http://www.w3.org/Graphics/SVG/1.1/DTD/svg11.dtd">
<!-- Generated by graphviz version 2.44.0 ()
 -->
<!-- Title: Graphical Class Hierarchy Pages: 1 -->
<svg width="779pt" height="978pt"
 viewBox="0.00 0.00 779.00 978.00" xmlns="http://www.w3.org/2000/svg" xmlns:xlink="http://www.w3.org/1999/xlink">
<g id="graph0" class="graph" transform="scale(1 1) rotate(0) translate(4 974)">
<title>Graphical Class Hierarchy</title>
<polygon fill="white" stroke="transparent" points="-4,4 -4,-974 775,-974 775,4 -4,4"/>
<!-- Node0 -->
<g id="node1" class="node">
<title>Node0</title>
<g id="a_node1"><a xlink:href="classv8_1_1Data.html" target="_top" xlink:title=" ">
<polygon fill="white" stroke="black" points="0,-608.5 0,-627.5 52,-627.5 52,-608.5 0,-608.5"/>
<text text-anchor="middle" x="26" y="-615.5" font-family="Helvetica,sans-Serif" font-size="10.00">v8::Data</text>
</a>
</g>
</g>
<!-- Node1 -->
<g id="node2" class="node">
<title>Node1</title>
<g id="a_node2"><a xlink:href="classv8_1_1AccessorSignature.html" target="_top" xlink:title=" ">
<polygon fill="white" stroke="black" points="88,-684.5 88,-703.5 202,-703.5 202,-684.5 88,-684.5"/>
<text text-anchor="middle" x="145" y="-691.5" font-family="Helvetica,sans-Serif" font-size="10.00">v8::AccessorSignature</text>
</a>
</g>
</g>
<!-- Node0&#45;&gt;Node1 -->
<g id="edge1" class="edge">
<title>Node0&#45;&gt;Node1</title>
<path fill="none" stroke="midnightblue" d="M41.83,-635.36C53.33,-647.88 70.25,-664.38 88,-675 94.25,-678.74 101.35,-681.87 108.33,-684.44"/>
<polygon fill="midnightblue" stroke="midnightblue" points="44.37,-632.95 35.11,-627.81 39.14,-637.61 44.37,-632.95"/>
</g>
<!-- Node2 -->
<g id="node3" class="node">
<title>Node2</title>
<g id="a_node3"><a xlink:href="classv8_1_1Private.html" target="_top" xlink:title=" ">
<polygon fill="white" stroke="black" points="114,-646.5 114,-665.5 176,-665.5 176,-646.5 114,-646.5"/>
<text text-anchor="middle" x="145" y="-653.5" font-family="Helvetica,sans-Serif" font-size="10.00">v8::Private</text>
</a>
</g>
</g>
<!-- Node0&#45;&gt;Node2 -->
<g id="edge2" class="edge">
<title>Node0&#45;&gt;Node2</title>
<path fill="none" stroke="midnightblue" d="M62.03,-629.38C78.72,-634.8 98.46,-641.21 114.39,-646.38"/>
<polygon fill="midnightblue" stroke="midnightblue" points="62.69,-625.91 52.1,-626.15 60.53,-632.57 62.69,-625.91"/>
</g>
<!-- Node3 -->
<g id="node4" class="node">
<title>Node3</title>
<g id="a_node4"><a xlink:href="classv8_1_1Signature.html" target="_top" xlink:title=" ">
<polygon fill="white" stroke="black" points="108.5,-608.5 108.5,-627.5 181.5,-627.5 181.5,-608.5 108.5,-608.5"/>
<text text-anchor="middle" x="145" y="-615.5" font-family="Helvetica,sans-Serif" font-size="10.00">v8::Signature</text>
</a>
</g>
</g>
<!-- Node0&#45;&gt;Node3 -->
<g id="edge3" class="edge">
<title>Node0&#45;&gt;Node3</title>
<path fill="none" stroke="midnightblue" d="M62.24,-618C76.8,-618 93.67,-618 108.29,-618"/>
<polygon fill="midnightblue" stroke="midnightblue" points="62.1,-614.5 52.1,-618 62.1,-621.5 62.1,-614.5"/>
</g>
<!-- Node4 -->
<g id="node5" class="node">
<title>Node4</title>
<g id="a_node5"><a xlink:href="classv8_1_1Template.html" target="_top" xlink:title=" ">
<polygon fill="white" stroke="black" points="109,-570.5 109,-589.5 181,-589.5 181,-570.5 109,-570.5"/>
<text text-anchor="middle" x="145" y="-577.5" font-family="Helvetica,sans-Serif" font-size="10.00">v8::Template</text>
</a>
</g>
</g>
<!-- Node0&#45;&gt;Node4 -->
<g id="edge4" class="edge">
<title>Node0&#45;&gt;Node4</title>
<path fill="none" stroke="midnightblue" d="M62.03,-606.62C78.72,-601.2 98.46,-594.79 114.39,-589.62"/>
<polygon fill="midnightblue" stroke="midnightblue" points="60.53,-603.43 52.1,-609.85 62.69,-610.09 60.53,-603.43"/>
</g>
<!-- Node7 -->
<g id="node8" class="node">
<title>Node7</title>
<g id="a_node8"><a xlink:href="classv8_1_1Value.html" target="_top" xlink:title=" ">
<polygon fill="white" stroke="black" points="117,-513.5 117,-532.5 173,-532.5 173,-513.5 117,-513.5"/>
<text text-anchor="middle" x="145" y="-520.5" font-family="Helvetica,sans-Serif" font-size="10.00">v8::Value</text>
</a>
</g>
</g>
<!-- Node0&#45;&gt;Node7 -->
<g id="edge7" class="edge">
<title>Node0&#45;&gt;Node7</title>
<path fill="none" stroke="midnightblue" d="M43.6,-601.16C55.52,-589.4 72.21,-573.61 88,-561 101.04,-550.59 116.84,-540.04 128.33,-532.7"/>
<polygon fill="midnightblue" stroke="midnightblue" points="41.12,-598.69 36.51,-608.23 46.06,-603.64 41.12,-598.69"/>
</g>
<!-- Node5 -->
<g id="node6" class="node">
<title>Node5</title>
<g id="a_node6"><a xlink:href="classv8_1_1FunctionTemplate.html" target="_top" xlink:title=" ">
<polygon fill="white" stroke="black" points="238,-608.5 238,-627.5 348,-627.5 348,-608.5 238,-608.5"/>
<text text-anchor="middle" x="293" y="-615.5" font-family="Helvetica,sans-Serif" font-size="10.00">v8::FunctionTemplate</text>
</a>
</g>
</g>
<!-- Node4&#45;&gt;Node5 -->
<g id="edge5" class="edge">
<title>Node4&#45;&gt;Node5</title>
<path fill="none" stroke="midnightblue" d="M191.17,-591.76C211.82,-597.13 235.97,-603.42 255.46,-608.49"/>
<polygon fill="midnightblue" stroke="midnightblue" points="191.9,-588.33 181.34,-589.2 190.14,-595.1 191.9,-588.33"/>
</g>
<!-- Node6 -->
<g id="node7" class="node">
<title>Node6</title>
<g id="a_node7"><a xlink:href="classv8_1_1ObjectTemplate.html" target="_top" xlink:title=" ">
<polygon fill="white" stroke="black" points="242.5,-570.5 242.5,-589.5 343.5,-589.5 343.5,-570.5 242.5,-570.5"/>
<text text-anchor="middle" x="293" y="-577.5" font-family="Helvetica,sans-Serif" font-size="10.00">v8::ObjectTemplate</text>
</a>
</g>
</g>
<!-- Node4&#45;&gt;Node6 -->
<g id="edge6" class="edge">
<title>Node4&#45;&gt;Node6</title>
<path fill="none" stroke="midnightblue" d="M191.6,-580C207.72,-580 225.92,-580 242.36,-580"/>
<polygon fill="midnightblue" stroke="midnightblue" points="191.34,-576.5 181.34,-580 191.34,-583.5 191.34,-576.5"/>
</g>
<!-- Node8 -->
<g id="node9" class="node">
<title>Node8</title>
<g id="a_node9"><a xlink:href="classv8_1_1External.html" target="_top" xlink:title=" ">
<polygon fill="white" stroke="black" points="260,-532.5 260,-551.5 326,-551.5 326,-532.5 260,-532.5"/>
<text text-anchor="middle" x="293" y="-539.5" font-family="Helvetica,sans-Serif" font-size="10.00">v8::External</text>
</a>
</g>
</g>
<!-- Node7&#45;&gt;Node8 -->
<g id="edge8" class="edge">
<title>Node7&#45;&gt;Node8</title>
<path fill="none" stroke="midnightblue" d="M183.16,-527.84C206.87,-530.92 237.29,-534.88 259.94,-537.83"/>
<polygon fill="midnightblue" stroke="midnightblue" points="183.49,-524.35 173.12,-526.53 182.58,-531.29 183.49,-524.35"/>
</g>
<!-- Node9 -->
<g id="node10" class="node">
<title>Node9</title>
<g id="a_node10"><a xlink:href="classv8_1_1Object.html" target="_top" xlink:title=" ">
<polygon fill="white" stroke="black" points="263,-494.5 263,-513.5 323,-513.5 323,-494.5 263,-494.5"/>
<text text-anchor="middle" x="293" y="-501.5" font-family="Helvetica,sans-Serif" font-size="10.00">v8::Object</text>
</a>
</g>
</g>
<!-- Node7&#45;&gt;Node9 -->
<g id="edge9" class="edge">
<title>Node7&#45;&gt;Node9</title>
<path fill="none" stroke="midnightblue" d="M183.22,-518.16C207.92,-514.94 239.89,-510.78 262.77,-507.8"/>
<polygon fill="midnightblue" stroke="midnightblue" points="182.58,-514.71 173.12,-519.47 183.49,-521.65 182.58,-514.71"/>
</g>
<!-- Node42 -->
<g id="node43" class="node">
<title>Node42</title>
<g id="a_node43"><a xlink:href="classv8_1_1Primitive.html" target="_top" xlink:title=" ">
<polygon fill="white" stroke="black" points="258,-95.5 258,-114.5 328,-114.5 328,-95.5 258,-95.5"/>
<text text-anchor="middle" x="293" y="-102.5" font-family="Helvetica,sans-Serif" font-size="10.00">v8::Primitive</text>
</a>
</g>
</g>
<!-- Node7&#45;&gt;Node42 -->
<g id="edge42" class="edge">
<title>Node7&#45;&gt;Node42</title>
<path fill="none" stroke="midnightblue" d="M152.75,-503.68C178.47,-430.05 269.85,-168.41 288.62,-114.68"/>
<polygon fill="midnightblue" stroke="midnightblue" points="149.32,-502.89 149.32,-513.48 155.93,-505.2 149.32,-502.89"/>
</g>
<!-- Node10 -->
<g id="node11" class="node">
<title>Node10</title>
<g id="a_node11"><a xlink:href="classv8_1_1Array.html" target="_top" xlink:title=" ">
<polygon fill="white" stroke="black" points="416.5,-855.5 416.5,-874.5 470.5,-874.5 470.5,-855.5 416.5,-855.5"/>
<text text-anchor="middle" x="443.5" y="-862.5" font-family="Helvetica,sans-Serif" font-size="10.00">v8::Array</text>
</a>
</g>
</g>
<!-- Node9&#45;&gt;Node10 -->
<g id="edge10" class="edge">
<title>Node9&#45;&gt;Node10</title>
<path fill="none" stroke="midnightblue" d="M332.62,-511.51C338.52,-514.23 343.98,-517.95 348,-523 437.89,-636.06 292.74,-734.04 384,-846 391.89,-855.68 404.79,-860.49 416.47,-862.84"/>
<polygon fill="midnightblue" stroke="midnightblue" points="333.7,-508.18 323.11,-507.98 331.27,-514.74 333.7,-508.18"/>
</g>
<!-- Node11 -->
<g id="node12" class="node">
<title>Node11</title>
<g id="a_node12"><a xlink:href="classv8_1_1ArrayBuffer.html" target="_top" xlink:title=" ">
<polygon fill="white" stroke="black" points="403.5,-817.5 403.5,-836.5 483.5,-836.5 483.5,-817.5 403.5,-817.5"/>
<text text-anchor="middle" x="443.5" y="-824.5" font-family="Helvetica,sans-Serif" font-size="10.00">v8::ArrayBuffer</text>
</a>
</g>
</g>
<!-- Node9&#45;&gt;Node11 -->
<g id="edge11" class="edge">
<title>Node9&#45;&gt;Node11</title>
<path fill="none" stroke="midnightblue" d="M332.56,-511.56C338.47,-514.28 343.94,-517.98 348,-523 428.19,-622.35 302.61,-709.63 384,-808 389.04,-814.09 396.05,-818.24 403.48,-821.08"/>
<polygon fill="midnightblue" stroke="midnightblue" points="333.64,-508.23 323.05,-508.03 331.21,-514.79 333.64,-508.23"/>
</g>
<!-- Node12 -->
<g id="node13" class="node">
<title>Node12</title>
<g id="a_node13"><a xlink:href="classv8_1_1ArrayBufferView.html" target="_top" xlink:title=" ">
<polygon fill="white" stroke="black" points="393,-779.5 393,-798.5 494,-798.5 494,-779.5 393,-779.5"/>
<text text-anchor="middle" x="443.5" y="-786.5" font-family="Helvetica,sans-Serif" font-size="10.00">v8::ArrayBufferView</text>
</a>
</g>
</g>
<!-- Node9&#45;&gt;Node12 -->
<g id="edge12" class="edge">
<title>Node9&#45;&gt;Node12</title>
<path fill="none" stroke="midnightblue" d="M332.66,-511.7C338.51,-514.41 343.94,-518.06 348,-523 418.5,-608.66 312.47,-685.2 384,-770 387.24,-773.84 391.26,-776.9 395.66,-779.36"/>
<polygon fill="midnightblue" stroke="midnightblue" points="333.84,-508.41 323.25,-508.18 331.39,-514.97 333.84,-508.41"/>
</g>
<!-- Node26 -->
<g id="node27" class="node">
<title>Node26</title>
<g id="a_node27"><a xlink:href="classv8_1_1BigIntObject.html" target="_top" xlink:title=" ">
<polygon fill="white" stroke="black" points="400.5,-741.5 400.5,-760.5 486.5,-760.5 486.5,-741.5 400.5,-741.5"/>
<text text-anchor="middle" x="443.5" y="-748.5" font-family="Helvetica,sans-Serif" font-size="10.00">v8::BigIntObject</text>
</a>
</g>
</g>
<!-- Node9&#45;&gt;Node26 -->
<g id="edge26" class="edge">
<title>Node9&#45;&gt;Node26</title>
<path fill="none" stroke="midnightblue" d="M332.55,-511.79C338.41,-514.49 343.87,-518.12 348,-523 408.83,-595 322.3,-660.74 384,-732 388.4,-737.09 394.18,-740.82 400.39,-743.56"/>
<polygon fill="midnightblue" stroke="midnightblue" points="333.73,-508.5 323.14,-508.28 331.28,-515.05 333.73,-508.5"/>
</g>
<!-- Node27 -->
<g id="node28" class="node">
<title>Node27</title>
<g id="a_node28"><a xlink:href="classv8_1_1BooleanObject.html" target="_top" xlink:title=" ">
<polygon fill="white" stroke="black" points="396,-703.5 396,-722.5 491,-722.5 491,-703.5 396,-703.5"/>
<text text-anchor="middle" x="443.5" y="-710.5" font-family="Helvetica,sans-Serif" font-size="10.00">v8::BooleanObject</text>
</a>
</g>
</g>
<!-- Node9&#45;&gt;Node27 -->
<g id="edge27" class="edge">
<title>Node9&#45;&gt;Node27</title>
<path fill="none" stroke="midnightblue" d="M332.99,-512.2C338.65,-514.85 343.93,-518.36 348,-523 399.21,-581.39 332.08,-636.24 384,-694 387.5,-697.89 391.8,-700.99 396.47,-703.46"/>
<polygon fill="midnightblue" stroke="midnightblue" points="333.85,-508.78 323.26,-508.5 331.36,-515.32 333.85,-508.78"/>
</g>
<!-- Node28 -->
<g id="node29" class="node">
<title>Node28</title>
<g id="a_node29"><a xlink:href="classv8_1_1Date.html" target="_top" xlink:title=" ">
<polygon fill="white" stroke="black" points="417.5,-665.5 417.5,-684.5 469.5,-684.5 469.5,-665.5 417.5,-665.5"/>
<text text-anchor="middle" x="443.5" y="-672.5" font-family="Helvetica,sans-Serif" font-size="10.00">v8::Date</text>
</a>
</g>
</g>
<!-- Node9&#45;&gt;Node28 -->
<g id="edge28" class="edge">
<title>Node9&#45;&gt;Node28</title>
<path fill="none" stroke="midnightblue" d="M332.77,-512.4C338.45,-515.03 343.8,-518.47 348,-523 389.67,-567.87 341.79,-611.64 384,-656 392.69,-665.13 405.79,-669.88 417.4,-672.35"/>
<polygon fill="midnightblue" stroke="midnightblue" points="333.62,-508.98 323.03,-508.71 331.14,-515.52 333.62,-508.98"/>
</g>
<!-- Node29 -->
<g id="node30" class="node">
<title>Node29</title>
<g id="a_node30"><a xlink:href="classv8_1_1FinalizationGroup.html" target="_top" xlink:title=" ">
<polygon fill="white" stroke="black" points="390,-627.5 390,-646.5 497,-646.5 497,-627.5 390,-627.5"/>
<text text-anchor="middle" x="443.5" y="-634.5" font-family="Helvetica,sans-Serif" font-size="10.00">v8::FinalizationGroup</text>
</a>
</g>
</g>
<!-- Node9&#45;&gt;Node29 -->
<g id="edge29" class="edge">
<title>Node9&#45;&gt;Node29</title>
<path fill="none" stroke="midnightblue" d="M332.75,-512.92C338.35,-515.48 343.67,-518.77 348,-523 380.31,-554.54 351.31,-586.85 384,-618 388.1,-621.9 393.01,-625.01 398.21,-627.47"/>
<polygon fill="midnightblue" stroke="midnightblue" points="333.78,-509.57 323.19,-509.27 331.28,-516.11 333.78,-509.57"/>
</g>
<!-- Node30 -->
<g id="node31" class="node">
<title>Node30</title>
<g id="a_node31"><a xlink:href="classv8_1_1Function.html" target="_top" xlink:title=" ">
<polygon fill="white" stroke="black" points="409,-589.5 409,-608.5 478,-608.5 478,-589.5 409,-589.5"/>
<text text-anchor="middle" x="443.5" y="-596.5" font-family="Helvetica,sans-Serif" font-size="10.00">v8::Function</text>
</a>
</g>
</g>
<!-- Node9&#45;&gt;Node30 -->
<g id="edge30" class="edge">
<title>Node9&#45;&gt;Node30</title>
<path fill="none" stroke="midnightblue" d="M332.41,-513.87C337.97,-516.31 343.37,-519.31 348,-523 371.43,-541.67 360.34,-561.61 384,-580 391.25,-585.64 400.23,-589.63 408.96,-592.45"/>
<polygon fill="midnightblue" stroke="midnightblue" points="333.6,-510.58 323.01,-510.29 331.11,-517.12 333.6,-510.58"/>
</g>
<!-- Node31 -->
<g id="node32" class="node">
<title>Node31</title>
<g id="a_node32"><a xlink:href="classv8_1_1Map.html" target="_top" xlink:title=" ">
<polygon fill="white" stroke="black" points="418.5,-551.5 418.5,-570.5 468.5,-570.5 468.5,-551.5 418.5,-551.5"/>
<text text-anchor="middle" x="443.5" y="-558.5" font-family="Helvetica,sans-Serif" font-size="10.00">v8::Map</text>
</a>
</g>
</g>
<!-- Node9&#45;&gt;Node31 -->
<g id="edge31" class="edge">
<title>Node9&#45;&gt;Node31</title>
<path fill="none" stroke="midnightblue" d="M332.91,-516.91C338.03,-518.84 343.17,-520.89 348,-523 364.58,-530.24 367.34,-534.96 384,-542 395.02,-546.66 407.59,-550.87 418.25,-554.15"/>
<polygon fill="midnightblue" stroke="midnightblue" points="333.76,-513.5 323.17,-513.38 331.38,-520.08 333.76,-513.5"/>
</g>
<!-- Node32 -->
<g id="node33" class="node">
<title>Node32</title>
<g id="a_node33"><a xlink:href="classv8_1_1NumberObject.html" target="_top" xlink:title=" ">
<polygon fill="white" stroke="black" points="396,-513.5 396,-532.5 491,-532.5 491,-513.5 396,-513.5"/>
<text text-anchor="middle" x="443.5" y="-520.5" font-family="Helvetica,sans-Serif" font-size="10.00">v8::NumberObject</text>
</a>
</g>
</g>
<!-- Node9&#45;&gt;Node32 -->
<g id="edge32" class="edge">
<title>Node9&#45;&gt;Node32</title>
<path fill="none" stroke="midnightblue" d="M333.28,-509.03C352.53,-511.49 375.84,-514.47 395.98,-517.05"/>
<polygon fill="midnightblue" stroke="midnightblue" points="333.7,-505.55 323.34,-507.75 332.81,-512.49 333.7,-505.55"/>
</g>
<!-- Node33 -->
<g id="node34" class="node">
<title>Node33</title>
<g id="a_node34"><a xlink:href="classv8_1_1Promise.html" target="_top" xlink:title=" ">
<polygon fill="white" stroke="black" points="409.5,-475.5 409.5,-494.5 477.5,-494.5 477.5,-475.5 409.5,-475.5"/>
<text text-anchor="middle" x="443.5" y="-482.5" font-family="Helvetica,sans-Serif" font-size="10.00">v8::Promise</text>
</a>
</g>
</g>
<!-- Node9&#45;&gt;Node33 -->
<g id="edge33" class="edge">
<title>Node9&#45;&gt;Node33</title>
<path fill="none" stroke="midnightblue" d="M333.41,-498.96C357.08,-495.93 386.87,-492.12 409.34,-489.24"/>
<polygon fill="midnightblue" stroke="midnightblue" points="332.81,-495.51 323.34,-500.25 333.7,-502.45 332.81,-495.51"/>
</g>
<!-- Node34 -->
<g id="node35" class="node">
<title>Node34</title>
<g id="a_node35"><a xlink:href="classv8_1_1Promise_1_1Resolver.html" target="_top" xlink:title=" ">
<polygon fill="white" stroke="black" points="388.5,-437.5 388.5,-456.5 498.5,-456.5 498.5,-437.5 388.5,-437.5"/>
<text text-anchor="middle" x="443.5" y="-444.5" font-family="Helvetica,sans-Serif" font-size="10.00">v8::Promise::Resolver</text>
</a>
</g>
</g>
<!-- Node9&#45;&gt;Node34 -->
<g id="edge34" class="edge">
<title>Node9&#45;&gt;Node34</title>
<path fill="none" stroke="midnightblue" d="M324.81,-490.22C342.07,-482.7 364.07,-473.43 384,-466 392.81,-462.72 402.47,-459.45 411.36,-456.57"/>
<polygon fill="midnightblue" stroke="midnightblue" points="323,-487.19 315.25,-494.42 325.81,-493.6 323,-487.19"/>
</g>
<!-- Node35 -->
<g id="node36" class="node">
<title>Node35</title>
<g id="a_node36"><a xlink:href="classv8_1_1Proxy.html" target="_top" xlink:title=" ">
<polygon fill="white" stroke="black" points="415.5,-399.5 415.5,-418.5 471.5,-418.5 471.5,-399.5 415.5,-399.5"/>
<text text-anchor="middle" x="443.5" y="-406.5" font-family="Helvetica,sans-Serif" font-size="10.00">v8::Proxy</text>
</a>
</g>
</g>
<!-- Node9&#45;&gt;Node35 -->
<g id="edge35" class="edge">
<title>Node9&#45;&gt;Node35</title>
<path fill="none" stroke="midnightblue" d="M310.19,-486.89C327.15,-469.84 355.28,-443.98 384,-428 393.71,-422.6 405.18,-418.45 415.38,-415.43"/>
<polygon fill="midnightblue" stroke="midnightblue" points="307.28,-484.86 302.81,-494.46 312.29,-489.75 307.28,-484.86"/>
</g>
<!-- Node36 -->
<g id="node37" class="node">
<title>Node36</title>
<g id="a_node37"><a xlink:href="classv8_1_1RegExp.html" target="_top" xlink:title=" ">
<polygon fill="white" stroke="black" points="411,-361.5 411,-380.5 476,-380.5 476,-361.5 411,-361.5"/>
<text text-anchor="middle" x="443.5" y="-368.5" font-family="Helvetica,sans-Serif" font-size="10.00">v8::RegExp</text>
</a>
</g>
</g>
<!-- Node9&#45;&gt;Node36 -->
<g id="edge36" class="edge">
<title>Node9&#45;&gt;Node36</title>
<path fill="none" stroke="midnightblue" d="M303.85,-485.61C318.22,-460.46 347.28,-415.57 384,-390 391.97,-384.45 401.67,-380.44 410.86,-377.58"/>
<polygon fill="midnightblue" stroke="midnightblue" points="300.71,-484.04 298.92,-494.49 306.83,-487.44 300.71,-484.04"/>
</g>
<!-- Node37 -->
<g id="node38" class="node">
<title>Node37</title>
<g id="a_node38"><a xlink:href="classv8_1_1Set.html" target="_top" xlink:title=" ">
<polygon fill="white" stroke="black" points="420,-323.5 420,-342.5 467,-342.5 467,-323.5 420,-323.5"/>
<text text-anchor="middle" x="443.5" y="-330.5" font-family="Helvetica,sans-Serif" font-size="10.00">v8::Set</text>
</a>
</g>
</g>
<!-- Node9&#45;&gt;Node37 -->
<g id="edge37" class="edge">
<title>Node9&#45;&gt;Node37</title>
<path fill="none" stroke="midnightblue" d="M300.36,-484.57C311.88,-452.34 339.26,-387.82 384,-352 394.25,-343.79 408.16,-339.08 419.84,-336.41"/>
<polygon fill="midnightblue" stroke="midnightblue" points="297,-483.58 297.05,-494.18 303.62,-485.86 297,-483.58"/>
</g>
<!-- Node38 -->
<g id="node39" class="node">
<title>Node38</title>
<g id="a_node39"><a xlink:href="classv8_1_1SharedArrayBuffer.html" target="_top" xlink:title=" ">
<polygon fill="white" stroke="black" points="388.5,-285.5 388.5,-304.5 498.5,-304.5 498.5,-285.5 388.5,-285.5"/>
<text text-anchor="middle" x="443.5" y="-292.5" font-family="Helvetica,sans-Serif" font-size="10.00">v8::SharedArrayBuffer</text>
</a>
</g>
</g>
<!-- Node9&#45;&gt;Node38 -->
<g id="edge38" class="edge">
<title>Node9&#45;&gt;Node38</title>
<path fill="none" stroke="midnightblue" d="M297.94,-484.11C306.59,-445.64 330.86,-360.72 384,-314 388.41,-310.12 393.63,-307.03 399.1,-304.57"/>
<polygon fill="midnightblue" stroke="midnightblue" points="294.48,-483.55 295.82,-494.06 301.33,-485.01 294.48,-483.55"/>
</g>
<!-- Node39 -->
<g id="node40" class="node">
<title>Node39</title>
<g id="a_node40"><a xlink:href="classv8_1_1StringObject.html" target="_top" xlink:title=" ">
<polygon fill="white" stroke="black" points="400.5,-247.5 400.5,-266.5 486.5,-266.5 486.5,-247.5 400.5,-247.5"/>
<text text-anchor="middle" x="443.5" y="-254.5" font-family="Helvetica,sans-Serif" font-size="10.00">v8::StringObject</text>
</a>
</g>
</g>
<!-- Node9&#45;&gt;Node39 -->
<g id="edge39" class="edge">
<title>Node9&#45;&gt;Node39</title>
<path fill="none" stroke="midnightblue" d="M296.17,-484.16C302.01,-440.26 322.1,-334.18 384,-276 388.67,-271.61 394.36,-268.24 400.34,-265.64"/>
<polygon fill="midnightblue" stroke="midnightblue" points="292.69,-483.79 294.94,-494.14 299.63,-484.64 292.69,-483.79"/>
</g>
<!-- Node40 -->
<g id="node41" class="node">
<title>Node40</title>
<g id="a_node41"><a xlink:href="classv8_1_1SymbolObject.html" target="_top" xlink:title=" ">
<polygon fill="white" stroke="black" points="397.5,-209.5 397.5,-228.5 489.5,-228.5 489.5,-209.5 397.5,-209.5"/>
<text text-anchor="middle" x="443.5" y="-216.5" font-family="Helvetica,sans-Serif" font-size="10.00">v8::SymbolObject</text>
</a>
</g>
</g>
<!-- Node9&#45;&gt;Node40 -->
<g id="edge40" class="edge">
<title>Node9&#45;&gt;Node40</title>
<path fill="none" stroke="midnightblue" d="M294.87,-484.28C298.09,-435.48 313.2,-307.94 384,-238 387.95,-234.1 392.71,-231 397.79,-228.53"/>
<polygon fill="midnightblue" stroke="midnightblue" points="291.36,-484.25 294.3,-494.43 298.35,-484.64 291.36,-484.25"/>
</g>
<!-- Node41 -->
<g id="node42" class="node">
<title>Node41</title>
<g id="a_node42"><a xlink:href="classv8_1_1WasmModuleObject.html" target="_top" xlink:title=" ">
<polygon fill="white" stroke="black" points="384,-171.5 384,-190.5 503,-190.5 503,-171.5 384,-171.5"/>
<text text-anchor="middle" x="443.5" y="-178.5" font-family="Helvetica,sans-Serif" font-size="10.00">v8::WasmModuleObject</text>
</a>
</g>
</g>
<!-- Node9&#45;&gt;Node41 -->
<g id="edge41" class="edge">
<title>Node9&#45;&gt;Node41</title>
<path fill="none" stroke="midnightblue" d="M293.89,-484.05C294.69,-430.42 304.39,-281.73 384,-200 387.8,-196.1 392.41,-193 397.35,-190.53"/>
<polygon fill="midnightblue" stroke="midnightblue" points="290.39,-484.23 293.83,-494.25 297.39,-484.27 290.39,-484.23"/>
</g>
<!-- Node13 -->
<g id="node14" class="node">
<title>Node13</title>
<g id="a_node14"><a xlink:href="classv8_1_1DataView.html" target="_top" xlink:title=" ">
<polygon fill="white" stroke="black" points="542,-798.5 542,-817.5 616,-817.5 616,-798.5 542,-798.5"/>
<text text-anchor="middle" x="579" y="-805.5" font-family="Helvetica,sans-Serif" font-size="10.00">v8::DataView</text>
</a>
</g>
</g>
<!-- Node12&#45;&gt;Node13 -->
<g id="edge13" class="edge">
<title>Node12&#45;&gt;Node13</title>
<path fill="none" stroke="midnightblue" d="M504.3,-797.51C517.02,-799.32 530.07,-801.18 541.6,-802.82"/>
<polygon fill="midnightblue" stroke="midnightblue" points="504.6,-794.02 494.21,-796.07 503.62,-800.95 504.6,-794.02"/>
</g>
<!-- Node14 -->
<g id="node15" class="node">
<title>Node14</title>
<g id="a_node15"><a xlink:href="classv8_1_1TypedArray.html" target="_top" xlink:title=" ">
<polygon fill="white" stroke="black" points="539,-760.5 539,-779.5 619,-779.5 619,-760.5 539,-760.5"/>
<text text-anchor="middle" x="579" y="-767.5" font-family="Helvetica,sans-Serif" font-size="10.00">v8::TypedArray</text>
</a>
</g>
</g>
<!-- Node12&#45;&gt;Node14 -->
<g id="edge14" class="edge">
<title>Node12&#45;&gt;Node14</title>
<path fill="none" stroke="midnightblue" d="M504.33,-780.48C515.97,-778.83 527.9,-777.13 538.67,-775.6"/>
<polygon fill="midnightblue" stroke="midnightblue" points="503.62,-777.05 494.21,-781.93 504.6,-783.98 503.62,-777.05"/>
</g>
<!-- Node15 -->
<g id="node16" class="node">
<title>Node15</title>
<g id="a_node16"><a xlink:href="classv8_1_1BigInt64Array.html" target="_top" xlink:title=" ">
<polygon fill="white" stroke="black" points="668,-950.5 668,-969.5 758,-969.5 758,-950.5 668,-950.5"/>
<text text-anchor="middle" x="713" y="-957.5" font-family="Helvetica,sans-Serif" font-size="10.00">v8::BigInt64Array</text>
</a>
</g>
</g>
<!-- Node14&#45;&gt;Node15 -->
<g id="edge15" class="edge">
<title>Node14&#45;&gt;Node15</title>
<path fill="none" stroke="midnightblue" d="M615.92,-785.67C617.03,-786.72 618.06,-787.82 619,-789 662.38,-843.2 608.15,-889.77 655,-941 658.59,-944.93 663.01,-948.04 667.79,-950.51"/>
<polygon fill="midnightblue" stroke="midnightblue" points="617.94,-782.81 607.82,-779.68 613.78,-788.44 617.94,-782.81"/>
</g>
<!-- Node16 -->
<g id="node17" class="node">
<title>Node16</title>
<g id="a_node17"><a xlink:href="classv8_1_1BigUint64Array.html" target="_top" xlink:title=" ">
<polygon fill="white" stroke="black" points="664.5,-912.5 664.5,-931.5 761.5,-931.5 761.5,-912.5 664.5,-912.5"/>
<text text-anchor="middle" x="713" y="-919.5" font-family="Helvetica,sans-Serif" font-size="10.00">v8::BigUint64Array</text>
</a>
</g>
</g>
<!-- Node14&#45;&gt;Node16 -->
<g id="edge16" class="edge">
<title>Node14&#45;&gt;Node16</title>
<path fill="none" stroke="midnightblue" d="M615.71,-785.67C616.88,-786.71 617.99,-787.82 619,-789 653.7,-829.24 617.73,-865.13 655,-903 658.8,-906.87 663.42,-909.95 668.35,-912.4"/>
<polygon fill="midnightblue" stroke="midnightblue" points="617.38,-782.56 607.2,-779.64 613.34,-788.28 617.38,-782.56"/>
</g>
<!-- Node17 -->
<g id="node18" class="node">
<title>Node17</title>
<g id="a_node18"><a xlink:href="classv8_1_1Float32Array.html" target="_top" xlink:title=" ">
<polygon fill="white" stroke="black" points="670,-874.5 670,-893.5 756,-893.5 756,-874.5 670,-874.5"/>
<text text-anchor="middle" x="713" y="-881.5" font-family="Helvetica,sans-Serif" font-size="10.00">v8::Float32Array</text>
</a>
</g>
</g>
<!-- Node14&#45;&gt;Node17 -->
<g id="edge17" class="edge">
<title>Node14&#45;&gt;Node17</title>
<path fill="none" stroke="midnightblue" d="M614.49,-785.05C616.09,-786.28 617.61,-787.59 619,-789 645.28,-815.57 627.03,-840.21 655,-865 659.37,-868.87 664.56,-871.96 669.99,-874.42"/>
<polygon fill="midnightblue" stroke="midnightblue" points="616.28,-782.03 605.98,-779.58 612.5,-787.93 616.28,-782.03"/>
</g>
<!-- Node18 -->
<g id="node19" class="node">
<title>Node18</title>
<g id="a_node19"><a xlink:href="classv8_1_1Float64Array.html" target="_top" xlink:title=" ">
<polygon fill="white" stroke="black" points="670,-836.5 670,-855.5 756,-855.5 756,-836.5 670,-836.5"/>
<text text-anchor="middle" x="713" y="-843.5" font-family="Helvetica,sans-Serif" font-size="10.00">v8::Float64Array</text>
</a>
</g>
</g>
<!-- Node14&#45;&gt;Node18 -->
<g id="edge18" class="edge">
<title>Node14&#45;&gt;Node18</title>
<path fill="none" stroke="midnightblue" d="M612.01,-784.4C614.44,-785.85 616.8,-787.39 619,-789 637.76,-802.76 635.38,-814.5 655,-827 660.98,-830.81 667.81,-833.94 674.61,-836.47"/>
<polygon fill="midnightblue" stroke="midnightblue" points="613.52,-781.24 603.07,-779.54 610.18,-787.39 613.52,-781.24"/>
</g>
<!-- Node19 -->
<g id="node20" class="node">
<title>Node19</title>
<g id="a_node20"><a xlink:href="classv8_1_1Int16Array.html" target="_top" xlink:title=" ">
<polygon fill="white" stroke="black" points="675,-798.5 675,-817.5 751,-817.5 751,-798.5 675,-798.5"/>
<text text-anchor="middle" x="713" y="-805.5" font-family="Helvetica,sans-Serif" font-size="10.00">v8::Int16Array</text>
</a>
</g>
</g>
<!-- Node14&#45;&gt;Node19 -->
<g id="edge19" class="edge">
<title>Node14&#45;&gt;Node19</title>
<path fill="none" stroke="midnightblue" d="M623.04,-782.39C641.12,-787.59 661.82,-793.55 678.7,-798.41"/>
<polygon fill="midnightblue" stroke="midnightblue" points="623.89,-778.99 613.31,-779.59 621.95,-785.72 623.89,-778.99"/>
</g>
<!-- Node20 -->
<g id="node21" class="node">
<title>Node20</title>
<g id="a_node21"><a xlink:href="classv8_1_1Int32Array.html" target="_top" xlink:title=" ">
<polygon fill="white" stroke="black" points="675,-760.5 675,-779.5 751,-779.5 751,-760.5 675,-760.5"/>
<text text-anchor="middle" x="713" y="-767.5" font-family="Helvetica,sans-Serif" font-size="10.00">v8::Int32Array</text>
</a>
</g>
</g>
<!-- Node14&#45;&gt;Node20 -->
<g id="edge20" class="edge">
<title>Node14&#45;&gt;Node20</title>
<path fill="none" stroke="midnightblue" d="M629.45,-770C644.52,-770 660.83,-770 674.94,-770"/>
<polygon fill="midnightblue" stroke="midnightblue" points="629.25,-766.5 619.25,-770 629.25,-773.5 629.25,-766.5"/>
</g>
<!-- Node21 -->
<g id="node22" class="node">
<title>Node21</title>
<g id="a_node22"><a xlink:href="classv8_1_1Int8Array.html" target="_top" xlink:title=" ">
<polygon fill="white" stroke="black" points="677.5,-722.5 677.5,-741.5 748.5,-741.5 748.5,-722.5 677.5,-722.5"/>
<text text-anchor="middle" x="713" y="-729.5" font-family="Helvetica,sans-Serif" font-size="10.00">v8::Int8Array</text>
</a>
</g>
</g>
<!-- Node14&#45;&gt;Node21 -->
<g id="edge21" class="edge">
<title>Node14&#45;&gt;Node21</title>
<path fill="none" stroke="midnightblue" d="M623.04,-757.61C641.12,-752.41 661.82,-746.45 678.7,-741.59"/>
<polygon fill="midnightblue" stroke="midnightblue" points="621.95,-754.28 613.31,-760.41 623.89,-761.01 621.95,-754.28"/>
</g>
<!-- Node22 -->
<g id="node23" class="node">
<title>Node22</title>
<g id="a_node23"><a xlink:href="classv8_1_1Uint16Array.html" target="_top" xlink:title=" ">
<polygon fill="white" stroke="black" points="671.5,-684.5 671.5,-703.5 754.5,-703.5 754.5,-684.5 671.5,-684.5"/>
<text text-anchor="middle" x="713" y="-691.5" font-family="Helvetica,sans-Serif" font-size="10.00">v8::Uint16Array</text>
</a>
</g>
</g>
<!-- Node14&#45;&gt;Node22 -->
<g id="edge22" class="edge">
<title>Node14&#45;&gt;Node22</title>
<path fill="none" stroke="midnightblue" d="M598.11,-753.51C612.62,-740.99 633.96,-724.11 655,-713 661.92,-709.35 669.68,-706.2 677.19,-703.58"/>
<polygon fill="midnightblue" stroke="midnightblue" points="595.6,-751.05 590.41,-760.29 600.23,-756.31 595.6,-751.05"/>
</g>
<!-- Node23 -->
<g id="node24" class="node">
<title>Node23</title>
<g id="a_node24"><a xlink:href="classv8_1_1Uint32Array.html" target="_top" xlink:title=" ">
<polygon fill="white" stroke="black" points="671.5,-646.5 671.5,-665.5 754.5,-665.5 754.5,-646.5 671.5,-646.5"/>
<text text-anchor="middle" x="713" y="-653.5" font-family="Helvetica,sans-Serif" font-size="10.00">v8::Uint32Array</text>
</a>
</g>
</g>
<!-- Node14&#45;&gt;Node23 -->
<g id="edge23" class="edge">
<title>Node14&#45;&gt;Node23</title>
<path fill="none" stroke="midnightblue" d="M590.01,-751.65C602.53,-730.31 625.92,-695.42 655,-675 660.46,-671.16 666.76,-668.06 673.13,-665.56"/>
<polygon fill="midnightblue" stroke="midnightblue" points="586.93,-749.98 585.03,-760.4 593.02,-753.43 586.93,-749.98"/>
</g>
<!-- Node24 -->
<g id="node25" class="node">
<title>Node24</title>
<g id="a_node25"><a xlink:href="classv8_1_1Uint8Array.html" target="_top" xlink:title=" ">
<polygon fill="white" stroke="black" points="674.5,-608.5 674.5,-627.5 751.5,-627.5 751.5,-608.5 674.5,-608.5"/>
<text text-anchor="middle" x="713" y="-615.5" font-family="Helvetica,sans-Serif" font-size="10.00">v8::Uint8Array</text>
</a>
</g>
</g>
<!-- Node14&#45;&gt;Node24 -->
<g id="edge24" class="edge">
<title>Node14&#45;&gt;Node24</title>
<path fill="none" stroke="midnightblue" d="M585.88,-750.67C595.63,-721.83 617.82,-667.66 655,-637 660.63,-632.35 667.45,-628.83 674.38,-626.16"/>
<polygon fill="midnightblue" stroke="midnightblue" points="582.49,-749.79 582.75,-760.38 589.15,-751.94 582.49,-749.79"/>
</g>
<!-- Node25 -->
<g id="node26" class="node">
<title>Node25</title>
<g id="a_node26"><a xlink:href="classv8_1_1Uint8ClampedArray.html" target="_top" xlink:title=" ">
<polygon fill="white" stroke="black" points="655,-570.5 655,-589.5 771,-589.5 771,-570.5 655,-570.5"/>
<text text-anchor="middle" x="713" y="-577.5" font-family="Helvetica,sans-Serif" font-size="10.00">v8::Uint8ClampedArray</text>
</a>
</g>
</g>
<!-- Node14&#45;&gt;Node25 -->
<g id="edge25" class="edge">
<title>Node14&#45;&gt;Node25</title>
<path fill="none" stroke="midnightblue" d="M583.27,-750.26C590.15,-714.91 609.4,-640.6 655,-599 659.24,-595.13 664.29,-592.05 669.6,-589.59"/>
<polygon fill="midnightblue" stroke="midnightblue" points="579.79,-749.82 581.45,-760.28 586.68,-751.06 579.79,-749.82"/>
</g>
<!-- Node43 -->
<g id="node44" class="node">
<title>Node43</title>
<g id="a_node44"><a xlink:href="classv8_1_1BigInt.html" target="_top" xlink:title=" ">
<polygon fill="white" stroke="black" points="415,-133.5 415,-152.5 472,-152.5 472,-133.5 415,-133.5"/>
<text text-anchor="middle" x="443.5" y="-140.5" font-family="Helvetica,sans-Serif" font-size="10.00">v8::BigInt</text>
</a>
</g>
</g>
<!-- Node42&#45;&gt;Node43 -->
<g id="edge43" class="edge">
<title>Node42&#45;&gt;Node43</title>
<path fill="none" stroke="midnightblue" d="M337.97,-116.25C362.77,-122.6 393,-130.33 414.56,-135.85"/>
<polygon fill="midnightblue" stroke="midnightblue" points="338.62,-112.81 328.07,-113.72 336.89,-119.59 338.62,-112.81"/>
</g>
<!-- Node44 -->
<g id="node45" class="node">
<title>Node44</title>
<g id="a_node45"><a xlink:href="classv8_1_1Boolean.html" target="_top" xlink:title=" ">
<polygon fill="white" stroke="black" points="410,-95.5 410,-114.5 477,-114.5 477,-95.5 410,-95.5"/>
<text text-anchor="middle" x="443.5" y="-102.5" font-family="Helvetica,sans-Serif" font-size="10.00">v8::Boolean</text>
</a>
</g>
</g>
<!-- Node42&#45;&gt;Node44 -->
<g id="edge44" class="edge">
<title>Node42&#45;&gt;Node44</title>
<path fill="none" stroke="midnightblue" d="M338.27,-105C361.25,-105 388.84,-105 409.86,-105"/>
<polygon fill="midnightblue" stroke="midnightblue" points="338.07,-101.5 328.07,-105 338.07,-108.5 338.07,-101.5"/>
</g>
<!-- Node45 -->
<g id="node46" class="node">
<title>Node45</title>
<g id="a_node46"><a xlink:href="classv8_1_1Name.html" target="_top" xlink:title=" ">
<polygon fill="white" stroke="black" points="414.5,-57.5 414.5,-76.5 472.5,-76.5 472.5,-57.5 414.5,-57.5"/>
<text text-anchor="middle" x="443.5" y="-64.5" font-family="Helvetica,sans-Serif" font-size="10.00">v8::Name</text>
</a>
</g>
</g>
<!-- Node42&#45;&gt;Node45 -->
<g id="edge45" class="edge">
<title>Node42&#45;&gt;Node45</title>
<path fill="none" stroke="midnightblue" d="M337.9,-93.77C362.53,-87.46 392.53,-79.79 414.08,-74.27"/>
<polygon fill="midnightblue" stroke="midnightblue" points="336.89,-90.41 328.07,-96.28 338.62,-97.19 336.89,-90.41"/>
</g>
<!-- Node48 -->
<g id="node49" class="node">
<title>Node48</title>
<g id="a_node49"><a xlink:href="classv8_1_1Number.html" target="_top" xlink:title=" ">
<polygon fill="white" stroke="black" points="410.5,-19.5 410.5,-38.5 476.5,-38.5 476.5,-19.5 410.5,-19.5"/>
<text text-anchor="middle" x="443.5" y="-26.5" font-family="Helvetica,sans-Serif" font-size="10.00">v8::Number</text>
</a>
</g>
</g>
<!-- Node42&#45;&gt;Node48 -->
<g id="edge48" class="edge">
<title>Node42&#45;&gt;Node48</title>
<path fill="none" stroke="midnightblue" d="M315.25,-89.38C332.96,-76.91 359.2,-59.66 384,-48 392.31,-44.09 401.64,-40.67 410.37,-37.84"/>
<polygon fill="midnightblue" stroke="midnightblue" points="312.92,-86.75 306.82,-95.41 316.99,-92.44 312.92,-86.75"/>
</g>
<!-- Node46 -->
<g id="node47" class="node">
<title>Node46</title>
<g id="a_node47"><a xlink:href="classv8_1_1String.html" target="_top" xlink:title=" ">
<polygon fill="white" stroke="black" points="550.5,-95.5 550.5,-114.5 607.5,-114.5 607.5,-95.5 550.5,-95.5"/>
<text text-anchor="middle" x="579" y="-102.5" font-family="Helvetica,sans-Serif" font-size="10.00">v8::String</text>
</a>
</g>
</g>
<!-- Node45&#45;&gt;Node46 -->
<g id="edge46" class="edge">
<title>Node45&#45;&gt;Node46</title>
<path fill="none" stroke="midnightblue" d="M482.63,-77.85C504.17,-83.98 530.61,-91.51 550.19,-97.08"/>
<polygon fill="midnightblue" stroke="midnightblue" points="483.39,-74.43 472.81,-75.06 481.47,-81.16 483.39,-74.43"/>
</g>
<!-- Node47 -->
<g id="node48" class="node">
<title>Node47</title>
<g id="a_node48"><a xlink:href="classv8_1_1Symbol.html" target="_top" xlink:title=" ">
<polygon fill="white" stroke="black" points="547,-57.5 547,-76.5 611,-76.5 611,-57.5 547,-57.5"/>
<text text-anchor="middle" x="579" y="-64.5" font-family="Helvetica,sans-Serif" font-size="10.00">v8::Symbol</text>
</a>
</g>
</g>
<!-- Node45&#45;&gt;Node47 -->
<g id="edge47" class="edge">
<title>Node45&#45;&gt;Node47</title>
<path fill="none" stroke="midnightblue" d="M482.99,-67C503.28,-67 527.86,-67 546.93,-67"/>
<polygon fill="midnightblue" stroke="midnightblue" points="482.81,-63.5 472.81,-67 482.81,-70.5 482.81,-63.5"/>
</g>
<!-- Node49 -->
<g id="node50" class="node">
<title>Node49</title>
<g id="a_node50"><a xlink:href="classv8_1_1Integer.html" target="_top" xlink:title=" ">
<polygon fill="white" stroke="black" points="548,-19.5 548,-38.5 610,-38.5 610,-19.5 548,-19.5"/>
<text text-anchor="middle" x="579" y="-26.5" font-family="Helvetica,sans-Serif" font-size="10.00">v8::Integer</text>
</a>
</g>
</g>
<!-- Node48&#45;&gt;Node49 -->
<g id="edge49" class="edge">
<title>Node48&#45;&gt;Node49</title>
<path fill="none" stroke="midnightblue" d="M486.83,-29C506.65,-29 529.8,-29 547.81,-29"/>
<polygon fill="midnightblue" stroke="midnightblue" points="486.82,-25.5 476.82,-29 486.82,-32.5 486.82,-25.5"/>
</g>
<!-- Node50 -->
<g id="node51" class="node">
<title>Node50</title>
<g id="a_node51"><a xlink:href="classv8_1_1Int32.html" target="_top" xlink:title=" ">
<polygon fill="white" stroke="black" points="686.5,-38.5 686.5,-57.5 739.5,-57.5 739.5,-38.5 686.5,-38.5"/>
<text text-anchor="middle" x="713" y="-45.5" font-family="Helvetica,sans-Serif" font-size="10.00">v8::Int32</text>
</a>
</g>
</g>
<!-- Node49&#45;&gt;Node50 -->
<g id="edge50" class="edge">
<title>Node49&#45;&gt;Node50</title>
<path fill="none" stroke="midnightblue" d="M620.42,-34.82C641.87,-37.91 667.59,-41.61 686.3,-44.3"/>
<polygon fill="midnightblue" stroke="midnightblue" points="620.68,-31.32 610.28,-33.36 619.68,-38.25 620.68,-31.32"/>
</g>
<!-- Node51 -->
<g id="node52" class="node">
<title>Node51</title>
<g id="a_node52"><a xlink:href="classv8_1_1Uint32.html" target="_top" xlink:title=" ">
<polygon fill="white" stroke="black" points="683,-0.5 683,-19.5 743,-19.5 743,-0.5 683,-0.5"/>
<text text-anchor="middle" x="713" y="-7.5" font-family="Helvetica,sans-Serif" font-size="10.00">v8::Uint32</text>
</a>
</g>
</g>
<!-- Node49&#45;&gt;Node51 -->
<g id="edge51" class="edge">
<title>Node49&#45;&gt;Node51</title>
<path fill="none" stroke="midnightblue" d="M620.42,-23.18C640.55,-20.28 664.43,-16.85 682.77,-14.21"/>
<polygon fill="midnightblue" stroke="midnightblue" points="619.68,-19.75 610.28,-24.64 620.68,-26.68 619.68,-19.75"/>
</g>
</g>
</svg>
