<?xml version="1.0" encoding="UTF-8" standalone="no"?>
<!DOCTYPE svg PUBLIC "-//W3C//DTD SVG 1.1//EN"
 "http://www.w3.org/Graphics/SVG/1.1/DTD/svg11.dtd">
<!-- Generated by graphviz version 2.44.0 ()
 -->
<!-- Title: v8::UnwindState Pages: 1 -->
<svg width="244pt" height="164pt"
 viewBox="0.00 0.00 244.00 164.00" xmlns="http://www.w3.org/2000/svg" xmlns:xlink="http://www.w3.org/1999/xlink">
<g id="graph0" class="graph" transform="scale(1 1) rotate(0) translate(4 160)">
<title>v8::UnwindState</title>
<polygon fill="white" stroke="transparent" points="-4,4 -4,-160 240,-160 240,4 -4,4"/>
<!-- Node1 -->
<g id="node1" class="node">
<title>Node1</title>
<g id="a_node1"><a xlink:title=" ">
<polygon fill="#bfbfbf" stroke="black" points="3,-0.5 3,-19.5 91,-19.5 91,-0.5 3,-0.5"/>
<text text-anchor="middle" x="47" y="-7.5" font-family="Helvetica,sans-Serif" font-size="10.00">v8::UnwindState</text>
</a>
</g>
</g>
<!-- Node2 -->
<g id="node2" class="node">
<title>Node2</title>
<g id="a_node2"><a xlink:href="structv8_1_1MemoryRange.html" target="_top" xlink:title=" ">
<polygon fill="white" stroke="black" points="0,-136.5 0,-155.5 94,-155.5 94,-136.5 0,-136.5"/>
<text text-anchor="middle" x="47" y="-143.5" font-family="Helvetica,sans-Serif" font-size="10.00">v8::MemoryRange</text>
</a>
</g>
</g>
<!-- Node2&#45;&gt;Node1 -->
<g id="edge1" class="edge">
<title>Node2&#45;&gt;Node1</title>
<path fill="none" stroke="#9a32cd" stroke-dasharray="5,2" d="M43.73,-126.32C41.34,-110.53 38.74,-87.31 40,-67 41.05,-50.18 43.85,-30.68 45.57,-19.7"/>
<polygon fill="#9a32cd" stroke="#9a32cd" points="40.3,-127.05 45.36,-136.36 47.21,-125.92 40.3,-127.05"/>
<text text-anchor="middle" x="90.5" y="-81" font-family="Helvetica,sans-Serif" font-size="10.00"> code_range</text>
<text text-anchor="middle" x="90.5" y="-70" font-family="Helvetica,sans-Serif" font-size="10.00">embedded_code_range</text>
</g>
<!-- Node3 -->
<g id="node3" class="node">
<title>Node3</title>
<g id="a_node3"><a xlink:href="structv8_1_1JSEntryStub.html" target="_top" xlink:title=" ">
<polygon fill="white" stroke="black" points="150,-68.5 150,-87.5 236,-87.5 236,-68.5 150,-68.5"/>
<text text-anchor="middle" x="193" y="-75.5" font-family="Helvetica,sans-Serif" font-size="10.00">v8::JSEntryStub</text>
</a>
</g>
</g>
<!-- Node2&#45;&gt;Node3 -->
<g id="edge3" class="edge">
<title>Node2&#45;&gt;Node3</title>
<path fill="none" stroke="#9a32cd" stroke-dasharray="5,2" d="M75.3,-132.21C104.35,-119.07 148.77,-99 173.91,-87.63"/>
<polygon fill="#9a32cd" stroke="#9a32cd" points="73.76,-129.06 66.09,-136.37 76.64,-135.44 73.76,-129.06"/>
<text text-anchor="middle" x="140" y="-110" font-family="Helvetica,sans-Serif" font-size="10.00"> code</text>
</g>
<!-- Node3&#45;&gt;Node1 -->
<g id="edge2" class="edge">
<title>Node3&#45;&gt;Node1</title>
<path fill="none" stroke="#9a32cd" stroke-dasharray="5,2" d="M164.7,-64.21C135.65,-51.07 91.23,-31 66.09,-19.63"/>
<polygon fill="#9a32cd" stroke="#9a32cd" points="163.36,-67.44 173.91,-68.37 166.24,-61.06 163.36,-67.44"/>
<text text-anchor="middle" x="158.5" y="-41" font-family="Helvetica,sans-Serif" font-size="10.00"> js_entry_stub</text>
</g>
</g>
</svg>
