<?xml version="1.0" encoding="UTF-8" standalone="no"?>
<!DOCTYPE svg PUBLIC "-//W3C//DTD SVG 1.1//EN"
 "http://www.w3.org/Graphics/SVG/1.1/DTD/svg11.dtd">
<!-- Generated by graphviz version 2.44.0 ()
 -->
<!-- Title: include/v8&#45;inspector&#45;protocol.h Pages: 1 -->
<svg width="835pt" height="263pt"
 viewBox="0.00 0.00 834.50 263.00" xmlns="http://www.w3.org/2000/svg" xmlns:xlink="http://www.w3.org/1999/xlink">
<g id="graph0" class="graph" transform="scale(1 1) rotate(0) translate(4 259)">
<title>include/v8&#45;inspector&#45;protocol.h</title>
<polygon fill="white" stroke="transparent" points="-4,4 -4,-259 830.5,-259 830.5,4 -4,4"/>
<!-- Node1 -->
<g id="node1" class="node">
<title>Node1</title>
<g id="a_node1"><a xlink:title=" ">
<polygon fill="#bfbfbf" stroke="black" points="186,-224.5 186,-254.5 290,-254.5 290,-224.5 186,-224.5"/>
<text text-anchor="start" x="194" y="-242.5" font-family="Helvetica,sans-Serif" font-size="10.00">include/v8&#45;inspector</text>
<text text-anchor="middle" x="238" y="-231.5" font-family="Helvetica,sans-Serif" font-size="10.00">&#45;protocol.h</text>
</a>
</g>
</g>
<!-- Node2 -->
<g id="node2" class="node">
<title>Node2</title>
<g id="a_node2"><a xlink:title=" ">
<polygon fill="white" stroke="#bfbfbf" points="0,-168.5 0,-187.5 108,-187.5 108,-168.5 0,-168.5"/>
<text text-anchor="middle" x="54" y="-175.5" font-family="Helvetica,sans-Serif" font-size="10.00">inspector/Debugger.h</text>
</a>
</g>
</g>
<!-- Node1&#45;&gt;Node2 -->
<g id="edge1" class="edge">
<title>Node1&#45;&gt;Node2</title>
<path fill="none" stroke="midnightblue" d="M194.39,-224.4C162.6,-214.12 120.03,-200.35 90.13,-190.68"/>
<polygon fill="midnightblue" stroke="midnightblue" points="91.1,-187.32 80.51,-187.57 88.94,-193.98 91.1,-187.32"/>
</g>
<!-- Node3 -->
<g id="node3" class="node">
<title>Node3</title>
<g id="a_node3"><a xlink:title=" ">
<polygon fill="white" stroke="#bfbfbf" points="126.5,-168.5 126.5,-187.5 229.5,-187.5 229.5,-168.5 126.5,-168.5"/>
<text text-anchor="middle" x="178" y="-175.5" font-family="Helvetica,sans-Serif" font-size="10.00">inspector/Runtime.h</text>
</a>
</g>
</g>
<!-- Node1&#45;&gt;Node3 -->
<g id="edge2" class="edge">
<title>Node1&#45;&gt;Node3</title>
<path fill="none" stroke="midnightblue" d="M223.78,-224.4C214.79,-215.49 203.16,-203.95 193.87,-194.74"/>
<polygon fill="midnightblue" stroke="midnightblue" points="196.3,-192.21 186.73,-187.66 191.37,-197.18 196.3,-192.21"/>
</g>
<!-- Node4 -->
<g id="node4" class="node">
<title>Node4</title>
<g id="a_node4"><a xlink:title=" ">
<polygon fill="white" stroke="#bfbfbf" points="247.5,-168.5 247.5,-187.5 350.5,-187.5 350.5,-168.5 247.5,-168.5"/>
<text text-anchor="middle" x="299" y="-175.5" font-family="Helvetica,sans-Serif" font-size="10.00">inspector/Schema.h</text>
</a>
</g>
</g>
<!-- Node1&#45;&gt;Node4 -->
<g id="edge3" class="edge">
<title>Node1&#45;&gt;Node4</title>
<path fill="none" stroke="midnightblue" d="M252.46,-224.4C261.59,-215.49 273.42,-203.95 282.86,-194.74"/>
<polygon fill="midnightblue" stroke="midnightblue" points="285.41,-197.15 290.12,-187.66 280.52,-192.13 285.41,-197.15"/>
</g>
<!-- Node5 -->
<g id="node5" class="node">
<title>Node5</title>
<g id="a_node5"><a xlink:href="v8-inspector_8h.html" target="_top" xlink:title=" ">
<polygon fill="white" stroke="black" points="368.5,-168.5 368.5,-187.5 445.5,-187.5 445.5,-168.5 368.5,-168.5"/>
<text text-anchor="middle" x="407" y="-175.5" font-family="Helvetica,sans-Serif" font-size="10.00">v8&#45;inspector.h</text>
</a>
</g>
</g>
<!-- Node1&#45;&gt;Node5 -->
<g id="edge4" class="edge">
<title>Node1&#45;&gt;Node5</title>
<path fill="none" stroke="midnightblue" d="M278.05,-224.4C306.91,-214.24 345.45,-200.67 372.85,-191.02"/>
<polygon fill="midnightblue" stroke="midnightblue" points="374.14,-194.28 382.41,-187.66 371.81,-187.68 374.14,-194.28"/>
</g>
<!-- Node6 -->
<g id="node6" class="node">
<title>Node6</title>
<g id="a_node6"><a xlink:title=" ">
<polygon fill="white" stroke="#bfbfbf" points="299,-0.5 299,-19.5 347,-19.5 347,-0.5 299,-0.5"/>
<text text-anchor="middle" x="323" y="-7.5" font-family="Helvetica,sans-Serif" font-size="10.00">stdint.h</text>
</a>
</g>
</g>
<!-- Node5&#45;&gt;Node6 -->
<g id="edge5" class="edge">
<title>Node5&#45;&gt;Node6</title>
<path fill="none" stroke="midnightblue" d="M372.64,-168.45C330.99,-156.01 262.79,-128.44 234,-76 219.17,-48.98 258.23,-30.23 289.24,-20.04"/>
<polygon fill="midnightblue" stroke="midnightblue" points="290.43,-23.34 298.95,-17.03 288.36,-16.65 290.43,-23.34"/>
</g>
<!-- Node7 -->
<g id="node7" class="node">
<title>Node7</title>
<g id="a_node7"><a xlink:title=" ">
<polygon fill="white" stroke="#bfbfbf" points="499.5,-112.5 499.5,-131.5 544.5,-131.5 544.5,-112.5 499.5,-112.5"/>
<text text-anchor="middle" x="522" y="-119.5" font-family="Helvetica,sans-Serif" font-size="10.00">cctype</text>
</a>
</g>
</g>
<!-- Node5&#45;&gt;Node7 -->
<g id="edge6" class="edge">
<title>Node5&#45;&gt;Node7</title>
<path fill="none" stroke="midnightblue" d="M425.22,-168.44C443.9,-159.68 473.16,-145.94 494.62,-135.86"/>
<polygon fill="midnightblue" stroke="midnightblue" points="496.3,-138.93 503.86,-131.52 493.32,-132.6 496.3,-138.93"/>
</g>
<!-- Node8 -->
<g id="node8" class="node">
<title>Node8</title>
<g id="a_node8"><a xlink:title=" ">
<polygon fill="white" stroke="#bfbfbf" points="243.5,-56.5 243.5,-75.5 294.5,-75.5 294.5,-56.5 243.5,-56.5"/>
<text text-anchor="middle" x="269" y="-63.5" font-family="Helvetica,sans-Serif" font-size="10.00">memory</text>
</a>
</g>
</g>
<!-- Node5&#45;&gt;Node8 -->
<g id="edge7" class="edge">
<title>Node5&#45;&gt;Node8</title>
<path fill="none" stroke="midnightblue" d="M396.17,-168.37C372.69,-149.65 316.86,-105.15 287.61,-81.83"/>
<polygon fill="midnightblue" stroke="midnightblue" points="289.78,-79.09 279.78,-75.59 285.42,-84.56 289.78,-79.09"/>
</g>
<!-- Node9 -->
<g id="node9" class="node">
<title>Node9</title>
<g id="a_node9"><a xlink:href="v8_8h.html" target="_top" xlink:title=" ">
<polygon fill="white" stroke="black" points="446.5,-112.5 446.5,-131.5 481.5,-131.5 481.5,-112.5 446.5,-112.5"/>
<text text-anchor="middle" x="464" y="-119.5" font-family="Helvetica,sans-Serif" font-size="10.00">v8.h</text>
</a>
</g>
</g>
<!-- Node5&#45;&gt;Node9 -->
<g id="edge8" class="edge">
<title>Node5&#45;&gt;Node9</title>
<path fill="none" stroke="midnightblue" d="M416.16,-168.32C424.5,-160.42 437.03,-148.55 447.18,-138.94"/>
<polygon fill="midnightblue" stroke="midnightblue" points="449.82,-141.25 454.68,-131.83 445.01,-136.17 449.82,-141.25"/>
</g>
<!-- Node9&#45;&gt;Node6 -->
<g id="edge10" class="edge">
<title>Node9&#45;&gt;Node6</title>
<path fill="none" stroke="midnightblue" d="M446.34,-119.42C419.87,-116.11 370.03,-106.04 342,-76 330.35,-63.52 325.81,-44.29 324.05,-29.98"/>
<polygon fill="midnightblue" stroke="midnightblue" points="327.52,-29.44 323.16,-19.78 320.54,-30.05 327.52,-29.44"/>
</g>
<!-- Node9&#45;&gt;Node8 -->
<g id="edge12" class="edge">
<title>Node9&#45;&gt;Node8</title>
<path fill="none" stroke="midnightblue" d="M446.35,-116.11C414.39,-107.26 346.37,-88.43 304.48,-76.82"/>
<polygon fill="midnightblue" stroke="midnightblue" points="305.25,-73.41 294.68,-74.11 303.38,-80.15 305.25,-73.41"/>
</g>
<!-- Node10 -->
<g id="node10" class="node">
<title>Node10</title>
<g id="a_node10"><a xlink:title=" ">
<polygon fill="white" stroke="#bfbfbf" points="607.5,-0.5 607.5,-19.5 658.5,-19.5 658.5,-0.5 607.5,-0.5"/>
<text text-anchor="middle" x="633" y="-7.5" font-family="Helvetica,sans-Serif" font-size="10.00">stddef.h</text>
</a>
</g>
</g>
<!-- Node9&#45;&gt;Node10 -->
<g id="edge9" class="edge">
<title>Node9&#45;&gt;Node10</title>
<path fill="none" stroke="midnightblue" d="M481.54,-114.63C484.35,-113.7 487.24,-112.78 490,-112 560.1,-92.05 604.47,-132.92 650,-76 660.89,-62.38 653.27,-42.5 645.03,-28.32"/>
<polygon fill="midnightblue" stroke="midnightblue" points="647.78,-26.11 639.46,-19.56 641.87,-29.87 647.78,-26.11"/>
</g>
<!-- Node11 -->
<g id="node11" class="node">
<title>Node11</title>
<g id="a_node11"><a xlink:title=" ">
<polygon fill="white" stroke="#bfbfbf" points="351.5,-56.5 351.5,-75.5 396.5,-75.5 396.5,-56.5 351.5,-56.5"/>
<text text-anchor="middle" x="374" y="-63.5" font-family="Helvetica,sans-Serif" font-size="10.00">stdio.h</text>
</a>
</g>
</g>
<!-- Node9&#45;&gt;Node11 -->
<g id="edge11" class="edge">
<title>Node9&#45;&gt;Node11</title>
<path fill="none" stroke="midnightblue" d="M449.54,-112.32C435.5,-103.9 413.95,-90.97 397.46,-81.07"/>
<polygon fill="midnightblue" stroke="midnightblue" points="398.8,-77.8 388.42,-75.65 395.2,-83.8 398.8,-77.8"/>
</g>
<!-- Node12 -->
<g id="node12" class="node">
<title>Node12</title>
<g id="a_node12"><a xlink:title=" ">
<polygon fill="white" stroke="#bfbfbf" points="677,-0.5 677,-19.5 739,-19.5 739,-0.5 677,-0.5"/>
<text text-anchor="middle" x="708" y="-7.5" font-family="Helvetica,sans-Serif" font-size="10.00">type_traits</text>
</a>
</g>
</g>
<!-- Node9&#45;&gt;Node12 -->
<g id="edge13" class="edge">
<title>Node9&#45;&gt;Node12</title>
<path fill="none" stroke="midnightblue" d="M481.52,-114.58C484.34,-113.65 487.24,-112.76 490,-112 567.43,-90.82 600.94,-121.62 667,-76 683.43,-64.65 694.66,-44.36 701.16,-29.45"/>
<polygon fill="midnightblue" stroke="midnightblue" points="704.58,-30.34 705.06,-19.76 698.08,-27.73 704.58,-30.34"/>
</g>
<!-- Node13 -->
<g id="node13" class="node">
<title>Node13</title>
<g id="a_node13"><a xlink:title=" ">
<polygon fill="white" stroke="#bfbfbf" points="414.5,-56.5 414.5,-75.5 453.5,-75.5 453.5,-56.5 414.5,-56.5"/>
<text text-anchor="middle" x="434" y="-63.5" font-family="Helvetica,sans-Serif" font-size="10.00">utility</text>
</a>
</g>
</g>
<!-- Node9&#45;&gt;Node13 -->
<g id="edge14" class="edge">
<title>Node9&#45;&gt;Node13</title>
<path fill="none" stroke="midnightblue" d="M459.05,-112.08C454.9,-104.61 448.85,-93.72 443.73,-84.52"/>
<polygon fill="midnightblue" stroke="midnightblue" points="446.78,-82.79 438.86,-75.75 440.66,-86.19 446.78,-82.79"/>
</g>
<!-- Node14 -->
<g id="node14" class="node">
<title>Node14</title>
<g id="a_node14"><a xlink:title=" ">
<polygon fill="white" stroke="#bfbfbf" points="472,-56.5 472,-75.5 516,-75.5 516,-56.5 472,-56.5"/>
<text text-anchor="middle" x="494" y="-63.5" font-family="Helvetica,sans-Serif" font-size="10.00">vector</text>
</a>
</g>
</g>
<!-- Node9&#45;&gt;Node14 -->
<g id="edge15" class="edge">
<title>Node9&#45;&gt;Node14</title>
<path fill="none" stroke="midnightblue" d="M468.95,-112.08C473.1,-104.61 479.15,-93.72 484.27,-84.52"/>
<polygon fill="midnightblue" stroke="midnightblue" points="487.34,-86.19 489.14,-75.75 481.22,-82.79 487.34,-86.19"/>
</g>
<!-- Node15 -->
<g id="node15" class="node">
<title>Node15</title>
<g id="a_node15"><a xlink:href="v8-internal_8h.html" target="_top" xlink:title=" ">
<polygon fill="white" stroke="black" points="572.5,-56.5 572.5,-75.5 641.5,-75.5 641.5,-56.5 572.5,-56.5"/>
<text text-anchor="middle" x="607" y="-63.5" font-family="Helvetica,sans-Serif" font-size="10.00">v8&#45;internal.h</text>
</a>
</g>
</g>
<!-- Node9&#45;&gt;Node15 -->
<g id="edge16" class="edge">
<title>Node9&#45;&gt;Node15</title>
<path fill="none" stroke="midnightblue" d="M481.53,-114.38C504.62,-105.66 545.64,-90.17 574.48,-79.28"/>
<polygon fill="midnightblue" stroke="midnightblue" points="576,-82.45 584.12,-75.64 573.53,-75.9 576,-82.45"/>
</g>
<!-- Node17 -->
<g id="node17" class="node">
<title>Node17</title>
<g id="a_node17"><a xlink:href="v8-version_8h.html" target="_top" xlink:title=" ">
<polygon fill="white" stroke="black" points="757.5,-0.5 757.5,-19.5 826.5,-19.5 826.5,-0.5 757.5,-0.5"/>
<text text-anchor="middle" x="792" y="-7.5" font-family="Helvetica,sans-Serif" font-size="10.00">v8&#45;version.h</text>
</a>
</g>
</g>
<!-- Node9&#45;&gt;Node17 -->
<g id="edge23" class="edge">
<title>Node9&#45;&gt;Node17</title>
<path fill="none" stroke="midnightblue" d="M481.51,-114.52C484.33,-113.6 487.23,-112.72 490,-112 577.81,-89.09 606.54,-109.2 691,-76 722.47,-63.63 754.6,-40.85 773.92,-25.81"/>
<polygon fill="midnightblue" stroke="midnightblue" points="776.2,-28.47 781.85,-19.51 771.85,-22.99 776.2,-28.47"/>
</g>
<!-- Node18 -->
<g id="node18" class="node">
<title>Node18</title>
<g id="a_node18"><a xlink:href="v8config_8h.html" target="_top" xlink:title=" ">
<polygon fill="white" stroke="black" points="463,-0.5 463,-19.5 523,-19.5 523,-0.5 463,-0.5"/>
<text text-anchor="middle" x="493" y="-7.5" font-family="Helvetica,sans-Serif" font-size="10.00">v8config.h</text>
</a>
</g>
</g>
<!-- Node9&#45;&gt;Node18 -->
<g id="edge24" class="edge">
<title>Node9&#45;&gt;Node18</title>
<path fill="none" stroke="midnightblue" d="M481.56,-113.59C496.17,-106.37 515.98,-93.86 525,-76 533.36,-59.45 521.48,-40.41 509.9,-27.23"/>
<polygon fill="midnightblue" stroke="midnightblue" points="512.33,-24.71 502.91,-19.86 507.25,-29.52 512.33,-24.71"/>
</g>
<!-- Node15&#45;&gt;Node6 -->
<g id="edge18" class="edge">
<title>Node15&#45;&gt;Node6</title>
<path fill="none" stroke="midnightblue" d="M572.46,-58.43C517.74,-48.03 411.76,-27.88 357.24,-17.51"/>
<polygon fill="midnightblue" stroke="midnightblue" points="357.84,-14.06 347.36,-15.63 356.53,-20.94 357.84,-14.06"/>
</g>
<!-- Node15&#45;&gt;Node10 -->
<g id="edge17" class="edge">
<title>Node15&#45;&gt;Node10</title>
<path fill="none" stroke="midnightblue" d="M611.29,-56.08C614.85,-48.69 620.02,-37.95 624.42,-28.81"/>
<polygon fill="midnightblue" stroke="midnightblue" points="627.6,-30.28 628.79,-19.75 621.29,-27.24 627.6,-30.28"/>
</g>
<!-- Node15&#45;&gt;Node12 -->
<g id="edge20" class="edge">
<title>Node15&#45;&gt;Node12</title>
<path fill="none" stroke="midnightblue" d="M623.23,-56.32C639.35,-47.7 664.3,-34.36 682.96,-24.39"/>
<polygon fill="midnightblue" stroke="midnightblue" points="684.64,-27.46 691.81,-19.65 681.34,-21.28 684.64,-27.46"/>
</g>
<!-- Node16 -->
<g id="node16" class="node">
<title>Node16</title>
<g id="a_node16"><a xlink:title=" ">
<polygon fill="white" stroke="#bfbfbf" points="541,-0.5 541,-19.5 589,-19.5 589,-0.5 541,-0.5"/>
<text text-anchor="middle" x="565" y="-7.5" font-family="Helvetica,sans-Serif" font-size="10.00">string.h</text>
</a>
</g>
</g>
<!-- Node15&#45;&gt;Node16 -->
<g id="edge19" class="edge">
<title>Node15&#45;&gt;Node16</title>
<path fill="none" stroke="midnightblue" d="M600.06,-56.08C594.07,-48.38 585.25,-37.03 577.95,-27.65"/>
<polygon fill="midnightblue" stroke="midnightblue" points="580.71,-25.5 571.81,-19.75 575.18,-29.79 580.71,-25.5"/>
</g>
<!-- Node15&#45;&gt;Node17 -->
<g id="edge21" class="edge">
<title>Node15&#45;&gt;Node17</title>
<path fill="none" stroke="midnightblue" d="M636.31,-56.44C667.84,-47.24 718.13,-32.56 752.99,-22.39"/>
<polygon fill="midnightblue" stroke="midnightblue" points="754.2,-25.68 762.82,-19.52 752.24,-18.96 754.2,-25.68"/>
</g>
<!-- Node15&#45;&gt;Node18 -->
<g id="edge22" class="edge">
<title>Node15&#45;&gt;Node18</title>
<path fill="none" stroke="midnightblue" d="M588.94,-56.44C570.43,-47.68 541.42,-33.94 520.14,-23.86"/>
<polygon fill="midnightblue" stroke="midnightblue" points="521.51,-20.63 510.98,-19.52 518.52,-26.96 521.51,-20.63"/>
</g>
</g>
</svg>
