<?xml version="1.0" encoding="UTF-8" standalone="no"?>
<!DOCTYPE svg PUBLIC "-//W3C//DTD SVG 1.1//EN"
 "http://www.w3.org/Graphics/SVG/1.1/DTD/svg11.dtd">
<!-- Generated by graphviz version 2.44.0 ()
 -->
<!-- Title: include/v8&#45;inspector.h Pages: 1 -->
<svg width="604pt" height="196pt"
 viewBox="0.00 0.00 603.95 196.00" xmlns="http://www.w3.org/2000/svg" xmlns:xlink="http://www.w3.org/1999/xlink">
<g id="graph0" class="graph" transform="scale(1 1) rotate(0) translate(4 192)">
<title>include/v8&#45;inspector.h</title>
<polygon fill="white" stroke="transparent" points="-4,4 -4,-192 599.95,-192 599.95,4 -4,4"/>
<!-- Node1 -->
<g id="node1" class="node">
<title>Node1</title>
<g id="a_node1"><a xlink:title=" ">
<polygon fill="#bfbfbf" stroke="black" points="120.95,-168.5 120.95,-187.5 231.95,-187.5 231.95,-168.5 120.95,-168.5"/>
<text text-anchor="middle" x="176.45" y="-175.5" font-family="Helvetica,sans-Serif" font-size="10.00">include/v8&#45;inspector.h</text>
</a>
</g>
</g>
<!-- Node2 -->
<g id="node2" class="node">
<title>Node2</title>
<g id="a_node2"><a xlink:title=" ">
<polygon fill="white" stroke="#bfbfbf" points="68.45,-0.5 68.45,-19.5 116.45,-19.5 116.45,-0.5 68.45,-0.5"/>
<text text-anchor="middle" x="92.45" y="-7.5" font-family="Helvetica,sans-Serif" font-size="10.00">stdint.h</text>
</a>
</g>
</g>
<!-- Node1&#45;&gt;Node2 -->
<g id="edge1" class="edge">
<title>Node1&#45;&gt;Node2</title>
<path fill="none" stroke="midnightblue" d="M142.09,-168.45C100.43,-156.01 32.23,-128.44 3.45,-76 -11.38,-48.98 27.68,-30.23 58.69,-20.04"/>
<polygon fill="midnightblue" stroke="midnightblue" points="59.88,-23.34 68.4,-17.03 57.81,-16.65 59.88,-23.34"/>
</g>
<!-- Node3 -->
<g id="node3" class="node">
<title>Node3</title>
<g id="a_node3"><a xlink:title=" ">
<polygon fill="white" stroke="#bfbfbf" points="268.95,-112.5 268.95,-131.5 313.95,-131.5 313.95,-112.5 268.95,-112.5"/>
<text text-anchor="middle" x="291.45" y="-119.5" font-family="Helvetica,sans-Serif" font-size="10.00">cctype</text>
</a>
</g>
</g>
<!-- Node1&#45;&gt;Node3 -->
<g id="edge2" class="edge">
<title>Node1&#45;&gt;Node3</title>
<path fill="none" stroke="midnightblue" d="M194.67,-168.44C213.34,-159.68 242.6,-145.94 264.06,-135.86"/>
<polygon fill="midnightblue" stroke="midnightblue" points="265.75,-138.93 273.31,-131.52 262.77,-132.6 265.75,-138.93"/>
</g>
<!-- Node4 -->
<g id="node4" class="node">
<title>Node4</title>
<g id="a_node4"><a xlink:title=" ">
<polygon fill="white" stroke="#bfbfbf" points="12.95,-56.5 12.95,-75.5 63.95,-75.5 63.95,-56.5 12.95,-56.5"/>
<text text-anchor="middle" x="38.45" y="-63.5" font-family="Helvetica,sans-Serif" font-size="10.00">memory</text>
</a>
</g>
</g>
<!-- Node1&#45;&gt;Node4 -->
<g id="edge3" class="edge">
<title>Node1&#45;&gt;Node4</title>
<path fill="none" stroke="midnightblue" d="M165.62,-168.37C142.14,-149.65 86.31,-105.15 57.05,-81.83"/>
<polygon fill="midnightblue" stroke="midnightblue" points="59.23,-79.09 49.22,-75.59 54.86,-84.56 59.23,-79.09"/>
</g>
<!-- Node5 -->
<g id="node5" class="node">
<title>Node5</title>
<g id="a_node5"><a xlink:href="v8_8h.html" target="_top" xlink:title=" ">
<polygon fill="white" stroke="black" points="215.95,-112.5 215.95,-131.5 250.95,-131.5 250.95,-112.5 215.95,-112.5"/>
<text text-anchor="middle" x="233.45" y="-119.5" font-family="Helvetica,sans-Serif" font-size="10.00">v8.h</text>
</a>
</g>
</g>
<!-- Node1&#45;&gt;Node5 -->
<g id="edge4" class="edge">
<title>Node1&#45;&gt;Node5</title>
<path fill="none" stroke="midnightblue" d="M185.6,-168.32C193.95,-160.42 206.48,-148.55 216.62,-138.94"/>
<polygon fill="midnightblue" stroke="midnightblue" points="219.27,-141.25 224.12,-131.83 214.46,-136.17 219.27,-141.25"/>
</g>
<!-- Node5&#45;&gt;Node2 -->
<g id="edge6" class="edge">
<title>Node5&#45;&gt;Node2</title>
<path fill="none" stroke="midnightblue" d="M215.79,-119.42C189.32,-116.11 139.48,-106.04 111.45,-76 99.8,-63.52 95.25,-44.29 93.5,-29.98"/>
<polygon fill="midnightblue" stroke="midnightblue" points="96.96,-29.44 92.61,-19.78 89.99,-30.05 96.96,-29.44"/>
</g>
<!-- Node5&#45;&gt;Node4 -->
<g id="edge8" class="edge">
<title>Node5&#45;&gt;Node4</title>
<path fill="none" stroke="midnightblue" d="M215.8,-116.11C183.84,-107.26 115.82,-88.43 73.92,-76.82"/>
<polygon fill="midnightblue" stroke="midnightblue" points="74.7,-73.41 64.13,-74.11 72.83,-80.15 74.7,-73.41"/>
</g>
<!-- Node6 -->
<g id="node6" class="node">
<title>Node6</title>
<g id="a_node6"><a xlink:title=" ">
<polygon fill="white" stroke="#bfbfbf" points="376.95,-0.5 376.95,-19.5 427.95,-19.5 427.95,-0.5 376.95,-0.5"/>
<text text-anchor="middle" x="402.45" y="-7.5" font-family="Helvetica,sans-Serif" font-size="10.00">stddef.h</text>
</a>
</g>
</g>
<!-- Node5&#45;&gt;Node6 -->
<g id="edge5" class="edge">
<title>Node5&#45;&gt;Node6</title>
<path fill="none" stroke="midnightblue" d="M250.98,-114.63C253.8,-113.7 256.69,-112.78 259.45,-112 329.55,-92.05 373.91,-132.92 419.45,-76 430.34,-62.38 422.71,-42.5 414.48,-28.32"/>
<polygon fill="midnightblue" stroke="midnightblue" points="417.23,-26.11 408.91,-19.56 411.32,-29.87 417.23,-26.11"/>
</g>
<!-- Node7 -->
<g id="node7" class="node">
<title>Node7</title>
<g id="a_node7"><a xlink:title=" ">
<polygon fill="white" stroke="#bfbfbf" points="120.95,-56.5 120.95,-75.5 165.95,-75.5 165.95,-56.5 120.95,-56.5"/>
<text text-anchor="middle" x="143.45" y="-63.5" font-family="Helvetica,sans-Serif" font-size="10.00">stdio.h</text>
</a>
</g>
</g>
<!-- Node5&#45;&gt;Node7 -->
<g id="edge7" class="edge">
<title>Node5&#45;&gt;Node7</title>
<path fill="none" stroke="midnightblue" d="M218.99,-112.32C204.95,-103.9 183.4,-90.97 166.9,-81.07"/>
<polygon fill="midnightblue" stroke="midnightblue" points="168.25,-77.8 157.87,-75.65 164.64,-83.8 168.25,-77.8"/>
</g>
<!-- Node8 -->
<g id="node8" class="node">
<title>Node8</title>
<g id="a_node8"><a xlink:title=" ">
<polygon fill="white" stroke="#bfbfbf" points="446.45,-0.5 446.45,-19.5 508.45,-19.5 508.45,-0.5 446.45,-0.5"/>
<text text-anchor="middle" x="477.45" y="-7.5" font-family="Helvetica,sans-Serif" font-size="10.00">type_traits</text>
</a>
</g>
</g>
<!-- Node5&#45;&gt;Node8 -->
<g id="edge9" class="edge">
<title>Node5&#45;&gt;Node8</title>
<path fill="none" stroke="midnightblue" d="M250.97,-114.58C253.79,-113.65 256.68,-112.76 259.45,-112 336.88,-90.82 370.39,-121.62 436.45,-76 452.88,-64.65 464.11,-44.36 470.61,-29.45"/>
<polygon fill="midnightblue" stroke="midnightblue" points="474.02,-30.34 474.51,-19.76 467.53,-27.73 474.02,-30.34"/>
</g>
<!-- Node9 -->
<g id="node9" class="node">
<title>Node9</title>
<g id="a_node9"><a xlink:title=" ">
<polygon fill="white" stroke="#bfbfbf" points="183.95,-56.5 183.95,-75.5 222.95,-75.5 222.95,-56.5 183.95,-56.5"/>
<text text-anchor="middle" x="203.45" y="-63.5" font-family="Helvetica,sans-Serif" font-size="10.00">utility</text>
</a>
</g>
</g>
<!-- Node5&#45;&gt;Node9 -->
<g id="edge10" class="edge">
<title>Node5&#45;&gt;Node9</title>
<path fill="none" stroke="midnightblue" d="M228.49,-112.08C224.34,-104.61 218.29,-93.72 213.18,-84.52"/>
<polygon fill="midnightblue" stroke="midnightblue" points="216.22,-82.79 208.31,-75.75 210.11,-86.19 216.22,-82.79"/>
</g>
<!-- Node10 -->
<g id="node10" class="node">
<title>Node10</title>
<g id="a_node10"><a xlink:title=" ">
<polygon fill="white" stroke="#bfbfbf" points="241.45,-56.5 241.45,-75.5 285.45,-75.5 285.45,-56.5 241.45,-56.5"/>
<text text-anchor="middle" x="263.45" y="-63.5" font-family="Helvetica,sans-Serif" font-size="10.00">vector</text>
</a>
</g>
</g>
<!-- Node5&#45;&gt;Node10 -->
<g id="edge11" class="edge">
<title>Node5&#45;&gt;Node10</title>
<path fill="none" stroke="midnightblue" d="M238.4,-112.08C242.55,-104.61 248.6,-93.72 253.71,-84.52"/>
<polygon fill="midnightblue" stroke="midnightblue" points="256.79,-86.19 258.58,-75.75 250.67,-82.79 256.79,-86.19"/>
</g>
<!-- Node11 -->
<g id="node11" class="node">
<title>Node11</title>
<g id="a_node11"><a xlink:href="v8-internal_8h.html" target="_top" xlink:title=" ">
<polygon fill="white" stroke="black" points="341.95,-56.5 341.95,-75.5 410.95,-75.5 410.95,-56.5 341.95,-56.5"/>
<text text-anchor="middle" x="376.45" y="-63.5" font-family="Helvetica,sans-Serif" font-size="10.00">v8&#45;internal.h</text>
</a>
</g>
</g>
<!-- Node5&#45;&gt;Node11 -->
<g id="edge12" class="edge">
<title>Node5&#45;&gt;Node11</title>
<path fill="none" stroke="midnightblue" d="M250.98,-114.38C274.06,-105.66 315.09,-90.17 343.93,-79.28"/>
<polygon fill="midnightblue" stroke="midnightblue" points="345.45,-82.45 353.57,-75.64 342.98,-75.9 345.45,-82.45"/>
</g>
<!-- Node13 -->
<g id="node13" class="node">
<title>Node13</title>
<g id="a_node13"><a xlink:href="v8-version_8h.html" target="_top" xlink:title=" ">
<polygon fill="white" stroke="black" points="526.95,-0.5 526.95,-19.5 595.95,-19.5 595.95,-0.5 526.95,-0.5"/>
<text text-anchor="middle" x="561.45" y="-7.5" font-family="Helvetica,sans-Serif" font-size="10.00">v8&#45;version.h</text>
</a>
</g>
</g>
<!-- Node5&#45;&gt;Node13 -->
<g id="edge19" class="edge">
<title>Node5&#45;&gt;Node13</title>
<path fill="none" stroke="midnightblue" d="M250.95,-114.52C253.77,-113.6 256.67,-112.72 259.45,-112 347.26,-89.09 375.98,-109.2 460.45,-76 491.92,-63.63 524.05,-40.85 543.37,-25.81"/>
<polygon fill="midnightblue" stroke="midnightblue" points="545.65,-28.47 551.3,-19.51 541.29,-22.99 545.65,-28.47"/>
</g>
<!-- Node14 -->
<g id="node14" class="node">
<title>Node14</title>
<g id="a_node14"><a xlink:href="v8config_8h.html" target="_top" xlink:title=" ">
<polygon fill="white" stroke="black" points="232.45,-0.5 232.45,-19.5 292.45,-19.5 292.45,-0.5 232.45,-0.5"/>
<text text-anchor="middle" x="262.45" y="-7.5" font-family="Helvetica,sans-Serif" font-size="10.00">v8config.h</text>
</a>
</g>
</g>
<!-- Node5&#45;&gt;Node14 -->
<g id="edge20" class="edge">
<title>Node5&#45;&gt;Node14</title>
<path fill="none" stroke="midnightblue" d="M251,-113.59C265.62,-106.37 285.43,-93.86 294.45,-76 302.8,-59.45 290.93,-40.41 279.35,-27.23"/>
<polygon fill="midnightblue" stroke="midnightblue" points="281.78,-24.71 272.36,-19.86 276.7,-29.52 281.78,-24.71"/>
</g>
<!-- Node11&#45;&gt;Node2 -->
<g id="edge14" class="edge">
<title>Node11&#45;&gt;Node2</title>
<path fill="none" stroke="midnightblue" d="M341.91,-58.43C287.19,-48.03 181.21,-27.88 126.68,-17.51"/>
<polygon fill="midnightblue" stroke="midnightblue" points="127.29,-14.06 116.81,-15.63 125.98,-20.94 127.29,-14.06"/>
</g>
<!-- Node11&#45;&gt;Node6 -->
<g id="edge13" class="edge">
<title>Node11&#45;&gt;Node6</title>
<path fill="none" stroke="midnightblue" d="M380.74,-56.08C384.3,-48.69 389.47,-37.95 393.87,-28.81"/>
<polygon fill="midnightblue" stroke="midnightblue" points="397.05,-30.28 398.23,-19.75 390.74,-27.24 397.05,-30.28"/>
</g>
<!-- Node11&#45;&gt;Node8 -->
<g id="edge16" class="edge">
<title>Node11&#45;&gt;Node8</title>
<path fill="none" stroke="midnightblue" d="M392.67,-56.32C408.8,-47.7 433.75,-34.36 452.41,-24.39"/>
<polygon fill="midnightblue" stroke="midnightblue" points="454.09,-27.46 461.26,-19.65 450.79,-21.28 454.09,-27.46"/>
</g>
<!-- Node12 -->
<g id="node12" class="node">
<title>Node12</title>
<g id="a_node12"><a xlink:title=" ">
<polygon fill="white" stroke="#bfbfbf" points="310.45,-0.5 310.45,-19.5 358.45,-19.5 358.45,-0.5 310.45,-0.5"/>
<text text-anchor="middle" x="334.45" y="-7.5" font-family="Helvetica,sans-Serif" font-size="10.00">string.h</text>
</a>
</g>
</g>
<!-- Node11&#45;&gt;Node12 -->
<g id="edge15" class="edge">
<title>Node11&#45;&gt;Node12</title>
<path fill="none" stroke="midnightblue" d="M369.51,-56.08C363.52,-48.38 354.69,-37.03 347.4,-27.65"/>
<polygon fill="midnightblue" stroke="midnightblue" points="350.16,-25.5 341.25,-19.75 344.63,-29.79 350.16,-25.5"/>
</g>
<!-- Node11&#45;&gt;Node13 -->
<g id="edge17" class="edge">
<title>Node11&#45;&gt;Node13</title>
<path fill="none" stroke="midnightblue" d="M405.76,-56.44C437.29,-47.24 487.58,-32.56 522.43,-22.39"/>
<polygon fill="midnightblue" stroke="midnightblue" points="523.65,-25.68 532.27,-19.52 521.69,-18.96 523.65,-25.68"/>
</g>
<!-- Node11&#45;&gt;Node14 -->
<g id="edge18" class="edge">
<title>Node11&#45;&gt;Node14</title>
<path fill="none" stroke="midnightblue" d="M358.38,-56.44C339.87,-47.68 310.87,-33.94 289.59,-23.86"/>
<polygon fill="midnightblue" stroke="midnightblue" points="290.96,-20.63 280.43,-19.52 287.96,-26.96 290.96,-20.63"/>
</g>
</g>
</svg>
