<?xml version="1.0" encoding="UTF-8" standalone="no"?>
<!DOCTYPE svg PUBLIC "-//W3C//DTD SVG 1.1//EN"
 "http://www.w3.org/Graphics/SVG/1.1/DTD/svg11.dtd">
<!-- Generated by graphviz version 2.44.0 ()
 -->
<!-- Title: include/v8&#45;profiler.h Pages: 1 -->
<svg width="591pt" height="196pt"
 viewBox="0.00 0.00 590.50 196.00" xmlns="http://www.w3.org/2000/svg" xmlns:xlink="http://www.w3.org/1999/xlink">
<g id="graph0" class="graph" transform="scale(1 1) rotate(0) translate(4 192)">
<title>include/v8&#45;profiler.h</title>
<polygon fill="white" stroke="transparent" points="-4,4 -4,-192 586.5,-192 586.5,4 -4,4"/>
<!-- Node1 -->
<g id="node1" class="node">
<title>Node1</title>
<g id="a_node1"><a xlink:title=" ">
<polygon fill="#bfbfbf" stroke="black" points="87.5,-168.5 87.5,-187.5 187.5,-187.5 187.5,-168.5 87.5,-168.5"/>
<text text-anchor="middle" x="137.5" y="-175.5" font-family="Helvetica,sans-Serif" font-size="10.00">include/v8&#45;profiler.h</text>
</a>
</g>
</g>
<!-- Node2 -->
<g id="node2" class="node">
<title>Node2</title>
<g id="a_node2"><a xlink:title=" ">
<polygon fill="white" stroke="#bfbfbf" points="0,-112.5 0,-131.5 47,-131.5 47,-112.5 0,-112.5"/>
<text text-anchor="middle" x="23.5" y="-119.5" font-family="Helvetica,sans-Serif" font-size="10.00">limits.h</text>
</a>
</g>
</g>
<!-- Node1&#45;&gt;Node2 -->
<g id="edge1" class="edge">
<title>Node1&#45;&gt;Node2</title>
<path fill="none" stroke="midnightblue" d="M119.44,-168.44C100.93,-159.68 71.92,-145.94 50.64,-135.86"/>
<polygon fill="midnightblue" stroke="midnightblue" points="52.01,-132.63 41.48,-131.52 49.02,-138.96 52.01,-132.63"/>
</g>
<!-- Node3 -->
<g id="node3" class="node">
<title>Node3</title>
<g id="a_node3"><a xlink:title=" ">
<polygon fill="white" stroke="#bfbfbf" points="65.5,-112.5 65.5,-131.5 143.5,-131.5 143.5,-112.5 65.5,-112.5"/>
<text text-anchor="middle" x="104.5" y="-119.5" font-family="Helvetica,sans-Serif" font-size="10.00">unordered_set</text>
</a>
</g>
</g>
<!-- Node1&#45;&gt;Node3 -->
<g id="edge2" class="edge">
<title>Node1&#45;&gt;Node3</title>
<path fill="none" stroke="midnightblue" d="M132.05,-168.08C127.49,-160.61 120.83,-149.72 115.21,-140.52"/>
<polygon fill="midnightblue" stroke="midnightblue" points="118.05,-138.46 109.85,-131.75 112.08,-142.11 118.05,-138.46"/>
</g>
<!-- Node4 -->
<g id="node4" class="node">
<title>Node4</title>
<g id="a_node4"><a xlink:title=" ">
<polygon fill="white" stroke="#bfbfbf" points="59.5,-56.5 59.5,-75.5 103.5,-75.5 103.5,-56.5 59.5,-56.5"/>
<text text-anchor="middle" x="81.5" y="-63.5" font-family="Helvetica,sans-Serif" font-size="10.00">vector</text>
</a>
</g>
</g>
<!-- Node1&#45;&gt;Node4 -->
<g id="edge3" class="edge">
<title>Node1&#45;&gt;Node4</title>
<path fill="none" stroke="midnightblue" d="M143.08,-168.48C150.79,-155.53 162.66,-130.47 152.5,-112 144.02,-96.58 127.77,-85.7 112.96,-78.51"/>
<polygon fill="midnightblue" stroke="midnightblue" points="114.09,-75.18 103.53,-74.3 111.24,-81.57 114.09,-75.18"/>
</g>
<!-- Node5 -->
<g id="node5" class="node">
<title>Node5</title>
<g id="a_node5"><a xlink:href="v8_8h.html" target="_top" xlink:title=" ">
<polygon fill="white" stroke="black" points="290,-112.5 290,-131.5 325,-131.5 325,-112.5 290,-112.5"/>
<text text-anchor="middle" x="307.5" y="-119.5" font-family="Helvetica,sans-Serif" font-size="10.00">v8.h</text>
</a>
</g>
</g>
<!-- Node1&#45;&gt;Node5 -->
<g id="edge4" class="edge">
<title>Node1&#45;&gt;Node5</title>
<path fill="none" stroke="midnightblue" d="M164.44,-168.44C196.03,-158.41 248.13,-141.86 279.98,-131.74"/>
<polygon fill="midnightblue" stroke="midnightblue" points="281.08,-135.06 289.55,-128.7 278.96,-128.39 281.08,-135.06"/>
</g>
<!-- Node5&#45;&gt;Node4 -->
<g id="edge11" class="edge">
<title>Node5&#45;&gt;Node4</title>
<path fill="none" stroke="midnightblue" d="M289.93,-116.92C256.39,-109.1 180.9,-91.43 117.5,-76 116.23,-75.69 114.94,-75.38 113.63,-75.05"/>
<polygon fill="midnightblue" stroke="midnightblue" points="114.12,-71.57 103.57,-72.56 112.44,-78.36 114.12,-71.57"/>
</g>
<!-- Node6 -->
<g id="node6" class="node">
<title>Node6</title>
<g id="a_node6"><a xlink:title=" ">
<polygon fill="white" stroke="#bfbfbf" points="361,-0.5 361,-19.5 412,-19.5 412,-0.5 361,-0.5"/>
<text text-anchor="middle" x="386.5" y="-7.5" font-family="Helvetica,sans-Serif" font-size="10.00">stddef.h</text>
</a>
</g>
</g>
<!-- Node5&#45;&gt;Node6 -->
<g id="edge5" class="edge">
<title>Node5&#45;&gt;Node6</title>
<path fill="none" stroke="midnightblue" d="M325.25,-118.63C362.84,-113.2 448.44,-98.59 465.5,-76 482.09,-54.03 449.64,-34.84 421.44,-23.11"/>
<polygon fill="midnightblue" stroke="midnightblue" points="422.71,-19.85 412.12,-19.43 420.14,-26.36 422.71,-19.85"/>
</g>
<!-- Node7 -->
<g id="node7" class="node">
<title>Node7</title>
<g id="a_node7"><a xlink:title=" ">
<polygon fill="white" stroke="#bfbfbf" points="446.5,-0.5 446.5,-19.5 494.5,-19.5 494.5,-0.5 446.5,-0.5"/>
<text text-anchor="middle" x="470.5" y="-7.5" font-family="Helvetica,sans-Serif" font-size="10.00">stdint.h</text>
</a>
</g>
</g>
<!-- Node5&#45;&gt;Node7 -->
<g id="edge6" class="edge">
<title>Node5&#45;&gt;Node7</title>
<path fill="none" stroke="midnightblue" d="M325.18,-119.13C365.51,-114.46 462.25,-100.86 481.5,-76 491.87,-62.6 486.57,-42.96 480.25,-28.78"/>
<polygon fill="midnightblue" stroke="midnightblue" points="483.27,-26.98 475.68,-19.58 477,-30.09 483.27,-26.98"/>
</g>
<!-- Node8 -->
<g id="node8" class="node">
<title>Node8</title>
<g id="a_node8"><a xlink:title=" ">
<polygon fill="white" stroke="#bfbfbf" points="285,-56.5 285,-75.5 330,-75.5 330,-56.5 285,-56.5"/>
<text text-anchor="middle" x="307.5" y="-63.5" font-family="Helvetica,sans-Serif" font-size="10.00">stdio.h</text>
</a>
</g>
</g>
<!-- Node5&#45;&gt;Node8 -->
<g id="edge7" class="edge">
<title>Node5&#45;&gt;Node8</title>
<path fill="none" stroke="midnightblue" d="M307.5,-112.08C307.5,-105.01 307.5,-94.86 307.5,-85.99"/>
<polygon fill="midnightblue" stroke="midnightblue" points="311,-85.75 307.5,-75.75 304,-85.75 311,-85.75"/>
</g>
<!-- Node9 -->
<g id="node9" class="node">
<title>Node9</title>
<g id="a_node9"><a xlink:title=" ">
<polygon fill="white" stroke="#bfbfbf" points="348,-56.5 348,-75.5 399,-75.5 399,-56.5 348,-56.5"/>
<text text-anchor="middle" x="373.5" y="-63.5" font-family="Helvetica,sans-Serif" font-size="10.00">memory</text>
</a>
</g>
</g>
<!-- Node5&#45;&gt;Node9 -->
<g id="edge8" class="edge">
<title>Node5&#45;&gt;Node9</title>
<path fill="none" stroke="midnightblue" d="M318.1,-112.32C327.96,-104.26 342.85,-92.08 354.72,-82.37"/>
<polygon fill="midnightblue" stroke="midnightblue" points="357.18,-84.88 362.7,-75.83 352.75,-79.46 357.18,-84.88"/>
</g>
<!-- Node10 -->
<g id="node10" class="node">
<title>Node10</title>
<g id="a_node10"><a xlink:title=" ">
<polygon fill="white" stroke="#bfbfbf" points="520.5,-0.5 520.5,-19.5 582.5,-19.5 582.5,-0.5 520.5,-0.5"/>
<text text-anchor="middle" x="551.5" y="-7.5" font-family="Helvetica,sans-Serif" font-size="10.00">type_traits</text>
</a>
</g>
</g>
<!-- Node5&#45;&gt;Node10 -->
<g id="edge9" class="edge">
<title>Node5&#45;&gt;Node10</title>
<path fill="none" stroke="midnightblue" d="M325.15,-120.49C360.49,-118.71 441.32,-110.84 497.5,-76 516.52,-64.2 532.05,-43.38 541.5,-28.48"/>
<polygon fill="midnightblue" stroke="midnightblue" points="544.63,-30.07 546.8,-19.7 538.63,-26.45 544.63,-30.07"/>
</g>
<!-- Node11 -->
<g id="node11" class="node">
<title>Node11</title>
<g id="a_node11"><a xlink:title=" ">
<polygon fill="white" stroke="#bfbfbf" points="417,-56.5 417,-75.5 456,-75.5 456,-56.5 417,-56.5"/>
<text text-anchor="middle" x="436.5" y="-63.5" font-family="Helvetica,sans-Serif" font-size="10.00">utility</text>
</a>
</g>
</g>
<!-- Node5&#45;&gt;Node11 -->
<g id="edge10" class="edge">
<title>Node5&#45;&gt;Node11</title>
<path fill="none" stroke="midnightblue" d="M325.17,-113.6C346.37,-104.73 382.21,-89.73 407.49,-79.14"/>
<polygon fill="midnightblue" stroke="midnightblue" points="409.07,-82.28 416.94,-75.19 406.36,-75.82 409.07,-82.28"/>
</g>
<!-- Node12 -->
<g id="node12" class="node">
<title>Node12</title>
<g id="a_node12"><a xlink:href="v8-internal_8h.html" target="_top" xlink:title=" ">
<polygon fill="white" stroke="black" points="198,-56.5 198,-75.5 267,-75.5 267,-56.5 198,-56.5"/>
<text text-anchor="middle" x="232.5" y="-63.5" font-family="Helvetica,sans-Serif" font-size="10.00">v8&#45;internal.h</text>
</a>
</g>
</g>
<!-- Node5&#45;&gt;Node12 -->
<g id="edge12" class="edge">
<title>Node5&#45;&gt;Node12</title>
<path fill="none" stroke="midnightblue" d="M295.45,-112.32C284.04,-104.11 266.67,-91.6 253.07,-81.81"/>
<polygon fill="midnightblue" stroke="midnightblue" points="254.93,-78.84 244.77,-75.83 250.84,-84.52 254.93,-78.84"/>
</g>
<!-- Node14 -->
<g id="node14" class="node">
<title>Node14</title>
<g id="a_node14"><a xlink:href="v8-version_8h.html" target="_top" xlink:title=" ">
<polygon fill="white" stroke="black" points="97,-0.5 97,-19.5 166,-19.5 166,-0.5 97,-0.5"/>
<text text-anchor="middle" x="131.5" y="-7.5" font-family="Helvetica,sans-Serif" font-size="10.00">v8&#45;version.h</text>
</a>
</g>
</g>
<!-- Node5&#45;&gt;Node14 -->
<g id="edge19" class="edge">
<title>Node5&#45;&gt;Node14</title>
<path fill="none" stroke="midnightblue" d="M289.98,-118.12C263.99,-113.16 214.64,-101.04 180.5,-76 163.46,-63.51 149.61,-43.44 141.04,-28.9"/>
<polygon fill="midnightblue" stroke="midnightblue" points="143.92,-26.89 135.97,-19.88 137.82,-30.32 143.92,-26.89"/>
</g>
<!-- Node15 -->
<g id="node15" class="node">
<title>Node15</title>
<g id="a_node15"><a xlink:href="v8config_8h.html" target="_top" xlink:title=" ">
<polygon fill="white" stroke="black" points="184.5,-0.5 184.5,-19.5 244.5,-19.5 244.5,-0.5 184.5,-0.5"/>
<text text-anchor="middle" x="214.5" y="-7.5" font-family="Helvetica,sans-Serif" font-size="10.00">v8config.h</text>
</a>
</g>
</g>
<!-- Node5&#45;&gt;Node15 -->
<g id="edge20" class="edge">
<title>Node5&#45;&gt;Node15</title>
<path fill="none" stroke="midnightblue" d="M289.74,-120.17C262.78,-117.84 212.26,-109.04 189.5,-76 179.26,-61.13 189.47,-41.5 199.75,-27.72"/>
<polygon fill="midnightblue" stroke="midnightblue" points="202.74,-29.59 206.31,-19.61 197.3,-25.18 202.74,-29.59"/>
</g>
<!-- Node12&#45;&gt;Node6 -->
<g id="edge13" class="edge">
<title>Node12&#45;&gt;Node6</title>
<path fill="none" stroke="midnightblue" d="M256.9,-56.44C282.7,-47.4 323.58,-33.06 352.52,-22.92"/>
<polygon fill="midnightblue" stroke="midnightblue" points="353.93,-26.13 362.21,-19.52 351.62,-19.52 353.93,-26.13"/>
</g>
<!-- Node12&#45;&gt;Node7 -->
<g id="edge14" class="edge">
<title>Node12&#45;&gt;Node7</title>
<path fill="none" stroke="midnightblue" d="M267.11,-57.15C312.44,-46.86 391.43,-28.94 436.47,-18.72"/>
<polygon fill="midnightblue" stroke="midnightblue" points="437.37,-22.11 446.35,-16.48 435.82,-15.28 437.37,-22.11"/>
</g>
<!-- Node12&#45;&gt;Node10 -->
<g id="edge16" class="edge">
<title>Node12&#45;&gt;Node10</title>
<path fill="none" stroke="midnightblue" d="M267.06,-57.78C270.25,-57.16 273.43,-56.56 276.5,-56 377.01,-37.76 402.85,-37.41 503.5,-20 505.71,-19.62 507.97,-19.22 510.25,-18.81"/>
<polygon fill="midnightblue" stroke="midnightblue" points="511.07,-22.22 520.28,-16.99 509.82,-15.33 511.07,-22.22"/>
</g>
<!-- Node13 -->
<g id="node13" class="node">
<title>Node13</title>
<g id="a_node13"><a xlink:title=" ">
<polygon fill="white" stroke="#bfbfbf" points="262.5,-0.5 262.5,-19.5 310.5,-19.5 310.5,-0.5 262.5,-0.5"/>
<text text-anchor="middle" x="286.5" y="-7.5" font-family="Helvetica,sans-Serif" font-size="10.00">string.h</text>
</a>
</g>
</g>
<!-- Node12&#45;&gt;Node13 -->
<g id="edge15" class="edge">
<title>Node12&#45;&gt;Node13</title>
<path fill="none" stroke="midnightblue" d="M241.42,-56.08C249.28,-48.22 260.93,-36.57 270.42,-27.08"/>
<polygon fill="midnightblue" stroke="midnightblue" points="273.15,-29.3 277.75,-19.75 268.2,-24.35 273.15,-29.3"/>
</g>
<!-- Node12&#45;&gt;Node14 -->
<g id="edge17" class="edge">
<title>Node12&#45;&gt;Node14</title>
<path fill="none" stroke="midnightblue" d="M216.27,-56.32C200.15,-47.7 175.2,-34.36 156.54,-24.39"/>
<polygon fill="midnightblue" stroke="midnightblue" points="158.16,-21.28 147.69,-19.65 154.86,-27.46 158.16,-21.28"/>
</g>
<!-- Node12&#45;&gt;Node15 -->
<g id="edge18" class="edge">
<title>Node12&#45;&gt;Node15</title>
<path fill="none" stroke="midnightblue" d="M229.53,-56.08C227.12,-48.85 223.64,-38.41 220.63,-29.4"/>
<polygon fill="midnightblue" stroke="midnightblue" points="223.9,-28.13 217.42,-19.75 217.26,-30.34 223.9,-28.13"/>
</g>
</g>
</svg>
