<?xml version="1.0" encoding="UTF-8" standalone="no"?>
<!DOCTYPE svg PUBLIC "-//W3C//DTD SVG 1.1//EN"
 "http://www.w3.org/Graphics/SVG/1.1/DTD/svg11.dtd">
<!-- Generated by graphviz version 2.44.0 ()
 -->
<!-- Title: include/v8&#45;util.h Pages: 1 -->
<svg width="590pt" height="196pt"
 viewBox="0.00 0.00 590.00 196.00" xmlns="http://www.w3.org/2000/svg" xmlns:xlink="http://www.w3.org/1999/xlink">
<g id="graph0" class="graph" transform="scale(1 1) rotate(0) translate(4 192)">
<title>include/v8&#45;util.h</title>
<polygon fill="white" stroke="transparent" points="-4,4 -4,-192 586,-192 586,4 -4,4"/>
<!-- Node1 -->
<g id="node1" class="node">
<title>Node1</title>
<g id="a_node1"><a xlink:title=" ">
<polygon fill="#bfbfbf" stroke="black" points="434.5,-168.5 434.5,-187.5 518.5,-187.5 518.5,-168.5 434.5,-168.5"/>
<text text-anchor="middle" x="476.5" y="-175.5" font-family="Helvetica,sans-Serif" font-size="10.00">include/v8&#45;util.h</text>
</a>
</g>
</g>
<!-- Node2 -->
<g id="node2" class="node">
<title>Node2</title>
<g id="a_node2"><a xlink:href="v8_8h.html" target="_top" xlink:title=" ">
<polygon fill="white" stroke="black" points="322,-112.5 322,-131.5 357,-131.5 357,-112.5 322,-112.5"/>
<text text-anchor="middle" x="339.5" y="-119.5" font-family="Helvetica,sans-Serif" font-size="10.00">v8.h</text>
</a>
</g>
</g>
<!-- Node1&#45;&gt;Node2 -->
<g id="edge1" class="edge">
<title>Node1&#45;&gt;Node2</title>
<path fill="none" stroke="midnightblue" d="M454.79,-168.44C430.95,-159.04 392.61,-143.93 366.76,-133.74"/>
<polygon fill="midnightblue" stroke="midnightblue" points="367.77,-130.38 357.19,-129.97 365.21,-136.89 367.77,-130.38"/>
</g>
<!-- Node9 -->
<g id="node9" class="node">
<title>Node9</title>
<g id="a_node9"><a xlink:title=" ">
<polygon fill="white" stroke="#bfbfbf" points="491.5,-56.5 491.5,-75.5 535.5,-75.5 535.5,-56.5 491.5,-56.5"/>
<text text-anchor="middle" x="513.5" y="-63.5" font-family="Helvetica,sans-Serif" font-size="10.00">vector</text>
</a>
</g>
</g>
<!-- Node1&#45;&gt;Node9 -->
<g id="edge20" class="edge">
<title>Node1&#45;&gt;Node9</title>
<path fill="none" stroke="midnightblue" d="M472.98,-168.22C468.38,-155.37 461.79,-130.92 469.5,-112 474.3,-100.23 483.83,-89.86 492.79,-82.05"/>
<polygon fill="midnightblue" stroke="midnightblue" points="495.15,-84.64 500.72,-75.63 490.75,-79.2 495.15,-84.64"/>
</g>
<!-- Node14 -->
<g id="node14" class="node">
<title>Node14</title>
<g id="a_node14"><a xlink:title=" ">
<polygon fill="white" stroke="#bfbfbf" points="478,-112.5 478,-131.5 529,-131.5 529,-112.5 478,-112.5"/>
<text text-anchor="middle" x="503.5" y="-119.5" font-family="Helvetica,sans-Serif" font-size="10.00">assert.h</text>
</a>
</g>
</g>
<!-- Node1&#45;&gt;Node14 -->
<g id="edge18" class="edge">
<title>Node1&#45;&gt;Node14</title>
<path fill="none" stroke="midnightblue" d="M480.96,-168.08C484.65,-160.69 490.02,-149.95 494.59,-140.81"/>
<polygon fill="midnightblue" stroke="midnightblue" points="497.78,-142.26 499.12,-131.75 491.52,-139.13 497.78,-142.26"/>
</g>
<!-- Node15 -->
<g id="node15" class="node">
<title>Node15</title>
<g id="a_node15"><a xlink:title=" ">
<polygon fill="white" stroke="#bfbfbf" points="547,-112.5 547,-131.5 582,-131.5 582,-112.5 547,-112.5"/>
<text text-anchor="middle" x="564.5" y="-119.5" font-family="Helvetica,sans-Serif" font-size="10.00">map</text>
</a>
</g>
</g>
<!-- Node1&#45;&gt;Node15 -->
<g id="edge19" class="edge">
<title>Node1&#45;&gt;Node15</title>
<path fill="none" stroke="midnightblue" d="M490.64,-168.32C504.37,-159.9 525.44,-146.97 541.56,-137.07"/>
<polygon fill="midnightblue" stroke="midnightblue" points="543.7,-139.87 550.4,-131.65 540.04,-133.9 543.7,-139.87"/>
</g>
<!-- Node3 -->
<g id="node3" class="node">
<title>Node3</title>
<g id="a_node3"><a xlink:title=" ">
<polygon fill="white" stroke="#bfbfbf" points="264,-0.5 264,-19.5 315,-19.5 315,-0.5 264,-0.5"/>
<text text-anchor="middle" x="289.5" y="-7.5" font-family="Helvetica,sans-Serif" font-size="10.00">stddef.h</text>
</a>
</g>
</g>
<!-- Node2&#45;&gt;Node3 -->
<g id="edge2" class="edge">
<title>Node2&#45;&gt;Node3</title>
<path fill="none" stroke="midnightblue" d="M348.36,-112.28C360.23,-99.51 378.56,-75.15 367.5,-56 358.24,-39.97 340.86,-29.14 324.85,-22.13"/>
<polygon fill="midnightblue" stroke="midnightblue" points="325.72,-18.71 315.14,-18.25 323.12,-25.21 325.72,-18.71"/>
</g>
<!-- Node4 -->
<g id="node4" class="node">
<title>Node4</title>
<g id="a_node4"><a xlink:title=" ">
<polygon fill="white" stroke="#bfbfbf" points="349.5,-0.5 349.5,-19.5 397.5,-19.5 397.5,-0.5 349.5,-0.5"/>
<text text-anchor="middle" x="373.5" y="-7.5" font-family="Helvetica,sans-Serif" font-size="10.00">stdint.h</text>
</a>
</g>
</g>
<!-- Node2&#45;&gt;Node4 -->
<g id="edge3" class="edge">
<title>Node2&#45;&gt;Node4</title>
<path fill="none" stroke="midnightblue" d="M357.04,-113.81C371.92,-106.66 392.26,-94.13 401.5,-76 409.74,-59.84 399.16,-40.69 388.73,-27.39"/>
<polygon fill="midnightblue" stroke="midnightblue" points="391.24,-24.93 382.09,-19.58 385.9,-29.46 391.24,-24.93"/>
</g>
<!-- Node5 -->
<g id="node5" class="node">
<title>Node5</title>
<g id="a_node5"><a xlink:title=" ">
<polygon fill="white" stroke="#bfbfbf" points="188,-56.5 188,-75.5 233,-75.5 233,-56.5 188,-56.5"/>
<text text-anchor="middle" x="210.5" y="-63.5" font-family="Helvetica,sans-Serif" font-size="10.00">stdio.h</text>
</a>
</g>
</g>
<!-- Node2&#45;&gt;Node5 -->
<g id="edge4" class="edge">
<title>Node2&#45;&gt;Node5</title>
<path fill="none" stroke="midnightblue" d="M321.83,-113.6C300.88,-104.83 265.61,-90.07 240.39,-79.51"/>
<polygon fill="midnightblue" stroke="midnightblue" points="241.5,-76.18 230.93,-75.55 238.8,-82.64 241.5,-76.18"/>
</g>
<!-- Node6 -->
<g id="node6" class="node">
<title>Node6</title>
<g id="a_node6"><a xlink:title=" ">
<polygon fill="white" stroke="#bfbfbf" points="251,-56.5 251,-75.5 302,-75.5 302,-56.5 251,-56.5"/>
<text text-anchor="middle" x="276.5" y="-63.5" font-family="Helvetica,sans-Serif" font-size="10.00">memory</text>
</a>
</g>
</g>
<!-- Node2&#45;&gt;Node6 -->
<g id="edge5" class="edge">
<title>Node2&#45;&gt;Node6</title>
<path fill="none" stroke="midnightblue" d="M329.38,-112.32C319.97,-104.26 305.76,-92.08 294.43,-82.37"/>
<polygon fill="midnightblue" stroke="midnightblue" points="296.68,-79.68 286.81,-75.83 292.12,-85 296.68,-79.68"/>
</g>
<!-- Node7 -->
<g id="node7" class="node">
<title>Node7</title>
<g id="a_node7"><a xlink:title=" ">
<polygon fill="white" stroke="#bfbfbf" points="423.5,-0.5 423.5,-19.5 485.5,-19.5 485.5,-0.5 423.5,-0.5"/>
<text text-anchor="middle" x="454.5" y="-7.5" font-family="Helvetica,sans-Serif" font-size="10.00">type_traits</text>
</a>
</g>
</g>
<!-- Node2&#45;&gt;Node7 -->
<g id="edge6" class="edge">
<title>Node2&#45;&gt;Node7</title>
<path fill="none" stroke="midnightblue" d="M357.06,-114.11C374.13,-106.72 399.97,-93.63 417.5,-76 430.92,-62.5 441.11,-43.14 447.36,-29.06"/>
<polygon fill="midnightblue" stroke="midnightblue" points="450.73,-30.09 451.36,-19.51 444.27,-27.38 450.73,-30.09"/>
</g>
<!-- Node8 -->
<g id="node8" class="node">
<title>Node8</title>
<g id="a_node8"><a xlink:title=" ">
<polygon fill="white" stroke="#bfbfbf" points="320,-56.5 320,-75.5 359,-75.5 359,-56.5 320,-56.5"/>
<text text-anchor="middle" x="339.5" y="-63.5" font-family="Helvetica,sans-Serif" font-size="10.00">utility</text>
</a>
</g>
</g>
<!-- Node2&#45;&gt;Node8 -->
<g id="edge7" class="edge">
<title>Node2&#45;&gt;Node8</title>
<path fill="none" stroke="midnightblue" d="M339.5,-112.08C339.5,-105.01 339.5,-94.86 339.5,-85.99"/>
<polygon fill="midnightblue" stroke="midnightblue" points="343,-85.75 339.5,-75.75 336,-85.75 343,-85.75"/>
</g>
<!-- Node2&#45;&gt;Node9 -->
<g id="edge8" class="edge">
<title>Node2&#45;&gt;Node9</title>
<path fill="none" stroke="midnightblue" d="M357.14,-115.53C386.36,-106.46 445.2,-88.2 481.78,-76.84"/>
<polygon fill="midnightblue" stroke="midnightblue" points="482.95,-80.14 491.47,-73.84 480.88,-73.46 482.95,-80.14"/>
</g>
<!-- Node10 -->
<g id="node10" class="node">
<title>Node10</title>
<g id="a_node10"><a xlink:href="v8-internal_8h.html" target="_top" xlink:title=" ">
<polygon fill="white" stroke="black" points="101,-56.5 101,-75.5 170,-75.5 170,-56.5 101,-56.5"/>
<text text-anchor="middle" x="135.5" y="-63.5" font-family="Helvetica,sans-Serif" font-size="10.00">v8&#45;internal.h</text>
</a>
</g>
</g>
<!-- Node2&#45;&gt;Node10 -->
<g id="edge9" class="edge">
<title>Node2&#45;&gt;Node10</title>
<path fill="none" stroke="midnightblue" d="M321.75,-116.3C289.92,-107.88 222.29,-89.97 177.89,-78.22"/>
<polygon fill="midnightblue" stroke="midnightblue" points="178.52,-74.77 167.96,-75.59 176.73,-81.53 178.52,-74.77"/>
</g>
<!-- Node12 -->
<g id="node12" class="node">
<title>Node12</title>
<g id="a_node12"><a xlink:href="v8-version_8h.html" target="_top" xlink:title=" ">
<polygon fill="white" stroke="black" points="0,-0.5 0,-19.5 69,-19.5 69,-0.5 0,-0.5"/>
<text text-anchor="middle" x="34.5" y="-7.5" font-family="Helvetica,sans-Serif" font-size="10.00">v8&#45;version.h</text>
</a>
</g>
</g>
<!-- Node2&#45;&gt;Node12 -->
<g id="edge16" class="edge">
<title>Node2&#45;&gt;Node12</title>
<path fill="none" stroke="midnightblue" d="M321.87,-119.62C270.67,-115.34 123.04,-101.08 82.5,-76 64.47,-64.85 51,-44.21 42.99,-29.17"/>
<polygon fill="midnightblue" stroke="midnightblue" points="45.93,-27.22 38.33,-19.84 39.67,-30.35 45.93,-27.22"/>
</g>
<!-- Node13 -->
<g id="node13" class="node">
<title>Node13</title>
<g id="a_node13"><a xlink:href="v8config_8h.html" target="_top" xlink:title=" ">
<polygon fill="white" stroke="black" points="87.5,-0.5 87.5,-19.5 147.5,-19.5 147.5,-0.5 87.5,-0.5"/>
<text text-anchor="middle" x="117.5" y="-7.5" font-family="Helvetica,sans-Serif" font-size="10.00">v8config.h</text>
</a>
</g>
</g>
<!-- Node2&#45;&gt;Node13 -->
<g id="edge17" class="edge">
<title>Node2&#45;&gt;Node13</title>
<path fill="none" stroke="midnightblue" d="M321.95,-120.6C270.38,-119.03 121.09,-111.44 91.5,-76 79.76,-61.94 90.86,-41.9 101.97,-27.8"/>
<polygon fill="midnightblue" stroke="midnightblue" points="104.88,-29.78 108.68,-19.9 99.54,-25.25 104.88,-29.78"/>
</g>
<!-- Node10&#45;&gt;Node3 -->
<g id="edge10" class="edge">
<title>Node10&#45;&gt;Node3</title>
<path fill="none" stroke="midnightblue" d="M159.9,-56.44C185.7,-47.4 226.58,-33.06 255.52,-22.92"/>
<polygon fill="midnightblue" stroke="midnightblue" points="256.93,-26.13 265.21,-19.52 254.62,-19.52 256.93,-26.13"/>
</g>
<!-- Node10&#45;&gt;Node4 -->
<g id="edge11" class="edge">
<title>Node10&#45;&gt;Node4</title>
<path fill="none" stroke="midnightblue" d="M170.11,-57.15C215.44,-46.86 294.43,-28.94 339.47,-18.72"/>
<polygon fill="midnightblue" stroke="midnightblue" points="340.37,-22.11 349.35,-16.48 338.82,-15.28 340.37,-22.11"/>
</g>
<!-- Node10&#45;&gt;Node7 -->
<g id="edge13" class="edge">
<title>Node10&#45;&gt;Node7</title>
<path fill="none" stroke="midnightblue" d="M170.2,-57.58C173.01,-57.03 175.8,-56.5 178.5,-56 279.4,-37.49 305.41,-37.45 406.5,-20 408.71,-19.62 410.97,-19.22 413.25,-18.81"/>
<polygon fill="midnightblue" stroke="midnightblue" points="414.07,-22.22 423.28,-16.99 412.82,-15.33 414.07,-22.22"/>
</g>
<!-- Node11 -->
<g id="node11" class="node">
<title>Node11</title>
<g id="a_node11"><a xlink:title=" ">
<polygon fill="white" stroke="#bfbfbf" points="165.5,-0.5 165.5,-19.5 213.5,-19.5 213.5,-0.5 165.5,-0.5"/>
<text text-anchor="middle" x="189.5" y="-7.5" font-family="Helvetica,sans-Serif" font-size="10.00">string.h</text>
</a>
</g>
</g>
<!-- Node10&#45;&gt;Node11 -->
<g id="edge12" class="edge">
<title>Node10&#45;&gt;Node11</title>
<path fill="none" stroke="midnightblue" d="M144.42,-56.08C152.28,-48.22 163.93,-36.57 173.42,-27.08"/>
<polygon fill="midnightblue" stroke="midnightblue" points="176.15,-29.3 180.75,-19.75 171.2,-24.35 176.15,-29.3"/>
</g>
<!-- Node10&#45;&gt;Node12 -->
<g id="edge14" class="edge">
<title>Node10&#45;&gt;Node12</title>
<path fill="none" stroke="midnightblue" d="M119.27,-56.32C103.15,-47.7 78.2,-34.36 59.54,-24.39"/>
<polygon fill="midnightblue" stroke="midnightblue" points="61.16,-21.28 50.69,-19.65 57.86,-27.46 61.16,-21.28"/>
</g>
<!-- Node10&#45;&gt;Node13 -->
<g id="edge15" class="edge">
<title>Node10&#45;&gt;Node13</title>
<path fill="none" stroke="midnightblue" d="M132.53,-56.08C130.12,-48.85 126.64,-38.41 123.63,-29.4"/>
<polygon fill="midnightblue" stroke="midnightblue" points="126.9,-28.13 120.42,-19.75 120.26,-30.34 126.9,-28.13"/>
</g>
</g>
</svg>
