<?xml version="1.0" encoding="UTF-8" standalone="no"?>
<!DOCTYPE svg PUBLIC "-//W3C//DTD SVG 1.1//EN"
 "http://www.w3.org/Graphics/SVG/1.1/DTD/svg11.dtd">
<!-- Generated by graphviz version 2.44.0 ()
 -->
<!-- Title: cppgc::internal::PersistentRegion::AllocateNode Pages: 1 -->
<svg width="638pt" height="88pt"
 viewBox="0.00 0.00 638.00 88.00" xmlns="http://www.w3.org/2000/svg" xmlns:xlink="http://www.w3.org/1999/xlink">
<g id="graph0" class="graph" transform="scale(1 1) rotate(0) translate(4 84)">
<title>cppgc::internal::PersistentRegion::AllocateNode</title>
<polygon fill="white" stroke="transparent" points="-4,4 -4,-84 634,-84 634,4 -4,4"/>
<!-- Node1 -->
<g id="node1" class="node">
<title>Node1</title>
<g id="a_node1"><a xlink:title=" ">
<polygon fill="#bfbfbf" stroke="black" points="0,-24.5 0,-54.5 128,-54.5 128,-24.5 0,-24.5"/>
<text text-anchor="start" x="8" y="-42.5" font-family="Helvetica,sans-Serif" font-size="10.00">cppgc::internal::Persistent</text>
<text text-anchor="middle" x="64" y="-31.5" font-family="Helvetica,sans-Serif" font-size="10.00">Region::AllocateNode</text>
</a>
</g>
</g>
<!-- Node2 -->
<g id="node2" class="node">
<title>Node2</title>
<g id="a_node2"><a xlink:href="classcppgc_1_1internal_1_1PersistentNode.html#aa3d1960fd3dc51e1a6bf03bd316569ef" target="_top" xlink:title=" ">
<polygon fill="white" stroke="black" points="338,-49.5 338,-79.5 466,-79.5 466,-49.5 338,-49.5"/>
<text text-anchor="start" x="346" y="-67.5" font-family="Helvetica,sans-Serif" font-size="10.00">cppgc::internal::Persistent</text>
<text text-anchor="middle" x="402" y="-56.5" font-family="Helvetica,sans-Serif" font-size="10.00">Node::FreeListNext</text>
</a>
</g>
</g>
<!-- Node1&#45;&gt;Node2 -->
<g id="edge1" class="edge">
<title>Node1&#45;&gt;Node2</title>
<path fill="none" stroke="midnightblue" d="M128.2,-44.2C184.9,-48.42 268.11,-54.61 327.7,-59.05"/>
<polygon fill="midnightblue" stroke="midnightblue" points="327.57,-62.55 337.8,-59.8 328.09,-55.57 327.57,-62.55"/>
</g>
<!-- Node4 -->
<g id="node4" class="node">
<title>Node4</title>
<g id="a_node4"><a xlink:href="classcppgc_1_1internal_1_1PersistentNode.html#a18c4a9bce10409fd47e53cc0cdf8acab" target="_top" xlink:title=" ">
<polygon fill="white" stroke="black" points="164,-2.5 164,-32.5 302,-32.5 302,-2.5 164,-2.5"/>
<text text-anchor="start" x="172" y="-20.5" font-family="Helvetica,sans-Serif" font-size="10.00">cppgc::internal::Persistent</text>
<text text-anchor="middle" x="233" y="-9.5" font-family="Helvetica,sans-Serif" font-size="10.00">Node::InitializeAsUsedNode</text>
</a>
</g>
</g>
<!-- Node1&#45;&gt;Node4 -->
<g id="edge3" class="edge">
<title>Node1&#45;&gt;Node4</title>
<path fill="none" stroke="midnightblue" d="M128.14,-31.18C136.5,-30.08 145.16,-28.94 153.74,-27.81"/>
<polygon fill="midnightblue" stroke="midnightblue" points="154.3,-31.27 163.75,-26.49 153.38,-24.33 154.3,-31.27"/>
</g>
<!-- Node3 -->
<g id="node3" class="node">
<title>Node3</title>
<g id="a_node3"><a xlink:href="classcppgc_1_1internal_1_1PersistentNode.html#a6117a8f66c181bb22827a21b3fbd3457" target="_top" xlink:title=" ">
<polygon fill="white" stroke="black" points="502,-24.5 502,-54.5 630,-54.5 630,-24.5 502,-24.5"/>
<text text-anchor="start" x="510" y="-42.5" font-family="Helvetica,sans-Serif" font-size="10.00">cppgc::internal::Persistent</text>
<text text-anchor="middle" x="566" y="-31.5" font-family="Helvetica,sans-Serif" font-size="10.00">Node::IsUsed</text>
</a>
</g>
</g>
<!-- Node2&#45;&gt;Node3 -->
<g id="edge2" class="edge">
<title>Node2&#45;&gt;Node3</title>
<path fill="none" stroke="midnightblue" d="M466.1,-54.76C474.53,-53.46 483.23,-52.12 491.81,-50.79"/>
<polygon fill="midnightblue" stroke="midnightblue" points="492.46,-54.24 501.81,-49.25 491.39,-47.32 492.46,-54.24"/>
</g>
<!-- Node5 -->
<g id="node5" class="node">
<title>Node5</title>
<g id="a_node5"><a xlink:href="classcppgc_1_1internal_1_1PersistentNode.html#afb99622120d5c6d6eb763d26b244bc5f" target="_top" xlink:title=" ">
<polygon fill="white" stroke="black" points="338,-0.5 338,-30.5 466,-30.5 466,-0.5 338,-0.5"/>
<text text-anchor="start" x="346" y="-18.5" font-family="Helvetica,sans-Serif" font-size="10.00">cppgc::internal::Persistent</text>
<text text-anchor="middle" x="402" y="-7.5" font-family="Helvetica,sans-Serif" font-size="10.00">Node::owner</text>
</a>
</g>
</g>
<!-- Node4&#45;&gt;Node5 -->
<g id="edge4" class="edge">
<title>Node4&#45;&gt;Node5</title>
<path fill="none" stroke="midnightblue" d="M302.41,-16.68C310.73,-16.58 319.26,-16.48 327.66,-16.38"/>
<polygon fill="midnightblue" stroke="midnightblue" points="327.85,-19.88 337.8,-16.26 327.76,-12.88 327.85,-19.88"/>
</g>
<!-- Node5&#45;&gt;Node3 -->
<g id="edge5" class="edge">
<title>Node5&#45;&gt;Node3</title>
<path fill="none" stroke="midnightblue" d="M466.1,-24.85C474.53,-26.1 483.23,-27.39 491.81,-28.66"/>
<polygon fill="midnightblue" stroke="midnightblue" points="491.4,-32.13 501.81,-30.14 492.43,-25.21 491.4,-32.13"/>
</g>
</g>
</svg>
