<?xml version="1.0" encoding="UTF-8" standalone="no"?>
<!DOCTYPE svg PUBLIC "-//W3C//DTD SVG 1.1//EN"
 "http://www.w3.org/Graphics/SVG/1.1/DTD/svg11.dtd">
<!-- Generated by graphviz version 2.44.0 ()
 -->
<!-- Title: cppgc::internal::BasicMember::Release Pages: 1 -->
<svg width="528pt" height="83pt"
 viewBox="0.00 0.00 528.00 83.00" xmlns="http://www.w3.org/2000/svg" xmlns:xlink="http://www.w3.org/1999/xlink">
<g id="graph0" class="graph" transform="scale(1 1) rotate(0) translate(4 79)">
<title>cppgc::internal::BasicMember::Release</title>
<polygon fill="white" stroke="transparent" points="-4,4 -4,-79 524,-79 524,4 -4,4"/>
<!-- Node1 -->
<g id="node1" class="node">
<title>Node1</title>
<g id="a_node1"><a xlink:title=" ">
<polygon fill="#bfbfbf" stroke="black" points="0,-22.5 0,-52.5 143,-52.5 143,-22.5 0,-22.5"/>
<text text-anchor="start" x="8" y="-40.5" font-family="Helvetica,sans-Serif" font-size="10.00">cppgc::internal::BasicMember</text>
<text text-anchor="middle" x="71.5" y="-29.5" font-family="Helvetica,sans-Serif" font-size="10.00">::Release</text>
</a>
</g>
</g>
<!-- Node2 -->
<g id="node2" class="node">
<title>Node2</title>
<g id="a_node2"><a xlink:href="classcppgc_1_1internal_1_1BasicMember.html#acb8e821f1981261acea2189371c0441f" target="_top" xlink:title=" ">
<polygon fill="white" stroke="black" points="189.5,-44.5 189.5,-74.5 332.5,-74.5 332.5,-44.5 189.5,-44.5"/>
<text text-anchor="start" x="197.5" y="-62.5" font-family="Helvetica,sans-Serif" font-size="10.00">cppgc::internal::BasicMember</text>
<text text-anchor="middle" x="261" y="-51.5" font-family="Helvetica,sans-Serif" font-size="10.00">::Clear</text>
</a>
</g>
</g>
<!-- Node1&#45;&gt;Node2 -->
<g id="edge1" class="edge">
<title>Node1&#45;&gt;Node2</title>
<path fill="none" stroke="midnightblue" d="M143.12,-45.79C154.96,-47.18 167.33,-48.63 179.39,-50.04"/>
<polygon fill="midnightblue" stroke="midnightblue" points="179.11,-53.53 189.45,-51.22 179.92,-46.58 179.11,-53.53"/>
</g>
<!-- Node3 -->
<g id="node3" class="node">
<title>Node3</title>
<g id="a_node3"><a xlink:href="classcppgc_1_1internal_1_1BasicMember.html#ad625f200ada8426aec2277c7435b58c8" target="_top" xlink:title=" ">
<polygon fill="white" stroke="black" points="179,-6 179,-25 343,-25 343,-6 179,-6"/>
<text text-anchor="middle" x="261" y="-13" font-family="Helvetica,sans-Serif" font-size="10.00">cppgc::internal::BasicMember::Get</text>
</a>
</g>
</g>
<!-- Node1&#45;&gt;Node3 -->
<g id="edge2" class="edge">
<title>Node1&#45;&gt;Node3</title>
<path fill="none" stroke="midnightblue" d="M143.12,-29.21C151.48,-28.23 160.09,-27.22 168.68,-26.21"/>
<polygon fill="midnightblue" stroke="midnightblue" points="169.22,-29.68 178.74,-25.03 168.4,-22.72 169.22,-29.68"/>
</g>
<!-- Node4 -->
<g id="node4" class="node">
<title>Node4</title>
<g id="a_node4"><a xlink:href="classcppgc_1_1internal_1_1MemberBase.html#a36cf3ecc53010afcc61e835bdfa03c10" target="_top" xlink:title=" ">
<polygon fill="white" stroke="black" points="379,-0.5 379,-30.5 520,-30.5 520,-0.5 379,-0.5"/>
<text text-anchor="start" x="387" y="-18.5" font-family="Helvetica,sans-Serif" font-size="10.00">cppgc::internal::MemberBase</text>
<text text-anchor="middle" x="449.5" y="-7.5" font-family="Helvetica,sans-Serif" font-size="10.00">::GetRaw</text>
</a>
</g>
</g>
<!-- Node3&#45;&gt;Node4 -->
<g id="edge3" class="edge">
<title>Node3&#45;&gt;Node4</title>
<path fill="none" stroke="midnightblue" d="M343.26,-15.5C351.7,-15.5 360.28,-15.5 368.71,-15.5"/>
<polygon fill="midnightblue" stroke="midnightblue" points="368.89,-19 378.89,-15.5 368.89,-12 368.89,-19"/>
</g>
</g>
</svg>
