<?xml version="1.0" encoding="UTF-8" standalone="no"?>
<!DOCTYPE svg PUBLIC "-//W3C//DTD SVG 1.1//EN"
 "http://www.w3.org/Graphics/SVG/1.1/DTD/svg11.dtd">
<!-- Generated by graphviz version 2.44.0 ()
 -->
<!-- Title: cppgc::internal::GarbageCollectedBase::operator delete Pages: 1 -->
<svg width="271pt" height="50pt"
 viewBox="0.00 0.00 271.00 50.00" xmlns="http://www.w3.org/2000/svg" xmlns:xlink="http://www.w3.org/1999/xlink">
<g id="graph0" class="graph" transform="scale(1 1) rotate(0) translate(4 46)">
<title>cppgc::internal::GarbageCollectedBase::operator delete</title>
<polygon fill="white" stroke="transparent" points="-4,4 -4,-46 267,-46 267,4 -4,4"/>
<!-- Node1 -->
<g id="node1" class="node">
<title>Node1</title>
<g id="a_node1"><a xlink:title=" ">
<polygon fill="#bfbfbf" stroke="black" points="0,-0.5 0,-41.5 120,-41.5 120,-0.5 0,-0.5"/>
<text text-anchor="start" x="8" y="-29.5" font-family="Helvetica,sans-Serif" font-size="10.00">cppgc::internal::Garbage</text>
<text text-anchor="start" x="8" y="-18.5" font-family="Helvetica,sans-Serif" font-size="10.00">CollectedBase::operator</text>
<text text-anchor="middle" x="60" y="-7.5" font-family="Helvetica,sans-Serif" font-size="10.00"> delete</text>
</a>
</g>
</g>
<!-- Node2 -->
<g id="node2" class="node">
<title>Node2</title>
<g id="a_node2"><a xlink:href="namespacecppgc_1_1internal.html#a25fa9220cadd708b390d2cae383d2fce" target="_top" xlink:title=" ">
<polygon fill="white" stroke="black" points="156,-11.5 156,-30.5 263,-30.5 263,-11.5 156,-11.5"/>
<text text-anchor="middle" x="209.5" y="-18.5" font-family="Helvetica,sans-Serif" font-size="10.00">cppgc::internal::Abort</text>
</a>
</g>
</g>
<!-- Node1&#45;&gt;Node2 -->
<g id="edge1" class="edge">
<title>Node1&#45;&gt;Node2</title>
<path fill="none" stroke="midnightblue" d="M120.14,-21C128.46,-21 137.04,-21 145.43,-21"/>
<polygon fill="midnightblue" stroke="midnightblue" points="145.54,-24.5 155.54,-21 145.54,-17.5 145.54,-24.5"/>
</g>
</g>
</svg>
