<?xml version="1.0" encoding="UTF-8" standalone="no"?>
<!DOCTYPE svg PUBLIC "-//W3C//DTD SVG 1.1//EN"
 "http://www.w3.org/Graphics/SVG/1.1/DTD/svg11.dtd">
<!-- Generated by graphviz version 2.44.0 ()
 -->
<!-- Title: include/cppgc/internal/finalizer&#45;trait.h Pages: 1 -->
<svg width="150pt" height="151pt"
 viewBox="0.00 0.00 149.50 151.00" xmlns="http://www.w3.org/2000/svg" xmlns:xlink="http://www.w3.org/1999/xlink">
<g id="graph0" class="graph" transform="scale(1 1) rotate(0) translate(4 147)">
<title>include/cppgc/internal/finalizer&#45;trait.h</title>
<polygon fill="white" stroke="transparent" points="-4,4 -4,-147 145.5,-147 145.5,4 -4,4"/>
<!-- Node1 -->
<g id="node1" class="node">
<title>Node1</title>
<g id="a_node1"><a xlink:title=" ">
<polygon fill="#bfbfbf" stroke="black" points="0,-112.5 0,-142.5 111,-142.5 111,-112.5 0,-112.5"/>
<text text-anchor="start" x="8" y="-130.5" font-family="Helvetica,sans-Serif" font-size="10.00">include/cppgc/internal</text>
<text text-anchor="middle" x="55.5" y="-119.5" font-family="Helvetica,sans-Serif" font-size="10.00">/finalizer&#45;trait.h</text>
</a>
</g>
</g>
<!-- Node2 -->
<g id="node2" class="node">
<title>Node2</title>
<g id="a_node2"><a xlink:title=" ">
<polygon fill="white" stroke="#bfbfbf" points="24.5,-0.5 24.5,-19.5 86.5,-19.5 86.5,-0.5 24.5,-0.5"/>
<text text-anchor="middle" x="55.5" y="-7.5" font-family="Helvetica,sans-Serif" font-size="10.00">type_traits</text>
</a>
</g>
</g>
<!-- Node1&#45;&gt;Node2 -->
<g id="edge1" class="edge">
<title>Node1&#45;&gt;Node2</title>
<path fill="none" stroke="midnightblue" d="M47.66,-112.31C40.8,-98.17 32.5,-75.75 36.5,-56 38.39,-46.65 42.29,-36.83 46.07,-28.75"/>
<polygon fill="midnightblue" stroke="midnightblue" points="49.29,-30.14 50.62,-19.63 43.03,-27.01 49.29,-30.14"/>
</g>
<!-- Node3 -->
<g id="node3" class="node">
<title>Node3</title>
<g id="a_node3"><a xlink:href="type-traits_8h.html" target="_top" xlink:title=" ">
<polygon fill="white" stroke="black" points="45.5,-56.5 45.5,-75.5 141.5,-75.5 141.5,-56.5 45.5,-56.5"/>
<text text-anchor="middle" x="93.5" y="-63.5" font-family="Helvetica,sans-Serif" font-size="10.00">cppgc/type&#45;traits.h</text>
</a>
</g>
</g>
<!-- Node1&#45;&gt;Node3 -->
<g id="edge2" class="edge">
<title>Node1&#45;&gt;Node3</title>
<path fill="none" stroke="midnightblue" d="M64.51,-112.4C69.91,-103.93 76.83,-93.1 82.55,-84.14"/>
<polygon fill="midnightblue" stroke="midnightblue" points="85.54,-85.97 87.97,-75.66 79.64,-82.2 85.54,-85.97"/>
</g>
<!-- Node3&#45;&gt;Node2 -->
<g id="edge3" class="edge">
<title>Node3&#45;&gt;Node2</title>
<path fill="none" stroke="midnightblue" d="M87.23,-56.08C81.86,-48.46 73.98,-37.26 67.42,-27.94"/>
<polygon fill="midnightblue" stroke="midnightblue" points="70.28,-25.91 61.66,-19.75 64.55,-29.94 70.28,-25.91"/>
</g>
</g>
</svg>
