<?xml version="1.0" encoding="UTF-8" standalone="no"?>
<!DOCTYPE svg PUBLIC "-//W3C//DTD SVG 1.1//EN"
 "http://www.w3.org/Graphics/SVG/1.1/DTD/svg11.dtd">
<!-- Generated by graphviz version 2.44.0 ()
 -->
<!-- Title: include/cppgc/heap.h Pages: 1 -->
<svg width="411pt" height="218pt"
 viewBox="0.00 0.00 410.50 218.00" xmlns="http://www.w3.org/2000/svg" xmlns:xlink="http://www.w3.org/1999/xlink">
<g id="graph0" class="graph" transform="scale(1 1) rotate(0) translate(4 214)">
<title>include/cppgc/heap.h</title>
<polygon fill="white" stroke="transparent" points="-4,4 -4,-214 406.5,-214 406.5,4 -4,4"/>
<!-- Node1 -->
<g id="node1" class="node">
<title>Node1</title>
<g id="a_node1"><a xlink:title=" ">
<polygon fill="#bfbfbf" stroke="black" points="45.5,-190.5 45.5,-209.5 153.5,-209.5 153.5,-190.5 45.5,-190.5"/>
<text text-anchor="middle" x="99.5" y="-197.5" font-family="Helvetica,sans-Serif" font-size="10.00">include/cppgc/heap.h</text>
</a>
</g>
</g>
<!-- Node2 -->
<g id="node2" class="node">
<title>Node2</title>
<g id="a_node2"><a xlink:href="prefinalizer-handler_8h.html" target="_top" xlink:title=" ">
<polygon fill="white" stroke="black" points="2,-56.5 2,-86.5 113,-86.5 113,-56.5 2,-56.5"/>
<text text-anchor="start" x="10" y="-74.5" font-family="Helvetica,sans-Serif" font-size="10.00">include/cppgc/internal</text>
<text text-anchor="middle" x="57.5" y="-63.5" font-family="Helvetica,sans-Serif" font-size="10.00">/prefinalizer&#45;handler.h</text>
</a>
</g>
</g>
<!-- Node1&#45;&gt;Node2 -->
<g id="edge1" class="edge">
<title>Node1&#45;&gt;Node2</title>
<path fill="none" stroke="midnightblue" d="M88.74,-181.51C84.11,-173.38 78.99,-163.45 75.5,-154 67.07,-131.16 61.95,-103.2 59.43,-86.67"/>
<polygon fill="midnightblue" stroke="midnightblue" points="85.87,-183.54 93.98,-190.37 91.9,-179.98 85.87,-183.54"/>
</g>
<!-- Node4 -->
<g id="node4" class="node">
<title>Node4</title>
<g id="a_node4"><a xlink:href="liveness-broker_8h.html" target="_top" xlink:title=" ">
<polygon fill="white" stroke="black" points="84.5,-123.5 84.5,-153.5 200.5,-153.5 200.5,-123.5 84.5,-123.5"/>
<text text-anchor="start" x="92.5" y="-141.5" font-family="Helvetica,sans-Serif" font-size="10.00">include/cppgc/liveness</text>
<text text-anchor="middle" x="142.5" y="-130.5" font-family="Helvetica,sans-Serif" font-size="10.00">&#45;broker.h</text>
</a>
</g>
</g>
<!-- Node1&#45;&gt;Node4 -->
<g id="edge3" class="edge">
<title>Node1&#45;&gt;Node4</title>
<path fill="none" stroke="midnightblue" d="M111.61,-182.25C118.16,-173.19 126.15,-162.12 132.37,-153.52"/>
<polygon fill="midnightblue" stroke="midnightblue" points="108.68,-180.32 105.66,-190.48 114.36,-184.42 108.68,-180.32"/>
</g>
<!-- Node3 -->
<g id="node3" class="node">
<title>Node3</title>
<g id="a_node3"><a xlink:href="prefinalizer_8h.html" target="_top" xlink:title=" ">
<polygon fill="white" stroke="black" points="0,-0.5 0,-19.5 133,-19.5 133,-0.5 0,-0.5"/>
<text text-anchor="middle" x="66.5" y="-7.5" font-family="Helvetica,sans-Serif" font-size="10.00">include/cppgc/prefinalizer.h</text>
</a>
</g>
</g>
<!-- Node2&#45;&gt;Node3 -->
<g id="edge2" class="edge">
<title>Node2&#45;&gt;Node3</title>
<path fill="none" stroke="midnightblue" d="M61.16,-46.29C62.59,-36.86 64.13,-26.65 65.19,-19.66"/>
<polygon fill="midnightblue" stroke="midnightblue" points="57.67,-45.99 59.63,-56.4 64.59,-47.04 57.67,-45.99"/>
</g>
<!-- Node4&#45;&gt;Node2 -->
<g id="edge4" class="edge">
<title>Node4&#45;&gt;Node2</title>
<path fill="none" stroke="midnightblue" d="M115.91,-117.17C102.91,-107.23 87.6,-95.51 75.91,-86.58"/>
<polygon fill="midnightblue" stroke="midnightblue" points="113.99,-120.1 124.06,-123.4 118.24,-114.54 113.99,-120.1"/>
</g>
<!-- Node4&#45;&gt;Node3 -->
<g id="edge8" class="edge">
<title>Node4&#45;&gt;Node3</title>
<path fill="none" stroke="midnightblue" d="M140.27,-113.18C137.78,-96.08 132.54,-73.27 121.5,-56 111.47,-40.3 94.14,-27.47 81.6,-19.58"/>
<polygon fill="midnightblue" stroke="midnightblue" points="136.84,-113.98 141.54,-123.47 143.79,-113.12 136.84,-113.98"/>
</g>
<!-- Node5 -->
<g id="node5" class="node">
<title>Node5</title>
<g id="a_node5"><a xlink:href="visitor_8h.html" target="_top" xlink:title=" ">
<polygon fill="white" stroke="black" points="170,-62 170,-81 283,-81 283,-62 170,-62"/>
<text text-anchor="middle" x="226.5" y="-69" font-family="Helvetica,sans-Serif" font-size="10.00">include/cppgc/visitor.h</text>
</a>
</g>
</g>
<!-- Node4&#45;&gt;Node5 -->
<g id="edge5" class="edge">
<title>Node4&#45;&gt;Node5</title>
<path fill="none" stroke="midnightblue" d="M168.98,-117.01C184.58,-104.94 203.49,-90.3 215.26,-81.19"/>
<polygon fill="midnightblue" stroke="midnightblue" points="166.49,-114.51 160.73,-123.4 170.78,-120.04 166.49,-114.51"/>
</g>
<!-- Node6 -->
<g id="node6" class="node">
<title>Node6</title>
<g id="a_node6"><a xlink:href="persistent_8h.html" target="_top" xlink:title=" ">
<polygon fill="white" stroke="black" points="156.5,-0.5 156.5,-19.5 286.5,-19.5 286.5,-0.5 156.5,-0.5"/>
<text text-anchor="middle" x="221.5" y="-7.5" font-family="Helvetica,sans-Serif" font-size="10.00">include/cppgc/persistent.h</text>
</a>
</g>
</g>
<!-- Node5&#45;&gt;Node6 -->
<g id="edge6" class="edge">
<title>Node5&#45;&gt;Node6</title>
<path fill="none" stroke="midnightblue" d="M224.93,-51.82C224.02,-41 222.92,-27.9 222.22,-19.51"/>
<polygon fill="midnightblue" stroke="midnightblue" points="221.46,-52.3 225.78,-61.98 228.43,-51.72 221.46,-52.3"/>
</g>
<!-- Node7 -->
<g id="node7" class="node">
<title>Node7</title>
<g id="a_node7"><a xlink:href="v8-cppgc_8h.html" target="_top" xlink:title=" ">
<polygon fill="white" stroke="black" points="304.5,-0.5 304.5,-19.5 402.5,-19.5 402.5,-0.5 304.5,-0.5"/>
<text text-anchor="middle" x="353.5" y="-7.5" font-family="Helvetica,sans-Serif" font-size="10.00">include/v8&#45;cppgc.h</text>
</a>
</g>
</g>
<!-- Node5&#45;&gt;Node7 -->
<g id="edge7" class="edge">
<title>Node5&#45;&gt;Node7</title>
<path fill="none" stroke="midnightblue" d="M253.88,-57.67C278.52,-46.13 314.04,-29.49 335.34,-19.51"/>
<polygon fill="midnightblue" stroke="midnightblue" points="252.27,-54.56 244.7,-61.98 255.24,-60.9 252.27,-54.56"/>
</g>
</g>
</svg>
