<?xml version="1.0" encoding="UTF-8" standalone="no"?>
<!DOCTYPE svg PUBLIC "-//W3C//DTD SVG 1.1//EN"
 "http://www.w3.org/Graphics/SVG/1.1/DTD/svg11.dtd">
<!-- Generated by graphviz version 2.44.0 ()
 -->
<!-- Title: Graphical Class Hierarchy Pages: 1 -->
<svg width="293pt" height="533pt"
 viewBox="0.00 0.00 293.00 532.50" xmlns="http://www.w3.org/2000/svg" xmlns:xlink="http://www.w3.org/1999/xlink">
<g id="graph0" class="graph" transform="scale(1 1) rotate(0) translate(4 528.5)">
<title>Graphical Class Hierarchy</title>
<polygon fill="white" stroke="transparent" points="-4,4 -4,-528.5 289,-528.5 289,4 -4,4"/>
<!-- Node31 -->
<g id="node1" class="node">
<title>Node31</title>
<g id="a_node1"><a xlink:title=" ">
<polygon fill="white" stroke="#bfbfbf" points="0,-242 0,-261 56,-261 56,-242 0,-242"/>
<text text-anchor="middle" x="28" y="-249" font-family="Helvetica,sans-Serif" font-size="10.00">true_type</text>
</a>
</g>
</g>
<!-- Node0 -->
<g id="node2" class="node">
<title>Node0</title>
<g id="a_node2"><a xlink:href="structcppgc_1_1internal_1_1HasFinalizeGarbageCollectedObject_3_01T_00_01void__t_3_01decltype_07sa61520700171f43425adcc1b691e5825.html" target="_top" xlink:title=" ">
<polygon fill="white" stroke="black" points="92,-461 92,-524 285,-524 285,-461 92,-461"/>
<text text-anchor="start" x="100" y="-512" font-family="Helvetica,sans-Serif" font-size="10.00">cppgc::internal::HasFinalize</text>
<text text-anchor="start" x="100" y="-501" font-family="Helvetica,sans-Serif" font-size="10.00">GarbageCollectedObject&lt;</text>
<text text-anchor="start" x="100" y="-490" font-family="Helvetica,sans-Serif" font-size="10.00"> T, void_t&lt; decltype(std</text>
<text text-anchor="start" x="100" y="-479" font-family="Helvetica,sans-Serif" font-size="10.00">::declval&lt; T &gt;().FinalizeGarbageCollected</text>
<text text-anchor="middle" x="188.5" y="-468" font-family="Helvetica,sans-Serif" font-size="10.00">Object())&gt; &gt;</text>
</a>
</g>
</g>
<!-- Node31&#45;&gt;Node0 -->
<g id="edge1" class="edge">
<title>Node31&#45;&gt;Node0</title>
<path fill="none" stroke="midnightblue" d="M29.93,-271.32C32.78,-310.57 44.44,-398.91 92,-451.5 95.03,-454.85 98.37,-457.93 101.94,-460.77"/>
<polygon fill="midnightblue" stroke="midnightblue" points="33.41,-270.99 29.31,-261.22 26.42,-271.41 33.41,-270.99"/>
</g>
<!-- Node33 -->
<g id="node3" class="node">
<title>Node33</title>
<g id="a_node3"><a xlink:href="structcppgc_1_1internal_1_1IsGarbageCollectedMixinType_3_01T_00_01void__t_3_01typename_01std_1_14b46fbef65c16ddacb2df750491360da.html" target="_top" xlink:title=" ">
<polygon fill="white" stroke="black" points="94,-379 94,-442 283,-442 283,-379 94,-379"/>
<text text-anchor="start" x="102" y="-430" font-family="Helvetica,sans-Serif" font-size="10.00">cppgc::internal::IsGarbage</text>
<text text-anchor="start" x="102" y="-419" font-family="Helvetica,sans-Serif" font-size="10.00">CollectedMixinType&lt; T,</text>
<text text-anchor="start" x="102" y="-408" font-family="Helvetica,sans-Serif" font-size="10.00"> void_t&lt; typename std::remove</text>
<text text-anchor="start" x="102" y="-397" font-family="Helvetica,sans-Serif" font-size="10.00">_const_t&lt; T &gt;::IsGarbageCollectedMixin</text>
<text text-anchor="middle" x="188.5" y="-386" font-family="Helvetica,sans-Serif" font-size="10.00">TypeMarker &gt; &gt;</text>
</a>
</g>
</g>
<!-- Node31&#45;&gt;Node33 -->
<g id="edge2" class="edge">
<title>Node31&#45;&gt;Node33</title>
<path fill="none" stroke="midnightblue" d="M34.81,-270.82C43.44,-296.51 61.92,-341.87 92,-369.5 95.72,-372.92 99.77,-376.08 104.03,-379"/>
<polygon fill="midnightblue" stroke="midnightblue" points="38.09,-269.59 31.71,-261.13 31.42,-271.72 38.09,-269.59"/>
</g>
<!-- Node34 -->
<g id="node4" class="node">
<title>Node34</title>
<g id="a_node4"><a xlink:href="structcppgc_1_1internal_1_1IsGarbageCollectedType_3_01T_00_01void__t_3_01typename_01std_1_1remov242c3cc73022aacbda81955038f7dedf.html" target="_top" xlink:title=" ">
<polygon fill="white" stroke="black" points="105,-297 105,-360 272,-360 272,-297 105,-297"/>
<text text-anchor="start" x="113" y="-348" font-family="Helvetica,sans-Serif" font-size="10.00">cppgc::internal::IsGarbage</text>
<text text-anchor="start" x="113" y="-337" font-family="Helvetica,sans-Serif" font-size="10.00">CollectedType&lt; T, void</text>
<text text-anchor="start" x="113" y="-326" font-family="Helvetica,sans-Serif" font-size="10.00">_t&lt; typename std::remove</text>
<text text-anchor="start" x="113" y="-315" font-family="Helvetica,sans-Serif" font-size="10.00">_const_t&lt; T &gt;::IsGarbageCollected</text>
<text text-anchor="middle" x="188.5" y="-304" font-family="Helvetica,sans-Serif" font-size="10.00">TypeMarker &gt; &gt;</text>
</a>
</g>
</g>
<!-- Node31&#45;&gt;Node34 -->
<g id="edge3" class="edge">
<title>Node31&#45;&gt;Node34</title>
<path fill="none" stroke="midnightblue" d="M53.18,-266.18C64.76,-272.98 78.92,-280.98 92,-287.5 98.38,-290.68 105.06,-293.85 111.81,-296.95"/>
<polygon fill="midnightblue" stroke="midnightblue" points="54.91,-263.13 44.52,-261.03 51.33,-269.15 54.91,-263.13"/>
</g>
<!-- Node35 -->
<g id="node5" class="node">
<title>Node35</title>
<g id="a_node5"><a xlink:href="structcppgc_1_1internal_1_1IsTraceable_3_01T_00_01void__t_3_01decltype_07std_1_1declval_3_01T_0168466c9ac6c89dfb7a8449cb1b8ecb7f.html" target="_top" xlink:title=" ">
<polygon fill="white" stroke="black" points="121.5,-225.5 121.5,-277.5 255.5,-277.5 255.5,-225.5 121.5,-225.5"/>
<text text-anchor="start" x="129.5" y="-265.5" font-family="Helvetica,sans-Serif" font-size="10.00">cppgc::internal::IsTraceable</text>
<text text-anchor="start" x="129.5" y="-254.5" font-family="Helvetica,sans-Serif" font-size="10.00">&lt; T, void_t&lt; decltype(std</text>
<text text-anchor="start" x="129.5" y="-243.5" font-family="Helvetica,sans-Serif" font-size="10.00">::declval&lt; T &gt;().Trace(std</text>
<text text-anchor="middle" x="188.5" y="-232.5" font-family="Helvetica,sans-Serif" font-size="10.00">::declval&lt; Visitor * &gt;()))&gt; &gt;</text>
</a>
</g>
</g>
<!-- Node31&#45;&gt;Node35 -->
<g id="edge4" class="edge">
<title>Node31&#45;&gt;Node35</title>
<path fill="none" stroke="midnightblue" d="M66.51,-251.5C82.92,-251.5 102.67,-251.5 121.42,-251.5"/>
<polygon fill="midnightblue" stroke="midnightblue" points="66.25,-248 56.25,-251.5 66.25,-255 66.25,-248"/>
</g>
<!-- Node36 -->
<g id="node6" class="node">
<title>Node36</title>
<g id="a_node6"><a xlink:href="structcppgc_1_1internal_1_1IsTraceMethodConst_3_01T_00_01void__t_3_01decltype_07std_1_1declval_340f310667d584b91bf9e1fcf69c55d0e.html" target="_top" xlink:title=" ">
<polygon fill="white" stroke="black" points="124.5,-143 124.5,-206 252.5,-206 252.5,-143 124.5,-143"/>
<text text-anchor="start" x="132.5" y="-194" font-family="Helvetica,sans-Serif" font-size="10.00">cppgc::internal::IsTrace</text>
<text text-anchor="start" x="132.5" y="-183" font-family="Helvetica,sans-Serif" font-size="10.00">MethodConst&lt; T, void_t</text>
<text text-anchor="start" x="132.5" y="-172" font-family="Helvetica,sans-Serif" font-size="10.00">&lt; decltype(std::declval</text>
<text text-anchor="start" x="132.5" y="-161" font-family="Helvetica,sans-Serif" font-size="10.00">&lt; const T &gt;().Trace(std</text>
<text text-anchor="middle" x="188.5" y="-150" font-family="Helvetica,sans-Serif" font-size="10.00">::declval&lt; Visitor * &gt;()))&gt; &gt;</text>
</a>
</g>
</g>
<!-- Node31&#45;&gt;Node36 -->
<g id="edge5" class="edge">
<title>Node31&#45;&gt;Node36</title>
<path fill="none" stroke="midnightblue" d="M54.31,-236.74C65.7,-230.28 79.39,-222.76 92,-216.5 102.38,-211.35 113.54,-206.14 124.44,-201.24"/>
<polygon fill="midnightblue" stroke="midnightblue" points="52.29,-233.86 45.36,-241.86 55.77,-239.93 52.29,-233.86"/>
</g>
<!-- Node37 -->
<g id="node7" class="node">
<title>Node37</title>
<g id="a_node7"><a xlink:href="structcppgc_1_1internal_1_1IsWeak_3_01BasicPersistent_3_01T_00_01internal_1_1WeakPersistentPolica0137f7022c128522e140d084b881692.html" target="_top" xlink:title=" ">
<polygon fill="white" stroke="black" points="103,-71.5 103,-123.5 274,-123.5 274,-71.5 103,-71.5"/>
<text text-anchor="start" x="111" y="-111.5" font-family="Helvetica,sans-Serif" font-size="10.00">cppgc::internal::IsWeak</text>
<text text-anchor="start" x="111" y="-100.5" font-family="Helvetica,sans-Serif" font-size="10.00">&lt; BasicPersistent&lt; T,</text>
<text text-anchor="start" x="111" y="-89.5" font-family="Helvetica,sans-Serif" font-size="10.00"> internal::WeakPersistentPolicy,</text>
<text text-anchor="middle" x="188.5" y="-78.5" font-family="Helvetica,sans-Serif" font-size="10.00"> LocationPolicy, CheckingPolicy &gt; &gt;</text>
</a>
</g>
</g>
<!-- Node31&#45;&gt;Node37 -->
<g id="edge6" class="edge">
<title>Node31&#45;&gt;Node37</title>
<path fill="none" stroke="midnightblue" d="M34.63,-231.98C43.05,-206.06 61.31,-160.45 92,-133.5 96.13,-129.88 100.66,-126.6 105.43,-123.65"/>
<polygon fill="midnightblue" stroke="midnightblue" points="31.21,-231.18 31.62,-241.76 37.9,-233.24 31.21,-231.18"/>
</g>
<!-- Node38 -->
<g id="node8" class="node">
<title>Node38</title>
<g id="a_node8"><a xlink:href="structcppgc_1_1internal_1_1IsWeak_3_01internal_1_1BasicMember_3_01T_00_01WeakMemberTag_00_01Writdeb64fe096629f63a5b8562f6a14743b.html" target="_top" xlink:title=" ">
<polygon fill="white" stroke="black" points="104,-0.5 104,-52.5 273,-52.5 273,-0.5 104,-0.5"/>
<text text-anchor="start" x="112" y="-40.5" font-family="Helvetica,sans-Serif" font-size="10.00">cppgc::internal::IsWeak</text>
<text text-anchor="start" x="112" y="-29.5" font-family="Helvetica,sans-Serif" font-size="10.00">&lt; internal::BasicMember</text>
<text text-anchor="start" x="112" y="-18.5" font-family="Helvetica,sans-Serif" font-size="10.00">&lt; T, WeakMemberTag, WriteBarrier</text>
<text text-anchor="middle" x="188.5" y="-7.5" font-family="Helvetica,sans-Serif" font-size="10.00">Policy, CheckingPolicy &gt; &gt;</text>
</a>
</g>
</g>
<!-- Node31&#45;&gt;Node38 -->
<g id="edge7" class="edge">
<title>Node31&#45;&gt;Node38</title>
<path fill="none" stroke="midnightblue" d="M30.16,-231.55C33.41,-193.63 45.71,-110.62 92,-62.5 95.56,-58.8 99.54,-55.47 103.8,-52.48"/>
<polygon fill="midnightblue" stroke="midnightblue" points="26.65,-231.56 29.41,-241.79 33.63,-232.07 26.65,-231.56"/>
</g>
</g>
</svg>
