<?xml version="1.0" encoding="UTF-8" standalone="no"?>
<!DOCTYPE svg PUBLIC "-//W3C//DTD SVG 1.1//EN"
 "http://www.w3.org/Graphics/SVG/1.1/DTD/svg11.dtd">
<!-- Generated by graphviz version 2.44.0 ()
 -->
<!-- Title: include/cppgc/prefinalizer.h Pages: 1 -->
<svg width="1043pt" height="531pt"
 viewBox="0.00 0.00 1043.00 531.00" xmlns="http://www.w3.org/2000/svg" xmlns:xlink="http://www.w3.org/1999/xlink">
<g id="graph0" class="graph" transform="scale(1 1) rotate(0) translate(4 527)">
<title>include/cppgc/prefinalizer.h</title>
<polygon fill="white" stroke="transparent" points="-4,4 -4,-527 1039,-527 1039,4 -4,4"/>
<!-- Node1 -->
<g id="node1" class="node">
<title>Node1</title>
<g id="a_node1"><a xlink:title=" ">
<polygon fill="#bfbfbf" stroke="black" points="414,-503.5 414,-522.5 547,-522.5 547,-503.5 414,-503.5"/>
<text text-anchor="middle" x="480.5" y="-510.5" font-family="Helvetica,sans-Serif" font-size="10.00">include/cppgc/prefinalizer.h</text>
</a>
</g>
</g>
<!-- Node2 -->
<g id="node2" class="node">
<title>Node2</title>
<g id="a_node2"><a xlink:href="compiler-specific_8h.html" target="_top" xlink:title=" ">
<polygon fill="white" stroke="black" points="335,-436.5 335,-466.5 452,-466.5 452,-436.5 335,-436.5"/>
<text text-anchor="start" x="343" y="-454.5" font-family="Helvetica,sans-Serif" font-size="10.00">cppgc/internal/compiler</text>
<text text-anchor="middle" x="393.5" y="-443.5" font-family="Helvetica,sans-Serif" font-size="10.00">&#45;specific.h</text>
</a>
</g>
</g>
<!-- Node1&#45;&gt;Node2 -->
<g id="edge1" class="edge">
<title>Node1&#45;&gt;Node2</title>
<path fill="none" stroke="midnightblue" d="M468.04,-503.48C456.14,-495.34 437.79,-482.79 422.27,-472.18"/>
<polygon fill="midnightblue" stroke="midnightblue" points="424.23,-469.28 414,-466.52 420.28,-475.06 424.23,-469.28"/>
</g>
<!-- Node3 -->
<g id="node3" class="node">
<title>Node3</title>
<g id="a_node3"><a xlink:href="prefinalizer-handler_8h.html" target="_top" xlink:title=" ">
<polygon fill="white" stroke="black" points="508.5,-436.5 508.5,-466.5 634.5,-466.5 634.5,-436.5 508.5,-436.5"/>
<text text-anchor="start" x="516.5" y="-454.5" font-family="Helvetica,sans-Serif" font-size="10.00">cppgc/internal/prefinalizer</text>
<text text-anchor="middle" x="571.5" y="-443.5" font-family="Helvetica,sans-Serif" font-size="10.00">&#45;handler.h</text>
</a>
</g>
</g>
<!-- Node1&#45;&gt;Node3 -->
<g id="edge2" class="edge">
<title>Node1&#45;&gt;Node3</title>
<path fill="none" stroke="midnightblue" d="M493.54,-503.48C505.98,-495.34 525.17,-482.79 541.4,-472.18"/>
<polygon fill="midnightblue" stroke="midnightblue" points="543.6,-474.92 550.05,-466.52 539.77,-469.07 543.6,-474.92"/>
</g>
<!-- Node16 -->
<g id="node16" class="node">
<title>Node16</title>
<g id="a_node16"><a xlink:href="liveness-broker_8h.html" target="_top" xlink:title=" ">
<polygon fill="white" stroke="black" points="421,-380.5 421,-399.5 540,-399.5 540,-380.5 421,-380.5"/>
<text text-anchor="middle" x="480.5" y="-387.5" font-family="Helvetica,sans-Serif" font-size="10.00">cppgc/liveness&#45;broker.h</text>
</a>
</g>
</g>
<!-- Node1&#45;&gt;Node16 -->
<g id="edge51" class="edge">
<title>Node1&#45;&gt;Node16</title>
<path fill="none" stroke="midnightblue" d="M480.5,-503.3C480.5,-483.85 480.5,-436.49 480.5,-409.9"/>
<polygon fill="midnightblue" stroke="midnightblue" points="484,-409.62 480.5,-399.62 477,-409.62 484,-409.62"/>
</g>
<!-- Node4 -->
<g id="node4" class="node">
<title>Node4</title>
<g id="a_node4"><a xlink:href="heap_8h.html" target="_top" xlink:title=" ">
<polygon fill="white" stroke="black" points="555.5,-263 555.5,-282 629.5,-282 629.5,-263 555.5,-263"/>
<text text-anchor="middle" x="592.5" y="-270" font-family="Helvetica,sans-Serif" font-size="10.00">cppgc/heap.h</text>
</a>
</g>
</g>
<!-- Node3&#45;&gt;Node4 -->
<g id="edge3" class="edge">
<title>Node3&#45;&gt;Node4</title>
<path fill="none" stroke="midnightblue" d="M573.18,-436.31C576.94,-404.63 586.02,-328.11 590.26,-292.42"/>
<polygon fill="midnightblue" stroke="midnightblue" points="593.74,-292.72 591.45,-282.37 586.79,-291.89 593.74,-292.72"/>
</g>
<!-- Node3&#45;&gt;Node16 -->
<g id="edge20" class="edge">
<title>Node3&#45;&gt;Node16</title>
<path fill="none" stroke="midnightblue" d="M549.93,-436.4C535.62,-427.04 516.89,-414.79 502.49,-405.38"/>
<polygon fill="midnightblue" stroke="midnightblue" points="504.03,-402.2 493.74,-399.66 500.2,-408.06 504.03,-402.2"/>
</g>
<!-- Node5 -->
<g id="node5" class="node">
<title>Node5</title>
<g id="a_node5"><a xlink:title=" ">
<polygon fill="white" stroke="#bfbfbf" points="984,-62 984,-81 1035,-81 1035,-62 984,-62"/>
<text text-anchor="middle" x="1009.5" y="-69" font-family="Helvetica,sans-Serif" font-size="10.00">memory</text>
</a>
</g>
</g>
<!-- Node4&#45;&gt;Node5 -->
<g id="edge4" class="edge">
<title>Node4&#45;&gt;Node5</title>
<path fill="none" stroke="midnightblue" d="M629.55,-267.25C725.02,-255.43 975.13,-218.74 1021.5,-154 1034.87,-135.34 1026.75,-108.04 1018.84,-90.27"/>
<polygon fill="midnightblue" stroke="midnightblue" points="1021.88,-88.52 1014.37,-81.05 1015.59,-91.57 1021.88,-88.52"/>
</g>
<!-- Node6 -->
<g id="node6" class="node">
<title>Node6</title>
<g id="a_node6"><a xlink:title=" ">
<polygon fill="white" stroke="#bfbfbf" points="613.5,-196 613.5,-215 657.5,-215 657.5,-196 613.5,-196"/>
<text text-anchor="middle" x="635.5" y="-203" font-family="Helvetica,sans-Serif" font-size="10.00">vector</text>
</a>
</g>
</g>
<!-- Node4&#45;&gt;Node6 -->
<g id="edge5" class="edge">
<title>Node4&#45;&gt;Node6</title>
<path fill="none" stroke="midnightblue" d="M598.3,-262.73C604.88,-252.79 615.76,-236.34 624.06,-223.79"/>
<polygon fill="midnightblue" stroke="midnightblue" points="627.19,-225.4 629.79,-215.13 621.36,-221.54 627.19,-225.4"/>
</g>
<!-- Node7 -->
<g id="node7" class="node">
<title>Node7</title>
<g id="a_node7"><a xlink:href="common_8h.html" target="_top" xlink:title=" ">
<polygon fill="white" stroke="black" points="547,-129 547,-148 638,-148 638,-129 547,-129"/>
<text text-anchor="middle" x="592.5" y="-136" font-family="Helvetica,sans-Serif" font-size="10.00">cppgc/common.h</text>
</a>
</g>
</g>
<!-- Node4&#45;&gt;Node7 -->
<g id="edge6" class="edge">
<title>Node4&#45;&gt;Node7</title>
<path fill="none" stroke="midnightblue" d="M592.5,-262.84C592.5,-241.67 592.5,-186.95 592.5,-158.03"/>
<polygon fill="midnightblue" stroke="midnightblue" points="596,-158.02 592.5,-148.02 589,-158.02 596,-158.02"/>
</g>
<!-- Node8 -->
<g id="node8" class="node">
<title>Node8</title>
<g id="a_node8"><a xlink:href="v8config_8h.html" target="_top" xlink:title=" ">
<polygon fill="white" stroke="black" points="431.5,-62 431.5,-81 491.5,-81 491.5,-62 431.5,-62"/>
<text text-anchor="middle" x="461.5" y="-69" font-family="Helvetica,sans-Serif" font-size="10.00">v8config.h</text>
</a>
</g>
</g>
<!-- Node4&#45;&gt;Node8 -->
<g id="edge19" class="edge">
<title>Node4&#45;&gt;Node8</title>
<path fill="none" stroke="midnightblue" d="M586.87,-262.95C566.97,-232.72 499.69,-130.51 472.77,-89.62"/>
<polygon fill="midnightblue" stroke="midnightblue" points="475.68,-87.67 467.26,-81.24 469.83,-91.52 475.68,-87.67"/>
</g>
<!-- Node9 -->
<g id="node9" class="node">
<title>Node9</title>
<g id="a_node9"><a xlink:href="custom-space_8h.html" target="_top" xlink:title=" ">
<polygon fill="white" stroke="black" points="897,-129 897,-148 1012,-148 1012,-129 897,-129"/>
<text text-anchor="middle" x="954.5" y="-136" font-family="Helvetica,sans-Serif" font-size="10.00">cppgc/custom&#45;space.h</text>
</a>
</g>
</g>
<!-- Node4&#45;&gt;Node9 -->
<g id="edge8" class="edge">
<title>Node4&#45;&gt;Node9</title>
<path fill="none" stroke="midnightblue" d="M628.85,-262.98C665.56,-253.98 723.67,-238.67 772.5,-221 829.48,-200.38 893.63,-169.85 928.5,-152.61"/>
<polygon fill="midnightblue" stroke="midnightblue" points="930.14,-155.7 937.53,-148.12 927.02,-149.44 930.14,-155.7"/>
</g>
<!-- Node11 -->
<g id="node11" class="node">
<title>Node11</title>
<g id="a_node11"><a xlink:href="platform_8h.html" target="_top" xlink:title=" ">
<polygon fill="white" stroke="black" points="675,-196 675,-215 764,-215 764,-196 675,-196"/>
<text text-anchor="middle" x="719.5" y="-203" font-family="Helvetica,sans-Serif" font-size="10.00">cppgc/platform.h</text>
</a>
</g>
</g>
<!-- Node4&#45;&gt;Node11 -->
<g id="edge10" class="edge">
<title>Node4&#45;&gt;Node11</title>
<path fill="none" stroke="midnightblue" d="M609.36,-262.87C630.9,-251.84 668.4,-232.66 693.58,-219.77"/>
<polygon fill="midnightblue" stroke="midnightblue" points="695.26,-222.84 702.57,-215.17 692.07,-216.61 695.26,-222.84"/>
</g>
<!-- Node7&#45;&gt;Node8 -->
<g id="edge7" class="edge">
<title>Node7&#45;&gt;Node8</title>
<path fill="none" stroke="midnightblue" d="M575.1,-128.87C552.89,-117.84 514.21,-98.66 488.24,-85.77"/>
<polygon fill="midnightblue" stroke="midnightblue" points="489.48,-82.48 478.97,-81.17 486.37,-88.75 489.48,-82.48"/>
</g>
<!-- Node10 -->
<g id="node10" class="node">
<title>Node10</title>
<g id="a_node10"><a xlink:title=" ">
<polygon fill="white" stroke="#bfbfbf" points="875,-62 875,-81 926,-81 926,-62 875,-62"/>
<text text-anchor="middle" x="900.5" y="-69" font-family="Helvetica,sans-Serif" font-size="10.00">stddef.h</text>
</a>
</g>
</g>
<!-- Node9&#45;&gt;Node10 -->
<g id="edge9" class="edge">
<title>Node9&#45;&gt;Node10</title>
<path fill="none" stroke="midnightblue" d="M947.22,-128.73C938.8,-118.6 924.75,-101.69 914.25,-89.06"/>
<polygon fill="midnightblue" stroke="midnightblue" points="916.75,-86.58 907.67,-81.13 911.37,-91.06 916.75,-86.58"/>
</g>
<!-- Node11&#45;&gt;Node8 -->
<g id="edge18" class="edge">
<title>Node11&#45;&gt;Node8</title>
<path fill="none" stroke="midnightblue" d="M714.25,-195.88C703.61,-179.19 677.85,-142.37 646.5,-123 601.52,-95.21 541.15,-82.47 501.8,-76.79"/>
<polygon fill="midnightblue" stroke="midnightblue" points="502.16,-73.31 491.78,-75.44 501.22,-80.25 502.16,-73.31"/>
</g>
<!-- Node12 -->
<g id="node12" class="node">
<title>Node12</title>
<g id="a_node12"><a xlink:href="v8-platform_8h.html" target="_top" xlink:title=" ">
<polygon fill="white" stroke="black" points="806,-129 806,-148 879,-148 879,-129 806,-129"/>
<text text-anchor="middle" x="842.5" y="-136" font-family="Helvetica,sans-Serif" font-size="10.00">v8&#45;platform.h</text>
</a>
</g>
</g>
<!-- Node11&#45;&gt;Node12 -->
<g id="edge11" class="edge">
<title>Node11&#45;&gt;Node12</title>
<path fill="none" stroke="midnightblue" d="M735.83,-195.87C756.6,-184.89 792.69,-165.82 817.07,-152.94"/>
<polygon fill="midnightblue" stroke="midnightblue" points="818.89,-155.93 826.1,-148.17 815.62,-149.75 818.89,-155.93"/>
</g>
<!-- Node12&#45;&gt;Node5 -->
<g id="edge15" class="edge">
<title>Node12&#45;&gt;Node5</title>
<path fill="none" stroke="midnightblue" d="M864.68,-128.87C893.7,-117.57 944.77,-97.7 977.85,-84.82"/>
<polygon fill="midnightblue" stroke="midnightblue" points="979.45,-87.95 987.5,-81.06 976.91,-81.43 979.45,-87.95"/>
</g>
<!-- Node12&#45;&gt;Node8 -->
<g id="edge17" class="edge">
<title>Node12&#45;&gt;Node8</title>
<path fill="none" stroke="midnightblue" d="M817.87,-128.96C811.01,-126.79 803.52,-124.62 796.5,-123 741.09,-110.17 578.2,-87.9 501.85,-77.78"/>
<polygon fill="midnightblue" stroke="midnightblue" points="502.05,-74.28 491.68,-76.44 501.13,-81.22 502.05,-74.28"/>
</g>
<!-- Node12&#45;&gt;Node10 -->
<g id="edge12" class="edge">
<title>Node12&#45;&gt;Node10</title>
<path fill="none" stroke="midnightblue" d="M850.32,-128.73C859.45,-118.5 874.74,-101.36 886.05,-88.69"/>
<polygon fill="midnightblue" stroke="midnightblue" points="888.76,-90.92 892.8,-81.13 883.53,-86.26 888.76,-90.92"/>
</g>
<!-- Node13 -->
<g id="node13" class="node">
<title>Node13</title>
<g id="a_node13"><a xlink:title=" ">
<polygon fill="white" stroke="#bfbfbf" points="726.5,-62 726.5,-81 774.5,-81 774.5,-62 726.5,-62"/>
<text text-anchor="middle" x="750.5" y="-69" font-family="Helvetica,sans-Serif" font-size="10.00">stdint.h</text>
</a>
</g>
</g>
<!-- Node12&#45;&gt;Node13 -->
<g id="edge13" class="edge">
<title>Node12&#45;&gt;Node13</title>
<path fill="none" stroke="midnightblue" d="M830.09,-128.73C814.92,-118.01 789.02,-99.72 770.9,-86.91"/>
<polygon fill="midnightblue" stroke="midnightblue" points="772.9,-84.04 762.71,-81.13 768.86,-89.76 772.9,-84.04"/>
</g>
<!-- Node14 -->
<g id="node14" class="node">
<title>Node14</title>
<g id="a_node14"><a xlink:title=" ">
<polygon fill="white" stroke="#bfbfbf" points="810,-62 810,-81 857,-81 857,-62 810,-62"/>
<text text-anchor="middle" x="833.5" y="-69" font-family="Helvetica,sans-Serif" font-size="10.00">stdlib.h</text>
</a>
</g>
</g>
<!-- Node12&#45;&gt;Node14 -->
<g id="edge14" class="edge">
<title>Node12&#45;&gt;Node14</title>
<path fill="none" stroke="midnightblue" d="M841.29,-128.73C839.96,-119.18 837.81,-103.62 836.1,-91.28"/>
<polygon fill="midnightblue" stroke="midnightblue" points="839.53,-90.55 834.69,-81.13 832.6,-91.51 839.53,-90.55"/>
</g>
<!-- Node15 -->
<g id="node15" class="node">
<title>Node15</title>
<g id="a_node15"><a xlink:title=" ">
<polygon fill="white" stroke="#bfbfbf" points="584,-62 584,-81 625,-81 625,-62 584,-62"/>
<text text-anchor="middle" x="604.5" y="-69" font-family="Helvetica,sans-Serif" font-size="10.00">string</text>
</a>
</g>
</g>
<!-- Node12&#45;&gt;Node15 -->
<g id="edge16" class="edge">
<title>Node12&#45;&gt;Node15</title>
<path fill="none" stroke="midnightblue" d="M816.29,-129C809.84,-126.97 802.94,-124.86 796.5,-123 739.75,-106.6 672.93,-89.53 634.96,-80.03"/>
<polygon fill="midnightblue" stroke="midnightblue" points="635.6,-76.58 625.05,-77.56 633.9,-83.37 635.6,-76.58"/>
</g>
<!-- Node16&#45;&gt;Node4 -->
<g id="edge21" class="edge">
<title>Node16&#45;&gt;Node4</title>
<path fill="none" stroke="midnightblue" d="M488.92,-380.32C507.65,-361 553,-314.24 577,-289.48"/>
<polygon fill="midnightblue" stroke="midnightblue" points="579.54,-291.9 583.98,-282.28 574.51,-287.02 579.54,-291.9"/>
</g>
<!-- Node16&#45;&gt;Node8 -->
<g id="edge50" class="edge">
<title>Node16&#45;&gt;Node8</title>
<path fill="none" stroke="midnightblue" d="M480.5,-380.31C480.5,-361.06 480.5,-313.4 480.5,-273.5 480.5,-273.5 480.5,-273.5 480.5,-204.5 480.5,-163.74 471.52,-116.62 465.9,-91.16"/>
<polygon fill="midnightblue" stroke="midnightblue" points="469.24,-90.06 463.61,-81.09 462.42,-91.61 469.24,-90.06"/>
</g>
<!-- Node17 -->
<g id="node17" class="node">
<title>Node17</title>
<g id="a_node17"><a xlink:href="member_8h.html" target="_top" xlink:title=" ">
<polygon fill="white" stroke="black" points="238,-324.5 238,-343.5 327,-343.5 327,-324.5 238,-324.5"/>
<text text-anchor="middle" x="282.5" y="-331.5" font-family="Helvetica,sans-Serif" font-size="10.00">cppgc/member.h</text>
</a>
</g>
</g>
<!-- Node16&#45;&gt;Node17 -->
<g id="edge22" class="edge">
<title>Node16&#45;&gt;Node17</title>
<path fill="none" stroke="midnightblue" d="M449.13,-380.44C415.24,-371.2 361.1,-356.44 323.78,-346.26"/>
<polygon fill="midnightblue" stroke="midnightblue" points="324.3,-342.77 313.73,-343.52 322.45,-349.52 324.3,-342.77"/>
</g>
<!-- Node29 -->
<g id="node29" class="node">
<title>Node29</title>
<g id="a_node29"><a xlink:href="trace-trait_8h.html" target="_top" xlink:title=" ">
<polygon fill="white" stroke="black" points="0,-324.5 0,-343.5 95,-343.5 95,-324.5 0,-324.5"/>
<text text-anchor="middle" x="47.5" y="-331.5" font-family="Helvetica,sans-Serif" font-size="10.00">cppgc/trace&#45;trait.h</text>
</a>
</g>
</g>
<!-- Node16&#45;&gt;Node29 -->
<g id="edge46" class="edge">
<title>Node16&#45;&gt;Node29</title>
<path fill="none" stroke="midnightblue" d="M420.75,-381.55C337.43,-371.16 187.35,-352.44 105.16,-342.19"/>
<polygon fill="midnightblue" stroke="midnightblue" points="105.36,-338.69 95,-340.92 104.49,-345.63 105.36,-338.69"/>
</g>
<!-- Node17&#45;&gt;Node8 -->
<g id="edge45" class="edge">
<title>Node17&#45;&gt;Node8</title>
<path fill="none" stroke="midnightblue" d="M296.77,-324.49C310.29,-316.09 330.81,-302.44 346.5,-288 375.06,-261.73 382.64,-254.34 402.5,-221 428.56,-177.25 447.58,-119.9 456.26,-90.94"/>
<polygon fill="midnightblue" stroke="midnightblue" points="459.63,-91.9 459.07,-81.32 452.91,-89.93 459.63,-91.9"/>
</g>
<!-- Node18 -->
<g id="node18" class="node">
<title>Node18</title>
<g id="a_node18"><a xlink:title=" ">
<polygon fill="white" stroke="#bfbfbf" points="76.5,-0.5 76.5,-19.5 122.5,-19.5 122.5,-0.5 76.5,-0.5"/>
<text text-anchor="middle" x="99.5" y="-7.5" font-family="Helvetica,sans-Serif" font-size="10.00">atomic</text>
</a>
</g>
</g>
<!-- Node17&#45;&gt;Node18 -->
<g id="edge23" class="edge">
<title>Node17&#45;&gt;Node18</title>
<path fill="none" stroke="midnightblue" d="M268.69,-324.43C255.32,-315.88 234.74,-302.02 218.5,-288 173.05,-248.76 170.73,-229.49 125.5,-190 104.87,-171.99 87.98,-178.37 75.5,-154 70.63,-144.5 70.05,-86.14 77.5,-56 79.87,-46.4 84.48,-36.44 88.87,-28.35"/>
<polygon fill="midnightblue" stroke="midnightblue" points="91.98,-29.95 93.95,-19.54 85.92,-26.45 91.98,-29.95"/>
</g>
<!-- Node19 -->
<g id="node19" class="node">
<title>Node19</title>
<g id="a_node19"><a xlink:title=" ">
<polygon fill="white" stroke="#bfbfbf" points="403,-263 403,-282 452,-282 452,-263 403,-263"/>
<text text-anchor="middle" x="427.5" y="-270" font-family="Helvetica,sans-Serif" font-size="10.00">cstddef</text>
</a>
</g>
</g>
<!-- Node17&#45;&gt;Node19 -->
<g id="edge24" class="edge">
<title>Node17&#45;&gt;Node19</title>
<path fill="none" stroke="midnightblue" d="M303.27,-324.48C327.93,-314.36 369.25,-297.4 397.4,-285.85"/>
<polygon fill="midnightblue" stroke="midnightblue" points="398.84,-289.04 406.76,-282.01 396.18,-282.57 398.84,-289.04"/>
</g>
<!-- Node20 -->
<g id="node20" class="node">
<title>Node20</title>
<g id="a_node20"><a xlink:title=" ">
<polygon fill="white" stroke="#bfbfbf" points="54.5,-196 54.5,-215 116.5,-215 116.5,-196 54.5,-196"/>
<text text-anchor="middle" x="85.5" y="-203" font-family="Helvetica,sans-Serif" font-size="10.00">type_traits</text>
</a>
</g>
</g>
<!-- Node17&#45;&gt;Node20 -->
<g id="edge25" class="edge">
<title>Node17&#45;&gt;Node20</title>
<path fill="none" stroke="midnightblue" d="M260.12,-324.48C239.92,-316.37 209.74,-303.16 185.5,-288 153.91,-268.23 121.14,-239.74 102.07,-222.2"/>
<polygon fill="midnightblue" stroke="midnightblue" points="104.26,-219.46 94.55,-215.21 99.49,-224.58 104.26,-219.46"/>
</g>
<!-- Node21 -->
<g id="node21" class="node">
<title>Node21</title>
<g id="a_node21"><a xlink:href="pointer-policies_8h.html" target="_top" xlink:title=" ">
<polygon fill="white" stroke="black" points="227.5,-257.5 227.5,-287.5 337.5,-287.5 337.5,-257.5 227.5,-257.5"/>
<text text-anchor="start" x="235.5" y="-275.5" font-family="Helvetica,sans-Serif" font-size="10.00">cppgc/internal/pointer</text>
<text text-anchor="middle" x="282.5" y="-264.5" font-family="Helvetica,sans-Serif" font-size="10.00">&#45;policies.h</text>
</a>
</g>
</g>
<!-- Node17&#45;&gt;Node21 -->
<g id="edge26" class="edge">
<title>Node17&#45;&gt;Node21</title>
<path fill="none" stroke="midnightblue" d="M282.5,-324.48C282.5,-317.47 282.5,-307.19 282.5,-297.7"/>
<polygon fill="midnightblue" stroke="midnightblue" points="286,-297.52 282.5,-287.52 279,-297.52 286,-297.52"/>
</g>
<!-- Node28 -->
<g id="node28" class="node">
<title>Node28</title>
<g id="a_node28"><a xlink:href="type-traits_8h.html" target="_top" xlink:title=" ">
<polygon fill="white" stroke="black" points="37.5,-263 37.5,-282 133.5,-282 133.5,-263 37.5,-263"/>
<text text-anchor="middle" x="85.5" y="-270" font-family="Helvetica,sans-Serif" font-size="10.00">cppgc/type&#45;traits.h</text>
</a>
</g>
</g>
<!-- Node17&#45;&gt;Node28 -->
<g id="edge43" class="edge">
<title>Node17&#45;&gt;Node28</title>
<path fill="none" stroke="midnightblue" d="M254.27,-324.48C219.9,-314.09 161.69,-296.51 123.42,-284.95"/>
<polygon fill="midnightblue" stroke="midnightblue" points="124.26,-281.55 113.67,-282.01 122.23,-288.25 124.26,-281.55"/>
</g>
<!-- Node21&#45;&gt;Node8 -->
<g id="edge42" class="edge">
<title>Node21&#45;&gt;Node8</title>
<path fill="none" stroke="midnightblue" d="M243.84,-257.37C227.73,-249.34 210.67,-237.52 201.5,-221 194.81,-208.95 196.37,-202.79 201.5,-190 235.72,-104.64 357.06,-81.29 421.15,-74.9"/>
<polygon fill="midnightblue" stroke="midnightblue" points="421.66,-78.37 431.3,-73.99 421.03,-71.4 421.66,-78.37"/>
</g>
<!-- Node21&#45;&gt;Node20 -->
<g id="edge28" class="edge">
<title>Node21&#45;&gt;Node20</title>
<path fill="none" stroke="midnightblue" d="M239.75,-257.4C204.27,-245.69 154.39,-229.23 121.06,-218.23"/>
<polygon fill="midnightblue" stroke="midnightblue" points="121.88,-214.82 111.28,-215.01 119.68,-221.46 121.88,-214.82"/>
</g>
<!-- Node22 -->
<g id="node22" class="node">
<title>Node22</title>
<g id="a_node22"><a xlink:title=" ">
<polygon fill="white" stroke="#bfbfbf" points="330.5,-196 330.5,-215 376.5,-215 376.5,-196 330.5,-196"/>
<text text-anchor="middle" x="353.5" y="-203" font-family="Helvetica,sans-Serif" font-size="10.00">cstdint</text>
</a>
</g>
</g>
<!-- Node21&#45;&gt;Node22 -->
<g id="edge27" class="edge">
<title>Node21&#45;&gt;Node22</title>
<path fill="none" stroke="midnightblue" d="M297.91,-257.4C309.31,-246.96 324.83,-232.75 336.57,-222"/>
<polygon fill="midnightblue" stroke="midnightblue" points="338.99,-224.53 344,-215.19 334.26,-219.37 338.99,-224.53"/>
</g>
<!-- Node23 -->
<g id="node23" class="node">
<title>Node23</title>
<g id="a_node23"><a xlink:href="write-barrier_8h.html" target="_top" xlink:title=" ">
<polygon fill="white" stroke="black" points="211,-190.5 211,-220.5 312,-220.5 312,-190.5 211,-190.5"/>
<text text-anchor="start" x="219" y="-208.5" font-family="Helvetica,sans-Serif" font-size="10.00">cppgc/internal/write</text>
<text text-anchor="middle" x="261.5" y="-197.5" font-family="Helvetica,sans-Serif" font-size="10.00">&#45;barrier.h</text>
</a>
</g>
</g>
<!-- Node21&#45;&gt;Node23 -->
<g id="edge29" class="edge">
<title>Node21&#45;&gt;Node23</title>
<path fill="none" stroke="midnightblue" d="M277.94,-257.4C275.38,-249.47 272.12,-239.38 269.18,-230.27"/>
<polygon fill="midnightblue" stroke="midnightblue" points="272.45,-229.02 266.05,-220.58 265.79,-231.17 272.45,-229.02"/>
</g>
<!-- Node27 -->
<g id="node27" class="node">
<title>Node27</title>
<g id="a_node27"><a xlink:href="source-location_8h.html" target="_top" xlink:title=" ">
<polygon fill="white" stroke="black" points="295,-129 295,-148 414,-148 414,-129 295,-129"/>
<text text-anchor="middle" x="354.5" y="-136" font-family="Helvetica,sans-Serif" font-size="10.00">cppgc/source&#45;location.h</text>
</a>
</g>
</g>
<!-- Node21&#45;&gt;Node27 -->
<g id="edge39" class="edge">
<title>Node21&#45;&gt;Node27</title>
<path fill="none" stroke="midnightblue" d="M337.54,-257.49C356.04,-249.87 374.7,-238.32 385.5,-221 398.46,-200.22 382.65,-173.15 369.27,-156.04"/>
<polygon fill="midnightblue" stroke="midnightblue" points="371.74,-153.54 362.65,-148.09 366.36,-158.02 371.74,-153.54"/>
</g>
<!-- Node23&#45;&gt;Node8 -->
<g id="edge38" class="edge">
<title>Node23&#45;&gt;Node8</title>
<path fill="none" stroke="midnightblue" d="M261.7,-190.34C262.75,-172.24 267.29,-141.08 285.5,-123 321.63,-87.12 381.46,-76.37 421.18,-73.35"/>
<polygon fill="midnightblue" stroke="midnightblue" points="421.55,-76.83 431.31,-72.71 421.11,-69.85 421.55,-76.83"/>
</g>
<!-- Node24 -->
<g id="node24" class="node">
<title>Node24</title>
<g id="a_node24"><a xlink:href="api-constants_8h.html" target="_top" xlink:title=" ">
<polygon fill="white" stroke="black" points="695,-123.5 695,-153.5 788,-153.5 788,-123.5 695,-123.5"/>
<text text-anchor="start" x="703" y="-141.5" font-family="Helvetica,sans-Serif" font-size="10.00">cppgc/internal/api</text>
<text text-anchor="middle" x="741.5" y="-130.5" font-family="Helvetica,sans-Serif" font-size="10.00">&#45;constants.h</text>
</a>
</g>
</g>
<!-- Node23&#45;&gt;Node24 -->
<g id="edge30" class="edge">
<title>Node23&#45;&gt;Node24</title>
<path fill="none" stroke="midnightblue" d="M312.14,-191.78C315.3,-191.14 318.44,-190.54 321.5,-190 464.64,-164.88 502.42,-172.97 646.5,-154 658.9,-152.37 672.18,-150.45 684.77,-148.55"/>
<polygon fill="midnightblue" stroke="midnightblue" points="685.33,-152 694.68,-147.04 684.27,-145.09 685.33,-152"/>
</g>
<!-- Node25 -->
<g id="node25" class="node">
<title>Node25</title>
<g id="a_node25"><a xlink:href="process-heap_8h.html" target="_top" xlink:title=" ">
<polygon fill="white" stroke="black" points="85,-123.5 85,-153.5 200,-153.5 200,-123.5 85,-123.5"/>
<text text-anchor="start" x="93" y="-141.5" font-family="Helvetica,sans-Serif" font-size="10.00">cppgc/internal/process</text>
<text text-anchor="middle" x="142.5" y="-130.5" font-family="Helvetica,sans-Serif" font-size="10.00">&#45;heap.h</text>
</a>
</g>
</g>
<!-- Node23&#45;&gt;Node25 -->
<g id="edge34" class="edge">
<title>Node23&#45;&gt;Node25</title>
<path fill="none" stroke="midnightblue" d="M235.68,-190.4C218.53,-181.03 195.8,-168.62 177.09,-158.39"/>
<polygon fill="midnightblue" stroke="midnightblue" points="178.72,-155.3 168.27,-153.58 175.37,-161.44 178.72,-155.3"/>
</g>
<!-- Node24&#45;&gt;Node8 -->
<g id="edge33" class="edge">
<title>Node24&#45;&gt;Node8</title>
<path fill="none" stroke="midnightblue" d="M694.88,-126.38C690.03,-125.24 685.16,-124.09 680.5,-123 618.07,-108.38 545.55,-91.72 501.62,-81.67"/>
<polygon fill="midnightblue" stroke="midnightblue" points="502.15,-78.2 491.63,-79.38 500.59,-85.02 502.15,-78.2"/>
</g>
<!-- Node24&#45;&gt;Node10 -->
<g id="edge31" class="edge">
<title>Node24&#45;&gt;Node10</title>
<path fill="none" stroke="midnightblue" d="M776.86,-123.42C801.94,-113.39 836.35,-99.52 866.5,-87 867.91,-86.42 869.35,-85.81 870.8,-85.21"/>
<polygon fill="midnightblue" stroke="midnightblue" points="872.54,-88.27 880.39,-81.15 869.82,-81.82 872.54,-88.27"/>
</g>
<!-- Node24&#45;&gt;Node13 -->
<g id="edge32" class="edge">
<title>Node24&#45;&gt;Node13</title>
<path fill="none" stroke="midnightblue" d="M743.45,-123.4C744.76,-113.96 746.49,-101.45 747.91,-91.19"/>
<polygon fill="midnightblue" stroke="midnightblue" points="751.39,-91.58 749.3,-81.19 744.46,-90.62 751.39,-91.58"/>
</g>
<!-- Node25&#45;&gt;Node8 -->
<g id="edge37" class="edge">
<title>Node25&#45;&gt;Node8</title>
<path fill="none" stroke="midnightblue" d="M200.27,-125.73C264.16,-112.71 365.43,-92.08 421.26,-80.7"/>
<polygon fill="midnightblue" stroke="midnightblue" points="422.03,-84.11 431.13,-78.69 420.63,-77.26 422.03,-84.11"/>
</g>
<!-- Node26 -->
<g id="node26" class="node">
<title>Node26</title>
<g id="a_node26"><a xlink:href="atomic-entry-flag_8h.html" target="_top" xlink:title=" ">
<polygon fill="white" stroke="black" points="86.5,-56.5 86.5,-86.5 196.5,-86.5 196.5,-56.5 86.5,-56.5"/>
<text text-anchor="start" x="94.5" y="-74.5" font-family="Helvetica,sans-Serif" font-size="10.00">cppgc/internal/atomic</text>
<text text-anchor="middle" x="141.5" y="-63.5" font-family="Helvetica,sans-Serif" font-size="10.00">&#45;entry&#45;flag.h</text>
</a>
</g>
</g>
<!-- Node25&#45;&gt;Node26 -->
<g id="edge35" class="edge">
<title>Node25&#45;&gt;Node26</title>
<path fill="none" stroke="midnightblue" d="M142.28,-123.4C142.16,-115.64 142.01,-105.81 141.87,-96.86"/>
<polygon fill="midnightblue" stroke="midnightblue" points="145.37,-96.52 141.72,-86.58 138.37,-96.63 145.37,-96.52"/>
</g>
<!-- Node26&#45;&gt;Node18 -->
<g id="edge36" class="edge">
<title>Node26&#45;&gt;Node18</title>
<path fill="none" stroke="midnightblue" d="M131.55,-56.4C125.51,-47.84 117.76,-36.87 111.4,-27.86"/>
<polygon fill="midnightblue" stroke="midnightblue" points="114.24,-25.81 105.61,-19.66 108.52,-29.85 114.24,-25.81"/>
</g>
<!-- Node27&#45;&gt;Node8 -->
<g id="edge41" class="edge">
<title>Node27&#45;&gt;Node8</title>
<path fill="none" stroke="midnightblue" d="M368.93,-128.73C386.82,-117.87 417.52,-99.22 438.63,-86.39"/>
<polygon fill="midnightblue" stroke="midnightblue" points="440.57,-89.31 447.3,-81.13 436.93,-83.33 440.57,-89.31"/>
</g>
<!-- Node27&#45;&gt;Node15 -->
<g id="edge40" class="edge">
<title>Node27&#45;&gt;Node15</title>
<path fill="none" stroke="midnightblue" d="M387.44,-128.94C436.13,-116.28 526.64,-92.74 573.93,-80.45"/>
<polygon fill="midnightblue" stroke="midnightblue" points="575.08,-83.76 583.88,-77.86 573.32,-76.99 575.08,-83.76"/>
</g>
<!-- Node28&#45;&gt;Node20 -->
<g id="edge44" class="edge">
<title>Node28&#45;&gt;Node20</title>
<path fill="none" stroke="midnightblue" d="M85.5,-262.73C85.5,-253.18 85.5,-237.62 85.5,-225.28"/>
<polygon fill="midnightblue" stroke="midnightblue" points="89,-225.13 85.5,-215.13 82,-225.13 89,-225.13"/>
</g>
<!-- Node29&#45;&gt;Node8 -->
<g id="edge49" class="edge">
<title>Node29&#45;&gt;Node8</title>
<path fill="none" stroke="midnightblue" d="M40.61,-324.32C34.23,-315.68 25.19,-301.77 21.5,-288 17.93,-274.69 19.14,-270.57 21.5,-257 32.49,-193.74 24,-161.34 75.5,-123 129.55,-82.76 333.57,-74.57 421.16,-72.91"/>
<polygon fill="midnightblue" stroke="midnightblue" points="421.3,-76.41 431.24,-72.74 421.18,-69.41 421.3,-76.41"/>
</g>
<!-- Node29&#45;&gt;Node20 -->
<g id="edge47" class="edge">
<title>Node29&#45;&gt;Node20</title>
<path fill="none" stroke="midnightblue" d="M41.69,-324.23C32.85,-309.74 18.12,-280.07 28.5,-257 35.27,-241.96 48.97,-229.59 61.25,-220.86"/>
<polygon fill="midnightblue" stroke="midnightblue" points="63.43,-223.61 69.81,-215.15 59.55,-217.78 63.43,-223.61"/>
</g>
<!-- Node29&#45;&gt;Node28 -->
<g id="edge48" class="edge">
<title>Node29&#45;&gt;Node28</title>
<path fill="none" stroke="midnightblue" d="M52.94,-324.48C58.59,-315.64 67.56,-301.59 74.66,-290.48"/>
<polygon fill="midnightblue" stroke="midnightblue" points="77.63,-292.32 80.07,-282.01 71.73,-288.55 77.63,-292.32"/>
</g>
</g>
</svg>
