<?xml version="1.0" encoding="UTF-8" standalone="no"?>
<!DOCTYPE svg PUBLIC "-//W3C//DTD SVG 1.1//EN"
 "http://www.w3.org/Graphics/SVG/1.1/DTD/svg11.dtd">
<!-- Generated by graphviz version 2.44.0 ()
 -->
<!-- Title: include/cppgc/source&#45;location.h Pages: 1 -->
<svg width="691pt" height="352pt"
 viewBox="0.00 0.00 691.40 352.00" xmlns="http://www.w3.org/2000/svg" xmlns:xlink="http://www.w3.org/1999/xlink">
<g id="graph0" class="graph" transform="scale(1 1) rotate(0) translate(4 348)">
<title>include/cppgc/source&#45;location.h</title>
<polygon fill="white" stroke="transparent" points="-4,4 -4,-348 687.4,-348 687.4,4 -4,4"/>
<!-- Node1 -->
<g id="node1" class="node">
<title>Node1</title>
<g id="a_node1"><a xlink:title=" ">
<polygon fill="#bfbfbf" stroke="black" points="251.4,-313.5 251.4,-343.5 360.4,-343.5 360.4,-313.5 251.4,-313.5"/>
<text text-anchor="start" x="259.4" y="-331.5" font-family="Helvetica,sans-Serif" font-size="10.00">include/cppgc/source</text>
<text text-anchor="middle" x="305.9" y="-320.5" font-family="Helvetica,sans-Serif" font-size="10.00">&#45;location.h</text>
</a>
</g>
</g>
<!-- Node2 -->
<g id="node2" class="node">
<title>Node2</title>
<g id="a_node2"><a xlink:href="logging_8h.html" target="_top" xlink:title=" ">
<polygon fill="white" stroke="black" points="170.4,-123.5 170.4,-153.5 281.4,-153.5 281.4,-123.5 170.4,-123.5"/>
<text text-anchor="start" x="178.4" y="-141.5" font-family="Helvetica,sans-Serif" font-size="10.00">include/cppgc/internal</text>
<text text-anchor="middle" x="225.9" y="-130.5" font-family="Helvetica,sans-Serif" font-size="10.00">/logging.h</text>
</a>
</g>
</g>
<!-- Node1&#45;&gt;Node2 -->
<g id="edge1" class="edge">
<title>Node1&#45;&gt;Node2</title>
<path fill="none" stroke="midnightblue" d="M290.16,-305.12C284.57,-296.57 278.53,-286.57 273.9,-277 252.99,-233.75 236.68,-178.96 229.66,-153.58"/>
<polygon fill="midnightblue" stroke="midnightblue" points="287.26,-307.07 295.74,-313.42 293.07,-303.17 287.26,-307.07"/>
</g>
<!-- Node5 -->
<g id="node5" class="node">
<title>Node5</title>
<g id="a_node5"><a xlink:href="persistent_8h.html" target="_top" xlink:title=" ">
<polygon fill="white" stroke="black" points="170.9,-0.5 170.9,-19.5 300.9,-19.5 300.9,-0.5 170.9,-0.5"/>
<text text-anchor="middle" x="235.9" y="-7.5" font-family="Helvetica,sans-Serif" font-size="10.00">include/cppgc/persistent.h</text>
</a>
</g>
</g>
<!-- Node1&#45;&gt;Node5 -->
<g id="edge18" class="edge">
<title>Node1&#45;&gt;Node5</title>
<path fill="none" stroke="midnightblue" d="M241.16,-327.87C151.89,-324.59 1.9,-303.79 1.9,-201 1.9,-201 1.9,-201 1.9,-137.5 1.9,-100.31 -5.7,-82 20.9,-56 41.9,-35.47 115.44,-23.36 170.7,-16.96"/>
<polygon fill="midnightblue" stroke="midnightblue" points="241.1,-331.37 251.2,-328.17 241.31,-324.37 241.1,-331.37"/>
</g>
<!-- Node6 -->
<g id="node6" class="node">
<title>Node6</title>
<g id="a_node6"><a xlink:href="visitor_8h.html" target="_top" xlink:title=" ">
<polygon fill="white" stroke="black" points="350.4,-62 350.4,-81 463.4,-81 463.4,-62 350.4,-62"/>
<text text-anchor="middle" x="406.9" y="-69" font-family="Helvetica,sans-Serif" font-size="10.00">include/cppgc/visitor.h</text>
</a>
</g>
</g>
<!-- Node1&#45;&gt;Node6 -->
<g id="edge19" class="edge">
<title>Node1&#45;&gt;Node6</title>
<path fill="none" stroke="midnightblue" d="M368.83,-310.07C416.5,-293.12 478.47,-262.12 506.9,-210 535.52,-157.52 456.29,-102.03 421.93,-81.13"/>
<polygon fill="midnightblue" stroke="midnightblue" points="367.52,-306.81 359.2,-313.37 369.79,-313.44 367.52,-306.81"/>
</g>
<!-- Node8 -->
<g id="node8" class="node">
<title>Node8</title>
<g id="a_node8"><a xlink:href="pointer-policies_8h.html" target="_top" xlink:title=" ">
<polygon fill="white" stroke="black" points="283.4,-246.5 283.4,-276.5 394.4,-276.5 394.4,-246.5 283.4,-246.5"/>
<text text-anchor="start" x="291.4" y="-264.5" font-family="Helvetica,sans-Serif" font-size="10.00">include/cppgc/internal</text>
<text text-anchor="middle" x="338.9" y="-253.5" font-family="Helvetica,sans-Serif" font-size="10.00">/pointer&#45;policies.h</text>
</a>
</g>
</g>
<!-- Node1&#45;&gt;Node8 -->
<g id="edge8" class="edge">
<title>Node1&#45;&gt;Node8</title>
<path fill="none" stroke="midnightblue" d="M317.69,-304.28C322.39,-295.02 327.65,-284.66 331.75,-276.58"/>
<polygon fill="midnightblue" stroke="midnightblue" points="314.47,-302.89 313.06,-313.4 320.71,-306.06 314.47,-302.89"/>
</g>
<!-- Node3 -->
<g id="node3" class="node">
<title>Node3</title>
<g id="a_node3"><a xlink:href="caged-heap-local-data_8h.html" target="_top" xlink:title=" ">
<polygon fill="white" stroke="black" points="29.9,-56.5 29.9,-86.5 151.9,-86.5 151.9,-56.5 29.9,-56.5"/>
<text text-anchor="start" x="37.9" y="-74.5" font-family="Helvetica,sans-Serif" font-size="10.00">include/cppgc/internal</text>
<text text-anchor="middle" x="90.9" y="-63.5" font-family="Helvetica,sans-Serif" font-size="10.00">/caged&#45;heap&#45;local&#45;data.h</text>
</a>
</g>
</g>
<!-- Node2&#45;&gt;Node3 -->
<g id="edge2" class="edge">
<title>Node2&#45;&gt;Node3</title>
<path fill="none" stroke="midnightblue" d="M187.46,-118.99C166.06,-108.69 139.85,-96.07 120.14,-86.58"/>
<polygon fill="midnightblue" stroke="midnightblue" points="186.08,-122.21 196.61,-123.4 189.11,-115.9 186.08,-122.21"/>
</g>
<!-- Node4 -->
<g id="node4" class="node">
<title>Node4</title>
<g id="a_node4"><a xlink:href="persistent-node_8h.html" target="_top" xlink:title=" ">
<polygon fill="white" stroke="black" points="170.4,-56.5 170.4,-86.5 281.4,-86.5 281.4,-56.5 170.4,-56.5"/>
<text text-anchor="start" x="178.4" y="-74.5" font-family="Helvetica,sans-Serif" font-size="10.00">include/cppgc/internal</text>
<text text-anchor="middle" x="225.9" y="-63.5" font-family="Helvetica,sans-Serif" font-size="10.00">/persistent&#45;node.h</text>
</a>
</g>
</g>
<!-- Node2&#45;&gt;Node4 -->
<g id="edge3" class="edge">
<title>Node2&#45;&gt;Node4</title>
<path fill="none" stroke="midnightblue" d="M225.9,-113.11C225.9,-104.15 225.9,-94.32 225.9,-86.58"/>
<polygon fill="midnightblue" stroke="midnightblue" points="222.4,-113.4 225.9,-123.4 229.4,-113.4 222.4,-113.4"/>
</g>
<!-- Node2&#45;&gt;Node6 -->
<g id="edge5" class="edge">
<title>Node2&#45;&gt;Node6</title>
<path fill="none" stroke="midnightblue" d="M274.78,-119.95C309.94,-107.32 355.8,-90.85 383.21,-81.01"/>
<polygon fill="midnightblue" stroke="midnightblue" points="273.4,-116.72 265.17,-123.4 275.77,-123.31 273.4,-116.72"/>
</g>
<!-- Node4&#45;&gt;Node5 -->
<g id="edge4" class="edge">
<title>Node4&#45;&gt;Node5</title>
<path fill="none" stroke="midnightblue" d="M229.97,-46.29C231.55,-36.86 233.27,-26.65 234.44,-19.66"/>
<polygon fill="midnightblue" stroke="midnightblue" points="226.47,-45.96 228.27,-56.4 233.38,-47.12 226.47,-45.96"/>
</g>
<!-- Node6&#45;&gt;Node5 -->
<g id="edge6" class="edge">
<title>Node6&#45;&gt;Node5</title>
<path fill="none" stroke="midnightblue" d="M372.65,-58.58C339.41,-47.02 289.79,-29.75 260.35,-19.51"/>
<polygon fill="midnightblue" stroke="midnightblue" points="371.8,-61.99 382.4,-61.98 374.1,-55.38 371.8,-61.99"/>
</g>
<!-- Node7 -->
<g id="node7" class="node">
<title>Node7</title>
<g id="a_node7"><a xlink:href="v8-cppgc_8h.html" target="_top" xlink:title=" ">
<polygon fill="white" stroke="black" points="357.9,-0.5 357.9,-19.5 455.9,-19.5 455.9,-0.5 357.9,-0.5"/>
<text text-anchor="middle" x="406.9" y="-7.5" font-family="Helvetica,sans-Serif" font-size="10.00">include/v8&#45;cppgc.h</text>
</a>
</g>
</g>
<!-- Node6&#45;&gt;Node7 -->
<g id="edge7" class="edge">
<title>Node6&#45;&gt;Node7</title>
<path fill="none" stroke="midnightblue" d="M406.9,-51.82C406.9,-41 406.9,-27.9 406.9,-19.51"/>
<polygon fill="midnightblue" stroke="midnightblue" points="403.4,-51.98 406.9,-61.98 410.4,-51.98 403.4,-51.98"/>
</g>
<!-- Node8&#45;&gt;Node5 -->
<g id="edge16" class="edge">
<title>Node8&#45;&gt;Node5</title>
<path fill="none" stroke="midnightblue" d="M337.97,-236.24C335.4,-195.92 325.81,-113.84 289.9,-56 280.24,-40.45 263.36,-27.67 251.04,-19.76"/>
<polygon fill="midnightblue" stroke="midnightblue" points="334.48,-236.65 338.52,-246.45 341.47,-236.27 334.48,-236.65"/>
</g>
<!-- Node8&#45;&gt;Node6 -->
<g id="edge17" class="edge">
<title>Node8&#45;&gt;Node6</title>
<path fill="none" stroke="midnightblue" d="M347.43,-236.93C362.63,-194.88 393.77,-108.79 403.75,-81.21"/>
<polygon fill="midnightblue" stroke="midnightblue" points="344.12,-235.78 344.01,-246.37 350.7,-238.16 344.12,-235.78"/>
</g>
<!-- Node9 -->
<g id="node9" class="node">
<title>Node9</title>
<g id="a_node9"><a xlink:href="member_8h.html" target="_top" xlink:title=" ">
<polygon fill="white" stroke="black" points="375.9,-190.5 375.9,-209.5 497.9,-209.5 497.9,-190.5 375.9,-190.5"/>
<text text-anchor="middle" x="436.9" y="-197.5" font-family="Helvetica,sans-Serif" font-size="10.00">include/cppgc/member.h</text>
</a>
</g>
</g>
<!-- Node8&#45;&gt;Node9 -->
<g id="edge9" class="edge">
<title>Node8&#45;&gt;Node9</title>
<path fill="none" stroke="midnightblue" d="M370.9,-241.07C388.37,-230.46 409.13,-217.86 422.64,-209.66"/>
<polygon fill="midnightblue" stroke="midnightblue" points="368.86,-238.22 362.12,-246.4 372.49,-244.2 368.86,-238.22"/>
</g>
<!-- Node9&#45;&gt;Node6 -->
<g id="edge15" class="edge">
<title>Node9&#45;&gt;Node6</title>
<path fill="none" stroke="midnightblue" d="M432.47,-180.31C425.89,-152.58 413.81,-101.63 408.98,-81.26"/>
<polygon fill="midnightblue" stroke="midnightblue" points="429.12,-181.38 434.84,-190.31 435.94,-179.77 429.12,-181.38"/>
</g>
<!-- Node10 -->
<g id="node10" class="node">
<title>Node10</title>
<g id="a_node10"><a xlink:href="liveness-broker_8h.html" target="_top" xlink:title=" ">
<polygon fill="white" stroke="black" points="553.9,-123.5 553.9,-153.5 669.9,-153.5 669.9,-123.5 553.9,-123.5"/>
<text text-anchor="start" x="561.9" y="-141.5" font-family="Helvetica,sans-Serif" font-size="10.00">include/cppgc/liveness</text>
<text text-anchor="middle" x="611.9" y="-130.5" font-family="Helvetica,sans-Serif" font-size="10.00">&#45;broker.h</text>
</a>
</g>
</g>
<!-- Node9&#45;&gt;Node10 -->
<g id="edge10" class="edge">
<title>Node9&#45;&gt;Node10</title>
<path fill="none" stroke="midnightblue" d="M471.52,-187.23C500.01,-177.54 540.48,-163.78 570.66,-153.52"/>
<polygon fill="midnightblue" stroke="midnightblue" points="470.31,-183.94 461.97,-190.48 472.57,-190.57 470.31,-183.94"/>
</g>
<!-- Node10&#45;&gt;Node6 -->
<g id="edge13" class="edge">
<title>Node10&#45;&gt;Node6</title>
<path fill="none" stroke="midnightblue" d="M558.06,-120.43C518.09,-107.75 465.25,-91 433.8,-81.03"/>
<polygon fill="midnightblue" stroke="midnightblue" points="557.08,-123.79 567.67,-123.48 559.2,-117.12 557.08,-123.79"/>
</g>
<!-- Node11 -->
<g id="node11" class="node">
<title>Node11</title>
<g id="a_node11"><a xlink:href="prefinalizer-handler_8h.html" target="_top" xlink:title=" ">
<polygon fill="white" stroke="black" points="519.4,-56.5 519.4,-86.5 630.4,-86.5 630.4,-56.5 519.4,-56.5"/>
<text text-anchor="start" x="527.4" y="-74.5" font-family="Helvetica,sans-Serif" font-size="10.00">include/cppgc/internal</text>
<text text-anchor="middle" x="574.9" y="-63.5" font-family="Helvetica,sans-Serif" font-size="10.00">/prefinalizer&#45;handler.h</text>
</a>
</g>
</g>
<!-- Node10&#45;&gt;Node11 -->
<g id="edge11" class="edge">
<title>Node10&#45;&gt;Node11</title>
<path fill="none" stroke="midnightblue" d="M598.85,-114.58C593.54,-105.24 587.56,-94.75 582.91,-86.58"/>
<polygon fill="midnightblue" stroke="midnightblue" points="595.88,-116.44 603.87,-123.4 601.97,-112.97 595.88,-116.44"/>
</g>
<!-- Node12 -->
<g id="node12" class="node">
<title>Node12</title>
<g id="a_node12"><a xlink:href="prefinalizer_8h.html" target="_top" xlink:title=" ">
<polygon fill="white" stroke="black" points="550.4,-0.5 550.4,-19.5 683.4,-19.5 683.4,-0.5 550.4,-0.5"/>
<text text-anchor="middle" x="616.9" y="-7.5" font-family="Helvetica,sans-Serif" font-size="10.00">include/cppgc/prefinalizer.h</text>
</a>
</g>
</g>
<!-- Node10&#45;&gt;Node12 -->
<g id="edge14" class="edge">
<title>Node10&#45;&gt;Node12</title>
<path fill="none" stroke="midnightblue" d="M627.24,-114.54C631.94,-106.23 636.51,-96.53 638.9,-87 642.25,-73.64 642,-69.42 638.9,-56 635.76,-42.44 627.95,-28.26 622.54,-19.52"/>
<polygon fill="midnightblue" stroke="midnightblue" points="624.14,-112.89 621.97,-123.26 630.14,-116.51 624.14,-112.89"/>
</g>
<!-- Node11&#45;&gt;Node12 -->
<g id="edge12" class="edge">
<title>Node11&#45;&gt;Node12</title>
<path fill="none" stroke="midnightblue" d="M590.71,-48.1C597.71,-38.19 605.53,-27.11 610.79,-19.66"/>
<polygon fill="midnightblue" stroke="midnightblue" points="587.76,-46.21 584.85,-56.4 593.48,-50.25 587.76,-46.21"/>
</g>
</g>
</svg>
