<?xml version="1.0" encoding="UTF-8" standalone="no"?>
<!DOCTYPE svg PUBLIC "-//W3C//DTD SVG 1.1//EN"
 "http://www.w3.org/Graphics/SVG/1.1/DTD/svg11.dtd">
<!-- Generated by graphviz version 2.44.0 ()
 -->
<!-- Title: cppgc::internal::IsGarbageCollectedMixinType&lt; T, void_t&lt; typename std::remove_const_t&lt; T &gt;::IsGarbageCollectedMixinTypeMarker &gt; &gt; Pages: 1 -->
<svg width="197pt" height="128pt"
 viewBox="0.00 0.00 197.00 128.00" xmlns="http://www.w3.org/2000/svg" xmlns:xlink="http://www.w3.org/1999/xlink">
<g id="graph0" class="graph" transform="scale(1 1) rotate(0) translate(4 124)">
<title>cppgc::internal::IsGarbageCollectedMixinType&lt; T, void_t&lt; typename std::remove_const_t&lt; T &gt;::IsGarbageCollectedMixinTypeMarker &gt; &gt;</title>
<polygon fill="white" stroke="transparent" points="-4,4 -4,-124 193,-124 193,4 -4,4"/>
<!-- Node1 -->
<g id="node1" class="node">
<title>Node1</title>
<g id="a_node1"><a xlink:title=" ">
<polygon fill="#bfbfbf" stroke="black" points="0,-0.5 0,-63.5 189,-63.5 189,-0.5 0,-0.5"/>
<text text-anchor="start" x="8" y="-51.5" font-family="Helvetica,sans-Serif" font-size="10.00">cppgc::internal::IsGarbage</text>
<text text-anchor="start" x="8" y="-40.5" font-family="Helvetica,sans-Serif" font-size="10.00">CollectedMixinType&lt; T,</text>
<text text-anchor="start" x="8" y="-29.5" font-family="Helvetica,sans-Serif" font-size="10.00"> void_t&lt; typename std::remove</text>
<text text-anchor="start" x="8" y="-18.5" font-family="Helvetica,sans-Serif" font-size="10.00">_const_t&lt; T &gt;::IsGarbageCollectedMixin</text>
<text text-anchor="middle" x="94.5" y="-7.5" font-family="Helvetica,sans-Serif" font-size="10.00">TypeMarker &gt; &gt;</text>
</a>
</g>
</g>
<!-- Node2 -->
<g id="node2" class="node">
<title>Node2</title>
<g id="a_node2"><a xlink:title=" ">
<polygon fill="white" stroke="#bfbfbf" points="66.5,-100.5 66.5,-119.5 122.5,-119.5 122.5,-100.5 66.5,-100.5"/>
<text text-anchor="middle" x="94.5" y="-107.5" font-family="Helvetica,sans-Serif" font-size="10.00">true_type</text>
</a>
</g>
</g>
<!-- Node2&#45;&gt;Node1 -->
<g id="edge1" class="edge">
<title>Node2&#45;&gt;Node1</title>
<path fill="none" stroke="midnightblue" d="M94.5,-90.19C94.5,-82.16 94.5,-72.59 94.5,-63.59"/>
<polygon fill="midnightblue" stroke="midnightblue" points="91,-90.28 94.5,-100.28 98,-90.28 91,-90.28"/>
</g>
</g>
</svg>
