<?xml version="1.0" encoding="UTF-8" standalone="no"?>
<!DOCTYPE svg PUBLIC "-//W3C//DTD SVG 1.1//EN"
 "http://www.w3.org/Graphics/SVG/1.1/DTD/svg11.dtd">
<!-- Generated by graphviz version 2.44.0 ()
 -->
<!-- Title: cppgc::TraceTrait&lt; v8::JSMember&lt; T &gt; &gt;::Trace Pages: 1 -->
<svg width="252pt" height="50pt"
 viewBox="0.00 0.00 252.00 50.00" xmlns="http://www.w3.org/2000/svg" xmlns:xlink="http://www.w3.org/1999/xlink">
<g id="graph0" class="graph" transform="scale(1 1) rotate(0) translate(4 46)">
<title>cppgc::TraceTrait&lt; v8::JSMember&lt; T &gt; &gt;::Trace</title>
<polygon fill="white" stroke="transparent" points="-4,4 -4,-46 248,-46 248,4 -4,4"/>
<!-- Node1 -->
<g id="node1" class="node">
<title>Node1</title>
<g id="a_node1"><a xlink:title=" ">
<polygon fill="#bfbfbf" stroke="black" points="0,-0.5 0,-41.5 112,-41.5 112,-0.5 0,-0.5"/>
<text text-anchor="start" x="8" y="-29.5" font-family="Helvetica,sans-Serif" font-size="10.00">cppgc::TraceTrait&lt;</text>
<text text-anchor="start" x="8" y="-18.5" font-family="Helvetica,sans-Serif" font-size="10.00"> v8::JSMember&lt; T &gt; &gt;</text>
<text text-anchor="middle" x="56" y="-7.5" font-family="Helvetica,sans-Serif" font-size="10.00">::Trace</text>
</a>
</g>
</g>
<!-- Node2 -->
<g id="node2" class="node">
<title>Node2</title>
<g id="a_node2"><a xlink:href="structcppgc_1_1TraceTrait.html#aa23f81ef50edd30be2f49d7cad1a034e" target="_top" xlink:title=" ">
<polygon fill="white" stroke="black" points="148,-6 148,-36 244,-36 244,-6 148,-6"/>
<text text-anchor="start" x="156" y="-24" font-family="Helvetica,sans-Serif" font-size="10.00">cppgc::TraceTrait::</text>
<text text-anchor="middle" x="196" y="-13" font-family="Helvetica,sans-Serif" font-size="10.00">Trace</text>
</a>
</g>
</g>
<!-- Node1&#45;&gt;Node2 -->
<g id="edge1" class="edge">
<title>Node1&#45;&gt;Node2</title>
<path fill="none" stroke="midnightblue" d="M112.33,-21C120.65,-21 129.24,-21 137.6,-21"/>
<polygon fill="midnightblue" stroke="midnightblue" points="137.65,-24.5 147.65,-21 137.65,-17.5 137.65,-24.5"/>
</g>
</g>
</svg>
