<?xml version="1.0" encoding="UTF-8" standalone="no"?>
<!DOCTYPE svg PUBLIC "-//W3C//DTD SVG 1.1//EN"
 "http://www.w3.org/Graphics/SVG/1.1/DTD/svg11.dtd">
<!-- Generated by graphviz version 2.44.0 ()
 -->
<!-- Title: v8::Isolate::CreateParams Pages: 1 -->
<svg width="906pt" height="304pt"
 viewBox="0.00 0.00 906.00 304.00" xmlns="http://www.w3.org/2000/svg" xmlns:xlink="http://www.w3.org/1999/xlink">
<g id="graph0" class="graph" transform="scale(1 1) rotate(0) translate(4 300)">
<title>v8::Isolate::CreateParams</title>
<polygon fill="white" stroke="transparent" points="-4,4 -4,-300 902,-300 902,4 -4,4"/>
<!-- Node1 -->
<g id="node1" class="node">
<title>Node1</title>
<g id="a_node1"><a xlink:title=" ">
<polygon fill="#bfbfbf" stroke="black" points="770,-178.5 770,-197.5 898,-197.5 898,-178.5 770,-178.5"/>
<text text-anchor="middle" x="834" y="-185.5" font-family="Helvetica,sans-Serif" font-size="10.00">v8::Isolate::CreateParams</text>
</a>
</g>
</g>
<!-- Node2 -->
<g id="node2" class="node">
<title>Node2</title>
<g id="a_node2"><a xlink:href="classv8_1_1ArrayBuffer_1_1Allocator.html" target="_top" xlink:title=" ">
<polygon fill="white" stroke="black" points="259,-267.5 259,-286.5 381,-286.5 381,-267.5 259,-267.5"/>
<text text-anchor="middle" x="320" y="-274.5" font-family="Helvetica,sans-Serif" font-size="10.00">v8::ArrayBuffer::Allocator</text>
</a>
</g>
</g>
<!-- Node2&#45;&gt;Node1 -->
<g id="edge1" class="edge">
<title>Node2&#45;&gt;Node1</title>
<path fill="none" stroke="#9a32cd" stroke-dasharray="5,2" d="M391.26,-283.78C478.82,-289.58 631.59,-290.83 752,-245 780.61,-234.11 808.59,-210.81 822.99,-197.62"/>
<polygon fill="#9a32cd" stroke="#9a32cd" points="391.39,-280.28 381.17,-283.08 390.9,-287.27 391.39,-280.28"/>
<text text-anchor="middle" x="578" y="-288" font-family="Helvetica,sans-Serif" font-size="10.00"> array_buffer_allocator</text>
</g>
<!-- Node4 -->
<g id="node4" class="node">
<title>Node4</title>
<g id="a_node4"><a xlink:title=" ">
<polygon fill="white" stroke="#bfbfbf" points="518,-217 518,-247 638,-247 638,-217 518,-217"/>
<text text-anchor="start" x="526" y="-235" font-family="Helvetica,sans-Serif" font-size="10.00">std::shared_ptr&lt; v8</text>
<text text-anchor="middle" x="578" y="-224" font-family="Helvetica,sans-Serif" font-size="10.00">::ArrayBuffer::Allocator &gt;</text>
</a>
</g>
</g>
<!-- Node2&#45;&gt;Node4 -->
<g id="edge4" class="edge">
<title>Node2&#45;&gt;Node4</title>
<path fill="none" stroke="#9a32cd" stroke-dasharray="5,2" d="M385.37,-265.68C426.06,-258.53 478.24,-249.36 517.88,-242.39"/>
<polygon fill="#9a32cd" stroke="#9a32cd" points="384.53,-262.28 375.29,-267.46 385.75,-269.17 384.53,-262.28"/>
<text text-anchor="middle" x="456.5" y="-262" font-family="Helvetica,sans-Serif" font-size="10.00"> ptr</text>
</g>
<!-- Node3 -->
<g id="node3" class="node">
<title>Node3</title>
<g id="a_node3"><a xlink:href="classv8_1_1ResourceConstraints.html" target="_top" xlink:title=" ">
<polygon fill="white" stroke="black" points="517,-178.5 517,-197.5 639,-197.5 639,-178.5 517,-178.5"/>
<text text-anchor="middle" x="578" y="-185.5" font-family="Helvetica,sans-Serif" font-size="10.00">v8::ResourceConstraints</text>
</a>
</g>
</g>
<!-- Node3&#45;&gt;Node1 -->
<g id="edge2" class="edge">
<title>Node3&#45;&gt;Node1</title>
<path fill="none" stroke="#9a32cd" stroke-dasharray="5,2" d="M649.58,-188C687.24,-188 733.2,-188 769.69,-188"/>
<polygon fill="#9a32cd" stroke="#9a32cd" points="649.19,-184.5 639.19,-188 649.19,-191.5 649.19,-184.5"/>
<text text-anchor="middle" x="704.5" y="-191" font-family="Helvetica,sans-Serif" font-size="10.00"> constraints</text>
</g>
<!-- Node4&#45;&gt;Node1 -->
<g id="edge3" class="edge">
<title>Node4&#45;&gt;Node1</title>
<path fill="none" stroke="#9a32cd" stroke-dasharray="5,2" d="M648.33,-220.66C679.97,-215.41 717.9,-209.01 752,-203 761.72,-201.29 772.08,-199.41 782.04,-197.57"/>
<polygon fill="#9a32cd" stroke="#9a32cd" points="647.59,-217.23 638.29,-222.32 648.73,-224.14 647.59,-217.23"/>
<text text-anchor="start" x="657" y="-233" font-family="Helvetica,sans-Serif" font-size="10.00"> array_buffer_allocator</text>
<text text-anchor="middle" x="704.5" y="-222" font-family="Helvetica,sans-Serif" font-size="10.00">_shared</text>
</g>
<!-- Node5 -->
<g id="node5" class="node">
<title>Node5</title>
<g id="a_node5"><a xlink:title="STL class.">
<polygon fill="white" stroke="#bfbfbf" points="268.5,-211.5 268.5,-230.5 371.5,-230.5 371.5,-211.5 268.5,-211.5"/>
<text text-anchor="middle" x="320" y="-218.5" font-family="Helvetica,sans-Serif" font-size="10.00">std::shared_ptr&lt; T &gt;</text>
</a>
</g>
</g>
<!-- Node5&#45;&gt;Node4 -->
<g id="edge5" class="edge">
<title>Node5&#45;&gt;Node4</title>
<path fill="none" stroke="orange" stroke-dasharray="5,2" d="M382.08,-218.19C416.47,-217.23 460.18,-217.03 499,-220 505.15,-220.47 511.54,-221.15 517.91,-221.94"/>
<polygon fill="orange" stroke="orange" points="381.6,-214.7 371.72,-218.51 381.82,-221.7 381.6,-214.7"/>
<text text-anchor="start" x="417" y="-234" font-family="Helvetica,sans-Serif" font-size="10.00"> &lt; v8::ArrayBuffer::</text>
<text text-anchor="middle" x="456.5" y="-223" font-family="Helvetica,sans-Serif" font-size="10.00">Allocator &gt;</text>
</g>
<!-- Node6 -->
<g id="node6" class="node">
<title>Node6</title>
<g id="a_node6"><a xlink:title=" ">
<polygon fill="white" stroke="#bfbfbf" points="40,-211.5 40,-230.5 69,-230.5 69,-211.5 40,-211.5"/>
<text text-anchor="middle" x="54.5" y="-218.5" font-family="Helvetica,sans-Serif" font-size="10.00">T</text>
</a>
</g>
</g>
<!-- Node6&#45;&gt;Node5 -->
<g id="edge6" class="edge">
<title>Node6&#45;&gt;Node5</title>
<path fill="none" stroke="#9a32cd" stroke-dasharray="5,2" d="M79.52,-221C122.08,-221 211.57,-221 268.29,-221"/>
<polygon fill="#9a32cd" stroke="#9a32cd" points="79.3,-217.5 69.3,-221 79.3,-224.5 79.3,-217.5"/>
<text text-anchor="middle" x="176.5" y="-224" font-family="Helvetica,sans-Serif" font-size="10.00"> ptr</text>
</g>
<!-- Node7 -->
<g id="node7" class="node">
<title>Node7</title>
<g id="a_node7"><a xlink:href="classv8_1_1StartupData.html" target="_top" xlink:title=" ">
<polygon fill="white" stroke="black" points="536.5,-140.5 536.5,-159.5 619.5,-159.5 619.5,-140.5 536.5,-140.5"/>
<text text-anchor="middle" x="578" y="-147.5" font-family="Helvetica,sans-Serif" font-size="10.00">v8::StartupData</text>
</a>
</g>
</g>
<!-- Node7&#45;&gt;Node1 -->
<g id="edge7" class="edge">
<title>Node7&#45;&gt;Node1</title>
<path fill="none" stroke="#9a32cd" stroke-dasharray="5,2" d="M629.94,-156.08C664.45,-160.37 711.05,-166.49 752,-173 762.31,-174.64 773.33,-176.56 783.81,-178.48"/>
<polygon fill="#9a32cd" stroke="#9a32cd" points="629.99,-152.56 619.63,-154.81 629.13,-159.51 629.99,-152.56"/>
<text text-anchor="middle" x="704.5" y="-176" font-family="Helvetica,sans-Serif" font-size="10.00"> snapshot_blob</text>
</g>
<!-- Node8 -->
<g id="node8" class="node">
<title>Node8</title>
<g id="a_node8"><a xlink:href="structv8_1_1JitCodeEvent.html" target="_top" xlink:title=" ">
<polygon fill="white" stroke="black" points="533.5,-90.5 533.5,-109.5 622.5,-109.5 622.5,-90.5 533.5,-90.5"/>
<text text-anchor="middle" x="578" y="-97.5" font-family="Helvetica,sans-Serif" font-size="10.00">v8::JitCodeEvent</text>
</a>
</g>
</g>
<!-- Node8&#45;&gt;Node1 -->
<g id="edge8" class="edge">
<title>Node8&#45;&gt;Node1</title>
<path fill="none" stroke="#9a32cd" stroke-dasharray="5,2" d="M632.53,-110.02C667.27,-117.39 713.13,-128.77 752,-144 776.14,-153.46 802.16,-168.56 818.02,-178.38"/>
<polygon fill="#9a32cd" stroke="#9a32cd" points="633.09,-106.56 622.59,-107.95 631.67,-113.41 633.09,-106.56"/>
<text text-anchor="middle" x="704.5" y="-147" font-family="Helvetica,sans-Serif" font-size="10.00"> code_event_handler</text>
</g>
<!-- Node9 -->
<g id="node9" class="node">
<title>Node9</title>
<g id="a_node9"><a xlink:href="structv8_1_1JitCodeEvent_1_1name__t.html" target="_top" xlink:title=" ">
<polygon fill="white" stroke="black" points="257,-173.5 257,-192.5 383,-192.5 383,-173.5 257,-173.5"/>
<text text-anchor="middle" x="320" y="-180.5" font-family="Helvetica,sans-Serif" font-size="10.00">v8::JitCodeEvent::name_t</text>
</a>
</g>
</g>
<!-- Node9&#45;&gt;Node8 -->
<g id="edge9" class="edge">
<title>Node9&#45;&gt;Node8</title>
<path fill="none" stroke="#9a32cd" stroke-dasharray="5,2" d="M393.79,-186.09C428.01,-184.36 467.99,-177.49 499,-158 511.21,-150.32 506.25,-140.62 517,-131 527.14,-121.93 540.41,-114.72 551.89,-109.54"/>
<polygon fill="#9a32cd" stroke="#9a32cd" points="393.24,-182.61 383.37,-186.47 393.49,-189.61 393.24,-182.61"/>
<text text-anchor="middle" x="456.5" y="-187" font-family="Helvetica,sans-Serif" font-size="10.00"> name</text>
</g>
<!-- Node10 -->
<g id="node10" class="node">
<title>Node10</title>
<g id="a_node10"><a xlink:href="structv8_1_1JitCodeEvent_1_1line__info__t.html" target="_top" xlink:title=" ">
<polygon fill="white" stroke="black" points="0,-110 0,-140 109,-140 109,-110 0,-110"/>
<text text-anchor="start" x="8" y="-128" font-family="Helvetica,sans-Serif" font-size="10.00">v8::JitCodeEvent::line</text>
<text text-anchor="middle" x="54.5" y="-117" font-family="Helvetica,sans-Serif" font-size="10.00">_info_t</text>
</a>
</g>
</g>
<!-- Node10&#45;&gt;Node8 -->
<g id="edge10" class="edge">
<title>Node10&#45;&gt;Node8</title>
<path fill="none" stroke="#9a32cd" stroke-dasharray="5,2" d="M119.37,-129.69C121.95,-129.81 124.5,-129.91 127,-130 292.43,-135.78 334.46,-130.05 499,-112 510.17,-110.78 522.18,-109.1 533.36,-107.4"/>
<polygon fill="#9a32cd" stroke="#9a32cd" points="119.52,-126.19 109.36,-129.17 119.16,-133.18 119.52,-126.19"/>
<text text-anchor="middle" x="320" y="-135" font-family="Helvetica,sans-Serif" font-size="10.00"> line_info</text>
</g>
<!-- Node11 -->
<g id="node11" class="node">
<title>Node11</title>
<g id="a_node11"><a xlink:href="structv8_1_1JitCodeEvent_1_1wasm__source__info__t.html" target="_top" xlink:title=" ">
<polygon fill="white" stroke="black" points="260,-77 260,-107 380,-107 380,-77 260,-77"/>
<text text-anchor="start" x="268" y="-95" font-family="Helvetica,sans-Serif" font-size="10.00">v8::JitCodeEvent::wasm</text>
<text text-anchor="middle" x="320" y="-84" font-family="Helvetica,sans-Serif" font-size="10.00">_source_info_t</text>
</a>
</g>
</g>
<!-- Node10&#45;&gt;Node11 -->
<g id="edge12" class="edge">
<title>Node10&#45;&gt;Node11</title>
<path fill="none" stroke="#9a32cd" stroke-dasharray="5,2" d="M119.17,-117.03C162.01,-111.66 218.09,-104.64 259.93,-99.4"/>
<polygon fill="#9a32cd" stroke="#9a32cd" points="118.63,-113.57 109.14,-118.28 119.5,-120.51 118.63,-113.57"/>
<text text-anchor="middle" x="176.5" y="-118" font-family="Helvetica,sans-Serif" font-size="10.00"> line_number_table</text>
</g>
<!-- Node11&#45;&gt;Node8 -->
<g id="edge11" class="edge">
<title>Node11&#45;&gt;Node8</title>
<path fill="none" stroke="#9a32cd" stroke-dasharray="5,2" d="M390.17,-94.16C435.8,-95.59 494.17,-97.41 533.43,-98.64"/>
<polygon fill="#9a32cd" stroke="#9a32cd" points="390.16,-90.66 380.05,-93.85 389.94,-97.66 390.16,-90.66"/>
<text text-anchor="middle" x="456.5" y="-100" font-family="Helvetica,sans-Serif" font-size="10.00"> wasm_source_info</text>
</g>
<!-- Node12 -->
<g id="node12" class="node">
<title>Node12</title>
<g id="a_node12"><a xlink:href="classv8_1_1Local.html" target="_top" xlink:title=" ">
<polygon fill="white" stroke="black" points="244,-38.5 244,-57.5 396,-57.5 396,-38.5 244,-38.5"/>
<text text-anchor="middle" x="320" y="-45.5" font-family="Helvetica,sans-Serif" font-size="10.00">v8::Local&lt; v8::UnboundScript &gt;</text>
</a>
</g>
</g>
<!-- Node12&#45;&gt;Node8 -->
<g id="edge13" class="edge">
<title>Node12&#45;&gt;Node8</title>
<path fill="none" stroke="#9a32cd" stroke-dasharray="5,2" d="M390.16,-59.22C423.22,-64.9 463.27,-72.22 499,-80 513.21,-83.09 528.74,-86.97 542.18,-90.49"/>
<polygon fill="#9a32cd" stroke="#9a32cd" points="390.59,-55.75 380.14,-57.52 389.41,-62.65 390.59,-55.75"/>
<text text-anchor="middle" x="456.5" y="-83" font-family="Helvetica,sans-Serif" font-size="10.00"> script</text>
</g>
<!-- Node13 -->
<g id="node13" class="node">
<title>Node13</title>
<g id="a_node13"><a xlink:href="classv8_1_1Local.html" target="_top" xlink:title=" ">
<polygon fill="white" stroke="black" points="15.5,-38.5 15.5,-57.5 93.5,-57.5 93.5,-38.5 15.5,-38.5"/>
<text text-anchor="middle" x="54.5" y="-45.5" font-family="Helvetica,sans-Serif" font-size="10.00">v8::Local&lt; T &gt;</text>
</a>
</g>
</g>
<!-- Node13&#45;&gt;Node12 -->
<g id="edge14" class="edge">
<title>Node13&#45;&gt;Node12</title>
<path fill="none" stroke="orange" stroke-dasharray="5,2" d="M103.62,-48C142.83,-48 198.89,-48 243.99,-48"/>
<polygon fill="orange" stroke="orange" points="103.53,-44.5 93.53,-48 103.53,-51.5 103.53,-44.5"/>
<text text-anchor="middle" x="176.5" y="-51" font-family="Helvetica,sans-Serif" font-size="10.00"> &lt; v8::UnboundScript &gt;</text>
</g>
<!-- Node14 -->
<g id="node14" class="node">
<title>Node14</title>
<g id="a_node14"><a xlink:href="classv8_1_1Isolate.html" target="_top" xlink:title=" ">
<polygon fill="white" stroke="black" points="289.5,-0.5 289.5,-19.5 350.5,-19.5 350.5,-0.5 289.5,-0.5"/>
<text text-anchor="middle" x="320" y="-7.5" font-family="Helvetica,sans-Serif" font-size="10.00">v8::Isolate</text>
</a>
</g>
</g>
<!-- Node14&#45;&gt;Node8 -->
<g id="edge15" class="edge">
<title>Node14&#45;&gt;Node8</title>
<path fill="none" stroke="#9a32cd" stroke-dasharray="5,2" d="M361.05,-14.17C398.01,-19.03 453.82,-28.94 499,-48 524.79,-58.88 551.14,-78.61 565.65,-90.39"/>
<polygon fill="#9a32cd" stroke="#9a32cd" points="361.05,-10.64 350.69,-12.88 360.18,-17.59 361.05,-10.64"/>
<text text-anchor="middle" x="456.5" y="-51" font-family="Helvetica,sans-Serif" font-size="10.00"> isolate</text>
</g>
</g>
</svg>
