<?xml version="1.0" encoding="UTF-8" standalone="no"?>
<!DOCTYPE svg PUBLIC "-//W3C//DTD SVG 1.1//EN"
 "http://www.w3.org/Graphics/SVG/1.1/DTD/svg11.dtd">
<!-- Generated by graphviz version 2.44.0 ()
 -->
<!-- Title: include/v8&#45;cppgc.h Pages: 1 -->
<svg width="1751pt" height="520pt"
 viewBox="0.00 0.00 1751.00 520.00" xmlns="http://www.w3.org/2000/svg" xmlns:xlink="http://www.w3.org/1999/xlink">
<g id="graph0" class="graph" transform="scale(1 1) rotate(0) translate(4 516)">
<title>include/v8&#45;cppgc.h</title>
<polygon fill="white" stroke="transparent" points="-4,4 -4,-516 1747,-516 1747,4 -4,4"/>
<!-- Node1 -->
<g id="node1" class="node">
<title>Node1</title>
<g id="a_node1"><a xlink:title=" ">
<polygon fill="#bfbfbf" stroke="black" points="1087,-492.5 1087,-511.5 1185,-511.5 1185,-492.5 1087,-492.5"/>
<text text-anchor="middle" x="1136" y="-499.5" font-family="Helvetica,sans-Serif" font-size="10.00">include/v8&#45;cppgc.h</text>
</a>
</g>
</g>
<!-- Node2 -->
<g id="node2" class="node">
<title>Node2</title>
<g id="a_node2"><a xlink:href="visitor_8h.html" target="_top" xlink:title=" ">
<polygon fill="white" stroke="black" points="567,-436.5 567,-455.5 647,-455.5 647,-436.5 567,-436.5"/>
<text text-anchor="middle" x="607" y="-443.5" font-family="Helvetica,sans-Serif" font-size="10.00">cppgc/visitor.h</text>
</a>
</g>
</g>
<!-- Node1&#45;&gt;Node2 -->
<g id="edge1" class="edge">
<title>Node1&#45;&gt;Node2</title>
<path fill="none" stroke="midnightblue" d="M1086.71,-495.97C986.15,-485.7 758.34,-462.45 657.1,-452.11"/>
<polygon fill="midnightblue" stroke="midnightblue" points="657.44,-448.63 647.13,-451.1 656.72,-455.59 657.44,-448.63"/>
</g>
<!-- Node31 -->
<g id="node31" class="node">
<title>Node31</title>
<g id="a_node31"><a xlink:href="v8-internal_8h.html" target="_top" xlink:title=" ">
<polygon fill="white" stroke="black" points="1303.5,-129 1303.5,-148 1372.5,-148 1372.5,-129 1303.5,-129"/>
<text text-anchor="middle" x="1338" y="-136" font-family="Helvetica,sans-Serif" font-size="10.00">v8&#45;internal.h</text>
</a>
</g>
</g>
<!-- Node1&#45;&gt;Node31 -->
<g id="edge62" class="edge">
<title>Node1&#45;&gt;Node31</title>
<path fill="none" stroke="midnightblue" d="M1185.16,-497.28C1329.66,-485.68 1743,-447.56 1743,-391 1743,-391 1743,-391 1743,-271.5 1743,-227.04 1722.94,-213.18 1685,-190 1635.06,-159.49 1464.39,-146.32 1382.51,-141.66"/>
<polygon fill="midnightblue" stroke="midnightblue" points="1382.69,-138.16 1372.51,-141.11 1382.3,-145.15 1382.69,-138.16"/>
</g>
<!-- Node34 -->
<g id="node34" class="node">
<title>Node34</title>
<g id="a_node34"><a xlink:href="v8_8h.html" target="_top" xlink:title=" ">
<polygon fill="white" stroke="black" points="1118.5,-196 1118.5,-215 1153.5,-215 1153.5,-196 1118.5,-196"/>
<text text-anchor="middle" x="1136" y="-203" font-family="Helvetica,sans-Serif" font-size="10.00">v8.h</text>
</a>
</g>
</g>
<!-- Node1&#45;&gt;Node34 -->
<g id="edge69" class="edge">
<title>Node1&#45;&gt;Node34</title>
<path fill="none" stroke="midnightblue" d="M1136,-492.44C1136,-473.94 1136,-428.81 1136,-391 1136,-391 1136,-391 1136,-333 1136,-294.7 1136,-249.88 1136,-225.2"/>
<polygon fill="midnightblue" stroke="midnightblue" points="1139.5,-225.09 1136,-215.09 1132.5,-225.09 1139.5,-225.09"/>
</g>
<!-- Node3 -->
<g id="node3" class="node">
<title>Node3</title>
<g id="a_node3"><a xlink:href="garbage-collected_8h.html" target="_top" xlink:title=" ">
<polygon fill="white" stroke="black" points="1498,-263 1498,-282 1628,-282 1628,-263 1498,-263"/>
<text text-anchor="middle" x="1563" y="-270" font-family="Helvetica,sans-Serif" font-size="10.00">cppgc/garbage&#45;collected.h</text>
</a>
</g>
</g>
<!-- Node2&#45;&gt;Node3 -->
<g id="edge2" class="edge">
<title>Node2&#45;&gt;Node3</title>
<path fill="none" stroke="midnightblue" d="M647.22,-437.86C771.65,-415.78 1161.34,-346.49 1484,-288 1491.35,-286.67 1499.07,-285.26 1506.7,-283.86"/>
<polygon fill="midnightblue" stroke="midnightblue" points="1507.43,-287.29 1516.64,-282.04 1506.17,-280.4 1507.43,-287.29"/>
</g>
<!-- Node14 -->
<g id="node14" class="node">
<title>Node14</title>
<g id="a_node14"><a xlink:href="trace-trait_8h.html" target="_top" xlink:title=" ">
<polygon fill="white" stroke="black" points="1581.5,-196 1581.5,-215 1676.5,-215 1676.5,-196 1581.5,-196"/>
<text text-anchor="middle" x="1629" y="-203" font-family="Helvetica,sans-Serif" font-size="10.00">cppgc/trace&#45;trait.h</text>
</a>
</g>
</g>
<!-- Node2&#45;&gt;Node14 -->
<g id="edge61" class="edge">
<title>Node2&#45;&gt;Node14</title>
<path fill="none" stroke="midnightblue" d="M647.02,-443.67C773.37,-438.79 1174.56,-418.08 1497,-344 1570.02,-327.22 1612.71,-349.15 1656,-288 1670.01,-268.21 1655.32,-240.67 1642.74,-223.21"/>
<polygon fill="midnightblue" stroke="midnightblue" points="1645.38,-220.91 1636.52,-215.1 1639.83,-225.17 1645.38,-220.91"/>
</g>
<!-- Node16 -->
<g id="node16" class="node">
<title>Node16</title>
<g id="a_node16"><a xlink:href="logging_8h.html" target="_top" xlink:title=" ">
<polygon fill="white" stroke="black" points="336.5,-263 336.5,-282 455.5,-282 455.5,-263 336.5,-263"/>
<text text-anchor="middle" x="396" y="-270" font-family="Helvetica,sans-Serif" font-size="10.00">cppgc/internal/logging.h</text>
</a>
</g>
</g>
<!-- Node2&#45;&gt;Node16 -->
<g id="edge23" class="edge">
<title>Node2&#45;&gt;Node16</title>
<path fill="none" stroke="midnightblue" d="M568.62,-436.48C542.64,-429.49 508.38,-417.81 482,-400 441.6,-372.73 414.92,-319.53 403.06,-291.61"/>
<polygon fill="midnightblue" stroke="midnightblue" points="406.26,-290.19 399.24,-282.25 399.78,-292.83 406.26,-290.19"/>
</g>
<!-- Node17 -->
<g id="node17" class="node">
<title>Node17</title>
<g id="a_node17"><a xlink:href="source-location_8h.html" target="_top" xlink:title=" ">
<polygon fill="white" stroke="black" points="364.5,-196 364.5,-215 483.5,-215 483.5,-196 364.5,-196"/>
<text text-anchor="middle" x="424" y="-203" font-family="Helvetica,sans-Serif" font-size="10.00">cppgc/source&#45;location.h</text>
</a>
</g>
</g>
<!-- Node2&#45;&gt;Node17 -->
<g id="edge60" class="edge">
<title>Node2&#45;&gt;Node17</title>
<path fill="none" stroke="midnightblue" d="M614.32,-436.19C623.76,-423.72 638.17,-400.18 631,-380 607.42,-313.61 586.46,-300.45 531,-257 509.55,-240.19 481.59,-227.24 459.63,-218.66"/>
<polygon fill="midnightblue" stroke="midnightblue" points="460.6,-215.29 450.01,-215.03 458.13,-221.84 460.6,-215.29"/>
</g>
<!-- Node18 -->
<g id="node18" class="node">
<title>Node18</title>
<g id="a_node18"><a xlink:href="pointer-policies_8h.html" target="_top" xlink:title=" ">
<polygon fill="white" stroke="black" points="208,-257.5 208,-287.5 318,-287.5 318,-257.5 208,-257.5"/>
<text text-anchor="start" x="216" y="-275.5" font-family="Helvetica,sans-Serif" font-size="10.00">cppgc/internal/pointer</text>
<text text-anchor="middle" x="263" y="-264.5" font-family="Helvetica,sans-Serif" font-size="10.00">&#45;policies.h</text>
</a>
</g>
</g>
<!-- Node2&#45;&gt;Node18 -->
<g id="edge28" class="edge">
<title>Node2&#45;&gt;Node18</title>
<path fill="none" stroke="midnightblue" d="M567.06,-436.46C535.94,-429.01 492.1,-416.77 456,-400 391.75,-370.15 324.18,-321.19 288.53,-293.75"/>
<polygon fill="midnightblue" stroke="midnightblue" points="290.63,-290.95 280.59,-287.59 286.34,-296.48 290.63,-290.95"/>
</g>
<!-- Node24 -->
<g id="node24" class="node">
<title>Node24</title>
<g id="a_node24"><a xlink:href="liveness-broker_8h.html" target="_top" xlink:title=" ">
<polygon fill="white" stroke="black" points="503.5,-380.5 503.5,-399.5 622.5,-399.5 622.5,-380.5 503.5,-380.5"/>
<text text-anchor="middle" x="563" y="-387.5" font-family="Helvetica,sans-Serif" font-size="10.00">cppgc/liveness&#45;broker.h</text>
</a>
</g>
</g>
<!-- Node2&#45;&gt;Node24 -->
<g id="edge40" class="edge">
<title>Node2&#45;&gt;Node24</title>
<path fill="none" stroke="midnightblue" d="M599.73,-436.08C593.46,-428.38 584.21,-417.03 576.57,-407.65"/>
<polygon fill="midnightblue" stroke="midnightblue" points="579.16,-405.29 570.13,-399.75 573.73,-409.71 579.16,-405.29"/>
</g>
<!-- Node29 -->
<g id="node29" class="node">
<title>Node29</title>
<g id="a_node29"><a xlink:href="member_8h.html" target="_top" xlink:title=" ">
<polygon fill="white" stroke="black" points="441.5,-324.5 441.5,-343.5 530.5,-343.5 530.5,-324.5 441.5,-324.5"/>
<text text-anchor="middle" x="486" y="-331.5" font-family="Helvetica,sans-Serif" font-size="10.00">cppgc/member.h</text>
</a>
</g>
</g>
<!-- Node2&#45;&gt;Node29 -->
<g id="edge59" class="edge">
<title>Node2&#45;&gt;Node29</title>
<path fill="none" stroke="midnightblue" d="M566.8,-439.47C541.89,-433.85 511.41,-422.57 494,-400 483.92,-386.93 482.7,-367.78 483.53,-353.65"/>
<polygon fill="midnightblue" stroke="midnightblue" points="487.02,-353.89 484.51,-343.6 480.06,-353.22 487.02,-353.89"/>
</g>
<!-- Node4 -->
<g id="node4" class="node">
<title>Node4</title>
<g id="a_node4"><a xlink:title=" ">
<polygon fill="white" stroke="#bfbfbf" points="1484,-62 1484,-81 1546,-81 1546,-62 1484,-62"/>
<text text-anchor="middle" x="1515" y="-69" font-family="Helvetica,sans-Serif" font-size="10.00">type_traits</text>
</a>
</g>
</g>
<!-- Node3&#45;&gt;Node4 -->
<g id="edge3" class="edge">
<title>Node3&#45;&gt;Node4</title>
<path fill="none" stroke="midnightblue" d="M1617.72,-262.99C1642.64,-256.08 1669.91,-243.58 1685,-221 1692.66,-209.55 1686.9,-203.65 1685,-190 1680.74,-159.34 1687.37,-145.39 1666,-123 1637.29,-92.92 1590.17,-80.75 1556.2,-75.84"/>
<polygon fill="midnightblue" stroke="midnightblue" points="1556.48,-72.34 1546.12,-74.53 1555.59,-79.28 1556.48,-72.34"/>
</g>
<!-- Node5 -->
<g id="node5" class="node">
<title>Node5</title>
<g id="a_node5"><a xlink:href="api-constants_8h.html" target="_top" xlink:title=" ">
<polygon fill="white" stroke="black" points="857.5,-123.5 857.5,-153.5 950.5,-153.5 950.5,-123.5 857.5,-123.5"/>
<text text-anchor="start" x="865.5" y="-141.5" font-family="Helvetica,sans-Serif" font-size="10.00">cppgc/internal/api</text>
<text text-anchor="middle" x="904" y="-130.5" font-family="Helvetica,sans-Serif" font-size="10.00">&#45;constants.h</text>
</a>
</g>
</g>
<!-- Node3&#45;&gt;Node5 -->
<g id="edge4" class="edge">
<title>Node3&#45;&gt;Node5</title>
<path fill="none" stroke="midnightblue" d="M1497.76,-269.71C1408.69,-266.03 1244.62,-254.85 1109,-221 1048.45,-205.89 981.93,-177 941.57,-157.99"/>
<polygon fill="midnightblue" stroke="midnightblue" points="942.92,-154.75 932.39,-153.62 939.91,-161.08 942.92,-154.75"/>
</g>
<!-- Node9 -->
<g id="node9" class="node">
<title>Node9</title>
<g id="a_node9"><a xlink:href="platform_8h.html" target="_top" xlink:title=" ">
<polygon fill="white" stroke="black" points="701.5,-196 701.5,-215 790.5,-215 790.5,-196 701.5,-196"/>
<text text-anchor="middle" x="746" y="-203" font-family="Helvetica,sans-Serif" font-size="10.00">cppgc/platform.h</text>
</a>
</g>
</g>
<!-- Node3&#45;&gt;Node9 -->
<g id="edge8" class="edge">
<title>Node3&#45;&gt;Node9</title>
<path fill="none" stroke="midnightblue" d="M1497.82,-268.64C1371.3,-262.72 1083.71,-247.39 843,-221 829.38,-219.51 814.73,-217.52 801.06,-215.5"/>
<polygon fill="midnightblue" stroke="midnightblue" points="801.23,-211.98 790.82,-213.95 800.18,-218.9 801.23,-211.98"/>
</g>
<!-- Node3&#45;&gt;Node14 -->
<g id="edge17" class="edge">
<title>Node3&#45;&gt;Node14</title>
<path fill="none" stroke="midnightblue" d="M1571.9,-262.73C1582.39,-252.4 1600.02,-235.04 1612.92,-222.33"/>
<polygon fill="midnightblue" stroke="midnightblue" points="1615.57,-224.64 1620.24,-215.13 1610.66,-219.65 1615.57,-224.64"/>
</g>
<!-- Node15 -->
<g id="node15" class="node">
<title>Node15</title>
<g id="a_node15"><a xlink:href="type-traits_8h.html" target="_top" xlink:title=" ">
<polygon fill="white" stroke="black" points="1543,-129 1543,-148 1639,-148 1639,-129 1543,-129"/>
<text text-anchor="middle" x="1591" y="-136" font-family="Helvetica,sans-Serif" font-size="10.00">cppgc/type&#45;traits.h</text>
</a>
</g>
</g>
<!-- Node3&#45;&gt;Node15 -->
<g id="edge22" class="edge">
<title>Node3&#45;&gt;Node15</title>
<path fill="none" stroke="midnightblue" d="M1563.25,-262.81C1563.84,-247.78 1565.77,-216.03 1572,-190 1574.63,-179.01 1579,-167.17 1582.88,-157.71"/>
<polygon fill="midnightblue" stroke="midnightblue" points="1586.23,-158.8 1586.95,-148.23 1579.79,-156.04 1586.23,-158.8"/>
</g>
<!-- Node6 -->
<g id="node6" class="node">
<title>Node6</title>
<g id="a_node6"><a xlink:title=" ">
<polygon fill="white" stroke="#bfbfbf" points="953.5,-62 953.5,-81 1004.5,-81 1004.5,-62 953.5,-62"/>
<text text-anchor="middle" x="979" y="-69" font-family="Helvetica,sans-Serif" font-size="10.00">stddef.h</text>
</a>
</g>
</g>
<!-- Node5&#45;&gt;Node6 -->
<g id="edge5" class="edge">
<title>Node5&#45;&gt;Node6</title>
<path fill="none" stroke="midnightblue" d="M920.27,-123.4C932.32,-112.96 948.71,-98.75 961.12,-88"/>
<polygon fill="midnightblue" stroke="midnightblue" points="963.7,-90.39 968.97,-81.19 959.12,-85.1 963.7,-90.39"/>
</g>
<!-- Node7 -->
<g id="node7" class="node">
<title>Node7</title>
<g id="a_node7"><a xlink:title=" ">
<polygon fill="white" stroke="#bfbfbf" points="1077,-62 1077,-81 1125,-81 1125,-62 1077,-62"/>
<text text-anchor="middle" x="1101" y="-69" font-family="Helvetica,sans-Serif" font-size="10.00">stdint.h</text>
</a>
</g>
</g>
<!-- Node5&#45;&gt;Node7 -->
<g id="edge6" class="edge">
<title>Node5&#45;&gt;Node7</title>
<path fill="none" stroke="midnightblue" d="M946.75,-123.4C982.84,-111.49 1033.84,-94.66 1067.16,-83.67"/>
<polygon fill="midnightblue" stroke="midnightblue" points="1068.49,-86.91 1076.89,-80.45 1066.3,-80.26 1068.49,-86.91"/>
</g>
<!-- Node8 -->
<g id="node8" class="node">
<title>Node8</title>
<g id="a_node8"><a xlink:href="v8config_8h.html" target="_top" xlink:title=" ">
<polygon fill="white" stroke="black" points="370,-62 370,-81 430,-81 430,-62 370,-62"/>
<text text-anchor="middle" x="400" y="-69" font-family="Helvetica,sans-Serif" font-size="10.00">v8config.h</text>
</a>
</g>
</g>
<!-- Node5&#45;&gt;Node8 -->
<g id="edge7" class="edge">
<title>Node5&#45;&gt;Node8</title>
<path fill="none" stroke="midnightblue" d="M857.36,-124.9C854.2,-124.21 851.06,-123.57 848,-123 699.14,-95.48 519.51,-80.72 440.56,-75.15"/>
<polygon fill="midnightblue" stroke="midnightblue" points="440.32,-71.62 430.1,-74.42 439.83,-78.6 440.32,-71.62"/>
</g>
<!-- Node9&#45;&gt;Node8 -->
<g id="edge16" class="edge">
<title>Node9&#45;&gt;Node8</title>
<path fill="none" stroke="midnightblue" d="M701.99,-195.97C665.91,-187.99 614.1,-174.24 572,-154 550.44,-143.64 549.05,-134.36 528,-123 498.45,-107.06 462.77,-93.4 436.59,-84.32"/>
<polygon fill="midnightblue" stroke="midnightblue" points="437.65,-80.99 427.06,-81.07 435.39,-87.61 437.65,-80.99"/>
</g>
<!-- Node10 -->
<g id="node10" class="node">
<title>Node10</title>
<g id="a_node10"><a xlink:href="v8-platform_8h.html" target="_top" xlink:title=" ">
<polygon fill="white" stroke="black" points="766.5,-129 766.5,-148 839.5,-148 839.5,-129 766.5,-129"/>
<text text-anchor="middle" x="803" y="-136" font-family="Helvetica,sans-Serif" font-size="10.00">v8&#45;platform.h</text>
</a>
</g>
</g>
<!-- Node9&#45;&gt;Node10 -->
<g id="edge9" class="edge">
<title>Node9&#45;&gt;Node10</title>
<path fill="none" stroke="midnightblue" d="M753.69,-195.73C762.66,-185.5 777.69,-168.36 788.8,-155.69"/>
<polygon fill="midnightblue" stroke="midnightblue" points="791.47,-157.95 795.43,-148.13 786.21,-153.34 791.47,-157.95"/>
</g>
<!-- Node10&#45;&gt;Node6 -->
<g id="edge10" class="edge">
<title>Node10&#45;&gt;Node6</title>
<path fill="none" stroke="midnightblue" d="M826.37,-128.87C857.09,-117.52 911.24,-97.52 946.1,-84.65"/>
<polygon fill="midnightblue" stroke="midnightblue" points="947.64,-87.81 955.81,-81.06 945.22,-81.24 947.64,-87.81"/>
</g>
<!-- Node10&#45;&gt;Node7 -->
<g id="edge11" class="edge">
<title>Node10&#45;&gt;Node7</title>
<path fill="none" stroke="midnightblue" d="M828.08,-128.86C834.53,-126.79 841.49,-124.69 848,-123 925.34,-102.89 1017.76,-86.28 1066.68,-78.06"/>
<polygon fill="midnightblue" stroke="midnightblue" points="1067.43,-81.49 1076.72,-76.39 1066.28,-74.58 1067.43,-81.49"/>
</g>
<!-- Node10&#45;&gt;Node8 -->
<g id="edge15" class="edge">
<title>Node10&#45;&gt;Node8</title>
<path fill="none" stroke="midnightblue" d="M766.2,-131.49C750.16,-128.87 731.15,-125.78 714,-123 615.79,-107.1 500.28,-88.57 440.47,-78.98"/>
<polygon fill="midnightblue" stroke="midnightblue" points="440.74,-75.48 430.32,-77.35 439.64,-82.39 440.74,-75.48"/>
</g>
<!-- Node11 -->
<g id="node11" class="node">
<title>Node11</title>
<g id="a_node11"><a xlink:title=" ">
<polygon fill="white" stroke="#bfbfbf" points="779.5,-62 779.5,-81 826.5,-81 826.5,-62 779.5,-62"/>
<text text-anchor="middle" x="803" y="-69" font-family="Helvetica,sans-Serif" font-size="10.00">stdlib.h</text>
</a>
</g>
</g>
<!-- Node10&#45;&gt;Node11 -->
<g id="edge12" class="edge">
<title>Node10&#45;&gt;Node11</title>
<path fill="none" stroke="midnightblue" d="M803,-128.73C803,-119.18 803,-103.62 803,-91.28"/>
<polygon fill="midnightblue" stroke="midnightblue" points="806.5,-91.13 803,-81.13 799.5,-91.13 806.5,-91.13"/>
</g>
<!-- Node12 -->
<g id="node12" class="node">
<title>Node12</title>
<g id="a_node12"><a xlink:title=" ">
<polygon fill="white" stroke="#bfbfbf" points="710.5,-62 710.5,-81 761.5,-81 761.5,-62 710.5,-62"/>
<text text-anchor="middle" x="736" y="-69" font-family="Helvetica,sans-Serif" font-size="10.00">memory</text>
</a>
</g>
</g>
<!-- Node10&#45;&gt;Node12 -->
<g id="edge13" class="edge">
<title>Node10&#45;&gt;Node12</title>
<path fill="none" stroke="midnightblue" d="M793.96,-128.73C783.32,-118.4 765.42,-101.04 752.32,-88.33"/>
<polygon fill="midnightblue" stroke="midnightblue" points="754.51,-85.58 744.89,-81.13 749.63,-90.6 754.51,-85.58"/>
</g>
<!-- Node13 -->
<g id="node13" class="node">
<title>Node13</title>
<g id="a_node13"><a xlink:title=" ">
<polygon fill="white" stroke="#bfbfbf" points="844.5,-62 844.5,-81 885.5,-81 885.5,-62 844.5,-62"/>
<text text-anchor="middle" x="865" y="-69" font-family="Helvetica,sans-Serif" font-size="10.00">string</text>
</a>
</g>
</g>
<!-- Node10&#45;&gt;Node13 -->
<g id="edge14" class="edge">
<title>Node10&#45;&gt;Node13</title>
<path fill="none" stroke="midnightblue" d="M811.36,-128.73C821.12,-118.5 837.47,-101.36 849.55,-88.69"/>
<polygon fill="midnightblue" stroke="midnightblue" points="852.4,-90.78 856.77,-81.13 847.34,-85.95 852.4,-90.78"/>
</g>
<!-- Node14&#45;&gt;Node4 -->
<g id="edge18" class="edge">
<title>Node14&#45;&gt;Node4</title>
<path fill="none" stroke="midnightblue" d="M1635.1,-195.82C1645.43,-179.97 1663.76,-145.84 1648,-123 1627.52,-93.32 1587.14,-81.07 1556.22,-76.02"/>
<polygon fill="midnightblue" stroke="midnightblue" points="1556.54,-72.53 1546.14,-74.57 1555.54,-79.46 1556.54,-72.53"/>
</g>
<!-- Node14&#45;&gt;Node8 -->
<g id="edge21" class="edge">
<title>Node14&#45;&gt;Node8</title>
<path fill="none" stroke="midnightblue" d="M1581.44,-203.06C1423.58,-198.08 917.86,-180.42 757,-154 705.61,-145.56 694.64,-135.17 644,-123 572.68,-105.86 488.8,-89.27 440.28,-80.02"/>
<polygon fill="midnightblue" stroke="midnightblue" points="440.67,-76.53 430.19,-78.11 439.36,-83.41 440.67,-76.53"/>
</g>
<!-- Node14&#45;&gt;Node15 -->
<g id="edge19" class="edge">
<title>Node14&#45;&gt;Node15</title>
<path fill="none" stroke="midnightblue" d="M1623.88,-195.73C1618.06,-185.79 1608.44,-169.34 1601.11,-156.79"/>
<polygon fill="midnightblue" stroke="midnightblue" points="1604.11,-154.99 1596.04,-148.13 1598.07,-158.53 1604.11,-154.99"/>
</g>
<!-- Node15&#45;&gt;Node4 -->
<g id="edge20" class="edge">
<title>Node15&#45;&gt;Node4</title>
<path fill="none" stroke="midnightblue" d="M1580.75,-128.73C1568.56,-118.31 1547.98,-100.71 1533.09,-87.97"/>
<polygon fill="midnightblue" stroke="midnightblue" points="1534.96,-84.97 1525.09,-81.13 1530.41,-90.29 1534.96,-84.97"/>
</g>
<!-- Node16&#45;&gt;Node8 -->
<g id="edge27" class="edge">
<title>Node16&#45;&gt;Node8</title>
<path fill="none" stroke="midnightblue" d="M385.58,-262.71C375.55,-253.5 361.04,-238.03 355,-221 338.33,-174.01 369.28,-117.35 387.71,-89.56"/>
<polygon fill="midnightblue" stroke="midnightblue" points="390.61,-91.52 393.4,-81.3 384.85,-87.55 390.61,-91.52"/>
</g>
<!-- Node16&#45;&gt;Node17 -->
<g id="edge24" class="edge">
<title>Node16&#45;&gt;Node17</title>
<path fill="none" stroke="midnightblue" d="M399.78,-262.73C403.97,-252.99 410.87,-236.98 416.23,-224.53"/>
<polygon fill="midnightblue" stroke="midnightblue" points="419.54,-225.7 420.28,-215.13 413.11,-222.93 419.54,-225.7"/>
</g>
<!-- Node17&#45;&gt;Node8 -->
<g id="edge26" class="edge">
<title>Node17&#45;&gt;Node8</title>
<path fill="none" stroke="midnightblue" d="M414.67,-195.89C405.35,-186.6 391.63,-170.86 386,-154 378.98,-133 385.5,-107.73 391.79,-90.95"/>
<polygon fill="midnightblue" stroke="midnightblue" points="395.2,-91.86 395.75,-81.28 388.72,-89.21 395.2,-91.86"/>
</g>
<!-- Node17&#45;&gt;Node13 -->
<g id="edge25" class="edge">
<title>Node17&#45;&gt;Node13</title>
<path fill="none" stroke="midnightblue" d="M461.82,-195.99C535.1,-179.01 701,-138.1 835,-87 836.39,-86.47 837.79,-85.9 839.21,-85.31"/>
<polygon fill="midnightblue" stroke="midnightblue" points="840.74,-88.46 848.4,-81.15 837.85,-82.08 840.74,-88.46"/>
</g>
<!-- Node18&#45;&gt;Node4 -->
<g id="edge30" class="edge">
<title>Node18&#45;&gt;Node4</title>
<path fill="none" stroke="midnightblue" d="M318.04,-258.37C321.06,-257.86 324.06,-257.39 327,-257 695.18,-207.76 794.08,-272.16 1162,-221 1289.59,-203.26 1333.75,-220.64 1444,-154 1470.53,-137.96 1492.39,-108.68 1504.55,-89.93"/>
<polygon fill="midnightblue" stroke="midnightblue" points="1507.67,-91.55 1510.01,-81.21 1501.74,-87.84 1507.67,-91.55"/>
</g>
<!-- Node18&#45;&gt;Node8 -->
<g id="edge39" class="edge">
<title>Node18&#45;&gt;Node8</title>
<path fill="none" stroke="midnightblue" d="M207.81,-264.67C180.49,-258.2 149.82,-245.58 133,-221 108.4,-185.06 105.21,-156.54 133,-123 161.29,-88.86 291.95,-77.63 359.42,-74.07"/>
<polygon fill="midnightblue" stroke="midnightblue" points="359.87,-77.55 369.68,-73.56 359.52,-70.56 359.87,-77.55"/>
</g>
<!-- Node18&#45;&gt;Node17 -->
<g id="edge38" class="edge">
<title>Node18&#45;&gt;Node17</title>
<path fill="none" stroke="midnightblue" d="M297.93,-257.4C326.43,-245.89 366.29,-229.8 393.52,-218.81"/>
<polygon fill="midnightblue" stroke="midnightblue" points="394.97,-222 402.93,-215.01 392.35,-215.51 394.97,-222"/>
</g>
<!-- Node19 -->
<g id="node19" class="node">
<title>Node19</title>
<g id="a_node19"><a xlink:title=" ">
<polygon fill="white" stroke="#bfbfbf" points="262,-196 262,-215 308,-215 308,-196 262,-196"/>
<text text-anchor="middle" x="285" y="-203" font-family="Helvetica,sans-Serif" font-size="10.00">cstdint</text>
</a>
</g>
</g>
<!-- Node18&#45;&gt;Node19 -->
<g id="edge29" class="edge">
<title>Node18&#45;&gt;Node19</title>
<path fill="none" stroke="midnightblue" d="M267.77,-257.4C271,-247.86 275.29,-235.18 278.79,-224.86"/>
<polygon fill="midnightblue" stroke="midnightblue" points="282.17,-225.79 282.06,-215.19 275.54,-223.54 282.17,-225.79"/>
</g>
<!-- Node20 -->
<g id="node20" class="node">
<title>Node20</title>
<g id="a_node20"><a xlink:href="write-barrier_8h.html" target="_top" xlink:title=" ">
<polygon fill="white" stroke="black" points="142.5,-190.5 142.5,-220.5 243.5,-220.5 243.5,-190.5 142.5,-190.5"/>
<text text-anchor="start" x="150.5" y="-208.5" font-family="Helvetica,sans-Serif" font-size="10.00">cppgc/internal/write</text>
<text text-anchor="middle" x="193" y="-197.5" font-family="Helvetica,sans-Serif" font-size="10.00">&#45;barrier.h</text>
</a>
</g>
</g>
<!-- Node18&#45;&gt;Node20 -->
<g id="edge31" class="edge">
<title>Node18&#45;&gt;Node20</title>
<path fill="none" stroke="midnightblue" d="M247.81,-257.4C238.45,-248.71 226.28,-237.4 215.79,-227.66"/>
<polygon fill="midnightblue" stroke="midnightblue" points="217.87,-224.82 208.16,-220.58 213.11,-229.95 217.87,-224.82"/>
</g>
<!-- Node20&#45;&gt;Node5 -->
<g id="edge32" class="edge">
<title>Node20&#45;&gt;Node5</title>
<path fill="none" stroke="midnightblue" d="M243.61,-191.6C246.78,-191 249.93,-190.46 253,-190 511.68,-151.23 584.48,-194.28 847.16,-153.89"/>
<polygon fill="midnightblue" stroke="midnightblue" points="848.05,-157.29 857.39,-152.29 846.97,-150.37 848.05,-157.29"/>
</g>
<!-- Node20&#45;&gt;Node8 -->
<g id="edge37" class="edge">
<title>Node20&#45;&gt;Node8</title>
<path fill="none" stroke="midnightblue" d="M213.49,-190.4C228.14,-180.3 248.31,-166.35 266,-154 285.61,-140.31 289.76,-135.76 310,-123 331.29,-109.57 356.33,-95.67 374.58,-85.86"/>
<polygon fill="midnightblue" stroke="midnightblue" points="376.27,-88.93 383.45,-81.13 372.98,-82.75 376.27,-88.93"/>
</g>
<!-- Node21 -->
<g id="node21" class="node">
<title>Node21</title>
<g id="a_node21"><a xlink:href="process-heap_8h.html" target="_top" xlink:title=" ">
<polygon fill="white" stroke="black" points="142.5,-123.5 142.5,-153.5 257.5,-153.5 257.5,-123.5 142.5,-123.5"/>
<text text-anchor="start" x="150.5" y="-141.5" font-family="Helvetica,sans-Serif" font-size="10.00">cppgc/internal/process</text>
<text text-anchor="middle" x="200" y="-130.5" font-family="Helvetica,sans-Serif" font-size="10.00">&#45;heap.h</text>
</a>
</g>
</g>
<!-- Node20&#45;&gt;Node21 -->
<g id="edge33" class="edge">
<title>Node20&#45;&gt;Node21</title>
<path fill="none" stroke="midnightblue" d="M194.52,-190.4C195.36,-182.56 196.44,-172.6 197.41,-163.57"/>
<polygon fill="midnightblue" stroke="midnightblue" points="200.89,-163.89 198.48,-153.58 193.93,-163.14 200.89,-163.89"/>
</g>
<!-- Node21&#45;&gt;Node8 -->
<g id="edge36" class="edge">
<title>Node21&#45;&gt;Node8</title>
<path fill="none" stroke="midnightblue" d="M243.4,-123.4C279.42,-111.69 330.06,-95.23 363.9,-84.23"/>
<polygon fill="midnightblue" stroke="midnightblue" points="365.4,-87.43 373.82,-81.01 363.23,-80.77 365.4,-87.43"/>
</g>
<!-- Node22 -->
<g id="node22" class="node">
<title>Node22</title>
<g id="a_node22"><a xlink:href="atomic-entry-flag_8h.html" target="_top" xlink:title=" ">
<polygon fill="white" stroke="black" points="95,-56.5 95,-86.5 205,-86.5 205,-56.5 95,-56.5"/>
<text text-anchor="start" x="103" y="-74.5" font-family="Helvetica,sans-Serif" font-size="10.00">cppgc/internal/atomic</text>
<text text-anchor="middle" x="150" y="-63.5" font-family="Helvetica,sans-Serif" font-size="10.00">&#45;entry&#45;flag.h</text>
</a>
</g>
</g>
<!-- Node21&#45;&gt;Node22 -->
<g id="edge34" class="edge">
<title>Node21&#45;&gt;Node22</title>
<path fill="none" stroke="midnightblue" d="M189.15,-123.4C182.66,-114.96 174.28,-104.07 166.94,-94.52"/>
<polygon fill="midnightblue" stroke="midnightblue" points="169.7,-92.37 160.83,-86.58 164.15,-96.64 169.7,-92.37"/>
</g>
<!-- Node23 -->
<g id="node23" class="node">
<title>Node23</title>
<g id="a_node23"><a xlink:title=" ">
<polygon fill="white" stroke="#bfbfbf" points="77,-0.5 77,-19.5 123,-19.5 123,-0.5 77,-0.5"/>
<text text-anchor="middle" x="100" y="-7.5" font-family="Helvetica,sans-Serif" font-size="10.00">atomic</text>
</a>
</g>
</g>
<!-- Node22&#45;&gt;Node23 -->
<g id="edge35" class="edge">
<title>Node22&#45;&gt;Node23</title>
<path fill="none" stroke="midnightblue" d="M138.15,-56.4C130.89,-47.75 121.55,-36.64 113.93,-27.58"/>
<polygon fill="midnightblue" stroke="midnightblue" points="116.39,-25.06 107.28,-19.66 111.03,-29.57 116.39,-25.06"/>
</g>
<!-- Node24&#45;&gt;Node8 -->
<g id="edge58" class="edge">
<title>Node24&#45;&gt;Node8</title>
<path fill="none" stroke="midnightblue" d="M503.28,-389.27C414.47,-386.74 246.18,-370.38 135,-288 107.32,-267.49 105.96,-253.98 96,-221 83.39,-179.27 63.78,-156.22 92,-123 109.16,-102.79 280.1,-83.97 359.66,-76.22"/>
<polygon fill="midnightblue" stroke="midnightblue" points="360.18,-79.69 369.8,-75.25 359.51,-72.72 360.18,-79.69"/>
</g>
<!-- Node24&#45;&gt;Node14 -->
<g id="edge57" class="edge">
<title>Node24&#45;&gt;Node14</title>
<path fill="none" stroke="midnightblue" d="M622.8,-387.97C838.62,-383.62 1568.33,-363.43 1637,-288 1652.51,-270.96 1645.17,-242.82 1637.7,-224.48"/>
<polygon fill="midnightblue" stroke="midnightblue" points="1640.83,-222.9 1633.57,-215.19 1634.44,-225.75 1640.83,-222.9"/>
</g>
<!-- Node25 -->
<g id="node25" class="node">
<title>Node25</title>
<g id="a_node25"><a xlink:href="heap_8h.html" target="_top" xlink:title=" ">
<polygon fill="white" stroke="black" points="679,-263 679,-282 753,-282 753,-263 679,-263"/>
<text text-anchor="middle" x="716" y="-270" font-family="Helvetica,sans-Serif" font-size="10.00">cppgc/heap.h</text>
</a>
</g>
</g>
<!-- Node24&#45;&gt;Node25 -->
<g id="edge41" class="edge">
<title>Node24&#45;&gt;Node25</title>
<path fill="none" stroke="midnightblue" d="M574.5,-380.32C600.42,-360.75 663.65,-313.02 696.09,-288.53"/>
<polygon fill="midnightblue" stroke="midnightblue" points="698.49,-291.1 704.37,-282.28 694.28,-285.51 698.49,-291.1"/>
</g>
<!-- Node24&#45;&gt;Node29 -->
<g id="edge50" class="edge">
<title>Node24&#45;&gt;Node29</title>
<path fill="none" stroke="midnightblue" d="M550.63,-380.32C538.84,-372.06 520.87,-359.45 506.86,-349.63"/>
<polygon fill="midnightblue" stroke="midnightblue" points="508.54,-346.53 498.34,-343.65 504.52,-352.26 508.54,-346.53"/>
</g>
<!-- Node25&#45;&gt;Node8 -->
<g id="edge49" class="edge">
<title>Node25&#45;&gt;Node8</title>
<path fill="none" stroke="midnightblue" d="M689.11,-262.96C659.63,-253.41 611.05,-237.17 570,-221 561.46,-217.64 424.85,-161.07 419,-154 404.35,-136.28 400.55,-109.33 399.79,-91.32"/>
<polygon fill="midnightblue" stroke="midnightblue" points="403.28,-91.15 399.63,-81.2 396.28,-91.26 403.28,-91.15"/>
</g>
<!-- Node25&#45;&gt;Node9 -->
<g id="edge48" class="edge">
<title>Node25&#45;&gt;Node9</title>
<path fill="none" stroke="midnightblue" d="M720.05,-262.73C724.54,-252.99 731.93,-236.98 737.68,-224.53"/>
<polygon fill="midnightblue" stroke="midnightblue" points="741.01,-225.67 742.02,-215.13 734.65,-222.74 741.01,-225.67"/>
</g>
<!-- Node25&#45;&gt;Node12 -->
<g id="edge42" class="edge">
<title>Node25&#45;&gt;Node12</title>
<path fill="none" stroke="midnightblue" d="M710.5,-262.99C704.58,-253.29 695.55,-236.72 692,-221 688.97,-207.56 689.54,-203.56 692,-190 698.7,-153.01 716.36,-112.5 727.16,-90.02"/>
<polygon fill="midnightblue" stroke="midnightblue" points="730.31,-91.56 731.58,-81.04 724.02,-88.47 730.31,-91.56"/>
</g>
<!-- Node26 -->
<g id="node26" class="node">
<title>Node26</title>
<g id="a_node26"><a xlink:title=" ">
<polygon fill="white" stroke="#bfbfbf" points="1007,-129 1007,-148 1051,-148 1051,-129 1007,-129"/>
<text text-anchor="middle" x="1029" y="-136" font-family="Helvetica,sans-Serif" font-size="10.00">vector</text>
</a>
</g>
</g>
<!-- Node25&#45;&gt;Node26 -->
<g id="edge43" class="edge">
<title>Node25&#45;&gt;Node26</title>
<path fill="none" stroke="midnightblue" d="M753.2,-267.87C816.08,-261.15 940.06,-245.22 976,-221 999.03,-205.48 1014.35,-176.24 1022.36,-157.33"/>
<polygon fill="midnightblue" stroke="midnightblue" points="1025.61,-158.63 1026.06,-148.04 1019.1,-156.04 1025.61,-158.63"/>
</g>
<!-- Node27 -->
<g id="node27" class="node">
<title>Node27</title>
<g id="a_node27"><a xlink:href="common_8h.html" target="_top" xlink:title=" ">
<polygon fill="white" stroke="black" points="428.5,-129 428.5,-148 519.5,-148 519.5,-129 428.5,-129"/>
<text text-anchor="middle" x="474" y="-136" font-family="Helvetica,sans-Serif" font-size="10.00">cppgc/common.h</text>
</a>
</g>
</g>
<!-- Node25&#45;&gt;Node27 -->
<g id="edge44" class="edge">
<title>Node25&#45;&gt;Node27</title>
<path fill="none" stroke="midnightblue" d="M700.12,-262.84C658.91,-240.36 548.32,-180.04 498.7,-152.97"/>
<polygon fill="midnightblue" stroke="midnightblue" points="500.08,-149.74 489.62,-148.02 496.73,-155.88 500.08,-149.74"/>
</g>
<!-- Node28 -->
<g id="node28" class="node">
<title>Node28</title>
<g id="a_node28"><a xlink:href="custom-space_8h.html" target="_top" xlink:title=" ">
<polygon fill="white" stroke="black" points="852.5,-196 852.5,-215 967.5,-215 967.5,-196 852.5,-196"/>
<text text-anchor="middle" x="910" y="-203" font-family="Helvetica,sans-Serif" font-size="10.00">cppgc/custom&#45;space.h</text>
</a>
</g>
</g>
<!-- Node25&#45;&gt;Node28 -->
<g id="edge46" class="edge">
<title>Node25&#45;&gt;Node28</title>
<path fill="none" stroke="midnightblue" d="M741.76,-262.87C775.92,-251.42 836.34,-231.18 874.71,-218.32"/>
<polygon fill="midnightblue" stroke="midnightblue" points="876.07,-221.56 884.44,-215.06 873.85,-214.92 876.07,-221.56"/>
</g>
<!-- Node27&#45;&gt;Node8 -->
<g id="edge45" class="edge">
<title>Node27&#45;&gt;Node8</title>
<path fill="none" stroke="midnightblue" d="M464.02,-128.73C452.15,-118.31 432.11,-100.71 417.62,-87.97"/>
<polygon fill="midnightblue" stroke="midnightblue" points="419.64,-85.1 409.82,-81.13 415.03,-90.36 419.64,-85.1"/>
</g>
<!-- Node28&#45;&gt;Node6 -->
<g id="edge47" class="edge">
<title>Node28&#45;&gt;Node6</title>
<path fill="none" stroke="midnightblue" d="M921.51,-195.74C932.76,-186.55 949.54,-171.1 959,-154 969.89,-134.32 974.92,-108.74 977.2,-91.53"/>
<polygon fill="midnightblue" stroke="midnightblue" points="980.73,-91.46 978.37,-81.13 973.77,-90.67 980.73,-91.46"/>
</g>
<!-- Node29&#45;&gt;Node4 -->
<g id="edge53" class="edge">
<title>Node29&#45;&gt;Node4</title>
<path fill="none" stroke="midnightblue" d="M530.89,-329.66C652.74,-319.97 999.4,-288.11 1280,-221 1369.53,-199.59 1407.21,-215.18 1476,-154 1494.82,-137.26 1505.38,-109.45 1510.63,-91.05"/>
<polygon fill="midnightblue" stroke="midnightblue" points="1514.06,-91.78 1513.19,-81.22 1507.28,-90.02 1514.06,-91.78"/>
</g>
<!-- Node29&#45;&gt;Node8 -->
<g id="edge56" class="edge">
<title>Node29&#45;&gt;Node8</title>
<path fill="none" stroke="midnightblue" d="M441.33,-328.76C371.92,-321.7 241.69,-306.49 199,-288 154.54,-268.74 134.59,-264.37 113,-221 93.59,-182.01 83.99,-156.35 112,-123 127.81,-104.18 284.48,-84.94 359.87,-76.68"/>
<polygon fill="midnightblue" stroke="midnightblue" points="360.38,-80.15 369.95,-75.59 359.63,-73.19 360.38,-80.15"/>
</g>
<!-- Node29&#45;&gt;Node15 -->
<g id="edge55" class="edge">
<title>Node29&#45;&gt;Node15</title>
<path fill="none" stroke="midnightblue" d="M530.51,-332.82C708.3,-331.86 1361.95,-325.74 1446,-288 1478.73,-273.3 1548.27,-191.62 1577.56,-156.06"/>
<polygon fill="midnightblue" stroke="midnightblue" points="1580.46,-158.03 1584.09,-148.08 1575.04,-153.6 1580.46,-158.03"/>
</g>
<!-- Node29&#45;&gt;Node18 -->
<g id="edge54" class="edge">
<title>Node29&#45;&gt;Node18</title>
<path fill="none" stroke="midnightblue" d="M454.05,-324.48C420.6,-315.55 367.22,-301.31 325.38,-290.14"/>
<polygon fill="midnightblue" stroke="midnightblue" points="326.12,-286.72 315.56,-287.52 324.32,-293.48 326.12,-286.72"/>
</g>
<!-- Node29&#45;&gt;Node23 -->
<g id="edge51" class="edge">
<title>Node29&#45;&gt;Node23</title>
<path fill="none" stroke="midnightblue" d="M441.15,-330.89C320.84,-324.01 0,-297.17 0,-206.5 0,-206.5 0,-206.5 0,-137.5 0,-87.77 48.14,-46.15 77.62,-25.33"/>
<polygon fill="midnightblue" stroke="midnightblue" points="79.81,-28.07 86.1,-19.55 75.86,-22.29 79.81,-28.07"/>
</g>
<!-- Node30 -->
<g id="node30" class="node">
<title>Node30</title>
<g id="a_node30"><a xlink:title=" ">
<polygon fill="white" stroke="#bfbfbf" points="473.5,-263 473.5,-282 522.5,-282 522.5,-263 473.5,-263"/>
<text text-anchor="middle" x="498" y="-270" font-family="Helvetica,sans-Serif" font-size="10.00">cstddef</text>
</a>
</g>
</g>
<!-- Node29&#45;&gt;Node30 -->
<g id="edge52" class="edge">
<title>Node29&#45;&gt;Node30</title>
<path fill="none" stroke="midnightblue" d="M487.72,-324.48C489.43,-315.99 492.11,-302.7 494.3,-291.82"/>
<polygon fill="midnightblue" stroke="midnightblue" points="497.74,-292.5 496.28,-282.01 490.88,-291.12 497.74,-292.5"/>
</g>
<!-- Node31&#45;&gt;Node4 -->
<g id="edge66" class="edge">
<title>Node31&#45;&gt;Node4</title>
<path fill="none" stroke="midnightblue" d="M1361.5,-128.87C1392.4,-117.52 1446.86,-97.52 1481.91,-84.65"/>
<polygon fill="midnightblue" stroke="midnightblue" points="1483.5,-87.8 1491.68,-81.06 1481.09,-81.23 1483.5,-87.8"/>
</g>
<!-- Node31&#45;&gt;Node6 -->
<g id="edge63" class="edge">
<title>Node31&#45;&gt;Node6</title>
<path fill="none" stroke="midnightblue" d="M1314.45,-128.97C1307.89,-126.8 1300.72,-124.63 1294,-123 1195.16,-99.01 1168.42,-103.18 1068,-87 1050.5,-84.18 1031.08,-81.02 1014.85,-78.37"/>
<polygon fill="midnightblue" stroke="midnightblue" points="1015.13,-74.87 1004.7,-76.71 1014.01,-81.78 1015.13,-74.87"/>
</g>
<!-- Node31&#45;&gt;Node7 -->
<g id="edge64" class="edge">
<title>Node31&#45;&gt;Node7</title>
<path fill="none" stroke="midnightblue" d="M1312.96,-128.95C1306.78,-126.92 1300.17,-124.82 1294,-123 1238.89,-106.73 1174.15,-90.34 1135.41,-80.82"/>
<polygon fill="midnightblue" stroke="midnightblue" points="1135.75,-77.29 1125.2,-78.32 1134.09,-84.09 1135.75,-77.29"/>
</g>
<!-- Node31&#45;&gt;Node8 -->
<g id="edge68" class="edge">
<title>Node31&#45;&gt;Node8</title>
<path fill="none" stroke="midnightblue" d="M1315.91,-128.97C1309,-126.64 1301.27,-124.38 1294,-123 1251.57,-114.96 609.09,-82.82 440.34,-74.48"/>
<polygon fill="midnightblue" stroke="midnightblue" points="440.31,-70.98 430.15,-73.98 439.96,-77.97 440.31,-70.98"/>
</g>
<!-- Node32 -->
<g id="node32" class="node">
<title>Node32</title>
<g id="a_node32"><a xlink:title=" ">
<polygon fill="white" stroke="#bfbfbf" points="1300,-62 1300,-81 1348,-81 1348,-62 1300,-62"/>
<text text-anchor="middle" x="1324" y="-69" font-family="Helvetica,sans-Serif" font-size="10.00">string.h</text>
</a>
</g>
</g>
<!-- Node31&#45;&gt;Node32 -->
<g id="edge65" class="edge">
<title>Node31&#45;&gt;Node32</title>
<path fill="none" stroke="midnightblue" d="M1336.11,-128.73C1334.03,-119.09 1330.63,-103.3 1327.96,-90.91"/>
<polygon fill="midnightblue" stroke="midnightblue" points="1331.39,-90.17 1325.86,-81.13 1324.54,-91.64 1331.39,-90.17"/>
</g>
<!-- Node33 -->
<g id="node33" class="node">
<title>Node33</title>
<g id="a_node33"><a xlink:href="v8-version_8h.html" target="_top" xlink:title=" ">
<polygon fill="white" stroke="black" points="1366.5,-62 1366.5,-81 1435.5,-81 1435.5,-62 1366.5,-62"/>
<text text-anchor="middle" x="1401" y="-69" font-family="Helvetica,sans-Serif" font-size="10.00">v8&#45;version.h</text>
</a>
</g>
</g>
<!-- Node31&#45;&gt;Node33 -->
<g id="edge67" class="edge">
<title>Node31&#45;&gt;Node33</title>
<path fill="none" stroke="midnightblue" d="M1346.5,-128.73C1356.51,-118.4 1373.34,-101.04 1385.66,-88.33"/>
<polygon fill="midnightblue" stroke="midnightblue" points="1388.19,-90.74 1392.64,-81.13 1383.17,-85.87 1388.19,-90.74"/>
</g>
<!-- Node34&#45;&gt;Node4 -->
<g id="edge75" class="edge">
<title>Node34&#45;&gt;Node4</title>
<path fill="none" stroke="midnightblue" d="M1153.72,-203.86C1197.83,-201.7 1315.41,-192.48 1404,-154 1441.58,-137.68 1478.59,-106.68 1498.95,-87.97"/>
<polygon fill="midnightblue" stroke="midnightblue" points="1501.48,-90.41 1506.38,-81.01 1496.69,-85.3 1501.48,-90.41"/>
</g>
<!-- Node34&#45;&gt;Node6 -->
<g id="edge70" class="edge">
<title>Node34&#45;&gt;Node6</title>
<path fill="none" stroke="midnightblue" d="M1133.49,-195.7C1128.41,-179.33 1115.45,-143.96 1093,-123 1070.89,-102.35 1038.95,-89.2 1014.5,-81.51"/>
<polygon fill="midnightblue" stroke="midnightblue" points="1015.45,-78.14 1004.86,-78.64 1013.45,-84.85 1015.45,-78.14"/>
</g>
<!-- Node34&#45;&gt;Node7 -->
<g id="edge71" class="edge">
<title>Node34&#45;&gt;Node7</title>
<path fill="none" stroke="midnightblue" d="M1136.79,-195.7C1137.86,-180.48 1138.84,-148.47 1131,-123 1127.31,-111.01 1120.24,-98.89 1113.89,-89.52"/>
<polygon fill="midnightblue" stroke="midnightblue" points="1116.59,-87.29 1107.93,-81.19 1110.9,-91.36 1116.59,-87.29"/>
</g>
<!-- Node34&#45;&gt;Node8 -->
<g id="edge81" class="edge">
<title>Node34&#45;&gt;Node8</title>
<path fill="none" stroke="midnightblue" d="M1118.34,-202.91C1045.91,-196.35 771.42,-170.84 686,-154 637.82,-144.5 503.32,-104.11 437.39,-83.99"/>
<polygon fill="midnightblue" stroke="midnightblue" points="438.38,-80.64 427.8,-81.06 436.34,-87.33 438.38,-80.64"/>
</g>
<!-- Node34&#45;&gt;Node12 -->
<g id="edge73" class="edge">
<title>Node34&#45;&gt;Node12</title>
<path fill="none" stroke="midnightblue" d="M1118.45,-202.71C1045.67,-195.22 770.78,-166.22 757,-154 739.36,-138.35 735.61,-110.03 735.26,-91.25"/>
<polygon fill="midnightblue" stroke="midnightblue" points="738.76,-91.25 735.37,-81.22 731.76,-91.18 738.76,-91.25"/>
</g>
<!-- Node34&#45;&gt;Node13 -->
<g id="edge74" class="edge">
<title>Node34&#45;&gt;Node13</title>
<path fill="none" stroke="midnightblue" d="M1128.4,-195.82C1110.86,-175.85 1068.4,-128 1060,-123 1032.27,-106.5 943.19,-87.54 895.62,-78.25"/>
<polygon fill="midnightblue" stroke="midnightblue" points="896.06,-74.77 885.58,-76.31 894.73,-81.64 896.06,-74.77"/>
</g>
<!-- Node34&#45;&gt;Node26 -->
<g id="edge77" class="edge">
<title>Node34&#45;&gt;Node26</title>
<path fill="none" stroke="midnightblue" d="M1121.57,-195.73C1103.68,-184.87 1072.98,-166.22 1051.87,-153.39"/>
<polygon fill="midnightblue" stroke="midnightblue" points="1053.57,-150.33 1043.2,-148.13 1049.93,-156.31 1053.57,-150.33"/>
</g>
<!-- Node34&#45;&gt;Node27 -->
<g id="edge78" class="edge">
<title>Node34&#45;&gt;Node27</title>
<path fill="none" stroke="midnightblue" d="M1118.24,-202.88C1088.72,-200.19 1027.67,-194.64 976,-190 796.46,-173.86 751.02,-175.2 572,-154 558.39,-152.39 543.76,-150.37 530.06,-148.37"/>
<polygon fill="midnightblue" stroke="midnightblue" points="530.2,-144.85 519.79,-146.84 529.17,-151.77 530.2,-144.85"/>
</g>
<!-- Node34&#45;&gt;Node31 -->
<g id="edge79" class="edge">
<title>Node34&#45;&gt;Node31</title>
<path fill="none" stroke="midnightblue" d="M1153.55,-198.95C1182.73,-189.7 1243.05,-170.54 1294,-154 1296.73,-153.12 1299.54,-152.2 1302.38,-151.27"/>
<polygon fill="midnightblue" stroke="midnightblue" points="1303.54,-154.57 1311.95,-148.13 1301.36,-147.92 1303.54,-154.57"/>
</g>
<!-- Node34&#45;&gt;Node33 -->
<g id="edge80" class="edge">
<title>Node34&#45;&gt;Node33</title>
<path fill="none" stroke="midnightblue" d="M1153.71,-203.26C1204.33,-199.35 1348.16,-185.64 1381,-154 1397.86,-137.76 1401.43,-109.81 1401.76,-91.24"/>
<polygon fill="midnightblue" stroke="midnightblue" points="1405.26,-91.03 1401.63,-81.08 1398.26,-91.12 1405.26,-91.03"/>
</g>
<!-- Node35 -->
<g id="node35" class="node">
<title>Node35</title>
<g id="a_node35"><a xlink:title=" ">
<polygon fill="white" stroke="#bfbfbf" points="1240.5,-129 1240.5,-148 1285.5,-148 1285.5,-129 1240.5,-129"/>
<text text-anchor="middle" x="1263" y="-136" font-family="Helvetica,sans-Serif" font-size="10.00">stdio.h</text>
</a>
</g>
</g>
<!-- Node34&#45;&gt;Node35 -->
<g id="edge72" class="edge">
<title>Node34&#45;&gt;Node35</title>
<path fill="none" stroke="midnightblue" d="M1152.86,-195.87C1174.4,-184.84 1211.9,-165.66 1237.08,-152.77"/>
<polygon fill="midnightblue" stroke="midnightblue" points="1238.76,-155.84 1246.07,-148.17 1235.57,-149.61 1238.76,-155.84"/>
</g>
<!-- Node36 -->
<g id="node36" class="node">
<title>Node36</title>
<g id="a_node36"><a xlink:title=" ">
<polygon fill="white" stroke="#bfbfbf" points="1183.5,-129 1183.5,-148 1222.5,-148 1222.5,-129 1183.5,-129"/>
<text text-anchor="middle" x="1203" y="-136" font-family="Helvetica,sans-Serif" font-size="10.00">utility</text>
</a>
</g>
</g>
<!-- Node34&#45;&gt;Node36 -->
<g id="edge76" class="edge">
<title>Node34&#45;&gt;Node36</title>
<path fill="none" stroke="midnightblue" d="M1145.04,-195.73C1155.68,-185.4 1173.58,-168.04 1186.68,-155.33"/>
<polygon fill="midnightblue" stroke="midnightblue" points="1189.37,-157.6 1194.11,-148.13 1184.49,-152.58 1189.37,-157.6"/>
</g>
</g>
</svg>
