<?xml version="1.0" encoding="UTF-8" standalone="no"?>
<!DOCTYPE svg PUBLIC "-//W3C//DTD SVG 1.1//EN"
 "http://www.w3.org/Graphics/SVG/1.1/DTD/svg11.dtd">
<!-- Generated by graphviz version 2.44.0 ()
 -->
<!-- Title: include/v8&#45;inspector.h Pages: 1 -->
<svg width="739pt" height="196pt"
 viewBox="0.00 0.00 738.54 196.00" xmlns="http://www.w3.org/2000/svg" xmlns:xlink="http://www.w3.org/1999/xlink">
<g id="graph0" class="graph" transform="scale(1 1) rotate(0) translate(4 192)">
<title>include/v8&#45;inspector.h</title>
<polygon fill="white" stroke="transparent" points="-4,4 -4,-192 734.54,-192 734.54,4 -4,4"/>
<!-- Node1 -->
<g id="node1" class="node">
<title>Node1</title>
<g id="a_node1"><a xlink:title=" ">
<polygon fill="#bfbfbf" stroke="black" points="267.04,-168.5 267.04,-187.5 378.04,-187.5 378.04,-168.5 267.04,-168.5"/>
<text text-anchor="middle" x="322.54" y="-175.5" font-family="Helvetica,sans-Serif" font-size="10.00">include/v8&#45;inspector.h</text>
</a>
</g>
</g>
<!-- Node2 -->
<g id="node2" class="node">
<title>Node2</title>
<g id="a_node2"><a xlink:title=" ">
<polygon fill="white" stroke="#bfbfbf" points="69.54,-0.5 69.54,-19.5 117.54,-19.5 117.54,-0.5 69.54,-0.5"/>
<text text-anchor="middle" x="93.54" y="-7.5" font-family="Helvetica,sans-Serif" font-size="10.00">stdint.h</text>
</a>
</g>
</g>
<!-- Node1&#45;&gt;Node2 -->
<g id="edge1" class="edge">
<title>Node1&#45;&gt;Node2</title>
<path fill="none" stroke="midnightblue" d="M271.42,-168.48C189.57,-153.65 35.21,-120.38 4.54,-76 -13.2,-50.32 27.81,-30.97 59.9,-20.32"/>
<polygon fill="midnightblue" stroke="midnightblue" points="61.01,-23.64 69.49,-17.29 58.9,-16.96 61.01,-23.64"/>
</g>
<!-- Node3 -->
<g id="node3" class="node">
<title>Node3</title>
<g id="a_node3"><a xlink:title=" ">
<polygon fill="white" stroke="#bfbfbf" points="358.04,-112.5 358.04,-131.5 403.04,-131.5 403.04,-112.5 358.04,-112.5"/>
<text text-anchor="middle" x="380.54" y="-119.5" font-family="Helvetica,sans-Serif" font-size="10.00">cctype</text>
</a>
</g>
</g>
<!-- Node1&#45;&gt;Node3 -->
<g id="edge2" class="edge">
<title>Node1&#45;&gt;Node3</title>
<path fill="none" stroke="midnightblue" d="M331.86,-168.32C340.44,-160.34 353.36,-148.31 363.73,-138.65"/>
<polygon fill="midnightblue" stroke="midnightblue" points="366.12,-141.21 371.06,-131.83 361.35,-136.09 366.12,-141.21"/>
</g>
<!-- Node4 -->
<g id="node4" class="node">
<title>Node4</title>
<g id="a_node4"><a xlink:title=" ">
<polygon fill="white" stroke="#bfbfbf" points="14.04,-56.5 14.04,-75.5 65.04,-75.5 65.04,-56.5 14.04,-56.5"/>
<text text-anchor="middle" x="39.54" y="-63.5" font-family="Helvetica,sans-Serif" font-size="10.00">memory</text>
</a>
</g>
</g>
<!-- Node1&#45;&gt;Node4 -->
<g id="edge3" class="edge">
<title>Node1&#45;&gt;Node4</title>
<path fill="none" stroke="midnightblue" d="M300.34,-168.37C250.33,-148.93 128.75,-101.67 71,-79.23"/>
<polygon fill="midnightblue" stroke="midnightblue" points="72.24,-75.95 61.65,-75.59 69.7,-82.48 72.24,-75.95"/>
</g>
<!-- Node5 -->
<g id="node5" class="node">
<title>Node5</title>
<g id="a_node5"><a xlink:title=" ">
<polygon fill="white" stroke="#bfbfbf" points="421.04,-112.5 421.04,-131.5 504.04,-131.5 504.04,-112.5 421.04,-112.5"/>
<text text-anchor="middle" x="462.54" y="-119.5" font-family="Helvetica,sans-Serif" font-size="10.00">unordered_map</text>
</a>
</g>
</g>
<!-- Node1&#45;&gt;Node5 -->
<g id="edge4" class="edge">
<title>Node1&#45;&gt;Node5</title>
<path fill="none" stroke="midnightblue" d="M344.73,-168.44C367.97,-159.48 404.69,-145.31 430.96,-135.18"/>
<polygon fill="midnightblue" stroke="midnightblue" points="432.39,-138.38 440.47,-131.52 429.88,-131.85 432.39,-138.38"/>
</g>
<!-- Node6 -->
<g id="node6" class="node">
<title>Node6</title>
<g id="a_node6"><a xlink:href="v8_8h.html" target="_top" xlink:title=" ">
<polygon fill="white" stroke="black" points="305.04,-112.5 305.04,-131.5 340.04,-131.5 340.04,-112.5 305.04,-112.5"/>
<text text-anchor="middle" x="322.54" y="-119.5" font-family="Helvetica,sans-Serif" font-size="10.00">v8.h</text>
</a>
</g>
</g>
<!-- Node1&#45;&gt;Node6 -->
<g id="edge5" class="edge">
<title>Node1&#45;&gt;Node6</title>
<path fill="none" stroke="midnightblue" d="M322.54,-168.08C322.54,-161.01 322.54,-150.86 322.54,-141.99"/>
<polygon fill="midnightblue" stroke="midnightblue" points="326.04,-141.75 322.54,-131.75 319.04,-141.75 326.04,-141.75"/>
</g>
<!-- Node6&#45;&gt;Node2 -->
<g id="edge7" class="edge">
<title>Node6&#45;&gt;Node2</title>
<path fill="none" stroke="midnightblue" d="M304.86,-119.51C259.51,-115.35 140.68,-102.14 112.54,-76 99.9,-64.25 95.51,-44.61 94.07,-29.99"/>
<polygon fill="midnightblue" stroke="midnightblue" points="97.53,-29.35 93.44,-19.58 90.55,-29.78 97.53,-29.35"/>
</g>
<!-- Node6&#45;&gt;Node4 -->
<g id="edge9" class="edge">
<title>Node6&#45;&gt;Node4</title>
<path fill="none" stroke="midnightblue" d="M304.82,-117.96C264.64,-111.01 163.61,-93.23 79.54,-76 78.11,-75.71 76.64,-75.4 75.16,-75.09"/>
<polygon fill="midnightblue" stroke="midnightblue" points="75.85,-71.65 65.33,-72.95 74.36,-78.5 75.85,-71.65"/>
</g>
<!-- Node7 -->
<g id="node7" class="node">
<title>Node7</title>
<g id="a_node7"><a xlink:title=" ">
<polygon fill="white" stroke="#bfbfbf" points="599.04,-0.5 599.04,-19.5 650.04,-19.5 650.04,-0.5 599.04,-0.5"/>
<text text-anchor="middle" x="624.54" y="-7.5" font-family="Helvetica,sans-Serif" font-size="10.00">stddef.h</text>
</a>
</g>
</g>
<!-- Node6&#45;&gt;Node7 -->
<g id="edge6" class="edge">
<title>Node6&#45;&gt;Node7</title>
<path fill="none" stroke="midnightblue" d="M340.31,-114.34C343.04,-113.46 345.85,-112.65 348.54,-112 404.83,-98.47 563.01,-114.16 606.54,-76 619.6,-64.56 623.57,-44.58 624.6,-29.78"/>
<polygon fill="midnightblue" stroke="midnightblue" points="628.1,-29.81 624.92,-19.7 621.1,-29.59 628.1,-29.81"/>
</g>
<!-- Node8 -->
<g id="node8" class="node">
<title>Node8</title>
<g id="a_node8"><a xlink:title=" ">
<polygon fill="white" stroke="#bfbfbf" points="270.04,-56.5 270.04,-75.5 315.04,-75.5 315.04,-56.5 270.04,-56.5"/>
<text text-anchor="middle" x="292.54" y="-63.5" font-family="Helvetica,sans-Serif" font-size="10.00">stdio.h</text>
</a>
</g>
</g>
<!-- Node6&#45;&gt;Node8 -->
<g id="edge8" class="edge">
<title>Node6&#45;&gt;Node8</title>
<path fill="none" stroke="midnightblue" d="M317.59,-112.08C313.44,-104.61 307.39,-93.72 302.28,-84.52"/>
<polygon fill="midnightblue" stroke="midnightblue" points="305.32,-82.79 297.41,-75.75 299.2,-86.19 305.32,-82.79"/>
</g>
<!-- Node9 -->
<g id="node9" class="node">
<title>Node9</title>
<g id="a_node9"><a xlink:title=" ">
<polygon fill="white" stroke="#bfbfbf" points="333.04,-56.5 333.04,-75.5 374.04,-75.5 374.04,-56.5 333.04,-56.5"/>
<text text-anchor="middle" x="353.54" y="-63.5" font-family="Helvetica,sans-Serif" font-size="10.00">string</text>
</a>
</g>
</g>
<!-- Node6&#45;&gt;Node9 -->
<g id="edge10" class="edge">
<title>Node6&#45;&gt;Node9</title>
<path fill="none" stroke="midnightblue" d="M327.66,-112.08C331.95,-104.61 338.2,-93.72 343.49,-84.52"/>
<polygon fill="midnightblue" stroke="midnightblue" points="346.58,-86.17 348.52,-75.75 340.51,-82.68 346.58,-86.17"/>
</g>
<!-- Node10 -->
<g id="node10" class="node">
<title>Node10</title>
<g id="a_node10"><a xlink:title=" ">
<polygon fill="white" stroke="#bfbfbf" points="668.54,-0.5 668.54,-19.5 730.54,-19.5 730.54,-0.5 668.54,-0.5"/>
<text text-anchor="middle" x="699.54" y="-7.5" font-family="Helvetica,sans-Serif" font-size="10.00">type_traits</text>
</a>
</g>
</g>
<!-- Node6&#45;&gt;Node10 -->
<g id="edge11" class="edge">
<title>Node6&#45;&gt;Node10</title>
<path fill="none" stroke="midnightblue" d="M340.31,-114.31C343.04,-113.44 345.85,-112.63 348.54,-112 469.82,-83.47 513.2,-127.73 626.54,-76 651.03,-64.82 673.2,-42.54 686.52,-27.21"/>
<polygon fill="midnightblue" stroke="midnightblue" points="689.23,-29.43 692.97,-19.52 683.86,-24.93 689.23,-29.43"/>
</g>
<!-- Node11 -->
<g id="node11" class="node">
<title>Node11</title>
<g id="a_node11"><a xlink:title=" ">
<polygon fill="white" stroke="#bfbfbf" points="392.04,-56.5 392.04,-75.5 431.04,-75.5 431.04,-56.5 392.04,-56.5"/>
<text text-anchor="middle" x="411.54" y="-63.5" font-family="Helvetica,sans-Serif" font-size="10.00">utility</text>
</a>
</g>
</g>
<!-- Node6&#45;&gt;Node11 -->
<g id="edge12" class="edge">
<title>Node6&#45;&gt;Node11</title>
<path fill="none" stroke="midnightblue" d="M336.84,-112.32C350.73,-103.9 372.04,-90.97 388.35,-81.07"/>
<polygon fill="midnightblue" stroke="midnightblue" points="390.55,-83.83 397.28,-75.65 386.92,-77.85 390.55,-83.83"/>
</g>
<!-- Node12 -->
<g id="node12" class="node">
<title>Node12</title>
<g id="a_node12"><a xlink:title=" ">
<polygon fill="white" stroke="#bfbfbf" points="449.54,-56.5 449.54,-75.5 493.54,-75.5 493.54,-56.5 449.54,-56.5"/>
<text text-anchor="middle" x="471.54" y="-63.5" font-family="Helvetica,sans-Serif" font-size="10.00">vector</text>
</a>
</g>
</g>
<!-- Node6&#45;&gt;Node12 -->
<g id="edge13" class="edge">
<title>Node6&#45;&gt;Node12</title>
<path fill="none" stroke="midnightblue" d="M340.22,-114.59C364.74,-105.71 409.47,-89.5 439.84,-78.49"/>
<polygon fill="midnightblue" stroke="midnightblue" points="441.33,-81.67 449.54,-74.97 438.95,-75.09 441.33,-81.67"/>
</g>
<!-- Node13 -->
<g id="node13" class="node">
<title>Node13</title>
<g id="a_node13"><a xlink:href="common_8h.html" target="_top" xlink:title=" ">
<polygon fill="white" stroke="black" points="122.04,-56.5 122.04,-75.5 213.04,-75.5 213.04,-56.5 122.04,-56.5"/>
<text text-anchor="middle" x="167.54" y="-63.5" font-family="Helvetica,sans-Serif" font-size="10.00">cppgc/common.h</text>
</a>
</g>
</g>
<!-- Node6&#45;&gt;Node13 -->
<g id="edge14" class="edge">
<title>Node6&#45;&gt;Node13</title>
<path fill="none" stroke="midnightblue" d="M304.76,-114.81C279.72,-106.08 233.57,-90 201.76,-78.92"/>
<polygon fill="midnightblue" stroke="midnightblue" points="202.57,-75.5 191.97,-75.51 200.27,-82.11 202.57,-75.5"/>
</g>
<!-- Node14 -->
<g id="node14" class="node">
<title>Node14</title>
<g id="a_node14"><a xlink:href="v8config_8h.html" target="_top" xlink:title=" ">
<polygon fill="white" stroke="black" points="211.54,-0.5 211.54,-19.5 271.54,-19.5 271.54,-0.5 211.54,-0.5"/>
<text text-anchor="middle" x="241.54" y="-7.5" font-family="Helvetica,sans-Serif" font-size="10.00">v8config.h</text>
</a>
</g>
</g>
<!-- Node6&#45;&gt;Node14 -->
<g id="edge24" class="edge">
<title>Node6&#45;&gt;Node14</title>
<path fill="none" stroke="midnightblue" d="M305.09,-112.48C291.09,-104.79 271.96,-92.2 260.54,-76 250.92,-62.33 246.12,-43.8 243.76,-30.01"/>
<polygon fill="midnightblue" stroke="midnightblue" points="247.18,-29.17 242.3,-19.77 240.25,-30.16 247.18,-29.17"/>
</g>
<!-- Node15 -->
<g id="node15" class="node">
<title>Node15</title>
<g id="a_node15"><a xlink:href="v8-internal_8h.html" target="_top" xlink:title=" ">
<polygon fill="white" stroke="black" points="512.04,-56.5 512.04,-75.5 581.04,-75.5 581.04,-56.5 512.04,-56.5"/>
<text text-anchor="middle" x="546.54" y="-63.5" font-family="Helvetica,sans-Serif" font-size="10.00">v8&#45;internal.h</text>
</a>
</g>
</g>
<!-- Node6&#45;&gt;Node15 -->
<g id="edge16" class="edge">
<title>Node6&#45;&gt;Node15</title>
<path fill="none" stroke="midnightblue" d="M340.08,-114.64C342.9,-113.7 345.79,-112.79 348.54,-112 376.87,-103.91 452.59,-87.2 501.75,-76.58"/>
<polygon fill="midnightblue" stroke="midnightblue" points="502.78,-79.94 511.82,-74.41 501.3,-73.1 502.78,-79.94"/>
</g>
<!-- Node17 -->
<g id="node17" class="node">
<title>Node17</title>
<g id="a_node17"><a xlink:href="v8-version_8h.html" target="_top" xlink:title=" ">
<polygon fill="white" stroke="black" points="512.04,-0.5 512.04,-19.5 581.04,-19.5 581.04,-0.5 512.04,-0.5"/>
<text text-anchor="middle" x="546.54" y="-7.5" font-family="Helvetica,sans-Serif" font-size="10.00">v8&#45;version.h</text>
</a>
</g>
</g>
<!-- Node6&#45;&gt;Node17 -->
<g id="edge23" class="edge">
<title>Node6&#45;&gt;Node17</title>
<path fill="none" stroke="midnightblue" d="M340.32,-114.36C343.05,-113.48 345.85,-112.66 348.54,-112 401.35,-99.05 555.04,-117.18 590.54,-76 604.39,-59.95 585.16,-39.4 567.95,-25.76"/>
<polygon fill="midnightblue" stroke="midnightblue" points="569.91,-22.85 559.81,-19.66 565.71,-28.46 569.91,-22.85"/>
</g>
<!-- Node13&#45;&gt;Node14 -->
<g id="edge15" class="edge">
<title>Node13&#45;&gt;Node14</title>
<path fill="none" stroke="midnightblue" d="M179.43,-56.32C190.7,-48.11 207.83,-35.6 221.25,-25.81"/>
<polygon fill="midnightblue" stroke="midnightblue" points="223.42,-28.56 229.44,-19.83 219.3,-22.9 223.42,-28.56"/>
</g>
<!-- Node15&#45;&gt;Node2 -->
<g id="edge18" class="edge">
<title>Node15&#45;&gt;Node2</title>
<path fill="none" stroke="midnightblue" d="M512.01,-57.62C508.82,-57.04 505.63,-56.48 502.54,-56 364.27,-34.3 198.06,-19.45 127.68,-13.68"/>
<polygon fill="midnightblue" stroke="midnightblue" points="127.87,-10.19 117.62,-12.87 127.3,-17.17 127.87,-10.19"/>
</g>
<!-- Node15&#45;&gt;Node7 -->
<g id="edge17" class="edge">
<title>Node15&#45;&gt;Node7</title>
<path fill="none" stroke="midnightblue" d="M559.08,-56.32C571.13,-47.98 589.57,-35.21 603.81,-25.35"/>
<polygon fill="midnightblue" stroke="midnightblue" points="605.81,-28.22 612.04,-19.65 601.83,-22.47 605.81,-28.22"/>
</g>
<!-- Node15&#45;&gt;Node10 -->
<g id="edge20" class="edge">
<title>Node15&#45;&gt;Node10</title>
<path fill="none" stroke="midnightblue" d="M570.79,-56.44C596.42,-47.4 637.03,-33.06 665.78,-22.92"/>
<polygon fill="midnightblue" stroke="midnightblue" points="667.15,-26.15 675.41,-19.52 664.82,-19.54 667.15,-26.15"/>
</g>
<!-- Node15&#45;&gt;Node14 -->
<g id="edge22" class="edge">
<title>Node15&#45;&gt;Node14</title>
<path fill="none" stroke="midnightblue" d="M511.98,-57.82C508.79,-57.19 505.61,-56.58 502.54,-56 424.55,-41.3 333.08,-25.97 281.76,-17.54"/>
<polygon fill="midnightblue" stroke="midnightblue" points="282.18,-14.06 271.74,-15.89 281.04,-20.97 282.18,-14.06"/>
</g>
<!-- Node16 -->
<g id="node16" class="node">
<title>Node16</title>
<g id="a_node16"><a xlink:title=" ">
<polygon fill="white" stroke="#bfbfbf" points="445.54,-0.5 445.54,-19.5 493.54,-19.5 493.54,-0.5 445.54,-0.5"/>
<text text-anchor="middle" x="469.54" y="-7.5" font-family="Helvetica,sans-Serif" font-size="10.00">string.h</text>
</a>
</g>
</g>
<!-- Node15&#45;&gt;Node16 -->
<g id="edge19" class="edge">
<title>Node15&#45;&gt;Node16</title>
<path fill="none" stroke="midnightblue" d="M534.17,-56.32C522.39,-48.06 504.41,-35.45 490.41,-25.63"/>
<polygon fill="midnightblue" stroke="midnightblue" points="492.08,-22.53 481.89,-19.65 488.06,-28.26 492.08,-22.53"/>
</g>
<!-- Node15&#45;&gt;Node17 -->
<g id="edge21" class="edge">
<title>Node15&#45;&gt;Node17</title>
<path fill="none" stroke="midnightblue" d="M546.54,-56.08C546.54,-49.01 546.54,-38.86 546.54,-29.99"/>
<polygon fill="midnightblue" stroke="midnightblue" points="550.04,-29.75 546.54,-19.75 543.04,-29.75 550.04,-29.75"/>
</g>
</g>
</svg>
