<?xml version="1.0" encoding="UTF-8" standalone="no"?>
<!DOCTYPE svg PUBLIC "-//W3C//DTD SVG 1.1//EN"
 "http://www.w3.org/Graphics/SVG/1.1/DTD/svg11.dtd">
<!-- Generated by graphviz version 2.44.0 ()
 -->
<!-- Title: include/v8&#45;platform.h Pages: 1 -->
<svg width="629pt" height="352pt"
 viewBox="0.00 0.00 629.00 352.00" xmlns="http://www.w3.org/2000/svg" xmlns:xlink="http://www.w3.org/1999/xlink">
<g id="graph0" class="graph" transform="scale(1 1) rotate(0) translate(4 348)">
<title>include/v8&#45;platform.h</title>
<polygon fill="white" stroke="transparent" points="-4,4 -4,-348 625,-348 625,4 -4,4"/>
<!-- Node1 -->
<g id="node1" class="node">
<title>Node1</title>
<g id="a_node1"><a xlink:title=" ">
<polygon fill="#bfbfbf" stroke="black" points="444,-324.5 444,-343.5 551,-343.5 551,-324.5 444,-324.5"/>
<text text-anchor="middle" x="497.5" y="-331.5" font-family="Helvetica,sans-Serif" font-size="10.00">include/v8&#45;platform.h</text>
</a>
</g>
</g>
<!-- Node2 -->
<g id="node2" class="node">
<title>Node2</title>
<g id="a_node2"><a xlink:href="platform_8h.html" target="_top" xlink:title=" ">
<polygon fill="white" stroke="black" points="253.5,-263 253.5,-282 375.5,-282 375.5,-263 253.5,-263"/>
<text text-anchor="middle" x="314.5" y="-270" font-family="Helvetica,sans-Serif" font-size="10.00">include/cppgc/platform.h</text>
</a>
</g>
</g>
<!-- Node1&#45;&gt;Node2 -->
<g id="edge1" class="edge">
<title>Node1&#45;&gt;Node2</title>
<path fill="none" stroke="midnightblue" d="M461.76,-321.38C426.19,-309.82 372.45,-292.34 340.67,-282.01"/>
<polygon fill="midnightblue" stroke="midnightblue" points="460.69,-324.71 471.28,-324.48 462.85,-318.05 460.69,-324.71"/>
</g>
<!-- Node14 -->
<g id="node14" class="node">
<title>Node14</title>
<g id="a_node14"><a xlink:href="v8-tracing_8h.html" target="_top" xlink:title=" ">
<polygon fill="white" stroke="black" points="450,-257.5 450,-287.5 545,-287.5 545,-257.5 450,-257.5"/>
<text text-anchor="start" x="458" y="-275.5" font-family="Helvetica,sans-Serif" font-size="10.00">include/libplatform</text>
<text text-anchor="middle" x="497.5" y="-264.5" font-family="Helvetica,sans-Serif" font-size="10.00">/v8&#45;tracing.h</text>
</a>
</g>
</g>
<!-- Node1&#45;&gt;Node14 -->
<g id="edge16" class="edge">
<title>Node1&#45;&gt;Node14</title>
<path fill="none" stroke="midnightblue" d="M497.5,-314.23C497.5,-305.59 497.5,-295.5 497.5,-287.52"/>
<polygon fill="midnightblue" stroke="midnightblue" points="494,-314.48 497.5,-324.48 501,-314.48 494,-314.48"/>
</g>
<!-- Node15 -->
<g id="node15" class="node">
<title>Node15</title>
<g id="a_node15"><a xlink:href="libplatform_8h.html" target="_top" xlink:title=" ">
<polygon fill="white" stroke="black" points="526,-190.5 526,-220.5 621,-220.5 621,-190.5 526,-190.5"/>
<text text-anchor="start" x="534" y="-208.5" font-family="Helvetica,sans-Serif" font-size="10.00">include/libplatform</text>
<text text-anchor="middle" x="573.5" y="-197.5" font-family="Helvetica,sans-Serif" font-size="10.00">/libplatform.h</text>
</a>
</g>
</g>
<!-- Node1&#45;&gt;Node15 -->
<g id="edge18" class="edge">
<title>Node1&#45;&gt;Node15</title>
<path fill="none" stroke="midnightblue" d="M521.78,-318.76C533,-311.01 545.57,-300.45 553.5,-288 566.89,-266.99 571.31,-237.68 572.78,-220.54"/>
<polygon fill="midnightblue" stroke="midnightblue" points="519.65,-315.97 513.18,-324.36 523.47,-321.83 519.65,-315.97"/>
</g>
<!-- Node3 -->
<g id="node3" class="node">
<title>Node3</title>
<g id="a_node3"><a xlink:href="garbage-collected_8h.html" target="_top" xlink:title=" ">
<polygon fill="white" stroke="black" points="393.5,-190.5 393.5,-220.5 507.5,-220.5 507.5,-190.5 393.5,-190.5"/>
<text text-anchor="start" x="401.5" y="-208.5" font-family="Helvetica,sans-Serif" font-size="10.00">include/cppgc/garbage</text>
<text text-anchor="middle" x="450.5" y="-197.5" font-family="Helvetica,sans-Serif" font-size="10.00">&#45;collected.h</text>
</a>
</g>
</g>
<!-- Node2&#45;&gt;Node3 -->
<g id="edge2" class="edge">
<title>Node2&#45;&gt;Node3</title>
<path fill="none" stroke="midnightblue" d="M341.75,-258.47C364.75,-247.49 397.58,-231.79 421.15,-220.53"/>
<polygon fill="midnightblue" stroke="midnightblue" points="340.07,-255.4 332.56,-262.87 343.09,-261.71 340.07,-255.4"/>
</g>
<!-- Node8 -->
<g id="node8" class="node">
<title>Node8</title>
<g id="a_node8"><a xlink:href="default-platform_8h.html" target="_top" xlink:title=" ">
<polygon fill="white" stroke="black" points="0,-190.5 0,-220.5 109,-220.5 109,-190.5 0,-190.5"/>
<text text-anchor="start" x="8" y="-208.5" font-family="Helvetica,sans-Serif" font-size="10.00">include/cppgc/default</text>
<text text-anchor="middle" x="54.5" y="-197.5" font-family="Helvetica,sans-Serif" font-size="10.00">&#45;platform.h</text>
</a>
</g>
</g>
<!-- Node2&#45;&gt;Node8 -->
<g id="edge7" class="edge">
<title>Node2&#45;&gt;Node8</title>
<path fill="none" stroke="midnightblue" d="M270.31,-260.45C225.84,-249.34 157.16,-232.16 109.26,-220.19"/>
<polygon fill="midnightblue" stroke="midnightblue" points="269.69,-263.91 280.24,-262.94 271.39,-257.11 269.69,-263.91"/>
</g>
<!-- Node9 -->
<g id="node9" class="node">
<title>Node9</title>
<g id="a_node9"><a xlink:href="heap_8h.html" target="_top" xlink:title=" ">
<polygon fill="white" stroke="black" points="127.5,-196 127.5,-215 235.5,-215 235.5,-196 127.5,-196"/>
<text text-anchor="middle" x="181.5" y="-203" font-family="Helvetica,sans-Serif" font-size="10.00">include/cppgc/heap.h</text>
</a>
</g>
</g>
<!-- Node2&#45;&gt;Node9 -->
<g id="edge8" class="edge">
<title>Node2&#45;&gt;Node9</title>
<path fill="none" stroke="midnightblue" d="M287.78,-258.44C261.44,-245.57 221.93,-226.26 199.23,-215.17"/>
<polygon fill="midnightblue" stroke="midnightblue" points="286.32,-261.62 296.84,-262.87 289.39,-255.33 286.32,-261.62"/>
</g>
<!-- Node13 -->
<g id="node13" class="node">
<title>Node13</title>
<g id="a_node13"><a xlink:href="caged-heap-local-data_8h.html" target="_top" xlink:title=" ">
<polygon fill="white" stroke="black" points="253.5,-190.5 253.5,-220.5 375.5,-220.5 375.5,-190.5 253.5,-190.5"/>
<text text-anchor="start" x="261.5" y="-208.5" font-family="Helvetica,sans-Serif" font-size="10.00">include/cppgc/internal</text>
<text text-anchor="middle" x="314.5" y="-197.5" font-family="Helvetica,sans-Serif" font-size="10.00">/caged&#45;heap&#45;local&#45;data.h</text>
</a>
</g>
</g>
<!-- Node2&#45;&gt;Node13 -->
<g id="edge15" class="edge">
<title>Node2&#45;&gt;Node13</title>
<path fill="none" stroke="midnightblue" d="M314.5,-252.41C314.5,-242.22 314.5,-229.9 314.5,-220.59"/>
<polygon fill="midnightblue" stroke="midnightblue" points="311,-252.73 314.5,-262.73 318,-252.73 311,-252.73"/>
</g>
<!-- Node4 -->
<g id="node4" class="node">
<title>Node4</title>
<g id="a_node4"><a xlink:href="allocation_8h.html" target="_top" xlink:title=" ">
<polygon fill="white" stroke="black" points="319.5,-129 319.5,-148 447.5,-148 447.5,-129 319.5,-129"/>
<text text-anchor="middle" x="383.5" y="-136" font-family="Helvetica,sans-Serif" font-size="10.00">include/cppgc/allocation.h</text>
</a>
</g>
</g>
<!-- Node3&#45;&gt;Node4 -->
<g id="edge3" class="edge">
<title>Node3&#45;&gt;Node4</title>
<path fill="none" stroke="midnightblue" d="M428.68,-183.34C416.38,-171.4 401.68,-157.14 392.46,-148.19"/>
<polygon fill="midnightblue" stroke="midnightblue" points="426.35,-185.94 435.96,-190.4 431.22,-180.92 426.35,-185.94"/>
</g>
<!-- Node5 -->
<g id="node5" class="node">
<title>Node5</title>
<g id="a_node5"><a xlink:href="visitor_8h.html" target="_top" xlink:title=" ">
<polygon fill="white" stroke="black" points="333,-62 333,-81 446,-81 446,-62 333,-62"/>
<text text-anchor="middle" x="389.5" y="-69" font-family="Helvetica,sans-Serif" font-size="10.00">include/cppgc/visitor.h</text>
</a>
</g>
</g>
<!-- Node3&#45;&gt;Node5 -->
<g id="edge4" class="edge">
<title>Node3&#45;&gt;Node5</title>
<path fill="none" stroke="midnightblue" d="M458.47,-180.7C462.71,-163.74 465.41,-140.88 456.5,-123 446.69,-103.32 425.14,-89.28 409.12,-81.08"/>
<polygon fill="midnightblue" stroke="midnightblue" points="455.08,-179.82 455.72,-190.39 461.81,-181.73 455.08,-179.82"/>
</g>
<!-- Node6 -->
<g id="node6" class="node">
<title>Node6</title>
<g id="a_node6"><a xlink:href="persistent_8h.html" target="_top" xlink:title=" ">
<polygon fill="white" stroke="black" points="386.5,-0.5 386.5,-19.5 516.5,-19.5 516.5,-0.5 386.5,-0.5"/>
<text text-anchor="middle" x="451.5" y="-7.5" font-family="Helvetica,sans-Serif" font-size="10.00">include/cppgc/persistent.h</text>
</a>
</g>
</g>
<!-- Node5&#45;&gt;Node6 -->
<g id="edge5" class="edge">
<title>Node5&#45;&gt;Node6</title>
<path fill="none" stroke="midnightblue" d="M405.83,-54.82C417.61,-43.52 433.06,-28.69 442.63,-19.51"/>
<polygon fill="midnightblue" stroke="midnightblue" points="403.17,-52.53 398.38,-61.98 408.02,-57.58 403.17,-52.53"/>
</g>
<!-- Node7 -->
<g id="node7" class="node">
<title>Node7</title>
<g id="a_node7"><a xlink:href="v8-cppgc_8h.html" target="_top" xlink:title=" ">
<polygon fill="white" stroke="black" points="270.5,-0.5 270.5,-19.5 368.5,-19.5 368.5,-0.5 270.5,-0.5"/>
<text text-anchor="middle" x="319.5" y="-7.5" font-family="Helvetica,sans-Serif" font-size="10.00">include/v8&#45;cppgc.h</text>
</a>
</g>
</g>
<!-- Node5&#45;&gt;Node7 -->
<g id="edge6" class="edge">
<title>Node5&#45;&gt;Node7</title>
<path fill="none" stroke="midnightblue" d="M371.82,-55.47C358.43,-44.09 340.52,-28.87 329.51,-19.51"/>
<polygon fill="midnightblue" stroke="midnightblue" points="369.58,-58.17 379.47,-61.98 374.12,-52.83 369.58,-58.17"/>
</g>
<!-- Node10 -->
<g id="node10" class="node">
<title>Node10</title>
<g id="a_node10"><a xlink:href="prefinalizer-handler_8h.html" target="_top" xlink:title=" ">
<polygon fill="white" stroke="black" points="104,-56.5 104,-86.5 215,-86.5 215,-56.5 104,-56.5"/>
<text text-anchor="start" x="112" y="-74.5" font-family="Helvetica,sans-Serif" font-size="10.00">include/cppgc/internal</text>
<text text-anchor="middle" x="159.5" y="-63.5" font-family="Helvetica,sans-Serif" font-size="10.00">/prefinalizer&#45;handler.h</text>
</a>
</g>
</g>
<!-- Node9&#45;&gt;Node10 -->
<g id="edge9" class="edge">
<title>Node9&#45;&gt;Node10</title>
<path fill="none" stroke="midnightblue" d="M178.4,-185.89C173.96,-159.24 165.88,-110.8 161.88,-86.78"/>
<polygon fill="midnightblue" stroke="midnightblue" points="174.96,-186.55 180.06,-195.84 181.86,-185.4 174.96,-186.55"/>
</g>
<!-- Node12 -->
<g id="node12" class="node">
<title>Node12</title>
<g id="a_node12"><a xlink:href="liveness-broker_8h.html" target="_top" xlink:title=" ">
<polygon fill="white" stroke="black" points="185.5,-123.5 185.5,-153.5 301.5,-153.5 301.5,-123.5 185.5,-123.5"/>
<text text-anchor="start" x="193.5" y="-141.5" font-family="Helvetica,sans-Serif" font-size="10.00">include/cppgc/liveness</text>
<text text-anchor="middle" x="243.5" y="-130.5" font-family="Helvetica,sans-Serif" font-size="10.00">&#45;broker.h</text>
</a>
</g>
</g>
<!-- Node9&#45;&gt;Node12 -->
<g id="edge11" class="edge">
<title>Node9&#45;&gt;Node12</title>
<path fill="none" stroke="midnightblue" d="M196.95,-188.3C207.13,-177.63 220.32,-163.8 230.06,-153.59"/>
<polygon fill="midnightblue" stroke="midnightblue" points="194.23,-186.08 189.86,-195.73 199.3,-190.91 194.23,-186.08"/>
</g>
<!-- Node11 -->
<g id="node11" class="node">
<title>Node11</title>
<g id="a_node11"><a xlink:href="prefinalizer_8h.html" target="_top" xlink:title=" ">
<polygon fill="white" stroke="black" points="110,-0.5 110,-19.5 243,-19.5 243,-0.5 110,-0.5"/>
<text text-anchor="middle" x="176.5" y="-7.5" font-family="Helvetica,sans-Serif" font-size="10.00">include/cppgc/prefinalizer.h</text>
</a>
</g>
</g>
<!-- Node10&#45;&gt;Node11 -->
<g id="edge10" class="edge">
<title>Node10&#45;&gt;Node11</title>
<path fill="none" stroke="midnightblue" d="M166.33,-46.59C169.05,-37.08 172.01,-26.73 174.03,-19.66"/>
<polygon fill="midnightblue" stroke="midnightblue" points="162.91,-45.82 163.53,-56.4 169.64,-47.75 162.91,-45.82"/>
</g>
<!-- Node12&#45;&gt;Node5 -->
<g id="edge13" class="edge">
<title>Node12&#45;&gt;Node5</title>
<path fill="none" stroke="midnightblue" d="M284.39,-119.3C312.55,-106.76 348.66,-90.68 370.39,-81.01"/>
<polygon fill="midnightblue" stroke="midnightblue" points="282.89,-116.13 275.18,-123.4 285.74,-122.53 282.89,-116.13"/>
</g>
<!-- Node12&#45;&gt;Node10 -->
<g id="edge12" class="edge">
<title>Node12&#45;&gt;Node10</title>
<path fill="none" stroke="midnightblue" d="M217.22,-117.17C204.38,-107.23 189.24,-95.51 177.69,-86.58"/>
<polygon fill="midnightblue" stroke="midnightblue" points="215.22,-120.04 225.27,-123.4 219.51,-114.51 215.22,-120.04"/>
</g>
<!-- Node12&#45;&gt;Node11 -->
<g id="edge14" class="edge">
<title>Node12&#45;&gt;Node11</title>
<path fill="none" stroke="midnightblue" d="M241.16,-113.14C238.69,-96.2 233.66,-73.59 223.5,-56 214.8,-40.94 199.56,-27.71 188.79,-19.56"/>
<polygon fill="midnightblue" stroke="midnightblue" points="237.72,-113.86 242.44,-123.35 244.67,-112.99 237.72,-113.86"/>
</g>
<!-- Node14&#45;&gt;Node15 -->
<g id="edge17" class="edge">
<title>Node14&#45;&gt;Node15</title>
<path fill="none" stroke="midnightblue" d="M521.61,-250.88C533.16,-241.01 546.69,-229.43 557.04,-220.58"/>
<polygon fill="midnightblue" stroke="midnightblue" points="519.32,-248.24 513.99,-257.4 523.87,-253.56 519.32,-248.24"/>
</g>
</g>
</svg>
