<?xml version="1.0" encoding="UTF-8" standalone="no"?>
<!DOCTYPE svg PUBLIC "-//W3C//DTD SVG 1.1//EN"
 "http://www.w3.org/Graphics/SVG/1.1/DTD/svg11.dtd">
<!-- Generated by graphviz version 2.44.0 ()
 -->
<!-- Title: include/cppgc/allocation.h Pages: 1 -->
<svg width="1098pt" height="274pt"
 viewBox="0.00 0.00 1098.12 274.00" xmlns="http://www.w3.org/2000/svg" xmlns:xlink="http://www.w3.org/1999/xlink">
<g id="graph0" class="graph" transform="scale(1 1) rotate(0) translate(4 270)">
<title>include/cppgc/allocation.h</title>
<polygon fill="white" stroke="transparent" points="-4,4 -4,-270 1094.12,-270 1094.12,4 -4,4"/>
<!-- Node1 -->
<g id="node1" class="node">
<title>Node1</title>
<g id="a_node1"><a xlink:title=" ">
<polygon fill="#bfbfbf" stroke="black" points="163.01,-246.5 163.01,-265.5 291.01,-265.5 291.01,-246.5 163.01,-246.5"/>
<text text-anchor="middle" x="227.01" y="-253.5" font-family="Helvetica,sans-Serif" font-size="10.00">include/cppgc/allocation.h</text>
</a>
</g>
</g>
<!-- Node2 -->
<g id="node2" class="node">
<title>Node2</title>
<g id="a_node2"><a xlink:title=" ">
<polygon fill="white" stroke="#bfbfbf" points="44.01,-0.5 44.01,-19.5 92.01,-19.5 92.01,-0.5 44.01,-0.5"/>
<text text-anchor="middle" x="68.01" y="-7.5" font-family="Helvetica,sans-Serif" font-size="10.00">stdint.h</text>
</a>
</g>
</g>
<!-- Node1&#45;&gt;Node2 -->
<g id="edge1" class="edge">
<title>Node1&#45;&gt;Node2</title>
<path fill="none" stroke="midnightblue" d="M162.96,-249.98C108.1,-244.19 35.15,-232.44 17.01,-210 -27.63,-154.77 28.03,-65.06 54.97,-27.92"/>
<polygon fill="midnightblue" stroke="midnightblue" points="57.95,-29.78 61.12,-19.67 52.34,-25.6 57.95,-29.78"/>
</g>
<!-- Node3 -->
<g id="node3" class="node">
<title>Node3</title>
<g id="a_node3"><a xlink:title=" ">
<polygon fill="white" stroke="#bfbfbf" points="26.01,-190.5 26.01,-209.5 72.01,-209.5 72.01,-190.5 26.01,-190.5"/>
<text text-anchor="middle" x="49.01" y="-197.5" font-family="Helvetica,sans-Serif" font-size="10.00">atomic</text>
</a>
</g>
</g>
<!-- Node1&#45;&gt;Node3 -->
<g id="edge2" class="edge">
<title>Node1&#45;&gt;Node3</title>
<path fill="none" stroke="midnightblue" d="M198.81,-246.44C167.09,-236.82 115.65,-221.21 82.07,-211.03"/>
<polygon fill="midnightblue" stroke="midnightblue" points="82.85,-207.61 72.26,-208.05 80.82,-214.31 82.85,-207.61"/>
</g>
<!-- Node4 -->
<g id="node4" class="node">
<title>Node4</title>
<g id="a_node4"><a xlink:href="custom-space_8h.html" target="_top" xlink:title=" ">
<polygon fill="white" stroke="black" points="169.51,-62 169.51,-81 284.51,-81 284.51,-62 169.51,-62"/>
<text text-anchor="middle" x="227.01" y="-69" font-family="Helvetica,sans-Serif" font-size="10.00">cppgc/custom&#45;space.h</text>
</a>
</g>
</g>
<!-- Node1&#45;&gt;Node4 -->
<g id="edge3" class="edge">
<title>Node1&#45;&gt;Node4</title>
<path fill="none" stroke="midnightblue" d="M227.01,-246.2C227.01,-218.19 227.01,-130.71 227.01,-91.66"/>
<polygon fill="midnightblue" stroke="midnightblue" points="230.51,-91.21 227.01,-81.21 223.51,-91.21 230.51,-91.21"/>
</g>
<!-- Node6 -->
<g id="node6" class="node">
<title>Node6</title>
<g id="a_node6"><a xlink:href="garbage-collected_8h.html" target="_top" xlink:title=" ">
<polygon fill="white" stroke="black" points="811.01,-190.5 811.01,-209.5 941.01,-209.5 941.01,-190.5 811.01,-190.5"/>
<text text-anchor="middle" x="876.01" y="-197.5" font-family="Helvetica,sans-Serif" font-size="10.00">cppgc/garbage&#45;collected.h</text>
</a>
</g>
</g>
<!-- Node1&#45;&gt;Node6 -->
<g id="edge5" class="edge">
<title>Node1&#45;&gt;Node6</title>
<path fill="none" stroke="midnightblue" d="M291.02,-249.67C411.51,-239.65 671.49,-218.02 800.38,-207.29"/>
<polygon fill="midnightblue" stroke="midnightblue" points="800.89,-210.76 810.56,-206.45 800.31,-203.79 800.89,-210.76"/>
</g>
<!-- Node8 -->
<g id="node8" class="node">
<title>Node8</title>
<g id="a_node8"><a xlink:href="api-constants_8h.html" target="_top" xlink:title=" ">
<polygon fill="white" stroke="black" points="58.51,-56.5 58.51,-86.5 151.51,-86.5 151.51,-56.5 58.51,-56.5"/>
<text text-anchor="start" x="66.51" y="-74.5" font-family="Helvetica,sans-Serif" font-size="10.00">cppgc/internal/api</text>
<text text-anchor="middle" x="105.01" y="-63.5" font-family="Helvetica,sans-Serif" font-size="10.00">&#45;constants.h</text>
</a>
</g>
</g>
<!-- Node1&#45;&gt;Node8 -->
<g id="edge33" class="edge">
<title>Node1&#45;&gt;Node8</title>
<path fill="none" stroke="midnightblue" d="M221.13,-246.2C202.94,-218.99 147.23,-135.65 120.13,-95.11"/>
<polygon fill="midnightblue" stroke="midnightblue" points="122.97,-93.06 114.5,-86.69 117.15,-96.95 122.97,-93.06"/>
</g>
<!-- Node18 -->
<g id="node18" class="node">
<title>Node18</title>
<g id="a_node18"><a xlink:href="heap_8h.html" target="_top" xlink:title=" ">
<polygon fill="white" stroke="black" points="301.01,-129 301.01,-148 375.01,-148 375.01,-129 301.01,-129"/>
<text text-anchor="middle" x="338.01" y="-136" font-family="Helvetica,sans-Serif" font-size="10.00">cppgc/heap.h</text>
</a>
</g>
</g>
<!-- Node1&#45;&gt;Node18 -->
<g id="edge26" class="edge">
<title>Node1&#45;&gt;Node18</title>
<path fill="none" stroke="midnightblue" d="M235.36,-246.32C253.84,-227.09 298.47,-180.64 322.34,-155.81"/>
<polygon fill="midnightblue" stroke="midnightblue" points="325.17,-157.92 329.57,-148.28 320.12,-153.07 325.17,-157.92"/>
</g>
<!-- Node21 -->
<g id="node21" class="node">
<title>Node21</title>
<g id="a_node21"><a xlink:href="gc-info_8h.html" target="_top" xlink:title=" ">
<polygon fill="white" stroke="black" points="438.51,-190.5 438.51,-209.5 555.51,-209.5 555.51,-190.5 438.51,-190.5"/>
<text text-anchor="middle" x="497.01" y="-197.5" font-family="Helvetica,sans-Serif" font-size="10.00">cppgc/internal/gc&#45;info.h</text>
</a>
</g>
</g>
<!-- Node1&#45;&gt;Node21 -->
<g id="edge34" class="edge">
<title>Node1&#45;&gt;Node21</title>
<path fill="none" stroke="midnightblue" d="M269.8,-246.44C317.19,-236.96 393.64,-221.67 444.6,-211.48"/>
<polygon fill="midnightblue" stroke="midnightblue" points="445.31,-214.91 454.43,-209.52 443.94,-208.05 445.31,-214.91"/>
</g>
<!-- Node5 -->
<g id="node5" class="node">
<title>Node5</title>
<g id="a_node5"><a xlink:title=" ">
<polygon fill="white" stroke="#bfbfbf" points="201.51,-0.5 201.51,-19.5 252.51,-19.5 252.51,-0.5 201.51,-0.5"/>
<text text-anchor="middle" x="227.01" y="-7.5" font-family="Helvetica,sans-Serif" font-size="10.00">stddef.h</text>
</a>
</g>
</g>
<!-- Node4&#45;&gt;Node5 -->
<g id="edge4" class="edge">
<title>Node4&#45;&gt;Node5</title>
<path fill="none" stroke="midnightblue" d="M227.01,-61.98C227.01,-53.58 227.01,-40.48 227.01,-29.66"/>
<polygon fill="midnightblue" stroke="midnightblue" points="230.51,-29.51 227.01,-19.51 223.51,-29.51 230.51,-29.51"/>
</g>
<!-- Node7 -->
<g id="node7" class="node">
<title>Node7</title>
<g id="a_node7"><a xlink:title=" ">
<polygon fill="white" stroke="#bfbfbf" points="954.01,-0.5 954.01,-19.5 1016.01,-19.5 1016.01,-0.5 954.01,-0.5"/>
<text text-anchor="middle" x="985.01" y="-7.5" font-family="Helvetica,sans-Serif" font-size="10.00">type_traits</text>
</a>
</g>
</g>
<!-- Node6&#45;&gt;Node7 -->
<g id="edge6" class="edge">
<title>Node6&#45;&gt;Node7</title>
<path fill="none" stroke="midnightblue" d="M941.11,-193.39C994.07,-187.32 1062.75,-175.49 1080.01,-154 1115.7,-109.58 1045.11,-51.76 1007.07,-25.32"/>
<polygon fill="midnightblue" stroke="midnightblue" points="1008.86,-22.31 998.62,-19.59 1004.93,-28.1 1008.86,-22.31"/>
</g>
<!-- Node6&#45;&gt;Node8 -->
<g id="edge7" class="edge">
<title>Node6&#45;&gt;Node8</title>
<path fill="none" stroke="midnightblue" d="M810.75,-196.71C679.67,-191.66 388.72,-178.07 292.01,-154 236.02,-140.06 175.55,-110.85 138.98,-91.45"/>
<polygon fill="midnightblue" stroke="midnightblue" points="140.24,-88.16 129.77,-86.51 136.93,-94.32 140.24,-88.16"/>
</g>
<!-- Node10 -->
<g id="node10" class="node">
<title>Node10</title>
<g id="a_node10"><a xlink:href="macros_8h.html" target="_top" xlink:title=" ">
<polygon fill="white" stroke="black" points="833.01,-129 833.01,-148 919.01,-148 919.01,-129 833.01,-129"/>
<text text-anchor="middle" x="876.01" y="-136" font-family="Helvetica,sans-Serif" font-size="10.00">cppgc/macros.h</text>
</a>
</g>
</g>
<!-- Node6&#45;&gt;Node10 -->
<g id="edge11" class="edge">
<title>Node6&#45;&gt;Node10</title>
<path fill="none" stroke="midnightblue" d="M876.01,-190.48C876.01,-182.08 876.01,-168.98 876.01,-158.16"/>
<polygon fill="midnightblue" stroke="midnightblue" points="879.51,-158.01 876.01,-148.01 872.51,-158.01 879.51,-158.01"/>
</g>
<!-- Node11 -->
<g id="node11" class="node">
<title>Node11</title>
<g id="a_node11"><a xlink:href="platform_8h.html" target="_top" xlink:title=" ">
<polygon fill="white" stroke="black" points="594.51,-129 594.51,-148 683.51,-148 683.51,-129 594.51,-129"/>
<text text-anchor="middle" x="639.01" y="-136" font-family="Helvetica,sans-Serif" font-size="10.00">cppgc/platform.h</text>
</a>
</g>
</g>
<!-- Node6&#45;&gt;Node11 -->
<g id="edge12" class="edge">
<title>Node6&#45;&gt;Node11</title>
<path fill="none" stroke="midnightblue" d="M840.19,-190.43C803.26,-181.54 744.03,-167.12 693.01,-154 688.89,-152.94 684.59,-151.82 680.3,-150.68"/>
<polygon fill="midnightblue" stroke="midnightblue" points="680.96,-147.24 670.39,-148.05 679.16,-154 680.96,-147.24"/>
</g>
<!-- Node16 -->
<g id="node16" class="node">
<title>Node16</title>
<g id="a_node16"><a xlink:href="trace-trait_8h.html" target="_top" xlink:title=" ">
<polygon fill="white" stroke="black" points="975.51,-129 975.51,-148 1070.51,-148 1070.51,-129 975.51,-129"/>
<text text-anchor="middle" x="1023.01" y="-136" font-family="Helvetica,sans-Serif" font-size="10.00">cppgc/trace&#45;trait.h</text>
</a>
</g>
</g>
<!-- Node6&#45;&gt;Node16 -->
<g id="edge21" class="edge">
<title>Node6&#45;&gt;Node16</title>
<path fill="none" stroke="midnightblue" d="M897.07,-190.48C922.07,-180.36 963.95,-163.4 992.5,-151.85"/>
<polygon fill="midnightblue" stroke="midnightblue" points="994.03,-155.01 1001.99,-148.01 991.41,-148.52 994.03,-155.01"/>
</g>
<!-- Node17 -->
<g id="node17" class="node">
<title>Node17</title>
<g id="a_node17"><a xlink:href="type-traits_8h.html" target="_top" xlink:title=" ">
<polygon fill="white" stroke="black" points="899.01,-62 899.01,-81 995.01,-81 995.01,-62 899.01,-62"/>
<text text-anchor="middle" x="947.01" y="-69" font-family="Helvetica,sans-Serif" font-size="10.00">cppgc/type&#45;traits.h</text>
</a>
</g>
</g>
<!-- Node6&#45;&gt;Node17 -->
<g id="edge25" class="edge">
<title>Node6&#45;&gt;Node17</title>
<path fill="none" stroke="midnightblue" d="M890.14,-190.45C902.06,-182.49 918.63,-169.53 928.01,-154 939.78,-134.51 944.26,-108.35 945.97,-90.98"/>
<polygon fill="midnightblue" stroke="midnightblue" points="949.46,-91.24 946.73,-81 942.48,-90.7 949.46,-91.24"/>
</g>
<!-- Node8&#45;&gt;Node2 -->
<g id="edge9" class="edge">
<title>Node8&#45;&gt;Node2</title>
<path fill="none" stroke="midnightblue" d="M96.24,-56.4C91.03,-48.02 84.38,-37.33 78.85,-28.42"/>
<polygon fill="midnightblue" stroke="midnightblue" points="81.65,-26.3 73.4,-19.66 75.71,-30 81.65,-26.3"/>
</g>
<!-- Node8&#45;&gt;Node5 -->
<g id="edge8" class="edge">
<title>Node8&#45;&gt;Node5</title>
<path fill="none" stroke="midnightblue" d="M133.93,-56.4C154.03,-46.59 180.63,-33.62 200.25,-24.05"/>
<polygon fill="midnightblue" stroke="midnightblue" points="201.81,-27.19 209.26,-19.66 198.74,-20.9 201.81,-27.19"/>
</g>
<!-- Node9 -->
<g id="node9" class="node">
<title>Node9</title>
<g id="a_node9"><a xlink:href="v8config_8h.html" target="_top" xlink:title=" ">
<polygon fill="white" stroke="black" points="489.01,-0.5 489.01,-19.5 549.01,-19.5 549.01,-0.5 489.01,-0.5"/>
<text text-anchor="middle" x="519.01" y="-7.5" font-family="Helvetica,sans-Serif" font-size="10.00">v8config.h</text>
</a>
</g>
</g>
<!-- Node8&#45;&gt;Node9 -->
<g id="edge10" class="edge">
<title>Node8&#45;&gt;Node9</title>
<path fill="none" stroke="midnightblue" d="M151.66,-57.94C154.82,-57.24 157.96,-56.59 161.01,-56 275.18,-34.14 411.95,-20.32 478.56,-14.38"/>
<polygon fill="midnightblue" stroke="midnightblue" points="478.98,-17.86 488.63,-13.49 478.36,-10.88 478.98,-17.86"/>
</g>
<!-- Node11&#45;&gt;Node9 -->
<g id="edge20" class="edge">
<title>Node11&#45;&gt;Node9</title>
<path fill="none" stroke="midnightblue" d="M646.8,-128.85C660.07,-113.03 684.03,-78.96 667.01,-56 660.4,-47.08 600.58,-30.91 559.04,-20.57"/>
<polygon fill="midnightblue" stroke="midnightblue" points="559.73,-17.14 549.18,-18.14 558.06,-23.93 559.73,-17.14"/>
</g>
<!-- Node12 -->
<g id="node12" class="node">
<title>Node12</title>
<g id="a_node12"><a xlink:href="v8-platform_8h.html" target="_top" xlink:title=" ">
<polygon fill="white" stroke="black" points="551.51,-62 551.51,-81 624.51,-81 624.51,-62 551.51,-62"/>
<text text-anchor="middle" x="588.01" y="-69" font-family="Helvetica,sans-Serif" font-size="10.00">v8&#45;platform.h</text>
</a>
</g>
</g>
<!-- Node11&#45;&gt;Node12 -->
<g id="edge13" class="edge">
<title>Node11&#45;&gt;Node12</title>
<path fill="none" stroke="midnightblue" d="M632.13,-128.73C624.18,-118.6 610.92,-101.69 601,-89.06"/>
<polygon fill="midnightblue" stroke="midnightblue" points="603.71,-86.83 594.78,-81.13 598.2,-91.16 603.71,-86.83"/>
</g>
<!-- Node12&#45;&gt;Node2 -->
<g id="edge15" class="edge">
<title>Node12&#45;&gt;Node2</title>
<path fill="none" stroke="midnightblue" d="M551.3,-63.6C536.63,-60.99 519.55,-58.14 504.01,-56 354.92,-35.46 175.97,-19.8 102.28,-13.74"/>
<polygon fill="midnightblue" stroke="midnightblue" points="102.44,-10.24 92.19,-12.91 101.87,-17.22 102.44,-10.24"/>
</g>
<!-- Node12&#45;&gt;Node5 -->
<g id="edge14" class="edge">
<title>Node12&#45;&gt;Node5</title>
<path fill="none" stroke="midnightblue" d="M551.23,-64.07C536.54,-61.52 519.48,-58.59 504.01,-56 417.48,-41.5 315.61,-25.13 262.81,-16.7"/>
<polygon fill="midnightblue" stroke="midnightblue" points="263.04,-13.19 252.61,-15.07 261.94,-20.1 263.04,-13.19"/>
</g>
<!-- Node12&#45;&gt;Node9 -->
<g id="edge19" class="edge">
<title>Node12&#45;&gt;Node9</title>
<path fill="none" stroke="midnightblue" d="M578.13,-61.98C567.37,-52.7 549.94,-37.67 536.79,-26.33"/>
<polygon fill="midnightblue" stroke="midnightblue" points="538.74,-23.39 528.88,-19.51 534.17,-28.69 538.74,-23.39"/>
</g>
<!-- Node13 -->
<g id="node13" class="node">
<title>Node13</title>
<g id="a_node13"><a xlink:title=" ">
<polygon fill="white" stroke="#bfbfbf" points="567.51,-0.5 567.51,-19.5 614.51,-19.5 614.51,-0.5 567.51,-0.5"/>
<text text-anchor="middle" x="591.01" y="-7.5" font-family="Helvetica,sans-Serif" font-size="10.00">stdlib.h</text>
</a>
</g>
</g>
<!-- Node12&#45;&gt;Node13 -->
<g id="edge16" class="edge">
<title>Node12&#45;&gt;Node13</title>
<path fill="none" stroke="midnightblue" d="M588.44,-61.98C588.87,-53.58 589.53,-40.48 590.07,-29.66"/>
<polygon fill="midnightblue" stroke="midnightblue" points="593.58,-29.67 590.58,-19.51 586.58,-29.32 593.58,-29.67"/>
</g>
<!-- Node14 -->
<g id="node14" class="node">
<title>Node14</title>
<g id="a_node14"><a xlink:title=" ">
<polygon fill="white" stroke="#bfbfbf" points="353.51,-0.5 353.51,-19.5 404.51,-19.5 404.51,-0.5 353.51,-0.5"/>
<text text-anchor="middle" x="379.01" y="-7.5" font-family="Helvetica,sans-Serif" font-size="10.00">memory</text>
</a>
</g>
</g>
<!-- Node12&#45;&gt;Node14 -->
<g id="edge17" class="edge">
<title>Node12&#45;&gt;Node14</title>
<path fill="none" stroke="midnightblue" d="M558.07,-61.98C520.09,-51.16 454.69,-32.55 414.32,-21.05"/>
<polygon fill="midnightblue" stroke="midnightblue" points="415.21,-17.66 404.63,-18.29 413.29,-24.4 415.21,-17.66"/>
</g>
<!-- Node15 -->
<g id="node15" class="node">
<title>Node15</title>
<g id="a_node15"><a xlink:title=" ">
<polygon fill="white" stroke="#bfbfbf" points="632.51,-0.5 632.51,-19.5 673.51,-19.5 673.51,-0.5 632.51,-0.5"/>
<text text-anchor="middle" x="653.01" y="-7.5" font-family="Helvetica,sans-Serif" font-size="10.00">string</text>
</a>
</g>
</g>
<!-- Node12&#45;&gt;Node15 -->
<g id="edge18" class="edge">
<title>Node12&#45;&gt;Node15</title>
<path fill="none" stroke="midnightblue" d="M597.33,-61.98C607.46,-52.7 623.88,-37.67 636.26,-26.33"/>
<polygon fill="midnightblue" stroke="midnightblue" points="638.7,-28.84 643.72,-19.51 633.98,-23.68 638.7,-28.84"/>
</g>
<!-- Node16&#45;&gt;Node7 -->
<g id="edge22" class="edge">
<title>Node16&#45;&gt;Node7</title>
<path fill="none" stroke="midnightblue" d="M1021.49,-128.8C1018.75,-113.75 1012.46,-81.98 1004.01,-56 1001.06,-46.93 997.04,-37.14 993.45,-29.01"/>
<polygon fill="midnightblue" stroke="midnightblue" points="996.58,-27.45 989.26,-19.79 990.21,-30.35 996.58,-27.45"/>
</g>
<!-- Node16&#45;&gt;Node17 -->
<g id="edge23" class="edge">
<title>Node16&#45;&gt;Node17</title>
<path fill="none" stroke="midnightblue" d="M1012.76,-128.73C1000.57,-118.31 980,-100.71 965.1,-87.97"/>
<polygon fill="midnightblue" stroke="midnightblue" points="966.97,-84.97 957.1,-81.13 962.42,-90.29 966.97,-84.97"/>
</g>
<!-- Node17&#45;&gt;Node7 -->
<g id="edge24" class="edge">
<title>Node17&#45;&gt;Node7</title>
<path fill="none" stroke="midnightblue" d="M952.46,-61.98C958.1,-53.14 967.07,-39.09 974.17,-27.98"/>
<polygon fill="midnightblue" stroke="midnightblue" points="977.15,-29.82 979.58,-19.51 971.25,-26.05 977.15,-29.82"/>
</g>
<!-- Node18&#45;&gt;Node4 -->
<g id="edge31" class="edge">
<title>Node18&#45;&gt;Node4</title>
<path fill="none" stroke="midnightblue" d="M323.04,-128.73C304.4,-117.82 272.35,-99.05 250.44,-86.22"/>
<polygon fill="midnightblue" stroke="midnightblue" points="252.14,-83.16 241.75,-81.13 248.61,-89.2 252.14,-83.16"/>
</g>
<!-- Node18&#45;&gt;Node9 -->
<g id="edge32" class="edge">
<title>Node18&#45;&gt;Node9</title>
<path fill="none" stroke="midnightblue" d="M375.13,-136.74C413.14,-133.87 471.18,-123.31 504.01,-87 517.94,-71.6 520.52,-47.14 520.38,-30.14"/>
<polygon fill="midnightblue" stroke="midnightblue" points="523.86,-29.62 519.95,-19.77 516.87,-29.91 523.86,-29.62"/>
</g>
<!-- Node18&#45;&gt;Node14 -->
<g id="edge27" class="edge">
<title>Node18&#45;&gt;Node14</title>
<path fill="none" stroke="midnightblue" d="M334.91,-128.99C329.86,-113.68 321.43,-80.79 332.01,-56 337.16,-43.95 347.29,-33.58 356.84,-25.84"/>
<polygon fill="midnightblue" stroke="midnightblue" points="359.05,-28.55 364.93,-19.74 354.84,-22.96 359.05,-28.55"/>
</g>
<!-- Node19 -->
<g id="node19" class="node">
<title>Node19</title>
<g id="a_node19"><a xlink:title=" ">
<polygon fill="white" stroke="#bfbfbf" points="341.01,-62 341.01,-81 385.01,-81 385.01,-62 341.01,-62"/>
<text text-anchor="middle" x="363.01" y="-69" font-family="Helvetica,sans-Serif" font-size="10.00">vector</text>
</a>
</g>
</g>
<!-- Node18&#45;&gt;Node19 -->
<g id="edge28" class="edge">
<title>Node18&#45;&gt;Node19</title>
<path fill="none" stroke="midnightblue" d="M341.38,-128.73C345.13,-118.99 351.29,-102.98 356.08,-90.53"/>
<polygon fill="midnightblue" stroke="midnightblue" points="359.37,-91.72 359.69,-81.13 352.84,-89.2 359.37,-91.72"/>
</g>
<!-- Node20 -->
<g id="node20" class="node">
<title>Node20</title>
<g id="a_node20"><a xlink:href="common_8h.html" target="_top" xlink:title=" ">
<polygon fill="white" stroke="black" points="403.51,-62 403.51,-81 494.51,-81 494.51,-62 403.51,-62"/>
<text text-anchor="middle" x="449.01" y="-69" font-family="Helvetica,sans-Serif" font-size="10.00">cppgc/common.h</text>
</a>
</g>
</g>
<!-- Node18&#45;&gt;Node20 -->
<g id="edge29" class="edge">
<title>Node18&#45;&gt;Node20</title>
<path fill="none" stroke="midnightblue" d="M352.98,-128.73C371.62,-117.82 403.68,-99.05 425.58,-86.22"/>
<polygon fill="midnightblue" stroke="midnightblue" points="427.42,-89.2 434.28,-81.13 423.88,-83.16 427.42,-89.2"/>
</g>
<!-- Node20&#45;&gt;Node9 -->
<g id="edge30" class="edge">
<title>Node20&#45;&gt;Node9</title>
<path fill="none" stroke="midnightblue" d="M459.04,-61.98C470.06,-52.61 487.97,-37.38 501.36,-26.01"/>
<polygon fill="midnightblue" stroke="midnightblue" points="503.65,-28.65 509,-19.51 499.12,-23.32 503.65,-28.65"/>
</g>
<!-- Node21&#45;&gt;Node2 -->
<g id="edge35" class="edge">
<title>Node21&#45;&gt;Node2</title>
<path fill="none" stroke="midnightblue" d="M438.31,-194.55C378.26,-188.95 282.73,-177.12 203.01,-154 131.72,-133.32 90.63,-149.13 50.01,-87 38.46,-69.33 47.62,-45.04 56.57,-28.72"/>
<polygon fill="midnightblue" stroke="midnightblue" points="59.82,-30.1 61.92,-19.72 53.8,-26.52 59.82,-30.1"/>
</g>
<!-- Node21&#45;&gt;Node9 -->
<g id="edge39" class="edge">
<title>Node21&#45;&gt;Node9</title>
<path fill="none" stroke="midnightblue" d="M506.72,-190.36C522.9,-176.04 556.51,-146.62 586.01,-123 606.83,-106.33 622.09,-110.85 634.01,-87 640.17,-74.68 641.78,-67.38 634.01,-56 625.11,-42.95 588.36,-30.02 558.77,-21.39"/>
<polygon fill="midnightblue" stroke="midnightblue" points="559.63,-18 549.05,-18.63 557.72,-24.73 559.63,-18"/>
</g>
<!-- Node22 -->
<g id="node22" class="node">
<title>Node22</title>
<g id="a_node22"><a xlink:href="finalizer-trait_8h.html" target="_top" xlink:title=" ">
<polygon fill="white" stroke="black" points="701.51,-123.5 701.51,-153.5 814.51,-153.5 814.51,-123.5 701.51,-123.5"/>
<text text-anchor="start" x="709.51" y="-141.5" font-family="Helvetica,sans-Serif" font-size="10.00">cppgc/internal/finalizer</text>
<text text-anchor="middle" x="758.01" y="-130.5" font-family="Helvetica,sans-Serif" font-size="10.00">&#45;trait.h</text>
</a>
</g>
</g>
<!-- Node21&#45;&gt;Node22 -->
<g id="edge36" class="edge">
<title>Node21&#45;&gt;Node22</title>
<path fill="none" stroke="midnightblue" d="M534.41,-190.48C575.29,-181.16 641.6,-166.04 691.42,-154.68"/>
<polygon fill="midnightblue" stroke="midnightblue" points="692.49,-158.03 701.47,-152.39 690.94,-151.2 692.49,-158.03"/>
</g>
<!-- Node22&#45;&gt;Node7 -->
<g id="edge37" class="edge">
<title>Node22&#45;&gt;Node7</title>
<path fill="none" stroke="midnightblue" d="M779.07,-123.49C804.77,-106.63 849.78,-77.86 890.01,-56 911.72,-44.2 937.04,-32.3 956.08,-23.7"/>
<polygon fill="midnightblue" stroke="midnightblue" points="957.72,-26.8 965.41,-19.52 954.86,-20.41 957.72,-26.8"/>
</g>
<!-- Node22&#45;&gt;Node17 -->
<g id="edge38" class="edge">
<title>Node22&#45;&gt;Node17</title>
<path fill="none" stroke="midnightblue" d="M799.02,-123.4C832.92,-111.74 880.5,-95.37 912.48,-84.38"/>
<polygon fill="midnightblue" stroke="midnightblue" points="913.96,-87.57 922.28,-81.01 911.68,-80.95 913.96,-87.57"/>
</g>
</g>
</svg>
