<?xml version="1.0" encoding="UTF-8" standalone="no"?>
<!DOCTYPE svg PUBLIC "-//W3C//DTD SVG 1.1//EN"
 "http://www.w3.org/Graphics/SVG/1.1/DTD/svg11.dtd">
<!-- Generated by graphviz version 2.44.0 ()
 -->
<!-- Title: include/cppgc/internal/api&#45;constants.h Pages: 1 -->
<svg width="419pt" height="218pt"
 viewBox="0.00 0.00 418.50 218.00" xmlns="http://www.w3.org/2000/svg" xmlns:xlink="http://www.w3.org/1999/xlink">
<g id="graph0" class="graph" transform="scale(1 1) rotate(0) translate(4 214)">
<title>include/cppgc/internal/api&#45;constants.h</title>
<polygon fill="white" stroke="transparent" points="-4,4 -4,-214 414.5,-214 414.5,4 -4,4"/>
<!-- Node1 -->
<g id="node1" class="node">
<title>Node1</title>
<g id="a_node1"><a xlink:title=" ">
<polygon fill="#bfbfbf" stroke="black" points="133.5,-179.5 133.5,-209.5 244.5,-209.5 244.5,-179.5 133.5,-179.5"/>
<text text-anchor="start" x="141.5" y="-197.5" font-family="Helvetica,sans-Serif" font-size="10.00">include/cppgc/internal</text>
<text text-anchor="middle" x="189" y="-186.5" font-family="Helvetica,sans-Serif" font-size="10.00">/api&#45;constants.h</text>
</a>
</g>
</g>
<!-- Node2 -->
<g id="node2" class="node">
<title>Node2</title>
<g id="a_node2"><a xlink:href="garbage-collected_8h.html" target="_top" xlink:title=" ">
<polygon fill="white" stroke="black" points="132,-112.5 132,-142.5 246,-142.5 246,-112.5 132,-112.5"/>
<text text-anchor="start" x="140" y="-130.5" font-family="Helvetica,sans-Serif" font-size="10.00">include/cppgc/garbage</text>
<text text-anchor="middle" x="189" y="-119.5" font-family="Helvetica,sans-Serif" font-size="10.00">&#45;collected.h</text>
</a>
</g>
</g>
<!-- Node1&#45;&gt;Node2 -->
<g id="edge1" class="edge">
<title>Node1&#45;&gt;Node2</title>
<path fill="none" stroke="midnightblue" d="M189,-169.11C189,-160.15 189,-150.32 189,-142.58"/>
<polygon fill="midnightblue" stroke="midnightblue" points="185.5,-169.4 189,-179.4 192.5,-169.4 185.5,-169.4"/>
</g>
<!-- Node3 -->
<g id="node3" class="node">
<title>Node3</title>
<g id="a_node3"><a xlink:href="allocation_8h.html" target="_top" xlink:title=" ">
<polygon fill="white" stroke="black" points="0,-56.5 0,-75.5 128,-75.5 128,-56.5 0,-56.5"/>
<text text-anchor="middle" x="64" y="-63.5" font-family="Helvetica,sans-Serif" font-size="10.00">include/cppgc/allocation.h</text>
</a>
</g>
</g>
<!-- Node1&#45;&gt;Node3 -->
<g id="edge5" class="edge">
<title>Node1&#45;&gt;Node3</title>
<path fill="none" stroke="midnightblue" d="M159.36,-173.35C147.49,-164.65 134.04,-153.96 123,-143 100.72,-120.87 79.34,-90.26 69.56,-75.55"/>
<polygon fill="midnightblue" stroke="midnightblue" points="157.5,-176.32 167.67,-179.31 161.58,-170.63 157.5,-176.32"/>
</g>
<!-- Node6 -->
<g id="node6" class="node">
<title>Node6</title>
<g id="a_node6"><a xlink:href="accessors_8h.html" target="_top" xlink:title=" ">
<polygon fill="white" stroke="black" points="276.5,-112.5 276.5,-142.5 387.5,-142.5 387.5,-112.5 276.5,-112.5"/>
<text text-anchor="start" x="284.5" y="-130.5" font-family="Helvetica,sans-Serif" font-size="10.00">include/cppgc/internal</text>
<text text-anchor="middle" x="332" y="-119.5" font-family="Helvetica,sans-Serif" font-size="10.00">/accessors.h</text>
</a>
</g>
</g>
<!-- Node1&#45;&gt;Node6 -->
<g id="edge6" class="edge">
<title>Node1&#45;&gt;Node6</title>
<path fill="none" stroke="midnightblue" d="M229.41,-175.13C252.13,-164.8 280.06,-152.11 301.03,-142.58"/>
<polygon fill="midnightblue" stroke="midnightblue" points="227.68,-172.07 220.03,-179.4 230.58,-178.44 227.68,-172.07"/>
</g>
<!-- Node2&#45;&gt;Node3 -->
<g id="edge2" class="edge">
<title>Node2&#45;&gt;Node3</title>
<path fill="none" stroke="midnightblue" d="M150.31,-108.08C127.61,-97.28 99.97,-84.12 82.19,-75.66"/>
<polygon fill="midnightblue" stroke="midnightblue" points="148.84,-111.26 159.38,-112.4 151.85,-104.94 148.84,-111.26"/>
</g>
<!-- Node4 -->
<g id="node4" class="node">
<title>Node4</title>
<g id="a_node4"><a xlink:href="visitor_8h.html" target="_top" xlink:title=" ">
<polygon fill="white" stroke="black" points="146.5,-56.5 146.5,-75.5 259.5,-75.5 259.5,-56.5 146.5,-56.5"/>
<text text-anchor="middle" x="203" y="-63.5" font-family="Helvetica,sans-Serif" font-size="10.00">include/cppgc/visitor.h</text>
</a>
</g>
</g>
<!-- Node2&#45;&gt;Node4 -->
<g id="edge3" class="edge">
<title>Node2&#45;&gt;Node4</title>
<path fill="none" stroke="midnightblue" d="M194.63,-102.59C196.86,-93.08 199.3,-82.73 200.96,-75.66"/>
<polygon fill="midnightblue" stroke="midnightblue" points="191.2,-101.86 192.32,-112.4 198.02,-103.47 191.2,-101.86"/>
</g>
<!-- Node5 -->
<g id="node5" class="node">
<title>Node5</title>
<g id="a_node5"><a xlink:href="persistent_8h.html" target="_top" xlink:title=" ">
<polygon fill="white" stroke="black" points="138,-0.5 138,-19.5 268,-19.5 268,-0.5 138,-0.5"/>
<text text-anchor="middle" x="203" y="-7.5" font-family="Helvetica,sans-Serif" font-size="10.00">include/cppgc/persistent.h</text>
</a>
</g>
</g>
<!-- Node4&#45;&gt;Node5 -->
<g id="edge4" class="edge">
<title>Node4&#45;&gt;Node5</title>
<path fill="none" stroke="midnightblue" d="M203,-45.8C203,-36.91 203,-26.78 203,-19.75"/>
<polygon fill="midnightblue" stroke="midnightblue" points="199.5,-46.08 203,-56.08 206.5,-46.08 199.5,-46.08"/>
</g>
<!-- Node7 -->
<g id="node7" class="node">
<title>Node7</title>
<g id="a_node7"><a xlink:href="prefinalizer_8h.html" target="_top" xlink:title=" ">
<polygon fill="white" stroke="black" points="277.5,-56.5 277.5,-75.5 410.5,-75.5 410.5,-56.5 277.5,-56.5"/>
<text text-anchor="middle" x="344" y="-63.5" font-family="Helvetica,sans-Serif" font-size="10.00">include/cppgc/prefinalizer.h</text>
</a>
</g>
</g>
<!-- Node6&#45;&gt;Node7 -->
<g id="edge7" class="edge">
<title>Node6&#45;&gt;Node7</title>
<path fill="none" stroke="midnightblue" d="M336.82,-102.59C338.74,-93.08 340.83,-82.73 342.25,-75.66"/>
<polygon fill="midnightblue" stroke="midnightblue" points="333.39,-101.9 334.84,-112.4 340.25,-103.29 333.39,-101.9"/>
</g>
</g>
</svg>
