<?xml version="1.0" encoding="UTF-8" standalone="no"?>
<!DOCTYPE svg PUBLIC "-//W3C//DTD SVG 1.1//EN"
 "http://www.w3.org/Graphics/SVG/1.1/DTD/svg11.dtd">
<!-- Generated by graphviz version 2.44.0 ()
 -->
<!-- Title: v8::PersistentValueMapBase::FromVal Pages: 1 -->
<svg width="337pt" height="230pt"
 viewBox="0.00 0.00 337.00 230.00" xmlns="http://www.w3.org/2000/svg" xmlns:xlink="http://www.w3.org/1999/xlink">
<g id="graph0" class="graph" transform="scale(1 1) rotate(0) translate(4 226)">
<title>v8::PersistentValueMapBase::FromVal</title>
<polygon fill="white" stroke="transparent" points="-4,4 -4,-226 333,-226 333,4 -4,4"/>
<!-- Node1 -->
<g id="node1" class="node">
<title>Node1</title>
<g id="a_node1"><a xlink:title=" ">
<polygon fill="#bfbfbf" stroke="black" points="187,-96 187,-126 329,-126 329,-96 187,-96"/>
<text text-anchor="start" x="195" y="-114" font-family="Helvetica,sans-Serif" font-size="10.00">v8::PersistentValueMapBase</text>
<text text-anchor="middle" x="258" y="-103" font-family="Helvetica,sans-Serif" font-size="10.00">::FromVal</text>
</a>
</g>
</g>
<!-- Node2 -->
<g id="node2" class="node">
<title>Node2</title>
<g id="a_node2"><a xlink:href="classv8_1_1PersistentValueMapBase.html#a16b8f906ea42036c2f37d44813bf2a72" target="_top" xlink:title=" ">
<polygon fill="white" stroke="black" points="0,-180.5 0,-221.5 151,-221.5 151,-180.5 0,-180.5"/>
<text text-anchor="start" x="8" y="-209.5" font-family="Helvetica,sans-Serif" font-size="10.00">v8::PersistentValueMapBase</text>
<text text-anchor="start" x="8" y="-198.5" font-family="Helvetica,sans-Serif" font-size="10.00">&lt; K, V, DefaultGlobalMapTraits</text>
<text text-anchor="middle" x="75.5" y="-187.5" font-family="Helvetica,sans-Serif" font-size="10.00">&lt; K, V &gt; &gt;::Get</text>
</a>
</g>
</g>
<!-- Node1&#45;&gt;Node2 -->
<g id="edge1" class="edge">
<title>Node1&#45;&gt;Node2</title>
<path fill="none" stroke="midnightblue" d="M223.97,-131.2C203.35,-143.42 176.06,-158.93 151,-171 144.34,-174.21 137.25,-177.37 130.18,-180.38"/>
<polygon fill="midnightblue" stroke="midnightblue" points="225.86,-134.14 232.65,-126.01 222.27,-128.13 225.86,-134.14"/>
</g>
<!-- Node3 -->
<g id="node3" class="node">
<title>Node3</title>
<g id="a_node3"><a xlink:href="classv8_1_1PersistentValueMapBase_1_1PersistentValueReference.html#ac59d20538e1986a423605b013f33e040" target="_top" xlink:title=" ">
<polygon fill="white" stroke="black" points="4.5,-120.5 4.5,-161.5 146.5,-161.5 146.5,-120.5 4.5,-120.5"/>
<text text-anchor="start" x="12.5" y="-149.5" font-family="Helvetica,sans-Serif" font-size="10.00">v8::PersistentValueMapBase</text>
<text text-anchor="start" x="12.5" y="-138.5" font-family="Helvetica,sans-Serif" font-size="10.00">::PersistentValueReference</text>
<text text-anchor="middle" x="75.5" y="-127.5" font-family="Helvetica,sans-Serif" font-size="10.00">::NewLocal</text>
</a>
</g>
</g>
<!-- Node1&#45;&gt;Node3 -->
<g id="edge2" class="edge">
<title>Node1&#45;&gt;Node3</title>
<path fill="none" stroke="midnightblue" d="M176.9,-124.31C166.77,-126 156.46,-127.71 146.5,-129.36"/>
<polygon fill="midnightblue" stroke="midnightblue" points="177.66,-127.73 186.96,-122.64 176.52,-120.83 177.66,-127.73"/>
</g>
<!-- Node4 -->
<g id="node4" class="node">
<title>Node4</title>
<g id="a_node4"><a xlink:href="classv8_1_1PersistentValueMapBase.html#a9ffa7a4e0c59121c0471d71c04112966" target="_top" xlink:title=" ">
<polygon fill="white" stroke="black" points="0,-60.5 0,-101.5 151,-101.5 151,-60.5 0,-60.5"/>
<text text-anchor="start" x="8" y="-89.5" font-family="Helvetica,sans-Serif" font-size="10.00">v8::PersistentValueMapBase</text>
<text text-anchor="start" x="8" y="-78.5" font-family="Helvetica,sans-Serif" font-size="10.00">&lt; K, V, DefaultGlobalMapTraits</text>
<text text-anchor="middle" x="75.5" y="-67.5" font-family="Helvetica,sans-Serif" font-size="10.00">&lt; K, V &gt; &gt;::Release</text>
</a>
</g>
</g>
<!-- Node1&#45;&gt;Node4 -->
<g id="edge3" class="edge">
<title>Node1&#45;&gt;Node4</title>
<path fill="none" stroke="midnightblue" d="M176.99,-97.7C168.45,-96.28 159.77,-94.84 151.29,-93.43"/>
<polygon fill="midnightblue" stroke="midnightblue" points="176.52,-101.17 186.96,-99.36 177.66,-94.27 176.52,-101.17"/>
</g>
<!-- Node5 -->
<g id="node5" class="node">
<title>Node5</title>
<g id="a_node5"><a xlink:href="classv8_1_1PersistentValueMapBase.html#a5c16ace49c257f760c92a010a93b4884" target="_top" xlink:title=" ">
<polygon fill="white" stroke="black" points="0,-0.5 0,-41.5 151,-41.5 151,-0.5 0,-0.5"/>
<text text-anchor="start" x="8" y="-29.5" font-family="Helvetica,sans-Serif" font-size="10.00">v8::PersistentValueMapBase</text>
<text text-anchor="start" x="8" y="-18.5" font-family="Helvetica,sans-Serif" font-size="10.00">&lt; K, V, DefaultGlobalMapTraits</text>
<text text-anchor="middle" x="75.5" y="-7.5" font-family="Helvetica,sans-Serif" font-size="10.00">&lt; K, V &gt; &gt;::RemoveWeak</text>
</a>
</g>
</g>
<!-- Node1&#45;&gt;Node5 -->
<g id="edge4" class="edge">
<title>Node1&#45;&gt;Node5</title>
<path fill="none" stroke="midnightblue" d="M223.97,-90.8C203.35,-78.58 176.06,-63.07 151,-51 144.34,-47.79 137.25,-44.63 130.18,-41.62"/>
<polygon fill="midnightblue" stroke="midnightblue" points="222.27,-93.87 232.65,-95.99 225.86,-87.86 222.27,-93.87"/>
</g>
</g>
</svg>
