<?xml version="1.0" encoding="UTF-8" standalone="no"?>
<!DOCTYPE svg PUBLIC "-//W3C//DTD SVG 1.1//EN"
 "http://www.w3.org/Graphics/SVG/1.1/DTD/svg11.dtd">
<!-- Generated by graphviz version 2.44.0 ()
 -->
<!-- Title: cppgc::internal::BasicMember::Release Pages: 1 -->
<svg width="351pt" height="78pt"
 viewBox="0.00 0.00 351.00 77.50" xmlns="http://www.w3.org/2000/svg" xmlns:xlink="http://www.w3.org/1999/xlink">
<g id="graph0" class="graph" transform="scale(1 1) rotate(0) translate(4 73.5)">
<title>cppgc::internal::BasicMember::Release</title>
<polygon fill="white" stroke="transparent" points="-4,4 -4,-73.5 347,-73.5 347,4 -4,4"/>
<!-- Node1 -->
<g id="node1" class="node">
<title>Node1</title>
<g id="a_node1"><a xlink:title=" ">
<polygon fill="#bfbfbf" stroke="black" points="0,-17 0,-47 143,-47 143,-17 0,-17"/>
<text text-anchor="start" x="8" y="-35" font-family="Helvetica,sans-Serif" font-size="10.00">cppgc::internal::BasicMember</text>
<text text-anchor="middle" x="71.5" y="-24" font-family="Helvetica,sans-Serif" font-size="10.00">::Release</text>
</a>
</g>
</g>
<!-- Node2 -->
<g id="node2" class="node">
<title>Node2</title>
<g id="a_node2"><a xlink:href="classcppgc_1_1internal_1_1BasicMember.html#acb8e821f1981261acea2189371c0441f" target="_top" xlink:title=" ">
<polygon fill="white" stroke="black" points="189.5,-39 189.5,-69 332.5,-69 332.5,-39 189.5,-39"/>
<text text-anchor="start" x="197.5" y="-57" font-family="Helvetica,sans-Serif" font-size="10.00">cppgc::internal::BasicMember</text>
<text text-anchor="middle" x="261" y="-46" font-family="Helvetica,sans-Serif" font-size="10.00">::Clear</text>
</a>
</g>
</g>
<!-- Node1&#45;&gt;Node2 -->
<g id="edge1" class="edge">
<title>Node1&#45;&gt;Node2</title>
<path fill="none" stroke="midnightblue" d="M143.12,-40.29C154.96,-41.68 167.33,-43.13 179.39,-44.54"/>
<polygon fill="midnightblue" stroke="midnightblue" points="179.11,-48.03 189.45,-45.72 179.92,-41.08 179.11,-48.03"/>
</g>
<!-- Node3 -->
<g id="node3" class="node">
<title>Node3</title>
<g id="a_node3"><a xlink:href="classcppgc_1_1internal_1_1BasicMember.html#ad625f200ada8426aec2277c7435b58c8" target="_top" xlink:title=" ">
<polygon fill="white" stroke="black" points="179,-0.5 179,-19.5 343,-19.5 343,-0.5 179,-0.5"/>
<text text-anchor="middle" x="261" y="-7.5" font-family="Helvetica,sans-Serif" font-size="10.00">cppgc::internal::BasicMember::Get</text>
</a>
</g>
</g>
<!-- Node1&#45;&gt;Node3 -->
<g id="edge2" class="edge">
<title>Node1&#45;&gt;Node3</title>
<path fill="none" stroke="midnightblue" d="M143.12,-23.71C151.48,-22.73 160.09,-21.72 168.68,-20.71"/>
<polygon fill="midnightblue" stroke="midnightblue" points="169.22,-24.18 178.74,-19.53 168.4,-17.22 169.22,-24.18"/>
</g>
</g>
</svg>
