<?xml version="1.0" encoding="UTF-8" standalone="no"?>
<!DOCTYPE svg PUBLIC "-//W3C//DTD SVG 1.1//EN"
 "http://www.w3.org/Graphics/SVG/1.1/DTD/svg11.dtd">
<!-- Generated by graphviz version 2.44.0 ()
 -->
<!-- Title: cppgc::internal::BasicMember::Get Pages: 1 -->
<svg width="351pt" height="382pt"
 viewBox="0.00 0.00 351.00 382.00" xmlns="http://www.w3.org/2000/svg" xmlns:xlink="http://www.w3.org/1999/xlink">
<g id="graph0" class="graph" transform="scale(1 1) rotate(0) translate(4 378)">
<title>cppgc::internal::BasicMember::Get</title>
<polygon fill="white" stroke="transparent" points="-4,4 -4,-378 347,-378 347,4 -4,4"/>
<!-- Node1 -->
<g id="node1" class="node">
<title>Node1</title>
<g id="a_node1"><a xlink:title=" ">
<polygon fill="#bfbfbf" stroke="black" points="179,-177 179,-196 343,-196 343,-177 179,-177"/>
<text text-anchor="middle" x="261" y="-184" font-family="Helvetica,sans-Serif" font-size="10.00">cppgc::internal::BasicMember::Get</text>
</a>
</g>
</g>
<!-- Node2 -->
<g id="node2" class="node">
<title>Node2</title>
<g id="a_node2"><a xlink:href="classcppgc_1_1LivenessBroker.html#a6d6b9f3609e18ef58d5caf93a3f3f95f" target="_top" xlink:title=" ">
<polygon fill="white" stroke="black" points="13.5,-343.5 13.5,-373.5 129.5,-373.5 129.5,-343.5 13.5,-343.5"/>
<text text-anchor="start" x="21.5" y="-361.5" font-family="Helvetica,sans-Serif" font-size="10.00">cppgc::LivenessBroker</text>
<text text-anchor="middle" x="71.5" y="-350.5" font-family="Helvetica,sans-Serif" font-size="10.00">::IsHeapObjectAlive</text>
</a>
</g>
</g>
<!-- Node1&#45;&gt;Node2 -->
<g id="edge1" class="edge">
<title>Node1&#45;&gt;Node2</title>
<path fill="none" stroke="midnightblue" d="M250.18,-204.91C232.69,-236.02 193.21,-299.03 143,-334.5 138.14,-337.93 132.75,-340.9 127.18,-343.47"/>
<polygon fill="midnightblue" stroke="midnightblue" points="253.32,-206.46 255.07,-196.01 247.19,-203.09 253.32,-206.46"/>
</g>
<!-- Node3 -->
<g id="node3" class="node">
<title>Node3</title>
<g id="a_node3"><a xlink:href="classcppgc_1_1internal_1_1BasicMember.html#aa11d97f26b6d1076c5d38d3cd7aa3642" target="_top" xlink:title=" ">
<polygon fill="white" stroke="black" points="0,-294.5 0,-324.5 143,-324.5 143,-294.5 0,-294.5"/>
<text text-anchor="start" x="8" y="-312.5" font-family="Helvetica,sans-Serif" font-size="10.00">cppgc::internal::BasicMember</text>
<text text-anchor="middle" x="71.5" y="-301.5" font-family="Helvetica,sans-Serif" font-size="10.00">::operator bool</text>
</a>
</g>
</g>
<!-- Node1&#45;&gt;Node3 -->
<g id="edge2" class="edge">
<title>Node1&#45;&gt;Node3</title>
<path fill="none" stroke="midnightblue" d="M244,-203.52C222.77,-225.24 183.24,-262.72 143,-285.5 137.15,-288.81 130.77,-291.77 124.31,-294.38"/>
<polygon fill="midnightblue" stroke="midnightblue" points="246.8,-205.66 251.21,-196.03 241.75,-200.81 246.8,-205.66"/>
</g>
<!-- Node4 -->
<g id="node4" class="node">
<title>Node4</title>
<g id="a_node4"><a xlink:href="classcppgc_1_1internal_1_1BasicMember.html#ad581b62049b232e53bd60812295b9e89" target="_top" xlink:title=" ">
<polygon fill="white" stroke="black" points="0,-245.5 0,-275.5 143,-275.5 143,-245.5 0,-245.5"/>
<text text-anchor="start" x="8" y="-263.5" font-family="Helvetica,sans-Serif" font-size="10.00">cppgc::internal::BasicMember</text>
<text text-anchor="middle" x="71.5" y="-252.5" font-family="Helvetica,sans-Serif" font-size="10.00">::operator T*</text>
</a>
</g>
</g>
<!-- Node1&#45;&gt;Node4 -->
<g id="edge3" class="edge">
<title>Node1&#45;&gt;Node4</title>
<path fill="none" stroke="midnightblue" d="M229.65,-200.22C206.18,-210.64 172.78,-225.09 143,-236.5 135.15,-239.51 126.75,-242.54 118.57,-245.38"/>
<polygon fill="midnightblue" stroke="midnightblue" points="231.36,-203.29 239.06,-196.02 228.5,-196.9 231.36,-203.29"/>
</g>
<!-- Node5 -->
<g id="node5" class="node">
<title>Node5</title>
<g id="a_node5"><a xlink:href="classcppgc_1_1internal_1_1BasicMember.html#a2ffdbed44f32dbe4b4a37c81bc0d319a" target="_top" xlink:title=" ">
<polygon fill="white" stroke="black" points="0,-196.5 0,-226.5 143,-226.5 143,-196.5 0,-196.5"/>
<text text-anchor="start" x="8" y="-214.5" font-family="Helvetica,sans-Serif" font-size="10.00">cppgc::internal::BasicMember</text>
<text text-anchor="middle" x="71.5" y="-203.5" font-family="Helvetica,sans-Serif" font-size="10.00">::operator*</text>
</a>
</g>
</g>
<!-- Node1&#45;&gt;Node5 -->
<g id="edge4" class="edge">
<title>Node1&#45;&gt;Node5</title>
<path fill="none" stroke="midnightblue" d="M178.35,-197.39C166.6,-198.95 154.61,-200.55 143.1,-202.09"/>
<polygon fill="midnightblue" stroke="midnightblue" points="179.13,-200.81 188.58,-196.02 178.2,-193.88 179.13,-200.81"/>
</g>
<!-- Node6 -->
<g id="node6" class="node">
<title>Node6</title>
<g id="a_node6"><a xlink:href="classcppgc_1_1internal_1_1BasicMember.html#aaf8e4f3c0185a764e3da679e901ee4d2" target="_top" xlink:title=" ">
<polygon fill="white" stroke="black" points="0,-147.5 0,-177.5 143,-177.5 143,-147.5 0,-147.5"/>
<text text-anchor="start" x="8" y="-165.5" font-family="Helvetica,sans-Serif" font-size="10.00">cppgc::internal::BasicMember</text>
<text text-anchor="middle" x="71.5" y="-154.5" font-family="Helvetica,sans-Serif" font-size="10.00">::operator&#45;&gt;</text>
</a>
</g>
</g>
<!-- Node1&#45;&gt;Node6 -->
<g id="edge5" class="edge">
<title>Node1&#45;&gt;Node6</title>
<path fill="none" stroke="midnightblue" d="M175.69,-175.71C164.81,-174.32 153.75,-172.9 143.12,-171.54"/>
<polygon fill="midnightblue" stroke="midnightblue" points="175.26,-179.18 185.63,-176.98 176.15,-172.24 175.26,-179.18"/>
</g>
<!-- Node7 -->
<g id="node7" class="node">
<title>Node7</title>
<g id="a_node7"><a xlink:href="classcppgc_1_1internal_1_1BasicMember.html#af37b4bc0e96e5bbc2e646f6f5da31308" target="_top" xlink:title=" ">
<polygon fill="white" stroke="black" points="0,-98.5 0,-128.5 143,-128.5 143,-98.5 0,-98.5"/>
<text text-anchor="start" x="8" y="-116.5" font-family="Helvetica,sans-Serif" font-size="10.00">cppgc::internal::BasicMember</text>
<text text-anchor="middle" x="71.5" y="-105.5" font-family="Helvetica,sans-Serif" font-size="10.00">::operator=</text>
</a>
</g>
</g>
<!-- Node1&#45;&gt;Node7 -->
<g id="edge6" class="edge">
<title>Node1&#45;&gt;Node7</title>
<path fill="none" stroke="midnightblue" d="M228.26,-172.99C204.82,-163.13 172.07,-149.61 143,-138.5 134.27,-135.16 124.87,-131.72 115.87,-128.51"/>
<polygon fill="midnightblue" stroke="midnightblue" points="227.12,-176.31 237.7,-176.97 229.85,-169.86 227.12,-176.31"/>
</g>
<!-- Node8 -->
<g id="node8" class="node">
<title>Node8</title>
<g id="a_node8"><a xlink:href="classcppgc_1_1internal_1_1BasicMember.html#a63971bb466d9d4a4cf28346f9827d852" target="_top" xlink:title=" ">
<polygon fill="white" stroke="black" points="0,-49.5 0,-79.5 143,-79.5 143,-49.5 0,-49.5"/>
<text text-anchor="start" x="8" y="-67.5" font-family="Helvetica,sans-Serif" font-size="10.00">cppgc::internal::BasicMember</text>
<text text-anchor="middle" x="71.5" y="-56.5" font-family="Helvetica,sans-Serif" font-size="10.00">::Release</text>
</a>
</g>
</g>
<!-- Node1&#45;&gt;Node8 -->
<g id="edge7" class="edge">
<title>Node1&#45;&gt;Node8</title>
<path fill="none" stroke="midnightblue" d="M243.56,-169.6C222.13,-148.38 182.67,-112.03 143,-89.5 136.45,-85.78 129.25,-82.46 122.03,-79.56"/>
<polygon fill="midnightblue" stroke="midnightblue" points="241.32,-172.31 250.86,-176.93 246.29,-167.37 241.32,-172.31"/>
</g>
<!-- Node9 -->
<g id="node9" class="node">
<title>Node9</title>
<g id="a_node9"><a xlink:href="classcppgc_1_1internal_1_1BasicMember.html#a3c3517914f2c32b5e0375915d4cf843f" target="_top" xlink:title=" ">
<polygon fill="white" stroke="black" points="0,-0.5 0,-30.5 143,-30.5 143,-0.5 0,-0.5"/>
<text text-anchor="start" x="8" y="-18.5" font-family="Helvetica,sans-Serif" font-size="10.00">cppgc::internal::BasicMember</text>
<text text-anchor="middle" x="71.5" y="-7.5" font-family="Helvetica,sans-Serif" font-size="10.00">::Swap</text>
</a>
</g>
</g>
<!-- Node1&#45;&gt;Node9 -->
<g id="edge8" class="edge">
<title>Node1&#45;&gt;Node9</title>
<path fill="none" stroke="midnightblue" d="M249.81,-167.96C232.03,-137.23 192.45,-75.65 143,-40.5 137.6,-36.66 131.56,-33.36 125.34,-30.54"/>
<polygon fill="midnightblue" stroke="midnightblue" points="246.83,-169.81 254.8,-176.78 252.92,-166.36 246.83,-169.81"/>
</g>
</g>
</svg>
