<?xml version="1.0" encoding="UTF-8" standalone="no"?>
<!DOCTYPE svg PUBLIC "-//W3C//DTD SVG 1.1//EN"
 "http://www.w3.org/Graphics/SVG/1.1/DTD/svg11.dtd">
<!-- Generated by graphviz version 2.44.0 ()
 -->
<!-- Title: v8::Platform::CallOnWorkerThread Pages: 1 -->
<svg width="315pt" height="88pt"
 viewBox="0.00 0.00 315.00 88.00" xmlns="http://www.w3.org/2000/svg" xmlns:xlink="http://www.w3.org/1999/xlink">
<g id="graph0" class="graph" transform="scale(1 1) rotate(0) translate(4 84)">
<title>v8::Platform::CallOnWorkerThread</title>
<polygon fill="white" stroke="transparent" points="-4,4 -4,-84 311,-84 311,4 -4,4"/>
<!-- Node1 -->
<g id="node1" class="node">
<title>Node1</title>
<g id="a_node1"><a xlink:title=" ">
<polygon fill="#bfbfbf" stroke="black" points="174,-24.5 174,-54.5 307,-54.5 307,-24.5 174,-24.5"/>
<text text-anchor="start" x="182" y="-42.5" font-family="Helvetica,sans-Serif" font-size="10.00">v8::Platform::CallOnWorker</text>
<text text-anchor="middle" x="240.5" y="-31.5" font-family="Helvetica,sans-Serif" font-size="10.00">Thread</text>
</a>
</g>
</g>
<!-- Node2 -->
<g id="node2" class="node">
<title>Node2</title>
<g id="a_node2"><a xlink:href="classv8_1_1Platform.html#ada31b440048763bf8d9c296ca4cf2e1b" target="_top" xlink:title=" ">
<polygon fill="white" stroke="black" points="5.5,-49.5 5.5,-79.5 132.5,-79.5 132.5,-49.5 5.5,-49.5"/>
<text text-anchor="start" x="13.5" y="-67.5" font-family="Helvetica,sans-Serif" font-size="10.00">v8::Platform::CallBlocking</text>
<text text-anchor="middle" x="69" y="-56.5" font-family="Helvetica,sans-Serif" font-size="10.00">TaskOnWorkerThread</text>
</a>
</g>
</g>
<!-- Node1&#45;&gt;Node2 -->
<g id="edge1" class="edge">
<title>Node1&#45;&gt;Node2</title>
<path fill="none" stroke="midnightblue" d="M163.98,-50.64C153.49,-52.19 142.8,-53.76 132.58,-55.27"/>
<polygon fill="midnightblue" stroke="midnightblue" points="164.58,-54.09 173.97,-49.17 163.56,-47.16 164.58,-54.09"/>
</g>
<!-- Node3 -->
<g id="node3" class="node">
<title>Node3</title>
<g id="a_node3"><a xlink:href="classv8_1_1Platform.html#a2d5ca00e3afed0e4980a22c8f59d2edd" target="_top" xlink:title=" ">
<polygon fill="white" stroke="black" points="0,-0.5 0,-30.5 138,-30.5 138,-0.5 0,-0.5"/>
<text text-anchor="start" x="8" y="-18.5" font-family="Helvetica,sans-Serif" font-size="10.00">v8::Platform::CallLowPriority</text>
<text text-anchor="middle" x="69" y="-7.5" font-family="Helvetica,sans-Serif" font-size="10.00">TaskOnWorkerThread</text>
</a>
</g>
</g>
<!-- Node1&#45;&gt;Node3 -->
<g id="edge2" class="edge">
<title>Node1&#45;&gt;Node3</title>
<path fill="none" stroke="midnightblue" d="M163.96,-28.8C155.37,-27.59 146.65,-26.35 138.16,-25.15"/>
<polygon fill="midnightblue" stroke="midnightblue" points="163.57,-32.28 173.97,-30.22 164.56,-25.35 163.57,-32.28"/>
</g>
</g>
</svg>
