<?xml version="1.0" encoding="UTF-8" standalone="no"?>
<!DOCTYPE svg PUBLIC "-//W3C//DTD SVG 1.1//EN"
 "http://www.w3.org/Graphics/SVG/1.1/DTD/svg11.dtd">
<!-- Generated by graphviz version 2.44.0 ()
 -->
<!-- Title: v8::Data Pages: 1 -->
<svg width="774pt" height="883pt"
 viewBox="0.00 0.00 774.00 883.00" xmlns="http://www.w3.org/2000/svg" xmlns:xlink="http://www.w3.org/1999/xlink">
<g id="graph0" class="graph" transform="scale(1 1) rotate(0) translate(4 879)">
<title>v8::Data</title>
<polygon fill="white" stroke="transparent" points="-4,4 -4,-879 770,-879 770,4 -4,4"/>
<!-- Node1 -->
<g id="node1" class="node">
<title>Node1</title>
<g id="a_node1"><a xlink:title=" ">
<polygon fill="#bfbfbf" stroke="black" points="0,-570.5 0,-589.5 52,-589.5 52,-570.5 0,-570.5"/>
<text text-anchor="middle" x="26" y="-577.5" font-family="Helvetica,sans-Serif" font-size="10.00">v8::Data</text>
</a>
</g>
</g>
<!-- Node2 -->
<g id="node2" class="node">
<title>Node2</title>
<g id="a_node2"><a xlink:href="classv8_1_1AccessorSignature.html" target="_top" xlink:title=" ">
<polygon fill="white" stroke="black" points="95,-684.5 95,-703.5 209,-703.5 209,-684.5 95,-684.5"/>
<text text-anchor="middle" x="152" y="-691.5" font-family="Helvetica,sans-Serif" font-size="10.00">v8::AccessorSignature</text>
</a>
</g>
</g>
<!-- Node1&#45;&gt;Node2 -->
<g id="edge1" class="edge">
<title>Node1&#45;&gt;Node2</title>
<path fill="none" stroke="midnightblue" d="M34.42,-599.09C43.75,-620.62 61.78,-655.21 88,-675 93.11,-678.85 98.99,-681.93 105.08,-684.39"/>
<polygon fill="midnightblue" stroke="midnightblue" points="37.59,-597.6 30.54,-589.69 31.12,-600.27 37.59,-597.6"/>
</g>
<!-- Node3 -->
<g id="node3" class="node">
<title>Node3</title>
<g id="a_node3"><a xlink:href="classv8_1_1Module.html" target="_top" xlink:title=" ">
<polygon fill="white" stroke="black" points="120.5,-646.5 120.5,-665.5 183.5,-665.5 183.5,-646.5 120.5,-646.5"/>
<text text-anchor="middle" x="152" y="-653.5" font-family="Helvetica,sans-Serif" font-size="10.00">v8::Module</text>
</a>
</g>
</g>
<!-- Node1&#45;&gt;Node3 -->
<g id="edge2" class="edge">
<title>Node1&#45;&gt;Node3</title>
<path fill="none" stroke="midnightblue" d="M41.73,-597.54C53.17,-610.15 70.07,-626.68 88,-637 97.9,-642.7 109.68,-646.84 120.36,-649.78"/>
<polygon fill="midnightblue" stroke="midnightblue" points="44.27,-595.13 35.04,-589.93 39.01,-599.75 44.27,-595.13"/>
</g>
<!-- Node4 -->
<g id="node4" class="node">
<title>Node4</title>
<g id="a_node4"><a xlink:href="classv8_1_1Private.html" target="_top" xlink:title=" ">
<polygon fill="white" stroke="black" points="121,-608.5 121,-627.5 183,-627.5 183,-608.5 121,-608.5"/>
<text text-anchor="middle" x="152" y="-615.5" font-family="Helvetica,sans-Serif" font-size="10.00">v8::Private</text>
</a>
</g>
</g>
<!-- Node1&#45;&gt;Node4 -->
<g id="edge3" class="edge">
<title>Node1&#45;&gt;Node4</title>
<path fill="none" stroke="midnightblue" d="M61.89,-590.93C70.43,-593.58 79.54,-596.41 88,-599 98.7,-602.28 110.45,-605.83 120.86,-608.97"/>
<polygon fill="midnightblue" stroke="midnightblue" points="62.8,-587.54 52.21,-587.91 60.72,-594.23 62.8,-587.54"/>
</g>
<!-- Node5 -->
<g id="node5" class="node">
<title>Node5</title>
<g id="a_node5"><a xlink:href="classv8_1_1Signature.html" target="_top" xlink:title=" ">
<polygon fill="white" stroke="black" points="115.5,-570.5 115.5,-589.5 188.5,-589.5 188.5,-570.5 115.5,-570.5"/>
<text text-anchor="middle" x="152" y="-577.5" font-family="Helvetica,sans-Serif" font-size="10.00">v8::Signature</text>
</a>
</g>
</g>
<!-- Node1&#45;&gt;Node5 -->
<g id="edge4" class="edge">
<title>Node1&#45;&gt;Node5</title>
<path fill="none" stroke="midnightblue" d="M62.43,-580C78.95,-580 98.57,-580 115.13,-580"/>
<polygon fill="midnightblue" stroke="midnightblue" points="62.09,-576.5 52.09,-580 62.09,-583.5 62.09,-576.5"/>
</g>
<!-- Node6 -->
<g id="node6" class="node">
<title>Node6</title>
<g id="a_node6"><a xlink:href="classv8_1_1Template.html" target="_top" xlink:title=" ">
<polygon fill="white" stroke="black" points="116,-532.5 116,-551.5 188,-551.5 188,-532.5 116,-532.5"/>
<text text-anchor="middle" x="152" y="-539.5" font-family="Helvetica,sans-Serif" font-size="10.00">v8::Template</text>
</a>
</g>
</g>
<!-- Node1&#45;&gt;Node6 -->
<g id="edge5" class="edge">
<title>Node1&#45;&gt;Node6</title>
<path fill="none" stroke="midnightblue" d="M61.89,-569.07C70.43,-566.42 79.54,-563.59 88,-561 98.16,-557.89 109.25,-554.53 119.26,-551.51"/>
<polygon fill="midnightblue" stroke="midnightblue" points="60.72,-565.77 52.21,-572.09 62.8,-572.46 60.72,-565.77"/>
</g>
<!-- Node9 -->
<g id="node9" class="node">
<title>Node9</title>
<g id="a_node9"><a xlink:href="classv8_1_1UnboundModuleScript.html" target="_top" xlink:title=" ">
<polygon fill="white" stroke="black" points="88,-494.5 88,-513.5 216,-513.5 216,-494.5 88,-494.5"/>
<text text-anchor="middle" x="152" y="-501.5" font-family="Helvetica,sans-Serif" font-size="10.00">v8::UnboundModuleScript</text>
</a>
</g>
</g>
<!-- Node1&#45;&gt;Node9 -->
<g id="edge8" class="edge">
<title>Node1&#45;&gt;Node9</title>
<path fill="none" stroke="midnightblue" d="M41.73,-562.46C53.17,-549.85 70.07,-533.32 88,-523 94.63,-519.18 102.11,-516.06 109.53,-513.53"/>
<polygon fill="midnightblue" stroke="midnightblue" points="39.01,-560.25 35.04,-570.07 44.27,-564.87 39.01,-560.25"/>
</g>
<!-- Node10 -->
<g id="node10" class="node">
<title>Node10</title>
<g id="a_node10"><a xlink:href="classv8_1_1Value.html" target="_top" xlink:title=" ">
<polygon fill="white" stroke="black" points="124,-456.5 124,-475.5 180,-475.5 180,-456.5 124,-456.5"/>
<text text-anchor="middle" x="152" y="-463.5" font-family="Helvetica,sans-Serif" font-size="10.00">v8::Value</text>
</a>
</g>
</g>
<!-- Node1&#45;&gt;Node10 -->
<g id="edge9" class="edge">
<title>Node1&#45;&gt;Node10</title>
<path fill="none" stroke="midnightblue" d="M34.42,-560.91C43.75,-539.38 61.78,-504.79 88,-485 98.4,-477.16 112.03,-472.53 123.95,-469.81"/>
<polygon fill="midnightblue" stroke="midnightblue" points="31.12,-559.73 30.54,-570.31 37.59,-562.4 31.12,-559.73"/>
</g>
<!-- Node7 -->
<g id="node7" class="node">
<title>Node7</title>
<g id="a_node7"><a xlink:href="classv8_1_1FunctionTemplate.html" target="_top" xlink:title=" ">
<polygon fill="white" stroke="black" points="252,-570.5 252,-589.5 362,-589.5 362,-570.5 252,-570.5"/>
<text text-anchor="middle" x="307" y="-577.5" font-family="Helvetica,sans-Serif" font-size="10.00">v8::FunctionTemplate</text>
</a>
</g>
</g>
<!-- Node6&#45;&gt;Node7 -->
<g id="edge6" class="edge">
<title>Node6&#45;&gt;Node7</title>
<path fill="none" stroke="midnightblue" d="M197.93,-553.16C220.04,-558.65 246.41,-565.2 267.57,-570.46"/>
<polygon fill="midnightblue" stroke="midnightblue" points="198.65,-549.73 188.1,-550.72 196.96,-556.53 198.65,-549.73"/>
</g>
<!-- Node8 -->
<g id="node8" class="node">
<title>Node8</title>
<g id="a_node8"><a xlink:href="classv8_1_1ObjectTemplate.html" target="_top" xlink:title=" ">
<polygon fill="white" stroke="black" points="256.5,-532.5 256.5,-551.5 357.5,-551.5 357.5,-532.5 256.5,-532.5"/>
<text text-anchor="middle" x="307" y="-539.5" font-family="Helvetica,sans-Serif" font-size="10.00">v8::ObjectTemplate</text>
</a>
</g>
</g>
<!-- Node6&#45;&gt;Node8 -->
<g id="edge7" class="edge">
<title>Node6&#45;&gt;Node8</title>
<path fill="none" stroke="midnightblue" d="M198.2,-542C216.45,-542 237.59,-542 256.28,-542"/>
<polygon fill="midnightblue" stroke="midnightblue" points="198.1,-538.5 188.1,-542 198.1,-545.5 198.1,-538.5"/>
</g>
<!-- Node11 -->
<g id="node11" class="node">
<title>Node11</title>
<g id="a_node11"><a xlink:href="classv8_1_1External.html" target="_top" xlink:title=" ">
<polygon fill="white" stroke="black" points="274,-494.5 274,-513.5 340,-513.5 340,-494.5 274,-494.5"/>
<text text-anchor="middle" x="307" y="-501.5" font-family="Helvetica,sans-Serif" font-size="10.00">v8::External</text>
</a>
</g>
</g>
<!-- Node10&#45;&gt;Node11 -->
<g id="edge10" class="edge">
<title>Node10&#45;&gt;Node11</title>
<path fill="none" stroke="midnightblue" d="M189.75,-475.13C215.43,-481.51 249.39,-489.94 273.97,-496.05"/>
<polygon fill="midnightblue" stroke="midnightblue" points="190.55,-471.72 180,-472.71 188.86,-478.51 190.55,-471.72"/>
</g>
<!-- Node12 -->
<g id="node12" class="node">
<title>Node12</title>
<g id="a_node12"><a xlink:href="classv8_1_1Object.html" target="_top" xlink:title=" ">
<polygon fill="white" stroke="black" points="277,-456.5 277,-475.5 337,-475.5 337,-456.5 277,-456.5"/>
<text text-anchor="middle" x="307" y="-463.5" font-family="Helvetica,sans-Serif" font-size="10.00">v8::Object</text>
</a>
</g>
</g>
<!-- Node10&#45;&gt;Node12 -->
<g id="edge11" class="edge">
<title>Node10&#45;&gt;Node12</title>
<path fill="none" stroke="midnightblue" d="M190.12,-466C216.81,-466 252.29,-466 276.93,-466"/>
<polygon fill="midnightblue" stroke="midnightblue" points="190,-462.5 180,-466 190,-469.5 190,-462.5"/>
</g>
<!-- Node44 -->
<g id="node42" class="node">
<title>Node44</title>
<g id="a_node42"><a xlink:href="classv8_1_1Primitive.html" target="_top" xlink:title=" ">
<polygon fill="white" stroke="black" points="272,-76.5 272,-95.5 342,-95.5 342,-76.5 272,-76.5"/>
<text text-anchor="middle" x="307" y="-83.5" font-family="Helvetica,sans-Serif" font-size="10.00">v8::Primitive</text>
</a>
</g>
</g>
<!-- Node10&#45;&gt;Node44 -->
<g id="edge41" class="edge">
<title>Node10&#45;&gt;Node44</title>
<path fill="none" stroke="midnightblue" d="M160.8,-446.62C188.55,-377.71 281.82,-146.06 302.09,-95.71"/>
<polygon fill="midnightblue" stroke="midnightblue" points="157.42,-445.64 156.94,-456.22 163.92,-448.26 157.42,-445.64"/>
</g>
<!-- Node13 -->
<g id="node13" class="node">
<title>Node13</title>
<g id="a_node13"><a xlink:href="classv8_1_1Array.html" target="_top" xlink:title=" ">
<polygon fill="white" stroke="black" points="430.5,-798.5 430.5,-817.5 484.5,-817.5 484.5,-798.5 430.5,-798.5"/>
<text text-anchor="middle" x="457.5" y="-805.5" font-family="Helvetica,sans-Serif" font-size="10.00">v8::Array</text>
</a>
</g>
</g>
<!-- Node12&#45;&gt;Node13 -->
<g id="edge12" class="edge">
<title>Node12&#45;&gt;Node13</title>
<path fill="none" stroke="midnightblue" d="M346.59,-473.53C352.5,-476.25 357.96,-479.96 362,-485 447.04,-591.2 311.68,-683.84 398,-789 405.93,-798.66 418.83,-803.46 430.5,-805.82"/>
<polygon fill="midnightblue" stroke="midnightblue" points="347.67,-470.2 337.08,-470.01 345.24,-476.76 347.67,-470.2"/>
</g>
<!-- Node14 -->
<g id="node14" class="node">
<title>Node14</title>
<g id="a_node14"><a xlink:href="classv8_1_1ArrayBuffer.html" target="_top" xlink:title=" ">
<polygon fill="white" stroke="black" points="417.5,-760.5 417.5,-779.5 497.5,-779.5 497.5,-760.5 417.5,-760.5"/>
<text text-anchor="middle" x="457.5" y="-767.5" font-family="Helvetica,sans-Serif" font-size="10.00">v8::ArrayBuffer</text>
</a>
</g>
</g>
<!-- Node12&#45;&gt;Node14 -->
<g id="edge13" class="edge">
<title>Node12&#45;&gt;Node14</title>
<path fill="none" stroke="midnightblue" d="M346.52,-473.59C352.44,-476.3 357.92,-479.99 362,-485 437.34,-577.5 321.54,-659.42 398,-751 403,-756.98 409.9,-761.1 417.22,-763.93"/>
<polygon fill="midnightblue" stroke="midnightblue" points="347.6,-470.25 337.01,-470.07 345.17,-476.82 347.6,-470.25"/>
</g>
<!-- Node15 -->
<g id="node15" class="node">
<title>Node15</title>
<g id="a_node15"><a xlink:href="classv8_1_1ArrayBufferView.html" target="_top" xlink:title=" ">
<polygon fill="white" stroke="black" points="407,-722.5 407,-741.5 508,-741.5 508,-722.5 407,-722.5"/>
<text text-anchor="middle" x="457.5" y="-729.5" font-family="Helvetica,sans-Serif" font-size="10.00">v8::ArrayBufferView</text>
</a>
</g>
</g>
<!-- Node12&#45;&gt;Node15 -->
<g id="edge14" class="edge">
<title>Node12&#45;&gt;Node15</title>
<path fill="none" stroke="midnightblue" d="M346.61,-473.74C352.47,-476.45 357.91,-480.09 362,-485 427.66,-563.82 331.39,-634.98 398,-713 401.33,-716.9 405.46,-720 409.99,-722.47"/>
<polygon fill="midnightblue" stroke="midnightblue" points="347.79,-470.45 337.19,-470.23 345.34,-477.01 347.79,-470.45"/>
</g>
<!-- Node29 -->
<g id="node27" class="node">
<title>Node29</title>
<g id="a_node27"><a xlink:href="classv8_1_1BigIntObject.html" target="_top" xlink:title=" ">
<polygon fill="white" stroke="black" points="414.5,-684.5 414.5,-703.5 500.5,-703.5 500.5,-684.5 414.5,-684.5"/>
<text text-anchor="middle" x="457.5" y="-691.5" font-family="Helvetica,sans-Serif" font-size="10.00">v8::BigIntObject</text>
</a>
</g>
</g>
<!-- Node12&#45;&gt;Node29 -->
<g id="edge26" class="edge">
<title>Node12&#45;&gt;Node29</title>
<path fill="none" stroke="midnightblue" d="M346.48,-473.85C352.35,-476.54 357.83,-480.15 362,-485 418.01,-550.19 341.2,-610.5 398,-675 402.45,-680.05 408.25,-683.76 414.47,-686.49"/>
<polygon fill="midnightblue" stroke="midnightblue" points="347.66,-470.55 337.06,-470.34 345.21,-477.11 347.66,-470.55"/>
</g>
<!-- Node30 -->
<g id="node28" class="node">
<title>Node30</title>
<g id="a_node28"><a xlink:href="classv8_1_1BooleanObject.html" target="_top" xlink:title=" ">
<polygon fill="white" stroke="black" points="410,-646.5 410,-665.5 505,-665.5 505,-646.5 410,-646.5"/>
<text text-anchor="middle" x="457.5" y="-653.5" font-family="Helvetica,sans-Serif" font-size="10.00">v8::BooleanObject</text>
</a>
</g>
</g>
<!-- Node12&#45;&gt;Node30 -->
<g id="edge27" class="edge">
<title>Node12&#45;&gt;Node30</title>
<path fill="none" stroke="midnightblue" d="M346.89,-474.29C352.56,-476.93 357.87,-480.41 362,-485 408.43,-536.62 350.95,-585.95 398,-637 401.55,-640.85 405.88,-643.92 410.56,-646.37"/>
<polygon fill="midnightblue" stroke="midnightblue" points="347.75,-470.87 337.16,-470.59 345.26,-477.41 347.75,-470.87"/>
</g>
<!-- Node31 -->
<g id="node29" class="node">
<title>Node31</title>
<g id="a_node29"><a xlink:href="classv8_1_1Date.html" target="_top" xlink:title=" ">
<polygon fill="white" stroke="black" points="431.5,-608.5 431.5,-627.5 483.5,-627.5 483.5,-608.5 431.5,-608.5"/>
<text text-anchor="middle" x="457.5" y="-615.5" font-family="Helvetica,sans-Serif" font-size="10.00">v8::Date</text>
</a>
</g>
</g>
<!-- Node12&#45;&gt;Node31 -->
<g id="edge28" class="edge">
<title>Node12&#45;&gt;Node31</title>
<path fill="none" stroke="midnightblue" d="M346.79,-474.63C352.42,-477.23 357.75,-480.61 362,-485 398.96,-523.18 360.58,-561.28 398,-599 406.8,-607.87 419.77,-612.6 431.27,-615.12"/>
<polygon fill="midnightblue" stroke="midnightblue" points="347.73,-471.25 337.14,-470.96 345.24,-477.79 347.73,-471.25"/>
</g>
<!-- Node32 -->
<g id="node30" class="node">
<title>Node32</title>
<g id="a_node30"><a xlink:href="classv8_1_1Function.html" target="_top" xlink:title=" ">
<polygon fill="white" stroke="black" points="423,-570.5 423,-589.5 492,-589.5 492,-570.5 423,-570.5"/>
<text text-anchor="middle" x="457.5" y="-577.5" font-family="Helvetica,sans-Serif" font-size="10.00">v8::Function</text>
</a>
</g>
</g>
<!-- Node12&#45;&gt;Node32 -->
<g id="edge29" class="edge">
<title>Node12&#45;&gt;Node32</title>
<path fill="none" stroke="midnightblue" d="M346.64,-475.31C352.21,-477.82 357.55,-480.99 362,-485 389.77,-510.02 369.93,-536.32 398,-561 404.98,-567.13 413.97,-571.29 422.8,-574.11"/>
<polygon fill="midnightblue" stroke="midnightblue" points="347.76,-471.99 337.17,-471.68 345.25,-478.53 347.76,-471.99"/>
</g>
<!-- Node33 -->
<g id="node31" class="node">
<title>Node33</title>
<g id="a_node31"><a xlink:href="classv8_1_1Map.html" target="_top" xlink:title=" ">
<polygon fill="white" stroke="black" points="432.5,-532.5 432.5,-551.5 482.5,-551.5 482.5,-532.5 432.5,-532.5"/>
<text text-anchor="middle" x="457.5" y="-539.5" font-family="Helvetica,sans-Serif" font-size="10.00">v8::Map</text>
</a>
</g>
</g>
<!-- Node12&#45;&gt;Node33 -->
<g id="edge30" class="edge">
<title>Node12&#45;&gt;Node33</title>
<path fill="none" stroke="midnightblue" d="M346.76,-477.1C352.07,-479.34 357.31,-481.96 362,-485 381.52,-497.66 378.33,-510.58 398,-523 408.38,-529.56 421.24,-534.06 432.26,-537.02"/>
<polygon fill="midnightblue" stroke="midnightblue" points="347.8,-473.75 337.2,-473.47 345.31,-480.29 347.8,-473.75"/>
</g>
<!-- Node34 -->
<g id="node32" class="node">
<title>Node34</title>
<g id="a_node32"><a xlink:href="classv8_1_1NumberObject.html" target="_top" xlink:title=" ">
<polygon fill="white" stroke="black" points="410,-494.5 410,-513.5 505,-513.5 505,-494.5 410,-494.5"/>
<text text-anchor="middle" x="457.5" y="-501.5" font-family="Helvetica,sans-Serif" font-size="10.00">v8::NumberObject</text>
</a>
</g>
</g>
<!-- Node12&#45;&gt;Node34 -->
<g id="edge31" class="edge">
<title>Node12&#45;&gt;Node34</title>
<path fill="none" stroke="midnightblue" d="M347.17,-476.02C369.5,-481.74 397.32,-488.86 419.31,-494.48"/>
<polygon fill="midnightblue" stroke="midnightblue" points="347.89,-472.6 337.34,-473.51 346.16,-479.38 347.89,-472.6"/>
</g>
<!-- Node35 -->
<g id="node33" class="node">
<title>Node35</title>
<g id="a_node33"><a xlink:href="classv8_1_1Promise.html" target="_top" xlink:title=" ">
<polygon fill="white" stroke="black" points="423.5,-456.5 423.5,-475.5 491.5,-475.5 491.5,-456.5 423.5,-456.5"/>
<text text-anchor="middle" x="457.5" y="-463.5" font-family="Helvetica,sans-Serif" font-size="10.00">v8::Promise</text>
</a>
</g>
</g>
<!-- Node12&#45;&gt;Node35 -->
<g id="edge32" class="edge">
<title>Node12&#45;&gt;Node35</title>
<path fill="none" stroke="midnightblue" d="M347.41,-466C371.08,-466 400.87,-466 423.34,-466"/>
<polygon fill="midnightblue" stroke="midnightblue" points="347.34,-462.5 337.34,-466 347.34,-469.5 347.34,-462.5"/>
</g>
<!-- Node36 -->
<g id="node34" class="node">
<title>Node36</title>
<g id="a_node34"><a xlink:href="classv8_1_1Promise_1_1Resolver.html" target="_top" xlink:title=" ">
<polygon fill="white" stroke="black" points="402.5,-418.5 402.5,-437.5 512.5,-437.5 512.5,-418.5 402.5,-418.5"/>
<text text-anchor="middle" x="457.5" y="-425.5" font-family="Helvetica,sans-Serif" font-size="10.00">v8::Promise::Resolver</text>
</a>
</g>
</g>
<!-- Node12&#45;&gt;Node36 -->
<g id="edge33" class="edge">
<title>Node12&#45;&gt;Node36</title>
<path fill="none" stroke="midnightblue" d="M347.17,-455.98C369.5,-450.26 397.32,-443.14 419.31,-437.52"/>
<polygon fill="midnightblue" stroke="midnightblue" points="346.16,-452.62 337.34,-458.49 347.89,-459.4 346.16,-452.62"/>
</g>
<!-- Node37 -->
<g id="node35" class="node">
<title>Node37</title>
<g id="a_node35"><a xlink:href="classv8_1_1Proxy.html" target="_top" xlink:title=" ">
<polygon fill="white" stroke="black" points="429.5,-380.5 429.5,-399.5 485.5,-399.5 485.5,-380.5 429.5,-380.5"/>
<text text-anchor="middle" x="457.5" y="-387.5" font-family="Helvetica,sans-Serif" font-size="10.00">v8::Proxy</text>
</a>
</g>
</g>
<!-- Node12&#45;&gt;Node37 -->
<g id="edge34" class="edge">
<title>Node12&#45;&gt;Node37</title>
<path fill="none" stroke="midnightblue" d="M329.25,-450.38C346.96,-437.91 373.2,-420.66 398,-409 407.95,-404.32 419.37,-400.33 429.46,-397.24"/>
<polygon fill="midnightblue" stroke="midnightblue" points="326.92,-447.75 320.82,-456.41 330.99,-453.44 326.92,-447.75"/>
</g>
<!-- Node38 -->
<g id="node36" class="node">
<title>Node38</title>
<g id="a_node36"><a xlink:href="classv8_1_1RegExp.html" target="_top" xlink:title=" ">
<polygon fill="white" stroke="black" points="425,-342.5 425,-361.5 490,-361.5 490,-342.5 425,-342.5"/>
<text text-anchor="middle" x="457.5" y="-349.5" font-family="Helvetica,sans-Serif" font-size="10.00">v8::RegExp</text>
</a>
</g>
</g>
<!-- Node12&#45;&gt;Node38 -->
<g id="edge35" class="edge">
<title>Node12&#45;&gt;Node38</title>
<path fill="none" stroke="midnightblue" d="M320.42,-448.26C336.16,-427.01 365.22,-391.7 398,-371 406.13,-365.87 415.77,-362 424.86,-359.13"/>
<polygon fill="midnightblue" stroke="midnightblue" points="317.54,-446.26 314.51,-456.42 323.21,-450.37 317.54,-446.26"/>
</g>
<!-- Node39 -->
<g id="node37" class="node">
<title>Node39</title>
<g id="a_node37"><a xlink:href="classv8_1_1Set.html" target="_top" xlink:title=" ">
<polygon fill="white" stroke="black" points="434,-304.5 434,-323.5 481,-323.5 481,-304.5 434,-304.5"/>
<text text-anchor="middle" x="457.5" y="-311.5" font-family="Helvetica,sans-Serif" font-size="10.00">v8::Set</text>
</a>
</g>
</g>
<!-- Node12&#45;&gt;Node39 -->
<g id="edge36" class="edge">
<title>Node12&#45;&gt;Node39</title>
<path fill="none" stroke="midnightblue" d="M315.92,-447.01C328.89,-418.2 357.32,-363.6 398,-333 408.41,-325.17 422.18,-320.49 433.75,-317.73"/>
<polygon fill="midnightblue" stroke="midnightblue" points="312.64,-445.79 311.85,-456.36 319.05,-448.59 312.64,-445.79"/>
</g>
<!-- Node40 -->
<g id="node38" class="node">
<title>Node40</title>
<g id="a_node38"><a xlink:href="classv8_1_1SharedArrayBuffer.html" target="_top" xlink:title=" ">
<polygon fill="white" stroke="black" points="402.5,-266.5 402.5,-285.5 512.5,-285.5 512.5,-266.5 402.5,-266.5"/>
<text text-anchor="middle" x="457.5" y="-273.5" font-family="Helvetica,sans-Serif" font-size="10.00">v8::SharedArrayBuffer</text>
</a>
</g>
</g>
<!-- Node12&#45;&gt;Node40 -->
<g id="edge37" class="edge">
<title>Node12&#45;&gt;Node40</title>
<path fill="none" stroke="midnightblue" d="M313.08,-446.17C323.18,-410.68 349.15,-336.16 398,-295 402.57,-291.15 407.94,-288.07 413.55,-285.61"/>
<polygon fill="midnightblue" stroke="midnightblue" points="309.59,-445.67 310.35,-456.23 316.35,-447.5 309.59,-445.67"/>
</g>
<!-- Node41 -->
<g id="node39" class="node">
<title>Node41</title>
<g id="a_node39"><a xlink:href="classv8_1_1StringObject.html" target="_top" xlink:title=" ">
<polygon fill="white" stroke="black" points="414.5,-228.5 414.5,-247.5 500.5,-247.5 500.5,-228.5 414.5,-228.5"/>
<text text-anchor="middle" x="457.5" y="-235.5" font-family="Helvetica,sans-Serif" font-size="10.00">v8::StringObject</text>
</a>
</g>
</g>
<!-- Node12&#45;&gt;Node41 -->
<g id="edge38" class="edge">
<title>Node12&#45;&gt;Node41</title>
<path fill="none" stroke="midnightblue" d="M310.92,-446.44C318.09,-405.35 340.35,-309.54 398,-257 402.74,-252.68 408.46,-249.35 414.46,-246.77"/>
<polygon fill="midnightblue" stroke="midnightblue" points="307.44,-446.06 309.29,-456.5 314.35,-447.19 307.44,-446.06"/>
</g>
<!-- Node42 -->
<g id="node40" class="node">
<title>Node42</title>
<g id="a_node40"><a xlink:href="classv8_1_1SymbolObject.html" target="_top" xlink:title=" ">
<polygon fill="white" stroke="black" points="411.5,-190.5 411.5,-209.5 503.5,-209.5 503.5,-190.5 411.5,-190.5"/>
<text text-anchor="middle" x="457.5" y="-197.5" font-family="Helvetica,sans-Serif" font-size="10.00">v8::SymbolObject</text>
</a>
</g>
</g>
<!-- Node12&#45;&gt;Node42 -->
<g id="edge39" class="edge">
<title>Node12&#45;&gt;Node42</title>
<path fill="none" stroke="midnightblue" d="M309.48,-446.14C314,-399.67 331.7,-282.99 398,-219 402,-215.14 406.78,-212.07 411.87,-209.62"/>
<polygon fill="midnightblue" stroke="midnightblue" points="305.97,-446.1 308.59,-456.36 312.94,-446.7 305.97,-446.1"/>
</g>
<!-- Node43 -->
<g id="node41" class="node">
<title>Node43</title>
<g id="a_node41"><a xlink:href="classv8_1_1WasmModuleObject.html" target="_top" xlink:title=" ">
<polygon fill="white" stroke="black" points="398,-152.5 398,-171.5 517,-171.5 517,-152.5 398,-152.5"/>
<text text-anchor="middle" x="457.5" y="-159.5" font-family="Helvetica,sans-Serif" font-size="10.00">v8::WasmModuleObject</text>
</a>
</g>
</g>
<!-- Node12&#45;&gt;Node43 -->
<g id="edge40" class="edge">
<title>Node12&#45;&gt;Node43</title>
<path fill="none" stroke="midnightblue" d="M308.35,-446.26C310.33,-395.09 322.75,-256.86 398,-181 401.84,-177.13 406.46,-174.05 411.42,-171.6"/>
<polygon fill="midnightblue" stroke="midnightblue" points="304.85,-446.21 308.05,-456.31 311.84,-446.42 304.85,-446.21"/>
</g>
<!-- Node16 -->
<g id="node16" class="node">
<title>Node16</title>
<g id="a_node16"><a xlink:href="classv8_1_1DataView.html" target="_top" xlink:title=" ">
<polygon fill="white" stroke="black" points="556,-741.5 556,-760.5 630,-760.5 630,-741.5 556,-741.5"/>
<text text-anchor="middle" x="593" y="-748.5" font-family="Helvetica,sans-Serif" font-size="10.00">v8::DataView</text>
</a>
</g>
</g>
<!-- Node15&#45;&gt;Node16 -->
<g id="edge15" class="edge">
<title>Node15&#45;&gt;Node16</title>
<path fill="none" stroke="midnightblue" d="M518.3,-740.51C531.02,-742.32 544.07,-744.18 555.6,-745.82"/>
<polygon fill="midnightblue" stroke="midnightblue" points="518.6,-737.02 508.21,-739.07 517.62,-743.95 518.6,-737.02"/>
</g>
<!-- Node17 -->
<g id="node17" class="node">
<title>Node17</title>
<g id="a_node17"><a xlink:href="classv8_1_1TypedArray.html" target="_top" xlink:title=" ">
<polygon fill="white" stroke="red" points="553,-703.5 553,-722.5 633,-722.5 633,-703.5 553,-703.5"/>
<text text-anchor="middle" x="593" y="-710.5" font-family="Helvetica,sans-Serif" font-size="10.00">v8::TypedArray</text>
</a>
</g>
</g>
<!-- Node15&#45;&gt;Node17 -->
<g id="edge16" class="edge">
<title>Node15&#45;&gt;Node17</title>
<path fill="none" stroke="midnightblue" d="M518.33,-723.48C529.97,-721.83 541.9,-720.13 552.67,-718.6"/>
<polygon fill="midnightblue" stroke="midnightblue" points="517.62,-720.05 508.21,-724.93 518.6,-726.98 517.62,-720.05"/>
</g>
<!-- Node18 -->
<g id="node18" class="node">
<title>Node18</title>
<g id="a_node18"><a xlink:href="classv8_1_1BigInt64Array.html" target="_top" xlink:title=" ">
<polygon fill="white" stroke="black" points="672.5,-855.5 672.5,-874.5 762.5,-874.5 762.5,-855.5 672.5,-855.5"/>
<text text-anchor="middle" x="717.5" y="-862.5" font-family="Helvetica,sans-Serif" font-size="10.00">v8::BigInt64Array</text>
</a>
</g>
</g>
<!-- Node17&#45;&gt;Node18 -->
<g id="edge17" class="edge">
<title>Node17&#45;&gt;Node18</title>
<path fill="none" stroke="midnightblue" d="M629.71,-728.67C630.88,-729.71 631.99,-730.82 633,-732 667.7,-772.24 632.86,-807.05 669,-846 672.5,-849.78 676.86,-852.82 681.5,-855.26"/>
<polygon fill="midnightblue" stroke="midnightblue" points="631.38,-725.56 621.2,-722.64 627.34,-731.28 631.38,-725.56"/>
</g>
<!-- Node19 -->
<g id="node19" class="node">
<title>Node19</title>
<g id="a_node19"><a xlink:href="classv8_1_1BigUint64Array.html" target="_top" xlink:title=" ">
<polygon fill="white" stroke="black" points="669,-817.5 669,-836.5 766,-836.5 766,-817.5 669,-817.5"/>
<text text-anchor="middle" x="717.5" y="-824.5" font-family="Helvetica,sans-Serif" font-size="10.00">v8::BigUint64Array</text>
</a>
</g>
</g>
<!-- Node17&#45;&gt;Node19 -->
<g id="edge18" class="edge">
<title>Node17&#45;&gt;Node19</title>
<path fill="none" stroke="midnightblue" d="M628.49,-728.05C630.09,-729.28 631.61,-730.59 633,-732 659.28,-758.57 641.77,-782.4 669,-808 673.01,-811.77 677.87,-814.83 682.92,-817.3"/>
<polygon fill="midnightblue" stroke="midnightblue" points="630.28,-725.03 619.98,-722.58 626.5,-730.93 630.28,-725.03"/>
</g>
<!-- Node20 -->
<g id="node20" class="node">
<title>Node20</title>
<g id="a_node20"><a xlink:href="classv8_1_1Float32Array.html" target="_top" xlink:title=" ">
<polygon fill="white" stroke="black" points="674.5,-779.5 674.5,-798.5 760.5,-798.5 760.5,-779.5 674.5,-779.5"/>
<text text-anchor="middle" x="717.5" y="-786.5" font-family="Helvetica,sans-Serif" font-size="10.00">v8::Float32Array</text>
</a>
</g>
</g>
<!-- Node17&#45;&gt;Node20 -->
<g id="edge19" class="edge">
<title>Node17&#45;&gt;Node20</title>
<path fill="none" stroke="midnightblue" d="M626.01,-727.4C628.44,-728.85 630.8,-730.39 633,-732 651.76,-745.76 649.75,-756.93 669,-770 674.44,-773.69 680.7,-776.84 686.86,-779.44"/>
<polygon fill="midnightblue" stroke="midnightblue" points="627.52,-724.24 617.07,-722.54 624.18,-730.39 627.52,-724.24"/>
</g>
<!-- Node21 -->
<g id="node21" class="node">
<title>Node21</title>
<g id="a_node21"><a xlink:href="classv8_1_1Float64Array.html" target="_top" xlink:title=" ">
<polygon fill="white" stroke="black" points="674.5,-741.5 674.5,-760.5 760.5,-760.5 760.5,-741.5 674.5,-741.5"/>
<text text-anchor="middle" x="717.5" y="-748.5" font-family="Helvetica,sans-Serif" font-size="10.00">v8::Float64Array</text>
</a>
</g>
</g>
<!-- Node17&#45;&gt;Node21 -->
<g id="edge20" class="edge">
<title>Node17&#45;&gt;Node21</title>
<path fill="none" stroke="midnightblue" d="M634.88,-725.68C651.43,-730.81 670.22,-736.64 685.6,-741.41"/>
<polygon fill="midnightblue" stroke="midnightblue" points="635.5,-722.21 624.91,-722.59 633.43,-728.89 635.5,-722.21"/>
</g>
<!-- Node22 -->
<g id="node22" class="node">
<title>Node22</title>
<g id="a_node22"><a xlink:href="classv8_1_1Int16Array.html" target="_top" xlink:title=" ">
<polygon fill="white" stroke="black" points="679.5,-703.5 679.5,-722.5 755.5,-722.5 755.5,-703.5 679.5,-703.5"/>
<text text-anchor="middle" x="717.5" y="-710.5" font-family="Helvetica,sans-Serif" font-size="10.00">v8::Int16Array</text>
</a>
</g>
</g>
<!-- Node17&#45;&gt;Node22 -->
<g id="edge21" class="edge">
<title>Node17&#45;&gt;Node22</title>
<path fill="none" stroke="midnightblue" d="M643.45,-713C655.46,-713 668.11,-713 679.44,-713"/>
<polygon fill="midnightblue" stroke="midnightblue" points="643.1,-709.5 633.1,-713 643.1,-716.5 643.1,-709.5"/>
</g>
<!-- Node23 -->
<g id="node23" class="node">
<title>Node23</title>
<g id="a_node23"><a xlink:href="classv8_1_1Int32Array.html" target="_top" xlink:title=" ">
<polygon fill="white" stroke="black" points="679.5,-665.5 679.5,-684.5 755.5,-684.5 755.5,-665.5 679.5,-665.5"/>
<text text-anchor="middle" x="717.5" y="-672.5" font-family="Helvetica,sans-Serif" font-size="10.00">v8::Int32Array</text>
</a>
</g>
</g>
<!-- Node17&#45;&gt;Node23 -->
<g id="edge22" class="edge">
<title>Node17&#45;&gt;Node23</title>
<path fill="none" stroke="midnightblue" d="M634.88,-700.32C651.43,-695.19 670.22,-689.36 685.6,-684.59"/>
<polygon fill="midnightblue" stroke="midnightblue" points="633.43,-697.11 624.91,-703.41 635.5,-703.79 633.43,-697.11"/>
</g>
<!-- Node24 -->
<g id="node24" class="node">
<title>Node24</title>
<g id="a_node24"><a xlink:href="classv8_1_1Int8Array.html" target="_top" xlink:title=" ">
<polygon fill="white" stroke="black" points="682,-627.5 682,-646.5 753,-646.5 753,-627.5 682,-627.5"/>
<text text-anchor="middle" x="717.5" y="-634.5" font-family="Helvetica,sans-Serif" font-size="10.00">v8::Int8Array</text>
</a>
</g>
</g>
<!-- Node17&#45;&gt;Node24 -->
<g id="edge23" class="edge">
<title>Node17&#45;&gt;Node24</title>
<path fill="none" stroke="midnightblue" d="M612.8,-696.42C627.4,-684.14 648.54,-667.59 669,-656 675.18,-652.5 682.14,-649.33 688.78,-646.63"/>
<polygon fill="midnightblue" stroke="midnightblue" points="610.34,-693.93 605.02,-703.09 614.89,-699.24 610.34,-693.93"/>
</g>
<!-- Node25 -->
<g id="node25" class="node">
<title>Node25</title>
<g id="a_node25"><a xlink:href="classv8_1_1Uint16Array.html" target="_top" xlink:title=" ">
<polygon fill="white" stroke="black" points="676,-589.5 676,-608.5 759,-608.5 759,-589.5 676,-589.5"/>
<text text-anchor="middle" x="717.5" y="-596.5" font-family="Helvetica,sans-Serif" font-size="10.00">v8::Uint16Array</text>
</a>
</g>
</g>
<!-- Node17&#45;&gt;Node25 -->
<g id="edge24" class="edge">
<title>Node17&#45;&gt;Node25</title>
<path fill="none" stroke="midnightblue" d="M604.41,-694.62C617.19,-673.53 640.68,-639.15 669,-618 673.98,-614.28 679.79,-611.17 685.6,-608.62"/>
<polygon fill="midnightblue" stroke="midnightblue" points="601.37,-692.88 599.32,-703.27 607.41,-696.43 601.37,-692.88"/>
</g>
<!-- Node26 -->
<g id="node26" class="node">
<title>Node26</title>
<g id="a_node26"><a xlink:href="classv8_1_1Uint32Array.html" target="_top" xlink:title=" ">
<polygon fill="white" stroke="black" points="676,-551.5 676,-570.5 759,-570.5 759,-551.5 676,-551.5"/>
<text text-anchor="middle" x="717.5" y="-558.5" font-family="Helvetica,sans-Serif" font-size="10.00">v8::Uint32Array</text>
</a>
</g>
</g>
<!-- Node17&#45;&gt;Node26 -->
<g id="edge25" class="edge">
<title>Node17&#45;&gt;Node26</title>
<path fill="none" stroke="midnightblue" d="M600.26,-693.53C610.38,-664.94 632.92,-611.58 669,-580 673.28,-576.26 678.39,-573.2 683.64,-570.71"/>
<polygon fill="midnightblue" stroke="midnightblue" points="596.89,-692.58 596.99,-703.17 603.52,-694.83 596.89,-692.58"/>
</g>
<!-- Node45 -->
<g id="node43" class="node">
<title>Node45</title>
<g id="a_node43"><a xlink:href="classv8_1_1BigInt.html" target="_top" xlink:title=" ">
<polygon fill="white" stroke="black" points="429,-114.5 429,-133.5 486,-133.5 486,-114.5 429,-114.5"/>
<text text-anchor="middle" x="457.5" y="-121.5" font-family="Helvetica,sans-Serif" font-size="10.00">v8::BigInt</text>
</a>
</g>
</g>
<!-- Node44&#45;&gt;Node45 -->
<g id="edge42" class="edge">
<title>Node44&#45;&gt;Node45</title>
<path fill="none" stroke="midnightblue" d="M351.97,-97.25C376.77,-103.6 407,-111.33 428.56,-116.85"/>
<polygon fill="midnightblue" stroke="midnightblue" points="352.62,-93.81 342.07,-94.72 350.89,-100.59 352.62,-93.81"/>
</g>
<!-- Node46 -->
<g id="node44" class="node">
<title>Node46</title>
<g id="a_node44"><a xlink:href="classv8_1_1Boolean.html" target="_top" xlink:title=" ">
<polygon fill="white" stroke="black" points="424,-76.5 424,-95.5 491,-95.5 491,-76.5 424,-76.5"/>
<text text-anchor="middle" x="457.5" y="-83.5" font-family="Helvetica,sans-Serif" font-size="10.00">v8::Boolean</text>
</a>
</g>
</g>
<!-- Node44&#45;&gt;Node46 -->
<g id="edge43" class="edge">
<title>Node44&#45;&gt;Node46</title>
<path fill="none" stroke="midnightblue" d="M352.27,-86C375.25,-86 402.84,-86 423.86,-86"/>
<polygon fill="midnightblue" stroke="midnightblue" points="352.07,-82.5 342.07,-86 352.07,-89.5 352.07,-82.5"/>
</g>
<!-- Node47 -->
<g id="node45" class="node">
<title>Node47</title>
<g id="a_node45"><a xlink:href="classv8_1_1Name.html" target="_top" xlink:title=" ">
<polygon fill="white" stroke="black" points="428.5,-38.5 428.5,-57.5 486.5,-57.5 486.5,-38.5 428.5,-38.5"/>
<text text-anchor="middle" x="457.5" y="-45.5" font-family="Helvetica,sans-Serif" font-size="10.00">v8::Name</text>
</a>
</g>
</g>
<!-- Node44&#45;&gt;Node47 -->
<g id="edge44" class="edge">
<title>Node44&#45;&gt;Node47</title>
<path fill="none" stroke="midnightblue" d="M351.9,-74.77C376.53,-68.46 406.53,-60.79 428.08,-55.27"/>
<polygon fill="midnightblue" stroke="midnightblue" points="350.89,-71.41 342.07,-77.28 352.62,-78.19 350.89,-71.41"/>
</g>
<!-- Node50 -->
<g id="node48" class="node">
<title>Node50</title>
<g id="a_node48"><a xlink:href="classv8_1_1Number.html" target="_top" xlink:title=" ">
<polygon fill="white" stroke="black" points="424.5,-0.5 424.5,-19.5 490.5,-19.5 490.5,-0.5 424.5,-0.5"/>
<text text-anchor="middle" x="457.5" y="-7.5" font-family="Helvetica,sans-Serif" font-size="10.00">v8::Number</text>
</a>
</g>
</g>
<!-- Node44&#45;&gt;Node50 -->
<g id="edge47" class="edge">
<title>Node44&#45;&gt;Node50</title>
<path fill="none" stroke="midnightblue" d="M329.25,-70.38C346.96,-57.91 373.2,-40.66 398,-29 406.31,-25.09 415.64,-21.67 424.37,-18.84"/>
<polygon fill="midnightblue" stroke="midnightblue" points="326.92,-67.75 320.82,-76.41 330.99,-73.44 326.92,-67.75"/>
</g>
<!-- Node48 -->
<g id="node46" class="node">
<title>Node48</title>
<g id="a_node46"><a xlink:href="classv8_1_1String.html" target="_top" xlink:title=" ">
<polygon fill="white" stroke="black" points="564.5,-76.5 564.5,-95.5 621.5,-95.5 621.5,-76.5 564.5,-76.5"/>
<text text-anchor="middle" x="593" y="-83.5" font-family="Helvetica,sans-Serif" font-size="10.00">v8::String</text>
</a>
</g>
</g>
<!-- Node47&#45;&gt;Node48 -->
<g id="edge45" class="edge">
<title>Node47&#45;&gt;Node48</title>
<path fill="none" stroke="midnightblue" d="M496.63,-58.85C518.17,-64.98 544.61,-72.51 564.19,-78.08"/>
<polygon fill="midnightblue" stroke="midnightblue" points="497.39,-55.43 486.81,-56.06 495.47,-62.16 497.39,-55.43"/>
</g>
<!-- Node49 -->
<g id="node47" class="node">
<title>Node49</title>
<g id="a_node47"><a xlink:href="classv8_1_1Symbol.html" target="_top" xlink:title=" ">
<polygon fill="white" stroke="black" points="561,-38.5 561,-57.5 625,-57.5 625,-38.5 561,-38.5"/>
<text text-anchor="middle" x="593" y="-45.5" font-family="Helvetica,sans-Serif" font-size="10.00">v8::Symbol</text>
</a>
</g>
</g>
<!-- Node47&#45;&gt;Node49 -->
<g id="edge46" class="edge">
<title>Node47&#45;&gt;Node49</title>
<path fill="none" stroke="midnightblue" d="M496.99,-48C517.28,-48 541.86,-48 560.93,-48"/>
<polygon fill="midnightblue" stroke="midnightblue" points="496.81,-44.5 486.81,-48 496.81,-51.5 496.81,-44.5"/>
</g>
<!-- Node51 -->
<g id="node49" class="node">
<title>Node51</title>
<g id="a_node49"><a xlink:href="classv8_1_1Integer.html" target="_top" xlink:title=" ">
<polygon fill="white" stroke="red" points="562,-0.5 562,-19.5 624,-19.5 624,-0.5 562,-0.5"/>
<text text-anchor="middle" x="593" y="-7.5" font-family="Helvetica,sans-Serif" font-size="10.00">v8::Integer</text>
</a>
</g>
</g>
<!-- Node50&#45;&gt;Node51 -->
<g id="edge48" class="edge">
<title>Node50&#45;&gt;Node51</title>
<path fill="none" stroke="midnightblue" d="M500.83,-10C520.65,-10 543.8,-10 561.81,-10"/>
<polygon fill="midnightblue" stroke="midnightblue" points="500.82,-6.5 490.82,-10 500.82,-13.5 500.82,-6.5"/>
</g>
</g>
</svg>
