<?xml version="1.0" encoding="UTF-8" standalone="no"?>
<!DOCTYPE svg PUBLIC "-//W3C//DTD SVG 1.1//EN"
 "http://www.w3.org/Graphics/SVG/1.1/DTD/svg11.dtd">
<!-- Generated by graphviz version 2.44.0 ()
 -->
<!-- Title: cppgc::internal::PrefinalizerRegistration::PrefinalizerRegistration Pages: 1 -->
<svg width="371pt" height="99pt"
 viewBox="0.00 0.00 371.00 98.50" xmlns="http://www.w3.org/2000/svg" xmlns:xlink="http://www.w3.org/1999/xlink">
<g id="graph0" class="graph" transform="scale(1 1) rotate(0) translate(4 94.5)">
<title>cppgc::internal::PrefinalizerRegistration::PrefinalizerRegistration</title>
<polygon fill="white" stroke="transparent" points="-4,4 -4,-94.5 367,-94.5 367,4 -4,4"/>
<!-- Node1 -->
<g id="node1" class="node">
<title>Node1</title>
<g id="a_node1"><a xlink:title=" ">
<polygon fill="#bfbfbf" stroke="black" points="0,-33 0,-63 172,-63 172,-33 0,-33"/>
<text text-anchor="start" x="8" y="-51" font-family="Helvetica,sans-Serif" font-size="10.00">cppgc::internal::Prefinalizer</text>
<text text-anchor="middle" x="86" y="-40" font-family="Helvetica,sans-Serif" font-size="10.00">Registration::PrefinalizerRegistration</text>
</a>
</g>
</g>
<!-- Node2 -->
<g id="node2" class="node">
<title>Node2</title>
<g id="a_node2"><a xlink:href="namespacecppgc_1_1internal.html#a61d91000cbda652cdd6c7ae5396eec01" target="_top" xlink:title=" ">
<polygon fill="white" stroke="black" points="224.5,-60 224.5,-90 346.5,-90 346.5,-60 224.5,-60"/>
<text text-anchor="start" x="232.5" y="-78" font-family="Helvetica,sans-Serif" font-size="10.00">cppgc::internal::GetHeap</text>
<text text-anchor="middle" x="285.5" y="-67" font-family="Helvetica,sans-Serif" font-size="10.00">FromPayload</text>
</a>
</g>
</g>
<!-- Node1&#45;&gt;Node2 -->
<g id="edge1" class="edge">
<title>Node1&#45;&gt;Node2</title>
<path fill="none" stroke="midnightblue" d="M172.19,-59.65C186.17,-61.56 200.51,-63.52 214.08,-65.37"/>
<polygon fill="midnightblue" stroke="midnightblue" points="213.9,-68.88 224.28,-66.77 214.85,-61.95 213.9,-68.88"/>
</g>
<!-- Node3 -->
<g id="node3" class="node">
<title>Node3</title>
<g id="a_node3"><a xlink:href="classcppgc_1_1internal_1_1PreFinalizerRegistrationDispatcher.html#a54191e44fdbd5db31a950cb2788c3560" target="_top" xlink:title=" ">
<polygon fill="white" stroke="black" points="208,-0.5 208,-41.5 363,-41.5 363,-0.5 208,-0.5"/>
<text text-anchor="start" x="216" y="-29.5" font-family="Helvetica,sans-Serif" font-size="10.00">cppgc::internal::PreFinalizer</text>
<text text-anchor="start" x="216" y="-18.5" font-family="Helvetica,sans-Serif" font-size="10.00">RegistrationDispatcher::Register</text>
<text text-anchor="middle" x="285.5" y="-7.5" font-family="Helvetica,sans-Serif" font-size="10.00">Prefinalizer</text>
</a>
</g>
</g>
<!-- Node1&#45;&gt;Node3 -->
<g id="edge2" class="edge">
<title>Node1&#45;&gt;Node3</title>
<path fill="none" stroke="midnightblue" d="M172.19,-36.35C180.75,-35.18 189.44,-34 198.01,-32.82"/>
<polygon fill="midnightblue" stroke="midnightblue" points="198.56,-36.28 207.99,-31.46 197.61,-29.35 198.56,-36.28"/>
</g>
</g>
</svg>
