<?xml version="1.0" encoding="UTF-8" standalone="no"?>
<!DOCTYPE svg PUBLIC "-//W3C//DTD SVG 1.1//EN"
 "http://www.w3.org/Graphics/SVG/1.1/DTD/svg11.dtd">
<!-- Generated by graphviz version 2.44.0 ()
 -->
<!-- Title: include/cppgc/common.h Pages: 1 -->
<svg width="697pt" height="274pt"
 viewBox="0.00 0.00 697.00 274.00" xmlns="http://www.w3.org/2000/svg" xmlns:xlink="http://www.w3.org/1999/xlink">
<g id="graph0" class="graph" transform="scale(1 1) rotate(0) translate(4 270)">
<title>include/cppgc/common.h</title>
<polygon fill="white" stroke="transparent" points="-4,4 -4,-270 693,-270 693,4 -4,4"/>
<!-- Node1 -->
<g id="node1" class="node">
<title>Node1</title>
<g id="a_node1"><a xlink:title=" ">
<polygon fill="#bfbfbf" stroke="black" points="241.5,-246.5 241.5,-265.5 366.5,-265.5 366.5,-246.5 241.5,-246.5"/>
<text text-anchor="middle" x="304" y="-253.5" font-family="Helvetica,sans-Serif" font-size="10.00">include/cppgc/common.h</text>
</a>
</g>
</g>
<!-- Node2 -->
<g id="node2" class="node">
<title>Node2</title>
<g id="a_node2"><a xlink:href="heap_8h.html" target="_top" xlink:title=" ">
<polygon fill="white" stroke="black" points="145,-190.5 145,-209.5 253,-209.5 253,-190.5 145,-190.5"/>
<text text-anchor="middle" x="199" y="-197.5" font-family="Helvetica,sans-Serif" font-size="10.00">include/cppgc/heap.h</text>
</a>
</g>
</g>
<!-- Node1&#45;&gt;Node2 -->
<g id="edge1" class="edge">
<title>Node1&#45;&gt;Node2</title>
<path fill="none" stroke="midnightblue" d="M278.19,-241.73C258.75,-231.73 232.65,-218.31 215.83,-209.65"/>
<polygon fill="midnightblue" stroke="midnightblue" points="276.64,-244.86 287.13,-246.32 279.84,-238.64 276.64,-244.86"/>
</g>
<!-- Node9 -->
<g id="node9" class="node">
<title>Node9</title>
<g id="a_node9"><a xlink:href="v8_8h.html" target="_top" xlink:title=" ">
<polygon fill="white" stroke="black" points="441,-190.5 441,-209.5 509,-209.5 509,-190.5 441,-190.5"/>
<text text-anchor="middle" x="475" y="-197.5" font-family="Helvetica,sans-Serif" font-size="10.00">include/v8.h</text>
</a>
</g>
</g>
<!-- Node1&#45;&gt;Node9 -->
<g id="edge10" class="edge">
<title>Node1&#45;&gt;Node9</title>
<path fill="none" stroke="midnightblue" d="M341.04,-243.3C373.26,-233.13 419.19,-218.62 448.03,-209.52"/>
<polygon fill="midnightblue" stroke="midnightblue" points="339.58,-240.09 331.1,-246.44 341.69,-246.77 339.58,-240.09"/>
</g>
<!-- Node3 -->
<g id="node3" class="node">
<title>Node3</title>
<g id="a_node3"><a xlink:href="allocation_8h.html" target="_top" xlink:title=" ">
<polygon fill="white" stroke="black" points="0,-129 0,-148 128,-148 128,-129 0,-129"/>
<text text-anchor="middle" x="64" y="-136" font-family="Helvetica,sans-Serif" font-size="10.00">include/cppgc/allocation.h</text>
</a>
</g>
</g>
<!-- Node2&#45;&gt;Node3 -->
<g id="edge2" class="edge">
<title>Node2&#45;&gt;Node3</title>
<path fill="none" stroke="midnightblue" d="M170.25,-186.33C144.04,-174.78 106.05,-158.03 83.31,-148.01"/>
<polygon fill="midnightblue" stroke="midnightblue" points="169.1,-189.64 179.66,-190.48 171.92,-183.24 169.1,-189.64"/>
</g>
<!-- Node4 -->
<g id="node4" class="node">
<title>Node4</title>
<g id="a_node4"><a xlink:href="prefinalizer-handler_8h.html" target="_top" xlink:title=" ">
<polygon fill="white" stroke="black" points="100.5,-56.5 100.5,-86.5 211.5,-86.5 211.5,-56.5 100.5,-56.5"/>
<text text-anchor="start" x="108.5" y="-74.5" font-family="Helvetica,sans-Serif" font-size="10.00">include/cppgc/internal</text>
<text text-anchor="middle" x="156" y="-63.5" font-family="Helvetica,sans-Serif" font-size="10.00">/prefinalizer&#45;handler.h</text>
</a>
</g>
</g>
<!-- Node2&#45;&gt;Node4 -->
<g id="edge3" class="edge">
<title>Node2&#45;&gt;Node4</title>
<path fill="none" stroke="midnightblue" d="M188.29,-181.49C183.68,-173.36 178.54,-163.43 175,-154 166.41,-131.15 160.91,-103.19 158.15,-86.67"/>
<polygon fill="midnightblue" stroke="midnightblue" points="185.42,-183.52 193.51,-190.36 191.45,-179.96 185.42,-183.52"/>
</g>
<!-- Node6 -->
<g id="node6" class="node">
<title>Node6</title>
<g id="a_node6"><a xlink:href="liveness-broker_8h.html" target="_top" xlink:title=" ">
<polygon fill="white" stroke="black" points="184,-123.5 184,-153.5 300,-153.5 300,-123.5 184,-123.5"/>
<text text-anchor="start" x="192" y="-141.5" font-family="Helvetica,sans-Serif" font-size="10.00">include/cppgc/liveness</text>
<text text-anchor="middle" x="242" y="-130.5" font-family="Helvetica,sans-Serif" font-size="10.00">&#45;broker.h</text>
</a>
</g>
</g>
<!-- Node2&#45;&gt;Node6 -->
<g id="edge5" class="edge">
<title>Node2&#45;&gt;Node6</title>
<path fill="none" stroke="midnightblue" d="M211.11,-182.25C217.66,-173.19 225.65,-162.12 231.87,-153.52"/>
<polygon fill="midnightblue" stroke="midnightblue" points="208.18,-180.32 205.16,-190.48 213.86,-184.42 208.18,-180.32"/>
</g>
<!-- Node5 -->
<g id="node5" class="node">
<title>Node5</title>
<g id="a_node5"><a xlink:href="prefinalizer_8h.html" target="_top" xlink:title=" ">
<polygon fill="white" stroke="black" points="99.5,-0.5 99.5,-19.5 232.5,-19.5 232.5,-0.5 99.5,-0.5"/>
<text text-anchor="middle" x="166" y="-7.5" font-family="Helvetica,sans-Serif" font-size="10.00">include/cppgc/prefinalizer.h</text>
</a>
</g>
</g>
<!-- Node4&#45;&gt;Node5 -->
<g id="edge4" class="edge">
<title>Node4&#45;&gt;Node5</title>
<path fill="none" stroke="midnightblue" d="M160.07,-46.29C161.65,-36.86 163.37,-26.65 164.54,-19.66"/>
<polygon fill="midnightblue" stroke="midnightblue" points="156.58,-45.96 158.37,-56.4 163.48,-47.12 156.58,-45.96"/>
</g>
<!-- Node6&#45;&gt;Node4 -->
<g id="edge6" class="edge">
<title>Node6&#45;&gt;Node4</title>
<path fill="none" stroke="midnightblue" d="M215.1,-117.17C201.95,-107.23 186.45,-95.51 174.62,-86.58"/>
<polygon fill="midnightblue" stroke="midnightblue" points="213.25,-120.16 223.34,-123.4 217.47,-114.57 213.25,-120.16"/>
</g>
<!-- Node6&#45;&gt;Node5 -->
<g id="edge9" class="edge">
<title>Node6&#45;&gt;Node5</title>
<path fill="none" stroke="midnightblue" d="M239.38,-113.2C236.63,-96.12 231.09,-73.31 220,-56 209.99,-40.38 192.83,-27.45 180.54,-19.51"/>
<polygon fill="midnightblue" stroke="midnightblue" points="235.96,-114.07 240.81,-123.49 242.9,-113.1 235.96,-114.07"/>
</g>
<!-- Node7 -->
<g id="node7" class="node">
<title>Node7</title>
<g id="a_node7"><a xlink:href="visitor_8h.html" target="_top" xlink:title=" ">
<polygon fill="white" stroke="black" points="268.5,-62 268.5,-81 381.5,-81 381.5,-62 268.5,-62"/>
<text text-anchor="middle" x="325" y="-69" font-family="Helvetica,sans-Serif" font-size="10.00">include/cppgc/visitor.h</text>
</a>
</g>
</g>
<!-- Node6&#45;&gt;Node7 -->
<g id="edge7" class="edge">
<title>Node6&#45;&gt;Node7</title>
<path fill="none" stroke="midnightblue" d="M268.17,-117.01C283.58,-104.94 302.26,-90.3 313.9,-81.19"/>
<polygon fill="midnightblue" stroke="midnightblue" points="265.72,-114.47 260.01,-123.4 270.04,-119.99 265.72,-114.47"/>
</g>
<!-- Node8 -->
<g id="node8" class="node">
<title>Node8</title>
<g id="a_node8"><a xlink:href="persistent_8h.html" target="_top" xlink:title=" ">
<polygon fill="white" stroke="black" points="260,-0.5 260,-19.5 390,-19.5 390,-0.5 260,-0.5"/>
<text text-anchor="middle" x="325" y="-7.5" font-family="Helvetica,sans-Serif" font-size="10.00">include/cppgc/persistent.h</text>
</a>
</g>
</g>
<!-- Node7&#45;&gt;Node8 -->
<g id="edge8" class="edge">
<title>Node7&#45;&gt;Node8</title>
<path fill="none" stroke="midnightblue" d="M325,-51.82C325,-41 325,-27.9 325,-19.51"/>
<polygon fill="midnightblue" stroke="midnightblue" points="321.5,-51.98 325,-61.98 328.5,-51.98 321.5,-51.98"/>
</g>
<!-- Node10 -->
<g id="node10" class="node">
<title>Node10</title>
<g id="a_node10"><a xlink:href="v8-inspector_8h.html" target="_top" xlink:title=" ">
<polygon fill="white" stroke="black" points="357.5,-129 357.5,-148 468.5,-148 468.5,-129 357.5,-129"/>
<text text-anchor="middle" x="413" y="-136" font-family="Helvetica,sans-Serif" font-size="10.00">include/v8&#45;inspector.h</text>
</a>
</g>
</g>
<!-- Node9&#45;&gt;Node10 -->
<g id="edge11" class="edge">
<title>Node9&#45;&gt;Node10</title>
<path fill="none" stroke="midnightblue" d="M458.67,-183.32C446.89,-172.02 431.44,-157.19 421.87,-148.01"/>
<polygon fill="midnightblue" stroke="midnightblue" points="456.48,-186.08 466.12,-190.48 461.33,-181.03 456.48,-186.08"/>
</g>
<!-- Node12 -->
<g id="node12" class="node">
<title>Node12</title>
<g id="a_node12"><a xlink:href="v8-profiler_8h.html" target="_top" xlink:title=" ">
<polygon fill="white" stroke="black" points="487,-129 487,-148 587,-148 587,-129 487,-129"/>
<text text-anchor="middle" x="537" y="-136" font-family="Helvetica,sans-Serif" font-size="10.00">include/v8&#45;profiler.h</text>
</a>
</g>
</g>
<!-- Node9&#45;&gt;Node12 -->
<g id="edge13" class="edge">
<title>Node9&#45;&gt;Node12</title>
<path fill="none" stroke="midnightblue" d="M491.33,-183.32C503.11,-172.02 518.56,-157.19 528.13,-148.01"/>
<polygon fill="midnightblue" stroke="midnightblue" points="488.67,-181.03 483.88,-190.48 493.52,-186.08 488.67,-181.03"/>
</g>
<!-- Node13 -->
<g id="node13" class="node">
<title>Node13</title>
<g id="a_node13"><a xlink:href="v8-util_8h.html" target="_top" xlink:title=" ">
<polygon fill="white" stroke="black" points="605,-129 605,-148 689,-148 689,-129 605,-129"/>
<text text-anchor="middle" x="647" y="-136" font-family="Helvetica,sans-Serif" font-size="10.00">include/v8&#45;util.h</text>
</a>
</g>
</g>
<!-- Node9&#45;&gt;Node13 -->
<g id="edge14" class="edge">
<title>Node9&#45;&gt;Node13</title>
<path fill="none" stroke="midnightblue" d="M509.45,-187.08C542.88,-175.52 592.79,-158.25 622.4,-148.01"/>
<polygon fill="midnightblue" stroke="midnightblue" points="507.95,-183.9 499.64,-190.48 510.24,-190.51 507.95,-183.9"/>
</g>
<!-- Node11 -->
<g id="node11" class="node">
<title>Node11</title>
<g id="a_node11"><a xlink:href="v8-inspector-protocol_8h.html" target="_top" xlink:title=" ">
<polygon fill="white" stroke="black" points="400,-56.5 400,-86.5 504,-86.5 504,-56.5 400,-56.5"/>
<text text-anchor="start" x="408" y="-74.5" font-family="Helvetica,sans-Serif" font-size="10.00">include/v8&#45;inspector</text>
<text text-anchor="middle" x="452" y="-63.5" font-family="Helvetica,sans-Serif" font-size="10.00">&#45;protocol.h</text>
</a>
</g>
</g>
<!-- Node10&#45;&gt;Node11 -->
<g id="edge12" class="edge">
<title>Node10&#45;&gt;Node11</title>
<path fill="none" stroke="midnightblue" d="M423.48,-120.03C429.77,-109.56 437.66,-96.4 443.55,-86.59"/>
<polygon fill="midnightblue" stroke="midnightblue" points="420.4,-118.36 418.26,-128.73 426.41,-121.96 420.4,-118.36"/>
</g>
</g>
</svg>
