<?xml version="1.0" encoding="UTF-8" standalone="no"?>
<!DOCTYPE svg PUBLIC "-//W3C//DTD SVG 1.1//EN"
 "http://www.w3.org/Graphics/SVG/1.1/DTD/svg11.dtd">
<!-- Generated by graphviz version 2.44.0 ()
 -->
<!-- Title: include/cppgc/custom&#45;space.h Pages: 1 -->
<svg width="399pt" height="285pt"
 viewBox="0.00 0.00 399.00 285.00" xmlns="http://www.w3.org/2000/svg" xmlns:xlink="http://www.w3.org/1999/xlink">
<g id="graph0" class="graph" transform="scale(1 1) rotate(0) translate(4 281)">
<title>include/cppgc/custom&#45;space.h</title>
<polygon fill="white" stroke="transparent" points="-4,4 -4,-281 395,-281 395,4 -4,4"/>
<!-- Node1 -->
<g id="node1" class="node">
<title>Node1</title>
<g id="a_node1"><a xlink:title=" ">
<polygon fill="#bfbfbf" stroke="black" points="54,-246.5 54,-276.5 166,-276.5 166,-246.5 54,-246.5"/>
<text text-anchor="start" x="62" y="-264.5" font-family="Helvetica,sans-Serif" font-size="10.00">include/cppgc/custom</text>
<text text-anchor="middle" x="110" y="-253.5" font-family="Helvetica,sans-Serif" font-size="10.00">&#45;space.h</text>
</a>
</g>
</g>
<!-- Node2 -->
<g id="node2" class="node">
<title>Node2</title>
<g id="a_node2"><a xlink:href="allocation_8h.html" target="_top" xlink:title=" ">
<polygon fill="white" stroke="black" points="0,-129 0,-148 128,-148 128,-129 0,-129"/>
<text text-anchor="middle" x="64" y="-136" font-family="Helvetica,sans-Serif" font-size="10.00">include/cppgc/allocation.h</text>
</a>
</g>
</g>
<!-- Node1&#45;&gt;Node2 -->
<g id="edge1" class="edge">
<title>Node1&#45;&gt;Node2</title>
<path fill="none" stroke="midnightblue" d="M100.59,-237.07C97.2,-228.56 93.39,-218.86 90,-210 81.52,-187.82 71.96,-161.55 67.14,-148.21"/>
<polygon fill="midnightblue" stroke="midnightblue" points="97.35,-238.4 104.31,-246.39 103.85,-235.8 97.35,-238.4"/>
</g>
<!-- Node3 -->
<g id="node3" class="node">
<title>Node3</title>
<g id="a_node3"><a xlink:href="heap_8h.html" target="_top" xlink:title=" ">
<polygon fill="white" stroke="black" points="99,-190.5 99,-209.5 207,-209.5 207,-190.5 99,-190.5"/>
<text text-anchor="middle" x="153" y="-197.5" font-family="Helvetica,sans-Serif" font-size="10.00">include/cppgc/heap.h</text>
</a>
</g>
</g>
<!-- Node1&#45;&gt;Node3 -->
<g id="edge2" class="edge">
<title>Node1&#45;&gt;Node3</title>
<path fill="none" stroke="midnightblue" d="M126.19,-238.1C133.35,-228.19 141.36,-217.11 146.74,-209.66"/>
<polygon fill="midnightblue" stroke="midnightblue" points="123.21,-236.24 120.19,-246.4 128.88,-240.34 123.21,-236.24"/>
</g>
<!-- Node3&#45;&gt;Node2 -->
<g id="edge3" class="edge">
<title>Node3&#45;&gt;Node2</title>
<path fill="none" stroke="midnightblue" d="M131.48,-184.61C114.36,-173.17 90.99,-157.55 76.73,-148.01"/>
<polygon fill="midnightblue" stroke="midnightblue" points="129.99,-187.83 140.25,-190.48 133.88,-182.01 129.99,-187.83"/>
</g>
<!-- Node4 -->
<g id="node4" class="node">
<title>Node4</title>
<g id="a_node4"><a xlink:href="prefinalizer-handler_8h.html" target="_top" xlink:title=" ">
<polygon fill="white" stroke="black" points="101.5,-56.5 101.5,-86.5 212.5,-86.5 212.5,-56.5 101.5,-56.5"/>
<text text-anchor="start" x="109.5" y="-74.5" font-family="Helvetica,sans-Serif" font-size="10.00">include/cppgc/internal</text>
<text text-anchor="middle" x="157" y="-63.5" font-family="Helvetica,sans-Serif" font-size="10.00">/prefinalizer&#45;handler.h</text>
</a>
</g>
</g>
<!-- Node3&#45;&gt;Node4 -->
<g id="edge4" class="edge">
<title>Node3&#45;&gt;Node4</title>
<path fill="none" stroke="midnightblue" d="M153.6,-180.11C154.4,-154.63 155.82,-109.81 156.55,-86.89"/>
<polygon fill="midnightblue" stroke="midnightblue" points="150.09,-180.2 153.27,-190.31 157.09,-180.42 150.09,-180.2"/>
</g>
<!-- Node6 -->
<g id="node6" class="node">
<title>Node6</title>
<g id="a_node6"><a xlink:href="liveness-broker_8h.html" target="_top" xlink:title=" ">
<polygon fill="white" stroke="black" points="184,-123.5 184,-153.5 300,-153.5 300,-123.5 184,-123.5"/>
<text text-anchor="start" x="192" y="-141.5" font-family="Helvetica,sans-Serif" font-size="10.00">include/cppgc/liveness</text>
<text text-anchor="middle" x="242" y="-130.5" font-family="Helvetica,sans-Serif" font-size="10.00">&#45;broker.h</text>
</a>
</g>
</g>
<!-- Node3&#45;&gt;Node6 -->
<g id="edge6" class="edge">
<title>Node3&#45;&gt;Node6</title>
<path fill="none" stroke="midnightblue" d="M174.33,-184.74C188.48,-175.28 206.95,-162.93 221.02,-153.52"/>
<polygon fill="midnightblue" stroke="midnightblue" points="172.12,-182.01 165.75,-190.48 176.01,-187.83 172.12,-182.01"/>
</g>
<!-- Node5 -->
<g id="node5" class="node">
<title>Node5</title>
<g id="a_node5"><a xlink:href="prefinalizer_8h.html" target="_top" xlink:title=" ">
<polygon fill="white" stroke="black" points="100.5,-0.5 100.5,-19.5 233.5,-19.5 233.5,-0.5 100.5,-0.5"/>
<text text-anchor="middle" x="167" y="-7.5" font-family="Helvetica,sans-Serif" font-size="10.00">include/cppgc/prefinalizer.h</text>
</a>
</g>
</g>
<!-- Node4&#45;&gt;Node5 -->
<g id="edge5" class="edge">
<title>Node4&#45;&gt;Node5</title>
<path fill="none" stroke="midnightblue" d="M161.07,-46.29C162.65,-36.86 164.37,-26.65 165.54,-19.66"/>
<polygon fill="midnightblue" stroke="midnightblue" points="157.58,-45.96 159.37,-56.4 164.48,-47.12 157.58,-45.96"/>
</g>
<!-- Node6&#45;&gt;Node4 -->
<g id="edge7" class="edge">
<title>Node6&#45;&gt;Node4</title>
<path fill="none" stroke="midnightblue" d="M215.41,-117.17C202.41,-107.23 187.1,-95.51 175.41,-86.58"/>
<polygon fill="midnightblue" stroke="midnightblue" points="213.49,-120.1 223.56,-123.4 217.74,-114.54 213.49,-120.1"/>
</g>
<!-- Node6&#45;&gt;Node5 -->
<g id="edge10" class="edge">
<title>Node6&#45;&gt;Node5</title>
<path fill="none" stroke="midnightblue" d="M239.72,-113.21C237.21,-96.13 231.96,-73.32 221,-56 211.21,-40.53 194.36,-27.74 182.07,-19.8"/>
<polygon fill="midnightblue" stroke="midnightblue" points="236.3,-114.01 241.01,-123.49 243.24,-113.14 236.3,-114.01"/>
</g>
<!-- Node7 -->
<g id="node7" class="node">
<title>Node7</title>
<g id="a_node7"><a xlink:href="visitor_8h.html" target="_top" xlink:title=" ">
<polygon fill="white" stroke="black" points="269.5,-62 269.5,-81 382.5,-81 382.5,-62 269.5,-62"/>
<text text-anchor="middle" x="326" y="-69" font-family="Helvetica,sans-Serif" font-size="10.00">include/cppgc/visitor.h</text>
</a>
</g>
</g>
<!-- Node6&#45;&gt;Node7 -->
<g id="edge8" class="edge">
<title>Node6&#45;&gt;Node7</title>
<path fill="none" stroke="midnightblue" d="M268.48,-117.01C284.08,-104.94 302.99,-90.3 314.76,-81.19"/>
<polygon fill="midnightblue" stroke="midnightblue" points="265.99,-114.51 260.23,-123.4 270.28,-120.04 265.99,-114.51"/>
</g>
<!-- Node8 -->
<g id="node8" class="node">
<title>Node8</title>
<g id="a_node8"><a xlink:href="persistent_8h.html" target="_top" xlink:title=" ">
<polygon fill="white" stroke="black" points="261,-0.5 261,-19.5 391,-19.5 391,-0.5 261,-0.5"/>
<text text-anchor="middle" x="326" y="-7.5" font-family="Helvetica,sans-Serif" font-size="10.00">include/cppgc/persistent.h</text>
</a>
</g>
</g>
<!-- Node7&#45;&gt;Node8 -->
<g id="edge9" class="edge">
<title>Node7&#45;&gt;Node8</title>
<path fill="none" stroke="midnightblue" d="M326,-51.82C326,-41 326,-27.9 326,-19.51"/>
<polygon fill="midnightblue" stroke="midnightblue" points="322.5,-51.98 326,-61.98 329.5,-51.98 322.5,-51.98"/>
</g>
</g>
</svg>
