<?xml version="1.0" encoding="UTF-8" standalone="no"?>
<!DOCTYPE svg PUBLIC "-//W3C//DTD SVG 1.1//EN"
 "http://www.w3.org/Graphics/SVG/1.1/DTD/svg11.dtd">
<!-- Generated by graphviz version 2.44.0 ()
 -->
<!-- Title: include/cppgc/garbage&#45;collected.h Pages: 1 -->
<svg width="477pt" height="218pt"
 viewBox="0.00 0.00 477.00 218.00" xmlns="http://www.w3.org/2000/svg" xmlns:xlink="http://www.w3.org/1999/xlink">
<g id="graph0" class="graph" transform="scale(1 1) rotate(0) translate(4 214)">
<title>include/cppgc/garbage&#45;collected.h</title>
<polygon fill="white" stroke="transparent" points="-4,4 -4,-214 473,-214 473,4 -4,4"/>
<!-- Node1 -->
<g id="node1" class="node">
<title>Node1</title>
<g id="a_node1"><a xlink:title=" ">
<polygon fill="#bfbfbf" stroke="black" points="165,-179.5 165,-209.5 279,-209.5 279,-179.5 165,-179.5"/>
<text text-anchor="start" x="173" y="-197.5" font-family="Helvetica,sans-Serif" font-size="10.00">include/cppgc/garbage</text>
<text text-anchor="middle" x="222" y="-186.5" font-family="Helvetica,sans-Serif" font-size="10.00">&#45;collected.h</text>
</a>
</g>
</g>
<!-- Node2 -->
<g id="node2" class="node">
<title>Node2</title>
<g id="a_node2"><a xlink:title=" ">
<polygon fill="white" stroke="#bfbfbf" points="0,-0.5 0,-19.5 62,-19.5 62,-0.5 0,-0.5"/>
<text text-anchor="middle" x="31" y="-7.5" font-family="Helvetica,sans-Serif" font-size="10.00">type_traits</text>
</a>
</g>
</g>
<!-- Node1&#45;&gt;Node2 -->
<g id="edge1" class="edge">
<title>Node1&#45;&gt;Node2</title>
<path fill="none" stroke="midnightblue" d="M164.79,-191.35C127.54,-186.8 80.85,-174.58 53,-143 25.04,-111.3 25.71,-57.99 28.44,-29.79"/>
<polygon fill="midnightblue" stroke="midnightblue" points="31.93,-30.03 29.61,-19.69 24.98,-29.22 31.93,-30.03"/>
</g>
<!-- Node3 -->
<g id="node3" class="node">
<title>Node3</title>
<g id="a_node3"><a xlink:href="api-constants_8h.html" target="_top" xlink:title=" ">
<polygon fill="white" stroke="black" points="315.5,-56.5 315.5,-86.5 408.5,-86.5 408.5,-56.5 315.5,-56.5"/>
<text text-anchor="start" x="323.5" y="-74.5" font-family="Helvetica,sans-Serif" font-size="10.00">cppgc/internal/api</text>
<text text-anchor="middle" x="362" y="-63.5" font-family="Helvetica,sans-Serif" font-size="10.00">&#45;constants.h</text>
</a>
</g>
</g>
<!-- Node1&#45;&gt;Node3 -->
<g id="edge2" class="edge">
<title>Node1&#45;&gt;Node3</title>
<path fill="none" stroke="midnightblue" d="M255.07,-179.34C273.15,-170.57 295.22,-158.1 312,-143 327.1,-129.42 340.21,-110.49 349.21,-95.67"/>
<polygon fill="midnightblue" stroke="midnightblue" points="352.48,-97.01 354.52,-86.61 346.44,-93.47 352.48,-97.01"/>
</g>
<!-- Node7 -->
<g id="node7" class="node">
<title>Node7</title>
<g id="a_node7"><a xlink:href="macros_8h.html" target="_top" xlink:title=" ">
<polygon fill="white" stroke="black" points="360,-123.5 360,-142.5 446,-142.5 446,-123.5 360,-123.5"/>
<text text-anchor="middle" x="403" y="-130.5" font-family="Helvetica,sans-Serif" font-size="10.00">cppgc/macros.h</text>
</a>
</g>
</g>
<!-- Node1&#45;&gt;Node7 -->
<g id="edge6" class="edge">
<title>Node1&#45;&gt;Node7</title>
<path fill="none" stroke="midnightblue" d="M264.89,-179.4C296.03,-169.16 337.69,-155.47 367.08,-145.81"/>
<polygon fill="midnightblue" stroke="midnightblue" points="368.52,-149.02 376.93,-142.57 366.33,-142.37 368.52,-149.02"/>
</g>
<!-- Node8 -->
<g id="node8" class="node">
<title>Node8</title>
<g id="a_node8"><a xlink:href="platform_8h.html" target="_top" xlink:title=" ">
<polygon fill="white" stroke="black" points="214.5,-123.5 214.5,-142.5 303.5,-142.5 303.5,-123.5 214.5,-123.5"/>
<text text-anchor="middle" x="259" y="-130.5" font-family="Helvetica,sans-Serif" font-size="10.00">cppgc/platform.h</text>
</a>
</g>
</g>
<!-- Node1&#45;&gt;Node8 -->
<g id="edge7" class="edge">
<title>Node1&#45;&gt;Node8</title>
<path fill="none" stroke="midnightblue" d="M230.77,-179.4C235.98,-171.02 242.63,-160.33 248.17,-151.42"/>
<polygon fill="midnightblue" stroke="midnightblue" points="251.31,-153 253.62,-142.66 245.36,-149.3 251.31,-153"/>
</g>
<!-- Node13 -->
<g id="node13" class="node">
<title>Node13</title>
<g id="a_node13"><a xlink:href="trace-trait_8h.html" target="_top" xlink:title=" ">
<polygon fill="white" stroke="black" points="62.5,-123.5 62.5,-142.5 157.5,-142.5 157.5,-123.5 62.5,-123.5"/>
<text text-anchor="middle" x="110" y="-130.5" font-family="Helvetica,sans-Serif" font-size="10.00">cppgc/trace&#45;trait.h</text>
</a>
</g>
</g>
<!-- Node1&#45;&gt;Node13 -->
<g id="edge16" class="edge">
<title>Node1&#45;&gt;Node13</title>
<path fill="none" stroke="midnightblue" d="M195.46,-179.4C177.34,-169.77 153.46,-157.09 135.56,-147.58"/>
<polygon fill="midnightblue" stroke="midnightblue" points="136.77,-144.26 126.3,-142.66 133.49,-150.44 136.77,-144.26"/>
</g>
<!-- Node14 -->
<g id="node14" class="node">
<title>Node14</title>
<g id="a_node14"><a xlink:href="type-traits_8h.html" target="_top" xlink:title=" ">
<polygon fill="white" stroke="black" points="97,-62 97,-81 193,-81 193,-62 97,-62"/>
<text text-anchor="middle" x="145" y="-69" font-family="Helvetica,sans-Serif" font-size="10.00">cppgc/type&#45;traits.h</text>
</a>
</g>
</g>
<!-- Node1&#45;&gt;Node14 -->
<g id="edge20" class="edge">
<title>Node1&#45;&gt;Node14</title>
<path fill="none" stroke="midnightblue" d="M212.86,-179.14C198.65,-156.81 171.28,-113.8 156,-89.79"/>
<polygon fill="midnightblue" stroke="midnightblue" points="158.76,-87.61 150.44,-81.05 152.86,-91.37 158.76,-87.61"/>
</g>
<!-- Node4 -->
<g id="node4" class="node">
<title>Node4</title>
<g id="a_node4"><a xlink:title=" ">
<polygon fill="white" stroke="#bfbfbf" points="273.5,-0.5 273.5,-19.5 324.5,-19.5 324.5,-0.5 273.5,-0.5"/>
<text text-anchor="middle" x="299" y="-7.5" font-family="Helvetica,sans-Serif" font-size="10.00">stddef.h</text>
</a>
</g>
</g>
<!-- Node3&#45;&gt;Node4 -->
<g id="edge3" class="edge">
<title>Node3&#45;&gt;Node4</title>
<path fill="none" stroke="midnightblue" d="M347.07,-56.4C337.63,-47.49 325.42,-35.95 315.67,-26.74"/>
<polygon fill="midnightblue" stroke="midnightblue" points="317.84,-23.98 308.17,-19.66 313.03,-29.07 317.84,-23.98"/>
</g>
<!-- Node5 -->
<g id="node5" class="node">
<title>Node5</title>
<g id="a_node5"><a xlink:title=" ">
<polygon fill="white" stroke="#bfbfbf" points="343,-0.5 343,-19.5 391,-19.5 391,-0.5 343,-0.5"/>
<text text-anchor="middle" x="367" y="-7.5" font-family="Helvetica,sans-Serif" font-size="10.00">stdint.h</text>
</a>
</g>
</g>
<!-- Node3&#45;&gt;Node5 -->
<g id="edge4" class="edge">
<title>Node3&#45;&gt;Node5</title>
<path fill="none" stroke="midnightblue" d="M363.18,-56.4C363.85,-48.47 364.69,-38.46 365.42,-29.86"/>
<polygon fill="midnightblue" stroke="midnightblue" points="368.92,-29.92 366.27,-19.66 361.95,-29.33 368.92,-29.92"/>
</g>
<!-- Node6 -->
<g id="node6" class="node">
<title>Node6</title>
<g id="a_node6"><a xlink:href="v8config_8h.html" target="_top" xlink:title=" ">
<polygon fill="white" stroke="black" points="409,-0.5 409,-19.5 469,-19.5 469,-0.5 409,-0.5"/>
<text text-anchor="middle" x="439" y="-7.5" font-family="Helvetica,sans-Serif" font-size="10.00">v8config.h</text>
</a>
</g>
</g>
<!-- Node3&#45;&gt;Node6 -->
<g id="edge5" class="edge">
<title>Node3&#45;&gt;Node6</title>
<path fill="none" stroke="midnightblue" d="M380.25,-56.4C392.13,-47.22 407.61,-35.26 419.69,-25.92"/>
<polygon fill="midnightblue" stroke="midnightblue" points="422.02,-28.54 427.8,-19.66 417.74,-23 422.02,-28.54"/>
</g>
<!-- Node8&#45;&gt;Node6 -->
<g id="edge15" class="edge">
<title>Node8&#45;&gt;Node6</title>
<path fill="none" stroke="midnightblue" d="M303.68,-130.84C339.28,-127.52 387.97,-117.22 418,-87 432.97,-71.93 437.51,-47.2 438.76,-30.07"/>
<polygon fill="midnightblue" stroke="midnightblue" points="442.28,-29.76 439.19,-19.62 435.28,-29.47 442.28,-29.76"/>
</g>
<!-- Node9 -->
<g id="node9" class="node">
<title>Node9</title>
<g id="a_node9"><a xlink:href="v8-platform_8h.html" target="_top" xlink:title=" ">
<polygon fill="white" stroke="black" points="222.5,-62 222.5,-81 295.5,-81 295.5,-62 222.5,-62"/>
<text text-anchor="middle" x="259" y="-69" font-family="Helvetica,sans-Serif" font-size="10.00">v8&#45;platform.h</text>
</a>
</g>
</g>
<!-- Node8&#45;&gt;Node9 -->
<g id="edge8" class="edge">
<title>Node8&#45;&gt;Node9</title>
<path fill="none" stroke="midnightblue" d="M259,-123.48C259,-115.08 259,-101.98 259,-91.16"/>
<polygon fill="midnightblue" stroke="midnightblue" points="262.5,-91.01 259,-81.01 255.5,-91.01 262.5,-91.01"/>
</g>
<!-- Node9&#45;&gt;Node4 -->
<g id="edge9" class="edge">
<title>Node9&#45;&gt;Node4</title>
<path fill="none" stroke="midnightblue" d="M264.73,-61.98C270.67,-53.14 280.12,-39.09 287.59,-27.98"/>
<polygon fill="midnightblue" stroke="midnightblue" points="290.61,-29.76 293.28,-19.51 284.8,-25.86 290.61,-29.76"/>
</g>
<!-- Node9&#45;&gt;Node5 -->
<g id="edge10" class="edge">
<title>Node9&#45;&gt;Node5</title>
<path fill="none" stroke="midnightblue" d="M274.47,-61.98C292.28,-52.17 321.74,-35.93 342.63,-24.42"/>
<polygon fill="midnightblue" stroke="midnightblue" points="344.49,-27.4 351.55,-19.51 341.11,-21.27 344.49,-27.4"/>
</g>
<!-- Node9&#45;&gt;Node6 -->
<g id="edge14" class="edge">
<title>Node9&#45;&gt;Node6</title>
<path fill="none" stroke="midnightblue" d="M284.79,-61.98C315.93,-51.68 368.48,-34.31 403.45,-22.75"/>
<polygon fill="midnightblue" stroke="midnightblue" points="404.86,-25.97 413.26,-19.51 402.66,-19.32 404.86,-25.97"/>
</g>
<!-- Node10 -->
<g id="node10" class="node">
<title>Node10</title>
<g id="a_node10"><a xlink:title=" ">
<polygon fill="white" stroke="#bfbfbf" points="139.5,-0.5 139.5,-19.5 186.5,-19.5 186.5,-0.5 139.5,-0.5"/>
<text text-anchor="middle" x="163" y="-7.5" font-family="Helvetica,sans-Serif" font-size="10.00">stdlib.h</text>
</a>
</g>
</g>
<!-- Node9&#45;&gt;Node10 -->
<g id="edge11" class="edge">
<title>Node9&#45;&gt;Node10</title>
<path fill="none" stroke="midnightblue" d="M245.25,-61.98C229.63,-52.3 203.94,-36.37 185.42,-24.89"/>
<polygon fill="midnightblue" stroke="midnightblue" points="187.07,-21.8 176.73,-19.51 183.38,-27.75 187.07,-21.8"/>
</g>
<!-- Node11 -->
<g id="node11" class="node">
<title>Node11</title>
<g id="a_node11"><a xlink:title=" ">
<polygon fill="white" stroke="#bfbfbf" points="204.5,-0.5 204.5,-19.5 255.5,-19.5 255.5,-0.5 204.5,-0.5"/>
<text text-anchor="middle" x="230" y="-7.5" font-family="Helvetica,sans-Serif" font-size="10.00">memory</text>
</a>
</g>
</g>
<!-- Node9&#45;&gt;Node11 -->
<g id="edge12" class="edge">
<title>Node9&#45;&gt;Node11</title>
<path fill="none" stroke="midnightblue" d="M254.85,-61.98C250.62,-53.32 243.96,-39.65 238.6,-28.65"/>
<polygon fill="midnightblue" stroke="midnightblue" points="241.67,-26.96 234.15,-19.51 235.38,-30.03 241.67,-26.96"/>
</g>
<!-- Node12 -->
<g id="node12" class="node">
<title>Node12</title>
<g id="a_node12"><a xlink:title=" ">
<polygon fill="white" stroke="#bfbfbf" points="80.5,-0.5 80.5,-19.5 121.5,-19.5 121.5,-0.5 80.5,-0.5"/>
<text text-anchor="middle" x="101" y="-7.5" font-family="Helvetica,sans-Serif" font-size="10.00">string</text>
</a>
</g>
</g>
<!-- Node9&#45;&gt;Node12 -->
<g id="edge13" class="edge">
<title>Node9&#45;&gt;Node12</title>
<path fill="none" stroke="midnightblue" d="M236.36,-61.98C208.76,-51.58 162.02,-33.98 131.33,-22.42"/>
<polygon fill="midnightblue" stroke="midnightblue" points="132.18,-19 121.58,-18.75 129.71,-25.55 132.18,-19"/>
</g>
<!-- Node13&#45;&gt;Node2 -->
<g id="edge17" class="edge">
<title>Node13&#45;&gt;Node2</title>
<path fill="none" stroke="midnightblue" d="M104.32,-123.3C91.34,-103.41 59.3,-54.35 42.2,-28.15"/>
<polygon fill="midnightblue" stroke="midnightblue" points="45.03,-26.08 36.63,-19.62 39.17,-29.91 45.03,-26.08"/>
</g>
<!-- Node13&#45;&gt;Node14 -->
<g id="edge18" class="edge">
<title>Node13&#45;&gt;Node14</title>
<path fill="none" stroke="midnightblue" d="M115.01,-123.48C120.16,-114.73 128.31,-100.87 134.82,-89.81"/>
<polygon fill="midnightblue" stroke="midnightblue" points="137.94,-91.4 139.99,-81.01 131.91,-87.85 137.94,-91.4"/>
</g>
<!-- Node14&#45;&gt;Node2 -->
<g id="edge19" class="edge">
<title>Node14&#45;&gt;Node2</title>
<path fill="none" stroke="midnightblue" d="M128.67,-61.98C109.79,-52.12 78.49,-35.79 56.42,-24.27"/>
<polygon fill="midnightblue" stroke="midnightblue" points="57.79,-21.03 47.3,-19.51 54.55,-27.24 57.79,-21.03"/>
</g>
</g>
</svg>
