<?xml version="1.0" encoding="UTF-8" standalone="no"?>
<!DOCTYPE svg PUBLIC "-//W3C//DTD SVG 1.1//EN"
 "http://www.w3.org/Graphics/SVG/1.1/DTD/svg11.dtd">
<!-- Generated by graphviz version 2.44.0 ()
 -->
<!-- Title: Graphical Class Hierarchy Pages: 1 -->
<svg width="433pt" height="296pt"
 viewBox="0.00 0.00 433.00 295.50" xmlns="http://www.w3.org/2000/svg" xmlns:xlink="http://www.w3.org/1999/xlink">
<g id="graph0" class="graph" transform="scale(1 1) rotate(0) translate(4 291.5)">
<title>Graphical Class Hierarchy</title>
<polygon fill="white" stroke="transparent" points="-4,4 -4,-291.5 429,-291.5 429,4 -4,4"/>
<!-- Node216 -->
<g id="node1" class="node">
<title>Node216</title>
<g id="a_node1"><a xlink:title=" ">
<polygon fill="white" stroke="#bfbfbf" points="0,-118 0,-137 61,-137 61,-118 0,-118"/>
<text text-anchor="middle" x="30.5" y="-125" font-family="Helvetica,sans-Serif" font-size="10.00">false_type</text>
</a>
</g>
</g>
<!-- Node0 -->
<g id="node2" class="node">
<title>Node0</title>
<g id="a_node2"><a xlink:href="structcppgc_1_1internal_1_1HasFinalizeGarbageCollectedObject.html" target="_top" xlink:title=" ">
<polygon fill="white" stroke="black" points="102,-246 102,-287 236,-287 236,-246 102,-246"/>
<text text-anchor="start" x="110" y="-275" font-family="Helvetica,sans-Serif" font-size="10.00">cppgc::internal::HasFinalize</text>
<text text-anchor="start" x="110" y="-264" font-family="Helvetica,sans-Serif" font-size="10.00">GarbageCollectedObject&lt;</text>
<text text-anchor="middle" x="169" y="-253" font-family="Helvetica,sans-Serif" font-size="10.00"> T, typename &gt;</text>
</a>
</g>
</g>
<!-- Node216&#45;&gt;Node0 -->
<g id="edge1" class="edge">
<title>Node216&#45;&gt;Node0</title>
<path fill="none" stroke="midnightblue" d="M38.54,-146.41C48.3,-170.32 68.1,-211.42 97,-236.5 101.04,-240.01 105.56,-243.15 110.29,-245.96"/>
<polygon fill="midnightblue" stroke="midnightblue" points="41.77,-145.06 34.86,-137.02 35.25,-147.61 41.77,-145.06"/>
</g>
<!-- Node218 -->
<g id="node3" class="node">
<title>Node218</title>
<g id="a_node3"><a xlink:href="structcppgc_1_1internal_1_1IsGarbageCollectedMixinType.html" target="_top" xlink:title=" ">
<polygon fill="white" stroke="black" points="105,-186 105,-227 233,-227 233,-186 105,-186"/>
<text text-anchor="start" x="113" y="-215" font-family="Helvetica,sans-Serif" font-size="10.00">cppgc::internal::IsGarbage</text>
<text text-anchor="start" x="113" y="-204" font-family="Helvetica,sans-Serif" font-size="10.00">CollectedMixinType&lt; T,</text>
<text text-anchor="middle" x="169" y="-193" font-family="Helvetica,sans-Serif" font-size="10.00"> typename &gt;</text>
</a>
</g>
</g>
<!-- Node216&#45;&gt;Node218 -->
<g id="edge2" class="edge">
<title>Node216&#45;&gt;Node218</title>
<path fill="none" stroke="midnightblue" d="M50.37,-144.05C62.97,-154.55 80.25,-167.91 97,-177.5 102.2,-180.48 107.77,-183.3 113.41,-185.94"/>
<polygon fill="midnightblue" stroke="midnightblue" points="52.34,-141.13 42.45,-137.32 47.8,-146.46 52.34,-141.13"/>
</g>
<!-- Node219 -->
<g id="node4" class="node">
<title>Node219</title>
<g id="a_node4"><a xlink:href="structcppgc_1_1internal_1_1IsTraceable.html" target="_top" xlink:title=" ">
<polygon fill="white" stroke="black" points="102,-137.5 102,-167.5 236,-167.5 236,-137.5 102,-137.5"/>
<text text-anchor="start" x="110" y="-155.5" font-family="Helvetica,sans-Serif" font-size="10.00">cppgc::internal::IsTraceable</text>
<text text-anchor="middle" x="169" y="-144.5" font-family="Helvetica,sans-Serif" font-size="10.00">&lt; T, typename &gt;</text>
</a>
</g>
</g>
<!-- Node216&#45;&gt;Node219 -->
<g id="edge3" class="edge">
<title>Node216&#45;&gt;Node219</title>
<path fill="none" stroke="midnightblue" d="M71.13,-134.76C80.74,-136.52 91.27,-138.45 101.74,-140.36"/>
<polygon fill="midnightblue" stroke="midnightblue" points="71.59,-131.28 61.12,-132.92 70.32,-138.17 71.59,-131.28"/>
</g>
<!-- Node220 -->
<g id="node5" class="node">
<title>Node220</title>
<g id="a_node5"><a xlink:href="structcppgc_1_1internal_1_1IsTraceMethodConst.html" target="_top" xlink:title=" ">
<polygon fill="white" stroke="black" points="97,-88.5 97,-118.5 241,-118.5 241,-88.5 97,-88.5"/>
<text text-anchor="start" x="105" y="-106.5" font-family="Helvetica,sans-Serif" font-size="10.00">cppgc::internal::IsTrace</text>
<text text-anchor="middle" x="169" y="-95.5" font-family="Helvetica,sans-Serif" font-size="10.00">MethodConst&lt; T, typename &gt;</text>
</a>
</g>
</g>
<!-- Node216&#45;&gt;Node220 -->
<g id="edge4" class="edge">
<title>Node216&#45;&gt;Node220</title>
<path fill="none" stroke="midnightblue" d="M71.07,-120.54C79.24,-119.11 88.08,-117.55 96.99,-115.99"/>
<polygon fill="midnightblue" stroke="midnightblue" points="70.36,-117.11 61.12,-122.29 71.57,-124.01 70.36,-117.11"/>
</g>
<!-- Node221 -->
<g id="node6" class="node">
<title>Node221</title>
<g id="a_node6"><a xlink:href="structcppgc_1_1internal_1_1IsWeak.html" target="_top" xlink:title=" ">
<polygon fill="white" stroke="black" points="99.5,-50 99.5,-69 238.5,-69 238.5,-50 99.5,-50"/>
<text text-anchor="middle" x="169" y="-57" font-family="Helvetica,sans-Serif" font-size="10.00">cppgc::internal::IsWeak&lt; T &gt;</text>
</a>
</g>
</g>
<!-- Node216&#45;&gt;Node221 -->
<g id="edge5" class="edge">
<title>Node216&#45;&gt;Node221</title>
<path fill="none" stroke="midnightblue" d="M50.13,-111.03C62.64,-100.71 79.91,-87.83 97,-79.5 105.63,-75.29 115.3,-71.83 124.66,-69.05"/>
<polygon fill="midnightblue" stroke="midnightblue" points="47.66,-108.54 42.29,-117.68 52.18,-113.88 47.66,-108.54"/>
</g>
<!-- Node222 -->
<g id="node7" class="node">
<title>Node222</title>
<g id="a_node7"><a xlink:href="structcppgc_1_1internal_1_1IsGarbageCollectedMixinType.html" target="_top" xlink:title=" ">
<polygon fill="white" stroke="black" points="105,-0.5 105,-30.5 233,-30.5 233,-0.5 105,-0.5"/>
<text text-anchor="start" x="113" y="-18.5" font-family="Helvetica,sans-Serif" font-size="10.00">cppgc::internal::IsGarbage</text>
<text text-anchor="middle" x="169" y="-7.5" font-family="Helvetica,sans-Serif" font-size="10.00">CollectedMixinType&lt; T &gt;</text>
</a>
</g>
</g>
<!-- Node216&#45;&gt;Node222 -->
<g id="edge6" class="edge">
<title>Node216&#45;&gt;Node222</title>
<path fill="none" stroke="midnightblue" d="M41.05,-109.05C52.08,-89.46 71.94,-58.85 97,-40.5 102.27,-36.64 108.19,-33.33 114.31,-30.51"/>
<polygon fill="midnightblue" stroke="midnightblue" points="37.93,-107.47 36.24,-117.93 44.09,-110.81 37.93,-107.47"/>
</g>
<!-- Node223 -->
<g id="node8" class="node">
<title>Node223</title>
<g id="a_node8"><a xlink:href="structcppgc_1_1internal_1_1IsGarbageCollectedType.html" target="_top" xlink:title=" ">
<polygon fill="white" stroke="black" points="277,-0.5 277,-30.5 425,-30.5 425,-0.5 277,-0.5"/>
<text text-anchor="start" x="285" y="-18.5" font-family="Helvetica,sans-Serif" font-size="10.00">cppgc::internal::IsGarbage</text>
<text text-anchor="middle" x="351" y="-7.5" font-family="Helvetica,sans-Serif" font-size="10.00">CollectedType&lt; T, typename &gt;</text>
</a>
</g>
</g>
<!-- Node222&#45;&gt;Node223 -->
<g id="edge7" class="edge">
<title>Node222&#45;&gt;Node223</title>
<path fill="none" stroke="midnightblue" d="M243.25,-15.5C254.31,-15.5 265.72,-15.5 276.78,-15.5"/>
<polygon fill="midnightblue" stroke="midnightblue" points="243.21,-12 233.21,-15.5 243.21,-19 243.21,-12"/>
</g>
</g>
</svg>
