<?xml version="1.0" encoding="UTF-8" standalone="no"?>
<!DOCTYPE svg PUBLIC "-//W3C//DTD SVG 1.1//EN"
 "http://www.w3.org/Graphics/SVG/1.1/DTD/svg11.dtd">
<!-- Generated by graphviz version 2.44.0 ()
 -->
<!-- Title: include/cppgc/liveness&#45;broker.h Pages: 1 -->
<svg width="904pt" height="274pt"
 viewBox="0.00 0.00 904.17 274.00" xmlns="http://www.w3.org/2000/svg" xmlns:xlink="http://www.w3.org/1999/xlink">
<g id="graph0" class="graph" transform="scale(1 1) rotate(0) translate(4 270)">
<title>include/cppgc/liveness&#45;broker.h</title>
<polygon fill="white" stroke="transparent" points="-4,4 -4,-270 900.17,-270 900.17,4 -4,4"/>
<!-- Node1 -->
<g id="node1" class="node">
<title>Node1</title>
<g id="a_node1"><a xlink:title=" ">
<polygon fill="#bfbfbf" stroke="black" points="456,-235.5 456,-265.5 572,-265.5 572,-235.5 456,-235.5"/>
<text text-anchor="start" x="464" y="-253.5" font-family="Helvetica,sans-Serif" font-size="10.00">include/cppgc/liveness</text>
<text text-anchor="middle" x="514" y="-242.5" font-family="Helvetica,sans-Serif" font-size="10.00">&#45;broker.h</text>
</a>
</g>
</g>
<!-- Node2 -->
<g id="node2" class="node">
<title>Node2</title>
<g id="a_node2"><a xlink:href="heap_8h.html" target="_top" xlink:title=" ">
<polygon fill="white" stroke="black" points="240,-118 240,-137 314,-137 314,-118 240,-118"/>
<text text-anchor="middle" x="277" y="-125" font-family="Helvetica,sans-Serif" font-size="10.00">cppgc/heap.h</text>
</a>
</g>
</g>
<!-- Node1&#45;&gt;Node2 -->
<g id="edge1" class="edge">
<title>Node1&#45;&gt;Node2</title>
<path fill="none" stroke="midnightblue" d="M483.19,-235.31C461.93,-225.4 433.09,-211.72 408,-199 370.45,-179.97 327.62,-156.59 301.45,-142.12"/>
<polygon fill="midnightblue" stroke="midnightblue" points="303.04,-139 292.6,-137.22 299.65,-145.13 303.04,-139"/>
</g>
<!-- Node6 -->
<g id="node6" class="node">
<title>Node6</title>
<g id="a_node6"><a xlink:href="v8config_8h.html" target="_top" xlink:title=" ">
<polygon fill="white" stroke="black" points="411,-0.5 411,-19.5 471,-19.5 471,-0.5 411,-0.5"/>
<text text-anchor="middle" x="441" y="-7.5" font-family="Helvetica,sans-Serif" font-size="10.00">v8config.h</text>
</a>
</g>
</g>
<!-- Node1&#45;&gt;Node6 -->
<g id="edge26" class="edge">
<title>Node1&#45;&gt;Node6</title>
<path fill="none" stroke="midnightblue" d="M504.41,-235.33C491.41,-215.5 468.29,-177.97 455,-143 444.16,-114.47 443.35,-106.33 440,-76 438.29,-60.56 438.71,-42.92 439.46,-29.92"/>
<polygon fill="midnightblue" stroke="midnightblue" points="442.96,-30.08 440.16,-19.86 435.98,-29.6 442.96,-30.08"/>
</g>
<!-- Node9 -->
<g id="node9" class="node">
<title>Node9</title>
<g id="a_node9"><a xlink:href="member_8h.html" target="_top" xlink:title=" ">
<polygon fill="white" stroke="black" points="562.5,-179.5 562.5,-198.5 651.5,-198.5 651.5,-179.5 562.5,-179.5"/>
<text text-anchor="middle" x="607" y="-186.5" font-family="Helvetica,sans-Serif" font-size="10.00">cppgc/member.h</text>
</a>
</g>
</g>
<!-- Node1&#45;&gt;Node9 -->
<g id="edge9" class="edge">
<title>Node1&#45;&gt;Node9</title>
<path fill="none" stroke="midnightblue" d="M536.04,-235.4C550.81,-225.95 570.18,-213.56 584.95,-204.11"/>
<polygon fill="midnightblue" stroke="midnightblue" points="586.93,-207 593.47,-198.66 583.16,-201.1 586.93,-207"/>
</g>
<!-- Node18 -->
<g id="node18" class="node">
<title>Node18</title>
<g id="a_node18"><a xlink:href="trace-trait_8h.html" target="_top" xlink:title=" ">
<polygon fill="white" stroke="black" points="786.5,-179.5 786.5,-198.5 881.5,-198.5 881.5,-179.5 786.5,-179.5"/>
<text text-anchor="middle" x="834" y="-186.5" font-family="Helvetica,sans-Serif" font-size="10.00">cppgc/trace&#45;trait.h</text>
</a>
</g>
</g>
<!-- Node1&#45;&gt;Node18 -->
<g id="edge23" class="edge">
<title>Node1&#45;&gt;Node18</title>
<path fill="none" stroke="midnightblue" d="M572.32,-238.66C630.82,-227.78 720.29,-211.14 777.97,-200.42"/>
<polygon fill="midnightblue" stroke="midnightblue" points="778.81,-203.82 788,-198.55 777.53,-196.94 778.81,-203.82"/>
</g>
<!-- Node3 -->
<g id="node3" class="node">
<title>Node3</title>
<g id="a_node3"><a xlink:title=" ">
<polygon fill="white" stroke="#bfbfbf" points="342.5,-56.5 342.5,-75.5 393.5,-75.5 393.5,-56.5 342.5,-56.5"/>
<text text-anchor="middle" x="368" y="-63.5" font-family="Helvetica,sans-Serif" font-size="10.00">memory</text>
</a>
</g>
</g>
<!-- Node2&#45;&gt;Node3 -->
<g id="edge2" class="edge">
<title>Node2&#45;&gt;Node3</title>
<path fill="none" stroke="midnightblue" d="M290.04,-117.98C304.77,-108.34 328.97,-92.52 346.51,-81.05"/>
<polygon fill="midnightblue" stroke="midnightblue" points="348.53,-83.91 354.99,-75.51 344.7,-78.05 348.53,-83.91"/>
</g>
<!-- Node4 -->
<g id="node4" class="node">
<title>Node4</title>
<g id="a_node4"><a xlink:title=" ">
<polygon fill="white" stroke="#bfbfbf" points="0,-56.5 0,-75.5 44,-75.5 44,-56.5 0,-56.5"/>
<text text-anchor="middle" x="22" y="-63.5" font-family="Helvetica,sans-Serif" font-size="10.00">vector</text>
</a>
</g>
</g>
<!-- Node2&#45;&gt;Node4 -->
<g id="edge3" class="edge">
<title>Node2&#45;&gt;Node4</title>
<path fill="none" stroke="midnightblue" d="M239.78,-118.99C197.01,-110.17 124.53,-94.66 54.15,-76.45"/>
<polygon fill="midnightblue" stroke="midnightblue" points="54.79,-73 44.23,-73.86 53.02,-79.77 54.79,-73"/>
</g>
<!-- Node5 -->
<g id="node5" class="node">
<title>Node5</title>
<g id="a_node5"><a xlink:href="common_8h.html" target="_top" xlink:title=" ">
<polygon fill="white" stroke="black" points="194.5,-56.5 194.5,-75.5 285.5,-75.5 285.5,-56.5 194.5,-56.5"/>
<text text-anchor="middle" x="240" y="-63.5" font-family="Helvetica,sans-Serif" font-size="10.00">cppgc/common.h</text>
</a>
</g>
</g>
<!-- Node2&#45;&gt;Node5 -->
<g id="edge4" class="edge">
<title>Node2&#45;&gt;Node5</title>
<path fill="none" stroke="midnightblue" d="M271.7,-117.98C266.26,-109.23 257.64,-95.37 250.76,-84.31"/>
<polygon fill="midnightblue" stroke="midnightblue" points="253.54,-82.15 245.29,-75.51 247.6,-85.85 253.54,-82.15"/>
</g>
<!-- Node2&#45;&gt;Node6 -->
<g id="edge8" class="edge">
<title>Node2&#45;&gt;Node6</title>
<path fill="none" stroke="midnightblue" d="M281.79,-117.97C290.34,-103.43 309.56,-73.72 333,-56 353.38,-40.6 379.79,-29.47 401.4,-22.13"/>
<polygon fill="midnightblue" stroke="midnightblue" points="402.52,-25.45 410.95,-19.03 400.36,-18.79 402.52,-25.45"/>
</g>
<!-- Node7 -->
<g id="node7" class="node">
<title>Node7</title>
<g id="a_node7"><a xlink:href="custom-space_8h.html" target="_top" xlink:title=" ">
<polygon fill="white" stroke="black" points="61.5,-56.5 61.5,-75.5 176.5,-75.5 176.5,-56.5 61.5,-56.5"/>
<text text-anchor="middle" x="119" y="-63.5" font-family="Helvetica,sans-Serif" font-size="10.00">cppgc/custom&#45;space.h</text>
</a>
</g>
</g>
<!-- Node2&#45;&gt;Node7 -->
<g id="edge6" class="edge">
<title>Node2&#45;&gt;Node7</title>
<path fill="none" stroke="midnightblue" d="M254.36,-117.98C227.26,-107.77 181.69,-90.61 151,-79.05"/>
<polygon fill="midnightblue" stroke="midnightblue" points="152.19,-75.76 141.6,-75.51 149.72,-82.31 152.19,-75.76"/>
</g>
<!-- Node5&#45;&gt;Node6 -->
<g id="edge5" class="edge">
<title>Node5&#45;&gt;Node6</title>
<path fill="none" stroke="midnightblue" d="M271.85,-56.44C306.91,-47.03 363.31,-31.87 401.24,-21.68"/>
<polygon fill="midnightblue" stroke="midnightblue" points="402.19,-25.05 410.94,-19.08 400.38,-18.29 402.19,-25.05"/>
</g>
<!-- Node8 -->
<g id="node8" class="node">
<title>Node8</title>
<g id="a_node8"><a xlink:title=" ">
<polygon fill="white" stroke="#bfbfbf" points="93.5,-0.5 93.5,-19.5 144.5,-19.5 144.5,-0.5 93.5,-0.5"/>
<text text-anchor="middle" x="119" y="-7.5" font-family="Helvetica,sans-Serif" font-size="10.00">stddef.h</text>
</a>
</g>
</g>
<!-- Node7&#45;&gt;Node8 -->
<g id="edge7" class="edge">
<title>Node7&#45;&gt;Node8</title>
<path fill="none" stroke="midnightblue" d="M119,-56.08C119,-49.01 119,-38.86 119,-29.99"/>
<polygon fill="midnightblue" stroke="midnightblue" points="122.5,-29.75 119,-19.75 115.5,-29.75 122.5,-29.75"/>
</g>
<!-- Node9&#45;&gt;Node6 -->
<g id="edge22" class="edge">
<title>Node9&#45;&gt;Node6</title>
<path fill="none" stroke="midnightblue" d="M562.26,-182.72C534.72,-177.21 500.67,-165.95 479,-143 449.22,-111.45 442.58,-58.07 441.22,-29.83"/>
<polygon fill="midnightblue" stroke="midnightblue" points="444.72,-29.6 440.92,-19.71 437.72,-29.81 444.72,-29.6"/>
</g>
<!-- Node10 -->
<g id="node10" class="node">
<title>Node10</title>
<g id="a_node10"><a xlink:title=" ">
<polygon fill="white" stroke="#bfbfbf" points="488,-118 488,-137 534,-137 534,-118 488,-118"/>
<text text-anchor="middle" x="511" y="-125" font-family="Helvetica,sans-Serif" font-size="10.00">atomic</text>
</a>
</g>
</g>
<!-- Node9&#45;&gt;Node10 -->
<g id="edge10" class="edge">
<title>Node9&#45;&gt;Node10</title>
<path fill="none" stroke="midnightblue" d="M593.25,-179.48C577.63,-169.8 551.94,-153.87 533.42,-142.39"/>
<polygon fill="midnightblue" stroke="midnightblue" points="535.07,-139.3 524.73,-137.01 531.38,-145.25 535.07,-139.3"/>
</g>
<!-- Node11 -->
<g id="node11" class="node">
<title>Node11</title>
<g id="a_node11"><a xlink:title=" ">
<polygon fill="white" stroke="#bfbfbf" points="680.5,-118 680.5,-137 729.5,-137 729.5,-118 680.5,-118"/>
<text text-anchor="middle" x="705" y="-125" font-family="Helvetica,sans-Serif" font-size="10.00">cstddef</text>
</a>
</g>
</g>
<!-- Node9&#45;&gt;Node11 -->
<g id="edge11" class="edge">
<title>Node9&#45;&gt;Node11</title>
<path fill="none" stroke="midnightblue" d="M621.04,-179.48C637.05,-169.75 663.45,-153.73 682.37,-142.24"/>
<polygon fill="midnightblue" stroke="midnightblue" points="684.25,-145.19 690.99,-137.01 680.62,-139.21 684.25,-145.19"/>
</g>
<!-- Node12 -->
<g id="node12" class="node">
<title>Node12</title>
<g id="a_node12"><a xlink:title=" ">
<polygon fill="white" stroke="#bfbfbf" points="766,-56.5 766,-75.5 828,-75.5 828,-56.5 766,-56.5"/>
<text text-anchor="middle" x="797" y="-63.5" font-family="Helvetica,sans-Serif" font-size="10.00">type_traits</text>
</a>
</g>
</g>
<!-- Node9&#45;&gt;Node12 -->
<g id="edge12" class="edge">
<title>Node9&#45;&gt;Node12</title>
<path fill="none" stroke="midnightblue" d="M651.65,-179.69C678.77,-173.05 713.06,-161.67 739,-143 760.51,-127.52 777.75,-101.79 787.68,-84.61"/>
<polygon fill="midnightblue" stroke="midnightblue" points="790.87,-86.07 792.66,-75.63 784.75,-82.68 790.87,-86.07"/>
</g>
<!-- Node13 -->
<g id="node13" class="node">
<title>Node13</title>
<g id="a_node13"><a xlink:href="pointer-policies_8h.html" target="_top" xlink:title=" ">
<polygon fill="white" stroke="black" points="552,-112.5 552,-142.5 662,-142.5 662,-112.5 552,-112.5"/>
<text text-anchor="start" x="560" y="-130.5" font-family="Helvetica,sans-Serif" font-size="10.00">cppgc/internal/pointer</text>
<text text-anchor="middle" x="607" y="-119.5" font-family="Helvetica,sans-Serif" font-size="10.00">&#45;policies.h</text>
</a>
</g>
</g>
<!-- Node9&#45;&gt;Node13 -->
<g id="edge13" class="edge">
<title>Node9&#45;&gt;Node13</title>
<path fill="none" stroke="midnightblue" d="M607,-179.48C607,-172.47 607,-162.19 607,-152.7"/>
<polygon fill="midnightblue" stroke="midnightblue" points="610.5,-152.52 607,-142.52 603.5,-152.52 610.5,-152.52"/>
</g>
<!-- Node17 -->
<g id="node17" class="node">
<title>Node17</title>
<g id="a_node17"><a xlink:href="type-traits_8h.html" target="_top" xlink:title=" ">
<polygon fill="white" stroke="black" points="786,-118 786,-137 882,-137 882,-118 786,-118"/>
<text text-anchor="middle" x="834" y="-125" font-family="Helvetica,sans-Serif" font-size="10.00">cppgc/type&#45;traits.h</text>
</a>
</g>
</g>
<!-- Node9&#45;&gt;Node17 -->
<g id="edge20" class="edge">
<title>Node9&#45;&gt;Node17</title>
<path fill="none" stroke="midnightblue" d="M639.52,-179.48C679.56,-168.98 747.64,-151.14 791.7,-139.59"/>
<polygon fill="midnightblue" stroke="midnightblue" points="792.75,-142.93 801.54,-137.01 790.98,-136.16 792.75,-142.93"/>
</g>
<!-- Node13&#45;&gt;Node6 -->
<g id="edge19" class="edge">
<title>Node13&#45;&gt;Node6</title>
<path fill="none" stroke="midnightblue" d="M597.09,-112.44C585.56,-96.93 565.26,-72.05 543,-56 523.3,-41.8 498.41,-30.71 478.15,-23.09"/>
<polygon fill="midnightblue" stroke="midnightblue" points="479.21,-19.75 468.62,-19.63 476.82,-26.33 479.21,-19.75"/>
</g>
<!-- Node13&#45;&gt;Node12 -->
<g id="edge15" class="edge">
<title>Node13&#45;&gt;Node12</title>
<path fill="none" stroke="midnightblue" d="M652.03,-112.4C684.86,-102.12 728.82,-88.35 759.7,-78.68"/>
<polygon fill="midnightblue" stroke="midnightblue" points="761.13,-81.9 769.63,-75.57 759.04,-75.22 761.13,-81.9"/>
</g>
<!-- Node14 -->
<g id="node14" class="node">
<title>Node14</title>
<g id="a_node14"><a xlink:title=" ">
<polygon fill="white" stroke="#bfbfbf" points="488,-56.5 488,-75.5 534,-75.5 534,-56.5 488,-56.5"/>
<text text-anchor="middle" x="511" y="-63.5" font-family="Helvetica,sans-Serif" font-size="10.00">cstdint</text>
</a>
</g>
</g>
<!-- Node13&#45;&gt;Node14 -->
<g id="edge14" class="edge">
<title>Node13&#45;&gt;Node14</title>
<path fill="none" stroke="midnightblue" d="M584.25,-112.4C569.01,-102.95 549.01,-90.56 533.76,-81.11"/>
<polygon fill="midnightblue" stroke="midnightblue" points="535.31,-77.95 524.97,-75.66 531.62,-83.9 535.31,-77.95"/>
</g>
<!-- Node15 -->
<g id="node15" class="node">
<title>Node15</title>
<g id="a_node15"><a xlink:href="source-location_8h.html" target="_top" xlink:title=" ">
<polygon fill="white" stroke="black" points="590.5,-56.5 590.5,-75.5 709.5,-75.5 709.5,-56.5 590.5,-56.5"/>
<text text-anchor="middle" x="650" y="-63.5" font-family="Helvetica,sans-Serif" font-size="10.00">cppgc/source&#45;location.h</text>
</a>
</g>
</g>
<!-- Node13&#45;&gt;Node15 -->
<g id="edge16" class="edge">
<title>Node13&#45;&gt;Node15</title>
<path fill="none" stroke="midnightblue" d="M617.19,-112.4C623.37,-103.84 631.3,-92.87 637.82,-83.86"/>
<polygon fill="midnightblue" stroke="midnightblue" points="640.72,-85.81 643.74,-75.66 635.05,-81.71 640.72,-85.81"/>
</g>
<!-- Node15&#45;&gt;Node6 -->
<g id="edge18" class="edge">
<title>Node15&#45;&gt;Node6</title>
<path fill="none" stroke="midnightblue" d="M616.88,-56.44C580.04,-46.92 520.5,-31.54 481.06,-21.35"/>
<polygon fill="midnightblue" stroke="midnightblue" points="481.8,-17.93 471.25,-18.82 480.05,-24.71 481.8,-17.93"/>
</g>
<!-- Node16 -->
<g id="node16" class="node">
<title>Node16</title>
<g id="a_node16"><a xlink:title=" ">
<polygon fill="white" stroke="#bfbfbf" points="629.5,-0.5 629.5,-19.5 670.5,-19.5 670.5,-0.5 629.5,-0.5"/>
<text text-anchor="middle" x="650" y="-7.5" font-family="Helvetica,sans-Serif" font-size="10.00">string</text>
</a>
</g>
</g>
<!-- Node15&#45;&gt;Node16 -->
<g id="edge17" class="edge">
<title>Node15&#45;&gt;Node16</title>
<path fill="none" stroke="midnightblue" d="M650,-56.08C650,-49.01 650,-38.86 650,-29.99"/>
<polygon fill="midnightblue" stroke="midnightblue" points="653.5,-29.75 650,-19.75 646.5,-29.75 653.5,-29.75"/>
</g>
<!-- Node17&#45;&gt;Node12 -->
<g id="edge21" class="edge">
<title>Node17&#45;&gt;Node12</title>
<path fill="none" stroke="midnightblue" d="M828.7,-117.98C823.26,-109.23 814.64,-95.37 807.76,-84.31"/>
<polygon fill="midnightblue" stroke="midnightblue" points="810.54,-82.15 802.29,-75.51 804.6,-85.85 810.54,-82.15"/>
</g>
<!-- Node18&#45;&gt;Node12 -->
<g id="edge24" class="edge">
<title>Node18&#45;&gt;Node12</title>
<path fill="none" stroke="midnightblue" d="M852.08,-179.39C865.56,-171.87 882.97,-159.57 891,-143 897.01,-130.6 898.34,-123.66 891,-112 879.28,-93.4 857.52,-82.32 837.89,-75.81"/>
<polygon fill="midnightblue" stroke="midnightblue" points="838.76,-72.42 828.17,-72.89 836.74,-79.12 838.76,-72.42"/>
</g>
<!-- Node18&#45;&gt;Node17 -->
<g id="edge25" class="edge">
<title>Node18&#45;&gt;Node17</title>
<path fill="none" stroke="midnightblue" d="M834,-179.48C834,-171.08 834,-157.98 834,-147.16"/>
<polygon fill="midnightblue" stroke="midnightblue" points="837.5,-147.01 834,-137.01 830.5,-147.01 837.5,-147.01"/>
</g>
</g>
</svg>
