<?xml version="1.0" encoding="UTF-8" standalone="no"?>
<!DOCTYPE svg PUBLIC "-//W3C//DTD SVG 1.1//EN"
 "http://www.w3.org/Graphics/SVG/1.1/DTD/svg11.dtd">
<!-- Generated by graphviz version 2.44.0 ()
 -->
<!-- Title: include/cppgc/macros.h Pages: 1 -->
<svg width="350pt" height="207pt"
 viewBox="0.00 0.00 349.50 207.00" xmlns="http://www.w3.org/2000/svg" xmlns:xlink="http://www.w3.org/1999/xlink">
<g id="graph0" class="graph" transform="scale(1 1) rotate(0) translate(4 203)">
<title>include/cppgc/macros.h</title>
<polygon fill="white" stroke="transparent" points="-4,4 -4,-203 345.5,-203 345.5,4 -4,4"/>
<!-- Node1 -->
<g id="node1" class="node">
<title>Node1</title>
<g id="a_node1"><a xlink:title=" ">
<polygon fill="#bfbfbf" stroke="black" points="144.5,-179.5 144.5,-198.5 263.5,-198.5 263.5,-179.5 144.5,-179.5"/>
<text text-anchor="middle" x="204" y="-186.5" font-family="Helvetica,sans-Serif" font-size="10.00">include/cppgc/macros.h</text>
</a>
</g>
</g>
<!-- Node2 -->
<g id="node2" class="node">
<title>Node2</title>
<g id="a_node2"><a xlink:href="garbage-collected_8h.html" target="_top" xlink:title=" ">
<polygon fill="white" stroke="black" points="76,-112.5 76,-142.5 190,-142.5 190,-112.5 76,-112.5"/>
<text text-anchor="start" x="84" y="-130.5" font-family="Helvetica,sans-Serif" font-size="10.00">include/cppgc/garbage</text>
<text text-anchor="middle" x="133" y="-119.5" font-family="Helvetica,sans-Serif" font-size="10.00">&#45;collected.h</text>
</a>
</g>
</g>
<!-- Node1&#45;&gt;Node2 -->
<g id="edge1" class="edge">
<title>Node1&#45;&gt;Node2</title>
<path fill="none" stroke="midnightblue" d="M186.01,-172.92C174.86,-163.58 160.64,-151.66 149.73,-142.52"/>
<polygon fill="midnightblue" stroke="midnightblue" points="183.91,-175.73 193.83,-179.48 188.41,-170.37 183.91,-175.73"/>
</g>
<!-- Node6 -->
<g id="node6" class="node">
<title>Node6</title>
<g id="a_node6"><a xlink:href="prefinalizer_8h.html" target="_top" xlink:title=" ">
<polygon fill="white" stroke="black" points="208.5,-118 208.5,-137 341.5,-137 341.5,-118 208.5,-118"/>
<text text-anchor="middle" x="275" y="-125" font-family="Helvetica,sans-Serif" font-size="10.00">include/cppgc/prefinalizer.h</text>
</a>
</g>
</g>
<!-- Node1&#45;&gt;Node6 -->
<g id="edge5" class="edge">
<title>Node1&#45;&gt;Node6</title>
<path fill="none" stroke="midnightblue" d="M221.93,-172.97C235.51,-161.59 253.68,-146.37 264.85,-137.01"/>
<polygon fill="midnightblue" stroke="midnightblue" points="219.59,-170.37 214.17,-179.48 224.09,-175.73 219.59,-170.37"/>
</g>
<!-- Node3 -->
<g id="node3" class="node">
<title>Node3</title>
<g id="a_node3"><a xlink:href="allocation_8h.html" target="_top" xlink:title=" ">
<polygon fill="white" stroke="black" points="0,-56.5 0,-75.5 128,-75.5 128,-56.5 0,-56.5"/>
<text text-anchor="middle" x="64" y="-63.5" font-family="Helvetica,sans-Serif" font-size="10.00">include/cppgc/allocation.h</text>
</a>
</g>
</g>
<!-- Node2&#45;&gt;Node3 -->
<g id="edge2" class="edge">
<title>Node2&#45;&gt;Node3</title>
<path fill="none" stroke="midnightblue" d="M108.76,-105.6C96.84,-95.32 83.11,-83.48 74.04,-75.66"/>
<polygon fill="midnightblue" stroke="midnightblue" points="106.79,-108.52 116.65,-112.4 111.36,-103.22 106.79,-108.52"/>
</g>
<!-- Node4 -->
<g id="node4" class="node">
<title>Node4</title>
<g id="a_node4"><a xlink:href="visitor_8h.html" target="_top" xlink:title=" ">
<polygon fill="white" stroke="black" points="146.5,-56.5 146.5,-75.5 259.5,-75.5 259.5,-56.5 146.5,-56.5"/>
<text text-anchor="middle" x="203" y="-63.5" font-family="Helvetica,sans-Serif" font-size="10.00">include/cppgc/visitor.h</text>
</a>
</g>
</g>
<!-- Node2&#45;&gt;Node4 -->
<g id="edge3" class="edge">
<title>Node2&#45;&gt;Node4</title>
<path fill="none" stroke="midnightblue" d="M157.24,-105.89C169.42,-95.54 183.52,-83.56 192.81,-75.66"/>
<polygon fill="midnightblue" stroke="midnightblue" points="154.94,-103.26 149.59,-112.4 159.48,-108.59 154.94,-103.26"/>
</g>
<!-- Node5 -->
<g id="node5" class="node">
<title>Node5</title>
<g id="a_node5"><a xlink:href="persistent_8h.html" target="_top" xlink:title=" ">
<polygon fill="white" stroke="black" points="138,-0.5 138,-19.5 268,-19.5 268,-0.5 138,-0.5"/>
<text text-anchor="middle" x="203" y="-7.5" font-family="Helvetica,sans-Serif" font-size="10.00">include/cppgc/persistent.h</text>
</a>
</g>
</g>
<!-- Node4&#45;&gt;Node5 -->
<g id="edge4" class="edge">
<title>Node4&#45;&gt;Node5</title>
<path fill="none" stroke="midnightblue" d="M203,-45.8C203,-36.91 203,-26.78 203,-19.75"/>
<polygon fill="midnightblue" stroke="midnightblue" points="199.5,-46.08 203,-56.08 206.5,-46.08 199.5,-46.08"/>
</g>
</g>
</svg>
