<?xml version="1.0" encoding="UTF-8" standalone="no"?>
<!DOCTYPE svg PUBLIC "-//W3C//DTD SVG 1.1//EN"
 "http://www.w3.org/Graphics/SVG/1.1/DTD/svg11.dtd">
<!-- Generated by graphviz version 2.44.0 ()
 -->
<!-- Title: include/cppgc/member.h Pages: 1 -->
<svg width="465pt" height="207pt"
 viewBox="0.00 0.00 465.00 207.00" xmlns="http://www.w3.org/2000/svg" xmlns:xlink="http://www.w3.org/1999/xlink">
<g id="graph0" class="graph" transform="scale(1 1) rotate(0) translate(4 203)">
<title>include/cppgc/member.h</title>
<polygon fill="white" stroke="transparent" points="-4,4 -4,-203 461,-203 461,4 -4,4"/>
<!-- Node1 -->
<g id="node1" class="node">
<title>Node1</title>
<g id="a_node1"><a xlink:title=" ">
<polygon fill="#bfbfbf" stroke="black" points="119,-179.5 119,-198.5 241,-198.5 241,-179.5 119,-179.5"/>
<text text-anchor="middle" x="180" y="-186.5" font-family="Helvetica,sans-Serif" font-size="10.00">include/cppgc/member.h</text>
</a>
</g>
</g>
<!-- Node2 -->
<g id="node2" class="node">
<title>Node2</title>
<g id="a_node2"><a xlink:title=" ">
<polygon fill="white" stroke="#bfbfbf" points="0,-118 0,-137 46,-137 46,-118 0,-118"/>
<text text-anchor="middle" x="23" y="-125" font-family="Helvetica,sans-Serif" font-size="10.00">atomic</text>
</a>
</g>
</g>
<!-- Node1&#45;&gt;Node2 -->
<g id="edge1" class="edge">
<title>Node1&#45;&gt;Node2</title>
<path fill="none" stroke="midnightblue" d="M154.4,-179.45C128.97,-170.81 88.98,-156.79 55,-143 53.59,-142.43 52.14,-141.83 50.69,-141.21"/>
<polygon fill="midnightblue" stroke="midnightblue" points="51.73,-137.85 41.17,-137.04 48.92,-144.26 51.73,-137.85"/>
</g>
<!-- Node3 -->
<g id="node3" class="node">
<title>Node3</title>
<g id="a_node3"><a xlink:title=" ">
<polygon fill="white" stroke="#bfbfbf" points="64.5,-118 64.5,-137 113.5,-137 113.5,-118 64.5,-118"/>
<text text-anchor="middle" x="89" y="-125" font-family="Helvetica,sans-Serif" font-size="10.00">cstddef</text>
</a>
</g>
</g>
<!-- Node1&#45;&gt;Node3 -->
<g id="edge2" class="edge">
<title>Node1&#45;&gt;Node3</title>
<path fill="none" stroke="midnightblue" d="M166.96,-179.48C152.23,-169.84 128.03,-154.02 110.49,-142.55"/>
<polygon fill="midnightblue" stroke="midnightblue" points="112.3,-139.55 102.01,-137.01 108.47,-145.41 112.3,-139.55"/>
</g>
<!-- Node4 -->
<g id="node4" class="node">
<title>Node4</title>
<g id="a_node4"><a xlink:title=" ">
<polygon fill="white" stroke="#bfbfbf" points="135,-56.5 135,-75.5 197,-75.5 197,-56.5 135,-56.5"/>
<text text-anchor="middle" x="166" y="-63.5" font-family="Helvetica,sans-Serif" font-size="10.00">type_traits</text>
</a>
</g>
</g>
<!-- Node1&#45;&gt;Node4 -->
<g id="edge3" class="edge">
<title>Node1&#45;&gt;Node4</title>
<path fill="none" stroke="midnightblue" d="M175.12,-179.37C170.44,-170.55 163.69,-156.3 161,-143 157.07,-123.6 159.45,-100.91 162.1,-85.4"/>
<polygon fill="midnightblue" stroke="midnightblue" points="165.54,-86.01 163.99,-75.53 158.67,-84.69 165.54,-86.01"/>
</g>
<!-- Node5 -->
<g id="node5" class="node">
<title>Node5</title>
<g id="a_node5"><a xlink:href="pointer-policies_8h.html" target="_top" xlink:title=" ">
<polygon fill="white" stroke="black" points="284,-112.5 284,-142.5 394,-142.5 394,-112.5 284,-112.5"/>
<text text-anchor="start" x="292" y="-130.5" font-family="Helvetica,sans-Serif" font-size="10.00">cppgc/internal/pointer</text>
<text text-anchor="middle" x="339" y="-119.5" font-family="Helvetica,sans-Serif" font-size="10.00">&#45;policies.h</text>
</a>
</g>
</g>
<!-- Node1&#45;&gt;Node5 -->
<g id="edge4" class="edge">
<title>Node1&#45;&gt;Node5</title>
<path fill="none" stroke="midnightblue" d="M202.78,-179.48C225.93,-170.81 262.45,-157.15 291.86,-146.14"/>
<polygon fill="midnightblue" stroke="midnightblue" points="293.39,-149.31 301.53,-142.52 290.93,-142.75 293.39,-149.31"/>
</g>
<!-- Node9 -->
<g id="node9" class="node">
<title>Node9</title>
<g id="a_node9"><a xlink:href="v8config_8h.html" target="_top" xlink:title=" ">
<polygon fill="white" stroke="black" points="397,-0.5 397,-19.5 457,-19.5 457,-0.5 397,-0.5"/>
<text text-anchor="middle" x="427" y="-7.5" font-family="Helvetica,sans-Serif" font-size="10.00">v8config.h</text>
</a>
</g>
</g>
<!-- Node1&#45;&gt;Node9 -->
<g id="edge13" class="edge">
<title>Node1&#45;&gt;Node9</title>
<path fill="none" stroke="midnightblue" d="M241.07,-182.49C298.58,-176.12 379.31,-163.76 403,-143 435.17,-114.81 433.54,-59.15 430.04,-29.93"/>
<polygon fill="midnightblue" stroke="midnightblue" points="433.48,-29.23 428.63,-19.81 426.55,-30.2 433.48,-29.23"/>
</g>
<!-- Node10 -->
<g id="node10" class="node">
<title>Node10</title>
<g id="a_node10"><a xlink:href="type-traits_8h.html" target="_top" xlink:title=" ">
<polygon fill="white" stroke="black" points="170,-118 170,-137 266,-137 266,-118 170,-118"/>
<text text-anchor="middle" x="218" y="-125" font-family="Helvetica,sans-Serif" font-size="10.00">cppgc/type&#45;traits.h</text>
</a>
</g>
</g>
<!-- Node1&#45;&gt;Node10 -->
<g id="edge11" class="edge">
<title>Node1&#45;&gt;Node10</title>
<path fill="none" stroke="midnightblue" d="M185.44,-179.48C191.09,-170.64 200.06,-156.59 207.16,-145.48"/>
<polygon fill="midnightblue" stroke="midnightblue" points="210.13,-147.32 212.57,-137.01 204.23,-143.55 210.13,-147.32"/>
</g>
<!-- Node5&#45;&gt;Node4 -->
<g id="edge6" class="edge">
<title>Node5&#45;&gt;Node4</title>
<path fill="none" stroke="midnightblue" d="M298,-112.4C268.37,-102.21 228.77,-88.59 200.7,-78.93"/>
<polygon fill="midnightblue" stroke="midnightblue" points="201.52,-75.51 190.92,-75.57 199.24,-82.13 201.52,-75.51"/>
</g>
<!-- Node6 -->
<g id="node6" class="node">
<title>Node6</title>
<g id="a_node6"><a xlink:title=" ">
<polygon fill="white" stroke="#bfbfbf" points="215,-56.5 215,-75.5 261,-75.5 261,-56.5 215,-56.5"/>
<text text-anchor="middle" x="238" y="-63.5" font-family="Helvetica,sans-Serif" font-size="10.00">cstdint</text>
</a>
</g>
</g>
<!-- Node5&#45;&gt;Node6 -->
<g id="edge5" class="edge">
<title>Node5&#45;&gt;Node6</title>
<path fill="none" stroke="midnightblue" d="M315.06,-112.4C298.87,-102.86 277.59,-90.32 261.5,-80.84"/>
<polygon fill="midnightblue" stroke="midnightblue" points="263.09,-77.72 252.7,-75.66 259.54,-83.75 263.09,-77.72"/>
</g>
<!-- Node7 -->
<g id="node7" class="node">
<title>Node7</title>
<g id="a_node7"><a xlink:href="source-location_8h.html" target="_top" xlink:title=" ">
<polygon fill="white" stroke="black" points="279.5,-56.5 279.5,-75.5 398.5,-75.5 398.5,-56.5 279.5,-56.5"/>
<text text-anchor="middle" x="339" y="-63.5" font-family="Helvetica,sans-Serif" font-size="10.00">cppgc/source&#45;location.h</text>
</a>
</g>
</g>
<!-- Node5&#45;&gt;Node7 -->
<g id="edge7" class="edge">
<title>Node5&#45;&gt;Node7</title>
<path fill="none" stroke="midnightblue" d="M339,-112.4C339,-104.47 339,-94.46 339,-85.86"/>
<polygon fill="midnightblue" stroke="midnightblue" points="342.5,-85.66 339,-75.66 335.5,-85.66 342.5,-85.66"/>
</g>
<!-- Node5&#45;&gt;Node9 -->
<g id="edge10" class="edge">
<title>Node5&#45;&gt;Node9</title>
<path fill="none" stroke="midnightblue" d="M366.34,-112.3C380.64,-103.59 397.34,-91.19 408,-76 417.6,-62.31 422.4,-43.78 424.77,-30"/>
<polygon fill="midnightblue" stroke="midnightblue" points="428.28,-30.16 426.24,-19.76 421.35,-29.16 428.28,-30.16"/>
</g>
<!-- Node8 -->
<g id="node8" class="node">
<title>Node8</title>
<g id="a_node8"><a xlink:title=" ">
<polygon fill="white" stroke="#bfbfbf" points="318.5,-0.5 318.5,-19.5 359.5,-19.5 359.5,-0.5 318.5,-0.5"/>
<text text-anchor="middle" x="339" y="-7.5" font-family="Helvetica,sans-Serif" font-size="10.00">string</text>
</a>
</g>
</g>
<!-- Node7&#45;&gt;Node8 -->
<g id="edge8" class="edge">
<title>Node7&#45;&gt;Node8</title>
<path fill="none" stroke="midnightblue" d="M339,-56.08C339,-49.01 339,-38.86 339,-29.99"/>
<polygon fill="midnightblue" stroke="midnightblue" points="342.5,-29.75 339,-19.75 335.5,-29.75 342.5,-29.75"/>
</g>
<!-- Node7&#45;&gt;Node9 -->
<g id="edge9" class="edge">
<title>Node7&#45;&gt;Node9</title>
<path fill="none" stroke="midnightblue" d="M353.14,-56.32C366.87,-47.9 387.94,-34.97 404.06,-25.07"/>
<polygon fill="midnightblue" stroke="midnightblue" points="406.2,-27.87 412.9,-19.65 402.54,-21.9 406.2,-27.87"/>
</g>
<!-- Node10&#45;&gt;Node4 -->
<g id="edge12" class="edge">
<title>Node10&#45;&gt;Node4</title>
<path fill="none" stroke="midnightblue" d="M210.55,-117.98C202.67,-108.96 190.06,-94.52 180.26,-83.31"/>
<polygon fill="midnightblue" stroke="midnightblue" points="182.65,-80.74 173.44,-75.51 177.38,-85.34 182.65,-80.74"/>
</g>
</g>
</svg>
