<?xml version="1.0" encoding="UTF-8" standalone="no"?>
<!DOCTYPE svg PUBLIC "-//W3C//DTD SVG 1.1//EN"
 "http://www.w3.org/Graphics/SVG/1.1/DTD/svg11.dtd">
<!-- Generated by graphviz version 2.44.0 ()
 -->
<!-- Title: include/cppgc/persistent.h Pages: 1 -->
<svg width="1381pt" height="397pt"
 viewBox="0.00 0.00 1381.00 397.00" xmlns="http://www.w3.org/2000/svg" xmlns:xlink="http://www.w3.org/1999/xlink">
<g id="graph0" class="graph" transform="scale(1 1) rotate(0) translate(4 393)">
<title>include/cppgc/persistent.h</title>
<polygon fill="white" stroke="transparent" points="-4,4 -4,-393 1377,-393 1377,4 -4,4"/>
<!-- Node1 -->
<g id="node1" class="node">
<title>Node1</title>
<g id="a_node1"><a xlink:title=" ">
<polygon fill="#bfbfbf" stroke="black" points="281,-369.5 281,-388.5 411,-388.5 411,-369.5 281,-369.5"/>
<text text-anchor="middle" x="346" y="-376.5" font-family="Helvetica,sans-Serif" font-size="10.00">include/cppgc/persistent.h</text>
</a>
</g>
</g>
<!-- Node2 -->
<g id="node2" class="node">
<title>Node2</title>
<g id="a_node2"><a xlink:title=" ">
<polygon fill="white" stroke="#bfbfbf" points="357,-62 357,-81 419,-81 419,-62 357,-62"/>
<text text-anchor="middle" x="388" y="-69" font-family="Helvetica,sans-Serif" font-size="10.00">type_traits</text>
</a>
</g>
</g>
<!-- Node1&#45;&gt;Node2 -->
<g id="edge1" class="edge">
<title>Node1&#45;&gt;Node2</title>
<path fill="none" stroke="midnightblue" d="M300.58,-369.48C247.25,-356.55 166,-326.36 166,-262.5 166,-262.5 166,-262.5 166,-199 166,-116.85 282.17,-87.36 346.44,-77.33"/>
<polygon fill="midnightblue" stroke="midnightblue" points="347.28,-80.74 356.66,-75.83 346.26,-73.81 347.28,-80.74"/>
</g>
<!-- Node3 -->
<g id="node3" class="node">
<title>Node3</title>
<g id="a_node3"><a xlink:href="persistent-node_8h.html" target="_top" xlink:title=" ">
<polygon fill="white" stroke="black" points="1084.5,-246.5 1084.5,-276.5 1207.5,-276.5 1207.5,-246.5 1084.5,-246.5"/>
<text text-anchor="start" x="1092.5" y="-264.5" font-family="Helvetica,sans-Serif" font-size="10.00">cppgc/internal/persistent</text>
<text text-anchor="middle" x="1146" y="-253.5" font-family="Helvetica,sans-Serif" font-size="10.00">&#45;node.h</text>
</a>
</g>
</g>
<!-- Node1&#45;&gt;Node3 -->
<g id="edge2" class="edge">
<title>Node1&#45;&gt;Node3</title>
<path fill="none" stroke="midnightblue" d="M411.06,-370.03C538.05,-354.23 827.7,-316.99 1070,-277 1071.45,-276.76 1072.91,-276.52 1074.39,-276.27"/>
<polygon fill="midnightblue" stroke="midnightblue" points="1074.99,-279.71 1084.24,-274.55 1073.79,-272.82 1074.99,-279.71"/>
</g>
<!-- Node8 -->
<g id="node8" class="node">
<title>Node8</title>
<g id="a_node8"><a xlink:href="source-location_8h.html" target="_top" xlink:title=" ">
<polygon fill="white" stroke="black" points="996.5,-62 996.5,-81 1115.5,-81 1115.5,-62 996.5,-62"/>
<text text-anchor="middle" x="1056" y="-69" font-family="Helvetica,sans-Serif" font-size="10.00">cppgc/source&#45;location.h</text>
</a>
</g>
</g>
<!-- Node1&#45;&gt;Node8 -->
<g id="edge21" class="edge">
<title>Node1&#45;&gt;Node8</title>
<path fill="none" stroke="midnightblue" d="M411.02,-377.54C636.78,-375.11 1373,-359.72 1373,-262.5 1373,-262.5 1373,-262.5 1373,-199 1373,-169.43 1180.22,-109.05 1095.34,-83.9"/>
<polygon fill="midnightblue" stroke="midnightblue" points="1096.12,-80.48 1085.54,-81.01 1094.14,-87.19 1096.12,-80.48"/>
</g>
<!-- Node10 -->
<g id="node10" class="node">
<title>Node10</title>
<g id="a_node10"><a xlink:href="v8config_8h.html" target="_top" xlink:title=" ">
<polygon fill="white" stroke="black" points="545,-0.5 545,-19.5 605,-19.5 605,-0.5 545,-0.5"/>
<text text-anchor="middle" x="575" y="-7.5" font-family="Helvetica,sans-Serif" font-size="10.00">v8config.h</text>
</a>
</g>
</g>
<!-- Node1&#45;&gt;Node10 -->
<g id="edge65" class="edge">
<title>Node1&#45;&gt;Node10</title>
<path fill="none" stroke="midnightblue" d="M280.92,-369.79C180.69,-355.31 0,-321.08 0,-262.5 0,-262.5 0,-262.5 0,-137.5 0,-86.43 34.79,-77.74 81,-56 161.16,-18.3 431.49,-12.13 534.59,-11.16"/>
<polygon fill="midnightblue" stroke="midnightblue" points="534.92,-14.66 544.89,-11.08 534.87,-7.66 534.92,-14.66"/>
</g>
<!-- Node12 -->
<g id="node12" class="node">
<title>Node12</title>
<g id="a_node12"><a xlink:href="type-traits_8h.html" target="_top" xlink:title=" ">
<polygon fill="white" stroke="black" points="402,-129 402,-148 498,-148 498,-129 402,-129"/>
<text text-anchor="middle" x="450" y="-136" font-family="Helvetica,sans-Serif" font-size="10.00">cppgc/type&#45;traits.h</text>
</a>
</g>
</g>
<!-- Node1&#45;&gt;Node12 -->
<g id="edge22" class="edge">
<title>Node1&#45;&gt;Node12</title>
<path fill="none" stroke="midnightblue" d="M348.3,-369.43C355.77,-342.23 380.87,-255.72 415,-190 421.18,-178.09 429.74,-165.69 436.85,-156.16"/>
<polygon fill="midnightblue" stroke="midnightblue" points="439.79,-158.08 443.09,-148.01 434.23,-153.82 439.79,-158.08"/>
</g>
<!-- Node13 -->
<g id="node13" class="node">
<title>Node13</title>
<g id="a_node13"><a xlink:href="pointer-policies_8h.html" target="_top" xlink:title=" ">
<polygon fill="white" stroke="black" points="28,-123.5 28,-153.5 138,-153.5 138,-123.5 28,-123.5"/>
<text text-anchor="start" x="36" y="-141.5" font-family="Helvetica,sans-Serif" font-size="10.00">cppgc/internal/pointer</text>
<text text-anchor="middle" x="83" y="-130.5" font-family="Helvetica,sans-Serif" font-size="10.00">&#45;policies.h</text>
</a>
</g>
</g>
<!-- Node1&#45;&gt;Node13 -->
<g id="edge16" class="edge">
<title>Node1&#45;&gt;Node13</title>
<path fill="none" stroke="midnightblue" d="M280.76,-369.67C232.12,-362.24 170.97,-349.91 152,-333 102.01,-288.43 88.23,-205.13 84.44,-163.9"/>
<polygon fill="midnightblue" stroke="midnightblue" points="87.91,-163.38 83.63,-153.69 80.93,-163.93 87.91,-163.38"/>
</g>
<!-- Node15 -->
<g id="node15" class="node">
<title>Node15</title>
<g id="a_node15"><a xlink:href="visitor_8h.html" target="_top" xlink:title=" ">
<polygon fill="white" stroke="black" points="464,-313.5 464,-332.5 544,-332.5 544,-313.5 464,-313.5"/>
<text text-anchor="middle" x="504" y="-320.5" font-family="Helvetica,sans-Serif" font-size="10.00">cppgc/visitor.h</text>
</a>
</g>
</g>
<!-- Node1&#45;&gt;Node15 -->
<g id="edge23" class="edge">
<title>Node1&#45;&gt;Node15</title>
<path fill="none" stroke="midnightblue" d="M371.04,-369.44C397.62,-360.36 439.81,-345.94 469.52,-335.78"/>
<polygon fill="midnightblue" stroke="midnightblue" points="470.75,-339.06 479.08,-332.52 468.49,-332.44 470.75,-339.06"/>
</g>
<!-- Node4 -->
<g id="node4" class="node">
<title>Node4</title>
<g id="a_node4"><a xlink:title=" ">
<polygon fill="white" stroke="#bfbfbf" points="1127,-190.5 1127,-209.5 1165,-209.5 1165,-190.5 1127,-190.5"/>
<text text-anchor="middle" x="1146" y="-197.5" font-family="Helvetica,sans-Serif" font-size="10.00">array</text>
</a>
</g>
</g>
<!-- Node3&#45;&gt;Node4 -->
<g id="edge3" class="edge">
<title>Node3&#45;&gt;Node4</title>
<path fill="none" stroke="midnightblue" d="M1146,-246.4C1146,-238.47 1146,-228.46 1146,-219.86"/>
<polygon fill="midnightblue" stroke="midnightblue" points="1149.5,-219.66 1146,-209.66 1142.5,-219.66 1149.5,-219.66"/>
</g>
<!-- Node5 -->
<g id="node5" class="node">
<title>Node5</title>
<g id="a_node5"><a xlink:title=" ">
<polygon fill="white" stroke="#bfbfbf" points="1210.5,-0.5 1210.5,-19.5 1261.5,-19.5 1261.5,-0.5 1210.5,-0.5"/>
<text text-anchor="middle" x="1236" y="-7.5" font-family="Helvetica,sans-Serif" font-size="10.00">memory</text>
</a>
</g>
</g>
<!-- Node3&#45;&gt;Node5 -->
<g id="edge4" class="edge">
<title>Node3&#45;&gt;Node5</title>
<path fill="none" stroke="midnightblue" d="M1168.96,-246.36C1208.37,-220.51 1287.4,-161.39 1316,-87 1320.94,-74.14 1322.96,-67.89 1316,-56 1306.32,-39.44 1288.05,-28.51 1271.42,-21.57"/>
<polygon fill="midnightblue" stroke="midnightblue" points="1272.48,-18.22 1261.89,-17.93 1269.98,-24.76 1272.48,-18.22"/>
</g>
<!-- Node6 -->
<g id="node6" class="node">
<title>Node6</title>
<g id="a_node6"><a xlink:title=" ">
<polygon fill="white" stroke="#bfbfbf" points="1263,-62 1263,-81 1307,-81 1307,-62 1263,-62"/>
<text text-anchor="middle" x="1285" y="-69" font-family="Helvetica,sans-Serif" font-size="10.00">vector</text>
</a>
</g>
</g>
<!-- Node3&#45;&gt;Node6 -->
<g id="edge5" class="edge">
<title>Node3&#45;&gt;Node6</title>
<path fill="none" stroke="midnightblue" d="M1156.45,-246.37C1181.59,-212.36 1245.4,-126.06 1272.51,-89.4"/>
<polygon fill="midnightblue" stroke="midnightblue" points="1275.43,-91.33 1278.56,-81.21 1269.8,-87.17 1275.43,-91.33"/>
</g>
<!-- Node7 -->
<g id="node7" class="node">
<title>Node7</title>
<g id="a_node7"><a xlink:href="logging_8h.html" target="_top" xlink:title=" ">
<polygon fill="white" stroke="black" points="870.5,-190.5 870.5,-209.5 989.5,-209.5 989.5,-190.5 870.5,-190.5"/>
<text text-anchor="middle" x="930" y="-197.5" font-family="Helvetica,sans-Serif" font-size="10.00">cppgc/internal/logging.h</text>
</a>
</g>
</g>
<!-- Node3&#45;&gt;Node7 -->
<g id="edge6" class="edge">
<title>Node3&#45;&gt;Node7</title>
<path fill="none" stroke="midnightblue" d="M1095.08,-246.47C1057.17,-236.03 1006.08,-221.96 970.83,-212.25"/>
<polygon fill="midnightblue" stroke="midnightblue" points="971.45,-208.79 960.88,-209.51 969.59,-215.54 971.45,-208.79"/>
</g>
<!-- Node3&#45;&gt;Node10 -->
<g id="edge15" class="edge">
<title>Node3&#45;&gt;Node10</title>
<path fill="none" stroke="midnightblue" d="M1124.23,-246.22C1056.54,-201.91 852.23,-68.91 819,-56 750.4,-29.34 664.69,-18.22 615.26,-13.78"/>
<polygon fill="midnightblue" stroke="midnightblue" points="615.54,-10.29 605.28,-12.93 614.95,-17.26 615.54,-10.29"/>
</g>
<!-- Node11 -->
<g id="node11" class="node">
<title>Node11</title>
<g id="a_node11"><a xlink:href="trace-trait_8h.html" target="_top" xlink:title=" ">
<polygon fill="white" stroke="black" points="424.5,-190.5 424.5,-209.5 519.5,-209.5 519.5,-190.5 424.5,-190.5"/>
<text text-anchor="middle" x="472" y="-197.5" font-family="Helvetica,sans-Serif" font-size="10.00">cppgc/trace&#45;trait.h</text>
</a>
</g>
</g>
<!-- Node3&#45;&gt;Node11 -->
<g id="edge11" class="edge">
<title>Node3&#45;&gt;Node11</title>
<path fill="none" stroke="midnightblue" d="M1084.4,-255.06C954.96,-243.64 656.3,-217.27 530.04,-206.12"/>
<polygon fill="midnightblue" stroke="midnightblue" points="530.07,-202.61 519.8,-205.22 529.46,-209.59 530.07,-202.61"/>
</g>
<!-- Node7&#45;&gt;Node8 -->
<g id="edge7" class="edge">
<title>Node7&#45;&gt;Node8</title>
<path fill="none" stroke="midnightblue" d="M938.66,-190.31C959.61,-169.27 1013.28,-115.39 1040.16,-88.4"/>
<polygon fill="midnightblue" stroke="midnightblue" points="1042.7,-90.81 1047.28,-81.26 1037.74,-85.87 1042.7,-90.81"/>
</g>
<!-- Node7&#45;&gt;Node10 -->
<g id="edge10" class="edge">
<title>Node7&#45;&gt;Node10</title>
<path fill="none" stroke="midnightblue" d="M870.23,-196.89C813.84,-193.12 727.9,-182.69 659,-154 637.25,-144.94 636.01,-135.43 616,-123 586.95,-104.96 565.64,-116.3 548,-87 536.67,-68.17 549.37,-43.87 560.91,-27.88"/>
<polygon fill="midnightblue" stroke="midnightblue" points="563.7,-29.99 567.03,-19.93 558.16,-25.71 563.7,-29.99"/>
</g>
<!-- Node9 -->
<g id="node9" class="node">
<title>Node9</title>
<g id="a_node9"><a xlink:title=" ">
<polygon fill="white" stroke="#bfbfbf" points="1075.5,-0.5 1075.5,-19.5 1116.5,-19.5 1116.5,-0.5 1075.5,-0.5"/>
<text text-anchor="middle" x="1096" y="-7.5" font-family="Helvetica,sans-Serif" font-size="10.00">string</text>
</a>
</g>
</g>
<!-- Node8&#45;&gt;Node9 -->
<g id="edge8" class="edge">
<title>Node8&#45;&gt;Node9</title>
<path fill="none" stroke="midnightblue" d="M1061.73,-61.98C1067.67,-53.14 1077.12,-39.09 1084.59,-27.98"/>
<polygon fill="midnightblue" stroke="midnightblue" points="1087.61,-29.76 1090.28,-19.51 1081.8,-25.86 1087.61,-29.76"/>
</g>
<!-- Node8&#45;&gt;Node10 -->
<g id="edge9" class="edge">
<title>Node8&#45;&gt;Node10</title>
<path fill="none" stroke="midnightblue" d="M1018.52,-61.92C1008.33,-59.79 997.28,-57.64 987,-56 851.55,-34.42 689.38,-20.03 615.38,-14.08"/>
<polygon fill="midnightblue" stroke="midnightblue" points="615.36,-10.57 605.12,-13.27 614.81,-17.55 615.36,-10.57"/>
</g>
<!-- Node11&#45;&gt;Node2 -->
<g id="edge12" class="edge">
<title>Node11&#45;&gt;Node2</title>
<path fill="none" stroke="midnightblue" d="M481.76,-190.11C496.68,-175.44 521.91,-145.53 507,-123 497.72,-108.98 458.56,-94.08 427.66,-84.13"/>
<polygon fill="midnightblue" stroke="midnightblue" points="428.56,-80.74 417.97,-81.08 426.46,-87.42 428.56,-80.74"/>
</g>
<!-- Node11&#45;&gt;Node12 -->
<g id="edge13" class="edge">
<title>Node11&#45;&gt;Node12</title>
<path fill="none" stroke="midnightblue" d="M468.85,-190.48C465.68,-181.9 460.7,-168.43 456.65,-157.48"/>
<polygon fill="midnightblue" stroke="midnightblue" points="459.9,-156.17 453.15,-148.01 453.33,-158.6 459.9,-156.17"/>
</g>
<!-- Node12&#45;&gt;Node2 -->
<g id="edge14" class="edge">
<title>Node12&#45;&gt;Node2</title>
<path fill="none" stroke="midnightblue" d="M441.64,-128.73C431.88,-118.5 415.53,-101.36 403.45,-88.69"/>
<polygon fill="midnightblue" stroke="midnightblue" points="405.66,-85.95 396.23,-81.13 400.6,-90.78 405.66,-85.95"/>
</g>
<!-- Node13&#45;&gt;Node2 -->
<g id="edge18" class="edge">
<title>Node13&#45;&gt;Node2</title>
<path fill="none" stroke="midnightblue" d="M138.23,-125.73C198.39,-112.91 293.2,-92.7 347.05,-81.23"/>
<polygon fill="midnightblue" stroke="midnightblue" points="347.88,-84.63 356.93,-79.12 346.42,-77.78 347.88,-84.63"/>
</g>
<!-- Node13&#45;&gt;Node8 -->
<g id="edge19" class="edge">
<title>Node13&#45;&gt;Node8</title>
<path fill="none" stroke="midnightblue" d="M138.13,-131.07C163.88,-128.25 194.98,-125.11 223,-123 561.97,-97.48 649.81,-130.09 987,-87 994.77,-86.01 1002.96,-84.6 1010.89,-83.06"/>
<polygon fill="midnightblue" stroke="midnightblue" points="1011.63,-86.48 1020.73,-81.05 1010.23,-79.62 1011.63,-86.48"/>
</g>
<!-- Node13&#45;&gt;Node10 -->
<g id="edge20" class="edge">
<title>Node13&#45;&gt;Node10</title>
<path fill="none" stroke="midnightblue" d="M81.75,-123.21C81.01,-104.67 82.86,-72.73 102,-56 134.27,-27.79 425.89,-15.73 534.49,-12.18"/>
<polygon fill="midnightblue" stroke="midnightblue" points="534.83,-15.68 544.71,-11.86 534.61,-8.68 534.83,-15.68"/>
</g>
<!-- Node14 -->
<g id="node14" class="node">
<title>Node14</title>
<g id="a_node14"><a xlink:title=" ">
<polygon fill="white" stroke="#bfbfbf" points="111,-62 111,-81 157,-81 157,-62 111,-62"/>
<text text-anchor="middle" x="134" y="-69" font-family="Helvetica,sans-Serif" font-size="10.00">cstdint</text>
</a>
</g>
</g>
<!-- Node13&#45;&gt;Node14 -->
<g id="edge17" class="edge">
<title>Node13&#45;&gt;Node14</title>
<path fill="none" stroke="midnightblue" d="M94.07,-123.4C101.94,-113.36 112.55,-99.84 120.85,-89.25"/>
<polygon fill="midnightblue" stroke="midnightblue" points="123.76,-91.22 127.18,-81.19 118.25,-86.9 123.76,-91.22"/>
</g>
<!-- Node15&#45;&gt;Node7 -->
<g id="edge42" class="edge">
<title>Node15&#45;&gt;Node7</title>
<path fill="none" stroke="midnightblue" d="M544.11,-318.37C596.01,-312.92 688.81,-300.67 765,-277 817.41,-260.72 874.8,-231.46 906.19,-214.39"/>
<polygon fill="midnightblue" stroke="midnightblue" points="907.99,-217.39 915.06,-209.51 904.61,-211.26 907.99,-217.39"/>
</g>
<!-- Node15&#45;&gt;Node8 -->
<g id="edge63" class="edge">
<title>Node15&#45;&gt;Node8</title>
<path fill="none" stroke="midnightblue" d="M544.14,-318.18C649.83,-307.31 932.22,-272.91 998,-210 1032.38,-177.12 1047.28,-120.66 1052.96,-91.37"/>
<polygon fill="midnightblue" stroke="midnightblue" points="1056.45,-91.72 1054.76,-81.26 1049.56,-90.49 1056.45,-91.72"/>
</g>
<!-- Node15&#45;&gt;Node11 -->
<g id="edge64" class="edge">
<title>Node15&#45;&gt;Node11</title>
<path fill="none" stroke="midnightblue" d="M497.65,-313.2C491.71,-304.47 483.17,-290.49 479,-277 473.21,-258.23 471.77,-235.72 471.6,-220.09"/>
<polygon fill="midnightblue" stroke="midnightblue" points="475.1,-219.68 471.65,-209.66 468.1,-219.64 475.1,-219.68"/>
</g>
<!-- Node15&#45;&gt;Node13 -->
<g id="edge43" class="edge">
<title>Node15&#45;&gt;Node13</title>
<path fill="none" stroke="midnightblue" d="M483.65,-313.43C462.29,-304.43 427.75,-289.81 398,-277 299.67,-234.67 184.46,-184.14 124.32,-157.69"/>
<polygon fill="midnightblue" stroke="midnightblue" points="125.71,-154.48 115.15,-153.66 122.89,-160.89 125.71,-154.48"/>
</g>
<!-- Node16 -->
<g id="node16" class="node">
<title>Node16</title>
<g id="a_node16"><a xlink:href="garbage-collected_8h.html" target="_top" xlink:title=" ">
<polygon fill="white" stroke="black" points="626,-252 626,-271 756,-271 756,-252 626,-252"/>
<text text-anchor="middle" x="691" y="-259" font-family="Helvetica,sans-Serif" font-size="10.00">cppgc/garbage&#45;collected.h</text>
</a>
</g>
</g>
<!-- Node15&#45;&gt;Node16 -->
<g id="edge24" class="edge">
<title>Node15&#45;&gt;Node16</title>
<path fill="none" stroke="midnightblue" d="M530.79,-313.48C563.29,-303.14 618.21,-285.66 654.54,-274.1"/>
<polygon fill="midnightblue" stroke="midnightblue" points="655.79,-277.38 664.26,-271.01 653.67,-270.71 655.79,-277.38"/>
</g>
<!-- Node24 -->
<g id="node24" class="node">
<title>Node24</title>
<g id="a_node24"><a xlink:href="liveness-broker_8h.html" target="_top" xlink:title=" ">
<polygon fill="white" stroke="black" points="488.5,-252 488.5,-271 607.5,-271 607.5,-252 488.5,-252"/>
<text text-anchor="middle" x="548" y="-259" font-family="Helvetica,sans-Serif" font-size="10.00">cppgc/liveness&#45;broker.h</text>
</a>
</g>
</g>
<!-- Node15&#45;&gt;Node24 -->
<g id="edge44" class="edge">
<title>Node15&#45;&gt;Node24</title>
<path fill="none" stroke="midnightblue" d="M510.3,-313.48C516.9,-304.55 527.44,-290.31 535.69,-279.14"/>
<polygon fill="midnightblue" stroke="midnightblue" points="538.58,-281.13 541.71,-271.01 532.95,-276.97 538.58,-281.13"/>
</g>
<!-- Node28 -->
<g id="node28" class="node">
<title>Node28</title>
<g id="a_node28"><a xlink:href="member_8h.html" target="_top" xlink:title=" ">
<polygon fill="white" stroke="black" points="278.5,-190.5 278.5,-209.5 367.5,-209.5 367.5,-190.5 278.5,-190.5"/>
<text text-anchor="middle" x="323" y="-197.5" font-family="Helvetica,sans-Serif" font-size="10.00">cppgc/member.h</text>
</a>
</g>
</g>
<!-- Node15&#45;&gt;Node28 -->
<g id="edge62" class="edge">
<title>Node15&#45;&gt;Node28</title>
<path fill="none" stroke="midnightblue" d="M492.76,-313.48C473.64,-299.09 433.39,-269.25 398,-246 381.34,-235.06 362.05,-223.51 347.21,-214.85"/>
<polygon fill="midnightblue" stroke="midnightblue" points="348.57,-211.59 338.16,-209.61 345.06,-217.65 348.57,-211.59"/>
</g>
<!-- Node16&#45;&gt;Node2 -->
<g id="edge25" class="edge">
<title>Node16&#45;&gt;Node2</title>
<path fill="none" stroke="midnightblue" d="M682.73,-251.92C659.64,-228.38 591.71,-161.96 524,-123 493.86,-105.66 456.68,-92.33 428.82,-83.74"/>
<polygon fill="midnightblue" stroke="midnightblue" points="429.59,-80.32 419,-80.79 427.57,-87.02 429.59,-80.32"/>
</g>
<!-- Node16&#45;&gt;Node11 -->
<g id="edge40" class="edge">
<title>Node16&#45;&gt;Node11</title>
<path fill="none" stroke="midnightblue" d="M659.62,-251.98C621.08,-241.5 555.59,-223.71 513.08,-212.16"/>
<polygon fill="midnightblue" stroke="midnightblue" points="513.89,-208.75 503.32,-209.51 512.05,-215.51 513.89,-208.75"/>
</g>
<!-- Node16&#45;&gt;Node12 -->
<g id="edge41" class="edge">
<title>Node16&#45;&gt;Node12</title>
<path fill="none" stroke="midnightblue" d="M674.05,-251.99C632.67,-231.21 526.21,-177.77 476.42,-152.76"/>
<polygon fill="midnightblue" stroke="midnightblue" points="477.76,-149.52 467.25,-148.16 474.62,-155.78 477.76,-149.52"/>
</g>
<!-- Node17 -->
<g id="node17" class="node">
<title>Node17</title>
<g id="a_node17"><a xlink:href="api-constants_8h.html" target="_top" xlink:title=" ">
<polygon fill="white" stroke="black" points="885.5,-56.5 885.5,-86.5 978.5,-86.5 978.5,-56.5 885.5,-56.5"/>
<text text-anchor="start" x="893.5" y="-74.5" font-family="Helvetica,sans-Serif" font-size="10.00">cppgc/internal/api</text>
<text text-anchor="middle" x="932" y="-63.5" font-family="Helvetica,sans-Serif" font-size="10.00">&#45;constants.h</text>
</a>
</g>
</g>
<!-- Node16&#45;&gt;Node17 -->
<g id="edge26" class="edge">
<title>Node16&#45;&gt;Node17</title>
<path fill="none" stroke="midnightblue" d="M717.9,-252C742.05,-243.6 777.77,-229.23 805,-210 851.62,-177.07 894.06,-124.59 916.1,-94.9"/>
<polygon fill="midnightblue" stroke="midnightblue" points="918.94,-96.95 922.02,-86.81 913.29,-92.81 918.94,-96.95"/>
</g>
<!-- Node20 -->
<g id="node20" class="node">
<title>Node20</title>
<g id="a_node20"><a xlink:href="macros_8h.html" target="_top" xlink:title=" ">
<polygon fill="white" stroke="black" points="690,-190.5 690,-209.5 776,-209.5 776,-190.5 690,-190.5"/>
<text text-anchor="middle" x="733" y="-197.5" font-family="Helvetica,sans-Serif" font-size="10.00">cppgc/macros.h</text>
</a>
</g>
</g>
<!-- Node16&#45;&gt;Node20 -->
<g id="edge30" class="edge">
<title>Node16&#45;&gt;Node20</title>
<path fill="none" stroke="midnightblue" d="M697.02,-251.98C703.26,-243.14 713.17,-229.09 721.02,-217.98"/>
<polygon fill="midnightblue" stroke="midnightblue" points="724.09,-219.7 726.99,-209.51 718.37,-215.66 724.09,-219.7"/>
</g>
<!-- Node21 -->
<g id="node21" class="node">
<title>Node21</title>
<g id="a_node21"><a xlink:href="platform_8h.html" target="_top" xlink:title=" ">
<polygon fill="white" stroke="black" points="760.5,-129 760.5,-148 849.5,-148 849.5,-129 760.5,-129"/>
<text text-anchor="middle" x="805" y="-136" font-family="Helvetica,sans-Serif" font-size="10.00">cppgc/platform.h</text>
</a>
</g>
</g>
<!-- Node16&#45;&gt;Node21 -->
<g id="edge31" class="edge">
<title>Node16&#45;&gt;Node21</title>
<path fill="none" stroke="midnightblue" d="M719.64,-251.9C740.63,-244.17 768.29,-230.79 785,-210 796.81,-195.3 801.65,-173.99 803.63,-158.65"/>
<polygon fill="midnightblue" stroke="midnightblue" points="807.16,-158.59 804.66,-148.29 800.19,-157.9 807.16,-158.59"/>
</g>
<!-- Node17&#45;&gt;Node10 -->
<g id="edge29" class="edge">
<title>Node17&#45;&gt;Node10</title>
<path fill="none" stroke="midnightblue" d="M885.46,-59.02C880.59,-57.94 875.7,-56.91 871,-56 780.22,-38.34 672.64,-23.49 615.47,-16.08"/>
<polygon fill="midnightblue" stroke="midnightblue" points="615.76,-12.58 605.4,-14.78 614.87,-19.53 615.76,-12.58"/>
</g>
<!-- Node18 -->
<g id="node18" class="node">
<title>Node18</title>
<g id="a_node18"><a xlink:title=" ">
<polygon fill="white" stroke="#bfbfbf" points="906.5,-0.5 906.5,-19.5 957.5,-19.5 957.5,-0.5 906.5,-0.5"/>
<text text-anchor="middle" x="932" y="-7.5" font-family="Helvetica,sans-Serif" font-size="10.00">stddef.h</text>
</a>
</g>
</g>
<!-- Node17&#45;&gt;Node18 -->
<g id="edge27" class="edge">
<title>Node17&#45;&gt;Node18</title>
<path fill="none" stroke="midnightblue" d="M932,-56.4C932,-48.47 932,-38.46 932,-29.86"/>
<polygon fill="midnightblue" stroke="midnightblue" points="935.5,-29.66 932,-19.66 928.5,-29.66 935.5,-29.66"/>
</g>
<!-- Node19 -->
<g id="node19" class="node">
<title>Node19</title>
<g id="a_node19"><a xlink:title=" ">
<polygon fill="white" stroke="#bfbfbf" points="988,-0.5 988,-19.5 1036,-19.5 1036,-0.5 988,-0.5"/>
<text text-anchor="middle" x="1012" y="-7.5" font-family="Helvetica,sans-Serif" font-size="10.00">stdint.h</text>
</a>
</g>
</g>
<!-- Node17&#45;&gt;Node19 -->
<g id="edge28" class="edge">
<title>Node17&#45;&gt;Node19</title>
<path fill="none" stroke="midnightblue" d="M950.96,-56.4C963.42,-47.13 979.7,-35.03 992.31,-25.65"/>
<polygon fill="midnightblue" stroke="midnightblue" points="994.42,-28.43 1000.36,-19.66 990.25,-22.82 994.42,-28.43"/>
</g>
<!-- Node21&#45;&gt;Node10 -->
<g id="edge39" class="edge">
<title>Node21&#45;&gt;Node10</title>
<path fill="none" stroke="midnightblue" d="M807.44,-128.6C811.39,-112.06 817.02,-76.43 799,-56 775.28,-29.12 673.39,-17.76 615.54,-13.41"/>
<polygon fill="midnightblue" stroke="midnightblue" points="615.5,-9.9 605.28,-12.68 615,-16.88 615.5,-9.9"/>
</g>
<!-- Node22 -->
<g id="node22" class="node">
<title>Node22</title>
<g id="a_node22"><a xlink:href="v8-platform_8h.html" target="_top" xlink:title=" ">
<polygon fill="white" stroke="black" points="1133.5,-62 1133.5,-81 1206.5,-81 1206.5,-62 1133.5,-62"/>
<text text-anchor="middle" x="1170" y="-69" font-family="Helvetica,sans-Serif" font-size="10.00">v8&#45;platform.h</text>
</a>
</g>
</g>
<!-- Node21&#45;&gt;Node22 -->
<g id="edge32" class="edge">
<title>Node21&#45;&gt;Node22</title>
<path fill="none" stroke="midnightblue" d="M849.52,-132.57C911.55,-125.22 1027.26,-109.77 1124,-87 1127.83,-86.1 1131.81,-85.04 1135.75,-83.91"/>
<polygon fill="midnightblue" stroke="midnightblue" points="1136.8,-87.25 1145.36,-81.01 1134.77,-80.55 1136.8,-87.25"/>
</g>
<!-- Node22&#45;&gt;Node5 -->
<g id="edge36" class="edge">
<title>Node22&#45;&gt;Node5</title>
<path fill="none" stroke="midnightblue" d="M1179.46,-61.98C1189.75,-52.7 1206.42,-37.67 1218.99,-26.33"/>
<polygon fill="midnightblue" stroke="midnightblue" points="1221.48,-28.8 1226.56,-19.51 1216.79,-23.61 1221.48,-28.8"/>
</g>
<!-- Node22&#45;&gt;Node9 -->
<g id="edge37" class="edge">
<title>Node22&#45;&gt;Node9</title>
<path fill="none" stroke="midnightblue" d="M1159.4,-61.98C1147.75,-52.61 1128.81,-37.38 1114.67,-26.01"/>
<polygon fill="midnightblue" stroke="midnightblue" points="1116.57,-23.05 1106.58,-19.51 1112.18,-28.5 1116.57,-23.05"/>
</g>
<!-- Node22&#45;&gt;Node10 -->
<g id="edge38" class="edge">
<title>Node22&#45;&gt;Node10</title>
<path fill="none" stroke="midnightblue" d="M1146.39,-61.94C1139.28,-59.67 1131.4,-57.45 1124,-56 936.23,-19.19 706.62,-12.43 615.27,-11.23"/>
<polygon fill="midnightblue" stroke="midnightblue" points="615.12,-7.73 605.08,-11.12 615.04,-14.73 615.12,-7.73"/>
</g>
<!-- Node22&#45;&gt;Node18 -->
<g id="edge33" class="edge">
<title>Node22&#45;&gt;Node18</title>
<path fill="none" stroke="midnightblue" d="M1143.83,-61.88C1137.37,-59.85 1130.46,-57.77 1124,-56 1069.98,-41.18 1006.58,-26.92 967.86,-18.56"/>
<polygon fill="midnightblue" stroke="midnightblue" points="968.13,-15.04 957.62,-16.36 966.66,-21.88 968.13,-15.04"/>
</g>
<!-- Node22&#45;&gt;Node19 -->
<g id="edge34" class="edge">
<title>Node22&#45;&gt;Node19</title>
<path fill="none" stroke="midnightblue" d="M1147.36,-61.98C1120.26,-51.77 1074.69,-34.61 1044,-23.05"/>
<polygon fill="midnightblue" stroke="midnightblue" points="1045.19,-19.76 1034.6,-19.51 1042.72,-26.31 1045.19,-19.76"/>
</g>
<!-- Node23 -->
<g id="node23" class="node">
<title>Node23</title>
<g id="a_node23"><a xlink:title=" ">
<polygon fill="white" stroke="#bfbfbf" points="1145.5,-0.5 1145.5,-19.5 1192.5,-19.5 1192.5,-0.5 1145.5,-0.5"/>
<text text-anchor="middle" x="1169" y="-7.5" font-family="Helvetica,sans-Serif" font-size="10.00">stdlib.h</text>
</a>
</g>
</g>
<!-- Node22&#45;&gt;Node23 -->
<g id="edge35" class="edge">
<title>Node22&#45;&gt;Node23</title>
<path fill="none" stroke="midnightblue" d="M1169.86,-61.98C1169.72,-53.58 1169.5,-40.48 1169.31,-29.66"/>
<polygon fill="midnightblue" stroke="midnightblue" points="1172.81,-29.45 1169.14,-19.51 1165.81,-29.57 1172.81,-29.45"/>
</g>
<!-- Node24&#45;&gt;Node10 -->
<g id="edge61" class="edge">
<title>Node24&#45;&gt;Node10</title>
<path fill="none" stroke="midnightblue" d="M545.43,-251.6C537.49,-222.5 515.32,-127.92 540,-56 543.72,-45.16 551.23,-34.92 558.35,-26.96"/>
<polygon fill="midnightblue" stroke="midnightblue" points="561.05,-29.19 565.44,-19.55 556,-24.35 561.05,-29.19"/>
</g>
<!-- Node24&#45;&gt;Node11 -->
<g id="edge60" class="edge">
<title>Node24&#45;&gt;Node11</title>
<path fill="none" stroke="midnightblue" d="M537.11,-251.98C525.03,-242.52 505.33,-227.1 490.76,-215.69"/>
<polygon fill="midnightblue" stroke="midnightblue" points="492.9,-212.92 482.87,-209.51 488.59,-218.43 492.9,-212.92"/>
</g>
<!-- Node25 -->
<g id="node25" class="node">
<title>Node25</title>
<g id="a_node25"><a xlink:href="heap_8h.html" target="_top" xlink:title=" ">
<polygon fill="white" stroke="black" points="668,-129 668,-148 742,-148 742,-129 668,-129"/>
<text text-anchor="middle" x="705" y="-136" font-family="Helvetica,sans-Serif" font-size="10.00">cppgc/heap.h</text>
</a>
</g>
</g>
<!-- Node24&#45;&gt;Node25 -->
<g id="edge45" class="edge">
<title>Node24&#45;&gt;Node25</title>
<path fill="none" stroke="midnightblue" d="M559.29,-251.8C585.88,-231.3 652.69,-179.81 685.8,-154.3"/>
<polygon fill="midnightblue" stroke="midnightblue" points="688.03,-157 693.81,-148.12 683.75,-151.46 688.03,-157"/>
</g>
<!-- Node24&#45;&gt;Node28 -->
<g id="edge53" class="edge">
<title>Node24&#45;&gt;Node28</title>
<path fill="none" stroke="midnightblue" d="M515.76,-251.98C476.08,-241.48 408.6,-223.64 364.93,-212.09"/>
<polygon fill="midnightblue" stroke="midnightblue" points="365.74,-208.68 355.18,-209.51 363.95,-215.45 365.74,-208.68"/>
</g>
<!-- Node25&#45;&gt;Node5 -->
<g id="edge46" class="edge">
<title>Node25&#45;&gt;Node5</title>
<path fill="none" stroke="midnightblue" d="M728.61,-128.92C735.72,-126.65 743.6,-124.43 751,-123 852.53,-103.33 1135.19,-152.78 1215,-87 1231.72,-73.22 1235.79,-47.44 1236.46,-29.75"/>
<polygon fill="midnightblue" stroke="midnightblue" points="1239.96,-29.76 1236.52,-19.74 1232.96,-29.72 1239.96,-29.76"/>
</g>
<!-- Node25&#45;&gt;Node6 -->
<g id="edge47" class="edge">
<title>Node25&#45;&gt;Node6</title>
<path fill="none" stroke="midnightblue" d="M728.6,-128.9C735.71,-126.63 743.6,-124.41 751,-123 968.97,-81.36 1032.81,-137.06 1249,-87 1251.83,-86.34 1254.73,-85.5 1257.59,-84.54"/>
<polygon fill="midnightblue" stroke="midnightblue" points="1258.9,-87.79 1267.04,-81.01 1256.45,-81.24 1258.9,-87.79"/>
</g>
<!-- Node25&#45;&gt;Node10 -->
<g id="edge52" class="edge">
<title>Node25&#45;&gt;Node10</title>
<path fill="none" stroke="midnightblue" d="M677.33,-128.97C635.5,-115.95 560.63,-92.08 557,-87 544.6,-69.67 554.21,-44.97 563.48,-28.49"/>
<polygon fill="midnightblue" stroke="midnightblue" points="566.52,-30.21 568.73,-19.85 560.54,-26.58 566.52,-30.21"/>
</g>
<!-- Node26 -->
<g id="node26" class="node">
<title>Node26</title>
<g id="a_node26"><a xlink:href="common_8h.html" target="_top" xlink:title=" ">
<polygon fill="white" stroke="black" points="566.5,-62 566.5,-81 657.5,-81 657.5,-62 566.5,-62"/>
<text text-anchor="middle" x="612" y="-69" font-family="Helvetica,sans-Serif" font-size="10.00">cppgc/common.h</text>
</a>
</g>
</g>
<!-- Node25&#45;&gt;Node26 -->
<g id="edge48" class="edge">
<title>Node25&#45;&gt;Node26</title>
<path fill="none" stroke="midnightblue" d="M692.46,-128.73C677.12,-118.01 650.94,-99.72 632.62,-86.91"/>
<polygon fill="midnightblue" stroke="midnightblue" points="634.55,-83.99 624.34,-81.13 630.54,-89.72 634.55,-83.99"/>
</g>
<!-- Node27 -->
<g id="node27" class="node">
<title>Node27</title>
<g id="a_node27"><a xlink:href="custom-space_8h.html" target="_top" xlink:title=" ">
<polygon fill="white" stroke="black" points="675.5,-62 675.5,-81 790.5,-81 790.5,-62 675.5,-62"/>
<text text-anchor="middle" x="733" y="-69" font-family="Helvetica,sans-Serif" font-size="10.00">cppgc/custom&#45;space.h</text>
</a>
</g>
</g>
<!-- Node25&#45;&gt;Node27 -->
<g id="edge50" class="edge">
<title>Node25&#45;&gt;Node27</title>
<path fill="none" stroke="midnightblue" d="M708.78,-128.73C712.97,-118.99 719.87,-102.98 725.23,-90.53"/>
<polygon fill="midnightblue" stroke="midnightblue" points="728.54,-91.7 729.28,-81.13 722.11,-88.93 728.54,-91.7"/>
</g>
<!-- Node26&#45;&gt;Node10 -->
<g id="edge49" class="edge">
<title>Node26&#45;&gt;Node10</title>
<path fill="none" stroke="midnightblue" d="M606.7,-61.98C601.26,-53.23 592.64,-39.37 585.76,-28.31"/>
<polygon fill="midnightblue" stroke="midnightblue" points="588.54,-26.15 580.29,-19.51 582.6,-29.85 588.54,-26.15"/>
</g>
<!-- Node27&#45;&gt;Node18 -->
<g id="edge51" class="edge">
<title>Node27&#45;&gt;Node18</title>
<path fill="none" stroke="midnightblue" d="M761.51,-61.98C797.13,-51.33 858.06,-33.11 896.62,-21.58"/>
<polygon fill="midnightblue" stroke="midnightblue" points="897.81,-24.88 906.38,-18.66 895.8,-18.17 897.81,-24.88"/>
</g>
<!-- Node28&#45;&gt;Node2 -->
<g id="edge56" class="edge">
<title>Node28&#45;&gt;Node2</title>
<path fill="none" stroke="midnightblue" d="M330.01,-190.44C336.97,-181.67 347.63,-167.45 355,-154 366.32,-133.36 375.97,-108.01 381.87,-91.12"/>
<polygon fill="midnightblue" stroke="midnightblue" points="385.27,-91.96 385.17,-81.37 378.64,-89.71 385.27,-91.96"/>
</g>
<!-- Node28&#45;&gt;Node10 -->
<g id="edge59" class="edge">
<title>Node28&#45;&gt;Node10</title>
<path fill="none" stroke="midnightblue" d="M278.3,-190.48C257.77,-184.09 235.3,-173.02 223,-154 215.52,-142.43 215.92,-134.82 223,-123 255.37,-68.92 288.66,-77.25 348,-56 411.16,-33.38 488.51,-21.12 534.67,-15.33"/>
<polygon fill="midnightblue" stroke="midnightblue" points="535.36,-18.78 544.86,-14.1 534.51,-11.83 535.36,-18.78"/>
</g>
<!-- Node28&#45;&gt;Node12 -->
<g id="edge58" class="edge">
<title>Node28&#45;&gt;Node12</title>
<path fill="none" stroke="midnightblue" d="M341.2,-190.48C362.51,-180.49 398.03,-163.85 422.66,-152.31"/>
<polygon fill="midnightblue" stroke="midnightblue" points="424.27,-155.42 431.84,-148.01 421.3,-149.08 424.27,-155.42"/>
</g>
<!-- Node28&#45;&gt;Node13 -->
<g id="edge57" class="edge">
<title>Node28&#45;&gt;Node13</title>
<path fill="none" stroke="midnightblue" d="M288.61,-190.48C252.03,-181.4 193.28,-166.84 147.93,-155.6"/>
<polygon fill="midnightblue" stroke="midnightblue" points="148.73,-152.19 138.18,-153.18 147.04,-158.98 148.73,-152.19"/>
</g>
<!-- Node29 -->
<g id="node29" class="node">
<title>Node29</title>
<g id="a_node29"><a xlink:title=" ">
<polygon fill="white" stroke="#bfbfbf" points="300,-129 300,-148 346,-148 346,-129 300,-129"/>
<text text-anchor="middle" x="323" y="-136" font-family="Helvetica,sans-Serif" font-size="10.00">atomic</text>
</a>
</g>
</g>
<!-- Node28&#45;&gt;Node29 -->
<g id="edge54" class="edge">
<title>Node28&#45;&gt;Node29</title>
<path fill="none" stroke="midnightblue" d="M323,-190.48C323,-182.08 323,-168.98 323,-158.16"/>
<polygon fill="midnightblue" stroke="midnightblue" points="326.5,-158.01 323,-148.01 319.5,-158.01 326.5,-158.01"/>
</g>
<!-- Node30 -->
<g id="node30" class="node">
<title>Node30</title>
<g id="a_node30"><a xlink:title=" ">
<polygon fill="white" stroke="#bfbfbf" points="232.5,-129 232.5,-148 281.5,-148 281.5,-129 232.5,-129"/>
<text text-anchor="middle" x="257" y="-136" font-family="Helvetica,sans-Serif" font-size="10.00">cstddef</text>
</a>
</g>
</g>
<!-- Node28&#45;&gt;Node30 -->
<g id="edge55" class="edge">
<title>Node28&#45;&gt;Node30</title>
<path fill="none" stroke="midnightblue" d="M313.54,-190.48C303.25,-181.2 286.58,-166.17 274.01,-154.83"/>
<polygon fill="midnightblue" stroke="midnightblue" points="276.21,-152.11 266.44,-148.01 271.52,-157.3 276.21,-152.11"/>
</g>
</g>
</svg>
