<?xml version="1.0" encoding="UTF-8" standalone="no"?>
<!DOCTYPE svg PUBLIC "-//W3C//DTD SVG 1.1//EN"
 "http://www.w3.org/Graphics/SVG/1.1/DTD/svg11.dtd">
<!-- Generated by graphviz version 2.44.0 ()
 -->
<!-- Title: include/cppgc/internal/pointer&#45;policies.h Pages: 1 -->
<svg width="335pt" height="285pt"
 viewBox="0.00 0.00 334.50 285.00" xmlns="http://www.w3.org/2000/svg" xmlns:xlink="http://www.w3.org/1999/xlink">
<g id="graph0" class="graph" transform="scale(1 1) rotate(0) translate(4 281)">
<title>include/cppgc/internal/pointer&#45;policies.h</title>
<polygon fill="white" stroke="transparent" points="-4,4 -4,-281 330.5,-281 330.5,4 -4,4"/>
<!-- Node1 -->
<g id="node1" class="node">
<title>Node1</title>
<g id="a_node1"><a xlink:title=" ">
<polygon fill="#bfbfbf" stroke="black" points="211,-246.5 211,-276.5 322,-276.5 322,-246.5 211,-246.5"/>
<text text-anchor="start" x="219" y="-264.5" font-family="Helvetica,sans-Serif" font-size="10.00">include/cppgc/internal</text>
<text text-anchor="middle" x="266.5" y="-253.5" font-family="Helvetica,sans-Serif" font-size="10.00">/pointer&#45;policies.h</text>
</a>
</g>
</g>
<!-- Node2 -->
<g id="node2" class="node">
<title>Node2</title>
<g id="a_node2"><a xlink:href="member_8h.html" target="_top" xlink:title=" ">
<polygon fill="white" stroke="black" points="116.5,-190.5 116.5,-209.5 238.5,-209.5 238.5,-190.5 116.5,-190.5"/>
<text text-anchor="middle" x="177.5" y="-197.5" font-family="Helvetica,sans-Serif" font-size="10.00">include/cppgc/member.h</text>
</a>
</g>
</g>
<!-- Node1&#45;&gt;Node2 -->
<g id="edge1" class="edge">
<title>Node1&#45;&gt;Node2</title>
<path fill="none" stroke="midnightblue" d="M237,-240.78C221.22,-230.23 202.6,-217.78 190.45,-209.66"/>
<polygon fill="midnightblue" stroke="midnightblue" points="235.15,-243.75 245.41,-246.4 239.04,-237.93 235.15,-243.75"/>
</g>
<!-- Node6 -->
<g id="node6" class="node">
<title>Node6</title>
<g id="a_node6"><a xlink:href="visitor_8h.html" target="_top" xlink:title=" ">
<polygon fill="white" stroke="black" points="168,-62 168,-81 281,-81 281,-62 168,-62"/>
<text text-anchor="middle" x="224.5" y="-69" font-family="Helvetica,sans-Serif" font-size="10.00">include/cppgc/visitor.h</text>
</a>
</g>
</g>
<!-- Node1&#45;&gt;Node6 -->
<g id="edge10" class="edge">
<title>Node1&#45;&gt;Node6</title>
<path fill="none" stroke="midnightblue" d="M261.11,-236.39C251.68,-194.16 232.58,-108.67 226.44,-81.21"/>
<polygon fill="midnightblue" stroke="midnightblue" points="257.75,-237.37 263.34,-246.37 264.58,-235.85 257.75,-237.37"/>
</g>
<!-- Node7 -->
<g id="node7" class="node">
<title>Node7</title>
<g id="a_node7"><a xlink:href="persistent_8h.html" target="_top" xlink:title=" ">
<polygon fill="white" stroke="black" points="196.5,-0.5 196.5,-19.5 326.5,-19.5 326.5,-0.5 196.5,-0.5"/>
<text text-anchor="middle" x="261.5" y="-7.5" font-family="Helvetica,sans-Serif" font-size="10.00">include/cppgc/persistent.h</text>
</a>
</g>
</g>
<!-- Node1&#45;&gt;Node7 -->
<g id="edge9" class="edge">
<title>Node1&#45;&gt;Node7</title>
<path fill="none" stroke="midnightblue" d="M275.4,-236.45C288.4,-197.68 309.14,-119.32 290.5,-56 286.35,-41.91 276.28,-28.07 269.17,-19.54"/>
<polygon fill="midnightblue" stroke="midnightblue" points="271.96,-235.69 271.97,-246.29 278.57,-237.99 271.96,-235.69"/>
</g>
<!-- Node3 -->
<g id="node3" class="node">
<title>Node3</title>
<g id="a_node3"><a xlink:href="liveness-broker_8h.html" target="_top" xlink:title=" ">
<polygon fill="white" stroke="black" points="80.5,-123.5 80.5,-153.5 196.5,-153.5 196.5,-123.5 80.5,-123.5"/>
<text text-anchor="start" x="88.5" y="-141.5" font-family="Helvetica,sans-Serif" font-size="10.00">include/cppgc/liveness</text>
<text text-anchor="middle" x="138.5" y="-130.5" font-family="Helvetica,sans-Serif" font-size="10.00">&#45;broker.h</text>
</a>
</g>
</g>
<!-- Node2&#45;&gt;Node3 -->
<g id="edge2" class="edge">
<title>Node2&#45;&gt;Node3</title>
<path fill="none" stroke="midnightblue" d="M166.33,-181.96C160.43,-172.96 153.27,-162.03 147.69,-153.52"/>
<polygon fill="midnightblue" stroke="midnightblue" points="163.5,-184.03 171.91,-190.48 169.36,-180.19 163.5,-184.03"/>
</g>
<!-- Node2&#45;&gt;Node6 -->
<g id="edge8" class="edge">
<title>Node2&#45;&gt;Node6</title>
<path fill="none" stroke="midnightblue" d="M189.76,-182.25C195.26,-174.07 201.41,-163.88 205.5,-154 215.96,-128.77 221.3,-96.64 223.4,-81.36"/>
<polygon fill="midnightblue" stroke="midnightblue" points="186.85,-180.3 183.98,-190.5 192.58,-184.32 186.85,-180.3"/>
</g>
<!-- Node4 -->
<g id="node4" class="node">
<title>Node4</title>
<g id="a_node4"><a xlink:href="prefinalizer-handler_8h.html" target="_top" xlink:title=" ">
<polygon fill="white" stroke="black" points="0,-56.5 0,-86.5 111,-86.5 111,-56.5 0,-56.5"/>
<text text-anchor="start" x="8" y="-74.5" font-family="Helvetica,sans-Serif" font-size="10.00">include/cppgc/internal</text>
<text text-anchor="middle" x="55.5" y="-63.5" font-family="Helvetica,sans-Serif" font-size="10.00">/prefinalizer&#45;handler.h</text>
</a>
</g>
</g>
<!-- Node3&#45;&gt;Node4 -->
<g id="edge3" class="edge">
<title>Node3&#45;&gt;Node4</title>
<path fill="none" stroke="midnightblue" d="M112.54,-117.17C99.85,-107.23 84.89,-95.51 73.47,-86.58"/>
<polygon fill="midnightblue" stroke="midnightblue" points="110.46,-119.99 120.49,-123.4 114.78,-114.47 110.46,-119.99"/>
</g>
<!-- Node5 -->
<g id="node5" class="node">
<title>Node5</title>
<g id="a_node5"><a xlink:href="prefinalizer_8h.html" target="_top" xlink:title=" ">
<polygon fill="white" stroke="black" points="36,-0.5 36,-19.5 169,-19.5 169,-0.5 36,-0.5"/>
<text text-anchor="middle" x="102.5" y="-7.5" font-family="Helvetica,sans-Serif" font-size="10.00">include/cppgc/prefinalizer.h</text>
</a>
</g>
</g>
<!-- Node3&#45;&gt;Node5 -->
<g id="edge7" class="edge">
<title>Node3&#45;&gt;Node5</title>
<path fill="none" stroke="midnightblue" d="M133.75,-113.38C130.32,-97.04 125.29,-75.04 119.5,-56 115.56,-43.06 109.8,-28.47 106.1,-19.51"/>
<polygon fill="midnightblue" stroke="midnightblue" points="130.33,-114.12 135.77,-123.21 137.19,-112.72 130.33,-114.12"/>
</g>
<!-- Node3&#45;&gt;Node6 -->
<g id="edge5" class="edge">
<title>Node3&#45;&gt;Node6</title>
<path fill="none" stroke="midnightblue" d="M165.17,-117.34C181.22,-105.21 200.83,-90.39 213,-81.19"/>
<polygon fill="midnightblue" stroke="midnightblue" points="163.03,-114.57 157.16,-123.4 167.25,-120.16 163.03,-114.57"/>
</g>
<!-- Node4&#45;&gt;Node5 -->
<g id="edge4" class="edge">
<title>Node4&#45;&gt;Node5</title>
<path fill="none" stroke="midnightblue" d="M72.95,-48.4C80.85,-38.41 89.72,-27.18 95.66,-19.66"/>
<polygon fill="midnightblue" stroke="midnightblue" points="70.09,-46.38 66.64,-56.4 75.58,-50.72 70.09,-46.38"/>
</g>
<!-- Node6&#45;&gt;Node7 -->
<g id="edge6" class="edge">
<title>Node6&#45;&gt;Node7</title>
<path fill="none" stroke="midnightblue" d="M235.28,-53.17C242.16,-42.11 250.77,-28.25 256.21,-19.51"/>
<polygon fill="midnightblue" stroke="midnightblue" points="232.11,-51.63 229.8,-61.98 238.05,-55.33 232.11,-51.63"/>
</g>
</g>
</svg>
