<?xml version="1.0" encoding="UTF-8" standalone="no"?>
<!DOCTYPE svg PUBLIC "-//W3C//DTD SVG 1.1//EN"
 "http://www.w3.org/Graphics/SVG/1.1/DTD/svg11.dtd">
<!-- Generated by graphviz version 2.44.0 ()
 -->
<!-- Title: include/cppgc/internal/prefinalizer&#45;handler.h Pages: 1 -->
<svg width="809pt" height="330pt"
 viewBox="0.00 0.00 808.55 330.00" xmlns="http://www.w3.org/2000/svg" xmlns:xlink="http://www.w3.org/1999/xlink">
<g id="graph0" class="graph" transform="scale(1 1) rotate(0) translate(4 326)">
<title>include/cppgc/internal/prefinalizer&#45;handler.h</title>
<polygon fill="white" stroke="transparent" points="-4,4 -4,-326 804.55,-326 804.55,4 -4,4"/>
<!-- Node1 -->
<g id="node1" class="node">
<title>Node1</title>
<g id="a_node1"><a xlink:title=" ">
<polygon fill="#bfbfbf" stroke="black" points="227.44,-291.5 227.44,-321.5 338.44,-321.5 338.44,-291.5 227.44,-291.5"/>
<text text-anchor="start" x="235.44" y="-309.5" font-family="Helvetica,sans-Serif" font-size="10.00">include/cppgc/internal</text>
<text text-anchor="middle" x="282.94" y="-298.5" font-family="Helvetica,sans-Serif" font-size="10.00">/prefinalizer&#45;handler.h</text>
</a>
</g>
</g>
<!-- Node2 -->
<g id="node2" class="node">
<title>Node2</title>
<g id="a_node2"><a xlink:href="heap_8h.html" target="_top" xlink:title=" ">
<polygon fill="white" stroke="black" points="201.94,-179.5 201.94,-198.5 275.94,-198.5 275.94,-179.5 201.94,-179.5"/>
<text text-anchor="middle" x="238.94" y="-186.5" font-family="Helvetica,sans-Serif" font-size="10.00">cppgc/heap.h</text>
</a>
</g>
</g>
<!-- Node1&#45;&gt;Node2 -->
<g id="edge1" class="edge">
<title>Node1&#45;&gt;Node2</title>
<path fill="none" stroke="midnightblue" d="M275.03,-291.22C269.73,-281.27 262.85,-267.58 257.94,-255 251.93,-239.6 246.79,-221.5 243.38,-208.32"/>
<polygon fill="midnightblue" stroke="midnightblue" points="246.76,-207.42 240.94,-198.57 239.97,-209.12 246.76,-207.42"/>
</g>
<!-- Node9 -->
<g id="node9" class="node">
<title>Node9</title>
<g id="a_node9"><a xlink:href="liveness-broker_8h.html" target="_top" xlink:title=" ">
<polygon fill="white" stroke="black" points="267.44,-235.5 267.44,-254.5 386.44,-254.5 386.44,-235.5 267.44,-235.5"/>
<text text-anchor="middle" x="326.94" y="-242.5" font-family="Helvetica,sans-Serif" font-size="10.00">cppgc/liveness&#45;broker.h</text>
</a>
</g>
</g>
<!-- Node1&#45;&gt;Node9 -->
<g id="edge9" class="edge">
<title>Node1&#45;&gt;Node9</title>
<path fill="none" stroke="midnightblue" d="M293.37,-291.4C299.7,-282.84 307.81,-271.87 314.48,-262.86"/>
<polygon fill="midnightblue" stroke="midnightblue" points="317.41,-264.78 320.54,-254.66 311.78,-260.62 317.41,-264.78"/>
</g>
<!-- Node3 -->
<g id="node3" class="node">
<title>Node3</title>
<g id="a_node3"><a xlink:title=" ">
<polygon fill="white" stroke="#bfbfbf" points="147.44,-118 147.44,-137 198.44,-137 198.44,-118 147.44,-118"/>
<text text-anchor="middle" x="172.94" y="-125" font-family="Helvetica,sans-Serif" font-size="10.00">memory</text>
</a>
</g>
</g>
<!-- Node2&#45;&gt;Node3 -->
<g id="edge2" class="edge">
<title>Node2&#45;&gt;Node3</title>
<path fill="none" stroke="midnightblue" d="M229.49,-179.48C219.2,-170.2 202.53,-155.17 189.95,-143.83"/>
<polygon fill="midnightblue" stroke="midnightblue" points="192.15,-141.11 182.38,-137.01 187.47,-146.3 192.15,-141.11"/>
</g>
<!-- Node4 -->
<g id="node4" class="node">
<title>Node4</title>
<g id="a_node4"><a xlink:title=" ">
<polygon fill="white" stroke="#bfbfbf" points="216.94,-118 216.94,-137 260.94,-137 260.94,-118 216.94,-118"/>
<text text-anchor="middle" x="238.94" y="-125" font-family="Helvetica,sans-Serif" font-size="10.00">vector</text>
</a>
</g>
</g>
<!-- Node2&#45;&gt;Node4 -->
<g id="edge3" class="edge">
<title>Node2&#45;&gt;Node4</title>
<path fill="none" stroke="midnightblue" d="M238.94,-179.48C238.94,-171.08 238.94,-157.98 238.94,-147.16"/>
<polygon fill="midnightblue" stroke="midnightblue" points="242.44,-147.01 238.94,-137.01 235.44,-147.01 242.44,-147.01"/>
</g>
<!-- Node5 -->
<g id="node5" class="node">
<title>Node5</title>
<g id="a_node5"><a xlink:href="common_8h.html" target="_top" xlink:title=" ">
<polygon fill="white" stroke="black" points="207.44,-56.5 207.44,-75.5 298.44,-75.5 298.44,-56.5 207.44,-56.5"/>
<text text-anchor="middle" x="252.94" y="-63.5" font-family="Helvetica,sans-Serif" font-size="10.00">cppgc/common.h</text>
</a>
</g>
</g>
<!-- Node2&#45;&gt;Node5 -->
<g id="edge4" class="edge">
<title>Node2&#45;&gt;Node5</title>
<path fill="none" stroke="midnightblue" d="M247.43,-179.23C255,-170.75 265.55,-157.13 269.94,-143 276.01,-123.49 268.99,-100.53 262.22,-84.99"/>
<polygon fill="midnightblue" stroke="midnightblue" points="265.19,-83.08 257.74,-75.55 258.87,-86.09 265.19,-83.08"/>
</g>
<!-- Node6 -->
<g id="node6" class="node">
<title>Node6</title>
<g id="a_node6"><a xlink:href="v8config_8h.html" target="_top" xlink:title=" ">
<polygon fill="white" stroke="black" points="349.94,-0.5 349.94,-19.5 409.94,-19.5 409.94,-0.5 349.94,-0.5"/>
<text text-anchor="middle" x="379.94" y="-7.5" font-family="Helvetica,sans-Serif" font-size="10.00">v8config.h</text>
</a>
</g>
</g>
<!-- Node2&#45;&gt;Node6 -->
<g id="edge8" class="edge">
<title>Node2&#45;&gt;Node6</title>
<path fill="none" stroke="midnightblue" d="M201.52,-186.4C141.87,-182.98 29.45,-172.66 4.94,-143 -3.83,-132.38 1.41,-125.32 4.94,-112 12.3,-84.29 13.14,-71.97 36.94,-56 85.69,-23.29 259.97,-14.3 339.66,-11.87"/>
<polygon fill="midnightblue" stroke="midnightblue" points="339.91,-15.37 349.81,-11.58 339.71,-8.37 339.91,-15.37"/>
</g>
<!-- Node7 -->
<g id="node7" class="node">
<title>Node7</title>
<g id="a_node7"><a xlink:href="custom-space_8h.html" target="_top" xlink:title=" ">
<polygon fill="white" stroke="black" points="14.44,-118 14.44,-137 129.44,-137 129.44,-118 14.44,-118"/>
<text text-anchor="middle" x="71.94" y="-125" font-family="Helvetica,sans-Serif" font-size="10.00">cppgc/custom&#45;space.h</text>
</a>
</g>
</g>
<!-- Node2&#45;&gt;Node7 -->
<g id="edge6" class="edge">
<title>Node2&#45;&gt;Node7</title>
<path fill="none" stroke="midnightblue" d="M215.02,-179.48C186.25,-169.22 137.79,-151.96 105.34,-140.4"/>
<polygon fill="midnightblue" stroke="midnightblue" points="106.42,-137.07 95.83,-137.01 104.07,-143.66 106.42,-137.07"/>
</g>
<!-- Node5&#45;&gt;Node6 -->
<g id="edge5" class="edge">
<title>Node5&#45;&gt;Node6</title>
<path fill="none" stroke="midnightblue" d="M273.07,-56.44C293.97,-47.56 326.88,-33.56 350.66,-23.45"/>
<polygon fill="midnightblue" stroke="midnightblue" points="352.08,-26.65 359.91,-19.52 349.34,-20.21 352.08,-26.65"/>
</g>
<!-- Node8 -->
<g id="node8" class="node">
<title>Node8</title>
<g id="a_node8"><a xlink:title=" ">
<polygon fill="white" stroke="#bfbfbf" points="46.44,-56.5 46.44,-75.5 97.44,-75.5 97.44,-56.5 46.44,-56.5"/>
<text text-anchor="middle" x="71.94" y="-63.5" font-family="Helvetica,sans-Serif" font-size="10.00">stddef.h</text>
</a>
</g>
</g>
<!-- Node7&#45;&gt;Node8 -->
<g id="edge7" class="edge">
<title>Node7&#45;&gt;Node8</title>
<path fill="none" stroke="midnightblue" d="M71.94,-117.98C71.94,-109.58 71.94,-96.48 71.94,-85.66"/>
<polygon fill="midnightblue" stroke="midnightblue" points="75.44,-85.51 71.94,-75.51 68.44,-85.51 75.44,-85.51"/>
</g>
<!-- Node9&#45;&gt;Node2 -->
<g id="edge10" class="edge">
<title>Node9&#45;&gt;Node2</title>
<path fill="none" stroke="midnightblue" d="M312.81,-235.32C299.08,-226.9 278.01,-213.97 261.88,-204.07"/>
<polygon fill="midnightblue" stroke="midnightblue" points="263.4,-200.9 253.05,-198.65 259.74,-206.87 263.4,-200.9"/>
</g>
<!-- Node9&#45;&gt;Node6 -->
<g id="edge28" class="edge">
<title>Node9&#45;&gt;Node6</title>
<path fill="none" stroke="midnightblue" d="M327.65,-235.25C329.49,-213.93 335.05,-157.72 345.94,-112 352.99,-82.4 365.02,-49.15 372.71,-29.16"/>
<polygon fill="midnightblue" stroke="midnightblue" points="376.01,-30.35 376.39,-19.76 369.49,-27.8 376.01,-30.35"/>
</g>
<!-- Node10 -->
<g id="node10" class="node">
<title>Node10</title>
<g id="a_node10"><a xlink:href="member_8h.html" target="_top" xlink:title=" ">
<polygon fill="white" stroke="black" points="439.44,-179.5 439.44,-198.5 528.44,-198.5 528.44,-179.5 439.44,-179.5"/>
<text text-anchor="middle" x="483.94" y="-186.5" font-family="Helvetica,sans-Serif" font-size="10.00">cppgc/member.h</text>
</a>
</g>
</g>
<!-- Node9&#45;&gt;Node10 -->
<g id="edge11" class="edge">
<title>Node9&#45;&gt;Node10</title>
<path fill="none" stroke="midnightblue" d="M351.82,-235.44C378.23,-226.36 420.16,-211.94 449.69,-201.78"/>
<polygon fill="midnightblue" stroke="midnightblue" points="450.87,-205.08 459.18,-198.52 448.59,-198.46 450.87,-205.08"/>
</g>
<!-- Node19 -->
<g id="node19" class="node">
<title>Node19</title>
<g id="a_node19"><a xlink:href="trace-trait_8h.html" target="_top" xlink:title=" ">
<polygon fill="white" stroke="black" points="691.44,-179.5 691.44,-198.5 786.44,-198.5 786.44,-179.5 691.44,-179.5"/>
<text text-anchor="middle" x="738.94" y="-186.5" font-family="Helvetica,sans-Serif" font-size="10.00">cppgc/trace&#45;trait.h</text>
</a>
</g>
</g>
<!-- Node9&#45;&gt;Node19 -->
<g id="edge25" class="edge">
<title>Node9&#45;&gt;Node19</title>
<path fill="none" stroke="midnightblue" d="M386.85,-236.15C465.67,-225.82 603.26,-207.78 681.06,-197.59"/>
<polygon fill="midnightblue" stroke="midnightblue" points="681.7,-201.03 691.16,-196.26 680.79,-194.09 681.7,-201.03"/>
</g>
<!-- Node10&#45;&gt;Node6 -->
<g id="edge24" class="edge">
<title>Node10&#45;&gt;Node6</title>
<path fill="none" stroke="midnightblue" d="M477.25,-179.25C470.54,-170.33 460.08,-156.01 451.94,-143 427.13,-103.31 401.76,-54.47 388.78,-28.76"/>
<polygon fill="midnightblue" stroke="midnightblue" points="391.77,-26.91 384.15,-19.54 385.51,-30.05 391.77,-26.91"/>
</g>
<!-- Node11 -->
<g id="node11" class="node">
<title>Node11</title>
<g id="a_node11"><a xlink:title=" ">
<polygon fill="white" stroke="#bfbfbf" points="460.94,-118 460.94,-137 506.94,-137 506.94,-118 460.94,-118"/>
<text text-anchor="middle" x="483.94" y="-125" font-family="Helvetica,sans-Serif" font-size="10.00">atomic</text>
</a>
</g>
</g>
<!-- Node10&#45;&gt;Node11 -->
<g id="edge12" class="edge">
<title>Node10&#45;&gt;Node11</title>
<path fill="none" stroke="midnightblue" d="M483.94,-179.48C483.94,-171.08 483.94,-157.98 483.94,-147.16"/>
<polygon fill="midnightblue" stroke="midnightblue" points="487.44,-147.01 483.94,-137.01 480.44,-147.01 487.44,-147.01"/>
</g>
<!-- Node12 -->
<g id="node12" class="node">
<title>Node12</title>
<g id="a_node12"><a xlink:title=" ">
<polygon fill="white" stroke="#bfbfbf" points="355.44,-118 355.44,-137 404.44,-137 404.44,-118 355.44,-118"/>
<text text-anchor="middle" x="379.94" y="-125" font-family="Helvetica,sans-Serif" font-size="10.00">cstddef</text>
</a>
</g>
</g>
<!-- Node10&#45;&gt;Node12 -->
<g id="edge13" class="edge">
<title>Node10&#45;&gt;Node12</title>
<path fill="none" stroke="midnightblue" d="M469.04,-179.48C451.98,-169.71 423.78,-153.58 403.68,-142.08"/>
<polygon fill="midnightblue" stroke="midnightblue" points="405.23,-138.94 394.82,-137.01 401.76,-145.01 405.23,-138.94"/>
</g>
<!-- Node13 -->
<g id="node13" class="node">
<title>Node13</title>
<g id="a_node13"><a xlink:title=" ">
<polygon fill="white" stroke="#bfbfbf" points="703.94,-56.5 703.94,-75.5 765.94,-75.5 765.94,-56.5 703.94,-56.5"/>
<text text-anchor="middle" x="734.94" y="-63.5" font-family="Helvetica,sans-Serif" font-size="10.00">type_traits</text>
</a>
</g>
</g>
<!-- Node10&#45;&gt;Node13 -->
<g id="edge14" class="edge">
<title>Node10&#45;&gt;Node13</title>
<path fill="none" stroke="midnightblue" d="M528.61,-180.68C561.79,-174.02 607.44,-162.24 643.94,-143 648.05,-140.83 691.65,-103.91 716.98,-82.34"/>
<polygon fill="midnightblue" stroke="midnightblue" points="719.44,-84.83 724.78,-75.68 714.9,-79.51 719.44,-84.83"/>
</g>
<!-- Node14 -->
<g id="node14" class="node">
<title>Node14</title>
<g id="a_node14"><a xlink:href="pointer-policies_8h.html" target="_top" xlink:title=" ">
<polygon fill="white" stroke="black" points="524.94,-112.5 524.94,-142.5 634.94,-142.5 634.94,-112.5 524.94,-112.5"/>
<text text-anchor="start" x="532.94" y="-130.5" font-family="Helvetica,sans-Serif" font-size="10.00">cppgc/internal/pointer</text>
<text text-anchor="middle" x="579.94" y="-119.5" font-family="Helvetica,sans-Serif" font-size="10.00">&#45;policies.h</text>
</a>
</g>
</g>
<!-- Node10&#45;&gt;Node14 -->
<g id="edge15" class="edge">
<title>Node10&#45;&gt;Node14</title>
<path fill="none" stroke="midnightblue" d="M497.7,-179.48C510.94,-171.27 531.45,-158.56 548.67,-147.88"/>
<polygon fill="midnightblue" stroke="midnightblue" points="550.66,-150.77 557.32,-142.52 546.97,-144.82 550.66,-150.77"/>
</g>
<!-- Node18 -->
<g id="node18" class="node">
<title>Node18</title>
<g id="a_node18"><a xlink:href="type-traits_8h.html" target="_top" xlink:title=" ">
<polygon fill="white" stroke="black" points="690.94,-118 690.94,-137 786.94,-137 786.94,-118 690.94,-118"/>
<text text-anchor="middle" x="738.94" y="-125" font-family="Helvetica,sans-Serif" font-size="10.00">cppgc/type&#45;traits.h</text>
</a>
</g>
</g>
<!-- Node10&#45;&gt;Node18 -->
<g id="edge22" class="edge">
<title>Node10&#45;&gt;Node18</title>
<path fill="none" stroke="midnightblue" d="M520.59,-179.46C559.41,-170.42 622.5,-155.71 676.94,-143 681.99,-141.82 687.28,-140.59 692.54,-139.36"/>
<polygon fill="midnightblue" stroke="midnightblue" points="693.61,-142.7 702.55,-137.01 692.02,-135.88 693.61,-142.7"/>
</g>
<!-- Node14&#45;&gt;Node6 -->
<g id="edge21" class="edge">
<title>Node14&#45;&gt;Node6</title>
<path fill="none" stroke="midnightblue" d="M570.51,-112.32C559.27,-96.47 539.09,-71.05 515.94,-56 486.61,-36.92 448.43,-25.22 419.99,-18.55"/>
<polygon fill="midnightblue" stroke="midnightblue" points="420.52,-15.08 409.99,-16.32 418.99,-21.91 420.52,-15.08"/>
</g>
<!-- Node14&#45;&gt;Node13 -->
<g id="edge17" class="edge">
<title>Node14&#45;&gt;Node13</title>
<path fill="none" stroke="midnightblue" d="M616.68,-112.4C642.92,-102.33 677.87,-88.91 702.96,-79.28"/>
<polygon fill="midnightblue" stroke="midnightblue" points="704.31,-82.51 712.39,-75.66 701.8,-75.97 704.31,-82.51"/>
</g>
<!-- Node15 -->
<g id="node15" class="node">
<title>Node15</title>
<g id="a_node15"><a xlink:title=" ">
<polygon fill="white" stroke="#bfbfbf" points="460.94,-56.5 460.94,-75.5 506.94,-75.5 506.94,-56.5 460.94,-56.5"/>
<text text-anchor="middle" x="483.94" y="-63.5" font-family="Helvetica,sans-Serif" font-size="10.00">cstdint</text>
</a>
</g>
</g>
<!-- Node14&#45;&gt;Node15 -->
<g id="edge16" class="edge">
<title>Node14&#45;&gt;Node15</title>
<path fill="none" stroke="midnightblue" d="M557.19,-112.4C541.95,-102.95 521.95,-90.56 506.71,-81.11"/>
<polygon fill="midnightblue" stroke="midnightblue" points="508.26,-77.95 497.91,-75.66 504.57,-83.9 508.26,-77.95"/>
</g>
<!-- Node16 -->
<g id="node16" class="node">
<title>Node16</title>
<g id="a_node16"><a xlink:href="source-location_8h.html" target="_top" xlink:title=" ">
<polygon fill="white" stroke="black" points="563.44,-56.5 563.44,-75.5 682.44,-75.5 682.44,-56.5 563.44,-56.5"/>
<text text-anchor="middle" x="622.94" y="-63.5" font-family="Helvetica,sans-Serif" font-size="10.00">cppgc/source&#45;location.h</text>
</a>
</g>
</g>
<!-- Node14&#45;&gt;Node16 -->
<g id="edge18" class="edge">
<title>Node14&#45;&gt;Node16</title>
<path fill="none" stroke="midnightblue" d="M590.13,-112.4C596.32,-103.84 604.25,-92.87 610.76,-83.86"/>
<polygon fill="midnightblue" stroke="midnightblue" points="613.67,-85.81 616.69,-75.66 607.99,-81.71 613.67,-85.81"/>
</g>
<!-- Node16&#45;&gt;Node6 -->
<g id="edge20" class="edge">
<title>Node16&#45;&gt;Node6</title>
<path fill="none" stroke="midnightblue" d="M584.44,-56.44C539.53,-46.46 465.63,-30.04 420.04,-19.91"/>
<polygon fill="midnightblue" stroke="midnightblue" points="420.73,-16.48 410.21,-17.73 419.21,-23.31 420.73,-16.48"/>
</g>
<!-- Node17 -->
<g id="node17" class="node">
<title>Node17</title>
<g id="a_node17"><a xlink:title=" ">
<polygon fill="white" stroke="#bfbfbf" points="602.44,-0.5 602.44,-19.5 643.44,-19.5 643.44,-0.5 602.44,-0.5"/>
<text text-anchor="middle" x="622.94" y="-7.5" font-family="Helvetica,sans-Serif" font-size="10.00">string</text>
</a>
</g>
</g>
<!-- Node16&#45;&gt;Node17 -->
<g id="edge19" class="edge">
<title>Node16&#45;&gt;Node17</title>
<path fill="none" stroke="midnightblue" d="M622.94,-56.08C622.94,-49.01 622.94,-38.86 622.94,-29.99"/>
<polygon fill="midnightblue" stroke="midnightblue" points="626.44,-29.75 622.94,-19.75 619.44,-29.75 626.44,-29.75"/>
</g>
<!-- Node18&#45;&gt;Node13 -->
<g id="edge23" class="edge">
<title>Node18&#45;&gt;Node13</title>
<path fill="none" stroke="midnightblue" d="M738.37,-117.98C737.81,-109.58 736.93,-96.48 736.2,-85.66"/>
<polygon fill="midnightblue" stroke="midnightblue" points="739.68,-85.25 735.52,-75.51 732.69,-85.72 739.68,-85.25"/>
</g>
<!-- Node19&#45;&gt;Node13 -->
<g id="edge26" class="edge">
<title>Node19&#45;&gt;Node13</title>
<path fill="none" stroke="midnightblue" d="M757.03,-179.39C770.51,-171.87 787.92,-159.57 795.94,-143 801.95,-130.6 802.15,-124.3 795.94,-112 789.14,-98.52 776.18,-88.08 763.95,-80.67"/>
<polygon fill="midnightblue" stroke="midnightblue" points="765.29,-77.41 754.85,-75.59 761.87,-83.52 765.29,-77.41"/>
</g>
<!-- Node19&#45;&gt;Node18 -->
<g id="edge27" class="edge">
<title>Node19&#45;&gt;Node18</title>
<path fill="none" stroke="midnightblue" d="M738.94,-179.48C738.94,-171.08 738.94,-157.98 738.94,-147.16"/>
<polygon fill="midnightblue" stroke="midnightblue" points="742.44,-147.01 738.94,-137.01 735.44,-147.01 742.44,-147.01"/>
</g>
</g>
</svg>
