<?xml version="1.0" encoding="UTF-8" standalone="no"?>
<!DOCTYPE svg PUBLIC "-//W3C//DTD SVG 1.1//EN"
 "http://www.w3.org/Graphics/SVG/1.1/DTD/svg11.dtd">
<!-- Generated by graphviz version 2.44.0 ()
 -->
<!-- Title: include/cppgc/prefinalizer.h Pages: 1 -->
<svg width="943pt" height="386pt"
 viewBox="0.00 0.00 942.51 386.00" xmlns="http://www.w3.org/2000/svg" xmlns:xlink="http://www.w3.org/1999/xlink">
<g id="graph0" class="graph" transform="scale(1 1) rotate(0) translate(4 382)">
<title>include/cppgc/prefinalizer.h</title>
<polygon fill="white" stroke="transparent" points="-4,4 -4,-382 938.51,-382 938.51,4 -4,4"/>
<!-- Node1 -->
<g id="node1" class="node">
<title>Node1</title>
<g id="a_node1"><a xlink:title=" ">
<polygon fill="#bfbfbf" stroke="black" points="394,-358.5 394,-377.5 527,-377.5 527,-358.5 394,-358.5"/>
<text text-anchor="middle" x="460.5" y="-365.5" font-family="Helvetica,sans-Serif" font-size="10.00">include/cppgc/prefinalizer.h</text>
</a>
</g>
</g>
<!-- Node2 -->
<g id="node2" class="node">
<title>Node2</title>
<g id="a_node2"><a xlink:href="accessors_8h.html" target="_top" xlink:title=" ">
<polygon fill="white" stroke="black" points="151,-235.5 151,-254.5 284,-254.5 284,-235.5 151,-235.5"/>
<text text-anchor="middle" x="217.5" y="-242.5" font-family="Helvetica,sans-Serif" font-size="10.00">cppgc/internal/accessors.h</text>
</a>
</g>
</g>
<!-- Node1&#45;&gt;Node2 -->
<g id="edge1" class="edge">
<title>Node1&#45;&gt;Node2</title>
<path fill="none" stroke="midnightblue" d="M403.91,-358.45C371.28,-351.83 330.34,-340.57 297.5,-322 270.38,-306.67 245.43,-280.14 230.83,-262.83"/>
<polygon fill="midnightblue" stroke="midnightblue" points="233.24,-260.24 224.19,-254.73 227.83,-264.68 233.24,-260.24"/>
</g>
<!-- Node7 -->
<g id="node7" class="node">
<title>Node7</title>
<g id="a_node7"><a xlink:href="compiler-specific_8h.html" target="_top" xlink:title=" ">
<polygon fill="white" stroke="black" points="489,-291.5 489,-321.5 606,-321.5 606,-291.5 489,-291.5"/>
<text text-anchor="start" x="497" y="-309.5" font-family="Helvetica,sans-Serif" font-size="10.00">cppgc/internal/compiler</text>
<text text-anchor="middle" x="547.5" y="-298.5" font-family="Helvetica,sans-Serif" font-size="10.00">&#45;specific.h</text>
</a>
</g>
</g>
<!-- Node1&#45;&gt;Node7 -->
<g id="edge6" class="edge">
<title>Node1&#45;&gt;Node7</title>
<path fill="none" stroke="midnightblue" d="M472.96,-358.48C484.86,-350.34 503.21,-337.79 518.73,-327.18"/>
<polygon fill="midnightblue" stroke="midnightblue" points="520.72,-330.06 527,-321.52 516.77,-324.28 520.72,-330.06"/>
</g>
<!-- Node8 -->
<g id="node8" class="node">
<title>Node8</title>
<g id="a_node8"><a xlink:href="prefinalizer-handler_8h.html" target="_top" xlink:title=" ">
<polygon fill="white" stroke="black" points="306.5,-291.5 306.5,-321.5 432.5,-321.5 432.5,-291.5 306.5,-291.5"/>
<text text-anchor="start" x="314.5" y="-309.5" font-family="Helvetica,sans-Serif" font-size="10.00">cppgc/internal/prefinalizer</text>
<text text-anchor="middle" x="369.5" y="-298.5" font-family="Helvetica,sans-Serif" font-size="10.00">&#45;handler.h</text>
</a>
</g>
</g>
<!-- Node1&#45;&gt;Node8 -->
<g id="edge7" class="edge">
<title>Node1&#45;&gt;Node8</title>
<path fill="none" stroke="midnightblue" d="M447.46,-358.48C435.02,-350.34 415.83,-337.79 399.6,-327.18"/>
<polygon fill="midnightblue" stroke="midnightblue" points="401.23,-324.07 390.95,-321.52 397.4,-329.92 401.23,-324.07"/>
</g>
<!-- Node14 -->
<g id="node14" class="node">
<title>Node14</title>
<g id="a_node14"><a xlink:href="liveness-broker_8h.html" target="_top" xlink:title=" ">
<polygon fill="white" stroke="black" points="401,-235.5 401,-254.5 520,-254.5 520,-235.5 401,-235.5"/>
<text text-anchor="middle" x="460.5" y="-242.5" font-family="Helvetica,sans-Serif" font-size="10.00">cppgc/liveness&#45;broker.h</text>
</a>
</g>
</g>
<!-- Node1&#45;&gt;Node14 -->
<g id="edge36" class="edge">
<title>Node1&#45;&gt;Node14</title>
<path fill="none" stroke="midnightblue" d="M460.5,-358.3C460.5,-338.85 460.5,-291.49 460.5,-264.9"/>
<polygon fill="midnightblue" stroke="midnightblue" points="464,-264.62 460.5,-254.62 457,-264.62 464,-264.62"/>
</g>
<!-- Node25 -->
<g id="node25" class="node">
<title>Node25</title>
<g id="a_node25"><a xlink:href="macros_8h.html" target="_top" xlink:title=" ">
<polygon fill="white" stroke="black" points="624.5,-297 624.5,-316 710.5,-316 710.5,-297 624.5,-297"/>
<text text-anchor="middle" x="667.5" y="-304" font-family="Helvetica,sans-Serif" font-size="10.00">cppgc/macros.h</text>
</a>
</g>
</g>
<!-- Node1&#45;&gt;Node25 -->
<g id="edge37" class="edge">
<title>Node1&#45;&gt;Node25</title>
<path fill="none" stroke="midnightblue" d="M490.16,-358.48C526.43,-348.05 587.96,-330.36 628.16,-318.81"/>
<polygon fill="midnightblue" stroke="midnightblue" points="629.25,-322.14 637.9,-316.01 627.32,-315.41 629.25,-322.14"/>
</g>
<!-- Node3 -->
<g id="node3" class="node">
<title>Node3</title>
<g id="a_node3"><a xlink:href="api-constants_8h.html" target="_top" xlink:title=" ">
<polygon fill="white" stroke="black" points="0,-112.5 0,-142.5 93,-142.5 93,-112.5 0,-112.5"/>
<text text-anchor="start" x="8" y="-130.5" font-family="Helvetica,sans-Serif" font-size="10.00">cppgc/internal/api</text>
<text text-anchor="middle" x="46.5" y="-119.5" font-family="Helvetica,sans-Serif" font-size="10.00">&#45;constants.h</text>
</a>
</g>
</g>
<!-- Node2&#45;&gt;Node3 -->
<g id="edge2" class="edge">
<title>Node2&#45;&gt;Node3</title>
<path fill="none" stroke="midnightblue" d="M204.65,-235.32C177.47,-216.96 113.56,-173.8 75.83,-148.31"/>
<polygon fill="midnightblue" stroke="midnightblue" points="77.54,-145.24 67.29,-142.55 73.62,-151.04 77.54,-145.24"/>
</g>
<!-- Node4 -->
<g id="node4" class="node">
<title>Node4</title>
<g id="a_node4"><a xlink:title=" ">
<polygon fill="white" stroke="#bfbfbf" points="185,-56.5 185,-75.5 236,-75.5 236,-56.5 185,-56.5"/>
<text text-anchor="middle" x="210.5" y="-63.5" font-family="Helvetica,sans-Serif" font-size="10.00">stddef.h</text>
</a>
</g>
</g>
<!-- Node3&#45;&gt;Node4 -->
<g id="edge3" class="edge">
<title>Node3&#45;&gt;Node4</title>
<path fill="none" stroke="midnightblue" d="M85.37,-112.4C113.25,-102.28 150.44,-88.79 177.01,-79.15"/>
<polygon fill="midnightblue" stroke="midnightblue" points="178.43,-82.36 186.64,-75.66 176.04,-75.78 178.43,-82.36"/>
</g>
<!-- Node5 -->
<g id="node5" class="node">
<title>Node5</title>
<g id="a_node5"><a xlink:title=" ">
<polygon fill="white" stroke="#bfbfbf" points="22.5,-56.5 22.5,-75.5 70.5,-75.5 70.5,-56.5 22.5,-56.5"/>
<text text-anchor="middle" x="46.5" y="-63.5" font-family="Helvetica,sans-Serif" font-size="10.00">stdint.h</text>
</a>
</g>
</g>
<!-- Node3&#45;&gt;Node5 -->
<g id="edge4" class="edge">
<title>Node3&#45;&gt;Node5</title>
<path fill="none" stroke="midnightblue" d="M46.5,-112.4C46.5,-104.47 46.5,-94.46 46.5,-85.86"/>
<polygon fill="midnightblue" stroke="midnightblue" points="50,-85.66 46.5,-75.66 43,-85.66 50,-85.66"/>
</g>
<!-- Node6 -->
<g id="node6" class="node">
<title>Node6</title>
<g id="a_node6"><a xlink:href="v8config_8h.html" target="_top" xlink:title=" ">
<polygon fill="white" stroke="black" points="430.5,-0.5 430.5,-19.5 490.5,-19.5 490.5,-0.5 430.5,-0.5"/>
<text text-anchor="middle" x="460.5" y="-7.5" font-family="Helvetica,sans-Serif" font-size="10.00">v8config.h</text>
</a>
</g>
</g>
<!-- Node3&#45;&gt;Node6 -->
<g id="edge5" class="edge">
<title>Node3&#45;&gt;Node6</title>
<path fill="none" stroke="midnightblue" d="M66.92,-112.43C91.53,-96.18 134.67,-69.91 175.5,-56 259.47,-27.39 363.64,-16.83 419.89,-13.04"/>
<polygon fill="midnightblue" stroke="midnightblue" points="420.39,-16.51 430.15,-12.38 419.95,-9.53 420.39,-16.51"/>
</g>
<!-- Node9 -->
<g id="node9" class="node">
<title>Node9</title>
<g id="a_node9"><a xlink:href="heap_8h.html" target="_top" xlink:title=" ">
<polygon fill="white" stroke="black" points="332.5,-179.5 332.5,-198.5 406.5,-198.5 406.5,-179.5 332.5,-179.5"/>
<text text-anchor="middle" x="369.5" y="-186.5" font-family="Helvetica,sans-Serif" font-size="10.00">cppgc/heap.h</text>
</a>
</g>
</g>
<!-- Node8&#45;&gt;Node9 -->
<g id="edge8" class="edge">
<title>Node8&#45;&gt;Node9</title>
<path fill="none" stroke="midnightblue" d="M369.5,-291.34C369.5,-270.62 369.5,-232.02 369.5,-208.9"/>
<polygon fill="midnightblue" stroke="midnightblue" points="373,-208.67 369.5,-198.67 366,-208.67 373,-208.67"/>
</g>
<!-- Node8&#45;&gt;Node14 -->
<g id="edge16" class="edge">
<title>Node8&#45;&gt;Node14</title>
<path fill="none" stroke="midnightblue" d="M391.07,-291.4C405.38,-282.04 424.11,-269.79 438.51,-260.38"/>
<polygon fill="midnightblue" stroke="midnightblue" points="440.8,-263.06 447.26,-254.66 436.97,-257.2 440.8,-263.06"/>
</g>
<!-- Node9&#45;&gt;Node6 -->
<g id="edge15" class="edge">
<title>Node9&#45;&gt;Node6</title>
<path fill="none" stroke="midnightblue" d="M373.89,-179.46C387.91,-152.19 431.82,-66.78 451.18,-29.13"/>
<polygon fill="midnightblue" stroke="midnightblue" points="454.48,-30.36 455.94,-19.87 448.26,-27.16 454.48,-30.36"/>
</g>
<!-- Node10 -->
<g id="node10" class="node">
<title>Node10</title>
<g id="a_node10"><a xlink:title=" ">
<polygon fill="white" stroke="#bfbfbf" points="305,-118 305,-137 356,-137 356,-118 305,-118"/>
<text text-anchor="middle" x="330.5" y="-125" font-family="Helvetica,sans-Serif" font-size="10.00">memory</text>
</a>
</g>
</g>
<!-- Node9&#45;&gt;Node10 -->
<g id="edge9" class="edge">
<title>Node9&#45;&gt;Node10</title>
<path fill="none" stroke="midnightblue" d="M363.91,-179.48C358.12,-170.64 348.91,-156.59 341.63,-145.48"/>
<polygon fill="midnightblue" stroke="midnightblue" points="344.49,-143.45 336.08,-137.01 338.63,-147.29 344.49,-143.45"/>
</g>
<!-- Node11 -->
<g id="node11" class="node">
<title>Node11</title>
<g id="a_node11"><a xlink:title=" ">
<polygon fill="white" stroke="#bfbfbf" points="110.5,-118 110.5,-137 154.5,-137 154.5,-118 110.5,-118"/>
<text text-anchor="middle" x="132.5" y="-125" font-family="Helvetica,sans-Serif" font-size="10.00">vector</text>
</a>
</g>
</g>
<!-- Node9&#45;&gt;Node11 -->
<g id="edge10" class="edge">
<title>Node9&#45;&gt;Node11</title>
<path fill="none" stroke="midnightblue" d="M332.14,-182.61C290.12,-175.92 220.21,-162.91 162.5,-143 160.88,-142.44 159.24,-141.82 157.6,-141.16"/>
<polygon fill="midnightblue" stroke="midnightblue" points="158.95,-137.93 148.4,-137.04 156.1,-144.32 158.95,-137.93"/>
</g>
<!-- Node12 -->
<g id="node12" class="node">
<title>Node12</title>
<g id="a_node12"><a xlink:href="common_8h.html" target="_top" xlink:title=" ">
<polygon fill="white" stroke="black" points="303,-56.5 303,-75.5 394,-75.5 394,-56.5 303,-56.5"/>
<text text-anchor="middle" x="348.5" y="-63.5" font-family="Helvetica,sans-Serif" font-size="10.00">cppgc/common.h</text>
</a>
</g>
</g>
<!-- Node9&#45;&gt;Node12 -->
<g id="edge11" class="edge">
<title>Node9&#45;&gt;Node12</title>
<path fill="none" stroke="midnightblue" d="M369.7,-179.46C369.86,-165.29 369.47,-136.09 364.5,-112 362.63,-102.97 359.37,-93.29 356.27,-85.23"/>
<polygon fill="midnightblue" stroke="midnightblue" points="359.43,-83.71 352.43,-75.76 352.95,-86.34 359.43,-83.71"/>
</g>
<!-- Node13 -->
<g id="node13" class="node">
<title>Node13</title>
<g id="a_node13"><a xlink:href="custom-space_8h.html" target="_top" xlink:title=" ">
<polygon fill="white" stroke="black" points="172,-118 172,-137 287,-137 287,-118 172,-118"/>
<text text-anchor="middle" x="229.5" y="-125" font-family="Helvetica,sans-Serif" font-size="10.00">cppgc/custom&#45;space.h</text>
</a>
</g>
</g>
<!-- Node9&#45;&gt;Node13 -->
<g id="edge13" class="edge">
<title>Node9&#45;&gt;Node13</title>
<path fill="none" stroke="midnightblue" d="M349.44,-179.48C325.74,-169.4 286.09,-152.55 258.92,-141"/>
<polygon fill="midnightblue" stroke="midnightblue" points="260.09,-137.7 249.52,-137.01 257.36,-144.14 260.09,-137.7"/>
</g>
<!-- Node12&#45;&gt;Node6 -->
<g id="edge12" class="edge">
<title>Node12&#45;&gt;Node6</title>
<path fill="none" stroke="midnightblue" d="M366.49,-56.32C384.54,-47.62 412.55,-34.12 433.3,-24.11"/>
<polygon fill="midnightblue" stroke="midnightblue" points="435.06,-27.15 442.55,-19.65 432.02,-20.84 435.06,-27.15"/>
</g>
<!-- Node13&#45;&gt;Node4 -->
<g id="edge14" class="edge">
<title>Node13&#45;&gt;Node4</title>
<path fill="none" stroke="midnightblue" d="M226.78,-117.98C224.07,-109.49 219.83,-96.2 216.35,-85.32"/>
<polygon fill="midnightblue" stroke="midnightblue" points="219.59,-83.97 213.22,-75.51 212.93,-86.1 219.59,-83.97"/>
</g>
<!-- Node14&#45;&gt;Node6 -->
<g id="edge35" class="edge">
<title>Node14&#45;&gt;Node6</title>
<path fill="none" stroke="midnightblue" d="M460.5,-235.43C460.5,-201.75 460.5,-77.99 460.5,-30.1"/>
<polygon fill="midnightblue" stroke="midnightblue" points="464,-29.9 460.5,-19.9 457,-29.9 464,-29.9"/>
</g>
<!-- Node14&#45;&gt;Node9 -->
<g id="edge17" class="edge">
<title>Node14&#45;&gt;Node9</title>
<path fill="none" stroke="midnightblue" d="M445.88,-235.32C431.55,-226.82 409.49,-213.73 392.75,-203.8"/>
<polygon fill="midnightblue" stroke="midnightblue" points="394.47,-200.75 384.08,-198.65 390.9,-206.77 394.47,-200.75"/>
</g>
<!-- Node15 -->
<g id="node15" class="node">
<title>Node15</title>
<g id="a_node15"><a xlink:href="member_8h.html" target="_top" xlink:title=" ">
<polygon fill="white" stroke="black" points="571,-179.5 571,-198.5 660,-198.5 660,-179.5 571,-179.5"/>
<text text-anchor="middle" x="615.5" y="-186.5" font-family="Helvetica,sans-Serif" font-size="10.00">cppgc/member.h</text>
</a>
</g>
</g>
<!-- Node14&#45;&gt;Node15 -->
<g id="edge18" class="edge">
<title>Node14&#45;&gt;Node15</title>
<path fill="none" stroke="midnightblue" d="M485.06,-235.44C511.02,-226.4 552.17,-212.06 581.3,-201.92"/>
<polygon fill="midnightblue" stroke="midnightblue" points="582.76,-205.11 591.05,-198.52 580.46,-198.5 582.76,-205.11"/>
</g>
<!-- Node24 -->
<g id="node24" class="node">
<title>Node24</title>
<g id="a_node24"><a xlink:href="trace-trait_8h.html" target="_top" xlink:title=" ">
<polygon fill="white" stroke="black" points="825,-179.5 825,-198.5 920,-198.5 920,-179.5 825,-179.5"/>
<text text-anchor="middle" x="872.5" y="-186.5" font-family="Helvetica,sans-Serif" font-size="10.00">cppgc/trace&#45;trait.h</text>
</a>
</g>
</g>
<!-- Node14&#45;&gt;Node24 -->
<g id="edge32" class="edge">
<title>Node14&#45;&gt;Node24</title>
<path fill="none" stroke="midnightblue" d="M520.41,-236.15C599.22,-225.82 736.82,-207.78 814.61,-197.59"/>
<polygon fill="midnightblue" stroke="midnightblue" points="815.26,-201.03 824.72,-196.26 814.35,-194.09 815.26,-201.03"/>
</g>
<!-- Node15&#45;&gt;Node6 -->
<g id="edge31" class="edge">
<title>Node15&#45;&gt;Node6</title>
<path fill="none" stroke="midnightblue" d="M582.36,-179.46C561.45,-172.6 535.17,-161.07 517.5,-143 500.88,-126 477.44,-61.23 466.53,-29.18"/>
<polygon fill="midnightblue" stroke="midnightblue" points="469.84,-28.04 463.33,-19.68 463.2,-30.27 469.84,-28.04"/>
</g>
<!-- Node16 -->
<g id="node16" class="node">
<title>Node16</title>
<g id="a_node16"><a xlink:title=" ">
<polygon fill="white" stroke="#bfbfbf" points="526.5,-118 526.5,-137 572.5,-137 572.5,-118 526.5,-118"/>
<text text-anchor="middle" x="549.5" y="-125" font-family="Helvetica,sans-Serif" font-size="10.00">atomic</text>
</a>
</g>
</g>
<!-- Node15&#45;&gt;Node16 -->
<g id="edge19" class="edge">
<title>Node15&#45;&gt;Node16</title>
<path fill="none" stroke="midnightblue" d="M606.04,-179.48C595.75,-170.2 579.08,-155.17 566.51,-143.83"/>
<polygon fill="midnightblue" stroke="midnightblue" points="568.71,-141.11 558.94,-137.01 564.02,-146.3 568.71,-141.11"/>
</g>
<!-- Node17 -->
<g id="node17" class="node">
<title>Node17</title>
<g id="a_node17"><a xlink:title=" ">
<polygon fill="white" stroke="#bfbfbf" points="591,-118 591,-137 640,-137 640,-118 591,-118"/>
<text text-anchor="middle" x="615.5" y="-125" font-family="Helvetica,sans-Serif" font-size="10.00">cstddef</text>
</a>
</g>
</g>
<!-- Node15&#45;&gt;Node17 -->
<g id="edge20" class="edge">
<title>Node15&#45;&gt;Node17</title>
<path fill="none" stroke="midnightblue" d="M615.5,-179.48C615.5,-171.08 615.5,-157.98 615.5,-147.16"/>
<polygon fill="midnightblue" stroke="midnightblue" points="619,-147.01 615.5,-137.01 612,-147.01 619,-147.01"/>
</g>
<!-- Node18 -->
<g id="node18" class="node">
<title>Node18</title>
<g id="a_node18"><a xlink:title=" ">
<polygon fill="white" stroke="#bfbfbf" points="816.5,-56.5 816.5,-75.5 878.5,-75.5 878.5,-56.5 816.5,-56.5"/>
<text text-anchor="middle" x="847.5" y="-63.5" font-family="Helvetica,sans-Serif" font-size="10.00">type_traits</text>
</a>
</g>
</g>
<!-- Node15&#45;&gt;Node18 -->
<g id="edge21" class="edge">
<title>Node15&#45;&gt;Node18</title>
<path fill="none" stroke="midnightblue" d="M660.09,-182.41C694.21,-176.58 741.39,-165.08 777.5,-143 802.29,-127.84 823.74,-101.43 836.15,-84.08"/>
<polygon fill="midnightblue" stroke="midnightblue" points="839.27,-85.72 842.07,-75.51 833.51,-81.74 839.27,-85.72"/>
</g>
<!-- Node19 -->
<g id="node19" class="node">
<title>Node19</title>
<g id="a_node19"><a xlink:href="pointer-policies_8h.html" target="_top" xlink:title=" ">
<polygon fill="white" stroke="black" points="658.5,-112.5 658.5,-142.5 768.5,-142.5 768.5,-112.5 658.5,-112.5"/>
<text text-anchor="start" x="666.5" y="-130.5" font-family="Helvetica,sans-Serif" font-size="10.00">cppgc/internal/pointer</text>
<text text-anchor="middle" x="713.5" y="-119.5" font-family="Helvetica,sans-Serif" font-size="10.00">&#45;policies.h</text>
</a>
</g>
</g>
<!-- Node15&#45;&gt;Node19 -->
<g id="edge22" class="edge">
<title>Node15&#45;&gt;Node19</title>
<path fill="none" stroke="midnightblue" d="M629.54,-179.48C643.06,-171.27 663.99,-158.56 681.57,-147.88"/>
<polygon fill="midnightblue" stroke="midnightblue" points="683.67,-150.7 690.4,-142.52 680.04,-144.72 683.67,-150.7"/>
</g>
<!-- Node23 -->
<g id="node23" class="node">
<title>Node23</title>
<g id="a_node23"><a xlink:href="type-traits_8h.html" target="_top" xlink:title=" ">
<polygon fill="white" stroke="black" points="824.5,-118 824.5,-137 920.5,-137 920.5,-118 824.5,-118"/>
<text text-anchor="middle" x="872.5" y="-125" font-family="Helvetica,sans-Serif" font-size="10.00">cppgc/type&#45;traits.h</text>
</a>
</g>
</g>
<!-- Node15&#45;&gt;Node23 -->
<g id="edge29" class="edge">
<title>Node15&#45;&gt;Node23</title>
<path fill="none" stroke="midnightblue" d="M652.53,-179.49C691.76,-170.46 755.51,-155.78 810.5,-143 815.55,-141.83 820.84,-140.6 826.1,-139.37"/>
<polygon fill="midnightblue" stroke="midnightblue" points="827.17,-142.71 836.11,-137.03 825.58,-135.89 827.17,-142.71"/>
</g>
<!-- Node19&#45;&gt;Node6 -->
<g id="edge28" class="edge">
<title>Node19&#45;&gt;Node6</title>
<path fill="none" stroke="midnightblue" d="M695.51,-112.33C674.97,-96.72 639.9,-71.76 606.5,-56 572.17,-39.8 530.59,-27.65 500.6,-20.08"/>
<polygon fill="midnightblue" stroke="midnightblue" points="501.05,-16.59 490.5,-17.6 499.38,-23.39 501.05,-16.59"/>
</g>
<!-- Node19&#45;&gt;Node18 -->
<g id="edge24" class="edge">
<title>Node19&#45;&gt;Node18</title>
<path fill="none" stroke="midnightblue" d="M745.26,-112.4C767.54,-102.51 797.09,-89.38 818.69,-79.79"/>
<polygon fill="midnightblue" stroke="midnightblue" points="820.28,-82.91 828,-75.66 817.44,-76.52 820.28,-82.91"/>
</g>
<!-- Node20 -->
<g id="node20" class="node">
<title>Node20</title>
<g id="a_node20"><a xlink:title=" ">
<polygon fill="white" stroke="#bfbfbf" points="551.5,-56.5 551.5,-75.5 597.5,-75.5 597.5,-56.5 551.5,-56.5"/>
<text text-anchor="middle" x="574.5" y="-63.5" font-family="Helvetica,sans-Serif" font-size="10.00">cstdint</text>
</a>
</g>
</g>
<!-- Node19&#45;&gt;Node20 -->
<g id="edge23" class="edge">
<title>Node19&#45;&gt;Node20</title>
<path fill="none" stroke="midnightblue" d="M680.56,-112.4C657.34,-102.46 626.51,-89.26 604.08,-79.66"/>
<polygon fill="midnightblue" stroke="midnightblue" points="605.3,-76.38 594.73,-75.66 602.54,-82.81 605.3,-76.38"/>
</g>
<!-- Node21 -->
<g id="node21" class="node">
<title>Node21</title>
<g id="a_node21"><a xlink:href="source-location_8h.html" target="_top" xlink:title=" ">
<polygon fill="white" stroke="black" points="654,-56.5 654,-75.5 773,-75.5 773,-56.5 654,-56.5"/>
<text text-anchor="middle" x="713.5" y="-63.5" font-family="Helvetica,sans-Serif" font-size="10.00">cppgc/source&#45;location.h</text>
</a>
</g>
</g>
<!-- Node19&#45;&gt;Node21 -->
<g id="edge25" class="edge">
<title>Node19&#45;&gt;Node21</title>
<path fill="none" stroke="midnightblue" d="M713.5,-112.4C713.5,-104.47 713.5,-94.46 713.5,-85.86"/>
<polygon fill="midnightblue" stroke="midnightblue" points="717,-85.66 713.5,-75.66 710,-85.66 717,-85.66"/>
</g>
<!-- Node21&#45;&gt;Node6 -->
<g id="edge27" class="edge">
<title>Node21&#45;&gt;Node6</title>
<path fill="none" stroke="midnightblue" d="M673.41,-56.44C626.16,-46.36 548.1,-29.7 500.77,-19.6"/>
<polygon fill="midnightblue" stroke="midnightblue" points="501.38,-16.15 490.87,-17.48 499.92,-22.99 501.38,-16.15"/>
</g>
<!-- Node22 -->
<g id="node22" class="node">
<title>Node22</title>
<g id="a_node22"><a xlink:title=" ">
<polygon fill="white" stroke="#bfbfbf" points="693,-0.5 693,-19.5 734,-19.5 734,-0.5 693,-0.5"/>
<text text-anchor="middle" x="713.5" y="-7.5" font-family="Helvetica,sans-Serif" font-size="10.00">string</text>
</a>
</g>
</g>
<!-- Node21&#45;&gt;Node22 -->
<g id="edge26" class="edge">
<title>Node21&#45;&gt;Node22</title>
<path fill="none" stroke="midnightblue" d="M713.5,-56.08C713.5,-49.01 713.5,-38.86 713.5,-29.99"/>
<polygon fill="midnightblue" stroke="midnightblue" points="717,-29.75 713.5,-19.75 710,-29.75 717,-29.75"/>
</g>
<!-- Node23&#45;&gt;Node18 -->
<g id="edge30" class="edge">
<title>Node23&#45;&gt;Node18</title>
<path fill="none" stroke="midnightblue" d="M868.92,-117.98C865.32,-109.4 859.65,-95.93 855.06,-84.98"/>
<polygon fill="midnightblue" stroke="midnightblue" points="858.18,-83.37 851.08,-75.51 851.72,-86.08 858.18,-83.37"/>
</g>
<!-- Node24&#45;&gt;Node18 -->
<g id="edge33" class="edge">
<title>Node24&#45;&gt;Node18</title>
<path fill="none" stroke="midnightblue" d="M890.58,-179.39C904.06,-171.87 921.47,-159.57 929.5,-143 935.51,-130.6 936.52,-123.86 929.5,-112 920.46,-96.72 904.19,-86.29 888.51,-79.35"/>
<polygon fill="midnightblue" stroke="midnightblue" points="889.48,-75.96 878.89,-75.46 886.86,-82.45 889.48,-75.96"/>
</g>
<!-- Node24&#45;&gt;Node23 -->
<g id="edge34" class="edge">
<title>Node24&#45;&gt;Node23</title>
<path fill="none" stroke="midnightblue" d="M872.5,-179.48C872.5,-171.08 872.5,-157.98 872.5,-147.16"/>
<polygon fill="midnightblue" stroke="midnightblue" points="876,-147.01 872.5,-137.01 869,-147.01 876,-147.01"/>
</g>
</g>
</svg>
