<?xml version="1.0" encoding="UTF-8" standalone="no"?>
<!DOCTYPE svg PUBLIC "-//W3C//DTD SVG 1.1//EN"
 "http://www.w3.org/Graphics/SVG/1.1/DTD/svg11.dtd">
<!-- Generated by graphviz version 2.44.0 ()
 -->
<!-- Title: include/cppgc/source&#45;location.h Pages: 1 -->
<svg width="457pt" height="352pt"
 viewBox="0.00 0.00 457.16 352.00" xmlns="http://www.w3.org/2000/svg" xmlns:xlink="http://www.w3.org/1999/xlink">
<g id="graph0" class="graph" transform="scale(1 1) rotate(0) translate(4 348)">
<title>include/cppgc/source&#45;location.h</title>
<polygon fill="white" stroke="transparent" points="-4,4 -4,-348 453.16,-348 453.16,4 -4,4"/>
<!-- Node1 -->
<g id="node1" class="node">
<title>Node1</title>
<g id="a_node1"><a xlink:title=" ">
<polygon fill="#bfbfbf" stroke="black" points="105.16,-313.5 105.16,-343.5 214.16,-343.5 214.16,-313.5 105.16,-313.5"/>
<text text-anchor="start" x="113.16" y="-331.5" font-family="Helvetica,sans-Serif" font-size="10.00">include/cppgc/source</text>
<text text-anchor="middle" x="159.66" y="-320.5" font-family="Helvetica,sans-Serif" font-size="10.00">&#45;location.h</text>
</a>
</g>
</g>
<!-- Node2 -->
<g id="node2" class="node">
<title>Node2</title>
<g id="a_node2"><a xlink:href="logging_8h.html" target="_top" xlink:title=" ">
<polygon fill="white" stroke="black" points="41.16,-123.5 41.16,-153.5 152.16,-153.5 152.16,-123.5 41.16,-123.5"/>
<text text-anchor="start" x="49.16" y="-141.5" font-family="Helvetica,sans-Serif" font-size="10.00">include/cppgc/internal</text>
<text text-anchor="middle" x="96.66" y="-130.5" font-family="Helvetica,sans-Serif" font-size="10.00">/logging.h</text>
</a>
</g>
</g>
<!-- Node1&#45;&gt;Node2 -->
<g id="edge1" class="edge">
<title>Node1&#45;&gt;Node2</title>
<path fill="none" stroke="midnightblue" d="M151.69,-303.72C138.39,-264.04 112.08,-185.51 101.36,-153.54"/>
<polygon fill="midnightblue" stroke="midnightblue" points="148.43,-305 154.92,-313.37 155.06,-302.78 148.43,-305"/>
</g>
<!-- Node4 -->
<g id="node4" class="node">
<title>Node4</title>
<g id="a_node4"><a xlink:href="persistent_8h.html" target="_top" xlink:title=" ">
<polygon fill="white" stroke="black" points="112.66,-0.5 112.66,-19.5 242.66,-19.5 242.66,-0.5 112.66,-0.5"/>
<text text-anchor="middle" x="177.66" y="-7.5" font-family="Helvetica,sans-Serif" font-size="10.00">include/cppgc/persistent.h</text>
</a>
</g>
</g>
<!-- Node1&#45;&gt;Node4 -->
<g id="edge16" class="edge">
<title>Node1&#45;&gt;Node4</title>
<path fill="none" stroke="midnightblue" d="M105.68,-309.56C59.91,-290.55 1.66,-255.62 1.66,-201 1.66,-201 1.66,-201 1.66,-137.5 1.66,-100.31 -4.97,-82.95 20.66,-56 44.3,-31.14 80.67,-19.73 112.45,-14.6"/>
<polygon fill="midnightblue" stroke="midnightblue" points="104.64,-312.92 115.23,-313.38 107.24,-306.42 104.64,-312.92"/>
</g>
<!-- Node5 -->
<g id="node5" class="node">
<title>Node5</title>
<g id="a_node5"><a xlink:href="visitor_8h.html" target="_top" xlink:title=" ">
<polygon fill="white" stroke="black" points="159.16,-62 159.16,-81 272.16,-81 272.16,-62 159.16,-62"/>
<text text-anchor="middle" x="215.66" y="-69" font-family="Helvetica,sans-Serif" font-size="10.00">include/cppgc/visitor.h</text>
</a>
</g>
</g>
<!-- Node1&#45;&gt;Node5 -->
<g id="edge17" class="edge">
<title>Node1&#45;&gt;Node5</title>
<path fill="none" stroke="midnightblue" d="M164.92,-303.56C176.95,-248.76 206.05,-116.26 213.76,-81.16"/>
<polygon fill="midnightblue" stroke="midnightblue" points="161.48,-302.91 162.75,-313.43 168.31,-304.41 161.48,-302.91"/>
</g>
<!-- Node6 -->
<g id="node6" class="node">
<title>Node6</title>
<g id="a_node6"><a xlink:href="pointer-policies_8h.html" target="_top" xlink:title=" ">
<polygon fill="white" stroke="black" points="230.16,-246.5 230.16,-276.5 341.16,-276.5 341.16,-246.5 230.16,-246.5"/>
<text text-anchor="start" x="238.16" y="-264.5" font-family="Helvetica,sans-Serif" font-size="10.00">include/cppgc/internal</text>
<text text-anchor="middle" x="285.66" y="-253.5" font-family="Helvetica,sans-Serif" font-size="10.00">/pointer&#45;policies.h</text>
</a>
</g>
</g>
<!-- Node1&#45;&gt;Node6 -->
<g id="edge6" class="edge">
<title>Node1&#45;&gt;Node6</title>
<path fill="none" stroke="midnightblue" d="M196.07,-308.71C215.95,-298.46 240.14,-285.98 258.37,-276.58"/>
<polygon fill="midnightblue" stroke="midnightblue" points="194.28,-305.7 187,-313.4 197.49,-311.92 194.28,-305.7"/>
</g>
<!-- Node3 -->
<g id="node3" class="node">
<title>Node3</title>
<g id="a_node3"><a xlink:href="persistent-node_8h.html" target="_top" xlink:title=" ">
<polygon fill="white" stroke="black" points="30.16,-56.5 30.16,-86.5 141.16,-86.5 141.16,-56.5 30.16,-56.5"/>
<text text-anchor="start" x="38.16" y="-74.5" font-family="Helvetica,sans-Serif" font-size="10.00">include/cppgc/internal</text>
<text text-anchor="middle" x="85.66" y="-63.5" font-family="Helvetica,sans-Serif" font-size="10.00">/persistent&#45;node.h</text>
</a>
</g>
</g>
<!-- Node2&#45;&gt;Node3 -->
<g id="edge2" class="edge">
<title>Node2&#45;&gt;Node3</title>
<path fill="none" stroke="midnightblue" d="M92.58,-113.4C91.05,-104.37 89.37,-94.41 88.04,-86.58"/>
<polygon fill="midnightblue" stroke="midnightblue" points="89.15,-114.12 94.27,-123.4 96.05,-112.95 89.15,-114.12"/>
</g>
<!-- Node2&#45;&gt;Node5 -->
<g id="edge4" class="edge">
<title>Node2&#45;&gt;Node5</title>
<path fill="none" stroke="midnightblue" d="M131.49,-118.47C154.21,-106.06 182.76,-90.47 200.08,-81.01"/>
<polygon fill="midnightblue" stroke="midnightblue" points="129.58,-115.53 122.48,-123.4 132.93,-121.67 129.58,-115.53"/>
</g>
<!-- Node3&#45;&gt;Node4 -->
<g id="edge3" class="edge">
<title>Node3&#45;&gt;Node4</title>
<path fill="none" stroke="midnightblue" d="M116.16,-50.78C132.46,-40.23 151.71,-27.78 164.27,-19.66"/>
<polygon fill="midnightblue" stroke="midnightblue" points="113.96,-48.03 107.46,-56.4 117.76,-53.91 113.96,-48.03"/>
</g>
<!-- Node5&#45;&gt;Node4 -->
<g id="edge5" class="edge">
<title>Node5&#45;&gt;Node4</title>
<path fill="none" stroke="midnightblue" d="M204.8,-53.51C197.7,-42.39 188.73,-28.34 183.09,-19.51"/>
<polygon fill="midnightblue" stroke="midnightblue" points="201.88,-55.43 210.21,-61.98 207.78,-51.66 201.88,-55.43"/>
</g>
<!-- Node6&#45;&gt;Node4 -->
<g id="edge14" class="edge">
<title>Node6&#45;&gt;Node4</title>
<path fill="none" stroke="midnightblue" d="M330.52,-241.81C346.62,-233.65 364.13,-222.95 377.66,-210 428.16,-161.66 454.93,-109.26 409.66,-56 388.47,-31.07 303.62,-19.74 242.67,-14.73"/>
<polygon fill="midnightblue" stroke="midnightblue" points="328.71,-238.8 321.24,-246.32 331.77,-245.1 328.71,-238.8"/>
</g>
<!-- Node6&#45;&gt;Node5 -->
<g id="edge15" class="edge">
<title>Node6&#45;&gt;Node5</title>
<path fill="none" stroke="midnightblue" d="M259.77,-239.06C251.44,-230.83 243,-220.79 237.66,-210 215.58,-165.36 214.79,-103.53 215.32,-81.08"/>
<polygon fill="midnightblue" stroke="midnightblue" points="257.59,-241.82 267.29,-246.09 262.37,-236.7 257.59,-241.82"/>
</g>
<!-- Node7 -->
<g id="node7" class="node">
<title>Node7</title>
<g id="a_node7"><a xlink:href="member_8h.html" target="_top" xlink:title=" ">
<polygon fill="white" stroke="black" points="246.66,-190.5 246.66,-209.5 368.66,-209.5 368.66,-190.5 246.66,-190.5"/>
<text text-anchor="middle" x="307.66" y="-197.5" font-family="Helvetica,sans-Serif" font-size="10.00">include/cppgc/member.h</text>
</a>
</g>
</g>
<!-- Node6&#45;&gt;Node7 -->
<g id="edge7" class="edge">
<title>Node6&#45;&gt;Node7</title>
<path fill="none" stroke="midnightblue" d="M294.39,-236.9C297.93,-227.3 301.81,-216.81 304.46,-209.66"/>
<polygon fill="midnightblue" stroke="midnightblue" points="291.06,-235.81 290.87,-246.4 297.62,-238.23 291.06,-235.81"/>
</g>
<!-- Node7&#45;&gt;Node5 -->
<g id="edge13" class="edge">
<title>Node7&#45;&gt;Node5</title>
<path fill="none" stroke="midnightblue" d="M295.38,-182.12C275.55,-154.86 237.17,-102.08 222.03,-81.26"/>
<polygon fill="midnightblue" stroke="midnightblue" points="292.62,-184.28 301.33,-190.31 298.28,-180.16 292.62,-184.28"/>
</g>
<!-- Node8 -->
<g id="node8" class="node">
<title>Node8</title>
<g id="a_node8"><a xlink:href="liveness-broker_8h.html" target="_top" xlink:title=" ">
<polygon fill="white" stroke="black" points="286.66,-123.5 286.66,-153.5 402.66,-153.5 402.66,-123.5 286.66,-123.5"/>
<text text-anchor="start" x="294.66" y="-141.5" font-family="Helvetica,sans-Serif" font-size="10.00">include/cppgc/liveness</text>
<text text-anchor="middle" x="344.66" y="-130.5" font-family="Helvetica,sans-Serif" font-size="10.00">&#45;broker.h</text>
</a>
</g>
</g>
<!-- Node7&#45;&gt;Node8 -->
<g id="edge8" class="edge">
<title>Node7&#45;&gt;Node8</title>
<path fill="none" stroke="midnightblue" d="M318.25,-181.96C323.85,-172.96 330.65,-162.03 335.94,-153.52"/>
<polygon fill="midnightblue" stroke="midnightblue" points="315.27,-180.13 312.96,-190.48 321.21,-183.83 315.27,-180.13"/>
</g>
<!-- Node8&#45;&gt;Node5 -->
<g id="edge11" class="edge">
<title>Node8&#45;&gt;Node5</title>
<path fill="none" stroke="midnightblue" d="M307.55,-118.8C282.82,-106.34 251.49,-90.56 232.54,-81.01"/>
<polygon fill="midnightblue" stroke="midnightblue" points="306.16,-122.02 316.67,-123.4 309.31,-115.77 306.16,-122.02"/>
</g>
<!-- Node9 -->
<g id="node9" class="node">
<title>Node9</title>
<g id="a_node9"><a xlink:href="prefinalizer-handler_8h.html" target="_top" xlink:title=" ">
<polygon fill="white" stroke="black" points="290.16,-56.5 290.16,-86.5 401.16,-86.5 401.16,-56.5 290.16,-56.5"/>
<text text-anchor="start" x="298.16" y="-74.5" font-family="Helvetica,sans-Serif" font-size="10.00">include/cppgc/internal</text>
<text text-anchor="middle" x="345.66" y="-63.5" font-family="Helvetica,sans-Serif" font-size="10.00">/prefinalizer&#45;handler.h</text>
</a>
</g>
</g>
<!-- Node8&#45;&gt;Node9 -->
<g id="edge9" class="edge">
<title>Node8&#45;&gt;Node9</title>
<path fill="none" stroke="midnightblue" d="M345.03,-113.11C345.17,-104.15 345.32,-94.32 345.44,-86.58"/>
<polygon fill="midnightblue" stroke="midnightblue" points="341.53,-113.34 344.88,-123.4 348.53,-113.45 341.53,-113.34"/>
</g>
<!-- Node10 -->
<g id="node10" class="node">
<title>Node10</title>
<g id="a_node10"><a xlink:href="prefinalizer_8h.html" target="_top" xlink:title=" ">
<polygon fill="white" stroke="black" points="316.16,-0.5 316.16,-19.5 449.16,-19.5 449.16,-0.5 316.16,-0.5"/>
<text text-anchor="middle" x="382.66" y="-7.5" font-family="Helvetica,sans-Serif" font-size="10.00">include/cppgc/prefinalizer.h</text>
</a>
</g>
</g>
<!-- Node8&#45;&gt;Node10 -->
<g id="edge12" class="edge">
<title>Node8&#45;&gt;Node10</title>
<path fill="none" stroke="midnightblue" d="M381.61,-117.72C392.71,-109.76 403.55,-99.48 409.66,-87 421.11,-63.61 401.67,-34.09 390.18,-19.69"/>
<polygon fill="midnightblue" stroke="midnightblue" points="379.53,-114.9 373.14,-123.35 383.41,-120.72 379.53,-114.9"/>
</g>
<!-- Node9&#45;&gt;Node10 -->
<g id="edge10" class="edge">
<title>Node9&#45;&gt;Node10</title>
<path fill="none" stroke="midnightblue" d="M359.77,-47.8C365.89,-37.96 372.69,-27.03 377.27,-19.66"/>
<polygon fill="midnightblue" stroke="midnightblue" points="356.74,-46.06 354.43,-56.4 362.68,-49.76 356.74,-46.06"/>
</g>
</g>
</svg>
