<?xml version="1.0" encoding="UTF-8" standalone="no"?>
<!DOCTYPE svg PUBLIC "-//W3C//DTD SVG 1.1//EN"
 "http://www.w3.org/Graphics/SVG/1.1/DTD/svg11.dtd">
<!-- Generated by graphviz version 2.44.0 ()
 -->
<!-- Title: cppgc::internal::IsGarbageCollectedType&lt; T, typename &gt; Pages: 1 -->
<svg width="252pt" height="253pt"
 viewBox="0.00 0.00 252.00 253.00" xmlns="http://www.w3.org/2000/svg" xmlns:xlink="http://www.w3.org/1999/xlink">
<g id="graph0" class="graph" transform="scale(1 1) rotate(0) translate(4 249)">
<title>cppgc::internal::IsGarbageCollectedType&lt; T, typename &gt;</title>
<polygon fill="white" stroke="transparent" points="-4,4 -4,-249 248,-249 248,4 -4,4"/>
<!-- Node1 -->
<g id="node1" class="node">
<title>Node1</title>
<g id="a_node1"><a xlink:title=" ">
<polygon fill="#bfbfbf" stroke="black" points="0,-0.5 0,-30.5 148,-30.5 148,-0.5 0,-0.5"/>
<text text-anchor="start" x="8" y="-18.5" font-family="Helvetica,sans-Serif" font-size="10.00">cppgc::internal::IsGarbage</text>
<text text-anchor="middle" x="74" y="-7.5" font-family="Helvetica,sans-Serif" font-size="10.00">CollectedType&lt; T, typename &gt;</text>
</a>
</g>
</g>
<!-- Node2 -->
<g id="node2" class="node">
<title>Node2</title>
<g id="a_node2"><a xlink:href="structcppgc_1_1internal_1_1IsGarbageCollectedMixinType.html" target="_top" xlink:title=" ">
<polygon fill="white" stroke="black" points="10,-68.5 10,-98.5 138,-98.5 138,-68.5 10,-68.5"/>
<text text-anchor="start" x="18" y="-86.5" font-family="Helvetica,sans-Serif" font-size="10.00">cppgc::internal::IsGarbage</text>
<text text-anchor="middle" x="74" y="-75.5" font-family="Helvetica,sans-Serif" font-size="10.00">CollectedMixinType&lt; T &gt;</text>
</a>
</g>
</g>
<!-- Node2&#45;&gt;Node1 -->
<g id="edge1" class="edge">
<title>Node2&#45;&gt;Node1</title>
<path fill="none" stroke="midnightblue" d="M74,-58.03C74,-48.86 74,-38.74 74,-30.79"/>
<polygon fill="midnightblue" stroke="midnightblue" points="70.5,-58.18 74,-68.18 77.5,-58.18 70.5,-58.18"/>
</g>
<!-- Node3 -->
<g id="node3" class="node">
<title>Node3</title>
<g id="a_node3"><a xlink:title=" ">
<polygon fill="white" stroke="#bfbfbf" points="18.5,-157.5 18.5,-176.5 97.5,-176.5 97.5,-157.5 18.5,-157.5"/>
<text text-anchor="middle" x="58" y="-164.5" font-family="Helvetica,sans-Serif" font-size="10.00">std::false_type</text>
</a>
</g>
</g>
<!-- Node3&#45;&gt;Node2 -->
<g id="edge2" class="edge">
<title>Node3&#45;&gt;Node2</title>
<path fill="none" stroke="midnightblue" d="M61.69,-147.23C64.59,-132.41 68.59,-112.05 71.23,-98.6"/>
<polygon fill="midnightblue" stroke="midnightblue" points="58.2,-146.79 59.71,-157.28 65.07,-148.14 58.2,-146.79"/>
</g>
<!-- Node4 -->
<g id="node4" class="node">
<title>Node4</title>
<g id="a_node4"><a xlink:href="structcppgc_1_1internal_1_1IsGarbageCollectedMixinType.html" target="_top" xlink:title=" ">
<polygon fill="white" stroke="black" points="116,-146.5 116,-187.5 244,-187.5 244,-146.5 116,-146.5"/>
<text text-anchor="start" x="124" y="-175.5" font-family="Helvetica,sans-Serif" font-size="10.00">cppgc::internal::IsGarbage</text>
<text text-anchor="start" x="124" y="-164.5" font-family="Helvetica,sans-Serif" font-size="10.00">CollectedMixinType&lt; T,</text>
<text text-anchor="middle" x="180" y="-153.5" font-family="Helvetica,sans-Serif" font-size="10.00"> typename &gt;</text>
</a>
</g>
</g>
<!-- Node4&#45;&gt;Node2 -->
<g id="edge3" class="edge">
<title>Node4&#45;&gt;Node2</title>
<path fill="none" stroke="orange" stroke-dasharray="5,2" d="M146.63,-140.34C128.64,-126.51 107.13,-109.97 92.21,-98.5"/>
<polygon fill="orange" stroke="orange" points="144.55,-143.16 154.61,-146.48 148.82,-137.61 144.55,-143.16"/>
<text text-anchor="middle" x="142.5" y="-120" font-family="Helvetica,sans-Serif" font-size="10.00"> &lt; T &gt;</text>
</g>
<!-- Node5 -->
<g id="node5" class="node">
<title>Node5</title>
<g id="a_node5"><a xlink:title=" ">
<polygon fill="white" stroke="#bfbfbf" points="149.5,-225.5 149.5,-244.5 210.5,-244.5 210.5,-225.5 149.5,-225.5"/>
<text text-anchor="middle" x="180" y="-232.5" font-family="Helvetica,sans-Serif" font-size="10.00">false_type</text>
</a>
</g>
</g>
<!-- Node5&#45;&gt;Node4 -->
<g id="edge4" class="edge">
<title>Node5&#45;&gt;Node4</title>
<path fill="none" stroke="midnightblue" d="M180,-215.25C180,-206.65 180,-196.45 180,-187.74"/>
<polygon fill="midnightblue" stroke="midnightblue" points="176.5,-215.37 180,-225.37 183.5,-215.37 176.5,-215.37"/>
</g>
</g>
</svg>
