<?xml version="1.0" encoding="UTF-8" standalone="no"?>
<!DOCTYPE svg PUBLIC "-//W3C//DTD SVG 1.1//EN"
 "http://www.w3.org/Graphics/SVG/1.1/DTD/svg11.dtd">
<!-- Generated by graphviz version 2.44.0 ()
 -->
<!-- Title: cppgc::internal::IsTraceMethodConst&lt; T, void_t&lt; decltype(std::declval&lt; const T &gt;().Trace(std::declval&lt; Visitor * &gt;()))&gt; &gt; Pages: 1 -->
<svg width="136pt" height="128pt"
 viewBox="0.00 0.00 136.00 128.00" xmlns="http://www.w3.org/2000/svg" xmlns:xlink="http://www.w3.org/1999/xlink">
<g id="graph0" class="graph" transform="scale(1 1) rotate(0) translate(4 124)">
<title>cppgc::internal::IsTraceMethodConst&lt; T, void_t&lt; decltype(std::declval&lt; const T &gt;().Trace(std::declval&lt; Visitor * &gt;()))&gt; &gt;</title>
<polygon fill="white" stroke="transparent" points="-4,4 -4,-124 132,-124 132,4 -4,4"/>
<!-- Node1 -->
<g id="node1" class="node">
<title>Node1</title>
<g id="a_node1"><a xlink:title=" ">
<polygon fill="#bfbfbf" stroke="black" points="0,-0.5 0,-63.5 128,-63.5 128,-0.5 0,-0.5"/>
<text text-anchor="start" x="8" y="-51.5" font-family="Helvetica,sans-Serif" font-size="10.00">cppgc::internal::IsTrace</text>
<text text-anchor="start" x="8" y="-40.5" font-family="Helvetica,sans-Serif" font-size="10.00">MethodConst&lt; T, void_t</text>
<text text-anchor="start" x="8" y="-29.5" font-family="Helvetica,sans-Serif" font-size="10.00">&lt; decltype(std::declval</text>
<text text-anchor="start" x="8" y="-18.5" font-family="Helvetica,sans-Serif" font-size="10.00">&lt; const T &gt;().Trace(std</text>
<text text-anchor="middle" x="64" y="-7.5" font-family="Helvetica,sans-Serif" font-size="10.00">::declval&lt; Visitor * &gt;()))&gt; &gt;</text>
</a>
</g>
</g>
<!-- Node2 -->
<g id="node2" class="node">
<title>Node2</title>
<g id="a_node2"><a xlink:title=" ">
<polygon fill="white" stroke="#bfbfbf" points="36,-100.5 36,-119.5 92,-119.5 92,-100.5 36,-100.5"/>
<text text-anchor="middle" x="64" y="-107.5" font-family="Helvetica,sans-Serif" font-size="10.00">true_type</text>
</a>
</g>
</g>
<!-- Node2&#45;&gt;Node1 -->
<g id="edge1" class="edge">
<title>Node2&#45;&gt;Node1</title>
<path fill="none" stroke="midnightblue" d="M64,-90.19C64,-82.16 64,-72.59 64,-63.59"/>
<polygon fill="midnightblue" stroke="midnightblue" points="60.5,-90.28 64,-100.28 67.5,-90.28 60.5,-90.28"/>
</g>
</g>
</svg>
