<?xml version="1.0" encoding="UTF-8" standalone="no"?>
<!DOCTYPE svg PUBLIC "-//W3C//DTD SVG 1.1//EN"
 "http://www.w3.org/Graphics/SVG/1.1/DTD/svg11.dtd">
<!-- Generated by graphviz version 2.44.0 ()
 -->
<!-- Title: include/cppgc/trace&#45;trait.h Pages: 1 -->
<svg width="525pt" height="229pt"
 viewBox="0.00 0.00 525.00 229.00" xmlns="http://www.w3.org/2000/svg" xmlns:xlink="http://www.w3.org/1999/xlink">
<g id="graph0" class="graph" transform="scale(1 1) rotate(0) translate(4 225)">
<title>include/cppgc/trace&#45;trait.h</title>
<polygon fill="white" stroke="transparent" points="-4,4 -4,-225 521,-225 521,4 -4,4"/>
<!-- Node1 -->
<g id="node1" class="node">
<title>Node1</title>
<g id="a_node1"><a xlink:title=" ">
<polygon fill="#bfbfbf" stroke="black" points="185,-190.5 185,-220.5 286,-220.5 286,-190.5 185,-190.5"/>
<text text-anchor="start" x="193" y="-208.5" font-family="Helvetica,sans-Serif" font-size="10.00">include/cppgc/trace</text>
<text text-anchor="middle" x="235.5" y="-197.5" font-family="Helvetica,sans-Serif" font-size="10.00">&#45;trait.h</text>
</a>
</g>
</g>
<!-- Node2 -->
<g id="node2" class="node">
<title>Node2</title>
<g id="a_node2"><a xlink:href="garbage-collected_8h.html" target="_top" xlink:title=" ">
<polygon fill="white" stroke="black" points="136.5,-123.5 136.5,-153.5 250.5,-153.5 250.5,-123.5 136.5,-123.5"/>
<text text-anchor="start" x="144.5" y="-141.5" font-family="Helvetica,sans-Serif" font-size="10.00">include/cppgc/garbage</text>
<text text-anchor="middle" x="193.5" y="-130.5" font-family="Helvetica,sans-Serif" font-size="10.00">&#45;collected.h</text>
</a>
</g>
</g>
<!-- Node1&#45;&gt;Node2 -->
<g id="edge1" class="edge">
<title>Node1&#45;&gt;Node2</title>
<path fill="none" stroke="midnightblue" d="M220.88,-181.87C214.8,-172.46 207.93,-161.83 202.6,-153.58"/>
<polygon fill="midnightblue" stroke="midnightblue" points="218.02,-183.9 226.39,-190.4 223.9,-180.1 218.02,-183.9"/>
</g>
<!-- Node4 -->
<g id="node4" class="node">
<title>Node4</title>
<g id="a_node4"><a xlink:href="visitor_8h.html" target="_top" xlink:title=" ">
<polygon fill="white" stroke="black" points="222,-62 222,-81 335,-81 335,-62 222,-62"/>
<text text-anchor="middle" x="278.5" y="-69" font-family="Helvetica,sans-Serif" font-size="10.00">include/cppgc/visitor.h</text>
</a>
</g>
</g>
<!-- Node1&#45;&gt;Node4 -->
<g id="edge12" class="edge">
<title>Node1&#45;&gt;Node4</title>
<path fill="none" stroke="midnightblue" d="M247.91,-181.1C252,-172.72 256.32,-163.09 259.5,-154 268.51,-128.22 274.54,-96.35 277.1,-81.24"/>
<polygon fill="midnightblue" stroke="midnightblue" points="244.66,-179.76 243.28,-190.26 250.91,-182.91 244.66,-179.76"/>
</g>
<!-- Node6 -->
<g id="node6" class="node">
<title>Node6</title>
<g id="a_node6"><a xlink:href="persistent-node_8h.html" target="_top" xlink:title=" ">
<polygon fill="white" stroke="black" points="0,-123.5 0,-153.5 111,-153.5 111,-123.5 0,-123.5"/>
<text text-anchor="start" x="8" y="-141.5" font-family="Helvetica,sans-Serif" font-size="10.00">include/cppgc/internal</text>
<text text-anchor="middle" x="55.5" y="-130.5" font-family="Helvetica,sans-Serif" font-size="10.00">/persistent&#45;node.h</text>
</a>
</g>
</g>
<!-- Node1&#45;&gt;Node6 -->
<g id="edge5" class="edge">
<title>Node1&#45;&gt;Node6</title>
<path fill="none" stroke="midnightblue" d="M186.91,-186.96C157.92,-176.48 121.59,-163.37 94.48,-153.58"/>
<polygon fill="midnightblue" stroke="midnightblue" points="185.85,-190.29 196.44,-190.4 188.23,-183.71 185.85,-190.29"/>
</g>
<!-- Node7 -->
<g id="node7" class="node">
<title>Node7</title>
<g id="a_node7"><a xlink:href="liveness-broker_8h.html" target="_top" xlink:title=" ">
<polygon fill="white" stroke="black" points="328.5,-123.5 328.5,-153.5 444.5,-153.5 444.5,-123.5 328.5,-123.5"/>
<text text-anchor="start" x="336.5" y="-141.5" font-family="Helvetica,sans-Serif" font-size="10.00">include/cppgc/liveness</text>
<text text-anchor="middle" x="386.5" y="-130.5" font-family="Helvetica,sans-Serif" font-size="10.00">&#45;broker.h</text>
</a>
</g>
</g>
<!-- Node1&#45;&gt;Node7 -->
<g id="edge7" class="edge">
<title>Node1&#45;&gt;Node7</title>
<path fill="none" stroke="midnightblue" d="M277.53,-186.41C301.64,-176.03 331.45,-163.2 353.8,-153.58"/>
<polygon fill="midnightblue" stroke="midnightblue" points="276.07,-183.23 268.26,-190.4 278.83,-189.66 276.07,-183.23"/>
</g>
<!-- Node3 -->
<g id="node3" class="node">
<title>Node3</title>
<g id="a_node3"><a xlink:href="allocation_8h.html" target="_top" xlink:title=" ">
<polygon fill="white" stroke="black" points="75.5,-62 75.5,-81 203.5,-81 203.5,-62 75.5,-62"/>
<text text-anchor="middle" x="139.5" y="-69" font-family="Helvetica,sans-Serif" font-size="10.00">include/cppgc/allocation.h</text>
</a>
</g>
</g>
<!-- Node2&#45;&gt;Node3 -->
<g id="edge2" class="edge">
<title>Node2&#45;&gt;Node3</title>
<path fill="none" stroke="midnightblue" d="M175.35,-115.66C165.56,-103.86 154.01,-89.97 146.72,-81.19"/>
<polygon fill="midnightblue" stroke="midnightblue" points="172.7,-117.94 181.78,-123.4 178.08,-113.47 172.7,-117.94"/>
</g>
<!-- Node2&#45;&gt;Node4 -->
<g id="edge3" class="edge">
<title>Node2&#45;&gt;Node4</title>
<path fill="none" stroke="midnightblue" d="M220.3,-117.01C236.08,-104.94 255.22,-90.3 267.13,-81.19"/>
<polygon fill="midnightblue" stroke="midnightblue" points="217.76,-114.54 211.94,-123.4 222.01,-120.1 217.76,-114.54"/>
</g>
<!-- Node5 -->
<g id="node5" class="node">
<title>Node5</title>
<g id="a_node5"><a xlink:href="persistent_8h.html" target="_top" xlink:title=" ">
<polygon fill="white" stroke="black" points="130.5,-0.5 130.5,-19.5 260.5,-19.5 260.5,-0.5 130.5,-0.5"/>
<text text-anchor="middle" x="195.5" y="-7.5" font-family="Helvetica,sans-Serif" font-size="10.00">include/cppgc/persistent.h</text>
</a>
</g>
</g>
<!-- Node4&#45;&gt;Node5 -->
<g id="edge4" class="edge">
<title>Node4&#45;&gt;Node5</title>
<path fill="none" stroke="midnightblue" d="M258.43,-56.11C242.47,-44.67 220.67,-29.05 207.37,-19.51"/>
<polygon fill="midnightblue" stroke="midnightblue" points="256.44,-58.99 266.61,-61.98 260.52,-53.3 256.44,-58.99"/>
</g>
<!-- Node6&#45;&gt;Node5 -->
<g id="edge6" class="edge">
<title>Node6&#45;&gt;Node5</title>
<path fill="none" stroke="midnightblue" d="M52.5,-113.22C51.66,-95.48 53.56,-71.85 66.5,-56 82.25,-36.71 106.78,-25.67 130.24,-19.36"/>
<polygon fill="midnightblue" stroke="midnightblue" points="49.02,-113.69 53.29,-123.39 56,-113.14 49.02,-113.69"/>
</g>
<!-- Node7&#45;&gt;Node4 -->
<g id="edge10" class="edge">
<title>Node7&#45;&gt;Node4</title>
<path fill="none" stroke="midnightblue" d="M354.33,-118.14C333.81,-105.79 308.22,-90.39 292.63,-81.01"/>
<polygon fill="midnightblue" stroke="midnightblue" points="352.69,-121.24 363.07,-123.4 356.3,-115.24 352.69,-121.24"/>
</g>
<!-- Node8 -->
<g id="node8" class="node">
<title>Node8</title>
<g id="a_node8"><a xlink:href="prefinalizer-handler_8h.html" target="_top" xlink:title=" ">
<polygon fill="white" stroke="black" points="353,-56.5 353,-86.5 464,-86.5 464,-56.5 353,-56.5"/>
<text text-anchor="start" x="361" y="-74.5" font-family="Helvetica,sans-Serif" font-size="10.00">include/cppgc/internal</text>
<text text-anchor="middle" x="408.5" y="-63.5" font-family="Helvetica,sans-Serif" font-size="10.00">/prefinalizer&#45;handler.h</text>
</a>
</g>
</g>
<!-- Node7&#45;&gt;Node8 -->
<g id="edge8" class="edge">
<title>Node7&#45;&gt;Node8</title>
<path fill="none" stroke="midnightblue" d="M394.56,-113.7C397.64,-104.59 401.06,-94.49 403.74,-86.58"/>
<polygon fill="midnightblue" stroke="midnightblue" points="391.16,-112.8 391.27,-123.4 397.79,-115.05 391.16,-112.8"/>
</g>
<!-- Node9 -->
<g id="node9" class="node">
<title>Node9</title>
<g id="a_node9"><a xlink:href="prefinalizer_8h.html" target="_top" xlink:title=" ">
<polygon fill="white" stroke="black" points="384,-0.5 384,-19.5 517,-19.5 517,-0.5 384,-0.5"/>
<text text-anchor="middle" x="450.5" y="-7.5" font-family="Helvetica,sans-Serif" font-size="10.00">include/cppgc/prefinalizer.h</text>
</a>
</g>
</g>
<!-- Node7&#45;&gt;Node9 -->
<g id="edge11" class="edge">
<title>Node7&#45;&gt;Node9</title>
<path fill="none" stroke="midnightblue" d="M437.85,-118.66C451.53,-111.02 464.67,-100.68 472.5,-87 485.19,-64.83 467.83,-34.75 457.38,-19.97"/>
<polygon fill="midnightblue" stroke="midnightblue" points="436.12,-115.61 428.83,-123.3 439.32,-121.84 436.12,-115.61"/>
</g>
<!-- Node8&#45;&gt;Node9 -->
<g id="edge9" class="edge">
<title>Node8&#45;&gt;Node9</title>
<path fill="none" stroke="midnightblue" d="M424.31,-48.1C431.31,-38.19 439.13,-27.11 444.39,-19.66"/>
<polygon fill="midnightblue" stroke="midnightblue" points="421.36,-46.21 418.45,-56.4 427.08,-50.25 421.36,-46.21"/>
</g>
</g>
</svg>
