<?xml version="1.0" encoding="UTF-8" standalone="no"?>
<!DOCTYPE svg PUBLIC "-//W3C//DTD SVG 1.1//EN"
 "http://www.w3.org/Graphics/SVG/1.1/DTD/svg11.dtd">
<!-- Generated by graphviz version 2.44.0 ()
 -->
<!-- Title: include/cppgc/type&#45;traits.h Pages: 1 -->
<svg width="591pt" height="296pt"
 viewBox="0.00 0.00 590.81 296.00" xmlns="http://www.w3.org/2000/svg" xmlns:xlink="http://www.w3.org/1999/xlink">
<g id="graph0" class="graph" transform="scale(1 1) rotate(0) translate(4 292)">
<title>include/cppgc/type&#45;traits.h</title>
<polygon fill="white" stroke="transparent" points="-4,4 -4,-292 586.81,-292 586.81,4 -4,4"/>
<!-- Node1 -->
<g id="node1" class="node">
<title>Node1</title>
<g id="a_node1"><a xlink:title=" ">
<polygon fill="#bfbfbf" stroke="black" points="150.31,-257.5 150.31,-287.5 248.31,-287.5 248.31,-257.5 150.31,-257.5"/>
<text text-anchor="start" x="158.31" y="-275.5" font-family="Helvetica,sans-Serif" font-size="10.00">include/cppgc/type</text>
<text text-anchor="middle" x="199.31" y="-264.5" font-family="Helvetica,sans-Serif" font-size="10.00">&#45;traits.h</text>
</a>
</g>
</g>
<!-- Node2 -->
<g id="node2" class="node">
<title>Node2</title>
<g id="a_node2"><a xlink:href="trace-trait_8h.html" target="_top" xlink:title=" ">
<polygon fill="white" stroke="black" points="230.81,-190.5 230.81,-220.5 331.81,-220.5 331.81,-190.5 230.81,-190.5"/>
<text text-anchor="start" x="238.81" y="-208.5" font-family="Helvetica,sans-Serif" font-size="10.00">include/cppgc/trace</text>
<text text-anchor="middle" x="281.31" y="-197.5" font-family="Helvetica,sans-Serif" font-size="10.00">&#45;trait.h</text>
</a>
</g>
</g>
<!-- Node1&#45;&gt;Node2 -->
<g id="edge1" class="edge">
<title>Node1&#45;&gt;Node2</title>
<path fill="none" stroke="midnightblue" d="M224.96,-251.17C237.5,-241.23 252.27,-229.51 263.55,-220.58"/>
<polygon fill="midnightblue" stroke="midnightblue" points="222.76,-248.44 217.1,-257.4 227.11,-253.93 222.76,-248.44"/>
</g>
<!-- Node3 -->
<g id="node3" class="node">
<title>Node3</title>
<g id="a_node3"><a xlink:href="garbage-collected_8h.html" target="_top" xlink:title=" ">
<polygon fill="white" stroke="black" points="142.31,-123.5 142.31,-153.5 256.31,-153.5 256.31,-123.5 142.31,-123.5"/>
<text text-anchor="start" x="150.31" y="-141.5" font-family="Helvetica,sans-Serif" font-size="10.00">include/cppgc/garbage</text>
<text text-anchor="middle" x="199.31" y="-130.5" font-family="Helvetica,sans-Serif" font-size="10.00">&#45;collected.h</text>
</a>
</g>
</g>
<!-- Node1&#45;&gt;Node3 -->
<g id="edge14" class="edge">
<title>Node1&#45;&gt;Node3</title>
<path fill="none" stroke="midnightblue" d="M199.31,-247.02C199.31,-219.51 199.31,-175.79 199.31,-153.52"/>
<polygon fill="midnightblue" stroke="midnightblue" points="195.81,-247.37 199.31,-257.37 202.81,-247.37 195.81,-247.37"/>
</g>
<!-- Node6 -->
<g id="node6" class="node">
<title>Node6</title>
<g id="a_node6"><a xlink:href="persistent_8h.html" target="_top" xlink:title=" ">
<polygon fill="white" stroke="black" points="161.31,-0.5 161.31,-19.5 291.31,-19.5 291.31,-0.5 161.31,-0.5"/>
<text text-anchor="middle" x="226.31" y="-7.5" font-family="Helvetica,sans-Serif" font-size="10.00">include/cppgc/persistent.h</text>
</a>
</g>
</g>
<!-- Node1&#45;&gt;Node6 -->
<g id="edge21" class="edge">
<title>Node1&#45;&gt;Node6</title>
<path fill="none" stroke="midnightblue" d="M139.85,-267.79C102.87,-262.49 56.72,-250.03 26.31,-221 -6.06,-190.11 0.65,-167.66 3.31,-123 5.09,-93.06 -8.95,-78.11 11.31,-56 31.21,-34.28 105.4,-22.38 161.1,-16.37"/>
<polygon fill="midnightblue" stroke="midnightblue" points="139.65,-271.29 150.02,-269.1 140.55,-264.35 139.65,-271.29"/>
</g>
<!-- Node11 -->
<g id="node11" class="node">
<title>Node11</title>
<g id="a_node11"><a xlink:href="finalizer-trait_8h.html" target="_top" xlink:title=" ">
<polygon fill="white" stroke="black" points="35.81,-190.5 35.81,-220.5 146.81,-220.5 146.81,-190.5 35.81,-190.5"/>
<text text-anchor="start" x="43.81" y="-208.5" font-family="Helvetica,sans-Serif" font-size="10.00">include/cppgc/internal</text>
<text text-anchor="middle" x="91.31" y="-197.5" font-family="Helvetica,sans-Serif" font-size="10.00">/finalizer&#45;trait.h</text>
</a>
</g>
</g>
<!-- Node1&#45;&gt;Node11 -->
<g id="edge15" class="edge">
<title>Node1&#45;&gt;Node11</title>
<path fill="none" stroke="midnightblue" d="M166.93,-252.02C150.12,-241.9 129.97,-229.77 114.7,-220.58"/>
<polygon fill="midnightblue" stroke="midnightblue" points="165.5,-255.24 175.87,-257.4 169.11,-249.24 165.5,-255.24"/>
</g>
<!-- Node13 -->
<g id="node13" class="node">
<title>Node13</title>
<g id="a_node13"><a xlink:href="member_8h.html" target="_top" xlink:title=" ">
<polygon fill="white" stroke="black" points="350.31,-196 350.31,-215 472.31,-215 472.31,-196 350.31,-196"/>
<text text-anchor="middle" x="411.31" y="-203" font-family="Helvetica,sans-Serif" font-size="10.00">include/cppgc/member.h</text>
</a>
</g>
</g>
<!-- Node1&#45;&gt;Node13 -->
<g id="edge18" class="edge">
<title>Node1&#45;&gt;Node13</title>
<path fill="none" stroke="midnightblue" d="M254.72,-254.51C296.09,-241.83 350.9,-225.02 383.49,-215.03"/>
<polygon fill="midnightblue" stroke="midnightblue" points="253.58,-251.2 245.05,-257.48 255.63,-257.89 253.58,-251.2"/>
</g>
<!-- Node2&#45;&gt;Node3 -->
<g id="edge2" class="edge">
<title>Node2&#45;&gt;Node3</title>
<path fill="none" stroke="midnightblue" d="M255.66,-184.17C243.12,-174.23 228.34,-162.51 217.06,-153.58"/>
<polygon fill="midnightblue" stroke="midnightblue" points="253.5,-186.93 263.51,-190.4 257.85,-181.44 253.5,-186.93"/>
</g>
<!-- Node5 -->
<g id="node5" class="node">
<title>Node5</title>
<g id="a_node5"><a xlink:href="visitor_8h.html" target="_top" xlink:title=" ">
<polygon fill="white" stroke="black" points="299.81,-62 299.81,-81 412.81,-81 412.81,-62 299.81,-62"/>
<text text-anchor="middle" x="356.31" y="-69" font-family="Helvetica,sans-Serif" font-size="10.00">include/cppgc/visitor.h</text>
</a>
</g>
</g>
<!-- Node2&#45;&gt;Node5 -->
<g id="edge13" class="edge">
<title>Node2&#45;&gt;Node5</title>
<path fill="none" stroke="midnightblue" d="M294.38,-181.49C311.32,-151.68 340.02,-101.17 351.42,-81.1"/>
<polygon fill="midnightblue" stroke="midnightblue" points="291.23,-179.95 289.33,-190.37 297.32,-183.41 291.23,-179.95"/>
</g>
<!-- Node7 -->
<g id="node7" class="node">
<title>Node7</title>
<g id="a_node7"><a xlink:href="persistent-node_8h.html" target="_top" xlink:title=" ">
<polygon fill="white" stroke="black" points="170.81,-56.5 170.81,-86.5 281.81,-86.5 281.81,-56.5 170.81,-56.5"/>
<text text-anchor="start" x="178.81" y="-74.5" font-family="Helvetica,sans-Serif" font-size="10.00">include/cppgc/internal</text>
<text text-anchor="middle" x="226.31" y="-63.5" font-family="Helvetica,sans-Serif" font-size="10.00">/persistent&#45;node.h</text>
</a>
</g>
</g>
<!-- Node2&#45;&gt;Node7 -->
<g id="edge6" class="edge">
<title>Node2&#45;&gt;Node7</title>
<path fill="none" stroke="midnightblue" d="M279.51,-180.3C277.57,-163.59 273.56,-141.21 265.31,-123 259.18,-109.48 248.78,-96.28 240.26,-86.77"/>
<polygon fill="midnightblue" stroke="midnightblue" points="276.03,-180.74 280.51,-190.35 283,-180.05 276.03,-180.74"/>
</g>
<!-- Node8 -->
<g id="node8" class="node">
<title>Node8</title>
<g id="a_node8"><a xlink:href="liveness-broker_8h.html" target="_top" xlink:title=" ">
<polygon fill="white" stroke="black" points="388.31,-123.5 388.31,-153.5 504.31,-153.5 504.31,-123.5 388.31,-123.5"/>
<text text-anchor="start" x="396.31" y="-141.5" font-family="Helvetica,sans-Serif" font-size="10.00">include/cppgc/liveness</text>
<text text-anchor="middle" x="446.31" y="-130.5" font-family="Helvetica,sans-Serif" font-size="10.00">&#45;broker.h</text>
</a>
</g>
</g>
<!-- Node2&#45;&gt;Node8 -->
<g id="edge8" class="edge">
<title>Node2&#45;&gt;Node8</title>
<path fill="none" stroke="midnightblue" d="M326.54,-186.68C353,-176.26 385.94,-163.28 410.57,-153.58"/>
<polygon fill="midnightblue" stroke="midnightblue" points="325.13,-183.47 317.11,-190.4 327.7,-189.99 325.13,-183.47"/>
</g>
<!-- Node4 -->
<g id="node4" class="node">
<title>Node4</title>
<g id="a_node4"><a xlink:href="allocation_8h.html" target="_top" xlink:title=" ">
<polygon fill="white" stroke="black" points="20.31,-62 20.31,-81 148.31,-81 148.31,-62 20.31,-62"/>
<text text-anchor="middle" x="84.31" y="-69" font-family="Helvetica,sans-Serif" font-size="10.00">include/cppgc/allocation.h</text>
</a>
</g>
</g>
<!-- Node3&#45;&gt;Node4 -->
<g id="edge3" class="edge">
<title>Node3&#45;&gt;Node4</title>
<path fill="none" stroke="midnightblue" d="M165.64,-118.47C143.69,-106.06 116.1,-90.47 99.36,-81.01"/>
<polygon fill="midnightblue" stroke="midnightblue" points="163.93,-121.52 174.35,-123.4 167.37,-115.43 163.93,-121.52"/>
</g>
<!-- Node3&#45;&gt;Node5 -->
<g id="edge4" class="edge">
<title>Node3&#45;&gt;Node5</title>
<path fill="none" stroke="midnightblue" d="M242.88,-119.46C273.22,-106.9 312.29,-90.72 335.76,-81.01"/>
<polygon fill="midnightblue" stroke="midnightblue" points="241.27,-116.34 233.37,-123.4 243.95,-122.8 241.27,-116.34"/>
</g>
<!-- Node5&#45;&gt;Node6 -->
<g id="edge5" class="edge">
<title>Node5&#45;&gt;Node6</title>
<path fill="none" stroke="midnightblue" d="M328.28,-57.67C303.06,-46.13 266.7,-29.49 244.9,-19.51"/>
<polygon fill="midnightblue" stroke="midnightblue" points="327.13,-61 337.68,-61.98 330.04,-54.63 327.13,-61"/>
</g>
<!-- Node7&#45;&gt;Node6 -->
<g id="edge7" class="edge">
<title>Node7&#45;&gt;Node6</title>
<path fill="none" stroke="midnightblue" d="M226.31,-46.29C226.31,-36.86 226.31,-26.65 226.31,-19.66"/>
<polygon fill="midnightblue" stroke="midnightblue" points="222.81,-46.4 226.31,-56.4 229.81,-46.4 222.81,-46.4"/>
</g>
<!-- Node8&#45;&gt;Node5 -->
<g id="edge11" class="edge">
<title>Node8&#45;&gt;Node5</title>
<path fill="none" stroke="midnightblue" d="M418.34,-117.31C401.44,-105.1 380.78,-90.18 368.09,-81.01"/>
<polygon fill="midnightblue" stroke="midnightblue" points="416.62,-120.38 426.78,-123.4 420.72,-114.7 416.62,-120.38"/>
</g>
<!-- Node9 -->
<g id="node9" class="node">
<title>Node9</title>
<g id="a_node9"><a xlink:href="prefinalizer-handler_8h.html" target="_top" xlink:title=" ">
<polygon fill="white" stroke="black" points="471.81,-56.5 471.81,-86.5 582.81,-86.5 582.81,-56.5 471.81,-56.5"/>
<text text-anchor="start" x="479.81" y="-74.5" font-family="Helvetica,sans-Serif" font-size="10.00">include/cppgc/internal</text>
<text text-anchor="middle" x="527.31" y="-63.5" font-family="Helvetica,sans-Serif" font-size="10.00">/prefinalizer&#45;handler.h</text>
</a>
</g>
</g>
<!-- Node8&#45;&gt;Node9 -->
<g id="edge9" class="edge">
<title>Node8&#45;&gt;Node9</title>
<path fill="none" stroke="midnightblue" d="M472,-116.88C484.31,-107.01 498.73,-95.43 509.76,-86.58"/>
<polygon fill="midnightblue" stroke="midnightblue" points="469.49,-114.41 463.88,-123.4 473.87,-119.87 469.49,-114.41"/>
</g>
<!-- Node10 -->
<g id="node10" class="node">
<title>Node10</title>
<g id="a_node10"><a xlink:href="prefinalizer_8h.html" target="_top" xlink:title=" ">
<polygon fill="white" stroke="black" points="418.81,-0.5 418.81,-19.5 551.81,-19.5 551.81,-0.5 418.81,-0.5"/>
<text text-anchor="middle" x="485.31" y="-7.5" font-family="Helvetica,sans-Serif" font-size="10.00">include/cppgc/prefinalizer.h</text>
</a>
</g>
</g>
<!-- Node8&#45;&gt;Node10 -->
<g id="edge12" class="edge">
<title>Node8&#45;&gt;Node10</title>
<path fill="none" stroke="midnightblue" d="M449.7,-113.48C452.42,-97.02 456.85,-74.84 463.31,-56 467.82,-42.84 475.28,-28.55 480.25,-19.69"/>
<polygon fill="midnightblue" stroke="midnightblue" points="446.24,-112.95 448.16,-123.37 453.16,-114.03 446.24,-112.95"/>
</g>
<!-- Node9&#45;&gt;Node10 -->
<g id="edge10" class="edge">
<title>Node9&#45;&gt;Node10</title>
<path fill="none" stroke="midnightblue" d="M511.5,-48.1C504.5,-38.19 496.68,-27.11 491.42,-19.66"/>
<polygon fill="midnightblue" stroke="midnightblue" points="508.73,-50.25 517.35,-56.4 514.45,-46.21 508.73,-50.25"/>
</g>
<!-- Node12 -->
<g id="node12" class="node">
<title>Node12</title>
<g id="a_node12"><a xlink:href="gc-info_8h.html" target="_top" xlink:title=" ">
<polygon fill="white" stroke="black" points="12.81,-123.5 12.81,-153.5 123.81,-153.5 123.81,-123.5 12.81,-123.5"/>
<text text-anchor="start" x="20.81" y="-141.5" font-family="Helvetica,sans-Serif" font-size="10.00">include/cppgc/internal</text>
<text text-anchor="middle" x="68.31" y="-130.5" font-family="Helvetica,sans-Serif" font-size="10.00">/gc&#45;info.h</text>
</a>
</g>
</g>
<!-- Node11&#45;&gt;Node12 -->
<g id="edge16" class="edge">
<title>Node11&#45;&gt;Node12</title>
<path fill="none" stroke="midnightblue" d="M82.88,-180.7C79.66,-171.59 76.09,-161.49 73.29,-153.58"/>
<polygon fill="midnightblue" stroke="midnightblue" points="79.68,-182.14 86.32,-190.4 86.28,-179.8 79.68,-182.14"/>
</g>
<!-- Node12&#45;&gt;Node4 -->
<g id="edge17" class="edge">
<title>Node12&#45;&gt;Node4</title>
<path fill="none" stroke="midnightblue" d="M74.19,-113.6C76.98,-102.28 80.13,-89.46 82.17,-81.19"/>
<polygon fill="midnightblue" stroke="midnightblue" points="70.77,-112.85 71.78,-123.4 77.57,-114.52 70.77,-112.85"/>
</g>
<!-- Node13&#45;&gt;Node5 -->
<g id="edge20" class="edge">
<title>Node13&#45;&gt;Node5</title>
<path fill="none" stroke="midnightblue" d="M399.02,-187.85C392.45,-178.32 384.63,-165.92 379.31,-154 368.04,-128.76 360.92,-96.64 357.93,-81.35"/>
<polygon fill="midnightblue" stroke="midnightblue" points="396.17,-189.88 404.83,-196 401.88,-185.82 396.17,-189.88"/>
</g>
<!-- Node13&#45;&gt;Node8 -->
<g id="edge19" class="edge">
<title>Node13&#45;&gt;Node8</title>
<path fill="none" stroke="midnightblue" d="M420.88,-186.71C426.5,-176.29 433.49,-163.3 438.72,-153.59"/>
<polygon fill="midnightblue" stroke="midnightblue" points="417.69,-185.27 416.03,-195.73 423.85,-188.59 417.69,-185.27"/>
</g>
</g>
</svg>
