<?xml version="1.0" encoding="UTF-8" standalone="no"?>
<!DOCTYPE svg PUBLIC "-//W3C//DTD SVG 1.1//EN"
 "http://www.w3.org/Graphics/SVG/1.1/DTD/svg11.dtd">
<!-- Generated by graphviz version 2.44.0 ()
 -->
<!-- Title: include/v8&#45;inspector&#45;protocol.h Pages: 1 -->
<svg width="823pt" height="263pt"
 viewBox="0.00 0.00 823.00 263.00" xmlns="http://www.w3.org/2000/svg" xmlns:xlink="http://www.w3.org/1999/xlink">
<g id="graph0" class="graph" transform="scale(1 1) rotate(0) translate(4 259)">
<title>include/v8&#45;inspector&#45;protocol.h</title>
<polygon fill="white" stroke="transparent" points="-4,4 -4,-259 819,-259 819,4 -4,4"/>
<!-- Node1 -->
<g id="node1" class="node">
<title>Node1</title>
<g id="a_node1"><a xlink:title=" ">
<polygon fill="#bfbfbf" stroke="black" points="186,-224.5 186,-254.5 290,-254.5 290,-224.5 186,-224.5"/>
<text text-anchor="start" x="194" y="-242.5" font-family="Helvetica,sans-Serif" font-size="10.00">include/v8&#45;inspector</text>
<text text-anchor="middle" x="238" y="-231.5" font-family="Helvetica,sans-Serif" font-size="10.00">&#45;protocol.h</text>
</a>
</g>
</g>
<!-- Node2 -->
<g id="node2" class="node">
<title>Node2</title>
<g id="a_node2"><a xlink:title=" ">
<polygon fill="white" stroke="#bfbfbf" points="0,-168.5 0,-187.5 108,-187.5 108,-168.5 0,-168.5"/>
<text text-anchor="middle" x="54" y="-175.5" font-family="Helvetica,sans-Serif" font-size="10.00">inspector/Debugger.h</text>
</a>
</g>
</g>
<!-- Node1&#45;&gt;Node2 -->
<g id="edge1" class="edge">
<title>Node1&#45;&gt;Node2</title>
<path fill="none" stroke="midnightblue" d="M194.39,-224.4C162.6,-214.12 120.03,-200.35 90.13,-190.68"/>
<polygon fill="midnightblue" stroke="midnightblue" points="91.1,-187.32 80.51,-187.57 88.94,-193.98 91.1,-187.32"/>
</g>
<!-- Node3 -->
<g id="node3" class="node">
<title>Node3</title>
<g id="a_node3"><a xlink:title=" ">
<polygon fill="white" stroke="#bfbfbf" points="126.5,-168.5 126.5,-187.5 229.5,-187.5 229.5,-168.5 126.5,-168.5"/>
<text text-anchor="middle" x="178" y="-175.5" font-family="Helvetica,sans-Serif" font-size="10.00">inspector/Runtime.h</text>
</a>
</g>
</g>
<!-- Node1&#45;&gt;Node3 -->
<g id="edge2" class="edge">
<title>Node1&#45;&gt;Node3</title>
<path fill="none" stroke="midnightblue" d="M223.78,-224.4C214.79,-215.49 203.16,-203.95 193.87,-194.74"/>
<polygon fill="midnightblue" stroke="midnightblue" points="196.3,-192.21 186.73,-187.66 191.37,-197.18 196.3,-192.21"/>
</g>
<!-- Node4 -->
<g id="node4" class="node">
<title>Node4</title>
<g id="a_node4"><a xlink:title=" ">
<polygon fill="white" stroke="#bfbfbf" points="247.5,-168.5 247.5,-187.5 350.5,-187.5 350.5,-168.5 247.5,-168.5"/>
<text text-anchor="middle" x="299" y="-175.5" font-family="Helvetica,sans-Serif" font-size="10.00">inspector/Schema.h</text>
</a>
</g>
</g>
<!-- Node1&#45;&gt;Node4 -->
<g id="edge3" class="edge">
<title>Node1&#45;&gt;Node4</title>
<path fill="none" stroke="midnightblue" d="M252.46,-224.4C261.59,-215.49 273.42,-203.95 282.86,-194.74"/>
<polygon fill="midnightblue" stroke="midnightblue" points="285.41,-197.15 290.12,-187.66 280.52,-192.13 285.41,-197.15"/>
</g>
<!-- Node5 -->
<g id="node5" class="node">
<title>Node5</title>
<g id="a_node5"><a xlink:href="v8-inspector_8h.html" target="_top" xlink:title=" ">
<polygon fill="white" stroke="black" points="368.5,-168.5 368.5,-187.5 445.5,-187.5 445.5,-168.5 368.5,-168.5"/>
<text text-anchor="middle" x="407" y="-175.5" font-family="Helvetica,sans-Serif" font-size="10.00">v8&#45;inspector.h</text>
</a>
</g>
</g>
<!-- Node1&#45;&gt;Node5 -->
<g id="edge4" class="edge">
<title>Node1&#45;&gt;Node5</title>
<path fill="none" stroke="midnightblue" d="M278.05,-224.4C306.91,-214.24 345.45,-200.67 372.85,-191.02"/>
<polygon fill="midnightblue" stroke="midnightblue" points="374.14,-194.28 382.41,-187.66 371.81,-187.68 374.14,-194.28"/>
</g>
<!-- Node6 -->
<g id="node6" class="node">
<title>Node6</title>
<g id="a_node6"><a xlink:title=" ">
<polygon fill="white" stroke="#bfbfbf" points="154,-0.5 154,-19.5 202,-19.5 202,-0.5 154,-0.5"/>
<text text-anchor="middle" x="178" y="-7.5" font-family="Helvetica,sans-Serif" font-size="10.00">stdint.h</text>
</a>
</g>
</g>
<!-- Node5&#45;&gt;Node6 -->
<g id="edge5" class="edge">
<title>Node5&#45;&gt;Node6</title>
<path fill="none" stroke="midnightblue" d="M372.15,-168.48C293.08,-148.8 105.59,-100.01 89,-76 71.26,-50.32 112.27,-30.97 144.35,-20.32"/>
<polygon fill="midnightblue" stroke="midnightblue" points="145.46,-23.64 153.95,-17.29 143.36,-16.96 145.46,-23.64"/>
</g>
<!-- Node7 -->
<g id="node7" class="node">
<title>Node7</title>
<g id="a_node7"><a xlink:title=" ">
<polygon fill="white" stroke="#bfbfbf" points="442.5,-112.5 442.5,-131.5 487.5,-131.5 487.5,-112.5 442.5,-112.5"/>
<text text-anchor="middle" x="465" y="-119.5" font-family="Helvetica,sans-Serif" font-size="10.00">cctype</text>
</a>
</g>
</g>
<!-- Node5&#45;&gt;Node7 -->
<g id="edge6" class="edge">
<title>Node5&#45;&gt;Node7</title>
<path fill="none" stroke="midnightblue" d="M416.32,-168.32C424.89,-160.34 437.81,-148.31 448.19,-138.65"/>
<polygon fill="midnightblue" stroke="midnightblue" points="450.58,-141.21 455.51,-131.83 445.81,-136.09 450.58,-141.21"/>
</g>
<!-- Node8 -->
<g id="node8" class="node">
<title>Node8</title>
<g id="a_node8"><a xlink:title=" ">
<polygon fill="white" stroke="#bfbfbf" points="98.5,-56.5 98.5,-75.5 149.5,-75.5 149.5,-56.5 98.5,-56.5"/>
<text text-anchor="middle" x="124" y="-63.5" font-family="Helvetica,sans-Serif" font-size="10.00">memory</text>
</a>
</g>
</g>
<!-- Node5&#45;&gt;Node8 -->
<g id="edge7" class="edge">
<title>Node5&#45;&gt;Node8</title>
<path fill="none" stroke="midnightblue" d="M384.79,-168.37C334.78,-148.93 213.21,-101.67 155.46,-79.23"/>
<polygon fill="midnightblue" stroke="midnightblue" points="156.69,-75.95 146.1,-75.59 154.16,-82.48 156.69,-75.95"/>
</g>
<!-- Node9 -->
<g id="node9" class="node">
<title>Node9</title>
<g id="a_node9"><a xlink:title=" ">
<polygon fill="white" stroke="#bfbfbf" points="505.5,-112.5 505.5,-131.5 588.5,-131.5 588.5,-112.5 505.5,-112.5"/>
<text text-anchor="middle" x="547" y="-119.5" font-family="Helvetica,sans-Serif" font-size="10.00">unordered_map</text>
</a>
</g>
</g>
<!-- Node5&#45;&gt;Node9 -->
<g id="edge8" class="edge">
<title>Node5&#45;&gt;Node9</title>
<path fill="none" stroke="midnightblue" d="M429.18,-168.44C452.43,-159.48 489.15,-145.31 515.42,-135.18"/>
<polygon fill="midnightblue" stroke="midnightblue" points="516.85,-138.38 524.92,-131.52 514.33,-131.85 516.85,-138.38"/>
</g>
<!-- Node10 -->
<g id="node10" class="node">
<title>Node10</title>
<g id="a_node10"><a xlink:href="v8_8h.html" target="_top" xlink:title=" ">
<polygon fill="white" stroke="black" points="389.5,-112.5 389.5,-131.5 424.5,-131.5 424.5,-112.5 389.5,-112.5"/>
<text text-anchor="middle" x="407" y="-119.5" font-family="Helvetica,sans-Serif" font-size="10.00">v8.h</text>
</a>
</g>
</g>
<!-- Node5&#45;&gt;Node10 -->
<g id="edge9" class="edge">
<title>Node5&#45;&gt;Node10</title>
<path fill="none" stroke="midnightblue" d="M407,-168.08C407,-161.01 407,-150.86 407,-141.99"/>
<polygon fill="midnightblue" stroke="midnightblue" points="410.5,-141.75 407,-131.75 403.5,-141.75 410.5,-141.75"/>
</g>
<!-- Node10&#45;&gt;Node6 -->
<g id="edge11" class="edge">
<title>Node10&#45;&gt;Node6</title>
<path fill="none" stroke="midnightblue" d="M389.32,-119.51C343.97,-115.35 225.13,-102.14 197,-76 184.36,-64.25 179.97,-44.61 178.52,-29.99"/>
<polygon fill="midnightblue" stroke="midnightblue" points="181.99,-29.35 177.89,-19.58 175,-29.78 181.99,-29.35"/>
</g>
<!-- Node10&#45;&gt;Node8 -->
<g id="edge13" class="edge">
<title>Node10&#45;&gt;Node8</title>
<path fill="none" stroke="midnightblue" d="M389.27,-117.96C349.09,-111.01 248.06,-93.23 164,-76 162.56,-75.71 161.1,-75.4 159.62,-75.09"/>
<polygon fill="midnightblue" stroke="midnightblue" points="160.3,-71.65 149.79,-72.95 158.82,-78.5 160.3,-71.65"/>
</g>
<!-- Node11 -->
<g id="node11" class="node">
<title>Node11</title>
<g id="a_node11"><a xlink:title=" ">
<polygon fill="white" stroke="#bfbfbf" points="683.5,-0.5 683.5,-19.5 734.5,-19.5 734.5,-0.5 683.5,-0.5"/>
<text text-anchor="middle" x="709" y="-7.5" font-family="Helvetica,sans-Serif" font-size="10.00">stddef.h</text>
</a>
</g>
</g>
<!-- Node10&#45;&gt;Node11 -->
<g id="edge10" class="edge">
<title>Node10&#45;&gt;Node11</title>
<path fill="none" stroke="midnightblue" d="M424.77,-114.34C427.5,-113.46 430.31,-112.65 433,-112 489.28,-98.47 647.47,-114.16 691,-76 704.05,-64.56 708.02,-44.58 709.06,-29.78"/>
<polygon fill="midnightblue" stroke="midnightblue" points="712.56,-29.81 709.37,-19.7 705.56,-29.59 712.56,-29.81"/>
</g>
<!-- Node12 -->
<g id="node12" class="node">
<title>Node12</title>
<g id="a_node12"><a xlink:title=" ">
<polygon fill="white" stroke="#bfbfbf" points="354.5,-56.5 354.5,-75.5 399.5,-75.5 399.5,-56.5 354.5,-56.5"/>
<text text-anchor="middle" x="377" y="-63.5" font-family="Helvetica,sans-Serif" font-size="10.00">stdio.h</text>
</a>
</g>
</g>
<!-- Node10&#45;&gt;Node12 -->
<g id="edge12" class="edge">
<title>Node10&#45;&gt;Node12</title>
<path fill="none" stroke="midnightblue" d="M402.05,-112.08C397.9,-104.61 391.85,-93.72 386.73,-84.52"/>
<polygon fill="midnightblue" stroke="midnightblue" points="389.78,-82.79 381.86,-75.75 383.66,-86.19 389.78,-82.79"/>
</g>
<!-- Node13 -->
<g id="node13" class="node">
<title>Node13</title>
<g id="a_node13"><a xlink:title=" ">
<polygon fill="white" stroke="#bfbfbf" points="417.5,-56.5 417.5,-75.5 458.5,-75.5 458.5,-56.5 417.5,-56.5"/>
<text text-anchor="middle" x="438" y="-63.5" font-family="Helvetica,sans-Serif" font-size="10.00">string</text>
</a>
</g>
</g>
<!-- Node10&#45;&gt;Node13 -->
<g id="edge14" class="edge">
<title>Node10&#45;&gt;Node13</title>
<path fill="none" stroke="midnightblue" d="M412.12,-112.08C416.41,-104.61 422.66,-93.72 427.94,-84.52"/>
<polygon fill="midnightblue" stroke="midnightblue" points="431.03,-86.17 432.98,-75.75 424.96,-82.68 431.03,-86.17"/>
</g>
<!-- Node14 -->
<g id="node14" class="node">
<title>Node14</title>
<g id="a_node14"><a xlink:title=" ">
<polygon fill="white" stroke="#bfbfbf" points="753,-0.5 753,-19.5 815,-19.5 815,-0.5 753,-0.5"/>
<text text-anchor="middle" x="784" y="-7.5" font-family="Helvetica,sans-Serif" font-size="10.00">type_traits</text>
</a>
</g>
</g>
<!-- Node10&#45;&gt;Node14 -->
<g id="edge15" class="edge">
<title>Node10&#45;&gt;Node14</title>
<path fill="none" stroke="midnightblue" d="M424.76,-114.31C427.49,-113.44 430.3,-112.63 433,-112 554.28,-83.47 597.66,-127.73 711,-76 735.49,-64.82 757.66,-42.54 770.98,-27.21"/>
<polygon fill="midnightblue" stroke="midnightblue" points="773.68,-29.43 777.43,-19.52 768.32,-24.93 773.68,-29.43"/>
</g>
<!-- Node15 -->
<g id="node15" class="node">
<title>Node15</title>
<g id="a_node15"><a xlink:title=" ">
<polygon fill="white" stroke="#bfbfbf" points="476.5,-56.5 476.5,-75.5 515.5,-75.5 515.5,-56.5 476.5,-56.5"/>
<text text-anchor="middle" x="496" y="-63.5" font-family="Helvetica,sans-Serif" font-size="10.00">utility</text>
</a>
</g>
</g>
<!-- Node10&#45;&gt;Node15 -->
<g id="edge16" class="edge">
<title>Node10&#45;&gt;Node15</title>
<path fill="none" stroke="midnightblue" d="M421.3,-112.32C435.18,-103.9 456.49,-90.97 472.8,-81.07"/>
<polygon fill="midnightblue" stroke="midnightblue" points="475,-83.83 481.74,-75.65 471.37,-77.85 475,-83.83"/>
</g>
<!-- Node16 -->
<g id="node16" class="node">
<title>Node16</title>
<g id="a_node16"><a xlink:title=" ">
<polygon fill="white" stroke="#bfbfbf" points="534,-56.5 534,-75.5 578,-75.5 578,-56.5 534,-56.5"/>
<text text-anchor="middle" x="556" y="-63.5" font-family="Helvetica,sans-Serif" font-size="10.00">vector</text>
</a>
</g>
</g>
<!-- Node10&#45;&gt;Node16 -->
<g id="edge17" class="edge">
<title>Node10&#45;&gt;Node16</title>
<path fill="none" stroke="midnightblue" d="M424.68,-114.59C449.19,-105.71 493.93,-89.5 524.3,-78.49"/>
<polygon fill="midnightblue" stroke="midnightblue" points="525.79,-81.67 534,-74.97 523.4,-75.09 525.79,-81.67"/>
</g>
<!-- Node17 -->
<g id="node17" class="node">
<title>Node17</title>
<g id="a_node17"><a xlink:href="common_8h.html" target="_top" xlink:title=" ">
<polygon fill="white" stroke="black" points="206.5,-56.5 206.5,-75.5 297.5,-75.5 297.5,-56.5 206.5,-56.5"/>
<text text-anchor="middle" x="252" y="-63.5" font-family="Helvetica,sans-Serif" font-size="10.00">cppgc/common.h</text>
</a>
</g>
</g>
<!-- Node10&#45;&gt;Node17 -->
<g id="edge18" class="edge">
<title>Node10&#45;&gt;Node17</title>
<path fill="none" stroke="midnightblue" d="M389.22,-114.81C364.18,-106.08 318.03,-90 286.21,-78.92"/>
<polygon fill="midnightblue" stroke="midnightblue" points="287.02,-75.5 276.43,-75.51 284.72,-82.11 287.02,-75.5"/>
</g>
<!-- Node18 -->
<g id="node18" class="node">
<title>Node18</title>
<g id="a_node18"><a xlink:href="v8config_8h.html" target="_top" xlink:title=" ">
<polygon fill="white" stroke="black" points="296,-0.5 296,-19.5 356,-19.5 356,-0.5 296,-0.5"/>
<text text-anchor="middle" x="326" y="-7.5" font-family="Helvetica,sans-Serif" font-size="10.00">v8config.h</text>
</a>
</g>
</g>
<!-- Node10&#45;&gt;Node18 -->
<g id="edge28" class="edge">
<title>Node10&#45;&gt;Node18</title>
<path fill="none" stroke="midnightblue" d="M389.54,-112.48C375.54,-104.79 356.41,-92.2 345,-76 335.37,-62.33 330.58,-43.8 328.22,-30.01"/>
<polygon fill="midnightblue" stroke="midnightblue" points="331.63,-29.17 326.76,-19.77 324.7,-30.16 331.63,-29.17"/>
</g>
<!-- Node19 -->
<g id="node19" class="node">
<title>Node19</title>
<g id="a_node19"><a xlink:href="v8-internal_8h.html" target="_top" xlink:title=" ">
<polygon fill="white" stroke="black" points="596.5,-56.5 596.5,-75.5 665.5,-75.5 665.5,-56.5 596.5,-56.5"/>
<text text-anchor="middle" x="631" y="-63.5" font-family="Helvetica,sans-Serif" font-size="10.00">v8&#45;internal.h</text>
</a>
</g>
</g>
<!-- Node10&#45;&gt;Node19 -->
<g id="edge20" class="edge">
<title>Node10&#45;&gt;Node19</title>
<path fill="none" stroke="midnightblue" d="M424.54,-114.64C427.35,-113.7 430.24,-112.79 433,-112 461.32,-103.91 537.04,-87.2 586.21,-76.58"/>
<polygon fill="midnightblue" stroke="midnightblue" points="587.23,-79.94 596.27,-74.41 585.76,-73.1 587.23,-79.94"/>
</g>
<!-- Node21 -->
<g id="node21" class="node">
<title>Node21</title>
<g id="a_node21"><a xlink:href="v8-version_8h.html" target="_top" xlink:title=" ">
<polygon fill="white" stroke="black" points="596.5,-0.5 596.5,-19.5 665.5,-19.5 665.5,-0.5 596.5,-0.5"/>
<text text-anchor="middle" x="631" y="-7.5" font-family="Helvetica,sans-Serif" font-size="10.00">v8&#45;version.h</text>
</a>
</g>
</g>
<!-- Node10&#45;&gt;Node21 -->
<g id="edge27" class="edge">
<title>Node10&#45;&gt;Node21</title>
<path fill="none" stroke="midnightblue" d="M424.77,-114.36C427.5,-113.48 430.31,-112.66 433,-112 485.81,-99.05 639.5,-117.18 675,-76 688.84,-59.95 669.62,-39.4 652.4,-25.76"/>
<polygon fill="midnightblue" stroke="midnightblue" points="654.37,-22.85 644.26,-19.66 650.17,-28.46 654.37,-22.85"/>
</g>
<!-- Node17&#45;&gt;Node18 -->
<g id="edge19" class="edge">
<title>Node17&#45;&gt;Node18</title>
<path fill="none" stroke="midnightblue" d="M263.89,-56.32C275.15,-48.11 292.29,-35.6 305.71,-25.81"/>
<polygon fill="midnightblue" stroke="midnightblue" points="307.88,-28.56 313.89,-19.83 303.75,-22.9 307.88,-28.56"/>
</g>
<!-- Node19&#45;&gt;Node6 -->
<g id="edge22" class="edge">
<title>Node19&#45;&gt;Node6</title>
<path fill="none" stroke="midnightblue" d="M596.47,-57.62C593.27,-57.04 590.08,-56.48 587,-56 448.72,-34.3 282.51,-19.45 212.14,-13.68"/>
<polygon fill="midnightblue" stroke="midnightblue" points="212.32,-10.19 202.07,-12.87 211.76,-17.17 212.32,-10.19"/>
</g>
<!-- Node19&#45;&gt;Node11 -->
<g id="edge21" class="edge">
<title>Node19&#45;&gt;Node11</title>
<path fill="none" stroke="midnightblue" d="M643.53,-56.32C655.59,-47.98 674.03,-35.21 688.27,-25.35"/>
<polygon fill="midnightblue" stroke="midnightblue" points="690.27,-28.22 696.5,-19.65 686.28,-22.47 690.27,-28.22"/>
</g>
<!-- Node19&#45;&gt;Node14 -->
<g id="edge24" class="edge">
<title>Node19&#45;&gt;Node14</title>
<path fill="none" stroke="midnightblue" d="M655.24,-56.44C680.87,-47.4 721.49,-33.06 750.24,-22.92"/>
<polygon fill="midnightblue" stroke="midnightblue" points="751.61,-26.15 759.87,-19.52 749.28,-19.54 751.61,-26.15"/>
</g>
<!-- Node19&#45;&gt;Node18 -->
<g id="edge26" class="edge">
<title>Node19&#45;&gt;Node18</title>
<path fill="none" stroke="midnightblue" d="M596.43,-57.82C593.25,-57.19 590.06,-56.58 587,-56 509.01,-41.3 417.53,-25.97 366.21,-17.54"/>
<polygon fill="midnightblue" stroke="midnightblue" points="366.63,-14.06 356.2,-15.89 365.5,-20.97 366.63,-14.06"/>
</g>
<!-- Node20 -->
<g id="node20" class="node">
<title>Node20</title>
<g id="a_node20"><a xlink:title=" ">
<polygon fill="white" stroke="#bfbfbf" points="530,-0.5 530,-19.5 578,-19.5 578,-0.5 530,-0.5"/>
<text text-anchor="middle" x="554" y="-7.5" font-family="Helvetica,sans-Serif" font-size="10.00">string.h</text>
</a>
</g>
</g>
<!-- Node19&#45;&gt;Node20 -->
<g id="edge23" class="edge">
<title>Node19&#45;&gt;Node20</title>
<path fill="none" stroke="midnightblue" d="M618.63,-56.32C606.84,-48.06 588.87,-35.45 574.86,-25.63"/>
<polygon fill="midnightblue" stroke="midnightblue" points="576.54,-22.53 566.34,-19.65 572.52,-28.26 576.54,-22.53"/>
</g>
<!-- Node19&#45;&gt;Node21 -->
<g id="edge25" class="edge">
<title>Node19&#45;&gt;Node21</title>
<path fill="none" stroke="midnightblue" d="M631,-56.08C631,-49.01 631,-38.86 631,-29.99"/>
<polygon fill="midnightblue" stroke="midnightblue" points="634.5,-29.75 631,-19.75 627.5,-29.75 634.5,-29.75"/>
</g>
</g>
</svg>
