<?xml version="1.0" encoding="UTF-8" standalone="no"?>
<!DOCTYPE svg PUBLIC "-//W3C//DTD SVG 1.1//EN"
 "http://www.w3.org/Graphics/SVG/1.1/DTD/svg11.dtd">
<!-- Generated by graphviz version 2.44.0 ()
 -->
<!-- Title: include/v8&#45;version.h Pages: 1 -->
<svg width="351pt" height="274pt"
 viewBox="0.00 0.00 351.00 274.00" xmlns="http://www.w3.org/2000/svg" xmlns:xlink="http://www.w3.org/1999/xlink">
<g id="graph0" class="graph" transform="scale(1 1) rotate(0) translate(4 270)">
<title>include/v8&#45;version.h</title>
<polygon fill="white" stroke="transparent" points="-4,4 -4,-270 347,-270 347,4 -4,4"/>
<!-- Node1 -->
<g id="node1" class="node">
<title>Node1</title>
<g id="a_node1"><a xlink:title=" ">
<polygon fill="#bfbfbf" stroke="black" points="168,-246.5 168,-265.5 271,-265.5 271,-246.5 168,-246.5"/>
<text text-anchor="middle" x="219.5" y="-253.5" font-family="Helvetica,sans-Serif" font-size="10.00">include/v8&#45;version.h</text>
</a>
</g>
</g>
<!-- Node2 -->
<g id="node2" class="node">
<title>Node2</title>
<g id="a_node2"><a xlink:href="v8-internal_8h.html" target="_top" xlink:title=" ">
<polygon fill="white" stroke="black" points="88,-185 88,-204 191,-204 191,-185 88,-185"/>
<text text-anchor="middle" x="139.5" y="-192" font-family="Helvetica,sans-Serif" font-size="10.00">include/v8&#45;internal.h</text>
</a>
</g>
</g>
<!-- Node1&#45;&gt;Node2 -->
<g id="edge1" class="edge">
<title>Node1&#45;&gt;Node2</title>
<path fill="none" stroke="midnightblue" d="M199.73,-240.29C184.38,-228.88 163.64,-213.46 150.94,-204.01"/>
<polygon fill="midnightblue" stroke="midnightblue" points="197.93,-243.32 208.04,-246.48 202.1,-237.7 197.93,-243.32"/>
</g>
<!-- Node3 -->
<g id="node3" class="node">
<title>Node3</title>
<g id="a_node3"><a xlink:href="v8_8h.html" target="_top" xlink:title=" ">
<polygon fill="white" stroke="black" points="145.5,-123.5 145.5,-142.5 213.5,-142.5 213.5,-123.5 145.5,-123.5"/>
<text text-anchor="middle" x="179.5" y="-130.5" font-family="Helvetica,sans-Serif" font-size="10.00">include/v8.h</text>
</a>
</g>
</g>
<!-- Node1&#45;&gt;Node3 -->
<g id="edge7" class="edge">
<title>Node1&#45;&gt;Node3</title>
<path fill="none" stroke="midnightblue" d="M215.91,-236.49C212.65,-220.92 207.3,-198.19 200.5,-179 195.89,-166 188.84,-151.67 184.2,-142.75"/>
<polygon fill="midnightblue" stroke="midnightblue" points="212.5,-237.3 217.91,-246.41 219.37,-235.91 212.5,-237.3"/>
</g>
<!-- Node8 -->
<g id="node8" class="node">
<title>Node8</title>
<g id="a_node8"><a xlink:href="v8-version-string_8h.html" target="_top" xlink:title=" ">
<polygon fill="white" stroke="black" points="248,-179.5 248,-209.5 343,-209.5 343,-179.5 248,-179.5"/>
<text text-anchor="start" x="256" y="-197.5" font-family="Helvetica,sans-Serif" font-size="10.00">include/v8&#45;version</text>
<text text-anchor="middle" x="295.5" y="-186.5" font-family="Helvetica,sans-Serif" font-size="10.00">&#45;string.h</text>
</a>
</g>
</g>
<!-- Node1&#45;&gt;Node8 -->
<g id="edge8" class="edge">
<title>Node1&#45;&gt;Node8</title>
<path fill="none" stroke="midnightblue" d="M238.41,-240.2C250.39,-230.81 265.8,-218.75 277.59,-209.52"/>
<polygon fill="midnightblue" stroke="midnightblue" points="236.11,-237.55 230.39,-246.48 240.42,-243.07 236.11,-237.55"/>
</g>
<!-- Node2&#45;&gt;Node3 -->
<g id="edge2" class="edge">
<title>Node2&#45;&gt;Node3</title>
<path fill="none" stroke="midnightblue" d="M150.93,-176.51C158.4,-165.39 167.84,-151.34 173.78,-142.51"/>
<polygon fill="midnightblue" stroke="midnightblue" points="147.91,-174.72 145.23,-184.98 153.71,-178.63 147.91,-174.72"/>
</g>
<!-- Node4 -->
<g id="node4" class="node">
<title>Node4</title>
<g id="a_node4"><a xlink:href="v8-inspector_8h.html" target="_top" xlink:title=" ">
<polygon fill="white" stroke="black" points="0,-67.5 0,-86.5 111,-86.5 111,-67.5 0,-67.5"/>
<text text-anchor="middle" x="55.5" y="-74.5" font-family="Helvetica,sans-Serif" font-size="10.00">include/v8&#45;inspector.h</text>
</a>
</g>
</g>
<!-- Node3&#45;&gt;Node4 -->
<g id="edge3" class="edge">
<title>Node3&#45;&gt;Node4</title>
<path fill="none" stroke="midnightblue" d="M150.49,-119.37C127.27,-109.26 95.34,-95.35 75.06,-86.52"/>
<polygon fill="midnightblue" stroke="midnightblue" points="149.29,-122.66 159.85,-123.44 152.08,-116.24 149.29,-122.66"/>
</g>
<!-- Node6 -->
<g id="node6" class="node">
<title>Node6</title>
<g id="a_node6"><a xlink:href="v8-profiler_8h.html" target="_top" xlink:title=" ">
<polygon fill="white" stroke="black" points="129.5,-67.5 129.5,-86.5 229.5,-86.5 229.5,-67.5 129.5,-67.5"/>
<text text-anchor="middle" x="179.5" y="-74.5" font-family="Helvetica,sans-Serif" font-size="10.00">include/v8&#45;profiler.h</text>
</a>
</g>
</g>
<!-- Node3&#45;&gt;Node6 -->
<g id="edge5" class="edge">
<title>Node3&#45;&gt;Node6</title>
<path fill="none" stroke="midnightblue" d="M179.5,-112.8C179.5,-103.91 179.5,-93.78 179.5,-86.75"/>
<polygon fill="midnightblue" stroke="midnightblue" points="176,-113.08 179.5,-123.08 183,-113.08 176,-113.08"/>
</g>
<!-- Node7 -->
<g id="node7" class="node">
<title>Node7</title>
<g id="a_node7"><a xlink:href="v8-util_8h.html" target="_top" xlink:title=" ">
<polygon fill="white" stroke="black" points="247.5,-67.5 247.5,-86.5 331.5,-86.5 331.5,-67.5 247.5,-67.5"/>
<text text-anchor="middle" x="289.5" y="-74.5" font-family="Helvetica,sans-Serif" font-size="10.00">include/v8&#45;util.h</text>
</a>
</g>
</g>
<!-- Node3&#45;&gt;Node7 -->
<g id="edge6" class="edge">
<title>Node3&#45;&gt;Node7</title>
<path fill="none" stroke="midnightblue" d="M206.26,-118.86C226.66,-108.85 254.17,-95.35 271.87,-86.65"/>
<polygon fill="midnightblue" stroke="midnightblue" points="204.61,-115.78 197.17,-123.32 207.69,-122.06 204.61,-115.78"/>
</g>
<!-- Node5 -->
<g id="node5" class="node">
<title>Node5</title>
<g id="a_node5"><a xlink:href="v8-inspector-protocol_8h.html" target="_top" xlink:title=" ">
<polygon fill="white" stroke="black" points="3.5,-0.5 3.5,-30.5 107.5,-30.5 107.5,-0.5 3.5,-0.5"/>
<text text-anchor="start" x="11.5" y="-18.5" font-family="Helvetica,sans-Serif" font-size="10.00">include/v8&#45;inspector</text>
<text text-anchor="middle" x="55.5" y="-7.5" font-family="Helvetica,sans-Serif" font-size="10.00">&#45;protocol.h</text>
</a>
</g>
</g>
<!-- Node4&#45;&gt;Node5 -->
<g id="edge4" class="edge">
<title>Node4&#45;&gt;Node5</title>
<path fill="none" stroke="midnightblue" d="M55.5,-57.23C55.5,-48.59 55.5,-38.5 55.5,-30.52"/>
<polygon fill="midnightblue" stroke="midnightblue" points="52,-57.48 55.5,-67.48 59,-57.48 52,-57.48"/>
</g>
</g>
</svg>
