<?xml version="1.0" encoding="UTF-8" standalone="no"?>
<!DOCTYPE svg PUBLIC "-//W3C//DTD SVG 1.1//EN"
 "http://www.w3.org/Graphics/SVG/1.1/DTD/svg11.dtd">
<!-- Generated by graphviz version 2.44.0 ()
 -->
<!-- Title: include/v8config.h Pages: 1 -->
<svg width="1674pt" height="419pt"
 viewBox="0.00 0.00 1673.50 419.00" xmlns="http://www.w3.org/2000/svg" xmlns:xlink="http://www.w3.org/1999/xlink">
<g id="graph0" class="graph" transform="scale(1 1) rotate(0) translate(4 415)">
<title>include/v8config.h</title>
<polygon fill="white" stroke="transparent" points="-4,4 -4,-415 1669.5,-415 1669.5,4 -4,4"/>
<!-- Node1 -->
<g id="node1" class="node">
<title>Node1</title>
<g id="a_node1"><a xlink:title=" ">
<polygon fill="#bfbfbf" stroke="black" points="893.5,-391.5 893.5,-410.5 987.5,-410.5 987.5,-391.5 893.5,-391.5"/>
<text text-anchor="middle" x="940.5" y="-398.5" font-family="Helvetica,sans-Serif" font-size="10.00">include/v8config.h</text>
</a>
</g>
</g>
<!-- Node2 -->
<g id="node2" class="node">
<title>Node2</title>
<g id="a_node2"><a xlink:href="api-constants_8h.html" target="_top" xlink:title=" ">
<polygon fill="white" stroke="black" points="0,-257.5 0,-287.5 111,-287.5 111,-257.5 0,-257.5"/>
<text text-anchor="start" x="8" y="-275.5" font-family="Helvetica,sans-Serif" font-size="10.00">include/cppgc/internal</text>
<text text-anchor="middle" x="55.5" y="-264.5" font-family="Helvetica,sans-Serif" font-size="10.00">/api&#45;constants.h</text>
</a>
</g>
</g>
<!-- Node1&#45;&gt;Node2 -->
<g id="edge1" class="edge">
<title>Node1&#45;&gt;Node2</title>
<path fill="none" stroke="midnightblue" d="M883.23,-399.42C708.98,-397.3 192.95,-388.26 125.5,-355 95.89,-340.4 73.76,-307.03 62.93,-287.82"/>
<polygon fill="midnightblue" stroke="midnightblue" points="883.43,-402.92 893.47,-399.54 883.52,-395.92 883.43,-402.92"/>
</g>
<!-- Node6 -->
<g id="node6" class="node">
<title>Node6</title>
<g id="a_node6"><a xlink:href="persistent_8h.html" target="_top" xlink:title=" ">
<polygon fill="white" stroke="black" points="1090.5,-0.5 1090.5,-19.5 1220.5,-19.5 1220.5,-0.5 1090.5,-0.5"/>
<text text-anchor="middle" x="1155.5" y="-7.5" font-family="Helvetica,sans-Serif" font-size="10.00">include/cppgc/persistent.h</text>
</a>
</g>
</g>
<!-- Node1&#45;&gt;Node6 -->
<g id="edge51" class="edge">
<title>Node1&#45;&gt;Node6</title>
<path fill="none" stroke="midnightblue" d="M941.52,-380.99C944,-336.41 950.73,-226.2 958.5,-190 971.74,-128.29 959.86,-99.59 1005.5,-56 1028.31,-34.22 1061.24,-22.93 1090.45,-17.11"/>
<polygon fill="midnightblue" stroke="midnightblue" points="938.02,-380.87 940.97,-391.04 945.01,-381.25 938.02,-380.87"/>
</g>
<!-- Node9 -->
<g id="node9" class="node">
<title>Node9</title>
<g id="a_node9"><a xlink:href="v8-platform_8h.html" target="_top" xlink:title=" ">
<polygon fill="white" stroke="black" points="266,-330 266,-349 373,-349 373,-330 266,-330"/>
<text text-anchor="middle" x="319.5" y="-337" font-family="Helvetica,sans-Serif" font-size="10.00">include/v8&#45;platform.h</text>
</a>
</g>
</g>
<!-- Node1&#45;&gt;Node9 -->
<g id="edge9" class="edge">
<title>Node1&#45;&gt;Node9</title>
<path fill="none" stroke="midnightblue" d="M883.2,-396.3C786.56,-389.79 585.11,-375.06 415.5,-355 401.27,-353.32 385.91,-351.15 371.73,-349.01"/>
<polygon fill="midnightblue" stroke="midnightblue" points="883.12,-399.8 893.34,-396.98 883.59,-392.82 883.12,-399.8"/>
</g>
<!-- Node10 -->
<g id="node10" class="node">
<title>Node10</title>
<g id="a_node10"><a xlink:href="platform_8h.html" target="_top" xlink:title=" ">
<polygon fill="white" stroke="black" points="319.5,-263 319.5,-282 441.5,-282 441.5,-263 319.5,-263"/>
<text text-anchor="middle" x="380.5" y="-270" font-family="Helvetica,sans-Serif" font-size="10.00">include/cppgc/platform.h</text>
</a>
</g>
</g>
<!-- Node1&#45;&gt;Node10 -->
<g id="edge15" class="edge">
<title>Node1&#45;&gt;Node10</title>
<path fill="none" stroke="midnightblue" d="M883.15,-399.61C805.19,-397.71 662.1,-389.3 545.5,-355 485.73,-337.42 421.28,-299.33 393.96,-282.18"/>
<polygon fill="midnightblue" stroke="midnightblue" points="883.18,-403.11 893.25,-399.83 883.33,-396.11 883.18,-403.11"/>
</g>
<!-- Node12 -->
<g id="node12" class="node">
<title>Node12</title>
<g id="a_node12"><a xlink:href="libplatform_8h.html" target="_top" xlink:title=" ">
<polygon fill="white" stroke="black" points="254,-190.5 254,-220.5 349,-220.5 349,-190.5 254,-190.5"/>
<text text-anchor="start" x="262" y="-208.5" font-family="Helvetica,sans-Serif" font-size="10.00">include/libplatform</text>
<text text-anchor="middle" x="301.5" y="-197.5" font-family="Helvetica,sans-Serif" font-size="10.00">/libplatform.h</text>
</a>
</g>
</g>
<!-- Node1&#45;&gt;Node12 -->
<g id="edge52" class="edge">
<title>Node1&#45;&gt;Node12</title>
<path fill="none" stroke="midnightblue" d="M882.91,-400.09C740.01,-399.69 372.42,-394.71 257.5,-355 199.28,-334.88 123.98,-307.33 159.5,-257 165.27,-248.82 214.87,-232.38 253.84,-220.48"/>
<polygon fill="midnightblue" stroke="midnightblue" points="883.2,-403.59 893.21,-400.11 883.22,-396.59 883.2,-403.59"/>
</g>
<!-- Node13 -->
<g id="node13" class="node">
<title>Node13</title>
<g id="a_node13"><a xlink:href="common_8h.html" target="_top" xlink:title=" ">
<polygon fill="white" stroke="black" points="666,-330 666,-349 791,-349 791,-330 666,-330"/>
<text text-anchor="middle" x="728.5" y="-337" font-family="Helvetica,sans-Serif" font-size="10.00">include/cppgc/common.h</text>
</a>
</g>
</g>
<!-- Node1&#45;&gt;Node13 -->
<g id="edge16" class="edge">
<title>Node1&#45;&gt;Node13</title>
<path fill="none" stroke="midnightblue" d="M900.41,-388.75C859.23,-377.19 796.02,-359.45 758.82,-349.01"/>
<polygon fill="midnightblue" stroke="midnightblue" points="899.55,-392.14 910.13,-391.48 901.44,-385.4 899.55,-392.14"/>
</g>
<!-- Node14 -->
<g id="node14" class="node">
<title>Node14</title>
<g id="a_node14"><a xlink:href="heap_8h.html" target="_top" xlink:title=" ">
<polygon fill="white" stroke="black" points="416.5,-196 416.5,-215 524.5,-215 524.5,-196 416.5,-196"/>
<text text-anchor="middle" x="470.5" y="-203" font-family="Helvetica,sans-Serif" font-size="10.00">include/cppgc/heap.h</text>
</a>
</g>
</g>
<!-- Node1&#45;&gt;Node14 -->
<g id="edge30" class="edge">
<title>Node1&#45;&gt;Node14</title>
<path fill="none" stroke="midnightblue" d="M883.07,-398.42C803.01,-395.14 663.23,-385.15 623.5,-355 585.61,-326.25 613.85,-290.92 580.5,-257 559.65,-235.8 528.25,-222.61 504.32,-215.05"/>
<polygon fill="midnightblue" stroke="midnightblue" points="883.35,-401.94 893.47,-398.83 883.62,-394.94 883.35,-401.94"/>
</g>
<!-- Node16 -->
<g id="node16" class="node">
<title>Node16</title>
<g id="a_node16"><a xlink:href="liveness-broker_8h.html" target="_top" xlink:title=" ">
<polygon fill="white" stroke="black" points="496.5,-123.5 496.5,-153.5 612.5,-153.5 612.5,-123.5 496.5,-123.5"/>
<text text-anchor="start" x="504.5" y="-141.5" font-family="Helvetica,sans-Serif" font-size="10.00">include/cppgc/liveness</text>
<text text-anchor="middle" x="554.5" y="-130.5" font-family="Helvetica,sans-Serif" font-size="10.00">&#45;broker.h</text>
</a>
</g>
</g>
<!-- Node1&#45;&gt;Node16 -->
<g id="edge50" class="edge">
<title>Node1&#45;&gt;Node16</title>
<path fill="none" stroke="midnightblue" d="M883.15,-396.74C811.24,-391.66 693.05,-379.77 657.5,-355 616.52,-326.45 631.16,-297.9 602.5,-257 590.38,-239.71 580.84,-239.94 571.5,-221 560.69,-199.09 556.75,-170.59 555.31,-153.75"/>
<polygon fill="midnightblue" stroke="midnightblue" points="883.2,-400.25 893.41,-397.44 883.67,-393.27 883.2,-400.25"/>
</g>
<!-- Node17 -->
<g id="node17" class="node">
<title>Node17</title>
<g id="a_node17"><a xlink:href="v8_8h.html" target="_top" xlink:title=" ">
<polygon fill="white" stroke="black" points="775.5,-263 775.5,-282 843.5,-282 843.5,-263 775.5,-263"/>
<text text-anchor="middle" x="809.5" y="-270" font-family="Helvetica,sans-Serif" font-size="10.00">include/v8.h</text>
</a>
</g>
</g>
<!-- Node1&#45;&gt;Node17 -->
<g id="edge56" class="edge">
<title>Node1&#45;&gt;Node17</title>
<path fill="none" stroke="midnightblue" d="M940.26,-381.2C939.1,-364.43 934.96,-340.11 921.5,-324 901.81,-300.43 868.83,-287.4 843.75,-280.51"/>
<polygon fill="midnightblue" stroke="midnightblue" points="936.77,-381.55 940.67,-391.4 943.77,-381.27 936.77,-381.55"/>
</g>
<!-- Node22 -->
<g id="node22" class="node">
<title>Node22</title>
<g id="a_node22"><a xlink:href="gc-info_8h.html" target="_top" xlink:title=" ">
<polygon fill="white" stroke="black" points="460,-257.5 460,-287.5 571,-287.5 571,-257.5 460,-257.5"/>
<text text-anchor="start" x="468" y="-275.5" font-family="Helvetica,sans-Serif" font-size="10.00">include/cppgc/internal</text>
<text text-anchor="middle" x="515.5" y="-264.5" font-family="Helvetica,sans-Serif" font-size="10.00">/gc&#45;info.h</text>
</a>
</g>
</g>
<!-- Node1&#45;&gt;Node22 -->
<g id="edge31" class="edge">
<title>Node1&#45;&gt;Node22</title>
<path fill="none" stroke="midnightblue" d="M883,-397.7C795.98,-393.39 635.64,-381.98 585.5,-355 556.43,-339.36 534.09,-306.39 523.08,-287.52"/>
<polygon fill="midnightblue" stroke="midnightblue" points="883.08,-401.21 893.24,-398.19 883.42,-394.22 883.08,-401.21"/>
</g>
<!-- Node23 -->
<g id="node23" class="node">
<title>Node23</title>
<g id="a_node23"><a xlink:href="source-location_8h.html" target="_top" xlink:title=" ">
<polygon fill="white" stroke="black" points="1106,-324.5 1106,-354.5 1215,-354.5 1215,-324.5 1106,-324.5"/>
<text text-anchor="start" x="1114" y="-342.5" font-family="Helvetica,sans-Serif" font-size="10.00">include/cppgc/source</text>
<text text-anchor="middle" x="1160.5" y="-331.5" font-family="Helvetica,sans-Serif" font-size="10.00">&#45;location.h</text>
</a>
</g>
</g>
<!-- Node1&#45;&gt;Node23 -->
<g id="edge33" class="edge">
<title>Node1&#45;&gt;Node23</title>
<path fill="none" stroke="midnightblue" d="M981.69,-388.86C1017.61,-379.14 1069.89,-365.01 1108.65,-354.52"/>
<polygon fill="midnightblue" stroke="midnightblue" points="980.76,-385.49 972.02,-391.48 982.59,-392.24 980.76,-385.49"/>
</g>
<!-- Node24 -->
<g id="node24" class="node">
<title>Node24</title>
<g id="a_node24"><a xlink:href="logging_8h.html" target="_top" xlink:title=" ">
<polygon fill="white" stroke="black" points="1260,-257.5 1260,-287.5 1371,-287.5 1371,-257.5 1260,-257.5"/>
<text text-anchor="start" x="1268" y="-275.5" font-family="Helvetica,sans-Serif" font-size="10.00">include/cppgc/internal</text>
<text text-anchor="middle" x="1315.5" y="-264.5" font-family="Helvetica,sans-Serif" font-size="10.00">/logging.h</text>
</a>
</g>
</g>
<!-- Node1&#45;&gt;Node24 -->
<g id="edge46" class="edge">
<title>Node1&#45;&gt;Node24</title>
<path fill="none" stroke="midnightblue" d="M997.95,-400.29C1057.38,-398.5 1151.56,-389.68 1224.5,-355 1233.36,-350.79 1276.94,-310.1 1300.43,-287.86"/>
<polygon fill="midnightblue" stroke="midnightblue" points="997.54,-396.8 987.63,-400.54 997.71,-403.8 997.54,-396.8"/>
</g>
<!-- Node25 -->
<g id="node25" class="node">
<title>Node25</title>
<g id="a_node25"><a xlink:href="persistent-node_8h.html" target="_top" xlink:title=" ">
<polygon fill="white" stroke="black" points="1298,-190.5 1298,-220.5 1409,-220.5 1409,-190.5 1298,-190.5"/>
<text text-anchor="start" x="1306" y="-208.5" font-family="Helvetica,sans-Serif" font-size="10.00">include/cppgc/internal</text>
<text text-anchor="middle" x="1353.5" y="-197.5" font-family="Helvetica,sans-Serif" font-size="10.00">/persistent&#45;node.h</text>
</a>
</g>
</g>
<!-- Node1&#45;&gt;Node25 -->
<g id="edge47" class="edge">
<title>Node1&#45;&gt;Node25</title>
<path fill="none" stroke="midnightblue" d="M997.91,-398.14C1110.31,-393.93 1350.79,-381.85 1376.5,-355 1406.65,-323.52 1391.09,-299.28 1380.5,-257 1377.21,-243.88 1369.8,-230.45 1363.57,-220.74"/>
<polygon fill="midnightblue" stroke="midnightblue" points="997.63,-394.65 987.76,-398.51 997.88,-401.65 997.63,-394.65"/>
</g>
<!-- Node26 -->
<g id="node26" class="node">
<title>Node26</title>
<g id="a_node26"><a xlink:href="pointer-policies_8h.html" target="_top" xlink:title=" ">
<polygon fill="white" stroke="black" points="1054,-257.5 1054,-287.5 1165,-287.5 1165,-257.5 1054,-257.5"/>
<text text-anchor="start" x="1062" y="-275.5" font-family="Helvetica,sans-Serif" font-size="10.00">include/cppgc/internal</text>
<text text-anchor="middle" x="1109.5" y="-264.5" font-family="Helvetica,sans-Serif" font-size="10.00">/pointer&#45;policies.h</text>
</a>
</g>
</g>
<!-- Node1&#45;&gt;Node26 -->
<g id="edge48" class="edge">
<title>Node1&#45;&gt;Node26</title>
<path fill="none" stroke="midnightblue" d="M974.03,-387.62C992.79,-379.82 1016.04,-368.65 1034.5,-355 1061.09,-335.34 1085.81,-305.31 1099.16,-287.71"/>
<polygon fill="midnightblue" stroke="midnightblue" points="972.65,-384.41 964.68,-391.39 975.26,-390.9 972.65,-384.41"/>
</g>
<!-- Node27 -->
<g id="node27" class="node">
<title>Node27</title>
<g id="a_node27"><a xlink:href="member_8h.html" target="_top" xlink:title=" ">
<polygon fill="white" stroke="black" points="967.5,-196 967.5,-215 1089.5,-215 1089.5,-196 967.5,-196"/>
<text text-anchor="middle" x="1028.5" y="-203" font-family="Helvetica,sans-Serif" font-size="10.00">include/cppgc/member.h</text>
</a>
</g>
</g>
<!-- Node1&#45;&gt;Node27 -->
<g id="edge49" class="edge">
<title>Node1&#45;&gt;Node27</title>
<path fill="none" stroke="midnightblue" d="M962.95,-385.5C973.4,-377.66 985.12,-367.1 992.5,-355 1021.23,-307.89 1027.04,-239.3 1028.21,-215.24"/>
<polygon fill="midnightblue" stroke="midnightblue" points="960.73,-382.79 954.6,-391.42 964.78,-388.5 960.73,-382.79"/>
</g>
<!-- Node28 -->
<g id="node28" class="node">
<title>Node28</title>
<g id="a_node28"><a xlink:href="v8-fast-api-calls_8h.html" target="_top" xlink:title=" ">
<polygon fill="white" stroke="black" points="1271.5,-324.5 1271.5,-354.5 1367.5,-354.5 1367.5,-324.5 1271.5,-324.5"/>
<text text-anchor="start" x="1279.5" y="-342.5" font-family="Helvetica,sans-Serif" font-size="10.00">include/v8&#45;fast&#45;api</text>
<text text-anchor="middle" x="1319.5" y="-331.5" font-family="Helvetica,sans-Serif" font-size="10.00">&#45;calls.h</text>
</a>
</g>
</g>
<!-- Node1&#45;&gt;Node28 -->
<g id="edge53" class="edge">
<title>Node1&#45;&gt;Node28</title>
<path fill="none" stroke="midnightblue" d="M997.95,-393.4C1061.65,-385.72 1167.32,-371.91 1257.5,-355 1261.95,-354.16 1266.57,-353.22 1271.19,-352.24"/>
<polygon fill="midnightblue" stroke="midnightblue" points="997.22,-389.96 987.71,-394.63 998.05,-396.91 997.22,-389.96"/>
</g>
<!-- Node29 -->
<g id="node29" class="node">
<title>Node29</title>
<g id="a_node29"><a xlink:href="v8-internal_8h.html" target="_top" xlink:title=" ">
<polygon fill="white" stroke="black" points="809,-330 809,-349 912,-349 912,-330 809,-330"/>
<text text-anchor="middle" x="860.5" y="-337" font-family="Helvetica,sans-Serif" font-size="10.00">include/v8&#45;internal.h</text>
</a>
</g>
</g>
<!-- Node1&#45;&gt;Node29 -->
<g id="edge54" class="edge">
<title>Node1&#45;&gt;Node29</title>
<path fill="none" stroke="midnightblue" d="M920.73,-385.29C905.38,-373.88 884.64,-358.46 871.94,-349.01"/>
<polygon fill="midnightblue" stroke="midnightblue" points="918.93,-388.32 929.04,-391.48 923.1,-382.7 918.93,-388.32"/>
</g>
<!-- Node30 -->
<g id="node30" class="node">
<title>Node30</title>
<g id="a_node30"><a xlink:href="v8-wasm-trap-handler-posix_8h.html" target="_top" xlink:title=" ">
<polygon fill="white" stroke="black" points="1427.5,-324.5 1427.5,-354.5 1537.5,-354.5 1537.5,-324.5 1427.5,-324.5"/>
<text text-anchor="start" x="1435.5" y="-342.5" font-family="Helvetica,sans-Serif" font-size="10.00">include/v8&#45;wasm&#45;trap</text>
<text text-anchor="middle" x="1482.5" y="-331.5" font-family="Helvetica,sans-Serif" font-size="10.00">&#45;handler&#45;posix.h</text>
</a>
</g>
</g>
<!-- Node1&#45;&gt;Node30 -->
<g id="edge57" class="edge">
<title>Node1&#45;&gt;Node30</title>
<path fill="none" stroke="midnightblue" d="M997.89,-396.63C1087.14,-390.91 1264.46,-377.68 1413.5,-355 1417.98,-354.32 1422.6,-353.53 1427.24,-352.68"/>
<polygon fill="midnightblue" stroke="midnightblue" points="997.47,-393.15 987.71,-397.27 997.91,-400.13 997.47,-393.15"/>
</g>
<!-- Node31 -->
<g id="node31" class="node">
<title>Node31</title>
<g id="a_node31"><a xlink:href="v8-wasm-trap-handler-win_8h.html" target="_top" xlink:title=" ">
<polygon fill="white" stroke="black" points="1555.5,-324.5 1555.5,-354.5 1665.5,-354.5 1665.5,-324.5 1555.5,-324.5"/>
<text text-anchor="start" x="1563.5" y="-342.5" font-family="Helvetica,sans-Serif" font-size="10.00">include/v8&#45;wasm&#45;trap</text>
<text text-anchor="middle" x="1610.5" y="-331.5" font-family="Helvetica,sans-Serif" font-size="10.00">&#45;handler&#45;win.h</text>
</a>
</g>
</g>
<!-- Node1&#45;&gt;Node31 -->
<g id="edge58" class="edge">
<title>Node1&#45;&gt;Node31</title>
<path fill="none" stroke="midnightblue" d="M997.53,-398.59C1105.32,-395.3 1346.11,-384.97 1546.5,-355 1549.43,-354.56 1552.42,-354.06 1555.44,-353.52"/>
<polygon fill="midnightblue" stroke="midnightblue" points="997.42,-395.09 987.52,-398.89 997.62,-402.09 997.42,-395.09"/>
</g>
<!-- Node3 -->
<g id="node3" class="node">
<title>Node3</title>
<g id="a_node3"><a xlink:href="garbage-collected_8h.html" target="_top" xlink:title=" ">
<polygon fill="white" stroke="black" points="121.5,-190.5 121.5,-220.5 235.5,-220.5 235.5,-190.5 121.5,-190.5"/>
<text text-anchor="start" x="129.5" y="-208.5" font-family="Helvetica,sans-Serif" font-size="10.00">include/cppgc/garbage</text>
<text text-anchor="middle" x="178.5" y="-197.5" font-family="Helvetica,sans-Serif" font-size="10.00">&#45;collected.h</text>
</a>
</g>
</g>
<!-- Node2&#45;&gt;Node3 -->
<g id="edge2" class="edge">
<title>Node2&#45;&gt;Node3</title>
<path fill="none" stroke="midnightblue" d="M91.05,-252.71C110.45,-242.46 134.06,-229.98 151.86,-220.58"/>
<polygon fill="midnightblue" stroke="midnightblue" points="89.4,-249.63 82.19,-257.4 92.67,-255.82 89.4,-249.63"/>
</g>
<!-- Node4 -->
<g id="node4" class="node">
<title>Node4</title>
<g id="a_node4"><a xlink:href="allocation_8h.html" target="_top" xlink:title=" ">
<polygon fill="white" stroke="black" points="286.5,-129 286.5,-148 414.5,-148 414.5,-129 286.5,-129"/>
<text text-anchor="middle" x="350.5" y="-136" font-family="Helvetica,sans-Serif" font-size="10.00">include/cppgc/allocation.h</text>
</a>
</g>
</g>
<!-- Node2&#45;&gt;Node4 -->
<g id="edge6" class="edge">
<title>Node2&#45;&gt;Node4</title>
<path fill="none" stroke="midnightblue" d="M65.8,-248.14C75.25,-229.49 91.04,-204.2 112.5,-190 164.45,-155.61 235.55,-144.08 286.48,-140.49"/>
<polygon fill="midnightblue" stroke="midnightblue" points="62.63,-246.67 61.44,-257.2 68.93,-249.7 62.63,-246.67"/>
</g>
<!-- Node7 -->
<g id="node7" class="node">
<title>Node7</title>
<g id="a_node7"><a xlink:href="accessors_8h.html" target="_top" xlink:title=" ">
<polygon fill="white" stroke="black" points="144,-56.5 144,-86.5 255,-86.5 255,-56.5 144,-56.5"/>
<text text-anchor="start" x="152" y="-74.5" font-family="Helvetica,sans-Serif" font-size="10.00">include/cppgc/internal</text>
<text text-anchor="middle" x="199.5" y="-63.5" font-family="Helvetica,sans-Serif" font-size="10.00">/accessors.h</text>
</a>
</g>
</g>
<!-- Node2&#45;&gt;Node7 -->
<g id="edge7" class="edge">
<title>Node2&#45;&gt;Node7</title>
<path fill="none" stroke="midnightblue" d="M58.93,-247.15C62.12,-230.22 68,-207.61 78.5,-190 104.89,-145.73 152.18,-106.8 179.17,-86.78"/>
<polygon fill="midnightblue" stroke="midnightblue" points="55.42,-246.91 57.21,-257.36 62.33,-248.08 55.42,-246.91"/>
</g>
<!-- Node3&#45;&gt;Node4 -->
<g id="edge3" class="edge">
<title>Node3&#45;&gt;Node4</title>
<path fill="none" stroke="midnightblue" d="M225.38,-186.78C258.73,-174.18 302.05,-157.81 327.99,-148.01"/>
<polygon fill="midnightblue" stroke="midnightblue" points="223.94,-183.59 215.82,-190.4 226.41,-190.13 223.94,-183.59"/>
</g>
<!-- Node5 -->
<g id="node5" class="node">
<title>Node5</title>
<g id="a_node5"><a xlink:href="visitor_8h.html" target="_top" xlink:title=" ">
<polygon fill="white" stroke="black" points="1014,-62 1014,-81 1127,-81 1127,-62 1014,-62"/>
<text text-anchor="middle" x="1070.5" y="-69" font-family="Helvetica,sans-Serif" font-size="10.00">include/cppgc/visitor.h</text>
</a>
</g>
</g>
<!-- Node3&#45;&gt;Node5 -->
<g id="edge4" class="edge">
<title>Node3&#45;&gt;Node5</title>
<path fill="none" stroke="midnightblue" d="M197.07,-182.92C215.33,-163.39 245.11,-135.79 277.5,-123 345.42,-96.17 843.53,-79.17 1013.7,-74.1"/>
<polygon fill="midnightblue" stroke="midnightblue" points="194.35,-180.71 190.21,-190.47 199.52,-185.42 194.35,-180.71"/>
</g>
<!-- Node5&#45;&gt;Node6 -->
<g id="edge5" class="edge">
<title>Node5&#45;&gt;Node6</title>
<path fill="none" stroke="midnightblue" d="M1091.05,-56.11C1107.4,-44.67 1129.72,-29.05 1143.34,-19.51"/>
<polygon fill="midnightblue" stroke="midnightblue" points="1088.86,-53.37 1082.68,-61.98 1092.88,-59.11 1088.86,-53.37"/>
</g>
<!-- Node8 -->
<g id="node8" class="node">
<title>Node8</title>
<g id="a_node8"><a xlink:href="prefinalizer_8h.html" target="_top" xlink:title=" ">
<polygon fill="white" stroke="black" points="403,-0.5 403,-19.5 536,-19.5 536,-0.5 403,-0.5"/>
<text text-anchor="middle" x="469.5" y="-7.5" font-family="Helvetica,sans-Serif" font-size="10.00">include/cppgc/prefinalizer.h</text>
</a>
</g>
</g>
<!-- Node7&#45;&gt;Node8 -->
<g id="edge8" class="edge">
<title>Node7&#45;&gt;Node8</title>
<path fill="none" stroke="midnightblue" d="M265.2,-56.02C316.96,-44.62 387.34,-29.1 430.54,-19.59"/>
<polygon fill="midnightblue" stroke="midnightblue" points="264.13,-52.67 255.12,-58.24 265.64,-59.51 264.13,-52.67"/>
</g>
<!-- Node9&#45;&gt;Node10 -->
<g id="edge10" class="edge">
<title>Node9&#45;&gt;Node10</title>
<path fill="none" stroke="midnightblue" d="M334.86,-322.13C346.79,-309.42 362.86,-292.3 372.4,-282.13"/>
<polygon fill="midnightblue" stroke="midnightblue" points="332.02,-320.05 327.73,-329.73 337.12,-324.84 332.02,-320.05"/>
</g>
<!-- Node11 -->
<g id="node11" class="node">
<title>Node11</title>
<g id="a_node11"><a xlink:href="v8-tracing_8h.html" target="_top" xlink:title=" ">
<polygon fill="white" stroke="black" points="168,-257.5 168,-287.5 263,-287.5 263,-257.5 168,-257.5"/>
<text text-anchor="start" x="176" y="-275.5" font-family="Helvetica,sans-Serif" font-size="10.00">include/libplatform</text>
<text text-anchor="middle" x="215.5" y="-264.5" font-family="Helvetica,sans-Serif" font-size="10.00">/v8&#45;tracing.h</text>
</a>
</g>
</g>
<!-- Node9&#45;&gt;Node11 -->
<g id="edge12" class="edge">
<title>Node9&#45;&gt;Node11</title>
<path fill="none" stroke="midnightblue" d="M296.54,-324.15C279.14,-313.27 255.34,-298.4 238.04,-287.59"/>
<polygon fill="midnightblue" stroke="midnightblue" points="295.14,-327.4 305.47,-329.73 298.85,-321.47 295.14,-327.4"/>
</g>
<!-- Node9&#45;&gt;Node12 -->
<g id="edge14" class="edge">
<title>Node9&#45;&gt;Node12</title>
<path fill="none" stroke="midnightblue" d="M315.9,-320.02C314.12,-310.48 312.03,-298.64 310.5,-288 307.11,-264.47 304.31,-236.96 302.78,-220.67"/>
<polygon fill="midnightblue" stroke="midnightblue" points="312.49,-320.78 317.8,-329.95 319.36,-319.47 312.49,-320.78"/>
</g>
<!-- Node10&#45;&gt;Node3 -->
<g id="edge11" class="edge">
<title>Node10&#45;&gt;Node3</title>
<path fill="none" stroke="midnightblue" d="M344.06,-259.77C309.81,-248.75 258.5,-232.24 222.09,-220.53"/>
<polygon fill="midnightblue" stroke="midnightblue" points="343.08,-263.14 353.68,-262.87 345.23,-256.47 343.08,-263.14"/>
</g>
<!-- Node11&#45;&gt;Node12 -->
<g id="edge13" class="edge">
<title>Node11&#45;&gt;Node12</title>
<path fill="none" stroke="midnightblue" d="M242.4,-251.17C255.55,-241.23 271.05,-229.51 282.88,-220.58"/>
<polygon fill="midnightblue" stroke="midnightblue" points="240.03,-248.57 234.16,-257.4 244.25,-254.16 240.03,-248.57"/>
</g>
<!-- Node13&#45;&gt;Node14 -->
<g id="edge17" class="edge">
<title>Node13&#45;&gt;Node14</title>
<path fill="none" stroke="midnightblue" d="M710.6,-323.41C688.8,-305.62 650.33,-276.08 613.5,-257 577.15,-238.17 532.2,-223.58 502.5,-215.03"/>
<polygon fill="midnightblue" stroke="midnightblue" points="708.42,-326.15 718.35,-329.82 712.87,-320.75 708.42,-326.15"/>
</g>
<!-- Node13&#45;&gt;Node17 -->
<g id="edge25" class="edge">
<title>Node13&#45;&gt;Node17</title>
<path fill="none" stroke="midnightblue" d="M747.55,-323.21C763.51,-310.41 785.71,-292.59 798.75,-282.13"/>
<polygon fill="midnightblue" stroke="midnightblue" points="745.03,-320.75 739.42,-329.73 749.41,-326.2 745.03,-320.75"/>
</g>
<!-- Node14&#45;&gt;Node4 -->
<g id="edge18" class="edge">
<title>Node14&#45;&gt;Node4</title>
<path fill="none" stroke="midnightblue" d="M445.5,-190.96C421.71,-178.07 386.63,-159.07 366.43,-148.13"/>
<polygon fill="midnightblue" stroke="midnightblue" points="443.86,-194.05 454.32,-195.73 447.19,-187.89 443.86,-194.05"/>
</g>
<!-- Node15 -->
<g id="node15" class="node">
<title>Node15</title>
<g id="a_node15"><a xlink:href="prefinalizer-handler_8h.html" target="_top" xlink:title=" ">
<polygon fill="white" stroke="black" points="414,-56.5 414,-86.5 525,-86.5 525,-56.5 414,-56.5"/>
<text text-anchor="start" x="422" y="-74.5" font-family="Helvetica,sans-Serif" font-size="10.00">include/cppgc/internal</text>
<text text-anchor="middle" x="469.5" y="-63.5" font-family="Helvetica,sans-Serif" font-size="10.00">/prefinalizer&#45;handler.h</text>
</a>
</g>
</g>
<!-- Node14&#45;&gt;Node15 -->
<g id="edge19" class="edge">
<title>Node14&#45;&gt;Node15</title>
<path fill="none" stroke="midnightblue" d="M470.36,-185.53C470.15,-158.81 469.79,-110.69 469.61,-86.78"/>
<polygon fill="midnightblue" stroke="midnightblue" points="466.86,-185.87 470.43,-195.84 473.86,-185.81 466.86,-185.87"/>
</g>
<!-- Node14&#45;&gt;Node16 -->
<g id="edge21" class="edge">
<title>Node14&#45;&gt;Node16</title>
<path fill="none" stroke="midnightblue" d="M489.83,-189.54C503.81,-178.73 522.58,-164.2 536.29,-153.59"/>
<polygon fill="midnightblue" stroke="midnightblue" points="487.6,-186.85 481.83,-195.73 491.88,-192.38 487.6,-186.85"/>
</g>
<!-- Node15&#45;&gt;Node8 -->
<g id="edge20" class="edge">
<title>Node15&#45;&gt;Node8</title>
<path fill="none" stroke="midnightblue" d="M469.5,-46.29C469.5,-36.86 469.5,-26.65 469.5,-19.66"/>
<polygon fill="midnightblue" stroke="midnightblue" points="466,-46.4 469.5,-56.4 473,-46.4 466,-46.4"/>
</g>
<!-- Node16&#45;&gt;Node5 -->
<g id="edge23" class="edge">
<title>Node16&#45;&gt;Node5</title>
<path fill="none" stroke="midnightblue" d="M622.65,-128.92C725.39,-115.97 918.09,-91.7 1013.7,-79.65"/>
<polygon fill="midnightblue" stroke="midnightblue" points="622.17,-125.45 612.69,-130.17 623.05,-132.39 622.17,-125.45"/>
</g>
<!-- Node16&#45;&gt;Node8 -->
<g id="edge24" class="edge">
<title>Node16&#45;&gt;Node8</title>
<path fill="none" stroke="midnightblue" d="M553.04,-112.91C550.98,-95.69 546.09,-72.83 534.5,-56 523.14,-39.49 503.59,-27.18 488.9,-19.64"/>
<polygon fill="midnightblue" stroke="midnightblue" points="549.59,-113.67 554.02,-123.3 556.56,-113.01 549.59,-113.67"/>
</g>
<!-- Node16&#45;&gt;Node15 -->
<g id="edge22" class="edge">
<title>Node16&#45;&gt;Node15</title>
<path fill="none" stroke="midnightblue" d="M527.91,-117.17C514.91,-107.23 499.6,-95.51 487.91,-86.58"/>
<polygon fill="midnightblue" stroke="midnightblue" points="525.99,-120.1 536.06,-123.4 530.24,-114.54 525.99,-120.1"/>
</g>
<!-- Node18 -->
<g id="node18" class="node">
<title>Node18</title>
<g id="a_node18"><a xlink:href="v8-inspector_8h.html" target="_top" xlink:title=" ">
<polygon fill="white" stroke="black" points="800,-196 800,-215 911,-215 911,-196 800,-196"/>
<text text-anchor="middle" x="855.5" y="-203" font-family="Helvetica,sans-Serif" font-size="10.00">include/v8&#45;inspector.h</text>
</a>
</g>
</g>
<!-- Node17&#45;&gt;Node18 -->
<g id="edge26" class="edge">
<title>Node17&#45;&gt;Node18</title>
<path fill="none" stroke="midnightblue" d="M821.6,-254.4C830.54,-241.77 842.33,-225.1 849.39,-215.13"/>
<polygon fill="midnightblue" stroke="midnightblue" points="818.62,-252.55 815.7,-262.73 824.34,-256.59 818.62,-252.55"/>
</g>
<!-- Node20 -->
<g id="node20" class="node">
<title>Node20</title>
<g id="a_node20"><a xlink:href="v8-profiler_8h.html" target="_top" xlink:title=" ">
<polygon fill="white" stroke="black" points="580.5,-196 580.5,-215 680.5,-215 680.5,-196 580.5,-196"/>
<text text-anchor="middle" x="630.5" y="-203" font-family="Helvetica,sans-Serif" font-size="10.00">include/v8&#45;profiler.h</text>
</a>
</g>
</g>
<!-- Node17&#45;&gt;Node20 -->
<g id="edge28" class="edge">
<title>Node17&#45;&gt;Node20</title>
<path fill="none" stroke="midnightblue" d="M776.28,-259.44C740.77,-246.54 685.37,-226.42 654.08,-215.06"/>
<polygon fill="midnightblue" stroke="midnightblue" points="775.14,-262.75 785.73,-262.87 777.53,-256.17 775.14,-262.75"/>
</g>
<!-- Node21 -->
<g id="node21" class="node">
<title>Node21</title>
<g id="a_node21"><a xlink:href="v8-util_8h.html" target="_top" xlink:title=" ">
<polygon fill="white" stroke="black" points="698.5,-196 698.5,-215 782.5,-215 782.5,-196 698.5,-196"/>
<text text-anchor="middle" x="740.5" y="-203" font-family="Helvetica,sans-Serif" font-size="10.00">include/v8&#45;util.h</text>
</a>
</g>
</g>
<!-- Node17&#45;&gt;Node21 -->
<g id="edge29" class="edge">
<title>Node17&#45;&gt;Node21</title>
<path fill="none" stroke="midnightblue" d="M792.89,-255.86C779.33,-243.08 760.66,-225.49 749.66,-215.13"/>
<polygon fill="midnightblue" stroke="midnightblue" points="790.52,-258.42 800.19,-262.73 795.32,-253.33 790.52,-258.42"/>
</g>
<!-- Node19 -->
<g id="node19" class="node">
<title>Node19</title>
<g id="a_node19"><a xlink:href="v8-inspector-protocol_8h.html" target="_top" xlink:title=" ">
<polygon fill="white" stroke="black" points="803.5,-123.5 803.5,-153.5 907.5,-153.5 907.5,-123.5 803.5,-123.5"/>
<text text-anchor="start" x="811.5" y="-141.5" font-family="Helvetica,sans-Serif" font-size="10.00">include/v8&#45;inspector</text>
<text text-anchor="middle" x="855.5" y="-130.5" font-family="Helvetica,sans-Serif" font-size="10.00">&#45;protocol.h</text>
</a>
</g>
</g>
<!-- Node18&#45;&gt;Node19 -->
<g id="edge27" class="edge">
<title>Node18&#45;&gt;Node19</title>
<path fill="none" stroke="midnightblue" d="M855.5,-185.41C855.5,-175.22 855.5,-162.9 855.5,-153.59"/>
<polygon fill="midnightblue" stroke="midnightblue" points="852,-185.73 855.5,-195.73 859,-185.73 852,-185.73"/>
</g>
<!-- Node22&#45;&gt;Node4 -->
<g id="edge32" class="edge">
<title>Node22&#45;&gt;Node4</title>
<path fill="none" stroke="midnightblue" d="M463.18,-253.56C444.35,-245.5 423.77,-234.67 407.5,-221 382.12,-199.67 362.75,-164.49 354.65,-148.24"/>
<polygon fill="midnightblue" stroke="midnightblue" points="461.96,-256.85 472.54,-257.42 464.63,-250.37 461.96,-256.85"/>
</g>
<!-- Node23&#45;&gt;Node5 -->
<g id="edge45" class="edge">
<title>Node23&#45;&gt;Node5</title>
<path fill="none" stroke="midnightblue" d="M1186.82,-317.4C1195.06,-309.19 1203.14,-299.09 1207.5,-288 1212.54,-275.18 1211.83,-270.08 1207.5,-257 1181.45,-178.21 1107.29,-105.66 1080.4,-81.22"/>
<polygon fill="midnightblue" stroke="midnightblue" points="1184.26,-315 1179.31,-324.37 1189.02,-320.13 1184.26,-315"/>
</g>
<!-- Node23&#45;&gt;Node6 -->
<g id="edge44" class="edge">
<title>Node23&#45;&gt;Node6</title>
<path fill="none" stroke="midnightblue" d="M1170.19,-314.72C1179.92,-288.62 1193.5,-245.29 1193.5,-206.5 1193.5,-206.5 1193.5,-206.5 1193.5,-137.5 1193.5,-91.41 1170.07,-39.71 1160.01,-19.63"/>
<polygon fill="midnightblue" stroke="midnightblue" points="1166.88,-313.55 1166.55,-324.14 1173.41,-316.07 1166.88,-313.55"/>
</g>
<!-- Node23&#45;&gt;Node24 -->
<g id="edge34" class="edge">
<title>Node23&#45;&gt;Node24</title>
<path fill="none" stroke="midnightblue" d="M1203.65,-320.41C1228.39,-310.03 1259,-297.2 1281.93,-287.58"/>
<polygon fill="midnightblue" stroke="midnightblue" points="1202,-317.3 1194.13,-324.4 1204.71,-323.76 1202,-317.3"/>
</g>
<!-- Node23&#45;&gt;Node26 -->
<g id="edge38" class="edge">
<title>Node23&#45;&gt;Node26</title>
<path fill="none" stroke="midnightblue" d="M1143.2,-316.45C1135.71,-306.9 1127.16,-296 1120.54,-287.58"/>
<polygon fill="midnightblue" stroke="midnightblue" points="1140.51,-318.69 1149.43,-324.4 1146.01,-314.37 1140.51,-318.69"/>
</g>
<!-- Node24&#45;&gt;Node5 -->
<g id="edge37" class="edge">
<title>Node24&#45;&gt;Node5</title>
<path fill="none" stroke="midnightblue" d="M1303.29,-248.43C1298.85,-239.87 1293.85,-230.04 1289.5,-221 1268.79,-177.98 1281.56,-154.3 1245.5,-123 1212.66,-94.5 1164.62,-82.05 1127.17,-76.62"/>
<polygon fill="midnightblue" stroke="midnightblue" points="1300.28,-250.21 1308.01,-257.45 1306.48,-246.97 1300.28,-250.21"/>
</g>
<!-- Node24&#45;&gt;Node25 -->
<g id="edge35" class="edge">
<title>Node24&#45;&gt;Node25</title>
<path fill="none" stroke="midnightblue" d="M1328.9,-248.58C1334.36,-239.24 1340.49,-228.75 1345.27,-220.58"/>
<polygon fill="midnightblue" stroke="midnightblue" points="1325.77,-247 1323.75,-257.4 1331.81,-250.53 1325.77,-247"/>
</g>
<!-- Node25&#45;&gt;Node6 -->
<g id="edge36" class="edge">
<title>Node25&#45;&gt;Node6</title>
<path fill="none" stroke="midnightblue" d="M1335.84,-182.3C1322.14,-165.48 1302.36,-142.1 1283.5,-123 1251.87,-90.95 1241.41,-85.62 1207.5,-56 1192.93,-43.28 1175.98,-28.64 1165.49,-19.6"/>
<polygon fill="midnightblue" stroke="midnightblue" points="1333.41,-184.85 1342.41,-190.43 1338.85,-180.45 1333.41,-184.85"/>
</g>
<!-- Node26&#45;&gt;Node5 -->
<g id="edge43" class="edge">
<title>Node26&#45;&gt;Node5</title>
<path fill="none" stroke="midnightblue" d="M1106.84,-247.04C1104.92,-230.8 1102.05,-209.05 1098.5,-190 1090.86,-148.97 1078.18,-100.73 1072.91,-81.28"/>
<polygon fill="midnightblue" stroke="midnightblue" points="1103.4,-247.76 1108.02,-257.3 1110.36,-246.96 1103.4,-247.76"/>
</g>
<!-- Node26&#45;&gt;Node6 -->
<g id="edge42" class="edge">
<title>Node26&#45;&gt;Node6</title>
<path fill="none" stroke="midnightblue" d="M1113.75,-247.46C1123.6,-191.62 1147.69,-55.24 1153.98,-19.63"/>
<polygon fill="midnightblue" stroke="midnightblue" points="1110.27,-247.04 1111.97,-257.49 1117.16,-248.26 1110.27,-247.04"/>
</g>
<!-- Node26&#45;&gt;Node27 -->
<g id="edge39" class="edge">
<title>Node26&#45;&gt;Node27</title>
<path fill="none" stroke="midnightblue" d="M1083.96,-251.01C1068.93,-238.94 1050.69,-224.3 1039.33,-215.19"/>
<polygon fill="midnightblue" stroke="midnightblue" points="1081.93,-253.87 1091.92,-257.4 1086.32,-248.41 1081.93,-253.87"/>
</g>
<!-- Node27&#45;&gt;Node5 -->
<g id="edge41" class="edge">
<title>Node27&#45;&gt;Node5</title>
<path fill="none" stroke="midnightblue" d="M1034.34,-186.16C1043.54,-157.23 1061.07,-102.13 1067.79,-81.02"/>
<polygon fill="midnightblue" stroke="midnightblue" points="1030.95,-185.25 1031.26,-195.84 1037.62,-187.37 1030.95,-185.25"/>
</g>
<!-- Node27&#45;&gt;Node16 -->
<g id="edge40" class="edge">
<title>Node27&#45;&gt;Node16</title>
<path fill="none" stroke="midnightblue" d="M957.02,-194.7C862.94,-181.8 699.36,-159.37 612.53,-147.46"/>
<polygon fill="midnightblue" stroke="midnightblue" points="956.64,-198.18 967.02,-196.07 957.59,-191.24 956.64,-198.18"/>
</g>
<!-- Node29&#45;&gt;Node17 -->
<g id="edge55" class="edge">
<title>Node29&#45;&gt;Node17</title>
<path fill="none" stroke="midnightblue" d="M847.37,-321.77C837.43,-309.1 824.17,-292.2 816.27,-282.13"/>
<polygon fill="midnightblue" stroke="midnightblue" points="844.7,-324.03 853.62,-329.73 850.2,-319.71 844.7,-324.03"/>
</g>
</g>
</svg>
