<?xml version="1.0" encoding="UTF-8" standalone="no"?>
<!DOCTYPE svg PUBLIC "-//W3C//DTD SVG 1.1//EN"
 "http://www.w3.org/Graphics/SVG/1.1/DTD/svg11.dtd">
<!-- Generated by graphviz version 2.44.0 ()
 -->
<!-- Title: include/cppgc/visitor.h Pages: 1 -->
<svg width="1046pt" height="330pt"
 viewBox="0.00 0.00 1045.50 330.00" xmlns="http://www.w3.org/2000/svg" xmlns:xlink="http://www.w3.org/1999/xlink">
<g id="graph0" class="graph" transform="scale(1 1) rotate(0) translate(4 326)">
<title>include/cppgc/visitor.h</title>
<polygon fill="white" stroke="transparent" points="-4,4 -4,-326 1041.5,-326 1041.5,4 -4,4"/>
<!-- Node1 -->
<g id="node1" class="node">
<title>Node1</title>
<g id="a_node1"><a xlink:title=" ">
<polygon fill="#bfbfbf" stroke="black" points="405.5,-302.5 405.5,-321.5 518.5,-321.5 518.5,-302.5 405.5,-302.5"/>
<text text-anchor="middle" x="462" y="-309.5" font-family="Helvetica,sans-Serif" font-size="10.00">include/cppgc/visitor.h</text>
</a>
</g>
</g>
<!-- Node2 -->
<g id="node2" class="node">
<title>Node2</title>
<g id="a_node2"><a xlink:href="garbage-collected_8h.html" target="_top" xlink:title=" ">
<polygon fill="white" stroke="black" points="133,-246.5 133,-265.5 263,-265.5 263,-246.5 133,-246.5"/>
<text text-anchor="middle" x="198" y="-253.5" font-family="Helvetica,sans-Serif" font-size="10.00">cppgc/garbage&#45;collected.h</text>
</a>
</g>
</g>
<!-- Node1&#45;&gt;Node2 -->
<g id="edge1" class="edge">
<title>Node1&#45;&gt;Node2</title>
<path fill="none" stroke="midnightblue" d="M420.17,-302.44C373.92,-292.98 299.39,-277.74 249.56,-267.55"/>
<polygon fill="midnightblue" stroke="midnightblue" points="250.13,-264.09 239.64,-265.52 248.73,-270.95 250.13,-264.09"/>
</g>
<!-- Node14 -->
<g id="node14" class="node">
<title>Node14</title>
<g id="a_node14"><a xlink:href="trace-trait_8h.html" target="_top" xlink:title=" ">
<polygon fill="white" stroke="black" points="36.5,-190.5 36.5,-209.5 131.5,-209.5 131.5,-190.5 36.5,-190.5"/>
<text text-anchor="middle" x="84" y="-197.5" font-family="Helvetica,sans-Serif" font-size="10.00">cppgc/trace&#45;trait.h</text>
</a>
</g>
</g>
<!-- Node1&#45;&gt;Node14 -->
<g id="edge52" class="edge">
<title>Node1&#45;&gt;Node14</title>
<path fill="none" stroke="midnightblue" d="M405.27,-309.26C321.38,-305.73 169.25,-295.37 124,-266 107.2,-255.1 96.3,-234.42 90.18,-219.3"/>
<polygon fill="midnightblue" stroke="midnightblue" points="93.46,-218.07 86.7,-209.91 86.9,-220.51 93.46,-218.07"/>
</g>
<!-- Node16 -->
<g id="node16" class="node">
<title>Node16</title>
<g id="a_node16"><a xlink:href="logging_8h.html" target="_top" xlink:title=" ">
<polygon fill="white" stroke="black" points="830.5,-129 830.5,-148 949.5,-148 949.5,-129 830.5,-129"/>
<text text-anchor="middle" x="890" y="-136" font-family="Helvetica,sans-Serif" font-size="10.00">cppgc/internal/logging.h</text>
</a>
</g>
</g>
<!-- Node1&#45;&gt;Node16 -->
<g id="edge22" class="edge">
<title>Node1&#45;&gt;Node16</title>
<path fill="none" stroke="midnightblue" d="M497.75,-302.47C529.91,-294.39 578.23,-281.25 619,-266 712.27,-231.11 817.89,-177.5 865.01,-152.8"/>
<polygon fill="midnightblue" stroke="midnightblue" points="866.67,-155.88 873.89,-148.12 863.41,-149.68 866.67,-155.88"/>
</g>
<!-- Node17 -->
<g id="node17" class="node">
<title>Node17</title>
<g id="a_node17"><a xlink:href="source-location_8h.html" target="_top" xlink:title=" ">
<polygon fill="white" stroke="black" points="918.5,-62 918.5,-81 1037.5,-81 1037.5,-62 918.5,-62"/>
<text text-anchor="middle" x="978" y="-69" font-family="Helvetica,sans-Serif" font-size="10.00">cppgc/source&#45;location.h</text>
</a>
</g>
</g>
<!-- Node1&#45;&gt;Node17 -->
<g id="edge51" class="edge">
<title>Node1&#45;&gt;Node17</title>
<path fill="none" stroke="midnightblue" d="M518.53,-310.9C622.58,-307.43 844.28,-284.18 959,-154 974.2,-136.75 977.87,-109.68 978.45,-91.53"/>
<polygon fill="midnightblue" stroke="midnightblue" points="981.95,-91.32 978.49,-81.31 974.95,-91.3 981.95,-91.32"/>
</g>
<!-- Node18 -->
<g id="node18" class="node">
<title>Node18</title>
<g id="a_node18"><a xlink:href="pointer-policies_8h.html" target="_top" xlink:title=" ">
<polygon fill="white" stroke="black" points="334,-123.5 334,-153.5 444,-153.5 444,-123.5 334,-123.5"/>
<text text-anchor="start" x="342" y="-141.5" font-family="Helvetica,sans-Serif" font-size="10.00">cppgc/internal/pointer</text>
<text text-anchor="middle" x="389" y="-130.5" font-family="Helvetica,sans-Serif" font-size="10.00">&#45;policies.h</text>
</a>
</g>
</g>
<!-- Node1&#45;&gt;Node18 -->
<g id="edge27" class="edge">
<title>Node1&#45;&gt;Node18</title>
<path fill="none" stroke="midnightblue" d="M458.28,-302.26C447.42,-276.76 415.52,-201.81 399.07,-163.15"/>
<polygon fill="midnightblue" stroke="midnightblue" points="402.19,-161.55 395.05,-153.72 395.75,-164.29 402.19,-161.55"/>
</g>
<!-- Node20 -->
<g id="node20" class="node">
<title>Node20</title>
<g id="a_node20"><a xlink:href="liveness-broker_8h.html" target="_top" xlink:title=" ">
<polygon fill="white" stroke="black" points="490.5,-246.5 490.5,-265.5 609.5,-265.5 609.5,-246.5 490.5,-246.5"/>
<text text-anchor="middle" x="550" y="-253.5" font-family="Helvetica,sans-Serif" font-size="10.00">cppgc/liveness&#45;broker.h</text>
</a>
</g>
</g>
<!-- Node1&#45;&gt;Node20 -->
<g id="edge32" class="edge">
<title>Node1&#45;&gt;Node20</title>
<path fill="none" stroke="midnightblue" d="M476.14,-302.32C489.87,-293.9 510.94,-280.97 527.06,-271.07"/>
<polygon fill="midnightblue" stroke="midnightblue" points="529.2,-273.87 535.9,-265.65 525.54,-267.9 529.2,-273.87"/>
</g>
<!-- Node25 -->
<g id="node25" class="node">
<title>Node25</title>
<g id="a_node25"><a xlink:href="member_8h.html" target="_top" xlink:title=" ">
<polygon fill="white" stroke="black" points="429.5,-190.5 429.5,-209.5 518.5,-209.5 518.5,-190.5 429.5,-190.5"/>
<text text-anchor="middle" x="474" y="-197.5" font-family="Helvetica,sans-Serif" font-size="10.00">cppgc/member.h</text>
</a>
</g>
</g>
<!-- Node1&#45;&gt;Node25 -->
<g id="edge50" class="edge">
<title>Node1&#45;&gt;Node25</title>
<path fill="none" stroke="midnightblue" d="M462.94,-302.37C464.88,-284.62 469.35,-243.67 471.97,-219.6"/>
<polygon fill="midnightblue" stroke="midnightblue" points="475.46,-219.91 473.06,-209.59 468.5,-219.15 475.46,-219.91"/>
</g>
<!-- Node3 -->
<g id="node3" class="node">
<title>Node3</title>
<g id="a_node3"><a xlink:title=" ">
<polygon fill="white" stroke="#bfbfbf" points="0,-62 0,-81 62,-81 62,-62 0,-62"/>
<text text-anchor="middle" x="31" y="-69" font-family="Helvetica,sans-Serif" font-size="10.00">type_traits</text>
</a>
</g>
</g>
<!-- Node2&#45;&gt;Node3 -->
<g id="edge2" class="edge">
<title>Node2&#45;&gt;Node3</title>
<path fill="none" stroke="midnightblue" d="M139.72,-246.49C96.41,-238.96 42.3,-226.58 27,-210 -3,-177.48 12.51,-120.03 23.38,-90.75"/>
<polygon fill="midnightblue" stroke="midnightblue" points="26.68,-91.93 27.08,-81.34 20.16,-89.36 26.68,-91.93"/>
</g>
<!-- Node4 -->
<g id="node4" class="node">
<title>Node4</title>
<g id="a_node4"><a xlink:href="api-constants_8h.html" target="_top" xlink:title=" ">
<polygon fill="white" stroke="black" points="79.5,-56.5 79.5,-86.5 172.5,-86.5 172.5,-56.5 79.5,-56.5"/>
<text text-anchor="start" x="87.5" y="-74.5" font-family="Helvetica,sans-Serif" font-size="10.00">cppgc/internal/api</text>
<text text-anchor="middle" x="126" y="-63.5" font-family="Helvetica,sans-Serif" font-size="10.00">&#45;constants.h</text>
</a>
</g>
</g>
<!-- Node2&#45;&gt;Node4 -->
<g id="edge3" class="edge">
<title>Node2&#45;&gt;Node4</title>
<path fill="none" stroke="midnightblue" d="M194.53,-246.2C183.88,-219.22 151.47,-137.05 135.33,-96.15"/>
<polygon fill="midnightblue" stroke="midnightblue" points="138.53,-94.71 131.6,-86.69 132.01,-97.28 138.53,-94.71"/>
</g>
<!-- Node8 -->
<g id="node8" class="node">
<title>Node8</title>
<g id="a_node8"><a xlink:href="macros_8h.html" target="_top" xlink:title=" ">
<polygon fill="white" stroke="black" points="226,-190.5 226,-209.5 312,-209.5 312,-190.5 226,-190.5"/>
<text text-anchor="middle" x="269" y="-197.5" font-family="Helvetica,sans-Serif" font-size="10.00">cppgc/macros.h</text>
</a>
</g>
</g>
<!-- Node2&#45;&gt;Node8 -->
<g id="edge7" class="edge">
<title>Node2&#45;&gt;Node8</title>
<path fill="none" stroke="midnightblue" d="M209.41,-246.32C220.11,-238.18 236.34,-225.84 249.16,-216.09"/>
<polygon fill="midnightblue" stroke="midnightblue" points="251.54,-218.67 257.39,-209.83 247.31,-213.1 251.54,-218.67"/>
</g>
<!-- Node9 -->
<g id="node9" class="node">
<title>Node9</title>
<g id="a_node9"><a xlink:href="platform_8h.html" target="_top" xlink:title=" ">
<polygon fill="white" stroke="black" points="226.5,-129 226.5,-148 315.5,-148 315.5,-129 226.5,-129"/>
<text text-anchor="middle" x="271" y="-136" font-family="Helvetica,sans-Serif" font-size="10.00">cppgc/platform.h</text>
</a>
</g>
</g>
<!-- Node2&#45;&gt;Node9 -->
<g id="edge8" class="edge">
<title>Node2&#45;&gt;Node9</title>
<path fill="none" stroke="midnightblue" d="M263.23,-246.47C285.27,-240.12 307.65,-229.1 321,-210 334.57,-190.59 312.4,-168.32 293.41,-154.09"/>
<polygon fill="midnightblue" stroke="midnightblue" points="295.22,-151.09 285.04,-148.16 291.17,-156.8 295.22,-151.09"/>
</g>
<!-- Node2&#45;&gt;Node14 -->
<g id="edge17" class="edge">
<title>Node2&#45;&gt;Node14</title>
<path fill="none" stroke="midnightblue" d="M179.94,-246.44C161.43,-237.68 132.42,-223.94 111.14,-213.86"/>
<polygon fill="midnightblue" stroke="midnightblue" points="112.51,-210.63 101.98,-209.52 109.52,-216.96 112.51,-210.63"/>
</g>
<!-- Node15 -->
<g id="node15" class="node">
<title>Node15</title>
<g id="a_node15"><a xlink:href="type-traits_8h.html" target="_top" xlink:title=" ">
<polygon fill="white" stroke="black" points="36,-129 36,-148 132,-148 132,-129 36,-129"/>
<text text-anchor="middle" x="84" y="-136" font-family="Helvetica,sans-Serif" font-size="10.00">cppgc/type&#45;traits.h</text>
</a>
</g>
</g>
<!-- Node2&#45;&gt;Node15 -->
<g id="edge21" class="edge">
<title>Node2&#45;&gt;Node15</title>
<path fill="none" stroke="midnightblue" d="M190.78,-246.32C180.07,-233.59 159.2,-209.3 140,-190 127.79,-177.72 113.24,-164.65 102.04,-154.88"/>
<polygon fill="midnightblue" stroke="midnightblue" points="104.07,-152.01 94.21,-148.12 99.49,-157.31 104.07,-152.01"/>
</g>
<!-- Node5 -->
<g id="node5" class="node">
<title>Node5</title>
<g id="a_node5"><a xlink:title=" ">
<polygon fill="white" stroke="#bfbfbf" points="251.5,-0.5 251.5,-19.5 302.5,-19.5 302.5,-0.5 251.5,-0.5"/>
<text text-anchor="middle" x="277" y="-7.5" font-family="Helvetica,sans-Serif" font-size="10.00">stddef.h</text>
</a>
</g>
</g>
<!-- Node4&#45;&gt;Node5 -->
<g id="edge4" class="edge">
<title>Node4&#45;&gt;Node5</title>
<path fill="none" stroke="midnightblue" d="M161.78,-56.4C187.23,-46.37 221.1,-33.03 245.52,-23.4"/>
<polygon fill="midnightblue" stroke="midnightblue" points="247.01,-26.58 255.03,-19.66 244.44,-20.07 247.01,-26.58"/>
</g>
<!-- Node6 -->
<g id="node6" class="node">
<title>Node6</title>
<g id="a_node6"><a xlink:title=" ">
<polygon fill="white" stroke="#bfbfbf" points="111,-0.5 111,-19.5 159,-19.5 159,-0.5 111,-0.5"/>
<text text-anchor="middle" x="135" y="-7.5" font-family="Helvetica,sans-Serif" font-size="10.00">stdint.h</text>
</a>
</g>
</g>
<!-- Node4&#45;&gt;Node6 -->
<g id="edge5" class="edge">
<title>Node4&#45;&gt;Node6</title>
<path fill="none" stroke="midnightblue" d="M128.13,-56.4C129.35,-48.38 130.88,-38.23 132.19,-29.57"/>
<polygon fill="midnightblue" stroke="midnightblue" points="135.66,-30.07 133.69,-19.66 128.73,-29.02 135.66,-30.07"/>
</g>
<!-- Node7 -->
<g id="node7" class="node">
<title>Node7</title>
<g id="a_node7"><a xlink:href="v8config_8h.html" target="_top" xlink:title=" ">
<polygon fill="white" stroke="black" points="593,-0.5 593,-19.5 653,-19.5 653,-0.5 593,-0.5"/>
<text text-anchor="middle" x="623" y="-7.5" font-family="Helvetica,sans-Serif" font-size="10.00">v8config.h</text>
</a>
</g>
</g>
<!-- Node4&#45;&gt;Node7 -->
<g id="edge6" class="edge">
<title>Node4&#45;&gt;Node7</title>
<path fill="none" stroke="midnightblue" d="M172.7,-57.66C175.5,-57.05 178.28,-56.49 181,-56 327.42,-29.42 504.18,-17.34 582.39,-13.01"/>
<polygon fill="midnightblue" stroke="midnightblue" points="582.96,-16.48 592.76,-12.45 582.59,-9.49 582.96,-16.48"/>
</g>
<!-- Node9&#45;&gt;Node7 -->
<g id="edge16" class="edge">
<title>Node9&#45;&gt;Node7</title>
<path fill="none" stroke="midnightblue" d="M272.5,-128.9C275.95,-111.9 286.15,-74.08 311,-56 332.65,-40.25 503.55,-22.28 582.84,-14.69"/>
<polygon fill="midnightblue" stroke="midnightblue" points="583.32,-18.16 592.95,-13.73 582.66,-11.19 583.32,-18.16"/>
</g>
<!-- Node10 -->
<g id="node10" class="node">
<title>Node10</title>
<g id="a_node10"><a xlink:href="v8-platform_8h.html" target="_top" xlink:title=" ">
<polygon fill="white" stroke="black" points="190.5,-62 190.5,-81 263.5,-81 263.5,-62 190.5,-62"/>
<text text-anchor="middle" x="227" y="-69" font-family="Helvetica,sans-Serif" font-size="10.00">v8&#45;platform.h</text>
</a>
</g>
</g>
<!-- Node9&#45;&gt;Node10 -->
<g id="edge9" class="edge">
<title>Node9&#45;&gt;Node10</title>
<path fill="none" stroke="midnightblue" d="M265.07,-128.73C258.27,-118.7 246.98,-102.01 238.45,-89.42"/>
<polygon fill="midnightblue" stroke="midnightblue" points="241.34,-87.45 232.84,-81.13 235.55,-91.37 241.34,-87.45"/>
</g>
<!-- Node10&#45;&gt;Node5 -->
<g id="edge10" class="edge">
<title>Node10&#45;&gt;Node5</title>
<path fill="none" stroke="midnightblue" d="M234.16,-61.98C241.74,-52.96 253.87,-38.52 263.29,-27.31"/>
<polygon fill="midnightblue" stroke="midnightblue" points="266.1,-29.42 269.85,-19.51 260.74,-24.91 266.1,-29.42"/>
</g>
<!-- Node10&#45;&gt;Node6 -->
<g id="edge11" class="edge">
<title>Node10&#45;&gt;Node6</title>
<path fill="none" stroke="midnightblue" d="M213.82,-61.98C198.93,-52.34 174.46,-36.52 156.73,-25.05"/>
<polygon fill="midnightblue" stroke="midnightblue" points="158.45,-22 148.16,-19.51 154.65,-27.88 158.45,-22"/>
</g>
<!-- Node10&#45;&gt;Node7 -->
<g id="edge15" class="edge">
<title>Node10&#45;&gt;Node7</title>
<path fill="none" stroke="midnightblue" d="M254.34,-61.92C261.95,-59.76 270.25,-57.6 278,-56 387,-33.52 517.8,-20.09 582.57,-14.33"/>
<polygon fill="midnightblue" stroke="midnightblue" points="583.1,-17.79 592.76,-13.44 582.49,-10.82 583.1,-17.79"/>
</g>
<!-- Node11 -->
<g id="node11" class="node">
<title>Node11</title>
<g id="a_node11"><a xlink:title=" ">
<polygon fill="white" stroke="#bfbfbf" points="186.5,-0.5 186.5,-19.5 233.5,-19.5 233.5,-0.5 186.5,-0.5"/>
<text text-anchor="middle" x="210" y="-7.5" font-family="Helvetica,sans-Serif" font-size="10.00">stdlib.h</text>
</a>
</g>
</g>
<!-- Node10&#45;&gt;Node11 -->
<g id="edge12" class="edge">
<title>Node10&#45;&gt;Node11</title>
<path fill="none" stroke="midnightblue" d="M224.56,-61.98C222.14,-53.49 218.34,-40.2 215.23,-29.32"/>
<polygon fill="midnightblue" stroke="midnightblue" points="218.54,-28.16 212.43,-19.51 211.81,-30.09 218.54,-28.16"/>
</g>
<!-- Node12 -->
<g id="node12" class="node">
<title>Node12</title>
<g id="a_node12"><a xlink:title=" ">
<polygon fill="white" stroke="#bfbfbf" points="411.5,-0.5 411.5,-19.5 462.5,-19.5 462.5,-0.5 411.5,-0.5"/>
<text text-anchor="middle" x="437" y="-7.5" font-family="Helvetica,sans-Serif" font-size="10.00">memory</text>
</a>
</g>
</g>
<!-- Node10&#45;&gt;Node12 -->
<g id="edge13" class="edge">
<title>Node10&#45;&gt;Node12</title>
<path fill="none" stroke="midnightblue" d="M256.93,-61.98C263.85,-60.02 271.18,-57.93 278,-56 320.46,-43.96 369.31,-30.13 401.54,-21.02"/>
<polygon fill="midnightblue" stroke="midnightblue" points="402.72,-24.33 411.39,-18.24 400.81,-17.59 402.72,-24.33"/>
</g>
<!-- Node13 -->
<g id="node13" class="node">
<title>Node13</title>
<g id="a_node13"><a xlink:title=" ">
<polygon fill="white" stroke="#bfbfbf" points="823.5,-0.5 823.5,-19.5 864.5,-19.5 864.5,-0.5 823.5,-0.5"/>
<text text-anchor="middle" x="844" y="-7.5" font-family="Helvetica,sans-Serif" font-size="10.00">string</text>
</a>
</g>
</g>
<!-- Node10&#45;&gt;Node13 -->
<g id="edge14" class="edge">
<title>Node10&#45;&gt;Node13</title>
<path fill="none" stroke="midnightblue" d="M263.7,-63.46C278.36,-60.82 295.44,-58 311,-56 501.19,-31.6 731.32,-17.29 813.23,-12.66"/>
<polygon fill="midnightblue" stroke="midnightblue" points="813.56,-16.15 823.35,-12.1 813.17,-9.16 813.56,-16.15"/>
</g>
<!-- Node14&#45;&gt;Node3 -->
<g id="edge18" class="edge">
<title>Node14&#45;&gt;Node3</title>
<path fill="none" stroke="midnightblue" d="M65.92,-190.39C52.44,-182.87 35.03,-170.57 27,-154 17.37,-134.13 20.95,-108.25 25.22,-91.04"/>
<polygon fill="midnightblue" stroke="midnightblue" points="28.67,-91.7 28,-81.13 21.93,-89.81 28.67,-91.7"/>
</g>
<!-- Node14&#45;&gt;Node15 -->
<g id="edge19" class="edge">
<title>Node14&#45;&gt;Node15</title>
<path fill="none" stroke="midnightblue" d="M84,-190.48C84,-182.08 84,-168.98 84,-158.16"/>
<polygon fill="midnightblue" stroke="midnightblue" points="87.5,-158.01 84,-148.01 80.5,-158.01 87.5,-158.01"/>
</g>
<!-- Node15&#45;&gt;Node3 -->
<g id="edge20" class="edge">
<title>Node15&#45;&gt;Node3</title>
<path fill="none" stroke="midnightblue" d="M76.85,-128.73C68.59,-118.6 54.8,-101.69 44.5,-89.06"/>
<polygon fill="midnightblue" stroke="midnightblue" points="47.07,-86.67 38.03,-81.13 41.64,-91.09 47.07,-86.67"/>
</g>
<!-- Node16&#45;&gt;Node7 -->
<g id="edge26" class="edge">
<title>Node16&#45;&gt;Node7</title>
<path fill="none" stroke="midnightblue" d="M890.79,-128.89C891.8,-112.22 891.42,-75.43 871,-56 841.78,-28.2 726.06,-17.1 663.55,-13.07"/>
<polygon fill="midnightblue" stroke="midnightblue" points="663.46,-9.56 653.27,-12.44 663.03,-16.54 663.46,-9.56"/>
</g>
<!-- Node16&#45;&gt;Node17 -->
<g id="edge23" class="edge">
<title>Node16&#45;&gt;Node17</title>
<path fill="none" stroke="midnightblue" d="M901.87,-128.73C916.25,-118.11 940.7,-100.05 958.01,-87.26"/>
<polygon fill="midnightblue" stroke="midnightblue" points="960.36,-89.88 966.32,-81.13 956.2,-84.25 960.36,-89.88"/>
</g>
<!-- Node17&#45;&gt;Node7 -->
<g id="edge25" class="edge">
<title>Node17&#45;&gt;Node7</title>
<path fill="none" stroke="midnightblue" d="M935.78,-61.97C925.4,-59.94 914.31,-57.84 904,-56 818.32,-40.75 717.51,-25.18 662.96,-16.95"/>
<polygon fill="midnightblue" stroke="midnightblue" points="663.41,-13.48 653,-15.45 662.37,-20.4 663.41,-13.48"/>
</g>
<!-- Node17&#45;&gt;Node13 -->
<g id="edge24" class="edge">
<title>Node17&#45;&gt;Node13</title>
<path fill="none" stroke="midnightblue" d="M958.8,-61.98C936.21,-51.95 898.5,-35.2 872.5,-23.65"/>
<polygon fill="midnightblue" stroke="midnightblue" points="873.72,-20.37 863.16,-19.51 870.88,-26.77 873.72,-20.37"/>
</g>
<!-- Node18&#45;&gt;Node3 -->
<g id="edge29" class="edge">
<title>Node18&#45;&gt;Node3</title>
<path fill="none" stroke="midnightblue" d="M333.74,-124.86C330.45,-124.21 327.19,-123.58 324,-123 211.83,-102.57 180.52,-115.03 70,-87 67.02,-86.24 63.94,-85.34 60.9,-84.35"/>
<polygon fill="midnightblue" stroke="midnightblue" points="61.98,-81.02 51.38,-81.02 59.66,-87.63 61.98,-81.02"/>
</g>
<!-- Node18&#45;&gt;Node7 -->
<g id="edge31" class="edge">
<title>Node18&#45;&gt;Node7</title>
<path fill="none" stroke="midnightblue" d="M427.42,-123.48C451.4,-114.21 482.62,-101.18 509,-87 543.8,-68.29 581.44,-41.86 603.58,-25.61"/>
<polygon fill="midnightblue" stroke="midnightblue" points="605.85,-28.28 611.8,-19.52 601.68,-22.66 605.85,-28.28"/>
</g>
<!-- Node18&#45;&gt;Node17 -->
<g id="edge30" class="edge">
<title>Node18&#45;&gt;Node17</title>
<path fill="none" stroke="midnightblue" d="M444.07,-124.52C447.08,-123.97 450.07,-123.46 453,-123 637.25,-94.33 685.67,-107.53 871,-87 883.28,-85.64 896.32,-84.02 908.93,-82.36"/>
<polygon fill="midnightblue" stroke="midnightblue" points="909.47,-85.82 918.92,-81.03 908.54,-78.88 909.47,-85.82"/>
</g>
<!-- Node19 -->
<g id="node19" class="node">
<title>Node19</title>
<g id="a_node19"><a xlink:title=" ">
<polygon fill="white" stroke="#bfbfbf" points="320,-62 320,-81 366,-81 366,-62 320,-62"/>
<text text-anchor="middle" x="343" y="-69" font-family="Helvetica,sans-Serif" font-size="10.00">cstdint</text>
</a>
</g>
</g>
<!-- Node18&#45;&gt;Node19 -->
<g id="edge28" class="edge">
<title>Node18&#45;&gt;Node19</title>
<path fill="none" stroke="midnightblue" d="M379.02,-123.4C371.99,-113.46 362.54,-100.11 355.08,-89.57"/>
<polygon fill="midnightblue" stroke="midnightblue" points="357.79,-87.34 349.15,-81.19 352.07,-91.38 357.79,-87.34"/>
</g>
<!-- Node20&#45;&gt;Node7 -->
<g id="edge49" class="edge">
<title>Node20&#45;&gt;Node7</title>
<path fill="none" stroke="midnightblue" d="M556.18,-246.48C572.88,-222.73 618.33,-153.18 628,-87 630.83,-67.63 628.71,-45.24 626.43,-29.81"/>
<polygon fill="midnightblue" stroke="midnightblue" points="629.88,-29.24 624.8,-19.94 622.97,-30.38 629.88,-29.24"/>
</g>
<!-- Node20&#45;&gt;Node14 -->
<g id="edge48" class="edge">
<title>Node20&#45;&gt;Node14</title>
<path fill="none" stroke="midnightblue" d="M490.03,-248.05C399.94,-237.61 230.79,-218.01 141.92,-207.71"/>
<polygon fill="midnightblue" stroke="midnightblue" points="142.08,-204.21 131.75,-206.53 141.28,-211.16 142.08,-204.21"/>
</g>
<!-- Node21 -->
<g id="node21" class="node">
<title>Node21</title>
<g id="a_node21"><a xlink:href="heap_8h.html" target="_top" xlink:title=" ">
<polygon fill="white" stroke="black" points="670,-129 670,-148 744,-148 744,-129 670,-129"/>
<text text-anchor="middle" x="707" y="-136" font-family="Helvetica,sans-Serif" font-size="10.00">cppgc/heap.h</text>
</a>
</g>
</g>
<!-- Node20&#45;&gt;Node21 -->
<g id="edge33" class="edge">
<title>Node20&#45;&gt;Node21</title>
<path fill="none" stroke="midnightblue" d="M582.09,-246.4C604.46,-239.27 634.11,-227.45 656,-210 674.22,-195.48 688.99,-172.87 697.86,-157.18"/>
<polygon fill="midnightblue" stroke="midnightblue" points="701.14,-158.49 702.82,-148.03 694.98,-155.16 701.14,-158.49"/>
</g>
<!-- Node20&#45;&gt;Node25 -->
<g id="edge41" class="edge">
<title>Node20&#45;&gt;Node25</title>
<path fill="none" stroke="midnightblue" d="M537.79,-246.32C526.22,-238.11 508.62,-225.6 494.84,-215.81"/>
<polygon fill="midnightblue" stroke="midnightblue" points="496.61,-212.77 486.43,-209.83 492.56,-218.48 496.61,-212.77"/>
</g>
<!-- Node21&#45;&gt;Node7 -->
<g id="edge40" class="edge">
<title>Node21&#45;&gt;Node7</title>
<path fill="none" stroke="midnightblue" d="M701.84,-128.8C692.86,-113.75 673.61,-81.97 656,-56 649.61,-46.58 642.13,-36.33 635.92,-27.99"/>
<polygon fill="midnightblue" stroke="midnightblue" points="638.58,-25.71 629.77,-19.83 632.99,-29.92 638.58,-25.71"/>
</g>
<!-- Node21&#45;&gt;Node12 -->
<g id="edge34" class="edge">
<title>Node21&#45;&gt;Node12</title>
<path fill="none" stroke="midnightblue" d="M688.44,-128.81C641.8,-106.95 519.48,-49.64 464.48,-23.87"/>
<polygon fill="midnightblue" stroke="midnightblue" points="465.87,-20.66 455.33,-19.59 462.9,-27 465.87,-20.66"/>
</g>
<!-- Node22 -->
<g id="node22" class="node">
<title>Node22</title>
<g id="a_node22"><a xlink:title=" ">
<polygon fill="white" stroke="#bfbfbf" points="818,-62 818,-81 862,-81 862,-62 818,-62"/>
<text text-anchor="middle" x="840" y="-69" font-family="Helvetica,sans-Serif" font-size="10.00">vector</text>
</a>
</g>
</g>
<!-- Node21&#45;&gt;Node22 -->
<g id="edge35" class="edge">
<title>Node21&#45;&gt;Node22</title>
<path fill="none" stroke="midnightblue" d="M724.66,-128.87C747.32,-117.8 786.83,-98.49 813.2,-85.6"/>
<polygon fill="midnightblue" stroke="midnightblue" points="814.82,-88.7 822.27,-81.17 811.74,-82.41 814.82,-88.7"/>
</g>
<!-- Node23 -->
<g id="node23" class="node">
<title>Node23</title>
<g id="a_node23"><a xlink:href="common_8h.html" target="_top" xlink:title=" ">
<polygon fill="white" stroke="black" points="708.5,-62 708.5,-81 799.5,-81 799.5,-62 708.5,-62"/>
<text text-anchor="middle" x="754" y="-69" font-family="Helvetica,sans-Serif" font-size="10.00">cppgc/common.h</text>
</a>
</g>
</g>
<!-- Node21&#45;&gt;Node23 -->
<g id="edge36" class="edge">
<title>Node21&#45;&gt;Node23</title>
<path fill="none" stroke="midnightblue" d="M713.34,-128.73C720.6,-118.7 732.66,-102.01 741.76,-89.42"/>
<polygon fill="midnightblue" stroke="midnightblue" points="744.74,-91.28 747.76,-81.13 739.07,-87.18 744.74,-91.28"/>
</g>
<!-- Node24 -->
<g id="node24" class="node">
<title>Node24</title>
<g id="a_node24"><a xlink:href="custom-space_8h.html" target="_top" xlink:title=" ">
<polygon fill="white" stroke="black" points="384.5,-62 384.5,-81 499.5,-81 499.5,-62 384.5,-62"/>
<text text-anchor="middle" x="442" y="-69" font-family="Helvetica,sans-Serif" font-size="10.00">cppgc/custom&#45;space.h</text>
</a>
</g>
</g>
<!-- Node21&#45;&gt;Node24 -->
<g id="edge38" class="edge">
<title>Node21&#45;&gt;Node24</title>
<path fill="none" stroke="midnightblue" d="M672.08,-128.94C624.52,-117.27 539.3,-96.37 487,-83.54"/>
<polygon fill="midnightblue" stroke="midnightblue" points="487.54,-80.07 476.99,-81.08 485.87,-86.86 487.54,-80.07"/>
</g>
<!-- Node23&#45;&gt;Node7 -->
<g id="edge37" class="edge">
<title>Node23&#45;&gt;Node7</title>
<path fill="none" stroke="midnightblue" d="M735.23,-61.98C713.15,-51.95 676.28,-35.2 650.86,-23.65"/>
<polygon fill="midnightblue" stroke="midnightblue" points="652.29,-20.46 641.73,-19.51 649.39,-26.83 652.29,-20.46"/>
</g>
<!-- Node24&#45;&gt;Node5 -->
<g id="edge39" class="edge">
<title>Node24&#45;&gt;Node5</title>
<path fill="none" stroke="midnightblue" d="M418.36,-61.98C390.06,-51.77 342.47,-34.61 310.41,-23.05"/>
<polygon fill="midnightblue" stroke="midnightblue" points="311.19,-19.61 300.6,-19.51 308.82,-26.19 311.19,-19.61"/>
</g>
<!-- Node25&#45;&gt;Node3 -->
<g id="edge44" class="edge">
<title>Node25&#45;&gt;Node3</title>
<path fill="none" stroke="midnightblue" d="M429.14,-194.45C377.24,-188.42 289.64,-175.93 217,-154 201.01,-149.17 106.83,-106.86 58.93,-85.18"/>
<polygon fill="midnightblue" stroke="midnightblue" points="60.29,-81.95 49.74,-81.01 57.4,-88.33 60.29,-81.95"/>
</g>
<!-- Node25&#45;&gt;Node7 -->
<g id="edge47" class="edge">
<title>Node25&#45;&gt;Node7</title>
<path fill="none" stroke="midnightblue" d="M518.78,-190.79C541.58,-184.41 568.01,-173.26 585,-154 616.35,-118.45 622.25,-59.86 623.1,-29.91"/>
<polygon fill="midnightblue" stroke="midnightblue" points="626.6,-29.66 623.22,-19.62 619.6,-29.58 626.6,-29.66"/>
</g>
<!-- Node25&#45;&gt;Node15 -->
<g id="edge46" class="edge">
<title>Node25&#45;&gt;Node15</title>
<path fill="none" stroke="midnightblue" d="M429.49,-194.23C366.21,-187.14 246.74,-172.65 146,-154 140.15,-152.92 134.02,-151.65 127.99,-150.32"/>
<polygon fill="midnightblue" stroke="midnightblue" points="128.52,-146.85 117.99,-148.05 126.97,-153.68 128.52,-146.85"/>
</g>
<!-- Node25&#45;&gt;Node18 -->
<g id="edge45" class="edge">
<title>Node25&#45;&gt;Node18</title>
<path fill="none" stroke="midnightblue" d="M461.82,-190.48C450.31,-182.42 432.6,-170.02 417.53,-159.47"/>
<polygon fill="midnightblue" stroke="midnightblue" points="419.23,-156.39 409.03,-153.52 415.22,-162.12 419.23,-156.39"/>
</g>
<!-- Node26 -->
<g id="node26" class="node">
<title>Node26</title>
<g id="a_node26"><a xlink:title=" ">
<polygon fill="white" stroke="#bfbfbf" points="462,-129 462,-148 508,-148 508,-129 462,-129"/>
<text text-anchor="middle" x="485" y="-136" font-family="Helvetica,sans-Serif" font-size="10.00">atomic</text>
</a>
</g>
</g>
<!-- Node25&#45;&gt;Node26 -->
<g id="edge42" class="edge">
<title>Node25&#45;&gt;Node26</title>
<path fill="none" stroke="midnightblue" d="M475.58,-190.48C477.13,-182.08 479.55,-168.98 481.55,-158.16"/>
<polygon fill="midnightblue" stroke="midnightblue" points="485.05,-158.48 483.43,-148.01 478.17,-157.21 485.05,-158.48"/>
</g>
<!-- Node27 -->
<g id="node27" class="node">
<title>Node27</title>
<g id="a_node27"><a xlink:title=" ">
<polygon fill="white" stroke="#bfbfbf" points="526.5,-129 526.5,-148 575.5,-148 575.5,-129 526.5,-129"/>
<text text-anchor="middle" x="551" y="-136" font-family="Helvetica,sans-Serif" font-size="10.00">cstddef</text>
</a>
</g>
</g>
<!-- Node25&#45;&gt;Node27 -->
<g id="edge43" class="edge">
<title>Node25&#45;&gt;Node27</title>
<path fill="none" stroke="midnightblue" d="M485.03,-190.48C497.27,-181.02 517.23,-165.6 531.99,-154.19"/>
<polygon fill="midnightblue" stroke="midnightblue" points="534.22,-156.89 539.99,-148.01 529.94,-151.35 534.22,-156.89"/>
</g>
</g>
</svg>
