<?xml version="1.0" encoding="UTF-8" standalone="no"?>
<!DOCTYPE svg PUBLIC "-//W3C//DTD SVG 1.1//EN"
 "http://www.w3.org/Graphics/SVG/1.1/DTD/svg11.dtd">
<!-- Generated by graphviz version 2.44.0 ()
 -->
<!-- Title: v8::Object Pages: 1 -->
<svg width="662pt" height="503pt"
 viewBox="0.00 0.00 662.00 503.00" xmlns="http://www.w3.org/2000/svg" xmlns:xlink="http://www.w3.org/1999/xlink">
<g id="graph0" class="graph" transform="scale(1 1) rotate(0) translate(4 499)">
<title>v8::Object</title>
<polygon fill="white" stroke="transparent" points="-4,4 -4,-499 658,-499 658,4 -4,4"/>
<!-- Node1 -->
<g id="node1" class="node">
<title>Node1</title>
<g id="a_node1"><a xlink:title=" ">
<polygon fill="#bfbfbf" stroke="black" points="180,-209.5 180,-228.5 240,-228.5 240,-209.5 180,-209.5"/>
<text text-anchor="middle" x="210" y="-216.5" font-family="Helvetica,sans-Serif" font-size="10.00">v8::Object</text>
</a>
</g>
</g>
<!-- Node4 -->
<g id="node4" class="node">
<title>Node4</title>
<g id="a_node4"><a xlink:href="classv8_1_1Array.html" target="_top" xlink:title=" ">
<polygon fill="white" stroke="black" points="304,-418.5 304,-437.5 358,-437.5 358,-418.5 304,-418.5"/>
<text text-anchor="middle" x="331" y="-425.5" font-family="Helvetica,sans-Serif" font-size="10.00">v8::Array</text>
</a>
</g>
</g>
<!-- Node1&#45;&gt;Node4 -->
<g id="edge3" class="edge">
<title>Node1&#45;&gt;Node4</title>
<path fill="none" stroke="midnightblue" d="M212.26,-239.16C215.74,-277.46 228.62,-361.21 276,-409 283.42,-416.48 293.95,-421.02 303.75,-423.78"/>
<polygon fill="midnightblue" stroke="midnightblue" points="215.72,-238.52 211.46,-228.82 208.75,-239.06 215.72,-238.52"/>
</g>
<!-- Node5 -->
<g id="node5" class="node">
<title>Node5</title>
<g id="a_node5"><a xlink:href="classv8_1_1ArrayBuffer.html" target="_top" xlink:title=" ">
<polygon fill="white" stroke="black" points="291,-380.5 291,-399.5 371,-399.5 371,-380.5 291,-380.5"/>
<text text-anchor="middle" x="331" y="-387.5" font-family="Helvetica,sans-Serif" font-size="10.00">v8::ArrayBuffer</text>
</a>
</g>
</g>
<!-- Node1&#45;&gt;Node5 -->
<g id="edge4" class="edge">
<title>Node1&#45;&gt;Node5</title>
<path fill="none" stroke="midnightblue" d="M214.18,-238.66C220.37,-270.76 237.02,-334.5 276,-371 280.28,-375.01 285.46,-378.18 290.89,-380.68"/>
<polygon fill="midnightblue" stroke="midnightblue" points="217.6,-237.95 212.4,-228.72 210.71,-239.18 217.6,-237.95"/>
</g>
<!-- Node6 -->
<g id="node6" class="node">
<title>Node6</title>
<g id="a_node6"><a xlink:href="classv8_1_1ArrayBufferView.html" target="_top" xlink:title=" ">
<polygon fill="white" stroke="black" points="280.5,-342.5 280.5,-361.5 381.5,-361.5 381.5,-342.5 280.5,-342.5"/>
<text text-anchor="middle" x="331" y="-349.5" font-family="Helvetica,sans-Serif" font-size="10.00">v8::ArrayBufferView</text>
</a>
</g>
</g>
<!-- Node1&#45;&gt;Node6 -->
<g id="edge5" class="edge">
<title>Node1&#45;&gt;Node6</title>
<path fill="none" stroke="midnightblue" d="M217.21,-238.34C226.25,-263.56 245.39,-307.45 276,-333 280.65,-336.88 286.16,-340 291.84,-342.48"/>
<polygon fill="midnightblue" stroke="midnightblue" points="220.49,-237.12 213.95,-228.79 213.87,-239.38 220.49,-237.12"/>
</g>
<!-- Node18 -->
<g id="node18" class="node">
<title>Node18</title>
<g id="a_node18"><a xlink:href="classv8_1_1BooleanObject.html" target="_top" xlink:title=" ">
<polygon fill="white" stroke="black" points="283.5,-304.5 283.5,-323.5 378.5,-323.5 378.5,-304.5 283.5,-304.5"/>
<text text-anchor="middle" x="331" y="-311.5" font-family="Helvetica,sans-Serif" font-size="10.00">v8::BooleanObject</text>
</a>
</g>
</g>
<!-- Node1&#45;&gt;Node18 -->
<g id="edge17" class="edge">
<title>Node1&#45;&gt;Node18</title>
<path fill="none" stroke="midnightblue" d="M222.38,-237.14C233.97,-254.25 253.4,-279.51 276,-295 281.57,-298.82 288,-301.95 294.43,-304.49"/>
<polygon fill="midnightblue" stroke="midnightblue" points="225.19,-235.04 216.78,-228.59 219.33,-238.87 225.19,-235.04"/>
</g>
<!-- Node19 -->
<g id="node19" class="node">
<title>Node19</title>
<g id="a_node19"><a xlink:href="classv8_1_1Date.html" target="_top" xlink:title=" ">
<polygon fill="white" stroke="black" points="305,-266.5 305,-285.5 357,-285.5 357,-266.5 305,-266.5"/>
<text text-anchor="middle" x="331" y="-273.5" font-family="Helvetica,sans-Serif" font-size="10.00">v8::Date</text>
</a>
</g>
</g>
<!-- Node1&#45;&gt;Node19 -->
<g id="edge18" class="edge">
<title>Node1&#45;&gt;Node19</title>
<path fill="none" stroke="midnightblue" d="M234.15,-233.99C246.31,-241.48 261.63,-250.35 276,-257 285.2,-261.26 295.64,-265.14 304.87,-268.27"/>
<polygon fill="midnightblue" stroke="midnightblue" points="235.87,-230.94 225.54,-228.59 232.15,-236.86 235.87,-230.94"/>
</g>
<!-- Node20 -->
<g id="node20" class="node">
<title>Node20</title>
<g id="a_node20"><a xlink:href="classv8_1_1Function.html" target="_top" xlink:title=" ">
<polygon fill="white" stroke="black" points="296.5,-228.5 296.5,-247.5 365.5,-247.5 365.5,-228.5 296.5,-228.5"/>
<text text-anchor="middle" x="331" y="-235.5" font-family="Helvetica,sans-Serif" font-size="10.00">v8::Function</text>
</a>
</g>
</g>
<!-- Node1&#45;&gt;Node20 -->
<g id="edge19" class="edge">
<title>Node1&#45;&gt;Node20</title>
<path fill="none" stroke="midnightblue" d="M250.05,-225.24C264.94,-227.61 281.76,-230.3 296.13,-232.59"/>
<polygon fill="midnightblue" stroke="midnightblue" points="250.54,-221.77 240.11,-223.65 249.43,-228.68 250.54,-221.77"/>
</g>
<!-- Node21 -->
<g id="node21" class="node">
<title>Node21</title>
<g id="a_node21"><a xlink:href="classv8_1_1NumberObject.html" target="_top" xlink:title=" ">
<polygon fill="white" stroke="black" points="283.5,-190.5 283.5,-209.5 378.5,-209.5 378.5,-190.5 283.5,-190.5"/>
<text text-anchor="middle" x="331" y="-197.5" font-family="Helvetica,sans-Serif" font-size="10.00">v8::NumberObject</text>
</a>
</g>
</g>
<!-- Node1&#45;&gt;Node21 -->
<g id="edge20" class="edge">
<title>Node1&#45;&gt;Node21</title>
<path fill="none" stroke="midnightblue" d="M250.25,-212.73C260.76,-211.06 272.23,-209.22 283.11,-207.49"/>
<polygon fill="midnightblue" stroke="midnightblue" points="249.43,-209.32 240.11,-214.35 250.54,-216.23 249.43,-209.32"/>
</g>
<!-- Node22 -->
<g id="node22" class="node">
<title>Node22</title>
<g id="a_node22"><a xlink:href="classv8_1_1Promise.html" target="_top" xlink:title=" ">
<polygon fill="white" stroke="black" points="297,-152.5 297,-171.5 365,-171.5 365,-152.5 297,-152.5"/>
<text text-anchor="middle" x="331" y="-159.5" font-family="Helvetica,sans-Serif" font-size="10.00">v8::Promise</text>
</a>
</g>
</g>
<!-- Node1&#45;&gt;Node22 -->
<g id="edge21" class="edge">
<title>Node1&#45;&gt;Node22</title>
<path fill="none" stroke="midnightblue" d="M234.15,-204.01C246.31,-196.52 261.63,-187.65 276,-181 283.49,-177.53 291.79,-174.32 299.6,-171.55"/>
<polygon fill="midnightblue" stroke="midnightblue" points="232.15,-201.14 225.54,-209.41 235.87,-207.06 232.15,-201.14"/>
</g>
<!-- Node23 -->
<g id="node23" class="node">
<title>Node23</title>
<g id="a_node23"><a xlink:href="classv8_1_1Promise_1_1Resolver.html" target="_top" xlink:title=" ">
<polygon fill="white" stroke="black" points="276,-114.5 276,-133.5 386,-133.5 386,-114.5 276,-114.5"/>
<text text-anchor="middle" x="331" y="-121.5" font-family="Helvetica,sans-Serif" font-size="10.00">v8::Promise::Resolver</text>
</a>
</g>
</g>
<!-- Node1&#45;&gt;Node23 -->
<g id="edge22" class="edge">
<title>Node1&#45;&gt;Node23</title>
<path fill="none" stroke="midnightblue" d="M222.38,-200.86C233.97,-183.75 253.4,-158.49 276,-143 281.57,-139.18 288,-136.05 294.43,-133.51"/>
<polygon fill="midnightblue" stroke="midnightblue" points="219.33,-199.13 216.78,-209.41 225.19,-202.96 219.33,-199.13"/>
</g>
<!-- Node24 -->
<g id="node24" class="node">
<title>Node24</title>
<g id="a_node24"><a xlink:href="classv8_1_1RegExp.html" target="_top" xlink:title=" ">
<polygon fill="white" stroke="black" points="298.5,-76.5 298.5,-95.5 363.5,-95.5 363.5,-76.5 298.5,-76.5"/>
<text text-anchor="middle" x="331" y="-83.5" font-family="Helvetica,sans-Serif" font-size="10.00">v8::RegExp</text>
</a>
</g>
</g>
<!-- Node1&#45;&gt;Node24 -->
<g id="edge23" class="edge">
<title>Node1&#45;&gt;Node24</title>
<path fill="none" stroke="midnightblue" d="M217.21,-199.66C226.25,-174.44 245.39,-130.55 276,-105 282.41,-99.65 290.43,-95.77 298.31,-92.96"/>
<polygon fill="midnightblue" stroke="midnightblue" points="213.87,-198.62 213.95,-209.21 220.49,-200.88 213.87,-198.62"/>
</g>
<!-- Node25 -->
<g id="node25" class="node">
<title>Node25</title>
<g id="a_node25"><a xlink:href="classv8_1_1StringObject.html" target="_top" xlink:title=" ">
<polygon fill="white" stroke="black" points="288,-38.5 288,-57.5 374,-57.5 374,-38.5 288,-38.5"/>
<text text-anchor="middle" x="331" y="-45.5" font-family="Helvetica,sans-Serif" font-size="10.00">v8::StringObject</text>
</a>
</g>
</g>
<!-- Node1&#45;&gt;Node25 -->
<g id="edge24" class="edge">
<title>Node1&#45;&gt;Node25</title>
<path fill="none" stroke="midnightblue" d="M214.18,-199.34C220.37,-167.24 237.02,-103.5 276,-67 280.14,-63.13 285.11,-60.04 290.34,-57.57"/>
<polygon fill="midnightblue" stroke="midnightblue" points="210.71,-198.82 212.4,-209.28 217.6,-200.05 210.71,-198.82"/>
</g>
<!-- Node26 -->
<g id="node26" class="node">
<title>Node26</title>
<g id="a_node26"><a xlink:href="classv8_1_1SymbolObject.html" target="_top" xlink:title=" ">
<polygon fill="white" stroke="black" points="285,-0.5 285,-19.5 377,-19.5 377,-0.5 285,-0.5"/>
<text text-anchor="middle" x="331" y="-7.5" font-family="Helvetica,sans-Serif" font-size="10.00">v8::SymbolObject</text>
</a>
</g>
</g>
<!-- Node1&#45;&gt;Node26 -->
<g id="edge25" class="edge">
<title>Node1&#45;&gt;Node26</title>
<path fill="none" stroke="midnightblue" d="M212.26,-198.84C215.74,-160.54 228.62,-76.79 276,-29 279.85,-25.12 284.54,-22.03 289.52,-19.57"/>
<polygon fill="midnightblue" stroke="midnightblue" points="208.75,-198.94 211.46,-209.18 215.72,-199.48 208.75,-198.94"/>
</g>
<!-- Node2 -->
<g id="node2" class="node">
<title>Node2</title>
<g id="a_node2"><a xlink:href="classv8_1_1Value.html" target="_top" xlink:title=" ">
<polygon fill="white" stroke="black" points="88,-209.5 88,-228.5 144,-228.5 144,-209.5 88,-209.5"/>
<text text-anchor="middle" x="116" y="-216.5" font-family="Helvetica,sans-Serif" font-size="10.00">v8::Value</text>
</a>
</g>
</g>
<!-- Node2&#45;&gt;Node1 -->
<g id="edge1" class="edge">
<title>Node2&#45;&gt;Node1</title>
<path fill="none" stroke="midnightblue" d="M154.22,-219C162.76,-219 171.71,-219 179.84,-219"/>
<polygon fill="midnightblue" stroke="midnightblue" points="154.11,-215.5 144.11,-219 154.11,-222.5 154.11,-215.5"/>
</g>
<!-- Node3 -->
<g id="node3" class="node">
<title>Node3</title>
<g id="a_node3"><a xlink:href="classv8_1_1Data.html" target="_top" xlink:title=" ">
<polygon fill="white" stroke="black" points="0,-209.5 0,-228.5 52,-228.5 52,-209.5 0,-209.5"/>
<text text-anchor="middle" x="26" y="-216.5" font-family="Helvetica,sans-Serif" font-size="10.00">v8::Data</text>
</a>
</g>
</g>
<!-- Node3&#45;&gt;Node2 -->
<g id="edge2" class="edge">
<title>Node3&#45;&gt;Node2</title>
<path fill="none" stroke="midnightblue" d="M62.72,-219C71.08,-219 79.84,-219 87.76,-219"/>
<polygon fill="midnightblue" stroke="midnightblue" points="62.45,-215.5 52.45,-219 62.45,-222.5 62.45,-215.5"/>
</g>
<!-- Node7 -->
<g id="node7" class="node">
<title>Node7</title>
<g id="a_node7"><a xlink:href="classv8_1_1DataView.html" target="_top" xlink:title=" ">
<polygon fill="white" stroke="black" points="425,-361.5 425,-380.5 499,-380.5 499,-361.5 425,-361.5"/>
<text text-anchor="middle" x="462" y="-368.5" font-family="Helvetica,sans-Serif" font-size="10.00">v8::DataView</text>
</a>
</g>
</g>
<!-- Node6&#45;&gt;Node7 -->
<g id="edge6" class="edge">
<title>Node6&#45;&gt;Node7</title>
<path fill="none" stroke="midnightblue" d="M391.73,-360.8C402.97,-362.45 414.4,-364.14 424.65,-365.65"/>
<polygon fill="midnightblue" stroke="midnightblue" points="391.91,-357.29 381.51,-359.29 390.89,-364.21 391.91,-357.29"/>
</g>
<!-- Node8 -->
<g id="node8" class="node">
<title>Node8</title>
<g id="a_node8"><a xlink:href="classv8_1_1TypedArray.html" target="_top" xlink:title=" ">
<polygon fill="white" stroke="black" points="422,-323.5 422,-342.5 502,-342.5 502,-323.5 422,-323.5"/>
<text text-anchor="middle" x="462" y="-330.5" font-family="Helvetica,sans-Serif" font-size="10.00">v8::TypedArray</text>
</a>
</g>
</g>
<!-- Node6&#45;&gt;Node8 -->
<g id="edge7" class="edge">
<title>Node6&#45;&gt;Node8</title>
<path fill="none" stroke="midnightblue" d="M391.66,-343.21C401.9,-341.7 412.31,-340.17 421.84,-338.77"/>
<polygon fill="midnightblue" stroke="midnightblue" points="390.89,-339.79 381.51,-344.71 391.91,-346.71 390.89,-339.79"/>
</g>
<!-- Node9 -->
<g id="node9" class="node">
<title>Node9</title>
<g id="a_node9"><a xlink:href="classv8_1_1Float32Array.html" target="_top" xlink:title=" ">
<polygon fill="white" stroke="black" points="553,-475.5 553,-494.5 639,-494.5 639,-475.5 553,-475.5"/>
<text text-anchor="middle" x="596" y="-482.5" font-family="Helvetica,sans-Serif" font-size="10.00">v8::Float32Array</text>
</a>
</g>
</g>
<!-- Node8&#45;&gt;Node9 -->
<g id="edge8" class="edge">
<title>Node8&#45;&gt;Node9</title>
<path fill="none" stroke="midnightblue" d="M498.71,-348.67C499.88,-349.71 500.99,-350.82 502,-352 536.7,-392.24 500.73,-428.13 538,-466 542.17,-470.24 547.31,-473.53 552.78,-476.09"/>
<polygon fill="midnightblue" stroke="midnightblue" points="500.38,-345.56 490.2,-342.64 496.34,-351.28 500.38,-345.56"/>
</g>
<!-- Node10 -->
<g id="node10" class="node">
<title>Node10</title>
<g id="a_node10"><a xlink:href="classv8_1_1Float64Array.html" target="_top" xlink:title=" ">
<polygon fill="white" stroke="black" points="553,-437.5 553,-456.5 639,-456.5 639,-437.5 553,-437.5"/>
<text text-anchor="middle" x="596" y="-444.5" font-family="Helvetica,sans-Serif" font-size="10.00">v8::Float64Array</text>
</a>
</g>
</g>
<!-- Node8&#45;&gt;Node10 -->
<g id="edge9" class="edge">
<title>Node8&#45;&gt;Node10</title>
<path fill="none" stroke="midnightblue" d="M497.49,-348.05C499.09,-349.28 500.61,-350.59 502,-352 528.28,-378.57 510.03,-403.21 538,-428 542.37,-431.87 547.56,-434.96 552.99,-437.42"/>
<polygon fill="midnightblue" stroke="midnightblue" points="499.28,-345.03 488.98,-342.58 495.5,-350.93 499.28,-345.03"/>
</g>
<!-- Node11 -->
<g id="node11" class="node">
<title>Node11</title>
<g id="a_node11"><a xlink:href="classv8_1_1Int16Array.html" target="_top" xlink:title=" ">
<polygon fill="white" stroke="black" points="558,-399.5 558,-418.5 634,-418.5 634,-399.5 558,-399.5"/>
<text text-anchor="middle" x="596" y="-406.5" font-family="Helvetica,sans-Serif" font-size="10.00">v8::Int16Array</text>
</a>
</g>
</g>
<!-- Node8&#45;&gt;Node11 -->
<g id="edge10" class="edge">
<title>Node8&#45;&gt;Node11</title>
<path fill="none" stroke="midnightblue" d="M495.01,-347.4C497.44,-348.85 499.8,-350.39 502,-352 520.76,-365.76 518.38,-377.5 538,-390 544.07,-393.87 551.01,-397.03 557.91,-399.59"/>
<polygon fill="midnightblue" stroke="midnightblue" points="496.52,-344.24 486.07,-342.54 493.18,-350.39 496.52,-344.24"/>
</g>
<!-- Node12 -->
<g id="node12" class="node">
<title>Node12</title>
<g id="a_node12"><a xlink:href="classv8_1_1Int32Array.html" target="_top" xlink:title=" ">
<polygon fill="white" stroke="black" points="558,-361.5 558,-380.5 634,-380.5 634,-361.5 558,-361.5"/>
<text text-anchor="middle" x="596" y="-368.5" font-family="Helvetica,sans-Serif" font-size="10.00">v8::Int32Array</text>
</a>
</g>
</g>
<!-- Node8&#45;&gt;Node12 -->
<g id="edge11" class="edge">
<title>Node8&#45;&gt;Node12</title>
<path fill="none" stroke="midnightblue" d="M506.04,-345.39C524.12,-350.59 544.82,-356.55 561.7,-361.41"/>
<polygon fill="midnightblue" stroke="midnightblue" points="506.89,-341.99 496.31,-342.59 504.95,-348.72 506.89,-341.99"/>
</g>
<!-- Node13 -->
<g id="node13" class="node">
<title>Node13</title>
<g id="a_node13"><a xlink:href="classv8_1_1Int8Array.html" target="_top" xlink:title=" ">
<polygon fill="white" stroke="black" points="560.5,-323.5 560.5,-342.5 631.5,-342.5 631.5,-323.5 560.5,-323.5"/>
<text text-anchor="middle" x="596" y="-330.5" font-family="Helvetica,sans-Serif" font-size="10.00">v8::Int8Array</text>
</a>
</g>
</g>
<!-- Node8&#45;&gt;Node13 -->
<g id="edge12" class="edge">
<title>Node8&#45;&gt;Node13</title>
<path fill="none" stroke="midnightblue" d="M512.44,-333C528.32,-333 545.56,-333 560.17,-333"/>
<polygon fill="midnightblue" stroke="midnightblue" points="512.25,-329.5 502.25,-333 512.25,-336.5 512.25,-329.5"/>
</g>
<!-- Node14 -->
<g id="node14" class="node">
<title>Node14</title>
<g id="a_node14"><a xlink:href="classv8_1_1Uint16Array.html" target="_top" xlink:title=" ">
<polygon fill="white" stroke="black" points="554.5,-285.5 554.5,-304.5 637.5,-304.5 637.5,-285.5 554.5,-285.5"/>
<text text-anchor="middle" x="596" y="-292.5" font-family="Helvetica,sans-Serif" font-size="10.00">v8::Uint16Array</text>
</a>
</g>
</g>
<!-- Node8&#45;&gt;Node14 -->
<g id="edge13" class="edge">
<title>Node8&#45;&gt;Node14</title>
<path fill="none" stroke="midnightblue" d="M506.04,-320.61C524.12,-315.41 544.82,-309.45 561.7,-304.59"/>
<polygon fill="midnightblue" stroke="midnightblue" points="504.95,-317.28 496.31,-323.41 506.89,-324.01 504.95,-317.28"/>
</g>
<!-- Node15 -->
<g id="node15" class="node">
<title>Node15</title>
<g id="a_node15"><a xlink:href="classv8_1_1Uint32Array.html" target="_top" xlink:title=" ">
<polygon fill="white" stroke="black" points="554.5,-247.5 554.5,-266.5 637.5,-266.5 637.5,-247.5 554.5,-247.5"/>
<text text-anchor="middle" x="596" y="-254.5" font-family="Helvetica,sans-Serif" font-size="10.00">v8::Uint32Array</text>
</a>
</g>
</g>
<!-- Node8&#45;&gt;Node15 -->
<g id="edge14" class="edge">
<title>Node8&#45;&gt;Node15</title>
<path fill="none" stroke="midnightblue" d="M481.11,-316.51C495.62,-303.99 516.96,-287.11 538,-276 544.92,-272.35 552.68,-269.2 560.19,-266.58"/>
<polygon fill="midnightblue" stroke="midnightblue" points="478.6,-314.05 473.41,-323.29 483.23,-319.31 478.6,-314.05"/>
</g>
<!-- Node16 -->
<g id="node16" class="node">
<title>Node16</title>
<g id="a_node16"><a xlink:href="classv8_1_1Uint8Array.html" target="_top" xlink:title=" ">
<polygon fill="white" stroke="black" points="557.5,-209.5 557.5,-228.5 634.5,-228.5 634.5,-209.5 557.5,-209.5"/>
<text text-anchor="middle" x="596" y="-216.5" font-family="Helvetica,sans-Serif" font-size="10.00">v8::Uint8Array</text>
</a>
</g>
</g>
<!-- Node8&#45;&gt;Node16 -->
<g id="edge15" class="edge">
<title>Node8&#45;&gt;Node16</title>
<path fill="none" stroke="midnightblue" d="M473.01,-314.65C485.53,-293.31 508.92,-258.42 538,-238 543.81,-233.92 550.55,-230.67 557.32,-228.1"/>
<polygon fill="midnightblue" stroke="midnightblue" points="469.93,-312.98 468.03,-323.4 476.02,-316.43 469.93,-312.98"/>
</g>
<!-- Node17 -->
<g id="node17" class="node">
<title>Node17</title>
<g id="a_node17"><a xlink:href="classv8_1_1Uint8ClampedArray.html" target="_top" xlink:title=" ">
<polygon fill="white" stroke="black" points="538,-171.5 538,-190.5 654,-190.5 654,-171.5 538,-171.5"/>
<text text-anchor="middle" x="596" y="-178.5" font-family="Helvetica,sans-Serif" font-size="10.00">v8::Uint8ClampedArray</text>
</a>
</g>
</g>
<!-- Node8&#45;&gt;Node17 -->
<g id="edge16" class="edge">
<title>Node8&#45;&gt;Node17</title>
<path fill="none" stroke="midnightblue" d="M468.88,-313.67C478.63,-284.83 500.82,-230.66 538,-200 542.67,-196.15 548.15,-193.07 553.83,-190.61"/>
<polygon fill="midnightblue" stroke="midnightblue" points="465.49,-312.79 465.75,-323.38 472.15,-314.94 465.49,-312.79"/>
</g>
</g>
</svg>
