<?xml version="1.0" encoding="UTF-8" standalone="no"?>
<!DOCTYPE svg PUBLIC "-//W3C//DTD SVG 1.1//EN"
 "http://www.w3.org/Graphics/SVG/1.1/DTD/svg11.dtd">
<!-- Generated by graphviz version 2.44.0 ()
 -->
<!-- Title: v8::PhantomPersistentValueMap::Set Pages: 1 -->
<svg width="502pt" height="186pt"
 viewBox="0.00 0.00 502.00 186.00" xmlns="http://www.w3.org/2000/svg" xmlns:xlink="http://www.w3.org/1999/xlink">
<g id="graph0" class="graph" transform="scale(1 1) rotate(0) translate(4 182)">
<title>v8::PhantomPersistentValueMap::Set</title>
<polygon fill="white" stroke="transparent" points="-4,4 -4,-182 498,-182 498,4 -4,4"/>
<!-- Node1 -->
<g id="node1" class="node">
<title>Node1</title>
<g id="a_node1"><a xlink:title=" ">
<polygon fill="#bfbfbf" stroke="black" points="0,-120.5 0,-150.5 140,-150.5 140,-120.5 0,-120.5"/>
<text text-anchor="start" x="8" y="-138.5" font-family="Helvetica,sans-Serif" font-size="10.00">v8::PhantomPersistentValue</text>
<text text-anchor="middle" x="70" y="-127.5" font-family="Helvetica,sans-Serif" font-size="10.00">Map::Set</text>
</a>
</g>
</g>
<!-- Node2 -->
<g id="node2" class="node">
<title>Node2</title>
<g id="a_node2"><a xlink:href="classv8_1_1PersistentValueMapBase.html#af2e83791955c6027213dd979eebeb8f4" target="_top" xlink:title=" ">
<polygon fill="white" stroke="black" points="352,-147.5 352,-177.5 494,-177.5 494,-147.5 352,-147.5"/>
<text text-anchor="start" x="360" y="-165.5" font-family="Helvetica,sans-Serif" font-size="10.00">v8::PersistentValueMapBase</text>
<text text-anchor="middle" x="423" y="-154.5" font-family="Helvetica,sans-Serif" font-size="10.00">::isolate</text>
</a>
</g>
</g>
<!-- Node1&#45;&gt;Node2 -->
<g id="edge1" class="edge">
<title>Node1&#45;&gt;Node2</title>
<path fill="none" stroke="midnightblue" d="M140.35,-140.83C198.23,-145.29 280.8,-151.64 341.58,-156.31"/>
<polygon fill="midnightblue" stroke="midnightblue" points="341.66,-159.83 351.9,-157.11 342.2,-152.85 341.66,-159.83"/>
</g>
<!-- Node3 -->
<g id="node3" class="node">
<title>Node3</title>
<g id="a_node3"><a xlink:href="classv8_1_1PhantomPersistentValueMap.html#a71befa11bba57788a7a407a61fe0647c" target="_top" xlink:title=" ">
<polygon fill="white" stroke="black" points="176,-98.5 176,-128.5 316,-128.5 316,-98.5 176,-98.5"/>
<text text-anchor="start" x="184" y="-116.5" font-family="Helvetica,sans-Serif" font-size="10.00">v8::PhantomPersistentValue</text>
<text text-anchor="middle" x="246" y="-105.5" font-family="Helvetica,sans-Serif" font-size="10.00">Map::SetUnique</text>
</a>
</g>
</g>
<!-- Node1&#45;&gt;Node3 -->
<g id="edge2" class="edge">
<title>Node1&#45;&gt;Node3</title>
<path fill="none" stroke="midnightblue" d="M140.02,-126.77C148.48,-125.7 157.17,-124.61 165.76,-123.52"/>
<polygon fill="midnightblue" stroke="midnightblue" points="166.3,-126.98 175.78,-122.25 165.42,-120.03 166.3,-126.98"/>
</g>
<!-- Node3&#45;&gt;Node2 -->
<g id="edge5" class="edge">
<title>Node3&#45;&gt;Node2</title>
<path fill="none" stroke="midnightblue" d="M300.93,-128.6C319.15,-133.7 339.65,-139.44 358.54,-144.73"/>
<polygon fill="midnightblue" stroke="midnightblue" points="357.67,-148.12 368.24,-147.45 359.56,-141.38 357.67,-148.12"/>
</g>
<!-- Node4 -->
<g id="node4" class="node">
<title>Node4</title>
<g id="a_node4"><a xlink:href="classv8_1_1PersistentValueMapBase.html#a639f2b3a7f41e389a71792fe9d1aeb7c" target="_top" xlink:title=" ">
<polygon fill="white" stroke="black" points="352,-98.5 352,-128.5 494,-128.5 494,-98.5 352,-98.5"/>
<text text-anchor="start" x="360" y="-116.5" font-family="Helvetica,sans-Serif" font-size="10.00">v8::PersistentValueMapBase</text>
<text text-anchor="middle" x="423" y="-105.5" font-family="Helvetica,sans-Serif" font-size="10.00">::ClearAndLeak</text>
</a>
</g>
</g>
<!-- Node3&#45;&gt;Node4 -->
<g id="edge3" class="edge">
<title>Node3&#45;&gt;Node4</title>
<path fill="none" stroke="midnightblue" d="M316.16,-113.5C324.61,-113.5 333.3,-113.5 341.88,-113.5"/>
<polygon fill="midnightblue" stroke="midnightblue" points="341.9,-117 351.9,-113.5 341.9,-110 341.9,-117"/>
</g>
<!-- Node5 -->
<g id="node5" class="node">
<title>Node5</title>
<g id="a_node5"><a xlink:href="classv8_1_1PersistentValueMapBase.html#aacd576258fbffaf366436a6ecdd8cdf5" target="_top" xlink:title=" ">
<polygon fill="white" stroke="black" points="352,-49.5 352,-79.5 494,-79.5 494,-49.5 352,-49.5"/>
<text text-anchor="start" x="360" y="-67.5" font-family="Helvetica,sans-Serif" font-size="10.00">v8::PersistentValueMapBase</text>
<text text-anchor="middle" x="423" y="-56.5" font-family="Helvetica,sans-Serif" font-size="10.00">::impl</text>
</a>
</g>
</g>
<!-- Node3&#45;&gt;Node5 -->
<g id="edge4" class="edge">
<title>Node3&#45;&gt;Node5</title>
<path fill="none" stroke="midnightblue" d="M300.93,-98.4C319.15,-93.3 339.65,-87.56 358.54,-82.27"/>
<polygon fill="midnightblue" stroke="midnightblue" points="359.56,-85.62 368.24,-79.55 357.67,-78.88 359.56,-85.62"/>
</g>
<!-- Node6 -->
<g id="node6" class="node">
<title>Node6</title>
<g id="a_node6"><a xlink:href="classv8_1_1PersistentValueMapBase.html#ae4e89289ea520ab3ad6b069ddff77ed5" target="_top" xlink:title=" ">
<polygon fill="white" stroke="black" points="352,-0.5 352,-30.5 494,-30.5 494,-0.5 352,-0.5"/>
<text text-anchor="start" x="360" y="-18.5" font-family="Helvetica,sans-Serif" font-size="10.00">v8::PersistentValueMapBase</text>
<text text-anchor="middle" x="423" y="-7.5" font-family="Helvetica,sans-Serif" font-size="10.00">::Release</text>
</a>
</g>
</g>
<!-- Node3&#45;&gt;Node6 -->
<g id="edge6" class="edge">
<title>Node3&#45;&gt;Node6</title>
<path fill="none" stroke="midnightblue" d="M264.95,-98.44C285.08,-82.14 319.23,-56.23 352,-39.5 355.5,-37.71 359.17,-36.01 362.91,-34.39"/>
<polygon fill="midnightblue" stroke="midnightblue" points="364.37,-37.58 372.32,-30.57 361.73,-31.09 364.37,-37.58"/>
</g>
</g>
</svg>
