<?xml version="1.0" encoding="UTF-8" standalone="no"?>
<!DOCTYPE svg PUBLIC "-//W3C//DTD SVG 1.1//EN"
 "http://www.w3.org/Graphics/SVG/1.1/DTD/svg11.dtd">
<!-- Generated by graphviz version 2.44.0 ()
 -->
<!-- Title: v8::PersistentValueMapBase::PersistentValueReference::NewLocal Pages: 1 -->
<svg width="328pt" height="127pt"
 viewBox="0.00 0.00 328.00 126.50" xmlns="http://www.w3.org/2000/svg" xmlns:xlink="http://www.w3.org/1999/xlink">
<g id="graph0" class="graph" transform="scale(1 1) rotate(0) translate(4 122.5)">
<title>v8::PersistentValueMapBase::PersistentValueReference::NewLocal</title>
<polygon fill="white" stroke="transparent" points="-4,4 -4,-122.5 324,-122.5 324,4 -4,4"/>
<!-- Node1 -->
<g id="node1" class="node">
<title>Node1</title>
<g id="a_node1"><a xlink:title=" ">
<polygon fill="#bfbfbf" stroke="black" points="0,-33.5 0,-74.5 142,-74.5 142,-33.5 0,-33.5"/>
<text text-anchor="start" x="8" y="-62.5" font-family="Helvetica,sans-Serif" font-size="10.00">v8::PersistentValueMapBase</text>
<text text-anchor="start" x="8" y="-51.5" font-family="Helvetica,sans-Serif" font-size="10.00">::PersistentValueReference</text>
<text text-anchor="middle" x="71" y="-40.5" font-family="Helvetica,sans-Serif" font-size="10.00">::NewLocal</text>
</a>
</g>
</g>
<!-- Node2 -->
<g id="node2" class="node">
<title>Node2</title>
<g id="a_node2"><a xlink:href="classv8_1_1PersistentValueMapBase.html#af8fcd471f2d53ffca9881f7c436044e8" target="_top" xlink:title=" ">
<polygon fill="white" stroke="black" points="178,-88 178,-118 320,-118 320,-88 178,-88"/>
<text text-anchor="start" x="186" y="-106" font-family="Helvetica,sans-Serif" font-size="10.00">v8::PersistentValueMapBase</text>
<text text-anchor="middle" x="249" y="-95" font-family="Helvetica,sans-Serif" font-size="10.00">::FromVal</text>
</a>
</g>
</g>
<!-- Node1&#45;&gt;Node2 -->
<g id="edge1" class="edge">
<title>Node1&#45;&gt;Node2</title>
<path fill="none" stroke="midnightblue" d="M142.07,-73.51C155.95,-77.37 170.46,-81.41 184.12,-85.22"/>
<polygon fill="midnightblue" stroke="midnightblue" points="183.33,-88.63 193.9,-87.94 185.21,-81.89 183.33,-88.63"/>
</g>
<!-- Node3 -->
<g id="node3" class="node">
<title>Node3</title>
<g id="a_node3"><a xlink:href="classv8_1_1PersistentValueMapBase.html#af2e83791955c6027213dd979eebeb8f4" target="_top" xlink:title=" ">
<polygon fill="white" stroke="black" points="178,-39 178,-69 320,-69 320,-39 178,-39"/>
<text text-anchor="start" x="186" y="-57" font-family="Helvetica,sans-Serif" font-size="10.00">v8::PersistentValueMapBase</text>
<text text-anchor="middle" x="249" y="-46" font-family="Helvetica,sans-Serif" font-size="10.00">::isolate</text>
</a>
</g>
</g>
<!-- Node1&#45;&gt;Node3 -->
<g id="edge2" class="edge">
<title>Node1&#45;&gt;Node3</title>
<path fill="none" stroke="midnightblue" d="M142.07,-54C150.54,-54 159.25,-54 167.85,-54"/>
<polygon fill="midnightblue" stroke="midnightblue" points="167.89,-57.5 177.89,-54 167.89,-50.5 167.89,-57.5"/>
</g>
<!-- Node4 -->
<g id="node4" class="node">
<title>Node4</title>
<g id="a_node4"><a xlink:href="classv8_1_1Local.html#ae718dd5d42264bfaa2b5a42616b6673e" target="_top" xlink:title=" ">
<polygon fill="white" stroke="black" points="209,-0.5 209,-19.5 289,-19.5 289,-0.5 209,-0.5"/>
<text text-anchor="middle" x="249" y="-7.5" font-family="Helvetica,sans-Serif" font-size="10.00">v8::Local::New</text>
</a>
</g>
</g>
<!-- Node1&#45;&gt;Node4 -->
<g id="edge3" class="edge">
<title>Node1&#45;&gt;Node4</title>
<path fill="none" stroke="midnightblue" d="M142.07,-36.48C161.3,-31.68 181.72,-26.57 199.45,-22.14"/>
<polygon fill="midnightblue" stroke="midnightblue" points="200.7,-25.43 209.55,-19.61 199,-18.64 200.7,-25.43"/>
</g>
</g>
</svg>
