<?xml version="1.0" encoding="UTF-8" standalone="no"?>
<!DOCTYPE svg PUBLIC "-//W3C//DTD SVG 1.1//EN"
 "http://www.w3.org/Graphics/SVG/1.1/DTD/svg11.dtd">
<!-- Generated by graphviz version 2.44.0 ()
 -->
<!-- Title: v8::Local&lt; T &gt; Pages: 1 -->
<svg width="352pt" height="95pt"
 viewBox="0.00 0.00 352.00 95.00" xmlns="http://www.w3.org/2000/svg" xmlns:xlink="http://www.w3.org/1999/xlink">
<g id="graph0" class="graph" transform="scale(1 1) rotate(0) translate(4 91)">
<title>v8::Local&lt; T &gt;</title>
<polygon fill="white" stroke="transparent" points="-4,4 -4,-91 348,-91 348,4 -4,4"/>
<!-- Node1 -->
<g id="node1" class="node">
<title>Node1</title>
<g id="a_node1"><a xlink:title=" ">
<polygon fill="#bfbfbf" stroke="black" points="141.5,-67.5 141.5,-86.5 219.5,-86.5 219.5,-67.5 141.5,-67.5"/>
<text text-anchor="middle" x="180.5" y="-74.5" font-family="Helvetica,sans-Serif" font-size="10.00">v8::Local&lt; T &gt;</text>
</a>
</g>
</g>
<!-- Node2 -->
<g id="node2" class="node">
<title>Node2</title>
<g id="a_node2"><a xlink:href="classv8_1_1Local.html" target="_top" xlink:title=" ">
<polygon fill="white" stroke="black" points="0,-0.5 0,-19.5 113,-19.5 113,-0.5 0,-0.5"/>
<text text-anchor="middle" x="56.5" y="-7.5" font-family="Helvetica,sans-Serif" font-size="10.00">v8::Local&lt; v8::String &gt;</text>
</a>
</g>
</g>
<!-- Node1&#45;&gt;Node2 -->
<g id="edge1" class="edge">
<title>Node1&#45;&gt;Node2</title>
<path fill="none" stroke="orange" stroke-dasharray="5,2" d="M148.11,-63.55C137.83,-59.29 126.54,-54.25 116.5,-49 99.46,-40.09 80.9,-27.92 69.01,-19.78"/>
<polygon fill="orange" stroke="orange" points="146.99,-66.88 157.57,-67.4 149.62,-60.39 146.99,-66.88"/>
<text text-anchor="middle" x="146.5" y="-41" font-family="Helvetica,sans-Serif" font-size="10.00"> &lt; v8::String &gt;</text>
</g>
<!-- Node3 -->
<g id="node3" class="node">
<title>Node3</title>
<g id="a_node3"><a xlink:href="classv8_1_1Local.html" target="_top" xlink:title=" ">
<polygon fill="white" stroke="black" points="131.5,-0.5 131.5,-19.5 229.5,-19.5 229.5,-0.5 131.5,-0.5"/>
<text text-anchor="middle" x="180.5" y="-7.5" font-family="Helvetica,sans-Serif" font-size="10.00">v8::Local&lt; Name &gt;</text>
</a>
</g>
</g>
<!-- Node1&#45;&gt;Node3 -->
<g id="edge2" class="edge">
<title>Node1&#45;&gt;Node3</title>
<path fill="none" stroke="orange" stroke-dasharray="5,2" d="M180.5,-57.04C180.5,-44.67 180.5,-29.12 180.5,-19.63"/>
<polygon fill="orange" stroke="orange" points="177,-57.23 180.5,-67.23 184,-57.23 177,-57.23"/>
<text text-anchor="middle" x="203.5" y="-41" font-family="Helvetica,sans-Serif" font-size="10.00"> &lt; Name &gt;</text>
</g>
<!-- Node4 -->
<g id="node4" class="node">
<title>Node4</title>
<g id="a_node4"><a xlink:href="classv8_1_1Local.html" target="_top" xlink:title=" ">
<polygon fill="white" stroke="black" points="247,-0.5 247,-19.5 344,-19.5 344,-0.5 247,-0.5"/>
<text text-anchor="middle" x="295.5" y="-7.5" font-family="Helvetica,sans-Serif" font-size="10.00">v8::Local&lt; Value &gt;</text>
</a>
</g>
</g>
<!-- Node1&#45;&gt;Node4 -->
<g id="edge3" class="edge">
<title>Node1&#45;&gt;Node4</title>
<path fill="none" stroke="orange" stroke-dasharray="5,2" d="M205.66,-62.63C213.63,-58.33 222.46,-53.52 230.5,-49 248.05,-39.14 268.01,-27.39 281.12,-19.59"/>
<polygon fill="orange" stroke="orange" points="203.95,-59.57 196.79,-67.38 207.26,-65.74 203.95,-59.57"/>
<text text-anchor="middle" x="269.5" y="-41" font-family="Helvetica,sans-Serif" font-size="10.00"> &lt; Value &gt;</text>
</g>
</g>
</svg>
