<?xml version="1.0" encoding="UTF-8" standalone="no"?>
<!DOCTYPE svg PUBLIC "-//W3C//DTD SVG 1.1//EN"
 "http://www.w3.org/Graphics/SVG/1.1/DTD/svg11.dtd">
<!-- Generated by graphviz version 2.44.0 ()
 -->
<!-- Title: v8::Handle&lt; T &gt; Pages: 1 -->
<svg width="386pt" height="256pt"
 viewBox="0.00 0.00 386.00 256.00" xmlns="http://www.w3.org/2000/svg" xmlns:xlink="http://www.w3.org/1999/xlink">
<g id="graph0" class="graph" transform="scale(1 1) rotate(0) translate(4 252)">
<title>v8::Handle&lt; T &gt;</title>
<polygon fill="white" stroke="transparent" points="-4,4 -4,-252 382,-252 382,4 -4,4"/>
<!-- Node1 -->
<g id="node1" class="node">
<title>Node1</title>
<g id="a_node1"><a xlink:title=" ">
<polygon fill="#bfbfbf" stroke="black" points="0,-114.5 0,-133.5 85,-133.5 85,-114.5 0,-114.5"/>
<text text-anchor="middle" x="42.5" y="-121.5" font-family="Helvetica,sans-Serif" font-size="10.00">v8::Handle&lt; T &gt;</text>
</a>
</g>
</g>
<!-- Node2 -->
<g id="node2" class="node">
<title>Node2</title>
<g id="a_node2"><a xlink:href="classv8_1_1Handle.html" target="_top" xlink:title=" ">
<polygon fill="white" stroke="black" points="227,-228.5 227,-247.5 371,-247.5 371,-228.5 227,-228.5"/>
<text text-anchor="middle" x="299" y="-235.5" font-family="Helvetica,sans-Serif" font-size="10.00">v8::Handle&lt; v8::StackTrace &gt;</text>
</a>
</g>
</g>
<!-- Node1&#45;&gt;Node2 -->
<g id="edge1" class="edge">
<title>Node1&#45;&gt;Node2</title>
<path fill="none" stroke="orange" stroke-dasharray="5,2" d="M51.53,-142.71C60.91,-162.14 78.34,-191.77 103,-207 139.75,-229.7 187.56,-237.56 226.64,-239.69"/>
<polygon fill="orange" stroke="orange" points="54.71,-141.25 47.37,-133.61 48.35,-144.16 54.71,-141.25"/>
<text text-anchor="middle" x="152.5" y="-240" font-family="Helvetica,sans-Serif" font-size="10.00"> &lt; v8::StackTrace &gt;</text>
</g>
<!-- Node3 -->
<g id="node3" class="node">
<title>Node3</title>
<g id="a_node3"><a xlink:href="classv8_1_1Handle.html" target="_top" xlink:title=" ">
<polygon fill="white" stroke="black" points="234,-190.5 234,-209.5 364,-209.5 364,-190.5 234,-190.5"/>
<text text-anchor="middle" x="299" y="-197.5" font-family="Helvetica,sans-Serif" font-size="10.00">v8::Handle&lt; v8::Promise &gt;</text>
</a>
</g>
</g>
<!-- Node1&#45;&gt;Node3 -->
<g id="edge2" class="edge">
<title>Node1&#45;&gt;Node3</title>
<path fill="none" stroke="orange" stroke-dasharray="5,2" d="M61.27,-140.2C72.45,-149.49 87.64,-160.56 103,-167 144.49,-184.38 194.58,-192.61 233.6,-196.51"/>
<polygon fill="orange" stroke="orange" points="63.42,-137.43 53.56,-133.54 58.84,-142.72 63.42,-137.43"/>
<text text-anchor="middle" x="152.5" y="-195" font-family="Helvetica,sans-Serif" font-size="10.00"> &lt; v8::Promise &gt;</text>
</g>
<!-- Node4 -->
<g id="node4" class="node">
<title>Node4</title>
<g id="a_node4"><a xlink:href="classv8_1_1Handle.html" target="_top" xlink:title=" ">
<polygon fill="white" stroke="black" points="234.5,-152.5 234.5,-171.5 363.5,-171.5 363.5,-152.5 234.5,-152.5"/>
<text text-anchor="middle" x="299" y="-159.5" font-family="Helvetica,sans-Serif" font-size="10.00">v8::Handle&lt; v8::Boolean &gt;</text>
</a>
</g>
</g>
<!-- Node1&#45;&gt;Node4 -->
<g id="edge3" class="edge">
<title>Node1&#45;&gt;Node4</title>
<path fill="none" stroke="orange" stroke-dasharray="5,2" d="M88.29,-135.95C93.23,-137.07 98.21,-138.12 103,-139 146.58,-147.03 196.19,-152.83 234.46,-156.6"/>
<polygon fill="orange" stroke="orange" points="88.8,-132.47 78.26,-133.57 87.18,-139.28 88.8,-132.47"/>
<text text-anchor="middle" x="152.5" y="-155" font-family="Helvetica,sans-Serif" font-size="10.00"> &lt; v8::Boolean &gt;</text>
</g>
<!-- Node5 -->
<g id="node5" class="node">
<title>Node5</title>
<g id="a_node5"><a xlink:href="classv8_1_1Handle.html" target="_top" xlink:title=" ">
<polygon fill="white" stroke="black" points="239.5,-114.5 239.5,-133.5 358.5,-133.5 358.5,-114.5 239.5,-114.5"/>
<text text-anchor="middle" x="299" y="-121.5" font-family="Helvetica,sans-Serif" font-size="10.00">v8::Handle&lt; v8::Value &gt;</text>
</a>
</g>
</g>
<!-- Node1&#45;&gt;Node5 -->
<g id="edge4" class="edge">
<title>Node1&#45;&gt;Node5</title>
<path fill="none" stroke="orange" stroke-dasharray="5,2" d="M95.46,-124C137.15,-124 195.69,-124 239.11,-124"/>
<polygon fill="orange" stroke="orange" points="95.24,-120.5 85.24,-124 95.24,-127.5 95.24,-120.5"/>
<text text-anchor="middle" x="152.5" y="-127" font-family="Helvetica,sans-Serif" font-size="10.00"> &lt; v8::Value &gt;</text>
</g>
<!-- Node6 -->
<g id="node6" class="node">
<title>Node6</title>
<g id="a_node6"><a xlink:href="classv8_1_1Handle.html" target="_top" xlink:title=" ">
<polygon fill="white" stroke="black" points="237,-76.5 237,-95.5 361,-95.5 361,-76.5 237,-76.5"/>
<text text-anchor="middle" x="299" y="-83.5" font-family="Helvetica,sans-Serif" font-size="10.00">v8::Handle&lt; v8::Integer &gt;</text>
</a>
</g>
</g>
<!-- Node1&#45;&gt;Node6 -->
<g id="edge5" class="edge">
<title>Node1&#45;&gt;Node6</title>
<path fill="none" stroke="orange" stroke-dasharray="5,2" d="M88.29,-112.05C93.23,-110.93 98.21,-109.88 103,-109 147.42,-100.82 198.1,-94.94 236.65,-91.18"/>
<polygon fill="orange" stroke="orange" points="87.18,-108.72 78.26,-114.43 88.8,-115.53 87.18,-108.72"/>
<text text-anchor="middle" x="152.5" y="-112" font-family="Helvetica,sans-Serif" font-size="10.00"> &lt; v8::Integer &gt;</text>
</g>
<!-- Node7 -->
<g id="node7" class="node">
<title>Node7</title>
<g id="a_node7"><a xlink:href="classv8_1_1Handle.html" target="_top" xlink:title=" ">
<polygon fill="white" stroke="black" points="235.5,-38.5 235.5,-57.5 362.5,-57.5 362.5,-38.5 235.5,-38.5"/>
<text text-anchor="middle" x="299" y="-45.5" font-family="Helvetica,sans-Serif" font-size="10.00">v8::Handle&lt; v8::Context &gt;</text>
</a>
</g>
</g>
<!-- Node1&#45;&gt;Node7 -->
<g id="edge6" class="edge">
<title>Node1&#45;&gt;Node7</title>
<path fill="none" stroke="orange" stroke-dasharray="5,2" d="M61.2,-107.39C72.35,-97.86 87.53,-86.53 103,-80 145.03,-62.24 196.02,-54.3 235.32,-50.77"/>
<polygon fill="orange" stroke="orange" points="58.66,-104.96 53.51,-114.21 63.31,-110.19 58.66,-104.96"/>
<text text-anchor="middle" x="152.5" y="-83" font-family="Helvetica,sans-Serif" font-size="10.00"> &lt; v8::Context &gt;</text>
</g>
<!-- Node8 -->
<g id="node8" class="node">
<title>Node8</title>
<g id="a_node8"><a xlink:href="classv8_1_1Handle.html" target="_top" xlink:title=" ">
<polygon fill="white" stroke="black" points="220,-0.5 220,-19.5 378,-19.5 378,-0.5 220,-0.5"/>
<text text-anchor="middle" x="299" y="-7.5" font-family="Helvetica,sans-Serif" font-size="10.00">v8::Handle&lt; v8::UnboundScript &gt;</text>
</a>
</g>
</g>
<!-- Node1&#45;&gt;Node8 -->
<g id="edge7" class="edge">
<title>Node1&#45;&gt;Node8</title>
<path fill="none" stroke="orange" stroke-dasharray="5,2" d="M51.24,-105.11C60.45,-85.18 77.82,-54.57 103,-39 137.64,-17.58 182.21,-9.8 220,-7.62"/>
<polygon fill="orange" stroke="orange" points="47.97,-103.85 47.16,-114.41 54.38,-106.65 47.97,-103.85"/>
<text text-anchor="middle" x="152.5" y="-42" font-family="Helvetica,sans-Serif" font-size="10.00"> &lt; v8::UnboundScript &gt;</text>
</g>
</g>
</svg>
