<?xml version="1.0" encoding="UTF-8" standalone="no"?>
<!DOCTYPE svg PUBLIC "-//W3C//DTD SVG 1.1//EN"
 "http://www.w3.org/Graphics/SVG/1.1/DTD/svg11.dtd">
<!-- Generated by graphviz version 2.44.0 ()
 -->
<!-- Title: v8::PersistentValueMapBase::isolate Pages: 1 -->
<svg width="516pt" height="257pt"
 viewBox="0.00 0.00 516.00 256.50" xmlns="http://www.w3.org/2000/svg" xmlns:xlink="http://www.w3.org/1999/xlink">
<g id="graph0" class="graph" transform="scale(1 1) rotate(0) translate(4 252.5)">
<title>v8::PersistentValueMapBase::isolate</title>
<polygon fill="white" stroke="transparent" points="-4,4 -4,-252.5 512,-252.5 512,4 -4,4"/>
<!-- Node1 -->
<g id="node1" class="node">
<title>Node1</title>
<g id="a_node1"><a xlink:title=" ">
<polygon fill="#bfbfbf" stroke="black" points="366,-103.5 366,-133.5 508,-133.5 508,-103.5 366,-103.5"/>
<text text-anchor="start" x="374" y="-121.5" font-family="Helvetica,sans-Serif" font-size="10.00">v8::PersistentValueMapBase</text>
<text text-anchor="middle" x="437" y="-110.5" font-family="Helvetica,sans-Serif" font-size="10.00">::isolate</text>
</a>
</g>
</g>
<!-- Node2 -->
<g id="node2" class="node">
<title>Node2</title>
<g id="a_node2"><a xlink:href="classv8_1_1PersistentValueMapBase_1_1PersistentValueReference.html#ac59d20538e1986a423605b013f33e040" target="_top" xlink:title=" ">
<polygon fill="white" stroke="black" points="182,-207 182,-248 324,-248 324,-207 182,-207"/>
<text text-anchor="start" x="190" y="-236" font-family="Helvetica,sans-Serif" font-size="10.00">v8::PersistentValueMapBase</text>
<text text-anchor="start" x="190" y="-225" font-family="Helvetica,sans-Serif" font-size="10.00">::PersistentValueReference</text>
<text text-anchor="middle" x="253" y="-214" font-family="Helvetica,sans-Serif" font-size="10.00">::NewLocal</text>
</a>
</g>
</g>
<!-- Node1&#45;&gt;Node2 -->
<g id="edge1" class="edge">
<title>Node1&#45;&gt;Node2</title>
<path fill="none" stroke="midnightblue" d="M410.93,-140.19C390.23,-157.33 359.56,-181.03 330,-197.5 324.05,-200.81 317.66,-203.94 311.21,-206.83"/>
<polygon fill="midnightblue" stroke="midnightblue" points="413.2,-142.85 418.61,-133.74 408.7,-137.49 413.2,-142.85"/>
</g>
<!-- Node3 -->
<g id="node3" class="node">
<title>Node3</title>
<g id="a_node3"><a xlink:href="classv8_1_1PersistentValueMap.html#af1b5e39f5d0275d8d58d787de5a181d9" target="_top" xlink:title=" ">
<polygon fill="white" stroke="black" points="178.5,-147 178.5,-188 327.5,-188 327.5,-147 178.5,-147"/>
<text text-anchor="start" x="186.5" y="-176" font-family="Helvetica,sans-Serif" font-size="10.00">v8::PersistentValueMap</text>
<text text-anchor="start" x="186.5" y="-165" font-family="Helvetica,sans-Serif" font-size="10.00">&lt; K, V, DefaultPersistentValue</text>
<text text-anchor="middle" x="253" y="-154" font-family="Helvetica,sans-Serif" font-size="10.00">MapTraits&lt; K, V &gt; &gt;::Set</text>
</a>
</g>
</g>
<!-- Node1&#45;&gt;Node3 -->
<g id="edge2" class="edge">
<title>Node1&#45;&gt;Node3</title>
<path fill="none" stroke="midnightblue" d="M370.05,-136.25C356.29,-139.96 341.7,-143.89 327.67,-147.67"/>
<polygon fill="midnightblue" stroke="midnightblue" points="371.16,-139.58 379.91,-133.6 369.34,-132.82 371.16,-139.58"/>
</g>
<!-- Node4 -->
<g id="node4" class="node">
<title>Node4</title>
<g id="a_node4"><a xlink:href="classv8_1_1PhantomPersistentValueMap.html#aa17ffd5cc7bbf363146fc8af55f9c652" target="_top" xlink:title=" ">
<polygon fill="white" stroke="black" points="0,-51.5 0,-81.5 140,-81.5 140,-51.5 0,-51.5"/>
<text text-anchor="start" x="8" y="-69.5" font-family="Helvetica,sans-Serif" font-size="10.00">v8::PhantomPersistentValue</text>
<text text-anchor="middle" x="70" y="-58.5" font-family="Helvetica,sans-Serif" font-size="10.00">Map::Set</text>
</a>
</g>
</g>
<!-- Node1&#45;&gt;Node4 -->
<g id="edge3" class="edge">
<title>Node1&#45;&gt;Node4</title>
<path fill="none" stroke="midnightblue" d="M355.79,-117.42C304.08,-115.55 235.6,-110.88 176,-99.5 154.23,-95.34 130.63,-88.18 111.33,-81.58"/>
<polygon fill="midnightblue" stroke="midnightblue" points="355.79,-120.92 365.91,-117.76 356.03,-113.93 355.79,-120.92"/>
</g>
<!-- Node5 -->
<g id="node5" class="node">
<title>Node5</title>
<g id="a_node5"><a xlink:href="classv8_1_1PersistentValueMap.html#ad145a27f7433da2e79c53325047a1303" target="_top" xlink:title=" ">
<polygon fill="white" stroke="black" points="176,-49 176,-90 330,-90 330,-49 176,-49"/>
<text text-anchor="start" x="184" y="-78" font-family="Helvetica,sans-Serif" font-size="10.00">v8::PersistentValueMap</text>
<text text-anchor="start" x="184" y="-67" font-family="Helvetica,sans-Serif" font-size="10.00">&lt; K, V, DefaultPersistentValue</text>
<text text-anchor="middle" x="253" y="-56" font-family="Helvetica,sans-Serif" font-size="10.00">MapTraits&lt; K, V &gt; &gt;::SetUnique</text>
</a>
</g>
</g>
<!-- Node1&#45;&gt;Node5 -->
<g id="edge4" class="edge">
<title>Node1&#45;&gt;Node5</title>
<path fill="none" stroke="midnightblue" d="M370.18,-100.78C357.24,-97.3 343.57,-93.62 330.33,-90.05"/>
<polygon fill="midnightblue" stroke="midnightblue" points="369.34,-104.18 379.91,-103.4 371.16,-97.42 369.34,-104.18"/>
</g>
<!-- Node6 -->
<g id="node6" class="node">
<title>Node6</title>
<g id="a_node6"><a xlink:href="classv8_1_1PhantomPersistentValueMap.html#a71befa11bba57788a7a407a61fe0647c" target="_top" xlink:title=" ">
<polygon fill="white" stroke="black" points="183,-0.5 183,-30.5 323,-30.5 323,-0.5 183,-0.5"/>
<text text-anchor="start" x="191" y="-18.5" font-family="Helvetica,sans-Serif" font-size="10.00">v8::PhantomPersistentValue</text>
<text text-anchor="middle" x="253" y="-7.5" font-family="Helvetica,sans-Serif" font-size="10.00">Map::SetUnique</text>
</a>
</g>
</g>
<!-- Node1&#45;&gt;Node6 -->
<g id="edge5" class="edge">
<title>Node1&#45;&gt;Node6</title>
<path fill="none" stroke="midnightblue" d="M411.96,-96.87C391.44,-79.35 360.48,-55.1 330,-39.5 323.47,-36.16 316.39,-33.17 309.26,-30.54"/>
<polygon fill="midnightblue" stroke="midnightblue" points="409.71,-99.55 419.56,-103.45 414.29,-94.26 409.71,-99.55"/>
</g>
<!-- Node6&#45;&gt;Node4 -->
<g id="edge6" class="edge">
<title>Node6&#45;&gt;Node4</title>
<path fill="none" stroke="midnightblue" d="M188.84,-33.3C167.77,-39.23 144.51,-45.79 124.26,-51.49"/>
<polygon fill="midnightblue" stroke="midnightblue" points="190,-36.61 198.67,-30.53 188.1,-29.87 190,-36.61"/>
</g>
</g>
</svg>
