<?xml version="1.0" encoding="UTF-8" standalone="no"?>
<!DOCTYPE svg PUBLIC "-//W3C//DTD SVG 1.1//EN"
 "http://www.w3.org/Graphics/SVG/1.1/DTD/svg11.dtd">
<!-- Generated by graphviz version 2.44.0 ()
 -->
<!-- Title: v8::PersistentValueMapBase::Release Pages: 1 -->
<svg width="529pt" height="219pt"
 viewBox="0.00 0.00 529.00 218.50" xmlns="http://www.w3.org/2000/svg" xmlns:xlink="http://www.w3.org/1999/xlink">
<g id="graph0" class="graph" transform="scale(1 1) rotate(0) translate(4 214.5)">
<title>v8::PersistentValueMapBase::Release</title>
<polygon fill="white" stroke="transparent" points="-4,4 -4,-214.5 525,-214.5 525,4 -4,4"/>
<!-- Node1 -->
<g id="node1" class="node">
<title>Node1</title>
<g id="a_node1"><a xlink:title=" ">
<polygon fill="#bfbfbf" stroke="black" points="379,-84.5 379,-114.5 521,-114.5 521,-84.5 379,-84.5"/>
<text text-anchor="start" x="387" y="-102.5" font-family="Helvetica,sans-Serif" font-size="10.00">v8::PersistentValueMapBase</text>
<text text-anchor="middle" x="450" y="-91.5" font-family="Helvetica,sans-Serif" font-size="10.00">::Release</text>
</a>
</g>
</g>
<!-- Node2 -->
<g id="node2" class="node">
<title>Node2</title>
<g id="a_node2"><a xlink:href="classv8_1_1PersistentValueMapBase.html#a1bf074e7a7c24713c9a3d40ddce89e74" target="_top" xlink:title=" ">
<polygon fill="white" stroke="black" points="176,-169 176,-210 343,-210 343,-169 176,-169"/>
<text text-anchor="start" x="184" y="-198" font-family="Helvetica,sans-Serif" font-size="10.00">v8::PersistentValueMapBase</text>
<text text-anchor="start" x="184" y="-187" font-family="Helvetica,sans-Serif" font-size="10.00">&lt; K, V, DefaultPersistentValueMap</text>
<text text-anchor="middle" x="259.5" y="-176" font-family="Helvetica,sans-Serif" font-size="10.00">Traits&lt; K, V &gt; &gt;::Clear</text>
</a>
</g>
</g>
<!-- Node1&#45;&gt;Node2 -->
<g id="edge1" class="edge">
<title>Node1&#45;&gt;Node2</title>
<path fill="none" stroke="midnightblue" d="M416.11,-120C395.55,-132.34 368.26,-147.86 343,-159.5 335.94,-162.75 328.42,-165.9 320.9,-168.86"/>
<polygon fill="midnightblue" stroke="midnightblue" points="418.03,-122.93 424.77,-114.76 414.4,-116.94 418.03,-122.93"/>
</g>
<!-- Node3 -->
<g id="node3" class="node">
<title>Node3</title>
<g id="a_node3"><a xlink:href="classv8_1_1PersistentValueMapBase.html#a7d458c99e84d61d8a2e63442c0c2b979" target="_top" xlink:title=" ">
<polygon fill="white" stroke="black" points="176,-109 176,-150 343,-150 343,-109 176,-109"/>
<text text-anchor="start" x="184" y="-138" font-family="Helvetica,sans-Serif" font-size="10.00">v8::PersistentValueMapBase</text>
<text text-anchor="start" x="184" y="-127" font-family="Helvetica,sans-Serif" font-size="10.00">&lt; K, V, DefaultPersistentValueMap</text>
<text text-anchor="middle" x="259.5" y="-116" font-family="Helvetica,sans-Serif" font-size="10.00">Traits&lt; K, V &gt; &gt;::Remove</text>
</a>
</g>
</g>
<!-- Node1&#45;&gt;Node3 -->
<g id="edge2" class="edge">
<title>Node1&#45;&gt;Node3</title>
<path fill="none" stroke="midnightblue" d="M368.9,-112.25C360.38,-113.6 351.7,-114.98 343.16,-116.34"/>
<polygon fill="midnightblue" stroke="midnightblue" points="369.48,-115.7 378.81,-110.67 368.38,-108.79 369.48,-115.7"/>
</g>
<!-- Node4 -->
<g id="node4" class="node">
<title>Node4</title>
<g id="a_node4"><a xlink:href="classv8_1_1PersistentValueMap.html#ad145a27f7433da2e79c53325047a1303" target="_top" xlink:title=" ">
<polygon fill="white" stroke="black" points="182.5,-49 182.5,-90 336.5,-90 336.5,-49 182.5,-49"/>
<text text-anchor="start" x="190.5" y="-78" font-family="Helvetica,sans-Serif" font-size="10.00">v8::PersistentValueMap</text>
<text text-anchor="start" x="190.5" y="-67" font-family="Helvetica,sans-Serif" font-size="10.00">&lt; K, V, DefaultPersistentValue</text>
<text text-anchor="middle" x="259.5" y="-56" font-family="Helvetica,sans-Serif" font-size="10.00">MapTraits&lt; K, V &gt; &gt;::SetUnique</text>
</a>
</g>
</g>
<!-- Node1&#45;&gt;Node4 -->
<g id="edge3" class="edge">
<title>Node1&#45;&gt;Node4</title>
<path fill="none" stroke="midnightblue" d="M368.74,-86.73C358.13,-85.04 347.29,-83.31 336.76,-81.64"/>
<polygon fill="midnightblue" stroke="midnightblue" points="368.38,-90.21 378.81,-88.33 369.48,-83.3 368.38,-90.21"/>
</g>
<!-- Node5 -->
<g id="node5" class="node">
<title>Node5</title>
<g id="a_node5"><a xlink:href="classv8_1_1PhantomPersistentValueMap.html#a71befa11bba57788a7a407a61fe0647c" target="_top" xlink:title=" ">
<polygon fill="white" stroke="black" points="189.5,-0.5 189.5,-30.5 329.5,-30.5 329.5,-0.5 189.5,-0.5"/>
<text text-anchor="start" x="197.5" y="-18.5" font-family="Helvetica,sans-Serif" font-size="10.00">v8::PhantomPersistentValue</text>
<text text-anchor="middle" x="259.5" y="-7.5" font-family="Helvetica,sans-Serif" font-size="10.00">Map::SetUnique</text>
</a>
</g>
</g>
<!-- Node1&#45;&gt;Node5 -->
<g id="edge4" class="edge">
<title>Node1&#45;&gt;Node5</title>
<path fill="none" stroke="midnightblue" d="M417.18,-78.9C396.63,-66.26 368.97,-50.45 343,-39.5 335.3,-36.25 327.03,-33.28 318.79,-30.61"/>
<polygon fill="midnightblue" stroke="midnightblue" points="415.47,-81.96 425.81,-84.28 419.17,-76.02 415.47,-81.96"/>
</g>
<!-- Node6 -->
<g id="node6" class="node">
<title>Node6</title>
<g id="a_node6"><a xlink:href="classv8_1_1PhantomPersistentValueMap.html#aa17ffd5cc7bbf363146fc8af55f9c652" target="_top" xlink:title=" ">
<polygon fill="white" stroke="black" points="0,-0.5 0,-30.5 140,-30.5 140,-0.5 0,-0.5"/>
<text text-anchor="start" x="8" y="-18.5" font-family="Helvetica,sans-Serif" font-size="10.00">v8::PhantomPersistentValue</text>
<text text-anchor="middle" x="70" y="-7.5" font-family="Helvetica,sans-Serif" font-size="10.00">Map::Set</text>
</a>
</g>
</g>
<!-- Node5&#45;&gt;Node6 -->
<g id="edge5" class="edge">
<title>Node5&#45;&gt;Node6</title>
<path fill="none" stroke="midnightblue" d="M179.18,-15.5C166.22,-15.5 152.88,-15.5 140.19,-15.5"/>
<polygon fill="midnightblue" stroke="midnightblue" points="179.48,-19 189.48,-15.5 179.48,-12 179.48,-19"/>
</g>
</g>
</svg>
