<?xml version="1.0" encoding="UTF-8" standalone="no"?>
<!DOCTYPE svg PUBLIC "-//W3C//DTD SVG 1.1//EN"
 "http://www.w3.org/Graphics/SVG/1.1/DTD/svg11.dtd">
<!-- Generated by graphviz version 2.44.0 ()
 -->
<!-- Title: v8::WeakCallbackData&lt; T, P &gt; Pages: 1 -->
<svg width="157pt" height="163pt"
 viewBox="0.00 0.00 157.00 163.00" xmlns="http://www.w3.org/2000/svg" xmlns:xlink="http://www.w3.org/1999/xlink">
<g id="graph0" class="graph" transform="scale(1 1) rotate(0) translate(4 159)">
<title>v8::WeakCallbackData&lt; T, P &gt;</title>
<polygon fill="white" stroke="transparent" points="-4,4 -4,-159 153,-159 153,4 -4,4"/>
<!-- Node1 -->
<g id="node1" class="node">
<title>Node1</title>
<g id="a_node1"><a xlink:title=" ">
<polygon fill="#bfbfbf" stroke="black" points="17.5,-0.5 17.5,-30.5 131.5,-30.5 131.5,-0.5 17.5,-0.5"/>
<text text-anchor="start" x="25.5" y="-18.5" font-family="Helvetica,sans-Serif" font-size="10.00">v8::WeakCallbackData</text>
<text text-anchor="middle" x="74.5" y="-7.5" font-family="Helvetica,sans-Serif" font-size="10.00">&lt; T, P &gt;</text>
</a>
</g>
</g>
<!-- Node2 -->
<g id="node2" class="node">
<title>Node2</title>
<g id="a_node2"><a xlink:href="classv8_1_1internal_1_1CallbackData.html" target="_top" xlink:title=" ">
<polygon fill="white" stroke="black" points="0,-68.5 0,-87.5 149,-87.5 149,-68.5 0,-68.5"/>
<text text-anchor="middle" x="74.5" y="-75.5" font-family="Helvetica,sans-Serif" font-size="10.00">v8::internal::CallbackData&lt; P &gt;</text>
</a>
</g>
</g>
<!-- Node2&#45;&gt;Node1 -->
<g id="edge1" class="edge">
<title>Node2&#45;&gt;Node1</title>
<path fill="none" stroke="midnightblue" d="M74.5,-58.22C74.5,-49.36 74.5,-38.96 74.5,-30.76"/>
<polygon fill="midnightblue" stroke="midnightblue" points="71,-58.33 74.5,-68.33 78,-58.33 71,-58.33"/>
</g>
<!-- Node3 -->
<g id="node3" class="node">
<title>Node3</title>
<g id="a_node3"><a xlink:href="classv8_1_1internal_1_1CallbackData.html" target="_top" xlink:title=" ">
<polygon fill="white" stroke="black" points="0.5,-135.5 0.5,-154.5 148.5,-154.5 148.5,-135.5 0.5,-135.5"/>
<text text-anchor="middle" x="74.5" y="-142.5" font-family="Helvetica,sans-Serif" font-size="10.00">v8::internal::CallbackData&lt; T &gt;</text>
</a>
</g>
</g>
<!-- Node3&#45;&gt;Node2 -->
<g id="edge2" class="edge">
<title>Node3&#45;&gt;Node2</title>
<path fill="none" stroke="orange" stroke-dasharray="5,2" d="M74.5,-125.04C74.5,-112.67 74.5,-97.12 74.5,-87.63"/>
<polygon fill="orange" stroke="orange" points="71,-125.23 74.5,-135.23 78,-125.23 71,-125.23"/>
<text text-anchor="middle" x="87.5" y="-109" font-family="Helvetica,sans-Serif" font-size="10.00"> &lt; P &gt;</text>
</g>
</g>
</svg>
