<?xml version="1.0" encoding="UTF-8" standalone="no"?>
<!DOCTYPE svg PUBLIC "-//W3C//DTD SVG 1.1//EN"
 "http://www.w3.org/Graphics/SVG/1.1/DTD/svg11.dtd">
<!-- Generated by graphviz version 2.44.0 ()
 -->
<!-- Title: v8::PhantomPersistentValueMap::Set Pages: 1 -->
<svg width="504pt" height="186pt"
 viewBox="0.00 0.00 504.00 186.00" xmlns="http://www.w3.org/2000/svg" xmlns:xlink="http://www.w3.org/1999/xlink">
<g id="graph0" class="graph" transform="scale(1 1) rotate(0) translate(4 182)">
<title>v8::PhantomPersistentValueMap::Set</title>
<polygon fill="white" stroke="transparent" points="-4,4 -4,-182 500,-182 500,4 -4,4"/>
<!-- Node1 -->
<g id="node1" class="node">
<title>Node1</title>
<g id="a_node1"><a xlink:title=" ">
<polygon fill="#bfbfbf" stroke="black" points="0,-97.5 0,-127.5 140,-127.5 140,-97.5 0,-97.5"/>
<text text-anchor="start" x="8" y="-115.5" font-family="Helvetica,sans-Serif" font-size="10.00">v8::PhantomPersistentValue</text>
<text text-anchor="middle" x="70" y="-104.5" font-family="Helvetica,sans-Serif" font-size="10.00">Map::Set</text>
</a>
</g>
</g>
<!-- Node2 -->
<g id="node2" class="node">
<title>Node2</title>
<g id="a_node2"><a xlink:href="classv8_1_1PersistentValueMapBase.html#ae49c98de990b7239aea9f0c131ed1be3" target="_top" xlink:title=" ">
<polygon fill="white" stroke="black" points="176,-122.5 176,-152.5 318,-152.5 318,-122.5 176,-122.5"/>
<text text-anchor="start" x="184" y="-140.5" font-family="Helvetica,sans-Serif" font-size="10.00">v8::PersistentValueMapBase</text>
<text text-anchor="middle" x="247" y="-129.5" font-family="Helvetica,sans-Serif" font-size="10.00">::Leak</text>
</a>
</g>
</g>
<!-- Node1&#45;&gt;Node2 -->
<g id="edge1" class="edge">
<title>Node1&#45;&gt;Node2</title>
<path fill="none" stroke="midnightblue" d="M140.16,-122.38C148.61,-123.59 157.3,-124.83 165.88,-126.05"/>
<polygon fill="midnightblue" stroke="midnightblue" points="165.51,-129.54 175.9,-127.49 166.5,-122.61 165.51,-129.54"/>
</g>
<!-- Node3 -->
<g id="node3" class="node">
<title>Node3</title>
<g id="a_node3"><a xlink:href="classv8_1_1PhantomPersistentValueMap.html#a71befa11bba57788a7a407a61fe0647c" target="_top" xlink:title=" ">
<polygon fill="white" stroke="black" points="177,-73.5 177,-103.5 317,-103.5 317,-73.5 177,-73.5"/>
<text text-anchor="start" x="185" y="-91.5" font-family="Helvetica,sans-Serif" font-size="10.00">v8::PhantomPersistentValue</text>
<text text-anchor="middle" x="247" y="-80.5" font-family="Helvetica,sans-Serif" font-size="10.00">Map::SetUnique</text>
</a>
</g>
</g>
<!-- Node1&#45;&gt;Node3 -->
<g id="edge2" class="edge">
<title>Node1&#45;&gt;Node3</title>
<path fill="none" stroke="midnightblue" d="M140.16,-103.01C148.91,-101.82 157.91,-100.58 166.8,-99.36"/>
<polygon fill="midnightblue" stroke="midnightblue" points="167.33,-102.82 176.76,-98 166.38,-95.89 167.33,-102.82"/>
</g>
<!-- Node4 -->
<g id="node4" class="node">
<title>Node4</title>
<g id="a_node4"><a xlink:href="classv8_1_1PersistentValueMapBase.html#a639f2b3a7f41e389a71792fe9d1aeb7c" target="_top" xlink:title=" ">
<polygon fill="white" stroke="black" points="354,-147.5 354,-177.5 496,-177.5 496,-147.5 354,-147.5"/>
<text text-anchor="start" x="362" y="-165.5" font-family="Helvetica,sans-Serif" font-size="10.00">v8::PersistentValueMapBase</text>
<text text-anchor="middle" x="425" y="-154.5" font-family="Helvetica,sans-Serif" font-size="10.00">::ClearAndLeak</text>
</a>
</g>
</g>
<!-- Node3&#45;&gt;Node4 -->
<g id="edge3" class="edge">
<title>Node3&#45;&gt;Node4</title>
<path fill="none" stroke="midnightblue" d="M295.41,-103.51C303.11,-106.49 310.88,-109.84 318,-113.5 335.32,-122.41 336.62,-129.7 354,-138.5 357.51,-140.28 361.18,-141.97 364.93,-143.58"/>
<polygon fill="midnightblue" stroke="midnightblue" points="363.75,-146.88 374.34,-147.39 366.38,-140.39 363.75,-146.88"/>
</g>
<!-- Node5 -->
<g id="node5" class="node">
<title>Node5</title>
<g id="a_node5"><a xlink:href="classv8_1_1PersistentValueMapBase.html#aacd576258fbffaf366436a6ecdd8cdf5" target="_top" xlink:title=" ">
<polygon fill="white" stroke="black" points="354,-98.5 354,-128.5 496,-128.5 496,-98.5 354,-98.5"/>
<text text-anchor="start" x="362" y="-116.5" font-family="Helvetica,sans-Serif" font-size="10.00">v8::PersistentValueMapBase</text>
<text text-anchor="middle" x="425" y="-105.5" font-family="Helvetica,sans-Serif" font-size="10.00">::impl</text>
</a>
</g>
</g>
<!-- Node3&#45;&gt;Node5 -->
<g id="edge4" class="edge">
<title>Node3&#45;&gt;Node5</title>
<path fill="none" stroke="midnightblue" d="M317.05,-98.31C325.87,-99.56 334.95,-100.85 343.93,-102.13"/>
<polygon fill="midnightblue" stroke="midnightblue" points="343.59,-105.61 353.99,-103.56 344.58,-98.68 343.59,-105.61"/>
</g>
<!-- Node6 -->
<g id="node6" class="node">
<title>Node6</title>
<g id="a_node6"><a xlink:href="classv8_1_1PersistentValueMapBase.html#af2e83791955c6027213dd979eebeb8f4" target="_top" xlink:title=" ">
<polygon fill="white" stroke="black" points="354,-49.5 354,-79.5 496,-79.5 496,-49.5 354,-49.5"/>
<text text-anchor="start" x="362" y="-67.5" font-family="Helvetica,sans-Serif" font-size="10.00">v8::PersistentValueMapBase</text>
<text text-anchor="middle" x="425" y="-56.5" font-family="Helvetica,sans-Serif" font-size="10.00">::isolate</text>
</a>
</g>
</g>
<!-- Node3&#45;&gt;Node6 -->
<g id="edge5" class="edge">
<title>Node3&#45;&gt;Node6</title>
<path fill="none" stroke="midnightblue" d="M317.05,-79.08C325.87,-77.88 334.95,-76.64 343.93,-75.42"/>
<polygon fill="midnightblue" stroke="midnightblue" points="344.55,-78.87 353.99,-74.05 343.61,-71.93 344.55,-78.87"/>
</g>
<!-- Node7 -->
<g id="node7" class="node">
<title>Node7</title>
<g id="a_node7"><a xlink:href="classv8_1_1PersistentValueMapBase.html#ae4e89289ea520ab3ad6b069ddff77ed5" target="_top" xlink:title=" ">
<polygon fill="white" stroke="black" points="354,-0.5 354,-30.5 496,-30.5 496,-0.5 354,-0.5"/>
<text text-anchor="start" x="362" y="-18.5" font-family="Helvetica,sans-Serif" font-size="10.00">v8::PersistentValueMapBase</text>
<text text-anchor="middle" x="425" y="-7.5" font-family="Helvetica,sans-Serif" font-size="10.00">::Release</text>
</a>
</g>
</g>
<!-- Node3&#45;&gt;Node7 -->
<g id="edge6" class="edge">
<title>Node3&#45;&gt;Node7</title>
<path fill="none" stroke="midnightblue" d="M279.71,-73.32C300.62,-63.51 328.72,-50.72 354,-40.5 359.37,-38.33 365,-36.16 370.64,-34.04"/>
<polygon fill="midnightblue" stroke="midnightblue" points="371.93,-37.3 380.1,-30.55 369.51,-30.73 371.93,-37.3"/>
</g>
</g>
</svg>
