<?xml version="1.0" encoding="UTF-8" standalone="no"?>
<!DOCTYPE svg PUBLIC "-//W3C//DTD SVG 1.1//EN"
 "http://www.w3.org/Graphics/SVG/1.1/DTD/svg11.dtd">
<!-- Generated by graphviz version 2.44.0 ()
 -->
<!-- Title: v8::PhantomPersistentValueMap::Set Pages: 1 -->
<svg width="502pt" height="186pt"
 viewBox="0.00 0.00 502.00 186.00" xmlns="http://www.w3.org/2000/svg" xmlns:xlink="http://www.w3.org/1999/xlink">
<g id="graph0" class="graph" transform="scale(1 1) rotate(0) translate(4 182)">
<title>v8::PhantomPersistentValueMap::Set</title>
<polygon fill="white" stroke="transparent" points="-4,4 -4,-182 498,-182 498,4 -4,4"/>
<!-- Node1 -->
<g id="node1" class="node">
<title>Node1</title>
<g id="a_node1"><a xlink:title=" ">
<polygon fill="#bfbfbf" stroke="black" points="0,-73.5 0,-103.5 140,-103.5 140,-73.5 0,-73.5"/>
<text text-anchor="start" x="8" y="-91.5" font-family="Helvetica,sans-Serif" font-size="10.00">v8::PhantomPersistentValue</text>
<text text-anchor="middle" x="70" y="-80.5" font-family="Helvetica,sans-Serif" font-size="10.00">Map::Set</text>
</a>
</g>
</g>
<!-- Node2 -->
<g id="node2" class="node">
<title>Node2</title>
<g id="a_node2"><a xlink:href="classv8_1_1PhantomPersistentValueMap.html#a71befa11bba57788a7a407a61fe0647c" target="_top" xlink:title=" ">
<polygon fill="white" stroke="black" points="176,-73.5 176,-103.5 316,-103.5 316,-73.5 176,-73.5"/>
<text text-anchor="start" x="184" y="-91.5" font-family="Helvetica,sans-Serif" font-size="10.00">v8::PhantomPersistentValue</text>
<text text-anchor="middle" x="246" y="-80.5" font-family="Helvetica,sans-Serif" font-size="10.00">Map::SetUnique</text>
</a>
</g>
</g>
<!-- Node1&#45;&gt;Node2 -->
<g id="edge1" class="edge">
<title>Node1&#45;&gt;Node2</title>
<path fill="none" stroke="midnightblue" d="M140.02,-88.5C148.48,-88.5 157.17,-88.5 165.76,-88.5"/>
<polygon fill="midnightblue" stroke="midnightblue" points="165.78,-92 175.78,-88.5 165.78,-85 165.78,-92"/>
</g>
<!-- Node3 -->
<g id="node3" class="node">
<title>Node3</title>
<g id="a_node3"><a xlink:href="classv8_1_1PersistentValueMapBase.html#a639f2b3a7f41e389a71792fe9d1aeb7c" target="_top" xlink:title=" ">
<polygon fill="white" stroke="black" points="352,-147.5 352,-177.5 494,-177.5 494,-147.5 352,-147.5"/>
<text text-anchor="start" x="360" y="-165.5" font-family="Helvetica,sans-Serif" font-size="10.00">v8::PersistentValueMapBase</text>
<text text-anchor="middle" x="423" y="-154.5" font-family="Helvetica,sans-Serif" font-size="10.00">::ClearAndLeak</text>
</a>
</g>
</g>
<!-- Node2&#45;&gt;Node3 -->
<g id="edge2" class="edge">
<title>Node2&#45;&gt;Node3</title>
<path fill="none" stroke="midnightblue" d="M276.47,-103.64C297.29,-114.07 326.01,-127.9 352,-138.5 356.64,-140.39 361.49,-142.27 366.38,-144.08"/>
<polygon fill="midnightblue" stroke="midnightblue" points="365.19,-147.37 375.78,-147.49 367.58,-140.79 365.19,-147.37"/>
</g>
<!-- Node4 -->
<g id="node4" class="node">
<title>Node4</title>
<g id="a_node4"><a xlink:href="classv8_1_1PersistentValueMapBase.html#aacd576258fbffaf366436a6ecdd8cdf5" target="_top" xlink:title=" ">
<polygon fill="white" stroke="black" points="352,-98.5 352,-128.5 494,-128.5 494,-98.5 352,-98.5"/>
<text text-anchor="start" x="360" y="-116.5" font-family="Helvetica,sans-Serif" font-size="10.00">v8::PersistentValueMapBase</text>
<text text-anchor="middle" x="423" y="-105.5" font-family="Helvetica,sans-Serif" font-size="10.00">::impl</text>
</a>
</g>
</g>
<!-- Node2&#45;&gt;Node4 -->
<g id="edge3" class="edge">
<title>Node2&#45;&gt;Node4</title>
<path fill="none" stroke="midnightblue" d="M316.16,-98.38C324.61,-99.59 333.3,-100.83 341.88,-102.05"/>
<polygon fill="midnightblue" stroke="midnightblue" points="341.51,-105.54 351.9,-103.49 342.5,-98.61 341.51,-105.54"/>
</g>
<!-- Node5 -->
<g id="node5" class="node">
<title>Node5</title>
<g id="a_node5"><a xlink:href="classv8_1_1PersistentValueMapBase.html#af2e83791955c6027213dd979eebeb8f4" target="_top" xlink:title=" ">
<polygon fill="white" stroke="black" points="352,-49.5 352,-79.5 494,-79.5 494,-49.5 352,-49.5"/>
<text text-anchor="start" x="360" y="-67.5" font-family="Helvetica,sans-Serif" font-size="10.00">v8::PersistentValueMapBase</text>
<text text-anchor="middle" x="423" y="-56.5" font-family="Helvetica,sans-Serif" font-size="10.00">::isolate</text>
</a>
</g>
</g>
<!-- Node2&#45;&gt;Node5 -->
<g id="edge4" class="edge">
<title>Node2&#45;&gt;Node5</title>
<path fill="none" stroke="midnightblue" d="M316.16,-79.01C324.61,-77.86 333.3,-76.67 341.88,-75.49"/>
<polygon fill="midnightblue" stroke="midnightblue" points="342.47,-78.94 351.9,-74.11 341.52,-72 342.47,-78.94"/>
</g>
<!-- Node6 -->
<g id="node6" class="node">
<title>Node6</title>
<g id="a_node6"><a xlink:href="classv8_1_1PersistentValueMapBase.html#ae4e89289ea520ab3ad6b069ddff77ed5" target="_top" xlink:title=" ">
<polygon fill="white" stroke="black" points="352,-0.5 352,-30.5 494,-30.5 494,-0.5 352,-0.5"/>
<text text-anchor="start" x="360" y="-18.5" font-family="Helvetica,sans-Serif" font-size="10.00">v8::PersistentValueMapBase</text>
<text text-anchor="middle" x="423" y="-7.5" font-family="Helvetica,sans-Serif" font-size="10.00">::Release</text>
</a>
</g>
</g>
<!-- Node2&#45;&gt;Node6 -->
<g id="edge5" class="edge">
<title>Node2&#45;&gt;Node6</title>
<path fill="none" stroke="midnightblue" d="M278.4,-73.29C299.1,-63.48 326.93,-50.68 352,-40.5 357.36,-38.32 362.99,-36.14 368.63,-34.02"/>
<polygon fill="midnightblue" stroke="midnightblue" points="369.92,-37.28 378.09,-30.53 367.5,-30.71 369.92,-37.28"/>
</g>
</g>
</svg>
