<?xml version="1.0" encoding="UTF-8" standalone="no"?>
<!DOCTYPE svg PUBLIC "-//W3C//DTD SVG 1.1//EN"
 "http://www.w3.org/Graphics/SVG/1.1/DTD/svg11.dtd">
<!-- Generated by graphviz version 2.44.0 ()
 -->
<!-- Title: v8::Isolate::GetCurrent Pages: 1 -->
<svg width="321pt" height="917pt"
 viewBox="0.00 0.00 321.00 917.00" xmlns="http://www.w3.org/2000/svg" xmlns:xlink="http://www.w3.org/1999/xlink">
<g id="graph0" class="graph" transform="scale(1 1) rotate(0) translate(4 913)">
<title>v8::Isolate::GetCurrent</title>
<polygon fill="white" stroke="transparent" points="-4,4 -4,-913 317,-913 317,4 -4,4"/>
<!-- Node1 -->
<g id="node1" class="node">
<title>Node1</title>
<g id="a_node1"><a xlink:title=" ">
<polygon fill="#bfbfbf" stroke="black" points="200,-414 200,-433 313,-433 313,-414 200,-414"/>
<text text-anchor="middle" x="256.5" y="-421" font-family="Helvetica,sans-Serif" font-size="10.00">v8::Isolate::GetCurrent</text>
</a>
</g>
</g>
<!-- Node2 -->
<g id="node2" class="node">
<title>Node2</title>
<g id="a_node2"><a xlink:href="classv8_1_1V8.html#ad2d640d45bc1a675c5605bb9c5958b29" target="_top" xlink:title=" ">
<polygon fill="white" stroke="black" points="10.5,-878.5 10.5,-908.5 153.5,-908.5 153.5,-878.5 10.5,-878.5"/>
<text text-anchor="start" x="18.5" y="-896.5" font-family="Helvetica,sans-Serif" font-size="10.00">v8::V8::AddMemoryAllocation</text>
<text text-anchor="middle" x="82" y="-885.5" font-family="Helvetica,sans-Serif" font-size="10.00">Callback</text>
</a>
</g>
</g>
<!-- Node1&#45;&gt;Node2 -->
<g id="edge1" class="edge">
<title>Node1&#45;&gt;Node2</title>
<path fill="none" stroke="midnightblue" d="M254.06,-443.41C248.02,-521.28 222.37,-804.2 164,-868.5 160.54,-872.31 156.51,-875.55 152.13,-878.3"/>
<polygon fill="midnightblue" stroke="midnightblue" points="257.57,-443.32 254.83,-433.09 250.59,-442.8 257.57,-443.32"/>
</g>
<!-- Node3 -->
<g id="node3" class="node">
<title>Node3</title>
<g id="a_node3"><a xlink:href="classv8_1_1V8.html#a4e8ca19596400bd4df6a345f66daf937" target="_top" xlink:title=" ">
<polygon fill="white" stroke="black" points="12,-840 12,-859 152,-859 152,-840 12,-840"/>
<text text-anchor="middle" x="82" y="-847" font-family="Helvetica,sans-Serif" font-size="10.00">v8::V8::AddMessageListener</text>
</a>
</g>
</g>
<!-- Node1&#45;&gt;Node3 -->
<g id="edge2" class="edge">
<title>Node1&#45;&gt;Node3</title>
<path fill="none" stroke="midnightblue" d="M253.8,-443.22C247.05,-516.84 219.76,-774.22 164,-830.5 160.24,-834.3 155.87,-837.39 151.15,-839.91"/>
<polygon fill="midnightblue" stroke="midnightblue" points="257.3,-443.32 254.71,-433.05 250.33,-442.69 257.3,-443.32"/>
</g>
<!-- Node4 -->
<g id="node4" class="node">
<title>Node4</title>
<g id="a_node4"><a xlink:href="classv8_1_1V8.html#ae5af79b24fc62e987e08c43ee148424d" target="_top" xlink:title=" ">
<polygon fill="white" stroke="black" points="42.5,-802 42.5,-821 121.5,-821 121.5,-802 42.5,-802"/>
<text text-anchor="middle" x="82" y="-809" font-family="Helvetica,sans-Serif" font-size="10.00">v8::V8::IsDead</text>
</a>
</g>
</g>
<!-- Node1&#45;&gt;Node4 -->
<g id="edge3" class="edge">
<title>Node1&#45;&gt;Node4</title>
<path fill="none" stroke="midnightblue" d="M253.32,-443.15C245.25,-512.2 214.94,-742.2 164,-792.5 152.9,-803.46 136.75,-808.55 121.78,-810.78"/>
<polygon fill="midnightblue" stroke="midnightblue" points="256.8,-443.51 254.46,-433.18 249.84,-442.71 256.8,-443.51"/>
</g>
<!-- Node5 -->
<g id="node5" class="node">
<title>Node5</title>
<g id="a_node5"><a xlink:href="classv8_1_1V8.html#ac9336f620bc684ff6e3c68ee6f549d18" target="_top" xlink:title=" ">
<polygon fill="white" stroke="black" points="7.5,-764 7.5,-783 156.5,-783 156.5,-764 7.5,-764"/>
<text text-anchor="middle" x="82" y="-771" font-family="Helvetica,sans-Serif" font-size="10.00">v8::V8::IsExecutionTerminating</text>
</a>
</g>
</g>
<!-- Node1&#45;&gt;Node5 -->
<g id="edge4" class="edge">
<title>Node1&#45;&gt;Node5</title>
<path fill="none" stroke="midnightblue" d="M252.72,-443.18C243.22,-507.53 210.12,-710.16 164,-754.5 160.04,-758.3 155.48,-761.4 150.57,-763.91"/>
<polygon fill="midnightblue" stroke="midnightblue" points="256.2,-443.54 254.17,-433.15 249.27,-442.54 256.2,-443.54"/>
</g>
<!-- Node6 -->
<g id="node6" class="node">
<title>Node6</title>
<g id="a_node6"><a xlink:href="classv8_1_1V8.html#aee4cfeb1a6153e2e6488fb8e3c1ac6ce" target="_top" xlink:title=" ">
<polygon fill="white" stroke="black" points="14.5,-714.5 14.5,-744.5 149.5,-744.5 149.5,-714.5 14.5,-714.5"/>
<text text-anchor="start" x="22.5" y="-732.5" font-family="Helvetica,sans-Serif" font-size="10.00">v8::V8::RemoveGCEpilogue</text>
<text text-anchor="middle" x="82" y="-721.5" font-family="Helvetica,sans-Serif" font-size="10.00">Callback</text>
</a>
</g>
</g>
<!-- Node1&#45;&gt;Node6 -->
<g id="edge5" class="edge">
<title>Node1&#45;&gt;Node6</title>
<path fill="none" stroke="midnightblue" d="M255.08,-443.16C252.9,-494.09 239.9,-631.52 164,-705.5 159.8,-709.59 154.93,-713 149.71,-715.82"/>
<polygon fill="midnightblue" stroke="midnightblue" points="258.58,-443.26 255.41,-433.15 251.58,-443.03 258.58,-443.26"/>
</g>
<!-- Node7 -->
<g id="node7" class="node">
<title>Node7</title>
<g id="a_node7"><a xlink:href="classv8_1_1V8.html#ae2b102e4db324cf06a92fd9acdd6b112" target="_top" xlink:title=" ">
<polygon fill="white" stroke="black" points="13.5,-665.5 13.5,-695.5 150.5,-695.5 150.5,-665.5 13.5,-665.5"/>
<text text-anchor="start" x="21.5" y="-683.5" font-family="Helvetica,sans-Serif" font-size="10.00">v8::V8::RemoveGCPrologue</text>
<text text-anchor="middle" x="82" y="-672.5" font-family="Helvetica,sans-Serif" font-size="10.00">Callback</text>
</a>
</g>
</g>
<!-- Node1&#45;&gt;Node7 -->
<g id="edge6" class="edge">
<title>Node1&#45;&gt;Node7</title>
<path fill="none" stroke="midnightblue" d="M253.52,-443.27C247.98,-487.99 228.22,-597.58 164,-656.5 160,-660.17 155.47,-663.28 150.63,-665.91"/>
<polygon fill="midnightblue" stroke="midnightblue" points="257.02,-443.47 254.67,-433.14 250.06,-442.69 257.02,-443.47"/>
</g>
<!-- Node8 -->
<g id="node8" class="node">
<title>Node8</title>
<g id="a_node8"><a xlink:href="classv8_1_1V8.html#a2e188bdc8a4afccad8e326e2a43e582e" target="_top" xlink:title=" ">
<polygon fill="white" stroke="black" points="1.5,-616.5 1.5,-646.5 162.5,-646.5 162.5,-616.5 1.5,-616.5"/>
<text text-anchor="start" x="9.5" y="-634.5" font-family="Helvetica,sans-Serif" font-size="10.00">v8::V8::RemoveMemoryAllocation</text>
<text text-anchor="middle" x="82" y="-623.5" font-family="Helvetica,sans-Serif" font-size="10.00">Callback</text>
</a>
</g>
</g>
<!-- Node1&#45;&gt;Node8 -->
<g id="edge7" class="edge">
<title>Node1&#45;&gt;Node8</title>
<path fill="none" stroke="midnightblue" d="M251.11,-443.22C241.75,-480.64 216.3,-562.16 164,-606.5 159.4,-610.4 154.19,-613.7 148.69,-616.48"/>
<polygon fill="midnightblue" stroke="midnightblue" points="254.6,-443.65 253.51,-433.11 247.79,-442.03 254.6,-443.65"/>
</g>
<!-- Node9 -->
<g id="node9" class="node">
<title>Node9</title>
<g id="a_node9"><a xlink:href="classv8_1_1V8.html#a103099e00d03c714261e00d75f0d745a" target="_top" xlink:title=" ">
<polygon fill="white" stroke="black" points="0,-578 0,-597 164,-597 164,-578 0,-578"/>
<text text-anchor="middle" x="82" y="-585" font-family="Helvetica,sans-Serif" font-size="10.00">v8::V8::RemoveMessageListeners</text>
</a>
</g>
</g>
<!-- Node1&#45;&gt;Node9 -->
<g id="edge8" class="edge">
<title>Node1&#45;&gt;Node9</title>
<path fill="none" stroke="midnightblue" d="M248.84,-442.86C236.98,-474.34 209.1,-536.36 164,-568.5 158.59,-572.36 152.51,-575.44 146.17,-577.9"/>
<polygon fill="midnightblue" stroke="midnightblue" points="252.26,-443.69 252.37,-433.09 245.68,-441.31 252.26,-443.69"/>
</g>
<!-- Node10 -->
<g id="node10" class="node">
<title>Node10</title>
<g id="a_node10"><a xlink:href="classv8_1_1V8.html#a699f7f6cd694d83ebf3cf28b0137b811" target="_top" xlink:title=" ">
<polygon fill="white" stroke="black" points="3.5,-528.5 3.5,-558.5 160.5,-558.5 160.5,-528.5 3.5,-528.5"/>
<text text-anchor="start" x="11.5" y="-546.5" font-family="Helvetica,sans-Serif" font-size="10.00">v8::V8::SetAllowCodeGeneration</text>
<text text-anchor="middle" x="82" y="-535.5" font-family="Helvetica,sans-Serif" font-size="10.00">FromStringsCallback</text>
</a>
</g>
</g>
<!-- Node1&#45;&gt;Node10 -->
<g id="edge9" class="edge">
<title>Node1&#45;&gt;Node10</title>
<path fill="none" stroke="midnightblue" d="M242.94,-441.57C227,-463.19 197.52,-499.01 164,-519.5 158.37,-522.94 152.21,-525.92 145.9,-528.48"/>
<polygon fill="midnightblue" stroke="midnightblue" points="245.92,-443.43 248.92,-433.27 240.24,-439.34 245.92,-443.43"/>
</g>
<!-- Node11 -->
<g id="node11" class="node">
<title>Node11</title>
<g id="a_node11"><a xlink:href="classv8_1_1V8.html#a6ed3c6cd32b8d225013445b145381d34" target="_top" xlink:title=" ">
<polygon fill="white" stroke="black" points="8.5,-479.5 8.5,-509.5 155.5,-509.5 155.5,-479.5 8.5,-479.5"/>
<text text-anchor="start" x="16.5" y="-497.5" font-family="Helvetica,sans-Serif" font-size="10.00">v8::V8::SetCaptureStackTrace</text>
<text text-anchor="middle" x="82" y="-486.5" font-family="Helvetica,sans-Serif" font-size="10.00">ForUncaughtExceptions</text>
</a>
</g>
</g>
<!-- Node1&#45;&gt;Node11 -->
<g id="edge10" class="edge">
<title>Node1&#45;&gt;Node11</title>
<path fill="none" stroke="midnightblue" d="M230.33,-438.05C212.27,-448.08 187.15,-461.22 164,-470.5 155.97,-473.72 147.34,-476.73 138.81,-479.46"/>
<polygon fill="midnightblue" stroke="midnightblue" points="232.08,-441.08 239.07,-433.12 228.64,-434.98 232.08,-441.08"/>
</g>
<!-- Node12 -->
<g id="node12" class="node">
<title>Node12</title>
<g id="a_node12"><a xlink:href="classv8_1_1V8.html#affcb65e1fdf849fadc6302655b981bbc" target="_top" xlink:title=" ">
<polygon fill="white" stroke="black" points="7,-430.5 7,-460.5 157,-460.5 157,-430.5 7,-430.5"/>
<text text-anchor="start" x="15" y="-448.5" font-family="Helvetica,sans-Serif" font-size="10.00">v8::V8::SetFailedAccessCheck</text>
<text text-anchor="middle" x="82" y="-437.5" font-family="Helvetica,sans-Serif" font-size="10.00">CallbackFunction</text>
</a>
</g>
</g>
<!-- Node1&#45;&gt;Node12 -->
<g id="edge11" class="edge">
<title>Node1&#45;&gt;Node12</title>
<path fill="none" stroke="midnightblue" d="M189.91,-431.86C179.25,-433.22 168.15,-434.64 157.3,-436.02"/>
<polygon fill="midnightblue" stroke="midnightblue" points="190.49,-435.32 199.97,-430.58 189.61,-428.38 190.49,-435.32"/>
</g>
<!-- Node13 -->
<g id="node13" class="node">
<title>Node13</title>
<g id="a_node13"><a xlink:href="classv8_1_1V8.html#a290bf883bb4bf8f312089a23a628c067" target="_top" xlink:title=" ">
<polygon fill="white" stroke="black" points="12.5,-392 12.5,-411 151.5,-411 151.5,-392 12.5,-392"/>
<text text-anchor="middle" x="82" y="-399" font-family="Helvetica,sans-Serif" font-size="10.00">v8::V8::SetFatalErrorHandler</text>
</a>
</g>
</g>
<!-- Node1&#45;&gt;Node13 -->
<g id="edge12" class="edge">
<title>Node1&#45;&gt;Node13</title>
<path fill="none" stroke="midnightblue" d="M189.7,-415.11C177.27,-413.52 164.24,-411.86 151.73,-410.27"/>
<polygon fill="midnightblue" stroke="midnightblue" points="189.61,-418.62 199.97,-416.42 190.49,-411.68 189.61,-418.62"/>
</g>
<!-- Node14 -->
<g id="node14" class="node">
<title>Node14</title>
<g id="a_node14"><a xlink:href="classv8_1_1Value.html#a155927c52d88aa0145a55484b3035171" target="_top" xlink:title=" ">
<polygon fill="white" stroke="black" points="28.5,-354 28.5,-373 135.5,-373 135.5,-354 28.5,-354"/>
<text text-anchor="middle" x="82" y="-361" font-family="Helvetica,sans-Serif" font-size="10.00">v8::Value::ToBoolean</text>
</a>
</g>
</g>
<!-- Node1&#45;&gt;Node14 -->
<g id="edge13" class="edge">
<title>Node1&#45;&gt;Node14</title>
<path fill="none" stroke="midnightblue" d="M227.75,-409.39C209.89,-400.74 185.99,-389.93 164,-382.5 153.33,-378.89 141.64,-375.72 130.54,-373.05"/>
<polygon fill="midnightblue" stroke="midnightblue" points="226.48,-412.67 236.99,-413.95 229.57,-406.39 226.48,-412.67"/>
</g>
<!-- Node15 -->
<g id="node15" class="node">
<title>Node15</title>
<g id="a_node15"><a xlink:href="classv8_1_1Value.html#a252d8ff83acb9af12fca51f08cf855fc" target="_top" xlink:title=" ">
<polygon fill="white" stroke="black" points="21,-316 21,-335 143,-335 143,-316 21,-316"/>
<text text-anchor="middle" x="82" y="-323" font-family="Helvetica,sans-Serif" font-size="10.00">v8::Value::ToDetailString</text>
</a>
</g>
</g>
<!-- Node1&#45;&gt;Node15 -->
<g id="edge14" class="edge">
<title>Node1&#45;&gt;Node15</title>
<path fill="none" stroke="midnightblue" d="M240.39,-406.25C223.56,-388.12 194.65,-360.12 164,-344.5 156.41,-340.63 148.01,-337.54 139.59,-335.06"/>
<polygon fill="midnightblue" stroke="midnightblue" points="237.93,-408.74 247.24,-413.8 243.12,-404.04 237.93,-408.74"/>
</g>
<!-- Node16 -->
<g id="node16" class="node">
<title>Node16</title>
<g id="a_node16"><a xlink:href="classv8_1_1Value.html#a9f0fbbd6cfd95af7b7d8e0ccc9cf75f2" target="_top" xlink:title=" ">
<polygon fill="white" stroke="black" points="35,-278 35,-297 129,-297 129,-278 35,-278"/>
<text text-anchor="middle" x="82" y="-285" font-family="Helvetica,sans-Serif" font-size="10.00">v8::Value::ToInt32</text>
</a>
</g>
</g>
<!-- Node1&#45;&gt;Node16 -->
<g id="edge15" class="edge">
<title>Node1&#45;&gt;Node16</title>
<path fill="none" stroke="midnightblue" d="M246.23,-404.91C232.17,-378.72 202.92,-331.38 164,-306.5 153.66,-299.89 141.25,-295.57 129.29,-292.76"/>
<polygon fill="midnightblue" stroke="midnightblue" points="243.14,-406.57 250.86,-413.82 249.35,-403.34 243.14,-406.57"/>
</g>
<!-- Node17 -->
<g id="node17" class="node">
<title>Node17</title>
<g id="a_node17"><a xlink:href="classv8_1_1Value.html#a5d79bcfef2172049c6d0ecfe3a382323" target="_top" xlink:title=" ">
<polygon fill="white" stroke="black" points="31,-240 31,-259 133,-259 133,-240 31,-240"/>
<text text-anchor="middle" x="82" y="-247" font-family="Helvetica,sans-Serif" font-size="10.00">v8::Value::ToInteger</text>
</a>
</g>
</g>
<!-- Node1&#45;&gt;Node17 -->
<g id="edge16" class="edge">
<title>Node1&#45;&gt;Node17</title>
<path fill="none" stroke="midnightblue" d="M249.54,-403.75C238.43,-370.42 211.28,-303.26 164,-268.5 155.04,-261.91 144.14,-257.57 133.28,-254.71"/>
<polygon fill="midnightblue" stroke="midnightblue" points="246.33,-405.19 252.7,-413.66 253,-403.07 246.33,-405.19"/>
</g>
<!-- Node18 -->
<g id="node18" class="node">
<title>Node18</title>
<g id="a_node18"><a xlink:href="classv8_1_1Value.html#af11bb17e54339256ade5979779ccd218" target="_top" xlink:title=" ">
<polygon fill="white" stroke="black" points="28.5,-202 28.5,-221 135.5,-221 135.5,-202 28.5,-202"/>
<text text-anchor="middle" x="82" y="-209" font-family="Helvetica,sans-Serif" font-size="10.00">v8::Value::ToNumber</text>
</a>
</g>
</g>
<!-- Node1&#45;&gt;Node18 -->
<g id="edge17" class="edge">
<title>Node1&#45;&gt;Node18</title>
<path fill="none" stroke="midnightblue" d="M252,-403.7C243.95,-364.3 220.32,-275.97 164,-230.5 155.91,-223.97 145.96,-219.61 135.84,-216.71"/>
<polygon fill="midnightblue" stroke="midnightblue" points="248.58,-404.48 253.91,-413.65 255.46,-403.16 248.58,-404.48"/>
</g>
<!-- Node19 -->
<g id="node19" class="node">
<title>Node19</title>
<g id="a_node19"><a xlink:href="classv8_1_1Value.html#ac4c1254c7bd010dc8c307a3e9a771dc6" target="_top" xlink:title=" ">
<polygon fill="white" stroke="black" points="31.5,-164 31.5,-183 132.5,-183 132.5,-164 31.5,-164"/>
<text text-anchor="middle" x="82" y="-171" font-family="Helvetica,sans-Serif" font-size="10.00">v8::Value::ToObject</text>
</a>
</g>
</g>
<!-- Node1&#45;&gt;Node19 -->
<g id="edge18" class="edge">
<title>Node1&#45;&gt;Node19</title>
<path fill="none" stroke="midnightblue" d="M253.7,-403.63C248.52,-358.75 229.49,-249.02 164,-192.5 155.25,-184.95 144.06,-180.26 132.81,-177.39"/>
<polygon fill="midnightblue" stroke="midnightblue" points="250.24,-404.22 254.76,-413.8 257.2,-403.49 250.24,-404.22"/>
</g>
<!-- Node20 -->
<g id="node20" class="node">
<title>Node20</title>
<g id="a_node20"><a xlink:href="classv8_1_1Value.html#a1a61145878edc60ae25d5dc57bc44d6d" target="_top" xlink:title=" ">
<polygon fill="white" stroke="black" points="33,-126 33,-145 131,-145 131,-126 33,-126"/>
<text text-anchor="middle" x="82" y="-133" font-family="Helvetica,sans-Serif" font-size="10.00">v8::Value::ToString</text>
</a>
</g>
</g>
<!-- Node1&#45;&gt;Node20 -->
<g id="edge19" class="edge">
<title>Node1&#45;&gt;Node20</title>
<path fill="none" stroke="midnightblue" d="M254.97,-403.84C252.52,-354.1 238.92,-222.45 164,-154.5 155.01,-146.35 143.2,-141.5 131.39,-138.67"/>
<polygon fill="midnightblue" stroke="midnightblue" points="251.48,-404.04 255.36,-413.9 258.47,-403.77 251.48,-404.04"/>
</g>
<!-- Node21 -->
<g id="node21" class="node">
<title>Node21</title>
<g id="a_node21"><a xlink:href="classv8_1_1Value.html#a6607c42219918519b1a1ad31fcffafbb" target="_top" xlink:title=" ">
<polygon fill="white" stroke="black" points="31.5,-88 31.5,-107 132.5,-107 132.5,-88 31.5,-88"/>
<text text-anchor="middle" x="82" y="-95" font-family="Helvetica,sans-Serif" font-size="10.00">v8::Value::ToUint32</text>
</a>
</g>
</g>
<!-- Node1&#45;&gt;Node21 -->
<g id="edge20" class="edge">
<title>Node1&#45;&gt;Node21</title>
<path fill="none" stroke="midnightblue" d="M255.93,-403.69C255.99,-349.2 248.26,-195.91 164,-116.5 155.49,-108.48 144.25,-103.63 132.87,-100.75"/>
<polygon fill="midnightblue" stroke="midnightblue" points="252.43,-403.72 255.83,-413.75 259.43,-403.79 252.43,-403.72"/>
</g>
<!-- Node22 -->
<g id="node22" class="node">
<title>Node22</title>
<g id="a_node22"><a xlink:href="classv8_1_1V8.html#a7eb03e6ab4e2eca21632e55a4ad30061" target="_top" xlink:title=" ">
<polygon fill="white" stroke="black" points="7.5,-50 7.5,-69 156.5,-69 156.5,-50 7.5,-50"/>
<text text-anchor="middle" x="82" y="-57" font-family="Helvetica,sans-Serif" font-size="10.00">v8::V8::VisitExternalResources</text>
</a>
</g>
</g>
<!-- Node1&#45;&gt;Node22 -->
<g id="edge21" class="edge">
<title>Node1&#45;&gt;Node22</title>
<path fill="none" stroke="midnightblue" d="M252.95,-403.85C244,-337.76 211.9,-125.03 164,-78.5 160.06,-74.68 155.51,-71.57 150.61,-69.05"/>
<polygon fill="midnightblue" stroke="midnightblue" points="249.49,-404.34 254.27,-413.79 256.43,-403.41 249.49,-404.34"/>
</g>
<!-- Node23 -->
<g id="node23" class="node">
<title>Node23</title>
<g id="a_node23"><a xlink:href="classv8_1_1V8.html#a824fd99c5cbc7c576370c9ffeca233d4" target="_top" xlink:title=" ">
<polygon fill="white" stroke="black" points="20.5,-0.5 20.5,-30.5 143.5,-30.5 143.5,-0.5 20.5,-0.5"/>
<text text-anchor="start" x="28.5" y="-18.5" font-family="Helvetica,sans-Serif" font-size="10.00">v8::V8::VisitHandlesWith</text>
<text text-anchor="middle" x="82" y="-7.5" font-family="Helvetica,sans-Serif" font-size="10.00">ClassIds</text>
</a>
</g>
</g>
<!-- Node1&#45;&gt;Node23 -->
<g id="edge22" class="edge">
<title>Node1&#45;&gt;Node23</title>
<path fill="none" stroke="midnightblue" d="M253.35,-403.7C245.31,-333.05 214.81,-94.72 164,-40.5 158.36,-34.49 151.32,-29.91 143.75,-26.42"/>
<polygon fill="midnightblue" stroke="midnightblue" points="249.9,-404.33 254.49,-413.88 256.86,-403.55 249.9,-404.33"/>
</g>
</g>
</svg>
