<?xml version="1.0" encoding="UTF-8" standalone="no"?>
<!DOCTYPE svg PUBLIC "-//W3C//DTD SVG 1.1//EN"
 "http://www.w3.org/Graphics/SVG/1.1/DTD/svg11.dtd">
<!-- Generated by graphviz version 2.44.0 ()
 -->
<!-- Title: v8::internal::CallbackData&lt; T &gt; Pages: 1 -->
<svg width="326pt" height="163pt"
 viewBox="0.00 0.00 326.00 163.00" xmlns="http://www.w3.org/2000/svg" xmlns:xlink="http://www.w3.org/1999/xlink">
<g id="graph0" class="graph" transform="scale(1 1) rotate(0) translate(4 159)">
<title>v8::internal::CallbackData&lt; T &gt;</title>
<polygon fill="white" stroke="transparent" points="-4,4 -4,-159 322,-159 322,4 -4,4"/>
<!-- Node1 -->
<g id="node1" class="node">
<title>Node1</title>
<g id="a_node1"><a xlink:title=" ">
<polygon fill="#bfbfbf" stroke="black" points="51.5,-135.5 51.5,-154.5 199.5,-154.5 199.5,-135.5 51.5,-135.5"/>
<text text-anchor="middle" x="125.5" y="-142.5" font-family="Helvetica,sans-Serif" font-size="10.00">v8::internal::CallbackData&lt; T &gt;</text>
</a>
</g>
</g>
<!-- Node2 -->
<g id="node2" class="node">
<title>Node2</title>
<g id="a_node2"><a xlink:href="classv8_1_1PhantomCallbackData.html" target="_top" xlink:title=" ">
<polygon fill="white" stroke="black" points="0,-68.5 0,-87.5 151,-87.5 151,-68.5 0,-68.5"/>
<text text-anchor="middle" x="75.5" y="-75.5" font-family="Helvetica,sans-Serif" font-size="10.00">v8::PhantomCallbackData&lt; T &gt;</text>
</a>
</g>
</g>
<!-- Node1&#45;&gt;Node2 -->
<g id="edge1" class="edge">
<title>Node1&#45;&gt;Node2</title>
<path fill="none" stroke="midnightblue" d="M112.63,-127.27C102.88,-114.6 89.89,-97.7 82.14,-87.63"/>
<polygon fill="midnightblue" stroke="midnightblue" points="109.89,-129.44 118.76,-135.23 115.43,-125.17 109.89,-129.44"/>
</g>
<!-- Node3 -->
<g id="node3" class="node">
<title>Node3</title>
<g id="a_node3"><a xlink:href="classv8_1_1internal_1_1CallbackData.html" target="_top" xlink:title=" ">
<polygon fill="white" stroke="black" points="169,-68.5 169,-87.5 318,-87.5 318,-68.5 169,-68.5"/>
<text text-anchor="middle" x="243.5" y="-75.5" font-family="Helvetica,sans-Serif" font-size="10.00">v8::internal::CallbackData&lt; P &gt;</text>
</a>
</g>
</g>
<!-- Node1&#45;&gt;Node3 -->
<g id="edge2" class="edge">
<title>Node1&#45;&gt;Node3</title>
<path fill="none" stroke="orange" stroke-dasharray="5,2" d="M150.39,-130.29C173.78,-117.4 208.06,-98.52 227.84,-87.63"/>
<polygon fill="orange" stroke="orange" points="148.48,-127.34 141.41,-135.23 151.86,-133.47 148.48,-127.34"/>
<text text-anchor="middle" x="204.5" y="-109" font-family="Helvetica,sans-Serif" font-size="10.00"> &lt; P &gt;</text>
</g>
<!-- Node4 -->
<g id="node4" class="node">
<title>Node4</title>
<g id="a_node4"><a xlink:href="classv8_1_1WeakCallbackData.html" target="_top" xlink:title=" ">
<polygon fill="white" stroke="black" points="186.5,-0.5 186.5,-30.5 300.5,-30.5 300.5,-0.5 186.5,-0.5"/>
<text text-anchor="start" x="194.5" y="-18.5" font-family="Helvetica,sans-Serif" font-size="10.00">v8::WeakCallbackData</text>
<text text-anchor="middle" x="243.5" y="-7.5" font-family="Helvetica,sans-Serif" font-size="10.00">&lt; T, P &gt;</text>
</a>
</g>
</g>
<!-- Node3&#45;&gt;Node4 -->
<g id="edge3" class="edge">
<title>Node3&#45;&gt;Node4</title>
<path fill="none" stroke="midnightblue" d="M243.5,-58.22C243.5,-49.36 243.5,-38.96 243.5,-30.76"/>
<polygon fill="midnightblue" stroke="midnightblue" points="240,-58.33 243.5,-68.33 247,-58.33 240,-58.33"/>
</g>
</g>
</svg>
