<?xml version="1.0" encoding="UTF-8" standalone="no"?>
<!DOCTYPE svg PUBLIC "-//W3C//DTD SVG 1.1//EN"
 "http://www.w3.org/Graphics/SVG/1.1/DTD/svg11.dtd">
<!-- Generated by graphviz version 2.44.0 ()
 -->
<!-- Title: v8::Isolate::CreateParams Pages: 1 -->
<svg width="837pt" height="116pt"
 viewBox="0.00 0.00 837.00 116.00" xmlns="http://www.w3.org/2000/svg" xmlns:xlink="http://www.w3.org/1999/xlink">
<g id="graph0" class="graph" transform="scale(1 1) rotate(0) translate(4 112)">
<title>v8::Isolate::CreateParams</title>
<polygon fill="white" stroke="transparent" points="-4,4 -4,-112 833,-112 833,4 -4,4"/>
<!-- Node1 -->
<g id="node1" class="node">
<title>Node1</title>
<g id="a_node1"><a xlink:title=" ">
<polygon fill="#bfbfbf" stroke="black" points="701,-63.5 701,-82.5 829,-82.5 829,-63.5 701,-63.5"/>
<text text-anchor="middle" x="765" y="-70.5" font-family="Helvetica,sans-Serif" font-size="10.00">v8::Isolate::CreateParams</text>
</a>
</g>
</g>
<!-- Node2 -->
<g id="node2" class="node">
<title>Node2</title>
<g id="a_node2"><a xlink:href="classv8_1_1ResourceConstraints.html" target="_top" xlink:title=" ">
<polygon fill="white" stroke="black" points="453,-82.5 453,-101.5 575,-101.5 575,-82.5 453,-82.5"/>
<text text-anchor="middle" x="514" y="-89.5" font-family="Helvetica,sans-Serif" font-size="10.00">v8::ResourceConstraints</text>
</a>
</g>
</g>
<!-- Node2&#45;&gt;Node1 -->
<g id="edge1" class="edge">
<title>Node2&#45;&gt;Node1</title>
<path fill="none" stroke="#9a32cd" stroke-dasharray="5,2" d="M585.3,-86.64C621.62,-83.86 665.57,-80.51 700.8,-77.82"/>
<polygon fill="#9a32cd" stroke="#9a32cd" points="584.98,-83.15 575.28,-87.4 585.51,-90.13 584.98,-83.15"/>
<text text-anchor="middle" x="638" y="-88" font-family="Helvetica,sans-Serif" font-size="10.00"> constraints</text>
</g>
<!-- Node3 -->
<g id="node3" class="node">
<title>Node3</title>
<g id="a_node3"><a xlink:href="structv8_1_1JitCodeEvent.html" target="_top" xlink:title=" ">
<polygon fill="white" stroke="black" points="469.5,-44.5 469.5,-63.5 558.5,-63.5 558.5,-44.5 469.5,-44.5"/>
<text text-anchor="middle" x="514" y="-51.5" font-family="Helvetica,sans-Serif" font-size="10.00">v8::JitCodeEvent</text>
</a>
</g>
</g>
<!-- Node3&#45;&gt;Node1 -->
<g id="edge2" class="edge">
<title>Node3&#45;&gt;Node1</title>
<path fill="none" stroke="#9a32cd" stroke-dasharray="5,2" d="M568.89,-56.5C601.87,-58.21 644.91,-60.75 683,-64 688.78,-64.49 694.79,-65.06 700.8,-65.66"/>
<polygon fill="#9a32cd" stroke="#9a32cd" points="568.72,-52.99 558.56,-55.98 568.36,-59.98 568.72,-52.99"/>
<text text-anchor="middle" x="638" y="-67" font-family="Helvetica,sans-Serif" font-size="10.00"> code_event_handler</text>
</g>
<!-- Node4 -->
<g id="node4" class="node">
<title>Node4</title>
<g id="a_node4"><a xlink:href="structv8_1_1JitCodeEvent_1_1name__t.html" target="_top" xlink:title=" ">
<polygon fill="white" stroke="black" points="236,-88.5 236,-107.5 362,-107.5 362,-88.5 236,-88.5"/>
<text text-anchor="middle" x="299" y="-95.5" font-family="Helvetica,sans-Serif" font-size="10.00">v8::JitCodeEvent::name_t</text>
</a>
</g>
</g>
<!-- Node4&#45;&gt;Node3 -->
<g id="edge3" class="edge">
<title>Node4&#45;&gt;Node3</title>
<path fill="none" stroke="#9a32cd" stroke-dasharray="5,2" d="M356.4,-86.35C391.8,-79.04 436.76,-69.75 469.42,-63"/>
<polygon fill="#9a32cd" stroke="#9a32cd" points="355.3,-83 346.22,-88.45 356.72,-89.86 355.3,-83"/>
<text text-anchor="middle" x="415.5" y="-80" font-family="Helvetica,sans-Serif" font-size="10.00"> name</text>
</g>
<!-- Node5 -->
<g id="node5" class="node">
<title>Node5</title>
<g id="a_node5"><a xlink:href="structv8_1_1JitCodeEvent_1_1line__info__t.html" target="_top" xlink:title=" ">
<polygon fill="white" stroke="black" points="244.5,-39 244.5,-69 353.5,-69 353.5,-39 244.5,-39"/>
<text text-anchor="start" x="252.5" y="-57" font-family="Helvetica,sans-Serif" font-size="10.00">v8::JitCodeEvent::line</text>
<text text-anchor="middle" x="299" y="-46" font-family="Helvetica,sans-Serif" font-size="10.00">_info_t</text>
</a>
</g>
</g>
<!-- Node5&#45;&gt;Node3 -->
<g id="edge4" class="edge">
<title>Node5&#45;&gt;Node3</title>
<path fill="none" stroke="#9a32cd" stroke-dasharray="5,2" d="M364.06,-54C398.07,-54 438.97,-54 469.3,-54"/>
<polygon fill="#9a32cd" stroke="#9a32cd" points="363.75,-50.5 353.75,-54 363.75,-57.5 363.75,-50.5"/>
<text text-anchor="middle" x="415.5" y="-57" font-family="Helvetica,sans-Serif" font-size="10.00"> line_info</text>
</g>
<!-- Node6 -->
<g id="node6" class="node">
<title>Node6</title>
<g id="a_node6"><a xlink:href="classv8_1_1Handle.html" target="_top" xlink:title=" ">
<polygon fill="white" stroke="black" points="220,-0.5 220,-19.5 378,-19.5 378,-0.5 220,-0.5"/>
<text text-anchor="middle" x="299" y="-7.5" font-family="Helvetica,sans-Serif" font-size="10.00">v8::Handle&lt; v8::UnboundScript &gt;</text>
</a>
</g>
</g>
<!-- Node6&#45;&gt;Node3 -->
<g id="edge5" class="edge">
<title>Node6&#45;&gt;Node3</title>
<path fill="none" stroke="#9a32cd" stroke-dasharray="5,2" d="M356.4,-21.65C391.8,-28.96 436.76,-38.25 469.42,-45"/>
<polygon fill="#9a32cd" stroke="#9a32cd" points="356.72,-18.14 346.22,-19.55 355.3,-25 356.72,-18.14"/>
<text text-anchor="middle" x="415.5" y="-41" font-family="Helvetica,sans-Serif" font-size="10.00"> script</text>
</g>
<!-- Node7 -->
<g id="node7" class="node">
<title>Node7</title>
<g id="a_node7"><a xlink:href="classv8_1_1Handle.html" target="_top" xlink:title=" ">
<polygon fill="white" stroke="black" points="0,-0.5 0,-19.5 85,-19.5 85,-0.5 0,-0.5"/>
<text text-anchor="middle" x="42.5" y="-7.5" font-family="Helvetica,sans-Serif" font-size="10.00">v8::Handle&lt; T &gt;</text>
</a>
</g>
</g>
<!-- Node7&#45;&gt;Node6 -->
<g id="edge6" class="edge">
<title>Node7&#45;&gt;Node6</title>
<path fill="none" stroke="orange" stroke-dasharray="5,2" d="M95.47,-10C131.3,-10 179.56,-10 219.99,-10"/>
<polygon fill="orange" stroke="orange" points="95.24,-6.5 85.24,-10 95.24,-13.5 95.24,-6.5"/>
<text text-anchor="middle" x="152.5" y="-13" font-family="Helvetica,sans-Serif" font-size="10.00"> &lt; v8::UnboundScript &gt;</text>
</g>
</g>
</svg>
