<?xml version="1.0" encoding="UTF-8" standalone="no"?>
<!DOCTYPE svg PUBLIC "-//W3C//DTD SVG 1.1//EN"
 "http://www.w3.org/Graphics/SVG/1.1/DTD/svg11.dtd">
<!-- Generated by graphviz version 2.44.0 ()
 -->
<!-- Title: v8::Object Pages: 1 -->
<svg width="662pt" height="655pt"
 viewBox="0.00 0.00 662.00 655.00" xmlns="http://www.w3.org/2000/svg" xmlns:xlink="http://www.w3.org/1999/xlink">
<g id="graph0" class="graph" transform="scale(1 1) rotate(0) translate(4 651)">
<title>v8::Object</title>
<polygon fill="white" stroke="transparent" points="-4,4 -4,-651 658,-651 658,4 -4,4"/>
<!-- Node1 -->
<g id="node1" class="node">
<title>Node1</title>
<g id="a_node1"><a xlink:title=" ">
<polygon fill="#bfbfbf" stroke="black" points="180,-285.5 180,-304.5 240,-304.5 240,-285.5 180,-285.5"/>
<text text-anchor="middle" x="210" y="-292.5" font-family="Helvetica,sans-Serif" font-size="10.00">v8::Object</text>
</a>
</g>
</g>
<!-- Node4 -->
<g id="node4" class="node">
<title>Node4</title>
<g id="a_node4"><a xlink:href="classv8_1_1Array.html" target="_top" xlink:title=" ">
<polygon fill="white" stroke="black" points="304,-570.5 304,-589.5 358,-589.5 358,-570.5 304,-570.5"/>
<text text-anchor="middle" x="331" y="-577.5" font-family="Helvetica,sans-Serif" font-size="10.00">v8::Array</text>
</a>
</g>
</g>
<!-- Node1&#45;&gt;Node4 -->
<g id="edge3" class="edge">
<title>Node1&#45;&gt;Node4</title>
<path fill="none" stroke="midnightblue" d="M213.38,-314.78C220.4,-370 242.63,-524.16 276,-561 283.21,-568.95 293.94,-573.58 303.95,-576.27"/>
<polygon fill="midnightblue" stroke="midnightblue" points="216.82,-314.07 212.12,-304.58 209.88,-314.93 216.82,-314.07"/>
</g>
<!-- Node5 -->
<g id="node5" class="node">
<title>Node5</title>
<g id="a_node5"><a xlink:href="classv8_1_1ArrayBuffer.html" target="_top" xlink:title=" ">
<polygon fill="white" stroke="black" points="291,-532.5 291,-551.5 371,-551.5 371,-532.5 291,-532.5"/>
<text text-anchor="middle" x="331" y="-539.5" font-family="Helvetica,sans-Serif" font-size="10.00">v8::ArrayBuffer</text>
</a>
</g>
</g>
<!-- Node1&#45;&gt;Node5 -->
<g id="edge4" class="edge">
<title>Node1&#45;&gt;Node5</title>
<path fill="none" stroke="midnightblue" d="M210.88,-314.87C211.71,-358.46 219.81,-463.29 276,-523 280.15,-527.41 285.4,-530.8 290.97,-533.41"/>
<polygon fill="midnightblue" stroke="midnightblue" points="214.38,-314.71 210.8,-304.73 207.38,-314.76 214.38,-314.71"/>
</g>
<!-- Node6 -->
<g id="node6" class="node">
<title>Node6</title>
<g id="a_node6"><a xlink:href="classv8_1_1ArrayBufferView.html" target="_top" xlink:title=" ">
<polygon fill="white" stroke="black" points="280.5,-494.5 280.5,-513.5 381.5,-513.5 381.5,-494.5 280.5,-494.5"/>
<text text-anchor="middle" x="331" y="-501.5" font-family="Helvetica,sans-Serif" font-size="10.00">v8::ArrayBufferView</text>
</a>
</g>
</g>
<!-- Node1&#45;&gt;Node6 -->
<g id="edge5" class="edge">
<title>Node1&#45;&gt;Node6</title>
<path fill="none" stroke="midnightblue" d="M212.26,-315.16C215.74,-353.46 228.62,-437.21 276,-485 279.85,-488.88 284.54,-491.97 289.52,-494.43"/>
<polygon fill="midnightblue" stroke="midnightblue" points="215.72,-314.52 211.46,-304.82 208.75,-315.06 215.72,-314.52"/>
</g>
<!-- Node18 -->
<g id="node18" class="node">
<title>Node18</title>
<g id="a_node18"><a xlink:href="classv8_1_1BooleanObject.html" target="_top" xlink:title=" ">
<polygon fill="white" stroke="black" points="283.5,-456.5 283.5,-475.5 378.5,-475.5 378.5,-456.5 283.5,-456.5"/>
<text text-anchor="middle" x="331" y="-463.5" font-family="Helvetica,sans-Serif" font-size="10.00">v8::BooleanObject</text>
</a>
</g>
</g>
<!-- Node1&#45;&gt;Node18 -->
<g id="edge17" class="edge">
<title>Node1&#45;&gt;Node18</title>
<path fill="none" stroke="midnightblue" d="M214.18,-314.66C220.37,-346.76 237.02,-410.5 276,-447 280.14,-450.87 285.11,-453.96 290.34,-456.43"/>
<polygon fill="midnightblue" stroke="midnightblue" points="217.6,-313.95 212.4,-304.72 210.71,-315.18 217.6,-313.95"/>
</g>
<!-- Node19 -->
<g id="node19" class="node">
<title>Node19</title>
<g id="a_node19"><a xlink:href="classv8_1_1Date.html" target="_top" xlink:title=" ">
<polygon fill="white" stroke="black" points="305,-418.5 305,-437.5 357,-437.5 357,-418.5 305,-418.5"/>
<text text-anchor="middle" x="331" y="-425.5" font-family="Helvetica,sans-Serif" font-size="10.00">v8::Date</text>
</a>
</g>
</g>
<!-- Node1&#45;&gt;Node19 -->
<g id="edge18" class="edge">
<title>Node1&#45;&gt;Node19</title>
<path fill="none" stroke="midnightblue" d="M217.21,-314.34C226.25,-339.56 245.39,-383.45 276,-409 284.24,-415.88 295.14,-420.33 304.99,-423.19"/>
<polygon fill="midnightblue" stroke="midnightblue" points="220.49,-313.12 213.95,-304.79 213.87,-315.38 220.49,-313.12"/>
</g>
<!-- Node20 -->
<g id="node20" class="node">
<title>Node20</title>
<g id="a_node20"><a xlink:href="classv8_1_1Function.html" target="_top" xlink:title=" ">
<polygon fill="white" stroke="black" points="296.5,-380.5 296.5,-399.5 365.5,-399.5 365.5,-380.5 296.5,-380.5"/>
<text text-anchor="middle" x="331" y="-387.5" font-family="Helvetica,sans-Serif" font-size="10.00">v8::Function</text>
</a>
</g>
</g>
<!-- Node1&#45;&gt;Node20 -->
<g id="edge19" class="edge">
<title>Node1&#45;&gt;Node20</title>
<path fill="none" stroke="midnightblue" d="M222.38,-313.14C233.97,-330.25 253.4,-355.51 276,-371 282.15,-375.21 289.33,-378.59 296.41,-381.26"/>
<polygon fill="midnightblue" stroke="midnightblue" points="225.19,-311.04 216.78,-304.59 219.33,-314.87 225.19,-311.04"/>
</g>
<!-- Node21 -->
<g id="node21" class="node">
<title>Node21</title>
<g id="a_node21"><a xlink:href="classv8_1_1Map.html" target="_top" xlink:title=" ">
<polygon fill="white" stroke="black" points="306,-342.5 306,-361.5 356,-361.5 356,-342.5 306,-342.5"/>
<text text-anchor="middle" x="331" y="-349.5" font-family="Helvetica,sans-Serif" font-size="10.00">v8::Map</text>
</a>
</g>
</g>
<!-- Node1&#45;&gt;Node21 -->
<g id="edge20" class="edge">
<title>Node1&#45;&gt;Node21</title>
<path fill="none" stroke="midnightblue" d="M234.15,-309.99C246.31,-317.48 261.63,-326.35 276,-333 285.56,-337.43 296.46,-341.45 305.95,-344.63"/>
<polygon fill="midnightblue" stroke="midnightblue" points="235.87,-306.94 225.54,-304.59 232.15,-312.86 235.87,-306.94"/>
</g>
<!-- Node22 -->
<g id="node22" class="node">
<title>Node22</title>
<g id="a_node22"><a xlink:href="classv8_1_1NumberObject.html" target="_top" xlink:title=" ">
<polygon fill="white" stroke="black" points="283.5,-304.5 283.5,-323.5 378.5,-323.5 378.5,-304.5 283.5,-304.5"/>
<text text-anchor="middle" x="331" y="-311.5" font-family="Helvetica,sans-Serif" font-size="10.00">v8::NumberObject</text>
</a>
</g>
</g>
<!-- Node1&#45;&gt;Node22 -->
<g id="edge21" class="edge">
<title>Node1&#45;&gt;Node22</title>
<path fill="none" stroke="midnightblue" d="M250.25,-301.27C260.76,-302.94 272.23,-304.78 283.11,-306.51"/>
<polygon fill="midnightblue" stroke="midnightblue" points="250.54,-297.77 240.11,-299.65 249.43,-304.68 250.54,-297.77"/>
</g>
<!-- Node23 -->
<g id="node23" class="node">
<title>Node23</title>
<g id="a_node23"><a xlink:href="classv8_1_1Promise.html" target="_top" xlink:title=" ">
<polygon fill="white" stroke="black" points="297,-266.5 297,-285.5 365,-285.5 365,-266.5 297,-266.5"/>
<text text-anchor="middle" x="331" y="-273.5" font-family="Helvetica,sans-Serif" font-size="10.00">v8::Promise</text>
</a>
</g>
</g>
<!-- Node1&#45;&gt;Node23 -->
<g id="edge22" class="edge">
<title>Node1&#45;&gt;Node23</title>
<path fill="none" stroke="midnightblue" d="M250.22,-288.74C265.36,-286.32 282.49,-283.59 296.99,-281.27"/>
<polygon fill="midnightblue" stroke="midnightblue" points="249.43,-285.32 240.11,-290.35 250.54,-292.23 249.43,-285.32"/>
</g>
<!-- Node24 -->
<g id="node24" class="node">
<title>Node24</title>
<g id="a_node24"><a xlink:href="classv8_1_1Promise_1_1Resolver.html" target="_top" xlink:title=" ">
<polygon fill="white" stroke="black" points="276,-228.5 276,-247.5 386,-247.5 386,-228.5 276,-228.5"/>
<text text-anchor="middle" x="331" y="-235.5" font-family="Helvetica,sans-Serif" font-size="10.00">v8::Promise::Resolver</text>
</a>
</g>
</g>
<!-- Node1&#45;&gt;Node24 -->
<g id="edge23" class="edge">
<title>Node1&#45;&gt;Node24</title>
<path fill="none" stroke="midnightblue" d="M234.15,-280.01C246.31,-272.52 261.63,-263.65 276,-257 283.49,-253.53 291.79,-250.32 299.6,-247.55"/>
<polygon fill="midnightblue" stroke="midnightblue" points="232.15,-277.14 225.54,-285.41 235.87,-283.06 232.15,-277.14"/>
</g>
<!-- Node25 -->
<g id="node25" class="node">
<title>Node25</title>
<g id="a_node25"><a xlink:href="classv8_1_1Proxy.html" target="_top" xlink:title=" ">
<polygon fill="white" stroke="black" points="303,-190.5 303,-209.5 359,-209.5 359,-190.5 303,-190.5"/>
<text text-anchor="middle" x="331" y="-197.5" font-family="Helvetica,sans-Serif" font-size="10.00">v8::Proxy</text>
</a>
</g>
</g>
<!-- Node1&#45;&gt;Node25 -->
<g id="edge24" class="edge">
<title>Node1&#45;&gt;Node25</title>
<path fill="none" stroke="midnightblue" d="M222.38,-276.86C233.97,-259.75 253.4,-234.49 276,-219 284.03,-213.49 293.83,-209.42 302.86,-206.49"/>
<polygon fill="midnightblue" stroke="midnightblue" points="219.33,-275.13 216.78,-285.41 225.19,-278.96 219.33,-275.13"/>
</g>
<!-- Node26 -->
<g id="node26" class="node">
<title>Node26</title>
<g id="a_node26"><a xlink:href="classv8_1_1RegExp.html" target="_top" xlink:title=" ">
<polygon fill="white" stroke="black" points="298.5,-152.5 298.5,-171.5 363.5,-171.5 363.5,-152.5 298.5,-152.5"/>
<text text-anchor="middle" x="331" y="-159.5" font-family="Helvetica,sans-Serif" font-size="10.00">v8::RegExp</text>
</a>
</g>
</g>
<!-- Node1&#45;&gt;Node26 -->
<g id="edge25" class="edge">
<title>Node1&#45;&gt;Node26</title>
<path fill="none" stroke="midnightblue" d="M217.21,-275.66C226.25,-250.44 245.39,-206.55 276,-181 282.41,-175.65 290.43,-171.77 298.31,-168.96"/>
<polygon fill="midnightblue" stroke="midnightblue" points="213.87,-274.62 213.95,-285.21 220.49,-276.88 213.87,-274.62"/>
</g>
<!-- Node27 -->
<g id="node27" class="node">
<title>Node27</title>
<g id="a_node27"><a xlink:href="classv8_1_1Set.html" target="_top" xlink:title=" ">
<polygon fill="white" stroke="black" points="307.5,-114.5 307.5,-133.5 354.5,-133.5 354.5,-114.5 307.5,-114.5"/>
<text text-anchor="middle" x="331" y="-121.5" font-family="Helvetica,sans-Serif" font-size="10.00">v8::Set</text>
</a>
</g>
</g>
<!-- Node1&#45;&gt;Node27 -->
<g id="edge26" class="edge">
<title>Node1&#45;&gt;Node27</title>
<path fill="none" stroke="midnightblue" d="M214.18,-275.34C220.37,-243.24 237.02,-179.5 276,-143 284.56,-134.98 296.7,-130.32 307.31,-127.62"/>
<polygon fill="midnightblue" stroke="midnightblue" points="210.71,-274.82 212.4,-285.28 217.6,-276.05 210.71,-274.82"/>
</g>
<!-- Node28 -->
<g id="node28" class="node">
<title>Node28</title>
<g id="a_node28"><a xlink:href="classv8_1_1SharedArrayBuffer.html" target="_top" xlink:title=" ">
<polygon fill="white" stroke="black" points="276,-76.5 276,-95.5 386,-95.5 386,-76.5 276,-76.5"/>
<text text-anchor="middle" x="331" y="-83.5" font-family="Helvetica,sans-Serif" font-size="10.00">v8::SharedArrayBuffer</text>
</a>
</g>
</g>
<!-- Node1&#45;&gt;Node28 -->
<g id="edge27" class="edge">
<title>Node1&#45;&gt;Node28</title>
<path fill="none" stroke="midnightblue" d="M212.26,-274.84C215.74,-236.54 228.62,-152.79 276,-105 279.85,-101.12 284.54,-98.03 289.52,-95.57"/>
<polygon fill="midnightblue" stroke="midnightblue" points="208.75,-274.94 211.46,-285.18 215.72,-275.48 208.75,-274.94"/>
</g>
<!-- Node29 -->
<g id="node29" class="node">
<title>Node29</title>
<g id="a_node29"><a xlink:href="classv8_1_1StringObject.html" target="_top" xlink:title=" ">
<polygon fill="white" stroke="black" points="288,-38.5 288,-57.5 374,-57.5 374,-38.5 288,-38.5"/>
<text text-anchor="middle" x="331" y="-45.5" font-family="Helvetica,sans-Serif" font-size="10.00">v8::StringObject</text>
</a>
</g>
</g>
<!-- Node1&#45;&gt;Node29 -->
<g id="edge28" class="edge">
<title>Node1&#45;&gt;Node29</title>
<path fill="none" stroke="midnightblue" d="M210.88,-275.13C211.71,-231.54 219.81,-126.71 276,-67 279.68,-63.09 284.21,-59.99 289.06,-57.52"/>
<polygon fill="midnightblue" stroke="midnightblue" points="207.38,-275.24 210.8,-285.27 214.38,-275.29 207.38,-275.24"/>
</g>
<!-- Node30 -->
<g id="node30" class="node">
<title>Node30</title>
<g id="a_node30"><a xlink:href="classv8_1_1SymbolObject.html" target="_top" xlink:title=" ">
<polygon fill="white" stroke="black" points="285,-0.5 285,-19.5 377,-19.5 377,-0.5 285,-0.5"/>
<text text-anchor="middle" x="331" y="-7.5" font-family="Helvetica,sans-Serif" font-size="10.00">v8::SymbolObject</text>
</a>
</g>
</g>
<!-- Node1&#45;&gt;Node30 -->
<g id="edge29" class="edge">
<title>Node1&#45;&gt;Node30</title>
<path fill="none" stroke="midnightblue" d="M213.38,-275.22C220.4,-220 242.63,-65.84 276,-29 279.54,-25.1 283.92,-21.99 288.66,-19.53"/>
<polygon fill="midnightblue" stroke="midnightblue" points="209.88,-275.07 212.12,-285.42 216.82,-275.93 209.88,-275.07"/>
</g>
<!-- Node2 -->
<g id="node2" class="node">
<title>Node2</title>
<g id="a_node2"><a xlink:href="classv8_1_1Value.html" target="_top" xlink:title=" ">
<polygon fill="white" stroke="black" points="88,-285.5 88,-304.5 144,-304.5 144,-285.5 88,-285.5"/>
<text text-anchor="middle" x="116" y="-292.5" font-family="Helvetica,sans-Serif" font-size="10.00">v8::Value</text>
</a>
</g>
</g>
<!-- Node2&#45;&gt;Node1 -->
<g id="edge1" class="edge">
<title>Node2&#45;&gt;Node1</title>
<path fill="none" stroke="midnightblue" d="M154.22,-295C162.76,-295 171.71,-295 179.84,-295"/>
<polygon fill="midnightblue" stroke="midnightblue" points="154.11,-291.5 144.11,-295 154.11,-298.5 154.11,-291.5"/>
</g>
<!-- Node3 -->
<g id="node3" class="node">
<title>Node3</title>
<g id="a_node3"><a xlink:href="classv8_1_1Data.html" target="_top" xlink:title=" ">
<polygon fill="white" stroke="black" points="0,-285.5 0,-304.5 52,-304.5 52,-285.5 0,-285.5"/>
<text text-anchor="middle" x="26" y="-292.5" font-family="Helvetica,sans-Serif" font-size="10.00">v8::Data</text>
</a>
</g>
</g>
<!-- Node3&#45;&gt;Node2 -->
<g id="edge2" class="edge">
<title>Node3&#45;&gt;Node2</title>
<path fill="none" stroke="midnightblue" d="M62.72,-295C71.08,-295 79.84,-295 87.76,-295"/>
<polygon fill="midnightblue" stroke="midnightblue" points="62.45,-291.5 52.45,-295 62.45,-298.5 62.45,-291.5"/>
</g>
<!-- Node7 -->
<g id="node7" class="node">
<title>Node7</title>
<g id="a_node7"><a xlink:href="classv8_1_1DataView.html" target="_top" xlink:title=" ">
<polygon fill="white" stroke="black" points="425,-513.5 425,-532.5 499,-532.5 499,-513.5 425,-513.5"/>
<text text-anchor="middle" x="462" y="-520.5" font-family="Helvetica,sans-Serif" font-size="10.00">v8::DataView</text>
</a>
</g>
</g>
<!-- Node6&#45;&gt;Node7 -->
<g id="edge6" class="edge">
<title>Node6&#45;&gt;Node7</title>
<path fill="none" stroke="midnightblue" d="M391.73,-512.8C402.97,-514.45 414.4,-516.14 424.65,-517.65"/>
<polygon fill="midnightblue" stroke="midnightblue" points="391.91,-509.29 381.51,-511.29 390.89,-516.21 391.91,-509.29"/>
</g>
<!-- Node8 -->
<g id="node8" class="node">
<title>Node8</title>
<g id="a_node8"><a xlink:href="classv8_1_1TypedArray.html" target="_top" xlink:title=" ">
<polygon fill="white" stroke="black" points="422,-475.5 422,-494.5 502,-494.5 502,-475.5 422,-475.5"/>
<text text-anchor="middle" x="462" y="-482.5" font-family="Helvetica,sans-Serif" font-size="10.00">v8::TypedArray</text>
</a>
</g>
</g>
<!-- Node6&#45;&gt;Node8 -->
<g id="edge7" class="edge">
<title>Node6&#45;&gt;Node8</title>
<path fill="none" stroke="midnightblue" d="M391.66,-495.21C401.9,-493.7 412.31,-492.17 421.84,-490.77"/>
<polygon fill="midnightblue" stroke="midnightblue" points="390.89,-491.79 381.51,-496.71 391.91,-498.71 390.89,-491.79"/>
</g>
<!-- Node9 -->
<g id="node9" class="node">
<title>Node9</title>
<g id="a_node9"><a xlink:href="classv8_1_1Float32Array.html" target="_top" xlink:title=" ">
<polygon fill="white" stroke="black" points="553,-627.5 553,-646.5 639,-646.5 639,-627.5 553,-627.5"/>
<text text-anchor="middle" x="596" y="-634.5" font-family="Helvetica,sans-Serif" font-size="10.00">v8::Float32Array</text>
</a>
</g>
</g>
<!-- Node8&#45;&gt;Node9 -->
<g id="edge8" class="edge">
<title>Node8&#45;&gt;Node9</title>
<path fill="none" stroke="midnightblue" d="M498.71,-500.67C499.88,-501.71 500.99,-502.82 502,-504 536.7,-544.24 500.73,-580.13 538,-618 542.17,-622.24 547.31,-625.53 552.78,-628.09"/>
<polygon fill="midnightblue" stroke="midnightblue" points="500.38,-497.56 490.2,-494.64 496.34,-503.28 500.38,-497.56"/>
</g>
<!-- Node10 -->
<g id="node10" class="node">
<title>Node10</title>
<g id="a_node10"><a xlink:href="classv8_1_1Float64Array.html" target="_top" xlink:title=" ">
<polygon fill="white" stroke="black" points="553,-589.5 553,-608.5 639,-608.5 639,-589.5 553,-589.5"/>
<text text-anchor="middle" x="596" y="-596.5" font-family="Helvetica,sans-Serif" font-size="10.00">v8::Float64Array</text>
</a>
</g>
</g>
<!-- Node8&#45;&gt;Node10 -->
<g id="edge9" class="edge">
<title>Node8&#45;&gt;Node10</title>
<path fill="none" stroke="midnightblue" d="M497.49,-500.05C499.09,-501.28 500.61,-502.59 502,-504 528.28,-530.57 510.03,-555.21 538,-580 542.37,-583.87 547.56,-586.96 552.99,-589.42"/>
<polygon fill="midnightblue" stroke="midnightblue" points="499.28,-497.03 488.98,-494.58 495.5,-502.93 499.28,-497.03"/>
</g>
<!-- Node11 -->
<g id="node11" class="node">
<title>Node11</title>
<g id="a_node11"><a xlink:href="classv8_1_1Int16Array.html" target="_top" xlink:title=" ">
<polygon fill="white" stroke="black" points="558,-551.5 558,-570.5 634,-570.5 634,-551.5 558,-551.5"/>
<text text-anchor="middle" x="596" y="-558.5" font-family="Helvetica,sans-Serif" font-size="10.00">v8::Int16Array</text>
</a>
</g>
</g>
<!-- Node8&#45;&gt;Node11 -->
<g id="edge10" class="edge">
<title>Node8&#45;&gt;Node11</title>
<path fill="none" stroke="midnightblue" d="M495.01,-499.4C497.44,-500.85 499.8,-502.39 502,-504 520.76,-517.76 518.38,-529.5 538,-542 544.07,-545.87 551.01,-549.03 557.91,-551.59"/>
<polygon fill="midnightblue" stroke="midnightblue" points="496.52,-496.24 486.07,-494.54 493.18,-502.39 496.52,-496.24"/>
</g>
<!-- Node12 -->
<g id="node12" class="node">
<title>Node12</title>
<g id="a_node12"><a xlink:href="classv8_1_1Int32Array.html" target="_top" xlink:title=" ">
<polygon fill="white" stroke="black" points="558,-513.5 558,-532.5 634,-532.5 634,-513.5 558,-513.5"/>
<text text-anchor="middle" x="596" y="-520.5" font-family="Helvetica,sans-Serif" font-size="10.00">v8::Int32Array</text>
</a>
</g>
</g>
<!-- Node8&#45;&gt;Node12 -->
<g id="edge11" class="edge">
<title>Node8&#45;&gt;Node12</title>
<path fill="none" stroke="midnightblue" d="M506.04,-497.39C524.12,-502.59 544.82,-508.55 561.7,-513.41"/>
<polygon fill="midnightblue" stroke="midnightblue" points="506.89,-493.99 496.31,-494.59 504.95,-500.72 506.89,-493.99"/>
</g>
<!-- Node13 -->
<g id="node13" class="node">
<title>Node13</title>
<g id="a_node13"><a xlink:href="classv8_1_1Int8Array.html" target="_top" xlink:title=" ">
<polygon fill="white" stroke="black" points="560.5,-475.5 560.5,-494.5 631.5,-494.5 631.5,-475.5 560.5,-475.5"/>
<text text-anchor="middle" x="596" y="-482.5" font-family="Helvetica,sans-Serif" font-size="10.00">v8::Int8Array</text>
</a>
</g>
</g>
<!-- Node8&#45;&gt;Node13 -->
<g id="edge12" class="edge">
<title>Node8&#45;&gt;Node13</title>
<path fill="none" stroke="midnightblue" d="M512.44,-485C528.32,-485 545.56,-485 560.17,-485"/>
<polygon fill="midnightblue" stroke="midnightblue" points="512.25,-481.5 502.25,-485 512.25,-488.5 512.25,-481.5"/>
</g>
<!-- Node14 -->
<g id="node14" class="node">
<title>Node14</title>
<g id="a_node14"><a xlink:href="classv8_1_1Uint16Array.html" target="_top" xlink:title=" ">
<polygon fill="white" stroke="black" points="554.5,-437.5 554.5,-456.5 637.5,-456.5 637.5,-437.5 554.5,-437.5"/>
<text text-anchor="middle" x="596" y="-444.5" font-family="Helvetica,sans-Serif" font-size="10.00">v8::Uint16Array</text>
</a>
</g>
</g>
<!-- Node8&#45;&gt;Node14 -->
<g id="edge13" class="edge">
<title>Node8&#45;&gt;Node14</title>
<path fill="none" stroke="midnightblue" d="M506.04,-472.61C524.12,-467.41 544.82,-461.45 561.7,-456.59"/>
<polygon fill="midnightblue" stroke="midnightblue" points="504.95,-469.28 496.31,-475.41 506.89,-476.01 504.95,-469.28"/>
</g>
<!-- Node15 -->
<g id="node15" class="node">
<title>Node15</title>
<g id="a_node15"><a xlink:href="classv8_1_1Uint32Array.html" target="_top" xlink:title=" ">
<polygon fill="white" stroke="black" points="554.5,-399.5 554.5,-418.5 637.5,-418.5 637.5,-399.5 554.5,-399.5"/>
<text text-anchor="middle" x="596" y="-406.5" font-family="Helvetica,sans-Serif" font-size="10.00">v8::Uint32Array</text>
</a>
</g>
</g>
<!-- Node8&#45;&gt;Node15 -->
<g id="edge14" class="edge">
<title>Node8&#45;&gt;Node15</title>
<path fill="none" stroke="midnightblue" d="M481.11,-468.51C495.62,-455.99 516.96,-439.11 538,-428 544.92,-424.35 552.68,-421.2 560.19,-418.58"/>
<polygon fill="midnightblue" stroke="midnightblue" points="478.6,-466.05 473.41,-475.29 483.23,-471.31 478.6,-466.05"/>
</g>
<!-- Node16 -->
<g id="node16" class="node">
<title>Node16</title>
<g id="a_node16"><a xlink:href="classv8_1_1Uint8Array.html" target="_top" xlink:title=" ">
<polygon fill="white" stroke="black" points="557.5,-361.5 557.5,-380.5 634.5,-380.5 634.5,-361.5 557.5,-361.5"/>
<text text-anchor="middle" x="596" y="-368.5" font-family="Helvetica,sans-Serif" font-size="10.00">v8::Uint8Array</text>
</a>
</g>
</g>
<!-- Node8&#45;&gt;Node16 -->
<g id="edge15" class="edge">
<title>Node8&#45;&gt;Node16</title>
<path fill="none" stroke="midnightblue" d="M473.01,-466.65C485.53,-445.31 508.92,-410.42 538,-390 543.81,-385.92 550.55,-382.67 557.32,-380.1"/>
<polygon fill="midnightblue" stroke="midnightblue" points="469.93,-464.98 468.03,-475.4 476.02,-468.43 469.93,-464.98"/>
</g>
<!-- Node17 -->
<g id="node17" class="node">
<title>Node17</title>
<g id="a_node17"><a xlink:href="classv8_1_1Uint8ClampedArray.html" target="_top" xlink:title=" ">
<polygon fill="white" stroke="black" points="538,-323.5 538,-342.5 654,-342.5 654,-323.5 538,-323.5"/>
<text text-anchor="middle" x="596" y="-330.5" font-family="Helvetica,sans-Serif" font-size="10.00">v8::Uint8ClampedArray</text>
</a>
</g>
</g>
<!-- Node8&#45;&gt;Node17 -->
<g id="edge16" class="edge">
<title>Node8&#45;&gt;Node17</title>
<path fill="none" stroke="midnightblue" d="M468.88,-465.67C478.63,-436.83 500.82,-382.66 538,-352 542.67,-348.15 548.15,-345.07 553.83,-342.61"/>
<polygon fill="midnightblue" stroke="midnightblue" points="465.49,-464.79 465.75,-475.38 472.15,-466.94 465.49,-464.79"/>
</g>
</g>
</svg>
