<?xml version="1.0" encoding="UTF-8" standalone="no"?>
<!DOCTYPE svg PUBLIC "-//W3C//DTD SVG 1.1//EN"
 "http://www.w3.org/Graphics/SVG/1.1/DTD/svg11.dtd">
<!-- Generated by graphviz version 2.44.0 ()
 -->
<!-- Title: v8::Maybe::operator!= Pages: 1 -->
<svg width="535pt" height="47pt"
 viewBox="0.00 0.00 535.00 47.00" xmlns="http://www.w3.org/2000/svg" xmlns:xlink="http://www.w3.org/1999/xlink">
<g id="graph0" class="graph" transform="scale(1 1) rotate(0) translate(4 43)">
<title>v8::Maybe::operator!=</title>
<polygon fill="white" stroke="transparent" points="-4,4 -4,-43 531,-43 531,4 -4,4"/>
<!-- Node1 -->
<g id="node1" class="node">
<title>Node1</title>
<g id="a_node1"><a xlink:title=" ">
<polygon fill="#bfbfbf" stroke="black" points="0,-0.5 0,-19.5 109,-19.5 109,-0.5 0,-0.5"/>
<text text-anchor="middle" x="54.5" y="-7.5" font-family="Helvetica,sans-Serif" font-size="10.00">v8::Maybe::operator!=</text>
</a>
</g>
</g>
<!-- Node2 -->
<g id="node2" class="node">
<title>Node2</title>
<g id="a_node2"><a xlink:href="classv8_1_1Maybe.html#af190e1c503b1b5dca0eb6dc5ed264448" target="_top" xlink:title=" ">
<polygon fill="white" stroke="black" points="145,-0.5 145,-19.5 257,-19.5 257,-0.5 145,-0.5"/>
<text text-anchor="middle" x="201" y="-7.5" font-family="Helvetica,sans-Serif" font-size="10.00">v8::Maybe::operator==</text>
</a>
</g>
</g>
<!-- Node1&#45;&gt;Node2 -->
<g id="edge1" class="edge">
<title>Node1&#45;&gt;Node2</title>
<path fill="none" stroke="midnightblue" d="M109.31,-10C117.52,-10 126.08,-10 134.51,-10"/>
<polygon fill="midnightblue" stroke="midnightblue" points="134.7,-13.5 144.7,-10 134.7,-6.5 134.7,-13.5"/>
</g>
<!-- Node3 -->
<g id="node3" class="node">
<title>Node3</title>
<g id="a_node3"><a xlink:href="classv8_1_1Maybe.html#a95d278637faea00e4b221527a700f30d" target="_top" xlink:title=" ">
<polygon fill="white" stroke="black" points="293,-19.5 293,-38.5 399,-38.5 399,-19.5 293,-19.5"/>
<text text-anchor="middle" x="346" y="-26.5" font-family="Helvetica,sans-Serif" font-size="10.00">v8::Maybe::FromJust</text>
</a>
</g>
</g>
<!-- Node2&#45;&gt;Node3 -->
<g id="edge2" class="edge">
<title>Node2&#45;&gt;Node3</title>
<path fill="none" stroke="midnightblue" d="M257.29,-17.35C265.56,-18.44 274.13,-19.58 282.54,-20.7"/>
<polygon fill="midnightblue" stroke="midnightblue" points="282.3,-24.2 292.67,-22.05 283.22,-17.26 282.3,-24.2"/>
</g>
<!-- Node4 -->
<g id="node4" class="node">
<title>Node4</title>
<g id="a_node4"><a xlink:href="classv8_1_1Maybe.html#ad2eaaef8cd0988f1fc95f2a71c1888c5" target="_top" xlink:title=" ">
<polygon fill="white" stroke="black" points="435,-0.5 435,-19.5 527,-19.5 527,-0.5 435,-0.5"/>
<text text-anchor="middle" x="481" y="-7.5" font-family="Helvetica,sans-Serif" font-size="10.00">v8::Maybe::IsJust</text>
</a>
</g>
</g>
<!-- Node2&#45;&gt;Node4 -->
<g id="edge4" class="edge">
<title>Node2&#45;&gt;Node4</title>
<path fill="none" stroke="midnightblue" d="M257.26,-10C305.89,-10 376.34,-10 424.92,-10"/>
<polygon fill="midnightblue" stroke="midnightblue" points="424.94,-13.5 434.94,-10 424.94,-6.5 424.94,-13.5"/>
</g>
<!-- Node3&#45;&gt;Node4 -->
<g id="edge3" class="edge">
<title>Node3&#45;&gt;Node4</title>
<path fill="none" stroke="midnightblue" d="M399.18,-21.55C407.57,-20.35 416.27,-19.1 424.72,-17.9"/>
<polygon fill="midnightblue" stroke="midnightblue" points="425.46,-21.33 434.86,-16.45 424.47,-14.4 425.46,-21.33"/>
</g>
</g>
</svg>
