<?xml version="1.0" encoding="UTF-8" standalone="no"?>
<!DOCTYPE svg PUBLIC "-//W3C//DTD SVG 1.1//EN"
 "http://www.w3.org/Graphics/SVG/1.1/DTD/svg11.dtd">
<!-- Generated by graphviz version 2.44.0 ()
 -->
<!-- Title: v8::Object::New Pages: 1 -->
<svg width="414pt" height="224pt"
 viewBox="0.00 0.00 414.00 224.00" xmlns="http://www.w3.org/2000/svg" xmlns:xlink="http://www.w3.org/1999/xlink">
<g id="graph0" class="graph" transform="scale(1 1) rotate(0) translate(4 220)">
<title>v8::Object::New</title>
<polygon fill="white" stroke="transparent" points="-4,4 -4,-220 410,-220 410,4 -4,4"/>
<!-- Node1 -->
<g id="node1" class="node">
<title>Node1</title>
<g id="a_node1"><a xlink:title=" ">
<polygon fill="#bfbfbf" stroke="black" points="321,-76.5 321,-95.5 406,-95.5 406,-76.5 321,-76.5"/>
<text text-anchor="middle" x="363.5" y="-83.5" font-family="Helvetica,sans-Serif" font-size="10.00">v8::Object::New</text>
</a>
</g>
</g>
<!-- Node2 -->
<g id="node2" class="node">
<title>Node2</title>
<g id="a_node2"><a xlink:href="classv8_1_1Local.html#a1b3c386fb10d9e8f67aecec9174de1fa" target="_top" xlink:title=" ">
<polygon fill="white" stroke="black" points="196,-98.5 196,-117.5 276,-117.5 276,-98.5 196,-98.5"/>
<text text-anchor="middle" x="236" y="-105.5" font-family="Helvetica,sans-Serif" font-size="10.00">v8::Local::New</text>
</a>
</g>
</g>
<!-- Node1&#45;&gt;Node2 -->
<g id="edge1" class="edge">
<title>Node1&#45;&gt;Node2</title>
<path fill="none" stroke="midnightblue" d="M310.71,-95.08C299.12,-97.11 287.03,-99.23 276.06,-101.15"/>
<polygon fill="midnightblue" stroke="midnightblue" points="311.46,-98.5 320.71,-93.33 310.26,-91.6 311.46,-98.5"/>
</g>
<!-- Node8 -->
<g id="node8" class="node">
<title>Node8</title>
<g id="a_node8"><a xlink:href="classv8_1_1PersistentBase.html#ab4b4d3fba3498486f1f10dc7d5be90fc" target="_top" xlink:title=" ">
<polygon fill="white" stroke="black" points="187,-49 187,-79 285,-79 285,-49 187,-49"/>
<text text-anchor="start" x="195" y="-67" font-family="Helvetica,sans-Serif" font-size="10.00">v8::PersistentBase</text>
<text text-anchor="middle" x="236" y="-56" font-family="Helvetica,sans-Serif" font-size="10.00">::Reset</text>
</a>
</g>
</g>
<!-- Node1&#45;&gt;Node8 -->
<g id="edge7" class="edge">
<title>Node1&#45;&gt;Node8</title>
<path fill="none" stroke="midnightblue" d="M310.6,-76.9C302.16,-75.42 293.46,-73.9 285.12,-72.43"/>
<polygon fill="midnightblue" stroke="midnightblue" points="310.26,-80.4 320.71,-78.67 311.46,-73.5 310.26,-80.4"/>
</g>
<!-- Node3 -->
<g id="node3" class="node">
<title>Node3</title>
<g id="a_node3"><a xlink:href="classv8_1_1PersistentValueMapBase.html#a16b8f906ea42036c2f37d44813bf2a72" target="_top" xlink:title=" ">
<polygon fill="white" stroke="black" points="0,-174.5 0,-215.5 151,-215.5 151,-174.5 0,-174.5"/>
<text text-anchor="start" x="8" y="-203.5" font-family="Helvetica,sans-Serif" font-size="10.00">v8::PersistentValueMapBase</text>
<text text-anchor="start" x="8" y="-192.5" font-family="Helvetica,sans-Serif" font-size="10.00">&lt; K, V, DefaultGlobalMapTraits</text>
<text text-anchor="middle" x="75.5" y="-181.5" font-family="Helvetica,sans-Serif" font-size="10.00">&lt; K, V &gt; &gt;::Get</text>
</a>
</g>
</g>
<!-- Node2&#45;&gt;Node3 -->
<g id="edge2" class="edge">
<title>Node2&#45;&gt;Node3</title>
<path fill="none" stroke="midnightblue" d="M214.37,-123.83C197.83,-136.07 173.7,-152.9 151,-165 144.85,-168.28 138.26,-171.42 131.63,-174.35"/>
<polygon fill="midnightblue" stroke="midnightblue" points="216.82,-126.37 222.72,-117.57 212.62,-120.77 216.82,-126.37"/>
</g>
<!-- Node4 -->
<g id="node4" class="node">
<title>Node4</title>
<g id="a_node4"><a xlink:href="classv8_1_1PersistentBase.html#afc2feb7652b6d60b86a51eb2279be463" target="_top" xlink:title=" ">
<polygon fill="white" stroke="black" points="16,-136.5 16,-155.5 135,-155.5 135,-136.5 16,-136.5"/>
<text text-anchor="middle" x="75.5" y="-143.5" font-family="Helvetica,sans-Serif" font-size="10.00">v8::PersistentBase::Get</text>
</a>
</g>
</g>
<!-- Node2&#45;&gt;Node4 -->
<g id="edge3" class="edge">
<title>Node2&#45;&gt;Node4</title>
<path fill="none" stroke="midnightblue" d="M185.85,-119.78C163.51,-125.14 137.42,-131.39 116.33,-136.45"/>
<polygon fill="midnightblue" stroke="midnightblue" points="186.91,-123.13 195.82,-117.39 185.28,-116.32 186.91,-123.13"/>
</g>
<!-- Node5 -->
<g id="node5" class="node">
<title>Node5</title>
<g id="a_node5"><a xlink:href="classv8_1_1PersistentValueVector.html#a0788f334c7f61355863244379042ce76" target="_top" xlink:title=" ">
<polygon fill="white" stroke="black" points="1,-98.5 1,-117.5 150,-117.5 150,-98.5 1,-98.5"/>
<text text-anchor="middle" x="75.5" y="-105.5" font-family="Helvetica,sans-Serif" font-size="10.00">v8::PersistentValueVector::Get</text>
</a>
</g>
</g>
<!-- Node2&#45;&gt;Node5 -->
<g id="edge4" class="edge">
<title>Node2&#45;&gt;Node5</title>
<path fill="none" stroke="midnightblue" d="M185.75,-108C174.47,-108 162.23,-108 150.16,-108"/>
<polygon fill="midnightblue" stroke="midnightblue" points="185.82,-111.5 195.82,-108 185.82,-104.5 185.82,-111.5"/>
</g>
<!-- Node6 -->
<g id="node6" class="node">
<title>Node6</title>
<g id="a_node6"><a xlink:href="classv8_1_1ReturnValue.html#a9167dbbc04d72bbd85a8a7f199f211c4" target="_top" xlink:title=" ">
<polygon fill="white" stroke="black" points="23,-60.5 23,-79.5 128,-79.5 128,-60.5 23,-60.5"/>
<text text-anchor="middle" x="75.5" y="-67.5" font-family="Helvetica,sans-Serif" font-size="10.00">v8::ReturnValue::Get</text>
</a>
</g>
</g>
<!-- Node2&#45;&gt;Node6 -->
<g id="edge5" class="edge">
<title>Node2&#45;&gt;Node6</title>
<path fill="none" stroke="midnightblue" d="M185.85,-96.22C163.51,-90.86 137.42,-84.61 116.33,-79.55"/>
<polygon fill="midnightblue" stroke="midnightblue" points="185.28,-99.68 195.82,-98.61 186.91,-92.87 185.28,-99.68"/>
</g>
<!-- Node7 -->
<g id="node7" class="node">
<title>Node7</title>
<g id="a_node7"><a xlink:href="classv8_1_1PersistentValueMapBase_1_1PersistentValueReference.html#ac59d20538e1986a423605b013f33e040" target="_top" xlink:title=" ">
<polygon fill="white" stroke="black" points="4.5,-0.5 4.5,-41.5 146.5,-41.5 146.5,-0.5 4.5,-0.5"/>
<text text-anchor="start" x="12.5" y="-29.5" font-family="Helvetica,sans-Serif" font-size="10.00">v8::PersistentValueMapBase</text>
<text text-anchor="start" x="12.5" y="-18.5" font-family="Helvetica,sans-Serif" font-size="10.00">::PersistentValueReference</text>
<text text-anchor="middle" x="75.5" y="-7.5" font-family="Helvetica,sans-Serif" font-size="10.00">::NewLocal</text>
</a>
</g>
</g>
<!-- Node2&#45;&gt;Node7 -->
<g id="edge6" class="edge">
<title>Node2&#45;&gt;Node7</title>
<path fill="none" stroke="midnightblue" d="M195.75,-94.15C192.7,-92.58 189.75,-90.86 187,-89 167.73,-75.97 170.23,-64.09 151,-51 145.93,-47.55 140.4,-44.4 134.72,-41.54"/>
<polygon fill="midnightblue" stroke="midnightblue" points="194.5,-97.43 205.04,-98.48 197.45,-91.09 194.5,-97.43"/>
</g>
</g>
</svg>
