<?xml version="1.0" encoding="UTF-8" standalone="no"?>
<!DOCTYPE svg PUBLIC "-//W3C//DTD SVG 1.1//EN"
 "http://www.w3.org/Graphics/SVG/1.1/DTD/svg11.dtd">
<!-- Generated by graphviz version 2.44.0 ()
 -->
<!-- Title: v8::GlobalValueMap&lt; K, V, Traits &gt; Pages: 1 -->
<svg width="196pt" height="275pt"
 viewBox="0.00 0.00 195.50 275.00" xmlns="http://www.w3.org/2000/svg" xmlns:xlink="http://www.w3.org/1999/xlink">
<g id="graph0" class="graph" transform="scale(1 1) rotate(0) translate(4 271)">
<title>v8::GlobalValueMap&lt; K, V, Traits &gt;</title>
<polygon fill="white" stroke="transparent" points="-4,4 -4,-271 191.5,-271 191.5,4 -4,4"/>
<!-- Node1 -->
<g id="node1" class="node">
<title>Node1</title>
<g id="a_node1"><a xlink:title=" ">
<polygon fill="#bfbfbf" stroke="black" points="24,-168.5 24,-198.5 127,-198.5 127,-168.5 24,-168.5"/>
<text text-anchor="start" x="32" y="-186.5" font-family="Helvetica,sans-Serif" font-size="10.00">v8::GlobalValueMap</text>
<text text-anchor="middle" x="75.5" y="-175.5" font-family="Helvetica,sans-Serif" font-size="10.00">&lt; K, V, Traits &gt;</text>
</a>
</g>
</g>
<!-- Node3 -->
<g id="node3" class="node">
<title>Node3</title>
<g id="a_node3"><a xlink:href="classv8_1_1GlobalValueMap.html" target="_top" xlink:title=" ">
<polygon fill="white" stroke="black" points="0,-68.5 0,-109.5 151,-109.5 151,-68.5 0,-68.5"/>
<text text-anchor="start" x="8" y="-97.5" font-family="Helvetica,sans-Serif" font-size="10.00">v8::GlobalValueMap</text>
<text text-anchor="start" x="8" y="-86.5" font-family="Helvetica,sans-Serif" font-size="10.00">&lt; K, V, DefaultGlobalMapTraits</text>
<text text-anchor="middle" x="75.5" y="-75.5" font-family="Helvetica,sans-Serif" font-size="10.00">&lt; K, V &gt; &gt;</text>
</a>
</g>
</g>
<!-- Node1&#45;&gt;Node3 -->
<g id="edge2" class="edge">
<title>Node1&#45;&gt;Node3</title>
<path fill="none" stroke="orange" stroke-dasharray="5,2" d="M75.5,-158.28C75.5,-143.14 75.5,-123.88 75.5,-109.68"/>
<polygon fill="orange" stroke="orange" points="72,-158.45 75.5,-168.45 79,-158.45 72,-158.45"/>
<text text-anchor="start" x="75.5" y="-142" font-family="Helvetica,sans-Serif" font-size="10.00"> &lt; K, V, DefaultGlobalMap</text>
<text text-anchor="middle" x="131.5" y="-131" font-family="Helvetica,sans-Serif" font-size="10.00">Traits&lt; K, V &gt; &gt;</text>
</g>
<!-- Node2 -->
<g id="node2" class="node">
<title>Node2</title>
<g id="a_node2"><a xlink:href="classv8_1_1PersistentValueMapBase.html" target="_top" xlink:title=" ">
<polygon fill="white" stroke="black" points="4.5,-236.5 4.5,-266.5 146.5,-266.5 146.5,-236.5 4.5,-236.5"/>
<text text-anchor="start" x="12.5" y="-254.5" font-family="Helvetica,sans-Serif" font-size="10.00">v8::PersistentValueMapBase</text>
<text text-anchor="middle" x="75.5" y="-243.5" font-family="Helvetica,sans-Serif" font-size="10.00">&lt; K, V, Traits &gt;</text>
</a>
</g>
</g>
<!-- Node2&#45;&gt;Node1 -->
<g id="edge1" class="edge">
<title>Node2&#45;&gt;Node1</title>
<path fill="none" stroke="midnightblue" d="M75.5,-226.03C75.5,-216.86 75.5,-206.74 75.5,-198.79"/>
<polygon fill="midnightblue" stroke="midnightblue" points="72,-226.18 75.5,-236.18 79,-226.18 72,-226.18"/>
</g>
<!-- Node4 -->
<g id="node4" class="node">
<title>Node4</title>
<g id="a_node4"><a xlink:href="classv8_1_1StdGlobalValueMap.html" target="_top" xlink:title=" ">
<polygon fill="white" stroke="black" points="16.5,-0.5 16.5,-30.5 134.5,-30.5 134.5,-0.5 16.5,-0.5"/>
<text text-anchor="start" x="24.5" y="-18.5" font-family="Helvetica,sans-Serif" font-size="10.00">v8::StdGlobalValueMap</text>
<text text-anchor="middle" x="75.5" y="-7.5" font-family="Helvetica,sans-Serif" font-size="10.00">&lt; K, V, Traits &gt;</text>
</a>
</g>
</g>
<!-- Node3&#45;&gt;Node4 -->
<g id="edge3" class="edge">
<title>Node3&#45;&gt;Node4</title>
<path fill="none" stroke="midnightblue" d="M75.5,-58.16C75.5,-48.69 75.5,-38.65 75.5,-30.8"/>
<polygon fill="midnightblue" stroke="midnightblue" points="72,-58.46 75.5,-68.46 79,-58.46 72,-58.46"/>
</g>
</g>
</svg>
