<?xml version="1.0" encoding="UTF-8" standalone="no"?>
<!DOCTYPE svg PUBLIC "-//W3C//DTD SVG 1.1//EN"
 "http://www.w3.org/Graphics/SVG/1.1/DTD/svg11.dtd">
<!-- Generated by graphviz version 2.44.0 ()
 -->
<!-- Title: v8::Value Pages: 1 -->
<svg width="672pt" height="750pt"
 viewBox="0.00 0.00 672.00 750.00" xmlns="http://www.w3.org/2000/svg" xmlns:xlink="http://www.w3.org/1999/xlink">
<g id="graph0" class="graph" transform="scale(1 1) rotate(0) translate(4 746)">
<title>v8::Value</title>
<polygon fill="white" stroke="transparent" points="-4,4 -4,-746 668,-746 668,4 -4,4"/>
<!-- Node1 -->
<g id="node1" class="node">
<title>Node1</title>
<g id="a_node1"><a xlink:title=" ">
<polygon fill="#bfbfbf" stroke="black" points="88,-380.5 88,-399.5 144,-399.5 144,-380.5 88,-380.5"/>
<text text-anchor="middle" x="116" y="-387.5" font-family="Helvetica,sans-Serif" font-size="10.00">v8::Value</text>
</a>
</g>
</g>
<!-- Node3 -->
<g id="node3" class="node">
<title>Node3</title>
<g id="a_node3"><a xlink:href="classv8_1_1External.html" target="_top" xlink:title=" ">
<polygon fill="white" stroke="black" points="182,-418.5 182,-437.5 248,-437.5 248,-418.5 182,-418.5"/>
<text text-anchor="middle" x="215" y="-425.5" font-family="Helvetica,sans-Serif" font-size="10.00">v8::External</text>
</a>
</g>
</g>
<!-- Node1&#45;&gt;Node3 -->
<g id="edge2" class="edge">
<title>Node1&#45;&gt;Node3</title>
<path fill="none" stroke="midnightblue" d="M150.86,-403.26C163.59,-408.25 177.81,-413.82 189.53,-418.41"/>
<polygon fill="midnightblue" stroke="midnightblue" points="152.06,-399.98 141.48,-399.59 149.51,-406.5 152.06,-399.98"/>
</g>
<!-- Node4 -->
<g id="node4" class="node">
<title>Node4</title>
<g id="a_node4"><a xlink:href="classv8_1_1Object.html" target="_top" xlink:title=" ">
<polygon fill="white" stroke="black" points="185,-380.5 185,-399.5 245,-399.5 245,-380.5 185,-380.5"/>
<text text-anchor="middle" x="215" y="-387.5" font-family="Helvetica,sans-Serif" font-size="10.00">v8::Object</text>
</a>
</g>
</g>
<!-- Node1&#45;&gt;Node4 -->
<g id="edge3" class="edge">
<title>Node1&#45;&gt;Node4</title>
<path fill="none" stroke="midnightblue" d="M154.23,-390C164.34,-390 175.14,-390 184.75,-390"/>
<polygon fill="midnightblue" stroke="midnightblue" points="154.02,-386.5 144.02,-390 154.02,-393.5 154.02,-386.5"/>
</g>
<!-- Node31 -->
<g id="node31" class="node">
<title>Node31</title>
<g id="a_node31"><a xlink:href="classv8_1_1Primitive.html" target="_top" xlink:title=" ">
<polygon fill="white" stroke="black" points="180,-76.5 180,-95.5 250,-95.5 250,-76.5 180,-76.5"/>
<text text-anchor="middle" x="215" y="-83.5" font-family="Helvetica,sans-Serif" font-size="10.00">v8::Primitive</text>
</a>
</g>
</g>
<!-- Node1&#45;&gt;Node31 -->
<g id="edge30" class="edge">
<title>Node1&#45;&gt;Node31</title>
<path fill="none" stroke="midnightblue" d="M123.27,-370.35C142.04,-311.52 197.32,-138.26 210.94,-95.58"/>
<polygon fill="midnightblue" stroke="midnightblue" points="119.82,-369.64 120.12,-380.23 126.49,-371.77 119.82,-369.64"/>
</g>
<!-- Node2 -->
<g id="node2" class="node">
<title>Node2</title>
<g id="a_node2"><a xlink:href="classv8_1_1Data.html" target="_top" xlink:title=" ">
<polygon fill="white" stroke="black" points="0,-380.5 0,-399.5 52,-399.5 52,-380.5 0,-380.5"/>
<text text-anchor="middle" x="26" y="-387.5" font-family="Helvetica,sans-Serif" font-size="10.00">v8::Data</text>
</a>
</g>
</g>
<!-- Node2&#45;&gt;Node1 -->
<g id="edge1" class="edge">
<title>Node2&#45;&gt;Node1</title>
<path fill="none" stroke="midnightblue" d="M62.72,-390C71.08,-390 79.84,-390 87.76,-390"/>
<polygon fill="midnightblue" stroke="midnightblue" points="62.45,-386.5 52.45,-390 62.45,-393.5 62.45,-386.5"/>
</g>
<!-- Node5 -->
<g id="node5" class="node">
<title>Node5</title>
<g id="a_node5"><a xlink:href="classv8_1_1Array.html" target="_top" xlink:title=" ">
<polygon fill="white" stroke="black" points="314,-665.5 314,-684.5 368,-684.5 368,-665.5 314,-665.5"/>
<text text-anchor="middle" x="341" y="-672.5" font-family="Helvetica,sans-Serif" font-size="10.00">v8::Array</text>
</a>
</g>
</g>
<!-- Node4&#45;&gt;Node5 -->
<g id="edge4" class="edge">
<title>Node4&#45;&gt;Node5</title>
<path fill="none" stroke="midnightblue" d="M247.58,-405.96C248.45,-406.92 249.27,-407.93 250,-409 312.91,-500.37 215.5,-570.34 286,-656 292.88,-664.36 303.7,-669.05 313.84,-671.67"/>
<polygon fill="midnightblue" stroke="midnightblue" points="249.79,-403.25 239.86,-399.56 245.32,-408.64 249.79,-403.25"/>
</g>
<!-- Node6 -->
<g id="node6" class="node">
<title>Node6</title>
<g id="a_node6"><a xlink:href="classv8_1_1ArrayBuffer.html" target="_top" xlink:title=" ">
<polygon fill="white" stroke="black" points="301,-627.5 301,-646.5 381,-646.5 381,-627.5 301,-627.5"/>
<text text-anchor="middle" x="341" y="-634.5" font-family="Helvetica,sans-Serif" font-size="10.00">v8::ArrayBuffer</text>
</a>
</g>
</g>
<!-- Node4&#45;&gt;Node6 -->
<g id="edge5" class="edge">
<title>Node4&#45;&gt;Node6</title>
<path fill="none" stroke="midnightblue" d="M247.54,-405.99C248.43,-406.94 249.25,-407.94 250,-409 304.45,-485.94 225.17,-546 286,-618 289.98,-622.71 295.19,-626.25 300.82,-628.91"/>
<polygon fill="midnightblue" stroke="midnightblue" points="249.73,-403.26 239.78,-399.62 245.29,-408.67 249.73,-403.26"/>
</g>
<!-- Node7 -->
<g id="node7" class="node">
<title>Node7</title>
<g id="a_node7"><a xlink:href="classv8_1_1ArrayBufferView.html" target="_top" xlink:title=" ">
<polygon fill="white" stroke="black" points="290.5,-589.5 290.5,-608.5 391.5,-608.5 391.5,-589.5 290.5,-589.5"/>
<text text-anchor="middle" x="341" y="-596.5" font-family="Helvetica,sans-Serif" font-size="10.00">v8::ArrayBufferView</text>
</a>
</g>
</g>
<!-- Node4&#45;&gt;Node7 -->
<g id="edge6" class="edge">
<title>Node4&#45;&gt;Node7</title>
<path fill="none" stroke="midnightblue" d="M247.49,-406.02C248.39,-406.97 249.23,-407.96 250,-409 296.03,-471.56 234.79,-521.61 286,-580 289.41,-583.89 293.66,-586.98 298.27,-589.44"/>
<polygon fill="midnightblue" stroke="midnightblue" points="249.65,-403.26 239.67,-399.7 245.24,-408.71 249.65,-403.26"/>
</g>
<!-- Node19 -->
<g id="node19" class="node">
<title>Node19</title>
<g id="a_node19"><a xlink:href="classv8_1_1BooleanObject.html" target="_top" xlink:title=" ">
<polygon fill="white" stroke="black" points="293.5,-551.5 293.5,-570.5 388.5,-570.5 388.5,-551.5 293.5,-551.5"/>
<text text-anchor="middle" x="341" y="-558.5" font-family="Helvetica,sans-Serif" font-size="10.00">v8::BooleanObject</text>
</a>
</g>
</g>
<!-- Node4&#45;&gt;Node19 -->
<g id="edge18" class="edge">
<title>Node4&#45;&gt;Node19</title>
<path fill="none" stroke="midnightblue" d="M247.33,-406C248.29,-406.95 249.18,-407.95 250,-409 287.68,-457.27 244.33,-497.13 286,-542 289.58,-545.86 294,-548.94 298.75,-551.39"/>
<polygon fill="midnightblue" stroke="midnightblue" points="249.19,-403 239.15,-399.61 244.88,-408.52 249.19,-403"/>
</g>
<!-- Node20 -->
<g id="node20" class="node">
<title>Node20</title>
<g id="a_node20"><a xlink:href="classv8_1_1Date.html" target="_top" xlink:title=" ">
<polygon fill="white" stroke="black" points="315,-513.5 315,-532.5 367,-532.5 367,-513.5 315,-513.5"/>
<text text-anchor="middle" x="341" y="-520.5" font-family="Helvetica,sans-Serif" font-size="10.00">v8::Date</text>
</a>
</g>
</g>
<!-- Node4&#45;&gt;Node20 -->
<g id="edge19" class="edge">
<title>Node4&#45;&gt;Node20</title>
<path fill="none" stroke="midnightblue" d="M246.78,-405.71C247.92,-406.75 249.01,-407.85 250,-409 279.49,-443.19 253.69,-472.46 286,-504 293.82,-511.64 304.89,-516.22 314.97,-518.96"/>
<polygon fill="midnightblue" stroke="midnightblue" points="248.64,-402.74 238.52,-399.62 244.49,-408.37 248.64,-402.74"/>
</g>
<!-- Node21 -->
<g id="node21" class="node">
<title>Node21</title>
<g id="a_node21"><a xlink:href="classv8_1_1Function.html" target="_top" xlink:title=" ">
<polygon fill="white" stroke="black" points="306.5,-475.5 306.5,-494.5 375.5,-494.5 375.5,-475.5 306.5,-475.5"/>
<text text-anchor="middle" x="341" y="-482.5" font-family="Helvetica,sans-Serif" font-size="10.00">v8::Function</text>
</a>
</g>
</g>
<!-- Node4&#45;&gt;Node21 -->
<g id="edge20" class="edge">
<title>Node4&#45;&gt;Node21</title>
<path fill="none" stroke="midnightblue" d="M245.39,-405.11C247.01,-406.34 248.56,-407.64 250,-409 271.75,-429.61 262.57,-447.33 286,-466 291.98,-470.77 299.25,-474.39 306.49,-477.12"/>
<polygon fill="midnightblue" stroke="midnightblue" points="247.18,-402.1 236.9,-399.52 243.33,-407.94 247.18,-402.1"/>
</g>
<!-- Node22 -->
<g id="node22" class="node">
<title>Node22</title>
<g id="a_node22"><a xlink:href="classv8_1_1Map.html" target="_top" xlink:title=" ">
<polygon fill="white" stroke="black" points="316,-437.5 316,-456.5 366,-456.5 366,-437.5 316,-437.5"/>
<text text-anchor="middle" x="341" y="-444.5" font-family="Helvetica,sans-Serif" font-size="10.00">v8::Map</text>
</a>
</g>
</g>
<!-- Node4&#45;&gt;Node22 -->
<g id="edge21" class="edge">
<title>Node4&#45;&gt;Node22</title>
<path fill="none" stroke="midnightblue" d="M242.21,-404.49C260.15,-414.36 281.48,-425.99 286,-428 295.54,-432.23 306.34,-436.19 315.76,-439.39"/>
<polygon fill="midnightblue" stroke="midnightblue" points="243.69,-401.31 233.25,-399.55 240.31,-407.44 243.69,-401.31"/>
</g>
<!-- Node23 -->
<g id="node23" class="node">
<title>Node23</title>
<g id="a_node23"><a xlink:href="classv8_1_1NumberObject.html" target="_top" xlink:title=" ">
<polygon fill="white" stroke="black" points="293.5,-399.5 293.5,-418.5 388.5,-418.5 388.5,-399.5 293.5,-399.5"/>
<text text-anchor="middle" x="341" y="-406.5" font-family="Helvetica,sans-Serif" font-size="10.00">v8::NumberObject</text>
</a>
</g>
</g>
<!-- Node4&#45;&gt;Node23 -->
<g id="edge22" class="edge">
<title>Node4&#45;&gt;Node23</title>
<path fill="none" stroke="midnightblue" d="M255.26,-396.02C267.3,-397.86 280.67,-399.91 293.16,-401.82"/>
<polygon fill="midnightblue" stroke="midnightblue" points="255.49,-392.51 245.07,-394.45 254.43,-399.43 255.49,-392.51"/>
</g>
<!-- Node24 -->
<g id="node24" class="node">
<title>Node24</title>
<g id="a_node24"><a xlink:href="classv8_1_1Promise.html" target="_top" xlink:title=" ">
<polygon fill="white" stroke="black" points="307,-361.5 307,-380.5 375,-380.5 375,-361.5 307,-361.5"/>
<text text-anchor="middle" x="341" y="-368.5" font-family="Helvetica,sans-Serif" font-size="10.00">v8::Promise</text>
</a>
</g>
</g>
<!-- Node4&#45;&gt;Node24 -->
<g id="edge23" class="edge">
<title>Node4&#45;&gt;Node24</title>
<path fill="none" stroke="midnightblue" d="M255.03,-384.02C271.64,-381.47 290.81,-378.54 306.73,-376.1"/>
<polygon fill="midnightblue" stroke="midnightblue" points="254.43,-380.57 245.07,-385.55 255.49,-387.49 254.43,-380.57"/>
</g>
<!-- Node25 -->
<g id="node25" class="node">
<title>Node25</title>
<g id="a_node25"><a xlink:href="classv8_1_1Promise_1_1Resolver.html" target="_top" xlink:title=" ">
<polygon fill="white" stroke="black" points="286,-323.5 286,-342.5 396,-342.5 396,-323.5 286,-323.5"/>
<text text-anchor="middle" x="341" y="-330.5" font-family="Helvetica,sans-Serif" font-size="10.00">v8::Promise::Resolver</text>
</a>
</g>
</g>
<!-- Node4&#45;&gt;Node25 -->
<g id="edge24" class="edge">
<title>Node4&#45;&gt;Node25</title>
<path fill="none" stroke="midnightblue" d="M240.95,-375.2C254.09,-367.72 270.64,-358.82 286,-352 293.72,-348.57 302.27,-345.33 310.24,-342.52"/>
<polygon fill="midnightblue" stroke="midnightblue" points="238.95,-372.31 232.04,-380.34 242.45,-378.38 238.95,-372.31"/>
</g>
<!-- Node26 -->
<g id="node26" class="node">
<title>Node26</title>
<g id="a_node26"><a xlink:href="classv8_1_1RegExp.html" target="_top" xlink:title=" ">
<polygon fill="white" stroke="black" points="308.5,-285.5 308.5,-304.5 373.5,-304.5 373.5,-285.5 308.5,-285.5"/>
<text text-anchor="middle" x="341" y="-292.5" font-family="Helvetica,sans-Serif" font-size="10.00">v8::RegExp</text>
</a>
</g>
</g>
<!-- Node4&#45;&gt;Node26 -->
<g id="edge25" class="edge">
<title>Node4&#45;&gt;Node26</title>
<path fill="none" stroke="midnightblue" d="M228.57,-371.9C241.27,-354.82 262.36,-329.57 286,-314 292.72,-309.57 300.6,-306.04 308.22,-303.29"/>
<polygon fill="midnightblue" stroke="midnightblue" points="225.42,-370.28 222.41,-380.43 231.1,-374.37 225.42,-370.28"/>
</g>
<!-- Node27 -->
<g id="node27" class="node">
<title>Node27</title>
<g id="a_node27"><a xlink:href="classv8_1_1Set.html" target="_top" xlink:title=" ">
<polygon fill="white" stroke="black" points="317.5,-247.5 317.5,-266.5 364.5,-266.5 364.5,-247.5 317.5,-247.5"/>
<text text-anchor="middle" x="341" y="-254.5" font-family="Helvetica,sans-Serif" font-size="10.00">v8::Set</text>
</a>
</g>
</g>
<!-- Node4&#45;&gt;Node27 -->
<g id="edge26" class="edge">
<title>Node4&#45;&gt;Node27</title>
<path fill="none" stroke="midnightblue" d="M223.09,-370.65C233.28,-345.43 254.38,-301.53 286,-276 294.97,-268.76 306.9,-264.18 317.26,-261.33"/>
<polygon fill="midnightblue" stroke="midnightblue" points="219.74,-369.62 219.4,-380.21 226.27,-372.15 219.74,-369.62"/>
</g>
<!-- Node28 -->
<g id="node28" class="node">
<title>Node28</title>
<g id="a_node28"><a xlink:href="classv8_1_1SharedArrayBuffer.html" target="_top" xlink:title=" ">
<polygon fill="white" stroke="black" points="286,-209.5 286,-228.5 396,-228.5 396,-209.5 286,-209.5"/>
<text text-anchor="middle" x="341" y="-216.5" font-family="Helvetica,sans-Serif" font-size="10.00">v8::SharedArrayBuffer</text>
</a>
</g>
</g>
<!-- Node4&#45;&gt;Node28 -->
<g id="edge27" class="edge">
<title>Node4&#45;&gt;Node28</title>
<path fill="none" stroke="midnightblue" d="M219.87,-370.32C227.19,-338.18 246.04,-274.4 286,-238 290.26,-234.12 295.36,-231.02 300.71,-228.55"/>
<polygon fill="midnightblue" stroke="midnightblue" points="216.41,-369.75 217.75,-380.26 223.26,-371.21 216.41,-369.75"/>
</g>
<!-- Node29 -->
<g id="node29" class="node">
<title>Node29</title>
<g id="a_node29"><a xlink:href="classv8_1_1StringObject.html" target="_top" xlink:title=" ">
<polygon fill="white" stroke="black" points="298,-171.5 298,-190.5 384,-190.5 384,-171.5 298,-171.5"/>
<text text-anchor="middle" x="341" y="-178.5" font-family="Helvetica,sans-Serif" font-size="10.00">v8::StringObject</text>
</a>
</g>
</g>
<!-- Node4&#45;&gt;Node29 -->
<g id="edge28" class="edge">
<title>Node4&#45;&gt;Node29</title>
<path fill="none" stroke="midnightblue" d="M217.85,-369.81C222.42,-331.46 237.67,-247.63 286,-200 289.96,-196.09 294.78,-192.99 299.88,-190.52"/>
<polygon fill="midnightblue" stroke="midnightblue" points="214.33,-369.85 216.75,-380.17 221.29,-370.59 214.33,-369.85"/>
</g>
<!-- Node30 -->
<g id="node30" class="node">
<title>Node30</title>
<g id="a_node30"><a xlink:href="classv8_1_1SymbolObject.html" target="_top" xlink:title=" ">
<polygon fill="white" stroke="black" points="295,-133.5 295,-152.5 387,-152.5 387,-133.5 295,-133.5"/>
<text text-anchor="middle" x="341" y="-140.5" font-family="Helvetica,sans-Serif" font-size="10.00">v8::SymbolObject</text>
</a>
</g>
</g>
<!-- Node4&#45;&gt;Node30 -->
<g id="edge29" class="edge">
<title>Node4&#45;&gt;Node30</title>
<path fill="none" stroke="midnightblue" d="M216.37,-370.09C218.26,-326.45 228.87,-221.49 286,-162 289.72,-158.13 294.27,-155.05 299.14,-152.59"/>
<polygon fill="midnightblue" stroke="midnightblue" points="212.87,-370.14 216.05,-380.25 219.86,-370.37 212.87,-370.14"/>
</g>
<!-- Node8 -->
<g id="node8" class="node">
<title>Node8</title>
<g id="a_node8"><a xlink:href="classv8_1_1DataView.html" target="_top" xlink:title=" ">
<polygon fill="white" stroke="black" points="435,-608.5 435,-627.5 509,-627.5 509,-608.5 435,-608.5"/>
<text text-anchor="middle" x="472" y="-615.5" font-family="Helvetica,sans-Serif" font-size="10.00">v8::DataView</text>
</a>
</g>
</g>
<!-- Node7&#45;&gt;Node8 -->
<g id="edge7" class="edge">
<title>Node7&#45;&gt;Node8</title>
<path fill="none" stroke="midnightblue" d="M401.73,-607.8C412.97,-609.45 424.4,-611.14 434.65,-612.65"/>
<polygon fill="midnightblue" stroke="midnightblue" points="401.91,-604.29 391.51,-606.29 400.89,-611.21 401.91,-604.29"/>
</g>
<!-- Node9 -->
<g id="node9" class="node">
<title>Node9</title>
<g id="a_node9"><a xlink:href="classv8_1_1TypedArray.html" target="_top" xlink:title=" ">
<polygon fill="white" stroke="black" points="432,-570.5 432,-589.5 512,-589.5 512,-570.5 432,-570.5"/>
<text text-anchor="middle" x="472" y="-577.5" font-family="Helvetica,sans-Serif" font-size="10.00">v8::TypedArray</text>
</a>
</g>
</g>
<!-- Node7&#45;&gt;Node9 -->
<g id="edge8" class="edge">
<title>Node7&#45;&gt;Node9</title>
<path fill="none" stroke="midnightblue" d="M401.66,-590.21C411.9,-588.7 422.31,-587.17 431.84,-585.77"/>
<polygon fill="midnightblue" stroke="midnightblue" points="400.89,-586.79 391.51,-591.71 401.91,-593.71 400.89,-586.79"/>
</g>
<!-- Node10 -->
<g id="node10" class="node">
<title>Node10</title>
<g id="a_node10"><a xlink:href="classv8_1_1Float32Array.html" target="_top" xlink:title=" ">
<polygon fill="white" stroke="black" points="563,-722.5 563,-741.5 649,-741.5 649,-722.5 563,-722.5"/>
<text text-anchor="middle" x="606" y="-729.5" font-family="Helvetica,sans-Serif" font-size="10.00">v8::Float32Array</text>
</a>
</g>
</g>
<!-- Node9&#45;&gt;Node10 -->
<g id="edge9" class="edge">
<title>Node9&#45;&gt;Node10</title>
<path fill="none" stroke="midnightblue" d="M508.71,-595.67C509.88,-596.71 510.99,-597.82 512,-599 546.7,-639.24 510.73,-675.13 548,-713 552.17,-717.24 557.31,-720.53 562.78,-723.09"/>
<polygon fill="midnightblue" stroke="midnightblue" points="510.38,-592.56 500.2,-589.64 506.34,-598.28 510.38,-592.56"/>
</g>
<!-- Node11 -->
<g id="node11" class="node">
<title>Node11</title>
<g id="a_node11"><a xlink:href="classv8_1_1Float64Array.html" target="_top" xlink:title=" ">
<polygon fill="white" stroke="black" points="563,-684.5 563,-703.5 649,-703.5 649,-684.5 563,-684.5"/>
<text text-anchor="middle" x="606" y="-691.5" font-family="Helvetica,sans-Serif" font-size="10.00">v8::Float64Array</text>
</a>
</g>
</g>
<!-- Node9&#45;&gt;Node11 -->
<g id="edge10" class="edge">
<title>Node9&#45;&gt;Node11</title>
<path fill="none" stroke="midnightblue" d="M507.49,-595.05C509.09,-596.28 510.61,-597.59 512,-599 538.28,-625.57 520.03,-650.21 548,-675 552.37,-678.87 557.56,-681.96 562.99,-684.42"/>
<polygon fill="midnightblue" stroke="midnightblue" points="509.28,-592.03 498.98,-589.58 505.5,-597.93 509.28,-592.03"/>
</g>
<!-- Node12 -->
<g id="node12" class="node">
<title>Node12</title>
<g id="a_node12"><a xlink:href="classv8_1_1Int16Array.html" target="_top" xlink:title=" ">
<polygon fill="white" stroke="black" points="568,-646.5 568,-665.5 644,-665.5 644,-646.5 568,-646.5"/>
<text text-anchor="middle" x="606" y="-653.5" font-family="Helvetica,sans-Serif" font-size="10.00">v8::Int16Array</text>
</a>
</g>
</g>
<!-- Node9&#45;&gt;Node12 -->
<g id="edge11" class="edge">
<title>Node9&#45;&gt;Node12</title>
<path fill="none" stroke="midnightblue" d="M505.01,-594.4C507.44,-595.85 509.8,-597.39 512,-599 530.76,-612.76 528.38,-624.5 548,-637 554.07,-640.87 561.01,-644.03 567.91,-646.59"/>
<polygon fill="midnightblue" stroke="midnightblue" points="506.52,-591.24 496.07,-589.54 503.18,-597.39 506.52,-591.24"/>
</g>
<!-- Node13 -->
<g id="node13" class="node">
<title>Node13</title>
<g id="a_node13"><a xlink:href="classv8_1_1Int32Array.html" target="_top" xlink:title=" ">
<polygon fill="white" stroke="black" points="568,-608.5 568,-627.5 644,-627.5 644,-608.5 568,-608.5"/>
<text text-anchor="middle" x="606" y="-615.5" font-family="Helvetica,sans-Serif" font-size="10.00">v8::Int32Array</text>
</a>
</g>
</g>
<!-- Node9&#45;&gt;Node13 -->
<g id="edge12" class="edge">
<title>Node9&#45;&gt;Node13</title>
<path fill="none" stroke="midnightblue" d="M516.04,-592.39C534.12,-597.59 554.82,-603.55 571.7,-608.41"/>
<polygon fill="midnightblue" stroke="midnightblue" points="516.89,-588.99 506.31,-589.59 514.95,-595.72 516.89,-588.99"/>
</g>
<!-- Node14 -->
<g id="node14" class="node">
<title>Node14</title>
<g id="a_node14"><a xlink:href="classv8_1_1Int8Array.html" target="_top" xlink:title=" ">
<polygon fill="white" stroke="black" points="570.5,-570.5 570.5,-589.5 641.5,-589.5 641.5,-570.5 570.5,-570.5"/>
<text text-anchor="middle" x="606" y="-577.5" font-family="Helvetica,sans-Serif" font-size="10.00">v8::Int8Array</text>
</a>
</g>
</g>
<!-- Node9&#45;&gt;Node14 -->
<g id="edge13" class="edge">
<title>Node9&#45;&gt;Node14</title>
<path fill="none" stroke="midnightblue" d="M522.44,-580C538.32,-580 555.56,-580 570.17,-580"/>
<polygon fill="midnightblue" stroke="midnightblue" points="522.25,-576.5 512.25,-580 522.25,-583.5 522.25,-576.5"/>
</g>
<!-- Node15 -->
<g id="node15" class="node">
<title>Node15</title>
<g id="a_node15"><a xlink:href="classv8_1_1Uint16Array.html" target="_top" xlink:title=" ">
<polygon fill="white" stroke="black" points="564.5,-532.5 564.5,-551.5 647.5,-551.5 647.5,-532.5 564.5,-532.5"/>
<text text-anchor="middle" x="606" y="-539.5" font-family="Helvetica,sans-Serif" font-size="10.00">v8::Uint16Array</text>
</a>
</g>
</g>
<!-- Node9&#45;&gt;Node15 -->
<g id="edge14" class="edge">
<title>Node9&#45;&gt;Node15</title>
<path fill="none" stroke="midnightblue" d="M516.04,-567.61C534.12,-562.41 554.82,-556.45 571.7,-551.59"/>
<polygon fill="midnightblue" stroke="midnightblue" points="514.95,-564.28 506.31,-570.41 516.89,-571.01 514.95,-564.28"/>
</g>
<!-- Node16 -->
<g id="node16" class="node">
<title>Node16</title>
<g id="a_node16"><a xlink:href="classv8_1_1Uint32Array.html" target="_top" xlink:title=" ">
<polygon fill="white" stroke="black" points="564.5,-494.5 564.5,-513.5 647.5,-513.5 647.5,-494.5 564.5,-494.5"/>
<text text-anchor="middle" x="606" y="-501.5" font-family="Helvetica,sans-Serif" font-size="10.00">v8::Uint32Array</text>
</a>
</g>
</g>
<!-- Node9&#45;&gt;Node16 -->
<g id="edge15" class="edge">
<title>Node9&#45;&gt;Node16</title>
<path fill="none" stroke="midnightblue" d="M491.11,-563.51C505.62,-550.99 526.96,-534.11 548,-523 554.92,-519.35 562.68,-516.2 570.19,-513.58"/>
<polygon fill="midnightblue" stroke="midnightblue" points="488.6,-561.05 483.41,-570.29 493.23,-566.31 488.6,-561.05"/>
</g>
<!-- Node17 -->
<g id="node17" class="node">
<title>Node17</title>
<g id="a_node17"><a xlink:href="classv8_1_1Uint8Array.html" target="_top" xlink:title=" ">
<polygon fill="white" stroke="black" points="567.5,-456.5 567.5,-475.5 644.5,-475.5 644.5,-456.5 567.5,-456.5"/>
<text text-anchor="middle" x="606" y="-463.5" font-family="Helvetica,sans-Serif" font-size="10.00">v8::Uint8Array</text>
</a>
</g>
</g>
<!-- Node9&#45;&gt;Node17 -->
<g id="edge16" class="edge">
<title>Node9&#45;&gt;Node17</title>
<path fill="none" stroke="midnightblue" d="M483.01,-561.65C495.53,-540.31 518.92,-505.42 548,-485 553.81,-480.92 560.55,-477.67 567.32,-475.1"/>
<polygon fill="midnightblue" stroke="midnightblue" points="479.93,-559.98 478.03,-570.4 486.02,-563.43 479.93,-559.98"/>
</g>
<!-- Node18 -->
<g id="node18" class="node">
<title>Node18</title>
<g id="a_node18"><a xlink:href="classv8_1_1Uint8ClampedArray.html" target="_top" xlink:title=" ">
<polygon fill="white" stroke="black" points="548,-418.5 548,-437.5 664,-437.5 664,-418.5 548,-418.5"/>
<text text-anchor="middle" x="606" y="-425.5" font-family="Helvetica,sans-Serif" font-size="10.00">v8::Uint8ClampedArray</text>
</a>
</g>
</g>
<!-- Node9&#45;&gt;Node18 -->
<g id="edge17" class="edge">
<title>Node9&#45;&gt;Node18</title>
<path fill="none" stroke="midnightblue" d="M478.88,-560.67C488.63,-531.83 510.82,-477.66 548,-447 552.67,-443.15 558.15,-440.07 563.83,-437.61"/>
<polygon fill="midnightblue" stroke="midnightblue" points="475.49,-559.79 475.75,-570.38 482.15,-561.94 475.49,-559.79"/>
</g>
<!-- Node32 -->
<g id="node32" class="node">
<title>Node32</title>
<g id="a_node32"><a xlink:href="classv8_1_1Boolean.html" target="_top" xlink:title=" ">
<polygon fill="white" stroke="black" points="307.5,-95.5 307.5,-114.5 374.5,-114.5 374.5,-95.5 307.5,-95.5"/>
<text text-anchor="middle" x="341" y="-102.5" font-family="Helvetica,sans-Serif" font-size="10.00">v8::Boolean</text>
</a>
</g>
</g>
<!-- Node31&#45;&gt;Node32 -->
<g id="edge31" class="edge">
<title>Node31&#45;&gt;Node32</title>
<path fill="none" stroke="midnightblue" d="M260.12,-92.76C275.63,-95.14 292.77,-97.76 307.18,-99.97"/>
<polygon fill="midnightblue" stroke="midnightblue" points="260.63,-89.3 250.21,-91.24 259.57,-96.22 260.63,-89.3"/>
</g>
<!-- Node33 -->
<g id="node33" class="node">
<title>Node33</title>
<g id="a_node33"><a xlink:href="classv8_1_1Name.html" target="_top" xlink:title=" ">
<polygon fill="white" stroke="black" points="312,-57.5 312,-76.5 370,-76.5 370,-57.5 312,-57.5"/>
<text text-anchor="middle" x="341" y="-64.5" font-family="Helvetica,sans-Serif" font-size="10.00">v8::Name</text>
</a>
</g>
</g>
<!-- Node31&#45;&gt;Node33 -->
<g id="edge32" class="edge">
<title>Node31&#45;&gt;Node33</title>
<path fill="none" stroke="midnightblue" d="M260.54,-79.17C277.62,-76.56 296.62,-73.65 311.76,-71.33"/>
<polygon fill="midnightblue" stroke="midnightblue" points="259.57,-75.78 250.21,-80.76 260.63,-82.7 259.57,-75.78"/>
</g>
<!-- Node36 -->
<g id="node36" class="node">
<title>Node36</title>
<g id="a_node36"><a xlink:href="classv8_1_1Number.html" target="_top" xlink:title=" ">
<polygon fill="white" stroke="black" points="308,-19.5 308,-38.5 374,-38.5 374,-19.5 308,-19.5"/>
<text text-anchor="middle" x="341" y="-26.5" font-family="Helvetica,sans-Serif" font-size="10.00">v8::Number</text>
</a>
</g>
</g>
<!-- Node31&#45;&gt;Node36 -->
<g id="edge35" class="edge">
<title>Node31&#45;&gt;Node36</title>
<path fill="none" stroke="midnightblue" d="M240.95,-71.2C254.09,-63.72 270.64,-54.82 286,-48 293.72,-44.57 302.27,-41.33 310.24,-38.52"/>
<polygon fill="midnightblue" stroke="midnightblue" points="238.95,-68.31 232.04,-76.34 242.45,-74.38 238.95,-68.31"/>
</g>
<!-- Node34 -->
<g id="node34" class="node">
<title>Node34</title>
<g id="a_node34"><a xlink:href="classv8_1_1String.html" target="_top" xlink:title=" ">
<polygon fill="white" stroke="black" points="443.5,-95.5 443.5,-114.5 500.5,-114.5 500.5,-95.5 443.5,-95.5"/>
<text text-anchor="middle" x="472" y="-102.5" font-family="Helvetica,sans-Serif" font-size="10.00">v8::String</text>
</a>
</g>
</g>
<!-- Node33&#45;&gt;Node34 -->
<g id="edge33" class="edge">
<title>Node33&#45;&gt;Node34</title>
<path fill="none" stroke="midnightblue" d="M380.16,-78.24C400.38,-84.2 424.78,-91.39 443.2,-96.81"/>
<polygon fill="midnightblue" stroke="midnightblue" points="380.89,-74.81 370.31,-75.34 378.91,-81.52 380.89,-74.81"/>
</g>
<!-- Node35 -->
<g id="node35" class="node">
<title>Node35</title>
<g id="a_node35"><a xlink:href="classv8_1_1Symbol.html" target="_top" xlink:title=" ">
<polygon fill="white" stroke="black" points="440,-57.5 440,-76.5 504,-76.5 504,-57.5 440,-57.5"/>
<text text-anchor="middle" x="472" y="-64.5" font-family="Helvetica,sans-Serif" font-size="10.00">v8::Symbol</text>
</a>
</g>
</g>
<!-- Node33&#45;&gt;Node35 -->
<g id="edge34" class="edge">
<title>Node33&#45;&gt;Node35</title>
<path fill="none" stroke="midnightblue" d="M380.38,-67C399.26,-67 421.74,-67 439.59,-67"/>
<polygon fill="midnightblue" stroke="midnightblue" points="380.31,-63.5 370.31,-67 380.31,-70.5 380.31,-63.5"/>
</g>
<!-- Node37 -->
<g id="node37" class="node">
<title>Node37</title>
<g id="a_node37"><a xlink:href="classv8_1_1Integer.html" target="_top" xlink:title=" ">
<polygon fill="white" stroke="black" points="441,-19.5 441,-38.5 503,-38.5 503,-19.5 441,-19.5"/>
<text text-anchor="middle" x="472" y="-26.5" font-family="Helvetica,sans-Serif" font-size="10.00">v8::Integer</text>
</a>
</g>
</g>
<!-- Node36&#45;&gt;Node37 -->
<g id="edge36" class="edge">
<title>Node36&#45;&gt;Node37</title>
<path fill="none" stroke="midnightblue" d="M384.44,-29C402.92,-29 424.15,-29 440.96,-29"/>
<polygon fill="midnightblue" stroke="midnightblue" points="384.22,-25.5 374.22,-29 384.22,-32.5 384.22,-25.5"/>
</g>
<!-- Node38 -->
<g id="node38" class="node">
<title>Node38</title>
<g id="a_node38"><a xlink:href="classv8_1_1Int32.html" target="_top" xlink:title=" ">
<polygon fill="white" stroke="black" points="579.5,-38.5 579.5,-57.5 632.5,-57.5 632.5,-38.5 579.5,-38.5"/>
<text text-anchor="middle" x="606" y="-45.5" font-family="Helvetica,sans-Serif" font-size="10.00">v8::Int32</text>
</a>
</g>
</g>
<!-- Node37&#45;&gt;Node38 -->
<g id="edge37" class="edge">
<title>Node37&#45;&gt;Node38</title>
<path fill="none" stroke="midnightblue" d="M513.42,-34.82C534.87,-37.91 560.59,-41.61 579.3,-44.3"/>
<polygon fill="midnightblue" stroke="midnightblue" points="513.68,-31.32 503.28,-33.36 512.68,-38.25 513.68,-31.32"/>
</g>
<!-- Node39 -->
<g id="node39" class="node">
<title>Node39</title>
<g id="a_node39"><a xlink:href="classv8_1_1Uint32.html" target="_top" xlink:title=" ">
<polygon fill="white" stroke="black" points="576,-0.5 576,-19.5 636,-19.5 636,-0.5 576,-0.5"/>
<text text-anchor="middle" x="606" y="-7.5" font-family="Helvetica,sans-Serif" font-size="10.00">v8::Uint32</text>
</a>
</g>
</g>
<!-- Node37&#45;&gt;Node39 -->
<g id="edge38" class="edge">
<title>Node37&#45;&gt;Node39</title>
<path fill="none" stroke="midnightblue" d="M513.42,-23.18C533.55,-20.28 557.43,-16.85 575.77,-14.21"/>
<polygon fill="midnightblue" stroke="midnightblue" points="512.68,-19.75 503.28,-24.64 513.68,-26.68 512.68,-19.75"/>
</g>
</g>
</svg>
