<?xml version="1.0" encoding="UTF-8" standalone="no"?>
<!DOCTYPE svg PUBLIC "-//W3C//DTD SVG 1.1//EN"
 "http://www.w3.org/Graphics/SVG/1.1/DTD/svg11.dtd">
<!-- Generated by graphviz version 2.44.0 ()
 -->
<!-- Title: v8::PersistentValueMapBase::GetIsolate Pages: 1 -->
<svg width="337pt" height="50pt"
 viewBox="0.00 0.00 337.00 50.00" xmlns="http://www.w3.org/2000/svg" xmlns:xlink="http://www.w3.org/1999/xlink">
<g id="graph0" class="graph" transform="scale(1 1) rotate(0) translate(4 46)">
<title>v8::PersistentValueMapBase::GetIsolate</title>
<polygon fill="white" stroke="transparent" points="-4,4 -4,-46 333,-46 333,4 -4,4"/>
<!-- Node1 -->
<g id="node1" class="node">
<title>Node1</title>
<g id="a_node1"><a xlink:title=" ">
<polygon fill="#bfbfbf" stroke="black" points="187,-6 187,-36 329,-36 329,-6 187,-6"/>
<text text-anchor="start" x="195" y="-24" font-family="Helvetica,sans-Serif" font-size="10.00">v8::PersistentValueMapBase</text>
<text text-anchor="middle" x="258" y="-13" font-family="Helvetica,sans-Serif" font-size="10.00">::GetIsolate</text>
</a>
</g>
</g>
<!-- Node2 -->
<g id="node2" class="node">
<title>Node2</title>
<g id="a_node2"><a xlink:href="classv8_1_1PersistentValueMapBase.html#a6fa5f720b283dd9fa626a67e7687dcd0" target="_top" xlink:title=" ">
<polygon fill="white" stroke="black" points="0,-0.5 0,-41.5 151,-41.5 151,-0.5 0,-0.5"/>
<text text-anchor="start" x="8" y="-29.5" font-family="Helvetica,sans-Serif" font-size="10.00">v8::PersistentValueMapBase</text>
<text text-anchor="start" x="8" y="-18.5" font-family="Helvetica,sans-Serif" font-size="10.00">&lt; K, V, DefaultGlobalMapTraits</text>
<text text-anchor="middle" x="75.5" y="-7.5" font-family="Helvetica,sans-Serif" font-size="10.00">&lt; K, V &gt; &gt;::SetReference</text>
</a>
</g>
</g>
<!-- Node1&#45;&gt;Node2 -->
<g id="edge1" class="edge">
<title>Node1&#45;&gt;Node2</title>
<path fill="none" stroke="midnightblue" d="M176.72,-21C168.26,-21 159.68,-21 151.29,-21"/>
<polygon fill="midnightblue" stroke="midnightblue" points="176.96,-24.5 186.96,-21 176.96,-17.5 176.96,-24.5"/>
</g>
</g>
</svg>
