<?xml version="1.0" encoding="UTF-8" standalone="no"?>
<!DOCTYPE svg PUBLIC "-//W3C//DTD SVG 1.1//EN"
 "http://www.w3.org/Graphics/SVG/1.1/DTD/svg11.dtd">
<!-- Generated by graphviz version 2.44.0 ()
 -->
<!-- Title: v8::PersistentValueMapBase::FromVal Pages: 1 -->
<svg width="406pt" height="350pt"
 viewBox="0.00 0.00 406.00 350.00" xmlns="http://www.w3.org/2000/svg" xmlns:xlink="http://www.w3.org/1999/xlink">
<g id="graph0" class="graph" transform="scale(1 1) rotate(0) translate(4 346)">
<title>v8::PersistentValueMapBase::FromVal</title>
<polygon fill="white" stroke="transparent" points="-4,4 -4,-346 402,-346 402,4 -4,4"/>
<!-- Node1 -->
<g id="node1" class="node">
<title>Node1</title>
<g id="a_node1"><a xlink:title=" ">
<polygon fill="#bfbfbf" stroke="black" points="256,-156 256,-186 398,-186 398,-156 256,-156"/>
<text text-anchor="start" x="264" y="-174" font-family="Helvetica,sans-Serif" font-size="10.00">v8::PersistentValueMapBase</text>
<text text-anchor="middle" x="327" y="-163" font-family="Helvetica,sans-Serif" font-size="10.00">::FromVal</text>
</a>
</g>
</g>
<!-- Node2 -->
<g id="node2" class="node">
<title>Node2</title>
<g id="a_node2"><a xlink:href="classv8_1_1PersistentValueMapBase.html#a16b8f906ea42036c2f37d44813bf2a72" target="_top" xlink:title=" ">
<polygon fill="white" stroke="black" points="34.5,-300.5 34.5,-341.5 185.5,-341.5 185.5,-300.5 34.5,-300.5"/>
<text text-anchor="start" x="42.5" y="-329.5" font-family="Helvetica,sans-Serif" font-size="10.00">v8::PersistentValueMapBase</text>
<text text-anchor="start" x="42.5" y="-318.5" font-family="Helvetica,sans-Serif" font-size="10.00">&lt; K, V, DefaultGlobalMapTraits</text>
<text text-anchor="middle" x="110" y="-307.5" font-family="Helvetica,sans-Serif" font-size="10.00">&lt; K, V &gt; &gt;::Get</text>
</a>
</g>
</g>
<!-- Node1&#45;&gt;Node2 -->
<g id="edge1" class="edge">
<title>Node1&#45;&gt;Node2</title>
<path fill="none" stroke="midnightblue" d="M311.37,-194.59C293.25,-221.85 259.83,-266.14 220,-291 209.51,-297.55 197.58,-302.69 185.56,-306.72"/>
<polygon fill="midnightblue" stroke="midnightblue" points="314.41,-196.34 316.92,-186.05 308.54,-192.52 314.41,-196.34"/>
</g>
<!-- Node3 -->
<g id="node3" class="node">
<title>Node3</title>
<g id="a_node3"><a xlink:href="classv8_1_1PersistentValueMapBase_1_1PersistentValueReference.html#ac59d20538e1986a423605b013f33e040" target="_top" xlink:title=" ">
<polygon fill="white" stroke="black" points="39,-240.5 39,-281.5 181,-281.5 181,-240.5 39,-240.5"/>
<text text-anchor="start" x="47" y="-269.5" font-family="Helvetica,sans-Serif" font-size="10.00">v8::PersistentValueMapBase</text>
<text text-anchor="start" x="47" y="-258.5" font-family="Helvetica,sans-Serif" font-size="10.00">::PersistentValueReference</text>
<text text-anchor="middle" x="110" y="-247.5" font-family="Helvetica,sans-Serif" font-size="10.00">::NewLocal</text>
</a>
</g>
</g>
<!-- Node1&#45;&gt;Node3 -->
<g id="edge2" class="edge">
<title>Node1&#45;&gt;Node3</title>
<path fill="none" stroke="midnightblue" d="M294.64,-191.48C274.07,-204.21 246.22,-220.17 220,-231 207.66,-236.1 194.19,-240.6 181.06,-244.47"/>
<polygon fill="midnightblue" stroke="midnightblue" points="296.65,-194.34 303.26,-186.06 292.93,-188.42 296.65,-194.34"/>
</g>
<!-- Node4 -->
<g id="node4" class="node">
<title>Node4</title>
<g id="a_node4"><a xlink:href="classv8_1_1PersistentValueMapBase.html#ae23de36a1194ff1c009ebd6e9c527667" target="_top" xlink:title=" ">
<polygon fill="white" stroke="black" points="0,-180.5 0,-221.5 220,-221.5 220,-180.5 0,-180.5"/>
<text text-anchor="start" x="8" y="-209.5" font-family="Helvetica,sans-Serif" font-size="10.00">v8::PersistentValueMapBase</text>
<text text-anchor="start" x="8" y="-198.5" font-family="Helvetica,sans-Serif" font-size="10.00">&lt; K, V, DefaultGlobalMapTraits</text>
<text text-anchor="middle" x="110" y="-187.5" font-family="Helvetica,sans-Serif" font-size="10.00">&lt; K, V &gt; &gt;::RegisterExternallyReferencedObject</text>
</a>
</g>
</g>
<!-- Node1&#45;&gt;Node4 -->
<g id="edge3" class="edge">
<title>Node1&#45;&gt;Node4</title>
<path fill="none" stroke="midnightblue" d="M245.76,-182.2C237.34,-183.37 228.68,-184.58 220.01,-185.79"/>
<polygon fill="midnightblue" stroke="midnightblue" points="246.48,-185.63 255.9,-180.78 245.51,-178.7 246.48,-185.63"/>
</g>
<!-- Node5 -->
<g id="node5" class="node">
<title>Node5</title>
<g id="a_node5"><a xlink:href="classv8_1_1PersistentValueMapBase.html#a9ffa7a4e0c59121c0471d71c04112966" target="_top" xlink:title=" ">
<polygon fill="white" stroke="black" points="34.5,-120.5 34.5,-161.5 185.5,-161.5 185.5,-120.5 34.5,-120.5"/>
<text text-anchor="start" x="42.5" y="-149.5" font-family="Helvetica,sans-Serif" font-size="10.00">v8::PersistentValueMapBase</text>
<text text-anchor="start" x="42.5" y="-138.5" font-family="Helvetica,sans-Serif" font-size="10.00">&lt; K, V, DefaultGlobalMapTraits</text>
<text text-anchor="middle" x="110" y="-127.5" font-family="Helvetica,sans-Serif" font-size="10.00">&lt; K, V &gt; &gt;::Release</text>
</a>
</g>
</g>
<!-- Node1&#45;&gt;Node5 -->
<g id="edge4" class="edge">
<title>Node1&#45;&gt;Node5</title>
<path fill="none" stroke="midnightblue" d="M245.76,-159.8C226.13,-157.06 205.19,-154.14 185.82,-151.44"/>
<polygon fill="midnightblue" stroke="midnightblue" points="245.51,-163.3 255.9,-161.22 246.48,-156.37 245.51,-163.3"/>
</g>
<!-- Node6 -->
<g id="node6" class="node">
<title>Node6</title>
<g id="a_node6"><a xlink:href="classv8_1_1PersistentValueMapBase.html#a5c16ace49c257f760c92a010a93b4884" target="_top" xlink:title=" ">
<polygon fill="white" stroke="black" points="34.5,-60.5 34.5,-101.5 185.5,-101.5 185.5,-60.5 34.5,-60.5"/>
<text text-anchor="start" x="42.5" y="-89.5" font-family="Helvetica,sans-Serif" font-size="10.00">v8::PersistentValueMapBase</text>
<text text-anchor="start" x="42.5" y="-78.5" font-family="Helvetica,sans-Serif" font-size="10.00">&lt; K, V, DefaultGlobalMapTraits</text>
<text text-anchor="middle" x="110" y="-67.5" font-family="Helvetica,sans-Serif" font-size="10.00">&lt; K, V &gt; &gt;::RemoveWeak</text>
</a>
</g>
</g>
<!-- Node1&#45;&gt;Node6 -->
<g id="edge5" class="edge">
<title>Node1&#45;&gt;Node6</title>
<path fill="none" stroke="midnightblue" d="M294.64,-150.52C274.07,-137.79 246.22,-121.83 220,-111 209.12,-106.5 197.35,-102.47 185.7,-98.92"/>
<polygon fill="midnightblue" stroke="midnightblue" points="292.93,-153.58 303.26,-155.94 296.65,-147.66 292.93,-153.58"/>
</g>
<!-- Node7 -->
<g id="node7" class="node">
<title>Node7</title>
<g id="a_node7"><a xlink:href="classv8_1_1PersistentValueMapBase.html#a6fa5f720b283dd9fa626a67e7687dcd0" target="_top" xlink:title=" ">
<polygon fill="white" stroke="black" points="34.5,-0.5 34.5,-41.5 185.5,-41.5 185.5,-0.5 34.5,-0.5"/>
<text text-anchor="start" x="42.5" y="-29.5" font-family="Helvetica,sans-Serif" font-size="10.00">v8::PersistentValueMapBase</text>
<text text-anchor="start" x="42.5" y="-18.5" font-family="Helvetica,sans-Serif" font-size="10.00">&lt; K, V, DefaultGlobalMapTraits</text>
<text text-anchor="middle" x="110" y="-7.5" font-family="Helvetica,sans-Serif" font-size="10.00">&lt; K, V &gt; &gt;::SetReference</text>
</a>
</g>
</g>
<!-- Node1&#45;&gt;Node7 -->
<g id="edge6" class="edge">
<title>Node1&#45;&gt;Node7</title>
<path fill="none" stroke="midnightblue" d="M311.37,-147.41C293.25,-120.15 259.83,-75.86 220,-51 209.51,-44.45 197.58,-39.31 185.56,-35.28"/>
<polygon fill="midnightblue" stroke="midnightblue" points="308.54,-149.48 316.92,-155.95 314.41,-145.66 308.54,-149.48"/>
</g>
</g>
</svg>
