<?xml version="1.0" encoding="UTF-8" standalone="no"?>
<!DOCTYPE svg PUBLIC "-//W3C//DTD SVG 1.1//EN"
 "http://www.w3.org/Graphics/SVG/1.1/DTD/svg11.dtd">
<!-- Generated by graphviz version 2.44.0 ()
 -->
<!-- Title: v8::EmbedderReachableReferenceReporter::ReportExternalReference Pages: 1 -->
<svg width="429pt" height="99pt"
 viewBox="0.00 0.00 429.00 98.50" xmlns="http://www.w3.org/2000/svg" xmlns:xlink="http://www.w3.org/1999/xlink">
<g id="graph0" class="graph" transform="scale(1 1) rotate(0) translate(4 94.5)">
<title>v8::EmbedderReachableReferenceReporter::ReportExternalReference</title>
<polygon fill="white" stroke="transparent" points="-4,4 -4,-94.5 425,-94.5 425,4 -4,4"/>
<!-- Node1 -->
<g id="node1" class="node">
<title>Node1</title>
<g id="a_node1"><a xlink:title=" ">
<polygon fill="#bfbfbf" stroke="black" points="256,-27.5 256,-57.5 421,-57.5 421,-27.5 256,-27.5"/>
<text text-anchor="start" x="264" y="-45.5" font-family="Helvetica,sans-Serif" font-size="10.00">v8::EmbedderReachableReference</text>
<text text-anchor="middle" x="338.5" y="-34.5" font-family="Helvetica,sans-Serif" font-size="10.00">Reporter::ReportExternalReference</text>
</a>
</g>
</g>
<!-- Node2 -->
<g id="node2" class="node">
<title>Node2</title>
<g id="a_node2"><a xlink:href="classv8_1_1PersistentValueMapBase.html#ae23de36a1194ff1c009ebd6e9c527667" target="_top" xlink:title=" ">
<polygon fill="white" stroke="black" points="0,-49 0,-90 220,-90 220,-49 0,-49"/>
<text text-anchor="start" x="8" y="-78" font-family="Helvetica,sans-Serif" font-size="10.00">v8::PersistentValueMapBase</text>
<text text-anchor="start" x="8" y="-67" font-family="Helvetica,sans-Serif" font-size="10.00">&lt; K, V, DefaultGlobalMapTraits</text>
<text text-anchor="middle" x="110" y="-56" font-family="Helvetica,sans-Serif" font-size="10.00">&lt; K, V &gt; &gt;::RegisterExternallyReferencedObject</text>
</a>
</g>
</g>
<!-- Node1&#45;&gt;Node2 -->
<g id="edge1" class="edge">
<title>Node1&#45;&gt;Node2</title>
<path fill="none" stroke="midnightblue" d="M245.62,-53.45C237.26,-54.45 228.74,-55.46 220.25,-56.48"/>
<polygon fill="midnightblue" stroke="midnightblue" points="246.21,-56.91 255.73,-52.25 245.38,-49.96 246.21,-56.91"/>
</g>
<!-- Node3 -->
<g id="node3" class="node">
<title>Node3</title>
<g id="a_node3"><a xlink:href="classv8_1_1PersistentBase.html#aeca8462230106855a8a6cbf6bcd580bb" target="_top" xlink:title=" ">
<polygon fill="white" stroke="black" points="42,-0.5 42,-30.5 178,-30.5 178,-0.5 42,-0.5"/>
<text text-anchor="start" x="50" y="-18.5" font-family="Helvetica,sans-Serif" font-size="10.00">v8::PersistentBase</text>
<text text-anchor="middle" x="110" y="-7.5" font-family="Helvetica,sans-Serif" font-size="10.00">::RegisterExternalReference</text>
</a>
</g>
</g>
<!-- Node1&#45;&gt;Node3 -->
<g id="edge2" class="edge">
<title>Node1&#45;&gt;Node3</title>
<path fill="none" stroke="midnightblue" d="M245.78,-31.57C223.15,-28.87 199.34,-26.03 178.13,-23.5"/>
<polygon fill="midnightblue" stroke="midnightblue" points="245.38,-35.04 255.73,-32.75 246.21,-28.09 245.38,-35.04"/>
</g>
</g>
</svg>
