<?xml version="1.0" encoding="UTF-8" standalone="no"?>
<!DOCTYPE svg PUBLIC "-//W3C//DTD SVG 1.1//EN"
 "http://www.w3.org/Graphics/SVG/1.1/DTD/svg11.dtd">
<!-- Generated by graphviz version 2.44.0 ()
 -->
<!-- Title: include/libplatform/v8&#45;tracing.h Pages: 1 -->
<svg width="393pt" height="151pt"
 viewBox="0.00 0.00 392.50 151.00" xmlns="http://www.w3.org/2000/svg" xmlns:xlink="http://www.w3.org/1999/xlink">
<g id="graph0" class="graph" transform="scale(1 1) rotate(0) translate(4 147)">
<title>include/libplatform/v8&#45;tracing.h</title>
<polygon fill="white" stroke="transparent" points="-4,4 -4,-147 388.5,-147 388.5,4 -4,4"/>
<!-- Node1 -->
<g id="node1" class="node">
<title>Node1</title>
<g id="a_node1"><a xlink:title=" ">
<polygon fill="#bfbfbf" stroke="black" points="97.5,-112.5 97.5,-142.5 192.5,-142.5 192.5,-112.5 97.5,-112.5"/>
<text text-anchor="start" x="105.5" y="-130.5" font-family="Helvetica,sans-Serif" font-size="10.00">include/libplatform</text>
<text text-anchor="middle" x="145" y="-119.5" font-family="Helvetica,sans-Serif" font-size="10.00">/v8&#45;tracing.h</text>
</a>
</g>
</g>
<!-- Node2 -->
<g id="node2" class="node">
<title>Node2</title>
<g id="a_node2"><a xlink:title=" ">
<polygon fill="white" stroke="#bfbfbf" points="0,-56.5 0,-75.5 50,-75.5 50,-56.5 0,-56.5"/>
<text text-anchor="middle" x="25" y="-63.5" font-family="Helvetica,sans-Serif" font-size="10.00">fstream</text>
</a>
</g>
</g>
<!-- Node1&#45;&gt;Node2 -->
<g id="edge1" class="edge">
<title>Node1&#45;&gt;Node2</title>
<path fill="none" stroke="midnightblue" d="M116.56,-112.4C96.88,-102.64 70.86,-89.74 51.59,-80.18"/>
<polygon fill="midnightblue" stroke="midnightblue" points="52.98,-76.96 42.46,-75.66 49.87,-83.24 52.98,-76.96"/>
</g>
<!-- Node3 -->
<g id="node3" class="node">
<title>Node3</title>
<g id="a_node3"><a xlink:title=" ">
<polygon fill="white" stroke="#bfbfbf" points="95.5,-0.5 95.5,-19.5 146.5,-19.5 146.5,-0.5 95.5,-0.5"/>
<text text-anchor="middle" x="121" y="-7.5" font-family="Helvetica,sans-Serif" font-size="10.00">memory</text>
</a>
</g>
</g>
<!-- Node1&#45;&gt;Node3 -->
<g id="edge2" class="edge">
<title>Node1&#45;&gt;Node3</title>
<path fill="none" stroke="midnightblue" d="M125.8,-112.45C115.12,-103.4 102.83,-90.6 97,-76 90.61,-60 98.88,-41.56 107.41,-28.41"/>
<polygon fill="midnightblue" stroke="midnightblue" points="110.53,-30.07 113.46,-19.89 104.82,-26.02 110.53,-30.07"/>
</g>
<!-- Node4 -->
<g id="node4" class="node">
<title>Node4</title>
<g id="a_node4"><a xlink:title=" ">
<polygon fill="white" stroke="#bfbfbf" points="106,-56.5 106,-75.5 184,-75.5 184,-56.5 106,-56.5"/>
<text text-anchor="middle" x="145" y="-63.5" font-family="Helvetica,sans-Serif" font-size="10.00">unordered_set</text>
</a>
</g>
</g>
<!-- Node1&#45;&gt;Node4 -->
<g id="edge3" class="edge">
<title>Node1&#45;&gt;Node4</title>
<path fill="none" stroke="midnightblue" d="M145,-112.4C145,-104.47 145,-94.46 145,-85.86"/>
<polygon fill="midnightblue" stroke="midnightblue" points="148.5,-85.66 145,-75.66 141.5,-85.66 148.5,-85.66"/>
</g>
<!-- Node5 -->
<g id="node5" class="node">
<title>Node5</title>
<g id="a_node5"><a xlink:title=" ">
<polygon fill="white" stroke="#bfbfbf" points="202,-56.5 202,-75.5 246,-75.5 246,-56.5 202,-56.5"/>
<text text-anchor="middle" x="224" y="-63.5" font-family="Helvetica,sans-Serif" font-size="10.00">vector</text>
</a>
</g>
</g>
<!-- Node1&#45;&gt;Node5 -->
<g id="edge4" class="edge">
<title>Node1&#45;&gt;Node5</title>
<path fill="none" stroke="midnightblue" d="M163.72,-112.4C175.91,-103.22 191.79,-91.26 204.19,-81.92"/>
<polygon fill="midnightblue" stroke="midnightblue" points="206.62,-84.47 212.5,-75.66 202.41,-78.88 206.62,-84.47"/>
</g>
<!-- Node6 -->
<g id="node6" class="node">
<title>Node6</title>
<g id="a_node6"><a xlink:href="v8-platform_8h.html" target="_top" xlink:title=" ">
<polygon fill="white" stroke="black" points="264.5,-56.5 264.5,-75.5 337.5,-75.5 337.5,-56.5 264.5,-56.5"/>
<text text-anchor="middle" x="301" y="-63.5" font-family="Helvetica,sans-Serif" font-size="10.00">v8&#45;platform.h</text>
</a>
</g>
</g>
<!-- Node1&#45;&gt;Node6 -->
<g id="edge5" class="edge">
<title>Node1&#45;&gt;Node6</title>
<path fill="none" stroke="midnightblue" d="M181.97,-112.4C208.38,-102.33 243.56,-88.91 268.81,-79.28"/>
<polygon fill="midnightblue" stroke="midnightblue" points="270.2,-82.49 278.3,-75.66 267.71,-75.95 270.2,-82.49"/>
</g>
<!-- Node6&#45;&gt;Node3 -->
<g id="edge8" class="edge">
<title>Node6&#45;&gt;Node3</title>
<path fill="none" stroke="midnightblue" d="M272.48,-56.44C241.13,-47.04 190.7,-31.91 156.74,-21.72"/>
<polygon fill="midnightblue" stroke="midnightblue" points="157.35,-18.25 146.76,-18.73 155.34,-24.95 157.35,-18.25"/>
</g>
<!-- Node7 -->
<g id="node7" class="node">
<title>Node7</title>
<g id="a_node7"><a xlink:title=" ">
<polygon fill="white" stroke="#bfbfbf" points="207.5,-0.5 207.5,-19.5 258.5,-19.5 258.5,-0.5 207.5,-0.5"/>
<text text-anchor="middle" x="233" y="-7.5" font-family="Helvetica,sans-Serif" font-size="10.00">stddef.h</text>
</a>
</g>
</g>
<!-- Node6&#45;&gt;Node7 -->
<g id="edge6" class="edge">
<title>Node6&#45;&gt;Node7</title>
<path fill="none" stroke="midnightblue" d="M290.07,-56.32C279.83,-48.18 264.28,-35.84 252,-26.09"/>
<polygon fill="midnightblue" stroke="midnightblue" points="254.13,-23.31 244.12,-19.83 249.78,-28.79 254.13,-23.31"/>
</g>
<!-- Node8 -->
<g id="node8" class="node">
<title>Node8</title>
<g id="a_node8"><a xlink:title=" ">
<polygon fill="white" stroke="#bfbfbf" points="277,-0.5 277,-19.5 325,-19.5 325,-0.5 277,-0.5"/>
<text text-anchor="middle" x="301" y="-7.5" font-family="Helvetica,sans-Serif" font-size="10.00">stdint.h</text>
</a>
</g>
</g>
<!-- Node6&#45;&gt;Node8 -->
<g id="edge7" class="edge">
<title>Node6&#45;&gt;Node8</title>
<path fill="none" stroke="midnightblue" d="M301,-56.08C301,-49.01 301,-38.86 301,-29.99"/>
<polygon fill="midnightblue" stroke="midnightblue" points="304.5,-29.75 301,-19.75 297.5,-29.75 304.5,-29.75"/>
</g>
<!-- Node9 -->
<g id="node9" class="node">
<title>Node9</title>
<g id="a_node9"><a xlink:title=" ">
<polygon fill="white" stroke="#bfbfbf" points="343.5,-0.5 343.5,-19.5 384.5,-19.5 384.5,-0.5 343.5,-0.5"/>
<text text-anchor="middle" x="364" y="-7.5" font-family="Helvetica,sans-Serif" font-size="10.00">string</text>
</a>
</g>
</g>
<!-- Node6&#45;&gt;Node9 -->
<g id="edge9" class="edge">
<title>Node6&#45;&gt;Node9</title>
<path fill="none" stroke="midnightblue" d="M311.12,-56.32C320.53,-48.26 334.74,-36.08 346.07,-26.37"/>
<polygon fill="midnightblue" stroke="midnightblue" points="348.38,-29 353.69,-19.83 343.82,-23.68 348.38,-29"/>
</g>
</g>
</svg>
