<?xml version="1.0" encoding="UTF-8" standalone="no"?>
<!DOCTYPE svg PUBLIC "-//W3C//DTD SVG 1.1//EN"
 "http://www.w3.org/Graphics/SVG/1.1/DTD/svg11.dtd">
<!-- Generated by graphviz version 2.44.0 ()
 -->
<!-- Title: v8::JitCodeEvent Pages: 1 -->
<svg width="537pt" height="154pt"
 viewBox="0.00 0.00 537.00 154.00" xmlns="http://www.w3.org/2000/svg" xmlns:xlink="http://www.w3.org/1999/xlink">
<g id="graph0" class="graph" transform="scale(1 1) rotate(0) translate(4 150)">
<title>v8::JitCodeEvent</title>
<polygon fill="white" stroke="transparent" points="-4,4 -4,-150 533,-150 533,4 -4,4"/>
<!-- Node1 -->
<g id="node1" class="node">
<title>Node1</title>
<g id="a_node1"><a xlink:title=" ">
<polygon fill="#bfbfbf" stroke="black" points="440,-65.5 440,-84.5 529,-84.5 529,-65.5 440,-65.5"/>
<text text-anchor="middle" x="484.5" y="-72.5" font-family="Helvetica,sans-Serif" font-size="10.00">v8::JitCodeEvent</text>
</a>
</g>
</g>
<!-- Node2 -->
<g id="node2" class="node">
<title>Node2</title>
<g id="a_node2"><a xlink:href="structv8_1_1JitCodeEvent_1_1name__t.html" target="_top" xlink:title=" ">
<polygon fill="white" stroke="black" points="226,-126.5 226,-145.5 352,-145.5 352,-126.5 226,-126.5"/>
<text text-anchor="middle" x="289" y="-133.5" font-family="Helvetica,sans-Serif" font-size="10.00">v8::JitCodeEvent::name_t</text>
</a>
</g>
</g>
<!-- Node2&#45;&gt;Node1 -->
<g id="edge1" class="edge">
<title>Node2&#45;&gt;Node1</title>
<path fill="none" stroke="#9a32cd" stroke-dasharray="5,2" d="M339.66,-123.97C348.14,-121.76 356.85,-119.39 365,-117 390.63,-109.49 396.82,-106.9 422,-98 434.04,-93.74 447.31,-88.81 458.44,-84.61"/>
<polygon fill="#9a32cd" stroke="#9a32cd" points="338.67,-120.61 329.85,-126.48 340.41,-127.39 338.67,-120.61"/>
<text text-anchor="middle" x="402.5" y="-114" font-family="Helvetica,sans-Serif" font-size="10.00"> name</text>
</g>
<!-- Node3 -->
<g id="node3" class="node">
<title>Node3</title>
<g id="a_node3"><a xlink:href="structv8_1_1JitCodeEvent_1_1line__info__t.html" target="_top" xlink:title=" ">
<polygon fill="white" stroke="black" points="234.5,-77 234.5,-107 343.5,-107 343.5,-77 234.5,-77"/>
<text text-anchor="start" x="242.5" y="-95" font-family="Helvetica,sans-Serif" font-size="10.00">v8::JitCodeEvent::line</text>
<text text-anchor="middle" x="289" y="-84" font-family="Helvetica,sans-Serif" font-size="10.00">_info_t</text>
</a>
</g>
</g>
<!-- Node3&#45;&gt;Node1 -->
<g id="edge2" class="edge">
<title>Node3&#45;&gt;Node1</title>
<path fill="none" stroke="#9a32cd" stroke-dasharray="5,2" d="M353.82,-86.39C382.03,-83.91 414.48,-81.06 439.86,-78.83"/>
<polygon fill="#9a32cd" stroke="#9a32cd" points="353.3,-82.93 343.64,-87.29 353.91,-89.9 353.3,-82.93"/>
<text text-anchor="middle" x="402.5" y="-86" font-family="Helvetica,sans-Serif" font-size="10.00"> line_info</text>
</g>
<!-- Node4 -->
<g id="node4" class="node">
<title>Node4</title>
<g id="a_node4"><a xlink:href="classv8_1_1Local.html" target="_top" xlink:title=" ">
<polygon fill="white" stroke="black" points="213,-38.5 213,-57.5 365,-57.5 365,-38.5 213,-38.5"/>
<text text-anchor="middle" x="289" y="-45.5" font-family="Helvetica,sans-Serif" font-size="10.00">v8::Local&lt; v8::UnboundScript &gt;</text>
</a>
</g>
</g>
<!-- Node4&#45;&gt;Node1 -->
<g id="edge3" class="edge">
<title>Node4&#45;&gt;Node1</title>
<path fill="none" stroke="#9a32cd" stroke-dasharray="5,2" d="M375.24,-58.56C390.81,-60.61 406.9,-62.8 422,-65 427.78,-65.84 433.86,-66.77 439.85,-67.72"/>
<polygon fill="#9a32cd" stroke="#9a32cd" points="375.47,-55.06 365.1,-57.23 374.56,-62 375.47,-55.06"/>
<text text-anchor="middle" x="402.5" y="-68" font-family="Helvetica,sans-Serif" font-size="10.00"> script</text>
</g>
<!-- Node5 -->
<g id="node5" class="node">
<title>Node5</title>
<g id="a_node5"><a xlink:href="classv8_1_1Local.html" target="_top" xlink:title=" ">
<polygon fill="white" stroke="black" points="0,-38.5 0,-57.5 78,-57.5 78,-38.5 0,-38.5"/>
<text text-anchor="middle" x="39" y="-45.5" font-family="Helvetica,sans-Serif" font-size="10.00">v8::Local&lt; T &gt;</text>
</a>
</g>
</g>
<!-- Node5&#45;&gt;Node4 -->
<g id="edge4" class="edge">
<title>Node5&#45;&gt;Node4</title>
<path fill="none" stroke="orange" stroke-dasharray="5,2" d="M88.27,-48C123.63,-48 172.31,-48 212.76,-48"/>
<polygon fill="orange" stroke="orange" points="88.21,-44.5 78.21,-48 88.21,-51.5 88.21,-44.5"/>
<text text-anchor="middle" x="145.5" y="-51" font-family="Helvetica,sans-Serif" font-size="10.00"> &lt; v8::UnboundScript &gt;</text>
</g>
<!-- Node6 -->
<g id="node6" class="node">
<title>Node6</title>
<g id="a_node6"><a xlink:href="classv8_1_1Isolate.html" target="_top" xlink:title=" ">
<polygon fill="white" stroke="black" points="258.5,-0.5 258.5,-19.5 319.5,-19.5 319.5,-0.5 258.5,-0.5"/>
<text text-anchor="middle" x="289" y="-7.5" font-family="Helvetica,sans-Serif" font-size="10.00">v8::Isolate</text>
</a>
</g>
</g>
<!-- Node6&#45;&gt;Node1 -->
<g id="edge5" class="edge">
<title>Node6&#45;&gt;Node1</title>
<path fill="none" stroke="#9a32cd" stroke-dasharray="5,2" d="M329.75,-17.84C356.32,-23.66 391.82,-32.57 422,-44 437.77,-49.97 454.82,-58.77 466.96,-65.47"/>
<polygon fill="#9a32cd" stroke="#9a32cd" points="330.18,-14.36 319.67,-15.69 328.72,-21.2 330.18,-14.36"/>
<text text-anchor="middle" x="402.5" y="-47" font-family="Helvetica,sans-Serif" font-size="10.00"> isolate</text>
</g>
</g>
</svg>
