<?xml version="1.0" encoding="UTF-8" standalone="no"?>
<!DOCTYPE svg PUBLIC "-//W3C//DTD SVG 1.1//EN"
 "http://www.w3.org/Graphics/SVG/1.1/DTD/svg11.dtd">
<!-- Generated by graphviz version 2.44.0 ()
 -->
<!-- Title: v8::Isolate::GetCurrent Pages: 1 -->
<svg width="321pt" height="770pt"
 viewBox="0.00 0.00 321.00 769.50" xmlns="http://www.w3.org/2000/svg" xmlns:xlink="http://www.w3.org/1999/xlink">
<g id="graph0" class="graph" transform="scale(1 1) rotate(0) translate(4 765.5)">
<title>v8::Isolate::GetCurrent</title>
<polygon fill="white" stroke="transparent" points="-4,4 -4,-765.5 317,-765.5 317,4 -4,4"/>
<!-- Node1 -->
<g id="node1" class="node">
<title>Node1</title>
<g id="a_node1"><a xlink:title=" ">
<polygon fill="#bfbfbf" stroke="black" points="200,-354 200,-373 313,-373 313,-354 200,-354"/>
<text text-anchor="middle" x="256.5" y="-361" font-family="Helvetica,sans-Serif" font-size="10.00">v8::Isolate::GetCurrent</text>
</a>
</g>
</g>
<!-- Node2 -->
<g id="node2" class="node">
<title>Node2</title>
<g id="a_node2"><a xlink:href="classv8_1_1V8.html#a8021e7accd9d5f739ecc0eff876f9f0f" target="_top" xlink:title=" ">
<polygon fill="white" stroke="black" points="12,-742 12,-761 152,-761 152,-742 12,-742"/>
<text text-anchor="middle" x="82" y="-749" font-family="Helvetica,sans-Serif" font-size="10.00">v8::V8::AddMessageListener</text>
</a>
</g>
</g>
<!-- Node1&#45;&gt;Node2 -->
<g id="edge1" class="edge">
<title>Node1&#45;&gt;Node2</title>
<path fill="none" stroke="midnightblue" d="M253.32,-383.15C245.25,-452.2 214.94,-682.2 164,-732.5 160.2,-736.26 155.8,-739.32 151.06,-741.82"/>
<polygon fill="midnightblue" stroke="midnightblue" points="256.8,-383.51 254.46,-373.18 249.84,-382.71 256.8,-383.51"/>
</g>
<!-- Node3 -->
<g id="node3" class="node">
<title>Node3</title>
<g id="a_node3"><a xlink:href="classv8_1_1V8.html#ae5af79b24fc62e987e08c43ee148424d" target="_top" xlink:title=" ">
<polygon fill="white" stroke="black" points="42.5,-704 42.5,-723 121.5,-723 121.5,-704 42.5,-704"/>
<text text-anchor="middle" x="82" y="-711" font-family="Helvetica,sans-Serif" font-size="10.00">v8::V8::IsDead</text>
</a>
</g>
</g>
<!-- Node1&#45;&gt;Node3 -->
<g id="edge2" class="edge">
<title>Node1&#45;&gt;Node3</title>
<path fill="none" stroke="midnightblue" d="M252.72,-383.18C243.22,-447.53 210.12,-650.16 164,-694.5 152.75,-705.31 136.58,-710.38 121.64,-712.63"/>
<polygon fill="midnightblue" stroke="midnightblue" points="256.2,-383.54 254.17,-373.15 249.27,-382.54 256.2,-383.54"/>
</g>
<!-- Node4 -->
<g id="node4" class="node">
<title>Node4</title>
<g id="a_node4"><a xlink:href="classv8_1_1V8.html#ac9336f620bc684ff6e3c68ee6f549d18" target="_top" xlink:title=" ">
<polygon fill="white" stroke="black" points="7.5,-666 7.5,-685 156.5,-685 156.5,-666 7.5,-666"/>
<text text-anchor="middle" x="82" y="-673" font-family="Helvetica,sans-Serif" font-size="10.00">v8::V8::IsExecutionTerminating</text>
</a>
</g>
</g>
<!-- Node1&#45;&gt;Node4 -->
<g id="edge3" class="edge">
<title>Node1&#45;&gt;Node4</title>
<path fill="none" stroke="midnightblue" d="M255.61,-383.11C254.77,-435.76 244.88,-581.26 164,-656.5 159.88,-660.34 155.13,-663.45 150.04,-665.96"/>
<polygon fill="midnightblue" stroke="midnightblue" points="259.11,-383.11 255.67,-373.09 252.11,-383.07 259.11,-383.11"/>
</g>
<!-- Node5 -->
<g id="node5" class="node">
<title>Node5</title>
<g id="a_node5"><a xlink:href="classv8_1_1V8.html#abee47a7f81e85bf58578b52bc9d95727" target="_top" xlink:title=" ">
<polygon fill="white" stroke="black" points="14.5,-616.5 14.5,-646.5 149.5,-646.5 149.5,-616.5 14.5,-616.5"/>
<text text-anchor="start" x="22.5" y="-634.5" font-family="Helvetica,sans-Serif" font-size="10.00">v8::V8::RemoveGCEpilogue</text>
<text text-anchor="middle" x="82" y="-623.5" font-family="Helvetica,sans-Serif" font-size="10.00">Callback</text>
</a>
</g>
</g>
<!-- Node1&#45;&gt;Node5 -->
<g id="edge4" class="edge">
<title>Node1&#45;&gt;Node5</title>
<path fill="none" stroke="midnightblue" d="M253.92,-383.25C249.16,-429.42 230.83,-545.24 164,-607.5 159.71,-611.5 154.78,-614.83 149.52,-617.62"/>
<polygon fill="midnightblue" stroke="midnightblue" points="257.43,-383.36 254.86,-373.09 250.46,-382.72 257.43,-383.36"/>
</g>
<!-- Node6 -->
<g id="node6" class="node">
<title>Node6</title>
<g id="a_node6"><a xlink:href="classv8_1_1V8.html#aea7e6f15c1e26cc07057f422db80776c" target="_top" xlink:title=" ">
<polygon fill="white" stroke="black" points="13.5,-567.5 13.5,-597.5 150.5,-597.5 150.5,-567.5 13.5,-567.5"/>
<text text-anchor="start" x="21.5" y="-585.5" font-family="Helvetica,sans-Serif" font-size="10.00">v8::V8::RemoveGCPrologue</text>
<text text-anchor="middle" x="82" y="-574.5" font-family="Helvetica,sans-Serif" font-size="10.00">Callback</text>
</a>
</g>
</g>
<!-- Node1&#45;&gt;Node6 -->
<g id="edge5" class="edge">
<title>Node1&#45;&gt;Node6</title>
<path fill="none" stroke="midnightblue" d="M251.76,-383.07C243.27,-422.09 218.9,-509.86 164,-557.5 159.55,-561.36 154.52,-564.62 149.19,-567.38"/>
<polygon fill="midnightblue" stroke="midnightblue" points="255.19,-383.73 253.78,-373.23 248.34,-382.32 255.19,-383.73"/>
</g>
<!-- Node7 -->
<g id="node7" class="node">
<title>Node7</title>
<g id="a_node7"><a xlink:href="classv8_1_1V8.html#a103099e00d03c714261e00d75f0d745a" target="_top" xlink:title=" ">
<polygon fill="white" stroke="black" points="0,-529 0,-548 164,-548 164,-529 0,-529"/>
<text text-anchor="middle" x="82" y="-536" font-family="Helvetica,sans-Serif" font-size="10.00">v8::V8::RemoveMessageListeners</text>
</a>
</g>
</g>
<!-- Node1&#45;&gt;Node7 -->
<g id="edge6" class="edge">
<title>Node1&#45;&gt;Node7</title>
<path fill="none" stroke="midnightblue" d="M249.74,-382.9C238.78,-416.27 211.68,-484.34 164,-519.5 158.77,-523.36 152.87,-526.45 146.71,-528.92"/>
<polygon fill="midnightblue" stroke="midnightblue" points="253.18,-383.6 252.84,-373.01 246.51,-381.5 253.18,-383.6"/>
</g>
<!-- Node8 -->
<g id="node8" class="node">
<title>Node8</title>
<g id="a_node8"><a xlink:href="classv8_1_1V8.html#a6ed3c6cd32b8d225013445b145381d34" target="_top" xlink:title=" ">
<polygon fill="white" stroke="black" points="8.5,-479.5 8.5,-509.5 155.5,-509.5 155.5,-479.5 8.5,-479.5"/>
<text text-anchor="start" x="16.5" y="-497.5" font-family="Helvetica,sans-Serif" font-size="10.00">v8::V8::SetCaptureStackTrace</text>
<text text-anchor="middle" x="82" y="-486.5" font-family="Helvetica,sans-Serif" font-size="10.00">ForUncaughtExceptions</text>
</a>
</g>
</g>
<!-- Node1&#45;&gt;Node8 -->
<g id="edge7" class="edge">
<title>Node1&#45;&gt;Node8</title>
<path fill="none" stroke="midnightblue" d="M244.57,-381.9C229.43,-405.81 199.86,-447.23 164,-470.5 158.71,-473.93 152.91,-476.89 146.93,-479.43"/>
<polygon fill="midnightblue" stroke="midnightblue" points="247.72,-383.46 249.98,-373.11 241.76,-379.79 247.72,-383.46"/>
</g>
<!-- Node9 -->
<g id="node9" class="node">
<title>Node9</title>
<g id="a_node9"><a xlink:href="classv8_1_1V8.html#affcb65e1fdf849fadc6302655b981bbc" target="_top" xlink:title=" ">
<polygon fill="white" stroke="black" points="7,-430.5 7,-460.5 157,-460.5 157,-430.5 7,-430.5"/>
<text text-anchor="start" x="15" y="-448.5" font-family="Helvetica,sans-Serif" font-size="10.00">v8::V8::SetFailedAccessCheck</text>
<text text-anchor="middle" x="82" y="-437.5" font-family="Helvetica,sans-Serif" font-size="10.00">CallbackFunction</text>
</a>
</g>
</g>
<!-- Node1&#45;&gt;Node9 -->
<g id="edge8" class="edge">
<title>Node1&#45;&gt;Node9</title>
<path fill="none" stroke="midnightblue" d="M233.9,-379.19C215.9,-391.7 189.23,-408.98 164,-420.5 155.97,-424.17 147.25,-427.49 138.61,-430.42"/>
<polygon fill="midnightblue" stroke="midnightblue" points="236.32,-381.77 242.47,-373.14 232.28,-376.05 236.32,-381.77"/>
</g>
<!-- Node10 -->
<g id="node10" class="node">
<title>Node10</title>
<g id="a_node10"><a xlink:href="classv8_1_1V8.html#a290bf883bb4bf8f312089a23a628c067" target="_top" xlink:title=" ">
<polygon fill="white" stroke="black" points="12.5,-392 12.5,-411 151.5,-411 151.5,-392 12.5,-392"/>
<text text-anchor="middle" x="82" y="-399" font-family="Helvetica,sans-Serif" font-size="10.00">v8::V8::SetFatalErrorHandler</text>
</a>
</g>
</g>
<!-- Node1&#45;&gt;Node10 -->
<g id="edge9" class="edge">
<title>Node1&#45;&gt;Node10</title>
<path fill="none" stroke="midnightblue" d="M202.15,-375.25C177.76,-380.63 149.24,-386.91 126.22,-391.98"/>
<polygon fill="midnightblue" stroke="midnightblue" points="202.96,-378.66 211.97,-373.09 201.45,-371.82 202.96,-378.66"/>
</g>
<!-- Node11 -->
<g id="node11" class="node">
<title>Node11</title>
<g id="a_node11"><a xlink:href="classv8_1_1Value.html#a155927c52d88aa0145a55484b3035171" target="_top" xlink:title=" ">
<polygon fill="white" stroke="black" points="28.5,-354 28.5,-373 135.5,-373 135.5,-354 28.5,-354"/>
<text text-anchor="middle" x="82" y="-361" font-family="Helvetica,sans-Serif" font-size="10.00">v8::Value::ToBoolean</text>
</a>
</g>
</g>
<!-- Node1&#45;&gt;Node11 -->
<g id="edge10" class="edge">
<title>Node1&#45;&gt;Node11</title>
<path fill="none" stroke="midnightblue" d="M189.65,-363.5C171.83,-363.5 152.78,-363.5 135.78,-363.5"/>
<polygon fill="midnightblue" stroke="midnightblue" points="189.97,-367 199.97,-363.5 189.97,-360 189.97,-367"/>
</g>
<!-- Node12 -->
<g id="node12" class="node">
<title>Node12</title>
<g id="a_node12"><a xlink:href="classv8_1_1Value.html#a252d8ff83acb9af12fca51f08cf855fc" target="_top" xlink:title=" ">
<polygon fill="white" stroke="black" points="21,-316 21,-335 143,-335 143,-316 21,-316"/>
<text text-anchor="middle" x="82" y="-323" font-family="Helvetica,sans-Serif" font-size="10.00">v8::Value::ToDetailString</text>
</a>
</g>
</g>
<!-- Node1&#45;&gt;Node12 -->
<g id="edge11" class="edge">
<title>Node1&#45;&gt;Node12</title>
<path fill="none" stroke="midnightblue" d="M202.15,-351.75C177.76,-346.37 149.24,-340.09 126.22,-335.02"/>
<polygon fill="midnightblue" stroke="midnightblue" points="201.45,-355.18 211.97,-353.91 202.96,-348.34 201.45,-355.18"/>
</g>
<!-- Node13 -->
<g id="node13" class="node">
<title>Node13</title>
<g id="a_node13"><a xlink:href="classv8_1_1Value.html#a9f0fbbd6cfd95af7b7d8e0ccc9cf75f2" target="_top" xlink:title=" ">
<polygon fill="white" stroke="black" points="35,-278 35,-297 129,-297 129,-278 35,-278"/>
<text text-anchor="middle" x="82" y="-285" font-family="Helvetica,sans-Serif" font-size="10.00">v8::Value::ToInt32</text>
</a>
</g>
</g>
<!-- Node1&#45;&gt;Node13 -->
<g id="edge12" class="edge">
<title>Node1&#45;&gt;Node13</title>
<path fill="none" stroke="midnightblue" d="M234.72,-347.78C216.84,-334.96 189.9,-317.26 164,-306.5 153.06,-301.96 140.82,-298.37 129.23,-295.6"/>
<polygon fill="midnightblue" stroke="midnightblue" points="233.05,-350.9 243.19,-353.98 237.19,-345.25 233.05,-350.9"/>
</g>
<!-- Node14 -->
<g id="node14" class="node">
<title>Node14</title>
<g id="a_node14"><a xlink:href="classv8_1_1Value.html#a5d79bcfef2172049c6d0ecfe3a382323" target="_top" xlink:title=" ">
<polygon fill="white" stroke="black" points="31,-240 31,-259 133,-259 133,-240 31,-240"/>
<text text-anchor="middle" x="82" y="-247" font-family="Helvetica,sans-Serif" font-size="10.00">v8::Value::ToInteger</text>
</a>
</g>
</g>
<!-- Node1&#45;&gt;Node14 -->
<g id="edge13" class="edge">
<title>Node1&#45;&gt;Node14</title>
<path fill="none" stroke="midnightblue" d="M243.33,-345.63C227.6,-323.96 198.13,-287.92 164,-268.5 154.58,-263.14 143.73,-259.29 133.1,-256.53"/>
<polygon fill="midnightblue" stroke="midnightblue" points="240.58,-347.8 249.21,-353.95 246.3,-343.76 240.58,-347.8"/>
</g>
<!-- Node15 -->
<g id="node15" class="node">
<title>Node15</title>
<g id="a_node15"><a xlink:href="classv8_1_1Value.html#af11bb17e54339256ade5979779ccd218" target="_top" xlink:title=" ">
<polygon fill="white" stroke="black" points="28.5,-202 28.5,-221 135.5,-221 135.5,-202 28.5,-202"/>
<text text-anchor="middle" x="82" y="-209" font-family="Helvetica,sans-Serif" font-size="10.00">v8::Value::ToNumber</text>
</a>
</g>
</g>
<!-- Node1&#45;&gt;Node15 -->
<g id="edge14" class="edge">
<title>Node1&#45;&gt;Node15</title>
<path fill="none" stroke="midnightblue" d="M247.85,-344.51C235.06,-315.25 206.46,-259.5 164,-230.5 155.65,-224.8 145.81,-220.79 135.92,-217.98"/>
<polygon fill="midnightblue" stroke="midnightblue" points="244.74,-346.13 251.85,-353.99 251.19,-343.41 244.74,-346.13"/>
</g>
<!-- Node16 -->
<g id="node16" class="node">
<title>Node16</title>
<g id="a_node16"><a xlink:href="classv8_1_1Value.html#ac4c1254c7bd010dc8c307a3e9a771dc6" target="_top" xlink:title=" ">
<polygon fill="white" stroke="black" points="31.5,-164 31.5,-183 132.5,-183 132.5,-164 31.5,-164"/>
<text text-anchor="middle" x="82" y="-171" font-family="Helvetica,sans-Serif" font-size="10.00">v8::Value::ToObject</text>
</a>
</g>
</g>
<!-- Node1&#45;&gt;Node16 -->
<g id="edge15" class="edge">
<title>Node1&#45;&gt;Node16</title>
<path fill="none" stroke="midnightblue" d="M250.84,-344.23C241.14,-308.48 215.3,-231.9 164,-192.5 154.95,-185.55 143.77,-181.08 132.64,-178.22"/>
<polygon fill="midnightblue" stroke="midnightblue" points="247.45,-345.13 253.34,-353.94 254.23,-343.38 247.45,-345.13"/>
</g>
<!-- Node17 -->
<g id="node17" class="node">
<title>Node17</title>
<g id="a_node17"><a xlink:href="classv8_1_1Value.html#a1a61145878edc60ae25d5dc57bc44d6d" target="_top" xlink:title=" ">
<polygon fill="white" stroke="black" points="33,-126 33,-145 131,-145 131,-126 33,-126"/>
<text text-anchor="middle" x="82" y="-133" font-family="Helvetica,sans-Serif" font-size="10.00">v8::Value::ToString</text>
</a>
</g>
</g>
<!-- Node1&#45;&gt;Node17 -->
<g id="edge16" class="edge">
<title>Node1&#45;&gt;Node17</title>
<path fill="none" stroke="midnightblue" d="M252.81,-343.82C246.02,-302.12 224.23,-204.64 164,-154.5 154.79,-146.83 143.03,-142.14 131.35,-139.29"/>
<polygon fill="midnightblue" stroke="midnightblue" points="249.36,-344.43 254.31,-353.8 256.28,-343.39 249.36,-344.43"/>
</g>
<!-- Node18 -->
<g id="node18" class="node">
<title>Node18</title>
<g id="a_node18"><a xlink:href="classv8_1_1Value.html#a6607c42219918519b1a1ad31fcffafbb" target="_top" xlink:title=" ">
<polygon fill="white" stroke="black" points="31.5,-88 31.5,-107 132.5,-107 132.5,-88 31.5,-88"/>
<text text-anchor="middle" x="82" y="-95" font-family="Helvetica,sans-Serif" font-size="10.00">v8::Value::ToUint32</text>
</a>
</g>
</g>
<!-- Node1&#45;&gt;Node18 -->
<g id="edge17" class="edge">
<title>Node1&#45;&gt;Node18</title>
<path fill="none" stroke="midnightblue" d="M254.29,-343.87C250.32,-296.99 233.52,-177.87 164,-116.5 155.23,-108.76 143.9,-104.01 132.51,-101.14"/>
<polygon fill="midnightblue" stroke="midnightblue" points="250.81,-344.21 255.04,-353.92 257.79,-343.69 250.81,-344.21"/>
</g>
<!-- Node19 -->
<g id="node19" class="node">
<title>Node19</title>
<g id="a_node19"><a xlink:href="classv8_1_1V8.html#a7eb03e6ab4e2eca21632e55a4ad30061" target="_top" xlink:title=" ">
<polygon fill="white" stroke="black" points="7.5,-50 7.5,-69 156.5,-69 156.5,-50 7.5,-50"/>
<text text-anchor="middle" x="82" y="-57" font-family="Helvetica,sans-Serif" font-size="10.00">v8::V8::VisitExternalResources</text>
</a>
</g>
</g>
<!-- Node1&#45;&gt;Node19 -->
<g id="edge18" class="edge">
<title>Node1&#45;&gt;Node19</title>
<path fill="none" stroke="midnightblue" d="M255.4,-343.73C254.02,-291.94 242.82,-151.24 164,-78.5 159.86,-74.68 155.1,-71.58 150.01,-69.08"/>
<polygon fill="midnightblue" stroke="midnightblue" points="251.91,-343.95 255.57,-353.89 258.91,-343.84 251.91,-343.95"/>
</g>
<!-- Node20 -->
<g id="node20" class="node">
<title>Node20</title>
<g id="a_node20"><a xlink:href="classv8_1_1V8.html#a824fd99c5cbc7c576370c9ffeca233d4" target="_top" xlink:title=" ">
<polygon fill="white" stroke="black" points="20.5,-0.5 20.5,-30.5 143.5,-30.5 143.5,-0.5 20.5,-0.5"/>
<text text-anchor="start" x="28.5" y="-18.5" font-family="Helvetica,sans-Serif" font-size="10.00">v8::V8::VisitHandlesWith</text>
<text text-anchor="middle" x="82" y="-7.5" font-family="Helvetica,sans-Serif" font-size="10.00">ClassIds</text>
</a>
</g>
</g>
<!-- Node1&#45;&gt;Node20 -->
<g id="edge19" class="edge">
<title>Node1&#45;&gt;Node20</title>
<path fill="none" stroke="midnightblue" d="M255.99,-343.75C256.25,-287.97 249.17,-127.68 164,-40.5 158.24,-34.6 151.13,-30.09 143.52,-26.64"/>
<polygon fill="midnightblue" stroke="midnightblue" points="252.48,-343.95 255.84,-354 259.48,-344.05 252.48,-343.95"/>
</g>
</g>
</svg>
