<?xml version="1.0" encoding="UTF-8" standalone="no"?>
<!DOCTYPE svg PUBLIC "-//W3C//DTD SVG 1.1//EN"
 "http://www.w3.org/Graphics/SVG/1.1/DTD/svg11.dtd">
<!-- Generated by graphviz version 2.44.0 ()
 -->
<!-- Title: v8::Local&lt; T &gt; Pages: 1 -->
<svg width="373pt" height="339pt"
 viewBox="0.00 0.00 373.00 339.00" xmlns="http://www.w3.org/2000/svg" xmlns:xlink="http://www.w3.org/1999/xlink">
<g id="graph0" class="graph" transform="scale(1 1) rotate(0) translate(4 335)">
<title>v8::Local&lt; T &gt;</title>
<polygon fill="white" stroke="transparent" points="-4,4 -4,-335 369,-335 369,4 -4,4"/>
<!-- Node1 -->
<g id="node1" class="node">
<title>Node1</title>
<g id="a_node1"><a xlink:title=" ">
<polygon fill="#bfbfbf" stroke="black" points="0,-152.5 0,-171.5 78,-171.5 78,-152.5 0,-152.5"/>
<text text-anchor="middle" x="39" y="-159.5" font-family="Helvetica,sans-Serif" font-size="10.00">v8::Local&lt; T &gt;</text>
</a>
</g>
</g>
<!-- Node2 -->
<g id="node2" class="node">
<title>Node2</title>
<g id="a_node2"><a xlink:href="classv8_1_1Local.html" target="_top" xlink:title=" ">
<polygon fill="white" stroke="black" points="220.5,-304.5 220.5,-323.5 357.5,-323.5 357.5,-304.5 220.5,-304.5"/>
<text text-anchor="middle" x="289" y="-311.5" font-family="Helvetica,sans-Serif" font-size="10.00">v8::Local&lt; v8::StackTrace &gt;</text>
</a>
</g>
</g>
<!-- Node1&#45;&gt;Node2 -->
<g id="edge1" class="edge">
<title>Node1&#45;&gt;Node2</title>
<path fill="none" stroke="orange" stroke-dasharray="5,2" d="M42.55,-181.77C47.4,-210.64 60.83,-263.74 96,-290 131.13,-316.23 180.33,-321.95 220.14,-321.26"/>
<polygon fill="orange" stroke="orange" points="45.98,-181.05 41.04,-171.67 39.05,-182.08 45.98,-181.05"/>
<text text-anchor="middle" x="145.5" y="-323" font-family="Helvetica,sans-Serif" font-size="10.00"> &lt; v8::StackTrace &gt;</text>
</g>
<!-- Node3 -->
<g id="node3" class="node">
<title>Node3</title>
<g id="a_node3"><a xlink:href="classv8_1_1Local.html" target="_top" xlink:title=" ">
<polygon fill="white" stroke="black" points="227.5,-266.5 227.5,-285.5 350.5,-285.5 350.5,-266.5 227.5,-266.5"/>
<text text-anchor="middle" x="289" y="-273.5" font-family="Helvetica,sans-Serif" font-size="10.00">v8::Local&lt; v8::Promise &gt;</text>
</a>
</g>
</g>
<!-- Node1&#45;&gt;Node3 -->
<g id="edge2" class="edge">
<title>Node1&#45;&gt;Node3</title>
<path fill="none" stroke="orange" stroke-dasharray="5,2" d="M47.39,-180.95C56,-200.36 72.16,-229.77 96,-245 134.98,-269.91 187.22,-277.04 227.38,-278.28"/>
<polygon fill="orange" stroke="orange" points="50.56,-179.47 43.48,-171.6 44.11,-182.17 50.56,-179.47"/>
<text text-anchor="middle" x="145.5" y="-278" font-family="Helvetica,sans-Serif" font-size="10.00"> &lt; v8::Promise &gt;</text>
</g>
<!-- Node4 -->
<g id="node4" class="node">
<title>Node4</title>
<g id="a_node4"><a xlink:href="classv8_1_1Local.html" target="_top" xlink:title=" ">
<polygon fill="white" stroke="black" points="232.5,-228.5 232.5,-247.5 345.5,-247.5 345.5,-228.5 232.5,-228.5"/>
<text text-anchor="middle" x="289" y="-235.5" font-family="Helvetica,sans-Serif" font-size="10.00">v8::Local&lt; v8::String &gt;</text>
</a>
</g>
</g>
<!-- Node1&#45;&gt;Node4 -->
<g id="edge3" class="edge">
<title>Node1&#45;&gt;Node4</title>
<path fill="none" stroke="orange" stroke-dasharray="5,2" d="M56.88,-178.48C67.32,-187.72 81.47,-198.64 96,-205 139.38,-223.98 192.73,-232.07 232.18,-235.51"/>
<polygon fill="orange" stroke="orange" points="59.09,-175.76 49.36,-171.55 54.34,-180.9 59.09,-175.76"/>
<text text-anchor="middle" x="145.5" y="-233" font-family="Helvetica,sans-Serif" font-size="10.00"> &lt; v8::String &gt;</text>
</g>
<!-- Node5 -->
<g id="node5" class="node">
<title>Node5</title>
<g id="a_node5"><a xlink:href="classv8_1_1Local.html" target="_top" xlink:title=" ">
<polygon fill="white" stroke="black" points="233,-190.5 233,-209.5 345,-209.5 345,-190.5 233,-190.5"/>
<text text-anchor="middle" x="289" y="-197.5" font-family="Helvetica,sans-Serif" font-size="10.00">v8::Local&lt; v8::Value &gt;</text>
</a>
</g>
</g>
<!-- Node1&#45;&gt;Node5 -->
<g id="edge4" class="edge">
<title>Node1&#45;&gt;Node5</title>
<path fill="none" stroke="orange" stroke-dasharray="5,2" d="M82.32,-174.02C86.92,-175.12 91.54,-176.14 96,-177 141.66,-185.8 194.11,-191.81 232.64,-195.48"/>
<polygon fill="orange" stroke="orange" points="82.94,-170.56 72.39,-171.52 81.23,-177.35 82.94,-170.56"/>
<text text-anchor="middle" x="145.5" y="-193" font-family="Helvetica,sans-Serif" font-size="10.00"> &lt; v8::Value &gt;</text>
</g>
<!-- Node6 -->
<g id="node6" class="node">
<title>Node6</title>
<g id="a_node6"><a xlink:href="classv8_1_1Local.html" target="_top" xlink:title=" ">
<polygon fill="white" stroke="black" points="230.5,-152.5 230.5,-171.5 347.5,-171.5 347.5,-152.5 230.5,-152.5"/>
<text text-anchor="middle" x="289" y="-159.5" font-family="Helvetica,sans-Serif" font-size="10.00">v8::Local&lt; v8::Integer &gt;</text>
</a>
</g>
</g>
<!-- Node1&#45;&gt;Node6 -->
<g id="edge5" class="edge">
<title>Node1&#45;&gt;Node6</title>
<path fill="none" stroke="orange" stroke-dasharray="5,2" d="M88.41,-162C129.08,-162 187.3,-162 230.38,-162"/>
<polygon fill="orange" stroke="orange" points="88.21,-158.5 78.21,-162 88.21,-165.5 88.21,-158.5"/>
<text text-anchor="middle" x="145.5" y="-165" font-family="Helvetica,sans-Serif" font-size="10.00"> &lt; v8::Integer &gt;</text>
</g>
<!-- Node7 -->
<g id="node7" class="node">
<title>Node7</title>
<g id="a_node7"><a xlink:href="classv8_1_1Local.html" target="_top" xlink:title=" ">
<polygon fill="white" stroke="black" points="229,-114.5 229,-133.5 349,-133.5 349,-114.5 229,-114.5"/>
<text text-anchor="middle" x="289" y="-121.5" font-family="Helvetica,sans-Serif" font-size="10.00">v8::Local&lt; v8::Context &gt;</text>
</a>
</g>
</g>
<!-- Node1&#45;&gt;Node7 -->
<g id="edge6" class="edge">
<title>Node1&#45;&gt;Node7</title>
<path fill="none" stroke="orange" stroke-dasharray="5,2" d="M82.32,-149.98C86.92,-148.88 91.54,-147.86 96,-147 140.17,-138.48 190.71,-132.58 228.84,-128.89"/>
<polygon fill="orange" stroke="orange" points="81.23,-146.65 72.39,-152.48 82.94,-153.44 81.23,-146.65"/>
<text text-anchor="middle" x="145.5" y="-150" font-family="Helvetica,sans-Serif" font-size="10.00"> &lt; v8::Context &gt;</text>
</g>
<!-- Node8 -->
<g id="node8" class="node">
<title>Node8</title>
<g id="a_node8"><a xlink:href="classv8_1_1Local.html" target="_top" xlink:title=" ">
<polygon fill="white" stroke="black" points="213,-76.5 213,-95.5 365,-95.5 365,-76.5 213,-76.5"/>
<text text-anchor="middle" x="289" y="-83.5" font-family="Helvetica,sans-Serif" font-size="10.00">v8::Local&lt; v8::UnboundScript &gt;</text>
</a>
</g>
</g>
<!-- Node1&#45;&gt;Node8 -->
<g id="edge7" class="edge">
<title>Node1&#45;&gt;Node8</title>
<path fill="none" stroke="orange" stroke-dasharray="5,2" d="M56.8,-145.1C67.21,-135.63 81.36,-124.46 96,-118 132.48,-101.9 176.13,-93.85 212.58,-89.84"/>
<polygon fill="orange" stroke="orange" points="54.16,-142.79 49.31,-152.21 58.97,-147.86 54.16,-142.79"/>
<text text-anchor="middle" x="145.5" y="-121" font-family="Helvetica,sans-Serif" font-size="10.00"> &lt; v8::UnboundScript &gt;</text>
</g>
<!-- Node9 -->
<g id="node9" class="node">
<title>Node9</title>
<g id="a_node9"><a xlink:href="classv8_1_1Local.html" target="_top" xlink:title=" ">
<polygon fill="white" stroke="black" points="240,-38.5 240,-57.5 338,-57.5 338,-38.5 240,-38.5"/>
<text text-anchor="middle" x="289" y="-45.5" font-family="Helvetica,sans-Serif" font-size="10.00">v8::Local&lt; Name &gt;</text>
</a>
</g>
</g>
<!-- Node1&#45;&gt;Node9 -->
<g id="edge8" class="edge">
<title>Node1&#45;&gt;Node9</title>
<path fill="none" stroke="orange" stroke-dasharray="5,2" d="M46.99,-143.14C55.4,-123.24 71.53,-92.65 96,-77 139.02,-49.48 198.37,-44.38 239.65,-44.79"/>
<polygon fill="orange" stroke="orange" points="43.73,-141.84 43.29,-152.43 50.24,-144.43 43.73,-141.84"/>
<text text-anchor="middle" x="145.5" y="-80" font-family="Helvetica,sans-Serif" font-size="10.00"> &lt; Name &gt;</text>
</g>
<!-- Node10 -->
<g id="node10" class="node">
<title>Node10</title>
<g id="a_node10"><a xlink:href="classv8_1_1Local.html" target="_top" xlink:title=" ">
<polygon fill="white" stroke="black" points="240.5,-0.5 240.5,-19.5 337.5,-19.5 337.5,-0.5 240.5,-0.5"/>
<text text-anchor="middle" x="289" y="-7.5" font-family="Helvetica,sans-Serif" font-size="10.00">v8::Local&lt; Value &gt;</text>
</a>
</g>
</g>
<!-- Node1&#45;&gt;Node10 -->
<g id="edge9" class="edge">
<title>Node1&#45;&gt;Node10</title>
<path fill="none" stroke="orange" stroke-dasharray="5,2" d="M42.28,-142.14C46.81,-112.62 59.86,-57.79 96,-31 137.35,-0.35 198.14,1.1 240.19,-2.66"/>
<polygon fill="orange" stroke="orange" points="38.76,-142.05 40.89,-152.43 45.7,-142.99 38.76,-142.05"/>
<text text-anchor="middle" x="145.5" y="-34" font-family="Helvetica,sans-Serif" font-size="10.00"> &lt; Value &gt;</text>
</g>
</g>
</svg>
