<?xml version="1.0" encoding="UTF-8" standalone="no"?>
<!DOCTYPE svg PUBLIC "-//W3C//DTD SVG 1.1//EN"
 "http://www.w3.org/Graphics/SVG/1.1/DTD/svg11.dtd">
<!-- Generated by graphviz version 2.44.0 ()
 -->
<!-- Title: v8::V8::SetFailedAccessCheckCallbackFunction Pages: 1 -->
<svg width="334pt" height="78pt"
 viewBox="0.00 0.00 334.00 77.50" xmlns="http://www.w3.org/2000/svg" xmlns:xlink="http://www.w3.org/1999/xlink">
<g id="graph0" class="graph" transform="scale(1 1) rotate(0) translate(4 73.5)">
<title>v8::V8::SetFailedAccessCheckCallbackFunction</title>
<polygon fill="white" stroke="transparent" points="-4,4 -4,-73.5 330,-73.5 330,4 -4,4"/>
<!-- Node1 -->
<g id="node1" class="node">
<title>Node1</title>
<g id="a_node1"><a xlink:title=" ">
<polygon fill="#bfbfbf" stroke="black" points="0,-22.5 0,-52.5 150,-52.5 150,-22.5 0,-22.5"/>
<text text-anchor="start" x="8" y="-40.5" font-family="Helvetica,sans-Serif" font-size="10.00">v8::V8::SetFailedAccessCheck</text>
<text text-anchor="middle" x="75" y="-29.5" font-family="Helvetica,sans-Serif" font-size="10.00">CallbackFunction</text>
</a>
</g>
</g>
<!-- Node2 -->
<g id="node2" class="node">
<title>Node2</title>
<g id="a_node2"><a xlink:href="classv8_1_1Isolate.html#aa79441b5da4438221d0f38790c4de2ed" target="_top" xlink:title=" ">
<polygon fill="white" stroke="black" points="199.5,-50 199.5,-69 312.5,-69 312.5,-50 199.5,-50"/>
<text text-anchor="middle" x="256" y="-57" font-family="Helvetica,sans-Serif" font-size="10.00">v8::Isolate::GetCurrent</text>
</a>
</g>
</g>
<!-- Node1&#45;&gt;Node2 -->
<g id="edge1" class="edge">
<title>Node1&#45;&gt;Node2</title>
<path fill="none" stroke="midnightblue" d="M150.1,-46.61C163.08,-48.2 176.5,-49.85 189.23,-51.42"/>
<polygon fill="midnightblue" stroke="midnightblue" points="188.92,-54.9 199.27,-52.65 189.77,-47.96 188.92,-54.9"/>
</g>
<!-- Node3 -->
<g id="node3" class="node">
<title>Node3</title>
<g id="a_node3"><a xlink:href="classv8_1_1Isolate.html#ab9ef29fc049d82e0c33994632b4f6ba6" target="_top" xlink:title=" ">
<polygon fill="white" stroke="black" points="186,-0.5 186,-30.5 326,-30.5 326,-0.5 186,-0.5"/>
<text text-anchor="start" x="194" y="-18.5" font-family="Helvetica,sans-Serif" font-size="10.00">v8::Isolate::SetFailedAccess</text>
<text text-anchor="middle" x="256" y="-7.5" font-family="Helvetica,sans-Serif" font-size="10.00">CheckCallbackFunction</text>
</a>
</g>
</g>
<!-- Node1&#45;&gt;Node3 -->
<g id="edge2" class="edge">
<title>Node1&#45;&gt;Node3</title>
<path fill="none" stroke="midnightblue" d="M150.1,-28.39C158.6,-27.35 167.3,-26.28 175.86,-25.23"/>
<polygon fill="midnightblue" stroke="midnightblue" points="176.34,-28.69 185.84,-24 175.49,-21.75 176.34,-28.69"/>
</g>
</g>
</svg>
