<?xml version="1.0" encoding="UTF-8" standalone="no"?>
<!DOCTYPE svg PUBLIC "-//W3C//DTD SVG 1.1//EN"
 "http://www.w3.org/Graphics/SVG/1.1/DTD/svg11.dtd">
<!-- Generated by graphviz version 2.44.0 ()
 -->
<!-- Title: v8::Local::New Pages: 1 -->
<svg width="275pt" height="186pt"
 viewBox="0.00 0.00 275.00 186.00" xmlns="http://www.w3.org/2000/svg" xmlns:xlink="http://www.w3.org/1999/xlink">
<g id="graph0" class="graph" transform="scale(1 1) rotate(0) translate(4 182)">
<title>v8::Local::New</title>
<polygon fill="white" stroke="transparent" points="-4,4 -4,-182 271,-182 271,4 -4,4"/>
<!-- Node1 -->
<g id="node1" class="node">
<title>Node1</title>
<g id="a_node1"><a xlink:title=" ">
<polygon fill="#bfbfbf" stroke="black" points="187,-79.5 187,-98.5 267,-98.5 267,-79.5 187,-79.5"/>
<text text-anchor="middle" x="227" y="-86.5" font-family="Helvetica,sans-Serif" font-size="10.00">v8::Local::New</text>
</a>
</g>
</g>
<!-- Node2 -->
<g id="node2" class="node">
<title>Node2</title>
<g id="a_node2"><a xlink:href="classv8_1_1PersistentValueMapBase.html#a16b8f906ea42036c2f37d44813bf2a72" target="_top" xlink:title=" ">
<polygon fill="white" stroke="black" points="0,-136.5 0,-177.5 151,-177.5 151,-136.5 0,-136.5"/>
<text text-anchor="start" x="8" y="-165.5" font-family="Helvetica,sans-Serif" font-size="10.00">v8::PersistentValueMapBase</text>
<text text-anchor="start" x="8" y="-154.5" font-family="Helvetica,sans-Serif" font-size="10.00">&lt; K, V, DefaultGlobalMapTraits</text>
<text text-anchor="middle" x="75.5" y="-143.5" font-family="Helvetica,sans-Serif" font-size="10.00">&lt; K, V &gt; &gt;::Get</text>
</a>
</g>
</g>
<!-- Node1&#45;&gt;Node2 -->
<g id="edge1" class="edge">
<title>Node1&#45;&gt;Node2</title>
<path fill="none" stroke="midnightblue" d="M198.87,-103.46C184.74,-110.81 167.09,-119.7 151,-127 144.02,-130.17 136.59,-133.36 129.25,-136.42"/>
<polygon fill="midnightblue" stroke="midnightblue" points="200.79,-106.4 208.03,-98.66 197.54,-100.2 200.79,-106.4"/>
</g>
<!-- Node3 -->
<g id="node3" class="node">
<title>Node3</title>
<g id="a_node3"><a xlink:href="classv8_1_1PersistentBase.html#afc2feb7652b6d60b86a51eb2279be463" target="_top" xlink:title=" ">
<polygon fill="white" stroke="black" points="16,-98.5 16,-117.5 135,-117.5 135,-98.5 16,-98.5"/>
<text text-anchor="middle" x="75.5" y="-105.5" font-family="Helvetica,sans-Serif" font-size="10.00">v8::PersistentBase::Get</text>
</a>
</g>
</g>
<!-- Node1&#45;&gt;Node3 -->
<g id="edge2" class="edge">
<title>Node1&#45;&gt;Node3</title>
<path fill="none" stroke="midnightblue" d="M176.43,-95.3C163.23,-96.98 148.85,-98.8 135.22,-100.54"/>
<polygon fill="midnightblue" stroke="midnightblue" points="177.24,-98.72 186.72,-93.99 176.36,-91.78 177.24,-98.72"/>
</g>
<!-- Node4 -->
<g id="node4" class="node">
<title>Node4</title>
<g id="a_node4"><a xlink:href="classv8_1_1PersistentValueVector.html#a0788f334c7f61355863244379042ce76" target="_top" xlink:title=" ">
<polygon fill="white" stroke="black" points="1,-60.5 1,-79.5 150,-79.5 150,-60.5 1,-60.5"/>
<text text-anchor="middle" x="75.5" y="-67.5" font-family="Helvetica,sans-Serif" font-size="10.00">v8::PersistentValueVector::Get</text>
</a>
</g>
</g>
<!-- Node1&#45;&gt;Node4 -->
<g id="edge3" class="edge">
<title>Node1&#45;&gt;Node4</title>
<path fill="none" stroke="midnightblue" d="M176.65,-82.73C168.17,-81.65 159.19,-80.51 150.23,-79.37"/>
<polygon fill="midnightblue" stroke="midnightblue" points="176.36,-86.22 186.72,-84.01 177.24,-79.28 176.36,-86.22"/>
</g>
<!-- Node5 -->
<g id="node5" class="node">
<title>Node5</title>
<g id="a_node5"><a xlink:href="classv8_1_1PersistentValueMapBase_1_1PersistentValueReference.html#ac59d20538e1986a423605b013f33e040" target="_top" xlink:title=" ">
<polygon fill="white" stroke="black" points="4.5,-0.5 4.5,-41.5 146.5,-41.5 146.5,-0.5 4.5,-0.5"/>
<text text-anchor="start" x="12.5" y="-29.5" font-family="Helvetica,sans-Serif" font-size="10.00">v8::PersistentValueMapBase</text>
<text text-anchor="start" x="12.5" y="-18.5" font-family="Helvetica,sans-Serif" font-size="10.00">::PersistentValueReference</text>
<text text-anchor="middle" x="75.5" y="-7.5" font-family="Helvetica,sans-Serif" font-size="10.00">::NewLocal</text>
</a>
</g>
</g>
<!-- Node1&#45;&gt;Node5 -->
<g id="edge4" class="edge">
<title>Node1&#45;&gt;Node5</title>
<path fill="none" stroke="midnightblue" d="M198.87,-74.54C184.74,-67.19 167.09,-58.3 151,-51 144.02,-47.83 136.59,-44.64 129.25,-41.58"/>
<polygon fill="midnightblue" stroke="midnightblue" points="197.54,-77.8 208.03,-79.34 200.79,-71.6 197.54,-77.8"/>
</g>
</g>
</svg>
