<?xml version="1.0" encoding="UTF-8" standalone="no"?>
<!DOCTYPE svg PUBLIC "-//W3C//DTD SVG 1.1//EN"
 "http://www.w3.org/Graphics/SVG/1.1/DTD/svg11.dtd">
<!-- Generated by graphviz version 2.44.0 ()
 -->
<!-- Title: v8::Maybe::IsJust Pages: 1 -->
<svg width="393pt" height="100pt"
 viewBox="0.00 0.00 393.00 99.50" xmlns="http://www.w3.org/2000/svg" xmlns:xlink="http://www.w3.org/1999/xlink">
<g id="graph0" class="graph" transform="scale(1 1) rotate(0) translate(4 95.5)">
<title>v8::Maybe::IsJust</title>
<polygon fill="white" stroke="transparent" points="-4,4 -4,-95.5 389,-95.5 389,4 -4,4"/>
<!-- Node1 -->
<g id="node1" class="node">
<title>Node1</title>
<g id="a_node1"><a xlink:title=" ">
<polygon fill="#bfbfbf" stroke="black" points="293,-28 293,-47 385,-47 385,-28 293,-28"/>
<text text-anchor="middle" x="339" y="-35" font-family="Helvetica,sans-Serif" font-size="10.00">v8::Maybe::IsJust</text>
</a>
</g>
</g>
<!-- Node2 -->
<g id="node2" class="node">
<title>Node2</title>
<g id="a_node2"><a xlink:href="classv8_1_1Maybe.html#af190e1c503b1b5dca0eb6dc5ed264448" target="_top" xlink:title=" ">
<polygon fill="white" stroke="black" points="145,-50 145,-69 257,-69 257,-50 145,-50"/>
<text text-anchor="middle" x="201" y="-57" font-family="Helvetica,sans-Serif" font-size="10.00">v8::Maybe::operator==</text>
</a>
</g>
</g>
<!-- Node1&#45;&gt;Node2 -->
<g id="edge1" class="edge">
<title>Node1&#45;&gt;Node2</title>
<path fill="none" stroke="midnightblue" d="M282.59,-46.46C274.15,-47.83 265.45,-49.24 257.02,-50.6"/>
<polygon fill="midnightblue" stroke="midnightblue" points="283.4,-49.88 292.71,-44.83 282.28,-42.97 283.4,-49.88"/>
</g>
<!-- Node5 -->
<g id="node5" class="node">
<title>Node5</title>
<g id="a_node5"><a xlink:href="classv8_1_1Maybe_3_01void_01_4.html#a3e50b2a7e2224c69fdde7abdddd79faf" target="_top" xlink:title=" ">
<polygon fill="white" stroke="black" points="151.5,-0.5 151.5,-30.5 250.5,-30.5 250.5,-0.5 151.5,-0.5"/>
<text text-anchor="start" x="159.5" y="-18.5" font-family="Helvetica,sans-Serif" font-size="10.00">v8::Maybe&lt; void &gt;::</text>
<text text-anchor="middle" x="201" y="-7.5" font-family="Helvetica,sans-Serif" font-size="10.00">operator==</text>
</a>
</g>
</g>
<!-- Node1&#45;&gt;Node5 -->
<g id="edge4" class="edge">
<title>Node1&#45;&gt;Node5</title>
<path fill="none" stroke="midnightblue" d="M282.74,-28.56C272.17,-26.85 261.18,-25.07 250.83,-23.4"/>
<polygon fill="midnightblue" stroke="midnightblue" points="282.28,-32.03 292.71,-30.17 283.4,-25.12 282.28,-32.03"/>
</g>
<!-- Node3 -->
<g id="node3" class="node">
<title>Node3</title>
<g id="a_node3"><a xlink:href="classv8_1_1Maybe.html#a4d4ac6c3387f7148ea3b6ec6864b4940" target="_top" xlink:title=" ">
<polygon fill="white" stroke="black" points="0,-72 0,-91 109,-91 109,-72 0,-72"/>
<text text-anchor="middle" x="54.5" y="-79" font-family="Helvetica,sans-Serif" font-size="10.00">v8::Maybe::operator!=</text>
</a>
</g>
</g>
<!-- Node2&#45;&gt;Node3 -->
<g id="edge2" class="edge">
<title>Node2&#45;&gt;Node3</title>
<path fill="none" stroke="midnightblue" d="M135.01,-69.39C126.46,-70.7 117.77,-72.02 109.43,-73.29"/>
<polygon fill="midnightblue" stroke="midnightblue" points="135.6,-72.85 144.96,-67.88 134.55,-65.93 135.6,-72.85"/>
</g>
<!-- Node4 -->
<g id="node4" class="node">
<title>Node4</title>
<g id="a_node4"><a xlink:href="classv8_1_1Maybe_3_01void_01_4.html#aaf837c2e394c2e9c13ee64589da50c7e" target="_top" xlink:title=" ">
<polygon fill="white" stroke="black" points="5,-22.5 5,-52.5 104,-52.5 104,-22.5 5,-22.5"/>
<text text-anchor="start" x="13" y="-40.5" font-family="Helvetica,sans-Serif" font-size="10.00">v8::Maybe&lt; void &gt;::</text>
<text text-anchor="middle" x="54.5" y="-29.5" font-family="Helvetica,sans-Serif" font-size="10.00">operator!=</text>
</a>
</g>
</g>
<!-- Node2&#45;&gt;Node4 -->
<g id="edge3" class="edge">
<title>Node2&#45;&gt;Node4</title>
<path fill="none" stroke="midnightblue" d="M134.78,-49.57C124.51,-48.01 114.05,-46.41 104.24,-44.92"/>
<polygon fill="midnightblue" stroke="midnightblue" points="134.55,-53.07 144.96,-51.12 135.6,-46.15 134.55,-53.07"/>
</g>
</g>
</svg>
