<?xml version="1.0" encoding="UTF-8" standalone="no"?>
<!DOCTYPE svg PUBLIC "-//W3C//DTD SVG 1.1//EN"
 "http://www.w3.org/Graphics/SVG/1.1/DTD/svg11.dtd">
<!-- Generated by graphviz version 2.44.0 ()
 -->
<!-- Title: include/v8&#45;profiler.h Pages: 1 -->
<svg width="544pt" height="196pt"
 viewBox="0.00 0.00 543.50 196.00" xmlns="http://www.w3.org/2000/svg" xmlns:xlink="http://www.w3.org/1999/xlink">
<g id="graph0" class="graph" transform="scale(1 1) rotate(0) translate(4 192)">
<title>include/v8&#45;profiler.h</title>
<polygon fill="white" stroke="transparent" points="-4,4 -4,-192 539.5,-192 539.5,4 -4,4"/>
<!-- Node1 -->
<g id="node1" class="node">
<title>Node1</title>
<g id="a_node1"><a xlink:title=" ">
<polygon fill="#bfbfbf" stroke="black" points="56,-168.5 56,-187.5 156,-187.5 156,-168.5 56,-168.5"/>
<text text-anchor="middle" x="106" y="-175.5" font-family="Helvetica,sans-Serif" font-size="10.00">include/v8&#45;profiler.h</text>
</a>
</g>
</g>
<!-- Node2 -->
<g id="node2" class="node">
<title>Node2</title>
<g id="a_node2"><a xlink:title=" ">
<polygon fill="white" stroke="#bfbfbf" points="0,-112.5 0,-131.5 78,-131.5 78,-112.5 0,-112.5"/>
<text text-anchor="middle" x="39" y="-119.5" font-family="Helvetica,sans-Serif" font-size="10.00">unordered_set</text>
</a>
</g>
</g>
<!-- Node1&#45;&gt;Node2 -->
<g id="edge1" class="edge">
<title>Node1&#45;&gt;Node2</title>
<path fill="none" stroke="midnightblue" d="M95.24,-168.32C85.23,-160.26 70.11,-148.08 58.07,-138.37"/>
<polygon fill="midnightblue" stroke="midnightblue" points="59.94,-135.38 49.96,-131.83 55.55,-140.83 59.94,-135.38"/>
</g>
<!-- Node3 -->
<g id="node3" class="node">
<title>Node3</title>
<g id="a_node3"><a xlink:title=" ">
<polygon fill="white" stroke="#bfbfbf" points="38,-56.5 38,-75.5 82,-75.5 82,-56.5 38,-56.5"/>
<text text-anchor="middle" x="60" y="-63.5" font-family="Helvetica,sans-Serif" font-size="10.00">vector</text>
</a>
</g>
</g>
<!-- Node1&#45;&gt;Node3 -->
<g id="edge2" class="edge">
<title>Node1&#45;&gt;Node3</title>
<path fill="none" stroke="midnightblue" d="M104.21,-168.34C101.43,-155.65 95.48,-131.39 87,-112 82.8,-102.4 76.93,-92.35 71.73,-84.18"/>
<polygon fill="midnightblue" stroke="midnightblue" points="74.5,-82.03 66.08,-75.6 68.66,-85.88 74.5,-82.03"/>
</g>
<!-- Node4 -->
<g id="node4" class="node">
<title>Node4</title>
<g id="a_node4"><a xlink:href="v8_8h.html" target="_top" xlink:title=" ">
<polygon fill="white" stroke="black" points="214.5,-112.5 214.5,-131.5 249.5,-131.5 249.5,-112.5 214.5,-112.5"/>
<text text-anchor="middle" x="232" y="-119.5" font-family="Helvetica,sans-Serif" font-size="10.00">v8.h</text>
</a>
</g>
</g>
<!-- Node1&#45;&gt;Node4 -->
<g id="edge3" class="edge">
<title>Node1&#45;&gt;Node4</title>
<path fill="none" stroke="midnightblue" d="M125.97,-168.44C147.22,-159.34 180.98,-144.86 204.69,-134.71"/>
<polygon fill="midnightblue" stroke="midnightblue" points="206.35,-137.8 214.17,-130.64 203.6,-131.37 206.35,-137.8"/>
</g>
<!-- Node4&#45;&gt;Node3 -->
<g id="edge9" class="edge">
<title>Node4&#45;&gt;Node3</title>
<path fill="none" stroke="midnightblue" d="M214.24,-115.42C185.37,-106.36 127.86,-88.3 91.8,-76.98"/>
<polygon fill="midnightblue" stroke="midnightblue" points="92.83,-73.64 82.24,-73.98 90.74,-80.32 92.83,-73.64"/>
</g>
<!-- Node5 -->
<g id="node5" class="node">
<title>Node5</title>
<g id="a_node5"><a xlink:title=" ">
<polygon fill="white" stroke="#bfbfbf" points="227.5,-0.5 227.5,-19.5 278.5,-19.5 278.5,-0.5 227.5,-0.5"/>
<text text-anchor="middle" x="253" y="-7.5" font-family="Helvetica,sans-Serif" font-size="10.00">stddef.h</text>
</a>
</g>
</g>
<!-- Node4&#45;&gt;Node5 -->
<g id="edge4" class="edge">
<title>Node4&#45;&gt;Node5</title>
<path fill="none" stroke="midnightblue" d="M214.28,-113.71C190.3,-102.73 152.12,-80.57 167,-56 178.02,-37.79 199.1,-26.6 217.63,-19.93"/>
<polygon fill="midnightblue" stroke="midnightblue" points="218.89,-23.2 227.3,-16.76 216.71,-16.55 218.89,-23.2"/>
</g>
<!-- Node6 -->
<g id="node6" class="node">
<title>Node6</title>
<g id="a_node6"><a xlink:title=" ">
<polygon fill="white" stroke="#bfbfbf" points="400,-0.5 400,-19.5 448,-19.5 448,-0.5 400,-0.5"/>
<text text-anchor="middle" x="424" y="-7.5" font-family="Helvetica,sans-Serif" font-size="10.00">stdint.h</text>
</a>
</g>
</g>
<!-- Node4&#45;&gt;Node6 -->
<g id="edge5" class="edge">
<title>Node4&#45;&gt;Node6</title>
<path fill="none" stroke="midnightblue" d="M249.63,-120.01C296.01,-117.01 419.49,-106.26 444,-76 455.22,-62.15 446.25,-42.04 437.01,-27.86"/>
<polygon fill="midnightblue" stroke="midnightblue" points="439.74,-25.66 431.1,-19.53 434.03,-29.71 439.74,-25.66"/>
</g>
<!-- Node7 -->
<g id="node7" class="node">
<title>Node7</title>
<g id="a_node7"><a xlink:title=" ">
<polygon fill="white" stroke="#bfbfbf" points="176.5,-56.5 176.5,-75.5 221.5,-75.5 221.5,-56.5 176.5,-56.5"/>
<text text-anchor="middle" x="199" y="-63.5" font-family="Helvetica,sans-Serif" font-size="10.00">stdio.h</text>
</a>
</g>
</g>
<!-- Node4&#45;&gt;Node7 -->
<g id="edge6" class="edge">
<title>Node4&#45;&gt;Node7</title>
<path fill="none" stroke="midnightblue" d="M226.55,-112.08C221.99,-104.61 215.33,-93.72 209.71,-84.52"/>
<polygon fill="midnightblue" stroke="midnightblue" points="212.55,-82.46 204.35,-75.75 206.58,-86.11 212.55,-82.46"/>
</g>
<!-- Node8 -->
<g id="node8" class="node">
<title>Node8</title>
<g id="a_node8"><a xlink:title=" ">
<polygon fill="white" stroke="#bfbfbf" points="239.5,-56.5 239.5,-75.5 290.5,-75.5 290.5,-56.5 239.5,-56.5"/>
<text text-anchor="middle" x="265" y="-63.5" font-family="Helvetica,sans-Serif" font-size="10.00">memory</text>
</a>
</g>
</g>
<!-- Node4&#45;&gt;Node8 -->
<g id="edge7" class="edge">
<title>Node4&#45;&gt;Node8</title>
<path fill="none" stroke="midnightblue" d="M237.45,-112.08C242.01,-104.61 248.67,-93.72 254.29,-84.52"/>
<polygon fill="midnightblue" stroke="midnightblue" points="257.42,-86.11 259.65,-75.75 251.45,-82.46 257.42,-86.11"/>
</g>
<!-- Node9 -->
<g id="node9" class="node">
<title>Node9</title>
<g id="a_node9"><a xlink:title=" ">
<polygon fill="white" stroke="#bfbfbf" points="308.5,-56.5 308.5,-75.5 347.5,-75.5 347.5,-56.5 308.5,-56.5"/>
<text text-anchor="middle" x="328" y="-63.5" font-family="Helvetica,sans-Serif" font-size="10.00">utility</text>
</a>
</g>
</g>
<!-- Node4&#45;&gt;Node9 -->
<g id="edge8" class="edge">
<title>Node4&#45;&gt;Node9</title>
<path fill="none" stroke="midnightblue" d="M247.42,-112.32C262.54,-103.82 285.82,-90.73 303.47,-80.8"/>
<polygon fill="midnightblue" stroke="midnightblue" points="305.61,-83.61 312.61,-75.65 302.18,-77.51 305.61,-83.61"/>
</g>
<!-- Node10 -->
<g id="node10" class="node">
<title>Node10</title>
<g id="a_node10"><a xlink:href="v8-internal_8h.html" target="_top" xlink:title=" ">
<polygon fill="white" stroke="black" points="365.5,-56.5 365.5,-75.5 434.5,-75.5 434.5,-56.5 365.5,-56.5"/>
<text text-anchor="middle" x="400" y="-63.5" font-family="Helvetica,sans-Serif" font-size="10.00">v8&#45;internal.h</text>
</a>
</g>
</g>
<!-- Node4&#45;&gt;Node10 -->
<g id="edge10" class="edge">
<title>Node4&#45;&gt;Node10</title>
<path fill="none" stroke="midnightblue" d="M249.66,-115.32C276.57,-106.67 328.43,-90 363.63,-78.69"/>
<polygon fill="midnightblue" stroke="midnightblue" points="365.07,-81.9 373.52,-75.51 362.93,-75.24 365.07,-81.9"/>
</g>
<!-- Node12 -->
<g id="node12" class="node">
<title>Node12</title>
<g id="a_node12"><a xlink:href="v8-version_8h.html" target="_top" xlink:title=" ">
<polygon fill="white" stroke="black" points="466.5,-0.5 466.5,-19.5 535.5,-19.5 535.5,-0.5 466.5,-0.5"/>
<text text-anchor="middle" x="501" y="-7.5" font-family="Helvetica,sans-Serif" font-size="10.00">v8&#45;version.h</text>
</a>
</g>
</g>
<!-- Node4&#45;&gt;Node12 -->
<g id="edge16" class="edge">
<title>Node4&#45;&gt;Node12</title>
<path fill="none" stroke="midnightblue" d="M249.73,-119.32C297.13,-114.54 425.49,-99.69 460,-76 476.46,-64.7 487.69,-44.4 494.18,-29.48"/>
<polygon fill="midnightblue" stroke="midnightblue" points="497.6,-30.36 498.07,-19.77 491.1,-27.75 497.6,-30.36"/>
</g>
<!-- Node13 -->
<g id="node13" class="node">
<title>Node13</title>
<g id="a_node13"><a xlink:href="v8config_8h.html" target="_top" xlink:title=" ">
<polygon fill="white" stroke="black" points="103,-0.5 103,-19.5 163,-19.5 163,-0.5 103,-0.5"/>
<text text-anchor="middle" x="133" y="-7.5" font-family="Helvetica,sans-Serif" font-size="10.00">v8config.h</text>
</a>
</g>
</g>
<!-- Node4&#45;&gt;Node13 -->
<g id="edge17" class="edge">
<title>Node4&#45;&gt;Node13</title>
<path fill="none" stroke="midnightblue" d="M214.43,-113.8C198.35,-106.42 174.87,-93.54 160,-76 148.66,-62.61 141.54,-43.79 137.48,-29.84"/>
<polygon fill="midnightblue" stroke="midnightblue" points="140.8,-28.68 134.86,-19.9 134.03,-30.46 140.8,-28.68"/>
</g>
<!-- Node10&#45;&gt;Node5 -->
<g id="edge11" class="edge">
<title>Node10&#45;&gt;Node5</title>
<path fill="none" stroke="midnightblue" d="M376.71,-56.44C352.19,-47.44 313.4,-33.19 285.8,-23.05"/>
<polygon fill="midnightblue" stroke="midnightblue" points="286.78,-19.68 276.18,-19.52 284.36,-26.25 286.78,-19.68"/>
</g>
<!-- Node10&#45;&gt;Node6 -->
<g id="edge12" class="edge">
<title>Node10&#45;&gt;Node6</title>
<path fill="none" stroke="midnightblue" d="M403.96,-56.08C407.21,-48.77 411.92,-38.18 415.95,-29.1"/>
<polygon fill="midnightblue" stroke="midnightblue" points="419.25,-30.31 420.11,-19.75 412.85,-27.47 419.25,-30.31"/>
</g>
<!-- Node11 -->
<g id="node11" class="node">
<title>Node11</title>
<g id="a_node11"><a xlink:title=" ">
<polygon fill="white" stroke="#bfbfbf" points="320,-0.5 320,-19.5 382,-19.5 382,-0.5 320,-0.5"/>
<text text-anchor="middle" x="351" y="-7.5" font-family="Helvetica,sans-Serif" font-size="10.00">type_traits</text>
</a>
</g>
</g>
<!-- Node10&#45;&gt;Node11 -->
<g id="edge13" class="edge">
<title>Node10&#45;&gt;Node11</title>
<path fill="none" stroke="midnightblue" d="M391.91,-56.08C384.84,-48.3 374.41,-36.8 365.85,-27.37"/>
<polygon fill="midnightblue" stroke="midnightblue" points="368.25,-24.8 358.94,-19.75 363.07,-29.51 368.25,-24.8"/>
</g>
<!-- Node10&#45;&gt;Node12 -->
<g id="edge14" class="edge">
<title>Node10&#45;&gt;Node12</title>
<path fill="none" stroke="midnightblue" d="M416.23,-56.32C432.35,-47.7 457.3,-34.36 475.96,-24.39"/>
<polygon fill="midnightblue" stroke="midnightblue" points="477.64,-27.46 484.81,-19.65 474.34,-21.28 477.64,-27.46"/>
</g>
<!-- Node10&#45;&gt;Node13 -->
<g id="edge15" class="edge">
<title>Node10&#45;&gt;Node13</title>
<path fill="none" stroke="midnightblue" d="M365.41,-57.92C362.23,-57.27 359.06,-56.62 356,-56 292.08,-43.01 217.84,-28.06 173.18,-19.08"/>
<polygon fill="midnightblue" stroke="midnightblue" points="173.8,-15.63 163.3,-17.09 172.42,-22.49 173.8,-15.63"/>
</g>
</g>
</svg>
