<?xml version="1.0" encoding="UTF-8" standalone="no"?>
<!DOCTYPE svg PUBLIC "-//W3C//DTD SVG 1.1//EN"
 "http://www.w3.org/Graphics/SVG/1.1/DTD/svg11.dtd">
<!-- Generated by graphviz version 2.44.0 ()
 -->
<!-- Title: include/v8&#45;version.h Pages: 1 -->
<svg width="460pt" height="274pt"
 viewBox="0.00 0.00 459.50 274.00" xmlns="http://www.w3.org/2000/svg" xmlns:xlink="http://www.w3.org/1999/xlink">
<g id="graph0" class="graph" transform="scale(1 1) rotate(0) translate(4 270)">
<title>include/v8&#45;version.h</title>
<polygon fill="white" stroke="transparent" points="-4,4 -4,-270 455.5,-270 455.5,4 -4,4"/>
<!-- Node1 -->
<g id="node1" class="node">
<title>Node1</title>
<g id="a_node1"><a xlink:title=" ">
<polygon fill="#bfbfbf" stroke="black" points="227,-246.5 227,-265.5 330,-265.5 330,-246.5 227,-246.5"/>
<text text-anchor="middle" x="278.5" y="-253.5" font-family="Helvetica,sans-Serif" font-size="10.00">include/v8&#45;version.h</text>
</a>
</g>
</g>
<!-- Node2 -->
<g id="node2" class="node">
<title>Node2</title>
<g id="a_node2"><a xlink:href="v8-internal_8h.html" target="_top" xlink:title=" ">
<polygon fill="white" stroke="black" points="147,-185 147,-204 250,-204 250,-185 147,-185"/>
<text text-anchor="middle" x="198.5" y="-192" font-family="Helvetica,sans-Serif" font-size="10.00">include/v8&#45;internal.h</text>
</a>
</g>
</g>
<!-- Node1&#45;&gt;Node2 -->
<g id="edge1" class="edge">
<title>Node1&#45;&gt;Node2</title>
<path fill="none" stroke="midnightblue" d="M258.73,-240.29C243.38,-228.88 222.64,-213.46 209.94,-204.01"/>
<polygon fill="midnightblue" stroke="midnightblue" points="256.93,-243.32 267.04,-246.48 261.1,-237.7 256.93,-243.32"/>
</g>
<!-- Node3 -->
<g id="node3" class="node">
<title>Node3</title>
<g id="a_node3"><a xlink:href="v8_8h.html" target="_top" xlink:title=" ">
<polygon fill="white" stroke="black" points="204.5,-123.5 204.5,-142.5 272.5,-142.5 272.5,-123.5 204.5,-123.5"/>
<text text-anchor="middle" x="238.5" y="-130.5" font-family="Helvetica,sans-Serif" font-size="10.00">include/v8.h</text>
</a>
</g>
</g>
<!-- Node1&#45;&gt;Node3 -->
<g id="edge8" class="edge">
<title>Node1&#45;&gt;Node3</title>
<path fill="none" stroke="midnightblue" d="M274.91,-236.49C271.65,-220.92 266.3,-198.19 259.5,-179 254.89,-166 247.84,-151.67 243.2,-142.75"/>
<polygon fill="midnightblue" stroke="midnightblue" points="271.5,-237.3 276.91,-246.41 278.37,-235.91 271.5,-237.3"/>
</g>
<!-- Node9 -->
<g id="node9" class="node">
<title>Node9</title>
<g id="a_node9"><a xlink:href="v8-version-string_8h.html" target="_top" xlink:title=" ">
<polygon fill="white" stroke="black" points="307,-179.5 307,-209.5 402,-209.5 402,-179.5 307,-179.5"/>
<text text-anchor="start" x="315" y="-197.5" font-family="Helvetica,sans-Serif" font-size="10.00">include/v8&#45;version</text>
<text text-anchor="middle" x="354.5" y="-186.5" font-family="Helvetica,sans-Serif" font-size="10.00">&#45;string.h</text>
</a>
</g>
</g>
<!-- Node1&#45;&gt;Node9 -->
<g id="edge9" class="edge">
<title>Node1&#45;&gt;Node9</title>
<path fill="none" stroke="midnightblue" d="M297.41,-240.2C309.39,-230.81 324.8,-218.75 336.59,-209.52"/>
<polygon fill="midnightblue" stroke="midnightblue" points="295.11,-237.55 289.39,-246.48 299.42,-243.07 295.11,-237.55"/>
</g>
<!-- Node2&#45;&gt;Node3 -->
<g id="edge2" class="edge">
<title>Node2&#45;&gt;Node3</title>
<path fill="none" stroke="midnightblue" d="M209.93,-176.51C217.4,-165.39 226.84,-151.34 232.78,-142.51"/>
<polygon fill="midnightblue" stroke="midnightblue" points="206.91,-174.72 204.23,-184.98 212.71,-178.63 206.91,-174.72"/>
</g>
<!-- Node4 -->
<g id="node4" class="node">
<title>Node4</title>
<g id="a_node4"><a xlink:href="v8-inspector_8h.html" target="_top" xlink:title=" ">
<polygon fill="white" stroke="black" points="0,-67.5 0,-86.5 111,-86.5 111,-67.5 0,-67.5"/>
<text text-anchor="middle" x="55.5" y="-74.5" font-family="Helvetica,sans-Serif" font-size="10.00">include/v8&#45;inspector.h</text>
</a>
</g>
</g>
<!-- Node3&#45;&gt;Node4 -->
<g id="edge3" class="edge">
<title>Node3&#45;&gt;Node4</title>
<path fill="none" stroke="midnightblue" d="M199.76,-120.57C165.24,-110.38 115.49,-95.7 84.36,-86.52"/>
<polygon fill="midnightblue" stroke="midnightblue" points="198.92,-123.97 209.5,-123.44 200.9,-117.26 198.92,-123.97"/>
</g>
<!-- Node6 -->
<g id="node6" class="node">
<title>Node6</title>
<g id="a_node6"><a xlink:href="v8-profiler_8h.html" target="_top" xlink:title=" ">
<polygon fill="white" stroke="black" points="129.5,-67.5 129.5,-86.5 229.5,-86.5 229.5,-67.5 129.5,-67.5"/>
<text text-anchor="middle" x="179.5" y="-74.5" font-family="Helvetica,sans-Serif" font-size="10.00">include/v8&#45;profiler.h</text>
</a>
</g>
</g>
<!-- Node3&#45;&gt;Node6 -->
<g id="edge5" class="edge">
<title>Node3&#45;&gt;Node6</title>
<path fill="none" stroke="midnightblue" d="M221.61,-116.54C211.09,-106.91 197.93,-94.87 189.15,-86.83"/>
<polygon fill="midnightblue" stroke="midnightblue" points="219.28,-119.15 229.02,-123.32 224.01,-113.99 219.28,-119.15"/>
</g>
<!-- Node7 -->
<g id="node7" class="node">
<title>Node7</title>
<g id="a_node7"><a xlink:href="v8-testing_8h.html" target="_top" xlink:title=" ">
<polygon fill="white" stroke="black" points="248,-67.5 248,-86.5 349,-86.5 349,-67.5 248,-67.5"/>
<text text-anchor="middle" x="298.5" y="-74.5" font-family="Helvetica,sans-Serif" font-size="10.00">include/v8&#45;testing.h</text>
</a>
</g>
</g>
<!-- Node3&#45;&gt;Node7 -->
<g id="edge6" class="edge">
<title>Node3&#45;&gt;Node7</title>
<path fill="none" stroke="midnightblue" d="M255.68,-116.54C266.38,-106.91 279.76,-94.87 288.68,-86.83"/>
<polygon fill="midnightblue" stroke="midnightblue" points="253.23,-114.03 248.14,-123.32 257.91,-119.24 253.23,-114.03"/>
</g>
<!-- Node8 -->
<g id="node8" class="node">
<title>Node8</title>
<g id="a_node8"><a xlink:href="v8-util_8h.html" target="_top" xlink:title=" ">
<polygon fill="white" stroke="black" points="367.5,-67.5 367.5,-86.5 451.5,-86.5 451.5,-67.5 367.5,-67.5"/>
<text text-anchor="middle" x="409.5" y="-74.5" font-family="Helvetica,sans-Serif" font-size="10.00">include/v8&#45;util.h</text>
</a>
</g>
</g>
<!-- Node3&#45;&gt;Node8 -->
<g id="edge7" class="edge">
<title>Node3&#45;&gt;Node8</title>
<path fill="none" stroke="midnightblue" d="M275.54,-120.3C307.76,-110.13 353.69,-95.62 382.53,-86.52"/>
<polygon fill="midnightblue" stroke="midnightblue" points="274.08,-117.09 265.6,-123.44 276.19,-123.77 274.08,-117.09"/>
</g>
<!-- Node5 -->
<g id="node5" class="node">
<title>Node5</title>
<g id="a_node5"><a xlink:href="v8-inspector-protocol_8h.html" target="_top" xlink:title=" ">
<polygon fill="white" stroke="black" points="3.5,-0.5 3.5,-30.5 107.5,-30.5 107.5,-0.5 3.5,-0.5"/>
<text text-anchor="start" x="11.5" y="-18.5" font-family="Helvetica,sans-Serif" font-size="10.00">include/v8&#45;inspector</text>
<text text-anchor="middle" x="55.5" y="-7.5" font-family="Helvetica,sans-Serif" font-size="10.00">&#45;protocol.h</text>
</a>
</g>
</g>
<!-- Node4&#45;&gt;Node5 -->
<g id="edge4" class="edge">
<title>Node4&#45;&gt;Node5</title>
<path fill="none" stroke="midnightblue" d="M55.5,-57.23C55.5,-48.59 55.5,-38.5 55.5,-30.52"/>
<polygon fill="midnightblue" stroke="midnightblue" points="52,-57.48 55.5,-67.48 59,-57.48 52,-57.48"/>
</g>
</g>
</svg>
