<?xml version="1.0" encoding="UTF-8" standalone="no"?>
<!DOCTYPE svg PUBLIC "-//W3C//DTD SVG 1.1//EN"
 "http://www.w3.org/Graphics/SVG/1.1/DTD/svg11.dtd">
<!-- Generated by graphviz version 2.44.0 ()
 -->
<!-- Title: include/cppgc/allocation.h Pages: 1 -->
<svg width="691pt" height="274pt"
 viewBox="0.00 0.00 691.17 274.00" xmlns="http://www.w3.org/2000/svg" xmlns:xlink="http://www.w3.org/1999/xlink">
<g id="graph0" class="graph" transform="scale(1 1) rotate(0) translate(4 270)">
<title>include/cppgc/allocation.h</title>
<polygon fill="white" stroke="transparent" points="-4,4 -4,-270 687.17,-270 687.17,4 -4,4"/>
<!-- Node1 -->
<g id="node1" class="node">
<title>Node1</title>
<g id="a_node1"><a xlink:title=" ">
<polygon fill="#bfbfbf" stroke="black" points="139.74,-246.5 139.74,-265.5 267.74,-265.5 267.74,-246.5 139.74,-246.5"/>
<text text-anchor="middle" x="203.74" y="-253.5" font-family="Helvetica,sans-Serif" font-size="10.00">include/cppgc/allocation.h</text>
</a>
</g>
</g>
<!-- Node2 -->
<g id="node2" class="node">
<title>Node2</title>
<g id="a_node2"><a xlink:title=" ">
<polygon fill="white" stroke="#bfbfbf" points="104.74,-0.5 104.74,-19.5 152.74,-19.5 152.74,-0.5 104.74,-0.5"/>
<text text-anchor="middle" x="128.74" y="-7.5" font-family="Helvetica,sans-Serif" font-size="10.00">stdint.h</text>
</a>
</g>
</g>
<!-- Node1&#45;&gt;Node2 -->
<g id="edge1" class="edge">
<title>Node1&#45;&gt;Node2</title>
<path fill="none" stroke="midnightblue" d="M160.36,-246.45C113.41,-234.62 40.82,-208.26 7.74,-154 -24.34,-101.37 57.39,-48.29 102.01,-24.28"/>
<polygon fill="midnightblue" stroke="midnightblue" points="103.68,-27.35 110.91,-19.6 100.43,-21.15 103.68,-27.35"/>
</g>
<!-- Node3 -->
<g id="node3" class="node">
<title>Node3</title>
<g id="a_node3"><a xlink:title=" ">
<polygon fill="white" stroke="#bfbfbf" points="485.74,-190.5 485.74,-209.5 531.74,-209.5 531.74,-190.5 485.74,-190.5"/>
<text text-anchor="middle" x="508.74" y="-197.5" font-family="Helvetica,sans-Serif" font-size="10.00">atomic</text>
</a>
</g>
</g>
<!-- Node1&#45;&gt;Node3 -->
<g id="edge2" class="edge">
<title>Node1&#45;&gt;Node3</title>
<path fill="none" stroke="midnightblue" d="M267.83,-246.48C321.12,-238.93 399.1,-226.81 475.59,-210.06"/>
<polygon fill="midnightblue" stroke="midnightblue" points="476.39,-213.47 485.4,-207.89 474.88,-206.64 476.39,-213.47"/>
</g>
<!-- Node4 -->
<g id="node4" class="node">
<title>Node4</title>
<g id="a_node4"><a xlink:href="custom-space_8h.html" target="_top" xlink:title=" ">
<polygon fill="white" stroke="black" points="17.24,-129 17.24,-148 132.24,-148 132.24,-129 17.24,-129"/>
<text text-anchor="middle" x="74.74" y="-136" font-family="Helvetica,sans-Serif" font-size="10.00">cppgc/custom&#45;space.h</text>
</a>
</g>
</g>
<!-- Node1&#45;&gt;Node4 -->
<g id="edge3" class="edge">
<title>Node1&#45;&gt;Node4</title>
<path fill="none" stroke="midnightblue" d="M192.09,-246.38C180.36,-237.57 161.88,-223.33 146.74,-210 126.35,-192.06 104.21,-169.95 89.94,-155.33"/>
<polygon fill="midnightblue" stroke="midnightblue" points="92.36,-152.79 82.89,-148.05 87.33,-157.66 92.36,-152.79"/>
</g>
<!-- Node6 -->
<g id="node6" class="node">
<title>Node6</title>
<g id="a_node6"><a xlink:href="garbage-collected_8h.html" target="_top" xlink:title=" ">
<polygon fill="white" stroke="black" points="337.74,-190.5 337.74,-209.5 467.74,-209.5 467.74,-190.5 337.74,-190.5"/>
<text text-anchor="middle" x="402.74" y="-197.5" font-family="Helvetica,sans-Serif" font-size="10.00">cppgc/garbage&#45;collected.h</text>
</a>
</g>
</g>
<!-- Node1&#45;&gt;Node6 -->
<g id="edge5" class="edge">
<title>Node1&#45;&gt;Node6</title>
<path fill="none" stroke="midnightblue" d="M235.27,-246.44C269.33,-237.2 323.75,-222.44 361.25,-212.26"/>
<polygon fill="midnightblue" stroke="midnightblue" points="362.62,-215.51 371.35,-209.52 360.79,-208.76 362.62,-215.51"/>
</g>
<!-- Node8 -->
<g id="node8" class="node">
<title>Node8</title>
<g id="a_node8"><a xlink:href="api-constants_8h.html" target="_top" xlink:title=" ">
<polygon fill="white" stroke="black" points="153.24,-56.5 153.24,-86.5 246.24,-86.5 246.24,-56.5 153.24,-56.5"/>
<text text-anchor="start" x="161.24" y="-74.5" font-family="Helvetica,sans-Serif" font-size="10.00">cppgc/internal/api</text>
<text text-anchor="middle" x="199.74" y="-63.5" font-family="Helvetica,sans-Serif" font-size="10.00">&#45;constants.h</text>
</a>
</g>
</g>
<!-- Node1&#45;&gt;Node8 -->
<g id="edge25" class="edge">
<title>Node1&#45;&gt;Node8</title>
<path fill="none" stroke="midnightblue" d="M201.01,-246.49C198.29,-237.52 194.3,-222.94 192.74,-210 187.99,-170.58 192.35,-124.42 196,-96.87"/>
<polygon fill="midnightblue" stroke="midnightblue" points="199.52,-97 197.44,-86.61 192.58,-96.02 199.52,-97"/>
</g>
<!-- Node17 -->
<g id="node17" class="node">
<title>Node17</title>
<g id="a_node17"><a xlink:href="gc-info_8h.html" target="_top" xlink:title=" ">
<polygon fill="white" stroke="black" points="202.24,-190.5 202.24,-209.5 319.24,-209.5 319.24,-190.5 202.24,-190.5"/>
<text text-anchor="middle" x="260.74" y="-197.5" font-family="Helvetica,sans-Serif" font-size="10.00">cppgc/internal/gc&#45;info.h</text>
</a>
</g>
</g>
<!-- Node1&#45;&gt;Node17 -->
<g id="edge26" class="edge">
<title>Node1&#45;&gt;Node17</title>
<path fill="none" stroke="midnightblue" d="M212.9,-246.32C221.24,-238.42 233.77,-226.55 243.92,-216.94"/>
<polygon fill="midnightblue" stroke="midnightblue" points="246.56,-219.25 251.41,-209.83 241.75,-214.17 246.56,-219.25"/>
</g>
<!-- Node5 -->
<g id="node5" class="node">
<title>Node5</title>
<g id="a_node5"><a xlink:title=" ">
<polygon fill="white" stroke="#bfbfbf" points="174.24,-0.5 174.24,-19.5 225.24,-19.5 225.24,-0.5 174.24,-0.5"/>
<text text-anchor="middle" x="199.74" y="-7.5" font-family="Helvetica,sans-Serif" font-size="10.00">stddef.h</text>
</a>
</g>
</g>
<!-- Node4&#45;&gt;Node5 -->
<g id="edge4" class="edge">
<title>Node4&#45;&gt;Node5</title>
<path fill="none" stroke="midnightblue" d="M81.1,-128.94C92.72,-113.57 118.51,-80.59 143.74,-56 154.87,-45.15 168.45,-34.19 179.44,-25.81"/>
<polygon fill="midnightblue" stroke="midnightblue" points="181.7,-28.49 187.61,-19.69 177.51,-22.88 181.7,-28.49"/>
</g>
<!-- Node7 -->
<g id="node7" class="node">
<title>Node7</title>
<g id="a_node7"><a xlink:title=" ">
<polygon fill="white" stroke="#bfbfbf" points="517.74,-0.5 517.74,-19.5 579.74,-19.5 579.74,-0.5 517.74,-0.5"/>
<text text-anchor="middle" x="548.74" y="-7.5" font-family="Helvetica,sans-Serif" font-size="10.00">type_traits</text>
</a>
</g>
</g>
<!-- Node6&#45;&gt;Node7 -->
<g id="edge6" class="edge">
<title>Node6&#45;&gt;Node7</title>
<path fill="none" stroke="midnightblue" d="M463.36,-190.48C538.14,-179.69 656.26,-161.59 662.74,-154 691.04,-120.89 688.29,-91.98 663.74,-56 647.25,-31.85 615.69,-20.66 589.8,-15.47"/>
<polygon fill="midnightblue" stroke="midnightblue" points="590.29,-12.01 579.83,-13.71 589.07,-18.9 590.29,-12.01"/>
</g>
<!-- Node6&#45;&gt;Node8 -->
<g id="edge7" class="edge">
<title>Node6&#45;&gt;Node8</title>
<path fill="none" stroke="midnightblue" d="M375.87,-190.46C353.3,-182.68 320.68,-169.98 294.74,-154 266.89,-136.85 238.95,-111.7 220.65,-93.88"/>
<polygon fill="midnightblue" stroke="midnightblue" points="223,-91.28 213.43,-86.74 218.08,-96.26 223,-91.28"/>
</g>
<!-- Node10 -->
<g id="node10" class="node">
<title>Node10</title>
<g id="a_node10"><a xlink:href="platform_8h.html" target="_top" xlink:title=" ">
<polygon fill="white" stroke="black" points="303.24,-129 303.24,-148 392.24,-148 392.24,-129 303.24,-129"/>
<text text-anchor="middle" x="347.74" y="-136" font-family="Helvetica,sans-Serif" font-size="10.00">cppgc/platform.h</text>
</a>
</g>
</g>
<!-- Node6&#45;&gt;Node10 -->
<g id="edge11" class="edge">
<title>Node6&#45;&gt;Node10</title>
<path fill="none" stroke="midnightblue" d="M394.86,-190.48C386.45,-181.37 372.92,-166.74 362.51,-155.48"/>
<polygon fill="midnightblue" stroke="midnightblue" points="364.96,-152.98 355.6,-148.01 359.82,-157.73 364.96,-152.98"/>
</g>
<!-- Node15 -->
<g id="node15" class="node">
<title>Node15</title>
<g id="a_node15"><a xlink:href="trace-trait_8h.html" target="_top" xlink:title=" ">
<polygon fill="white" stroke="black" points="541.24,-129 541.24,-148 636.24,-148 636.24,-129 541.24,-129"/>
<text text-anchor="middle" x="588.74" y="-136" font-family="Helvetica,sans-Serif" font-size="10.00">cppgc/trace&#45;trait.h</text>
</a>
</g>
</g>
<!-- Node6&#45;&gt;Node15 -->
<g id="edge20" class="edge">
<title>Node6&#45;&gt;Node15</title>
<path fill="none" stroke="midnightblue" d="M429.39,-190.48C461.71,-180.14 516.34,-162.66 552.47,-151.1"/>
<polygon fill="midnightblue" stroke="midnightblue" points="553.68,-154.39 562.14,-148.01 551.55,-147.72 553.68,-154.39"/>
</g>
<!-- Node16 -->
<g id="node16" class="node">
<title>Node16</title>
<g id="a_node16"><a xlink:href="type-traits_8h.html" target="_top" xlink:title=" ">
<polygon fill="white" stroke="black" points="558.74,-62 558.74,-81 654.74,-81 654.74,-62 558.74,-62"/>
<text text-anchor="middle" x="606.74" y="-69" font-family="Helvetica,sans-Serif" font-size="10.00">cppgc/type&#45;traits.h</text>
</a>
</g>
</g>
<!-- Node6&#45;&gt;Node16 -->
<g id="edge24" class="edge">
<title>Node6&#45;&gt;Node16</title>
<path fill="none" stroke="midnightblue" d="M458.82,-190.46C528.71,-179.54 639.75,-161.21 645.74,-154 662.35,-134.03 641.14,-105.78 624.1,-88.33"/>
<polygon fill="midnightblue" stroke="midnightblue" points="626.32,-85.61 616.71,-81.14 621.44,-90.62 626.32,-85.61"/>
</g>
<!-- Node8&#45;&gt;Node2 -->
<g id="edge9" class="edge">
<title>Node8&#45;&gt;Node2</title>
<path fill="none" stroke="midnightblue" d="M182.91,-56.4C172.06,-47.31 157.96,-35.49 146.87,-26.19"/>
<polygon fill="midnightblue" stroke="midnightblue" points="148.98,-23.4 139.07,-19.66 144.49,-28.76 148.98,-23.4"/>
</g>
<!-- Node8&#45;&gt;Node5 -->
<g id="edge8" class="edge">
<title>Node8&#45;&gt;Node5</title>
<path fill="none" stroke="midnightblue" d="M199.74,-56.4C199.74,-48.47 199.74,-38.46 199.74,-29.86"/>
<polygon fill="midnightblue" stroke="midnightblue" points="203.24,-29.66 199.74,-19.66 196.24,-29.66 203.24,-29.66"/>
</g>
<!-- Node9 -->
<g id="node9" class="node">
<title>Node9</title>
<g id="a_node9"><a xlink:href="v8config_8h.html" target="_top" xlink:title=" ">
<polygon fill="white" stroke="black" points="244.74,-0.5 244.74,-19.5 304.74,-19.5 304.74,-0.5 244.74,-0.5"/>
<text text-anchor="middle" x="274.74" y="-7.5" font-family="Helvetica,sans-Serif" font-size="10.00">v8config.h</text>
</a>
</g>
</g>
<!-- Node8&#45;&gt;Node9 -->
<g id="edge10" class="edge">
<title>Node8&#45;&gt;Node9</title>
<path fill="none" stroke="midnightblue" d="M217.51,-56.4C229.09,-47.22 244.16,-35.26 255.93,-25.92"/>
<polygon fill="midnightblue" stroke="midnightblue" points="258.17,-28.61 263.83,-19.66 253.82,-23.13 258.17,-28.61"/>
</g>
<!-- Node10&#45;&gt;Node9 -->
<g id="edge19" class="edge">
<title>Node10&#45;&gt;Node9</title>
<path fill="none" stroke="midnightblue" d="M342.72,-128.81C330.84,-108.22 300.82,-56.19 284.94,-28.68"/>
<polygon fill="midnightblue" stroke="midnightblue" points="287.82,-26.67 279.79,-19.76 281.76,-30.17 287.82,-26.67"/>
</g>
<!-- Node11 -->
<g id="node11" class="node">
<title>Node11</title>
<g id="a_node11"><a xlink:href="v8-platform_8h.html" target="_top" xlink:title=" ">
<polygon fill="white" stroke="black" points="341.24,-62 341.24,-81 414.24,-81 414.24,-62 341.24,-62"/>
<text text-anchor="middle" x="377.74" y="-69" font-family="Helvetica,sans-Serif" font-size="10.00">v8&#45;platform.h</text>
</a>
</g>
</g>
<!-- Node10&#45;&gt;Node11 -->
<g id="edge12" class="edge">
<title>Node10&#45;&gt;Node11</title>
<path fill="none" stroke="midnightblue" d="M351.79,-128.73C356.28,-118.99 363.67,-102.98 369.42,-90.53"/>
<polygon fill="midnightblue" stroke="midnightblue" points="372.74,-91.67 373.76,-81.13 366.39,-88.74 372.74,-91.67"/>
</g>
<!-- Node11&#45;&gt;Node2 -->
<g id="edge14" class="edge">
<title>Node11&#45;&gt;Node2</title>
<path fill="none" stroke="midnightblue" d="M341.15,-61.97C298.69,-52.03 226.59,-35.06 164.74,-20 164.01,-19.82 163.28,-19.64 162.53,-19.46"/>
<polygon fill="midnightblue" stroke="midnightblue" points="163.29,-16.04 152.74,-17.04 161.61,-22.84 163.29,-16.04"/>
</g>
<!-- Node11&#45;&gt;Node5 -->
<g id="edge13" class="edge">
<title>Node11&#45;&gt;Node5</title>
<path fill="none" stroke="midnightblue" d="M352.24,-61.98C321.44,-51.68 269.47,-34.31 234.89,-22.75"/>
<polygon fill="midnightblue" stroke="midnightblue" points="235.79,-19.36 225.2,-19.51 233.57,-26 235.79,-19.36"/>
</g>
<!-- Node11&#45;&gt;Node9 -->
<g id="edge18" class="edge">
<title>Node11&#45;&gt;Node9</title>
<path fill="none" stroke="midnightblue" d="M362.98,-61.98C346.08,-52.21 318.16,-36.08 298.25,-24.58"/>
<polygon fill="midnightblue" stroke="midnightblue" points="299.88,-21.48 289.47,-19.51 296.38,-27.54 299.88,-21.48"/>
</g>
<!-- Node12 -->
<g id="node12" class="node">
<title>Node12</title>
<g id="a_node12"><a xlink:title=" ">
<polygon fill="white" stroke="#bfbfbf" points="451.24,-0.5 451.24,-19.5 498.24,-19.5 498.24,-0.5 451.24,-0.5"/>
<text text-anchor="middle" x="474.74" y="-7.5" font-family="Helvetica,sans-Serif" font-size="10.00">stdlib.h</text>
</a>
</g>
</g>
<!-- Node11&#45;&gt;Node12 -->
<g id="edge15" class="edge">
<title>Node11&#45;&gt;Node12</title>
<path fill="none" stroke="midnightblue" d="M391.64,-61.98C407.41,-52.3 433.38,-36.37 452.09,-24.89"/>
<polygon fill="midnightblue" stroke="midnightblue" points="454.17,-27.72 460.87,-19.51 450.51,-21.75 454.17,-27.72"/>
</g>
<!-- Node13 -->
<g id="node13" class="node">
<title>Node13</title>
<g id="a_node13"><a xlink:title=" ">
<polygon fill="white" stroke="#bfbfbf" points="323.24,-0.5 323.24,-19.5 374.24,-19.5 374.24,-0.5 323.24,-0.5"/>
<text text-anchor="middle" x="348.74" y="-7.5" font-family="Helvetica,sans-Serif" font-size="10.00">memory</text>
</a>
</g>
</g>
<!-- Node11&#45;&gt;Node13 -->
<g id="edge16" class="edge">
<title>Node11&#45;&gt;Node13</title>
<path fill="none" stroke="midnightblue" d="M373.58,-61.98C369.36,-53.32 362.7,-39.65 357.34,-28.65"/>
<polygon fill="midnightblue" stroke="midnightblue" points="360.41,-26.96 352.89,-19.51 354.12,-30.03 360.41,-26.96"/>
</g>
<!-- Node14 -->
<g id="node14" class="node">
<title>Node14</title>
<g id="a_node14"><a xlink:title=" ">
<polygon fill="white" stroke="#bfbfbf" points="392.24,-0.5 392.24,-19.5 433.24,-19.5 433.24,-0.5 392.24,-0.5"/>
<text text-anchor="middle" x="412.74" y="-7.5" font-family="Helvetica,sans-Serif" font-size="10.00">string</text>
</a>
</g>
</g>
<!-- Node11&#45;&gt;Node14 -->
<g id="edge17" class="edge">
<title>Node11&#45;&gt;Node14</title>
<path fill="none" stroke="midnightblue" d="M382.75,-61.98C387.9,-53.23 396.05,-39.37 402.56,-28.31"/>
<polygon fill="midnightblue" stroke="midnightblue" points="405.68,-29.9 407.73,-19.51 399.65,-26.35 405.68,-29.9"/>
</g>
<!-- Node15&#45;&gt;Node7 -->
<g id="edge21" class="edge">
<title>Node15&#45;&gt;Node7</title>
<path fill="none" stroke="midnightblue" d="M579.22,-128.93C569.69,-119.67 555.65,-103.95 549.74,-87 543.24,-68.35 544,-45.53 545.75,-29.79"/>
<polygon fill="midnightblue" stroke="midnightblue" points="549.24,-30.12 547.11,-19.74 542.3,-29.18 549.24,-30.12"/>
</g>
<!-- Node15&#45;&gt;Node16 -->
<g id="edge22" class="edge">
<title>Node15&#45;&gt;Node16</title>
<path fill="none" stroke="midnightblue" d="M591.17,-128.73C593.84,-119.09 598.21,-103.3 601.64,-90.91"/>
<polygon fill="midnightblue" stroke="midnightblue" points="605.05,-91.7 604.35,-81.13 598.31,-89.83 605.05,-91.7"/>
</g>
<!-- Node16&#45;&gt;Node7 -->
<g id="edge23" class="edge">
<title>Node16&#45;&gt;Node7</title>
<path fill="none" stroke="midnightblue" d="M598.43,-61.98C589.56,-52.87 575.29,-38.24 564.32,-26.98"/>
<polygon fill="midnightblue" stroke="midnightblue" points="566.52,-24.23 557.03,-19.51 561.51,-29.11 566.52,-24.23"/>
</g>
<!-- Node17&#45;&gt;Node2 -->
<g id="edge27" class="edge">
<title>Node17&#45;&gt;Node2</title>
<path fill="none" stroke="midnightblue" d="M247.32,-190.38C222.52,-173.68 169.67,-134.35 143.74,-87 133.97,-69.16 130.51,-45.86 129.31,-29.79"/>
<polygon fill="midnightblue" stroke="midnightblue" points="132.79,-29.35 128.78,-19.54 125.8,-29.71 132.79,-29.35"/>
</g>
<!-- Node17&#45;&gt;Node9 -->
<g id="edge32" class="edge">
<title>Node17&#45;&gt;Node9</title>
<path fill="none" stroke="midnightblue" d="M261.38,-190.43C263.5,-161.93 270.36,-69.82 273.34,-29.83"/>
<polygon fill="midnightblue" stroke="midnightblue" points="276.85,-29.85 274.1,-19.62 269.86,-29.33 276.85,-29.85"/>
</g>
<!-- Node17&#45;&gt;Node15 -->
<g id="edge31" class="edge">
<title>Node17&#45;&gt;Node15</title>
<path fill="none" stroke="midnightblue" d="M319.39,-190.85C374.67,-182.79 459.69,-169.47 532.74,-154 537.71,-152.95 542.9,-151.75 548.03,-150.49"/>
<polygon fill="midnightblue" stroke="midnightblue" points="548.91,-153.88 557.75,-148.05 547.2,-147.09 548.91,-153.88"/>
</g>
<!-- Node18 -->
<g id="node18" class="node">
<title>Node18</title>
<g id="a_node18"><a xlink:href="finalizer-trait_8h.html" target="_top" xlink:title=" ">
<polygon fill="white" stroke="black" points="410.24,-123.5 410.24,-153.5 523.24,-153.5 523.24,-123.5 410.24,-123.5"/>
<text text-anchor="start" x="418.24" y="-141.5" font-family="Helvetica,sans-Serif" font-size="10.00">cppgc/internal/finalizer</text>
<text text-anchor="middle" x="466.74" y="-130.5" font-family="Helvetica,sans-Serif" font-size="10.00">&#45;trait.h</text>
</a>
</g>
</g>
<!-- Node17&#45;&gt;Node18 -->
<g id="edge28" class="edge">
<title>Node17&#45;&gt;Node18</title>
<path fill="none" stroke="midnightblue" d="M290.25,-190.48C320.89,-181.63 369.63,-167.55 408.13,-156.43"/>
<polygon fill="midnightblue" stroke="midnightblue" points="409.55,-159.66 418.19,-153.52 407.61,-152.94 409.55,-159.66"/>
</g>
<!-- Node18&#45;&gt;Node7 -->
<g id="edge29" class="edge">
<title>Node18&#45;&gt;Node7</title>
<path fill="none" stroke="midnightblue" d="M475.83,-123.48C490.91,-100.21 521.08,-53.66 537.49,-28.36"/>
<polygon fill="midnightblue" stroke="midnightblue" points="540.54,-30.08 543.04,-19.79 534.67,-26.28 540.54,-30.08"/>
</g>
<!-- Node18&#45;&gt;Node16 -->
<g id="edge30" class="edge">
<title>Node18&#45;&gt;Node16</title>
<path fill="none" stroke="midnightblue" d="M497.12,-123.4C521.57,-112.04 555.65,-96.22 579.29,-85.24"/>
<polygon fill="midnightblue" stroke="midnightblue" points="580.82,-88.39 588.42,-81.01 577.87,-82.04 580.82,-88.39"/>
</g>
</g>
</svg>
