<?xml version="1.0" encoding="UTF-8" standalone="no"?>
<!DOCTYPE svg PUBLIC "-//W3C//DTD SVG 1.1//EN"
 "http://www.w3.org/Graphics/SVG/1.1/DTD/svg11.dtd">
<!-- Generated by graphviz version 2.44.0 ()
 -->
<!-- Title: include/cppgc/internal/api&#45;constants.h Pages: 1 -->
<svg width="597pt" height="419pt"
 viewBox="0.00 0.00 596.50 419.00" xmlns="http://www.w3.org/2000/svg" xmlns:xlink="http://www.w3.org/1999/xlink">
<g id="graph0" class="graph" transform="scale(1 1) rotate(0) translate(4 415)">
<title>include/cppgc/internal/api&#45;constants.h</title>
<polygon fill="white" stroke="transparent" points="-4,4 -4,-415 592.5,-415 592.5,4 -4,4"/>
<!-- Node1 -->
<g id="node1" class="node">
<title>Node1</title>
<g id="a_node1"><a xlink:title=" ">
<polygon fill="#bfbfbf" stroke="black" points="127.5,-380.5 127.5,-410.5 238.5,-410.5 238.5,-380.5 127.5,-380.5"/>
<text text-anchor="start" x="135.5" y="-398.5" font-family="Helvetica,sans-Serif" font-size="10.00">include/cppgc/internal</text>
<text text-anchor="middle" x="183" y="-387.5" font-family="Helvetica,sans-Serif" font-size="10.00">/api&#45;constants.h</text>
</a>
</g>
</g>
<!-- Node2 -->
<g id="node2" class="node">
<title>Node2</title>
<g id="a_node2"><a xlink:href="garbage-collected_8h.html" target="_top" xlink:title=" ">
<polygon fill="white" stroke="black" points="58,-313.5 58,-343.5 172,-343.5 172,-313.5 58,-313.5"/>
<text text-anchor="start" x="66" y="-331.5" font-family="Helvetica,sans-Serif" font-size="10.00">include/cppgc/garbage</text>
<text text-anchor="middle" x="115" y="-320.5" font-family="Helvetica,sans-Serif" font-size="10.00">&#45;collected.h</text>
</a>
</g>
</g>
<!-- Node1&#45;&gt;Node2 -->
<g id="edge1" class="edge">
<title>Node1&#45;&gt;Node2</title>
<path fill="none" stroke="midnightblue" d="M160.83,-373.31C150.63,-363.56 138.81,-352.26 129.73,-343.58"/>
<polygon fill="midnightblue" stroke="midnightblue" points="158.6,-376.02 168.25,-380.4 163.43,-370.96 158.6,-376.02"/>
</g>
<!-- Node3 -->
<g id="node3" class="node">
<title>Node3</title>
<g id="a_node3"><a xlink:href="allocation_8h.html" target="_top" xlink:title=" ">
<polygon fill="white" stroke="black" points="0,-252 0,-271 128,-271 128,-252 0,-252"/>
<text text-anchor="middle" x="64" y="-259" font-family="Helvetica,sans-Serif" font-size="10.00">include/cppgc/allocation.h</text>
</a>
</g>
</g>
<!-- Node1&#45;&gt;Node3 -->
<g id="edge5" class="edge">
<title>Node1&#45;&gt;Node3</title>
<path fill="none" stroke="midnightblue" d="M117.42,-385.98C91.68,-379.07 64.61,-366.57 49,-344 33.37,-321.4 49.41,-287.16 58.57,-271.22"/>
<polygon fill="midnightblue" stroke="midnightblue" points="116.65,-389.39 127.19,-388.36 118.31,-382.59 116.65,-389.39"/>
</g>
<!-- Node6 -->
<g id="node6" class="node">
<title>Node6</title>
<g id="a_node6"><a xlink:href="caged-heap-local-data_8h.html" target="_top" xlink:title=" ">
<polygon fill="white" stroke="black" points="190,-313.5 190,-343.5 312,-343.5 312,-313.5 190,-313.5"/>
<text text-anchor="start" x="198" y="-331.5" font-family="Helvetica,sans-Serif" font-size="10.00">include/cppgc/internal</text>
<text text-anchor="middle" x="251" y="-320.5" font-family="Helvetica,sans-Serif" font-size="10.00">/caged&#45;heap&#45;local&#45;data.h</text>
</a>
</g>
</g>
<!-- Node1&#45;&gt;Node6 -->
<g id="edge6" class="edge">
<title>Node1&#45;&gt;Node6</title>
<path fill="none" stroke="midnightblue" d="M205.17,-373.31C215.37,-363.56 227.19,-352.26 236.27,-343.58"/>
<polygon fill="midnightblue" stroke="midnightblue" points="202.57,-370.96 197.75,-380.4 207.4,-376.02 202.57,-370.96"/>
</g>
<!-- Node7 -->
<g id="node7" class="node">
<title>Node7</title>
<g id="a_node7"><a xlink:href="write-barrier_8h.html" target="_top" xlink:title=" ">
<polygon fill="white" stroke="black" points="330.5,-313.5 330.5,-343.5 441.5,-343.5 441.5,-313.5 330.5,-313.5"/>
<text text-anchor="start" x="338.5" y="-331.5" font-family="Helvetica,sans-Serif" font-size="10.00">include/cppgc/internal</text>
<text text-anchor="middle" x="386" y="-320.5" font-family="Helvetica,sans-Serif" font-size="10.00">/write&#45;barrier.h</text>
</a>
</g>
</g>
<!-- Node1&#45;&gt;Node7 -->
<g id="edge7" class="edge">
<title>Node1&#45;&gt;Node7</title>
<path fill="none" stroke="midnightblue" d="M236.94,-377.23C269.78,-366.71 311.2,-353.45 342.04,-343.58"/>
<polygon fill="midnightblue" stroke="midnightblue" points="235.5,-374.01 227.05,-380.4 237.64,-380.68 235.5,-374.01"/>
</g>
<!-- Node2&#45;&gt;Node3 -->
<g id="edge2" class="edge">
<title>Node2&#45;&gt;Node3</title>
<path fill="none" stroke="midnightblue" d="M97.59,-305.32C88.4,-293.6 77.64,-279.88 70.82,-271.19"/>
<polygon fill="midnightblue" stroke="midnightblue" points="95.01,-307.69 103.93,-313.4 100.51,-303.37 95.01,-307.69"/>
</g>
<!-- Node4 -->
<g id="node4" class="node">
<title>Node4</title>
<g id="a_node4"><a xlink:href="visitor_8h.html" target="_top" xlink:title=" ">
<polygon fill="white" stroke="black" points="306.5,-62 306.5,-81 419.5,-81 419.5,-62 306.5,-62"/>
<text text-anchor="middle" x="363" y="-69" font-family="Helvetica,sans-Serif" font-size="10.00">include/cppgc/visitor.h</text>
</a>
</g>
</g>
<!-- Node2&#45;&gt;Node4 -->
<g id="edge3" class="edge">
<title>Node2&#45;&gt;Node4</title>
<path fill="none" stroke="midnightblue" d="M135.69,-306.23C187.26,-253.2 319.87,-116.85 354.58,-81.16"/>
<polygon fill="midnightblue" stroke="midnightblue" points="133.15,-303.82 128.69,-313.43 138.17,-308.7 133.15,-303.82"/>
</g>
<!-- Node5 -->
<g id="node5" class="node">
<title>Node5</title>
<g id="a_node5"><a xlink:href="persistent_8h.html" target="_top" xlink:title=" ">
<polygon fill="white" stroke="black" points="261,-0.5 261,-19.5 391,-19.5 391,-0.5 261,-0.5"/>
<text text-anchor="middle" x="326" y="-7.5" font-family="Helvetica,sans-Serif" font-size="10.00">include/cppgc/persistent.h</text>
</a>
</g>
</g>
<!-- Node4&#45;&gt;Node5 -->
<g id="edge4" class="edge">
<title>Node4&#45;&gt;Node5</title>
<path fill="none" stroke="midnightblue" d="M352.22,-53.17C345.34,-42.11 336.73,-28.25 331.29,-19.51"/>
<polygon fill="midnightblue" stroke="midnightblue" points="349.45,-55.33 357.7,-61.98 355.39,-51.63 349.45,-55.33"/>
</g>
<!-- Node8 -->
<g id="node8" class="node">
<title>Node8</title>
<g id="a_node8"><a xlink:href="pointer-policies_8h.html" target="_top" xlink:title=" ">
<polygon fill="white" stroke="black" points="313.5,-246.5 313.5,-276.5 424.5,-276.5 424.5,-246.5 313.5,-246.5"/>
<text text-anchor="start" x="321.5" y="-264.5" font-family="Helvetica,sans-Serif" font-size="10.00">include/cppgc/internal</text>
<text text-anchor="middle" x="369" y="-253.5" font-family="Helvetica,sans-Serif" font-size="10.00">/pointer&#45;policies.h</text>
</a>
</g>
</g>
<!-- Node7&#45;&gt;Node8 -->
<g id="edge8" class="edge">
<title>Node7&#45;&gt;Node8</title>
<path fill="none" stroke="midnightblue" d="M379.77,-303.7C377.39,-294.59 374.75,-284.49 372.68,-276.58"/>
<polygon fill="midnightblue" stroke="midnightblue" points="376.39,-304.61 382.31,-313.4 383.17,-302.84 376.39,-304.61"/>
</g>
<!-- Node8&#45;&gt;Node4 -->
<g id="edge17" class="edge">
<title>Node8&#45;&gt;Node4</title>
<path fill="none" stroke="midnightblue" d="M354.79,-237.41C350.43,-229.08 346.2,-219.41 344,-210 332.8,-162.13 351.52,-103.24 359.58,-81.29"/>
<polygon fill="midnightblue" stroke="midnightblue" points="351.74,-239.13 359.67,-246.15 357.85,-235.72 351.74,-239.13"/>
</g>
<!-- Node8&#45;&gt;Node5 -->
<g id="edge16" class="edge">
<title>Node8&#45;&gt;Node5</title>
<path fill="none" stroke="midnightblue" d="M353.55,-237.82C348.18,-229.33 342.4,-219.45 338,-210 313.66,-157.77 306.23,-143.88 297,-87 294.79,-73.4 293.11,-69.22 297,-56 301.15,-41.91 311.22,-28.07 318.33,-19.54"/>
<polygon fill="midnightblue" stroke="midnightblue" points="350.75,-239.93 359.14,-246.4 356.61,-236.11 350.75,-239.93"/>
</g>
<!-- Node9 -->
<g id="node9" class="node">
<title>Node9</title>
<g id="a_node9"><a xlink:href="member_8h.html" target="_top" xlink:title=" ">
<polygon fill="white" stroke="black" points="353,-190.5 353,-209.5 475,-209.5 475,-190.5 353,-190.5"/>
<text text-anchor="middle" x="414" y="-197.5" font-family="Helvetica,sans-Serif" font-size="10.00">include/cppgc/member.h</text>
</a>
</g>
</g>
<!-- Node8&#45;&gt;Node9 -->
<g id="edge9" class="edge">
<title>Node8&#45;&gt;Node9</title>
<path fill="none" stroke="midnightblue" d="M385.71,-238.4C393.27,-228.41 401.76,-217.18 407.45,-209.66"/>
<polygon fill="midnightblue" stroke="midnightblue" points="382.9,-236.31 379.66,-246.4 388.49,-240.53 382.9,-236.31"/>
</g>
<!-- Node9&#45;&gt;Node4 -->
<g id="edge15" class="edge">
<title>Node9&#45;&gt;Node4</title>
<path fill="none" stroke="midnightblue" d="M399.86,-182.45C393.57,-174.33 386.57,-164.14 382,-154 370.77,-129.1 365.79,-96.82 363.93,-81.43"/>
<polygon fill="midnightblue" stroke="midnightblue" points="397.24,-184.77 406.26,-190.34 402.68,-180.36 397.24,-184.77"/>
</g>
<!-- Node10 -->
<g id="node10" class="node">
<title>Node10</title>
<g id="a_node10"><a xlink:href="liveness-broker_8h.html" target="_top" xlink:title=" ">
<polygon fill="white" stroke="black" points="391,-123.5 391,-153.5 507,-153.5 507,-123.5 391,-123.5"/>
<text text-anchor="start" x="399" y="-141.5" font-family="Helvetica,sans-Serif" font-size="10.00">include/cppgc/liveness</text>
<text text-anchor="middle" x="449" y="-130.5" font-family="Helvetica,sans-Serif" font-size="10.00">&#45;broker.h</text>
</a>
</g>
</g>
<!-- Node9&#45;&gt;Node10 -->
<g id="edge10" class="edge">
<title>Node9&#45;&gt;Node10</title>
<path fill="none" stroke="midnightblue" d="M424.19,-181.68C429.45,-172.73 435.8,-161.94 440.75,-153.52"/>
<polygon fill="midnightblue" stroke="midnightblue" points="421.07,-180.08 419.01,-190.48 427.1,-183.63 421.07,-180.08"/>
</g>
<!-- Node10&#45;&gt;Node4 -->
<g id="edge13" class="edge">
<title>Node10&#45;&gt;Node4</title>
<path fill="none" stroke="midnightblue" d="M422.33,-117.34C406.28,-105.21 386.67,-90.39 374.5,-81.19"/>
<polygon fill="midnightblue" stroke="midnightblue" points="420.25,-120.16 430.34,-123.4 424.47,-114.57 420.25,-120.16"/>
</g>
<!-- Node11 -->
<g id="node11" class="node">
<title>Node11</title>
<g id="a_node11"><a xlink:href="prefinalizer-handler_8h.html" target="_top" xlink:title=" ">
<polygon fill="white" stroke="black" points="477.5,-56.5 477.5,-86.5 588.5,-86.5 588.5,-56.5 477.5,-56.5"/>
<text text-anchor="start" x="485.5" y="-74.5" font-family="Helvetica,sans-Serif" font-size="10.00">include/cppgc/internal</text>
<text text-anchor="middle" x="533" y="-63.5" font-family="Helvetica,sans-Serif" font-size="10.00">/prefinalizer&#45;handler.h</text>
</a>
</g>
</g>
<!-- Node10&#45;&gt;Node11 -->
<g id="edge11" class="edge">
<title>Node10&#45;&gt;Node11</title>
<path fill="none" stroke="midnightblue" d="M475.28,-117.17C488.12,-107.23 503.26,-95.51 514.81,-86.58"/>
<polygon fill="midnightblue" stroke="midnightblue" points="472.99,-114.51 467.23,-123.4 477.28,-120.04 472.99,-114.51"/>
</g>
<!-- Node12 -->
<g id="node12" class="node">
<title>Node12</title>
<g id="a_node12"><a xlink:href="prefinalizer_8h.html" target="_top" xlink:title=" ">
<polygon fill="white" stroke="black" points="419.5,-0.5 419.5,-19.5 552.5,-19.5 552.5,-0.5 419.5,-0.5"/>
<text text-anchor="middle" x="486" y="-7.5" font-family="Helvetica,sans-Serif" font-size="10.00">include/cppgc/prefinalizer.h</text>
</a>
</g>
</g>
<!-- Node10&#45;&gt;Node12 -->
<g id="edge14" class="edge">
<title>Node10&#45;&gt;Node12</title>
<path fill="none" stroke="midnightblue" d="M454.11,-113.4C457.77,-97.06 463.08,-75.06 469,-56 473.01,-43.08 478.75,-28.49 482.43,-19.52"/>
<polygon fill="midnightblue" stroke="midnightblue" points="450.68,-112.71 451.96,-123.22 457.52,-114.21 450.68,-112.71"/>
</g>
<!-- Node11&#45;&gt;Node12 -->
<g id="edge12" class="edge">
<title>Node11&#45;&gt;Node12</title>
<path fill="none" stroke="midnightblue" d="M515.55,-48.4C507.65,-38.41 498.78,-27.18 492.84,-19.66"/>
<polygon fill="midnightblue" stroke="midnightblue" points="512.92,-50.72 521.86,-56.4 518.41,-46.38 512.92,-50.72"/>
</g>
</g>
</svg>
