<?xml version="1.0" encoding="UTF-8" standalone="no"?>
<!DOCTYPE svg PUBLIC "-//W3C//DTD SVG 1.1//EN"
 "http://www.w3.org/Graphics/SVG/1.1/DTD/svg11.dtd">
<!-- Generated by graphviz version 2.44.0 ()
 -->
<!-- Title: v8::StdPersistentValueMap&lt; K, V, Traits &gt; Pages: 1 -->
<svg width="933pt" height="99pt"
 viewBox="0.00 0.00 933.00 98.50" xmlns="http://www.w3.org/2000/svg" xmlns:xlink="http://www.w3.org/1999/xlink">
<g id="graph0" class="graph" transform="scale(1 1) rotate(0) translate(4 94.5)">
<title>v8::StdPersistentValueMap&lt; K, V, Traits &gt;</title>
<polygon fill="white" stroke="transparent" points="-4,4 -4,-94.5 929,-94.5 929,4 -4,4"/>
<!-- Node1 -->
<g id="node1" class="node">
<title>Node1</title>
<g id="a_node1"><a xlink:title=" ">
<polygon fill="#bfbfbf" stroke="black" points="791,-28.5 791,-58.5 925,-58.5 925,-28.5 791,-28.5"/>
<text text-anchor="start" x="799" y="-46.5" font-family="Helvetica,sans-Serif" font-size="10.00">v8::StdPersistentValueMap</text>
<text text-anchor="middle" x="858" y="-35.5" font-family="Helvetica,sans-Serif" font-size="10.00">&lt; K, V, Traits &gt;</text>
</a>
</g>
</g>
<!-- Node2 -->
<g id="node2" class="node">
<title>Node2</title>
<g id="a_node2"><a xlink:href="classv8_1_1PersistentValueMap.html" target="_top" xlink:title=" ">
<polygon fill="white" stroke="black" points="605,-23 605,-64 754,-64 754,-23 605,-23"/>
<text text-anchor="start" x="613" y="-52" font-family="Helvetica,sans-Serif" font-size="10.00">v8::PersistentValueMap</text>
<text text-anchor="start" x="613" y="-41" font-family="Helvetica,sans-Serif" font-size="10.00">&lt; K, V, DefaultPersistentValue</text>
<text text-anchor="middle" x="679.5" y="-30" font-family="Helvetica,sans-Serif" font-size="10.00">MapTraits&lt; K, V &gt; &gt;</text>
</a>
</g>
</g>
<!-- Node2&#45;&gt;Node1 -->
<g id="edge1" class="edge">
<title>Node2&#45;&gt;Node1</title>
<path fill="none" stroke="midnightblue" d="M764.15,-43.5C773.12,-43.5 782.15,-43.5 790.87,-43.5"/>
<polygon fill="midnightblue" stroke="midnightblue" points="764.07,-40 754.07,-43.5 764.07,-47 764.07,-40"/>
</g>
<!-- Node3 -->
<g id="node3" class="node">
<title>Node3</title>
<g id="a_node3"><a xlink:href="classv8_1_1PersistentValueMapBase.html" target="_top" xlink:title=" ">
<polygon fill="white" stroke="black" points="290,-49 290,-90 457,-90 457,-49 290,-49"/>
<text text-anchor="start" x="298" y="-78" font-family="Helvetica,sans-Serif" font-size="10.00">v8::PersistentValueMapBase</text>
<text text-anchor="start" x="298" y="-67" font-family="Helvetica,sans-Serif" font-size="10.00">&lt; K, V, DefaultPersistentValueMap</text>
<text text-anchor="middle" x="373.5" y="-56" font-family="Helvetica,sans-Serif" font-size="10.00">Traits&lt; K, V &gt; &gt;</text>
</a>
</g>
</g>
<!-- Node3&#45;&gt;Node2 -->
<g id="edge2" class="edge">
<title>Node3&#45;&gt;Node2</title>
<path fill="none" stroke="midnightblue" d="M467.33,-61.56C511.5,-57.78 563.55,-53.33 604.93,-49.79"/>
<polygon fill="midnightblue" stroke="midnightblue" points="466.83,-58.09 457.17,-62.43 467.43,-65.06 466.83,-58.09"/>
</g>
<!-- Node4 -->
<g id="node4" class="node">
<title>Node4</title>
<g id="a_node4"><a xlink:href="classv8_1_1PersistentValueMapBase.html" target="_top" xlink:title=" ">
<polygon fill="white" stroke="black" points="0,-26.5 0,-56.5 142,-56.5 142,-26.5 0,-26.5"/>
<text text-anchor="start" x="8" y="-44.5" font-family="Helvetica,sans-Serif" font-size="10.00">v8::PersistentValueMapBase</text>
<text text-anchor="middle" x="71" y="-33.5" font-family="Helvetica,sans-Serif" font-size="10.00">&lt; K, V, Traits &gt;</text>
</a>
</g>
</g>
<!-- Node4&#45;&gt;Node3 -->
<g id="edge3" class="edge">
<title>Node4&#45;&gt;Node3</title>
<path fill="none" stroke="orange" stroke-dasharray="5,2" d="M152.11,-48.96C194.64,-52.93 246.85,-57.79 289.77,-61.79"/>
<polygon fill="orange" stroke="orange" points="152.36,-45.47 142.07,-48.03 151.71,-52.44 152.36,-45.47"/>
<text text-anchor="start" x="160" y="-73.5" font-family="Helvetica,sans-Serif" font-size="10.00"> &lt; K, V, DefaultPersistent</text>
<text text-anchor="middle" x="216" y="-62.5" font-family="Helvetica,sans-Serif" font-size="10.00">ValueMapTraits&lt; K, V &gt; &gt;</text>
</g>
<!-- Node5 -->
<g id="node5" class="node">
<title>Node5</title>
<g id="a_node5"><a xlink:href="classv8_1_1PersistentValueMap.html" target="_top" xlink:title=" ">
<polygon fill="white" stroke="black" points="314,-0.5 314,-30.5 433,-30.5 433,-0.5 314,-0.5"/>
<text text-anchor="start" x="322" y="-18.5" font-family="Helvetica,sans-Serif" font-size="10.00">v8::PersistentValueMap</text>
<text text-anchor="middle" x="373.5" y="-7.5" font-family="Helvetica,sans-Serif" font-size="10.00">&lt; K, V, Traits &gt;</text>
</a>
</g>
</g>
<!-- Node4&#45;&gt;Node5 -->
<g id="edge5" class="edge">
<title>Node4&#45;&gt;Node5</title>
<path fill="none" stroke="midnightblue" d="M152.07,-34.57C203,-30.17 267.81,-24.56 313.95,-20.57"/>
<polygon fill="midnightblue" stroke="midnightblue" points="151.74,-31.09 142.07,-35.44 152.34,-38.06 151.74,-31.09"/>
</g>
<!-- Node5&#45;&gt;Node2 -->
<g id="edge4" class="edge">
<title>Node5&#45;&gt;Node2</title>
<path fill="none" stroke="orange" stroke-dasharray="5,2" d="M443.37,-16.18C485.07,-17.22 539.24,-19.71 587,-25.5 592.79,-26.2 598.75,-27.06 604.74,-28.02"/>
<polygon fill="orange" stroke="orange" points="443.4,-12.68 433.32,-15.95 443.24,-19.68 443.4,-12.68"/>
<text text-anchor="start" x="475" y="-39.5" font-family="Helvetica,sans-Serif" font-size="10.00"> &lt; K, V, DefaultPersistent</text>
<text text-anchor="middle" x="531" y="-28.5" font-family="Helvetica,sans-Serif" font-size="10.00">ValueMapTraits&lt; K, V &gt; &gt;</text>
</g>
</g>
</svg>
