<?xml version="1.0" encoding="UTF-8" standalone="no"?>
<!DOCTYPE svg PUBLIC "-//W3C//DTD SVG 1.1//EN"
 "http://www.w3.org/Graphics/SVG/1.1/DTD/svg11.dtd">
<!-- Generated by graphviz version 2.44.0 ()
 -->
<!-- Title: v8::Value Pages: 1 -->
<svg width="681pt" height="940pt"
 viewBox="0.00 0.00 681.00 940.00" xmlns="http://www.w3.org/2000/svg" xmlns:xlink="http://www.w3.org/1999/xlink">
<g id="graph0" class="graph" transform="scale(1 1) rotate(0) translate(4 936)">
<title>v8::Value</title>
<polygon fill="white" stroke="transparent" points="-4,4 -4,-936 677,-936 677,4 -4,4"/>
<!-- Node1 -->
<g id="node1" class="node">
<title>Node1</title>
<g id="a_node1"><a xlink:title=" ">
<polygon fill="#bfbfbf" stroke="black" points="88,-475.5 88,-494.5 144,-494.5 144,-475.5 88,-475.5"/>
<text text-anchor="middle" x="116" y="-482.5" font-family="Helvetica,sans-Serif" font-size="10.00">v8::Value</text>
</a>
</g>
</g>
<!-- Node3 -->
<g id="node3" class="node">
<title>Node3</title>
<g id="a_node3"><a xlink:href="classv8_1_1External.html" target="_top" xlink:title=" ">
<polygon fill="white" stroke="black" points="182,-513.5 182,-532.5 248,-532.5 248,-513.5 182,-513.5"/>
<text text-anchor="middle" x="215" y="-520.5" font-family="Helvetica,sans-Serif" font-size="10.00">v8::External</text>
</a>
</g>
</g>
<!-- Node1&#45;&gt;Node3 -->
<g id="edge2" class="edge">
<title>Node1&#45;&gt;Node3</title>
<path fill="none" stroke="midnightblue" d="M150.86,-498.26C163.59,-503.25 177.81,-508.82 189.53,-513.41"/>
<polygon fill="midnightblue" stroke="midnightblue" points="152.06,-494.98 141.48,-494.59 149.51,-501.5 152.06,-494.98"/>
</g>
<!-- Node4 -->
<g id="node4" class="node">
<title>Node4</title>
<g id="a_node4"><a xlink:href="classv8_1_1Object.html" target="_top" xlink:title=" ">
<polygon fill="white" stroke="black" points="185,-475.5 185,-494.5 245,-494.5 245,-475.5 185,-475.5"/>
<text text-anchor="middle" x="215" y="-482.5" font-family="Helvetica,sans-Serif" font-size="10.00">v8::Object</text>
</a>
</g>
</g>
<!-- Node1&#45;&gt;Node4 -->
<g id="edge3" class="edge">
<title>Node1&#45;&gt;Node4</title>
<path fill="none" stroke="midnightblue" d="M154.23,-485C164.34,-485 175.14,-485 184.75,-485"/>
<polygon fill="midnightblue" stroke="midnightblue" points="154.02,-481.5 144.02,-485 154.02,-488.5 154.02,-481.5"/>
</g>
<!-- Node36 -->
<g id="node36" class="node">
<title>Node36</title>
<g id="a_node36"><a xlink:href="classv8_1_1Primitive.html" target="_top" xlink:title=" ">
<polygon fill="white" stroke="black" points="180,-95.5 180,-114.5 250,-114.5 250,-95.5 180,-95.5"/>
<text text-anchor="middle" x="215" y="-102.5" font-family="Helvetica,sans-Serif" font-size="10.00">v8::Primitive</text>
</a>
</g>
</g>
<!-- Node1&#45;&gt;Node36 -->
<g id="edge35" class="edge">
<title>Node1&#45;&gt;Node36</title>
<path fill="none" stroke="midnightblue" d="M122.06,-465.19C139.78,-395.76 198.7,-164.96 211.52,-114.71"/>
<polygon fill="midnightblue" stroke="midnightblue" points="118.58,-464.67 119.5,-475.22 125.36,-466.4 118.58,-464.67"/>
</g>
<!-- Node2 -->
<g id="node2" class="node">
<title>Node2</title>
<g id="a_node2"><a xlink:href="classv8_1_1Data.html" target="_top" xlink:title=" ">
<polygon fill="white" stroke="black" points="0,-475.5 0,-494.5 52,-494.5 52,-475.5 0,-475.5"/>
<text text-anchor="middle" x="26" y="-482.5" font-family="Helvetica,sans-Serif" font-size="10.00">v8::Data</text>
</a>
</g>
</g>
<!-- Node2&#45;&gt;Node1 -->
<g id="edge1" class="edge">
<title>Node2&#45;&gt;Node1</title>
<path fill="none" stroke="midnightblue" d="M62.72,-485C71.08,-485 79.84,-485 87.76,-485"/>
<polygon fill="midnightblue" stroke="midnightblue" points="62.45,-481.5 52.45,-485 62.45,-488.5 62.45,-481.5"/>
</g>
<!-- Node5 -->
<g id="node5" class="node">
<title>Node5</title>
<g id="a_node5"><a xlink:href="classv8_1_1Array.html" target="_top" xlink:title=" ">
<polygon fill="white" stroke="black" points="318.5,-817.5 318.5,-836.5 372.5,-836.5 372.5,-817.5 318.5,-817.5"/>
<text text-anchor="middle" x="345.5" y="-824.5" font-family="Helvetica,sans-Serif" font-size="10.00">v8::Array</text>
</a>
</g>
</g>
<!-- Node4&#45;&gt;Node5 -->
<g id="edge4" class="edge">
<title>Node4&#45;&gt;Node5</title>
<path fill="none" stroke="midnightblue" d="M247.61,-500.94C248.48,-501.9 249.28,-502.93 250,-504 325.64,-617.09 199.68,-702.84 286,-808 293.93,-817.66 306.83,-822.46 318.5,-824.82"/>
<polygon fill="midnightblue" stroke="midnightblue" points="249.85,-498.25 239.94,-494.51 245.36,-503.61 249.85,-498.25"/>
</g>
<!-- Node6 -->
<g id="node6" class="node">
<title>Node6</title>
<g id="a_node6"><a xlink:href="classv8_1_1ArrayBuffer.html" target="_top" xlink:title=" ">
<polygon fill="white" stroke="black" points="305.5,-779.5 305.5,-798.5 385.5,-798.5 385.5,-779.5 305.5,-779.5"/>
<text text-anchor="middle" x="345.5" y="-786.5" font-family="Helvetica,sans-Serif" font-size="10.00">v8::ArrayBuffer</text>
</a>
</g>
</g>
<!-- Node4&#45;&gt;Node6 -->
<g id="edge5" class="edge">
<title>Node4&#45;&gt;Node6</title>
<path fill="none" stroke="midnightblue" d="M247.59,-500.95C248.46,-501.92 249.27,-502.93 250,-504 317.15,-602.61 209.54,-678.42 286,-770 291,-775.98 297.9,-780.1 305.22,-782.93"/>
<polygon fill="midnightblue" stroke="midnightblue" points="249.81,-498.25 239.89,-494.54 245.34,-503.63 249.81,-498.25"/>
</g>
<!-- Node7 -->
<g id="node7" class="node">
<title>Node7</title>
<g id="a_node7"><a xlink:href="classv8_1_1ArrayBufferView.html" target="_top" xlink:title=" ">
<polygon fill="white" stroke="black" points="295,-741.5 295,-760.5 396,-760.5 396,-741.5 295,-741.5"/>
<text text-anchor="middle" x="345.5" y="-748.5" font-family="Helvetica,sans-Serif" font-size="10.00">v8::ArrayBufferView</text>
</a>
</g>
</g>
<!-- Node4&#45;&gt;Node7 -->
<g id="edge6" class="edge">
<title>Node4&#45;&gt;Node7</title>
<path fill="none" stroke="midnightblue" d="M247.56,-500.97C248.44,-501.93 249.26,-502.94 250,-504 308.68,-588.15 219.39,-653.98 286,-732 289.33,-735.9 293.46,-739 297.99,-741.47"/>
<polygon fill="midnightblue" stroke="midnightblue" points="249.76,-498.25 239.82,-494.59 245.31,-503.65 249.76,-498.25"/>
</g>
<!-- Node21 -->
<g id="node21" class="node">
<title>Node21</title>
<g id="a_node21"><a xlink:href="classv8_1_1BigIntObject.html" target="_top" xlink:title=" ">
<polygon fill="white" stroke="black" points="302.5,-703.5 302.5,-722.5 388.5,-722.5 388.5,-703.5 302.5,-703.5"/>
<text text-anchor="middle" x="345.5" y="-710.5" font-family="Helvetica,sans-Serif" font-size="10.00">v8::BigIntObject</text>
</a>
</g>
</g>
<!-- Node4&#45;&gt;Node21 -->
<g id="edge20" class="edge">
<title>Node4&#45;&gt;Node21</title>
<path fill="none" stroke="midnightblue" d="M247.52,-501C248.41,-501.95 249.24,-502.95 250,-504 300.23,-573.74 229.2,-629.5 286,-694 290.45,-699.05 296.25,-702.76 302.47,-705.49"/>
<polygon fill="midnightblue" stroke="midnightblue" points="249.69,-498.26 239.73,-494.65 245.27,-503.69 249.69,-498.26"/>
</g>
<!-- Node22 -->
<g id="node22" class="node">
<title>Node22</title>
<g id="a_node22"><a xlink:href="classv8_1_1BooleanObject.html" target="_top" xlink:title=" ">
<polygon fill="white" stroke="black" points="298,-665.5 298,-684.5 393,-684.5 393,-665.5 298,-665.5"/>
<text text-anchor="middle" x="345.5" y="-672.5" font-family="Helvetica,sans-Serif" font-size="10.00">v8::BooleanObject</text>
</a>
</g>
</g>
<!-- Node4&#45;&gt;Node22 -->
<g id="edge21" class="edge">
<title>Node4&#45;&gt;Node22</title>
<path fill="none" stroke="midnightblue" d="M247.38,-500.96C248.32,-501.93 249.2,-502.94 250,-504 291.84,-559.4 238.95,-604.95 286,-656 289.55,-659.85 293.88,-662.92 298.56,-665.37"/>
<polygon fill="midnightblue" stroke="midnightblue" points="249.26,-497.99 239.25,-494.53 244.92,-503.48 249.26,-497.99"/>
</g>
<!-- Node23 -->
<g id="node23" class="node">
<title>Node23</title>
<g id="a_node23"><a xlink:href="classv8_1_1Date.html" target="_top" xlink:title=" ">
<polygon fill="white" stroke="black" points="319.5,-627.5 319.5,-646.5 371.5,-646.5 371.5,-627.5 319.5,-627.5"/>
<text text-anchor="middle" x="345.5" y="-634.5" font-family="Helvetica,sans-Serif" font-size="10.00">v8::Date</text>
</a>
</g>
</g>
<!-- Node4&#45;&gt;Node23 -->
<g id="edge22" class="edge">
<title>Node4&#45;&gt;Node23</title>
<path fill="none" stroke="midnightblue" d="M247.28,-501.04C248.25,-501.98 249.16,-502.97 250,-504 283.56,-545.2 248.58,-580.28 286,-618 294.8,-626.87 307.77,-631.6 319.27,-634.12"/>
<polygon fill="midnightblue" stroke="midnightblue" points="249.09,-498.02 239.03,-494.7 244.83,-503.57 249.09,-498.02"/>
</g>
<!-- Node24 -->
<g id="node24" class="node">
<title>Node24</title>
<g id="a_node24"><a xlink:href="classv8_1_1Function.html" target="_top" xlink:title=" ">
<polygon fill="white" stroke="black" points="311,-589.5 311,-608.5 380,-608.5 380,-589.5 311,-589.5"/>
<text text-anchor="middle" x="345.5" y="-596.5" font-family="Helvetica,sans-Serif" font-size="10.00">v8::Function</text>
</a>
</g>
</g>
<!-- Node4&#45;&gt;Node24 -->
<g id="edge23" class="edge">
<title>Node4&#45;&gt;Node24</title>
<path fill="none" stroke="midnightblue" d="M246.2,-500.42C247.55,-501.55 248.83,-502.74 250,-504 275.53,-531.3 257.93,-555.32 286,-580 292.98,-586.13 301.97,-590.29 310.8,-593.11"/>
<polygon fill="midnightblue" stroke="midnightblue" points="248.13,-497.5 237.94,-494.61 244.11,-503.22 248.13,-497.5"/>
</g>
<!-- Node25 -->
<g id="node25" class="node">
<title>Node25</title>
<g id="a_node25"><a xlink:href="classv8_1_1Map.html" target="_top" xlink:title=" ">
<polygon fill="white" stroke="black" points="320.5,-551.5 320.5,-570.5 370.5,-570.5 370.5,-551.5 320.5,-551.5"/>
<text text-anchor="middle" x="345.5" y="-558.5" font-family="Helvetica,sans-Serif" font-size="10.00">v8::Map</text>
</a>
</g>
</g>
<!-- Node4&#45;&gt;Node25 -->
<g id="edge24" class="edge">
<title>Node4&#45;&gt;Node25</title>
<path fill="none" stroke="midnightblue" d="M244.39,-499.98C246.33,-501.27 248.22,-502.62 250,-504 268.36,-518.28 266.33,-529.58 286,-542 296.38,-548.56 309.24,-553.06 320.26,-556.02"/>
<polygon fill="midnightblue" stroke="midnightblue" points="246.06,-496.9 235.7,-494.68 242.42,-502.88 246.06,-496.9"/>
</g>
<!-- Node26 -->
<g id="node26" class="node">
<title>Node26</title>
<g id="a_node26"><a xlink:href="classv8_1_1NumberObject.html" target="_top" xlink:title=" ">
<polygon fill="white" stroke="black" points="298,-513.5 298,-532.5 393,-532.5 393,-513.5 298,-513.5"/>
<text text-anchor="middle" x="345.5" y="-520.5" font-family="Helvetica,sans-Serif" font-size="10.00">v8::NumberObject</text>
</a>
</g>
</g>
<!-- Node4&#45;&gt;Node26 -->
<g id="edge25" class="edge">
<title>Node4&#45;&gt;Node26</title>
<path fill="none" stroke="midnightblue" d="M254.96,-496.52C273.3,-501.94 294.91,-508.33 312.3,-513.48"/>
<polygon fill="midnightblue" stroke="midnightblue" points="255.74,-493.1 245.16,-493.62 253.76,-499.81 255.74,-493.1"/>
</g>
<!-- Node27 -->
<g id="node27" class="node">
<title>Node27</title>
<g id="a_node27"><a xlink:href="classv8_1_1Promise.html" target="_top" xlink:title=" ">
<polygon fill="white" stroke="black" points="311.5,-475.5 311.5,-494.5 379.5,-494.5 379.5,-475.5 311.5,-475.5"/>
<text text-anchor="middle" x="345.5" y="-482.5" font-family="Helvetica,sans-Serif" font-size="10.00">v8::Promise</text>
</a>
</g>
</g>
<!-- Node4&#45;&gt;Node27 -->
<g id="edge26" class="edge">
<title>Node4&#45;&gt;Node27</title>
<path fill="none" stroke="midnightblue" d="M255.31,-485C273.25,-485 294.26,-485 311.38,-485"/>
<polygon fill="midnightblue" stroke="midnightblue" points="255.16,-481.5 245.16,-485 255.16,-488.5 255.16,-481.5"/>
</g>
<!-- Node28 -->
<g id="node28" class="node">
<title>Node28</title>
<g id="a_node28"><a xlink:href="classv8_1_1Promise_1_1Resolver.html" target="_top" xlink:title=" ">
<polygon fill="white" stroke="black" points="290.5,-437.5 290.5,-456.5 400.5,-456.5 400.5,-437.5 290.5,-437.5"/>
<text text-anchor="middle" x="345.5" y="-444.5" font-family="Helvetica,sans-Serif" font-size="10.00">v8::Promise::Resolver</text>
</a>
</g>
</g>
<!-- Node4&#45;&gt;Node28 -->
<g id="edge27" class="edge">
<title>Node4&#45;&gt;Node28</title>
<path fill="none" stroke="midnightblue" d="M254.96,-473.48C273.3,-468.06 294.91,-461.67 312.3,-456.52"/>
<polygon fill="midnightblue" stroke="midnightblue" points="253.76,-470.19 245.16,-476.38 255.74,-476.9 253.76,-470.19"/>
</g>
<!-- Node29 -->
<g id="node29" class="node">
<title>Node29</title>
<g id="a_node29"><a xlink:href="classv8_1_1Proxy.html" target="_top" xlink:title=" ">
<polygon fill="white" stroke="black" points="317.5,-399.5 317.5,-418.5 373.5,-418.5 373.5,-399.5 317.5,-399.5"/>
<text text-anchor="middle" x="345.5" y="-406.5" font-family="Helvetica,sans-Serif" font-size="10.00">v8::Proxy</text>
</a>
</g>
</g>
<!-- Node4&#45;&gt;Node29 -->
<g id="edge28" class="edge">
<title>Node4&#45;&gt;Node29</title>
<path fill="none" stroke="midnightblue" d="M233.06,-468.04C246.48,-455.5 266.17,-438.8 286,-428 295.75,-422.69 307.24,-418.56 317.43,-415.52"/>
<polygon fill="midnightblue" stroke="midnightblue" points="230.37,-465.77 225.57,-475.22 235.22,-470.83 230.37,-465.77"/>
</g>
<!-- Node30 -->
<g id="node30" class="node">
<title>Node30</title>
<g id="a_node30"><a xlink:href="classv8_1_1RegExp.html" target="_top" xlink:title=" ">
<polygon fill="white" stroke="black" points="313,-361.5 313,-380.5 378,-380.5 378,-361.5 313,-361.5"/>
<text text-anchor="middle" x="345.5" y="-368.5" font-family="Helvetica,sans-Serif" font-size="10.00">v8::RegExp</text>
</a>
</g>
</g>
<!-- Node4&#45;&gt;Node30 -->
<g id="edge29" class="edge">
<title>Node4&#45;&gt;Node30</title>
<path fill="none" stroke="midnightblue" d="M225.16,-466.31C236.58,-444.9 258.03,-410.18 286,-390 293.88,-384.32 303.55,-380.27 312.74,-377.42"/>
<polygon fill="midnightblue" stroke="midnightblue" points="221.96,-464.88 220.51,-475.37 228.19,-468.07 221.96,-464.88"/>
</g>
<!-- Node31 -->
<g id="node31" class="node">
<title>Node31</title>
<g id="a_node31"><a xlink:href="classv8_1_1Set.html" target="_top" xlink:title=" ">
<polygon fill="white" stroke="black" points="322,-323.5 322,-342.5 369,-342.5 369,-323.5 322,-323.5"/>
<text text-anchor="middle" x="345.5" y="-330.5" font-family="Helvetica,sans-Serif" font-size="10.00">v8::Set</text>
</a>
</g>
</g>
<!-- Node4&#45;&gt;Node31 -->
<g id="edge30" class="edge">
<title>Node4&#45;&gt;Node31</title>
<path fill="none" stroke="midnightblue" d="M221.09,-465.65C229.67,-436.78 249.73,-382.56 286,-352 296.13,-343.47 310.17,-338.74 321.96,-336.14"/>
<polygon fill="midnightblue" stroke="midnightblue" points="217.7,-464.8 218.36,-475.37 224.44,-466.69 217.7,-464.8"/>
</g>
<!-- Node32 -->
<g id="node32" class="node">
<title>Node32</title>
<g id="a_node32"><a xlink:href="classv8_1_1SharedArrayBuffer.html" target="_top" xlink:title=" ">
<polygon fill="white" stroke="black" points="290.5,-285.5 290.5,-304.5 400.5,-304.5 400.5,-285.5 290.5,-285.5"/>
<text text-anchor="middle" x="345.5" y="-292.5" font-family="Helvetica,sans-Serif" font-size="10.00">v8::SharedArrayBuffer</text>
</a>
</g>
</g>
<!-- Node4&#45;&gt;Node32 -->
<g id="edge31" class="edge">
<title>Node4&#45;&gt;Node32</title>
<path fill="none" stroke="midnightblue" d="M218.62,-465.25C224.34,-429.88 241.23,-355.55 286,-314 290.15,-310.15 295.09,-307.08 300.31,-304.63"/>
<polygon fill="midnightblue" stroke="midnightblue" points="215.13,-464.87 217.13,-475.27 222.06,-465.9 215.13,-464.87"/>
</g>
<!-- Node33 -->
<g id="node33" class="node">
<title>Node33</title>
<g id="a_node33"><a xlink:href="classv8_1_1StringObject.html" target="_top" xlink:title=" ">
<polygon fill="white" stroke="black" points="302.5,-247.5 302.5,-266.5 388.5,-266.5 388.5,-247.5 302.5,-247.5"/>
<text text-anchor="middle" x="345.5" y="-254.5" font-family="Helvetica,sans-Serif" font-size="10.00">v8::StringObject</text>
</a>
</g>
</g>
<!-- Node4&#45;&gt;Node33 -->
<g id="edge32" class="edge">
<title>Node4&#45;&gt;Node33</title>
<path fill="none" stroke="midnightblue" d="M216.93,-464.97C219.93,-423.76 232.58,-328.93 286,-276 290.63,-271.42 296.37,-267.94 302.44,-265.3"/>
<polygon fill="midnightblue" stroke="midnightblue" points="213.43,-464.9 216.31,-475.09 220.41,-465.32 213.43,-464.9"/>
</g>
<!-- Node34 -->
<g id="node34" class="node">
<title>Node34</title>
<g id="a_node34"><a xlink:href="classv8_1_1SymbolObject.html" target="_top" xlink:title=" ">
<polygon fill="white" stroke="black" points="299.5,-209.5 299.5,-228.5 391.5,-228.5 391.5,-209.5 299.5,-209.5"/>
<text text-anchor="middle" x="345.5" y="-216.5" font-family="Helvetica,sans-Serif" font-size="10.00">v8::SymbolObject</text>
</a>
</g>
</g>
<!-- Node4&#45;&gt;Node34 -->
<g id="edge33" class="edge">
<title>Node4&#45;&gt;Node34</title>
<path fill="none" stroke="midnightblue" d="M215.7,-465.25C216.08,-419.02 223.59,-302.82 286,-238 289.78,-234.08 294.37,-230.96 299.31,-228.49"/>
<polygon fill="midnightblue" stroke="midnightblue" points="212.2,-465.43 215.72,-475.42 219.2,-465.41 212.2,-465.43"/>
</g>
<!-- Node35 -->
<g id="node35" class="node">
<title>Node35</title>
<g id="a_node35"><a xlink:href="classv8_1_1WasmModuleObject.html" target="_top" xlink:title=" ">
<polygon fill="white" stroke="black" points="286,-171.5 286,-190.5 405,-190.5 405,-171.5 286,-171.5"/>
<text text-anchor="middle" x="345.5" y="-178.5" font-family="Helvetica,sans-Serif" font-size="10.00">v8::WasmModuleObject</text>
</a>
</g>
</g>
<!-- Node4&#45;&gt;Node35 -->
<g id="edge34" class="edge">
<title>Node4&#45;&gt;Node35</title>
<path fill="none" stroke="midnightblue" d="M218.34,-465.28C225.6,-407.35 249.42,-239.36 286,-200 289.63,-196.09 294.08,-192.98 298.88,-190.51"/>
<polygon fill="midnightblue" stroke="midnightblue" points="214.85,-464.97 217.11,-475.32 221.8,-465.82 214.85,-464.97"/>
</g>
<!-- Node8 -->
<g id="node8" class="node">
<title>Node8</title>
<g id="a_node8"><a xlink:href="classv8_1_1DataView.html" target="_top" xlink:title=" ">
<polygon fill="white" stroke="black" points="444,-760.5 444,-779.5 518,-779.5 518,-760.5 444,-760.5"/>
<text text-anchor="middle" x="481" y="-767.5" font-family="Helvetica,sans-Serif" font-size="10.00">v8::DataView</text>
</a>
</g>
</g>
<!-- Node7&#45;&gt;Node8 -->
<g id="edge7" class="edge">
<title>Node7&#45;&gt;Node8</title>
<path fill="none" stroke="midnightblue" d="M406.3,-759.51C419.02,-761.32 432.07,-763.18 443.6,-764.82"/>
<polygon fill="midnightblue" stroke="midnightblue" points="406.6,-756.02 396.21,-758.07 405.62,-762.95 406.6,-756.02"/>
</g>
<!-- Node9 -->
<g id="node9" class="node">
<title>Node9</title>
<g id="a_node9"><a xlink:href="classv8_1_1TypedArray.html" target="_top" xlink:title=" ">
<polygon fill="white" stroke="black" points="441,-722.5 441,-741.5 521,-741.5 521,-722.5 441,-722.5"/>
<text text-anchor="middle" x="481" y="-729.5" font-family="Helvetica,sans-Serif" font-size="10.00">v8::TypedArray</text>
</a>
</g>
</g>
<!-- Node7&#45;&gt;Node9 -->
<g id="edge8" class="edge">
<title>Node7&#45;&gt;Node9</title>
<path fill="none" stroke="midnightblue" d="M406.33,-742.48C417.97,-740.83 429.9,-739.13 440.67,-737.6"/>
<polygon fill="midnightblue" stroke="midnightblue" points="405.62,-739.05 396.21,-743.93 406.6,-745.98 405.62,-739.05"/>
</g>
<!-- Node10 -->
<g id="node10" class="node">
<title>Node10</title>
<g id="a_node10"><a xlink:href="classv8_1_1BigInt64Array.html" target="_top" xlink:title=" ">
<polygon fill="white" stroke="black" points="570,-912.5 570,-931.5 660,-931.5 660,-912.5 570,-912.5"/>
<text text-anchor="middle" x="615" y="-919.5" font-family="Helvetica,sans-Serif" font-size="10.00">v8::BigInt64Array</text>
</a>
</g>
</g>
<!-- Node9&#45;&gt;Node10 -->
<g id="edge9" class="edge">
<title>Node9&#45;&gt;Node10</title>
<path fill="none" stroke="midnightblue" d="M517.92,-747.67C519.03,-748.72 520.06,-749.82 521,-751 564.38,-805.2 510.15,-851.77 557,-903 560.59,-906.93 565.01,-910.04 569.79,-912.51"/>
<polygon fill="midnightblue" stroke="midnightblue" points="519.94,-744.81 509.82,-741.68 515.78,-750.44 519.94,-744.81"/>
</g>
<!-- Node11 -->
<g id="node11" class="node">
<title>Node11</title>
<g id="a_node11"><a xlink:href="classv8_1_1BigUint64Array.html" target="_top" xlink:title=" ">
<polygon fill="white" stroke="black" points="566.5,-874.5 566.5,-893.5 663.5,-893.5 663.5,-874.5 566.5,-874.5"/>
<text text-anchor="middle" x="615" y="-881.5" font-family="Helvetica,sans-Serif" font-size="10.00">v8::BigUint64Array</text>
</a>
</g>
</g>
<!-- Node9&#45;&gt;Node11 -->
<g id="edge10" class="edge">
<title>Node9&#45;&gt;Node11</title>
<path fill="none" stroke="midnightblue" d="M517.71,-747.67C518.88,-748.71 519.99,-749.82 521,-751 555.7,-791.24 519.73,-827.13 557,-865 560.8,-868.87 565.42,-871.95 570.35,-874.4"/>
<polygon fill="midnightblue" stroke="midnightblue" points="519.38,-744.56 509.2,-741.64 515.34,-750.28 519.38,-744.56"/>
</g>
<!-- Node12 -->
<g id="node12" class="node">
<title>Node12</title>
<g id="a_node12"><a xlink:href="classv8_1_1Float32Array.html" target="_top" xlink:title=" ">
<polygon fill="white" stroke="black" points="572,-836.5 572,-855.5 658,-855.5 658,-836.5 572,-836.5"/>
<text text-anchor="middle" x="615" y="-843.5" font-family="Helvetica,sans-Serif" font-size="10.00">v8::Float32Array</text>
</a>
</g>
</g>
<!-- Node9&#45;&gt;Node12 -->
<g id="edge11" class="edge">
<title>Node9&#45;&gt;Node12</title>
<path fill="none" stroke="midnightblue" d="M516.49,-747.05C518.09,-748.28 519.61,-749.59 521,-751 547.28,-777.57 529.03,-802.21 557,-827 561.37,-830.87 566.56,-833.96 571.99,-836.42"/>
<polygon fill="midnightblue" stroke="midnightblue" points="518.28,-744.03 507.98,-741.58 514.5,-749.93 518.28,-744.03"/>
</g>
<!-- Node13 -->
<g id="node13" class="node">
<title>Node13</title>
<g id="a_node13"><a xlink:href="classv8_1_1Float64Array.html" target="_top" xlink:title=" ">
<polygon fill="white" stroke="black" points="572,-798.5 572,-817.5 658,-817.5 658,-798.5 572,-798.5"/>
<text text-anchor="middle" x="615" y="-805.5" font-family="Helvetica,sans-Serif" font-size="10.00">v8::Float64Array</text>
</a>
</g>
</g>
<!-- Node9&#45;&gt;Node13 -->
<g id="edge12" class="edge">
<title>Node9&#45;&gt;Node13</title>
<path fill="none" stroke="midnightblue" d="M514.01,-746.4C516.44,-747.85 518.8,-749.39 521,-751 539.76,-764.76 537.38,-776.5 557,-789 562.98,-792.81 569.81,-795.94 576.61,-798.47"/>
<polygon fill="midnightblue" stroke="midnightblue" points="515.52,-743.24 505.07,-741.54 512.18,-749.39 515.52,-743.24"/>
</g>
<!-- Node14 -->
<g id="node14" class="node">
<title>Node14</title>
<g id="a_node14"><a xlink:href="classv8_1_1Int16Array.html" target="_top" xlink:title=" ">
<polygon fill="white" stroke="black" points="577,-760.5 577,-779.5 653,-779.5 653,-760.5 577,-760.5"/>
<text text-anchor="middle" x="615" y="-767.5" font-family="Helvetica,sans-Serif" font-size="10.00">v8::Int16Array</text>
</a>
</g>
</g>
<!-- Node9&#45;&gt;Node14 -->
<g id="edge13" class="edge">
<title>Node9&#45;&gt;Node14</title>
<path fill="none" stroke="midnightblue" d="M525.04,-744.39C543.12,-749.59 563.82,-755.55 580.7,-760.41"/>
<polygon fill="midnightblue" stroke="midnightblue" points="525.89,-740.99 515.31,-741.59 523.95,-747.72 525.89,-740.99"/>
</g>
<!-- Node15 -->
<g id="node15" class="node">
<title>Node15</title>
<g id="a_node15"><a xlink:href="classv8_1_1Int32Array.html" target="_top" xlink:title=" ">
<polygon fill="white" stroke="black" points="577,-722.5 577,-741.5 653,-741.5 653,-722.5 577,-722.5"/>
<text text-anchor="middle" x="615" y="-729.5" font-family="Helvetica,sans-Serif" font-size="10.00">v8::Int32Array</text>
</a>
</g>
</g>
<!-- Node9&#45;&gt;Node15 -->
<g id="edge14" class="edge">
<title>Node9&#45;&gt;Node15</title>
<path fill="none" stroke="midnightblue" d="M531.45,-732C546.52,-732 562.83,-732 576.94,-732"/>
<polygon fill="midnightblue" stroke="midnightblue" points="531.25,-728.5 521.25,-732 531.25,-735.5 531.25,-728.5"/>
</g>
<!-- Node16 -->
<g id="node16" class="node">
<title>Node16</title>
<g id="a_node16"><a xlink:href="classv8_1_1Int8Array.html" target="_top" xlink:title=" ">
<polygon fill="white" stroke="black" points="579.5,-684.5 579.5,-703.5 650.5,-703.5 650.5,-684.5 579.5,-684.5"/>
<text text-anchor="middle" x="615" y="-691.5" font-family="Helvetica,sans-Serif" font-size="10.00">v8::Int8Array</text>
</a>
</g>
</g>
<!-- Node9&#45;&gt;Node16 -->
<g id="edge15" class="edge">
<title>Node9&#45;&gt;Node16</title>
<path fill="none" stroke="midnightblue" d="M525.04,-719.61C543.12,-714.41 563.82,-708.45 580.7,-703.59"/>
<polygon fill="midnightblue" stroke="midnightblue" points="523.95,-716.28 515.31,-722.41 525.89,-723.01 523.95,-716.28"/>
</g>
<!-- Node17 -->
<g id="node17" class="node">
<title>Node17</title>
<g id="a_node17"><a xlink:href="classv8_1_1Uint16Array.html" target="_top" xlink:title=" ">
<polygon fill="white" stroke="black" points="573.5,-646.5 573.5,-665.5 656.5,-665.5 656.5,-646.5 573.5,-646.5"/>
<text text-anchor="middle" x="615" y="-653.5" font-family="Helvetica,sans-Serif" font-size="10.00">v8::Uint16Array</text>
</a>
</g>
</g>
<!-- Node9&#45;&gt;Node17 -->
<g id="edge16" class="edge">
<title>Node9&#45;&gt;Node17</title>
<path fill="none" stroke="midnightblue" d="M500.11,-715.51C514.62,-702.99 535.96,-686.11 557,-675 563.92,-671.35 571.68,-668.2 579.19,-665.58"/>
<polygon fill="midnightblue" stroke="midnightblue" points="497.6,-713.05 492.41,-722.29 502.23,-718.31 497.6,-713.05"/>
</g>
<!-- Node18 -->
<g id="node18" class="node">
<title>Node18</title>
<g id="a_node18"><a xlink:href="classv8_1_1Uint32Array.html" target="_top" xlink:title=" ">
<polygon fill="white" stroke="black" points="573.5,-608.5 573.5,-627.5 656.5,-627.5 656.5,-608.5 573.5,-608.5"/>
<text text-anchor="middle" x="615" y="-615.5" font-family="Helvetica,sans-Serif" font-size="10.00">v8::Uint32Array</text>
</a>
</g>
</g>
<!-- Node9&#45;&gt;Node18 -->
<g id="edge17" class="edge">
<title>Node9&#45;&gt;Node18</title>
<path fill="none" stroke="midnightblue" d="M492.01,-713.65C504.53,-692.31 527.92,-657.42 557,-637 562.46,-633.16 568.76,-630.06 575.13,-627.56"/>
<polygon fill="midnightblue" stroke="midnightblue" points="488.93,-711.98 487.03,-722.4 495.02,-715.43 488.93,-711.98"/>
</g>
<!-- Node19 -->
<g id="node19" class="node">
<title>Node19</title>
<g id="a_node19"><a xlink:href="classv8_1_1Uint8Array.html" target="_top" xlink:title=" ">
<polygon fill="white" stroke="black" points="576.5,-570.5 576.5,-589.5 653.5,-589.5 653.5,-570.5 576.5,-570.5"/>
<text text-anchor="middle" x="615" y="-577.5" font-family="Helvetica,sans-Serif" font-size="10.00">v8::Uint8Array</text>
</a>
</g>
</g>
<!-- Node9&#45;&gt;Node19 -->
<g id="edge18" class="edge">
<title>Node9&#45;&gt;Node19</title>
<path fill="none" stroke="midnightblue" d="M487.88,-712.67C497.63,-683.83 519.82,-629.66 557,-599 562.63,-594.35 569.45,-590.83 576.38,-588.16"/>
<polygon fill="midnightblue" stroke="midnightblue" points="484.49,-711.79 484.75,-722.38 491.15,-713.94 484.49,-711.79"/>
</g>
<!-- Node20 -->
<g id="node20" class="node">
<title>Node20</title>
<g id="a_node20"><a xlink:href="classv8_1_1Uint8ClampedArray.html" target="_top" xlink:title=" ">
<polygon fill="white" stroke="black" points="557,-532.5 557,-551.5 673,-551.5 673,-532.5 557,-532.5"/>
<text text-anchor="middle" x="615" y="-539.5" font-family="Helvetica,sans-Serif" font-size="10.00">v8::Uint8ClampedArray</text>
</a>
</g>
</g>
<!-- Node9&#45;&gt;Node20 -->
<g id="edge19" class="edge">
<title>Node9&#45;&gt;Node20</title>
<path fill="none" stroke="midnightblue" d="M485.27,-712.26C492.15,-676.91 511.4,-602.6 557,-561 561.24,-557.13 566.29,-554.05 571.6,-551.59"/>
<polygon fill="midnightblue" stroke="midnightblue" points="481.79,-711.82 483.45,-722.28 488.68,-713.06 481.79,-711.82"/>
</g>
<!-- Node37 -->
<g id="node37" class="node">
<title>Node37</title>
<g id="a_node37"><a xlink:href="classv8_1_1BigInt.html" target="_top" xlink:title=" ">
<polygon fill="white" stroke="black" points="317,-133.5 317,-152.5 374,-152.5 374,-133.5 317,-133.5"/>
<text text-anchor="middle" x="345.5" y="-140.5" font-family="Helvetica,sans-Serif" font-size="10.00">v8::BigInt</text>
</a>
</g>
</g>
<!-- Node36&#45;&gt;Node37 -->
<g id="edge36" class="edge">
<title>Node36&#45;&gt;Node37</title>
<path fill="none" stroke="midnightblue" d="M258.19,-117.48C277.47,-123.18 299.77,-129.77 316.87,-134.83"/>
<polygon fill="midnightblue" stroke="midnightblue" points="259.01,-114.07 248.43,-114.59 257.02,-120.78 259.01,-114.07"/>
</g>
<!-- Node38 -->
<g id="node38" class="node">
<title>Node38</title>
<g id="a_node38"><a xlink:href="classv8_1_1Boolean.html" target="_top" xlink:title=" ">
<polygon fill="white" stroke="black" points="312,-95.5 312,-114.5 379,-114.5 379,-95.5 312,-95.5"/>
<text text-anchor="middle" x="345.5" y="-102.5" font-family="Helvetica,sans-Serif" font-size="10.00">v8::Boolean</text>
</a>
</g>
</g>
<!-- Node36&#45;&gt;Node38 -->
<g id="edge37" class="edge">
<title>Node36&#45;&gt;Node38</title>
<path fill="none" stroke="midnightblue" d="M260.27,-105C277.1,-105 295.97,-105 311.57,-105"/>
<polygon fill="midnightblue" stroke="midnightblue" points="260.1,-101.5 250.1,-105 260.1,-108.5 260.1,-101.5"/>
</g>
<!-- Node39 -->
<g id="node39" class="node">
<title>Node39</title>
<g id="a_node39"><a xlink:href="classv8_1_1Name.html" target="_top" xlink:title=" ">
<polygon fill="white" stroke="black" points="316.5,-57.5 316.5,-76.5 374.5,-76.5 374.5,-57.5 316.5,-57.5"/>
<text text-anchor="middle" x="345.5" y="-64.5" font-family="Helvetica,sans-Serif" font-size="10.00">v8::Name</text>
</a>
</g>
</g>
<!-- Node36&#45;&gt;Node39 -->
<g id="edge38" class="edge">
<title>Node36&#45;&gt;Node39</title>
<path fill="none" stroke="midnightblue" d="M258.12,-92.54C277.26,-86.88 299.38,-80.34 316.45,-75.3"/>
<polygon fill="midnightblue" stroke="midnightblue" points="257.02,-89.22 248.43,-95.41 259.01,-95.93 257.02,-89.22"/>
</g>
<!-- Node42 -->
<g id="node42" class="node">
<title>Node42</title>
<g id="a_node42"><a xlink:href="classv8_1_1Number.html" target="_top" xlink:title=" ">
<polygon fill="white" stroke="black" points="312.5,-19.5 312.5,-38.5 378.5,-38.5 378.5,-19.5 312.5,-19.5"/>
<text text-anchor="middle" x="345.5" y="-26.5" font-family="Helvetica,sans-Serif" font-size="10.00">v8::Number</text>
</a>
</g>
</g>
<!-- Node36&#45;&gt;Node42 -->
<g id="edge41" class="edge">
<title>Node36&#45;&gt;Node42</title>
<path fill="none" stroke="midnightblue" d="M233.06,-88.04C246.48,-75.5 266.17,-58.8 286,-48 294.16,-43.56 303.53,-39.94 312.34,-37.1"/>
<polygon fill="midnightblue" stroke="midnightblue" points="230.37,-85.77 225.57,-95.22 235.22,-90.83 230.37,-85.77"/>
</g>
<!-- Node40 -->
<g id="node40" class="node">
<title>Node40</title>
<g id="a_node40"><a xlink:href="classv8_1_1String.html" target="_top" xlink:title=" ">
<polygon fill="white" stroke="black" points="452.5,-95.5 452.5,-114.5 509.5,-114.5 509.5,-95.5 452.5,-95.5"/>
<text text-anchor="middle" x="481" y="-102.5" font-family="Helvetica,sans-Serif" font-size="10.00">v8::String</text>
</a>
</g>
</g>
<!-- Node39&#45;&gt;Node40 -->
<g id="edge39" class="edge">
<title>Node39&#45;&gt;Node40</title>
<path fill="none" stroke="midnightblue" d="M384.63,-77.85C406.17,-83.98 432.61,-91.51 452.19,-97.08"/>
<polygon fill="midnightblue" stroke="midnightblue" points="385.39,-74.43 374.81,-75.06 383.47,-81.16 385.39,-74.43"/>
</g>
<!-- Node41 -->
<g id="node41" class="node">
<title>Node41</title>
<g id="a_node41"><a xlink:href="classv8_1_1Symbol.html" target="_top" xlink:title=" ">
<polygon fill="white" stroke="black" points="449,-57.5 449,-76.5 513,-76.5 513,-57.5 449,-57.5"/>
<text text-anchor="middle" x="481" y="-64.5" font-family="Helvetica,sans-Serif" font-size="10.00">v8::Symbol</text>
</a>
</g>
</g>
<!-- Node39&#45;&gt;Node41 -->
<g id="edge40" class="edge">
<title>Node39&#45;&gt;Node41</title>
<path fill="none" stroke="midnightblue" d="M384.99,-67C405.28,-67 429.86,-67 448.93,-67"/>
<polygon fill="midnightblue" stroke="midnightblue" points="384.81,-63.5 374.81,-67 384.81,-70.5 384.81,-63.5"/>
</g>
<!-- Node43 -->
<g id="node43" class="node">
<title>Node43</title>
<g id="a_node43"><a xlink:href="classv8_1_1Integer.html" target="_top" xlink:title=" ">
<polygon fill="white" stroke="black" points="450,-19.5 450,-38.5 512,-38.5 512,-19.5 450,-19.5"/>
<text text-anchor="middle" x="481" y="-26.5" font-family="Helvetica,sans-Serif" font-size="10.00">v8::Integer</text>
</a>
</g>
</g>
<!-- Node42&#45;&gt;Node43 -->
<g id="edge42" class="edge">
<title>Node42&#45;&gt;Node43</title>
<path fill="none" stroke="midnightblue" d="M388.83,-29C408.65,-29 431.8,-29 449.81,-29"/>
<polygon fill="midnightblue" stroke="midnightblue" points="388.82,-25.5 378.82,-29 388.82,-32.5 388.82,-25.5"/>
</g>
<!-- Node44 -->
<g id="node44" class="node">
<title>Node44</title>
<g id="a_node44"><a xlink:href="classv8_1_1Int32.html" target="_top" xlink:title=" ">
<polygon fill="white" stroke="black" points="588.5,-38.5 588.5,-57.5 641.5,-57.5 641.5,-38.5 588.5,-38.5"/>
<text text-anchor="middle" x="615" y="-45.5" font-family="Helvetica,sans-Serif" font-size="10.00">v8::Int32</text>
</a>
</g>
</g>
<!-- Node43&#45;&gt;Node44 -->
<g id="edge43" class="edge">
<title>Node43&#45;&gt;Node44</title>
<path fill="none" stroke="midnightblue" d="M522.42,-34.82C543.87,-37.91 569.59,-41.61 588.3,-44.3"/>
<polygon fill="midnightblue" stroke="midnightblue" points="522.68,-31.32 512.28,-33.36 521.68,-38.25 522.68,-31.32"/>
</g>
<!-- Node45 -->
<g id="node45" class="node">
<title>Node45</title>
<g id="a_node45"><a xlink:href="classv8_1_1Uint32.html" target="_top" xlink:title=" ">
<polygon fill="white" stroke="black" points="585,-0.5 585,-19.5 645,-19.5 645,-0.5 585,-0.5"/>
<text text-anchor="middle" x="615" y="-7.5" font-family="Helvetica,sans-Serif" font-size="10.00">v8::Uint32</text>
</a>
</g>
</g>
<!-- Node43&#45;&gt;Node45 -->
<g id="edge44" class="edge">
<title>Node43&#45;&gt;Node45</title>
<path fill="none" stroke="midnightblue" d="M522.42,-23.18C542.55,-20.28 566.43,-16.85 584.77,-14.21"/>
<polygon fill="midnightblue" stroke="midnightblue" points="521.68,-19.75 512.28,-24.64 522.68,-26.68 521.68,-19.75"/>
</g>
</g>
</svg>
