<?xml version="1.0" encoding="UTF-8" standalone="no"?>
<!DOCTYPE svg PUBLIC "-//W3C//DTD SVG 1.1//EN"
 "http://www.w3.org/Graphics/SVG/1.1/DTD/svg11.dtd">
<!-- Generated by graphviz version 2.44.0 ()
 -->
<!-- Title: cppgc::MakeGarbageCollectedTraitBase::MarkObjectAsFullyConstructed Pages: 1 -->
<svg width="394pt" height="50pt"
 viewBox="0.00 0.00 394.00 50.00" xmlns="http://www.w3.org/2000/svg" xmlns:xlink="http://www.w3.org/1999/xlink">
<g id="graph0" class="graph" transform="scale(1 1) rotate(0) translate(4 46)">
<title>cppgc::MakeGarbageCollectedTraitBase::MarkObjectAsFullyConstructed</title>
<polygon fill="white" stroke="transparent" points="-4,4 -4,-46 390,-46 390,4 -4,4"/>
<!-- Node1 -->
<g id="node1" class="node">
<title>Node1</title>
<g id="a_node1"><a xlink:title=" ">
<polygon fill="#bfbfbf" stroke="black" points="0,-6 0,-36 198,-36 198,-6 0,-6"/>
<text text-anchor="start" x="8" y="-24" font-family="Helvetica,sans-Serif" font-size="10.00">cppgc::MakeGarbageCollected</text>
<text text-anchor="middle" x="99" y="-13" font-family="Helvetica,sans-Serif" font-size="10.00">TraitBase::MarkObjectAsFullyConstructed</text>
</a>
</g>
</g>
<!-- Node2 -->
<g id="node2" class="node">
<title>Node2</title>
<g id="a_node2"><a xlink:href="classcppgc_1_1internal_1_1MakeGarbageCollectedTraitInternal.html#af0b49ea167f0710a3d4260bdeed1bf46" target="_top" xlink:title=" ">
<polygon fill="white" stroke="black" points="234,-0.5 234,-41.5 386,-41.5 386,-0.5 234,-0.5"/>
<text text-anchor="start" x="242" y="-29.5" font-family="Helvetica,sans-Serif" font-size="10.00">cppgc::internal::MakeGarbage</text>
<text text-anchor="start" x="242" y="-18.5" font-family="Helvetica,sans-Serif" font-size="10.00">CollectedTraitInternal::</text>
<text text-anchor="middle" x="310" y="-7.5" font-family="Helvetica,sans-Serif" font-size="10.00">MarkObjectAsFullyConstructed</text>
</a>
</g>
</g>
<!-- Node1&#45;&gt;Node2 -->
<g id="edge1" class="edge">
<title>Node1&#45;&gt;Node2</title>
<path fill="none" stroke="midnightblue" d="M198.07,-21C206.59,-21 215.17,-21 223.58,-21"/>
<polygon fill="midnightblue" stroke="midnightblue" points="223.73,-24.5 233.73,-21 223.73,-17.5 223.73,-24.5"/>
</g>
</g>
</svg>
