<?xml version="1.0" encoding="UTF-8" standalone="no"?>
<!DOCTYPE svg PUBLIC "-//W3C//DTD SVG 1.1//EN"
 "http://www.w3.org/Graphics/SVG/1.1/DTD/svg11.dtd">
<!-- Generated by graphviz version 2.44.0 ()
 -->
<!-- Title: include/cppgc/common.h Pages: 1 -->
<svg width="598pt" height="274pt"
 viewBox="0.00 0.00 597.50 274.00" xmlns="http://www.w3.org/2000/svg" xmlns:xlink="http://www.w3.org/1999/xlink">
<g id="graph0" class="graph" transform="scale(1 1) rotate(0) translate(4 270)">
<title>include/cppgc/common.h</title>
<polygon fill="white" stroke="transparent" points="-4,4 -4,-270 593.5,-270 593.5,4 -4,4"/>
<!-- Node1 -->
<g id="node1" class="node">
<title>Node1</title>
<g id="a_node1"><a xlink:title=" ">
<polygon fill="#bfbfbf" stroke="black" points="146,-246.5 146,-265.5 271,-265.5 271,-246.5 146,-246.5"/>
<text text-anchor="middle" x="208.5" y="-253.5" font-family="Helvetica,sans-Serif" font-size="10.00">include/cppgc/common.h</text>
</a>
</g>
</g>
<!-- Node2 -->
<g id="node2" class="node">
<title>Node2</title>
<g id="a_node2"><a xlink:href="heap_8h.html" target="_top" xlink:title=" ">
<polygon fill="white" stroke="black" points="88.5,-190.5 88.5,-209.5 196.5,-209.5 196.5,-190.5 88.5,-190.5"/>
<text text-anchor="middle" x="142.5" y="-197.5" font-family="Helvetica,sans-Serif" font-size="10.00">include/cppgc/heap.h</text>
</a>
</g>
</g>
<!-- Node1&#45;&gt;Node2 -->
<g id="edge1" class="edge">
<title>Node1&#45;&gt;Node2</title>
<path fill="none" stroke="midnightblue" d="M189.95,-239.82C178.12,-230.15 163.21,-217.95 153.3,-209.83"/>
<polygon fill="midnightblue" stroke="midnightblue" points="187.94,-242.7 197.9,-246.32 192.37,-237.28 187.94,-242.7"/>
</g>
<!-- Node8 -->
<g id="node8" class="node">
<title>Node8</title>
<g id="a_node8"><a xlink:href="v8_8h.html" target="_top" xlink:title=" ">
<polygon fill="white" stroke="black" points="341.5,-190.5 341.5,-209.5 409.5,-209.5 409.5,-190.5 341.5,-190.5"/>
<text text-anchor="middle" x="375.5" y="-197.5" font-family="Helvetica,sans-Serif" font-size="10.00">include/v8.h</text>
</a>
</g>
</g>
<!-- Node1&#45;&gt;Node8 -->
<g id="edge9" class="edge">
<title>Node1&#45;&gt;Node8</title>
<path fill="none" stroke="midnightblue" d="M244.67,-243.3C276.14,-233.13 320.99,-218.62 349.16,-209.52"/>
<polygon fill="midnightblue" stroke="midnightblue" points="243.4,-240.04 234.96,-246.44 245.55,-246.7 243.4,-240.04"/>
</g>
<!-- Node3 -->
<g id="node3" class="node">
<title>Node3</title>
<g id="a_node3"><a xlink:href="prefinalizer-handler_8h.html" target="_top" xlink:title=" ">
<polygon fill="white" stroke="black" points="1,-56.5 1,-86.5 112,-86.5 112,-56.5 1,-56.5"/>
<text text-anchor="start" x="9" y="-74.5" font-family="Helvetica,sans-Serif" font-size="10.00">include/cppgc/internal</text>
<text text-anchor="middle" x="56.5" y="-63.5" font-family="Helvetica,sans-Serif" font-size="10.00">/prefinalizer&#45;handler.h</text>
</a>
</g>
</g>
<!-- Node2&#45;&gt;Node3 -->
<g id="edge2" class="edge">
<title>Node2&#45;&gt;Node3</title>
<path fill="none" stroke="midnightblue" d="M113.21,-185.69C99.81,-178.2 84.88,-167.59 75.5,-154 61.39,-133.55 57.65,-104.06 56.72,-86.73"/>
<polygon fill="midnightblue" stroke="midnightblue" points="111.66,-188.84 122.14,-190.39 114.92,-182.64 111.66,-188.84"/>
</g>
<!-- Node5 -->
<g id="node5" class="node">
<title>Node5</title>
<g id="a_node5"><a xlink:href="liveness-broker_8h.html" target="_top" xlink:title=" ">
<polygon fill="white" stroke="black" points="84.5,-123.5 84.5,-153.5 200.5,-153.5 200.5,-123.5 84.5,-123.5"/>
<text text-anchor="start" x="92.5" y="-141.5" font-family="Helvetica,sans-Serif" font-size="10.00">include/cppgc/liveness</text>
<text text-anchor="middle" x="142.5" y="-130.5" font-family="Helvetica,sans-Serif" font-size="10.00">&#45;broker.h</text>
</a>
</g>
</g>
<!-- Node2&#45;&gt;Node5 -->
<g id="edge4" class="edge">
<title>Node2&#45;&gt;Node5</title>
<path fill="none" stroke="midnightblue" d="M142.5,-180.23C142.5,-171.59 142.5,-161.5 142.5,-153.52"/>
<polygon fill="midnightblue" stroke="midnightblue" points="139,-180.48 142.5,-190.48 146,-180.48 139,-180.48"/>
</g>
<!-- Node4 -->
<g id="node4" class="node">
<title>Node4</title>
<g id="a_node4"><a xlink:href="prefinalizer_8h.html" target="_top" xlink:title=" ">
<polygon fill="white" stroke="black" points="0,-0.5 0,-19.5 133,-19.5 133,-0.5 0,-0.5"/>
<text text-anchor="middle" x="66.5" y="-7.5" font-family="Helvetica,sans-Serif" font-size="10.00">include/cppgc/prefinalizer.h</text>
</a>
</g>
</g>
<!-- Node3&#45;&gt;Node4 -->
<g id="edge3" class="edge">
<title>Node3&#45;&gt;Node4</title>
<path fill="none" stroke="midnightblue" d="M60.57,-46.29C62.15,-36.86 63.87,-26.65 65.04,-19.66"/>
<polygon fill="midnightblue" stroke="midnightblue" points="57.08,-45.96 58.87,-56.4 63.98,-47.12 57.08,-45.96"/>
</g>
<!-- Node5&#45;&gt;Node3 -->
<g id="edge5" class="edge">
<title>Node5&#45;&gt;Node3</title>
<path fill="none" stroke="midnightblue" d="M115.6,-117.17C102.45,-107.23 86.95,-95.51 75.12,-86.58"/>
<polygon fill="midnightblue" stroke="midnightblue" points="113.75,-120.16 123.84,-123.4 117.97,-114.57 113.75,-120.16"/>
</g>
<!-- Node5&#45;&gt;Node4 -->
<g id="edge8" class="edge">
<title>Node5&#45;&gt;Node4</title>
<path fill="none" stroke="midnightblue" d="M139.88,-113.2C137.13,-96.12 131.59,-73.31 120.5,-56 110.49,-40.38 93.33,-27.45 81.04,-19.51"/>
<polygon fill="midnightblue" stroke="midnightblue" points="136.46,-114.07 141.31,-123.49 143.4,-113.1 136.46,-114.07"/>
</g>
<!-- Node6 -->
<g id="node6" class="node">
<title>Node6</title>
<g id="a_node6"><a xlink:href="visitor_8h.html" target="_top" xlink:title=" ">
<polygon fill="white" stroke="black" points="169,-62 169,-81 282,-81 282,-62 169,-62"/>
<text text-anchor="middle" x="225.5" y="-69" font-family="Helvetica,sans-Serif" font-size="10.00">include/cppgc/visitor.h</text>
</a>
</g>
</g>
<!-- Node5&#45;&gt;Node6 -->
<g id="edge6" class="edge">
<title>Node5&#45;&gt;Node6</title>
<path fill="none" stroke="midnightblue" d="M168.67,-117.01C184.08,-104.94 202.76,-90.3 214.4,-81.19"/>
<polygon fill="midnightblue" stroke="midnightblue" points="166.22,-114.47 160.51,-123.4 170.54,-119.99 166.22,-114.47"/>
</g>
<!-- Node7 -->
<g id="node7" class="node">
<title>Node7</title>
<g id="a_node7"><a xlink:href="persistent_8h.html" target="_top" xlink:title=" ">
<polygon fill="white" stroke="black" points="160.5,-0.5 160.5,-19.5 290.5,-19.5 290.5,-0.5 160.5,-0.5"/>
<text text-anchor="middle" x="225.5" y="-7.5" font-family="Helvetica,sans-Serif" font-size="10.00">include/cppgc/persistent.h</text>
</a>
</g>
</g>
<!-- Node6&#45;&gt;Node7 -->
<g id="edge7" class="edge">
<title>Node6&#45;&gt;Node7</title>
<path fill="none" stroke="midnightblue" d="M225.5,-51.82C225.5,-41 225.5,-27.9 225.5,-19.51"/>
<polygon fill="midnightblue" stroke="midnightblue" points="222,-51.98 225.5,-61.98 229,-51.98 222,-51.98"/>
</g>
<!-- Node9 -->
<g id="node9" class="node">
<title>Node9</title>
<g id="a_node9"><a xlink:href="v8-inspector_8h.html" target="_top" xlink:title=" ">
<polygon fill="white" stroke="black" points="258,-129 258,-148 369,-148 369,-129 258,-129"/>
<text text-anchor="middle" x="313.5" y="-136" font-family="Helvetica,sans-Serif" font-size="10.00">include/v8&#45;inspector.h</text>
</a>
</g>
</g>
<!-- Node8&#45;&gt;Node9 -->
<g id="edge10" class="edge">
<title>Node8&#45;&gt;Node9</title>
<path fill="none" stroke="midnightblue" d="M359.17,-183.32C347.39,-172.02 331.94,-157.19 322.37,-148.01"/>
<polygon fill="midnightblue" stroke="midnightblue" points="356.98,-186.08 366.62,-190.48 361.83,-181.03 356.98,-186.08"/>
</g>
<!-- Node11 -->
<g id="node11" class="node">
<title>Node11</title>
<g id="a_node11"><a xlink:href="v8-profiler_8h.html" target="_top" xlink:title=" ">
<polygon fill="white" stroke="black" points="387.5,-129 387.5,-148 487.5,-148 487.5,-129 387.5,-129"/>
<text text-anchor="middle" x="437.5" y="-136" font-family="Helvetica,sans-Serif" font-size="10.00">include/v8&#45;profiler.h</text>
</a>
</g>
</g>
<!-- Node8&#45;&gt;Node11 -->
<g id="edge12" class="edge">
<title>Node8&#45;&gt;Node11</title>
<path fill="none" stroke="midnightblue" d="M391.83,-183.32C403.61,-172.02 419.06,-157.19 428.63,-148.01"/>
<polygon fill="midnightblue" stroke="midnightblue" points="389.17,-181.03 384.38,-190.48 394.02,-186.08 389.17,-181.03"/>
</g>
<!-- Node12 -->
<g id="node12" class="node">
<title>Node12</title>
<g id="a_node12"><a xlink:href="v8-util_8h.html" target="_top" xlink:title=" ">
<polygon fill="white" stroke="black" points="505.5,-129 505.5,-148 589.5,-148 589.5,-129 505.5,-129"/>
<text text-anchor="middle" x="547.5" y="-136" font-family="Helvetica,sans-Serif" font-size="10.00">include/v8&#45;util.h</text>
</a>
</g>
</g>
<!-- Node8&#45;&gt;Node12 -->
<g id="edge13" class="edge">
<title>Node8&#45;&gt;Node12</title>
<path fill="none" stroke="midnightblue" d="M409.95,-187.08C443.38,-175.52 493.29,-158.25 522.9,-148.01"/>
<polygon fill="midnightblue" stroke="midnightblue" points="408.45,-183.9 400.14,-190.48 410.74,-190.51 408.45,-183.9"/>
</g>
<!-- Node10 -->
<g id="node10" class="node">
<title>Node10</title>
<g id="a_node10"><a xlink:href="v8-inspector-protocol_8h.html" target="_top" xlink:title=" ">
<polygon fill="white" stroke="black" points="300.5,-56.5 300.5,-86.5 404.5,-86.5 404.5,-56.5 300.5,-56.5"/>
<text text-anchor="start" x="308.5" y="-74.5" font-family="Helvetica,sans-Serif" font-size="10.00">include/v8&#45;inspector</text>
<text text-anchor="middle" x="352.5" y="-63.5" font-family="Helvetica,sans-Serif" font-size="10.00">&#45;protocol.h</text>
</a>
</g>
</g>
<!-- Node9&#45;&gt;Node10 -->
<g id="edge11" class="edge">
<title>Node9&#45;&gt;Node10</title>
<path fill="none" stroke="midnightblue" d="M323.98,-120.03C330.27,-109.56 338.16,-96.4 344.05,-86.59"/>
<polygon fill="midnightblue" stroke="midnightblue" points="320.9,-118.36 318.76,-128.73 326.91,-121.96 320.9,-118.36"/>
</g>
</g>
</svg>
