<?xml version="1.0" encoding="UTF-8" standalone="no"?>
<!DOCTYPE svg PUBLIC "-//W3C//DTD SVG 1.1//EN"
 "http://www.w3.org/Graphics/SVG/1.1/DTD/svg11.dtd">
<!-- Generated by graphviz version 2.44.0 ()
 -->
<!-- Title: include/cppgc/custom&#45;space.h Pages: 1 -->
<svg width="400pt" height="285pt"
 viewBox="0.00 0.00 400.00 285.00" xmlns="http://www.w3.org/2000/svg" xmlns:xlink="http://www.w3.org/1999/xlink">
<g id="graph0" class="graph" transform="scale(1 1) rotate(0) translate(4 281)">
<title>include/cppgc/custom&#45;space.h</title>
<polygon fill="white" stroke="transparent" points="-4,4 -4,-281 396,-281 396,4 -4,4"/>
<!-- Node1 -->
<g id="node1" class="node">
<title>Node1</title>
<g id="a_node1"><a xlink:title=" ">
<polygon fill="#bfbfbf" stroke="black" points="76,-246.5 76,-276.5 188,-276.5 188,-246.5 76,-246.5"/>
<text text-anchor="start" x="84" y="-264.5" font-family="Helvetica,sans-Serif" font-size="10.00">include/cppgc/custom</text>
<text text-anchor="middle" x="132" y="-253.5" font-family="Helvetica,sans-Serif" font-size="10.00">&#45;space.h</text>
</a>
</g>
</g>
<!-- Node2 -->
<g id="node2" class="node">
<title>Node2</title>
<g id="a_node2"><a xlink:href="allocation_8h.html" target="_top" xlink:title=" ">
<polygon fill="white" stroke="black" points="0,-190.5 0,-209.5 128,-209.5 128,-190.5 0,-190.5"/>
<text text-anchor="middle" x="64" y="-197.5" font-family="Helvetica,sans-Serif" font-size="10.00">include/cppgc/allocation.h</text>
</a>
</g>
</g>
<!-- Node1&#45;&gt;Node2 -->
<g id="edge1" class="edge">
<title>Node1&#45;&gt;Node2</title>
<path fill="none" stroke="midnightblue" d="M108.11,-239.6C96.36,-229.32 82.84,-217.48 73.89,-209.66"/>
<polygon fill="midnightblue" stroke="midnightblue" points="106.05,-242.45 115.88,-246.4 110.66,-237.18 106.05,-242.45"/>
</g>
<!-- Node3 -->
<g id="node3" class="node">
<title>Node3</title>
<g id="a_node3"><a xlink:href="heap_8h.html" target="_top" xlink:title=" ">
<polygon fill="white" stroke="black" points="146,-190.5 146,-209.5 254,-209.5 254,-190.5 146,-190.5"/>
<text text-anchor="middle" x="200" y="-197.5" font-family="Helvetica,sans-Serif" font-size="10.00">include/cppgc/heap.h</text>
</a>
</g>
</g>
<!-- Node1&#45;&gt;Node3 -->
<g id="edge2" class="edge">
<title>Node1&#45;&gt;Node3</title>
<path fill="none" stroke="midnightblue" d="M155.89,-239.6C167.64,-229.32 181.16,-217.48 190.11,-209.66"/>
<polygon fill="midnightblue" stroke="midnightblue" points="153.34,-237.18 148.12,-246.4 157.95,-242.45 153.34,-237.18"/>
</g>
<!-- Node4 -->
<g id="node4" class="node">
<title>Node4</title>
<g id="a_node4"><a xlink:href="prefinalizer-handler_8h.html" target="_top" xlink:title=" ">
<polygon fill="white" stroke="black" points="102.5,-56.5 102.5,-86.5 213.5,-86.5 213.5,-56.5 102.5,-56.5"/>
<text text-anchor="start" x="110.5" y="-74.5" font-family="Helvetica,sans-Serif" font-size="10.00">include/cppgc/internal</text>
<text text-anchor="middle" x="158" y="-63.5" font-family="Helvetica,sans-Serif" font-size="10.00">/prefinalizer&#45;handler.h</text>
</a>
</g>
</g>
<!-- Node3&#45;&gt;Node4 -->
<g id="edge3" class="edge">
<title>Node3&#45;&gt;Node4</title>
<path fill="none" stroke="midnightblue" d="M189.24,-181.51C184.61,-173.38 179.49,-163.45 176,-154 167.57,-131.16 162.45,-103.2 159.93,-86.67"/>
<polygon fill="midnightblue" stroke="midnightblue" points="186.37,-183.54 194.48,-190.37 192.4,-179.98 186.37,-183.54"/>
</g>
<!-- Node6 -->
<g id="node6" class="node">
<title>Node6</title>
<g id="a_node6"><a xlink:href="liveness-broker_8h.html" target="_top" xlink:title=" ">
<polygon fill="white" stroke="black" points="185,-123.5 185,-153.5 301,-153.5 301,-123.5 185,-123.5"/>
<text text-anchor="start" x="193" y="-141.5" font-family="Helvetica,sans-Serif" font-size="10.00">include/cppgc/liveness</text>
<text text-anchor="middle" x="243" y="-130.5" font-family="Helvetica,sans-Serif" font-size="10.00">&#45;broker.h</text>
</a>
</g>
</g>
<!-- Node3&#45;&gt;Node6 -->
<g id="edge5" class="edge">
<title>Node3&#45;&gt;Node6</title>
<path fill="none" stroke="midnightblue" d="M212.11,-182.25C218.66,-173.19 226.65,-162.12 232.87,-153.52"/>
<polygon fill="midnightblue" stroke="midnightblue" points="209.18,-180.32 206.16,-190.48 214.86,-184.42 209.18,-180.32"/>
</g>
<!-- Node5 -->
<g id="node5" class="node">
<title>Node5</title>
<g id="a_node5"><a xlink:href="prefinalizer_8h.html" target="_top" xlink:title=" ">
<polygon fill="white" stroke="black" points="101.5,-0.5 101.5,-19.5 234.5,-19.5 234.5,-0.5 101.5,-0.5"/>
<text text-anchor="middle" x="168" y="-7.5" font-family="Helvetica,sans-Serif" font-size="10.00">include/cppgc/prefinalizer.h</text>
</a>
</g>
</g>
<!-- Node4&#45;&gt;Node5 -->
<g id="edge4" class="edge">
<title>Node4&#45;&gt;Node5</title>
<path fill="none" stroke="midnightblue" d="M162.07,-46.29C163.65,-36.86 165.37,-26.65 166.54,-19.66"/>
<polygon fill="midnightblue" stroke="midnightblue" points="158.58,-45.96 160.37,-56.4 165.48,-47.12 158.58,-45.96"/>
</g>
<!-- Node6&#45;&gt;Node4 -->
<g id="edge6" class="edge">
<title>Node6&#45;&gt;Node4</title>
<path fill="none" stroke="midnightblue" d="M216.41,-117.17C203.41,-107.23 188.1,-95.51 176.41,-86.58"/>
<polygon fill="midnightblue" stroke="midnightblue" points="214.49,-120.1 224.56,-123.4 218.74,-114.54 214.49,-120.1"/>
</g>
<!-- Node6&#45;&gt;Node5 -->
<g id="edge9" class="edge">
<title>Node6&#45;&gt;Node5</title>
<path fill="none" stroke="midnightblue" d="M240.72,-113.21C238.21,-96.13 232.96,-73.32 222,-56 212.21,-40.53 195.36,-27.74 183.07,-19.8"/>
<polygon fill="midnightblue" stroke="midnightblue" points="237.3,-114.01 242.01,-123.49 244.24,-113.14 237.3,-114.01"/>
</g>
<!-- Node7 -->
<g id="node7" class="node">
<title>Node7</title>
<g id="a_node7"><a xlink:href="visitor_8h.html" target="_top" xlink:title=" ">
<polygon fill="white" stroke="black" points="270.5,-62 270.5,-81 383.5,-81 383.5,-62 270.5,-62"/>
<text text-anchor="middle" x="327" y="-69" font-family="Helvetica,sans-Serif" font-size="10.00">include/cppgc/visitor.h</text>
</a>
</g>
</g>
<!-- Node6&#45;&gt;Node7 -->
<g id="edge7" class="edge">
<title>Node6&#45;&gt;Node7</title>
<path fill="none" stroke="midnightblue" d="M269.48,-117.01C285.08,-104.94 303.99,-90.3 315.76,-81.19"/>
<polygon fill="midnightblue" stroke="midnightblue" points="266.99,-114.51 261.23,-123.4 271.28,-120.04 266.99,-114.51"/>
</g>
<!-- Node8 -->
<g id="node8" class="node">
<title>Node8</title>
<g id="a_node8"><a xlink:href="persistent_8h.html" target="_top" xlink:title=" ">
<polygon fill="white" stroke="black" points="262,-0.5 262,-19.5 392,-19.5 392,-0.5 262,-0.5"/>
<text text-anchor="middle" x="327" y="-7.5" font-family="Helvetica,sans-Serif" font-size="10.00">include/cppgc/persistent.h</text>
</a>
</g>
</g>
<!-- Node7&#45;&gt;Node8 -->
<g id="edge8" class="edge">
<title>Node7&#45;&gt;Node8</title>
<path fill="none" stroke="midnightblue" d="M327,-51.82C327,-41 327,-27.9 327,-19.51"/>
<polygon fill="midnightblue" stroke="midnightblue" points="323.5,-51.98 327,-61.98 330.5,-51.98 323.5,-51.98"/>
</g>
</g>
</svg>
