<?xml version="1.0" encoding="UTF-8" standalone="no"?>
<!DOCTYPE svg PUBLIC "-//W3C//DTD SVG 1.1//EN"
 "http://www.w3.org/Graphics/SVG/1.1/DTD/svg11.dtd">
<!-- Generated by graphviz version 2.44.0 ()
 -->
<!-- Title: include/cppgc/garbage&#45;collected.h Pages: 1 -->
<svg width="478pt" height="218pt"
 viewBox="0.00 0.00 478.00 218.00" xmlns="http://www.w3.org/2000/svg" xmlns:xlink="http://www.w3.org/1999/xlink">
<g id="graph0" class="graph" transform="scale(1 1) rotate(0) translate(4 214)">
<title>include/cppgc/garbage&#45;collected.h</title>
<polygon fill="white" stroke="transparent" points="-4,4 -4,-214 474,-214 474,4 -4,4"/>
<!-- Node1 -->
<g id="node1" class="node">
<title>Node1</title>
<g id="a_node1"><a xlink:title=" ">
<polygon fill="#bfbfbf" stroke="black" points="111,-179.5 111,-209.5 225,-209.5 225,-179.5 111,-179.5"/>
<text text-anchor="start" x="119" y="-197.5" font-family="Helvetica,sans-Serif" font-size="10.00">include/cppgc/garbage</text>
<text text-anchor="middle" x="168" y="-186.5" font-family="Helvetica,sans-Serif" font-size="10.00">&#45;collected.h</text>
</a>
</g>
</g>
<!-- Node2 -->
<g id="node2" class="node">
<title>Node2</title>
<g id="a_node2"><a xlink:title=" ">
<polygon fill="white" stroke="#bfbfbf" points="0,-0.5 0,-19.5 62,-19.5 62,-0.5 0,-0.5"/>
<text text-anchor="middle" x="31" y="-7.5" font-family="Helvetica,sans-Serif" font-size="10.00">type_traits</text>
</a>
</g>
</g>
<!-- Node1&#45;&gt;Node2 -->
<g id="edge1" class="edge">
<title>Node1&#45;&gt;Node2</title>
<path fill="none" stroke="midnightblue" d="M110.86,-186.57C83.26,-180.06 52.41,-167.44 35,-143 10.91,-109.19 18.89,-57.18 25.63,-29.62"/>
<polygon fill="midnightblue" stroke="midnightblue" points="29.08,-30.3 28.26,-19.74 22.31,-28.5 29.08,-30.3"/>
</g>
<!-- Node3 -->
<g id="node3" class="node">
<title>Node3</title>
<g id="a_node3"><a xlink:href="api-constants_8h.html" target="_top" xlink:title=" ">
<polygon fill="white" stroke="black" points="318.5,-56.5 318.5,-86.5 411.5,-86.5 411.5,-56.5 318.5,-56.5"/>
<text text-anchor="start" x="326.5" y="-74.5" font-family="Helvetica,sans-Serif" font-size="10.00">cppgc/internal/api</text>
<text text-anchor="middle" x="365" y="-63.5" font-family="Helvetica,sans-Serif" font-size="10.00">&#45;constants.h</text>
</a>
</g>
</g>
<!-- Node1&#45;&gt;Node3 -->
<g id="edge2" class="edge">
<title>Node1&#45;&gt;Node3</title>
<path fill="none" stroke="midnightblue" d="M176.11,-179.39C185.85,-163.6 203.58,-138.24 225,-123 238.93,-113.09 275.86,-99.93 308.29,-89.53"/>
<polygon fill="midnightblue" stroke="midnightblue" points="309.7,-92.76 318.18,-86.4 307.59,-86.08 309.7,-92.76"/>
</g>
<!-- Node7 -->
<g id="node7" class="node">
<title>Node7</title>
<g id="a_node7"><a xlink:href="platform_8h.html" target="_top" xlink:title=" ">
<polygon fill="white" stroke="black" points="234.5,-123.5 234.5,-142.5 323.5,-142.5 323.5,-123.5 234.5,-123.5"/>
<text text-anchor="middle" x="279" y="-130.5" font-family="Helvetica,sans-Serif" font-size="10.00">cppgc/platform.h</text>
</a>
</g>
</g>
<!-- Node1&#45;&gt;Node7 -->
<g id="edge6" class="edge">
<title>Node1&#45;&gt;Node7</title>
<path fill="none" stroke="midnightblue" d="M194.31,-179.4C212.26,-169.77 235.92,-157.09 253.67,-147.58"/>
<polygon fill="midnightblue" stroke="midnightblue" points="255.69,-150.47 262.85,-142.66 252.38,-144.3 255.69,-150.47"/>
</g>
<!-- Node12 -->
<g id="node12" class="node">
<title>Node12</title>
<g id="a_node12"><a xlink:href="trace-trait_8h.html" target="_top" xlink:title=" ">
<polygon fill="white" stroke="black" points="44.5,-123.5 44.5,-142.5 139.5,-142.5 139.5,-123.5 44.5,-123.5"/>
<text text-anchor="middle" x="92" y="-130.5" font-family="Helvetica,sans-Serif" font-size="10.00">cppgc/trace&#45;trait.h</text>
</a>
</g>
</g>
<!-- Node1&#45;&gt;Node12 -->
<g id="edge15" class="edge">
<title>Node1&#45;&gt;Node12</title>
<path fill="none" stroke="midnightblue" d="M149.99,-179.4C138.26,-170.22 122.98,-158.26 111.06,-148.92"/>
<polygon fill="midnightblue" stroke="midnightblue" points="113.09,-146.07 103.06,-142.66 108.78,-151.58 113.09,-146.07"/>
</g>
<!-- Node13 -->
<g id="node13" class="node">
<title>Node13</title>
<g id="a_node13"><a xlink:href="type-traits_8h.html" target="_top" xlink:title=" ">
<polygon fill="white" stroke="black" points="82,-62 82,-81 178,-81 178,-62 82,-62"/>
<text text-anchor="middle" x="130" y="-69" font-family="Helvetica,sans-Serif" font-size="10.00">cppgc/type&#45;traits.h</text>
</a>
</g>
</g>
<!-- Node1&#45;&gt;Node13 -->
<g id="edge19" class="edge">
<title>Node1&#45;&gt;Node13</title>
<path fill="none" stroke="midnightblue" d="M164.29,-179.37C160.46,-165.08 154.2,-142.39 148,-123 144.54,-112.18 140.29,-100.2 136.78,-90.62"/>
<polygon fill="midnightblue" stroke="midnightblue" points="139.99,-89.18 133.23,-81.02 133.42,-91.61 139.99,-89.18"/>
</g>
<!-- Node4 -->
<g id="node4" class="node">
<title>Node4</title>
<g id="a_node4"><a xlink:title=" ">
<polygon fill="white" stroke="#bfbfbf" points="340.5,-0.5 340.5,-19.5 391.5,-19.5 391.5,-0.5 340.5,-0.5"/>
<text text-anchor="middle" x="366" y="-7.5" font-family="Helvetica,sans-Serif" font-size="10.00">stddef.h</text>
</a>
</g>
</g>
<!-- Node3&#45;&gt;Node4 -->
<g id="edge3" class="edge">
<title>Node3&#45;&gt;Node4</title>
<path fill="none" stroke="midnightblue" d="M365.24,-56.4C365.37,-48.47 365.54,-38.46 365.68,-29.86"/>
<polygon fill="midnightblue" stroke="midnightblue" points="369.19,-29.72 365.85,-19.66 362.19,-29.6 369.19,-29.72"/>
</g>
<!-- Node5 -->
<g id="node5" class="node">
<title>Node5</title>
<g id="a_node5"><a xlink:title=" ">
<polygon fill="white" stroke="#bfbfbf" points="274,-0.5 274,-19.5 322,-19.5 322,-0.5 274,-0.5"/>
<text text-anchor="middle" x="298" y="-7.5" font-family="Helvetica,sans-Serif" font-size="10.00">stdint.h</text>
</a>
</g>
</g>
<!-- Node3&#45;&gt;Node5 -->
<g id="edge4" class="edge">
<title>Node3&#45;&gt;Node5</title>
<path fill="none" stroke="midnightblue" d="M349.12,-56.4C338.98,-47.4 325.84,-35.72 315.41,-26.47"/>
<polygon fill="midnightblue" stroke="midnightblue" points="317.55,-23.68 307.75,-19.66 312.9,-28.92 317.55,-23.68"/>
</g>
<!-- Node6 -->
<g id="node6" class="node">
<title>Node6</title>
<g id="a_node6"><a xlink:href="v8config_8h.html" target="_top" xlink:title=" ">
<polygon fill="white" stroke="black" points="410,-0.5 410,-19.5 470,-19.5 470,-0.5 410,-0.5"/>
<text text-anchor="middle" x="440" y="-7.5" font-family="Helvetica,sans-Serif" font-size="10.00">v8config.h</text>
</a>
</g>
</g>
<!-- Node3&#45;&gt;Node6 -->
<g id="edge5" class="edge">
<title>Node3&#45;&gt;Node6</title>
<path fill="none" stroke="midnightblue" d="M382.77,-56.4C394.35,-47.22 409.42,-35.26 421.2,-25.92"/>
<polygon fill="midnightblue" stroke="midnightblue" points="423.43,-28.61 429.09,-19.66 419.08,-23.13 423.43,-28.61"/>
</g>
<!-- Node7&#45;&gt;Node6 -->
<g id="edge14" class="edge">
<title>Node7&#45;&gt;Node6</title>
<path fill="none" stroke="midnightblue" d="M323.77,-129.05C355.2,-124.6 395.94,-113.66 421,-87 435.38,-71.7 439.33,-47.22 440.19,-30.19"/>
<polygon fill="midnightblue" stroke="midnightblue" points="443.7,-29.86 440.39,-19.8 436.7,-29.73 443.7,-29.86"/>
</g>
<!-- Node8 -->
<g id="node8" class="node">
<title>Node8</title>
<g id="a_node8"><a xlink:href="v8-platform_8h.html" target="_top" xlink:title=" ">
<polygon fill="white" stroke="black" points="227.5,-62 227.5,-81 300.5,-81 300.5,-62 227.5,-62"/>
<text text-anchor="middle" x="264" y="-69" font-family="Helvetica,sans-Serif" font-size="10.00">v8&#45;platform.h</text>
</a>
</g>
</g>
<!-- Node7&#45;&gt;Node8 -->
<g id="edge7" class="edge">
<title>Node7&#45;&gt;Node8</title>
<path fill="none" stroke="midnightblue" d="M276.85,-123.48C274.71,-114.99 271.36,-101.7 268.62,-90.82"/>
<polygon fill="midnightblue" stroke="midnightblue" points="271.98,-89.85 266.15,-81.01 265.2,-91.56 271.98,-89.85"/>
</g>
<!-- Node8&#45;&gt;Node4 -->
<g id="edge8" class="edge">
<title>Node8&#45;&gt;Node4</title>
<path fill="none" stroke="midnightblue" d="M278.61,-61.98C295.35,-52.21 323,-36.08 342.72,-24.58"/>
<polygon fill="midnightblue" stroke="midnightblue" points="344.54,-27.57 351.41,-19.51 341.01,-21.52 344.54,-27.57"/>
</g>
<!-- Node8&#45;&gt;Node5 -->
<g id="edge9" class="edge">
<title>Node8&#45;&gt;Node5</title>
<path fill="none" stroke="midnightblue" d="M268.87,-61.98C273.87,-53.23 281.79,-39.37 288.11,-28.31"/>
<polygon fill="midnightblue" stroke="midnightblue" points="291.22,-29.93 293.14,-19.51 285.14,-26.46 291.22,-29.93"/>
</g>
<!-- Node8&#45;&gt;Node6 -->
<g id="edge13" class="edge">
<title>Node8&#45;&gt;Node6</title>
<path fill="none" stroke="midnightblue" d="M289.22,-61.98C319.67,-51.68 371.05,-34.31 405.24,-22.75"/>
<polygon fill="midnightblue" stroke="midnightblue" points="406.48,-26.03 414.83,-19.51 404.24,-19.4 406.48,-26.03"/>
</g>
<!-- Node9 -->
<g id="node9" class="node">
<title>Node9</title>
<g id="a_node9"><a xlink:title=" ">
<polygon fill="white" stroke="#bfbfbf" points="139.5,-0.5 139.5,-19.5 186.5,-19.5 186.5,-0.5 139.5,-0.5"/>
<text text-anchor="middle" x="163" y="-7.5" font-family="Helvetica,sans-Serif" font-size="10.00">stdlib.h</text>
</a>
</g>
</g>
<!-- Node8&#45;&gt;Node9 -->
<g id="edge10" class="edge">
<title>Node8&#45;&gt;Node9</title>
<path fill="none" stroke="midnightblue" d="M249.53,-61.98C233.03,-52.25 205.82,-36.23 186.32,-24.74"/>
<polygon fill="midnightblue" stroke="midnightblue" points="187.84,-21.57 177.44,-19.51 184.28,-27.6 187.84,-21.57"/>
</g>
<!-- Node10 -->
<g id="node10" class="node">
<title>Node10</title>
<g id="a_node10"><a xlink:title=" ">
<polygon fill="white" stroke="#bfbfbf" points="204.5,-0.5 204.5,-19.5 255.5,-19.5 255.5,-0.5 204.5,-0.5"/>
<text text-anchor="middle" x="230" y="-7.5" font-family="Helvetica,sans-Serif" font-size="10.00">memory</text>
</a>
</g>
</g>
<!-- Node8&#45;&gt;Node10 -->
<g id="edge11" class="edge">
<title>Node8&#45;&gt;Node10</title>
<path fill="none" stroke="midnightblue" d="M259.13,-61.98C254.13,-53.23 246.21,-39.37 239.89,-28.31"/>
<polygon fill="midnightblue" stroke="midnightblue" points="242.86,-26.46 234.86,-19.51 236.78,-29.93 242.86,-26.46"/>
</g>
<!-- Node11 -->
<g id="node11" class="node">
<title>Node11</title>
<g id="a_node11"><a xlink:title=" ">
<polygon fill="white" stroke="#bfbfbf" points="80.5,-0.5 80.5,-19.5 121.5,-19.5 121.5,-0.5 80.5,-0.5"/>
<text text-anchor="middle" x="101" y="-7.5" font-family="Helvetica,sans-Serif" font-size="10.00">string</text>
</a>
</g>
</g>
<!-- Node8&#45;&gt;Node11 -->
<g id="edge12" class="edge">
<title>Node8&#45;&gt;Node11</title>
<path fill="none" stroke="midnightblue" d="M240.65,-61.98C211.89,-51.48 162.99,-33.63 131.35,-22.08"/>
<polygon fill="midnightblue" stroke="midnightblue" points="132.32,-18.71 121.73,-18.57 129.92,-25.28 132.32,-18.71"/>
</g>
<!-- Node12&#45;&gt;Node2 -->
<g id="edge16" class="edge">
<title>Node12&#45;&gt;Node2</title>
<path fill="none" stroke="midnightblue" d="M87.61,-123.3C77.68,-103.59 53.29,-55.21 39.99,-28.84"/>
<polygon fill="midnightblue" stroke="midnightblue" points="42.97,-26.98 35.35,-19.62 36.72,-30.13 42.97,-26.98"/>
</g>
<!-- Node12&#45;&gt;Node13 -->
<g id="edge17" class="edge">
<title>Node12&#45;&gt;Node13</title>
<path fill="none" stroke="midnightblue" d="M97.44,-123.48C103.09,-114.64 112.06,-100.59 119.16,-89.48"/>
<polygon fill="midnightblue" stroke="midnightblue" points="122.13,-91.32 124.57,-81.01 116.23,-87.55 122.13,-91.32"/>
</g>
<!-- Node13&#45;&gt;Node2 -->
<g id="edge18" class="edge">
<title>Node13&#45;&gt;Node2</title>
<path fill="none" stroke="midnightblue" d="M115.82,-61.98C99.64,-52.25 72.97,-36.23 53.86,-24.74"/>
<polygon fill="midnightblue" stroke="midnightblue" points="55.53,-21.66 45.16,-19.51 51.93,-27.66 55.53,-21.66"/>
</g>
</g>
</svg>
