<?xml version="1.0" encoding="UTF-8" standalone="no"?>
<!DOCTYPE svg PUBLIC "-//W3C//DTD SVG 1.1//EN"
 "http://www.w3.org/Graphics/SVG/1.1/DTD/svg11.dtd">
<!-- Generated by graphviz version 2.44.0 ()
 -->
<!-- Title: include/cppgc/internal/gc&#45;info.h Pages: 1 -->
<svg width="379pt" height="218pt"
 viewBox="0.00 0.00 379.00 218.00" xmlns="http://www.w3.org/2000/svg" xmlns:xlink="http://www.w3.org/1999/xlink">
<g id="graph0" class="graph" transform="scale(1 1) rotate(0) translate(4 214)">
<title>include/cppgc/internal/gc&#45;info.h</title>
<polygon fill="white" stroke="transparent" points="-4,4 -4,-214 375,-214 375,4 -4,4"/>
<!-- Node1 -->
<g id="node1" class="node">
<title>Node1</title>
<g id="a_node1"><a xlink:title=" ">
<polygon fill="#bfbfbf" stroke="black" points="128.5,-179.5 128.5,-209.5 239.5,-209.5 239.5,-179.5 128.5,-179.5"/>
<text text-anchor="start" x="136.5" y="-197.5" font-family="Helvetica,sans-Serif" font-size="10.00">include/cppgc/internal</text>
<text text-anchor="middle" x="184" y="-186.5" font-family="Helvetica,sans-Serif" font-size="10.00">/gc&#45;info.h</text>
</a>
</g>
</g>
<!-- Node2 -->
<g id="node2" class="node">
<title>Node2</title>
<g id="a_node2"><a xlink:title=" ">
<polygon fill="white" stroke="#bfbfbf" points="0,-118 0,-137 48,-137 48,-118 0,-118"/>
<text text-anchor="middle" x="24" y="-125" font-family="Helvetica,sans-Serif" font-size="10.00">stdint.h</text>
</a>
</g>
</g>
<!-- Node1&#45;&gt;Node2 -->
<g id="edge1" class="edge">
<title>Node1&#45;&gt;Node2</title>
<path fill="none" stroke="midnightblue" d="M147.73,-179.47C122.25,-169.52 87.43,-155.73 57,-143 55.59,-142.41 54.15,-141.8 52.7,-141.18"/>
<polygon fill="midnightblue" stroke="midnightblue" points="53.71,-137.81 43.15,-137.05 50.93,-144.23 53.71,-137.81"/>
</g>
<!-- Node3 -->
<g id="node3" class="node">
<title>Node3</title>
<g id="a_node3"><a xlink:href="finalizer-trait_8h.html" target="_top" xlink:title=" ">
<polygon fill="white" stroke="black" points="66.5,-112.5 66.5,-142.5 179.5,-142.5 179.5,-112.5 66.5,-112.5"/>
<text text-anchor="start" x="74.5" y="-130.5" font-family="Helvetica,sans-Serif" font-size="10.00">cppgc/internal/finalizer</text>
<text text-anchor="middle" x="123" y="-119.5" font-family="Helvetica,sans-Serif" font-size="10.00">&#45;trait.h</text>
</a>
</g>
</g>
<!-- Node1&#45;&gt;Node3 -->
<g id="edge2" class="edge">
<title>Node1&#45;&gt;Node3</title>
<path fill="none" stroke="midnightblue" d="M170.76,-179.4C162.69,-170.79 152.21,-159.63 143.13,-149.94"/>
<polygon fill="midnightblue" stroke="midnightblue" points="145.61,-147.47 136.21,-142.58 140.5,-152.26 145.61,-147.47"/>
</g>
<!-- Node6 -->
<g id="node6" class="node">
<title>Node6</title>
<g id="a_node6"><a xlink:href="trace-trait_8h.html" target="_top" xlink:title=" ">
<polygon fill="white" stroke="black" points="197.5,-118 197.5,-137 292.5,-137 292.5,-118 197.5,-118"/>
<text text-anchor="middle" x="245" y="-125" font-family="Helvetica,sans-Serif" font-size="10.00">cppgc/trace&#45;trait.h</text>
</a>
</g>
</g>
<!-- Node1&#45;&gt;Node6 -->
<g id="edge6" class="edge">
<title>Node1&#45;&gt;Node6</title>
<path fill="none" stroke="midnightblue" d="M197.24,-179.4C206.84,-169.16 219.85,-155.3 229.87,-144.62"/>
<polygon fill="midnightblue" stroke="midnightblue" points="232.55,-146.88 236.84,-137.19 227.45,-142.09 232.55,-146.88"/>
</g>
<!-- Node7 -->
<g id="node7" class="node">
<title>Node7</title>
<g id="a_node7"><a xlink:href="v8config_8h.html" target="_top" xlink:title=" ">
<polygon fill="white" stroke="black" points="311,-118 311,-137 371,-137 371,-118 311,-118"/>
<text text-anchor="middle" x="341" y="-125" font-family="Helvetica,sans-Serif" font-size="10.00">v8config.h</text>
</a>
</g>
</g>
<!-- Node1&#45;&gt;Node7 -->
<g id="edge9" class="edge">
<title>Node1&#45;&gt;Node7</title>
<path fill="none" stroke="midnightblue" d="M218.07,-179.4C245.74,-167.94 284.39,-151.94 310.92,-140.95"/>
<polygon fill="midnightblue" stroke="midnightblue" points="312.55,-144.07 320.45,-137.01 309.87,-137.6 312.55,-144.07"/>
</g>
<!-- Node4 -->
<g id="node4" class="node">
<title>Node4</title>
<g id="a_node4"><a xlink:title=" ">
<polygon fill="white" stroke="#bfbfbf" points="153,-0.5 153,-19.5 215,-19.5 215,-0.5 153,-0.5"/>
<text text-anchor="middle" x="184" y="-7.5" font-family="Helvetica,sans-Serif" font-size="10.00">type_traits</text>
</a>
</g>
</g>
<!-- Node3&#45;&gt;Node4 -->
<g id="edge3" class="edge">
<title>Node3&#45;&gt;Node4</title>
<path fill="none" stroke="midnightblue" d="M120.55,-112.37C118.68,-97.46 117.78,-73.73 127,-56 133.81,-42.9 146.33,-32.36 157.9,-24.79"/>
<polygon fill="midnightblue" stroke="midnightblue" points="159.73,-27.77 166.45,-19.58 156.09,-21.79 159.73,-27.77"/>
</g>
<!-- Node5 -->
<g id="node5" class="node">
<title>Node5</title>
<g id="a_node5"><a xlink:href="type-traits_8h.html" target="_top" xlink:title=" ">
<polygon fill="white" stroke="black" points="136,-56.5 136,-75.5 232,-75.5 232,-56.5 136,-56.5"/>
<text text-anchor="middle" x="184" y="-63.5" font-family="Helvetica,sans-Serif" font-size="10.00">cppgc/type&#45;traits.h</text>
</a>
</g>
</g>
<!-- Node3&#45;&gt;Node5 -->
<g id="edge4" class="edge">
<title>Node3&#45;&gt;Node5</title>
<path fill="none" stroke="midnightblue" d="M137.46,-112.4C146.59,-103.49 158.42,-91.95 167.86,-82.74"/>
<polygon fill="midnightblue" stroke="midnightblue" points="170.41,-85.15 175.12,-75.66 165.52,-80.13 170.41,-85.15"/>
</g>
<!-- Node5&#45;&gt;Node4 -->
<g id="edge5" class="edge">
<title>Node5&#45;&gt;Node4</title>
<path fill="none" stroke="midnightblue" d="M184,-56.08C184,-49.01 184,-38.86 184,-29.99"/>
<polygon fill="midnightblue" stroke="midnightblue" points="187.5,-29.75 184,-19.75 180.5,-29.75 187.5,-29.75"/>
</g>
<!-- Node6&#45;&gt;Node4 -->
<g id="edge7" class="edge">
<title>Node6&#45;&gt;Node4</title>
<path fill="none" stroke="midnightblue" d="M246.7,-117.66C248.92,-103.68 251.41,-76.01 241,-56 234.19,-42.9 221.67,-32.36 210.1,-24.79"/>
<polygon fill="midnightblue" stroke="midnightblue" points="211.91,-21.79 201.55,-19.58 208.27,-27.77 211.91,-21.79"/>
</g>
<!-- Node6&#45;&gt;Node5 -->
<g id="edge8" class="edge">
<title>Node6&#45;&gt;Node5</title>
<path fill="none" stroke="midnightblue" d="M236.26,-117.98C226.84,-108.78 211.64,-93.96 200.05,-82.66"/>
<polygon fill="midnightblue" stroke="midnightblue" points="202.33,-79.99 192.72,-75.51 197.44,-85 202.33,-79.99"/>
</g>
</g>
</svg>
