<?xml version="1.0" encoding="UTF-8" standalone="no"?>
<!DOCTYPE svg PUBLIC "-//W3C//DTD SVG 1.1//EN"
 "http://www.w3.org/Graphics/SVG/1.1/DTD/svg11.dtd">
<!-- Generated by graphviz version 2.44.0 ()
 -->
<!-- Title: include/cppgc/heap.h Pages: 1 -->
<svg width="442pt" height="196pt"
 viewBox="0.00 0.00 442.00 196.00" xmlns="http://www.w3.org/2000/svg" xmlns:xlink="http://www.w3.org/1999/xlink">
<g id="graph0" class="graph" transform="scale(1 1) rotate(0) translate(4 192)">
<title>include/cppgc/heap.h</title>
<polygon fill="white" stroke="transparent" points="-4,4 -4,-192 438,-192 438,4 -4,4"/>
<!-- Node1 -->
<g id="node1" class="node">
<title>Node1</title>
<g id="a_node1"><a xlink:title=" ">
<polygon fill="#bfbfbf" stroke="black" points="100.5,-168.5 100.5,-187.5 208.5,-187.5 208.5,-168.5 100.5,-168.5"/>
<text text-anchor="middle" x="154.5" y="-175.5" font-family="Helvetica,sans-Serif" font-size="10.00">include/cppgc/heap.h</text>
</a>
</g>
</g>
<!-- Node2 -->
<g id="node2" class="node">
<title>Node2</title>
<g id="a_node2"><a xlink:title=" ">
<polygon fill="white" stroke="#bfbfbf" points="0,-0.5 0,-19.5 51,-19.5 51,-0.5 0,-0.5"/>
<text text-anchor="middle" x="25.5" y="-7.5" font-family="Helvetica,sans-Serif" font-size="10.00">memory</text>
</a>
</g>
</g>
<!-- Node1&#45;&gt;Node2 -->
<g id="edge1" class="edge">
<title>Node1&#45;&gt;Node2</title>
<path fill="none" stroke="midnightblue" d="M133.65,-168.47C117.39,-160.92 95.17,-148.54 80.5,-132 53.29,-101.32 37.36,-54.93 30.15,-29.42"/>
<polygon fill="midnightblue" stroke="midnightblue" points="33.49,-28.34 27.52,-19.59 26.72,-30.15 33.49,-28.34"/>
</g>
<!-- Node3 -->
<g id="node3" class="node">
<title>Node3</title>
<g id="a_node3"><a xlink:title=" ">
<polygon fill="white" stroke="#bfbfbf" points="292.5,-112.5 292.5,-131.5 336.5,-131.5 336.5,-112.5 292.5,-112.5"/>
<text text-anchor="middle" x="314.5" y="-119.5" font-family="Helvetica,sans-Serif" font-size="10.00">vector</text>
</a>
</g>
</g>
<!-- Node1&#45;&gt;Node3 -->
<g id="edge2" class="edge">
<title>Node1&#45;&gt;Node3</title>
<path fill="none" stroke="midnightblue" d="M179.85,-168.44C207.72,-159.04 252.53,-143.91 282.72,-133.72"/>
<polygon fill="midnightblue" stroke="midnightblue" points="284,-136.99 292.36,-130.47 281.76,-130.35 284,-136.99"/>
</g>
<!-- Node4 -->
<g id="node4" class="node">
<title>Node4</title>
<g id="a_node4"><a xlink:href="common_8h.html" target="_top" xlink:title=" ">
<polygon fill="white" stroke="black" points="73,-56.5 73,-75.5 164,-75.5 164,-56.5 73,-56.5"/>
<text text-anchor="middle" x="118.5" y="-63.5" font-family="Helvetica,sans-Serif" font-size="10.00">cppgc/common.h</text>
</a>
</g>
</g>
<!-- Node1&#45;&gt;Node4 -->
<g id="edge3" class="edge">
<title>Node1&#45;&gt;Node4</title>
<path fill="none" stroke="midnightblue" d="M151.04,-168.44C147.46,-159.44 141.79,-144.83 137.5,-132 132.31,-116.49 127.16,-98.65 123.53,-85.59"/>
<polygon fill="midnightblue" stroke="midnightblue" points="126.89,-84.62 120.87,-75.9 120.14,-86.47 126.89,-84.62"/>
</g>
<!-- Node5 -->
<g id="node5" class="node">
<title>Node5</title>
<g id="a_node5"><a xlink:href="v8config_8h.html" target="_top" xlink:title=" ">
<polygon fill="white" stroke="black" points="88.5,-0.5 88.5,-19.5 148.5,-19.5 148.5,-0.5 88.5,-0.5"/>
<text text-anchor="middle" x="118.5" y="-7.5" font-family="Helvetica,sans-Serif" font-size="10.00">v8config.h</text>
</a>
</g>
</g>
<!-- Node1&#45;&gt;Node5 -->
<g id="edge16" class="edge">
<title>Node1&#45;&gt;Node5</title>
<path fill="none" stroke="midnightblue" d="M142.35,-168.42C121.47,-152.85 79.49,-117.64 63.5,-76 60.31,-67.7 59.69,-64.03 63.5,-56 69.63,-43.07 81.49,-32.62 92.64,-25.05"/>
<polygon fill="midnightblue" stroke="midnightblue" points="94.69,-27.9 101.3,-19.61 90.97,-21.97 94.69,-27.9"/>
</g>
<!-- Node6 -->
<g id="node6" class="node">
<title>Node6</title>
<g id="a_node6"><a xlink:href="custom-space_8h.html" target="_top" xlink:title=" ">
<polygon fill="white" stroke="black" points="319,-56.5 319,-75.5 434,-75.5 434,-56.5 319,-56.5"/>
<text text-anchor="middle" x="376.5" y="-63.5" font-family="Helvetica,sans-Serif" font-size="10.00">cppgc/custom&#45;space.h</text>
</a>
</g>
</g>
<!-- Node1&#45;&gt;Node6 -->
<g id="edge5" class="edge">
<title>Node1&#45;&gt;Node6</title>
<path fill="none" stroke="midnightblue" d="M171.78,-168.43C189.92,-159.41 219.25,-144.79 244.5,-132 261.88,-123.2 266.06,-120.69 283.5,-112 305.65,-100.96 330.93,-88.76 349.54,-79.84"/>
<polygon fill="midnightblue" stroke="midnightblue" points="351.1,-82.98 358.61,-75.5 348.08,-76.66 351.1,-82.98"/>
</g>
<!-- Node8 -->
<g id="node8" class="node">
<title>Node8</title>
<g id="a_node8"><a xlink:href="platform_8h.html" target="_top" xlink:title=" ">
<polygon fill="white" stroke="black" points="147,-112.5 147,-131.5 236,-131.5 236,-112.5 147,-112.5"/>
<text text-anchor="middle" x="191.5" y="-119.5" font-family="Helvetica,sans-Serif" font-size="10.00">cppgc/platform.h</text>
</a>
</g>
</g>
<!-- Node1&#45;&gt;Node8 -->
<g id="edge7" class="edge">
<title>Node1&#45;&gt;Node8</title>
<path fill="none" stroke="midnightblue" d="M160.61,-168.08C165.78,-160.53 173.35,-149.49 179.69,-140.23"/>
<polygon fill="midnightblue" stroke="midnightblue" points="182.74,-141.98 185.5,-131.75 176.96,-138.02 182.74,-141.98"/>
</g>
<!-- Node4&#45;&gt;Node5 -->
<g id="edge4" class="edge">
<title>Node4&#45;&gt;Node5</title>
<path fill="none" stroke="midnightblue" d="M118.5,-56.08C118.5,-49.01 118.5,-38.86 118.5,-29.99"/>
<polygon fill="midnightblue" stroke="midnightblue" points="122,-29.75 118.5,-19.75 115,-29.75 122,-29.75"/>
</g>
<!-- Node7 -->
<g id="node7" class="node">
<title>Node7</title>
<g id="a_node7"><a xlink:title=" ">
<polygon fill="white" stroke="#bfbfbf" points="357,-0.5 357,-19.5 408,-19.5 408,-0.5 357,-0.5"/>
<text text-anchor="middle" x="382.5" y="-7.5" font-family="Helvetica,sans-Serif" font-size="10.00">stddef.h</text>
</a>
</g>
</g>
<!-- Node6&#45;&gt;Node7 -->
<g id="edge6" class="edge">
<title>Node6&#45;&gt;Node7</title>
<path fill="none" stroke="midnightblue" d="M377.49,-56.08C378.29,-48.93 379.43,-38.64 380.42,-29.69"/>
<polygon fill="midnightblue" stroke="midnightblue" points="383.9,-30.08 381.53,-19.75 376.94,-29.3 383.9,-30.08"/>
</g>
<!-- Node8&#45;&gt;Node5 -->
<g id="edge15" class="edge">
<title>Node8&#45;&gt;Node5</title>
<path fill="none" stroke="midnightblue" d="M190.6,-112.33C188.88,-99.2 184.23,-73.9 172.5,-56 164.48,-43.76 152.12,-33.11 141.25,-25.25"/>
<polygon fill="midnightblue" stroke="midnightblue" points="143.19,-22.33 132.96,-19.56 139.23,-28.11 143.19,-22.33"/>
</g>
<!-- Node9 -->
<g id="node9" class="node">
<title>Node9</title>
<g id="a_node9"><a xlink:href="v8-platform_8h.html" target="_top" xlink:title=" ">
<polygon fill="white" stroke="black" points="221,-56.5 221,-75.5 294,-75.5 294,-56.5 221,-56.5"/>
<text text-anchor="middle" x="257.5" y="-63.5" font-family="Helvetica,sans-Serif" font-size="10.00">v8&#45;platform.h</text>
</a>
</g>
</g>
<!-- Node8&#45;&gt;Node9 -->
<g id="edge8" class="edge">
<title>Node8&#45;&gt;Node9</title>
<path fill="none" stroke="midnightblue" d="M202.1,-112.32C211.96,-104.26 226.85,-92.08 238.72,-82.37"/>
<polygon fill="midnightblue" stroke="midnightblue" points="241.18,-84.88 246.7,-75.83 236.75,-79.46 241.18,-84.88"/>
</g>
<!-- Node9&#45;&gt;Node2 -->
<g id="edge12" class="edge">
<title>Node9&#45;&gt;Node2</title>
<path fill="none" stroke="midnightblue" d="M220.99,-56.5C177.17,-46.3 104.17,-29.31 60.86,-19.23"/>
<polygon fill="midnightblue" stroke="midnightblue" points="61.57,-15.8 51.04,-16.95 59.99,-22.62 61.57,-15.8"/>
</g>
<!-- Node9&#45;&gt;Node5 -->
<g id="edge14" class="edge">
<title>Node9&#45;&gt;Node5</title>
<path fill="none" stroke="midnightblue" d="M235.48,-56.44C212.4,-47.48 175.94,-33.31 149.86,-23.18"/>
<polygon fill="midnightblue" stroke="midnightblue" points="151.01,-19.88 140.42,-19.52 148.48,-26.4 151.01,-19.88"/>
</g>
<!-- Node9&#45;&gt;Node7 -->
<g id="edge9" class="edge">
<title>Node9&#45;&gt;Node7</title>
<path fill="none" stroke="midnightblue" d="M277.31,-56.44C297.79,-47.6 329.98,-33.69 353.36,-23.59"/>
<polygon fill="midnightblue" stroke="midnightblue" points="354.99,-26.7 362.79,-19.52 352.22,-20.27 354.99,-26.7"/>
</g>
<!-- Node10 -->
<g id="node10" class="node">
<title>Node10</title>
<g id="a_node10"><a xlink:title=" ">
<polygon fill="white" stroke="#bfbfbf" points="166.5,-0.5 166.5,-19.5 214.5,-19.5 214.5,-0.5 166.5,-0.5"/>
<text text-anchor="middle" x="190.5" y="-7.5" font-family="Helvetica,sans-Serif" font-size="10.00">stdint.h</text>
</a>
</g>
</g>
<!-- Node9&#45;&gt;Node10 -->
<g id="edge10" class="edge">
<title>Node9&#45;&gt;Node10</title>
<path fill="none" stroke="midnightblue" d="M246.74,-56.32C236.73,-48.26 221.61,-36.08 209.57,-26.37"/>
<polygon fill="midnightblue" stroke="midnightblue" points="211.44,-23.38 201.46,-19.83 207.05,-28.83 211.44,-23.38"/>
</g>
<!-- Node11 -->
<g id="node11" class="node">
<title>Node11</title>
<g id="a_node11"><a xlink:title=" ">
<polygon fill="white" stroke="#bfbfbf" points="233,-0.5 233,-19.5 280,-19.5 280,-0.5 233,-0.5"/>
<text text-anchor="middle" x="256.5" y="-7.5" font-family="Helvetica,sans-Serif" font-size="10.00">stdlib.h</text>
</a>
</g>
</g>
<!-- Node9&#45;&gt;Node11 -->
<g id="edge11" class="edge">
<title>Node9&#45;&gt;Node11</title>
<path fill="none" stroke="midnightblue" d="M257.33,-56.08C257.2,-49.01 257.02,-38.86 256.85,-29.99"/>
<polygon fill="midnightblue" stroke="midnightblue" points="260.35,-29.68 256.66,-19.75 253.35,-29.81 260.35,-29.68"/>
</g>
<!-- Node12 -->
<g id="node12" class="node">
<title>Node12</title>
<g id="a_node12"><a xlink:title=" ">
<polygon fill="white" stroke="#bfbfbf" points="298,-0.5 298,-19.5 339,-19.5 339,-0.5 298,-0.5"/>
<text text-anchor="middle" x="318.5" y="-7.5" font-family="Helvetica,sans-Serif" font-size="10.00">string</text>
</a>
</g>
</g>
<!-- Node9&#45;&gt;Node12 -->
<g id="edge13" class="edge">
<title>Node9&#45;&gt;Node12</title>
<path fill="none" stroke="midnightblue" d="M267.3,-56.32C276.32,-48.34 289.91,-36.31 300.82,-26.65"/>
<polygon fill="midnightblue" stroke="midnightblue" points="303.35,-29.08 308.52,-19.83 298.71,-23.84 303.35,-29.08"/>
</g>
</g>
</svg>
