<?xml version="1.0" encoding="UTF-8" standalone="no"?>
<!DOCTYPE svg PUBLIC "-//W3C//DTD SVG 1.1//EN"
 "http://www.w3.org/Graphics/SVG/1.1/DTD/svg11.dtd">
<!-- Generated by graphviz version 2.44.0 ()
 -->
<!-- Title: include/cppgc/heap.h Pages: 1 -->
<svg width="299pt" height="218pt"
 viewBox="0.00 0.00 298.50 218.00" xmlns="http://www.w3.org/2000/svg" xmlns:xlink="http://www.w3.org/1999/xlink">
<g id="graph0" class="graph" transform="scale(1 1) rotate(0) translate(4 214)">
<title>include/cppgc/heap.h</title>
<polygon fill="white" stroke="transparent" points="-4,4 -4,-214 294.5,-214 294.5,4 -4,4"/>
<!-- Node1 -->
<g id="node1" class="node">
<title>Node1</title>
<g id="a_node1"><a xlink:title=" ">
<polygon fill="#bfbfbf" stroke="black" points="44.5,-190.5 44.5,-209.5 152.5,-209.5 152.5,-190.5 44.5,-190.5"/>
<text text-anchor="middle" x="98.5" y="-197.5" font-family="Helvetica,sans-Serif" font-size="10.00">include/cppgc/heap.h</text>
</a>
</g>
</g>
<!-- Node2 -->
<g id="node2" class="node">
<title>Node2</title>
<g id="a_node2"><a xlink:href="prefinalizer-handler_8h.html" target="_top" xlink:title=" ">
<polygon fill="white" stroke="black" points="1,-56.5 1,-86.5 112,-86.5 112,-56.5 1,-56.5"/>
<text text-anchor="start" x="9" y="-74.5" font-family="Helvetica,sans-Serif" font-size="10.00">include/cppgc/internal</text>
<text text-anchor="middle" x="56.5" y="-63.5" font-family="Helvetica,sans-Serif" font-size="10.00">/prefinalizer&#45;handler.h</text>
</a>
</g>
</g>
<!-- Node1&#45;&gt;Node2 -->
<g id="edge1" class="edge">
<title>Node1&#45;&gt;Node2</title>
<path fill="none" stroke="midnightblue" d="M87.74,-181.51C83.11,-173.38 77.99,-163.45 74.5,-154 66.07,-131.16 60.95,-103.2 58.43,-86.67"/>
<polygon fill="midnightblue" stroke="midnightblue" points="84.87,-183.54 92.98,-190.37 90.9,-179.98 84.87,-183.54"/>
</g>
<!-- Node4 -->
<g id="node4" class="node">
<title>Node4</title>
<g id="a_node4"><a xlink:href="liveness-broker_8h.html" target="_top" xlink:title=" ">
<polygon fill="white" stroke="black" points="83.5,-123.5 83.5,-153.5 199.5,-153.5 199.5,-123.5 83.5,-123.5"/>
<text text-anchor="start" x="91.5" y="-141.5" font-family="Helvetica,sans-Serif" font-size="10.00">include/cppgc/liveness</text>
<text text-anchor="middle" x="141.5" y="-130.5" font-family="Helvetica,sans-Serif" font-size="10.00">&#45;broker.h</text>
</a>
</g>
</g>
<!-- Node1&#45;&gt;Node4 -->
<g id="edge3" class="edge">
<title>Node1&#45;&gt;Node4</title>
<path fill="none" stroke="midnightblue" d="M110.61,-182.25C117.16,-173.19 125.15,-162.12 131.37,-153.52"/>
<polygon fill="midnightblue" stroke="midnightblue" points="107.68,-180.32 104.66,-190.48 113.36,-184.42 107.68,-180.32"/>
</g>
<!-- Node3 -->
<g id="node3" class="node">
<title>Node3</title>
<g id="a_node3"><a xlink:href="prefinalizer_8h.html" target="_top" xlink:title=" ">
<polygon fill="white" stroke="black" points="0,-0.5 0,-19.5 133,-19.5 133,-0.5 0,-0.5"/>
<text text-anchor="middle" x="66.5" y="-7.5" font-family="Helvetica,sans-Serif" font-size="10.00">include/cppgc/prefinalizer.h</text>
</a>
</g>
</g>
<!-- Node2&#45;&gt;Node3 -->
<g id="edge2" class="edge">
<title>Node2&#45;&gt;Node3</title>
<path fill="none" stroke="midnightblue" d="M60.57,-46.29C62.15,-36.86 63.87,-26.65 65.04,-19.66"/>
<polygon fill="midnightblue" stroke="midnightblue" points="57.08,-45.96 58.87,-56.4 63.98,-47.12 57.08,-45.96"/>
</g>
<!-- Node4&#45;&gt;Node2 -->
<g id="edge4" class="edge">
<title>Node4&#45;&gt;Node2</title>
<path fill="none" stroke="midnightblue" d="M114.91,-117.17C101.91,-107.23 86.6,-95.51 74.91,-86.58"/>
<polygon fill="midnightblue" stroke="midnightblue" points="112.99,-120.1 123.06,-123.4 117.24,-114.54 112.99,-120.1"/>
</g>
<!-- Node4&#45;&gt;Node3 -->
<g id="edge7" class="edge">
<title>Node4&#45;&gt;Node3</title>
<path fill="none" stroke="midnightblue" d="M139.22,-113.21C136.71,-96.13 131.46,-73.32 120.5,-56 110.71,-40.53 93.86,-27.74 81.57,-19.8"/>
<polygon fill="midnightblue" stroke="midnightblue" points="135.8,-114.01 140.51,-123.49 142.74,-113.14 135.8,-114.01"/>
</g>
<!-- Node5 -->
<g id="node5" class="node">
<title>Node5</title>
<g id="a_node5"><a xlink:href="visitor_8h.html" target="_top" xlink:title=" ">
<polygon fill="white" stroke="black" points="169,-62 169,-81 282,-81 282,-62 169,-62"/>
<text text-anchor="middle" x="225.5" y="-69" font-family="Helvetica,sans-Serif" font-size="10.00">include/cppgc/visitor.h</text>
</a>
</g>
</g>
<!-- Node4&#45;&gt;Node5 -->
<g id="edge5" class="edge">
<title>Node4&#45;&gt;Node5</title>
<path fill="none" stroke="midnightblue" d="M167.98,-117.01C183.58,-104.94 202.49,-90.3 214.26,-81.19"/>
<polygon fill="midnightblue" stroke="midnightblue" points="165.49,-114.51 159.73,-123.4 169.78,-120.04 165.49,-114.51"/>
</g>
<!-- Node6 -->
<g id="node6" class="node">
<title>Node6</title>
<g id="a_node6"><a xlink:href="persistent_8h.html" target="_top" xlink:title=" ">
<polygon fill="white" stroke="black" points="160.5,-0.5 160.5,-19.5 290.5,-19.5 290.5,-0.5 160.5,-0.5"/>
<text text-anchor="middle" x="225.5" y="-7.5" font-family="Helvetica,sans-Serif" font-size="10.00">include/cppgc/persistent.h</text>
</a>
</g>
</g>
<!-- Node5&#45;&gt;Node6 -->
<g id="edge6" class="edge">
<title>Node5&#45;&gt;Node6</title>
<path fill="none" stroke="midnightblue" d="M225.5,-51.82C225.5,-41 225.5,-27.9 225.5,-19.51"/>
<polygon fill="midnightblue" stroke="midnightblue" points="222,-51.98 225.5,-61.98 229,-51.98 222,-51.98"/>
</g>
</g>
</svg>
