<?xml version="1.0" encoding="UTF-8" standalone="no"?>
<!DOCTYPE svg PUBLIC "-//W3C//DTD SVG 1.1//EN"
 "http://www.w3.org/Graphics/SVG/1.1/DTD/svg11.dtd">
<!-- Generated by graphviz version 2.44.0 ()
 -->
<!-- Title: include/libplatform/libplatform.h Pages: 1 -->
<svg width="646pt" height="218pt"
 viewBox="0.00 0.00 646.14 218.00" xmlns="http://www.w3.org/2000/svg" xmlns:xlink="http://www.w3.org/1999/xlink">
<g id="graph0" class="graph" transform="scale(1 1) rotate(0) translate(4 214)">
<title>include/libplatform/libplatform.h</title>
<polygon fill="white" stroke="transparent" points="-4,4 -4,-214 642.14,-214 642.14,4 -4,4"/>
<!-- Node1 -->
<g id="node1" class="node">
<title>Node1</title>
<g id="a_node1"><a xlink:title=" ">
<polygon fill="#bfbfbf" stroke="black" points="222.64,-179.5 222.64,-209.5 317.64,-209.5 317.64,-179.5 222.64,-179.5"/>
<text text-anchor="start" x="230.64" y="-197.5" font-family="Helvetica,sans-Serif" font-size="10.00">include/libplatform</text>
<text text-anchor="middle" x="270.14" y="-186.5" font-family="Helvetica,sans-Serif" font-size="10.00">/libplatform.h</text>
</a>
</g>
</g>
<!-- Node2 -->
<g id="node2" class="node">
<title>Node2</title>
<g id="a_node2"><a xlink:title=" ">
<polygon fill="white" stroke="#bfbfbf" points="127.64,-0.5 127.64,-19.5 178.64,-19.5 178.64,-0.5 127.64,-0.5"/>
<text text-anchor="middle" x="153.14" y="-7.5" font-family="Helvetica,sans-Serif" font-size="10.00">memory</text>
</a>
</g>
</g>
<!-- Node1&#45;&gt;Node2 -->
<g id="edge1" class="edge">
<title>Node1&#45;&gt;Node2</title>
<path fill="none" stroke="midnightblue" d="M222.64,-189.86C160.73,-182.27 54.66,-158.89 6.14,-87 -23.39,-43.24 65.2,-23.15 117.57,-15.29"/>
<polygon fill="midnightblue" stroke="midnightblue" points="118.1,-18.75 127.51,-13.88 117.12,-11.82 118.1,-18.75"/>
</g>
<!-- Node3 -->
<g id="node3" class="node">
<title>Node3</title>
<g id="a_node3"><a xlink:href="libplatform-export_8h.html" target="_top" xlink:title=" ">
<polygon fill="white" stroke="black" points="15.14,-56.5 15.14,-86.5 125.14,-86.5 125.14,-56.5 15.14,-56.5"/>
<text text-anchor="start" x="23.14" y="-74.5" font-family="Helvetica,sans-Serif" font-size="10.00">libplatform/libplatform</text>
<text text-anchor="middle" x="70.14" y="-63.5" font-family="Helvetica,sans-Serif" font-size="10.00">&#45;export.h</text>
</a>
</g>
</g>
<!-- Node1&#45;&gt;Node3 -->
<g id="edge2" class="edge">
<title>Node1&#45;&gt;Node3</title>
<path fill="none" stroke="midnightblue" d="M246.81,-179.38C210.98,-157.71 142.34,-116.18 101.97,-91.76"/>
<polygon fill="midnightblue" stroke="midnightblue" points="103.69,-88.71 93.33,-86.53 100.07,-94.7 103.69,-88.71"/>
</g>
<!-- Node4 -->
<g id="node4" class="node">
<title>Node4</title>
<g id="a_node4"><a xlink:href="v8-tracing_8h.html" target="_top" xlink:title=" ">
<polygon fill="white" stroke="black" points="212.64,-123.5 212.64,-142.5 327.64,-142.5 327.64,-123.5 212.64,-123.5"/>
<text text-anchor="middle" x="270.14" y="-130.5" font-family="Helvetica,sans-Serif" font-size="10.00">libplatform/v8&#45;tracing.h</text>
</a>
</g>
</g>
<!-- Node1&#45;&gt;Node4 -->
<g id="edge3" class="edge">
<title>Node1&#45;&gt;Node4</title>
<path fill="none" stroke="midnightblue" d="M270.14,-179.4C270.14,-171.47 270.14,-161.46 270.14,-152.86"/>
<polygon fill="midnightblue" stroke="midnightblue" points="273.64,-152.66 270.14,-142.66 266.64,-152.66 273.64,-152.66"/>
</g>
<!-- Node9 -->
<g id="node9" class="node">
<title>Node9</title>
<g id="a_node9"><a xlink:href="v8-platform_8h.html" target="_top" xlink:title=" ">
<polygon fill="white" stroke="black" points="471.64,-62 471.64,-81 544.64,-81 544.64,-62 471.64,-62"/>
<text text-anchor="middle" x="508.14" y="-69" font-family="Helvetica,sans-Serif" font-size="10.00">v8&#45;platform.h</text>
</a>
</g>
</g>
<!-- Node1&#45;&gt;Node9 -->
<g id="edge17" class="edge">
<title>Node1&#45;&gt;Node9</title>
<path fill="none" stroke="midnightblue" d="M297.91,-179.38C344.29,-155.8 436.88,-108.73 482.09,-85.74"/>
<polygon fill="midnightblue" stroke="midnightblue" points="483.91,-88.74 491.24,-81.09 480.74,-82.5 483.91,-88.74"/>
</g>
<!-- Node14 -->
<g id="node14" class="node">
<title>Node14</title>
<g id="a_node14"><a xlink:href="v8config_8h.html" target="_top" xlink:title=" ">
<polygon fill="white" stroke="black" points="578.14,-0.5 578.14,-19.5 638.14,-19.5 638.14,-0.5 578.14,-0.5"/>
<text text-anchor="middle" x="608.14" y="-7.5" font-family="Helvetica,sans-Serif" font-size="10.00">v8config.h</text>
</a>
</g>
</g>
<!-- Node1&#45;&gt;Node14 -->
<g id="edge18" class="edge">
<title>Node1&#45;&gt;Node14</title>
<path fill="none" stroke="midnightblue" d="M317.84,-184.64C377.93,-171.58 482.05,-142.48 554.14,-87 574.62,-71.24 590.56,-45.57 599.66,-28.49"/>
<polygon fill="midnightblue" stroke="midnightblue" points="602.78,-30.06 604.2,-19.56 596.55,-26.89 602.78,-30.06"/>
</g>
<!-- Node4&#45;&gt;Node2 -->
<g id="edge6" class="edge">
<title>Node4&#45;&gt;Node2</title>
<path fill="none" stroke="midnightblue" d="M233.1,-123.49C212.33,-116.87 187.56,-105.59 172.14,-87 158.73,-70.84 154.59,-46.54 153.41,-29.78"/>
<polygon fill="midnightblue" stroke="midnightblue" points="156.9,-29.43 152.99,-19.58 149.9,-29.72 156.9,-29.43"/>
</g>
<!-- Node4&#45;&gt;Node3 -->
<g id="edge9" class="edge">
<title>Node4&#45;&gt;Node3</title>
<path fill="none" stroke="midnightblue" d="M241.49,-123.48C211.74,-114.63 164.42,-100.55 127.04,-89.43"/>
<polygon fill="midnightblue" stroke="midnightblue" points="127.86,-86.02 117.28,-86.52 125.86,-92.73 127.86,-86.02"/>
</g>
<!-- Node5 -->
<g id="node5" class="node">
<title>Node5</title>
<g id="a_node5"><a xlink:title=" ">
<polygon fill="white" stroke="#bfbfbf" points="181.14,-62 181.14,-81 227.14,-81 227.14,-62 181.14,-62"/>
<text text-anchor="middle" x="204.14" y="-69" font-family="Helvetica,sans-Serif" font-size="10.00">atomic</text>
</a>
</g>
</g>
<!-- Node4&#45;&gt;Node5 -->
<g id="edge4" class="edge">
<title>Node4&#45;&gt;Node5</title>
<path fill="none" stroke="midnightblue" d="M260.68,-123.48C250.39,-114.2 233.72,-99.17 221.15,-87.83"/>
<polygon fill="midnightblue" stroke="midnightblue" points="223.35,-85.11 213.58,-81.01 218.66,-90.3 223.35,-85.11"/>
</g>
<!-- Node6 -->
<g id="node6" class="node">
<title>Node6</title>
<g id="a_node6"><a xlink:title=" ">
<polygon fill="white" stroke="#bfbfbf" points="245.14,-62 245.14,-81 295.14,-81 295.14,-62 245.14,-62"/>
<text text-anchor="middle" x="270.14" y="-69" font-family="Helvetica,sans-Serif" font-size="10.00">fstream</text>
</a>
</g>
</g>
<!-- Node4&#45;&gt;Node6 -->
<g id="edge5" class="edge">
<title>Node4&#45;&gt;Node6</title>
<path fill="none" stroke="midnightblue" d="M270.14,-123.48C270.14,-115.08 270.14,-101.98 270.14,-91.16"/>
<polygon fill="midnightblue" stroke="midnightblue" points="273.64,-91.01 270.14,-81.01 266.64,-91.01 273.64,-91.01"/>
</g>
<!-- Node7 -->
<g id="node7" class="node">
<title>Node7</title>
<g id="a_node7"><a xlink:title=" ">
<polygon fill="white" stroke="#bfbfbf" points="313.14,-62 313.14,-81 391.14,-81 391.14,-62 313.14,-62"/>
<text text-anchor="middle" x="352.14" y="-69" font-family="Helvetica,sans-Serif" font-size="10.00">unordered_set</text>
</a>
</g>
</g>
<!-- Node4&#45;&gt;Node7 -->
<g id="edge7" class="edge">
<title>Node4&#45;&gt;Node7</title>
<path fill="none" stroke="midnightblue" d="M281.89,-123.48C294.92,-114.02 316.18,-98.6 331.9,-87.19"/>
<polygon fill="midnightblue" stroke="midnightblue" points="334.38,-89.71 340.41,-81.01 330.26,-84.05 334.38,-89.71"/>
</g>
<!-- Node8 -->
<g id="node8" class="node">
<title>Node8</title>
<g id="a_node8"><a xlink:title=" ">
<polygon fill="white" stroke="#bfbfbf" points="409.14,-62 409.14,-81 453.14,-81 453.14,-62 409.14,-62"/>
<text text-anchor="middle" x="431.14" y="-69" font-family="Helvetica,sans-Serif" font-size="10.00">vector</text>
</a>
</g>
</g>
<!-- Node4&#45;&gt;Node8 -->
<g id="edge8" class="edge">
<title>Node4&#45;&gt;Node8</title>
<path fill="none" stroke="midnightblue" d="M297.59,-123.42C324.11,-114.91 365.28,-101.14 400.14,-87 401.52,-86.44 402.92,-85.85 404.33,-85.25"/>
<polygon fill="midnightblue" stroke="midnightblue" points="405.88,-88.39 413.58,-81.1 403.02,-82 405.88,-88.39"/>
</g>
<!-- Node4&#45;&gt;Node9 -->
<g id="edge10" class="edge">
<title>Node4&#45;&gt;Node9</title>
<path fill="none" stroke="midnightblue" d="M310.44,-123.48C349.45,-115.01 410.14,-101.27 462.14,-87 465.47,-86.09 468.92,-85.09 472.37,-84.06"/>
<polygon fill="midnightblue" stroke="midnightblue" points="473.43,-87.4 481.97,-81.12 471.38,-80.7 473.43,-87.4"/>
</g>
<!-- Node9&#45;&gt;Node2 -->
<g id="edge14" class="edge">
<title>Node9&#45;&gt;Node2</title>
<path fill="none" stroke="midnightblue" d="M483.51,-61.94C476.65,-59.77 469.16,-57.61 462.14,-56 364.63,-33.68 247.16,-20.16 189.16,-14.35"/>
<polygon fill="midnightblue" stroke="midnightblue" points="189.33,-10.85 179.04,-13.35 188.65,-17.81 189.33,-10.85"/>
</g>
<!-- Node10 -->
<g id="node10" class="node">
<title>Node10</title>
<g id="a_node10"><a xlink:title=" ">
<polygon fill="white" stroke="#bfbfbf" points="317.64,-0.5 317.64,-19.5 368.64,-19.5 368.64,-0.5 317.64,-0.5"/>
<text text-anchor="middle" x="343.14" y="-7.5" font-family="Helvetica,sans-Serif" font-size="10.00">stddef.h</text>
</a>
</g>
</g>
<!-- Node9&#45;&gt;Node10 -->
<g id="edge11" class="edge">
<title>Node9&#45;&gt;Node10</title>
<path fill="none" stroke="midnightblue" d="M484.5,-61.98C456.2,-51.77 408.61,-34.61 376.55,-23.05"/>
<polygon fill="midnightblue" stroke="midnightblue" points="377.33,-19.61 366.74,-19.51 374.96,-26.19 377.33,-19.61"/>
</g>
<!-- Node11 -->
<g id="node11" class="node">
<title>Node11</title>
<g id="a_node11"><a xlink:title=" ">
<polygon fill="white" stroke="#bfbfbf" points="387.14,-0.5 387.14,-19.5 435.14,-19.5 435.14,-0.5 387.14,-0.5"/>
<text text-anchor="middle" x="411.14" y="-7.5" font-family="Helvetica,sans-Serif" font-size="10.00">stdint.h</text>
</a>
</g>
</g>
<!-- Node9&#45;&gt;Node11 -->
<g id="edge12" class="edge">
<title>Node9&#45;&gt;Node11</title>
<path fill="none" stroke="midnightblue" d="M494.24,-61.98C478.47,-52.3 452.5,-36.37 433.79,-24.89"/>
<polygon fill="midnightblue" stroke="midnightblue" points="435.37,-21.75 425.01,-19.51 431.71,-27.72 435.37,-21.75"/>
</g>
<!-- Node12 -->
<g id="node12" class="node">
<title>Node12</title>
<g id="a_node12"><a xlink:title=" ">
<polygon fill="white" stroke="#bfbfbf" points="453.64,-0.5 453.64,-19.5 500.64,-19.5 500.64,-0.5 453.64,-0.5"/>
<text text-anchor="middle" x="477.14" y="-7.5" font-family="Helvetica,sans-Serif" font-size="10.00">stdlib.h</text>
</a>
</g>
</g>
<!-- Node9&#45;&gt;Node12 -->
<g id="edge13" class="edge">
<title>Node9&#45;&gt;Node12</title>
<path fill="none" stroke="midnightblue" d="M503.7,-61.98C499.19,-53.32 492.07,-39.65 486.33,-28.65"/>
<polygon fill="midnightblue" stroke="midnightblue" points="489.3,-26.76 481.57,-19.51 483.09,-29.99 489.3,-26.76"/>
</g>
<!-- Node13 -->
<g id="node13" class="node">
<title>Node13</title>
<g id="a_node13"><a xlink:title=" ">
<polygon fill="white" stroke="#bfbfbf" points="518.64,-0.5 518.64,-19.5 559.64,-19.5 559.64,-0.5 518.64,-0.5"/>
<text text-anchor="middle" x="539.14" y="-7.5" font-family="Helvetica,sans-Serif" font-size="10.00">string</text>
</a>
</g>
</g>
<!-- Node9&#45;&gt;Node13 -->
<g id="edge15" class="edge">
<title>Node9&#45;&gt;Node13</title>
<path fill="none" stroke="midnightblue" d="M512.58,-61.98C517.09,-53.32 524.21,-39.65 529.95,-28.65"/>
<polygon fill="midnightblue" stroke="midnightblue" points="533.19,-29.99 534.71,-19.51 526.98,-26.76 533.19,-29.99"/>
</g>
<!-- Node9&#45;&gt;Node14 -->
<g id="edge16" class="edge">
<title>Node9&#45;&gt;Node14</title>
<path fill="none" stroke="midnightblue" d="M522.47,-61.98C538.8,-52.25 565.74,-36.23 585.05,-24.74"/>
<polygon fill="midnightblue" stroke="midnightblue" points="587.04,-27.63 593.84,-19.51 583.46,-21.61 587.04,-27.63"/>
</g>
</g>
</svg>
