<?xml version="1.0" encoding="UTF-8" standalone="no"?>
<!DOCTYPE svg PUBLIC "-//W3C//DTD SVG 1.1//EN"
 "http://www.w3.org/Graphics/SVG/1.1/DTD/svg11.dtd">
<!-- Generated by graphviz version 2.44.0 ()
 -->
<!-- Title: include/cppgc/liveness&#45;broker.h Pages: 1 -->
<svg width="1163pt" height="419pt"
 viewBox="0.00 0.00 1162.52 419.00" xmlns="http://www.w3.org/2000/svg" xmlns:xlink="http://www.w3.org/1999/xlink">
<g id="graph0" class="graph" transform="scale(1 1) rotate(0) translate(4 415)">
<title>include/cppgc/liveness&#45;broker.h</title>
<polygon fill="white" stroke="transparent" points="-4,4 -4,-415 1158.52,-415 1158.52,4 -4,4"/>
<!-- Node1 -->
<g id="node1" class="node">
<title>Node1</title>
<g id="a_node1"><a xlink:title=" ">
<polygon fill="#bfbfbf" stroke="black" points="670.57,-380.5 670.57,-410.5 786.57,-410.5 786.57,-380.5 670.57,-380.5"/>
<text text-anchor="start" x="678.57" y="-398.5" font-family="Helvetica,sans-Serif" font-size="10.00">include/cppgc/liveness</text>
<text text-anchor="middle" x="728.57" y="-387.5" font-family="Helvetica,sans-Serif" font-size="10.00">&#45;broker.h</text>
</a>
</g>
</g>
<!-- Node2 -->
<g id="node2" class="node">
<title>Node2</title>
<g id="a_node2"><a xlink:href="heap_8h.html" target="_top" xlink:title=" ">
<polygon fill="white" stroke="black" points="288.57,-263 288.57,-282 362.57,-282 362.57,-263 288.57,-263"/>
<text text-anchor="middle" x="325.57" y="-270" font-family="Helvetica,sans-Serif" font-size="10.00">cppgc/heap.h</text>
</a>
</g>
</g>
<!-- Node1&#45;&gt;Node2 -->
<g id="edge1" class="edge">
<title>Node1&#45;&gt;Node2</title>
<path fill="none" stroke="midnightblue" d="M670.36,-380.73C631.2,-371.17 578.53,-357.73 532.57,-344 470.36,-325.42 398.9,-300.21 358.3,-285.51"/>
<polygon fill="midnightblue" stroke="midnightblue" points="359.26,-282.14 348.67,-282.01 356.87,-288.71 359.26,-282.14"/>
</g>
<!-- Node6 -->
<g id="node6" class="node">
<title>Node6</title>
<g id="a_node6"><a xlink:href="v8config_8h.html" target="_top" xlink:title=" ">
<polygon fill="white" stroke="black" points="516.57,-62 516.57,-81 576.57,-81 576.57,-62 516.57,-62"/>
<text text-anchor="middle" x="546.57" y="-69" font-family="Helvetica,sans-Serif" font-size="10.00">v8config.h</text>
</a>
</g>
</g>
<!-- Node1&#45;&gt;Node6 -->
<g id="edge45" class="edge">
<title>Node1&#45;&gt;Node6</title>
<path fill="none" stroke="midnightblue" d="M670.48,-381.68C617.22,-366.1 546.57,-334.02 546.57,-273.5 546.57,-273.5 546.57,-273.5 546.57,-204.5 546.57,-164.16 546.57,-116.88 546.57,-91.28"/>
<polygon fill="midnightblue" stroke="midnightblue" points="550.07,-91.15 546.57,-81.15 543.07,-91.15 550.07,-91.15"/>
</g>
<!-- Node14 -->
<g id="node14" class="node">
<title>Node14</title>
<g id="a_node14"><a xlink:href="member_8h.html" target="_top" xlink:title=" ">
<polygon fill="white" stroke="black" points="866.07,-324.5 866.07,-343.5 955.07,-343.5 955.07,-324.5 866.07,-324.5"/>
<text text-anchor="middle" x="910.57" y="-331.5" font-family="Helvetica,sans-Serif" font-size="10.00">cppgc/member.h</text>
</a>
</g>
</g>
<!-- Node1&#45;&gt;Node14 -->
<g id="edge18" class="edge">
<title>Node1&#45;&gt;Node14</title>
<path fill="none" stroke="midnightblue" d="M771.7,-380.4C803.15,-370.12 845.26,-356.35 874.84,-346.68"/>
<polygon fill="midnightblue" stroke="midnightblue" points="875.93,-350.01 884.35,-343.57 873.76,-343.35 875.93,-350.01"/>
</g>
<!-- Node26 -->
<g id="node26" class="node">
<title>Node26</title>
<g id="a_node26"><a xlink:href="trace-trait_8h.html" target="_top" xlink:title=" ">
<polygon fill="white" stroke="black" points="1045.07,-324.5 1045.07,-343.5 1140.07,-343.5 1140.07,-324.5 1045.07,-324.5"/>
<text text-anchor="middle" x="1092.57" y="-331.5" font-family="Helvetica,sans-Serif" font-size="10.00">cppgc/trace&#45;trait.h</text>
</a>
</g>
</g>
<!-- Node1&#45;&gt;Node26 -->
<g id="edge42" class="edge">
<title>Node1&#45;&gt;Node26</title>
<path fill="none" stroke="midnightblue" d="M786.65,-385.01C854.71,-373.88 966.8,-355.56 1034.75,-344.45"/>
<polygon fill="midnightblue" stroke="midnightblue" points="1035.55,-347.87 1044.86,-342.8 1034.42,-340.96 1035.55,-347.87"/>
</g>
<!-- Node3 -->
<g id="node3" class="node">
<title>Node3</title>
<g id="a_node3"><a xlink:title=" ">
<polygon fill="white" stroke="#bfbfbf" points="9.07,-62 9.07,-81 60.07,-81 60.07,-62 9.07,-62"/>
<text text-anchor="middle" x="34.57" y="-69" font-family="Helvetica,sans-Serif" font-size="10.00">memory</text>
</a>
</g>
</g>
<!-- Node2&#45;&gt;Node3 -->
<g id="edge2" class="edge">
<title>Node2&#45;&gt;Node3</title>
<path fill="none" stroke="midnightblue" d="M288.3,-270.84C218.51,-267.34 69.38,-248.56 5.57,-154 -8.02,-133.86 7.15,-106.62 20.16,-89.3"/>
<polygon fill="midnightblue" stroke="midnightblue" points="23.09,-91.24 26.6,-81.24 17.62,-86.87 23.09,-91.24"/>
</g>
<!-- Node4 -->
<g id="node4" class="node">
<title>Node4</title>
<g id="a_node4"><a xlink:title=" ">
<polygon fill="white" stroke="#bfbfbf" points="180.57,-196 180.57,-215 224.57,-215 224.57,-196 180.57,-196"/>
<text text-anchor="middle" x="202.57" y="-203" font-family="Helvetica,sans-Serif" font-size="10.00">vector</text>
</a>
</g>
</g>
<!-- Node2&#45;&gt;Node4 -->
<g id="edge3" class="edge">
<title>Node2&#45;&gt;Node4</title>
<path fill="none" stroke="midnightblue" d="M309.24,-262.87C288.47,-251.89 252.38,-232.82 228,-219.94"/>
<polygon fill="midnightblue" stroke="midnightblue" points="229.45,-216.75 218.97,-215.17 226.18,-222.93 229.45,-216.75"/>
</g>
<!-- Node5 -->
<g id="node5" class="node">
<title>Node5</title>
<g id="a_node5"><a xlink:href="common_8h.html" target="_top" xlink:title=" ">
<polygon fill="white" stroke="black" points="427.07,-129 427.07,-148 518.07,-148 518.07,-129 427.07,-129"/>
<text text-anchor="middle" x="472.57" y="-136" font-family="Helvetica,sans-Serif" font-size="10.00">cppgc/common.h</text>
</a>
</g>
</g>
<!-- Node2&#45;&gt;Node5 -->
<g id="edge4" class="edge">
<title>Node2&#45;&gt;Node5</title>
<path fill="none" stroke="midnightblue" d="M345.38,-262.9C364.06,-254.15 392.16,-239.31 412.57,-221 433.76,-202 452.16,-174.41 462.81,-156.71"/>
<polygon fill="midnightblue" stroke="midnightblue" points="465.87,-158.41 467.9,-148.01 459.83,-154.87 465.87,-158.41"/>
</g>
<!-- Node2&#45;&gt;Node6 -->
<g id="edge17" class="edge">
<title>Node2&#45;&gt;Node6</title>
<path fill="none" stroke="midnightblue" d="M337.1,-262.97C348.88,-253.75 367.04,-238.06 378.57,-221 404.81,-182.16 384.33,-156.05 417.57,-123 441.64,-99.06 478.39,-86.17 506.52,-79.42"/>
<polygon fill="midnightblue" stroke="midnightblue" points="507.45,-82.79 516.45,-77.2 505.93,-75.96 507.45,-82.79"/>
</g>
<!-- Node7 -->
<g id="node7" class="node">
<title>Node7</title>
<g id="a_node7"><a xlink:href="custom-space_8h.html" target="_top" xlink:title=" ">
<polygon fill="white" stroke="black" points="15.07,-129 15.07,-148 130.07,-148 130.07,-129 15.07,-129"/>
<text text-anchor="middle" x="72.57" y="-136" font-family="Helvetica,sans-Serif" font-size="10.00">cppgc/custom&#45;space.h</text>
</a>
</g>
</g>
<!-- Node2&#45;&gt;Node7 -->
<g id="edge6" class="edge">
<title>Node2&#45;&gt;Node7</title>
<path fill="none" stroke="midnightblue" d="M316.27,-262.86C294.81,-242.98 242.95,-195.3 233.57,-190 213.23,-178.51 155.75,-161.73 115.3,-150.72"/>
<polygon fill="midnightblue" stroke="midnightblue" points="115.98,-147.28 105.41,-148.05 114.15,-154.04 115.98,-147.28"/>
</g>
<!-- Node9 -->
<g id="node9" class="node">
<title>Node9</title>
<g id="a_node9"><a xlink:href="platform_8h.html" target="_top" xlink:title=" ">
<polygon fill="white" stroke="black" points="281.07,-196 281.07,-215 370.07,-215 370.07,-196 281.07,-196"/>
<text text-anchor="middle" x="325.57" y="-203" font-family="Helvetica,sans-Serif" font-size="10.00">cppgc/platform.h</text>
</a>
</g>
</g>
<!-- Node2&#45;&gt;Node9 -->
<g id="edge8" class="edge">
<title>Node2&#45;&gt;Node9</title>
<path fill="none" stroke="midnightblue" d="M325.57,-262.73C325.57,-253.18 325.57,-237.62 325.57,-225.28"/>
<polygon fill="midnightblue" stroke="midnightblue" points="329.07,-225.13 325.57,-215.13 322.07,-225.13 329.07,-225.13"/>
</g>
<!-- Node5&#45;&gt;Node6 -->
<g id="edge5" class="edge">
<title>Node5&#45;&gt;Node6</title>
<path fill="none" stroke="midnightblue" d="M482.55,-128.73C494.42,-118.31 514.45,-100.71 528.95,-87.97"/>
<polygon fill="midnightblue" stroke="midnightblue" points="531.54,-90.36 536.75,-81.13 526.92,-85.1 531.54,-90.36"/>
</g>
<!-- Node8 -->
<g id="node8" class="node">
<title>Node8</title>
<g id="a_node8"><a xlink:title=" ">
<polygon fill="white" stroke="#bfbfbf" points="109.07,-62 109.07,-81 160.07,-81 160.07,-62 109.07,-62"/>
<text text-anchor="middle" x="134.57" y="-69" font-family="Helvetica,sans-Serif" font-size="10.00">stddef.h</text>
</a>
</g>
</g>
<!-- Node7&#45;&gt;Node8 -->
<g id="edge7" class="edge">
<title>Node7&#45;&gt;Node8</title>
<path fill="none" stroke="midnightblue" d="M80.93,-128.73C90.69,-118.5 107.04,-101.36 119.12,-88.69"/>
<polygon fill="midnightblue" stroke="midnightblue" points="121.97,-90.78 126.34,-81.13 116.91,-85.95 121.97,-90.78"/>
</g>
<!-- Node9&#45;&gt;Node6 -->
<g id="edge16" class="edge">
<title>Node9&#45;&gt;Node6</title>
<path fill="none" stroke="midnightblue" d="M329.43,-195.95C337.36,-179.38 357.05,-142.78 384.57,-123 420.99,-96.82 471.39,-83.92 506.26,-77.76"/>
<polygon fill="midnightblue" stroke="midnightblue" points="507.25,-81.14 516.55,-76.06 506.11,-74.24 507.25,-81.14"/>
</g>
<!-- Node10 -->
<g id="node10" class="node">
<title>Node10</title>
<g id="a_node10"><a xlink:href="v8-platform_8h.html" target="_top" xlink:title=" ">
<polygon fill="white" stroke="black" points="148.07,-129 148.07,-148 221.07,-148 221.07,-129 148.07,-129"/>
<text text-anchor="middle" x="184.57" y="-136" font-family="Helvetica,sans-Serif" font-size="10.00">v8&#45;platform.h</text>
</a>
</g>
</g>
<!-- Node9&#45;&gt;Node10 -->
<g id="edge9" class="edge">
<title>Node9&#45;&gt;Node10</title>
<path fill="none" stroke="midnightblue" d="M306.85,-195.87C282.72,-184.75 240.57,-165.32 212.61,-152.43"/>
<polygon fill="midnightblue" stroke="midnightblue" points="213.92,-149.18 203.37,-148.17 210.99,-155.53 213.92,-149.18"/>
</g>
<!-- Node10&#45;&gt;Node3 -->
<g id="edge13" class="edge">
<title>Node10&#45;&gt;Node3</title>
<path fill="none" stroke="midnightblue" d="M164.65,-128.87C138.87,-117.7 93.75,-98.15 64.02,-85.26"/>
<polygon fill="midnightblue" stroke="midnightblue" points="65.14,-81.93 54.57,-81.17 62.35,-88.35 65.14,-81.93"/>
</g>
<!-- Node10&#45;&gt;Node6 -->
<g id="edge15" class="edge">
<title>Node10&#45;&gt;Node6</title>
<path fill="none" stroke="midnightblue" d="M208.66,-128.98C215.37,-126.82 222.7,-124.64 229.57,-123 281.49,-110.58 433.23,-88.47 506.31,-78.12"/>
<polygon fill="midnightblue" stroke="midnightblue" points="507.09,-81.55 516.5,-76.69 506.11,-74.62 507.09,-81.55"/>
</g>
<!-- Node10&#45;&gt;Node8 -->
<g id="edge10" class="edge">
<title>Node10&#45;&gt;Node8</title>
<path fill="none" stroke="midnightblue" d="M177.83,-128.73C170.03,-118.6 157.02,-101.69 147.3,-89.06"/>
<polygon fill="midnightblue" stroke="midnightblue" points="150.08,-86.92 141.21,-81.13 144.53,-91.19 150.08,-86.92"/>
</g>
<!-- Node11 -->
<g id="node11" class="node">
<title>Node11</title>
<g id="a_node11"><a xlink:title=" ">
<polygon fill="white" stroke="#bfbfbf" points="252.57,-62 252.57,-81 300.57,-81 300.57,-62 252.57,-62"/>
<text text-anchor="middle" x="276.57" y="-69" font-family="Helvetica,sans-Serif" font-size="10.00">stdint.h</text>
</a>
</g>
</g>
<!-- Node10&#45;&gt;Node11 -->
<g id="edge11" class="edge">
<title>Node10&#45;&gt;Node11</title>
<path fill="none" stroke="midnightblue" d="M196.98,-128.73C212.15,-118.01 238.05,-99.72 256.17,-86.91"/>
<polygon fill="midnightblue" stroke="midnightblue" points="258.21,-89.76 264.36,-81.13 254.17,-84.04 258.21,-89.76"/>
</g>
<!-- Node12 -->
<g id="node12" class="node">
<title>Node12</title>
<g id="a_node12"><a xlink:title=" ">
<polygon fill="white" stroke="#bfbfbf" points="178.07,-62 178.07,-81 225.07,-81 225.07,-62 178.07,-62"/>
<text text-anchor="middle" x="201.57" y="-69" font-family="Helvetica,sans-Serif" font-size="10.00">stdlib.h</text>
</a>
</g>
</g>
<!-- Node10&#45;&gt;Node12 -->
<g id="edge12" class="edge">
<title>Node10&#45;&gt;Node12</title>
<path fill="none" stroke="midnightblue" d="M186.86,-128.73C189.39,-119.09 193.51,-103.3 196.76,-90.91"/>
<polygon fill="midnightblue" stroke="midnightblue" points="200.17,-91.69 199.31,-81.13 193.4,-89.92 200.17,-91.69"/>
</g>
<!-- Node13 -->
<g id="node13" class="node">
<title>Node13</title>
<g id="a_node13"><a xlink:title=" ">
<polygon fill="white" stroke="#bfbfbf" points="393.07,-62 393.07,-81 434.07,-81 434.07,-62 393.07,-62"/>
<text text-anchor="middle" x="413.57" y="-69" font-family="Helvetica,sans-Serif" font-size="10.00">string</text>
</a>
</g>
</g>
<!-- Node10&#45;&gt;Node13 -->
<g id="edge14" class="edge">
<title>Node10&#45;&gt;Node13</title>
<path fill="none" stroke="midnightblue" d="M210.68,-128.87C216.86,-126.89 223.43,-124.83 229.57,-123 283.31,-106.98 346.44,-90.06 383.04,-80.44"/>
<polygon fill="midnightblue" stroke="midnightblue" points="384.28,-83.73 393.06,-77.81 382.5,-76.96 384.28,-83.73"/>
</g>
<!-- Node14&#45;&gt;Node6 -->
<g id="edge41" class="edge">
<title>Node14&#45;&gt;Node6</title>
<path fill="none" stroke="midnightblue" d="M866.61,-324.44C836.4,-317.4 796.03,-305.68 763.57,-288 682.41,-243.8 667.19,-221.96 604.57,-154 585.88,-133.71 568.05,-107.23 557.22,-90.05"/>
<polygon fill="midnightblue" stroke="midnightblue" points="559.93,-87.78 551.69,-81.12 553.98,-91.46 559.93,-87.78"/>
</g>
<!-- Node15 -->
<g id="node15" class="node">
<title>Node15</title>
<g id="a_node15"><a xlink:title=" ">
<polygon fill="white" stroke="#bfbfbf" points="905.57,-0.5 905.57,-19.5 951.57,-19.5 951.57,-0.5 905.57,-0.5"/>
<text text-anchor="middle" x="928.57" y="-7.5" font-family="Helvetica,sans-Serif" font-size="10.00">atomic</text>
</a>
</g>
</g>
<!-- Node14&#45;&gt;Node15 -->
<g id="edge19" class="edge">
<title>Node14&#45;&gt;Node15</title>
<path fill="none" stroke="midnightblue" d="M913.07,-324.47C917.29,-310.3 926.27,-281.11 935.57,-257 941.87,-240.66 947.93,-238.13 951.57,-221 966.79,-149.26 966.52,-127.35 949.57,-56 947.3,-46.46 942.9,-36.51 938.72,-28.4"/>
<polygon fill="midnightblue" stroke="midnightblue" points="941.75,-26.66 933.87,-19.58 935.61,-30.03 941.75,-26.66"/>
</g>
<!-- Node16 -->
<g id="node16" class="node">
<title>Node16</title>
<g id="a_node16"><a xlink:title=" ">
<polygon fill="white" stroke="#bfbfbf" points="977.07,-263 977.07,-282 1026.07,-282 1026.07,-263 977.07,-263"/>
<text text-anchor="middle" x="1001.57" y="-270" font-family="Helvetica,sans-Serif" font-size="10.00">cstddef</text>
</a>
</g>
</g>
<!-- Node14&#45;&gt;Node16 -->
<g id="edge20" class="edge">
<title>Node14&#45;&gt;Node16</title>
<path fill="none" stroke="midnightblue" d="M923.61,-324.48C938.34,-314.84 962.54,-299.02 980.08,-287.55"/>
<polygon fill="midnightblue" stroke="midnightblue" points="982.1,-290.41 988.56,-282.01 978.27,-284.55 982.1,-290.41"/>
</g>
<!-- Node17 -->
<g id="node17" class="node">
<title>Node17</title>
<g id="a_node17"><a xlink:title=" ">
<polygon fill="white" stroke="#bfbfbf" points="1030.57,-196 1030.57,-215 1092.57,-215 1092.57,-196 1030.57,-196"/>
<text text-anchor="middle" x="1061.57" y="-203" font-family="Helvetica,sans-Serif" font-size="10.00">type_traits</text>
</a>
</g>
</g>
<!-- Node14&#45;&gt;Node17 -->
<g id="edge21" class="edge">
<title>Node14&#45;&gt;Node17</title>
<path fill="none" stroke="midnightblue" d="M915.66,-324.06C924.7,-308.77 944.87,-277.3 968.57,-257 987.19,-241.05 1011.67,-228.01 1030.84,-219.17"/>
<polygon fill="midnightblue" stroke="midnightblue" points="1032.34,-222.34 1040.05,-215.06 1029.49,-215.94 1032.34,-222.34"/>
</g>
<!-- Node18 -->
<g id="node18" class="node">
<title>Node18</title>
<g id="a_node18"><a xlink:href="pointer-policies_8h.html" target="_top" xlink:title=" ">
<polygon fill="white" stroke="black" points="772.57,-257.5 772.57,-287.5 882.57,-287.5 882.57,-257.5 772.57,-257.5"/>
<text text-anchor="start" x="780.57" y="-275.5" font-family="Helvetica,sans-Serif" font-size="10.00">cppgc/internal/pointer</text>
<text text-anchor="middle" x="827.57" y="-264.5" font-family="Helvetica,sans-Serif" font-size="10.00">&#45;policies.h</text>
</a>
</g>
</g>
<!-- Node14&#45;&gt;Node18 -->
<g id="edge22" class="edge">
<title>Node14&#45;&gt;Node18</title>
<path fill="none" stroke="midnightblue" d="M898.68,-324.48C887.44,-316.42 870.15,-304.02 855.43,-293.47"/>
<polygon fill="midnightblue" stroke="midnightblue" points="857.3,-290.5 847.13,-287.52 853.22,-296.19 857.3,-290.5"/>
</g>
<!-- Node25 -->
<g id="node25" class="node">
<title>Node25</title>
<g id="a_node25"><a xlink:href="type-traits_8h.html" target="_top" xlink:title=" ">
<polygon fill="white" stroke="black" points="1044.57,-263 1044.57,-282 1140.57,-282 1140.57,-263 1044.57,-263"/>
<text text-anchor="middle" x="1092.57" y="-270" font-family="Helvetica,sans-Serif" font-size="10.00">cppgc/type&#45;traits.h</text>
</a>
</g>
</g>
<!-- Node14&#45;&gt;Node25 -->
<g id="edge39" class="edge">
<title>Node14&#45;&gt;Node25</title>
<path fill="none" stroke="midnightblue" d="M936.65,-324.48C968.14,-314.18 1021.27,-296.81 1056.63,-285.25"/>
<polygon fill="midnightblue" stroke="midnightblue" points="1058.12,-288.44 1066.54,-282.01 1055.95,-281.79 1058.12,-288.44"/>
</g>
<!-- Node18&#45;&gt;Node6 -->
<g id="edge38" class="edge">
<title>Node18&#45;&gt;Node6</title>
<path fill="none" stroke="midnightblue" d="M805.3,-257.39C792.8,-248.39 777.89,-235.68 768.57,-221 744.35,-182.86 773.76,-154.7 741.57,-123 700.28,-82.34 630.73,-73.16 586.82,-71.74"/>
<polygon fill="midnightblue" stroke="midnightblue" points="586.84,-68.24 576.78,-71.54 586.7,-75.24 586.84,-68.24"/>
</g>
<!-- Node18&#45;&gt;Node17 -->
<g id="edge24" class="edge">
<title>Node18&#45;&gt;Node17</title>
<path fill="none" stroke="midnightblue" d="M878.06,-257.48C920.82,-245.6 981.34,-228.79 1021.01,-217.77"/>
<polygon fill="midnightblue" stroke="midnightblue" points="1022.17,-221.08 1030.87,-215.03 1020.29,-214.33 1022.17,-221.08"/>
</g>
<!-- Node19 -->
<g id="node19" class="node">
<title>Node19</title>
<g id="a_node19"><a xlink:title=" ">
<polygon fill="white" stroke="#bfbfbf" points="896.57,-196 896.57,-215 942.57,-215 942.57,-196 896.57,-196"/>
<text text-anchor="middle" x="919.57" y="-203" font-family="Helvetica,sans-Serif" font-size="10.00">cstdint</text>
</a>
</g>
</g>
<!-- Node18&#45;&gt;Node19 -->
<g id="edge23" class="edge">
<title>Node18&#45;&gt;Node19</title>
<path fill="none" stroke="midnightblue" d="M847.53,-257.4C862.82,-246.6 883.82,-231.76 899.21,-220.89"/>
<polygon fill="midnightblue" stroke="midnightblue" points="901.38,-223.64 907.53,-215.01 897.34,-217.92 901.38,-223.64"/>
</g>
<!-- Node20 -->
<g id="node20" class="node">
<title>Node20</title>
<g id="a_node20"><a xlink:href="write-barrier_8h.html" target="_top" xlink:title=" ">
<polygon fill="white" stroke="black" points="777.07,-190.5 777.07,-220.5 878.07,-220.5 878.07,-190.5 777.07,-190.5"/>
<text text-anchor="start" x="785.07" y="-208.5" font-family="Helvetica,sans-Serif" font-size="10.00">cppgc/internal/write</text>
<text text-anchor="middle" x="827.57" y="-197.5" font-family="Helvetica,sans-Serif" font-size="10.00">&#45;barrier.h</text>
</a>
</g>
</g>
<!-- Node18&#45;&gt;Node20 -->
<g id="edge25" class="edge">
<title>Node18&#45;&gt;Node20</title>
<path fill="none" stroke="midnightblue" d="M827.57,-257.4C827.57,-249.64 827.57,-239.81 827.57,-230.86"/>
<polygon fill="midnightblue" stroke="midnightblue" points="831.07,-230.58 827.57,-220.58 824.07,-230.58 831.07,-230.58"/>
</g>
<!-- Node24 -->
<g id="node24" class="node">
<title>Node24</title>
<g id="a_node24"><a xlink:href="source-location_8h.html" target="_top" xlink:title=" ">
<polygon fill="white" stroke="black" points="613.07,-129 613.07,-148 732.07,-148 732.07,-129 613.07,-129"/>
<text text-anchor="middle" x="672.57" y="-136" font-family="Helvetica,sans-Serif" font-size="10.00">cppgc/source&#45;location.h</text>
</a>
</g>
</g>
<!-- Node18&#45;&gt;Node24 -->
<g id="edge35" class="edge">
<title>Node18&#45;&gt;Node24</title>
<path fill="none" stroke="midnightblue" d="M793.57,-257.32C774.94,-248.54 752.14,-236.07 734.57,-221 712.71,-202.25 693.69,-174.59 682.67,-156.81"/>
<polygon fill="midnightblue" stroke="midnightblue" points="685.56,-154.83 677.4,-148.07 679.56,-158.44 685.56,-154.83"/>
</g>
<!-- Node20&#45;&gt;Node6 -->
<g id="edge34" class="edge">
<title>Node20&#45;&gt;Node6</title>
<path fill="none" stroke="midnightblue" d="M822.3,-190.24C814.7,-171.73 798.84,-139.83 774.57,-123 717.76,-83.62 635.49,-74.3 586.88,-72.46"/>
<polygon fill="midnightblue" stroke="midnightblue" points="586.84,-68.96 576.74,-72.17 586.63,-75.95 586.84,-68.96"/>
</g>
<!-- Node21 -->
<g id="node21" class="node">
<title>Node21</title>
<g id="a_node21"><a xlink:href="api-constants_8h.html" target="_top" xlink:title=" ">
<polygon fill="white" stroke="black" points="239.07,-123.5 239.07,-153.5 332.07,-153.5 332.07,-123.5 239.07,-123.5"/>
<text text-anchor="start" x="247.07" y="-141.5" font-family="Helvetica,sans-Serif" font-size="10.00">cppgc/internal/api</text>
<text text-anchor="middle" x="285.57" y="-130.5" font-family="Helvetica,sans-Serif" font-size="10.00">&#45;constants.h</text>
</a>
</g>
</g>
<!-- Node20&#45;&gt;Node21 -->
<g id="edge26" class="edge">
<title>Node20&#45;&gt;Node21</title>
<path fill="none" stroke="midnightblue" d="M777.07,-198.44C675.84,-186.3 448.76,-159.07 342.47,-146.32"/>
<polygon fill="midnightblue" stroke="midnightblue" points="342.61,-142.82 332.26,-145.1 341.77,-149.77 342.61,-142.82"/>
</g>
<!-- Node22 -->
<g id="node22" class="node">
<title>Node22</title>
<g id="a_node22"><a xlink:href="process-heap_8h.html" target="_top" xlink:title=" ">
<polygon fill="white" stroke="black" points="827.07,-123.5 827.07,-153.5 942.07,-153.5 942.07,-123.5 827.07,-123.5"/>
<text text-anchor="start" x="835.07" y="-141.5" font-family="Helvetica,sans-Serif" font-size="10.00">cppgc/internal/process</text>
<text text-anchor="middle" x="884.57" y="-130.5" font-family="Helvetica,sans-Serif" font-size="10.00">&#45;heap.h</text>
</a>
</g>
</g>
<!-- Node20&#45;&gt;Node22 -->
<g id="edge30" class="edge">
<title>Node20&#45;&gt;Node22</title>
<path fill="none" stroke="midnightblue" d="M839.94,-190.4C847.41,-181.88 857.08,-170.85 865.51,-161.23"/>
<polygon fill="midnightblue" stroke="midnightblue" points="868.26,-163.4 872.23,-153.58 863,-158.79 868.26,-163.4"/>
</g>
<!-- Node21&#45;&gt;Node6 -->
<g id="edge29" class="edge">
<title>Node21&#45;&gt;Node6</title>
<path fill="none" stroke="midnightblue" d="M332.23,-125.88C381.82,-113.53 459.41,-94.21 506.38,-82.51"/>
<polygon fill="midnightblue" stroke="midnightblue" points="507.34,-85.88 516.2,-80.06 505.65,-79.08 507.34,-85.88"/>
</g>
<!-- Node21&#45;&gt;Node8 -->
<g id="edge27" class="edge">
<title>Node21&#45;&gt;Node8</title>
<path fill="none" stroke="midnightblue" d="M252.8,-123.4C226.31,-111.99 189.35,-96.08 163.83,-85.1"/>
<polygon fill="midnightblue" stroke="midnightblue" points="164.9,-81.75 154.33,-81.01 162.13,-88.18 164.9,-81.75"/>
</g>
<!-- Node21&#45;&gt;Node11 -->
<g id="edge28" class="edge">
<title>Node21&#45;&gt;Node11</title>
<path fill="none" stroke="midnightblue" d="M283.62,-123.4C282.31,-113.96 280.58,-101.45 279.16,-91.19"/>
<polygon fill="midnightblue" stroke="midnightblue" points="282.61,-90.62 277.77,-81.19 275.68,-91.58 282.61,-90.62"/>
</g>
<!-- Node22&#45;&gt;Node6 -->
<g id="edge33" class="edge">
<title>Node22&#45;&gt;Node6</title>
<path fill="none" stroke="midnightblue" d="M826.81,-125.81C822,-124.85 817.2,-123.91 812.57,-123 732.56,-107.35 638.87,-89.73 586.76,-79.99"/>
<polygon fill="midnightblue" stroke="midnightblue" points="587.38,-76.54 576.91,-78.15 586.1,-83.42 587.38,-76.54"/>
</g>
<!-- Node23 -->
<g id="node23" class="node">
<title>Node23</title>
<g id="a_node23"><a xlink:href="atomic-entry-flag_8h.html" target="_top" xlink:title=" ">
<polygon fill="white" stroke="black" points="830.57,-56.5 830.57,-86.5 940.57,-86.5 940.57,-56.5 830.57,-56.5"/>
<text text-anchor="start" x="838.57" y="-74.5" font-family="Helvetica,sans-Serif" font-size="10.00">cppgc/internal/atomic</text>
<text text-anchor="middle" x="885.57" y="-63.5" font-family="Helvetica,sans-Serif" font-size="10.00">&#45;entry&#45;flag.h</text>
</a>
</g>
</g>
<!-- Node22&#45;&gt;Node23 -->
<g id="edge31" class="edge">
<title>Node22&#45;&gt;Node23</title>
<path fill="none" stroke="midnightblue" d="M884.79,-123.4C884.91,-115.64 885.06,-105.81 885.19,-96.86"/>
<polygon fill="midnightblue" stroke="midnightblue" points="888.7,-96.63 885.35,-86.58 881.7,-96.52 888.7,-96.63"/>
</g>
<!-- Node23&#45;&gt;Node15 -->
<g id="edge32" class="edge">
<title>Node23&#45;&gt;Node15</title>
<path fill="none" stroke="midnightblue" d="M895.76,-56.4C901.94,-47.84 909.87,-36.87 916.39,-27.86"/>
<polygon fill="midnightblue" stroke="midnightblue" points="919.29,-29.81 922.31,-19.66 913.62,-25.71 919.29,-29.81"/>
</g>
<!-- Node24&#45;&gt;Node6 -->
<g id="edge37" class="edge">
<title>Node24&#45;&gt;Node6</title>
<path fill="none" stroke="midnightblue" d="M655.84,-128.87C634.47,-117.84 597.27,-98.66 572.29,-85.77"/>
<polygon fill="midnightblue" stroke="midnightblue" points="573.86,-82.64 563.37,-81.17 570.65,-88.86 573.86,-82.64"/>
</g>
<!-- Node24&#45;&gt;Node13 -->
<g id="edge36" class="edge">
<title>Node24&#45;&gt;Node13</title>
<path fill="none" stroke="midnightblue" d="M638.44,-128.94C587.64,-116.19 492.89,-92.41 444.19,-80.19"/>
<polygon fill="midnightblue" stroke="midnightblue" points="444.8,-76.73 434.25,-77.69 443.1,-83.52 444.8,-76.73"/>
</g>
<!-- Node25&#45;&gt;Node17 -->
<g id="edge40" class="edge">
<title>Node25&#45;&gt;Node17</title>
<path fill="none" stroke="midnightblue" d="M1088.39,-262.73C1083.69,-252.89 1075.95,-236.66 1069.99,-224.16"/>
<polygon fill="midnightblue" stroke="midnightblue" points="1073.15,-222.65 1065.68,-215.13 1066.83,-225.66 1073.15,-222.65"/>
</g>
<!-- Node26&#45;&gt;Node17 -->
<g id="edge43" class="edge">
<title>Node26&#45;&gt;Node17</title>
<path fill="none" stroke="midnightblue" d="M1110.65,-324.39C1124.13,-316.87 1141.54,-304.57 1149.57,-288 1155.58,-275.6 1156.47,-268.92 1149.57,-257 1139.05,-238.83 1119.24,-226.63 1101.08,-218.78"/>
<polygon fill="midnightblue" stroke="midnightblue" points="1102.37,-215.53 1091.79,-215.06 1099.77,-222.03 1102.37,-215.53"/>
</g>
<!-- Node26&#45;&gt;Node25 -->
<g id="edge44" class="edge">
<title>Node26&#45;&gt;Node25</title>
<path fill="none" stroke="midnightblue" d="M1092.57,-324.48C1092.57,-316.08 1092.57,-302.98 1092.57,-292.16"/>
<polygon fill="midnightblue" stroke="midnightblue" points="1096.07,-292.01 1092.57,-282.01 1089.07,-292.01 1096.07,-292.01"/>
</g>
</g>
</svg>
