<?xml version="1.0" encoding="UTF-8" standalone="no"?>
<!DOCTYPE svg PUBLIC "-//W3C//DTD SVG 1.1//EN"
 "http://www.w3.org/Graphics/SVG/1.1/DTD/svg11.dtd">
<!-- Generated by graphviz version 2.44.0 ()
 -->
<!-- Title: include/cppgc/member.h Pages: 1 -->
<svg width="299pt" height="218pt"
 viewBox="0.00 0.00 298.50 218.00" xmlns="http://www.w3.org/2000/svg" xmlns:xlink="http://www.w3.org/1999/xlink">
<g id="graph0" class="graph" transform="scale(1 1) rotate(0) translate(4 214)">
<title>include/cppgc/member.h</title>
<polygon fill="white" stroke="transparent" points="-4,4 -4,-214 294.5,-214 294.5,4 -4,4"/>
<!-- Node1 -->
<g id="node1" class="node">
<title>Node1</title>
<g id="a_node1"><a xlink:title=" ">
<polygon fill="#bfbfbf" stroke="black" points="121.5,-190.5 121.5,-209.5 243.5,-209.5 243.5,-190.5 121.5,-190.5"/>
<text text-anchor="middle" x="182.5" y="-197.5" font-family="Helvetica,sans-Serif" font-size="10.00">include/cppgc/member.h</text>
</a>
</g>
</g>
<!-- Node2 -->
<g id="node2" class="node">
<title>Node2</title>
<g id="a_node2"><a xlink:href="liveness-broker_8h.html" target="_top" xlink:title=" ">
<polygon fill="white" stroke="black" points="81.5,-123.5 81.5,-153.5 197.5,-153.5 197.5,-123.5 81.5,-123.5"/>
<text text-anchor="start" x="89.5" y="-141.5" font-family="Helvetica,sans-Serif" font-size="10.00">include/cppgc/liveness</text>
<text text-anchor="middle" x="139.5" y="-130.5" font-family="Helvetica,sans-Serif" font-size="10.00">&#45;broker.h</text>
</a>
</g>
</g>
<!-- Node1&#45;&gt;Node2 -->
<g id="edge1" class="edge">
<title>Node1&#45;&gt;Node2</title>
<path fill="none" stroke="midnightblue" d="M170.39,-182.25C163.84,-173.19 155.85,-162.12 149.63,-153.52"/>
<polygon fill="midnightblue" stroke="midnightblue" points="167.64,-184.42 176.34,-190.48 173.32,-180.32 167.64,-184.42"/>
</g>
<!-- Node5 -->
<g id="node5" class="node">
<title>Node5</title>
<g id="a_node5"><a xlink:href="visitor_8h.html" target="_top" xlink:title=" ">
<polygon fill="white" stroke="black" points="169,-62 169,-81 282,-81 282,-62 169,-62"/>
<text text-anchor="middle" x="225.5" y="-69" font-family="Helvetica,sans-Serif" font-size="10.00">include/cppgc/visitor.h</text>
</a>
</g>
</g>
<!-- Node1&#45;&gt;Node5 -->
<g id="edge7" class="edge">
<title>Node1&#45;&gt;Node5</title>
<path fill="none" stroke="midnightblue" d="M193.21,-181.49C197.82,-173.36 202.96,-163.43 206.5,-154 216.11,-128.43 221.85,-96.46 224.22,-81.28"/>
<polygon fill="midnightblue" stroke="midnightblue" points="190.05,-179.96 187.99,-190.36 196.08,-183.52 190.05,-179.96"/>
</g>
<!-- Node3 -->
<g id="node3" class="node">
<title>Node3</title>
<g id="a_node3"><a xlink:href="prefinalizer-handler_8h.html" target="_top" xlink:title=" ">
<polygon fill="white" stroke="black" points="1,-56.5 1,-86.5 112,-86.5 112,-56.5 1,-56.5"/>
<text text-anchor="start" x="9" y="-74.5" font-family="Helvetica,sans-Serif" font-size="10.00">include/cppgc/internal</text>
<text text-anchor="middle" x="56.5" y="-63.5" font-family="Helvetica,sans-Serif" font-size="10.00">/prefinalizer&#45;handler.h</text>
</a>
</g>
</g>
<!-- Node2&#45;&gt;Node3 -->
<g id="edge2" class="edge">
<title>Node2&#45;&gt;Node3</title>
<path fill="none" stroke="midnightblue" d="M113.54,-117.17C100.85,-107.23 85.89,-95.51 74.47,-86.58"/>
<polygon fill="midnightblue" stroke="midnightblue" points="111.46,-119.99 121.49,-123.4 115.78,-114.47 111.46,-119.99"/>
</g>
<!-- Node4 -->
<g id="node4" class="node">
<title>Node4</title>
<g id="a_node4"><a xlink:href="prefinalizer_8h.html" target="_top" xlink:title=" ">
<polygon fill="white" stroke="black" points="0,-0.5 0,-19.5 133,-19.5 133,-0.5 0,-0.5"/>
<text text-anchor="middle" x="66.5" y="-7.5" font-family="Helvetica,sans-Serif" font-size="10.00">include/cppgc/prefinalizer.h</text>
</a>
</g>
</g>
<!-- Node2&#45;&gt;Node4 -->
<g id="edge6" class="edge">
<title>Node2&#45;&gt;Node4</title>
<path fill="none" stroke="midnightblue" d="M137.88,-112.93C135.82,-95.89 131.13,-73.25 120.5,-56 110.89,-40.42 94,-27.65 81.67,-19.74"/>
<polygon fill="midnightblue" stroke="midnightblue" points="134.43,-113.6 138.9,-123.2 141.4,-112.91 134.43,-113.6"/>
</g>
<!-- Node2&#45;&gt;Node5 -->
<g id="edge4" class="edge">
<title>Node2&#45;&gt;Node5</title>
<path fill="none" stroke="midnightblue" d="M166.17,-117.34C182.22,-105.21 201.83,-90.39 214,-81.19"/>
<polygon fill="midnightblue" stroke="midnightblue" points="164.03,-114.57 158.16,-123.4 168.25,-120.16 164.03,-114.57"/>
</g>
<!-- Node3&#45;&gt;Node4 -->
<g id="edge3" class="edge">
<title>Node3&#45;&gt;Node4</title>
<path fill="none" stroke="midnightblue" d="M60.57,-46.29C62.15,-36.86 63.87,-26.65 65.04,-19.66"/>
<polygon fill="midnightblue" stroke="midnightblue" points="57.08,-45.96 58.87,-56.4 63.98,-47.12 57.08,-45.96"/>
</g>
<!-- Node6 -->
<g id="node6" class="node">
<title>Node6</title>
<g id="a_node6"><a xlink:href="persistent_8h.html" target="_top" xlink:title=" ">
<polygon fill="white" stroke="black" points="160.5,-0.5 160.5,-19.5 290.5,-19.5 290.5,-0.5 160.5,-0.5"/>
<text text-anchor="middle" x="225.5" y="-7.5" font-family="Helvetica,sans-Serif" font-size="10.00">include/cppgc/persistent.h</text>
</a>
</g>
</g>
<!-- Node5&#45;&gt;Node6 -->
<g id="edge5" class="edge">
<title>Node5&#45;&gt;Node6</title>
<path fill="none" stroke="midnightblue" d="M225.5,-51.82C225.5,-41 225.5,-27.9 225.5,-19.51"/>
<polygon fill="midnightblue" stroke="midnightblue" points="222,-51.98 225.5,-61.98 229,-51.98 222,-51.98"/>
</g>
</g>
</svg>
