<?xml version="1.0" encoding="UTF-8" standalone="no"?>
<!DOCTYPE svg PUBLIC "-//W3C//DTD SVG 1.1//EN"
 "http://www.w3.org/Graphics/SVG/1.1/DTD/svg11.dtd">
<!-- Generated by graphviz version 2.44.0 ()
 -->
<!-- Title: include/cppgc/persistent.h Pages: 1 -->
<svg width="1297pt" height="531pt"
 viewBox="0.00 0.00 1296.50 531.00" xmlns="http://www.w3.org/2000/svg" xmlns:xlink="http://www.w3.org/1999/xlink">
<g id="graph0" class="graph" transform="scale(1 1) rotate(0) translate(4 527)">
<title>include/cppgc/persistent.h</title>
<polygon fill="white" stroke="transparent" points="-4,4 -4,-527 1292.5,-527 1292.5,4 -4,4"/>
<!-- Node1 -->
<g id="node1" class="node">
<title>Node1</title>
<g id="a_node1"><a xlink:title=" ">
<polygon fill="#bfbfbf" stroke="black" points="462.5,-503.5 462.5,-522.5 592.5,-522.5 592.5,-503.5 462.5,-503.5"/>
<text text-anchor="middle" x="527.5" y="-510.5" font-family="Helvetica,sans-Serif" font-size="10.00">include/cppgc/persistent.h</text>
</a>
</g>
</g>
<!-- Node2 -->
<g id="node2" class="node">
<title>Node2</title>
<g id="a_node2"><a xlink:title=" ">
<polygon fill="white" stroke="#bfbfbf" points="1080.5,-196 1080.5,-215 1142.5,-215 1142.5,-196 1080.5,-196"/>
<text text-anchor="middle" x="1111.5" y="-203" font-family="Helvetica,sans-Serif" font-size="10.00">type_traits</text>
</a>
</g>
</g>
<!-- Node1&#45;&gt;Node2 -->
<g id="edge1" class="edge">
<title>Node1&#45;&gt;Node2</title>
<path fill="none" stroke="midnightblue" d="M592.71,-508.93C777.02,-499.39 1288.5,-466.61 1288.5,-396.5 1288.5,-396.5 1288.5,-396.5 1288.5,-333 1288.5,-266.47 1204.7,-231.6 1152.42,-216.33"/>
<polygon fill="midnightblue" stroke="midnightblue" points="1153.31,-212.94 1142.74,-213.61 1151.42,-219.68 1153.31,-212.94"/>
</g>
<!-- Node3 -->
<g id="node3" class="node">
<title>Node3</title>
<g id="a_node3"><a xlink:href="persistent-node_8h.html" target="_top" xlink:title=" ">
<polygon fill="white" stroke="black" points="262,-380.5 262,-410.5 385,-410.5 385,-380.5 262,-380.5"/>
<text text-anchor="start" x="270" y="-398.5" font-family="Helvetica,sans-Serif" font-size="10.00">cppgc/internal/persistent</text>
<text text-anchor="middle" x="323.5" y="-387.5" font-family="Helvetica,sans-Serif" font-size="10.00">&#45;node.h</text>
</a>
</g>
</g>
<!-- Node1&#45;&gt;Node3 -->
<g id="edge2" class="edge">
<title>Node1&#45;&gt;Node3</title>
<path fill="none" stroke="midnightblue" d="M508.98,-503.34C490.6,-494.61 461.76,-480.53 437.5,-467 408.43,-450.79 376.27,-430.69 353.53,-416.1"/>
<polygon fill="midnightblue" stroke="midnightblue" points="355.31,-413.08 345.01,-410.61 351.52,-418.97 355.31,-413.08"/>
</g>
<!-- Node8 -->
<g id="node8" class="node">
<title>Node8</title>
<g id="a_node8"><a xlink:href="source-location_8h.html" target="_top" xlink:title=" ">
<polygon fill="white" stroke="black" points="286,-196 286,-215 405,-215 405,-196 286,-196"/>
<text text-anchor="middle" x="345.5" y="-203" font-family="Helvetica,sans-Serif" font-size="10.00">cppgc/source&#45;location.h</text>
</a>
</g>
</g>
<!-- Node1&#45;&gt;Node8 -->
<g id="edge31" class="edge">
<title>Node1&#45;&gt;Node8</title>
<path fill="none" stroke="midnightblue" d="M516.61,-503.42C495.6,-485.82 451.5,-443.31 451.5,-396.5 451.5,-396.5 451.5,-396.5 451.5,-333 451.5,-282.15 400.55,-241 369.3,-220.55"/>
<polygon fill="midnightblue" stroke="midnightblue" points="371.01,-217.49 360.69,-215.11 367.27,-223.41 371.01,-217.49"/>
</g>
<!-- Node10 -->
<g id="node10" class="node">
<title>Node10</title>
<g id="a_node10"><a xlink:href="v8config_8h.html" target="_top" xlink:title=" ">
<polygon fill="white" stroke="black" points="565.5,-62 565.5,-81 625.5,-81 625.5,-62 565.5,-62"/>
<text text-anchor="middle" x="595.5" y="-69" font-family="Helvetica,sans-Serif" font-size="10.00">v8config.h</text>
</a>
</g>
</g>
<!-- Node1&#45;&gt;Node10 -->
<g id="edge72" class="edge">
<title>Node1&#45;&gt;Node10</title>
<path fill="none" stroke="midnightblue" d="M462.36,-505.93C352.8,-493.89 143.5,-462.29 143.5,-396.5 143.5,-396.5 143.5,-396.5 143.5,-204.5 143.5,-154.36 176.82,-145.74 221.5,-123 279.25,-93.61 471.02,-79.49 555.24,-74.59"/>
<polygon fill="midnightblue" stroke="midnightblue" points="555.65,-78.07 565.44,-74.01 555.26,-71.08 555.65,-78.07"/>
</g>
<!-- Node12 -->
<g id="node12" class="node">
<title>Node12</title>
<g id="a_node12"><a xlink:href="type-traits_8h.html" target="_top" xlink:title=" ">
<polygon fill="white" stroke="black" points="1050.5,-263 1050.5,-282 1146.5,-282 1146.5,-263 1050.5,-263"/>
<text text-anchor="middle" x="1098.5" y="-270" font-family="Helvetica,sans-Serif" font-size="10.00">cppgc/type&#45;traits.h</text>
</a>
</g>
</g>
<!-- Node1&#45;&gt;Node12 -->
<g id="edge32" class="edge">
<title>Node1&#45;&gt;Node12</title>
<path fill="none" stroke="midnightblue" d="M592.74,-505.39C697.49,-491.79 905.09,-452.28 1040.5,-344 1059.57,-328.75 1076.69,-306.33 1087.3,-290.89"/>
<polygon fill="midnightblue" stroke="midnightblue" points="1090.39,-292.56 1093.03,-282.3 1084.57,-288.68 1090.39,-292.56"/>
</g>
<!-- Node13 -->
<g id="node13" class="node">
<title>Node13</title>
<g id="a_node13"><a xlink:href="pointer-policies_8h.html" target="_top" xlink:title=" ">
<polygon fill="white" stroke="black" points="517.5,-257.5 517.5,-287.5 627.5,-287.5 627.5,-257.5 517.5,-257.5"/>
<text text-anchor="start" x="525.5" y="-275.5" font-family="Helvetica,sans-Serif" font-size="10.00">cppgc/internal/pointer</text>
<text text-anchor="middle" x="572.5" y="-264.5" font-family="Helvetica,sans-Serif" font-size="10.00">&#45;policies.h</text>
</a>
</g>
</g>
<!-- Node1&#45;&gt;Node13 -->
<g id="edge16" class="edge">
<title>Node1&#45;&gt;Node13</title>
<path fill="none" stroke="midnightblue" d="M529.15,-503.23C535.46,-469.81 558.12,-349.69 567.93,-297.73"/>
<polygon fill="midnightblue" stroke="midnightblue" points="571.4,-298.21 569.81,-287.74 564.52,-296.91 571.4,-298.21"/>
</g>
<!-- Node22 -->
<g id="node22" class="node">
<title>Node22</title>
<g id="a_node22"><a xlink:href="visitor_8h.html" target="_top" xlink:title=" ">
<polygon fill="white" stroke="black" points="686.5,-447.5 686.5,-466.5 766.5,-466.5 766.5,-447.5 686.5,-447.5"/>
<text text-anchor="middle" x="726.5" y="-454.5" font-family="Helvetica,sans-Serif" font-size="10.00">cppgc/visitor.h</text>
</a>
</g>
</g>
<!-- Node1&#45;&gt;Node22 -->
<g id="edge33" class="edge">
<title>Node1&#45;&gt;Node22</title>
<path fill="none" stroke="midnightblue" d="M559.03,-503.44C593.09,-494.2 647.51,-479.44 685.02,-469.26"/>
<polygon fill="midnightblue" stroke="midnightblue" points="686.38,-472.51 695.12,-466.52 684.55,-465.76 686.38,-472.51"/>
</g>
<!-- Node4 -->
<g id="node4" class="node">
<title>Node4</title>
<g id="a_node4"><a xlink:title=" ">
<polygon fill="white" stroke="#bfbfbf" points="209.5,-324.5 209.5,-343.5 247.5,-343.5 247.5,-324.5 209.5,-324.5"/>
<text text-anchor="middle" x="228.5" y="-331.5" font-family="Helvetica,sans-Serif" font-size="10.00">array</text>
</a>
</g>
</g>
<!-- Node3&#45;&gt;Node4 -->
<g id="edge3" class="edge">
<title>Node3&#45;&gt;Node4</title>
<path fill="none" stroke="midnightblue" d="M300.99,-380.4C285.9,-370.95 266.11,-358.56 251.03,-349.11"/>
<polygon fill="midnightblue" stroke="midnightblue" points="252.66,-346 242.32,-343.66 248.94,-351.93 252.66,-346"/>
</g>
<!-- Node5 -->
<g id="node5" class="node">
<title>Node5</title>
<g id="a_node5"><a xlink:title=" ">
<polygon fill="white" stroke="#bfbfbf" points="790,-62 790,-81 841,-81 841,-62 790,-62"/>
<text text-anchor="middle" x="815.5" y="-69" font-family="Helvetica,sans-Serif" font-size="10.00">memory</text>
</a>
</g>
</g>
<!-- Node3&#45;&gt;Node5 -->
<g id="edge4" class="edge">
<title>Node3&#45;&gt;Node5</title>
<path fill="none" stroke="midnightblue" d="M313.18,-380.4C288.36,-344.61 230.62,-248.92 276.5,-190 339,-109.74 668.9,-81.77 779.4,-74.58"/>
<polygon fill="midnightblue" stroke="midnightblue" points="779.93,-78.05 789.69,-73.93 779.49,-71.07 779.93,-78.05"/>
</g>
<!-- Node6 -->
<g id="node6" class="node">
<title>Node6</title>
<g id="a_node6"><a xlink:title=" ">
<polygon fill="white" stroke="#bfbfbf" points="682.5,-196 682.5,-215 726.5,-215 726.5,-196 682.5,-196"/>
<text text-anchor="middle" x="704.5" y="-203" font-family="Helvetica,sans-Serif" font-size="10.00">vector</text>
</a>
</g>
</g>
<!-- Node3&#45;&gt;Node6 -->
<g id="edge5" class="edge">
<title>Node3&#45;&gt;Node6</title>
<path fill="none" stroke="midnightblue" d="M385.04,-383.89C451.62,-370.18 558.66,-341.45 636.5,-288 661.47,-270.86 682.4,-242.13 694.19,-223.77"/>
<polygon fill="midnightblue" stroke="midnightblue" points="697.2,-225.56 699.5,-215.22 691.25,-221.87 697.2,-225.56"/>
</g>
<!-- Node7 -->
<g id="node7" class="node">
<title>Node7</title>
<g id="a_node7"><a xlink:href="logging_8h.html" target="_top" xlink:title=" ">
<polygon fill="white" stroke="black" points="304,-324.5 304,-343.5 423,-343.5 423,-324.5 304,-324.5"/>
<text text-anchor="middle" x="363.5" y="-331.5" font-family="Helvetica,sans-Serif" font-size="10.00">cppgc/internal/logging.h</text>
</a>
</g>
</g>
<!-- Node3&#45;&gt;Node7 -->
<g id="edge6" class="edge">
<title>Node3&#45;&gt;Node7</title>
<path fill="none" stroke="midnightblue" d="M332.98,-380.4C338.67,-371.93 345.95,-361.1 351.98,-352.14"/>
<polygon fill="midnightblue" stroke="midnightblue" points="355.01,-353.91 357.68,-343.66 349.2,-350 355.01,-353.91"/>
</g>
<!-- Node3&#45;&gt;Node10 -->
<g id="edge15" class="edge">
<title>Node3&#45;&gt;Node10</title>
<path fill="none" stroke="midnightblue" d="M261.69,-381.28C239.65,-373.73 216.37,-362.01 200.5,-344 179.05,-319.65 181.5,-305.95 181.5,-273.5 181.5,-273.5 181.5,-273.5 181.5,-204.5 181.5,-126.55 451.28,-88.43 555.28,-76.63"/>
<polygon fill="midnightblue" stroke="midnightblue" points="555.84,-80.09 565.39,-75.51 555.07,-73.14 555.84,-80.09"/>
</g>
<!-- Node11 -->
<g id="node11" class="node">
<title>Node11</title>
<g id="a_node11"><a xlink:href="trace-trait_8h.html" target="_top" xlink:title=" ">
<polygon fill="white" stroke="black" points="936,-324.5 936,-343.5 1031,-343.5 1031,-324.5 936,-324.5"/>
<text text-anchor="middle" x="983.5" y="-331.5" font-family="Helvetica,sans-Serif" font-size="10.00">cppgc/trace&#45;trait.h</text>
</a>
</g>
</g>
<!-- Node3&#45;&gt;Node11 -->
<g id="edge11" class="edge">
<title>Node3&#45;&gt;Node11</title>
<path fill="none" stroke="midnightblue" d="M385.28,-390.82C492.89,-384.09 721.85,-368.3 925.94,-343.98"/>
<polygon fill="midnightblue" stroke="midnightblue" points="926.44,-347.44 935.95,-342.77 925.6,-340.49 926.44,-347.44"/>
</g>
<!-- Node7&#45;&gt;Node8 -->
<g id="edge7" class="edge">
<title>Node7&#45;&gt;Node8</title>
<path fill="none" stroke="midnightblue" d="M362.26,-324.31C359.37,-303.99 352.12,-253.05 348.17,-225.28"/>
<polygon fill="midnightblue" stroke="midnightblue" points="351.62,-224.66 346.75,-215.26 344.69,-225.65 351.62,-224.66"/>
</g>
<!-- Node7&#45;&gt;Node10 -->
<g id="edge10" class="edge">
<title>Node7&#45;&gt;Node10</title>
<path fill="none" stroke="midnightblue" d="M351,-324.44C319.73,-301.97 242.96,-239.59 276.5,-190 339.24,-97.23 484.24,-77.43 555.08,-73.4"/>
<polygon fill="midnightblue" stroke="midnightblue" points="555.57,-76.88 565.38,-72.89 555.22,-69.88 555.57,-76.88"/>
</g>
<!-- Node9 -->
<g id="node9" class="node">
<title>Node9</title>
<g id="a_node9"><a xlink:title=" ">
<polygon fill="white" stroke="#bfbfbf" points="859,-62 859,-81 900,-81 900,-62 859,-62"/>
<text text-anchor="middle" x="879.5" y="-69" font-family="Helvetica,sans-Serif" font-size="10.00">string</text>
</a>
</g>
</g>
<!-- Node8&#45;&gt;Node9 -->
<g id="edge8" class="edge">
<title>Node8&#45;&gt;Node9</title>
<path fill="none" stroke="midnightblue" d="M377.87,-195.92C436.46,-180.51 564.06,-147.47 672.5,-123 751.23,-105.24 774.18,-113.28 850.5,-87 851.93,-86.51 853.38,-85.96 854.83,-85.37"/>
<polygon fill="midnightblue" stroke="midnightblue" points="856.53,-88.44 864.17,-81.11 853.62,-82.07 856.53,-88.44"/>
</g>
<!-- Node8&#45;&gt;Node10 -->
<g id="edge9" class="edge">
<title>Node8&#45;&gt;Node10</title>
<path fill="none" stroke="midnightblue" d="M361.9,-195.84C404.56,-173.32 519.2,-112.79 570.31,-85.8"/>
<polygon fill="midnightblue" stroke="midnightblue" points="572.15,-88.79 579.36,-81.02 568.88,-82.6 572.15,-88.79"/>
</g>
<!-- Node11&#45;&gt;Node2 -->
<g id="edge12" class="edge">
<title>Node11&#45;&gt;Node2</title>
<path fill="none" stroke="midnightblue" d="M988.87,-324.37C998.34,-309.55 1019.14,-278.77 1041.5,-257 1055.77,-243.11 1074.09,-230.03 1088.4,-220.67"/>
<polygon fill="midnightblue" stroke="midnightblue" points="1090.61,-223.41 1097.15,-215.08 1086.84,-217.51 1090.61,-223.41"/>
</g>
<!-- Node11&#45;&gt;Node12 -->
<g id="edge13" class="edge">
<title>Node11&#45;&gt;Node12</title>
<path fill="none" stroke="midnightblue" d="M999.98,-324.48C1019.11,-314.58 1050.87,-298.14 1073.15,-286.62"/>
<polygon fill="midnightblue" stroke="midnightblue" points="1074.78,-289.71 1082.05,-282.01 1071.56,-283.5 1074.78,-289.71"/>
</g>
<!-- Node12&#45;&gt;Node2 -->
<g id="edge14" class="edge">
<title>Node12&#45;&gt;Node2</title>
<path fill="none" stroke="midnightblue" d="M1100.25,-262.73C1102.16,-253.18 1105.28,-237.62 1107.74,-225.28"/>
<polygon fill="midnightblue" stroke="midnightblue" points="1111.25,-225.62 1109.77,-215.13 1104.38,-224.25 1111.25,-225.62"/>
</g>
<!-- Node13&#45;&gt;Node2 -->
<g id="edge18" class="edge">
<title>Node13&#45;&gt;Node2</title>
<path fill="none" stroke="midnightblue" d="M627.6,-265.02C708.35,-255.5 863.54,-237.12 995.5,-221 1020.37,-217.96 1048.23,-214.48 1070.41,-211.69"/>
<polygon fill="midnightblue" stroke="midnightblue" points="1071,-215.15 1080.49,-210.42 1070.13,-208.2 1071,-215.15"/>
</g>
<!-- Node13&#45;&gt;Node8 -->
<g id="edge29" class="edge">
<title>Node13&#45;&gt;Node8</title>
<path fill="none" stroke="midnightblue" d="M523.52,-257.48C482.13,-245.62 423.58,-228.86 385.1,-217.84"/>
<polygon fill="midnightblue" stroke="midnightblue" points="385.86,-214.42 375.28,-215.03 383.93,-221.15 385.86,-214.42"/>
</g>
<!-- Node13&#45;&gt;Node10 -->
<g id="edge30" class="edge">
<title>Node13&#45;&gt;Node10</title>
<path fill="none" stroke="midnightblue" d="M581.83,-257.15C587.6,-247.4 594.47,-233.95 597.5,-221 603.15,-196.87 599.18,-125.22 596.86,-91.04"/>
<polygon fill="midnightblue" stroke="midnightblue" points="600.35,-90.74 596.15,-81.01 593.36,-91.23 600.35,-90.74"/>
</g>
<!-- Node14 -->
<g id="node14" class="node">
<title>Node14</title>
<g id="a_node14"><a xlink:title=" ">
<polygon fill="white" stroke="#bfbfbf" points="542.5,-196 542.5,-215 588.5,-215 588.5,-196 542.5,-196"/>
<text text-anchor="middle" x="565.5" y="-203" font-family="Helvetica,sans-Serif" font-size="10.00">cstdint</text>
</a>
</g>
</g>
<!-- Node13&#45;&gt;Node14 -->
<g id="edge17" class="edge">
<title>Node13&#45;&gt;Node14</title>
<path fill="none" stroke="midnightblue" d="M570.98,-257.4C569.97,-247.96 568.62,-235.45 567.51,-225.19"/>
<polygon fill="midnightblue" stroke="midnightblue" points="570.99,-224.76 566.44,-215.19 564.03,-225.51 570.99,-224.76"/>
</g>
<!-- Node15 -->
<g id="node15" class="node">
<title>Node15</title>
<g id="a_node15"><a xlink:href="write-barrier_8h.html" target="_top" xlink:title=" ">
<polygon fill="white" stroke="black" points="423,-190.5 423,-220.5 524,-220.5 524,-190.5 423,-190.5"/>
<text text-anchor="start" x="431" y="-208.5" font-family="Helvetica,sans-Serif" font-size="10.00">cppgc/internal/write</text>
<text text-anchor="middle" x="473.5" y="-197.5" font-family="Helvetica,sans-Serif" font-size="10.00">&#45;barrier.h</text>
</a>
</g>
</g>
<!-- Node13&#45;&gt;Node15 -->
<g id="edge19" class="edge">
<title>Node13&#45;&gt;Node15</title>
<path fill="none" stroke="midnightblue" d="M551.02,-257.4C537.14,-248.28 518.87,-236.29 503.56,-226.24"/>
<polygon fill="midnightblue" stroke="midnightblue" points="505.22,-223.14 494.94,-220.58 501.38,-228.99 505.22,-223.14"/>
</g>
<!-- Node15&#45;&gt;Node10 -->
<g id="edge28" class="edge">
<title>Node15&#45;&gt;Node10</title>
<path fill="none" stroke="midnightblue" d="M486.56,-190.37C509.41,-165.65 556.51,-114.68 580.6,-88.62"/>
<polygon fill="midnightblue" stroke="midnightblue" points="583.34,-90.82 587.55,-81.1 578.2,-86.07 583.34,-90.82"/>
</g>
<!-- Node16 -->
<g id="node16" class="node">
<title>Node16</title>
<g id="a_node16"><a xlink:href="api-constants_8h.html" target="_top" xlink:title=" ">
<polygon fill="white" stroke="black" points="996,-123.5 996,-153.5 1089,-153.5 1089,-123.5 996,-123.5"/>
<text text-anchor="start" x="1004" y="-141.5" font-family="Helvetica,sans-Serif" font-size="10.00">cppgc/internal/api</text>
<text text-anchor="middle" x="1042.5" y="-130.5" font-family="Helvetica,sans-Serif" font-size="10.00">&#45;constants.h</text>
</a>
</g>
</g>
<!-- Node15&#45;&gt;Node16 -->
<g id="edge20" class="edge">
<title>Node15&#45;&gt;Node16</title>
<path fill="none" stroke="midnightblue" d="M524.13,-191.67C527.29,-191.05 530.43,-190.49 533.5,-190 730.17,-158.64 786.16,-186.99 985.89,-154.08"/>
<polygon fill="midnightblue" stroke="midnightblue" points="986.53,-157.52 995.82,-152.41 985.37,-150.62 986.53,-157.52"/>
</g>
<!-- Node19 -->
<g id="node19" class="node">
<title>Node19</title>
<g id="a_node19"><a xlink:href="process-heap_8h.html" target="_top" xlink:title=" ">
<polygon fill="white" stroke="black" points="0,-123.5 0,-153.5 115,-153.5 115,-123.5 0,-123.5"/>
<text text-anchor="start" x="8" y="-141.5" font-family="Helvetica,sans-Serif" font-size="10.00">cppgc/internal/process</text>
<text text-anchor="middle" x="57.5" y="-130.5" font-family="Helvetica,sans-Serif" font-size="10.00">&#45;heap.h</text>
</a>
</g>
</g>
<!-- Node15&#45;&gt;Node19 -->
<g id="edge24" class="edge">
<title>Node15&#45;&gt;Node19</title>
<path fill="none" stroke="midnightblue" d="M422.72,-191.68C419.95,-191.08 417.19,-190.52 414.5,-190 314.62,-170.71 197.69,-155.56 125.6,-147.07"/>
<polygon fill="midnightblue" stroke="midnightblue" points="125.64,-143.55 115.3,-145.86 124.82,-150.5 125.64,-143.55"/>
</g>
<!-- Node16&#45;&gt;Node10 -->
<g id="edge23" class="edge">
<title>Node16&#45;&gt;Node10</title>
<path fill="none" stroke="midnightblue" d="M995.79,-124.74C992.99,-124.12 990.21,-123.53 987.5,-123 860.35,-98.16 707.52,-82.49 636.06,-75.98"/>
<polygon fill="midnightblue" stroke="midnightblue" points="635.99,-72.46 625.71,-75.05 635.36,-79.43 635.99,-72.46"/>
</g>
<!-- Node17 -->
<g id="node17" class="node">
<title>Node17</title>
<g id="a_node17"><a xlink:title=" ">
<polygon fill="white" stroke="#bfbfbf" points="1050,-62 1050,-81 1101,-81 1101,-62 1050,-62"/>
<text text-anchor="middle" x="1075.5" y="-69" font-family="Helvetica,sans-Serif" font-size="10.00">stddef.h</text>
</a>
</g>
</g>
<!-- Node16&#45;&gt;Node17 -->
<g id="edge21" class="edge">
<title>Node16&#45;&gt;Node17</title>
<path fill="none" stroke="midnightblue" d="M1049.66,-123.4C1054.6,-113.66 1061.21,-100.65 1066.51,-90.21"/>
<polygon fill="midnightblue" stroke="midnightblue" points="1069.68,-91.7 1071.09,-81.19 1063.44,-88.53 1069.68,-91.7"/>
</g>
<!-- Node18 -->
<g id="node18" class="node">
<title>Node18</title>
<g id="a_node18"><a xlink:title=" ">
<polygon fill="white" stroke="#bfbfbf" points="983.5,-62 983.5,-81 1031.5,-81 1031.5,-62 983.5,-62"/>
<text text-anchor="middle" x="1007.5" y="-69" font-family="Helvetica,sans-Serif" font-size="10.00">stdint.h</text>
</a>
</g>
</g>
<!-- Node16&#45;&gt;Node18 -->
<g id="edge22" class="edge">
<title>Node16&#45;&gt;Node18</title>
<path fill="none" stroke="midnightblue" d="M1034.91,-123.4C1029.66,-113.66 1022.66,-100.65 1017.04,-90.21"/>
<polygon fill="midnightblue" stroke="midnightblue" points="1020,-88.34 1012.18,-81.19 1013.84,-91.66 1020,-88.34"/>
</g>
<!-- Node19&#45;&gt;Node10 -->
<g id="edge27" class="edge">
<title>Node19&#45;&gt;Node10</title>
<path fill="none" stroke="midnightblue" d="M115.19,-125.4C120.02,-124.54 124.84,-123.72 129.5,-123 286.13,-98.79 474.14,-82.19 555.14,-75.63"/>
<polygon fill="midnightblue" stroke="midnightblue" points="555.7,-79.1 565.39,-74.81 555.14,-72.12 555.7,-79.1"/>
</g>
<!-- Node20 -->
<g id="node20" class="node">
<title>Node20</title>
<g id="a_node20"><a xlink:href="atomic-entry-flag_8h.html" target="_top" xlink:title=" ">
<polygon fill="white" stroke="black" points="210.5,-56.5 210.5,-86.5 320.5,-86.5 320.5,-56.5 210.5,-56.5"/>
<text text-anchor="start" x="218.5" y="-74.5" font-family="Helvetica,sans-Serif" font-size="10.00">cppgc/internal/atomic</text>
<text text-anchor="middle" x="265.5" y="-63.5" font-family="Helvetica,sans-Serif" font-size="10.00">&#45;entry&#45;flag.h</text>
</a>
</g>
</g>
<!-- Node19&#45;&gt;Node20 -->
<g id="edge25" class="edge">
<title>Node19&#45;&gt;Node20</title>
<path fill="none" stroke="midnightblue" d="M102.38,-123.48C134.12,-113.56 176.86,-100.2 210.63,-89.65"/>
<polygon fill="midnightblue" stroke="midnightblue" points="211.84,-92.93 220.35,-86.61 209.76,-86.25 211.84,-92.93"/>
</g>
<!-- Node21 -->
<g id="node21" class="node">
<title>Node21</title>
<g id="a_node21"><a xlink:title=" ">
<polygon fill="white" stroke="#bfbfbf" points="611.5,-0.5 611.5,-19.5 657.5,-19.5 657.5,-0.5 611.5,-0.5"/>
<text text-anchor="middle" x="634.5" y="-7.5" font-family="Helvetica,sans-Serif" font-size="10.00">atomic</text>
</a>
</g>
</g>
<!-- Node20&#45;&gt;Node21 -->
<g id="edge26" class="edge">
<title>Node20&#45;&gt;Node21</title>
<path fill="none" stroke="midnightblue" d="M320.74,-61.59C398.48,-49.06 537.73,-26.6 601.26,-16.36"/>
<polygon fill="midnightblue" stroke="midnightblue" points="602.18,-19.76 611.5,-14.71 601.07,-12.85 602.18,-19.76"/>
</g>
<!-- Node22&#45;&gt;Node7 -->
<g id="edge48" class="edge">
<title>Node22&#45;&gt;Node7</title>
<path fill="none" stroke="midnightblue" d="M687.15,-447.45C651.4,-439.32 597.39,-426.1 551.5,-411 493.73,-391.99 428.31,-364.03 391.88,-347.85"/>
<polygon fill="midnightblue" stroke="midnightblue" points="392.96,-344.5 382.4,-343.62 390.11,-350.89 392.96,-344.5"/>
</g>
<!-- Node22&#45;&gt;Node8 -->
<g id="edge70" class="edge">
<title>Node22&#45;&gt;Node8</title>
<path fill="none" stroke="midnightblue" d="M712.71,-447.38C698.8,-438.57 676.81,-424.33 658.5,-411 636.32,-394.86 489.09,-271.01 465.5,-257 438.51,-240.97 405.49,-227.47 380.93,-218.48"/>
<polygon fill="midnightblue" stroke="midnightblue" points="381.89,-215.1 371.29,-215.02 379.52,-221.69 381.89,-215.1"/>
</g>
<!-- Node22&#45;&gt;Node11 -->
<g id="edge71" class="edge">
<title>Node22&#45;&gt;Node11</title>
<path fill="none" stroke="midnightblue" d="M762.28,-447.46C791.4,-439.84 833.17,-427.35 867.5,-411 903.8,-393.71 942.1,-366.64 964.35,-349.9"/>
<polygon fill="midnightblue" stroke="midnightblue" points="966.75,-352.47 972.58,-343.63 962.51,-346.91 966.75,-352.47"/>
</g>
<!-- Node22&#45;&gt;Node13 -->
<g id="edge49" class="edge">
<title>Node22&#45;&gt;Node13</title>
<path fill="none" stroke="midnightblue" d="M719.07,-447.2C695.97,-419.82 624.9,-335.6 590.94,-295.35"/>
<polygon fill="midnightblue" stroke="midnightblue" points="593.6,-293.08 584.48,-287.69 588.25,-297.59 593.6,-293.08"/>
</g>
<!-- Node23 -->
<g id="node23" class="node">
<title>Node23</title>
<g id="a_node23"><a xlink:href="garbage-collected_8h.html" target="_top" xlink:title=" ">
<polygon fill="white" stroke="black" points="1107.5,-386 1107.5,-405 1237.5,-405 1237.5,-386 1107.5,-386"/>
<text text-anchor="middle" x="1172.5" y="-393" font-family="Helvetica,sans-Serif" font-size="10.00">cppgc/garbage&#45;collected.h</text>
</a>
</g>
</g>
<!-- Node22&#45;&gt;Node23 -->
<g id="edge34" class="edge">
<title>Node22&#45;&gt;Node23</title>
<path fill="none" stroke="midnightblue" d="M766.87,-450.61C841.76,-440.62 1003.24,-419.08 1098.32,-406.4"/>
<polygon fill="midnightblue" stroke="midnightblue" points="1098.99,-409.84 1108.44,-405.05 1098.06,-402.9 1098.99,-409.84"/>
</g>
<!-- Node27 -->
<g id="node27" class="node">
<title>Node27</title>
<g id="a_node27"><a xlink:href="liveness-broker_8h.html" target="_top" xlink:title=" ">
<polygon fill="white" stroke="black" points="716,-386 716,-405 835,-405 835,-386 716,-386"/>
<text text-anchor="middle" x="775.5" y="-393" font-family="Helvetica,sans-Serif" font-size="10.00">cppgc/liveness&#45;broker.h</text>
</a>
</g>
</g>
<!-- Node22&#45;&gt;Node27 -->
<g id="edge50" class="edge">
<title>Node22&#45;&gt;Node27</title>
<path fill="none" stroke="midnightblue" d="M733.52,-447.48C740.94,-438.46 752.83,-424.02 762.07,-412.81"/>
<polygon fill="midnightblue" stroke="midnightblue" points="764.84,-414.95 768.49,-405.01 759.43,-410.5 764.84,-414.95"/>
</g>
<!-- Node31 -->
<g id="node31" class="node">
<title>Node31</title>
<g id="a_node31"><a xlink:href="member_8h.html" target="_top" xlink:title=" ">
<polygon fill="white" stroke="black" points="828,-324.5 828,-343.5 917,-343.5 917,-324.5 828,-324.5"/>
<text text-anchor="middle" x="872.5" y="-331.5" font-family="Helvetica,sans-Serif" font-size="10.00">cppgc/member.h</text>
</a>
</g>
</g>
<!-- Node22&#45;&gt;Node31 -->
<g id="edge69" class="edge">
<title>Node22&#45;&gt;Node31</title>
<path fill="none" stroke="midnightblue" d="M766.72,-449.45C792.01,-443.41 823.69,-432.05 844.5,-411 859.76,-395.56 866.8,-371.11 869.98,-354.12"/>
<polygon fill="midnightblue" stroke="midnightblue" points="873.51,-354.19 871.62,-343.76 866.6,-353.09 873.51,-354.19"/>
</g>
<!-- Node23&#45;&gt;Node2 -->
<g id="edge35" class="edge">
<title>Node23&#45;&gt;Node2</title>
<path fill="none" stroke="midnightblue" d="M1176.78,-385.8C1187.33,-363.05 1212.02,-300.56 1188.5,-257 1179.23,-239.83 1161.3,-227.56 1145.07,-219.41"/>
<polygon fill="midnightblue" stroke="midnightblue" points="1146.33,-216.14 1135.79,-215.08 1143.37,-222.48 1146.33,-216.14"/>
</g>
<!-- Node23&#45;&gt;Node11 -->
<g id="edge46" class="edge">
<title>Node23&#45;&gt;Node11</title>
<path fill="none" stroke="midnightblue" d="M1145.42,-385.98C1112.58,-375.64 1057.07,-358.16 1020.35,-346.6"/>
<polygon fill="midnightblue" stroke="midnightblue" points="1021.12,-343.17 1010.53,-343.51 1019.02,-349.85 1021.12,-343.17"/>
</g>
<!-- Node23&#45;&gt;Node12 -->
<g id="edge47" class="edge">
<title>Node23&#45;&gt;Node12</title>
<path fill="none" stroke="midnightblue" d="M1167.18,-385.8C1155.07,-366 1125.28,-317.28 1109.2,-290.99"/>
<polygon fill="midnightblue" stroke="midnightblue" points="1111.98,-288.83 1103.77,-282.12 1106.01,-292.48 1111.98,-288.83"/>
</g>
<!-- Node23&#45;&gt;Node16 -->
<g id="edge36" class="edge">
<title>Node23&#45;&gt;Node16</title>
<path fill="none" stroke="midnightblue" d="M1181.11,-385.75C1189.7,-376.34 1202.34,-360.49 1207.5,-344 1212.28,-328.72 1221.04,-296.7 1206.5,-257 1188.28,-207.27 1134.36,-175.29 1093.28,-157.44"/>
<polygon fill="midnightblue" stroke="midnightblue" points="1094.51,-154.16 1083.93,-153.53 1091.8,-160.62 1094.51,-154.16"/>
</g>
<!-- Node24 -->
<g id="node24" class="node">
<title>Node24</title>
<g id="a_node24"><a xlink:href="platform_8h.html" target="_top" xlink:title=" ">
<polygon fill="white" stroke="black" points="897,-196 897,-215 986,-215 986,-196 897,-196"/>
<text text-anchor="middle" x="941.5" y="-203" font-family="Helvetica,sans-Serif" font-size="10.00">cppgc/platform.h</text>
</a>
</g>
</g>
<!-- Node23&#45;&gt;Node24 -->
<g id="edge37" class="edge">
<title>Node23&#45;&gt;Node24</title>
<path fill="none" stroke="midnightblue" d="M1174.45,-385.74C1179.25,-361.74 1188.9,-294.25 1155.5,-257 1134.63,-233.72 1052.85,-219.56 996.65,-212.38"/>
<polygon fill="midnightblue" stroke="midnightblue" points="996.83,-208.87 986.48,-211.11 995.97,-215.82 996.83,-208.87"/>
</g>
<!-- Node24&#45;&gt;Node10 -->
<g id="edge45" class="edge">
<title>Node24&#45;&gt;Node10</title>
<path fill="none" stroke="midnightblue" d="M931,-195.95C910.12,-179.36 861.34,-142.73 814.5,-123 754.78,-97.85 680.39,-84.08 635.48,-77.51"/>
<polygon fill="midnightblue" stroke="midnightblue" points="635.94,-74.04 625.55,-76.1 634.96,-80.97 635.94,-74.04"/>
</g>
<!-- Node25 -->
<g id="node25" class="node">
<title>Node25</title>
<g id="a_node25"><a xlink:href="v8-platform_8h.html" target="_top" xlink:title=" ">
<polygon fill="white" stroke="black" points="905,-129 905,-148 978,-148 978,-129 905,-129"/>
<text text-anchor="middle" x="941.5" y="-136" font-family="Helvetica,sans-Serif" font-size="10.00">v8&#45;platform.h</text>
</a>
</g>
</g>
<!-- Node24&#45;&gt;Node25 -->
<g id="edge38" class="edge">
<title>Node24&#45;&gt;Node25</title>
<path fill="none" stroke="midnightblue" d="M941.5,-195.73C941.5,-186.18 941.5,-170.62 941.5,-158.28"/>
<polygon fill="midnightblue" stroke="midnightblue" points="945,-158.13 941.5,-148.13 938,-158.13 945,-158.13"/>
</g>
<!-- Node25&#45;&gt;Node5 -->
<g id="edge42" class="edge">
<title>Node25&#45;&gt;Node5</title>
<path fill="none" stroke="midnightblue" d="M924.77,-128.87C903.4,-117.84 866.2,-98.66 841.22,-85.77"/>
<polygon fill="midnightblue" stroke="midnightblue" points="842.79,-82.64 832.3,-81.17 839.58,-88.86 842.79,-82.64"/>
</g>
<!-- Node25&#45;&gt;Node9 -->
<g id="edge43" class="edge">
<title>Node25&#45;&gt;Node9</title>
<path fill="none" stroke="midnightblue" d="M933.14,-128.73C923.38,-118.5 907.03,-101.36 894.95,-88.69"/>
<polygon fill="midnightblue" stroke="midnightblue" points="897.16,-85.95 887.73,-81.13 892.1,-90.78 897.16,-85.95"/>
</g>
<!-- Node25&#45;&gt;Node10 -->
<g id="edge44" class="edge">
<title>Node25&#45;&gt;Node10</title>
<path fill="none" stroke="midnightblue" d="M904.8,-130.61C839.46,-118.33 703.46,-92.78 635.69,-80.05"/>
<polygon fill="midnightblue" stroke="midnightblue" points="636.28,-76.6 625.81,-78.19 634.99,-83.48 636.28,-76.6"/>
</g>
<!-- Node25&#45;&gt;Node17 -->
<g id="edge39" class="edge">
<title>Node25&#45;&gt;Node17</title>
<path fill="none" stroke="midnightblue" d="M959.29,-128.87C982.12,-117.8 1021.93,-98.49 1048.5,-85.6"/>
<polygon fill="midnightblue" stroke="midnightblue" points="1050.16,-88.68 1057.63,-81.17 1047.11,-82.38 1050.16,-88.68"/>
</g>
<!-- Node25&#45;&gt;Node18 -->
<g id="edge40" class="edge">
<title>Node25&#45;&gt;Node18</title>
<path fill="none" stroke="midnightblue" d="M950.4,-128.73C960.89,-118.4 978.52,-101.04 991.42,-88.33"/>
<polygon fill="midnightblue" stroke="midnightblue" points="994.07,-90.64 998.74,-81.13 989.16,-85.65 994.07,-90.64"/>
</g>
<!-- Node26 -->
<g id="node26" class="node">
<title>Node26</title>
<g id="a_node26"><a xlink:title=" ">
<polygon fill="white" stroke="#bfbfbf" points="918,-62 918,-81 965,-81 965,-62 918,-62"/>
<text text-anchor="middle" x="941.5" y="-69" font-family="Helvetica,sans-Serif" font-size="10.00">stdlib.h</text>
</a>
</g>
</g>
<!-- Node25&#45;&gt;Node26 -->
<g id="edge41" class="edge">
<title>Node25&#45;&gt;Node26</title>
<path fill="none" stroke="midnightblue" d="M941.5,-128.73C941.5,-119.18 941.5,-103.62 941.5,-91.28"/>
<polygon fill="midnightblue" stroke="midnightblue" points="945,-91.13 941.5,-81.13 938,-91.13 945,-91.13"/>
</g>
<!-- Node27&#45;&gt;Node10 -->
<g id="edge68" class="edge">
<title>Node27&#45;&gt;Node10</title>
<path fill="none" stroke="midnightblue" d="M770.15,-385.91C751.02,-355.05 684.48,-246.69 635.5,-154 624.04,-132.3 611.72,-106.85 603.83,-90.24"/>
<polygon fill="midnightblue" stroke="midnightblue" points="606.97,-88.7 599.54,-81.15 600.64,-91.69 606.97,-88.7"/>
</g>
<!-- Node27&#45;&gt;Node11 -->
<g id="edge67" class="edge">
<title>Node27&#45;&gt;Node11</title>
<path fill="none" stroke="midnightblue" d="M805.3,-385.98C841.75,-375.55 903.58,-357.86 943.97,-346.31"/>
<polygon fill="midnightblue" stroke="midnightblue" points="945.1,-349.62 953.75,-343.51 943.18,-342.89 945.1,-349.62"/>
</g>
<!-- Node28 -->
<g id="node28" class="node">
<title>Node28</title>
<g id="a_node28"><a xlink:href="heap_8h.html" target="_top" xlink:title=" ">
<polygon fill="white" stroke="black" points="738.5,-263 738.5,-282 812.5,-282 812.5,-263 738.5,-263"/>
<text text-anchor="middle" x="775.5" y="-270" font-family="Helvetica,sans-Serif" font-size="10.00">cppgc/heap.h</text>
</a>
</g>
</g>
<!-- Node27&#45;&gt;Node28 -->
<g id="edge51" class="edge">
<title>Node27&#45;&gt;Node28</title>
<path fill="none" stroke="midnightblue" d="M775.5,-385.8C775.5,-366.35 775.5,-318.99 775.5,-292.4"/>
<polygon fill="midnightblue" stroke="midnightblue" points="779,-292.12 775.5,-282.12 772,-292.12 779,-292.12"/>
</g>
<!-- Node27&#45;&gt;Node31 -->
<g id="edge60" class="edge">
<title>Node27&#45;&gt;Node31</title>
<path fill="none" stroke="midnightblue" d="M789.4,-385.98C805.17,-376.3 831.14,-360.37 849.85,-348.89"/>
<polygon fill="midnightblue" stroke="midnightblue" points="851.93,-351.72 858.63,-343.51 848.27,-345.75 851.93,-351.72"/>
</g>
<!-- Node28&#45;&gt;Node5 -->
<g id="edge52" class="edge">
<title>Node28&#45;&gt;Node5</title>
<path fill="none" stroke="midnightblue" d="M777.22,-262.95C783.22,-233.1 803.32,-133.08 811.74,-91.2"/>
<polygon fill="midnightblue" stroke="midnightblue" points="815.2,-91.74 813.74,-81.24 808.34,-90.36 815.2,-91.74"/>
</g>
<!-- Node28&#45;&gt;Node6 -->
<g id="edge53" class="edge">
<title>Node28&#45;&gt;Node6</title>
<path fill="none" stroke="midnightblue" d="M765.92,-262.73C754.53,-252.31 735.31,-234.71 721.4,-221.97"/>
<polygon fill="midnightblue" stroke="midnightblue" points="723.66,-219.3 713.92,-215.13 718.94,-224.46 723.66,-219.3"/>
</g>
<!-- Node28&#45;&gt;Node10 -->
<g id="edge59" class="edge">
<title>Node28&#45;&gt;Node10</title>
<path fill="none" stroke="midnightblue" d="M773.13,-262.9C768.36,-246.87 756.22,-212.06 735.5,-190 713.42,-166.49 697.85,-173.94 672.5,-154 647.61,-134.43 623.27,-106.83 608.82,-89.3"/>
<polygon fill="midnightblue" stroke="midnightblue" points="611.23,-86.72 602.22,-81.15 605.79,-91.12 611.23,-86.72"/>
</g>
<!-- Node28&#45;&gt;Node24 -->
<g id="edge58" class="edge">
<title>Node28&#45;&gt;Node24</title>
<path fill="none" stroke="midnightblue" d="M797.54,-262.87C826.4,-251.57 877.15,-231.7 910.04,-218.82"/>
<polygon fill="midnightblue" stroke="midnightblue" points="911.59,-221.97 919.63,-215.06 909.04,-215.45 911.59,-221.97"/>
</g>
<!-- Node29 -->
<g id="node29" class="node">
<title>Node29</title>
<g id="a_node29"><a xlink:href="common_8h.html" target="_top" xlink:title=" ">
<polygon fill="white" stroke="black" points="681,-129 681,-148 772,-148 772,-129 681,-129"/>
<text text-anchor="middle" x="726.5" y="-136" font-family="Helvetica,sans-Serif" font-size="10.00">cppgc/common.h</text>
</a>
</g>
</g>
<!-- Node28&#45;&gt;Node29 -->
<g id="edge54" class="edge">
<title>Node28&#45;&gt;Node29</title>
<path fill="none" stroke="midnightblue" d="M776.43,-262.53C777.66,-247.07 778.64,-214.7 768.5,-190 763.07,-176.78 752.9,-164.41 743.92,-155.21"/>
<polygon fill="midnightblue" stroke="midnightblue" points="746.11,-152.46 736.49,-148.01 741.24,-157.49 746.11,-152.46"/>
</g>
<!-- Node30 -->
<g id="node30" class="node">
<title>Node30</title>
<g id="a_node30"><a xlink:href="custom-space_8h.html" target="_top" xlink:title=" ">
<polygon fill="white" stroke="black" points="1107,-129 1107,-148 1222,-148 1222,-129 1107,-129"/>
<text text-anchor="middle" x="1164.5" y="-136" font-family="Helvetica,sans-Serif" font-size="10.00">cppgc/custom&#45;space.h</text>
</a>
</g>
</g>
<!-- Node28&#45;&gt;Node30 -->
<g id="edge56" class="edge">
<title>Node28&#45;&gt;Node30</title>
<path fill="none" stroke="midnightblue" d="M812.77,-264.8C866.59,-254.82 963.19,-235.63 995.5,-221 1016.96,-211.28 1017.86,-201.36 1038.5,-190 1067.3,-174.16 1102.12,-160.59 1127.85,-151.51"/>
<polygon fill="midnightblue" stroke="midnightblue" points="1129.28,-154.72 1137.59,-148.15 1126.99,-148.11 1129.28,-154.72"/>
</g>
<!-- Node29&#45;&gt;Node10 -->
<g id="edge55" class="edge">
<title>Node29&#45;&gt;Node10</title>
<path fill="none" stroke="midnightblue" d="M709.1,-128.87C686.89,-117.84 648.21,-98.66 622.24,-85.77"/>
<polygon fill="midnightblue" stroke="midnightblue" points="623.48,-82.48 612.97,-81.17 620.37,-88.75 623.48,-82.48"/>
</g>
<!-- Node30&#45;&gt;Node17 -->
<g id="edge57" class="edge">
<title>Node30&#45;&gt;Node17</title>
<path fill="none" stroke="midnightblue" d="M1152.5,-128.73C1137.95,-118.11 1113.22,-100.05 1095.72,-87.26"/>
<polygon fill="midnightblue" stroke="midnightblue" points="1097.45,-84.2 1087.31,-81.13 1093.32,-89.85 1097.45,-84.2"/>
</g>
<!-- Node31&#45;&gt;Node2 -->
<g id="edge63" class="edge">
<title>Node31&#45;&gt;Node2</title>
<path fill="none" stroke="midnightblue" d="M890.23,-324.41C908.15,-315.62 936.53,-301.39 960.5,-288 983.66,-275.06 988.31,-269.88 1011.5,-257 1035.76,-243.53 1064.03,-229.39 1084.31,-219.51"/>
<polygon fill="midnightblue" stroke="midnightblue" points="1086.1,-222.53 1093.58,-215.02 1083.05,-216.23 1086.1,-222.53"/>
</g>
<!-- Node31&#45;&gt;Node10 -->
<g id="edge66" class="edge">
<title>Node31&#45;&gt;Node10</title>
<path fill="none" stroke="midnightblue" d="M869.88,-324.4C858.79,-288.59 814.85,-151.87 781.5,-123 740.54,-87.54 676.99,-76.74 635.81,-73.58"/>
<polygon fill="midnightblue" stroke="midnightblue" points="635.8,-70.07 625.59,-72.92 635.35,-77.06 635.8,-70.07"/>
</g>
<!-- Node31&#45;&gt;Node12 -->
<g id="edge65" class="edge">
<title>Node31&#45;&gt;Node12</title>
<path fill="none" stroke="midnightblue" d="M904.88,-324.48C944.74,-313.98 1012.52,-296.14 1056.39,-284.59"/>
<polygon fill="midnightblue" stroke="midnightblue" points="1057.4,-287.94 1066.18,-282.01 1055.62,-281.17 1057.4,-287.94"/>
</g>
<!-- Node31&#45;&gt;Node13 -->
<g id="edge64" class="edge">
<title>Node31&#45;&gt;Node13</title>
<path fill="none" stroke="midnightblue" d="M829.52,-324.48C779.28,-314.51 695.63,-297.92 637.46,-286.38"/>
<polygon fill="midnightblue" stroke="midnightblue" points="638.12,-282.95 627.63,-284.43 636.76,-289.81 638.12,-282.95"/>
</g>
<!-- Node31&#45;&gt;Node21 -->
<g id="edge61" class="edge">
<title>Node31&#45;&gt;Node21</title>
<path fill="none" stroke="midnightblue" d="M883.64,-324.25C894.88,-315.34 912.66,-301.02 927.5,-288 942.63,-274.73 944.06,-268.6 960.5,-257 989.08,-236.83 1000.88,-239.62 1030.5,-221 1049.84,-208.84 1050.78,-199.61 1071.5,-190 1137.62,-159.33 1185.97,-210.92 1231.5,-154 1240.11,-143.24 1238.5,-134.87 1231.5,-123 1200.29,-70.04 1169.23,-74.16 1110.5,-56 1027.46,-30.32 761.72,-16.54 667.78,-12.38"/>
<polygon fill="midnightblue" stroke="midnightblue" points="667.85,-8.88 657.71,-11.94 667.55,-15.87 667.85,-8.88"/>
</g>
<!-- Node32 -->
<g id="node32" class="node">
<title>Node32</title>
<g id="a_node32"><a xlink:title=" ">
<polygon fill="white" stroke="#bfbfbf" points="869,-263 869,-282 918,-282 918,-263 869,-263"/>
<text text-anchor="middle" x="893.5" y="-270" font-family="Helvetica,sans-Serif" font-size="10.00">cstddef</text>
</a>
</g>
</g>
<!-- Node31&#45;&gt;Node32 -->
<g id="edge62" class="edge">
<title>Node31&#45;&gt;Node32</title>
<path fill="none" stroke="midnightblue" d="M875.51,-324.48C878.53,-315.9 883.29,-302.43 887.15,-291.48"/>
<polygon fill="midnightblue" stroke="midnightblue" points="890.47,-292.6 890.5,-282.01 883.87,-290.27 890.47,-292.6"/>
</g>
</g>
</svg>
