<?xml version="1.0" encoding="UTF-8" standalone="no"?>
<!DOCTYPE svg PUBLIC "-//W3C//DTD SVG 1.1//EN"
 "http://www.w3.org/Graphics/SVG/1.1/DTD/svg11.dtd">
<!-- Generated by graphviz version 2.44.0 ()
 -->
<!-- Title: include/cppgc/internal/persistent&#45;node.h Pages: 1 -->
<svg width="516pt" height="207pt"
 viewBox="0.00 0.00 516.00 207.00" xmlns="http://www.w3.org/2000/svg" xmlns:xlink="http://www.w3.org/1999/xlink">
<g id="graph0" class="graph" transform="scale(1 1) rotate(0) translate(4 203)">
<title>include/cppgc/internal/persistent&#45;node.h</title>
<polygon fill="white" stroke="transparent" points="-4,4 -4,-203 512,-203 512,4 -4,4"/>
<!-- Node1 -->
<g id="node1" class="node">
<title>Node1</title>
<g id="a_node1"><a xlink:title=" ">
<polygon fill="#bfbfbf" stroke="black" points="142.5,-168.5 142.5,-198.5 253.5,-198.5 253.5,-168.5 142.5,-168.5"/>
<text text-anchor="start" x="150.5" y="-186.5" font-family="Helvetica,sans-Serif" font-size="10.00">include/cppgc/internal</text>
<text text-anchor="middle" x="198" y="-175.5" font-family="Helvetica,sans-Serif" font-size="10.00">/persistent&#45;node.h</text>
</a>
</g>
</g>
<!-- Node2 -->
<g id="node2" class="node">
<title>Node2</title>
<g id="a_node2"><a xlink:title=" ">
<polygon fill="white" stroke="#bfbfbf" points="0,-112.5 0,-131.5 38,-131.5 38,-112.5 0,-112.5"/>
<text text-anchor="middle" x="19" y="-119.5" font-family="Helvetica,sans-Serif" font-size="10.00">array</text>
</a>
</g>
</g>
<!-- Node1&#45;&gt;Node2 -->
<g id="edge1" class="edge">
<title>Node1&#45;&gt;Node2</title>
<path fill="none" stroke="midnightblue" d="M155.58,-168.4C122.29,-157.33 76.84,-142.23 47.7,-132.54"/>
<polygon fill="midnightblue" stroke="midnightblue" points="48.72,-129.19 38.12,-129.36 46.51,-135.83 48.72,-129.19"/>
</g>
<!-- Node3 -->
<g id="node3" class="node">
<title>Node3</title>
<g id="a_node3"><a xlink:title=" ">
<polygon fill="white" stroke="#bfbfbf" points="56.5,-112.5 56.5,-131.5 107.5,-131.5 107.5,-112.5 56.5,-112.5"/>
<text text-anchor="middle" x="82" y="-119.5" font-family="Helvetica,sans-Serif" font-size="10.00">memory</text>
</a>
</g>
</g>
<!-- Node1&#45;&gt;Node3 -->
<g id="edge2" class="edge">
<title>Node1&#45;&gt;Node3</title>
<path fill="none" stroke="midnightblue" d="M170.51,-168.4C151.57,-158.68 126.56,-145.86 107.96,-136.31"/>
<polygon fill="midnightblue" stroke="midnightblue" points="109.37,-133.11 98.88,-131.66 106.18,-139.34 109.37,-133.11"/>
</g>
<!-- Node4 -->
<g id="node4" class="node">
<title>Node4</title>
<g id="a_node4"><a xlink:title=" ">
<polygon fill="white" stroke="#bfbfbf" points="126,-112.5 126,-131.5 170,-131.5 170,-112.5 126,-112.5"/>
<text text-anchor="middle" x="148" y="-119.5" font-family="Helvetica,sans-Serif" font-size="10.00">vector</text>
</a>
</g>
</g>
<!-- Node1&#45;&gt;Node4 -->
<g id="edge3" class="edge">
<title>Node1&#45;&gt;Node4</title>
<path fill="none" stroke="midnightblue" d="M186.15,-168.4C178.89,-159.75 169.55,-148.64 161.93,-139.58"/>
<polygon fill="midnightblue" stroke="midnightblue" points="164.39,-137.06 155.28,-131.66 159.03,-141.57 164.39,-137.06"/>
</g>
<!-- Node5 -->
<g id="node5" class="node">
<title>Node5</title>
<g id="a_node5"><a xlink:href="logging_8h.html" target="_top" xlink:title=" ">
<polygon fill="white" stroke="black" points="188.5,-112.5 188.5,-131.5 307.5,-131.5 307.5,-112.5 188.5,-112.5"/>
<text text-anchor="middle" x="248" y="-119.5" font-family="Helvetica,sans-Serif" font-size="10.00">cppgc/internal/logging.h</text>
</a>
</g>
</g>
<!-- Node1&#45;&gt;Node5 -->
<g id="edge4" class="edge">
<title>Node1&#45;&gt;Node5</title>
<path fill="none" stroke="midnightblue" d="M209.85,-168.4C217.11,-159.75 226.45,-148.64 234.07,-139.58"/>
<polygon fill="midnightblue" stroke="midnightblue" points="236.97,-141.57 240.72,-131.66 231.61,-137.06 236.97,-141.57"/>
</g>
<!-- Node8 -->
<g id="node8" class="node">
<title>Node8</title>
<g id="a_node8"><a xlink:href="v8config_8h.html" target="_top" xlink:title=" ">
<polygon fill="white" stroke="black" points="268,-0.5 268,-19.5 328,-19.5 328,-0.5 268,-0.5"/>
<text text-anchor="middle" x="298" y="-7.5" font-family="Helvetica,sans-Serif" font-size="10.00">v8config.h</text>
</a>
</g>
</g>
<!-- Node1&#45;&gt;Node8 -->
<g id="edge13" class="edge">
<title>Node1&#45;&gt;Node8</title>
<path fill="none" stroke="midnightblue" d="M253.73,-172.7C277.08,-165.54 302.01,-153.2 316,-132 336.87,-100.37 319.9,-54.06 307.71,-28.89"/>
<polygon fill="midnightblue" stroke="midnightblue" points="310.72,-27.09 303.05,-19.78 304.49,-30.28 310.72,-27.09"/>
</g>
<!-- Node9 -->
<g id="node9" class="node">
<title>Node9</title>
<g id="a_node9"><a xlink:href="trace-trait_8h.html" target="_top" xlink:title=" ">
<polygon fill="white" stroke="black" points="364.5,-112.5 364.5,-131.5 459.5,-131.5 459.5,-112.5 364.5,-112.5"/>
<text text-anchor="middle" x="412" y="-119.5" font-family="Helvetica,sans-Serif" font-size="10.00">cppgc/trace&#45;trait.h</text>
</a>
</g>
</g>
<!-- Node1&#45;&gt;Node9 -->
<g id="edge9" class="edge">
<title>Node1&#45;&gt;Node9</title>
<path fill="none" stroke="midnightblue" d="M248.44,-168.47C286.01,-158.03 336.62,-143.96 371.55,-134.25"/>
<polygon fill="midnightblue" stroke="midnightblue" points="372.71,-137.56 381.41,-131.51 370.83,-130.81 372.71,-137.56"/>
</g>
<!-- Node6 -->
<g id="node6" class="node">
<title>Node6</title>
<g id="a_node6"><a xlink:href="source-location_8h.html" target="_top" xlink:title=" ">
<polygon fill="white" stroke="black" points="150.5,-56.5 150.5,-75.5 269.5,-75.5 269.5,-56.5 150.5,-56.5"/>
<text text-anchor="middle" x="210" y="-63.5" font-family="Helvetica,sans-Serif" font-size="10.00">cppgc/source&#45;location.h</text>
</a>
</g>
</g>
<!-- Node5&#45;&gt;Node6 -->
<g id="edge5" class="edge">
<title>Node5&#45;&gt;Node6</title>
<path fill="none" stroke="midnightblue" d="M241.73,-112.08C236.36,-104.46 228.48,-93.26 221.92,-83.94"/>
<polygon fill="midnightblue" stroke="midnightblue" points="224.78,-81.91 216.16,-75.75 219.05,-85.94 224.78,-81.91"/>
</g>
<!-- Node5&#45;&gt;Node8 -->
<g id="edge8" class="edge">
<title>Node5&#45;&gt;Node8</title>
<path fill="none" stroke="midnightblue" d="M254.77,-112.49C261.45,-103.76 271.56,-89.57 278,-76 285.12,-61 290.45,-42.87 293.81,-29.57"/>
<polygon fill="midnightblue" stroke="midnightblue" points="297.25,-30.25 296.17,-19.71 290.44,-28.62 297.25,-30.25"/>
</g>
<!-- Node7 -->
<g id="node7" class="node">
<title>Node7</title>
<g id="a_node7"><a xlink:title=" ">
<polygon fill="white" stroke="#bfbfbf" points="189.5,-0.5 189.5,-19.5 230.5,-19.5 230.5,-0.5 189.5,-0.5"/>
<text text-anchor="middle" x="210" y="-7.5" font-family="Helvetica,sans-Serif" font-size="10.00">string</text>
</a>
</g>
</g>
<!-- Node6&#45;&gt;Node7 -->
<g id="edge6" class="edge">
<title>Node6&#45;&gt;Node7</title>
<path fill="none" stroke="midnightblue" d="M210,-56.08C210,-49.01 210,-38.86 210,-29.99"/>
<polygon fill="midnightblue" stroke="midnightblue" points="213.5,-29.75 210,-19.75 206.5,-29.75 213.5,-29.75"/>
</g>
<!-- Node6&#45;&gt;Node8 -->
<g id="edge7" class="edge">
<title>Node6&#45;&gt;Node8</title>
<path fill="none" stroke="midnightblue" d="M224.14,-56.32C237.87,-47.9 258.94,-34.97 275.06,-25.07"/>
<polygon fill="midnightblue" stroke="midnightblue" points="277.2,-27.87 283.9,-19.65 273.54,-21.9 277.2,-27.87"/>
</g>
<!-- Node10 -->
<g id="node10" class="node">
<title>Node10</title>
<g id="a_node10"><a xlink:title=" ">
<polygon fill="white" stroke="#bfbfbf" points="363,-0.5 363,-19.5 425,-19.5 425,-0.5 363,-0.5"/>
<text text-anchor="middle" x="394" y="-7.5" font-family="Helvetica,sans-Serif" font-size="10.00">type_traits</text>
</a>
</g>
</g>
<!-- Node9&#45;&gt;Node10 -->
<g id="edge10" class="edge">
<title>Node9&#45;&gt;Node10</title>
<path fill="none" stroke="midnightblue" d="M410.12,-112.4C408.18,-103.37 405.15,-88.73 403,-76 400.39,-60.54 397.98,-42.91 396.32,-29.91"/>
<polygon fill="midnightblue" stroke="midnightblue" points="399.77,-29.34 395.06,-19.86 392.83,-30.21 399.77,-29.34"/>
</g>
<!-- Node11 -->
<g id="node11" class="node">
<title>Node11</title>
<g id="a_node11"><a xlink:href="type-traits_8h.html" target="_top" xlink:title=" ">
<polygon fill="white" stroke="black" points="412,-56.5 412,-75.5 508,-75.5 508,-56.5 412,-56.5"/>
<text text-anchor="middle" x="460" y="-63.5" font-family="Helvetica,sans-Serif" font-size="10.00">cppgc/type&#45;traits.h</text>
</a>
</g>
</g>
<!-- Node9&#45;&gt;Node11 -->
<g id="edge11" class="edge">
<title>Node9&#45;&gt;Node11</title>
<path fill="none" stroke="midnightblue" d="M419.93,-112.08C426.85,-104.3 437.07,-92.8 445.45,-83.37"/>
<polygon fill="midnightblue" stroke="midnightblue" points="448.19,-85.55 452.22,-75.75 442.96,-80.9 448.19,-85.55"/>
</g>
<!-- Node11&#45;&gt;Node10 -->
<g id="edge12" class="edge">
<title>Node11&#45;&gt;Node10</title>
<path fill="none" stroke="midnightblue" d="M449.4,-56.32C439.54,-48.26 424.65,-36.08 412.78,-26.37"/>
<polygon fill="midnightblue" stroke="midnightblue" points="414.75,-23.46 404.8,-19.83 410.32,-28.88 414.75,-23.46"/>
</g>
</g>
</svg>
