<?xml version="1.0" encoding="UTF-8" standalone="no"?>
<!DOCTYPE svg PUBLIC "-//W3C//DTD SVG 1.1//EN"
 "http://www.w3.org/Graphics/SVG/1.1/DTD/svg11.dtd">
<!-- Generated by graphviz version 2.44.0 ()
 -->
<!-- Title: include/cppgc/platform.h Pages: 1 -->
<svg width="465pt" height="285pt"
 viewBox="0.00 0.00 465.00 285.00" xmlns="http://www.w3.org/2000/svg" xmlns:xlink="http://www.w3.org/1999/xlink">
<g id="graph0" class="graph" transform="scale(1 1) rotate(0) translate(4 281)">
<title>include/cppgc/platform.h</title>
<polygon fill="white" stroke="transparent" points="-4,4 -4,-281 461,-281 461,4 -4,4"/>
<!-- Node1 -->
<g id="node1" class="node">
<title>Node1</title>
<g id="a_node1"><a xlink:title=" ">
<polygon fill="#bfbfbf" stroke="black" points="202,-257.5 202,-276.5 324,-276.5 324,-257.5 202,-257.5"/>
<text text-anchor="middle" x="263" y="-264.5" font-family="Helvetica,sans-Serif" font-size="10.00">include/cppgc/platform.h</text>
</a>
</g>
</g>
<!-- Node2 -->
<g id="node2" class="node">
<title>Node2</title>
<g id="a_node2"><a xlink:href="garbage-collected_8h.html" target="_top" xlink:title=" ">
<polygon fill="white" stroke="black" points="77,-190.5 77,-220.5 191,-220.5 191,-190.5 77,-190.5"/>
<text text-anchor="start" x="85" y="-208.5" font-family="Helvetica,sans-Serif" font-size="10.00">include/cppgc/garbage</text>
<text text-anchor="middle" x="134" y="-197.5" font-family="Helvetica,sans-Serif" font-size="10.00">&#45;collected.h</text>
</a>
</g>
</g>
<!-- Node1&#45;&gt;Node2 -->
<g id="edge1" class="edge">
<title>Node1&#45;&gt;Node2</title>
<path fill="none" stroke="midnightblue" d="M235.25,-253.2C214.4,-243.58 185.87,-230.42 164.4,-220.52"/>
<polygon fill="midnightblue" stroke="midnightblue" points="233.97,-256.46 244.52,-257.48 236.9,-250.11 233.97,-256.46"/>
</g>
<!-- Node6 -->
<g id="node6" class="node">
<title>Node6</title>
<g id="a_node6"><a xlink:href="heap_8h.html" target="_top" xlink:title=" ">
<polygon fill="white" stroke="black" points="209,-196 209,-215 317,-215 317,-196 209,-196"/>
<text text-anchor="middle" x="263" y="-203" font-family="Helvetica,sans-Serif" font-size="10.00">include/cppgc/heap.h</text>
</a>
</g>
</g>
<!-- Node1&#45;&gt;Node6 -->
<g id="edge5" class="edge">
<title>Node1&#45;&gt;Node6</title>
<path fill="none" stroke="midnightblue" d="M263,-247.32C263,-236.5 263,-223.4 263,-215.01"/>
<polygon fill="midnightblue" stroke="midnightblue" points="259.5,-247.48 263,-257.48 266.5,-247.48 259.5,-247.48"/>
</g>
<!-- Node10 -->
<g id="node10" class="node">
<title>Node10</title>
<g id="a_node10"><a xlink:href="caged-heap-local-data_8h.html" target="_top" xlink:title=" ">
<polygon fill="white" stroke="black" points="335,-190.5 335,-220.5 457,-220.5 457,-190.5 335,-190.5"/>
<text text-anchor="start" x="343" y="-208.5" font-family="Helvetica,sans-Serif" font-size="10.00">include/cppgc/internal</text>
<text text-anchor="middle" x="396" y="-197.5" font-family="Helvetica,sans-Serif" font-size="10.00">/caged&#45;heap&#45;local&#45;data.h</text>
</a>
</g>
</g>
<!-- Node1&#45;&gt;Node10 -->
<g id="edge12" class="edge">
<title>Node1&#45;&gt;Node10</title>
<path fill="none" stroke="midnightblue" d="M291.32,-253.33C312.84,-243.7 342.42,-230.47 364.65,-220.52"/>
<polygon fill="midnightblue" stroke="midnightblue" points="289.75,-250.2 282.06,-257.48 292.61,-256.59 289.75,-250.2"/>
</g>
<!-- Node3 -->
<g id="node3" class="node">
<title>Node3</title>
<g id="a_node3"><a xlink:href="allocation_8h.html" target="_top" xlink:title=" ">
<polygon fill="white" stroke="black" points="0,-129 0,-148 128,-148 128,-129 0,-129"/>
<text text-anchor="middle" x="64" y="-136" font-family="Helvetica,sans-Serif" font-size="10.00">include/cppgc/allocation.h</text>
</a>
</g>
</g>
<!-- Node2&#45;&gt;Node3 -->
<g id="edge2" class="edge">
<title>Node2&#45;&gt;Node3</title>
<path fill="none" stroke="midnightblue" d="M111.21,-183.34C98.35,-171.4 82.99,-157.14 73.36,-148.19"/>
<polygon fill="midnightblue" stroke="midnightblue" points="109.1,-186.16 118.81,-190.4 113.86,-181.03 109.1,-186.16"/>
</g>
<!-- Node4 -->
<g id="node4" class="node">
<title>Node4</title>
<g id="a_node4"><a xlink:href="visitor_8h.html" target="_top" xlink:title=" ">
<polygon fill="white" stroke="black" points="100.5,-62 100.5,-81 213.5,-81 213.5,-62 100.5,-62"/>
<text text-anchor="middle" x="157" y="-69" font-family="Helvetica,sans-Serif" font-size="10.00">include/cppgc/visitor.h</text>
</a>
</g>
</g>
<!-- Node2&#45;&gt;Node4 -->
<g id="edge3" class="edge">
<title>Node2&#45;&gt;Node4</title>
<path fill="none" stroke="midnightblue" d="M138.21,-180.32C143.43,-150.38 152.05,-100.91 155.5,-81.1"/>
<polygon fill="midnightblue" stroke="midnightblue" points="134.73,-179.92 136.46,-190.37 141.63,-181.12 134.73,-179.92"/>
</g>
<!-- Node5 -->
<g id="node5" class="node">
<title>Node5</title>
<g id="a_node5"><a xlink:href="persistent_8h.html" target="_top" xlink:title=" ">
<polygon fill="white" stroke="black" points="92,-0.5 92,-19.5 222,-19.5 222,-0.5 92,-0.5"/>
<text text-anchor="middle" x="157" y="-7.5" font-family="Helvetica,sans-Serif" font-size="10.00">include/cppgc/persistent.h</text>
</a>
</g>
</g>
<!-- Node4&#45;&gt;Node5 -->
<g id="edge4" class="edge">
<title>Node4&#45;&gt;Node5</title>
<path fill="none" stroke="midnightblue" d="M157,-51.82C157,-41 157,-27.9 157,-19.51"/>
<polygon fill="midnightblue" stroke="midnightblue" points="153.5,-51.98 157,-61.98 160.5,-51.98 153.5,-51.98"/>
</g>
<!-- Node7 -->
<g id="node7" class="node">
<title>Node7</title>
<g id="a_node7"><a xlink:href="prefinalizer-handler_8h.html" target="_top" xlink:title=" ">
<polygon fill="white" stroke="black" points="270.5,-56.5 270.5,-86.5 381.5,-86.5 381.5,-56.5 270.5,-56.5"/>
<text text-anchor="start" x="278.5" y="-74.5" font-family="Helvetica,sans-Serif" font-size="10.00">include/cppgc/internal</text>
<text text-anchor="middle" x="326" y="-63.5" font-family="Helvetica,sans-Serif" font-size="10.00">/prefinalizer&#45;handler.h</text>
</a>
</g>
</g>
<!-- Node6&#45;&gt;Node7 -->
<g id="edge6" class="edge">
<title>Node6&#45;&gt;Node7</title>
<path fill="none" stroke="midnightblue" d="M281.15,-189.08C290.85,-179.86 302.17,-167.37 309,-154 320.18,-132.12 324.01,-103.36 325.32,-86.5"/>
<polygon fill="midnightblue" stroke="midnightblue" points="278.58,-186.69 273.52,-195.99 283.28,-191.87 278.58,-186.69"/>
</g>
<!-- Node9 -->
<g id="node9" class="node">
<title>Node9</title>
<g id="a_node9"><a xlink:href="liveness-broker_8h.html" target="_top" xlink:title=" ">
<polygon fill="white" stroke="black" points="184,-123.5 184,-153.5 300,-153.5 300,-123.5 184,-123.5"/>
<text text-anchor="start" x="192" y="-141.5" font-family="Helvetica,sans-Serif" font-size="10.00">include/cppgc/liveness</text>
<text text-anchor="middle" x="242" y="-130.5" font-family="Helvetica,sans-Serif" font-size="10.00">&#45;broker.h</text>
</a>
</g>
</g>
<!-- Node6&#45;&gt;Node9 -->
<g id="edge8" class="edge">
<title>Node6&#45;&gt;Node9</title>
<path fill="none" stroke="midnightblue" d="M257.04,-186.06C253.71,-175.75 249.63,-163.1 246.55,-153.59"/>
<polygon fill="midnightblue" stroke="midnightblue" points="253.76,-187.29 260.17,-195.73 260.42,-185.14 253.76,-187.29"/>
</g>
<!-- Node8 -->
<g id="node8" class="node">
<title>Node8</title>
<g id="a_node8"><a xlink:href="prefinalizer_8h.html" target="_top" xlink:title=" ">
<polygon fill="white" stroke="black" points="249.5,-0.5 249.5,-19.5 382.5,-19.5 382.5,-0.5 249.5,-0.5"/>
<text text-anchor="middle" x="316" y="-7.5" font-family="Helvetica,sans-Serif" font-size="10.00">include/cppgc/prefinalizer.h</text>
</a>
</g>
</g>
<!-- Node7&#45;&gt;Node8 -->
<g id="edge7" class="edge">
<title>Node7&#45;&gt;Node8</title>
<path fill="none" stroke="midnightblue" d="M321.93,-46.29C320.35,-36.86 318.63,-26.65 317.46,-19.66"/>
<polygon fill="midnightblue" stroke="midnightblue" points="318.52,-47.12 323.63,-56.4 325.42,-45.96 318.52,-47.12"/>
</g>
<!-- Node9&#45;&gt;Node4 -->
<g id="edge10" class="edge">
<title>Node9&#45;&gt;Node4</title>
<path fill="none" stroke="midnightblue" d="M215.2,-117.01C199.42,-104.94 180.28,-90.3 168.37,-81.19"/>
<polygon fill="midnightblue" stroke="midnightblue" points="213.49,-120.1 223.56,-123.4 217.74,-114.54 213.49,-120.1"/>
</g>
<!-- Node9&#45;&gt;Node7 -->
<g id="edge9" class="edge">
<title>Node9&#45;&gt;Node7</title>
<path fill="none" stroke="midnightblue" d="M268.28,-117.17C281.12,-107.23 296.26,-95.51 307.81,-86.58"/>
<polygon fill="midnightblue" stroke="midnightblue" points="265.99,-114.51 260.23,-123.4 270.28,-120.04 265.99,-114.51"/>
</g>
<!-- Node9&#45;&gt;Node8 -->
<g id="edge11" class="edge">
<title>Node9&#45;&gt;Node8</title>
<path fill="none" stroke="midnightblue" d="M243.97,-112.92C246.26,-95.87 251.24,-73.23 262,-56 271.7,-40.47 288.57,-27.69 300.88,-19.77"/>
<polygon fill="midnightblue" stroke="midnightblue" points="240.45,-112.87 242.81,-123.2 247.41,-113.65 240.45,-112.87"/>
</g>
</g>
</svg>
