<?xml version="1.0" encoding="UTF-8" standalone="no"?>
<!DOCTYPE svg PUBLIC "-//W3C//DTD SVG 1.1//EN"
 "http://www.w3.org/Graphics/SVG/1.1/DTD/svg11.dtd">
<!-- Generated by graphviz version 2.44.0 ()
 -->
<!-- Title: include/cppgc/source&#45;location.h Pages: 1 -->
<svg width="726pt" height="352pt"
 viewBox="0.00 0.00 725.50 352.00" xmlns="http://www.w3.org/2000/svg" xmlns:xlink="http://www.w3.org/1999/xlink">
<g id="graph0" class="graph" transform="scale(1 1) rotate(0) translate(4 348)">
<title>include/cppgc/source&#45;location.h</title>
<polygon fill="white" stroke="transparent" points="-4,4 -4,-348 721.5,-348 721.5,4 -4,4"/>
<!-- Node1 -->
<g id="node1" class="node">
<title>Node1</title>
<g id="a_node1"><a xlink:title=" ">
<polygon fill="#bfbfbf" stroke="black" points="267.5,-313.5 267.5,-343.5 376.5,-343.5 376.5,-313.5 267.5,-313.5"/>
<text text-anchor="start" x="275.5" y="-331.5" font-family="Helvetica,sans-Serif" font-size="10.00">include/cppgc/source</text>
<text text-anchor="middle" x="322" y="-320.5" font-family="Helvetica,sans-Serif" font-size="10.00">&#45;location.h</text>
</a>
</g>
</g>
<!-- Node2 -->
<g id="node2" class="node">
<title>Node2</title>
<g id="a_node2"><a xlink:href="logging_8h.html" target="_top" xlink:title=" ">
<polygon fill="white" stroke="black" points="140.5,-123.5 140.5,-153.5 251.5,-153.5 251.5,-123.5 140.5,-123.5"/>
<text text-anchor="start" x="148.5" y="-141.5" font-family="Helvetica,sans-Serif" font-size="10.00">include/cppgc/internal</text>
<text text-anchor="middle" x="196" y="-130.5" font-family="Helvetica,sans-Serif" font-size="10.00">/logging.h</text>
</a>
</g>
</g>
<!-- Node1&#45;&gt;Node2 -->
<g id="edge1" class="edge">
<title>Node1&#45;&gt;Node2</title>
<path fill="none" stroke="midnightblue" d="M295.25,-306.89C285.27,-298.36 274.36,-287.9 266,-277 234.88,-236.39 211.23,-179.84 201.23,-153.74"/>
<polygon fill="midnightblue" stroke="midnightblue" points="293.04,-309.61 302.98,-313.3 297.51,-304.22 293.04,-309.61"/>
</g>
<!-- Node5 -->
<g id="node5" class="node">
<title>Node5</title>
<g id="a_node5"><a xlink:href="persistent_8h.html" target="_top" xlink:title=" ">
<polygon fill="white" stroke="black" points="234,-0.5 234,-19.5 364,-19.5 364,-0.5 234,-0.5"/>
<text text-anchor="middle" x="299" y="-7.5" font-family="Helvetica,sans-Serif" font-size="10.00">include/cppgc/persistent.h</text>
</a>
</g>
</g>
<!-- Node1&#45;&gt;Node5 -->
<g id="edge17" class="edge">
<title>Node1&#45;&gt;Node5</title>
<path fill="none" stroke="midnightblue" d="M309.27,-304.22C296.91,-279.41 280,-238.59 280,-201 280,-201 280,-201 280,-137.5 280,-92.64 291.83,-39.81 296.82,-19.52"/>
<polygon fill="midnightblue" stroke="midnightblue" points="306.21,-305.93 313.9,-313.21 312.43,-302.72 306.21,-305.93"/>
</g>
<!-- Node6 -->
<g id="node6" class="node">
<title>Node6</title>
<g id="a_node6"><a xlink:href="visitor_8h.html" target="_top" xlink:title=" ">
<polygon fill="white" stroke="black" points="357.5,-62 357.5,-81 470.5,-81 470.5,-62 357.5,-62"/>
<text text-anchor="middle" x="414" y="-69" font-family="Helvetica,sans-Serif" font-size="10.00">include/cppgc/visitor.h</text>
</a>
</g>
</g>
<!-- Node1&#45;&gt;Node6 -->
<g id="edge18" class="edge">
<title>Node1&#45;&gt;Node6</title>
<path fill="none" stroke="midnightblue" d="M382.84,-310.05C429.27,-293.02 489.45,-261.92 515,-210 541.42,-156.32 463.26,-101.74 429.11,-81.11"/>
<polygon fill="midnightblue" stroke="midnightblue" points="381.43,-306.84 373.16,-313.48 383.76,-313.44 381.43,-306.84"/>
</g>
<!-- Node7 -->
<g id="node7" class="node">
<title>Node7</title>
<g id="a_node7"><a xlink:href="pointer-policies_8h.html" target="_top" xlink:title=" ">
<polygon fill="white" stroke="black" points="308.5,-246.5 308.5,-276.5 419.5,-276.5 419.5,-246.5 308.5,-246.5"/>
<text text-anchor="start" x="316.5" y="-264.5" font-family="Helvetica,sans-Serif" font-size="10.00">include/cppgc/internal</text>
<text text-anchor="middle" x="364" y="-253.5" font-family="Helvetica,sans-Serif" font-size="10.00">/pointer&#45;policies.h</text>
</a>
</g>
</g>
<!-- Node1&#45;&gt;Node7 -->
<g id="edge7" class="edge">
<title>Node1&#45;&gt;Node7</title>
<path fill="none" stroke="midnightblue" d="M336.62,-304.87C342.7,-295.46 349.57,-284.83 354.9,-276.58"/>
<polygon fill="midnightblue" stroke="midnightblue" points="333.6,-303.1 331.11,-313.4 339.48,-306.9 333.6,-303.1"/>
</g>
<!-- Node3 -->
<g id="node3" class="node">
<title>Node3</title>
<g id="a_node3"><a xlink:href="caged-heap-local-data_8h.html" target="_top" xlink:title=" ">
<polygon fill="white" stroke="black" points="0,-56.5 0,-86.5 122,-86.5 122,-56.5 0,-56.5"/>
<text text-anchor="start" x="8" y="-74.5" font-family="Helvetica,sans-Serif" font-size="10.00">include/cppgc/internal</text>
<text text-anchor="middle" x="61" y="-63.5" font-family="Helvetica,sans-Serif" font-size="10.00">/caged&#45;heap&#45;local&#45;data.h</text>
</a>
</g>
</g>
<!-- Node2&#45;&gt;Node3 -->
<g id="edge2" class="edge">
<title>Node2&#45;&gt;Node3</title>
<path fill="none" stroke="midnightblue" d="M157.56,-118.99C136.16,-108.69 109.95,-96.07 90.24,-86.58"/>
<polygon fill="midnightblue" stroke="midnightblue" points="156.18,-122.21 166.71,-123.4 159.22,-115.9 156.18,-122.21"/>
</g>
<!-- Node4 -->
<g id="node4" class="node">
<title>Node4</title>
<g id="a_node4"><a xlink:href="persistent-node_8h.html" target="_top" xlink:title=" ">
<polygon fill="white" stroke="black" points="140.5,-56.5 140.5,-86.5 251.5,-86.5 251.5,-56.5 140.5,-56.5"/>
<text text-anchor="start" x="148.5" y="-74.5" font-family="Helvetica,sans-Serif" font-size="10.00">include/cppgc/internal</text>
<text text-anchor="middle" x="196" y="-63.5" font-family="Helvetica,sans-Serif" font-size="10.00">/persistent&#45;node.h</text>
</a>
</g>
</g>
<!-- Node2&#45;&gt;Node4 -->
<g id="edge3" class="edge">
<title>Node2&#45;&gt;Node4</title>
<path fill="none" stroke="midnightblue" d="M196,-113.11C196,-104.15 196,-94.32 196,-86.58"/>
<polygon fill="midnightblue" stroke="midnightblue" points="192.5,-113.4 196,-123.4 199.5,-113.4 192.5,-113.4"/>
</g>
<!-- Node2&#45;&gt;Node6 -->
<g id="edge5" class="edge">
<title>Node2&#45;&gt;Node6</title>
<path fill="none" stroke="midnightblue" d="M252.71,-120.59C295.29,-107.9 351.81,-91.04 385.4,-81.03"/>
<polygon fill="midnightblue" stroke="midnightblue" points="251.62,-117.26 243.03,-123.48 253.62,-123.97 251.62,-117.26"/>
</g>
<!-- Node4&#45;&gt;Node5 -->
<g id="edge4" class="edge">
<title>Node4&#45;&gt;Node5</title>
<path fill="none" stroke="midnightblue" d="M229.13,-51.36C247.6,-40.69 269.69,-27.93 284.01,-19.66"/>
<polygon fill="midnightblue" stroke="midnightblue" points="227.32,-48.37 220.41,-56.4 230.82,-54.43 227.32,-48.37"/>
</g>
<!-- Node6&#45;&gt;Node5 -->
<g id="edge6" class="edge">
<title>Node6&#45;&gt;Node5</title>
<path fill="none" stroke="midnightblue" d="M388.62,-57.37C366.33,-45.83 334.56,-29.4 315.45,-19.51"/>
<polygon fill="midnightblue" stroke="midnightblue" points="387.03,-60.49 397.52,-61.98 390.25,-54.27 387.03,-60.49"/>
</g>
<!-- Node7&#45;&gt;Node5 -->
<g id="edge15" class="edge">
<title>Node7&#45;&gt;Node5</title>
<path fill="none" stroke="midnightblue" d="M357.71,-236.36C343.69,-182.56 310.41,-54.81 301.33,-19.93"/>
<polygon fill="midnightblue" stroke="midnightblue" points="354.41,-237.58 360.32,-246.37 361.18,-235.81 354.41,-237.58"/>
</g>
<!-- Node7&#45;&gt;Node6 -->
<g id="edge16" class="edge">
<title>Node7&#45;&gt;Node6</title>
<path fill="none" stroke="midnightblue" d="M366.78,-236.24C368.59,-222.55 371.32,-205.2 375,-190 385.07,-148.43 403.05,-100.49 410.56,-81.2"/>
<polygon fill="midnightblue" stroke="midnightblue" points="363.28,-235.96 365.51,-246.32 370.23,-236.83 363.28,-235.96"/>
</g>
<!-- Node8 -->
<g id="node8" class="node">
<title>Node8</title>
<g id="a_node8"><a xlink:href="member_8h.html" target="_top" xlink:title=" ">
<polygon fill="white" stroke="black" points="384,-190.5 384,-209.5 506,-209.5 506,-190.5 384,-190.5"/>
<text text-anchor="middle" x="445" y="-197.5" font-family="Helvetica,sans-Serif" font-size="10.00">include/cppgc/member.h</text>
</a>
</g>
</g>
<!-- Node7&#45;&gt;Node8 -->
<g id="edge8" class="edge">
<title>Node7&#45;&gt;Node8</title>
<path fill="none" stroke="midnightblue" d="M391.65,-240.19C405.83,-229.77 422.36,-217.63 433.21,-209.66"/>
<polygon fill="midnightblue" stroke="midnightblue" points="389.18,-237.66 383.2,-246.4 393.33,-243.3 389.18,-237.66"/>
</g>
<!-- Node8&#45;&gt;Node6 -->
<g id="edge14" class="edge">
<title>Node8&#45;&gt;Node6</title>
<path fill="none" stroke="midnightblue" d="M440.42,-180.31C433.62,-152.58 421.14,-101.63 416.15,-81.26"/>
<polygon fill="midnightblue" stroke="midnightblue" points="437.09,-181.43 442.87,-190.31 443.89,-179.76 437.09,-181.43"/>
</g>
<!-- Node9 -->
<g id="node9" class="node">
<title>Node9</title>
<g id="a_node9"><a xlink:href="liveness-broker_8h.html" target="_top" xlink:title=" ">
<polygon fill="white" stroke="black" points="562,-123.5 562,-153.5 678,-153.5 678,-123.5 562,-123.5"/>
<text text-anchor="start" x="570" y="-141.5" font-family="Helvetica,sans-Serif" font-size="10.00">include/cppgc/liveness</text>
<text text-anchor="middle" x="620" y="-130.5" font-family="Helvetica,sans-Serif" font-size="10.00">&#45;broker.h</text>
</a>
</g>
</g>
<!-- Node8&#45;&gt;Node9 -->
<g id="edge9" class="edge">
<title>Node8&#45;&gt;Node9</title>
<path fill="none" stroke="midnightblue" d="M479.62,-187.23C508.11,-177.54 548.58,-163.78 578.76,-153.52"/>
<polygon fill="midnightblue" stroke="midnightblue" points="478.41,-183.94 470.07,-190.48 480.67,-190.57 478.41,-183.94"/>
</g>
<!-- Node9&#45;&gt;Node6 -->
<g id="edge12" class="edge">
<title>Node9&#45;&gt;Node6</title>
<path fill="none" stroke="midnightblue" d="M565.9,-120.43C525.73,-107.75 472.63,-91 441.03,-81.03"/>
<polygon fill="midnightblue" stroke="midnightblue" points="564.96,-123.8 575.55,-123.48 567.07,-117.13 564.96,-123.8"/>
</g>
<!-- Node10 -->
<g id="node10" class="node">
<title>Node10</title>
<g id="a_node10"><a xlink:href="prefinalizer-handler_8h.html" target="_top" xlink:title=" ">
<polygon fill="white" stroke="black" points="606.5,-56.5 606.5,-86.5 717.5,-86.5 717.5,-56.5 606.5,-56.5"/>
<text text-anchor="start" x="614.5" y="-74.5" font-family="Helvetica,sans-Serif" font-size="10.00">include/cppgc/internal</text>
<text text-anchor="middle" x="662" y="-63.5" font-family="Helvetica,sans-Serif" font-size="10.00">/prefinalizer&#45;handler.h</text>
</a>
</g>
</g>
<!-- Node9&#45;&gt;Node10 -->
<g id="edge10" class="edge">
<title>Node9&#45;&gt;Node10</title>
<path fill="none" stroke="midnightblue" d="M634.62,-114.87C640.7,-105.46 647.57,-94.83 652.9,-86.58"/>
<polygon fill="midnightblue" stroke="midnightblue" points="631.6,-113.1 629.11,-123.4 637.48,-116.9 631.6,-113.1"/>
</g>
<!-- Node11 -->
<g id="node11" class="node">
<title>Node11</title>
<g id="a_node11"><a xlink:href="prefinalizer_8h.html" target="_top" xlink:title=" ">
<polygon fill="white" stroke="black" points="553.5,-0.5 553.5,-19.5 686.5,-19.5 686.5,-0.5 553.5,-0.5"/>
<text text-anchor="middle" x="620" y="-7.5" font-family="Helvetica,sans-Serif" font-size="10.00">include/cppgc/prefinalizer.h</text>
</a>
</g>
</g>
<!-- Node9&#45;&gt;Node11 -->
<g id="edge13" class="edge">
<title>Node9&#45;&gt;Node11</title>
<path fill="none" stroke="midnightblue" d="M607.53,-114.32C603.67,-105.96 599.93,-96.29 598,-87 595.19,-73.51 594.89,-69.42 598,-56 601.14,-42.44 608.95,-28.26 614.36,-19.52"/>
<polygon fill="midnightblue" stroke="midnightblue" points="604.45,-116 612,-123.44 610.74,-112.92 604.45,-116"/>
</g>
<!-- Node10&#45;&gt;Node11 -->
<g id="edge11" class="edge">
<title>Node10&#45;&gt;Node11</title>
<path fill="none" stroke="midnightblue" d="M646.19,-48.1C639.19,-38.19 631.37,-27.11 626.11,-19.66"/>
<polygon fill="midnightblue" stroke="midnightblue" points="643.42,-50.25 652.05,-56.4 649.14,-46.21 643.42,-50.25"/>
</g>
</g>
</svg>
