<?xml version="1.0" encoding="UTF-8" standalone="no"?>
<!DOCTYPE svg PUBLIC "-//W3C//DTD SVG 1.1//EN"
 "http://www.w3.org/Graphics/SVG/1.1/DTD/svg11.dtd">
<!-- Generated by graphviz version 2.44.0 ()
 -->
<!-- Title: cppgc::Heap::HeapOptions Pages: 1 -->
<svg width="1065pt" height="104pt"
 viewBox="0.00 0.00 1065.00 104.00" xmlns="http://www.w3.org/2000/svg" xmlns:xlink="http://www.w3.org/1999/xlink">
<g id="graph0" class="graph" transform="scale(1 1) rotate(0) translate(4 100)">
<title>cppgc::Heap::HeapOptions</title>
<polygon fill="white" stroke="transparent" points="-4,4 -4,-100 1061,-100 1061,4 -4,4"/>
<!-- Node1 -->
<g id="node1" class="node">
<title>Node1</title>
<g id="a_node1"><a xlink:title=" ">
<polygon fill="#bfbfbf" stroke="black" points="925,-44.5 925,-63.5 1057,-63.5 1057,-44.5 925,-44.5"/>
<text text-anchor="middle" x="991" y="-51.5" font-family="Helvetica,sans-Serif" font-size="10.00">cppgc::Heap::HeapOptions</text>
</a>
</g>
</g>
<!-- Node2 -->
<g id="node2" class="node">
<title>Node2</title>
<g id="a_node2"><a xlink:href="structcppgc_1_1Heap_1_1ResourceConstraints.html" target="_top" xlink:title=" ">
<polygon fill="white" stroke="black" points="625.5,-66.5 625.5,-85.5 791.5,-85.5 791.5,-66.5 625.5,-66.5"/>
<text text-anchor="middle" x="708.5" y="-73.5" font-family="Helvetica,sans-Serif" font-size="10.00">cppgc::Heap::ResourceConstraints</text>
</a>
</g>
</g>
<!-- Node2&#45;&gt;Node1 -->
<g id="edge1" class="edge">
<title>Node2&#45;&gt;Node1</title>
<path fill="none" stroke="#9a32cd" stroke-dasharray="5,2" d="M801.84,-68.76C842,-65.61 888.13,-61.99 924.66,-59.12"/>
<polygon fill="#9a32cd" stroke="#9a32cd" points="801.46,-65.28 791.76,-69.55 802.01,-72.26 801.46,-65.28"/>
<text text-anchor="middle" x="860" y="-70" font-family="Helvetica,sans-Serif" font-size="10.00"> resource_constraints</text>
</g>
<!-- Node3 -->
<g id="node3" class="node">
<title>Node3</title>
<g id="a_node3"><a xlink:title=" ">
<polygon fill="white" stroke="#bfbfbf" points="622,-17 622,-47 795,-47 795,-17 622,-17"/>
<text text-anchor="start" x="630" y="-35" font-family="Helvetica,sans-Serif" font-size="10.00">std::vector&lt; std::unique</text>
<text text-anchor="middle" x="708.5" y="-24" font-family="Helvetica,sans-Serif" font-size="10.00">_ptr&lt; cppgc::CustomSpaceBase &gt; &gt;</text>
</a>
</g>
</g>
<!-- Node3&#45;&gt;Node1 -->
<g id="edge2" class="edge">
<title>Node3&#45;&gt;Node1</title>
<path fill="none" stroke="#9a32cd" stroke-dasharray="5,2" d="M805.42,-38.31C837.71,-40.56 873.93,-43.23 907,-46 912.77,-46.48 918.76,-47.01 924.77,-47.56"/>
<polygon fill="#9a32cd" stroke="#9a32cd" points="805.3,-34.79 795.08,-37.59 804.82,-41.78 805.3,-34.79"/>
<text text-anchor="middle" x="860" y="-49" font-family="Helvetica,sans-Serif" font-size="10.00"> custom_spaces</text>
</g>
<!-- Node4 -->
<g id="node4" class="node">
<title>Node4</title>
<g id="a_node4"><a xlink:title=" ">
<polygon fill="white" stroke="#bfbfbf" points="419,-51 419,-81 533,-81 533,-51 419,-51"/>
<text text-anchor="start" x="427" y="-69" font-family="Helvetica,sans-Serif" font-size="10.00">std::unique_ptr&lt; cppgc</text>
<text text-anchor="middle" x="476" y="-58" font-family="Helvetica,sans-Serif" font-size="10.00">::CustomSpaceBase &gt;</text>
</a>
</g>
</g>
<!-- Node4&#45;&gt;Node3 -->
<g id="edge3" class="edge">
<title>Node4&#45;&gt;Node3</title>
<path fill="none" stroke="#9a32cd" stroke-dasharray="5,2" d="M543.01,-56.26C567.56,-52.64 595.78,-48.48 621.83,-44.64"/>
<polygon fill="#9a32cd" stroke="#9a32cd" points="542.47,-52.8 533.09,-57.73 543.5,-59.73 542.47,-52.8"/>
<text text-anchor="middle" x="582.5" y="-56" font-family="Helvetica,sans-Serif" font-size="10.00"> elements</text>
</g>
<!-- Node5 -->
<g id="node5" class="node">
<title>Node5</title>
<g id="a_node5"><a xlink:href="classcppgc_1_1CustomSpaceBase.html" target="_top" xlink:title=" ">
<polygon fill="white" stroke="black" points="108,-76.5 108,-95.5 239,-95.5 239,-76.5 108,-76.5"/>
<text text-anchor="middle" x="173.5" y="-83.5" font-family="Helvetica,sans-Serif" font-size="10.00">cppgc::CustomSpaceBase</text>
</a>
</g>
</g>
<!-- Node5&#45;&gt;Node4 -->
<g id="edge4" class="edge">
<title>Node5&#45;&gt;Node4</title>
<path fill="none" stroke="#9a32cd" stroke-dasharray="5,2" d="M249.6,-81C302.11,-77.51 371.12,-72.91 418.87,-69.74"/>
<polygon fill="#9a32cd" stroke="#9a32cd" points="249.08,-77.53 239.33,-81.68 249.54,-84.51 249.08,-77.53"/>
<text text-anchor="middle" x="324" y="-83" font-family="Helvetica,sans-Serif" font-size="10.00"> ptr</text>
</g>
<!-- Node6 -->
<g id="node6" class="node">
<title>Node6</title>
<g id="a_node6"><a xlink:title="STL class.">
<polygon fill="white" stroke="#bfbfbf" points="122.5,-38.5 122.5,-57.5 224.5,-57.5 224.5,-38.5 122.5,-38.5"/>
<text text-anchor="middle" x="173.5" y="-45.5" font-family="Helvetica,sans-Serif" font-size="10.00">std::unique_ptr&lt; T &gt;</text>
</a>
</g>
</g>
<!-- Node6&#45;&gt;Node4 -->
<g id="edge5" class="edge">
<title>Node6&#45;&gt;Node4</title>
<path fill="none" stroke="orange" stroke-dasharray="5,2" d="M235.04,-47.29C278.52,-47.29 338.47,-48.35 391,-53 399.97,-53.79 409.43,-54.95 418.64,-56.24"/>
<polygon fill="orange" stroke="orange" points="234.91,-43.79 224.91,-47.31 234.92,-50.79 234.91,-43.79"/>
<text text-anchor="middle" x="324" y="-56" font-family="Helvetica,sans-Serif" font-size="10.00"> &lt; cppgc::CustomSpaceBase &gt;</text>
</g>
<!-- Node7 -->
<g id="node7" class="node">
<title>Node7</title>
<g id="a_node7"><a xlink:title=" ">
<polygon fill="white" stroke="#bfbfbf" points="0,-17.5 0,-36.5 29,-36.5 29,-17.5 0,-17.5"/>
<text text-anchor="middle" x="14.5" y="-24.5" font-family="Helvetica,sans-Serif" font-size="10.00">T</text>
</a>
</g>
</g>
<!-- Node7&#45;&gt;Node6 -->
<g id="edge6" class="edge">
<title>Node7&#45;&gt;Node6</title>
<path fill="none" stroke="#9a32cd" stroke-dasharray="5,2" d="M39.22,-30.17C61.17,-33.11 94.5,-37.57 122.34,-41.29"/>
<polygon fill="#9a32cd" stroke="#9a32cd" points="39.53,-26.68 29.16,-28.83 38.61,-33.62 39.53,-26.68"/>
<text text-anchor="middle" x="68.5" y="-40" font-family="Helvetica,sans-Serif" font-size="10.00"> ptr</text>
</g>
<!-- Node8 -->
<g id="node8" class="node">
<title>Node8</title>
<g id="a_node8"><a xlink:title="STL class.">
<polygon fill="white" stroke="#bfbfbf" points="282,-0.5 282,-19.5 366,-19.5 366,-0.5 282,-0.5"/>
<text text-anchor="middle" x="324" y="-7.5" font-family="Helvetica,sans-Serif" font-size="10.00">std::vector&lt; T &gt;</text>
</a>
</g>
</g>
<!-- Node7&#45;&gt;Node8 -->
<g id="edge8" class="edge">
<title>Node7&#45;&gt;Node8</title>
<path fill="none" stroke="#9a32cd" stroke-dasharray="5,2" d="M38.71,-18.83C41.48,-18.09 44.28,-17.46 47,-17 129.49,-3.15 227.76,-4.93 281.97,-7.46"/>
<polygon fill="#9a32cd" stroke="#9a32cd" points="37.64,-15.5 29.09,-21.76 39.68,-22.19 37.64,-15.5"/>
<text text-anchor="middle" x="68.5" y="-20" font-family="Helvetica,sans-Serif" font-size="10.00"> elements</text>
</g>
<!-- Node8&#45;&gt;Node3 -->
<g id="edge7" class="edge">
<title>Node8&#45;&gt;Node3</title>
<path fill="none" stroke="orange" stroke-dasharray="5,2" d="M376.61,-11.97C420.79,-13.76 486.1,-16.62 543,-20 568.58,-21.52 596.38,-23.44 621.73,-25.3"/>
<polygon fill="orange" stroke="orange" points="376.54,-8.47 366.4,-11.57 376.26,-15.46 376.54,-8.47"/>
<text text-anchor="start" x="409" y="-34" font-family="Helvetica,sans-Serif" font-size="10.00"> &lt; std::unique_ptr&lt;</text>
<text text-anchor="middle" x="476" y="-23" font-family="Helvetica,sans-Serif" font-size="10.00"> cppgc::CustomSpaceBase &gt; &gt;</text>
</g>
</g>
</svg>
