<?xml version="1.0" encoding="UTF-8" standalone="no"?>
<!DOCTYPE svg PUBLIC "-//W3C//DTD SVG 1.1//EN"
 "http://www.w3.org/Graphics/SVG/1.1/DTD/svg11.dtd">
<!-- Generated by graphviz version 2.44.0 ()
 -->
<!-- Title: v8::internal::GetCTypePointerImpl::Get Pages: 1 -->
<svg width="374pt" height="63pt"
 viewBox="0.00 0.00 374.00 62.50" xmlns="http://www.w3.org/2000/svg" xmlns:xlink="http://www.w3.org/1999/xlink">
<g id="graph0" class="graph" transform="scale(1 1) rotate(0) translate(4 58.5)">
<title>v8::internal::GetCTypePointerImpl::Get</title>
<polygon fill="white" stroke="transparent" points="-4,4 -4,-58.5 370,-58.5 370,4 -4,4"/>
<!-- Node1 -->
<g id="node1" class="node">
<title>Node1</title>
<g id="a_node1"><a xlink:title=" ">
<polygon fill="#bfbfbf" stroke="black" points="224,-6 224,-36 366,-36 366,-6 224,-6"/>
<text text-anchor="start" x="232" y="-24" font-family="Helvetica,sans-Serif" font-size="10.00">v8::internal::GetCTypePointer</text>
<text text-anchor="middle" x="295" y="-13" font-family="Helvetica,sans-Serif" font-size="10.00">Impl::Get</text>
</a>
</g>
</g>
<!-- Node1&#45;&gt;Node1 -->
<g id="edge1" class="edge">
<title>Node1&#45;&gt;Node1</title>
<path fill="none" stroke="midnightblue" d="M330.54,-46.46C326.13,-51.18 314.28,-54.5 295,-54.5 263.36,-54.5 251.74,-45.56 260.15,-36.16"/>
<polygon fill="midnightblue" stroke="midnightblue" points="334.01,-45.91 329.85,-36.16 327.02,-46.37 334.01,-45.91"/>
</g>
<!-- Node2 -->
<g id="node2" class="node">
<title>Node2</title>
<g id="a_node2"><a xlink:href="structv8_1_1internal_1_1GetCTypePointerImpl_3_01T_00_01typename_01EnableIfHasWrapperTypeInfo_3_01T_01_4_1_1type_01_4.html#a5f29b6a4a36f04348c9c8af56595f60f" target="_top" xlink:title=" ">
<polygon fill="white" stroke="black" points="0,-0.5 0,-41.5 188,-41.5 188,-0.5 0,-0.5"/>
<text text-anchor="start" x="8" y="-29.5" font-family="Helvetica,sans-Serif" font-size="10.00">v8::internal::GetCTypePointer</text>
<text text-anchor="start" x="8" y="-18.5" font-family="Helvetica,sans-Serif" font-size="10.00">Impl&lt; T, typename EnableIfHasWrapper</text>
<text text-anchor="middle" x="94" y="-7.5" font-family="Helvetica,sans-Serif" font-size="10.00">TypeInfo&lt; T &gt;::type &gt;::Get</text>
</a>
</g>
</g>
<!-- Node1&#45;&gt;Node2 -->
<g id="edge2" class="edge">
<title>Node1&#45;&gt;Node2</title>
<path fill="none" stroke="midnightblue" d="M213.72,-21C205.33,-21 196.75,-21 188.23,-21"/>
<polygon fill="midnightblue" stroke="midnightblue" points="213.84,-24.5 223.84,-21 213.84,-17.5 213.84,-24.5"/>
</g>
</g>
</svg>
