<?xml version="1.0" encoding="UTF-8" standalone="no"?>
<!DOCTYPE svg PUBLIC "-//W3C//DTD SVG 1.1//EN"
 "http://www.w3.org/Graphics/SVG/1.1/DTD/svg11.dtd">
<!-- Generated by graphviz version 2.44.0 ()
 -->
<!-- Title: include/cppgc/trace&#45;trait.h Pages: 1 -->
<svg width="145pt" height="151pt"
 viewBox="0.00 0.00 144.50 151.00" xmlns="http://www.w3.org/2000/svg" xmlns:xlink="http://www.w3.org/1999/xlink">
<g id="graph0" class="graph" transform="scale(1 1) rotate(0) translate(4 147)">
<title>include/cppgc/trace&#45;trait.h</title>
<polygon fill="white" stroke="transparent" points="-4,4 -4,-147 140.5,-147 140.5,4 -4,4"/>
<!-- Node1 -->
<g id="node1" class="node">
<title>Node1</title>
<g id="a_node1"><a xlink:title=" ">
<polygon fill="#bfbfbf" stroke="black" points="0,-112.5 0,-142.5 101,-142.5 101,-112.5 0,-112.5"/>
<text text-anchor="start" x="8" y="-130.5" font-family="Helvetica,sans-Serif" font-size="10.00">include/cppgc/trace</text>
<text text-anchor="middle" x="50.5" y="-119.5" font-family="Helvetica,sans-Serif" font-size="10.00">&#45;trait.h</text>
</a>
</g>
</g>
<!-- Node2 -->
<g id="node2" class="node">
<title>Node2</title>
<g id="a_node2"><a xlink:title=" ">
<polygon fill="white" stroke="#bfbfbf" points="19.5,-0.5 19.5,-19.5 81.5,-19.5 81.5,-0.5 19.5,-0.5"/>
<text text-anchor="middle" x="50.5" y="-7.5" font-family="Helvetica,sans-Serif" font-size="10.00">type_traits</text>
</a>
</g>
</g>
<!-- Node1&#45;&gt;Node2 -->
<g id="edge1" class="edge">
<title>Node1&#45;&gt;Node2</title>
<path fill="none" stroke="midnightblue" d="M42.66,-112.31C35.8,-98.17 27.5,-75.75 31.5,-56 33.39,-46.65 37.29,-36.83 41.07,-28.75"/>
<polygon fill="midnightblue" stroke="midnightblue" points="44.29,-30.14 45.62,-19.63 38.03,-27.01 44.29,-30.14"/>
</g>
<!-- Node3 -->
<g id="node3" class="node">
<title>Node3</title>
<g id="a_node3"><a xlink:href="type-traits_8h.html" target="_top" xlink:title=" ">
<polygon fill="white" stroke="black" points="40.5,-56.5 40.5,-75.5 136.5,-75.5 136.5,-56.5 40.5,-56.5"/>
<text text-anchor="middle" x="88.5" y="-63.5" font-family="Helvetica,sans-Serif" font-size="10.00">cppgc/type&#45;traits.h</text>
</a>
</g>
</g>
<!-- Node1&#45;&gt;Node3 -->
<g id="edge2" class="edge">
<title>Node1&#45;&gt;Node3</title>
<path fill="none" stroke="midnightblue" d="M59.51,-112.4C64.91,-103.93 71.83,-93.1 77.55,-84.14"/>
<polygon fill="midnightblue" stroke="midnightblue" points="80.54,-85.97 82.97,-75.66 74.64,-82.2 80.54,-85.97"/>
</g>
<!-- Node3&#45;&gt;Node2 -->
<g id="edge3" class="edge">
<title>Node3&#45;&gt;Node2</title>
<path fill="none" stroke="midnightblue" d="M82.23,-56.08C76.86,-48.46 68.98,-37.26 62.42,-27.94"/>
<polygon fill="midnightblue" stroke="midnightblue" points="65.28,-25.91 56.66,-19.75 59.55,-29.94 65.28,-25.91"/>
</g>
</g>
</svg>
