<?xml version="1.0" encoding="UTF-8" standalone="no"?>
<!DOCTYPE svg PUBLIC "-//W3C//DTD SVG 1.1//EN"
 "http://www.w3.org/Graphics/SVG/1.1/DTD/svg11.dtd">
<!-- Generated by graphviz version 2.44.0 ()
 -->
<!-- Title: include/cppgc/trace&#45;trait.h Pages: 1 -->
<svg width="579pt" height="229pt"
 viewBox="0.00 0.00 579.00 229.00" xmlns="http://www.w3.org/2000/svg" xmlns:xlink="http://www.w3.org/1999/xlink">
<g id="graph0" class="graph" transform="scale(1 1) rotate(0) translate(4 225)">
<title>include/cppgc/trace&#45;trait.h</title>
<polygon fill="white" stroke="transparent" points="-4,4 -4,-225 575,-225 575,4 -4,4"/>
<!-- Node1 -->
<g id="node1" class="node">
<title>Node1</title>
<g id="a_node1"><a xlink:title=" ">
<polygon fill="#bfbfbf" stroke="black" points="235,-190.5 235,-220.5 336,-220.5 336,-190.5 235,-190.5"/>
<text text-anchor="start" x="243" y="-208.5" font-family="Helvetica,sans-Serif" font-size="10.00">include/cppgc/trace</text>
<text text-anchor="middle" x="285.5" y="-197.5" font-family="Helvetica,sans-Serif" font-size="10.00">&#45;trait.h</text>
</a>
</g>
</g>
<!-- Node2 -->
<g id="node2" class="node">
<title>Node2</title>
<g id="a_node2"><a xlink:href="garbage-collected_8h.html" target="_top" xlink:title=" ">
<polygon fill="white" stroke="black" points="228.5,-123.5 228.5,-153.5 342.5,-153.5 342.5,-123.5 228.5,-123.5"/>
<text text-anchor="start" x="236.5" y="-141.5" font-family="Helvetica,sans-Serif" font-size="10.00">include/cppgc/garbage</text>
<text text-anchor="middle" x="285.5" y="-130.5" font-family="Helvetica,sans-Serif" font-size="10.00">&#45;collected.h</text>
</a>
</g>
</g>
<!-- Node1&#45;&gt;Node2 -->
<g id="edge1" class="edge">
<title>Node1&#45;&gt;Node2</title>
<path fill="none" stroke="midnightblue" d="M285.5,-180.11C285.5,-171.15 285.5,-161.32 285.5,-153.58"/>
<polygon fill="midnightblue" stroke="midnightblue" points="282,-180.4 285.5,-190.4 289,-180.4 282,-180.4"/>
</g>
<!-- Node4 -->
<g id="node4" class="node">
<title>Node4</title>
<g id="a_node4"><a xlink:href="visitor_8h.html" target="_top" xlink:title=" ">
<polygon fill="white" stroke="black" points="276,-62 276,-81 389,-81 389,-62 276,-62"/>
<text text-anchor="middle" x="332.5" y="-69" font-family="Helvetica,sans-Serif" font-size="10.00">include/cppgc/visitor.h</text>
</a>
</g>
</g>
<!-- Node1&#45;&gt;Node4 -->
<g id="edge14" class="edge">
<title>Node1&#45;&gt;Node4</title>
<path fill="none" stroke="midnightblue" d="M323,-184.83C334.28,-176.88 345.29,-166.58 351.5,-154 363.73,-129.25 347.34,-96.34 338.08,-81.02"/>
<polygon fill="midnightblue" stroke="midnightblue" points="320.87,-182.05 314.41,-190.45 324.7,-187.91 320.87,-182.05"/>
</g>
<!-- Node6 -->
<g id="node6" class="node">
<title>Node6</title>
<g id="a_node6"><a xlink:href="gc-info_8h.html" target="_top" xlink:title=" ">
<polygon fill="white" stroke="black" points="99,-123.5 99,-153.5 210,-153.5 210,-123.5 99,-123.5"/>
<text text-anchor="start" x="107" y="-141.5" font-family="Helvetica,sans-Serif" font-size="10.00">include/cppgc/internal</text>
<text text-anchor="middle" x="154.5" y="-130.5" font-family="Helvetica,sans-Serif" font-size="10.00">/gc&#45;info.h</text>
</a>
</g>
</g>
<!-- Node1&#45;&gt;Node6 -->
<g id="edge5" class="edge">
<title>Node1&#45;&gt;Node6</title>
<path fill="none" stroke="midnightblue" d="M247.92,-185.85C227.21,-175.58 201.91,-163.03 182.87,-153.58"/>
<polygon fill="midnightblue" stroke="midnightblue" points="246.56,-189.09 257.07,-190.4 249.67,-182.82 246.56,-189.09"/>
</g>
<!-- Node7 -->
<g id="node7" class="node">
<title>Node7</title>
<g id="a_node7"><a xlink:href="persistent-node_8h.html" target="_top" xlink:title=" ">
<polygon fill="white" stroke="black" points="0,-56.5 0,-86.5 111,-86.5 111,-56.5 0,-56.5"/>
<text text-anchor="start" x="8" y="-74.5" font-family="Helvetica,sans-Serif" font-size="10.00">include/cppgc/internal</text>
<text text-anchor="middle" x="55.5" y="-63.5" font-family="Helvetica,sans-Serif" font-size="10.00">/persistent&#45;node.h</text>
</a>
</g>
</g>
<!-- Node1&#45;&gt;Node7 -->
<g id="edge7" class="edge">
<title>Node1&#45;&gt;Node7</title>
<path fill="none" stroke="midnightblue" d="M224.53,-202.67C182.15,-198.37 126.8,-186.31 89.5,-154 69.22,-136.43 60.78,-104.8 57.47,-86.54"/>
<polygon fill="midnightblue" stroke="midnightblue" points="224.46,-206.18 234.73,-203.58 225.08,-199.21 224.46,-206.18"/>
</g>
<!-- Node8 -->
<g id="node8" class="node">
<title>Node8</title>
<g id="a_node8"><a xlink:href="liveness-broker_8h.html" target="_top" xlink:title=" ">
<polygon fill="white" stroke="black" points="401.5,-123.5 401.5,-153.5 517.5,-153.5 517.5,-123.5 401.5,-123.5"/>
<text text-anchor="start" x="409.5" y="-141.5" font-family="Helvetica,sans-Serif" font-size="10.00">include/cppgc/liveness</text>
<text text-anchor="middle" x="459.5" y="-130.5" font-family="Helvetica,sans-Serif" font-size="10.00">&#45;broker.h</text>
</a>
</g>
</g>
<!-- Node1&#45;&gt;Node8 -->
<g id="edge9" class="edge">
<title>Node1&#45;&gt;Node8</title>
<path fill="none" stroke="midnightblue" d="M332.83,-186.82C360.8,-176.37 395.73,-163.32 421.82,-153.58"/>
<polygon fill="midnightblue" stroke="midnightblue" points="331.4,-183.62 323.26,-190.4 333.85,-190.18 331.4,-183.62"/>
</g>
<!-- Node3 -->
<g id="node3" class="node">
<title>Node3</title>
<g id="a_node3"><a xlink:href="allocation_8h.html" target="_top" xlink:title=" ">
<polygon fill="white" stroke="black" points="129.5,-62 129.5,-81 257.5,-81 257.5,-62 129.5,-62"/>
<text text-anchor="middle" x="193.5" y="-69" font-family="Helvetica,sans-Serif" font-size="10.00">include/cppgc/allocation.h</text>
</a>
</g>
</g>
<!-- Node2&#45;&gt;Node3 -->
<g id="edge2" class="edge">
<title>Node2&#45;&gt;Node3</title>
<path fill="none" stroke="midnightblue" d="M256.92,-117.31C239.64,-105.1 218.52,-90.18 205.54,-81.01"/>
<polygon fill="midnightblue" stroke="midnightblue" points="255.35,-120.48 265.54,-123.4 259.39,-114.77 255.35,-120.48"/>
</g>
<!-- Node2&#45;&gt;Node4 -->
<g id="edge3" class="edge">
<title>Node2&#45;&gt;Node4</title>
<path fill="none" stroke="midnightblue" d="M301.79,-114.97C310.21,-103.33 319.99,-89.8 326.21,-81.19"/>
<polygon fill="midnightblue" stroke="midnightblue" points="298.72,-113.24 295.7,-123.4 304.39,-117.34 298.72,-113.24"/>
</g>
<!-- Node5 -->
<g id="node5" class="node">
<title>Node5</title>
<g id="a_node5"><a xlink:href="persistent_8h.html" target="_top" xlink:title=" ">
<polygon fill="white" stroke="black" points="161.5,-0.5 161.5,-19.5 291.5,-19.5 291.5,-0.5 161.5,-0.5"/>
<text text-anchor="middle" x="226.5" y="-7.5" font-family="Helvetica,sans-Serif" font-size="10.00">include/cppgc/persistent.h</text>
</a>
</g>
</g>
<!-- Node4&#45;&gt;Node5 -->
<g id="edge4" class="edge">
<title>Node4&#45;&gt;Node5</title>
<path fill="none" stroke="midnightblue" d="M308.55,-57.06C288.04,-45.54 259.12,-29.31 241.66,-19.51"/>
<polygon fill="midnightblue" stroke="midnightblue" points="306.88,-60.13 317.31,-61.98 310.31,-54.03 306.88,-60.13"/>
</g>
<!-- Node6&#45;&gt;Node3 -->
<g id="edge6" class="edge">
<title>Node6&#45;&gt;Node3</title>
<path fill="none" stroke="midnightblue" d="M168.22,-114.63C175.16,-103.07 183.17,-89.71 188.28,-81.19"/>
<polygon fill="midnightblue" stroke="midnightblue" points="165.11,-113.02 162.96,-123.4 171.11,-116.62 165.11,-113.02"/>
</g>
<!-- Node7&#45;&gt;Node5 -->
<g id="edge8" class="edge">
<title>Node7&#45;&gt;Node5</title>
<path fill="none" stroke="midnightblue" d="M105.55,-53.09C137.12,-42.1 176.54,-28.39 201.62,-19.66"/>
<polygon fill="midnightblue" stroke="midnightblue" points="104.32,-49.81 96.02,-56.4 106.62,-56.42 104.32,-49.81"/>
</g>
<!-- Node8&#45;&gt;Node4 -->
<g id="edge12" class="edge">
<title>Node8&#45;&gt;Node4</title>
<path fill="none" stroke="midnightblue" d="M422.97,-118.8C398.62,-106.34 367.78,-90.56 349.12,-81.01"/>
<polygon fill="midnightblue" stroke="midnightblue" points="421.45,-121.96 431.94,-123.4 424.64,-115.72 421.45,-121.96"/>
</g>
<!-- Node9 -->
<g id="node9" class="node">
<title>Node9</title>
<g id="a_node9"><a xlink:href="prefinalizer-handler_8h.html" target="_top" xlink:title=" ">
<polygon fill="white" stroke="black" points="407,-56.5 407,-86.5 518,-86.5 518,-56.5 407,-56.5"/>
<text text-anchor="start" x="415" y="-74.5" font-family="Helvetica,sans-Serif" font-size="10.00">include/cppgc/internal</text>
<text text-anchor="middle" x="462.5" y="-63.5" font-family="Helvetica,sans-Serif" font-size="10.00">/prefinalizer&#45;handler.h</text>
</a>
</g>
</g>
<!-- Node8&#45;&gt;Node9 -->
<g id="edge10" class="edge">
<title>Node8&#45;&gt;Node9</title>
<path fill="none" stroke="midnightblue" d="M460.61,-113.4C461.03,-104.37 461.49,-94.41 461.85,-86.58"/>
<polygon fill="midnightblue" stroke="midnightblue" points="457.12,-113.25 460.15,-123.4 464.11,-113.57 457.12,-113.25"/>
</g>
<!-- Node10 -->
<g id="node10" class="node">
<title>Node10</title>
<g id="a_node10"><a xlink:href="prefinalizer_8h.html" target="_top" xlink:title=" ">
<polygon fill="white" stroke="black" points="438,-0.5 438,-19.5 571,-19.5 571,-0.5 438,-0.5"/>
<text text-anchor="middle" x="504.5" y="-7.5" font-family="Helvetica,sans-Serif" font-size="10.00">include/cppgc/prefinalizer.h</text>
</a>
</g>
</g>
<!-- Node8&#45;&gt;Node10 -->
<g id="edge13" class="edge">
<title>Node8&#45;&gt;Node10</title>
<path fill="none" stroke="midnightblue" d="M497.84,-117.75C509.18,-109.83 520.23,-99.57 526.5,-87 537.9,-64.13 521.12,-34.38 511.09,-19.81"/>
<polygon fill="midnightblue" stroke="midnightblue" points="495.69,-114.97 489.19,-123.34 499.48,-120.85 495.69,-114.97"/>
</g>
<!-- Node9&#45;&gt;Node10 -->
<g id="edge11" class="edge">
<title>Node9&#45;&gt;Node10</title>
<path fill="none" stroke="midnightblue" d="M478.31,-48.1C485.31,-38.19 493.13,-27.11 498.39,-19.66"/>
<polygon fill="midnightblue" stroke="midnightblue" points="475.36,-46.21 472.45,-56.4 481.08,-50.25 475.36,-46.21"/>
</g>
</g>
</svg>
