<?xml version="1.0" encoding="UTF-8" standalone="no"?>
<!DOCTYPE svg PUBLIC "-//W3C//DTD SVG 1.1//EN"
 "http://www.w3.org/Graphics/SVG/1.1/DTD/svg11.dtd">
<!-- Generated by graphviz version 2.44.0 ()
 -->
<!-- Title: include/cppgc/type&#45;traits.h Pages: 1 -->
<svg width="615pt" height="296pt"
 viewBox="0.00 0.00 614.72 296.00" xmlns="http://www.w3.org/2000/svg" xmlns:xlink="http://www.w3.org/1999/xlink">
<g id="graph0" class="graph" transform="scale(1 1) rotate(0) translate(4 292)">
<title>include/cppgc/type&#45;traits.h</title>
<polygon fill="white" stroke="transparent" points="-4,4 -4,-292 610.72,-292 610.72,4 -4,4"/>
<!-- Node1 -->
<g id="node1" class="node">
<title>Node1</title>
<g id="a_node1"><a xlink:title=" ">
<polygon fill="#bfbfbf" stroke="black" points="162.22,-257.5 162.22,-287.5 260.22,-287.5 260.22,-257.5 162.22,-257.5"/>
<text text-anchor="start" x="170.22" y="-275.5" font-family="Helvetica,sans-Serif" font-size="10.00">include/cppgc/type</text>
<text text-anchor="middle" x="211.22" y="-264.5" font-family="Helvetica,sans-Serif" font-size="10.00">&#45;traits.h</text>
</a>
</g>
</g>
<!-- Node2 -->
<g id="node2" class="node">
<title>Node2</title>
<g id="a_node2"><a xlink:href="trace-trait_8h.html" target="_top" xlink:title=" ">
<polygon fill="white" stroke="black" points="239.72,-190.5 239.72,-220.5 340.72,-220.5 340.72,-190.5 239.72,-190.5"/>
<text text-anchor="start" x="247.72" y="-208.5" font-family="Helvetica,sans-Serif" font-size="10.00">include/cppgc/trace</text>
<text text-anchor="middle" x="290.22" y="-197.5" font-family="Helvetica,sans-Serif" font-size="10.00">&#45;trait.h</text>
</a>
</g>
</g>
<!-- Node1&#45;&gt;Node2 -->
<g id="edge1" class="edge">
<title>Node1&#45;&gt;Node2</title>
<path fill="none" stroke="midnightblue" d="M236.28,-250.88C248.28,-241.01 262.35,-229.43 273.11,-220.58"/>
<polygon fill="midnightblue" stroke="midnightblue" points="233.86,-248.34 228.36,-257.4 238.31,-253.75 233.86,-248.34"/>
</g>
<!-- Node3 -->
<g id="node3" class="node">
<title>Node3</title>
<g id="a_node3"><a xlink:href="garbage-collected_8h.html" target="_top" xlink:title=" ">
<polygon fill="white" stroke="black" points="166.22,-123.5 166.22,-153.5 280.22,-153.5 280.22,-123.5 166.22,-123.5"/>
<text text-anchor="start" x="174.22" y="-141.5" font-family="Helvetica,sans-Serif" font-size="10.00">include/cppgc/garbage</text>
<text text-anchor="middle" x="223.22" y="-130.5" font-family="Helvetica,sans-Serif" font-size="10.00">&#45;collected.h</text>
</a>
</g>
</g>
<!-- Node1&#45;&gt;Node3 -->
<g id="edge16" class="edge">
<title>Node1&#45;&gt;Node3</title>
<path fill="none" stroke="midnightblue" d="M213.41,-247.39C215.91,-219.9 219.91,-175.89 221.94,-153.52"/>
<polygon fill="midnightblue" stroke="midnightblue" points="209.92,-247.1 212.5,-257.37 216.89,-247.73 209.92,-247.1"/>
</g>
<!-- Node6 -->
<g id="node6" class="node">
<title>Node6</title>
<g id="a_node6"><a xlink:href="persistent_8h.html" target="_top" xlink:title=" ">
<polygon fill="white" stroke="black" points="185.22,-0.5 185.22,-19.5 315.22,-19.5 315.22,-0.5 185.22,-0.5"/>
<text text-anchor="middle" x="250.22" y="-7.5" font-family="Helvetica,sans-Serif" font-size="10.00">include/cppgc/persistent.h</text>
</a>
</g>
</g>
<!-- Node1&#45;&gt;Node6 -->
<g id="edge22" class="edge">
<title>Node1&#45;&gt;Node6</title>
<path fill="none" stroke="midnightblue" d="M151.68,-269.36C114.08,-264.74 67.43,-252.44 39.22,-221 -9.77,-166.4 -14.33,-110.09 35.22,-56 55.12,-34.28 129.31,-22.38 185.01,-16.37"/>
<polygon fill="midnightblue" stroke="midnightblue" points="151.71,-272.88 162.03,-270.46 152.46,-265.92 151.71,-272.88"/>
</g>
<!-- Node12 -->
<g id="node12" class="node">
<title>Node12</title>
<g id="a_node12"><a xlink:href="finalizer-trait_8h.html" target="_top" xlink:title=" ">
<polygon fill="white" stroke="black" points="48.72,-190.5 48.72,-220.5 159.72,-220.5 159.72,-190.5 48.72,-190.5"/>
<text text-anchor="start" x="56.72" y="-208.5" font-family="Helvetica,sans-Serif" font-size="10.00">include/cppgc/internal</text>
<text text-anchor="middle" x="104.22" y="-197.5" font-family="Helvetica,sans-Serif" font-size="10.00">/finalizer&#45;trait.h</text>
</a>
</g>
</g>
<!-- Node1&#45;&gt;Node12 -->
<g id="edge17" class="edge">
<title>Node1&#45;&gt;Node12</title>
<path fill="none" stroke="midnightblue" d="M179.14,-252.02C162.49,-241.9 142.52,-229.77 127.39,-220.58"/>
<polygon fill="midnightblue" stroke="midnightblue" points="177.64,-255.2 188,-257.4 181.27,-249.21 177.64,-255.2"/>
</g>
<!-- Node13 -->
<g id="node13" class="node">
<title>Node13</title>
<g id="a_node13"><a xlink:href="member_8h.html" target="_top" xlink:title=" ">
<polygon fill="white" stroke="black" points="359.22,-196 359.22,-215 481.22,-215 481.22,-196 359.22,-196"/>
<text text-anchor="middle" x="420.22" y="-203" font-family="Helvetica,sans-Serif" font-size="10.00">include/cppgc/member.h</text>
</a>
</g>
</g>
<!-- Node1&#45;&gt;Node13 -->
<g id="edge19" class="edge">
<title>Node1&#45;&gt;Node13</title>
<path fill="none" stroke="midnightblue" d="M266.11,-254.43C306.86,-241.75 360.73,-225 392.8,-215.03"/>
<polygon fill="midnightblue" stroke="midnightblue" points="264.82,-251.16 256.31,-257.48 266.9,-257.85 264.82,-251.16"/>
</g>
<!-- Node2&#45;&gt;Node3 -->
<g id="edge2" class="edge">
<title>Node2&#45;&gt;Node3</title>
<path fill="none" stroke="midnightblue" d="M268.38,-183.31C258.33,-173.56 246.68,-162.26 237.73,-153.58"/>
<polygon fill="midnightblue" stroke="midnightblue" points="266.07,-185.94 275.68,-190.4 270.94,-180.92 266.07,-185.94"/>
</g>
<!-- Node5 -->
<g id="node5" class="node">
<title>Node5</title>
<g id="a_node5"><a xlink:href="visitor_8h.html" target="_top" xlink:title=" ">
<polygon fill="white" stroke="black" points="323.72,-62 323.72,-81 436.72,-81 436.72,-62 323.72,-62"/>
<text text-anchor="middle" x="380.22" y="-69" font-family="Helvetica,sans-Serif" font-size="10.00">include/cppgc/visitor.h</text>
</a>
</g>
</g>
<!-- Node2&#45;&gt;Node5 -->
<g id="edge15" class="edge">
<title>Node2&#45;&gt;Node5</title>
<path fill="none" stroke="midnightblue" d="M305.65,-181.87C325.93,-152.12 360.61,-101.26 374.36,-81.1"/>
<polygon fill="midnightblue" stroke="midnightblue" points="302.59,-180.14 299.85,-190.37 308.38,-184.08 302.59,-180.14"/>
</g>
<!-- Node7 -->
<g id="node7" class="node">
<title>Node7</title>
<g id="a_node7"><a xlink:href="gc-info_8h.html" target="_top" xlink:title=" ">
<polygon fill="white" stroke="black" points="36.72,-123.5 36.72,-153.5 147.72,-153.5 147.72,-123.5 36.72,-123.5"/>
<text text-anchor="start" x="44.72" y="-141.5" font-family="Helvetica,sans-Serif" font-size="10.00">include/cppgc/internal</text>
<text text-anchor="middle" x="92.22" y="-130.5" font-family="Helvetica,sans-Serif" font-size="10.00">/gc&#45;info.h</text>
</a>
</g>
</g>
<!-- Node2&#45;&gt;Node7 -->
<g id="edge6" class="edge">
<title>Node2&#45;&gt;Node7</title>
<path fill="none" stroke="midnightblue" d="M237.61,-187.23C205.58,-176.71 165.18,-163.45 135.1,-153.58"/>
<polygon fill="midnightblue" stroke="midnightblue" points="236.66,-190.6 247.26,-190.4 238.85,-183.95 236.66,-190.6"/>
</g>
<!-- Node8 -->
<g id="node8" class="node">
<title>Node8</title>
<g id="a_node8"><a xlink:href="persistent-node_8h.html" target="_top" xlink:title=" ">
<polygon fill="white" stroke="black" points="194.72,-56.5 194.72,-86.5 305.72,-86.5 305.72,-56.5 194.72,-56.5"/>
<text text-anchor="start" x="202.72" y="-74.5" font-family="Helvetica,sans-Serif" font-size="10.00">include/cppgc/internal</text>
<text text-anchor="middle" x="250.22" y="-63.5" font-family="Helvetica,sans-Serif" font-size="10.00">/persistent&#45;node.h</text>
</a>
</g>
</g>
<!-- Node2&#45;&gt;Node8 -->
<g id="edge8" class="edge">
<title>Node2&#45;&gt;Node8</title>
<path fill="none" stroke="midnightblue" d="M293.85,-180.5C295.42,-163.89 295.67,-141.53 289.22,-123 284.41,-109.19 274.19,-96.2 265.42,-86.85"/>
<polygon fill="midnightblue" stroke="midnightblue" points="290.36,-180.14 292.67,-190.48 297.32,-180.96 290.36,-180.14"/>
</g>
<!-- Node9 -->
<g id="node9" class="node">
<title>Node9</title>
<g id="a_node9"><a xlink:href="liveness-broker_8h.html" target="_top" xlink:title=" ">
<polygon fill="white" stroke="black" points="412.22,-123.5 412.22,-153.5 528.22,-153.5 528.22,-123.5 412.22,-123.5"/>
<text text-anchor="start" x="420.22" y="-141.5" font-family="Helvetica,sans-Serif" font-size="10.00">include/cppgc/liveness</text>
<text text-anchor="middle" x="470.22" y="-130.5" font-family="Helvetica,sans-Serif" font-size="10.00">&#45;broker.h</text>
</a>
</g>
</g>
<!-- Node2&#45;&gt;Node9 -->
<g id="edge10" class="edge">
<title>Node2&#45;&gt;Node9</title>
<path fill="none" stroke="midnightblue" d="M338.8,-186.96C367.8,-176.48 404.13,-163.37 431.24,-153.58"/>
<polygon fill="midnightblue" stroke="midnightblue" points="337.49,-183.71 329.28,-190.4 339.87,-190.29 337.49,-183.71"/>
</g>
<!-- Node4 -->
<g id="node4" class="node">
<title>Node4</title>
<g id="a_node4"><a xlink:href="allocation_8h.html" target="_top" xlink:title=" ">
<polygon fill="white" stroke="black" points="44.22,-62 44.22,-81 172.22,-81 172.22,-62 44.22,-62"/>
<text text-anchor="middle" x="108.22" y="-69" font-family="Helvetica,sans-Serif" font-size="10.00">include/cppgc/allocation.h</text>
</a>
</g>
</g>
<!-- Node3&#45;&gt;Node4 -->
<g id="edge3" class="edge">
<title>Node3&#45;&gt;Node4</title>
<path fill="none" stroke="midnightblue" d="M189.56,-118.47C167.6,-106.06 140.02,-90.47 123.27,-81.01"/>
<polygon fill="midnightblue" stroke="midnightblue" points="187.84,-121.52 198.27,-123.4 191.28,-115.43 187.84,-121.52"/>
</g>
<!-- Node3&#45;&gt;Node5 -->
<g id="edge4" class="edge">
<title>Node3&#45;&gt;Node5</title>
<path fill="none" stroke="midnightblue" d="M266.8,-119.46C297.13,-106.9 336.2,-90.72 359.67,-81.01"/>
<polygon fill="midnightblue" stroke="midnightblue" points="265.19,-116.34 257.29,-123.4 267.86,-122.8 265.19,-116.34"/>
</g>
<!-- Node5&#45;&gt;Node6 -->
<g id="edge5" class="edge">
<title>Node5&#45;&gt;Node6</title>
<path fill="none" stroke="midnightblue" d="M352.2,-57.67C326.97,-46.13 290.61,-29.49 268.81,-19.51"/>
<polygon fill="midnightblue" stroke="midnightblue" points="351.04,-61 361.59,-61.98 353.96,-54.63 351.04,-61"/>
</g>
<!-- Node7&#45;&gt;Node4 -->
<g id="edge7" class="edge">
<title>Node7&#45;&gt;Node4</title>
<path fill="none" stroke="midnightblue" d="M98.1,-113.6C100.89,-102.28 104.04,-89.46 106.08,-81.19"/>
<polygon fill="midnightblue" stroke="midnightblue" points="94.68,-112.85 95.69,-123.4 101.48,-114.52 94.68,-112.85"/>
</g>
<!-- Node8&#45;&gt;Node6 -->
<g id="edge9" class="edge">
<title>Node8&#45;&gt;Node6</title>
<path fill="none" stroke="midnightblue" d="M250.22,-46.29C250.22,-36.86 250.22,-26.65 250.22,-19.66"/>
<polygon fill="midnightblue" stroke="midnightblue" points="246.72,-46.4 250.22,-56.4 253.72,-46.4 246.72,-46.4"/>
</g>
<!-- Node9&#45;&gt;Node5 -->
<g id="edge13" class="edge">
<title>Node9&#45;&gt;Node5</title>
<path fill="none" stroke="midnightblue" d="M442.26,-117.31C425.36,-105.1 404.7,-90.18 392,-81.01"/>
<polygon fill="midnightblue" stroke="midnightblue" points="440.53,-120.38 450.69,-123.4 444.63,-114.7 440.53,-120.38"/>
</g>
<!-- Node10 -->
<g id="node10" class="node">
<title>Node10</title>
<g id="a_node10"><a xlink:href="prefinalizer-handler_8h.html" target="_top" xlink:title=" ">
<polygon fill="white" stroke="black" points="495.72,-56.5 495.72,-86.5 606.72,-86.5 606.72,-56.5 495.72,-56.5"/>
<text text-anchor="start" x="503.72" y="-74.5" font-family="Helvetica,sans-Serif" font-size="10.00">include/cppgc/internal</text>
<text text-anchor="middle" x="551.22" y="-63.5" font-family="Helvetica,sans-Serif" font-size="10.00">/prefinalizer&#45;handler.h</text>
</a>
</g>
</g>
<!-- Node9&#45;&gt;Node10 -->
<g id="edge11" class="edge">
<title>Node9&#45;&gt;Node10</title>
<path fill="none" stroke="midnightblue" d="M495.91,-116.88C508.22,-107.01 522.65,-95.43 533.68,-86.58"/>
<polygon fill="midnightblue" stroke="midnightblue" points="493.4,-114.41 487.79,-123.4 497.78,-119.87 493.4,-114.41"/>
</g>
<!-- Node11 -->
<g id="node11" class="node">
<title>Node11</title>
<g id="a_node11"><a xlink:href="prefinalizer_8h.html" target="_top" xlink:title=" ">
<polygon fill="white" stroke="black" points="442.72,-0.5 442.72,-19.5 575.72,-19.5 575.72,-0.5 442.72,-0.5"/>
<text text-anchor="middle" x="509.22" y="-7.5" font-family="Helvetica,sans-Serif" font-size="10.00">include/cppgc/prefinalizer.h</text>
</a>
</g>
</g>
<!-- Node9&#45;&gt;Node11 -->
<g id="edge14" class="edge">
<title>Node9&#45;&gt;Node11</title>
<path fill="none" stroke="midnightblue" d="M473.61,-113.48C476.33,-97.02 480.76,-74.84 487.22,-56 491.73,-42.84 499.2,-28.55 504.16,-19.69"/>
<polygon fill="midnightblue" stroke="midnightblue" points="470.15,-112.95 472.07,-123.37 477.07,-114.03 470.15,-112.95"/>
</g>
<!-- Node10&#45;&gt;Node11 -->
<g id="edge12" class="edge">
<title>Node10&#45;&gt;Node11</title>
<path fill="none" stroke="midnightblue" d="M535.41,-48.1C528.41,-38.19 520.59,-27.11 515.33,-19.66"/>
<polygon fill="midnightblue" stroke="midnightblue" points="532.64,-50.25 541.27,-56.4 538.36,-46.21 532.64,-50.25"/>
</g>
<!-- Node12&#45;&gt;Node7 -->
<g id="edge18" class="edge">
<title>Node12&#45;&gt;Node7</title>
<path fill="none" stroke="midnightblue" d="M99.77,-180.4C98.1,-171.37 96.26,-161.41 94.82,-153.58"/>
<polygon fill="midnightblue" stroke="midnightblue" points="96.36,-181.2 101.62,-190.4 103.24,-179.93 96.36,-181.2"/>
</g>
<!-- Node13&#45;&gt;Node5 -->
<g id="edge21" class="edge">
<title>Node13&#45;&gt;Node5</title>
<path fill="none" stroke="midnightblue" d="M413.87,-186.35C410.57,-176.77 406.55,-164.79 403.22,-154 395.05,-127.59 386.48,-96.02 382.5,-81.11"/>
<polygon fill="midnightblue" stroke="midnightblue" points="410.62,-187.66 417.2,-195.96 417.23,-185.37 410.62,-187.66"/>
</g>
<!-- Node13&#45;&gt;Node9 -->
<g id="edge20" class="edge">
<title>Node13&#45;&gt;Node9</title>
<path fill="none" stroke="midnightblue" d="M433.16,-187.67C441.3,-177.09 451.68,-163.6 459.38,-153.59"/>
<polygon fill="midnightblue" stroke="midnightblue" points="430.29,-185.67 426.96,-195.73 435.83,-189.94 430.29,-185.67"/>
</g>
</g>
</svg>
