<?xml version="1.0" encoding="UTF-8" standalone="no"?>
<!DOCTYPE svg PUBLIC "-//W3C//DTD SVG 1.1//EN"
 "http://www.w3.org/Graphics/SVG/1.1/DTD/svg11.dtd">
<!-- Generated by graphviz version 2.44.0 ()
 -->
<!-- Title: include/v8&#45;platform.h Pages: 1 -->
<svg width="525pt" height="352pt"
 viewBox="0.00 0.00 525.00 352.00" xmlns="http://www.w3.org/2000/svg" xmlns:xlink="http://www.w3.org/1999/xlink">
<g id="graph0" class="graph" transform="scale(1 1) rotate(0) translate(4 348)">
<title>include/v8&#45;platform.h</title>
<polygon fill="white" stroke="transparent" points="-4,4 -4,-348 521,-348 521,4 -4,4"/>
<!-- Node1 -->
<g id="node1" class="node">
<title>Node1</title>
<g id="a_node1"><a xlink:title=" ">
<polygon fill="#bfbfbf" stroke="black" points="340,-324.5 340,-343.5 447,-343.5 447,-324.5 340,-324.5"/>
<text text-anchor="middle" x="393.5" y="-331.5" font-family="Helvetica,sans-Serif" font-size="10.00">include/v8&#45;platform.h</text>
</a>
</g>
</g>
<!-- Node2 -->
<g id="node2" class="node">
<title>Node2</title>
<g id="a_node2"><a xlink:href="platform_8h.html" target="_top" xlink:title=" ">
<polygon fill="white" stroke="black" points="177.5,-263 177.5,-282 299.5,-282 299.5,-263 177.5,-263"/>
<text text-anchor="middle" x="238.5" y="-270" font-family="Helvetica,sans-Serif" font-size="10.00">include/cppgc/platform.h</text>
</a>
</g>
</g>
<!-- Node1&#45;&gt;Node2 -->
<g id="edge1" class="edge">
<title>Node1&#45;&gt;Node2</title>
<path fill="none" stroke="midnightblue" d="M361.67,-320.78C331.55,-309.22 287.12,-292.16 260.67,-282.01"/>
<polygon fill="midnightblue" stroke="midnightblue" points="360.7,-324.16 371.29,-324.48 363.21,-317.62 360.7,-324.16"/>
</g>
<!-- Node12 -->
<g id="node12" class="node">
<title>Node12</title>
<g id="a_node12"><a xlink:href="v8-tracing_8h.html" target="_top" xlink:title=" ">
<polygon fill="white" stroke="black" points="346,-257.5 346,-287.5 441,-287.5 441,-257.5 346,-257.5"/>
<text text-anchor="start" x="354" y="-275.5" font-family="Helvetica,sans-Serif" font-size="10.00">include/libplatform</text>
<text text-anchor="middle" x="393.5" y="-264.5" font-family="Helvetica,sans-Serif" font-size="10.00">/v8&#45;tracing.h</text>
</a>
</g>
</g>
<!-- Node1&#45;&gt;Node12 -->
<g id="edge14" class="edge">
<title>Node1&#45;&gt;Node12</title>
<path fill="none" stroke="midnightblue" d="M393.5,-314.23C393.5,-305.59 393.5,-295.5 393.5,-287.52"/>
<polygon fill="midnightblue" stroke="midnightblue" points="390,-314.48 393.5,-324.48 397,-314.48 390,-314.48"/>
</g>
<!-- Node13 -->
<g id="node13" class="node">
<title>Node13</title>
<g id="a_node13"><a xlink:href="libplatform_8h.html" target="_top" xlink:title=" ">
<polygon fill="white" stroke="black" points="422,-190.5 422,-220.5 517,-220.5 517,-190.5 422,-190.5"/>
<text text-anchor="start" x="430" y="-208.5" font-family="Helvetica,sans-Serif" font-size="10.00">include/libplatform</text>
<text text-anchor="middle" x="469.5" y="-197.5" font-family="Helvetica,sans-Serif" font-size="10.00">/libplatform.h</text>
</a>
</g>
</g>
<!-- Node1&#45;&gt;Node13 -->
<g id="edge16" class="edge">
<title>Node1&#45;&gt;Node13</title>
<path fill="none" stroke="midnightblue" d="M418.28,-318.89C429.71,-311.17 442.5,-300.6 450.5,-288 463.82,-267.03 467.82,-237.71 469.01,-220.55"/>
<polygon fill="midnightblue" stroke="midnightblue" points="416.08,-316.14 409.51,-324.46 419.83,-322.05 416.08,-316.14"/>
</g>
<!-- Node3 -->
<g id="node3" class="node">
<title>Node3</title>
<g id="a_node3"><a xlink:href="garbage-collected_8h.html" target="_top" xlink:title=" ">
<polygon fill="white" stroke="black" points="289.5,-190.5 289.5,-220.5 403.5,-220.5 403.5,-190.5 289.5,-190.5"/>
<text text-anchor="start" x="297.5" y="-208.5" font-family="Helvetica,sans-Serif" font-size="10.00">include/cppgc/garbage</text>
<text text-anchor="middle" x="346.5" y="-197.5" font-family="Helvetica,sans-Serif" font-size="10.00">&#45;collected.h</text>
</a>
</g>
</g>
<!-- Node2&#45;&gt;Node3 -->
<g id="edge2" class="edge">
<title>Node2&#45;&gt;Node3</title>
<path fill="none" stroke="midnightblue" d="M261.84,-257.45C279.95,-246.55 304.96,-231.5 323.09,-220.59"/>
<polygon fill="midnightblue" stroke="midnightblue" points="259.83,-254.58 253.07,-262.73 263.44,-260.58 259.83,-254.58"/>
</g>
<!-- Node7 -->
<g id="node7" class="node">
<title>Node7</title>
<g id="a_node7"><a xlink:href="heap_8h.html" target="_top" xlink:title=" ">
<polygon fill="white" stroke="black" points="23.5,-196 23.5,-215 131.5,-215 131.5,-196 23.5,-196"/>
<text text-anchor="middle" x="77.5" y="-203" font-family="Helvetica,sans-Serif" font-size="10.00">include/cppgc/heap.h</text>
</a>
</g>
</g>
<!-- Node2&#45;&gt;Node7 -->
<g id="edge6" class="edge">
<title>Node2&#45;&gt;Node7</title>
<path fill="none" stroke="midnightblue" d="M207.8,-259.1C175.83,-246.2 126.61,-226.33 98.71,-215.06"/>
<polygon fill="midnightblue" stroke="midnightblue" points="206.54,-262.37 217.12,-262.87 209.16,-255.88 206.54,-262.37"/>
</g>
<!-- Node11 -->
<g id="node11" class="node">
<title>Node11</title>
<g id="a_node11"><a xlink:href="caged-heap-local-data_8h.html" target="_top" xlink:title=" ">
<polygon fill="white" stroke="black" points="149.5,-190.5 149.5,-220.5 271.5,-220.5 271.5,-190.5 149.5,-190.5"/>
<text text-anchor="start" x="157.5" y="-208.5" font-family="Helvetica,sans-Serif" font-size="10.00">include/cppgc/internal</text>
<text text-anchor="middle" x="210.5" y="-197.5" font-family="Helvetica,sans-Serif" font-size="10.00">/caged&#45;heap&#45;local&#45;data.h</text>
</a>
</g>
</g>
<!-- Node2&#45;&gt;Node11 -->
<g id="edge13" class="edge">
<title>Node2&#45;&gt;Node11</title>
<path fill="none" stroke="midnightblue" d="M230.7,-253.39C226.23,-243.02 220.71,-230.2 216.57,-220.59"/>
<polygon fill="midnightblue" stroke="midnightblue" points="227.55,-254.93 234.72,-262.73 233.98,-252.16 227.55,-254.93"/>
</g>
<!-- Node4 -->
<g id="node4" class="node">
<title>Node4</title>
<g id="a_node4"><a xlink:href="allocation_8h.html" target="_top" xlink:title=" ">
<polygon fill="white" stroke="black" points="215.5,-129 215.5,-148 343.5,-148 343.5,-129 215.5,-129"/>
<text text-anchor="middle" x="279.5" y="-136" font-family="Helvetica,sans-Serif" font-size="10.00">include/cppgc/allocation.h</text>
</a>
</g>
</g>
<!-- Node3&#45;&gt;Node4 -->
<g id="edge3" class="edge">
<title>Node3&#45;&gt;Node4</title>
<path fill="none" stroke="midnightblue" d="M324.68,-183.34C312.38,-171.4 297.68,-157.14 288.46,-148.19"/>
<polygon fill="midnightblue" stroke="midnightblue" points="322.35,-185.94 331.96,-190.4 327.22,-180.92 322.35,-185.94"/>
</g>
<!-- Node5 -->
<g id="node5" class="node">
<title>Node5</title>
<g id="a_node5"><a xlink:href="visitor_8h.html" target="_top" xlink:title=" ">
<polygon fill="white" stroke="black" points="205,-62 205,-81 318,-81 318,-62 205,-62"/>
<text text-anchor="middle" x="261.5" y="-69" font-family="Helvetica,sans-Serif" font-size="10.00">include/cppgc/visitor.h</text>
</a>
</g>
</g>
<!-- Node3&#45;&gt;Node5 -->
<g id="edge4" class="edge">
<title>Node3&#45;&gt;Node5</title>
<path fill="none" stroke="midnightblue" d="M355.13,-180.6C359.77,-163.41 362.69,-140.31 352.5,-123 339.85,-101.51 314.39,-88.52 293.62,-81.1"/>
<polygon fill="midnightblue" stroke="midnightblue" points="351.7,-179.84 352.12,-190.43 358.39,-181.89 351.7,-179.84"/>
</g>
<!-- Node6 -->
<g id="node6" class="node">
<title>Node6</title>
<g id="a_node6"><a xlink:href="persistent_8h.html" target="_top" xlink:title=" ">
<polygon fill="white" stroke="black" points="196.5,-0.5 196.5,-19.5 326.5,-19.5 326.5,-0.5 196.5,-0.5"/>
<text text-anchor="middle" x="261.5" y="-7.5" font-family="Helvetica,sans-Serif" font-size="10.00">include/cppgc/persistent.h</text>
</a>
</g>
</g>
<!-- Node5&#45;&gt;Node6 -->
<g id="edge5" class="edge">
<title>Node5&#45;&gt;Node6</title>
<path fill="none" stroke="midnightblue" d="M261.5,-51.82C261.5,-41 261.5,-27.9 261.5,-19.51"/>
<polygon fill="midnightblue" stroke="midnightblue" points="258,-51.98 261.5,-61.98 265,-51.98 258,-51.98"/>
</g>
<!-- Node8 -->
<g id="node8" class="node">
<title>Node8</title>
<g id="a_node8"><a xlink:href="prefinalizer-handler_8h.html" target="_top" xlink:title=" ">
<polygon fill="white" stroke="black" points="0,-56.5 0,-86.5 111,-86.5 111,-56.5 0,-56.5"/>
<text text-anchor="start" x="8" y="-74.5" font-family="Helvetica,sans-Serif" font-size="10.00">include/cppgc/internal</text>
<text text-anchor="middle" x="55.5" y="-63.5" font-family="Helvetica,sans-Serif" font-size="10.00">/prefinalizer&#45;handler.h</text>
</a>
</g>
</g>
<!-- Node7&#45;&gt;Node8 -->
<g id="edge7" class="edge">
<title>Node7&#45;&gt;Node8</title>
<path fill="none" stroke="midnightblue" d="M74.4,-185.89C69.96,-159.24 61.88,-110.8 57.88,-86.78"/>
<polygon fill="midnightblue" stroke="midnightblue" points="70.96,-186.55 76.06,-195.84 77.86,-185.4 70.96,-186.55"/>
</g>
<!-- Node10 -->
<g id="node10" class="node">
<title>Node10</title>
<g id="a_node10"><a xlink:href="liveness-broker_8h.html" target="_top" xlink:title=" ">
<polygon fill="white" stroke="black" points="81.5,-123.5 81.5,-153.5 197.5,-153.5 197.5,-123.5 81.5,-123.5"/>
<text text-anchor="start" x="89.5" y="-141.5" font-family="Helvetica,sans-Serif" font-size="10.00">include/cppgc/liveness</text>
<text text-anchor="middle" x="139.5" y="-130.5" font-family="Helvetica,sans-Serif" font-size="10.00">&#45;broker.h</text>
</a>
</g>
</g>
<!-- Node7&#45;&gt;Node10 -->
<g id="edge9" class="edge">
<title>Node7&#45;&gt;Node10</title>
<path fill="none" stroke="midnightblue" d="M92.95,-188.3C103.13,-177.63 116.32,-163.8 126.06,-153.59"/>
<polygon fill="midnightblue" stroke="midnightblue" points="90.23,-186.08 85.86,-195.73 95.3,-190.91 90.23,-186.08"/>
</g>
<!-- Node9 -->
<g id="node9" class="node">
<title>Node9</title>
<g id="a_node9"><a xlink:href="prefinalizer_8h.html" target="_top" xlink:title=" ">
<polygon fill="white" stroke="black" points="36,-0.5 36,-19.5 169,-19.5 169,-0.5 36,-0.5"/>
<text text-anchor="middle" x="102.5" y="-7.5" font-family="Helvetica,sans-Serif" font-size="10.00">include/cppgc/prefinalizer.h</text>
</a>
</g>
</g>
<!-- Node8&#45;&gt;Node9 -->
<g id="edge8" class="edge">
<title>Node8&#45;&gt;Node9</title>
<path fill="none" stroke="midnightblue" d="M72.95,-48.4C80.85,-38.41 89.72,-27.18 95.66,-19.66"/>
<polygon fill="midnightblue" stroke="midnightblue" points="70.09,-46.38 66.64,-56.4 75.58,-50.72 70.09,-46.38"/>
</g>
<!-- Node10&#45;&gt;Node5 -->
<g id="edge11" class="edge">
<title>Node10&#45;&gt;Node5</title>
<path fill="none" stroke="midnightblue" d="M174.9,-118.64C198.24,-106.2 227.69,-90.51 245.53,-81.01"/>
<polygon fill="midnightblue" stroke="midnightblue" points="173.15,-115.6 165.97,-123.4 176.44,-121.78 173.15,-115.6"/>
</g>
<!-- Node10&#45;&gt;Node8 -->
<g id="edge10" class="edge">
<title>Node10&#45;&gt;Node8</title>
<path fill="none" stroke="midnightblue" d="M113.22,-117.17C100.38,-107.23 85.24,-95.51 73.69,-86.58"/>
<polygon fill="midnightblue" stroke="midnightblue" points="111.22,-120.04 121.27,-123.4 115.51,-114.51 111.22,-120.04"/>
</g>
<!-- Node10&#45;&gt;Node9 -->
<g id="edge12" class="edge">
<title>Node10&#45;&gt;Node9</title>
<path fill="none" stroke="midnightblue" d="M134.39,-113.4C130.73,-97.06 125.42,-75.06 119.5,-56 115.49,-43.08 109.75,-28.49 106.07,-19.52"/>
<polygon fill="midnightblue" stroke="midnightblue" points="130.98,-114.21 136.54,-123.22 137.82,-112.71 130.98,-114.21"/>
</g>
<!-- Node12&#45;&gt;Node13 -->
<g id="edge15" class="edge">
<title>Node12&#45;&gt;Node13</title>
<path fill="none" stroke="midnightblue" d="M417.61,-250.88C429.16,-241.01 442.69,-229.43 453.04,-220.58"/>
<polygon fill="midnightblue" stroke="midnightblue" points="415.32,-248.24 409.99,-257.4 419.87,-253.56 415.32,-248.24"/>
</g>
</g>
</svg>
