<?xml version="1.0" encoding="UTF-8" standalone="no"?>
<!DOCTYPE svg PUBLIC "-//W3C//DTD SVG 1.1//EN"
 "http://www.w3.org/Graphics/SVG/1.1/DTD/svg11.dtd">
<!-- Generated by graphviz version 2.44.0 ()
 -->
<!-- Title: include/v8config.h Pages: 1 -->
<svg width="1852pt" height="486pt"
 viewBox="0.00 0.00 1852.00 486.00" xmlns="http://www.w3.org/2000/svg" xmlns:xlink="http://www.w3.org/1999/xlink">
<g id="graph0" class="graph" transform="scale(1 1) rotate(0) translate(4 482)">
<title>include/v8config.h</title>
<polygon fill="white" stroke="transparent" points="-4,4 -4,-482 1848,-482 1848,4 -4,4"/>
<!-- Node1 -->
<g id="node1" class="node">
<title>Node1</title>
<g id="a_node1"><a xlink:title=" ">
<polygon fill="#bfbfbf" stroke="black" points="848,-458.5 848,-477.5 942,-477.5 942,-458.5 848,-458.5"/>
<text text-anchor="middle" x="895" y="-465.5" font-family="Helvetica,sans-Serif" font-size="10.00">include/v8config.h</text>
</a>
</g>
</g>
<!-- Node2 -->
<g id="node2" class="node">
<title>Node2</title>
<g id="a_node2"><a xlink:href="api-constants_8h.html" target="_top" xlink:title=" ">
<polygon fill="white" stroke="black" points="364.5,-391.5 364.5,-421.5 475.5,-421.5 475.5,-391.5 364.5,-391.5"/>
<text text-anchor="start" x="372.5" y="-409.5" font-family="Helvetica,sans-Serif" font-size="10.00">include/cppgc/internal</text>
<text text-anchor="middle" x="420" y="-398.5" font-family="Helvetica,sans-Serif" font-size="10.00">/api&#45;constants.h</text>
</a>
</g>
</g>
<!-- Node1&#45;&gt;Node2 -->
<g id="edge1" class="edge">
<title>Node1&#45;&gt;Node2</title>
<path fill="none" stroke="midnightblue" d="M837.54,-462.32C758.83,-455.52 613.2,-441.56 490,-422 485.34,-421.26 480.52,-420.42 475.7,-419.53"/>
<polygon fill="midnightblue" stroke="midnightblue" points="837.47,-465.83 847.73,-463.19 838.06,-458.85 837.47,-465.83"/>
</g>
<!-- Node6 -->
<g id="node6" class="node">
<title>Node6</title>
<g id="a_node6"><a xlink:href="persistent_8h.html" target="_top" xlink:title=" ">
<polygon fill="white" stroke="black" points="388,-0.5 388,-19.5 518,-19.5 518,-0.5 388,-0.5"/>
<text text-anchor="middle" x="453" y="-7.5" font-family="Helvetica,sans-Serif" font-size="10.00">include/cppgc/persistent.h</text>
</a>
</g>
</g>
<!-- Node1&#45;&gt;Node6 -->
<g id="edge57" class="edge">
<title>Node1&#45;&gt;Node6</title>
<path fill="none" stroke="midnightblue" d="M837.63,-465.49C669.02,-460.82 182.64,-445.43 115,-422 55.81,-401.49 0,-403.14 0,-340.5 0,-340.5 0,-340.5 0,-137.5 0,-57.99 262.16,-26.24 387.61,-15.6"/>
<polygon fill="midnightblue" stroke="midnightblue" points="837.7,-469 847.8,-465.77 837.9,-462 837.7,-469"/>
</g>
<!-- Node8 -->
<g id="node8" class="node">
<title>Node8</title>
<g id="a_node8"><a xlink:href="write-barrier_8h.html" target="_top" xlink:title=" ">
<polygon fill="white" stroke="black" points="196.5,-324.5 196.5,-354.5 307.5,-354.5 307.5,-324.5 196.5,-324.5"/>
<text text-anchor="start" x="204.5" y="-342.5" font-family="Helvetica,sans-Serif" font-size="10.00">include/cppgc/internal</text>
<text text-anchor="middle" x="252" y="-331.5" font-family="Helvetica,sans-Serif" font-size="10.00">/write&#45;barrier.h</text>
</a>
</g>
</g>
<!-- Node1&#45;&gt;Node8 -->
<g id="edge53" class="edge">
<title>Node1&#45;&gt;Node8</title>
<path fill="none" stroke="midnightblue" d="M837.82,-466.35C717.59,-464.31 442.53,-455.96 356,-422 354.75,-421.51 299.25,-377.78 269.85,-354.59"/>
<polygon fill="midnightblue" stroke="midnightblue" points="837.88,-469.85 847.93,-466.51 837.99,-462.85 837.88,-469.85"/>
</g>
<!-- Node9 -->
<g id="node9" class="node">
<title>Node9</title>
<g id="a_node9"><a xlink:href="pointer-policies_8h.html" target="_top" xlink:title=" ">
<polygon fill="white" stroke="black" points="137.5,-257.5 137.5,-287.5 248.5,-287.5 248.5,-257.5 137.5,-257.5"/>
<text text-anchor="start" x="145.5" y="-275.5" font-family="Helvetica,sans-Serif" font-size="10.00">include/cppgc/internal</text>
<text text-anchor="middle" x="193" y="-264.5" font-family="Helvetica,sans-Serif" font-size="10.00">/pointer&#45;policies.h</text>
</a>
</g>
</g>
<!-- Node1&#45;&gt;Node9 -->
<g id="edge54" class="edge">
<title>Node1&#45;&gt;Node9</title>
<path fill="none" stroke="midnightblue" d="M837.39,-465.46C672.51,-460.79 209.15,-445.6 187,-422 152.22,-384.93 174.52,-316.98 186.65,-287.62"/>
<polygon fill="midnightblue" stroke="midnightblue" points="837.72,-468.97 847.81,-465.76 837.91,-461.98 837.72,-468.97"/>
</g>
<!-- Node10 -->
<g id="node10" class="node">
<title>Node10</title>
<g id="a_node10"><a xlink:href="member_8h.html" target="_top" xlink:title=" ">
<polygon fill="white" stroke="black" points="361,-196 361,-215 483,-215 483,-196 361,-196"/>
<text text-anchor="middle" x="422" y="-203" font-family="Helvetica,sans-Serif" font-size="10.00">include/cppgc/member.h</text>
</a>
</g>
</g>
<!-- Node1&#45;&gt;Node10 -->
<g id="edge55" class="edge">
<title>Node1&#45;&gt;Node10</title>
<path fill="none" stroke="midnightblue" d="M837.53,-466.88C745.91,-465.58 572.17,-458.25 524,-422 460.35,-374.1 491,-327.55 454,-257 446,-241.74 434.92,-225.04 428.12,-215.18"/>
<polygon fill="midnightblue" stroke="midnightblue" points="837.7,-470.38 847.74,-467.01 837.79,-463.38 837.7,-470.38"/>
</g>
<!-- Node11 -->
<g id="node11" class="node">
<title>Node11</title>
<g id="a_node11"><a xlink:href="liveness-broker_8h.html" target="_top" xlink:title=" ">
<polygon fill="white" stroke="black" points="1059,-123.5 1059,-153.5 1175,-153.5 1175,-123.5 1059,-123.5"/>
<text text-anchor="start" x="1067" y="-141.5" font-family="Helvetica,sans-Serif" font-size="10.00">include/cppgc/liveness</text>
<text text-anchor="middle" x="1117" y="-130.5" font-family="Helvetica,sans-Serif" font-size="10.00">&#45;broker.h</text>
</a>
</g>
</g>
<!-- Node1&#45;&gt;Node11 -->
<g id="edge56" class="edge">
<title>Node1&#45;&gt;Node11</title>
<path fill="none" stroke="midnightblue" d="M952.22,-464.35C992.85,-460.05 1047.07,-449.15 1087,-422 1146.95,-381.24 1158.34,-357.18 1180,-288 1195.9,-237.22 1153.49,-180.02 1130.57,-153.9"/>
<polygon fill="midnightblue" stroke="midnightblue" points="951.82,-460.88 942.2,-465.31 952.48,-467.84 951.82,-460.88"/>
</g>
<!-- Node14 -->
<g id="node14" class="node">
<title>Node14</title>
<g id="a_node14"><a xlink:href="v8-platform_8h.html" target="_top" xlink:title=" ">
<polygon fill="white" stroke="black" points="923.5,-397 923.5,-416 1030.5,-416 1030.5,-397 923.5,-397"/>
<text text-anchor="middle" x="977" y="-404" font-family="Helvetica,sans-Serif" font-size="10.00">include/v8&#45;platform.h</text>
</a>
</g>
</g>
<!-- Node1&#45;&gt;Node14 -->
<g id="edge19" class="edge">
<title>Node1&#45;&gt;Node14</title>
<path fill="none" stroke="midnightblue" d="M915.27,-452.29C931,-440.88 952.25,-425.46 965.27,-416.01"/>
<polygon fill="midnightblue" stroke="midnightblue" points="912.79,-449.77 906.75,-458.48 916.9,-455.43 912.79,-449.77"/>
</g>
<!-- Node15 -->
<g id="node15" class="node">
<title>Node15</title>
<g id="a_node15"><a xlink:href="platform_8h.html" target="_top" xlink:title=" ">
<polygon fill="white" stroke="black" points="745,-330 745,-349 867,-349 867,-330 745,-330"/>
<text text-anchor="middle" x="806" y="-337" font-family="Helvetica,sans-Serif" font-size="10.00">include/cppgc/platform.h</text>
</a>
</g>
</g>
<!-- Node1&#45;&gt;Node15 -->
<g id="edge29" class="edge">
<title>Node1&#45;&gt;Node15</title>
<path fill="none" stroke="midnightblue" d="M883.12,-450.12C863.94,-422.86 826.81,-370.08 812.16,-349.26"/>
<polygon fill="midnightblue" stroke="midnightblue" points="880.27,-452.14 888.88,-458.31 885.99,-448.11 880.27,-452.14"/>
</g>
<!-- Node16 -->
<g id="node16" class="node">
<title>Node16</title>
<g id="a_node16"><a xlink:href="heap_8h.html" target="_top" xlink:title=" ">
<polygon fill="white" stroke="black" points="1063,-263 1063,-282 1171,-282 1171,-263 1063,-263"/>
<text text-anchor="middle" x="1117" y="-270" font-family="Helvetica,sans-Serif" font-size="10.00">include/cppgc/heap.h</text>
</a>
</g>
</g>
<!-- Node1&#45;&gt;Node16 -->
<g id="edge39" class="edge">
<title>Node1&#45;&gt;Node16</title>
<path fill="none" stroke="midnightblue" d="M952.51,-464.35C987.73,-459.86 1031.53,-448.77 1061,-422 1104.03,-382.91 1114.17,-307.38 1116.41,-282.03"/>
<polygon fill="midnightblue" stroke="midnightblue" points="951.91,-460.89 942.36,-465.49 952.69,-467.85 951.91,-460.89"/>
</g>
<!-- Node18 -->
<g id="node18" class="node">
<title>Node18</title>
<g id="a_node18"><a xlink:href="libplatform_8h.html" target="_top" xlink:title=" ">
<polygon fill="white" stroke="black" points="949.5,-257.5 949.5,-287.5 1044.5,-287.5 1044.5,-257.5 949.5,-257.5"/>
<text text-anchor="start" x="957.5" y="-275.5" font-family="Helvetica,sans-Serif" font-size="10.00">include/libplatform</text>
<text text-anchor="middle" x="997" y="-264.5" font-family="Helvetica,sans-Serif" font-size="10.00">/libplatform.h</text>
</a>
</g>
</g>
<!-- Node1&#45;&gt;Node18 -->
<g id="edge58" class="edge">
<title>Node1&#45;&gt;Node18</title>
<path fill="none" stroke="midnightblue" d="M952.35,-464.49C983.38,-459.88 1019.45,-448.62 1040,-422 1066.62,-387.5 1058.73,-364.64 1043,-324 1037.43,-309.62 1025.66,-296.82 1015.42,-287.71"/>
<polygon fill="midnightblue" stroke="midnightblue" points="951.52,-461.06 942.05,-465.8 952.41,-468.01 951.52,-461.06"/>
</g>
<!-- Node19 -->
<g id="node19" class="node">
<title>Node19</title>
<g id="a_node19"><a xlink:href="gc-info_8h.html" target="_top" xlink:title=" ">
<polygon fill="white" stroke="black" points="28.5,-324.5 28.5,-354.5 139.5,-354.5 139.5,-324.5 28.5,-324.5"/>
<text text-anchor="start" x="36.5" y="-342.5" font-family="Helvetica,sans-Serif" font-size="10.00">include/cppgc/internal</text>
<text text-anchor="middle" x="84" y="-331.5" font-family="Helvetica,sans-Serif" font-size="10.00">/gc&#45;info.h</text>
</a>
</g>
</g>
<!-- Node1&#45;&gt;Node19 -->
<g id="edge30" class="edge">
<title>Node1&#45;&gt;Node19</title>
<path fill="none" stroke="midnightblue" d="M837.44,-466.07C673.93,-463.08 214.57,-452.08 154,-422 124.43,-407.32 102.29,-373.98 91.44,-354.8"/>
<polygon fill="midnightblue" stroke="midnightblue" points="837.71,-469.58 847.77,-466.26 837.84,-462.58 837.71,-469.58"/>
</g>
<!-- Node20 -->
<g id="node20" class="node">
<title>Node20</title>
<g id="a_node20"><a xlink:href="common_8h.html" target="_top" xlink:title=" ">
<polygon fill="white" stroke="black" points="1189.5,-397 1189.5,-416 1314.5,-416 1314.5,-397 1189.5,-397"/>
<text text-anchor="middle" x="1252" y="-404" font-family="Helvetica,sans-Serif" font-size="10.00">include/cppgc/common.h</text>
</a>
</g>
</g>
<!-- Node1&#45;&gt;Node20 -->
<g id="edge32" class="edge">
<title>Node1&#45;&gt;Node20</title>
<path fill="none" stroke="midnightblue" d="M952.32,-458.25C1008.97,-449.49 1098.06,-435.42 1175,-422 1185.59,-420.15 1196.97,-418.06 1207.65,-416.06"/>
<polygon fill="midnightblue" stroke="midnightblue" points="951.48,-454.84 942.13,-459.82 952.55,-461.75 951.48,-454.84"/>
</g>
<!-- Node21 -->
<g id="node21" class="node">
<title>Node21</title>
<g id="a_node21"><a xlink:href="v8_8h.html" target="_top" xlink:title=" ">
<polygon fill="white" stroke="black" points="1350,-330 1350,-349 1418,-349 1418,-330 1350,-330"/>
<text text-anchor="middle" x="1384" y="-337" font-family="Helvetica,sans-Serif" font-size="10.00">include/v8.h</text>
</a>
</g>
</g>
<!-- Node1&#45;&gt;Node21 -->
<g id="edge62" class="edge">
<title>Node1&#45;&gt;Node21</title>
<path fill="none" stroke="midnightblue" d="M952.28,-466.6C1086.42,-465.08 1412.1,-457.71 1445,-422 1467.76,-397.31 1423.13,-364.37 1398.61,-349.03"/>
<polygon fill="midnightblue" stroke="midnightblue" points="952.16,-463.1 942.2,-466.71 952.23,-470.1 952.16,-463.1"/>
</g>
<!-- Node26 -->
<g id="node26" class="node">
<title>Node26</title>
<g id="a_node26"><a xlink:href="source-location_8h.html" target="_top" xlink:title=" ">
<polygon fill="white" stroke="black" points="532.5,-391.5 532.5,-421.5 641.5,-421.5 641.5,-391.5 532.5,-391.5"/>
<text text-anchor="start" x="540.5" y="-409.5" font-family="Helvetica,sans-Serif" font-size="10.00">include/cppgc/source</text>
<text text-anchor="middle" x="587" y="-398.5" font-family="Helvetica,sans-Serif" font-size="10.00">&#45;location.h</text>
</a>
</g>
</g>
<!-- Node1&#45;&gt;Node26 -->
<g id="edge40" class="edge">
<title>Node1&#45;&gt;Node26</title>
<path fill="none" stroke="midnightblue" d="M840.79,-456.53C784.79,-445.71 697.88,-428.92 641.7,-418.07"/>
<polygon fill="midnightblue" stroke="midnightblue" points="840.39,-460.01 850.87,-458.48 841.72,-453.14 840.39,-460.01"/>
</g>
<!-- Node27 -->
<g id="node27" class="node">
<title>Node27</title>
<g id="a_node27"><a xlink:href="logging_8h.html" target="_top" xlink:title=" ">
<polygon fill="white" stroke="black" points="615.5,-324.5 615.5,-354.5 726.5,-354.5 726.5,-324.5 615.5,-324.5"/>
<text text-anchor="start" x="623.5" y="-342.5" font-family="Helvetica,sans-Serif" font-size="10.00">include/cppgc/internal</text>
<text text-anchor="middle" x="671" y="-331.5" font-family="Helvetica,sans-Serif" font-size="10.00">/logging.h</text>
</a>
</g>
</g>
<!-- Node1&#45;&gt;Node27 -->
<g id="edge49" class="edge">
<title>Node1&#45;&gt;Node27</title>
<path fill="none" stroke="midnightblue" d="M870.72,-453.29C827.92,-429.12 739.49,-379.18 696.11,-354.68"/>
<polygon fill="midnightblue" stroke="midnightblue" points="869.18,-456.44 879.6,-458.31 872.62,-450.34 869.18,-456.44"/>
</g>
<!-- Node28 -->
<g id="node28" class="node">
<title>Node28</title>
<g id="a_node28"><a xlink:href="persistent-node_8h.html" target="_top" xlink:title=" ">
<polygon fill="white" stroke="black" points="755.5,-257.5 755.5,-287.5 866.5,-287.5 866.5,-257.5 755.5,-257.5"/>
<text text-anchor="start" x="763.5" y="-275.5" font-family="Helvetica,sans-Serif" font-size="10.00">include/cppgc/internal</text>
<text text-anchor="middle" x="811" y="-264.5" font-family="Helvetica,sans-Serif" font-size="10.00">/persistent&#45;node.h</text>
</a>
</g>
</g>
<!-- Node1&#45;&gt;Node28 -->
<g id="edge50" class="edge">
<title>Node1&#45;&gt;Node28</title>
<path fill="none" stroke="midnightblue" d="M896.85,-447.94C898.72,-419.09 898.69,-363.51 876,-324 867.18,-308.63 851.65,-296.3 837.99,-287.68"/>
<polygon fill="midnightblue" stroke="midnightblue" points="893.33,-447.98 896.02,-458.23 900.31,-448.54 893.33,-447.98"/>
</g>
<!-- Node29 -->
<g id="node29" class="node">
<title>Node29</title>
<g id="a_node29"><a xlink:href="process-heap_8h.html" target="_top" xlink:title=" ">
<polygon fill="white" stroke="black" points="196.5,-391.5 196.5,-421.5 307.5,-421.5 307.5,-391.5 196.5,-391.5"/>
<text text-anchor="start" x="204.5" y="-409.5" font-family="Helvetica,sans-Serif" font-size="10.00">include/cppgc/internal</text>
<text text-anchor="middle" x="252" y="-398.5" font-family="Helvetica,sans-Serif" font-size="10.00">/process&#45;heap.h</text>
</a>
</g>
</g>
<!-- Node1&#45;&gt;Node29 -->
<g id="edge51" class="edge">
<title>Node1&#45;&gt;Node29</title>
<path fill="none" stroke="midnightblue" d="M837.77,-464.89C734.36,-460.55 509.68,-448.7 322,-422 317.33,-421.34 312.51,-420.55 307.67,-419.69"/>
<polygon fill="midnightblue" stroke="midnightblue" points="837.85,-468.4 847.99,-465.31 838.14,-461.4 837.85,-468.4"/>
</g>
<!-- Node30 -->
<g id="node30" class="node">
<title>Node30</title>
<g id="a_node30"><a xlink:href="v8-fast-api-calls_8h.html" target="_top" xlink:title=" ">
<polygon fill="white" stroke="black" points="1492,-391.5 1492,-421.5 1588,-421.5 1588,-391.5 1492,-391.5"/>
<text text-anchor="start" x="1500" y="-409.5" font-family="Helvetica,sans-Serif" font-size="10.00">include/v8&#45;fast&#45;api</text>
<text text-anchor="middle" x="1540" y="-398.5" font-family="Helvetica,sans-Serif" font-size="10.00">&#45;calls.h</text>
</a>
</g>
</g>
<!-- Node1&#45;&gt;Node30 -->
<g id="edge59" class="edge">
<title>Node1&#45;&gt;Node30</title>
<path fill="none" stroke="midnightblue" d="M952.18,-465.48C1057,-462.06 1286.73,-451.57 1478,-422 1482.48,-421.31 1487.11,-420.46 1491.74,-419.54"/>
<polygon fill="midnightblue" stroke="midnightblue" points="952.02,-461.98 942.13,-465.8 952.24,-468.98 952.02,-461.98"/>
</g>
<!-- Node31 -->
<g id="node31" class="node">
<title>Node31</title>
<g id="a_node31"><a xlink:href="v8-internal_8h.html" target="_top" xlink:title=" ">
<polygon fill="white" stroke="black" points="1332.5,-397 1332.5,-416 1435.5,-416 1435.5,-397 1332.5,-397"/>
<text text-anchor="middle" x="1384" y="-404" font-family="Helvetica,sans-Serif" font-size="10.00">include/v8&#45;internal.h</text>
</a>
</g>
</g>
<!-- Node1&#45;&gt;Node31 -->
<g id="edge60" class="edge">
<title>Node1&#45;&gt;Node31</title>
<path fill="none" stroke="midnightblue" d="M952.44,-463.41C1035.06,-457.69 1192.01,-444.77 1324,-422 1333.19,-420.42 1343.06,-418.23 1352.09,-416.04"/>
<polygon fill="midnightblue" stroke="midnightblue" points="952,-459.93 942.26,-464.1 952.47,-466.91 952,-459.93"/>
</g>
<!-- Node32 -->
<g id="node32" class="node">
<title>Node32</title>
<g id="a_node32"><a xlink:href="v8-wasm-trap-handler-posix_8h.html" target="_top" xlink:title=" ">
<polygon fill="white" stroke="black" points="1606,-391.5 1606,-421.5 1716,-421.5 1716,-391.5 1606,-391.5"/>
<text text-anchor="start" x="1614" y="-409.5" font-family="Helvetica,sans-Serif" font-size="10.00">include/v8&#45;wasm&#45;trap</text>
<text text-anchor="middle" x="1661" y="-398.5" font-family="Helvetica,sans-Serif" font-size="10.00">&#45;handler&#45;posix.h</text>
</a>
</g>
</g>
<!-- Node1&#45;&gt;Node32 -->
<g id="edge63" class="edge">
<title>Node1&#45;&gt;Node32</title>
<path fill="none" stroke="midnightblue" d="M952.16,-466.4C1072.22,-464.48 1359.17,-456.34 1597,-422 1599.93,-421.58 1602.93,-421.09 1605.95,-420.56"/>
<polygon fill="midnightblue" stroke="midnightblue" points="952.04,-462.9 942.09,-466.56 952.15,-469.9 952.04,-462.9"/>
</g>
<!-- Node33 -->
<g id="node33" class="node">
<title>Node33</title>
<g id="a_node33"><a xlink:href="v8-wasm-trap-handler-win_8h.html" target="_top" xlink:title=" ">
<polygon fill="white" stroke="black" points="1734,-391.5 1734,-421.5 1844,-421.5 1844,-391.5 1734,-391.5"/>
<text text-anchor="start" x="1742" y="-409.5" font-family="Helvetica,sans-Serif" font-size="10.00">include/v8&#45;wasm&#45;trap</text>
<text text-anchor="middle" x="1789" y="-398.5" font-family="Helvetica,sans-Serif" font-size="10.00">&#45;handler&#45;win.h</text>
</a>
</g>
</g>
<!-- Node1&#45;&gt;Node33 -->
<g id="edge64" class="edge">
<title>Node1&#45;&gt;Node33</title>
<path fill="none" stroke="midnightblue" d="M952.19,-467.21C1087.31,-466.98 1436.65,-462.19 1725,-422 1727.93,-421.59 1730.93,-421.12 1733.95,-420.59"/>
<polygon fill="midnightblue" stroke="midnightblue" points="952.06,-463.71 942.07,-467.22 952.07,-470.71 952.06,-463.71"/>
</g>
<!-- Node3 -->
<g id="node3" class="node">
<title>Node3</title>
<g id="a_node3"><a xlink:href="garbage-collected_8h.html" target="_top" xlink:title=" ">
<polygon fill="white" stroke="black" points="331,-257.5 331,-287.5 445,-287.5 445,-257.5 331,-257.5"/>
<text text-anchor="start" x="339" y="-275.5" font-family="Helvetica,sans-Serif" font-size="10.00">include/cppgc/garbage</text>
<text text-anchor="middle" x="388" y="-264.5" font-family="Helvetica,sans-Serif" font-size="10.00">&#45;collected.h</text>
</a>
</g>
</g>
<!-- Node2&#45;&gt;Node3 -->
<g id="edge2" class="edge">
<title>Node2&#45;&gt;Node3</title>
<path fill="none" stroke="midnightblue" d="M414.16,-381.39C407.49,-353.9 396.82,-309.89 391.4,-287.52"/>
<polygon fill="midnightblue" stroke="midnightblue" points="410.82,-382.48 416.58,-391.37 417.62,-380.83 410.82,-382.48"/>
</g>
<!-- Node4 -->
<g id="node4" class="node">
<title>Node4</title>
<g id="a_node4"><a xlink:href="allocation_8h.html" target="_top" xlink:title=" ">
<polygon fill="white" stroke="black" points="177,-196 177,-215 305,-215 305,-196 177,-196"/>
<text text-anchor="middle" x="241" y="-203" font-family="Helvetica,sans-Serif" font-size="10.00">include/cppgc/allocation.h</text>
</a>
</g>
</g>
<!-- Node2&#45;&gt;Node4 -->
<g id="edge6" class="edge">
<title>Node2&#45;&gt;Node4</title>
<path fill="none" stroke="midnightblue" d="M400.41,-383.73C361.41,-340.37 275.51,-244.86 248.97,-215.36"/>
<polygon fill="midnightblue" stroke="midnightblue" points="397.84,-386.09 407.13,-391.19 403.04,-381.41 397.84,-386.09"/>
</g>
<!-- Node7 -->
<g id="node7" class="node">
<title>Node7</title>
<g id="a_node7"><a xlink:href="caged-heap-local-data_8h.html" target="_top" xlink:title=" ">
<polygon fill="white" stroke="black" points="577,-257.5 577,-287.5 699,-287.5 699,-257.5 577,-257.5"/>
<text text-anchor="start" x="585" y="-275.5" font-family="Helvetica,sans-Serif" font-size="10.00">include/cppgc/internal</text>
<text text-anchor="middle" x="638" y="-264.5" font-family="Helvetica,sans-Serif" font-size="10.00">/caged&#45;heap&#45;local&#45;data.h</text>
</a>
</g>
</g>
<!-- Node2&#45;&gt;Node7 -->
<g id="edge7" class="edge">
<title>Node2&#45;&gt;Node7</title>
<path fill="none" stroke="midnightblue" d="M451.99,-386.13C496.4,-359.24 575.7,-311.22 614.84,-287.52"/>
<polygon fill="midnightblue" stroke="midnightblue" points="450.07,-383.2 443.33,-391.37 453.7,-389.19 450.07,-383.2"/>
</g>
<!-- Node2&#45;&gt;Node8 -->
<g id="edge8" class="edge">
<title>Node2&#45;&gt;Node8</title>
<path fill="none" stroke="midnightblue" d="M373.95,-387.68C347,-377.26 313.46,-364.28 288.38,-354.58"/>
<polygon fill="midnightblue" stroke="midnightblue" points="372.96,-391.05 383.55,-391.4 375.48,-384.52 372.96,-391.05"/>
</g>
<!-- Node3&#45;&gt;Node4 -->
<g id="edge3" class="edge">
<title>Node3&#45;&gt;Node4</title>
<path fill="none" stroke="midnightblue" d="M346.83,-253.3C318.48,-240.76 282.12,-224.68 260.24,-215.01"/>
<polygon fill="midnightblue" stroke="midnightblue" points="345.54,-256.55 356.1,-257.4 348.37,-250.15 345.54,-256.55"/>
</g>
<!-- Node5 -->
<g id="node5" class="node">
<title>Node5</title>
<g id="a_node5"><a xlink:href="visitor_8h.html" target="_top" xlink:title=" ">
<polygon fill="white" stroke="black" points="396.5,-62 396.5,-81 509.5,-81 509.5,-62 396.5,-62"/>
<text text-anchor="middle" x="453" y="-69" font-family="Helvetica,sans-Serif" font-size="10.00">include/cppgc/visitor.h</text>
</a>
</g>
</g>
<!-- Node3&#45;&gt;Node5 -->
<g id="edge4" class="edge">
<title>Node3&#45;&gt;Node5</title>
<path fill="none" stroke="midnightblue" d="M367.74,-249.38C361.42,-241.1 355.26,-231.2 352,-221 347.8,-207.88 347.21,-202.92 352,-190 370.14,-141.07 418.79,-98.82 441.29,-81.23"/>
<polygon fill="midnightblue" stroke="midnightblue" points="365.23,-251.85 374.26,-257.39 370.66,-247.42 365.23,-251.85"/>
</g>
<!-- Node5&#45;&gt;Node6 -->
<g id="edge5" class="edge">
<title>Node5&#45;&gt;Node6</title>
<path fill="none" stroke="midnightblue" d="M453,-51.82C453,-41 453,-27.9 453,-19.51"/>
<polygon fill="midnightblue" stroke="midnightblue" points="449.5,-51.98 453,-61.98 456.5,-51.98 449.5,-51.98"/>
</g>
<!-- Node8&#45;&gt;Node9 -->
<g id="edge9" class="edge">
<title>Node8&#45;&gt;Node9</title>
<path fill="none" stroke="midnightblue" d="M232.25,-316.74C223.52,-307.12 213.5,-296.09 205.78,-287.58"/>
<polygon fill="midnightblue" stroke="midnightblue" points="229.89,-319.34 239.2,-324.4 235.07,-314.64 229.89,-319.34"/>
</g>
<!-- Node9&#45;&gt;Node5 -->
<g id="edge18" class="edge">
<title>Node9&#45;&gt;Node5</title>
<path fill="none" stroke="midnightblue" d="M176.38,-249.1C165.75,-231.81 156.01,-207.91 168,-190 218.91,-113.95 328.97,-87.07 396.44,-77.61"/>
<polygon fill="midnightblue" stroke="midnightblue" points="173.47,-251.05 181.91,-257.47 179.31,-247.19 173.47,-251.05"/>
</g>
<!-- Node9&#45;&gt;Node6 -->
<g id="edge17" class="edge">
<title>Node9&#45;&gt;Node6</title>
<path fill="none" stroke="midnightblue" d="M173.85,-249.22C167.88,-240.92 162.07,-231.05 159,-221 145.22,-175.84 164.48,-154.1 200,-123 265.23,-65.88 364.25,-33.63 416.98,-19.57"/>
<polygon fill="midnightblue" stroke="midnightblue" points="171.15,-251.45 180.01,-257.25 176.7,-247.19 171.15,-251.45"/>
</g>
<!-- Node9&#45;&gt;Node10 -->
<g id="edge10" class="edge">
<title>Node9&#45;&gt;Node10</title>
<path fill="none" stroke="midnightblue" d="M252.29,-254.67C297.05,-241.97 356.6,-225.06 391.95,-215.03"/>
<polygon fill="midnightblue" stroke="midnightblue" points="251.07,-251.38 242.41,-257.48 252.98,-258.11 251.07,-251.38"/>
</g>
<!-- Node10&#45;&gt;Node5 -->
<g id="edge16" class="edge">
<title>Node10&#45;&gt;Node5</title>
<path fill="none" stroke="midnightblue" d="M426.4,-185.78C433.21,-156.75 446.06,-102.04 451,-81.02"/>
<polygon fill="midnightblue" stroke="midnightblue" points="422.91,-185.3 424.03,-195.84 429.73,-186.9 422.91,-185.3"/>
</g>
<!-- Node10&#45;&gt;Node11 -->
<g id="edge11" class="edge">
<title>Node10&#45;&gt;Node11</title>
<path fill="none" stroke="midnightblue" d="M493.1,-197.85C630.9,-184.96 931.91,-156.81 1058.78,-144.95"/>
<polygon fill="midnightblue" stroke="midnightblue" points="492.7,-194.37 483.07,-198.79 493.35,-201.34 492.7,-194.37"/>
</g>
<!-- Node11&#45;&gt;Node5 -->
<g id="edge14" class="edge">
<title>Node11&#45;&gt;Node5</title>
<path fill="none" stroke="midnightblue" d="M1048.61,-130.81C917.1,-117.93 631.26,-89.95 509.62,-78.04"/>
<polygon fill="midnightblue" stroke="midnightblue" points="1048.65,-134.33 1058.95,-131.82 1049.34,-127.36 1048.65,-134.33"/>
</g>
<!-- Node12 -->
<g id="node12" class="node">
<title>Node12</title>
<g id="a_node12"><a xlink:href="prefinalizer-handler_8h.html" target="_top" xlink:title=" ">
<polygon fill="white" stroke="black" points="977.5,-56.5 977.5,-86.5 1088.5,-86.5 1088.5,-56.5 977.5,-56.5"/>
<text text-anchor="start" x="985.5" y="-74.5" font-family="Helvetica,sans-Serif" font-size="10.00">include/cppgc/internal</text>
<text text-anchor="middle" x="1033" y="-63.5" font-family="Helvetica,sans-Serif" font-size="10.00">/prefinalizer&#45;handler.h</text>
</a>
</g>
</g>
<!-- Node11&#45;&gt;Node12 -->
<g id="edge12" class="edge">
<title>Node11&#45;&gt;Node12</title>
<path fill="none" stroke="midnightblue" d="M1090.72,-117.17C1077.88,-107.23 1062.74,-95.51 1051.19,-86.58"/>
<polygon fill="midnightblue" stroke="midnightblue" points="1088.72,-120.04 1098.77,-123.4 1093.01,-114.51 1088.72,-120.04"/>
</g>
<!-- Node13 -->
<g id="node13" class="node">
<title>Node13</title>
<g id="a_node13"><a xlink:href="prefinalizer_8h.html" target="_top" xlink:title=" ">
<polygon fill="white" stroke="black" points="1008.5,-0.5 1008.5,-19.5 1141.5,-19.5 1141.5,-0.5 1008.5,-0.5"/>
<text text-anchor="middle" x="1075" y="-7.5" font-family="Helvetica,sans-Serif" font-size="10.00">include/cppgc/prefinalizer.h</text>
</a>
</g>
</g>
<!-- Node11&#45;&gt;Node13 -->
<g id="edge15" class="edge">
<title>Node11&#45;&gt;Node13</title>
<path fill="none" stroke="midnightblue" d="M1112.99,-113.45C1109.86,-96.98 1104.88,-74.8 1098,-56 1093.18,-42.82 1085.4,-28.53 1080.24,-19.68"/>
<polygon fill="midnightblue" stroke="midnightblue" points="1109.56,-114.14 1114.78,-123.36 1116.45,-112.89 1109.56,-114.14"/>
</g>
<!-- Node12&#45;&gt;Node13 -->
<g id="edge13" class="edge">
<title>Node12&#45;&gt;Node13</title>
<path fill="none" stroke="midnightblue" d="M1048.81,-48.1C1055.81,-38.19 1063.63,-27.11 1068.89,-19.66"/>
<polygon fill="midnightblue" stroke="midnightblue" points="1045.86,-46.21 1042.95,-56.4 1051.58,-50.25 1045.86,-46.21"/>
</g>
<!-- Node14&#45;&gt;Node15 -->
<g id="edge20" class="edge">
<title>Node14&#45;&gt;Node15</title>
<path fill="none" stroke="midnightblue" d="M944.83,-393.27C910.89,-380.37 858.29,-360.38 828.53,-349.06"/>
<polygon fill="midnightblue" stroke="midnightblue" points="943.7,-396.59 954.29,-396.87 946.19,-390.04 943.7,-396.59"/>
</g>
<!-- Node17 -->
<g id="node17" class="node">
<title>Node17</title>
<g id="a_node17"><a xlink:href="v8-tracing_8h.html" target="_top" xlink:title=" ">
<polygon fill="white" stroke="black" points="923.5,-324.5 923.5,-354.5 1018.5,-354.5 1018.5,-324.5 923.5,-324.5"/>
<text text-anchor="start" x="931.5" y="-342.5" font-family="Helvetica,sans-Serif" font-size="10.00">include/libplatform</text>
<text text-anchor="middle" x="971" y="-331.5" font-family="Helvetica,sans-Serif" font-size="10.00">/v8&#45;tracing.h</text>
</a>
</g>
</g>
<!-- Node14&#45;&gt;Node17 -->
<g id="edge26" class="edge">
<title>Node14&#45;&gt;Node17</title>
<path fill="none" stroke="midnightblue" d="M975.27,-386.74C974.32,-376.49 973.17,-364 972.3,-354.59"/>
<polygon fill="midnightblue" stroke="midnightblue" points="971.79,-387.1 976.19,-396.73 978.76,-386.45 971.79,-387.1"/>
</g>
<!-- Node14&#45;&gt;Node18 -->
<g id="edge28" class="edge">
<title>Node14&#45;&gt;Node18</title>
<path fill="none" stroke="midnightblue" d="M998.45,-390.85C1009.53,-381.93 1021.96,-369.48 1028,-355 1037.73,-331.67 1021.57,-304.09 1009.16,-287.74"/>
<polygon fill="midnightblue" stroke="midnightblue" points="996.24,-388.13 990.37,-396.95 1000.46,-393.72 996.24,-388.13"/>
</g>
<!-- Node15&#45;&gt;Node3 -->
<g id="edge21" class="edge">
<title>Node15&#45;&gt;Node3</title>
<path fill="none" stroke="midnightblue" d="M756.77,-327.92C749.81,-326.53 742.73,-325.18 736,-324 633.94,-306.04 514.22,-289.69 445.13,-280.72"/>
<polygon fill="midnightblue" stroke="midnightblue" points="756.34,-331.4 766.84,-329.95 757.73,-324.54 756.34,-331.4"/>
</g>
<!-- Node15&#45;&gt;Node7 -->
<g id="edge25" class="edge">
<title>Node15&#45;&gt;Node7</title>
<path fill="none" stroke="midnightblue" d="M774.22,-326.2C745.75,-315.19 704.02,-299.04 674.26,-287.53"/>
<polygon fill="midnightblue" stroke="midnightblue" points="773.1,-329.52 783.69,-329.87 775.63,-323 773.1,-329.52"/>
</g>
<!-- Node15&#45;&gt;Node16 -->
<g id="edge22" class="edge">
<title>Node15&#45;&gt;Node16</title>
<path fill="none" stroke="midnightblue" d="M859.52,-328.01C909.8,-318.06 987.11,-302.51 1054,-288 1062.67,-286.12 1071.98,-284.02 1080.72,-282.01"/>
<polygon fill="midnightblue" stroke="midnightblue" points="858.66,-324.61 849.53,-329.98 860.01,-331.48 858.66,-324.61"/>
</g>
<!-- Node16&#45;&gt;Node11 -->
<g id="edge24" class="edge">
<title>Node16&#45;&gt;Node11</title>
<path fill="none" stroke="midnightblue" d="M1117,-252.53C1117,-225.81 1117,-177.69 1117,-153.78"/>
<polygon fill="midnightblue" stroke="midnightblue" points="1113.5,-252.84 1117,-262.84 1120.5,-252.84 1113.5,-252.84"/>
</g>
<!-- Node16&#45;&gt;Node12 -->
<g id="edge23" class="edge">
<title>Node16&#45;&gt;Node12</title>
<path fill="none" stroke="midnightblue" d="M1105.04,-254.53C1090,-232.41 1064.41,-192.05 1050,-154 1041.4,-131.29 1036.77,-103.29 1034.6,-86.72"/>
<polygon fill="midnightblue" stroke="midnightblue" points="1102.21,-256.6 1110.78,-262.83 1107.97,-252.62 1102.21,-256.6"/>
</g>
<!-- Node17&#45;&gt;Node18 -->
<g id="edge27" class="edge">
<title>Node17&#45;&gt;Node18</title>
<path fill="none" stroke="midnightblue" d="M980.4,-314.99C984.08,-305.8 988.17,-295.58 991.37,-287.58"/>
<polygon fill="midnightblue" stroke="midnightblue" points="977.11,-313.81 976.64,-324.4 983.61,-316.41 977.11,-313.81"/>
</g>
<!-- Node19&#45;&gt;Node4 -->
<g id="edge31" class="edge">
<title>Node19&#45;&gt;Node4</title>
<path fill="none" stroke="midnightblue" d="M91.96,-314.87C99.01,-297 110.87,-272.89 128,-257 150.6,-236.03 183.37,-222.7 207.81,-215.03"/>
<polygon fill="midnightblue" stroke="midnightblue" points="88.65,-313.73 88.45,-324.32 95.21,-316.17 88.65,-313.73"/>
</g>
<!-- Node20&#45;&gt;Node16 -->
<g id="edge33" class="edge">
<title>Node20&#45;&gt;Node16</title>
<path fill="none" stroke="midnightblue" d="M1235.9,-389.76C1207.17,-361.66 1147.97,-303.78 1125.71,-282.02"/>
<polygon fill="midnightblue" stroke="midnightblue" points="1233.55,-392.35 1243.14,-396.84 1238.44,-387.35 1233.55,-392.35"/>
</g>
<!-- Node20&#45;&gt;Node21 -->
<g id="edge34" class="edge">
<title>Node20&#45;&gt;Node21</title>
<path fill="none" stroke="midnightblue" d="M1278.51,-392.44C1304.66,-379.57 1343.88,-360.26 1366.4,-349.17"/>
<polygon fill="midnightblue" stroke="midnightblue" points="1276.95,-389.31 1269.53,-396.87 1280.05,-395.59 1276.95,-389.31"/>
</g>
<!-- Node22 -->
<g id="node22" class="node">
<title>Node22</title>
<g id="a_node22"><a xlink:href="v8-inspector_8h.html" target="_top" xlink:title=" ">
<polygon fill="white" stroke="black" points="1328.5,-263 1328.5,-282 1439.5,-282 1439.5,-263 1328.5,-263"/>
<text text-anchor="middle" x="1384" y="-270" font-family="Helvetica,sans-Serif" font-size="10.00">include/v8&#45;inspector.h</text>
</a>
</g>
</g>
<!-- Node21&#45;&gt;Node22 -->
<g id="edge35" class="edge">
<title>Node21&#45;&gt;Node22</title>
<path fill="none" stroke="midnightblue" d="M1384,-319.54C1384,-307.17 1384,-291.62 1384,-282.13"/>
<polygon fill="midnightblue" stroke="midnightblue" points="1380.5,-319.73 1384,-329.73 1387.5,-319.73 1380.5,-319.73"/>
</g>
<!-- Node24 -->
<g id="node24" class="node">
<title>Node24</title>
<g id="a_node24"><a xlink:href="v8-profiler_8h.html" target="_top" xlink:title=" ">
<polygon fill="white" stroke="black" points="1458,-263 1458,-282 1558,-282 1558,-263 1458,-263"/>
<text text-anchor="middle" x="1508" y="-270" font-family="Helvetica,sans-Serif" font-size="10.00">include/v8&#45;profiler.h</text>
</a>
</g>
</g>
<!-- Node21&#45;&gt;Node24 -->
<g id="edge37" class="edge">
<title>Node21&#45;&gt;Node24</title>
<path fill="none" stroke="midnightblue" d="M1409.56,-325.1C1434.11,-312.23 1470.49,-293.16 1491.47,-282.17"/>
<polygon fill="midnightblue" stroke="midnightblue" points="1407.7,-322.13 1400.47,-329.87 1410.95,-328.33 1407.7,-322.13"/>
</g>
<!-- Node25 -->
<g id="node25" class="node">
<title>Node25</title>
<g id="a_node25"><a xlink:href="v8-util_8h.html" target="_top" xlink:title=" ">
<polygon fill="white" stroke="black" points="1227,-263 1227,-282 1311,-282 1311,-263 1227,-263"/>
<text text-anchor="middle" x="1269" y="-270" font-family="Helvetica,sans-Serif" font-size="10.00">include/v8&#45;util.h</text>
</a>
</g>
</g>
<!-- Node21&#45;&gt;Node25 -->
<g id="edge38" class="edge">
<title>Node21&#45;&gt;Node25</title>
<path fill="none" stroke="midnightblue" d="M1359.74,-324.79C1336.95,-311.9 1303.54,-293.02 1284.26,-282.13"/>
<polygon fill="midnightblue" stroke="midnightblue" points="1358.06,-327.86 1368.49,-329.73 1361.51,-321.77 1358.06,-327.86"/>
</g>
<!-- Node23 -->
<g id="node23" class="node">
<title>Node23</title>
<g id="a_node23"><a xlink:href="v8-inspector-protocol_8h.html" target="_top" xlink:title=" ">
<polygon fill="white" stroke="black" points="1332,-190.5 1332,-220.5 1436,-220.5 1436,-190.5 1332,-190.5"/>
<text text-anchor="start" x="1340" y="-208.5" font-family="Helvetica,sans-Serif" font-size="10.00">include/v8&#45;inspector</text>
<text text-anchor="middle" x="1384" y="-197.5" font-family="Helvetica,sans-Serif" font-size="10.00">&#45;protocol.h</text>
</a>
</g>
</g>
<!-- Node22&#45;&gt;Node23 -->
<g id="edge36" class="edge">
<title>Node22&#45;&gt;Node23</title>
<path fill="none" stroke="midnightblue" d="M1384,-252.41C1384,-242.22 1384,-229.9 1384,-220.59"/>
<polygon fill="midnightblue" stroke="midnightblue" points="1380.5,-252.73 1384,-262.73 1387.5,-252.73 1380.5,-252.73"/>
</g>
<!-- Node26&#45;&gt;Node5 -->
<g id="edge48" class="edge">
<title>Node26&#45;&gt;Node5</title>
<path fill="none" stroke="midnightblue" d="M560.69,-384.87C551.45,-376.46 541.71,-366.11 535,-355 515.48,-322.68 511,-311.26 511,-273.5 511,-273.5 511,-273.5 511,-204.5 511,-154.19 475.24,-101.51 459.88,-81.19"/>
<polygon fill="midnightblue" stroke="midnightblue" points="558.42,-387.53 568.26,-391.44 563.01,-382.24 558.42,-387.53"/>
</g>
<!-- Node26&#45;&gt;Node6 -->
<g id="edge47" class="edge">
<title>Node26&#45;&gt;Node6</title>
<path fill="none" stroke="midnightblue" d="M575.85,-381.86C564.63,-355.89 549,-312.66 549,-273.5 549,-273.5 549,-273.5 549,-137.5 549,-98.9 542.74,-86.43 519,-56 506.37,-39.82 486.29,-27.31 471.59,-19.63"/>
<polygon fill="midnightblue" stroke="midnightblue" points="572.76,-383.53 580.03,-391.24 579.15,-380.68 572.76,-383.53"/>
</g>
<!-- Node26&#45;&gt;Node9 -->
<g id="edge46" class="edge">
<title>Node26&#45;&gt;Node9</title>
<path fill="none" stroke="midnightblue" d="M535.49,-388.24C456.67,-361.83 307.62,-311.9 234.96,-287.56"/>
<polygon fill="midnightblue" stroke="midnightblue" points="534.61,-391.64 545.21,-391.5 536.84,-385 534.61,-391.64"/>
</g>
<!-- Node26&#45;&gt;Node27 -->
<g id="edge41" class="edge">
<title>Node26&#45;&gt;Node27</title>
<path fill="none" stroke="midnightblue" d="M613.28,-385.17C626.12,-375.23 641.26,-363.51 652.81,-354.58"/>
<polygon fill="midnightblue" stroke="midnightblue" points="610.99,-382.51 605.23,-391.4 615.28,-388.04 610.99,-382.51"/>
</g>
<!-- Node27&#45;&gt;Node5 -->
<g id="edge45" class="edge">
<title>Node27&#45;&gt;Node5</title>
<path fill="none" stroke="midnightblue" d="M692.12,-316.49C705.32,-299.95 718.06,-276.83 708,-257 658.57,-159.53 530.73,-101.75 477.17,-81.13"/>
<polygon fill="midnightblue" stroke="midnightblue" points="689.13,-314.6 685.3,-324.48 694.45,-319.15 689.13,-314.6"/>
</g>
<!-- Node27&#45;&gt;Node7 -->
<g id="edge42" class="edge">
<title>Node27&#45;&gt;Node7</title>
<path fill="none" stroke="midnightblue" d="M659.21,-315.28C654.51,-306.02 649.25,-295.66 645.15,-287.58"/>
<polygon fill="midnightblue" stroke="midnightblue" points="656.19,-317.06 663.84,-324.4 662.43,-313.89 656.19,-317.06"/>
</g>
<!-- Node27&#45;&gt;Node28 -->
<g id="edge43" class="edge">
<title>Node27&#45;&gt;Node28</title>
<path fill="none" stroke="midnightblue" d="M710.57,-320.13C732.81,-309.8 760.15,-297.11 780.68,-287.58"/>
<polygon fill="midnightblue" stroke="midnightblue" points="708.97,-317.01 701.38,-324.4 711.92,-323.36 708.97,-317.01"/>
</g>
<!-- Node28&#45;&gt;Node6 -->
<g id="edge44" class="edge">
<title>Node28&#45;&gt;Node6</title>
<path fill="none" stroke="midnightblue" d="M790.99,-249.91C751.06,-207.86 657.23,-114.01 563,-56 536.82,-39.88 503.85,-27.28 480.87,-19.57"/>
<polygon fill="midnightblue" stroke="midnightblue" points="788.61,-252.49 798.02,-257.37 793.71,-247.69 788.61,-252.49"/>
</g>
<!-- Node29&#45;&gt;Node8 -->
<g id="edge52" class="edge">
<title>Node29&#45;&gt;Node8</title>
<path fill="none" stroke="midnightblue" d="M252,-381.11C252,-372.15 252,-362.32 252,-354.58"/>
<polygon fill="midnightblue" stroke="midnightblue" points="248.5,-381.4 252,-391.4 255.5,-381.4 248.5,-381.4"/>
</g>
<!-- Node31&#45;&gt;Node21 -->
<g id="edge61" class="edge">
<title>Node31&#45;&gt;Node21</title>
<path fill="none" stroke="midnightblue" d="M1384,-386.54C1384,-374.17 1384,-358.62 1384,-349.13"/>
<polygon fill="midnightblue" stroke="midnightblue" points="1380.5,-386.73 1384,-396.73 1387.5,-386.73 1380.5,-386.73"/>
</g>
</g>
</svg>
