<?xml version="1.0" encoding="UTF-8" standalone="no"?>
<!DOCTYPE svg PUBLIC "-//W3C//DTD SVG 1.1//EN"
 "http://www.w3.org/Graphics/SVG/1.1/DTD/svg11.dtd">
<!-- Generated by graphviz version 2.44.0 ()
 -->
<!-- Title: include/cppgc/allocation.h Pages: 1 -->
<svg width="670pt" height="274pt"
 viewBox="0.00 0.00 670.45 274.00" xmlns="http://www.w3.org/2000/svg" xmlns:xlink="http://www.w3.org/1999/xlink">
<g id="graph0" class="graph" transform="scale(1 1) rotate(0) translate(4 270)">
<title>include/cppgc/allocation.h</title>
<polygon fill="white" stroke="transparent" points="-4,4 -4,-270 666.45,-270 666.45,4 -4,4"/>
<!-- Node1 -->
<g id="node1" class="node">
<title>Node1</title>
<g id="a_node1"><a xlink:title=" ">
<polygon fill="#bfbfbf" stroke="black" points="144.86,-246.5 144.86,-265.5 272.86,-265.5 272.86,-246.5 144.86,-246.5"/>
<text text-anchor="middle" x="208.86" y="-253.5" font-family="Helvetica,sans-Serif" font-size="10.00">include/cppgc/allocation.h</text>
</a>
</g>
</g>
<!-- Node2 -->
<g id="node2" class="node">
<title>Node2</title>
<g id="a_node2"><a xlink:title=" ">
<polygon fill="white" stroke="#bfbfbf" points="21.86,-0.5 21.86,-19.5 69.86,-19.5 69.86,-0.5 21.86,-0.5"/>
<text text-anchor="middle" x="45.86" y="-7.5" font-family="Helvetica,sans-Serif" font-size="10.00">stdint.h</text>
</a>
</g>
</g>
<!-- Node1&#45;&gt;Node2 -->
<g id="edge1" class="edge">
<title>Node1&#45;&gt;Node2</title>
<path fill="none" stroke="midnightblue" d="M165.48,-246.45C118.53,-234.62 45.94,-208.26 12.86,-154 -11.7,-113.72 16.53,-56.89 34.04,-28.53"/>
<polygon fill="midnightblue" stroke="midnightblue" points="37.21,-30.07 39.68,-19.76 31.33,-26.28 37.21,-30.07"/>
</g>
<!-- Node3 -->
<g id="node3" class="node">
<title>Node3</title>
<g id="a_node3"><a xlink:title=" ">
<polygon fill="white" stroke="#bfbfbf" points="477.86,-190.5 477.86,-209.5 523.86,-209.5 523.86,-190.5 477.86,-190.5"/>
<text text-anchor="middle" x="500.86" y="-197.5" font-family="Helvetica,sans-Serif" font-size="10.00">atomic</text>
</a>
</g>
</g>
<!-- Node1&#45;&gt;Node3 -->
<g id="edge2" class="edge">
<title>Node1&#45;&gt;Node3</title>
<path fill="none" stroke="midnightblue" d="M268.32,-246.49C318.97,-238.84 393.84,-226.57 467.59,-210.11"/>
<polygon fill="midnightblue" stroke="midnightblue" points="468.53,-213.48 477.51,-207.87 466.99,-206.66 468.53,-213.48"/>
</g>
<!-- Node4 -->
<g id="node4" class="node">
<title>Node4</title>
<g id="a_node4"><a xlink:href="custom-space_8h.html" target="_top" xlink:title=" ">
<polygon fill="white" stroke="black" points="22.36,-129 22.36,-148 137.36,-148 137.36,-129 22.36,-129"/>
<text text-anchor="middle" x="79.86" y="-136" font-family="Helvetica,sans-Serif" font-size="10.00">cppgc/custom&#45;space.h</text>
</a>
</g>
</g>
<!-- Node1&#45;&gt;Node4 -->
<g id="edge3" class="edge">
<title>Node1&#45;&gt;Node4</title>
<path fill="none" stroke="midnightblue" d="M197.21,-246.38C185.48,-237.57 167,-223.33 151.86,-210 131.47,-192.06 109.33,-169.95 95.06,-155.33"/>
<polygon fill="midnightblue" stroke="midnightblue" points="97.48,-152.79 88.01,-148.05 92.45,-157.66 97.48,-152.79"/>
</g>
<!-- Node6 -->
<g id="node6" class="node">
<title>Node6</title>
<g id="a_node6"><a xlink:href="garbage-collected_8h.html" target="_top" xlink:title=" ">
<polygon fill="white" stroke="black" points="329.86,-190.5 329.86,-209.5 459.86,-209.5 459.86,-190.5 329.86,-190.5"/>
<text text-anchor="middle" x="394.86" y="-197.5" font-family="Helvetica,sans-Serif" font-size="10.00">cppgc/garbage&#45;collected.h</text>
</a>
</g>
</g>
<!-- Node1&#45;&gt;Node6 -->
<g id="edge5" class="edge">
<title>Node1&#45;&gt;Node6</title>
<path fill="none" stroke="midnightblue" d="M238.33,-246.44C270.03,-237.24 320.59,-222.56 355.63,-212.39"/>
<polygon fill="midnightblue" stroke="midnightblue" points="356.9,-215.67 365.53,-209.52 354.95,-208.94 356.9,-215.67"/>
</g>
<!-- Node8 -->
<g id="node8" class="node">
<title>Node8</title>
<g id="a_node8"><a xlink:href="api-constants_8h.html" target="_top" xlink:title=" ">
<polygon fill="white" stroke="black" points="119.36,-56.5 119.36,-86.5 212.36,-86.5 212.36,-56.5 119.36,-56.5"/>
<text text-anchor="start" x="127.36" y="-74.5" font-family="Helvetica,sans-Serif" font-size="10.00">cppgc/internal/api</text>
<text text-anchor="middle" x="165.86" y="-63.5" font-family="Helvetica,sans-Serif" font-size="10.00">&#45;constants.h</text>
</a>
</g>
</g>
<!-- Node1&#45;&gt;Node8 -->
<g id="edge26" class="edge">
<title>Node1&#45;&gt;Node8</title>
<path fill="none" stroke="midnightblue" d="M203.11,-246.45C197.51,-237.68 189.23,-223.48 184.86,-210 172.39,-171.55 168.1,-124.46 166.63,-96.55"/>
<polygon fill="midnightblue" stroke="midnightblue" points="170.13,-96.35 166.18,-86.52 163.13,-96.67 170.13,-96.35"/>
</g>
<!-- Node17 -->
<g id="node17" class="node">
<title>Node17</title>
<g id="a_node17"><a xlink:href="gc-info_8h.html" target="_top" xlink:title=" ">
<polygon fill="white" stroke="black" points="194.36,-190.5 194.36,-209.5 311.36,-209.5 311.36,-190.5 194.36,-190.5"/>
<text text-anchor="middle" x="252.86" y="-197.5" font-family="Helvetica,sans-Serif" font-size="10.00">cppgc/internal/gc&#45;info.h</text>
</a>
</g>
</g>
<!-- Node1&#45;&gt;Node17 -->
<g id="edge27" class="edge">
<title>Node1&#45;&gt;Node17</title>
<path fill="none" stroke="midnightblue" d="M216.13,-246.08C222.4,-238.38 231.65,-227.03 239.29,-217.65"/>
<polygon fill="midnightblue" stroke="midnightblue" points="242.13,-219.71 245.73,-209.75 236.7,-215.29 242.13,-219.71"/>
</g>
<!-- Node5 -->
<g id="node5" class="node">
<title>Node5</title>
<g id="a_node5"><a xlink:title=" ">
<polygon fill="white" stroke="#bfbfbf" points="140.36,-0.5 140.36,-19.5 191.36,-19.5 191.36,-0.5 140.36,-0.5"/>
<text text-anchor="middle" x="165.86" y="-7.5" font-family="Helvetica,sans-Serif" font-size="10.00">stddef.h</text>
</a>
</g>
</g>
<!-- Node4&#45;&gt;Node5 -->
<g id="edge4" class="edge">
<title>Node4&#45;&gt;Node5</title>
<path fill="none" stroke="midnightblue" d="M81.43,-128.93C84.62,-113.24 93.05,-79.38 109.86,-56 118.59,-43.85 131.43,-33.21 142.62,-25.33"/>
<polygon fill="midnightblue" stroke="midnightblue" points="144.77,-28.1 151.12,-19.62 140.87,-22.29 144.77,-28.1"/>
</g>
<!-- Node7 -->
<g id="node7" class="node">
<title>Node7</title>
<g id="a_node7"><a xlink:title=" ">
<polygon fill="white" stroke="#bfbfbf" points="530.86,-0.5 530.86,-19.5 592.86,-19.5 592.86,-0.5 530.86,-0.5"/>
<text text-anchor="middle" x="561.86" y="-7.5" font-family="Helvetica,sans-Serif" font-size="10.00">type_traits</text>
</a>
</g>
</g>
<!-- Node6&#45;&gt;Node7 -->
<g id="edge6" class="edge">
<title>Node6&#45;&gt;Node7</title>
<path fill="none" stroke="midnightblue" d="M454.8,-190.48C528.74,-179.67 645.51,-161.55 651.86,-154 688.02,-110.96 619.61,-52.22 582.92,-25.41"/>
<polygon fill="midnightblue" stroke="midnightblue" points="584.96,-22.56 574.78,-19.6 580.89,-28.26 584.96,-22.56"/>
</g>
<!-- Node6&#45;&gt;Node8 -->
<g id="edge7" class="edge">
<title>Node6&#45;&gt;Node8</title>
<path fill="none" stroke="midnightblue" d="M357.73,-190.47C330.14,-183.2 292.2,-171.17 261.86,-154 233.06,-137.7 204.75,-112.18 186.43,-94.04"/>
<polygon fill="midnightblue" stroke="midnightblue" points="188.74,-91.4 179.21,-86.77 183.77,-96.33 188.74,-91.4"/>
</g>
<!-- Node10 -->
<g id="node10" class="node">
<title>Node10</title>
<g id="a_node10"><a xlink:href="platform_8h.html" target="_top" xlink:title=" ">
<polygon fill="white" stroke="black" points="270.36,-129 270.36,-148 359.36,-148 359.36,-129 270.36,-129"/>
<text text-anchor="middle" x="314.86" y="-136" font-family="Helvetica,sans-Serif" font-size="10.00">cppgc/platform.h</text>
</a>
</g>
</g>
<!-- Node6&#45;&gt;Node10 -->
<g id="edge11" class="edge">
<title>Node6&#45;&gt;Node10</title>
<path fill="none" stroke="midnightblue" d="M383.4,-190.48C370.68,-181.02 349.95,-165.6 334.61,-154.19"/>
<polygon fill="midnightblue" stroke="midnightblue" points="336.41,-151.17 326.3,-148.01 332.24,-156.79 336.41,-151.17"/>
</g>
<!-- Node15 -->
<g id="node15" class="node">
<title>Node15</title>
<g id="a_node15"><a xlink:href="trace-trait_8h.html" target="_top" xlink:title=" ">
<polygon fill="white" stroke="black" points="377.36,-129 377.36,-148 472.36,-148 472.36,-129 377.36,-129"/>
<text text-anchor="middle" x="424.86" y="-136" font-family="Helvetica,sans-Serif" font-size="10.00">cppgc/trace&#45;trait.h</text>
</a>
</g>
</g>
<!-- Node6&#45;&gt;Node15 -->
<g id="edge20" class="edge">
<title>Node6&#45;&gt;Node15</title>
<path fill="none" stroke="midnightblue" d="M399.16,-190.48C403.52,-181.82 410.42,-168.15 415.96,-157.15"/>
<polygon fill="midnightblue" stroke="midnightblue" points="419.19,-158.51 420.57,-148.01 412.94,-155.36 419.19,-158.51"/>
</g>
<!-- Node16 -->
<g id="node16" class="node">
<title>Node16</title>
<g id="a_node16"><a xlink:href="type-traits_8h.html" target="_top" xlink:title=" ">
<polygon fill="white" stroke="black" points="475.86,-62 475.86,-81 571.86,-81 571.86,-62 475.86,-62"/>
<text text-anchor="middle" x="523.86" y="-69" font-family="Helvetica,sans-Serif" font-size="10.00">cppgc/type&#45;traits.h</text>
</a>
</g>
</g>
<!-- Node6&#45;&gt;Node16 -->
<g id="edge25" class="edge">
<title>Node6&#45;&gt;Node16</title>
<path fill="none" stroke="midnightblue" d="M420.71,-190.5C439.55,-183.23 464.68,-171.21 481.86,-154 499.83,-136.01 511.73,-108.73 518.13,-90.77"/>
<polygon fill="midnightblue" stroke="midnightblue" points="521.49,-91.77 521.35,-81.18 514.85,-89.55 521.49,-91.77"/>
</g>
<!-- Node8&#45;&gt;Node2 -->
<g id="edge9" class="edge">
<title>Node8&#45;&gt;Node2</title>
<path fill="none" stroke="midnightblue" d="M137.42,-56.4C117.74,-46.64 91.72,-33.74 72.45,-24.18"/>
<polygon fill="midnightblue" stroke="midnightblue" points="73.83,-20.96 63.32,-19.66 70.73,-27.24 73.83,-20.96"/>
</g>
<!-- Node8&#45;&gt;Node5 -->
<g id="edge8" class="edge">
<title>Node8&#45;&gt;Node5</title>
<path fill="none" stroke="midnightblue" d="M165.86,-56.4C165.86,-48.47 165.86,-38.46 165.86,-29.86"/>
<polygon fill="midnightblue" stroke="midnightblue" points="169.36,-29.66 165.86,-19.66 162.36,-29.66 169.36,-29.66"/>
</g>
<!-- Node9 -->
<g id="node9" class="node">
<title>Node9</title>
<g id="a_node9"><a xlink:href="v8config_8h.html" target="_top" xlink:title=" ">
<polygon fill="white" stroke="black" points="217.86,-0.5 217.86,-19.5 277.86,-19.5 277.86,-0.5 217.86,-0.5"/>
<text text-anchor="middle" x="247.86" y="-7.5" font-family="Helvetica,sans-Serif" font-size="10.00">v8config.h</text>
</a>
</g>
</g>
<!-- Node8&#45;&gt;Node9 -->
<g id="edge10" class="edge">
<title>Node8&#45;&gt;Node9</title>
<path fill="none" stroke="midnightblue" d="M185.29,-56.4C198.07,-47.13 214.75,-35.03 227.67,-25.65"/>
<polygon fill="midnightblue" stroke="midnightblue" points="229.89,-28.36 235.93,-19.66 225.78,-22.7 229.89,-28.36"/>
</g>
<!-- Node10&#45;&gt;Node9 -->
<g id="edge19" class="edge">
<title>Node10&#45;&gt;Node9</title>
<path fill="none" stroke="midnightblue" d="M310.25,-128.81C299.35,-108.22 271.79,-56.19 257.22,-28.68"/>
<polygon fill="midnightblue" stroke="midnightblue" points="260.27,-26.95 252.5,-19.76 254.08,-30.23 260.27,-26.95"/>
</g>
<!-- Node11 -->
<g id="node11" class="node">
<title>Node11</title>
<g id="a_node11"><a xlink:href="v8-platform_8h.html" target="_top" xlink:title=" ">
<polygon fill="white" stroke="black" points="346.36,-62 346.36,-81 419.36,-81 419.36,-62 346.36,-62"/>
<text text-anchor="middle" x="382.86" y="-69" font-family="Helvetica,sans-Serif" font-size="10.00">v8&#45;platform.h</text>
</a>
</g>
</g>
<!-- Node10&#45;&gt;Node11 -->
<g id="edge12" class="edge">
<title>Node10&#45;&gt;Node11</title>
<path fill="none" stroke="midnightblue" d="M324.03,-128.73C334.84,-118.4 353.01,-101.04 366.3,-88.33"/>
<polygon fill="midnightblue" stroke="midnightblue" points="369.02,-90.57 373.83,-81.13 364.19,-85.51 369.02,-90.57"/>
</g>
<!-- Node11&#45;&gt;Node2 -->
<g id="edge14" class="edge">
<title>Node11&#45;&gt;Node2</title>
<path fill="none" stroke="midnightblue" d="M346.15,-64.02C280.55,-52.44 144.07,-28.34 80.2,-17.06"/>
<polygon fill="midnightblue" stroke="midnightblue" points="80.69,-13.6 70.24,-15.3 79.48,-20.49 80.69,-13.6"/>
</g>
<!-- Node11&#45;&gt;Node5 -->
<g id="edge13" class="edge">
<title>Node11&#45;&gt;Node5</title>
<path fill="none" stroke="midnightblue" d="M351.77,-61.98C311.93,-51.05 243.03,-32.16 201.23,-20.7"/>
<polygon fill="midnightblue" stroke="midnightblue" points="202.04,-17.29 191.47,-18.02 200.19,-24.04 202.04,-17.29"/>
</g>
<!-- Node11&#45;&gt;Node9 -->
<g id="edge18" class="edge">
<title>Node11&#45;&gt;Node9</title>
<path fill="none" stroke="midnightblue" d="M363.52,-61.98C340.76,-51.95 302.77,-35.2 276.57,-23.65"/>
<polygon fill="midnightblue" stroke="midnightblue" points="277.73,-20.34 267.17,-19.51 274.91,-26.74 277.73,-20.34"/>
</g>
<!-- Node12 -->
<g id="node12" class="node">
<title>Node12</title>
<g id="a_node12"><a xlink:title=" ">
<polygon fill="white" stroke="#bfbfbf" points="424.36,-0.5 424.36,-19.5 471.36,-19.5 471.36,-0.5 424.36,-0.5"/>
<text text-anchor="middle" x="447.86" y="-7.5" font-family="Helvetica,sans-Serif" font-size="10.00">stdlib.h</text>
</a>
</g>
</g>
<!-- Node11&#45;&gt;Node12 -->
<g id="edge15" class="edge">
<title>Node11&#45;&gt;Node12</title>
<path fill="none" stroke="midnightblue" d="M392.17,-61.98C402.31,-52.7 418.72,-37.67 431.11,-26.33"/>
<polygon fill="midnightblue" stroke="midnightblue" points="433.55,-28.84 438.56,-19.51 428.82,-23.68 433.55,-28.84"/>
</g>
<!-- Node13 -->
<g id="node13" class="node">
<title>Node13</title>
<g id="a_node13"><a xlink:title=" ">
<polygon fill="white" stroke="#bfbfbf" points="296.36,-0.5 296.36,-19.5 347.36,-19.5 347.36,-0.5 296.36,-0.5"/>
<text text-anchor="middle" x="321.86" y="-7.5" font-family="Helvetica,sans-Serif" font-size="10.00">memory</text>
</a>
</g>
</g>
<!-- Node11&#45;&gt;Node13 -->
<g id="edge16" class="edge">
<title>Node11&#45;&gt;Node13</title>
<path fill="none" stroke="midnightblue" d="M374.12,-61.98C364.7,-52.78 349.5,-37.96 337.91,-26.66"/>
<polygon fill="midnightblue" stroke="midnightblue" points="340.19,-23.99 330.58,-19.51 335.3,-29 340.19,-23.99"/>
</g>
<!-- Node14 -->
<g id="node14" class="node">
<title>Node14</title>
<g id="a_node14"><a xlink:title=" ">
<polygon fill="white" stroke="#bfbfbf" points="365.36,-0.5 365.36,-19.5 406.36,-19.5 406.36,-0.5 365.36,-0.5"/>
<text text-anchor="middle" x="385.86" y="-7.5" font-family="Helvetica,sans-Serif" font-size="10.00">string</text>
</a>
</g>
</g>
<!-- Node11&#45;&gt;Node14 -->
<g id="edge17" class="edge">
<title>Node11&#45;&gt;Node14</title>
<path fill="none" stroke="midnightblue" d="M383.29,-61.98C383.71,-53.58 384.37,-40.48 384.92,-29.66"/>
<polygon fill="midnightblue" stroke="midnightblue" points="388.42,-29.67 385.43,-19.51 381.43,-29.32 388.42,-29.67"/>
</g>
<!-- Node15&#45;&gt;Node7 -->
<g id="edge21" class="edge">
<title>Node15&#45;&gt;Node7</title>
<path fill="none" stroke="midnightblue" d="M427.3,-128.75C432.25,-112.47 444.89,-77.25 466.86,-56 482.39,-40.98 503.87,-30.23 522.47,-23.01"/>
<polygon fill="midnightblue" stroke="midnightblue" points="523.71,-26.29 531.89,-19.56 521.3,-19.72 523.71,-26.29"/>
</g>
<!-- Node15&#45;&gt;Node9 -->
<g id="edge24" class="edge">
<title>Node15&#45;&gt;Node9</title>
<path fill="none" stroke="midnightblue" d="M407.97,-128.84C390.04,-119.38 361.13,-103.39 337.86,-87 310.85,-67.97 282.08,-42.69 264.54,-26.63"/>
<polygon fill="midnightblue" stroke="midnightblue" points="266.6,-23.77 256.88,-19.55 261.85,-28.91 266.6,-23.77"/>
</g>
<!-- Node15&#45;&gt;Node16 -->
<g id="edge22" class="edge">
<title>Node15&#45;&gt;Node16</title>
<path fill="none" stroke="midnightblue" d="M438.21,-128.73C454.61,-117.96 482.66,-99.55 502.17,-86.74"/>
<polygon fill="midnightblue" stroke="midnightblue" points="504.28,-89.54 510.72,-81.13 500.44,-83.69 504.28,-89.54"/>
</g>
<!-- Node16&#45;&gt;Node7 -->
<g id="edge23" class="edge">
<title>Node16&#45;&gt;Node7</title>
<path fill="none" stroke="midnightblue" d="M529.3,-61.98C534.95,-53.14 543.92,-39.09 551.02,-27.98"/>
<polygon fill="midnightblue" stroke="midnightblue" points="553.99,-29.82 556.43,-19.51 548.09,-26.05 553.99,-29.82"/>
</g>
<!-- Node17&#45;&gt;Node2 -->
<g id="edge28" class="edge">
<title>Node17&#45;&gt;Node2</title>
<path fill="none" stroke="midnightblue" d="M194.2,-196.34C130.71,-192.09 35.47,-181.24 12.86,-154 -17.83,-117.02 14.61,-56.92 33.82,-27.83"/>
<polygon fill="midnightblue" stroke="midnightblue" points="36.73,-29.77 39.49,-19.55 30.95,-25.82 36.73,-29.77"/>
</g>
<!-- Node17&#45;&gt;Node9 -->
<g id="edge33" class="edge">
<title>Node17&#45;&gt;Node9</title>
<path fill="none" stroke="midnightblue" d="M252.63,-190.43C251.87,-161.93 249.42,-69.82 248.36,-29.83"/>
<polygon fill="midnightblue" stroke="midnightblue" points="251.85,-29.52 248.09,-19.62 244.86,-29.71 251.85,-29.52"/>
</g>
<!-- Node17&#45;&gt;Node15 -->
<g id="edge32" class="edge">
<title>Node17&#45;&gt;Node15</title>
<path fill="none" stroke="midnightblue" d="M277.5,-190.48C307.14,-180.22 357.04,-162.96 390.46,-151.4"/>
<polygon fill="midnightblue" stroke="midnightblue" points="391.96,-154.59 400.26,-148.01 389.67,-147.97 391.96,-154.59"/>
</g>
<!-- Node18 -->
<g id="node18" class="node">
<title>Node18</title>
<g id="a_node18"><a xlink:href="finalizer-trait_8h.html" target="_top" xlink:title=" ">
<polygon fill="white" stroke="black" points="529.36,-123.5 529.36,-153.5 642.36,-153.5 642.36,-123.5 529.36,-123.5"/>
<text text-anchor="start" x="537.36" y="-141.5" font-family="Helvetica,sans-Serif" font-size="10.00">cppgc/internal/finalizer</text>
<text text-anchor="middle" x="585.86" y="-130.5" font-family="Helvetica,sans-Serif" font-size="10.00">&#45;trait.h</text>
</a>
</g>
</g>
<!-- Node17&#45;&gt;Node18 -->
<g id="edge29" class="edge">
<title>Node17&#45;&gt;Node18</title>
<path fill="none" stroke="midnightblue" d="M300.57,-190.48C357.93,-180.23 454.53,-162.97 519.23,-151.41"/>
<polygon fill="midnightblue" stroke="midnightblue" points="520.1,-154.81 529.32,-149.6 518.86,-147.92 520.1,-154.81"/>
</g>
<!-- Node18&#45;&gt;Node7 -->
<g id="edge30" class="edge">
<title>Node18&#45;&gt;Node7</title>
<path fill="none" stroke="midnightblue" d="M586.42,-123.45C586.75,-107.04 586.3,-79.19 580.86,-56 578.68,-46.71 574.75,-36.9 571.02,-28.81"/>
<polygon fill="midnightblue" stroke="midnightblue" points="574.09,-27.12 566.56,-19.67 567.8,-30.19 574.09,-27.12"/>
</g>
<!-- Node18&#45;&gt;Node16 -->
<g id="edge31" class="edge">
<title>Node18&#45;&gt;Node16</title>
<path fill="none" stroke="midnightblue" d="M572.41,-123.4C562.64,-113.16 549.42,-99.3 539.24,-88.62"/>
<polygon fill="midnightblue" stroke="midnightblue" points="541.59,-86.01 532.15,-81.19 536.52,-90.85 541.59,-86.01"/>
</g>
</g>
</svg>
