<?xml version="1.0" encoding="UTF-8" standalone="no"?>
<!DOCTYPE svg PUBLIC "-//W3C//DTD SVG 1.1//EN"
 "http://www.w3.org/Graphics/SVG/1.1/DTD/svg11.dtd">
<!-- Generated by graphviz version 2.44.0 ()
 -->
<!-- Title: include/cppgc/internal/api&#45;constants.h Pages: 1 -->
<svg width="551pt" height="419pt"
 viewBox="0.00 0.00 550.50 419.00" xmlns="http://www.w3.org/2000/svg" xmlns:xlink="http://www.w3.org/1999/xlink">
<g id="graph0" class="graph" transform="scale(1 1) rotate(0) translate(4 415)">
<title>include/cppgc/internal/api&#45;constants.h</title>
<polygon fill="white" stroke="transparent" points="-4,4 -4,-415 546.5,-415 546.5,4 -4,4"/>
<!-- Node1 -->
<g id="node1" class="node">
<title>Node1</title>
<g id="a_node1"><a xlink:title=" ">
<polygon fill="#bfbfbf" stroke="black" points="158.5,-380.5 158.5,-410.5 269.5,-410.5 269.5,-380.5 158.5,-380.5"/>
<text text-anchor="start" x="166.5" y="-398.5" font-family="Helvetica,sans-Serif" font-size="10.00">include/cppgc/internal</text>
<text text-anchor="middle" x="214" y="-387.5" font-family="Helvetica,sans-Serif" font-size="10.00">/api&#45;constants.h</text>
</a>
</g>
</g>
<!-- Node2 -->
<g id="node2" class="node">
<title>Node2</title>
<g id="a_node2"><a xlink:href="garbage-collected_8h.html" target="_top" xlink:title=" ">
<polygon fill="white" stroke="black" points="92,-313.5 92,-343.5 206,-343.5 206,-313.5 92,-313.5"/>
<text text-anchor="start" x="100" y="-331.5" font-family="Helvetica,sans-Serif" font-size="10.00">include/cppgc/garbage</text>
<text text-anchor="middle" x="149" y="-320.5" font-family="Helvetica,sans-Serif" font-size="10.00">&#45;collected.h</text>
</a>
</g>
</g>
<!-- Node1&#45;&gt;Node2 -->
<g id="edge1" class="edge">
<title>Node1&#45;&gt;Node2</title>
<path fill="none" stroke="midnightblue" d="M192.81,-373.31C183.06,-363.56 171.76,-352.26 163.08,-343.58"/>
<polygon fill="midnightblue" stroke="midnightblue" points="190.35,-375.8 199.9,-380.4 195.3,-370.85 190.35,-375.8"/>
</g>
<!-- Node3 -->
<g id="node3" class="node">
<title>Node3</title>
<g id="a_node3"><a xlink:href="allocation_8h.html" target="_top" xlink:title=" ">
<polygon fill="white" stroke="black" points="0,-252 0,-271 128,-271 128,-252 0,-252"/>
<text text-anchor="middle" x="64" y="-259" font-family="Helvetica,sans-Serif" font-size="10.00">include/cppgc/allocation.h</text>
</a>
</g>
</g>
<!-- Node1&#45;&gt;Node3 -->
<g id="edge6" class="edge">
<title>Node1&#45;&gt;Node3</title>
<path fill="none" stroke="midnightblue" d="M148.59,-382.68C124.87,-375.28 99.8,-363.31 83,-344 64.69,-322.95 63.16,-287.63 63.54,-271.29"/>
<polygon fill="midnightblue" stroke="midnightblue" points="147.71,-386.07 158.29,-385.48 149.66,-379.34 147.71,-386.07"/>
</g>
<!-- Node7 -->
<g id="node7" class="node">
<title>Node7</title>
<g id="a_node7"><a xlink:href="caged-heap-local-data_8h.html" target="_top" xlink:title=" ">
<polygon fill="white" stroke="black" points="354,-313.5 354,-343.5 476,-343.5 476,-313.5 354,-313.5"/>
<text text-anchor="start" x="362" y="-331.5" font-family="Helvetica,sans-Serif" font-size="10.00">include/cppgc/internal</text>
<text text-anchor="middle" x="415" y="-320.5" font-family="Helvetica,sans-Serif" font-size="10.00">/caged&#45;heap&#45;local&#45;data.h</text>
</a>
</g>
</g>
<!-- Node1&#45;&gt;Node7 -->
<g id="edge7" class="edge">
<title>Node1&#45;&gt;Node7</title>
<path fill="none" stroke="midnightblue" d="M267.41,-377.23C299.93,-366.71 340.94,-353.45 371.47,-343.58"/>
<polygon fill="midnightblue" stroke="midnightblue" points="266.05,-373.99 257.61,-380.4 268.21,-380.65 266.05,-373.99"/>
</g>
<!-- Node8 -->
<g id="node8" class="node">
<title>Node8</title>
<g id="a_node8"><a xlink:href="write-barrier_8h.html" target="_top" xlink:title=" ">
<polygon fill="white" stroke="black" points="224.5,-313.5 224.5,-343.5 335.5,-343.5 335.5,-313.5 224.5,-313.5"/>
<text text-anchor="start" x="232.5" y="-331.5" font-family="Helvetica,sans-Serif" font-size="10.00">include/cppgc/internal</text>
<text text-anchor="middle" x="280" y="-320.5" font-family="Helvetica,sans-Serif" font-size="10.00">/write&#45;barrier.h</text>
</a>
</g>
</g>
<!-- Node1&#45;&gt;Node8 -->
<g id="edge8" class="edge">
<title>Node1&#45;&gt;Node8</title>
<path fill="none" stroke="midnightblue" d="M235.51,-373.31C245.41,-363.56 256.89,-352.26 265.71,-343.58"/>
<polygon fill="midnightblue" stroke="midnightblue" points="232.99,-370.89 228.32,-380.4 237.9,-375.87 232.99,-370.89"/>
</g>
<!-- Node2&#45;&gt;Node3 -->
<g id="edge2" class="edge">
<title>Node2&#45;&gt;Node3</title>
<path fill="none" stroke="midnightblue" d="M122.2,-307.01C106.42,-294.94 87.28,-280.3 75.37,-271.19"/>
<polygon fill="midnightblue" stroke="midnightblue" points="120.49,-310.1 130.56,-313.4 124.74,-304.54 120.49,-310.1"/>
</g>
<!-- Node4 -->
<g id="node4" class="node">
<title>Node4</title>
<g id="a_node4"><a xlink:href="visitor_8h.html" target="_top" xlink:title=" ">
<polygon fill="white" stroke="black" points="222.5,-62 222.5,-81 335.5,-81 335.5,-62 222.5,-62"/>
<text text-anchor="middle" x="279" y="-69" font-family="Helvetica,sans-Serif" font-size="10.00">include/cppgc/visitor.h</text>
</a>
</g>
</g>
<!-- Node2&#45;&gt;Node4 -->
<g id="edge3" class="edge">
<title>Node2&#45;&gt;Node4</title>
<path fill="none" stroke="midnightblue" d="M160.86,-304.24C188.58,-249.87 256.61,-116.41 274.59,-81.16"/>
<polygon fill="midnightblue" stroke="midnightblue" points="157.6,-302.93 156.17,-313.43 163.83,-306.11 157.6,-302.93"/>
</g>
<!-- Node5 -->
<g id="node5" class="node">
<title>Node5</title>
<g id="a_node5"><a xlink:href="persistent_8h.html" target="_top" xlink:title=" ">
<polygon fill="white" stroke="black" points="129,-0.5 129,-19.5 259,-19.5 259,-0.5 129,-0.5"/>
<text text-anchor="middle" x="194" y="-7.5" font-family="Helvetica,sans-Serif" font-size="10.00">include/cppgc/persistent.h</text>
</a>
</g>
</g>
<!-- Node4&#45;&gt;Node5 -->
<g id="edge4" class="edge">
<title>Node4&#45;&gt;Node5</title>
<path fill="none" stroke="midnightblue" d="M258.45,-56.11C242.1,-44.67 219.78,-29.05 206.16,-19.51"/>
<polygon fill="midnightblue" stroke="midnightblue" points="256.62,-59.11 266.82,-61.98 260.64,-53.37 256.62,-59.11"/>
</g>
<!-- Node6 -->
<g id="node6" class="node">
<title>Node6</title>
<g id="a_node6"><a xlink:href="v8-cppgc_8h.html" target="_top" xlink:title=" ">
<polygon fill="white" stroke="black" points="277,-0.5 277,-19.5 375,-19.5 375,-0.5 277,-0.5"/>
<text text-anchor="middle" x="326" y="-7.5" font-family="Helvetica,sans-Serif" font-size="10.00">include/v8&#45;cppgc.h</text>
</a>
</g>
</g>
<!-- Node4&#45;&gt;Node6 -->
<g id="edge5" class="edge">
<title>Node4&#45;&gt;Node6</title>
<path fill="none" stroke="midnightblue" d="M292.16,-53.84C300.98,-42.67 312.23,-28.43 319.28,-19.51"/>
<polygon fill="midnightblue" stroke="midnightblue" points="289.19,-51.96 285.73,-61.98 294.68,-56.3 289.19,-51.96"/>
</g>
<!-- Node9 -->
<g id="node9" class="node">
<title>Node9</title>
<g id="a_node9"><a xlink:href="pointer-policies_8h.html" target="_top" xlink:title=" ">
<polygon fill="white" stroke="black" points="223.5,-246.5 223.5,-276.5 334.5,-276.5 334.5,-246.5 223.5,-246.5"/>
<text text-anchor="start" x="231.5" y="-264.5" font-family="Helvetica,sans-Serif" font-size="10.00">include/cppgc/internal</text>
<text text-anchor="middle" x="279" y="-253.5" font-family="Helvetica,sans-Serif" font-size="10.00">/pointer&#45;policies.h</text>
</a>
</g>
</g>
<!-- Node8&#45;&gt;Node9 -->
<g id="edge9" class="edge">
<title>Node8&#45;&gt;Node9</title>
<path fill="none" stroke="midnightblue" d="M279.62,-303.11C279.49,-294.15 279.34,-284.32 279.22,-276.58"/>
<polygon fill="midnightblue" stroke="midnightblue" points="276.13,-303.45 279.78,-313.4 283.13,-303.34 276.13,-303.45"/>
</g>
<!-- Node9&#45;&gt;Node4 -->
<g id="edge18" class="edge">
<title>Node9&#45;&gt;Node4</title>
<path fill="none" stroke="midnightblue" d="M279,-236.12C279,-193.79 279,-108.61 279,-81.21"/>
<polygon fill="midnightblue" stroke="midnightblue" points="275.5,-236.37 279,-246.37 282.5,-236.37 275.5,-236.37"/>
</g>
<!-- Node9&#45;&gt;Node5 -->
<g id="edge17" class="edge">
<title>Node9&#45;&gt;Node5</title>
<path fill="none" stroke="midnightblue" d="M269.05,-237.03C255.27,-203.97 230.15,-141.61 213,-87 205.42,-62.86 198.83,-33.68 195.79,-19.53"/>
<polygon fill="midnightblue" stroke="midnightblue" points="265.85,-238.44 272.94,-246.31 272.3,-235.73 265.85,-238.44"/>
</g>
<!-- Node10 -->
<g id="node10" class="node">
<title>Node10</title>
<g id="a_node10"><a xlink:href="member_8h.html" target="_top" xlink:title=" ">
<polygon fill="white" stroke="black" points="307,-190.5 307,-209.5 429,-209.5 429,-190.5 307,-190.5"/>
<text text-anchor="middle" x="368" y="-197.5" font-family="Helvetica,sans-Serif" font-size="10.00">include/cppgc/member.h</text>
</a>
</g>
</g>
<!-- Node9&#45;&gt;Node10 -->
<g id="edge10" class="edge">
<title>Node9&#45;&gt;Node10</title>
<path fill="none" stroke="midnightblue" d="M308.5,-240.78C324.28,-230.23 342.9,-217.78 355.05,-209.66"/>
<polygon fill="midnightblue" stroke="midnightblue" points="306.46,-237.93 300.09,-246.4 310.35,-243.75 306.46,-237.93"/>
</g>
<!-- Node10&#45;&gt;Node4 -->
<g id="edge16" class="edge">
<title>Node10&#45;&gt;Node4</title>
<path fill="none" stroke="midnightblue" d="M356.12,-182.12C336.94,-154.86 299.81,-102.08 285.16,-81.26"/>
<polygon fill="midnightblue" stroke="midnightblue" points="353.27,-184.14 361.88,-190.31 358.99,-180.11 353.27,-184.14"/>
</g>
<!-- Node11 -->
<g id="node11" class="node">
<title>Node11</title>
<g id="a_node11"><a xlink:href="liveness-broker_8h.html" target="_top" xlink:title=" ">
<polygon fill="white" stroke="black" points="349,-123.5 349,-153.5 465,-153.5 465,-123.5 349,-123.5"/>
<text text-anchor="start" x="357" y="-141.5" font-family="Helvetica,sans-Serif" font-size="10.00">include/cppgc/liveness</text>
<text text-anchor="middle" x="407" y="-130.5" font-family="Helvetica,sans-Serif" font-size="10.00">&#45;broker.h</text>
</a>
</g>
</g>
<!-- Node10&#45;&gt;Node11 -->
<g id="edge11" class="edge">
<title>Node10&#45;&gt;Node11</title>
<path fill="none" stroke="midnightblue" d="M379.17,-181.96C385.07,-172.96 392.23,-162.03 397.81,-153.52"/>
<polygon fill="midnightblue" stroke="midnightblue" points="376.14,-180.19 373.59,-190.48 382,-184.03 376.14,-180.19"/>
</g>
<!-- Node11&#45;&gt;Node4 -->
<g id="edge14" class="edge">
<title>Node11&#45;&gt;Node4</title>
<path fill="none" stroke="midnightblue" d="M370.18,-118.8C345.64,-106.34 314.56,-90.56 295.75,-81.01"/>
<polygon fill="midnightblue" stroke="midnightblue" points="368.72,-121.99 379.23,-123.4 371.89,-115.75 368.72,-121.99"/>
</g>
<!-- Node12 -->
<g id="node12" class="node">
<title>Node12</title>
<g id="a_node12"><a xlink:href="prefinalizer-handler_8h.html" target="_top" xlink:title=" ">
<polygon fill="white" stroke="black" points="353.5,-56.5 353.5,-86.5 464.5,-86.5 464.5,-56.5 353.5,-56.5"/>
<text text-anchor="start" x="361.5" y="-74.5" font-family="Helvetica,sans-Serif" font-size="10.00">include/cppgc/internal</text>
<text text-anchor="middle" x="409" y="-63.5" font-family="Helvetica,sans-Serif" font-size="10.00">/prefinalizer&#45;handler.h</text>
</a>
</g>
</g>
<!-- Node11&#45;&gt;Node12 -->
<g id="edge12" class="edge">
<title>Node11&#45;&gt;Node12</title>
<path fill="none" stroke="midnightblue" d="M407.75,-113.11C408.03,-104.15 408.33,-94.32 408.57,-86.58"/>
<polygon fill="midnightblue" stroke="midnightblue" points="404.24,-113.29 407.43,-123.4 411.24,-113.51 404.24,-113.29"/>
</g>
<!-- Node13 -->
<g id="node13" class="node">
<title>Node13</title>
<g id="a_node13"><a xlink:href="prefinalizer_8h.html" target="_top" xlink:title=" ">
<polygon fill="white" stroke="black" points="409.5,-0.5 409.5,-19.5 542.5,-19.5 542.5,-0.5 409.5,-0.5"/>
<text text-anchor="middle" x="476" y="-7.5" font-family="Helvetica,sans-Serif" font-size="10.00">include/cppgc/prefinalizer.h</text>
</a>
</g>
</g>
<!-- Node11&#45;&gt;Node13 -->
<g id="edge15" class="edge">
<title>Node11&#45;&gt;Node13</title>
<path fill="none" stroke="midnightblue" d="M444.22,-117.69C455.47,-109.73 466.54,-99.45 473,-87 484.43,-64.96 480.69,-34.31 477.9,-19.57"/>
<polygon fill="midnightblue" stroke="midnightblue" points="442.09,-114.9 435.66,-123.32 445.93,-120.75 442.09,-114.9"/>
</g>
<!-- Node12&#45;&gt;Node13 -->
<g id="edge13" class="edge">
<title>Node12&#45;&gt;Node13</title>
<path fill="none" stroke="midnightblue" d="M432.54,-49.6C444.12,-39.32 457.44,-27.48 466.25,-19.66"/>
<polygon fill="midnightblue" stroke="midnightblue" points="430.03,-47.14 424.88,-56.4 434.68,-52.38 430.03,-47.14"/>
</g>
</g>
</svg>
