<?xml version="1.0" encoding="UTF-8" standalone="no"?>
<!DOCTYPE svg PUBLIC "-//W3C//DTD SVG 1.1//EN"
 "http://www.w3.org/Graphics/SVG/1.1/DTD/svg11.dtd">
<!-- Generated by graphviz version 2.44.0 ()
 -->
<!-- Title: v8::Local::IsEmpty Pages: 1 -->
<svg width="388pt" height="215pt"
 viewBox="0.00 0.00 388.00 214.50" xmlns="http://www.w3.org/2000/svg" xmlns:xlink="http://www.w3.org/1999/xlink">
<g id="graph0" class="graph" transform="scale(1 1) rotate(0) translate(4 210.5)">
<title>v8::Local::IsEmpty</title>
<polygon fill="white" stroke="transparent" points="-4,4 -4,-210.5 384,-210.5 384,4 -4,4"/>
<!-- Node1 -->
<g id="node1" class="node">
<title>Node1</title>
<g id="a_node1"><a xlink:title=" ">
<polygon fill="#bfbfbf" stroke="black" points="285,-88.5 285,-107.5 380,-107.5 380,-88.5 285,-88.5"/>
<text text-anchor="middle" x="332.5" y="-95.5" font-family="Helvetica,sans-Serif" font-size="10.00">v8::Local::IsEmpty</text>
</a>
</g>
</g>
<!-- Node2 -->
<g id="node2" class="node">
<title>Node2</title>
<g id="a_node2"><a xlink:href="classv8_1_1Local.html#a8e76791c0614ec0feed0e5a3a9d6e9f8" target="_top" xlink:title=" ">
<polygon fill="white" stroke="black" points="141,-176 141,-206 238,-206 238,-176 141,-176"/>
<text text-anchor="start" x="149" y="-194" font-family="Helvetica,sans-Serif" font-size="10.00">v8::Local&lt; Value &gt;</text>
<text text-anchor="middle" x="189.5" y="-183" font-family="Helvetica,sans-Serif" font-size="10.00">::Cast</text>
</a>
</g>
</g>
<!-- Node1&#45;&gt;Node2 -->
<g id="edge1" class="edge">
<title>Node1&#45;&gt;Node2</title>
<path fill="none" stroke="midnightblue" d="M314.67,-114.77C298.79,-129.91 273.78,-152.05 249,-167 243.64,-170.23 237.77,-173.22 231.88,-175.9"/>
<polygon fill="midnightblue" stroke="midnightblue" points="317.36,-117.04 322.1,-107.56 312.49,-112.02 317.36,-117.04"/>
</g>
<!-- Node3 -->
<g id="node3" class="node">
<title>Node3</title>
<g id="a_node3"><a xlink:href="classv8_1_1PersistentBase.html#ab4b4d3fba3498486f1f10dc7d5be90fc" target="_top" xlink:title=" ">
<polygon fill="white" stroke="black" points="140.5,-127 140.5,-157 238.5,-157 238.5,-127 140.5,-127"/>
<text text-anchor="start" x="148.5" y="-145" font-family="Helvetica,sans-Serif" font-size="10.00">v8::PersistentBase</text>
<text text-anchor="middle" x="189.5" y="-134" font-family="Helvetica,sans-Serif" font-size="10.00">::Reset</text>
</a>
</g>
</g>
<!-- Node1&#45;&gt;Node3 -->
<g id="edge2" class="edge">
<title>Node1&#45;&gt;Node3</title>
<path fill="none" stroke="midnightblue" d="M291.08,-110.61C274.68,-115.73 255.6,-121.68 238.5,-127.02"/>
<polygon fill="midnightblue" stroke="midnightblue" points="292.4,-113.87 300.91,-107.55 290.32,-107.19 292.4,-113.87"/>
</g>
<!-- Node4 -->
<g id="node4" class="node">
<title>Node4</title>
<g id="a_node4"><a xlink:href="classv8_1_1TracedGlobal.html#ae3abd549a4148dcad0c566feecc74b40" target="_top" xlink:title=" ">
<polygon fill="white" stroke="black" points="130,-88.5 130,-107.5 249,-107.5 249,-88.5 130,-88.5"/>
<text text-anchor="middle" x="189.5" y="-95.5" font-family="Helvetica,sans-Serif" font-size="10.00">v8::TracedGlobal::Reset</text>
</a>
</g>
</g>
<!-- Node1&#45;&gt;Node4 -->
<g id="edge3" class="edge">
<title>Node1&#45;&gt;Node4</title>
<path fill="none" stroke="midnightblue" d="M274.79,-98C266.32,-98 257.58,-98 249.08,-98"/>
<polygon fill="midnightblue" stroke="midnightblue" points="274.94,-101.5 284.94,-98 274.94,-94.5 274.94,-101.5"/>
</g>
<!-- Node6 -->
<g id="node6" class="node">
<title>Node6</title>
<g id="a_node6"><a xlink:href="classv8_1_1TracedReference.html#a5ff68298bf042019350081c107edf3da" target="_top" xlink:title=" ">
<polygon fill="white" stroke="black" points="136.5,-39 136.5,-69 242.5,-69 242.5,-39 136.5,-39"/>
<text text-anchor="start" x="144.5" y="-57" font-family="Helvetica,sans-Serif" font-size="10.00">v8::TracedReference</text>
<text text-anchor="middle" x="189.5" y="-46" font-family="Helvetica,sans-Serif" font-size="10.00">::Reset</text>
</a>
</g>
</g>
<!-- Node1&#45;&gt;Node6 -->
<g id="edge5" class="edge">
<title>Node1&#45;&gt;Node6</title>
<path fill="none" stroke="midnightblue" d="M291.13,-85.4C274.8,-80.31 255.82,-74.38 238.78,-69.07"/>
<polygon fill="midnightblue" stroke="midnightblue" points="290.32,-88.81 300.91,-88.45 292.4,-82.13 290.32,-88.81"/>
</g>
<!-- Node7 -->
<g id="node7" class="node">
<title>Node7</title>
<g id="a_node7"><a xlink:href="classv8_1_1ReturnValue.html#a69d99ab0e0c12d68291d425287532799" target="_top" xlink:title=" ">
<polygon fill="white" stroke="black" points="137.5,-0.5 137.5,-19.5 241.5,-19.5 241.5,-0.5 137.5,-0.5"/>
<text text-anchor="middle" x="189.5" y="-7.5" font-family="Helvetica,sans-Serif" font-size="10.00">v8::ReturnValue::Set</text>
</a>
</g>
</g>
<!-- Node1&#45;&gt;Node7 -->
<g id="edge6" class="edge">
<title>Node1&#45;&gt;Node7</title>
<path fill="none" stroke="midnightblue" d="M314.83,-81.14C299.06,-65.99 274.11,-44.03 249,-30 241.6,-25.87 233.19,-22.38 225.11,-19.53"/>
<polygon fill="midnightblue" stroke="midnightblue" points="312.61,-83.87 322.2,-88.37 317.51,-78.87 312.61,-83.87"/>
</g>
<!-- Node5 -->
<g id="node5" class="node">
<title>Node5</title>
<g id="a_node5"><a xlink:href="classv8_1_1TracedGlobal.html#a795b005ed86dafffa437ec30edca0b53" target="_top" xlink:title=" ">
<polygon fill="white" stroke="black" points="0,-83 0,-113 94,-113 94,-83 0,-83"/>
<text text-anchor="start" x="8" y="-101" font-family="Helvetica,sans-Serif" font-size="10.00">v8::TracedGlobal::</text>
<text text-anchor="middle" x="47" y="-90" font-family="Helvetica,sans-Serif" font-size="10.00">~TracedGlobal</text>
</a>
</g>
</g>
<!-- Node4&#45;&gt;Node5 -->
<g id="edge4" class="edge">
<title>Node4&#45;&gt;Node5</title>
<path fill="none" stroke="midnightblue" d="M119.63,-98C110.99,-98 102.32,-98 94.14,-98"/>
<polygon fill="midnightblue" stroke="midnightblue" points="119.73,-101.5 129.73,-98 119.73,-94.5 119.73,-101.5"/>
</g>
</g>
</svg>
