<?xml version="1.0" encoding="UTF-8" standalone="no"?>
<!DOCTYPE svg PUBLIC "-//W3C//DTD SVG 1.1//EN"
 "http://www.w3.org/Graphics/SVG/1.1/DTD/svg11.dtd">
<!-- Generated by graphviz version 2.44.0 ()
 -->
<!-- Title: cppgc::internal::PersistentNode::IsUsed Pages: 1 -->
<svg width="638pt" height="179pt"
 viewBox="0.00 0.00 638.00 179.00" xmlns="http://www.w3.org/2000/svg" xmlns:xlink="http://www.w3.org/1999/xlink">
<g id="graph0" class="graph" transform="scale(1 1) rotate(0) translate(4 175)">
<title>cppgc::internal::PersistentNode::IsUsed</title>
<polygon fill="white" stroke="transparent" points="-4,4 -4,-175 634,-175 634,4 -4,4"/>
<!-- Node1 -->
<g id="node1" class="node">
<title>Node1</title>
<g id="a_node1"><a xlink:title=" ">
<polygon fill="#bfbfbf" stroke="black" points="502,-66.5 502,-96.5 630,-96.5 630,-66.5 502,-66.5"/>
<text text-anchor="start" x="510" y="-84.5" font-family="Helvetica,sans-Serif" font-size="10.00">cppgc::internal::Persistent</text>
<text text-anchor="middle" x="566" y="-73.5" font-family="Helvetica,sans-Serif" font-size="10.00">Node::IsUsed</text>
</a>
</g>
</g>
<!-- Node2 -->
<g id="node2" class="node">
<title>Node2</title>
<g id="a_node2"><a xlink:href="classcppgc_1_1internal_1_1PersistentNode.html#aa3d1960fd3dc51e1a6bf03bd316569ef" target="_top" xlink:title=" ">
<polygon fill="white" stroke="black" points="169,-140.5 169,-170.5 297,-170.5 297,-140.5 169,-140.5"/>
<text text-anchor="start" x="177" y="-158.5" font-family="Helvetica,sans-Serif" font-size="10.00">cppgc::internal::Persistent</text>
<text text-anchor="middle" x="233" y="-147.5" font-family="Helvetica,sans-Serif" font-size="10.00">Node::FreeListNext</text>
</a>
</g>
</g>
<!-- Node1&#45;&gt;Node2 -->
<g id="edge1" class="edge">
<title>Node1&#45;&gt;Node2</title>
<path fill="none" stroke="midnightblue" d="M530.12,-101.51C511.64,-111.21 488.21,-122.12 466,-128.5 410.27,-144.5 344.41,-151.05 297.12,-153.71"/>
<polygon fill="midnightblue" stroke="midnightblue" points="531.88,-104.54 539.04,-96.73 528.57,-98.37 531.88,-104.54"/>
</g>
<!-- Node4 -->
<g id="node4" class="node">
<title>Node4</title>
<g id="a_node4"><a xlink:href="classcppgc_1_1internal_1_1PersistentNode.html#afb99622120d5c6d6eb763d26b244bc5f" target="_top" xlink:title=" ">
<polygon fill="white" stroke="black" points="338,-88.5 338,-118.5 466,-118.5 466,-88.5 338,-88.5"/>
<text text-anchor="start" x="346" y="-106.5" font-family="Helvetica,sans-Serif" font-size="10.00">cppgc::internal::Persistent</text>
<text text-anchor="middle" x="402" y="-95.5" font-family="Helvetica,sans-Serif" font-size="10.00">Node::owner</text>
</a>
</g>
</g>
<!-- Node1&#45;&gt;Node4 -->
<g id="edge3" class="edge">
<title>Node1&#45;&gt;Node4</title>
<path fill="none" stroke="midnightblue" d="M491.91,-91.43C483.32,-92.59 474.62,-93.77 466.19,-94.92"/>
<polygon fill="midnightblue" stroke="midnightblue" points="492.46,-94.88 501.9,-90.07 491.52,-87.95 492.46,-94.88"/>
</g>
<!-- Node6 -->
<g id="node6" class="node">
<title>Node6</title>
<g id="a_node6"><a xlink:href="classcppgc_1_1internal_1_1PersistentNode.html#a1ca2104547bd2139cb56233c575a38f9" target="_top" xlink:title=" ">
<polygon fill="white" stroke="black" points="169,-42.5 169,-72.5 297,-72.5 297,-42.5 169,-42.5"/>
<text text-anchor="start" x="177" y="-60.5" font-family="Helvetica,sans-Serif" font-size="10.00">cppgc::internal::Persistent</text>
<text text-anchor="middle" x="233" y="-49.5" font-family="Helvetica,sans-Serif" font-size="10.00">Node::UpdateOwner</text>
</a>
</g>
</g>
<!-- Node1&#45;&gt;Node6 -->
<g id="edge8" class="edge">
<title>Node1&#45;&gt;Node6</title>
<path fill="none" stroke="midnightblue" d="M491.71,-76.19C433.37,-71.96 352.57,-66.1 297.08,-62.07"/>
<polygon fill="midnightblue" stroke="midnightblue" points="491.74,-79.7 501.96,-76.93 492.24,-72.72 491.74,-79.7"/>
</g>
<!-- Node7 -->
<g id="node7" class="node">
<title>Node7</title>
<g id="a_node7"><a xlink:href="classcppgc_1_1internal_1_1PersistentNode.html#abad2492c5f2fd83b81597b0cb321a770" target="_top" xlink:title=" ">
<polygon fill="white" stroke="black" points="338,-0.5 338,-30.5 466,-30.5 466,-0.5 338,-0.5"/>
<text text-anchor="start" x="346" y="-18.5" font-family="Helvetica,sans-Serif" font-size="10.00">cppgc::internal::Persistent</text>
<text text-anchor="middle" x="402" y="-7.5" font-family="Helvetica,sans-Serif" font-size="10.00">Node::Trace</text>
</a>
</g>
</g>
<!-- Node1&#45;&gt;Node7 -->
<g id="edge7" class="edge">
<title>Node1&#45;&gt;Node7</title>
<path fill="none" stroke="midnightblue" d="M518.57,-62.58C493.63,-52.42 463.32,-40.07 439.99,-30.57"/>
<polygon fill="midnightblue" stroke="midnightblue" points="517.25,-65.83 527.83,-66.36 519.89,-59.34 517.25,-65.83"/>
</g>
<!-- Node3 -->
<g id="node3" class="node">
<title>Node3</title>
<g id="a_node3"><a xlink:href="classcppgc_1_1internal_1_1PersistentRegion.html#a25973373213a5e0257ce287132ca8f1c" target="_top" xlink:title=" ">
<polygon fill="white" stroke="black" points="0,-115.5 0,-145.5 128,-145.5 128,-115.5 0,-115.5"/>
<text text-anchor="start" x="8" y="-133.5" font-family="Helvetica,sans-Serif" font-size="10.00">cppgc::internal::Persistent</text>
<text text-anchor="middle" x="64" y="-122.5" font-family="Helvetica,sans-Serif" font-size="10.00">Region::AllocateNode</text>
</a>
</g>
</g>
<!-- Node2&#45;&gt;Node3 -->
<g id="edge2" class="edge">
<title>Node2&#45;&gt;Node3</title>
<path fill="none" stroke="midnightblue" d="M158.77,-144.54C148.59,-143.01 138.2,-141.46 128.22,-139.96"/>
<polygon fill="midnightblue" stroke="midnightblue" points="158.46,-148.03 168.86,-146.05 159.49,-141.11 158.46,-148.03"/>
</g>
<!-- Node5 -->
<g id="node5" class="node">
<title>Node5</title>
<g id="a_node5"><a xlink:href="classcppgc_1_1internal_1_1PersistentNode.html#a18c4a9bce10409fd47e53cc0cdf8acab" target="_top" xlink:title=" ">
<polygon fill="white" stroke="black" points="164,-91.5 164,-121.5 302,-121.5 302,-91.5 164,-91.5"/>
<text text-anchor="start" x="172" y="-109.5" font-family="Helvetica,sans-Serif" font-size="10.00">cppgc::internal::Persistent</text>
<text text-anchor="middle" x="233" y="-98.5" font-family="Helvetica,sans-Serif" font-size="10.00">Node::InitializeAsUsedNode</text>
</a>
</g>
</g>
<!-- Node4&#45;&gt;Node5 -->
<g id="edge4" class="edge">
<title>Node4&#45;&gt;Node5</title>
<path fill="none" stroke="midnightblue" d="M327.65,-104.82C319.21,-104.97 310.62,-105.12 302.25,-105.27"/>
<polygon fill="midnightblue" stroke="midnightblue" points="327.93,-108.31 337.86,-104.63 327.8,-101.31 327.93,-108.31"/>
</g>
<!-- Node4&#45;&gt;Node6 -->
<g id="edge6" class="edge">
<title>Node4&#45;&gt;Node6</title>
<path fill="none" stroke="midnightblue" d="M336.58,-85.76C320.71,-81.39 303.87,-76.75 288.52,-72.52"/>
<polygon fill="midnightblue" stroke="midnightblue" points="335.75,-89.16 346.32,-88.44 337.61,-82.41 335.75,-89.16"/>
</g>
<!-- Node5&#45;&gt;Node3 -->
<g id="edge5" class="edge">
<title>Node5&#45;&gt;Node3</title>
<path fill="none" stroke="midnightblue" d="M153.64,-117.76C145.11,-118.99 136.51,-120.22 128.2,-121.42"/>
<polygon fill="midnightblue" stroke="midnightblue" points="154.19,-121.22 163.59,-116.33 153.2,-114.29 154.19,-121.22"/>
</g>
</g>
</svg>
