<?xml version="1.0" encoding="UTF-8" standalone="no"?>
<!DOCTYPE svg PUBLIC "-//W3C//DTD SVG 1.1//EN"
 "http://www.w3.org/Graphics/SVG/1.1/DTD/svg11.dtd">
<!-- Generated by graphviz version 2.44.0 ()
 -->
<!-- Title: include/cppgc/common.h Pages: 1 -->
<svg width="825pt" height="274pt"
 viewBox="0.00 0.00 824.50 274.00" xmlns="http://www.w3.org/2000/svg" xmlns:xlink="http://www.w3.org/1999/xlink">
<g id="graph0" class="graph" transform="scale(1 1) rotate(0) translate(4 270)">
<title>include/cppgc/common.h</title>
<polygon fill="white" stroke="transparent" points="-4,4 -4,-270 820.5,-270 820.5,4 -4,4"/>
<!-- Node1 -->
<g id="node1" class="node">
<title>Node1</title>
<g id="a_node1"><a xlink:title=" ">
<polygon fill="#bfbfbf" stroke="black" points="216,-246.5 216,-265.5 341,-265.5 341,-246.5 216,-246.5"/>
<text text-anchor="middle" x="278.5" y="-253.5" font-family="Helvetica,sans-Serif" font-size="10.00">include/cppgc/common.h</text>
</a>
</g>
</g>
<!-- Node2 -->
<g id="node2" class="node">
<title>Node2</title>
<g id="a_node2"><a xlink:href="heap_8h.html" target="_top" xlink:title=" ">
<polygon fill="white" stroke="black" points="98.5,-190.5 98.5,-209.5 206.5,-209.5 206.5,-190.5 98.5,-190.5"/>
<text text-anchor="middle" x="152.5" y="-197.5" font-family="Helvetica,sans-Serif" font-size="10.00">include/cppgc/heap.h</text>
</a>
</g>
</g>
<!-- Node1&#45;&gt;Node2 -->
<g id="edge1" class="edge">
<title>Node1&#45;&gt;Node2</title>
<path fill="none" stroke="midnightblue" d="M249.34,-242.5C225.72,-232.38 193.07,-218.39 172.37,-209.52"/>
<polygon fill="midnightblue" stroke="midnightblue" points="247.96,-245.72 258.53,-246.44 250.72,-239.29 247.96,-245.72"/>
</g>
<!-- Node9 -->
<g id="node9" class="node">
<title>Node9</title>
<g id="a_node9"><a xlink:href="v8_8h.html" target="_top" xlink:title=" ">
<polygon fill="white" stroke="black" points="447.5,-190.5 447.5,-209.5 515.5,-209.5 515.5,-190.5 447.5,-190.5"/>
<text text-anchor="middle" x="481.5" y="-197.5" font-family="Helvetica,sans-Serif" font-size="10.00">include/v8.h</text>
</a>
</g>
</g>
<!-- Node1&#45;&gt;Node9 -->
<g id="edge10" class="edge">
<title>Node1&#45;&gt;Node9</title>
<path fill="none" stroke="midnightblue" d="M320.49,-243.83C358.82,-233.63 414.65,-218.78 449.48,-209.52"/>
<polygon fill="midnightblue" stroke="midnightblue" points="319.43,-240.49 310.67,-246.44 321.23,-247.26 319.43,-240.49"/>
</g>
<!-- Node3 -->
<g id="node3" class="node">
<title>Node3</title>
<g id="a_node3"><a xlink:href="prefinalizer-handler_8h.html" target="_top" xlink:title=" ">
<polygon fill="white" stroke="black" points="11,-56.5 11,-86.5 122,-86.5 122,-56.5 11,-56.5"/>
<text text-anchor="start" x="19" y="-74.5" font-family="Helvetica,sans-Serif" font-size="10.00">include/cppgc/internal</text>
<text text-anchor="middle" x="66.5" y="-63.5" font-family="Helvetica,sans-Serif" font-size="10.00">/prefinalizer&#45;handler.h</text>
</a>
</g>
</g>
<!-- Node2&#45;&gt;Node3 -->
<g id="edge2" class="edge">
<title>Node2&#45;&gt;Node3</title>
<path fill="none" stroke="midnightblue" d="M123.21,-185.69C109.81,-178.2 94.88,-167.59 85.5,-154 71.39,-133.55 67.65,-104.06 66.72,-86.73"/>
<polygon fill="midnightblue" stroke="midnightblue" points="121.66,-188.84 132.14,-190.39 124.92,-182.64 121.66,-188.84"/>
</g>
<!-- Node5 -->
<g id="node5" class="node">
<title>Node5</title>
<g id="a_node5"><a xlink:href="liveness-broker_8h.html" target="_top" xlink:title=" ">
<polygon fill="white" stroke="black" points="94.5,-123.5 94.5,-153.5 210.5,-153.5 210.5,-123.5 94.5,-123.5"/>
<text text-anchor="start" x="102.5" y="-141.5" font-family="Helvetica,sans-Serif" font-size="10.00">include/cppgc/liveness</text>
<text text-anchor="middle" x="152.5" y="-130.5" font-family="Helvetica,sans-Serif" font-size="10.00">&#45;broker.h</text>
</a>
</g>
</g>
<!-- Node2&#45;&gt;Node5 -->
<g id="edge4" class="edge">
<title>Node2&#45;&gt;Node5</title>
<path fill="none" stroke="midnightblue" d="M152.5,-180.23C152.5,-171.59 152.5,-161.5 152.5,-153.52"/>
<polygon fill="midnightblue" stroke="midnightblue" points="149,-180.48 152.5,-190.48 156,-180.48 149,-180.48"/>
</g>
<!-- Node4 -->
<g id="node4" class="node">
<title>Node4</title>
<g id="a_node4"><a xlink:href="prefinalizer_8h.html" target="_top" xlink:title=" ">
<polygon fill="white" stroke="black" points="0,-0.5 0,-19.5 133,-19.5 133,-0.5 0,-0.5"/>
<text text-anchor="middle" x="66.5" y="-7.5" font-family="Helvetica,sans-Serif" font-size="10.00">include/cppgc/prefinalizer.h</text>
</a>
</g>
</g>
<!-- Node3&#45;&gt;Node4 -->
<g id="edge3" class="edge">
<title>Node3&#45;&gt;Node4</title>
<path fill="none" stroke="midnightblue" d="M66.5,-46.29C66.5,-36.86 66.5,-26.65 66.5,-19.66"/>
<polygon fill="midnightblue" stroke="midnightblue" points="63,-46.4 66.5,-56.4 70,-46.4 63,-46.4"/>
</g>
<!-- Node5&#45;&gt;Node3 -->
<g id="edge5" class="edge">
<title>Node5&#45;&gt;Node3</title>
<path fill="none" stroke="midnightblue" d="M125.6,-117.17C112.45,-107.23 96.95,-95.51 85.12,-86.58"/>
<polygon fill="midnightblue" stroke="midnightblue" points="123.75,-120.16 133.84,-123.4 127.97,-114.57 123.75,-120.16"/>
</g>
<!-- Node5&#45;&gt;Node4 -->
<g id="edge9" class="edge">
<title>Node5&#45;&gt;Node4</title>
<path fill="none" stroke="midnightblue" d="M150.31,-112.92C147.77,-95.7 142.29,-72.84 130.5,-56 119.05,-39.64 99.65,-27.23 85.2,-19.63"/>
<polygon fill="midnightblue" stroke="midnightblue" points="146.89,-113.81 151.59,-123.3 153.84,-112.95 146.89,-113.81"/>
</g>
<!-- Node6 -->
<g id="node6" class="node">
<title>Node6</title>
<g id="a_node6"><a xlink:href="visitor_8h.html" target="_top" xlink:title=" ">
<polygon fill="white" stroke="black" points="179,-62 179,-81 292,-81 292,-62 179,-62"/>
<text text-anchor="middle" x="235.5" y="-69" font-family="Helvetica,sans-Serif" font-size="10.00">include/cppgc/visitor.h</text>
</a>
</g>
</g>
<!-- Node5&#45;&gt;Node6 -->
<g id="edge6" class="edge">
<title>Node5&#45;&gt;Node6</title>
<path fill="none" stroke="midnightblue" d="M178.67,-117.01C194.08,-104.94 212.76,-90.3 224.4,-81.19"/>
<polygon fill="midnightblue" stroke="midnightblue" points="176.22,-114.47 170.51,-123.4 180.54,-119.99 176.22,-114.47"/>
</g>
<!-- Node7 -->
<g id="node7" class="node">
<title>Node7</title>
<g id="a_node7"><a xlink:href="persistent_8h.html" target="_top" xlink:title=" ">
<polygon fill="white" stroke="black" points="151.5,-0.5 151.5,-19.5 281.5,-19.5 281.5,-0.5 151.5,-0.5"/>
<text text-anchor="middle" x="216.5" y="-7.5" font-family="Helvetica,sans-Serif" font-size="10.00">include/cppgc/persistent.h</text>
</a>
</g>
</g>
<!-- Node6&#45;&gt;Node7 -->
<g id="edge7" class="edge">
<title>Node6&#45;&gt;Node7</title>
<path fill="none" stroke="midnightblue" d="M229.64,-52.16C226.17,-41.27 221.92,-27.99 219.22,-19.51"/>
<polygon fill="midnightblue" stroke="midnightblue" points="226.4,-53.51 232.78,-61.98 233.07,-51.38 226.4,-53.51"/>
</g>
<!-- Node8 -->
<g id="node8" class="node">
<title>Node8</title>
<g id="a_node8"><a xlink:href="v8-cppgc_8h.html" target="_top" xlink:title=" ">
<polygon fill="white" stroke="black" points="299.5,-0.5 299.5,-19.5 397.5,-19.5 397.5,-0.5 299.5,-0.5"/>
<text text-anchor="middle" x="348.5" y="-7.5" font-family="Helvetica,sans-Serif" font-size="10.00">include/v8&#45;cppgc.h</text>
</a>
</g>
</g>
<!-- Node6&#45;&gt;Node8 -->
<g id="edge8" class="edge">
<title>Node6&#45;&gt;Node8</title>
<path fill="none" stroke="midnightblue" d="M260.74,-57.21C282.62,-45.69 313.64,-29.36 332.34,-19.51"/>
<polygon fill="midnightblue" stroke="midnightblue" points="258.91,-54.22 251.69,-61.98 262.17,-60.41 258.91,-54.22"/>
</g>
<!-- Node9&#45;&gt;Node8 -->
<g id="edge11" class="edge">
<title>Node9&#45;&gt;Node8</title>
<path fill="none" stroke="midnightblue" d="M437.12,-195.6C408.65,-190.88 373.56,-179.81 354.5,-154 323.8,-112.42 339.03,-44.01 345.82,-19.81"/>
<polygon fill="midnightblue" stroke="midnightblue" points="436.88,-199.1 447.27,-197.06 437.88,-192.17 436.88,-199.1"/>
</g>
<!-- Node10 -->
<g id="node10" class="node">
<title>Node10</title>
<g id="a_node10"><a xlink:href="v8-inspector_8h.html" target="_top" xlink:title=" ">
<polygon fill="white" stroke="black" points="363,-129 363,-148 474,-148 474,-129 363,-129"/>
<text text-anchor="middle" x="418.5" y="-136" font-family="Helvetica,sans-Serif" font-size="10.00">include/v8&#45;inspector.h</text>
</a>
</g>
</g>
<!-- Node9&#45;&gt;Node10 -->
<g id="edge12" class="edge">
<title>Node9&#45;&gt;Node10</title>
<path fill="none" stroke="midnightblue" d="M464.9,-183.32C452.93,-172.02 437.23,-157.19 427.51,-148.01"/>
<polygon fill="midnightblue" stroke="midnightblue" points="462.8,-186.15 472.47,-190.48 467.61,-181.06 462.8,-186.15"/>
</g>
<!-- Node12 -->
<g id="node12" class="node">
<title>Node12</title>
<g id="a_node12"><a xlink:href="v8-metrics_8h.html" target="_top" xlink:title=" ">
<polygon fill="white" stroke="black" points="492.5,-129 492.5,-148 596.5,-148 596.5,-129 492.5,-129"/>
<text text-anchor="middle" x="544.5" y="-136" font-family="Helvetica,sans-Serif" font-size="10.00">include/v8&#45;metrics.h</text>
</a>
</g>
</g>
<!-- Node9&#45;&gt;Node12 -->
<g id="edge14" class="edge">
<title>Node9&#45;&gt;Node12</title>
<path fill="none" stroke="midnightblue" d="M498.1,-183.32C510.07,-172.02 525.77,-157.19 535.49,-148.01"/>
<polygon fill="midnightblue" stroke="midnightblue" points="495.39,-181.06 490.53,-190.48 500.2,-186.15 495.39,-181.06"/>
</g>
<!-- Node13 -->
<g id="node13" class="node">
<title>Node13</title>
<g id="a_node13"><a xlink:href="v8-profiler_8h.html" target="_top" xlink:title=" ">
<polygon fill="white" stroke="black" points="614.5,-129 614.5,-148 714.5,-148 714.5,-129 614.5,-129"/>
<text text-anchor="middle" x="664.5" y="-136" font-family="Helvetica,sans-Serif" font-size="10.00">include/v8&#45;profiler.h</text>
</a>
</g>
</g>
<!-- Node9&#45;&gt;Node13 -->
<g id="edge15" class="edge">
<title>Node9&#45;&gt;Node13</title>
<path fill="none" stroke="midnightblue" d="M517.24,-187.38C552.81,-175.82 606.55,-158.34 638.33,-148.01"/>
<polygon fill="midnightblue" stroke="midnightblue" points="516.15,-184.05 507.72,-190.48 518.31,-190.71 516.15,-184.05"/>
</g>
<!-- Node14 -->
<g id="node14" class="node">
<title>Node14</title>
<g id="a_node14"><a xlink:href="v8-util_8h.html" target="_top" xlink:title=" ">
<polygon fill="white" stroke="black" points="732.5,-129 732.5,-148 816.5,-148 816.5,-129 732.5,-129"/>
<text text-anchor="middle" x="774.5" y="-136" font-family="Helvetica,sans-Serif" font-size="10.00">include/v8&#45;util.h</text>
</a>
</g>
</g>
<!-- Node9&#45;&gt;Node14 -->
<g id="edge16" class="edge">
<title>Node9&#45;&gt;Node14</title>
<path fill="none" stroke="midnightblue" d="M525.67,-192.06C574.38,-184.11 654.94,-170.08 723.5,-154 730.94,-152.26 738.91,-150.12 746.3,-148.03"/>
<polygon fill="midnightblue" stroke="midnightblue" points="525.09,-188.61 515.77,-193.66 526.21,-195.52 525.09,-188.61"/>
</g>
<!-- Node11 -->
<g id="node11" class="node">
<title>Node11</title>
<g id="a_node11"><a xlink:href="v8-inspector-protocol_8h.html" target="_top" xlink:title=" ">
<polygon fill="white" stroke="black" points="366.5,-56.5 366.5,-86.5 470.5,-86.5 470.5,-56.5 366.5,-56.5"/>
<text text-anchor="start" x="374.5" y="-74.5" font-family="Helvetica,sans-Serif" font-size="10.00">include/v8&#45;inspector</text>
<text text-anchor="middle" x="418.5" y="-63.5" font-family="Helvetica,sans-Serif" font-size="10.00">&#45;protocol.h</text>
</a>
</g>
</g>
<!-- Node10&#45;&gt;Node11 -->
<g id="edge13" class="edge">
<title>Node10&#45;&gt;Node11</title>
<path fill="none" stroke="midnightblue" d="M418.5,-118.41C418.5,-108.22 418.5,-95.9 418.5,-86.59"/>
<polygon fill="midnightblue" stroke="midnightblue" points="415,-118.73 418.5,-128.73 422,-118.73 415,-118.73"/>
</g>
</g>
</svg>
