<?xml version="1.0" encoding="UTF-8" standalone="no"?>
<!DOCTYPE svg PUBLIC "-//W3C//DTD SVG 1.1//EN"
 "http://www.w3.org/Graphics/SVG/1.1/DTD/svg11.dtd">
<!-- Generated by graphviz version 2.44.0 ()
 -->
<!-- Title: include/cppgc/default&#45;platform.h Pages: 1 -->
<svg width="398pt" height="207pt"
 viewBox="0.00 0.00 397.50 207.00" xmlns="http://www.w3.org/2000/svg" xmlns:xlink="http://www.w3.org/1999/xlink">
<g id="graph0" class="graph" transform="scale(1 1) rotate(0) translate(4 203)">
<title>include/cppgc/default&#45;platform.h</title>
<polygon fill="white" stroke="transparent" points="-4,4 -4,-203 393.5,-203 393.5,4 -4,4"/>
<!-- Node1 -->
<g id="node1" class="node">
<title>Node1</title>
<g id="a_node1"><a xlink:title=" ">
<polygon fill="#bfbfbf" stroke="black" points="168,-168.5 168,-198.5 277,-198.5 277,-168.5 168,-168.5"/>
<text text-anchor="start" x="176" y="-186.5" font-family="Helvetica,sans-Serif" font-size="10.00">include/cppgc/default</text>
<text text-anchor="middle" x="222.5" y="-175.5" font-family="Helvetica,sans-Serif" font-size="10.00">&#45;platform.h</text>
</a>
</g>
</g>
<!-- Node2 -->
<g id="node2" class="node">
<title>Node2</title>
<g id="a_node2"><a xlink:title=" ">
<polygon fill="white" stroke="#bfbfbf" points="0,-0.5 0,-19.5 51,-19.5 51,-0.5 0,-0.5"/>
<text text-anchor="middle" x="25.5" y="-7.5" font-family="Helvetica,sans-Serif" font-size="10.00">memory</text>
</a>
</g>
</g>
<!-- Node1&#45;&gt;Node2 -->
<g id="edge1" class="edge">
<title>Node1&#45;&gt;Node2</title>
<path fill="none" stroke="midnightblue" d="M200.08,-168.4C185.27,-158.75 165.68,-145.33 149.5,-132 107.55,-97.44 63.04,-51.38 40.49,-27.28"/>
<polygon fill="midnightblue" stroke="midnightblue" points="42.84,-24.66 33.46,-19.72 37.71,-29.43 42.84,-24.66"/>
</g>
<!-- Node3 -->
<g id="node3" class="node">
<title>Node3</title>
<g id="a_node3"><a xlink:title=" ">
<polygon fill="white" stroke="#bfbfbf" points="158.5,-112.5 158.5,-131.5 202.5,-131.5 202.5,-112.5 158.5,-112.5"/>
<text text-anchor="middle" x="180.5" y="-119.5" font-family="Helvetica,sans-Serif" font-size="10.00">vector</text>
</a>
</g>
</g>
<!-- Node1&#45;&gt;Node3 -->
<g id="edge2" class="edge">
<title>Node1&#45;&gt;Node3</title>
<path fill="none" stroke="midnightblue" d="M212.55,-168.4C206.51,-159.84 198.76,-148.87 192.4,-139.86"/>
<polygon fill="midnightblue" stroke="midnightblue" points="195.24,-137.81 186.61,-131.66 189.52,-141.85 195.24,-137.81"/>
</g>
<!-- Node4 -->
<g id="node4" class="node">
<title>Node4</title>
<g id="a_node4"><a xlink:href="platform_8h.html" target="_top" xlink:title=" ">
<polygon fill="white" stroke="black" points="220,-112.5 220,-131.5 309,-131.5 309,-112.5 220,-112.5"/>
<text text-anchor="middle" x="264.5" y="-119.5" font-family="Helvetica,sans-Serif" font-size="10.00">cppgc/platform.h</text>
</a>
</g>
</g>
<!-- Node1&#45;&gt;Node4 -->
<g id="edge3" class="edge">
<title>Node1&#45;&gt;Node4</title>
<path fill="none" stroke="midnightblue" d="M232.45,-168.4C238.49,-159.84 246.24,-148.87 252.6,-139.86"/>
<polygon fill="midnightblue" stroke="midnightblue" points="255.48,-141.85 258.39,-131.66 249.76,-137.81 255.48,-141.85"/>
</g>
<!-- Node10 -->
<g id="node10" class="node">
<title>Node10</title>
<g id="a_node10"><a xlink:href="v8config_8h.html" target="_top" xlink:title=" ">
<polygon fill="white" stroke="black" points="329.5,-0.5 329.5,-19.5 389.5,-19.5 389.5,-0.5 329.5,-0.5"/>
<text text-anchor="middle" x="359.5" y="-7.5" font-family="Helvetica,sans-Serif" font-size="10.00">v8config.h</text>
</a>
</g>
</g>
<!-- Node1&#45;&gt;Node10 -->
<g id="edge12" class="edge">
<title>Node1&#45;&gt;Node10</title>
<path fill="none" stroke="midnightblue" d="M264.99,-168.41C283.64,-160.34 304.44,-148.47 318.5,-132 344.09,-102.02 353.91,-55.36 357.52,-29.62"/>
<polygon fill="midnightblue" stroke="midnightblue" points="361,-30.04 358.75,-19.69 354.05,-29.18 361,-30.04"/>
</g>
<!-- Node5 -->
<g id="node5" class="node">
<title>Node5</title>
<g id="a_node5"><a xlink:href="v8-platform_8h.html" target="_top" xlink:title=" ">
<polygon fill="white" stroke="black" points="192,-56.5 192,-75.5 265,-75.5 265,-56.5 192,-56.5"/>
<text text-anchor="middle" x="228.5" y="-63.5" font-family="Helvetica,sans-Serif" font-size="10.00">v8&#45;platform.h</text>
</a>
</g>
</g>
<!-- Node4&#45;&gt;Node5 -->
<g id="edge4" class="edge">
<title>Node4&#45;&gt;Node5</title>
<path fill="none" stroke="midnightblue" d="M258.56,-112.08C253.52,-104.53 246.16,-93.49 239.99,-84.23"/>
<polygon fill="midnightblue" stroke="midnightblue" points="242.79,-82.13 234.33,-75.75 236.97,-86.01 242.79,-82.13"/>
</g>
<!-- Node4&#45;&gt;Node10 -->
<g id="edge11" class="edge">
<title>Node4&#45;&gt;Node10</title>
<path fill="none" stroke="midnightblue" d="M271.95,-112.37C287.77,-94.05 324.91,-51.05 345.37,-27.36"/>
<polygon fill="midnightblue" stroke="midnightblue" points="348.19,-29.45 352.08,-19.59 342.9,-24.87 348.19,-29.45"/>
</g>
<!-- Node5&#45;&gt;Node2 -->
<g id="edge8" class="edge">
<title>Node5&#45;&gt;Node2</title>
<path fill="none" stroke="midnightblue" d="M196.33,-56.44C159.39,-46.62 98.97,-30.54 60.76,-20.38"/>
<polygon fill="midnightblue" stroke="midnightblue" points="61.65,-17 51.09,-17.81 59.85,-23.76 61.65,-17"/>
</g>
<!-- Node6 -->
<g id="node6" class="node">
<title>Node6</title>
<g id="a_node6"><a xlink:title=" ">
<polygon fill="white" stroke="#bfbfbf" points="69,-0.5 69,-19.5 120,-19.5 120,-0.5 69,-0.5"/>
<text text-anchor="middle" x="94.5" y="-7.5" font-family="Helvetica,sans-Serif" font-size="10.00">stddef.h</text>
</a>
</g>
</g>
<!-- Node5&#45;&gt;Node6 -->
<g id="edge5" class="edge">
<title>Node5&#45;&gt;Node6</title>
<path fill="none" stroke="midnightblue" d="M207.27,-56.44C185.12,-47.52 150.18,-33.44 125.06,-23.32"/>
<polygon fill="midnightblue" stroke="midnightblue" points="126.22,-20.01 115.63,-19.52 123.6,-26.5 126.22,-20.01"/>
</g>
<!-- Node7 -->
<g id="node7" class="node">
<title>Node7</title>
<g id="a_node7"><a xlink:title=" ">
<polygon fill="white" stroke="#bfbfbf" points="138.5,-0.5 138.5,-19.5 186.5,-19.5 186.5,-0.5 138.5,-0.5"/>
<text text-anchor="middle" x="162.5" y="-7.5" font-family="Helvetica,sans-Serif" font-size="10.00">stdint.h</text>
</a>
</g>
</g>
<!-- Node5&#45;&gt;Node7 -->
<g id="edge6" class="edge">
<title>Node5&#45;&gt;Node7</title>
<path fill="none" stroke="midnightblue" d="M217.9,-56.32C208.04,-48.26 193.15,-36.08 181.28,-26.37"/>
<polygon fill="midnightblue" stroke="midnightblue" points="183.25,-23.46 173.3,-19.83 178.82,-28.88 183.25,-23.46"/>
</g>
<!-- Node8 -->
<g id="node8" class="node">
<title>Node8</title>
<g id="a_node8"><a xlink:title=" ">
<polygon fill="white" stroke="#bfbfbf" points="205,-0.5 205,-19.5 252,-19.5 252,-0.5 205,-0.5"/>
<text text-anchor="middle" x="228.5" y="-7.5" font-family="Helvetica,sans-Serif" font-size="10.00">stdlib.h</text>
</a>
</g>
</g>
<!-- Node5&#45;&gt;Node8 -->
<g id="edge7" class="edge">
<title>Node5&#45;&gt;Node8</title>
<path fill="none" stroke="midnightblue" d="M228.5,-56.08C228.5,-49.01 228.5,-38.86 228.5,-29.99"/>
<polygon fill="midnightblue" stroke="midnightblue" points="232,-29.75 228.5,-19.75 225,-29.75 232,-29.75"/>
</g>
<!-- Node9 -->
<g id="node9" class="node">
<title>Node9</title>
<g id="a_node9"><a xlink:title=" ">
<polygon fill="white" stroke="#bfbfbf" points="270,-0.5 270,-19.5 311,-19.5 311,-0.5 270,-0.5"/>
<text text-anchor="middle" x="290.5" y="-7.5" font-family="Helvetica,sans-Serif" font-size="10.00">string</text>
</a>
</g>
</g>
<!-- Node5&#45;&gt;Node9 -->
<g id="edge9" class="edge">
<title>Node5&#45;&gt;Node9</title>
<path fill="none" stroke="midnightblue" d="M238.46,-56.32C247.63,-48.34 261.44,-36.31 272.53,-26.65"/>
<polygon fill="midnightblue" stroke="midnightblue" points="275.12,-29.04 280.36,-19.83 270.52,-23.76 275.12,-29.04"/>
</g>
<!-- Node5&#45;&gt;Node10 -->
<g id="edge10" class="edge">
<title>Node5&#45;&gt;Node10</title>
<path fill="none" stroke="midnightblue" d="M249.26,-56.44C270.82,-47.56 304.76,-33.56 329.29,-23.45"/>
<polygon fill="midnightblue" stroke="midnightblue" points="330.93,-26.56 338.84,-19.52 328.26,-20.09 330.93,-26.56"/>
</g>
</g>
</svg>
