<?xml version="1.0" encoding="UTF-8" standalone="no"?>
<!DOCTYPE svg PUBLIC "-//W3C//DTD SVG 1.1//EN"
 "http://www.w3.org/Graphics/SVG/1.1/DTD/svg11.dtd">
<!-- Generated by graphviz version 2.44.0 ()
 -->
<!-- Title: include/cppgc/internal/gc&#45;info.h Pages: 1 -->
<svg width="354pt" height="218pt"
 viewBox="0.00 0.00 354.00 218.00" xmlns="http://www.w3.org/2000/svg" xmlns:xlink="http://www.w3.org/1999/xlink">
<g id="graph0" class="graph" transform="scale(1 1) rotate(0) translate(4 214)">
<title>include/cppgc/internal/gc&#45;info.h</title>
<polygon fill="white" stroke="transparent" points="-4,4 -4,-214 350,-214 350,4 -4,4"/>
<!-- Node1 -->
<g id="node1" class="node">
<title>Node1</title>
<g id="a_node1"><a xlink:title=" ">
<polygon fill="#bfbfbf" stroke="black" points="128.5,-179.5 128.5,-209.5 239.5,-209.5 239.5,-179.5 128.5,-179.5"/>
<text text-anchor="start" x="136.5" y="-197.5" font-family="Helvetica,sans-Serif" font-size="10.00">include/cppgc/internal</text>
<text text-anchor="middle" x="184" y="-186.5" font-family="Helvetica,sans-Serif" font-size="10.00">/gc&#45;info.h</text>
</a>
</g>
</g>
<!-- Node2 -->
<g id="node2" class="node">
<title>Node2</title>
<g id="a_node2"><a xlink:title=" ">
<polygon fill="white" stroke="#bfbfbf" points="0,-118 0,-137 48,-137 48,-118 0,-118"/>
<text text-anchor="middle" x="24" y="-125" font-family="Helvetica,sans-Serif" font-size="10.00">stdint.h</text>
</a>
</g>
</g>
<!-- Node1&#45;&gt;Node2 -->
<g id="edge1" class="edge">
<title>Node1&#45;&gt;Node2</title>
<path fill="none" stroke="midnightblue" d="M147.73,-179.47C122.25,-169.52 87.43,-155.73 57,-143 55.59,-142.41 54.15,-141.8 52.7,-141.18"/>
<polygon fill="midnightblue" stroke="midnightblue" points="53.71,-137.81 43.15,-137.05 50.93,-144.23 53.71,-137.81"/>
</g>
<!-- Node3 -->
<g id="node3" class="node">
<title>Node3</title>
<g id="a_node3"><a xlink:href="finalizer-trait_8h.html" target="_top" xlink:title=" ">
<polygon fill="white" stroke="black" points="66.5,-112.5 66.5,-142.5 179.5,-142.5 179.5,-112.5 66.5,-112.5"/>
<text text-anchor="start" x="74.5" y="-130.5" font-family="Helvetica,sans-Serif" font-size="10.00">cppgc/internal/finalizer</text>
<text text-anchor="middle" x="123" y="-119.5" font-family="Helvetica,sans-Serif" font-size="10.00">&#45;trait.h</text>
</a>
</g>
</g>
<!-- Node1&#45;&gt;Node3 -->
<g id="edge2" class="edge">
<title>Node1&#45;&gt;Node3</title>
<path fill="none" stroke="midnightblue" d="M170.76,-179.4C162.69,-170.79 152.21,-159.63 143.13,-149.94"/>
<polygon fill="midnightblue" stroke="midnightblue" points="145.61,-147.47 136.21,-142.58 140.5,-152.26 145.61,-147.47"/>
</g>
<!-- Node6 -->
<g id="node6" class="node">
<title>Node6</title>
<g id="a_node6"><a xlink:href="trace-trait_8h.html" target="_top" xlink:title=" ">
<polygon fill="white" stroke="black" points="197.5,-118 197.5,-137 292.5,-137 292.5,-118 197.5,-118"/>
<text text-anchor="middle" x="245" y="-125" font-family="Helvetica,sans-Serif" font-size="10.00">cppgc/trace&#45;trait.h</text>
</a>
</g>
</g>
<!-- Node1&#45;&gt;Node6 -->
<g id="edge6" class="edge">
<title>Node1&#45;&gt;Node6</title>
<path fill="none" stroke="midnightblue" d="M197.24,-179.4C206.84,-169.16 219.85,-155.3 229.87,-144.62"/>
<polygon fill="midnightblue" stroke="midnightblue" points="232.55,-146.88 236.84,-137.19 227.45,-142.09 232.55,-146.88"/>
</g>
<!-- Node7 -->
<g id="node7" class="node">
<title>Node7</title>
<g id="a_node7"><a xlink:href="v8config_8h.html" target="_top" xlink:title=" ">
<polygon fill="white" stroke="black" points="286,-56.5 286,-75.5 346,-75.5 346,-56.5 286,-56.5"/>
<text text-anchor="middle" x="316" y="-63.5" font-family="Helvetica,sans-Serif" font-size="10.00">v8config.h</text>
</a>
</g>
</g>
<!-- Node1&#45;&gt;Node7 -->
<g id="edge10" class="edge">
<title>Node1&#45;&gt;Node7</title>
<path fill="none" stroke="midnightblue" d="M239.52,-181.95C262.1,-174.49 286.49,-162.41 302,-143 314.93,-126.82 317.36,-102.52 317.25,-85.77"/>
<polygon fill="midnightblue" stroke="midnightblue" points="320.74,-85.44 316.86,-75.58 313.74,-85.7 320.74,-85.44"/>
</g>
<!-- Node4 -->
<g id="node4" class="node">
<title>Node4</title>
<g id="a_node4"><a xlink:title=" ">
<polygon fill="white" stroke="#bfbfbf" points="142,-0.5 142,-19.5 204,-19.5 204,-0.5 142,-0.5"/>
<text text-anchor="middle" x="173" y="-7.5" font-family="Helvetica,sans-Serif" font-size="10.00">type_traits</text>
</a>
</g>
</g>
<!-- Node3&#45;&gt;Node4 -->
<g id="edge3" class="edge">
<title>Node3&#45;&gt;Node4</title>
<path fill="none" stroke="midnightblue" d="M117.44,-112.49C112.49,-97.69 107.26,-74.04 116,-56 122.4,-42.8 134.75,-32.3 146.33,-24.78"/>
<polygon fill="midnightblue" stroke="midnightblue" points="148.16,-27.77 154.92,-19.61 144.55,-21.77 148.16,-27.77"/>
</g>
<!-- Node5 -->
<g id="node5" class="node">
<title>Node5</title>
<g id="a_node5"><a xlink:href="type-traits_8h.html" target="_top" xlink:title=" ">
<polygon fill="white" stroke="black" points="125,-56.5 125,-75.5 221,-75.5 221,-56.5 125,-56.5"/>
<text text-anchor="middle" x="173" y="-63.5" font-family="Helvetica,sans-Serif" font-size="10.00">cppgc/type&#45;traits.h</text>
</a>
</g>
</g>
<!-- Node3&#45;&gt;Node5 -->
<g id="edge4" class="edge">
<title>Node3&#45;&gt;Node5</title>
<path fill="none" stroke="midnightblue" d="M134.85,-112.4C142.11,-103.75 151.45,-92.64 159.07,-83.58"/>
<polygon fill="midnightblue" stroke="midnightblue" points="161.97,-85.57 165.72,-75.66 156.61,-81.06 161.97,-85.57"/>
</g>
<!-- Node5&#45;&gt;Node4 -->
<g id="edge5" class="edge">
<title>Node5&#45;&gt;Node4</title>
<path fill="none" stroke="midnightblue" d="M173,-56.08C173,-49.01 173,-38.86 173,-29.99"/>
<polygon fill="midnightblue" stroke="midnightblue" points="176.5,-29.75 173,-19.75 169.5,-29.75 176.5,-29.75"/>
</g>
<!-- Node6&#45;&gt;Node4 -->
<g id="edge7" class="edge">
<title>Node6&#45;&gt;Node4</title>
<path fill="none" stroke="midnightblue" d="M244.99,-117.55C244.59,-103.42 242.15,-75.56 230,-56 222.18,-43.41 209.52,-32.89 198.11,-25.2"/>
<polygon fill="midnightblue" stroke="midnightblue" points="199.67,-22.05 189.35,-19.65 195.93,-27.96 199.67,-22.05"/>
</g>
<!-- Node6&#45;&gt;Node5 -->
<g id="edge8" class="edge">
<title>Node6&#45;&gt;Node5</title>
<path fill="none" stroke="midnightblue" d="M234.68,-117.98C223.35,-108.61 204.93,-93.38 191.16,-82.01"/>
<polygon fill="midnightblue" stroke="midnightblue" points="193.23,-79.18 183.3,-75.51 188.78,-84.58 193.23,-79.18"/>
</g>
<!-- Node6&#45;&gt;Node7 -->
<g id="edge9" class="edge">
<title>Node6&#45;&gt;Node7</title>
<path fill="none" stroke="midnightblue" d="M255.17,-117.98C266.35,-108.61 284.52,-93.38 298.09,-82.01"/>
<polygon fill="midnightblue" stroke="midnightblue" points="300.43,-84.61 305.85,-75.51 295.93,-79.25 300.43,-84.61"/>
</g>
</g>
</svg>
