<?xml version="1.0" encoding="UTF-8" standalone="no"?>
<!DOCTYPE svg PUBLIC "-//W3C//DTD SVG 1.1//EN"
 "http://www.w3.org/Graphics/SVG/1.1/DTD/svg11.dtd">
<!-- Generated by graphviz version 2.44.0 ()
 -->
<!-- Title: Graphical Class Hierarchy Pages: 1 -->
<svg width="267pt" height="50pt"
 viewBox="0.00 0.00 267.00 50.00" xmlns="http://www.w3.org/2000/svg" xmlns:xlink="http://www.w3.org/1999/xlink">
<g id="graph0" class="graph" transform="scale(1 1) rotate(0) translate(4 46)">
<title>Graphical Class Hierarchy</title>
<polygon fill="white" stroke="transparent" points="-4,4 -4,-46 263,-46 263,4 -4,4"/>
<!-- Node0 -->
<g id="node1" class="node">
<title>Node0</title>
<g id="a_node1"><a xlink:href="classv8_1_1CFunctionInfo.html" target="_top" xlink:title=" ">
<polygon fill="white" stroke="black" points="0,-11.5 0,-30.5 92,-30.5 92,-11.5 0,-11.5"/>
<text text-anchor="middle" x="46" y="-18.5" font-family="Helvetica,sans-Serif" font-size="10.00">v8::CFunctionInfo</text>
</a>
</g>
</g>
<!-- Node1 -->
<g id="node2" class="node">
<title>Node1</title>
<g id="a_node2"><a xlink:href="classv8_1_1internal_1_1CFunctionInfoImpl.html" target="_top" xlink:title=" ">
<polygon fill="white" stroke="black" points="128,-0.5 128,-41.5 259,-41.5 259,-0.5 128,-0.5"/>
<text text-anchor="start" x="136" y="-29.5" font-family="Helvetica,sans-Serif" font-size="10.00">v8::internal::CFunctionInfo</text>
<text text-anchor="start" x="136" y="-18.5" font-family="Helvetica,sans-Serif" font-size="10.00">Impl&lt; R, RaisesException,</text>
<text text-anchor="middle" x="193.5" y="-7.5" font-family="Helvetica,sans-Serif" font-size="10.00"> Args &gt;</text>
</a>
</g>
</g>
<!-- Node0&#45;&gt;Node1 -->
<g id="edge1" class="edge">
<title>Node0&#45;&gt;Node1</title>
<path fill="none" stroke="midnightblue" d="M102.51,-21C110.77,-21 119.36,-21 127.79,-21"/>
<polygon fill="midnightblue" stroke="midnightblue" points="102.24,-17.5 92.24,-21 102.24,-24.5 102.24,-17.5"/>
</g>
</g>
</svg>
