<?xml version="1.0" encoding="UTF-8" standalone="no"?>
<!DOCTYPE svg PUBLIC "-//W3C//DTD SVG 1.1//EN"
 "http://www.w3.org/Graphics/SVG/1.1/DTD/svg11.dtd">
<!-- Generated by graphviz version 2.44.0 ()
 -->
<!-- Title: include/cppgc/persistent.h Pages: 1 -->
<svg width="1308pt" height="531pt"
 viewBox="0.00 0.00 1307.51 531.00" xmlns="http://www.w3.org/2000/svg" xmlns:xlink="http://www.w3.org/1999/xlink">
<g id="graph0" class="graph" transform="scale(1 1) rotate(0) translate(4 527)">
<title>include/cppgc/persistent.h</title>
<polygon fill="white" stroke="transparent" points="-4,4 -4,-527 1303.51,-527 1303.51,4 -4,4"/>
<!-- Node1 -->
<g id="node1" class="node">
<title>Node1</title>
<g id="a_node1"><a xlink:title=" ">
<polygon fill="#bfbfbf" stroke="black" points="422.01,-503.5 422.01,-522.5 552.01,-522.5 552.01,-503.5 422.01,-503.5"/>
<text text-anchor="middle" x="487.01" y="-510.5" font-family="Helvetica,sans-Serif" font-size="10.00">include/cppgc/persistent.h</text>
</a>
</g>
</g>
<!-- Node2 -->
<g id="node2" class="node">
<title>Node2</title>
<g id="a_node2"><a xlink:title=" ">
<polygon fill="white" stroke="#bfbfbf" points="325.01,-196 325.01,-215 387.01,-215 387.01,-196 325.01,-196"/>
<text text-anchor="middle" x="356.01" y="-203" font-family="Helvetica,sans-Serif" font-size="10.00">type_traits</text>
</a>
</g>
</g>
<!-- Node1&#45;&gt;Node2 -->
<g id="edge1" class="edge">
<title>Node1&#45;&gt;Node2</title>
<path fill="none" stroke="midnightblue" d="M430.71,-503.48C339.13,-488.01 168.01,-451.72 168.01,-396.5 168.01,-396.5 168.01,-396.5 168.01,-333 168.01,-262.63 259.79,-228.84 315.09,-214.87"/>
<polygon fill="midnightblue" stroke="midnightblue" points="316.06,-218.23 324.96,-212.48 314.42,-211.43 316.06,-218.23"/>
</g>
<!-- Node3 -->
<g id="node3" class="node">
<title>Node3</title>
<g id="a_node3"><a xlink:href="persistent-node_8h.html" target="_top" xlink:title=" ">
<polygon fill="white" stroke="black" points="846.51,-380.5 846.51,-410.5 969.51,-410.5 969.51,-380.5 846.51,-380.5"/>
<text text-anchor="start" x="854.51" y="-398.5" font-family="Helvetica,sans-Serif" font-size="10.00">cppgc/internal/persistent</text>
<text text-anchor="middle" x="908.01" y="-387.5" font-family="Helvetica,sans-Serif" font-size="10.00">&#45;node.h</text>
</a>
</g>
</g>
<!-- Node1&#45;&gt;Node3 -->
<g id="edge2" class="edge">
<title>Node1&#45;&gt;Node3</title>
<path fill="none" stroke="midnightblue" d="M548.61,-503.49C597.09,-496.04 666.06,-483.78 725.01,-467 775.06,-452.75 830.58,-430.39 867.19,-414.68"/>
<polygon fill="midnightblue" stroke="midnightblue" points="868.75,-417.82 876.54,-410.64 865.97,-411.39 868.75,-417.82"/>
</g>
<!-- Node8 -->
<g id="node8" class="node">
<title>Node8</title>
<g id="a_node8"><a xlink:href="source-location_8h.html" target="_top" xlink:title=" ">
<polygon fill="white" stroke="black" points="1075.51,-196 1075.51,-215 1194.51,-215 1194.51,-196 1075.51,-196"/>
<text text-anchor="middle" x="1135.01" y="-203" font-family="Helvetica,sans-Serif" font-size="10.00">cppgc/source&#45;location.h</text>
</a>
</g>
</g>
<!-- Node1&#45;&gt;Node8 -->
<g id="edge32" class="edge">
<title>Node1&#45;&gt;Node8</title>
<path fill="none" stroke="midnightblue" d="M552.31,-507.16C716.58,-494.1 1134.01,-455.16 1134.01,-396.5 1134.01,-396.5 1134.01,-396.5 1134.01,-333 1134.01,-294.7 1134.47,-249.88 1134.77,-225.2"/>
<polygon fill="midnightblue" stroke="midnightblue" points="1138.27,-225.13 1134.89,-215.09 1131.27,-225.05 1138.27,-225.13"/>
</g>
<!-- Node10 -->
<g id="node10" class="node">
<title>Node10</title>
<g id="a_node10"><a xlink:href="v8config_8h.html" target="_top" xlink:title=" ">
<polygon fill="white" stroke="black" points="547.01,-62 547.01,-81 607.01,-81 607.01,-62 547.01,-62"/>
<text text-anchor="middle" x="577.01" y="-69" font-family="Helvetica,sans-Serif" font-size="10.00">v8config.h</text>
</a>
</g>
</g>
<!-- Node1&#45;&gt;Node10 -->
<g id="edge73" class="edge">
<title>Node1&#45;&gt;Node10</title>
<path fill="none" stroke="midnightblue" d="M518.18,-503.47C557.92,-490.72 624.97,-462.5 654.01,-411 681.41,-362.4 632.59,-394.31 581.01,-221 572.42,-192.14 573.24,-184.03 571.01,-154 569.4,-132.39 571.85,-107.55 574.08,-91.03"/>
<polygon fill="midnightblue" stroke="midnightblue" points="577.56,-91.47 575.54,-81.07 570.63,-90.45 577.56,-91.47"/>
</g>
<!-- Node12 -->
<g id="node12" class="node">
<title>Node12</title>
<g id="a_node12"><a xlink:href="type-traits_8h.html" target="_top" xlink:title=" ">
<polygon fill="white" stroke="black" points="340.01,-263 340.01,-282 436.01,-282 436.01,-263 340.01,-263"/>
<text text-anchor="middle" x="388.01" y="-270" font-family="Helvetica,sans-Serif" font-size="10.00">cppgc/type&#45;traits.h</text>
</a>
</g>
</g>
<!-- Node1&#45;&gt;Node12 -->
<g id="edge33" class="edge">
<title>Node1&#45;&gt;Node12</title>
<path fill="none" stroke="midnightblue" d="M459.23,-503.47C422.02,-490.36 357.49,-461.35 330.01,-411 307.05,-368.93 347.55,-315.87 371.79,-289.66"/>
<polygon fill="midnightblue" stroke="midnightblue" points="374.6,-291.79 378.99,-282.15 369.55,-286.95 374.6,-291.79"/>
</g>
<!-- Node13 -->
<g id="node13" class="node">
<title>Node13</title>
<g id="a_node13"><a xlink:href="pointer-policies_8h.html" target="_top" xlink:title=" ">
<polygon fill="white" stroke="black" points="30.01,-257.5 30.01,-287.5 140.01,-287.5 140.01,-257.5 30.01,-257.5"/>
<text text-anchor="start" x="38.01" y="-275.5" font-family="Helvetica,sans-Serif" font-size="10.00">cppgc/internal/pointer</text>
<text text-anchor="middle" x="85.01" y="-264.5" font-family="Helvetica,sans-Serif" font-size="10.00">&#45;policies.h</text>
</a>
</g>
</g>
<!-- Node1&#45;&gt;Node13 -->
<g id="edge17" class="edge">
<title>Node1&#45;&gt;Node13</title>
<path fill="none" stroke="midnightblue" d="M421.82,-511.05C336.73,-508.5 193.94,-499.38 154.01,-467 101.75,-424.63 89.04,-339.63 85.97,-297.84"/>
<polygon fill="midnightblue" stroke="midnightblue" points="89.46,-297.5 85.36,-287.73 82.47,-297.92 89.46,-297.5"/>
</g>
<!-- Node22 -->
<g id="node22" class="node">
<title>Node22</title>
<g id="a_node22"><a xlink:href="visitor_8h.html" target="_top" xlink:title=" ">
<polygon fill="white" stroke="black" points="447.01,-447.5 447.01,-466.5 527.01,-466.5 527.01,-447.5 447.01,-447.5"/>
<text text-anchor="middle" x="487.01" y="-454.5" font-family="Helvetica,sans-Serif" font-size="10.00">cppgc/visitor.h</text>
</a>
</g>
</g>
<!-- Node1&#45;&gt;Node22 -->
<g id="edge34" class="edge">
<title>Node1&#45;&gt;Node22</title>
<path fill="none" stroke="midnightblue" d="M487.01,-503.08C487.01,-496.01 487.01,-485.86 487.01,-476.99"/>
<polygon fill="midnightblue" stroke="midnightblue" points="490.51,-476.75 487.01,-466.75 483.51,-476.75 490.51,-476.75"/>
</g>
<!-- Node4 -->
<g id="node4" class="node">
<title>Node4</title>
<g id="a_node4"><a xlink:title=" ">
<polygon fill="white" stroke="#bfbfbf" points="936.01,-324.5 936.01,-343.5 974.01,-343.5 974.01,-324.5 936.01,-324.5"/>
<text text-anchor="middle" x="955.01" y="-331.5" font-family="Helvetica,sans-Serif" font-size="10.00">array</text>
</a>
</g>
</g>
<!-- Node3&#45;&gt;Node4 -->
<g id="edge3" class="edge">
<title>Node3&#45;&gt;Node4</title>
<path fill="none" stroke="midnightblue" d="M919.15,-380.4C925.98,-371.75 934.75,-360.64 941.91,-351.58"/>
<polygon fill="midnightblue" stroke="midnightblue" points="944.72,-353.67 948.17,-343.66 939.22,-349.34 944.72,-353.67"/>
</g>
<!-- Node5 -->
<g id="node5" class="node">
<title>Node5</title>
<g id="a_node5"><a xlink:title=" ">
<polygon fill="white" stroke="#bfbfbf" points="1248.51,-62 1248.51,-81 1299.51,-81 1299.51,-62 1248.51,-62"/>
<text text-anchor="middle" x="1274.01" y="-69" font-family="Helvetica,sans-Serif" font-size="10.00">memory</text>
</a>
</g>
</g>
<!-- Node3&#45;&gt;Node5 -->
<g id="edge4" class="edge">
<title>Node3&#45;&gt;Node5</title>
<path fill="none" stroke="midnightblue" d="M969.65,-387.83C1077.48,-374.42 1289.01,-339.69 1289.01,-273.5 1289.01,-273.5 1289.01,-273.5 1289.01,-204.5 1289.01,-163.9 1281.91,-116.72 1277.48,-91.21"/>
<polygon fill="midnightblue" stroke="midnightblue" points="1280.88,-90.33 1275.67,-81.11 1273.99,-91.57 1280.88,-90.33"/>
</g>
<!-- Node6 -->
<g id="node6" class="node">
<title>Node6</title>
<g id="a_node6"><a xlink:title=" ">
<polygon fill="white" stroke="#bfbfbf" points="1013.01,-196 1013.01,-215 1057.01,-215 1057.01,-196 1013.01,-196"/>
<text text-anchor="middle" x="1035.01" y="-203" font-family="Helvetica,sans-Serif" font-size="10.00">vector</text>
</a>
</g>
</g>
<!-- Node3&#45;&gt;Node6 -->
<g id="edge5" class="edge">
<title>Node3&#45;&gt;Node6</title>
<path fill="none" stroke="midnightblue" d="M937.26,-380.45C952.66,-371.78 970.82,-359.38 983.01,-344 1011.84,-307.6 1025.95,-253.49 1031.71,-225.23"/>
<polygon fill="midnightblue" stroke="midnightblue" points="1035.2,-225.61 1033.63,-215.13 1028.32,-224.3 1035.2,-225.61"/>
</g>
<!-- Node7 -->
<g id="node7" class="node">
<title>Node7</title>
<g id="a_node7"><a xlink:href="logging_8h.html" target="_top" xlink:title=" ">
<polygon fill="white" stroke="black" points="760.51,-324.5 760.51,-343.5 879.51,-343.5 879.51,-324.5 760.51,-324.5"/>
<text text-anchor="middle" x="820.01" y="-331.5" font-family="Helvetica,sans-Serif" font-size="10.00">cppgc/internal/logging.h</text>
</a>
</g>
</g>
<!-- Node3&#45;&gt;Node7 -->
<g id="edge6" class="edge">
<title>Node3&#45;&gt;Node7</title>
<path fill="none" stroke="midnightblue" d="M887.15,-380.4C873.31,-371.04 855.2,-358.79 841.27,-349.38"/>
<polygon fill="midnightblue" stroke="midnightblue" points="843.06,-346.36 832.81,-343.66 839.14,-352.16 843.06,-346.36"/>
</g>
<!-- Node3&#45;&gt;Node10 -->
<g id="edge16" class="edge">
<title>Node3&#45;&gt;Node10</title>
<path fill="none" stroke="midnightblue" d="M908.15,-380.28C907.51,-364.4 904,-338.95 889.01,-324 845.04,-280.15 806.86,-320.6 754.01,-288 686.21,-246.19 684.62,-216.32 635.01,-154 618.01,-132.65 600.02,-106.8 588.67,-90.02"/>
<polygon fill="midnightblue" stroke="midnightblue" points="591.29,-87.64 582.81,-81.29 585.48,-91.54 591.29,-87.64"/>
</g>
<!-- Node11 -->
<g id="node11" class="node">
<title>Node11</title>
<g id="a_node11"><a xlink:href="trace-trait_8h.html" target="_top" xlink:title=" ">
<polygon fill="white" stroke="black" points="456.51,-324.5 456.51,-343.5 551.51,-343.5 551.51,-324.5 456.51,-324.5"/>
<text text-anchor="middle" x="504.01" y="-331.5" font-family="Helvetica,sans-Serif" font-size="10.00">cppgc/trace&#45;trait.h</text>
</a>
</g>
</g>
<!-- Node3&#45;&gt;Node11 -->
<g id="edge11" class="edge">
<title>Node3&#45;&gt;Node11</title>
<path fill="none" stroke="midnightblue" d="M846.21,-385.4C768.84,-374 637.31,-354.63 561.85,-343.52"/>
<polygon fill="midnightblue" stroke="midnightblue" points="561.98,-340 551.58,-342.01 560.96,-346.93 561.98,-340"/>
</g>
<!-- Node7&#45;&gt;Node8 -->
<g id="edge7" class="edge">
<title>Node7&#45;&gt;Node8</title>
<path fill="none" stroke="midnightblue" d="M841.66,-324.31C896.41,-302.32 1040.56,-244.43 1104.14,-218.9"/>
<polygon fill="midnightblue" stroke="midnightblue" points="1105.65,-222.06 1113.62,-215.09 1103.04,-215.57 1105.65,-222.06"/>
</g>
<!-- Node7&#45;&gt;Node10 -->
<g id="edge10" class="edge">
<title>Node7&#45;&gt;Node10</title>
<path fill="none" stroke="midnightblue" d="M779.2,-324.42C728.43,-311.44 643.28,-281.59 601.01,-221 573.32,-181.31 573.14,-121.26 575.15,-91.13"/>
<polygon fill="midnightblue" stroke="midnightblue" points="578.64,-91.41 575.98,-81.15 571.67,-90.83 578.64,-91.41"/>
</g>
<!-- Node9 -->
<g id="node9" class="node">
<title>Node9</title>
<g id="a_node9"><a xlink:title=" ">
<polygon fill="white" stroke="#bfbfbf" points="1189.51,-62 1189.51,-81 1230.51,-81 1230.51,-62 1189.51,-62"/>
<text text-anchor="middle" x="1210.01" y="-69" font-family="Helvetica,sans-Serif" font-size="10.00">string</text>
</a>
</g>
</g>
<!-- Node8&#45;&gt;Node9 -->
<g id="edge8" class="edge">
<title>Node8&#45;&gt;Node9</title>
<path fill="none" stroke="midnightblue" d="M1149.87,-195.89C1163.56,-187.13 1183.34,-172.28 1194.01,-154 1205.34,-134.59 1208.8,-108.61 1209.78,-91.25"/>
<polygon fill="midnightblue" stroke="midnightblue" points="1213.28,-91.35 1210.12,-81.24 1206.28,-91.12 1213.28,-91.35"/>
</g>
<!-- Node8&#45;&gt;Node10 -->
<g id="edge9" class="edge">
<title>Node8&#45;&gt;Node10</title>
<path fill="none" stroke="midnightblue" d="M1100.54,-195.97C1066.7,-187.12 1013.92,-172.07 970.01,-154 942.61,-142.73 939.15,-132.23 911.01,-123 808.6,-89.41 681.11,-78.02 617.31,-74.27"/>
<polygon fill="midnightblue" stroke="midnightblue" points="617.45,-70.77 607.27,-73.71 617.06,-77.76 617.45,-70.77"/>
</g>
<!-- Node11&#45;&gt;Node2 -->
<g id="edge12" class="edge">
<title>Node11&#45;&gt;Node2</title>
<path fill="none" stroke="midnightblue" d="M498.76,-324.11C489.44,-308.9 468.75,-277.55 445.01,-257 427.05,-241.46 403.57,-228.38 385.24,-219.42"/>
<polygon fill="midnightblue" stroke="midnightblue" points="386.72,-216.25 376.18,-215.13 383.72,-222.57 386.72,-216.25"/>
</g>
<!-- Node11&#45;&gt;Node10 -->
<g id="edge15" class="edge">
<title>Node11&#45;&gt;Node10</title>
<path fill="none" stroke="midnightblue" d="M502.86,-324.44C499.3,-294.77 490.59,-194.27 525.01,-123 531.9,-108.73 544.59,-96.28 555.71,-87.32"/>
<polygon fill="midnightblue" stroke="midnightblue" points="557.95,-90.01 563.78,-81.16 553.71,-84.44 557.95,-90.01"/>
</g>
<!-- Node11&#45;&gt;Node12 -->
<g id="edge13" class="edge">
<title>Node11&#45;&gt;Node12</title>
<path fill="none" stroke="midnightblue" d="M487.39,-324.48C468.09,-314.58 436.05,-298.14 413.58,-286.62"/>
<polygon fill="midnightblue" stroke="midnightblue" points="415.09,-283.46 404.6,-282.01 411.9,-289.69 415.09,-283.46"/>
</g>
<!-- Node12&#45;&gt;Node2 -->
<g id="edge14" class="edge">
<title>Node12&#45;&gt;Node2</title>
<path fill="none" stroke="midnightblue" d="M383.69,-262.73C378.85,-252.89 370.86,-236.66 364.7,-224.16"/>
<polygon fill="midnightblue" stroke="midnightblue" points="367.81,-222.55 360.25,-215.13 361.53,-225.64 367.81,-222.55"/>
</g>
<!-- Node13&#45;&gt;Node2 -->
<g id="edge19" class="edge">
<title>Node13&#45;&gt;Node2</title>
<path fill="none" stroke="midnightblue" d="M140.18,-258.27C192.08,-245.82 268.6,-227.47 315.21,-216.29"/>
<polygon fill="midnightblue" stroke="midnightblue" points="316.06,-219.68 324.97,-213.95 314.43,-212.87 316.06,-219.68"/>
</g>
<!-- Node13&#45;&gt;Node8 -->
<g id="edge30" class="edge">
<title>Node13&#45;&gt;Node8</title>
<path fill="none" stroke="midnightblue" d="M140.13,-265.01C165.88,-262.18 196.98,-259.05 225.01,-257 598.13,-229.72 694.8,-267.63 1066.01,-221 1073.78,-220.02 1081.98,-218.63 1089.9,-217.09"/>
<polygon fill="midnightblue" stroke="midnightblue" points="1090.64,-220.51 1099.74,-215.08 1089.24,-213.65 1090.64,-220.51"/>
</g>
<!-- Node13&#45;&gt;Node10 -->
<g id="edge31" class="edge">
<title>Node13&#45;&gt;Node10</title>
<path fill="none" stroke="midnightblue" d="M140.28,-258.49C163.25,-250.77 188.75,-238.88 207.01,-221 240.99,-187.72 212.29,-151.98 250.01,-123 294.21,-89.02 459.4,-77.54 536.67,-73.97"/>
<polygon fill="midnightblue" stroke="midnightblue" points="537.14,-77.45 546.97,-73.52 536.83,-70.46 537.14,-77.45"/>
</g>
<!-- Node14 -->
<g id="node14" class="node">
<title>Node14</title>
<g id="a_node14"><a xlink:title=" ">
<polygon fill="white" stroke="#bfbfbf" points="152.01,-196 152.01,-215 198.01,-215 198.01,-196 152.01,-196"/>
<text text-anchor="middle" x="175.01" y="-203" font-family="Helvetica,sans-Serif" font-size="10.00">cstdint</text>
</a>
</g>
</g>
<!-- Node13&#45;&gt;Node14 -->
<g id="edge18" class="edge">
<title>Node13&#45;&gt;Node14</title>
<path fill="none" stroke="midnightblue" d="M104.54,-257.4C119.49,-246.6 140.04,-231.76 155.09,-220.89"/>
<polygon fill="midnightblue" stroke="midnightblue" points="157.17,-223.7 163.23,-215.01 153.07,-218.02 157.17,-223.7"/>
</g>
<!-- Node15 -->
<g id="node15" class="node">
<title>Node15</title>
<g id="a_node15"><a xlink:href="write-barrier_8h.html" target="_top" xlink:title=" ">
<polygon fill="white" stroke="black" points="32.51,-190.5 32.51,-220.5 133.51,-220.5 133.51,-190.5 32.51,-190.5"/>
<text text-anchor="start" x="40.51" y="-208.5" font-family="Helvetica,sans-Serif" font-size="10.00">cppgc/internal/write</text>
<text text-anchor="middle" x="83.01" y="-197.5" font-family="Helvetica,sans-Serif" font-size="10.00">&#45;barrier.h</text>
</a>
</g>
</g>
<!-- Node13&#45;&gt;Node15 -->
<g id="edge20" class="edge">
<title>Node13&#45;&gt;Node15</title>
<path fill="none" stroke="midnightblue" d="M84.57,-257.4C84.34,-249.64 84.03,-239.81 83.76,-230.86"/>
<polygon fill="midnightblue" stroke="midnightblue" points="87.25,-230.46 83.44,-220.58 80.25,-230.68 87.25,-230.46"/>
</g>
<!-- Node15&#45;&gt;Node10 -->
<g id="edge29" class="edge">
<title>Node15&#45;&gt;Node10</title>
<path fill="none" stroke="midnightblue" d="M102.94,-190.43C133.1,-169.39 189.24,-131.32 212.01,-123 324.36,-81.93 467.33,-73.91 536.24,-72.58"/>
<polygon fill="midnightblue" stroke="midnightblue" points="536.7,-76.07 546.64,-72.42 536.59,-69.07 536.7,-76.07"/>
</g>
<!-- Node16 -->
<g id="node16" class="node">
<title>Node16</title>
<g id="a_node16"><a xlink:href="api-constants_8h.html" target="_top" xlink:title=" ">
<polygon fill="white" stroke="black" points="752.51,-123.5 752.51,-153.5 845.51,-153.5 845.51,-123.5 752.51,-123.5"/>
<text text-anchor="start" x="760.51" y="-141.5" font-family="Helvetica,sans-Serif" font-size="10.00">cppgc/internal/api</text>
<text text-anchor="middle" x="799.01" y="-130.5" font-family="Helvetica,sans-Serif" font-size="10.00">&#45;constants.h</text>
</a>
</g>
</g>
<!-- Node15&#45;&gt;Node16 -->
<g id="edge21" class="edge">
<title>Node15&#45;&gt;Node16</title>
<path fill="none" stroke="midnightblue" d="M133.62,-191.6C136.79,-191 139.93,-190.46 143.01,-190 404.42,-150.9 477.99,-195.21 742.44,-154.04"/>
<polygon fill="midnightblue" stroke="midnightblue" points="743,-157.5 752.33,-152.48 741.91,-150.58 743,-157.5"/>
</g>
<!-- Node19 -->
<g id="node19" class="node">
<title>Node19</title>
<g id="a_node19"><a xlink:href="process-heap_8h.html" target="_top" xlink:title=" ">
<polygon fill="white" stroke="black" points="30.51,-123.5 30.51,-153.5 145.51,-153.5 145.51,-123.5 30.51,-123.5"/>
<text text-anchor="start" x="38.51" y="-141.5" font-family="Helvetica,sans-Serif" font-size="10.00">cppgc/internal/process</text>
<text text-anchor="middle" x="88.01" y="-130.5" font-family="Helvetica,sans-Serif" font-size="10.00">&#45;heap.h</text>
</a>
</g>
</g>
<!-- Node15&#45;&gt;Node19 -->
<g id="edge25" class="edge">
<title>Node15&#45;&gt;Node19</title>
<path fill="none" stroke="midnightblue" d="M84.09,-190.4C84.7,-182.56 85.46,-172.6 86.16,-163.57"/>
<polygon fill="midnightblue" stroke="midnightblue" points="89.65,-163.82 86.92,-153.58 82.67,-163.28 89.65,-163.82"/>
</g>
<!-- Node16&#45;&gt;Node10 -->
<g id="edge24" class="edge">
<title>Node16&#45;&gt;Node10</title>
<path fill="none" stroke="midnightblue" d="M752.47,-123.87C711.97,-112.02 653.95,-95.03 615.88,-83.88"/>
<polygon fill="midnightblue" stroke="midnightblue" points="616.77,-80.49 606.18,-81.04 614.8,-87.21 616.77,-80.49"/>
</g>
<!-- Node17 -->
<g id="node17" class="node">
<title>Node17</title>
<g id="a_node17"><a xlink:title=" ">
<polygon fill="white" stroke="#bfbfbf" points="988.51,-62 988.51,-81 1039.51,-81 1039.51,-62 988.51,-62"/>
<text text-anchor="middle" x="1014.01" y="-69" font-family="Helvetica,sans-Serif" font-size="10.00">stddef.h</text>
</a>
</g>
</g>
<!-- Node16&#45;&gt;Node17 -->
<g id="edge22" class="edge">
<title>Node16&#45;&gt;Node17</title>
<path fill="none" stroke="midnightblue" d="M845.39,-123.48C885.34,-111.4 942.14,-94.23 978.54,-83.22"/>
<polygon fill="midnightblue" stroke="midnightblue" points="979.67,-86.54 988.23,-80.29 977.65,-79.84 979.67,-86.54"/>
</g>
<!-- Node18 -->
<g id="node18" class="node">
<title>Node18</title>
<g id="a_node18"><a xlink:title=" ">
<polygon fill="white" stroke="#bfbfbf" points="1058.01,-62 1058.01,-81 1106.01,-81 1106.01,-62 1058.01,-62"/>
<text text-anchor="middle" x="1082.01" y="-69" font-family="Helvetica,sans-Serif" font-size="10.00">stdint.h</text>
</a>
</g>
</g>
<!-- Node16&#45;&gt;Node18 -->
<g id="edge23" class="edge">
<title>Node16&#45;&gt;Node18</title>
<path fill="none" stroke="midnightblue" d="M845.84,-131.12C896.65,-123.48 979.78,-108.92 1049.01,-87 1050.93,-86.39 1052.89,-85.7 1054.86,-84.97"/>
<polygon fill="midnightblue" stroke="midnightblue" points="1056.53,-88.07 1064.47,-81.04 1053.88,-81.59 1056.53,-88.07"/>
</g>
<!-- Node19&#45;&gt;Node10 -->
<g id="edge28" class="edge">
<title>Node19&#45;&gt;Node10</title>
<path fill="none" stroke="midnightblue" d="M145.76,-126.49C152.9,-125.25 160.12,-124.06 167.01,-123 301.97,-102.32 462.96,-84.47 536.61,-76.68"/>
<polygon fill="midnightblue" stroke="midnightblue" points="537.25,-80.13 546.83,-75.6 536.52,-73.17 537.25,-80.13"/>
</g>
<!-- Node20 -->
<g id="node20" class="node">
<title>Node20</title>
<g id="a_node20"><a xlink:href="atomic-entry-flag_8h.html" target="_top" xlink:title=" ">
<polygon fill="white" stroke="black" points="32.01,-56.5 32.01,-86.5 142.01,-86.5 142.01,-56.5 32.01,-56.5"/>
<text text-anchor="start" x="40.01" y="-74.5" font-family="Helvetica,sans-Serif" font-size="10.00">cppgc/internal/atomic</text>
<text text-anchor="middle" x="87.01" y="-63.5" font-family="Helvetica,sans-Serif" font-size="10.00">&#45;entry&#45;flag.h</text>
</a>
</g>
</g>
<!-- Node19&#45;&gt;Node20 -->
<g id="edge26" class="edge">
<title>Node19&#45;&gt;Node20</title>
<path fill="none" stroke="midnightblue" d="M87.79,-123.4C87.67,-115.64 87.52,-105.81 87.38,-96.86"/>
<polygon fill="midnightblue" stroke="midnightblue" points="90.88,-96.52 87.22,-86.58 83.88,-96.63 90.88,-96.52"/>
</g>
<!-- Node21 -->
<g id="node21" class="node">
<title>Node21</title>
<g id="a_node21"><a xlink:title=" ">
<polygon fill="white" stroke="#bfbfbf" points="22.01,-0.5 22.01,-19.5 68.01,-19.5 68.01,-0.5 22.01,-0.5"/>
<text text-anchor="middle" x="45.01" y="-7.5" font-family="Helvetica,sans-Serif" font-size="10.00">atomic</text>
</a>
</g>
</g>
<!-- Node20&#45;&gt;Node21 -->
<g id="edge27" class="edge">
<title>Node20&#45;&gt;Node21</title>
<path fill="none" stroke="midnightblue" d="M77.05,-56.4C71.01,-47.84 63.27,-36.87 56.91,-27.86"/>
<polygon fill="midnightblue" stroke="midnightblue" points="59.75,-25.81 51.12,-19.66 54.03,-29.85 59.75,-25.81"/>
</g>
<!-- Node22&#45;&gt;Node7 -->
<g id="edge49" class="edge">
<title>Node22&#45;&gt;Node7</title>
<path fill="none" stroke="midnightblue" d="M526.04,-447.42C560.25,-439.45 611.08,-426.49 654.01,-411 705.07,-392.57 762.12,-364.78 794.28,-348.41"/>
<polygon fill="midnightblue" stroke="midnightblue" points="796.13,-351.39 803.43,-343.71 792.93,-345.16 796.13,-351.39"/>
</g>
<!-- Node22&#45;&gt;Node8 -->
<g id="edge71" class="edge">
<title>Node22&#45;&gt;Node8</title>
<path fill="none" stroke="midnightblue" d="M527.13,-456.41C630.23,-456.84 901.7,-453.76 979.01,-411 1057.73,-367.46 1109.16,-265.8 1127.5,-224.46"/>
<polygon fill="midnightblue" stroke="midnightblue" points="1130.79,-225.68 1131.54,-215.11 1124.36,-222.91 1130.79,-225.68"/>
</g>
<!-- Node22&#45;&gt;Node11 -->
<g id="edge72" class="edge">
<title>Node22&#45;&gt;Node11</title>
<path fill="none" stroke="midnightblue" d="M488.23,-447.3C490.97,-427.76 497.68,-380.06 501.4,-353.55"/>
<polygon fill="midnightblue" stroke="midnightblue" points="504.87,-354.01 502.8,-343.62 497.94,-353.04 504.87,-354.01"/>
</g>
<!-- Node22&#45;&gt;Node13 -->
<g id="edge50" class="edge">
<title>Node22&#45;&gt;Node13</title>
<path fill="none" stroke="midnightblue" d="M446.75,-450.29C408.03,-443.89 348.4,-431.6 300.01,-411 226.29,-379.61 149.45,-323.96 110.67,-293.99"/>
<polygon fill="midnightblue" stroke="midnightblue" points="112.58,-291.04 102.54,-287.65 108.28,-296.56 112.58,-291.04"/>
</g>
<!-- Node23 -->
<g id="node23" class="node">
<title>Node23</title>
<g id="a_node23"><a xlink:href="garbage-collected_8h.html" target="_top" xlink:title=" ">
<polygon fill="white" stroke="black" points="515.01,-386 515.01,-405 645.01,-405 645.01,-386 515.01,-386"/>
<text text-anchor="middle" x="580.01" y="-393" font-family="Helvetica,sans-Serif" font-size="10.00">cppgc/garbage&#45;collected.h</text>
</a>
</g>
</g>
<!-- Node22&#45;&gt;Node23 -->
<g id="edge35" class="edge">
<title>Node22&#45;&gt;Node23</title>
<path fill="none" stroke="midnightblue" d="M500.33,-447.48C515.39,-437.84 540.12,-422.02 558.04,-410.55"/>
<polygon fill="midnightblue" stroke="midnightblue" points="560.17,-413.35 566.71,-405.01 556.4,-407.45 560.17,-413.35"/>
</g>
<!-- Node27 -->
<g id="node27" class="node">
<title>Node27</title>
<g id="a_node27"><a xlink:href="liveness-broker_8h.html" target="_top" xlink:title=" ">
<polygon fill="white" stroke="black" points="339.51,-386 339.51,-405 458.51,-405 458.51,-386 339.51,-386"/>
<text text-anchor="middle" x="399.01" y="-393" font-family="Helvetica,sans-Serif" font-size="10.00">cppgc/liveness&#45;broker.h</text>
</a>
</g>
</g>
<!-- Node22&#45;&gt;Node27 -->
<g id="edge51" class="edge">
<title>Node22&#45;&gt;Node27</title>
<path fill="none" stroke="midnightblue" d="M474.4,-447.48C460.28,-437.93 437.18,-422.31 420.26,-410.87"/>
<polygon fill="midnightblue" stroke="midnightblue" points="421.84,-407.71 411.59,-405.01 417.92,-413.51 421.84,-407.71"/>
</g>
<!-- Node31 -->
<g id="node31" class="node">
<title>Node31</title>
<g id="a_node31"><a xlink:href="member_8h.html" target="_top" xlink:title=" ">
<polygon fill="white" stroke="black" points="234.51,-324.5 234.51,-343.5 323.51,-343.5 323.51,-324.5 234.51,-324.5"/>
<text text-anchor="middle" x="279.01" y="-331.5" font-family="Helvetica,sans-Serif" font-size="10.00">cppgc/member.h</text>
</a>
</g>
</g>
<!-- Node22&#45;&gt;Node31 -->
<g id="edge70" class="edge">
<title>Node22&#45;&gt;Node31</title>
<path fill="none" stroke="midnightblue" d="M446.91,-452.22C413.02,-447.33 364.62,-436.21 330.01,-411 309.58,-396.13 294.86,-370.41 286.63,-353.06"/>
<polygon fill="midnightblue" stroke="midnightblue" points="289.63,-351.2 282.35,-343.51 283.24,-354.06 289.63,-351.2"/>
</g>
<!-- Node23&#45;&gt;Node2 -->
<g id="edge36" class="edge">
<title>Node23&#45;&gt;Node2</title>
<path fill="none" stroke="midnightblue" d="M579.3,-385.97C577.79,-371.95 573.23,-343.63 560.01,-324 521.32,-266.56 444.47,-233.68 396.93,-218.01"/>
<polygon fill="midnightblue" stroke="midnightblue" points="397.84,-214.63 387.25,-214.93 395.72,-221.3 397.84,-214.63"/>
</g>
<!-- Node23&#45;&gt;Node11 -->
<g id="edge47" class="edge">
<title>Node23&#45;&gt;Node11</title>
<path fill="none" stroke="midnightblue" d="M569.12,-385.98C557.04,-376.52 537.34,-361.1 522.77,-349.69"/>
<polygon fill="midnightblue" stroke="midnightblue" points="524.91,-346.92 514.88,-343.51 520.59,-352.43 524.91,-346.92"/>
</g>
<!-- Node23&#45;&gt;Node12 -->
<g id="edge48" class="edge">
<title>Node23&#45;&gt;Node12</title>
<path fill="none" stroke="midnightblue" d="M543.14,-385.96C514.98,-378.21 476.19,-364.76 447.01,-344 426.76,-329.59 409.32,-306.64 398.76,-290.86"/>
<polygon fill="midnightblue" stroke="midnightblue" points="401.47,-288.6 393.11,-282.1 395.59,-292.4 401.47,-288.6"/>
</g>
<!-- Node23&#45;&gt;Node16 -->
<g id="edge37" class="edge">
<title>Node23&#45;&gt;Node16</title>
<path fill="none" stroke="midnightblue" d="M587.55,-385.72C618.25,-349.98 734.39,-214.74 780.23,-161.36"/>
<polygon fill="midnightblue" stroke="midnightblue" points="783.1,-163.39 786.96,-153.53 777.79,-158.83 783.1,-163.39"/>
</g>
<!-- Node24 -->
<g id="node24" class="node">
<title>Node24</title>
<g id="a_node24"><a xlink:href="platform_8h.html" target="_top" xlink:title=" ">
<polygon fill="white" stroke="black" points="867.51,-196 867.51,-215 956.51,-215 956.51,-196 867.51,-196"/>
<text text-anchor="middle" x="912.01" y="-203" font-family="Helvetica,sans-Serif" font-size="10.00">cppgc/platform.h</text>
</a>
</g>
</g>
<!-- Node23&#45;&gt;Node24 -->
<g id="edge38" class="edge">
<title>Node23&#45;&gt;Node24</title>
<path fill="none" stroke="midnightblue" d="M600.33,-385.99C632.45,-372.58 696.96,-345.82 752.01,-324 793.6,-307.52 809.8,-314.28 846.01,-288 869.88,-270.67 889.97,-242.64 901.5,-224.39"/>
<polygon fill="midnightblue" stroke="midnightblue" points="904.77,-225.74 907,-215.38 898.8,-222.09 904.77,-225.74"/>
</g>
<!-- Node24&#45;&gt;Node10 -->
<g id="edge46" class="edge">
<title>Node24&#45;&gt;Node10</title>
<path fill="none" stroke="midnightblue" d="M912.24,-195.8C912.19,-178.97 909.47,-141.93 888.01,-123 848.51,-88.17 692.52,-77.17 617.59,-73.85"/>
<polygon fill="midnightblue" stroke="midnightblue" points="617.29,-70.34 607.15,-73.42 617,-77.33 617.29,-70.34"/>
</g>
<!-- Node25 -->
<g id="node25" class="node">
<title>Node25</title>
<g id="a_node25"><a xlink:href="v8-platform_8h.html" target="_top" xlink:title=" ">
<polygon fill="white" stroke="black" points="1111.51,-129 1111.51,-148 1184.51,-148 1184.51,-129 1111.51,-129"/>
<text text-anchor="middle" x="1148.01" y="-136" font-family="Helvetica,sans-Serif" font-size="10.00">v8&#45;platform.h</text>
</a>
</g>
</g>
<!-- Node24&#45;&gt;Node25 -->
<g id="edge39" class="edge">
<title>Node24&#45;&gt;Node25</title>
<path fill="none" stroke="midnightblue" d="M946.67,-195.93C985.05,-186.29 1048.7,-169.92 1103.01,-154 1106.16,-153.08 1109.42,-152.09 1112.69,-151.08"/>
<polygon fill="midnightblue" stroke="midnightblue" points="1113.9,-154.37 1122.38,-148.02 1111.79,-147.69 1113.9,-154.37"/>
</g>
<!-- Node25&#45;&gt;Node5 -->
<g id="edge43" class="edge">
<title>Node25&#45;&gt;Node5</title>
<path fill="none" stroke="midnightblue" d="M1164.74,-128.87C1186.11,-117.84 1223.31,-98.66 1248.29,-85.77"/>
<polygon fill="midnightblue" stroke="midnightblue" points="1249.92,-88.86 1257.21,-81.17 1246.71,-82.64 1249.92,-88.86"/>
</g>
<!-- Node25&#45;&gt;Node9 -->
<g id="edge44" class="edge">
<title>Node25&#45;&gt;Node9</title>
<path fill="none" stroke="midnightblue" d="M1156.37,-128.73C1166.13,-118.5 1182.48,-101.36 1194.56,-88.69"/>
<polygon fill="midnightblue" stroke="midnightblue" points="1197.41,-90.78 1201.78,-81.13 1192.34,-85.95 1197.41,-90.78"/>
</g>
<!-- Node25&#45;&gt;Node10 -->
<g id="edge45" class="edge">
<title>Node25&#45;&gt;Node10</title>
<path fill="none" stroke="midnightblue" d="M1124.44,-128.85C1117.61,-126.63 1110.08,-124.46 1103.01,-123 924.51,-86.13 706.27,-76.07 617.47,-73.42"/>
<polygon fill="midnightblue" stroke="midnightblue" points="617.39,-69.91 607.3,-73.13 617.19,-76.91 617.39,-69.91"/>
</g>
<!-- Node25&#45;&gt;Node17 -->
<g id="edge40" class="edge">
<title>Node25&#45;&gt;Node17</title>
<path fill="none" stroke="midnightblue" d="M1130.21,-128.87C1107.39,-117.8 1067.58,-98.49 1041.01,-85.6"/>
<polygon fill="midnightblue" stroke="midnightblue" points="1042.4,-82.38 1031.88,-81.17 1039.35,-88.68 1042.4,-82.38"/>
</g>
<!-- Node25&#45;&gt;Node18 -->
<g id="edge41" class="edge">
<title>Node25&#45;&gt;Node18</title>
<path fill="none" stroke="midnightblue" d="M1139.11,-128.73C1128.62,-118.4 1110.98,-101.04 1098.08,-88.33"/>
<polygon fill="midnightblue" stroke="midnightblue" points="1100.35,-85.65 1090.77,-81.13 1095.44,-90.64 1100.35,-85.65"/>
</g>
<!-- Node26 -->
<g id="node26" class="node">
<title>Node26</title>
<g id="a_node26"><a xlink:title=" ">
<polygon fill="white" stroke="#bfbfbf" points="1124.51,-62 1124.51,-81 1171.51,-81 1171.51,-62 1124.51,-62"/>
<text text-anchor="middle" x="1148.01" y="-69" font-family="Helvetica,sans-Serif" font-size="10.00">stdlib.h</text>
</a>
</g>
</g>
<!-- Node25&#45;&gt;Node26 -->
<g id="edge42" class="edge">
<title>Node25&#45;&gt;Node26</title>
<path fill="none" stroke="midnightblue" d="M1148.01,-128.73C1148.01,-119.18 1148.01,-103.62 1148.01,-91.28"/>
<polygon fill="midnightblue" stroke="midnightblue" points="1151.51,-91.13 1148.01,-81.13 1144.51,-91.13 1151.51,-91.13"/>
</g>
<!-- Node27&#45;&gt;Node10 -->
<g id="edge69" class="edge">
<title>Node27&#45;&gt;Node10</title>
<path fill="none" stroke="midnightblue" d="M402.8,-385.98C410.79,-367.97 429.87,-324.67 445.01,-288 475.08,-215.15 462.3,-185.74 510.01,-123 521.36,-108.07 538.25,-95.38 552.23,-86.45"/>
<polygon fill="midnightblue" stroke="midnightblue" points="554.2,-89.35 560.91,-81.15 550.55,-83.38 554.2,-89.35"/>
</g>
<!-- Node27&#45;&gt;Node11 -->
<g id="edge68" class="edge">
<title>Node27&#45;&gt;Node11</title>
<path fill="none" stroke="midnightblue" d="M414.05,-385.98C431.28,-376.21 459.75,-360.08 480.04,-348.58"/>
<polygon fill="midnightblue" stroke="midnightblue" points="482.02,-351.48 488.99,-343.51 478.57,-345.39 482.02,-351.48"/>
</g>
<!-- Node28 -->
<g id="node28" class="node">
<title>Node28</title>
<g id="a_node28"><a xlink:href="heap_8h.html" target="_top" xlink:title=" ">
<polygon fill="white" stroke="black" points="763.01,-263 763.01,-282 837.01,-282 837.01,-263 763.01,-263"/>
<text text-anchor="middle" x="800.01" y="-270" font-family="Helvetica,sans-Serif" font-size="10.00">cppgc/heap.h</text>
</a>
</g>
</g>
<!-- Node27&#45;&gt;Node28 -->
<g id="edge52" class="edge">
<title>Node27&#45;&gt;Node28</title>
<path fill="none" stroke="midnightblue" d="M427.21,-385.99C497.73,-364.71 681.82,-309.16 761.89,-285"/>
<polygon fill="midnightblue" stroke="midnightblue" points="763.01,-288.32 771.57,-282.08 760.99,-281.62 763.01,-288.32"/>
</g>
<!-- Node27&#45;&gt;Node31 -->
<g id="edge61" class="edge">
<title>Node27&#45;&gt;Node31</title>
<path fill="none" stroke="midnightblue" d="M381.81,-385.98C361.76,-376.03 328.41,-359.49 305.15,-347.96"/>
<polygon fill="midnightblue" stroke="midnightblue" points="306.68,-344.82 296.17,-343.51 303.57,-351.09 306.68,-344.82"/>
</g>
<!-- Node28&#45;&gt;Node5 -->
<g id="edge53" class="edge">
<title>Node28&#45;&gt;Node5</title>
<path fill="none" stroke="midnightblue" d="M837.23,-264.52C871.97,-257.02 924.54,-243.11 966.01,-221 985.24,-210.75 984.25,-199.2 1004.01,-190 1081.92,-153.72 1118.21,-194.52 1194.01,-154 1223.31,-138.33 1248.53,-108.26 1262.46,-89.35"/>
<polygon fill="midnightblue" stroke="midnightblue" points="1265.4,-91.25 1268.35,-81.07 1259.7,-87.18 1265.4,-91.25"/>
</g>
<!-- Node28&#45;&gt;Node6 -->
<g id="edge54" class="edge">
<title>Node28&#45;&gt;Node6</title>
<path fill="none" stroke="midnightblue" d="M837.11,-263.65C877.4,-254.77 943.44,-239.15 999.01,-221 1001.14,-220.3 1003.33,-219.54 1005.52,-218.75"/>
<polygon fill="midnightblue" stroke="midnightblue" points="1006.92,-221.96 1015,-215.11 1004.41,-215.42 1006.92,-221.96"/>
</g>
<!-- Node28&#45;&gt;Node10 -->
<g id="edge60" class="edge">
<title>Node28&#45;&gt;Node10</title>
<path fill="none" stroke="midnightblue" d="M801.64,-263C804.79,-247.71 812.64,-214.85 826.01,-190 835.74,-171.91 848.17,-173.38 855.01,-154 859.59,-141.01 863.84,-133.58 855.01,-123 825.18,-87.27 686.83,-76.76 617.22,-73.72"/>
<polygon fill="midnightblue" stroke="midnightblue" points="617.21,-70.21 607.07,-73.3 616.92,-77.21 617.21,-70.21"/>
</g>
<!-- Node28&#45;&gt;Node24 -->
<g id="edge59" class="edge">
<title>Node28&#45;&gt;Node24</title>
<path fill="none" stroke="midnightblue" d="M815.11,-262.73C833.92,-251.82 866.26,-233.05 888.37,-220.22"/>
<polygon fill="midnightblue" stroke="midnightblue" points="890.25,-223.17 897.14,-215.13 886.74,-217.12 890.25,-223.17"/>
</g>
<!-- Node29 -->
<g id="node29" class="node">
<title>Node29</title>
<g id="a_node29"><a xlink:href="common_8h.html" target="_top" xlink:title=" ">
<polygon fill="white" stroke="black" points="643.51,-129 643.51,-148 734.51,-148 734.51,-129 643.51,-129"/>
<text text-anchor="middle" x="689.01" y="-136" font-family="Helvetica,sans-Serif" font-size="10.00">cppgc/common.h</text>
</a>
</g>
</g>
<!-- Node28&#45;&gt;Node29 -->
<g id="edge55" class="edge">
<title>Node28&#45;&gt;Node29</title>
<path fill="none" stroke="midnightblue" d="M792.72,-262.84C774.45,-241.11 726.44,-184.02 702.7,-155.79"/>
<polygon fill="midnightblue" stroke="midnightblue" points="705.29,-153.42 696.17,-148.02 699.93,-157.93 705.29,-153.42"/>
</g>
<!-- Node30 -->
<g id="node30" class="node">
<title>Node30</title>
<g id="a_node30"><a xlink:href="custom-space_8h.html" target="_top" xlink:title=" ">
<polygon fill="white" stroke="black" points="978.51,-129 978.51,-148 1093.51,-148 1093.51,-129 978.51,-129"/>
<text text-anchor="middle" x="1036.01" y="-136" font-family="Helvetica,sans-Serif" font-size="10.00">cppgc/custom&#45;space.h</text>
</a>
</g>
</g>
<!-- Node28&#45;&gt;Node30 -->
<g id="edge57" class="edge">
<title>Node28&#45;&gt;Node30</title>
<path fill="none" stroke="midnightblue" d="M803.83,-262.9C811.68,-246.22 831.25,-209.44 859.01,-190 891.17,-167.47 933.23,-154.94 968.28,-147.99"/>
<polygon fill="midnightblue" stroke="midnightblue" points="969.25,-151.37 978.44,-146.09 967.97,-144.49 969.25,-151.37"/>
</g>
<!-- Node29&#45;&gt;Node10 -->
<g id="edge56" class="edge">
<title>Node29&#45;&gt;Node10</title>
<path fill="none" stroke="midnightblue" d="M673.9,-128.73C655.09,-117.82 622.75,-99.05 600.65,-86.22"/>
<polygon fill="midnightblue" stroke="midnightblue" points="602.28,-83.12 591.87,-81.13 598.77,-89.17 602.28,-83.12"/>
</g>
<!-- Node30&#45;&gt;Node17 -->
<g id="edge58" class="edge">
<title>Node30&#45;&gt;Node17</title>
<path fill="none" stroke="midnightblue" d="M1033.04,-128.73C1029.77,-119.09 1024.43,-103.3 1020.24,-90.91"/>
<polygon fill="midnightblue" stroke="midnightblue" points="1023.45,-89.48 1016.93,-81.13 1016.82,-91.72 1023.45,-89.48"/>
</g>
<!-- Node31&#45;&gt;Node2 -->
<g id="edge64" class="edge">
<title>Node31&#45;&gt;Node2</title>
<path fill="none" stroke="midnightblue" d="M284.3,-324.31C296.88,-303.63 328.78,-251.23 345.47,-223.82"/>
<polygon fill="midnightblue" stroke="midnightblue" points="348.47,-225.62 350.68,-215.26 342.49,-221.98 348.47,-225.62"/>
</g>
<!-- Node31&#45;&gt;Node10 -->
<g id="edge67" class="edge">
<title>Node31&#45;&gt;Node10</title>
<path fill="none" stroke="midnightblue" d="M262.37,-324.46C249.52,-316.84 232.67,-304.36 225.01,-288 219.16,-275.52 218.79,-269.3 225.01,-257 285.71,-136.93 458.16,-92.73 536.91,-78.48"/>
<polygon fill="midnightblue" stroke="midnightblue" points="537.68,-81.9 546.93,-76.74 536.48,-75.01 537.68,-81.9"/>
</g>
<!-- Node31&#45;&gt;Node12 -->
<g id="edge66" class="edge">
<title>Node31&#45;&gt;Node12</title>
<path fill="none" stroke="midnightblue" d="M294.62,-324.48C312.59,-314.67 342.33,-298.43 363.41,-286.92"/>
<polygon fill="midnightblue" stroke="midnightblue" points="365.32,-289.87 372.42,-282.01 361.97,-283.73 365.32,-289.87"/>
</g>
<!-- Node31&#45;&gt;Node13 -->
<g id="edge65" class="edge">
<title>Node31&#45;&gt;Node13</title>
<path fill="none" stroke="midnightblue" d="M251.21,-324.48C222.48,-315.66 176.85,-301.67 140.66,-290.57"/>
<polygon fill="midnightblue" stroke="midnightblue" points="141.32,-287.11 130.73,-287.52 139.26,-293.8 141.32,-287.11"/>
</g>
<!-- Node31&#45;&gt;Node21 -->
<g id="edge62" class="edge">
<title>Node31&#45;&gt;Node21</title>
<path fill="none" stroke="midnightblue" d="M234.34,-331.02C168.79,-327.18 51.08,-316.42 21.01,-288 -6.02,-262.45 2.01,-243.69 2.01,-206.5 2.01,-206.5 2.01,-206.5 2.01,-137.5 2.01,-96.7 22.3,-52.26 35.01,-28.43"/>
<polygon fill="midnightblue" stroke="midnightblue" points="38.14,-30 39.91,-19.55 32.01,-26.62 38.14,-30"/>
</g>
<!-- Node32 -->
<g id="node32" class="node">
<title>Node32</title>
<g id="a_node32"><a xlink:title=" ">
<polygon fill="white" stroke="#bfbfbf" points="234.51,-263 234.51,-282 283.51,-282 283.51,-263 234.51,-263"/>
<text text-anchor="middle" x="259.01" y="-270" font-family="Helvetica,sans-Serif" font-size="10.00">cstddef</text>
</a>
</g>
</g>
<!-- Node31&#45;&gt;Node32 -->
<g id="edge63" class="edge">
<title>Node31&#45;&gt;Node32</title>
<path fill="none" stroke="midnightblue" d="M276.14,-324.48C273.29,-315.99 268.82,-302.7 265.17,-291.82"/>
<polygon fill="midnightblue" stroke="midnightblue" points="268.37,-290.37 261.87,-282.01 261.74,-292.6 268.37,-290.37"/>
</g>
</g>
</svg>
