<?xml version="1.0" encoding="UTF-8" standalone="no"?>
<!DOCTYPE svg PUBLIC "-//W3C//DTD SVG 1.1//EN"
 "http://www.w3.org/Graphics/SVG/1.1/DTD/svg11.dtd">
<!-- Generated by graphviz version 2.44.0 ()
 -->
<!-- Title: include/cppgc/internal/pointer&#45;policies.h Pages: 1 -->
<svg width="524pt" height="296pt"
 viewBox="0.00 0.00 523.50 296.00" xmlns="http://www.w3.org/2000/svg" xmlns:xlink="http://www.w3.org/1999/xlink">
<g id="graph0" class="graph" transform="scale(1 1) rotate(0) translate(4 292)">
<title>include/cppgc/internal/pointer&#45;policies.h</title>
<polygon fill="white" stroke="transparent" points="-4,4 -4,-292 519.5,-292 519.5,4 -4,4"/>
<!-- Node1 -->
<g id="node1" class="node">
<title>Node1</title>
<g id="a_node1"><a xlink:title=" ">
<polygon fill="#bfbfbf" stroke="black" points="139.5,-257.5 139.5,-287.5 250.5,-287.5 250.5,-257.5 139.5,-257.5"/>
<text text-anchor="start" x="147.5" y="-275.5" font-family="Helvetica,sans-Serif" font-size="10.00">include/cppgc/internal</text>
<text text-anchor="middle" x="195" y="-264.5" font-family="Helvetica,sans-Serif" font-size="10.00">/pointer&#45;policies.h</text>
</a>
</g>
</g>
<!-- Node2 -->
<g id="node2" class="node">
<title>Node2</title>
<g id="a_node2"><a xlink:title=" ">
<polygon fill="white" stroke="#bfbfbf" points="0,-196 0,-215 46,-215 46,-196 0,-196"/>
<text text-anchor="middle" x="23" y="-203" font-family="Helvetica,sans-Serif" font-size="10.00">cstdint</text>
</a>
</g>
</g>
<!-- Node1&#45;&gt;Node2 -->
<g id="edge1" class="edge">
<title>Node1&#45;&gt;Node2</title>
<path fill="none" stroke="midnightblue" d="M153.32,-257.44C125.31,-247.75 87.68,-234.27 55,-221 53.59,-220.43 52.15,-219.83 50.69,-219.21"/>
<polygon fill="midnightblue" stroke="midnightblue" points="51.73,-215.84 41.17,-215.03 48.92,-222.25 51.73,-215.84"/>
</g>
<!-- Node3 -->
<g id="node3" class="node">
<title>Node3</title>
<g id="a_node3"><a xlink:title=" ">
<polygon fill="white" stroke="#bfbfbf" points="64,-196 64,-215 126,-215 126,-196 64,-196"/>
<text text-anchor="middle" x="95" y="-203" font-family="Helvetica,sans-Serif" font-size="10.00">type_traits</text>
</a>
</g>
</g>
<!-- Node1&#45;&gt;Node3 -->
<g id="edge2" class="edge">
<title>Node1&#45;&gt;Node3</title>
<path fill="none" stroke="midnightblue" d="M173.3,-257.4C156.53,-246.5 133.43,-231.48 116.67,-220.58"/>
<polygon fill="midnightblue" stroke="midnightblue" points="118.38,-217.52 108.09,-215.01 114.56,-223.39 118.38,-217.52"/>
</g>
<!-- Node4 -->
<g id="node4" class="node">
<title>Node4</title>
<g id="a_node4"><a xlink:href="write-barrier_8h.html" target="_top" xlink:title=" ">
<polygon fill="white" stroke="black" points="144.5,-190.5 144.5,-220.5 245.5,-220.5 245.5,-190.5 144.5,-190.5"/>
<text text-anchor="start" x="152.5" y="-208.5" font-family="Helvetica,sans-Serif" font-size="10.00">cppgc/internal/write</text>
<text text-anchor="middle" x="195" y="-197.5" font-family="Helvetica,sans-Serif" font-size="10.00">&#45;barrier.h</text>
</a>
</g>
</g>
<!-- Node1&#45;&gt;Node4 -->
<g id="edge3" class="edge">
<title>Node1&#45;&gt;Node4</title>
<path fill="none" stroke="midnightblue" d="M195,-257.4C195,-249.64 195,-239.81 195,-230.86"/>
<polygon fill="midnightblue" stroke="midnightblue" points="198.5,-230.58 195,-220.58 191.5,-230.58 198.5,-230.58"/>
</g>
<!-- Node8 -->
<g id="node8" class="node">
<title>Node8</title>
<g id="a_node8"><a xlink:href="v8config_8h.html" target="_top" xlink:title=" ">
<polygon fill="white" stroke="black" points="236,-62 236,-81 296,-81 296,-62 236,-62"/>
<text text-anchor="middle" x="266" y="-69" font-family="Helvetica,sans-Serif" font-size="10.00">v8config.h</text>
</a>
</g>
</g>
<!-- Node1&#45;&gt;Node8 -->
<g id="edge16" class="edge">
<title>Node1&#45;&gt;Node8</title>
<path fill="none" stroke="midnightblue" d="M219.22,-257.37C231.87,-248.6 246.28,-236.13 254,-221 275.58,-178.69 272.38,-120.68 268.84,-91.25"/>
<polygon fill="midnightblue" stroke="midnightblue" points="272.28,-90.59 267.47,-81.15 265.35,-91.53 272.28,-90.59"/>
</g>
<!-- Node12 -->
<g id="node12" class="node">
<title>Node12</title>
<g id="a_node12"><a xlink:href="source-location_8h.html" target="_top" xlink:title=" ">
<polygon fill="white" stroke="black" points="386.5,-196 386.5,-215 505.5,-215 505.5,-196 386.5,-196"/>
<text text-anchor="middle" x="446" y="-203" font-family="Helvetica,sans-Serif" font-size="10.00">cppgc/source&#45;location.h</text>
</a>
</g>
</g>
<!-- Node1&#45;&gt;Node12 -->
<g id="edge13" class="edge">
<title>Node1&#45;&gt;Node12</title>
<path fill="none" stroke="midnightblue" d="M249.15,-257.48C295.32,-245.52 360.77,-228.57 403.3,-217.56"/>
<polygon fill="midnightblue" stroke="midnightblue" points="404.26,-220.92 413.07,-215.03 402.51,-214.15 404.26,-220.92"/>
</g>
<!-- Node5 -->
<g id="node5" class="node">
<title>Node5</title>
<g id="a_node5"><a xlink:href="api-constants_8h.html" target="_top" xlink:title=" ">
<polygon fill="white" stroke="black" points="114.5,-123.5 114.5,-153.5 207.5,-153.5 207.5,-123.5 114.5,-123.5"/>
<text text-anchor="start" x="122.5" y="-141.5" font-family="Helvetica,sans-Serif" font-size="10.00">cppgc/internal/api</text>
<text text-anchor="middle" x="161" y="-130.5" font-family="Helvetica,sans-Serif" font-size="10.00">&#45;constants.h</text>
</a>
</g>
</g>
<!-- Node4&#45;&gt;Node5 -->
<g id="edge4" class="edge">
<title>Node4&#45;&gt;Node5</title>
<path fill="none" stroke="midnightblue" d="M187.62,-190.4C183.39,-182.3 177.97,-171.94 173.13,-162.69"/>
<polygon fill="midnightblue" stroke="midnightblue" points="176.1,-160.82 168.36,-153.58 169.9,-164.06 176.1,-160.82"/>
</g>
<!-- Node4&#45;&gt;Node8 -->
<g id="edge12" class="edge">
<title>Node4&#45;&gt;Node8</title>
<path fill="none" stroke="midnightblue" d="M202.6,-190.37C215.67,-166.08 242.37,-116.44 256.59,-90"/>
<polygon fill="midnightblue" stroke="midnightblue" points="259.72,-91.56 261.38,-81.1 253.56,-88.25 259.72,-91.56"/>
</g>
<!-- Node9 -->
<g id="node9" class="node">
<title>Node9</title>
<g id="a_node9"><a xlink:href="process-heap_8h.html" target="_top" xlink:title=" ">
<polygon fill="white" stroke="black" points="302.5,-123.5 302.5,-153.5 417.5,-153.5 417.5,-123.5 302.5,-123.5"/>
<text text-anchor="start" x="310.5" y="-141.5" font-family="Helvetica,sans-Serif" font-size="10.00">cppgc/internal/process</text>
<text text-anchor="middle" x="360" y="-130.5" font-family="Helvetica,sans-Serif" font-size="10.00">&#45;heap.h</text>
</a>
</g>
</g>
<!-- Node4&#45;&gt;Node9 -->
<g id="edge8" class="edge">
<title>Node4&#45;&gt;Node9</title>
<path fill="none" stroke="midnightblue" d="M230.8,-190.4C255.45,-180.69 288.39,-167.71 314.84,-157.29"/>
<polygon fill="midnightblue" stroke="midnightblue" points="316.25,-160.5 324.27,-153.58 313.68,-153.99 316.25,-160.5"/>
</g>
<!-- Node6 -->
<g id="node6" class="node">
<title>Node6</title>
<g id="a_node6"><a xlink:title=" ">
<polygon fill="white" stroke="#bfbfbf" points="147.5,-62 147.5,-81 198.5,-81 198.5,-62 147.5,-62"/>
<text text-anchor="middle" x="173" y="-69" font-family="Helvetica,sans-Serif" font-size="10.00">stddef.h</text>
</a>
</g>
</g>
<!-- Node5&#45;&gt;Node6 -->
<g id="edge5" class="edge">
<title>Node5&#45;&gt;Node6</title>
<path fill="none" stroke="midnightblue" d="M163.6,-123.4C165.35,-113.96 167.66,-101.45 169.55,-91.19"/>
<polygon fill="midnightblue" stroke="midnightblue" points="173.02,-91.66 171.39,-81.19 166.14,-90.39 173.02,-91.66"/>
</g>
<!-- Node7 -->
<g id="node7" class="node">
<title>Node7</title>
<g id="a_node7"><a xlink:title=" ">
<polygon fill="white" stroke="#bfbfbf" points="81,-62 81,-81 129,-81 129,-62 81,-62"/>
<text text-anchor="middle" x="105" y="-69" font-family="Helvetica,sans-Serif" font-size="10.00">stdint.h</text>
</a>
</g>
</g>
<!-- Node5&#45;&gt;Node7 -->
<g id="edge6" class="edge">
<title>Node5&#45;&gt;Node7</title>
<path fill="none" stroke="midnightblue" d="M148.85,-123.4C140.12,-113.26 128.32,-99.57 119.16,-88.94"/>
<polygon fill="midnightblue" stroke="midnightblue" points="121.67,-86.49 112.49,-81.19 116.37,-91.06 121.67,-86.49"/>
</g>
<!-- Node5&#45;&gt;Node8 -->
<g id="edge7" class="edge">
<title>Node5&#45;&gt;Node8</title>
<path fill="none" stroke="midnightblue" d="M183.78,-123.4C201.55,-112.39 226.1,-97.2 243.74,-86.28"/>
<polygon fill="midnightblue" stroke="midnightblue" points="245.6,-89.25 252.26,-81.01 241.91,-83.29 245.6,-89.25"/>
</g>
<!-- Node9&#45;&gt;Node8 -->
<g id="edge11" class="edge">
<title>Node9&#45;&gt;Node8</title>
<path fill="none" stroke="midnightblue" d="M339.6,-123.4C323.99,-112.6 302.52,-97.76 286.81,-86.89"/>
<polygon fill="midnightblue" stroke="midnightblue" points="288.52,-83.82 278.3,-81.01 284.54,-89.57 288.52,-83.82"/>
</g>
<!-- Node10 -->
<g id="node10" class="node">
<title>Node10</title>
<g id="a_node10"><a xlink:href="atomic-entry-flag_8h.html" target="_top" xlink:title=" ">
<polygon fill="white" stroke="black" points="314,-56.5 314,-86.5 424,-86.5 424,-56.5 314,-56.5"/>
<text text-anchor="start" x="322" y="-74.5" font-family="Helvetica,sans-Serif" font-size="10.00">cppgc/internal/atomic</text>
<text text-anchor="middle" x="369" y="-63.5" font-family="Helvetica,sans-Serif" font-size="10.00">&#45;entry&#45;flag.h</text>
</a>
</g>
</g>
<!-- Node9&#45;&gt;Node10 -->
<g id="edge9" class="edge">
<title>Node9&#45;&gt;Node10</title>
<path fill="none" stroke="midnightblue" d="M361.95,-123.4C363.04,-115.56 364.42,-105.6 365.67,-96.57"/>
<polygon fill="midnightblue" stroke="midnightblue" points="369.15,-96.96 367.05,-86.58 362.21,-96 369.15,-96.96"/>
</g>
<!-- Node11 -->
<g id="node11" class="node">
<title>Node11</title>
<g id="a_node11"><a xlink:title=" ">
<polygon fill="white" stroke="#bfbfbf" points="346,-0.5 346,-19.5 392,-19.5 392,-0.5 346,-0.5"/>
<text text-anchor="middle" x="369" y="-7.5" font-family="Helvetica,sans-Serif" font-size="10.00">atomic</text>
</a>
</g>
</g>
<!-- Node10&#45;&gt;Node11 -->
<g id="edge10" class="edge">
<title>Node10&#45;&gt;Node11</title>
<path fill="none" stroke="midnightblue" d="M369,-56.4C369,-48.47 369,-38.46 369,-29.86"/>
<polygon fill="midnightblue" stroke="midnightblue" points="372.5,-29.66 369,-19.66 365.5,-29.66 372.5,-29.66"/>
</g>
<!-- Node12&#45;&gt;Node8 -->
<g id="edge15" class="edge">
<title>Node12&#45;&gt;Node8</title>
<path fill="none" stroke="midnightblue" d="M446.49,-195.56C446.9,-178.97 445.29,-143.25 426,-123 387.3,-82.37 358.21,-104.79 305,-87 302.6,-86.2 300.13,-85.35 297.65,-84.47"/>
<polygon fill="midnightblue" stroke="midnightblue" points="298.78,-81.15 288.18,-81.04 296.39,-87.74 298.78,-81.15"/>
</g>
<!-- Node13 -->
<g id="node13" class="node">
<title>Node13</title>
<g id="a_node13"><a xlink:title=" ">
<polygon fill="white" stroke="#bfbfbf" points="474.5,-129 474.5,-148 515.5,-148 515.5,-129 474.5,-129"/>
<text text-anchor="middle" x="495" y="-136" font-family="Helvetica,sans-Serif" font-size="10.00">string</text>
</a>
</g>
</g>
<!-- Node12&#45;&gt;Node13 -->
<g id="edge14" class="edge">
<title>Node12&#45;&gt;Node13</title>
<path fill="none" stroke="midnightblue" d="M452.61,-195.73C460.18,-185.7 472.75,-169.01 482.24,-156.42"/>
<polygon fill="midnightblue" stroke="midnightblue" points="485.27,-158.22 488.5,-148.13 479.68,-154.01 485.27,-158.22"/>
</g>
</g>
</svg>
