<?xml version="1.0" encoding="UTF-8" standalone="no"?>
<!DOCTYPE svg PUBLIC "-//W3C//DTD SVG 1.1//EN"
 "http://www.w3.org/Graphics/SVG/1.1/DTD/svg11.dtd">
<!-- Generated by graphviz version 2.44.0 ()
 -->
<!-- Title: cppgc::internal::IsGarbageCollectedMixinType&lt; T, typename &gt; Pages: 1 -->
<svg width="156pt" height="253pt"
 viewBox="0.00 0.00 156.00 253.00" xmlns="http://www.w3.org/2000/svg" xmlns:xlink="http://www.w3.org/1999/xlink">
<g id="graph0" class="graph" transform="scale(1 1) rotate(0) translate(4 249)">
<title>cppgc::internal::IsGarbageCollectedMixinType&lt; T, typename &gt;</title>
<polygon fill="white" stroke="transparent" points="-4,4 -4,-249 152,-249 152,4 -4,4"/>
<!-- Node1 -->
<g id="node1" class="node">
<title>Node1</title>
<g id="a_node1"><a xlink:title=" ">
<polygon fill="#bfbfbf" stroke="black" points="10,-146.5 10,-187.5 138,-187.5 138,-146.5 10,-146.5"/>
<text text-anchor="start" x="18" y="-175.5" font-family="Helvetica,sans-Serif" font-size="10.00">cppgc::internal::IsGarbage</text>
<text text-anchor="start" x="18" y="-164.5" font-family="Helvetica,sans-Serif" font-size="10.00">CollectedMixinType&lt; T,</text>
<text text-anchor="middle" x="74" y="-153.5" font-family="Helvetica,sans-Serif" font-size="10.00"> typename &gt;</text>
</a>
</g>
</g>
<!-- Node3 -->
<g id="node3" class="node">
<title>Node3</title>
<g id="a_node3"><a xlink:href="structcppgc_1_1internal_1_1IsGarbageCollectedMixinType.html" target="_top" xlink:title=" ">
<polygon fill="white" stroke="black" points="10,-68.5 10,-98.5 138,-98.5 138,-68.5 10,-68.5"/>
<text text-anchor="start" x="18" y="-86.5" font-family="Helvetica,sans-Serif" font-size="10.00">cppgc::internal::IsGarbage</text>
<text text-anchor="middle" x="74" y="-75.5" font-family="Helvetica,sans-Serif" font-size="10.00">CollectedMixinType&lt; T &gt;</text>
</a>
</g>
</g>
<!-- Node1&#45;&gt;Node3 -->
<g id="edge2" class="edge">
<title>Node1&#45;&gt;Node3</title>
<path fill="none" stroke="orange" stroke-dasharray="5,2" d="M74,-136.03C74,-123.26 74,-108.97 74,-98.68"/>
<polygon fill="orange" stroke="orange" points="70.5,-136.27 74,-146.27 77.5,-136.27 70.5,-136.27"/>
<text text-anchor="middle" x="86.5" y="-120" font-family="Helvetica,sans-Serif" font-size="10.00"> &lt; T &gt;</text>
</g>
<!-- Node2 -->
<g id="node2" class="node">
<title>Node2</title>
<g id="a_node2"><a xlink:title=" ">
<polygon fill="white" stroke="#bfbfbf" points="43.5,-225.5 43.5,-244.5 104.5,-244.5 104.5,-225.5 43.5,-225.5"/>
<text text-anchor="middle" x="74" y="-232.5" font-family="Helvetica,sans-Serif" font-size="10.00">false_type</text>
</a>
</g>
</g>
<!-- Node2&#45;&gt;Node1 -->
<g id="edge1" class="edge">
<title>Node2&#45;&gt;Node1</title>
<path fill="none" stroke="midnightblue" d="M74,-215.25C74,-206.65 74,-196.45 74,-187.74"/>
<polygon fill="midnightblue" stroke="midnightblue" points="70.5,-215.37 74,-225.37 77.5,-215.37 70.5,-215.37"/>
</g>
<!-- Node4 -->
<g id="node4" class="node">
<title>Node4</title>
<g id="a_node4"><a xlink:href="structcppgc_1_1internal_1_1IsGarbageCollectedType.html" target="_top" xlink:title=" ">
<polygon fill="white" stroke="black" points="0,-0.5 0,-30.5 148,-30.5 148,-0.5 0,-0.5"/>
<text text-anchor="start" x="8" y="-18.5" font-family="Helvetica,sans-Serif" font-size="10.00">cppgc::internal::IsGarbage</text>
<text text-anchor="middle" x="74" y="-7.5" font-family="Helvetica,sans-Serif" font-size="10.00">CollectedType&lt; T, typename &gt;</text>
</a>
</g>
</g>
<!-- Node3&#45;&gt;Node4 -->
<g id="edge3" class="edge">
<title>Node3&#45;&gt;Node4</title>
<path fill="none" stroke="midnightblue" d="M74,-58.03C74,-48.86 74,-38.74 74,-30.79"/>
<polygon fill="midnightblue" stroke="midnightblue" points="70.5,-58.18 74,-68.18 77.5,-58.18 70.5,-58.18"/>
</g>
</g>
</svg>
