<?xml version="1.0" encoding="UTF-8" standalone="no"?>
<!DOCTYPE svg PUBLIC "-//W3C//DTD SVG 1.1//EN"
 "http://www.w3.org/Graphics/SVG/1.1/DTD/svg11.dtd">
<!-- Generated by graphviz version 2.44.0 ()
 -->
<!-- Title: v8::IndexedPropertyHandlerConfiguration Pages: 1 -->
<svg width="592pt" height="301pt"
 viewBox="0.00 0.00 592.00 300.50" xmlns="http://www.w3.org/2000/svg" xmlns:xlink="http://www.w3.org/1999/xlink">
<g id="graph0" class="graph" transform="scale(1 1) rotate(0) translate(4 296.5)">
<title>v8::IndexedPropertyHandlerConfiguration</title>
<polygon fill="white" stroke="transparent" points="-4,4 -4,-296.5 588,-296.5 588,4 -4,4"/>
<!-- Node1 -->
<g id="node1" class="node">
<title>Node1</title>
<g id="a_node1"><a xlink:title=" ">
<polygon fill="#bfbfbf" stroke="black" points="449,-115 449,-145 584,-145 584,-115 449,-115"/>
<text text-anchor="start" x="457" y="-133" font-family="Helvetica,sans-Serif" font-size="10.00">v8::IndexedPropertyHandler</text>
<text text-anchor="middle" x="516.5" y="-122" font-family="Helvetica,sans-Serif" font-size="10.00">Configuration</text>
</a>
</g>
</g>
<!-- Node2 -->
<g id="node2" class="node">
<title>Node2</title>
<g id="a_node2"><a xlink:href="classv8_1_1PropertyCallbackInfo.html" target="_top" xlink:title=" ">
<polygon fill="white" stroke="black" points="239,-262 239,-292 361,-292 361,-262 239,-262"/>
<text text-anchor="start" x="247" y="-280" font-family="Helvetica,sans-Serif" font-size="10.00">v8::PropertyCallbackInfo</text>
<text text-anchor="middle" x="300" y="-269" font-family="Helvetica,sans-Serif" font-size="10.00">&lt; Value &gt;</text>
</a>
</g>
</g>
<!-- Node2&#45;&gt;Node1 -->
<g id="edge1" class="edge">
<title>Node2&#45;&gt;Node1</title>
<path fill="none" stroke="#9a32cd" stroke-dasharray="5,2" d="M350.74,-257.83C354.24,-256.26 357.69,-254.64 361,-253 393.5,-236.88 402.17,-233.02 431,-211 457.97,-190.4 485.71,-162.21 501.74,-145.09"/>
<polygon fill="#9a32cd" stroke="#9a32cd" points="349.2,-254.68 341.41,-261.87 351.98,-261.11 349.2,-254.68"/>
<text text-anchor="middle" x="405" y="-257" font-family="Helvetica,sans-Serif" font-size="10.00"> descriptor</text>
<text text-anchor="middle" x="405" y="-246" font-family="Helvetica,sans-Serif" font-size="10.00">getter</text>
</g>
<!-- Node3 -->
<g id="node3" class="node">
<title>Node3</title>
<g id="a_node3"><a xlink:href="classv8_1_1PropertyCallbackInfo.html" target="_top" xlink:title=" ">
<polygon fill="white" stroke="black" points="0,-193.5 0,-212.5 144,-212.5 144,-193.5 0,-193.5"/>
<text text-anchor="middle" x="72" y="-200.5" font-family="Helvetica,sans-Serif" font-size="10.00">v8::PropertyCallbackInfo&lt; T &gt;</text>
</a>
</g>
</g>
<!-- Node3&#45;&gt;Node2 -->
<g id="edge2" class="edge">
<title>Node3&#45;&gt;Node2</title>
<path fill="none" stroke="orange" stroke-dasharray="5,2" d="M109.37,-215.96C125.46,-221.61 144.63,-228.25 162,-234 190.99,-243.6 223.61,-253.85 249.74,-261.94"/>
<polygon fill="orange" stroke="orange" points="110.39,-212.6 99.8,-212.58 108.07,-219.21 110.39,-212.6"/>
<text text-anchor="middle" x="191.5" y="-255" font-family="Helvetica,sans-Serif" font-size="10.00"> &lt; Value &gt;</text>
</g>
<!-- Node4 -->
<g id="node4" class="node">
<title>Node4</title>
<g id="a_node4"><a xlink:href="classv8_1_1PropertyCallbackInfo.html" target="_top" xlink:title=" ">
<polygon fill="white" stroke="black" points="239,-213 239,-243 361,-243 361,-213 239,-213"/>
<text text-anchor="start" x="247" y="-231" font-family="Helvetica,sans-Serif" font-size="10.00">v8::PropertyCallbackInfo</text>
<text text-anchor="middle" x="300" y="-220" font-family="Helvetica,sans-Serif" font-size="10.00">&lt; Boolean &gt;</text>
</a>
</g>
</g>
<!-- Node3&#45;&gt;Node4 -->
<g id="edge4" class="edge">
<title>Node3&#45;&gt;Node4</title>
<path fill="none" stroke="orange" stroke-dasharray="5,2" d="M154.33,-212C182.21,-215.08 212.89,-218.47 238.8,-221.34"/>
<polygon fill="orange" stroke="orange" points="154.52,-208.5 144.2,-210.88 153.75,-215.45 154.52,-208.5"/>
<text text-anchor="middle" x="191.5" y="-222" font-family="Helvetica,sans-Serif" font-size="10.00"> &lt; Boolean &gt;</text>
</g>
<!-- Node5 -->
<g id="node5" class="node">
<title>Node5</title>
<g id="a_node5"><a xlink:href="classv8_1_1PropertyCallbackInfo.html" target="_top" xlink:title=" ">
<polygon fill="white" stroke="black" points="239,-164 239,-194 361,-194 361,-164 239,-164"/>
<text text-anchor="start" x="247" y="-182" font-family="Helvetica,sans-Serif" font-size="10.00">v8::PropertyCallbackInfo</text>
<text text-anchor="middle" x="300" y="-171" font-family="Helvetica,sans-Serif" font-size="10.00">&lt; Array &gt;</text>
</a>
</g>
</g>
<!-- Node3&#45;&gt;Node5 -->
<g id="edge6" class="edge">
<title>Node3&#45;&gt;Node5</title>
<path fill="none" stroke="orange" stroke-dasharray="5,2" d="M151.51,-192.21C155.06,-191.79 158.56,-191.38 162,-191 187.15,-188.2 214.97,-185.67 238.92,-183.65"/>
<polygon fill="orange" stroke="orange" points="150.97,-188.75 141.47,-193.44 151.82,-195.7 150.97,-188.75"/>
<text text-anchor="middle" x="191.5" y="-194" font-family="Helvetica,sans-Serif" font-size="10.00"> &lt; Array &gt;</text>
</g>
<!-- Node6 -->
<g id="node6" class="node">
<title>Node6</title>
<g id="a_node6"><a xlink:href="classv8_1_1PropertyCallbackInfo.html" target="_top" xlink:title=" ">
<polygon fill="white" stroke="black" points="239,-115 239,-145 361,-145 361,-115 239,-115"/>
<text text-anchor="start" x="247" y="-133" font-family="Helvetica,sans-Serif" font-size="10.00">v8::PropertyCallbackInfo</text>
<text text-anchor="middle" x="300" y="-122" font-family="Helvetica,sans-Serif" font-size="10.00">&lt; Integer &gt;</text>
</a>
</g>
</g>
<!-- Node3&#45;&gt;Node6 -->
<g id="edge8" class="edge">
<title>Node3&#45;&gt;Node6</title>
<path fill="none" stroke="orange" stroke-dasharray="5,2" d="M107.13,-189.7C123.61,-183.44 143.73,-176.05 162,-170 188.82,-161.13 218.92,-152.22 244.06,-145.08"/>
<polygon fill="orange" stroke="orange" points="105.48,-186.58 97.39,-193.42 107.98,-193.12 105.48,-186.58"/>
<text text-anchor="middle" x="191.5" y="-173" font-family="Helvetica,sans-Serif" font-size="10.00"> &lt; Integer &gt;</text>
</g>
<!-- Node4&#45;&gt;Node1 -->
<g id="edge3" class="edge">
<title>Node4&#45;&gt;Node1</title>
<path fill="none" stroke="#9a32cd" stroke-dasharray="5,2" d="M348.22,-209.17C352.54,-207.43 356.85,-205.69 361,-204 392.19,-191.3 400.55,-189.38 431,-175 450.69,-165.71 472.35,-154.14 488.82,-145.06"/>
<polygon fill="#9a32cd" stroke="#9a32cd" points="346.77,-205.99 338.8,-212.96 349.38,-212.48 346.77,-205.99"/>
<text text-anchor="middle" x="405" y="-199" font-family="Helvetica,sans-Serif" font-size="10.00"> deleter</text>
</g>
<!-- Node5&#45;&gt;Node1 -->
<g id="edge5" class="edge">
<title>Node5&#45;&gt;Node1</title>
<path fill="none" stroke="#9a32cd" stroke-dasharray="5,2" d="M370.95,-163.02C396.31,-157.23 424.85,-150.71 449.83,-145"/>
<polygon fill="#9a32cd" stroke="#9a32cd" points="370,-159.65 361.04,-165.29 371.56,-166.47 370,-159.65"/>
<text text-anchor="middle" x="405" y="-163" font-family="Helvetica,sans-Serif" font-size="10.00"> enumerator</text>
</g>
<!-- Node6&#45;&gt;Node1 -->
<g id="edge7" class="edge">
<title>Node6&#45;&gt;Node1</title>
<path fill="none" stroke="#9a32cd" stroke-dasharray="5,2" d="M371.15,-130C396.07,-130 424.05,-130 448.69,-130"/>
<polygon fill="#9a32cd" stroke="#9a32cd" points="371.04,-126.5 361.04,-130 371.04,-133.5 371.04,-126.5"/>
<text text-anchor="middle" x="405" y="-133" font-family="Helvetica,sans-Serif" font-size="10.00"> query</text>
</g>
<!-- Node7 -->
<g id="node7" class="node">
<title>Node7</title>
<g id="a_node7"><a xlink:href="classv8_1_1PropertyDescriptor.html" target="_top" xlink:title=" ">
<polygon fill="white" stroke="black" points="244,-76.5 244,-95.5 356,-95.5 356,-76.5 244,-76.5"/>
<text text-anchor="middle" x="300" y="-83.5" font-family="Helvetica,sans-Serif" font-size="10.00">v8::PropertyDescriptor</text>
</a>
</g>
</g>
<!-- Node7&#45;&gt;Node1 -->
<g id="edge9" class="edge">
<title>Node7&#45;&gt;Node1</title>
<path fill="none" stroke="#9a32cd" stroke-dasharray="5,2" d="M357.56,-97.6C385.52,-103.34 419.46,-110.3 448.7,-116.3"/>
<polygon fill="#9a32cd" stroke="#9a32cd" points="358.04,-94.13 347.54,-95.55 356.64,-100.99 358.04,-94.13"/>
<text text-anchor="middle" x="405" y="-114" font-family="Helvetica,sans-Serif" font-size="10.00"> definer</text>
</g>
<!-- Node8 -->
<g id="node8" class="node">
<title>Node8</title>
<g id="a_node8"><a xlink:href="classv8_1_1Local.html" target="_top" xlink:title=" ">
<polygon fill="white" stroke="black" points="251.5,-38.5 251.5,-57.5 348.5,-57.5 348.5,-38.5 251.5,-38.5"/>
<text text-anchor="middle" x="300" y="-45.5" font-family="Helvetica,sans-Serif" font-size="10.00">v8::Local&lt; Value &gt;</text>
</a>
</g>
</g>
<!-- Node8&#45;&gt;Node1 -->
<g id="edge10" class="edge">
<title>Node8&#45;&gt;Node1</title>
<path fill="none" stroke="#9a32cd" stroke-dasharray="5,2" d="M349.07,-60.2C373.9,-67.06 404.47,-76.37 431,-87 451.02,-95.02 472.67,-106.09 489.05,-114.99"/>
<polygon fill="#9a32cd" stroke="#9a32cd" points="349.73,-56.75 339.16,-57.51 347.89,-63.51 349.73,-56.75"/>
<text text-anchor="middle" x="405" y="-90" font-family="Helvetica,sans-Serif" font-size="10.00"> setter</text>
</g>
<!-- Node9 -->
<g id="node9" class="node">
<title>Node9</title>
<g id="a_node9"><a xlink:href="classv8_1_1Local.html" target="_top" xlink:title=" ">
<polygon fill="white" stroke="black" points="33,-19.5 33,-38.5 111,-38.5 111,-19.5 33,-19.5"/>
<text text-anchor="middle" x="72" y="-26.5" font-family="Helvetica,sans-Serif" font-size="10.00">v8::Local&lt; T &gt;</text>
</a>
</g>
</g>
<!-- Node9&#45;&gt;Node8 -->
<g id="edge11" class="edge">
<title>Node9&#45;&gt;Node8</title>
<path fill="none" stroke="orange" stroke-dasharray="5,2" d="M121.48,-33.08C159.86,-36.3 213.16,-40.78 251.32,-43.99"/>
<polygon fill="orange" stroke="orange" points="121.34,-29.55 111.08,-32.2 120.75,-36.53 121.34,-29.55"/>
<text text-anchor="middle" x="191.5" y="-45" font-family="Helvetica,sans-Serif" font-size="10.00"> &lt; Value &gt;</text>
</g>
<!-- Node10 -->
<g id="node10" class="node">
<title>Node10</title>
<g id="a_node10"><a xlink:href="classv8_1_1Local.html" target="_top" xlink:title=" ">
<polygon fill="white" stroke="black" points="244,-0.5 244,-19.5 356,-19.5 356,-0.5 244,-0.5"/>
<text text-anchor="middle" x="300" y="-7.5" font-family="Helvetica,sans-Serif" font-size="10.00">v8::Local&lt; v8::Value &gt;</text>
</a>
</g>
</g>
<!-- Node9&#45;&gt;Node10 -->
<g id="edge13" class="edge">
<title>Node9&#45;&gt;Node10</title>
<path fill="none" stroke="orange" stroke-dasharray="5,2" d="M121.31,-24.94C157.24,-21.92 206.32,-17.79 243.8,-14.64"/>
<polygon fill="orange" stroke="orange" points="120.75,-21.47 111.08,-25.8 121.34,-28.45 120.75,-21.47"/>
<text text-anchor="middle" x="191.5" y="-25" font-family="Helvetica,sans-Serif" font-size="10.00"> &lt; v8::Value &gt;</text>
</g>
<!-- Node10&#45;&gt;Node1 -->
<g id="edge12" class="edge">
<title>Node10&#45;&gt;Node1</title>
<path fill="none" stroke="#9a32cd" stroke-dasharray="5,2" d="M341.82,-22.71C348.25,-24.77 354.82,-26.92 361,-29 392.31,-39.54 402.63,-37.08 431,-54 459.3,-70.88 486.64,-98.08 502.22,-114.95"/>
<polygon fill="#9a32cd" stroke="#9a32cd" points="342.49,-19.25 331.9,-19.55 340.37,-25.92 342.49,-19.25"/>
<text text-anchor="middle" x="405" y="-57" font-family="Helvetica,sans-Serif" font-size="10.00"> data</text>
</g>
</g>
</svg>
