<?xml version="1.0" encoding="UTF-8" standalone="no"?>
<!DOCTYPE svg PUBLIC "-//W3C//DTD SVG 1.1//EN"
 "http://www.w3.org/Graphics/SVG/1.1/DTD/svg11.dtd">
<!-- Generated by graphviz version 2.44.0 ()
 -->
<!-- Title: v8::ModifyCodeGenerationFromStringsResult Pages: 1 -->
<svg width="146pt" height="184pt"
 viewBox="0.00 0.00 146.00 184.00" xmlns="http://www.w3.org/2000/svg" xmlns:xlink="http://www.w3.org/1999/xlink">
<g id="graph0" class="graph" transform="scale(1 1) rotate(0) translate(4 180)">
<title>v8::ModifyCodeGenerationFromStringsResult</title>
<polygon fill="white" stroke="transparent" points="-4,4 -4,-180 142,-180 142,4 -4,4"/>
<!-- Node1 -->
<g id="node1" class="node">
<title>Node1</title>
<g id="a_node1"><a xlink:title=" ">
<polygon fill="#bfbfbf" stroke="black" points="0,-0.5 0,-30.5 130,-30.5 130,-0.5 0,-0.5"/>
<text text-anchor="start" x="8" y="-18.5" font-family="Helvetica,sans-Serif" font-size="10.00">v8::ModifyCodeGeneration</text>
<text text-anchor="middle" x="65" y="-7.5" font-family="Helvetica,sans-Serif" font-size="10.00">FromStringsResult</text>
</a>
</g>
</g>
<!-- Node2 -->
<g id="node2" class="node">
<title>Node2</title>
<g id="a_node2"><a xlink:href="classv8_1_1MaybeLocal.html" target="_top" xlink:title=" ">
<polygon fill="white" stroke="black" points="13.5,-78.5 13.5,-108.5 116.5,-108.5 116.5,-78.5 13.5,-78.5"/>
<text text-anchor="start" x="21.5" y="-96.5" font-family="Helvetica,sans-Serif" font-size="10.00">v8::MaybeLocal&lt; v8</text>
<text text-anchor="middle" x="65" y="-85.5" font-family="Helvetica,sans-Serif" font-size="10.00">::String &gt;</text>
</a>
</g>
</g>
<!-- Node2&#45;&gt;Node1 -->
<g id="edge1" class="edge">
<title>Node2&#45;&gt;Node1</title>
<path fill="none" stroke="#9a32cd" stroke-dasharray="5,2" d="M65,-68.09C65,-55.76 65,-41.22 65,-30.73"/>
<polygon fill="#9a32cd" stroke="#9a32cd" points="61.5,-68.2 65,-78.2 68.5,-68.21 61.5,-68.2"/>
<text text-anchor="middle" x="101.5" y="-52" font-family="Helvetica,sans-Serif" font-size="10.00"> modified_source</text>
</g>
<!-- Node3 -->
<g id="node3" class="node">
<title>Node3</title>
<g id="a_node3"><a xlink:href="classv8_1_1MaybeLocal.html" target="_top" xlink:title=" ">
<polygon fill="white" stroke="black" points="11.5,-156.5 11.5,-175.5 118.5,-175.5 118.5,-156.5 11.5,-156.5"/>
<text text-anchor="middle" x="65" y="-163.5" font-family="Helvetica,sans-Serif" font-size="10.00">v8::MaybeLocal&lt; T &gt;</text>
</a>
</g>
</g>
<!-- Node3&#45;&gt;Node2 -->
<g id="edge2" class="edge">
<title>Node3&#45;&gt;Node2</title>
<path fill="none" stroke="orange" stroke-dasharray="5,2" d="M65,-146.24C65,-134.41 65,-119.38 65,-108.58"/>
<polygon fill="orange" stroke="orange" points="61.5,-146.36 65,-156.36 68.5,-146.36 61.5,-146.36"/>
<text text-anchor="middle" x="95" y="-130" font-family="Helvetica,sans-Serif" font-size="10.00"> &lt; v8::String &gt;</text>
</g>
</g>
</svg>
