<?xml version="1.0" encoding="UTF-8" standalone="no"?>
<!DOCTYPE svg PUBLIC "-//W3C//DTD SVG 1.1//EN"
 "http://www.w3.org/Graphics/SVG/1.1/DTD/svg11.dtd">
<!-- Generated by graphviz version 2.44.0 ()
 -->
<!-- Title: cppgc::internal::DijkstraWriteBarrierPolicy::AssigningBarrier Pages: 1 -->
<svg width="562pt" height="50pt"
 viewBox="0.00 0.00 562.00 50.00" xmlns="http://www.w3.org/2000/svg" xmlns:xlink="http://www.w3.org/1999/xlink">
<g id="graph0" class="graph" transform="scale(1 1) rotate(0) translate(4 46)">
<title>cppgc::internal::DijkstraWriteBarrierPolicy::AssigningBarrier</title>
<polygon fill="white" stroke="transparent" points="-4,4 -4,-46 558,-46 558,4 -4,4"/>
<!-- Node1 -->
<g id="node1" class="node">
<title>Node1</title>
<g id="a_node1"><a xlink:title=" ">
<polygon fill="#bfbfbf" stroke="black" points="0,-6 0,-36 170,-36 170,-6 0,-6"/>
<text text-anchor="start" x="8" y="-24" font-family="Helvetica,sans-Serif" font-size="10.00">cppgc::internal::Dijkstra</text>
<text text-anchor="middle" x="85" y="-13" font-family="Helvetica,sans-Serif" font-size="10.00">WriteBarrierPolicy::AssigningBarrier</text>
</a>
</g>
</g>
<!-- Node2 -->
<g id="node2" class="node">
<title>Node2</title>
<g id="a_node2"><a xlink:href="classcppgc_1_1internal_1_1WriteBarrier.html#a3f2e257ae7dd38e9eb361b3d0fc22027" target="_top" xlink:title=" ">
<polygon fill="white" stroke="black" points="206,-6 206,-36 340,-36 340,-6 206,-6"/>
<text text-anchor="start" x="214" y="-24" font-family="Helvetica,sans-Serif" font-size="10.00">cppgc::internal::WriteBarrier</text>
<text text-anchor="middle" x="273" y="-13" font-family="Helvetica,sans-Serif" font-size="10.00">::MarkingBarrier</text>
</a>
</g>
</g>
<!-- Node1&#45;&gt;Node2 -->
<g id="edge1" class="edge">
<title>Node1&#45;&gt;Node2</title>
<path fill="none" stroke="midnightblue" d="M170.02,-21C178.58,-21 187.23,-21 195.7,-21"/>
<polygon fill="midnightblue" stroke="midnightblue" points="195.91,-24.5 205.91,-21 195.91,-17.5 195.91,-24.5"/>
</g>
<!-- Node3 -->
<g id="node3" class="node">
<title>Node3</title>
<g id="a_node3"><a xlink:href="classcppgc_1_1internal_1_1ProcessHeap.html#a757ef63e8415777e4348c8bb8a5cc88e" target="_top" xlink:title=" ">
<polygon fill="white" stroke="black" points="376,-0.5 376,-41.5 554,-41.5 554,-0.5 376,-0.5"/>
<text text-anchor="start" x="384" y="-29.5" font-family="Helvetica,sans-Serif" font-size="10.00">cppgc::internal::Process</text>
<text text-anchor="start" x="384" y="-18.5" font-family="Helvetica,sans-Serif" font-size="10.00">Heap::IsAnyIncrementalOrConcurrent</text>
<text text-anchor="middle" x="465" y="-7.5" font-family="Helvetica,sans-Serif" font-size="10.00">Marking</text>
</a>
</g>
</g>
<!-- Node2&#45;&gt;Node3 -->
<g id="edge2" class="edge">
<title>Node2&#45;&gt;Node3</title>
<path fill="none" stroke="midnightblue" d="M340.19,-21C348.5,-21 357.14,-21 365.81,-21"/>
<polygon fill="midnightblue" stroke="midnightblue" points="365.99,-24.5 375.99,-21 365.99,-17.5 365.99,-24.5"/>
</g>
</g>
</svg>
