<?xml version="1.0" encoding="UTF-8" standalone="no"?>
<!DOCTYPE svg PUBLIC "-//W3C//DTD SVG 1.1//EN"
 "http://www.w3.org/Graphics/SVG/1.1/DTD/svg11.dtd">
<!-- Generated by graphviz version 2.44.0 ()
 -->
<!-- Title: include/cppgc/trace&#45;trait.h Pages: 1 -->
<svg width="567pt" height="229pt"
 viewBox="0.00 0.00 566.50 229.00" xmlns="http://www.w3.org/2000/svg" xmlns:xlink="http://www.w3.org/1999/xlink">
<g id="graph0" class="graph" transform="scale(1 1) rotate(0) translate(4 225)">
<title>include/cppgc/trace&#45;trait.h</title>
<polygon fill="white" stroke="transparent" points="-4,4 -4,-225 562.5,-225 562.5,4 -4,4"/>
<!-- Node1 -->
<g id="node1" class="node">
<title>Node1</title>
<g id="a_node1"><a xlink:title=" ">
<polygon fill="#bfbfbf" stroke="black" points="235.5,-190.5 235.5,-220.5 336.5,-220.5 336.5,-190.5 235.5,-190.5"/>
<text text-anchor="start" x="243.5" y="-208.5" font-family="Helvetica,sans-Serif" font-size="10.00">include/cppgc/trace</text>
<text text-anchor="middle" x="286" y="-197.5" font-family="Helvetica,sans-Serif" font-size="10.00">&#45;trait.h</text>
</a>
</g>
</g>
<!-- Node2 -->
<g id="node2" class="node">
<title>Node2</title>
<g id="a_node2"><a xlink:href="garbage-collected_8h.html" target="_top" xlink:title=" ">
<polygon fill="white" stroke="black" points="144,-123.5 144,-153.5 258,-153.5 258,-123.5 144,-123.5"/>
<text text-anchor="start" x="152" y="-141.5" font-family="Helvetica,sans-Serif" font-size="10.00">include/cppgc/garbage</text>
<text text-anchor="middle" x="201" y="-130.5" font-family="Helvetica,sans-Serif" font-size="10.00">&#45;collected.h</text>
</a>
</g>
</g>
<!-- Node1&#45;&gt;Node2 -->
<g id="edge1" class="edge">
<title>Node1&#45;&gt;Node2</title>
<path fill="none" stroke="midnightblue" d="M259.41,-184.17C246.41,-174.23 231.1,-162.51 219.41,-153.58"/>
<polygon fill="midnightblue" stroke="midnightblue" points="257.49,-187.1 267.56,-190.4 261.74,-181.54 257.49,-187.1"/>
</g>
<!-- Node4 -->
<g id="node4" class="node">
<title>Node4</title>
<g id="a_node4"><a xlink:href="visitor_8h.html" target="_top" xlink:title=" ">
<polygon fill="white" stroke="black" points="146.5,-62 146.5,-81 259.5,-81 259.5,-62 146.5,-62"/>
<text text-anchor="middle" x="203" y="-69" font-family="Helvetica,sans-Serif" font-size="10.00">include/cppgc/visitor.h</text>
</a>
</g>
</g>
<!-- Node1&#45;&gt;Node4 -->
<g id="edge15" class="edge">
<title>Node1&#45;&gt;Node4</title>
<path fill="none" stroke="midnightblue" d="M284.56,-180.14C282.58,-163.02 277.93,-140.2 267,-123 255.16,-104.36 233.99,-89.69 219.25,-81.07"/>
<polygon fill="midnightblue" stroke="midnightblue" points="281.11,-180.81 285.51,-190.45 288.08,-180.17 281.11,-180.81"/>
</g>
<!-- Node7 -->
<g id="node7" class="node">
<title>Node7</title>
<g id="a_node7"><a xlink:href="gc-info_8h.html" target="_top" xlink:title=" ">
<polygon fill="white" stroke="black" points="12.5,-123.5 12.5,-153.5 123.5,-153.5 123.5,-123.5 12.5,-123.5"/>
<text text-anchor="start" x="20.5" y="-141.5" font-family="Helvetica,sans-Serif" font-size="10.00">include/cppgc/internal</text>
<text text-anchor="middle" x="68" y="-130.5" font-family="Helvetica,sans-Serif" font-size="10.00">/gc&#45;info.h</text>
</a>
</g>
</g>
<!-- Node1&#45;&gt;Node7 -->
<g id="edge6" class="edge">
<title>Node1&#45;&gt;Node7</title>
<path fill="none" stroke="midnightblue" d="M229.25,-187.58C193.84,-177.02 148.8,-163.59 115.33,-153.61"/>
<polygon fill="midnightblue" stroke="midnightblue" points="228.38,-190.97 238.97,-190.48 230.38,-184.26 228.38,-190.97"/>
</g>
<!-- Node8 -->
<g id="node8" class="node">
<title>Node8</title>
<g id="a_node8"><a xlink:href="persistent-node_8h.html" target="_top" xlink:title=" ">
<polygon fill="white" stroke="black" points="277.5,-56.5 277.5,-86.5 388.5,-86.5 388.5,-56.5 277.5,-56.5"/>
<text text-anchor="start" x="285.5" y="-74.5" font-family="Helvetica,sans-Serif" font-size="10.00">include/cppgc/internal</text>
<text text-anchor="middle" x="333" y="-63.5" font-family="Helvetica,sans-Serif" font-size="10.00">/persistent&#45;node.h</text>
</a>
</g>
</g>
<!-- Node1&#45;&gt;Node8 -->
<g id="edge8" class="edge">
<title>Node1&#45;&gt;Node8</title>
<path fill="none" stroke="midnightblue" d="M294.46,-180.75C304.23,-153.29 320.01,-108.99 328.01,-86.52"/>
<polygon fill="midnightblue" stroke="midnightblue" points="291.09,-179.78 291.03,-190.37 297.68,-182.13 291.09,-179.78"/>
</g>
<!-- Node9 -->
<g id="node9" class="node">
<title>Node9</title>
<g id="a_node9"><a xlink:href="liveness-broker_8h.html" target="_top" xlink:title=" ">
<polygon fill="white" stroke="black" points="357,-123.5 357,-153.5 473,-153.5 473,-123.5 357,-123.5"/>
<text text-anchor="start" x="365" y="-141.5" font-family="Helvetica,sans-Serif" font-size="10.00">include/cppgc/liveness</text>
<text text-anchor="middle" x="415" y="-130.5" font-family="Helvetica,sans-Serif" font-size="10.00">&#45;broker.h</text>
</a>
</g>
</g>
<!-- Node1&#45;&gt;Node9 -->
<g id="edge10" class="edge">
<title>Node1&#45;&gt;Node9</title>
<path fill="none" stroke="midnightblue" d="M323.01,-185.85C343.4,-175.58 368.31,-163.03 387.06,-153.58"/>
<polygon fill="midnightblue" stroke="midnightblue" points="321.35,-182.77 313.99,-190.4 324.5,-189.02 321.35,-182.77"/>
</g>
<!-- Node3 -->
<g id="node3" class="node">
<title>Node3</title>
<g id="a_node3"><a xlink:href="allocation_8h.html" target="_top" xlink:title=" ">
<polygon fill="white" stroke="black" points="0,-62 0,-81 128,-81 128,-62 0,-62"/>
<text text-anchor="middle" x="64" y="-69" font-family="Helvetica,sans-Serif" font-size="10.00">include/cppgc/allocation.h</text>
</a>
</g>
</g>
<!-- Node2&#45;&gt;Node3 -->
<g id="edge2" class="edge">
<title>Node2&#45;&gt;Node3</title>
<path fill="none" stroke="midnightblue" d="M161.94,-118.97C135.62,-106.48 102.14,-90.6 81.93,-81.01"/>
<polygon fill="midnightblue" stroke="midnightblue" points="160.74,-122.27 171.27,-123.4 163.74,-115.95 160.74,-122.27"/>
</g>
<!-- Node2&#45;&gt;Node4 -->
<g id="edge3" class="edge">
<title>Node2&#45;&gt;Node4</title>
<path fill="none" stroke="midnightblue" d="M201.75,-113.25C202.09,-102.02 202.48,-89.38 202.73,-81.19"/>
<polygon fill="midnightblue" stroke="midnightblue" points="198.24,-113.29 201.43,-123.4 205.24,-113.51 198.24,-113.29"/>
</g>
<!-- Node5 -->
<g id="node5" class="node">
<title>Node5</title>
<g id="a_node5"><a xlink:href="persistent_8h.html" target="_top" xlink:title=" ">
<polygon fill="white" stroke="black" points="268,-0.5 268,-19.5 398,-19.5 398,-0.5 268,-0.5"/>
<text text-anchor="middle" x="333" y="-7.5" font-family="Helvetica,sans-Serif" font-size="10.00">include/cppgc/persistent.h</text>
</a>
</g>
</g>
<!-- Node4&#45;&gt;Node5 -->
<g id="edge4" class="edge">
<title>Node4&#45;&gt;Node5</title>
<path fill="none" stroke="midnightblue" d="M231.02,-57.67C256.25,-46.13 292.61,-29.49 314.41,-19.51"/>
<polygon fill="midnightblue" stroke="midnightblue" points="229.26,-54.63 221.63,-61.98 232.18,-61 229.26,-54.63"/>
</g>
<!-- Node6 -->
<g id="node6" class="node">
<title>Node6</title>
<g id="a_node6"><a xlink:href="v8-cppgc_8h.html" target="_top" xlink:title=" ">
<polygon fill="white" stroke="black" points="152,-0.5 152,-19.5 250,-19.5 250,-0.5 152,-0.5"/>
<text text-anchor="middle" x="201" y="-7.5" font-family="Helvetica,sans-Serif" font-size="10.00">include/v8&#45;cppgc.h</text>
</a>
</g>
</g>
<!-- Node4&#45;&gt;Node6 -->
<g id="edge5" class="edge">
<title>Node4&#45;&gt;Node6</title>
<path fill="none" stroke="midnightblue" d="M202.37,-51.82C202.01,-41 201.57,-27.9 201.29,-19.51"/>
<polygon fill="midnightblue" stroke="midnightblue" points="198.88,-52.1 202.71,-61.98 205.88,-51.86 198.88,-52.1"/>
</g>
<!-- Node7&#45;&gt;Node3 -->
<g id="edge7" class="edge">
<title>Node7&#45;&gt;Node3</title>
<path fill="none" stroke="midnightblue" d="M66.51,-113.25C65.82,-102.02 65.04,-89.38 64.54,-81.19"/>
<polygon fill="midnightblue" stroke="midnightblue" points="63.02,-113.63 67.13,-123.4 70.01,-113.2 63.02,-113.63"/>
</g>
<!-- Node8&#45;&gt;Node5 -->
<g id="edge9" class="edge">
<title>Node8&#45;&gt;Node5</title>
<path fill="none" stroke="midnightblue" d="M333,-46.29C333,-36.86 333,-26.65 333,-19.66"/>
<polygon fill="midnightblue" stroke="midnightblue" points="329.5,-46.4 333,-56.4 336.5,-46.4 329.5,-46.4"/>
</g>
<!-- Node9&#45;&gt;Node4 -->
<g id="edge13" class="edge">
<title>Node9&#45;&gt;Node4</title>
<path fill="none" stroke="midnightblue" d="M359.59,-120.51C318.21,-107.83 263.41,-91.02 230.82,-81.03"/>
<polygon fill="midnightblue" stroke="midnightblue" points="358.67,-123.89 369.26,-123.48 360.73,-117.2 358.67,-123.89"/>
</g>
<!-- Node10 -->
<g id="node10" class="node">
<title>Node10</title>
<g id="a_node10"><a xlink:href="prefinalizer-handler_8h.html" target="_top" xlink:title=" ">
<polygon fill="white" stroke="black" points="445.5,-56.5 445.5,-86.5 556.5,-86.5 556.5,-56.5 445.5,-56.5"/>
<text text-anchor="start" x="453.5" y="-74.5" font-family="Helvetica,sans-Serif" font-size="10.00">include/cppgc/internal</text>
<text text-anchor="middle" x="501" y="-63.5" font-family="Helvetica,sans-Serif" font-size="10.00">/prefinalizer&#45;handler.h</text>
</a>
</g>
</g>
<!-- Node9&#45;&gt;Node10 -->
<g id="edge11" class="edge">
<title>Node9&#45;&gt;Node10</title>
<path fill="none" stroke="midnightblue" d="M441.9,-117.17C455.05,-107.23 470.55,-95.51 482.38,-86.58"/>
<polygon fill="midnightblue" stroke="midnightblue" points="439.53,-114.57 433.66,-123.4 443.75,-120.16 439.53,-114.57"/>
</g>
<!-- Node11 -->
<g id="node11" class="node">
<title>Node11</title>
<g id="a_node11"><a xlink:href="prefinalizer_8h.html" target="_top" xlink:title=" ">
<polygon fill="white" stroke="black" points="425.5,-0.5 425.5,-19.5 558.5,-19.5 558.5,-0.5 425.5,-0.5"/>
<text text-anchor="middle" x="492" y="-7.5" font-family="Helvetica,sans-Serif" font-size="10.00">include/cppgc/prefinalizer.h</text>
</a>
</g>
</g>
<!-- Node9&#45;&gt;Node11 -->
<g id="edge14" class="edge">
<title>Node9&#45;&gt;Node11</title>
<path fill="none" stroke="midnightblue" d="M417.58,-113.17C420.3,-96.07 425.83,-73.26 437,-56 447.12,-40.36 464.44,-27.51 476.94,-19.61"/>
<polygon fill="midnightblue" stroke="midnightblue" points="414.05,-113.09 416.16,-123.47 420.99,-114.04 414.05,-113.09"/>
</g>
<!-- Node10&#45;&gt;Node11 -->
<g id="edge12" class="edge">
<title>Node10&#45;&gt;Node11</title>
<path fill="none" stroke="midnightblue" d="M497.34,-46.29C495.91,-36.86 494.37,-26.65 493.31,-19.66"/>
<polygon fill="midnightblue" stroke="midnightblue" points="493.91,-47.04 498.87,-56.4 500.83,-45.99 493.91,-47.04"/>
</g>
</g>
</svg>
