<?xml version="1.0" encoding="UTF-8" standalone="no"?>
<!DOCTYPE svg PUBLIC "-//W3C//DTD SVG 1.1//EN"
 "http://www.w3.org/Graphics/SVG/1.1/DTD/svg11.dtd">
<!-- Generated by graphviz version 2.44.0 ()
 -->
<!-- Title: include/v8&#45;profiler.h Pages: 1 -->
<svg width="753pt" height="196pt"
 viewBox="0.00 0.00 753.00 196.00" xmlns="http://www.w3.org/2000/svg" xmlns:xlink="http://www.w3.org/1999/xlink">
<g id="graph0" class="graph" transform="scale(1 1) rotate(0) translate(4 192)">
<title>include/v8&#45;profiler.h</title>
<polygon fill="white" stroke="transparent" points="-4,4 -4,-192 749,-192 749,4 -4,4"/>
<!-- Node1 -->
<g id="node1" class="node">
<title>Node1</title>
<g id="a_node1"><a xlink:title=" ">
<polygon fill="#bfbfbf" stroke="black" points="133.5,-168.5 133.5,-187.5 233.5,-187.5 233.5,-168.5 133.5,-168.5"/>
<text text-anchor="middle" x="183.5" y="-175.5" font-family="Helvetica,sans-Serif" font-size="10.00">include/v8&#45;profiler.h</text>
</a>
</g>
</g>
<!-- Node2 -->
<g id="node2" class="node">
<title>Node2</title>
<g id="a_node2"><a xlink:title=" ">
<polygon fill="white" stroke="#bfbfbf" points="70,-112.5 70,-131.5 117,-131.5 117,-112.5 70,-112.5"/>
<text text-anchor="middle" x="93.5" y="-119.5" font-family="Helvetica,sans-Serif" font-size="10.00">limits.h</text>
</a>
</g>
</g>
<!-- Node1&#45;&gt;Node2 -->
<g id="edge1" class="edge">
<title>Node1&#45;&gt;Node2</title>
<path fill="none" stroke="midnightblue" d="M169.04,-168.32C155,-159.9 133.45,-146.97 116.96,-137.07"/>
<polygon fill="midnightblue" stroke="midnightblue" points="118.3,-133.8 107.92,-131.65 114.7,-139.8 118.3,-133.8"/>
</g>
<!-- Node3 -->
<g id="node3" class="node">
<title>Node3</title>
<g id="a_node3"><a xlink:title=" ">
<polygon fill="white" stroke="#bfbfbf" points="0,-56.5 0,-75.5 51,-75.5 51,-56.5 0,-56.5"/>
<text text-anchor="middle" x="25.5" y="-63.5" font-family="Helvetica,sans-Serif" font-size="10.00">memory</text>
</a>
</g>
</g>
<!-- Node1&#45;&gt;Node3 -->
<g id="edge2" class="edge">
<title>Node1&#45;&gt;Node3</title>
<path fill="none" stroke="midnightblue" d="M177.64,-168.37C168.09,-154.83 147.94,-128.45 125.5,-112 105.84,-97.59 80.83,-86.33 60.74,-78.69"/>
<polygon fill="midnightblue" stroke="midnightblue" points="61.91,-75.39 51.32,-75.22 59.49,-81.96 61.91,-75.39"/>
</g>
<!-- Node4 -->
<g id="node4" class="node">
<title>Node4</title>
<g id="a_node4"><a xlink:title=" ">
<polygon fill="white" stroke="#bfbfbf" points="358.5,-112.5 358.5,-131.5 436.5,-131.5 436.5,-112.5 358.5,-112.5"/>
<text text-anchor="middle" x="397.5" y="-119.5" font-family="Helvetica,sans-Serif" font-size="10.00">unordered_set</text>
</a>
</g>
</g>
<!-- Node1&#45;&gt;Node4 -->
<g id="edge3" class="edge">
<title>Node1&#45;&gt;Node4</title>
<path fill="none" stroke="midnightblue" d="M217.41,-168.44C254.35,-159.12 313.55,-144.18 353.92,-134"/>
<polygon fill="midnightblue" stroke="midnightblue" points="354.91,-137.36 363.75,-131.52 353.2,-130.57 354.91,-137.36"/>
</g>
<!-- Node5 -->
<g id="node5" class="node">
<title>Node5</title>
<g id="a_node5"><a xlink:title=" ">
<polygon fill="white" stroke="#bfbfbf" points="69.5,-56.5 69.5,-75.5 113.5,-75.5 113.5,-56.5 69.5,-56.5"/>
<text text-anchor="middle" x="91.5" y="-63.5" font-family="Helvetica,sans-Serif" font-size="10.00">vector</text>
</a>
</g>
</g>
<!-- Node1&#45;&gt;Node5 -->
<g id="edge4" class="edge">
<title>Node1&#45;&gt;Node5</title>
<path fill="none" stroke="midnightblue" d="M182.05,-168.15C179.49,-154.77 173.09,-129.16 159.5,-112 148.93,-98.66 133.29,-87.92 119.67,-80.28"/>
<polygon fill="midnightblue" stroke="midnightblue" points="121.12,-77.1 110.65,-75.5 117.84,-83.28 121.12,-77.1"/>
</g>
<!-- Node6 -->
<g id="node6" class="node">
<title>Node6</title>
<g id="a_node6"><a xlink:href="v8_8h.html" target="_top" xlink:title=" ">
<polygon fill="white" stroke="black" points="305,-112.5 305,-131.5 340,-131.5 340,-112.5 305,-112.5"/>
<text text-anchor="middle" x="322.5" y="-119.5" font-family="Helvetica,sans-Serif" font-size="10.00">v8.h</text>
</a>
</g>
</g>
<!-- Node1&#45;&gt;Node6 -->
<g id="edge5" class="edge">
<title>Node1&#45;&gt;Node6</title>
<path fill="none" stroke="midnightblue" d="M205.52,-168.44C229.96,-158.95 269.4,-143.63 295.63,-133.44"/>
<polygon fill="midnightblue" stroke="midnightblue" points="296.93,-136.69 304.98,-129.81 294.39,-130.17 296.93,-136.69"/>
</g>
<!-- Node6&#45;&gt;Node3 -->
<g id="edge10" class="edge">
<title>Node6&#45;&gt;Node3</title>
<path fill="none" stroke="midnightblue" d="M304.93,-118.49C264.04,-112.54 159.17,-96.67 61.13,-75.98"/>
<polygon fill="midnightblue" stroke="midnightblue" points="61.57,-72.49 51.06,-73.83 60.11,-79.34 61.57,-72.49"/>
</g>
<!-- Node6&#45;&gt;Node5 -->
<g id="edge14" class="edge">
<title>Node6&#45;&gt;Node5</title>
<path fill="none" stroke="midnightblue" d="M304.76,-117.39C271.25,-110.49 196.19,-94.65 123.57,-76.16"/>
<polygon fill="midnightblue" stroke="midnightblue" points="124.36,-72.75 113.81,-73.65 122.62,-79.53 124.36,-72.75"/>
</g>
<!-- Node7 -->
<g id="node7" class="node">
<title>Node7</title>
<g id="a_node7"><a xlink:title=" ">
<polygon fill="white" stroke="#bfbfbf" points="245,-0.5 245,-19.5 296,-19.5 296,-0.5 245,-0.5"/>
<text text-anchor="middle" x="270.5" y="-7.5" font-family="Helvetica,sans-Serif" font-size="10.00">stddef.h</text>
</a>
</g>
</g>
<!-- Node6&#45;&gt;Node7 -->
<g id="edge6" class="edge">
<title>Node6&#45;&gt;Node7</title>
<path fill="none" stroke="midnightblue" d="M320.74,-112.25C317.97,-99.45 311.9,-75.06 302.5,-56 297.58,-46.02 290.54,-35.85 284.32,-27.7"/>
<polygon fill="midnightblue" stroke="midnightblue" points="286.99,-25.43 278.03,-19.76 281.5,-29.77 286.99,-25.43"/>
</g>
<!-- Node8 -->
<g id="node8" class="node">
<title>Node8</title>
<g id="a_node8"><a xlink:title=" ">
<polygon fill="white" stroke="#bfbfbf" points="314.5,-0.5 314.5,-19.5 362.5,-19.5 362.5,-0.5 314.5,-0.5"/>
<text text-anchor="middle" x="338.5" y="-7.5" font-family="Helvetica,sans-Serif" font-size="10.00">stdint.h</text>
</a>
</g>
</g>
<!-- Node6&#45;&gt;Node8 -->
<g id="edge7" class="edge">
<title>Node6&#45;&gt;Node8</title>
<path fill="none" stroke="midnightblue" d="M326.02,-112.21C329.41,-103.26 334.33,-88.91 336.5,-76 339.07,-60.67 339.46,-43.03 339.26,-30"/>
<polygon fill="midnightblue" stroke="midnightblue" points="342.76,-29.81 338.98,-19.91 335.76,-30 342.76,-29.81"/>
</g>
<!-- Node9 -->
<g id="node9" class="node">
<title>Node9</title>
<g id="a_node9"><a xlink:title=" ">
<polygon fill="white" stroke="#bfbfbf" points="700,-56.5 700,-75.5 745,-75.5 745,-56.5 700,-56.5"/>
<text text-anchor="middle" x="722.5" y="-63.5" font-family="Helvetica,sans-Serif" font-size="10.00">stdio.h</text>
</a>
</g>
</g>
<!-- Node6&#45;&gt;Node9 -->
<g id="edge8" class="edge">
<title>Node6&#45;&gt;Node9</title>
<path fill="none" stroke="midnightblue" d="M340.07,-114.54C343.18,-113.57 346.41,-112.67 349.5,-112 495.67,-80.34 539.64,-104.34 689.88,-76"/>
<polygon fill="midnightblue" stroke="midnightblue" points="690.77,-79.39 699.93,-74.06 689.44,-72.52 690.77,-79.39"/>
</g>
<!-- Node10 -->
<g id="node10" class="node">
<title>Node10</title>
<g id="a_node10"><a xlink:title=" ">
<polygon fill="white" stroke="#bfbfbf" points="131.5,-56.5 131.5,-75.5 177.5,-75.5 177.5,-56.5 131.5,-56.5"/>
<text text-anchor="middle" x="154.5" y="-63.5" font-family="Helvetica,sans-Serif" font-size="10.00">atomic</text>
</a>
</g>
</g>
<!-- Node6&#45;&gt;Node10 -->
<g id="edge9" class="edge">
<title>Node6&#45;&gt;Node10</title>
<path fill="none" stroke="midnightblue" d="M304.84,-115.32C277.01,-106.38 222.49,-88.85 187.32,-77.55"/>
<polygon fill="midnightblue" stroke="midnightblue" points="188.11,-74.13 177.52,-74.4 185.97,-80.79 188.11,-74.13"/>
</g>
<!-- Node11 -->
<g id="node11" class="node">
<title>Node11</title>
<g id="a_node11"><a xlink:title=" ">
<polygon fill="white" stroke="#bfbfbf" points="196,-56.5 196,-75.5 237,-75.5 237,-56.5 196,-56.5"/>
<text text-anchor="middle" x="216.5" y="-63.5" font-family="Helvetica,sans-Serif" font-size="10.00">string</text>
</a>
</g>
</g>
<!-- Node6&#45;&gt;Node11 -->
<g id="edge11" class="edge">
<title>Node6&#45;&gt;Node11</title>
<path fill="none" stroke="midnightblue" d="M305.47,-112.32C288.47,-103.66 262.12,-90.24 242.51,-80.25"/>
<polygon fill="midnightblue" stroke="midnightblue" points="243.99,-77.08 233.49,-75.65 240.81,-83.31 243.99,-77.08"/>
</g>
<!-- Node12 -->
<g id="node12" class="node">
<title>Node12</title>
<g id="a_node12"><a xlink:title=" ">
<polygon fill="white" stroke="#bfbfbf" points="446.5,-0.5 446.5,-19.5 508.5,-19.5 508.5,-0.5 446.5,-0.5"/>
<text text-anchor="middle" x="477.5" y="-7.5" font-family="Helvetica,sans-Serif" font-size="10.00">type_traits</text>
</a>
</g>
</g>
<!-- Node6&#45;&gt;Node12 -->
<g id="edge12" class="edge">
<title>Node6&#45;&gt;Node12</title>
<path fill="none" stroke="midnightblue" d="M340.2,-115.03C343.3,-114.01 346.49,-112.97 349.5,-112 401.31,-95.4 430.63,-116.9 466.5,-76 477.46,-63.51 479.52,-44.28 479.26,-29.97"/>
<polygon fill="midnightblue" stroke="midnightblue" points="482.74,-29.56 478.67,-19.78 475.75,-29.96 482.74,-29.56"/>
</g>
<!-- Node13 -->
<g id="node13" class="node">
<title>Node13</title>
<g id="a_node13"><a xlink:title=" ">
<polygon fill="white" stroke="#bfbfbf" points="255,-56.5 255,-75.5 294,-75.5 294,-56.5 255,-56.5"/>
<text text-anchor="middle" x="274.5" y="-63.5" font-family="Helvetica,sans-Serif" font-size="10.00">utility</text>
</a>
</g>
</g>
<!-- Node6&#45;&gt;Node13 -->
<g id="edge13" class="edge">
<title>Node6&#45;&gt;Node13</title>
<path fill="none" stroke="midnightblue" d="M314.57,-112.08C307.65,-104.3 297.43,-92.8 289.05,-83.37"/>
<polygon fill="midnightblue" stroke="midnightblue" points="291.54,-80.9 282.28,-75.75 286.31,-85.55 291.54,-80.9"/>
</g>
<!-- Node14 -->
<g id="node14" class="node">
<title>Node14</title>
<g id="a_node14"><a xlink:href="common_8h.html" target="_top" xlink:title=" ">
<polygon fill="white" stroke="black" points="591,-56.5 591,-75.5 682,-75.5 682,-56.5 591,-56.5"/>
<text text-anchor="middle" x="636.5" y="-63.5" font-family="Helvetica,sans-Serif" font-size="10.00">cppgc/common.h</text>
</a>
</g>
</g>
<!-- Node6&#45;&gt;Node14 -->
<g id="edge15" class="edge">
<title>Node6&#45;&gt;Node14</title>
<path fill="none" stroke="midnightblue" d="M340.1,-114.67C343.2,-113.68 346.43,-112.75 349.5,-112 360.63,-109.29 500.58,-87.75 580.86,-75.48"/>
<polygon fill="midnightblue" stroke="midnightblue" points="581.46,-78.93 590.81,-73.96 580.4,-72.01 581.46,-78.93"/>
</g>
<!-- Node15 -->
<g id="node15" class="node">
<title>Node15</title>
<g id="a_node15"><a xlink:href="v8config_8h.html" target="_top" xlink:title=" ">
<polygon fill="white" stroke="black" points="614.5,-0.5 614.5,-19.5 674.5,-19.5 674.5,-0.5 614.5,-0.5"/>
<text text-anchor="middle" x="644.5" y="-7.5" font-family="Helvetica,sans-Serif" font-size="10.00">v8config.h</text>
</a>
</g>
</g>
<!-- Node6&#45;&gt;Node15 -->
<g id="edge25" class="edge">
<title>Node6&#45;&gt;Node15</title>
<path fill="none" stroke="midnightblue" d="M340.14,-114.82C343.24,-113.82 346.45,-112.84 349.5,-112 421.87,-92.1 443.72,-100.98 514.5,-76 553.53,-62.23 595.92,-39.41 621.34,-24.8"/>
<polygon fill="midnightblue" stroke="midnightblue" points="623.33,-27.7 630.21,-19.64 619.8,-21.65 623.33,-27.7"/>
</g>
<!-- Node16 -->
<g id="node16" class="node">
<title>Node16</title>
<g id="a_node16"><a xlink:href="v8-internal_8h.html" target="_top" xlink:title=" ">
<polygon fill="white" stroke="black" points="389,-56.5 389,-75.5 458,-75.5 458,-56.5 389,-56.5"/>
<text text-anchor="middle" x="423.5" y="-63.5" font-family="Helvetica,sans-Serif" font-size="10.00">v8&#45;internal.h</text>
</a>
</g>
</g>
<!-- Node6&#45;&gt;Node16 -->
<g id="edge17" class="edge">
<title>Node6&#45;&gt;Node16</title>
<path fill="none" stroke="midnightblue" d="M338.73,-112.32C354.85,-103.7 379.8,-90.36 398.46,-80.39"/>
<polygon fill="midnightblue" stroke="midnightblue" points="400.14,-83.46 407.31,-75.65 396.84,-77.28 400.14,-83.46"/>
</g>
<!-- Node18 -->
<g id="node18" class="node">
<title>Node18</title>
<g id="a_node18"><a xlink:href="v8-version_8h.html" target="_top" xlink:title=" ">
<polygon fill="white" stroke="black" points="527,-0.5 527,-19.5 596,-19.5 596,-0.5 527,-0.5"/>
<text text-anchor="middle" x="561.5" y="-7.5" font-family="Helvetica,sans-Serif" font-size="10.00">v8&#45;version.h</text>
</a>
</g>
</g>
<!-- Node6&#45;&gt;Node18 -->
<g id="edge24" class="edge">
<title>Node6&#45;&gt;Node18</title>
<path fill="none" stroke="midnightblue" d="M340.17,-114.93C343.27,-113.92 346.47,-112.91 349.5,-112 409.41,-94.1 430.13,-105.05 485.5,-76 509.63,-63.34 532.74,-41.78 547.01,-26.98"/>
<polygon fill="midnightblue" stroke="midnightblue" points="549.68,-29.24 553.97,-19.56 544.58,-24.45 549.68,-29.24"/>
</g>
<!-- Node14&#45;&gt;Node15 -->
<g id="edge16" class="edge">
<title>Node14&#45;&gt;Node15</title>
<path fill="none" stroke="midnightblue" d="M637.82,-56.08C638.88,-48.93 640.41,-38.64 641.73,-29.69"/>
<polygon fill="midnightblue" stroke="midnightblue" points="645.2,-30.16 643.2,-19.75 638.28,-29.13 645.2,-30.16"/>
</g>
<!-- Node16&#45;&gt;Node7 -->
<g id="edge18" class="edge">
<title>Node16&#45;&gt;Node7</title>
<path fill="none" stroke="midnightblue" d="M399.26,-56.44C373.63,-47.4 333.01,-33.06 304.26,-22.92"/>
<polygon fill="midnightblue" stroke="midnightblue" points="305.22,-19.54 294.63,-19.52 302.89,-26.15 305.22,-19.54"/>
</g>
<!-- Node16&#45;&gt;Node8 -->
<g id="edge19" class="edge">
<title>Node16&#45;&gt;Node8</title>
<path fill="none" stroke="midnightblue" d="M409.84,-56.32C396.58,-47.9 376.23,-34.97 360.65,-25.07"/>
<polygon fill="midnightblue" stroke="midnightblue" points="362.44,-22.06 352.12,-19.65 358.69,-27.97 362.44,-22.06"/>
</g>
<!-- Node16&#45;&gt;Node12 -->
<g id="edge21" class="edge">
<title>Node16&#45;&gt;Node12</title>
<path fill="none" stroke="midnightblue" d="M432.42,-56.08C440.28,-48.22 451.93,-36.57 461.42,-27.08"/>
<polygon fill="midnightblue" stroke="midnightblue" points="464.15,-29.3 468.75,-19.75 459.2,-24.35 464.15,-29.3"/>
</g>
<!-- Node16&#45;&gt;Node15 -->
<g id="edge23" class="edge">
<title>Node16&#45;&gt;Node15</title>
<path fill="none" stroke="midnightblue" d="M458.03,-56.56C497.73,-46.86 562.79,-30.96 604.62,-20.74"/>
<polygon fill="midnightblue" stroke="midnightblue" points="605.58,-24.11 614.46,-18.34 603.92,-17.31 605.58,-24.11"/>
</g>
<!-- Node17 -->
<g id="node17" class="node">
<title>Node17</title>
<g id="a_node17"><a xlink:title=" ">
<polygon fill="white" stroke="#bfbfbf" points="380.5,-0.5 380.5,-19.5 428.5,-19.5 428.5,-0.5 380.5,-0.5"/>
<text text-anchor="middle" x="404.5" y="-7.5" font-family="Helvetica,sans-Serif" font-size="10.00">string.h</text>
</a>
</g>
</g>
<!-- Node16&#45;&gt;Node17 -->
<g id="edge20" class="edge">
<title>Node16&#45;&gt;Node17</title>
<path fill="none" stroke="midnightblue" d="M420.36,-56.08C417.82,-48.85 414.14,-38.41 410.97,-29.4"/>
<polygon fill="midnightblue" stroke="midnightblue" points="414.2,-28.02 407.58,-19.75 407.6,-30.35 414.2,-28.02"/>
</g>
<!-- Node16&#45;&gt;Node18 -->
<g id="edge22" class="edge">
<title>Node16&#45;&gt;Node18</title>
<path fill="none" stroke="midnightblue" d="M445.37,-56.44C468.28,-47.48 504.48,-33.31 530.37,-23.18"/>
<polygon fill="midnightblue" stroke="midnightblue" points="531.7,-26.42 539.74,-19.52 529.15,-19.9 531.7,-26.42"/>
</g>
</g>
</svg>
