<?xml version="1.0" encoding="UTF-8" standalone="no"?>
<!DOCTYPE svg PUBLIC "-//W3C//DTD SVG 1.1//EN"
 "http://www.w3.org/Graphics/SVG/1.1/DTD/svg11.dtd">
<!-- Generated by graphviz version 2.44.0 ()
 -->
<!-- Title: include/cppgc/visitor.h Pages: 1 -->
<svg width="1106pt" height="464pt"
 viewBox="0.00 0.00 1106.40 464.00" xmlns="http://www.w3.org/2000/svg" xmlns:xlink="http://www.w3.org/1999/xlink">
<g id="graph0" class="graph" transform="scale(1 1) rotate(0) translate(4 460)">
<title>include/cppgc/visitor.h</title>
<polygon fill="white" stroke="transparent" points="-4,4 -4,-460 1102.4,-460 1102.4,4 -4,4"/>
<!-- Node1 -->
<g id="node1" class="node">
<title>Node1</title>
<g id="a_node1"><a xlink:title=" ">
<polygon fill="#bfbfbf" stroke="black" points="511.9,-436.5 511.9,-455.5 624.9,-455.5 624.9,-436.5 511.9,-436.5"/>
<text text-anchor="middle" x="568.4" y="-443.5" font-family="Helvetica,sans-Serif" font-size="10.00">include/cppgc/visitor.h</text>
</a>
</g>
</g>
<!-- Node2 -->
<g id="node2" class="node">
<title>Node2</title>
<g id="a_node2"><a xlink:href="garbage-collected_8h.html" target="_top" xlink:title=" ">
<polygon fill="white" stroke="black" points="136.4,-380.5 136.4,-399.5 266.4,-399.5 266.4,-380.5 136.4,-380.5"/>
<text text-anchor="middle" x="201.4" y="-387.5" font-family="Helvetica,sans-Serif" font-size="10.00">cppgc/garbage&#45;collected.h</text>
</a>
</g>
</g>
<!-- Node1&#45;&gt;Node2 -->
<g id="edge1" class="edge">
<title>Node1&#45;&gt;Node2</title>
<path fill="none" stroke="midnightblue" d="M511.86,-436.68C446.51,-427.07 339.02,-411.25 269.23,-400.98"/>
<polygon fill="midnightblue" stroke="midnightblue" points="269.62,-397.5 259.21,-399.51 268.6,-404.43 269.62,-397.5"/>
</g>
<!-- Node13 -->
<g id="node13" class="node">
<title>Node13</title>
<g id="a_node13"><a xlink:href="trace-trait_8h.html" target="_top" xlink:title=" ">
<polygon fill="white" stroke="black" points="298.9,-324.5 298.9,-343.5 393.9,-343.5 393.9,-324.5 298.9,-324.5"/>
<text text-anchor="middle" x="346.4" y="-331.5" font-family="Helvetica,sans-Serif" font-size="10.00">cppgc/trace&#45;trait.h</text>
</a>
</g>
</g>
<!-- Node1&#45;&gt;Node13 -->
<g id="edge60" class="edge">
<title>Node1&#45;&gt;Node13</title>
<path fill="none" stroke="midnightblue" d="M515.21,-436.47C483.76,-429.82 444.03,-418.5 412.4,-400 390.81,-387.37 371.1,-366.11 358.95,-351.35"/>
<polygon fill="midnightblue" stroke="midnightblue" points="361.68,-349.17 352.71,-343.53 356.21,-353.53 361.68,-349.17"/>
</g>
<!-- Node15 -->
<g id="node15" class="node">
<title>Node15</title>
<g id="a_node15"><a xlink:href="logging_8h.html" target="_top" xlink:title=" ">
<polygon fill="white" stroke="black" points="702.9,-263 702.9,-282 821.9,-282 821.9,-263 702.9,-263"/>
<text text-anchor="middle" x="762.4" y="-270" font-family="Helvetica,sans-Serif" font-size="10.00">cppgc/internal/logging.h</text>
</a>
</g>
</g>
<!-- Node1&#45;&gt;Node15 -->
<g id="edge22" class="edge">
<title>Node1&#45;&gt;Node15</title>
<path fill="none" stroke="midnightblue" d="M580.4,-436.33C603.48,-419.48 655.3,-380.72 695.4,-344 714.55,-326.46 734.88,-304.55 748.05,-289.85"/>
<polygon fill="midnightblue" stroke="midnightblue" points="750.9,-291.92 754.92,-282.11 745.66,-287.27 750.9,-291.92"/>
</g>
<!-- Node16 -->
<g id="node16" class="node">
<title>Node16</title>
<g id="a_node16"><a xlink:href="source-location_8h.html" target="_top" xlink:title=" ">
<polygon fill="white" stroke="black" points="690.9,-196 690.9,-215 809.9,-215 809.9,-196 690.9,-196"/>
<text text-anchor="middle" x="750.4" y="-203" font-family="Helvetica,sans-Serif" font-size="10.00">cppgc/source&#45;location.h</text>
</a>
</g>
</g>
<!-- Node1&#45;&gt;Node16 -->
<g id="edge59" class="edge">
<title>Node1&#45;&gt;Node16</title>
<path fill="none" stroke="midnightblue" d="M566.33,-436.28C559.95,-407.08 543.63,-311.55 588.4,-257 610.76,-229.76 647.59,-216.95 680.5,-211.03"/>
<polygon fill="midnightblue" stroke="midnightblue" points="681.24,-214.46 690.56,-209.41 680.13,-207.55 681.24,-214.46"/>
</g>
<!-- Node17 -->
<g id="node17" class="node">
<title>Node17</title>
<g id="a_node17"><a xlink:href="pointer-policies_8h.html" target="_top" xlink:title=" ">
<polygon fill="white" stroke="black" points="840.4,-257.5 840.4,-287.5 950.4,-287.5 950.4,-257.5 840.4,-257.5"/>
<text text-anchor="start" x="848.4" y="-275.5" font-family="Helvetica,sans-Serif" font-size="10.00">cppgc/internal/pointer</text>
<text text-anchor="middle" x="895.4" y="-264.5" font-family="Helvetica,sans-Serif" font-size="10.00">&#45;policies.h</text>
</a>
</g>
</g>
<!-- Node1&#45;&gt;Node17 -->
<g id="edge27" class="edge">
<title>Node1&#45;&gt;Node17</title>
<path fill="none" stroke="midnightblue" d="M584.89,-436.38C602.2,-427.33 630.22,-412.67 654.4,-400 727.38,-361.75 812.76,-316.92 859.78,-292.21"/>
<polygon fill="midnightblue" stroke="midnightblue" points="861.43,-295.3 868.66,-287.55 858.18,-289.1 861.43,-295.3"/>
</g>
<!-- Node23 -->
<g id="node23" class="node">
<title>Node23</title>
<g id="a_node23"><a xlink:href="liveness-broker_8h.html" target="_top" xlink:title=" ">
<polygon fill="white" stroke="black" points="420.9,-380.5 420.9,-399.5 539.9,-399.5 539.9,-380.5 420.9,-380.5"/>
<text text-anchor="middle" x="480.4" y="-387.5" font-family="Helvetica,sans-Serif" font-size="10.00">cppgc/liveness&#45;broker.h</text>
</a>
</g>
</g>
<!-- Node1&#45;&gt;Node23 -->
<g id="edge39" class="edge">
<title>Node1&#45;&gt;Node23</title>
<path fill="none" stroke="midnightblue" d="M554.26,-436.32C540.53,-427.9 519.46,-414.97 503.33,-405.07"/>
<polygon fill="midnightblue" stroke="midnightblue" points="504.86,-401.9 494.5,-399.65 501.19,-407.87 504.86,-401.9"/>
</g>
<!-- Node28 -->
<g id="node28" class="node">
<title>Node28</title>
<g id="a_node28"><a xlink:href="member_8h.html" target="_top" xlink:title=" ">
<polygon fill="white" stroke="black" points="596.9,-324.5 596.9,-343.5 685.9,-343.5 685.9,-324.5 596.9,-324.5"/>
<text text-anchor="middle" x="641.4" y="-331.5" font-family="Helvetica,sans-Serif" font-size="10.00">cppgc/member.h</text>
</a>
</g>
</g>
<!-- Node1&#45;&gt;Node28 -->
<g id="edge58" class="edge">
<title>Node1&#45;&gt;Node28</title>
<path fill="none" stroke="midnightblue" d="M574.13,-436.37C586.17,-418.22 614.32,-375.8 630.12,-351.99"/>
<polygon fill="midnightblue" stroke="midnightblue" points="633.08,-353.86 635.7,-343.59 627.25,-349.99 633.08,-353.86"/>
</g>
<!-- Node3 -->
<g id="node3" class="node">
<title>Node3</title>
<g id="a_node3"><a xlink:title=" ">
<polygon fill="white" stroke="#bfbfbf" points="125.4,-196 125.4,-215 187.4,-215 187.4,-196 125.4,-196"/>
<text text-anchor="middle" x="156.4" y="-203" font-family="Helvetica,sans-Serif" font-size="10.00">type_traits</text>
</a>
</g>
</g>
<!-- Node2&#45;&gt;Node3 -->
<g id="edge2" class="edge">
<title>Node2&#45;&gt;Node3</title>
<path fill="none" stroke="midnightblue" d="M188.96,-380.28C178.61,-372.21 164.62,-359.2 158.4,-344 142.17,-304.37 147.7,-252.77 152.47,-225.43"/>
<polygon fill="midnightblue" stroke="midnightblue" points="155.96,-225.78 154.4,-215.3 149.09,-224.47 155.96,-225.78"/>
</g>
<!-- Node4 -->
<g id="node4" class="node">
<title>Node4</title>
<g id="a_node4"><a xlink:href="api-constants_8h.html" target="_top" xlink:title=" ">
<polygon fill="white" stroke="black" points="240.9,-123.5 240.9,-153.5 333.9,-153.5 333.9,-123.5 240.9,-123.5"/>
<text text-anchor="start" x="248.9" y="-141.5" font-family="Helvetica,sans-Serif" font-size="10.00">cppgc/internal/api</text>
<text text-anchor="middle" x="287.4" y="-130.5" font-family="Helvetica,sans-Serif" font-size="10.00">&#45;constants.h</text>
</a>
</g>
</g>
<!-- Node2&#45;&gt;Node4 -->
<g id="edge3" class="edge">
<title>Node2&#45;&gt;Node4</title>
<path fill="none" stroke="midnightblue" d="M187.4,-380.37C175.56,-372.36 159.03,-359.38 149.4,-344 112.23,-284.69 74.49,-246.07 116.4,-190 120.01,-185.17 182.53,-167.52 230.94,-154.44"/>
<polygon fill="midnightblue" stroke="midnightblue" points="231.98,-157.79 240.72,-151.81 230.16,-151.03 231.98,-157.79"/>
</g>
<!-- Node8 -->
<g id="node8" class="node">
<title>Node8</title>
<g id="a_node8"><a xlink:href="platform_8h.html" target="_top" xlink:title=" ">
<polygon fill="white" stroke="black" points="281.9,-196 281.9,-215 370.9,-215 370.9,-196 281.9,-196"/>
<text text-anchor="middle" x="326.4" y="-203" font-family="Helvetica,sans-Serif" font-size="10.00">cppgc/platform.h</text>
</a>
</g>
</g>
<!-- Node2&#45;&gt;Node8 -->
<g id="edge7" class="edge">
<title>Node2&#45;&gt;Node8</title>
<path fill="none" stroke="midnightblue" d="M200.84,-380.26C199.86,-357.48 200.2,-295.42 229.4,-257 243.32,-238.68 265.79,-226.39 285.61,-218.53"/>
<polygon fill="midnightblue" stroke="midnightblue" points="286.91,-221.78 295.07,-215.01 284.48,-215.21 286.91,-221.78"/>
</g>
<!-- Node2&#45;&gt;Node13 -->
<g id="edge16" class="edge">
<title>Node2&#45;&gt;Node13</title>
<path fill="none" stroke="midnightblue" d="M224.37,-380.44C248.56,-371.44 286.82,-357.19 314.04,-347.05"/>
<polygon fill="midnightblue" stroke="midnightblue" points="315.38,-350.29 323.53,-343.52 312.94,-343.73 315.38,-350.29"/>
</g>
<!-- Node14 -->
<g id="node14" class="node">
<title>Node14</title>
<g id="a_node14"><a xlink:href="type-traits_8h.html" target="_top" xlink:title=" ">
<polygon fill="white" stroke="black" points="238.4,-263 238.4,-282 334.4,-282 334.4,-263 238.4,-263"/>
<text text-anchor="middle" x="286.4" y="-270" font-family="Helvetica,sans-Serif" font-size="10.00">cppgc/type&#45;traits.h</text>
</a>
</g>
</g>
<!-- Node2&#45;&gt;Node14 -->
<g id="edge21" class="edge">
<title>Node2&#45;&gt;Node14</title>
<path fill="none" stroke="midnightblue" d="M207.79,-380.32C221.82,-361.26 255.53,-315.45 273.92,-290.46"/>
<polygon fill="midnightblue" stroke="midnightblue" points="276.83,-292.41 279.94,-282.28 271.19,-288.26 276.83,-292.41"/>
</g>
<!-- Node5 -->
<g id="node5" class="node">
<title>Node5</title>
<g id="a_node5"><a xlink:title=" ">
<polygon fill="white" stroke="#bfbfbf" points="102.9,-62 102.9,-81 153.9,-81 153.9,-62 102.9,-62"/>
<text text-anchor="middle" x="128.4" y="-69" font-family="Helvetica,sans-Serif" font-size="10.00">stddef.h</text>
</a>
</g>
</g>
<!-- Node4&#45;&gt;Node5 -->
<g id="edge4" class="edge">
<title>Node4&#45;&gt;Node5</title>
<path fill="none" stroke="midnightblue" d="M252.03,-123.42C226.96,-113.39 192.55,-99.52 162.4,-87 160.99,-86.42 159.55,-85.81 158.1,-85.21"/>
<polygon fill="midnightblue" stroke="midnightblue" points="159.08,-81.82 148.51,-81.15 156.36,-88.27 159.08,-81.82"/>
</g>
<!-- Node6 -->
<g id="node6" class="node">
<title>Node6</title>
<g id="a_node6"><a xlink:title=" ">
<polygon fill="white" stroke="#bfbfbf" points="246.4,-62 246.4,-81 294.4,-81 294.4,-62 246.4,-62"/>
<text text-anchor="middle" x="270.4" y="-69" font-family="Helvetica,sans-Serif" font-size="10.00">stdint.h</text>
</a>
</g>
</g>
<!-- Node4&#45;&gt;Node6 -->
<g id="edge5" class="edge">
<title>Node4&#45;&gt;Node6</title>
<path fill="none" stroke="midnightblue" d="M283.71,-123.4C281.24,-113.96 277.97,-101.45 275.29,-91.19"/>
<polygon fill="midnightblue" stroke="midnightblue" points="278.59,-89.98 272.67,-81.19 271.82,-91.75 278.59,-89.98"/>
</g>
<!-- Node7 -->
<g id="node7" class="node">
<title>Node7</title>
<g id="a_node7"><a xlink:href="v8config_8h.html" target="_top" xlink:title=" ">
<polygon fill="white" stroke="black" points="594.4,-62 594.4,-81 654.4,-81 654.4,-62 594.4,-62"/>
<text text-anchor="middle" x="624.4" y="-69" font-family="Helvetica,sans-Serif" font-size="10.00">v8config.h</text>
</a>
</g>
</g>
<!-- Node4&#45;&gt;Node7 -->
<g id="edge6" class="edge">
<title>Node4&#45;&gt;Node7</title>
<path fill="none" stroke="midnightblue" d="M333.97,-126.16C338.83,-125.06 343.71,-123.99 348.4,-123 431.75,-105.48 529.99,-88.34 583.9,-79.23"/>
<polygon fill="midnightblue" stroke="midnightblue" points="584.79,-82.62 594.07,-77.51 583.63,-75.72 584.79,-82.62"/>
</g>
<!-- Node8&#45;&gt;Node7 -->
<g id="edge15" class="edge">
<title>Node8&#45;&gt;Node7</title>
<path fill="none" stroke="midnightblue" d="M330.09,-195.99C337.86,-179.13 357.6,-141.56 386.4,-123 447.38,-83.68 533.69,-74.39 583.87,-72.54"/>
<polygon fill="midnightblue" stroke="midnightblue" points="584.12,-76.03 594.01,-72.24 583.91,-69.03 584.12,-76.03"/>
</g>
<!-- Node9 -->
<g id="node9" class="node">
<title>Node9</title>
<g id="a_node9"><a xlink:href="v8-platform_8h.html" target="_top" xlink:title=" ">
<polygon fill="white" stroke="black" points="149.9,-129 149.9,-148 222.9,-148 222.9,-129 149.9,-129"/>
<text text-anchor="middle" x="186.4" y="-136" font-family="Helvetica,sans-Serif" font-size="10.00">v8&#45;platform.h</text>
</a>
</g>
</g>
<!-- Node8&#45;&gt;Node9 -->
<g id="edge8" class="edge">
<title>Node8&#45;&gt;Node9</title>
<path fill="none" stroke="midnightblue" d="M307.81,-195.87C283.85,-184.75 242,-165.32 214.24,-152.43"/>
<polygon fill="midnightblue" stroke="midnightblue" points="215.61,-149.2 205.07,-148.17 212.66,-155.55 215.61,-149.2"/>
</g>
<!-- Node9&#45;&gt;Node5 -->
<g id="edge9" class="edge">
<title>Node9&#45;&gt;Node5</title>
<path fill="none" stroke="midnightblue" d="M178.58,-128.73C169.44,-118.5 154.15,-101.36 142.85,-88.69"/>
<polygon fill="midnightblue" stroke="midnightblue" points="145.37,-86.26 136.1,-81.13 140.14,-90.92 145.37,-86.26"/>
</g>
<!-- Node9&#45;&gt;Node6 -->
<g id="edge10" class="edge">
<title>Node9&#45;&gt;Node6</title>
<path fill="none" stroke="midnightblue" d="M197.73,-128.73C211.46,-118.11 234.8,-100.05 251.32,-87.26"/>
<polygon fill="midnightblue" stroke="midnightblue" points="253.48,-90.02 259.25,-81.13 249.2,-84.48 253.48,-90.02"/>
</g>
<!-- Node9&#45;&gt;Node7 -->
<g id="edge14" class="edge">
<title>Node9&#45;&gt;Node7</title>
<path fill="none" stroke="midnightblue" d="M211.01,-128.86C217.87,-126.69 225.37,-124.55 232.4,-123 298.9,-108.36 497.9,-86.07 583.98,-76.79"/>
<polygon fill="midnightblue" stroke="midnightblue" points="584.58,-80.24 594.15,-75.69 583.83,-73.28 584.58,-80.24"/>
</g>
<!-- Node10 -->
<g id="node10" class="node">
<title>Node10</title>
<g id="a_node10"><a xlink:title=" ">
<polygon fill="white" stroke="#bfbfbf" points="171.9,-62 171.9,-81 218.9,-81 218.9,-62 171.9,-62"/>
<text text-anchor="middle" x="195.4" y="-69" font-family="Helvetica,sans-Serif" font-size="10.00">stdlib.h</text>
</a>
</g>
</g>
<!-- Node9&#45;&gt;Node10 -->
<g id="edge11" class="edge">
<title>Node9&#45;&gt;Node10</title>
<path fill="none" stroke="midnightblue" d="M187.61,-128.73C188.93,-119.18 191.09,-103.62 192.8,-91.28"/>
<polygon fill="midnightblue" stroke="midnightblue" points="196.3,-91.51 194.2,-81.13 189.37,-90.55 196.3,-91.51"/>
</g>
<!-- Node11 -->
<g id="node11" class="node">
<title>Node11</title>
<g id="a_node11"><a xlink:title=" ">
<polygon fill="white" stroke="#bfbfbf" points="2.9,-62 2.9,-81 53.9,-81 53.9,-62 2.9,-62"/>
<text text-anchor="middle" x="28.4" y="-69" font-family="Helvetica,sans-Serif" font-size="10.00">memory</text>
</a>
</g>
</g>
<!-- Node9&#45;&gt;Node11 -->
<g id="edge12" class="edge">
<title>Node9&#45;&gt;Node11</title>
<path fill="none" stroke="midnightblue" d="M165.42,-128.87C138.15,-117.65 90.33,-97.98 59.01,-85.09"/>
<polygon fill="midnightblue" stroke="midnightblue" points="60.05,-81.74 49.47,-81.17 57.38,-88.21 60.05,-81.74"/>
</g>
<!-- Node12 -->
<g id="node12" class="node">
<title>Node12</title>
<g id="a_node12"><a xlink:title=" ">
<polygon fill="white" stroke="#bfbfbf" points="420.9,-62 420.9,-81 461.9,-81 461.9,-62 420.9,-62"/>
<text text-anchor="middle" x="441.4" y="-69" font-family="Helvetica,sans-Serif" font-size="10.00">string</text>
</a>
</g>
</g>
<!-- Node9&#45;&gt;Node12 -->
<g id="edge13" class="edge">
<title>Node9&#45;&gt;Node12</title>
<path fill="none" stroke="midnightblue" d="M212.58,-128.91C219.03,-126.88 225.94,-124.79 232.4,-123 295.42,-105.47 370.1,-88.28 410.94,-79.17"/>
<polygon fill="midnightblue" stroke="midnightblue" points="411.8,-82.57 420.81,-76.98 410.29,-75.73 411.8,-82.57"/>
</g>
<!-- Node13&#45;&gt;Node3 -->
<g id="edge17" class="edge">
<title>Node13&#45;&gt;Node3</title>
<path fill="none" stroke="midnightblue" d="M312.07,-324.46C287.59,-317.3 254.66,-305.42 229.4,-288 203.83,-270.37 181.15,-242.01 168.09,-223.83"/>
<polygon fill="midnightblue" stroke="midnightblue" points="170.77,-221.55 162.18,-215.35 165.03,-225.56 170.77,-221.55"/>
</g>
<!-- Node13&#45;&gt;Node7 -->
<g id="edge20" class="edge">
<title>Node13&#45;&gt;Node7</title>
<path fill="none" stroke="midnightblue" d="M348.9,-324.41C359.94,-286.75 404.41,-137.52 420.4,-123 465.63,-81.92 538.97,-72.98 584.3,-71.7"/>
<polygon fill="midnightblue" stroke="midnightblue" points="584.41,-75.2 594.35,-71.53 584.3,-68.2 584.41,-75.2"/>
</g>
<!-- Node13&#45;&gt;Node14 -->
<g id="edge18" class="edge">
<title>Node13&#45;&gt;Node14</title>
<path fill="none" stroke="midnightblue" d="M337.8,-324.48C328.53,-315.28 313.58,-300.46 302.19,-289.16"/>
<polygon fill="midnightblue" stroke="midnightblue" points="304.54,-286.57 294.98,-282.01 299.62,-291.54 304.54,-286.57"/>
</g>
<!-- Node14&#45;&gt;Node3 -->
<g id="edge19" class="edge">
<title>Node14&#45;&gt;Node3</title>
<path fill="none" stroke="midnightblue" d="M269.14,-262.87C247.09,-251.84 208.71,-232.66 182.93,-219.77"/>
<polygon fill="midnightblue" stroke="midnightblue" points="184.24,-216.51 173.73,-215.17 181.11,-222.77 184.24,-216.51"/>
</g>
<!-- Node15&#45;&gt;Node7 -->
<g id="edge26" class="edge">
<title>Node15&#45;&gt;Node7</title>
<path fill="none" stroke="midnightblue" d="M778.09,-262.85C791.87,-254.26 810.99,-239.69 819.4,-221 825.05,-208.44 826.18,-202 819.4,-190 786.34,-131.49 711.18,-98.87 664.42,-83.56"/>
<polygon fill="midnightblue" stroke="midnightblue" points="665.21,-80.14 654.62,-80.46 663.1,-86.81 665.21,-80.14"/>
</g>
<!-- Node15&#45;&gt;Node16 -->
<g id="edge23" class="edge">
<title>Node15&#45;&gt;Node16</title>
<path fill="none" stroke="midnightblue" d="M760.78,-262.73C759.02,-253.18 756.14,-237.62 753.87,-225.28"/>
<polygon fill="midnightblue" stroke="midnightblue" points="757.25,-224.33 751.99,-215.13 750.36,-225.6 757.25,-224.33"/>
</g>
<!-- Node16&#45;&gt;Node7 -->
<g id="edge25" class="edge">
<title>Node16&#45;&gt;Node7</title>
<path fill="none" stroke="midnightblue" d="M742.8,-195.77C729.58,-180.68 701.37,-148.83 676.4,-123 664.94,-111.15 651.59,-98.21 641.29,-88.39"/>
<polygon fill="midnightblue" stroke="midnightblue" points="643.44,-85.61 633.78,-81.27 638.63,-90.69 643.44,-85.61"/>
</g>
<!-- Node16&#45;&gt;Node12 -->
<g id="edge24" class="edge">
<title>Node16&#45;&gt;Node12</title>
<path fill="none" stroke="midnightblue" d="M730.12,-195.84C676.85,-173.08 532.75,-111.53 470.59,-84.97"/>
<polygon fill="midnightblue" stroke="midnightblue" points="471.92,-81.73 461.35,-81.02 469.17,-88.17 471.92,-81.73"/>
</g>
<!-- Node17&#45;&gt;Node3 -->
<g id="edge29" class="edge">
<title>Node17&#45;&gt;Node3</title>
<path fill="none" stroke="midnightblue" d="M840.34,-258.44C837.33,-257.91 834.33,-257.42 831.4,-257 585.44,-221.43 520.82,-244.29 273.4,-221 248.24,-218.63 220.14,-215.18 197.78,-212.23"/>
<polygon fill="midnightblue" stroke="midnightblue" points="198,-208.73 187.63,-210.88 197.08,-215.67 198,-208.73"/>
</g>
<!-- Node17&#45;&gt;Node7 -->
<g id="edge38" class="edge">
<title>Node17&#45;&gt;Node7</title>
<path fill="none" stroke="midnightblue" d="M888.69,-257.29C874.04,-227.75 836.26,-159.48 784.4,-123 748.34,-97.64 699,-84.61 664.68,-78.2"/>
<polygon fill="midnightblue" stroke="midnightblue" points="665,-74.71 654.54,-76.42 663.78,-81.6 665,-74.71"/>
</g>
<!-- Node17&#45;&gt;Node16 -->
<g id="edge37" class="edge">
<title>Node17&#45;&gt;Node16</title>
<path fill="none" stroke="midnightblue" d="M863.94,-257.4C838.49,-245.99 803,-230.08 778.5,-219.1"/>
<polygon fill="midnightblue" stroke="midnightblue" points="779.93,-215.9 769.38,-215.01 777.07,-222.29 779.93,-215.9"/>
</g>
<!-- Node18 -->
<g id="node18" class="node">
<title>Node18</title>
<g id="a_node18"><a xlink:title=" ">
<polygon fill="white" stroke="#bfbfbf" points="904.4,-196 904.4,-215 950.4,-215 950.4,-196 904.4,-196"/>
<text text-anchor="middle" x="927.4" y="-203" font-family="Helvetica,sans-Serif" font-size="10.00">cstdint</text>
</a>
</g>
</g>
<!-- Node17&#45;&gt;Node18 -->
<g id="edge28" class="edge">
<title>Node17&#45;&gt;Node18</title>
<path fill="none" stroke="midnightblue" d="M902.34,-257.4C907.13,-247.66 913.54,-234.65 918.68,-224.21"/>
<polygon fill="midnightblue" stroke="midnightblue" points="921.84,-225.71 923.12,-215.19 915.56,-222.62 921.84,-225.71"/>
</g>
<!-- Node19 -->
<g id="node19" class="node">
<title>Node19</title>
<g id="a_node19"><a xlink:href="write-barrier_8h.html" target="_top" xlink:title=" ">
<polygon fill="white" stroke="black" points="968.9,-190.5 968.9,-220.5 1069.9,-220.5 1069.9,-190.5 968.9,-190.5"/>
<text text-anchor="start" x="976.9" y="-208.5" font-family="Helvetica,sans-Serif" font-size="10.00">cppgc/internal/write</text>
<text text-anchor="middle" x="1019.4" y="-197.5" font-family="Helvetica,sans-Serif" font-size="10.00">&#45;barrier.h</text>
</a>
</g>
</g>
<!-- Node17&#45;&gt;Node19 -->
<g id="edge30" class="edge">
<title>Node17&#45;&gt;Node19</title>
<path fill="none" stroke="midnightblue" d="M922.3,-257.4C940.26,-247.98 964.07,-235.5 983.62,-225.26"/>
<polygon fill="midnightblue" stroke="midnightblue" points="985.31,-228.32 992.54,-220.58 982.06,-222.12 985.31,-228.32"/>
</g>
<!-- Node19&#45;&gt;Node4 -->
<g id="edge31" class="edge">
<title>Node19&#45;&gt;Node4</title>
<path fill="none" stroke="midnightblue" d="M968.78,-191.63C965.62,-191.02 962.47,-190.47 959.4,-190 722.07,-153.67 659.57,-175.02 420.4,-154 395.41,-151.8 367.83,-148.88 344.29,-146.23"/>
<polygon fill="midnightblue" stroke="midnightblue" points="344.46,-142.73 334.13,-145.08 343.67,-149.68 344.46,-142.73"/>
</g>
<!-- Node19&#45;&gt;Node7 -->
<g id="edge36" class="edge">
<title>Node19&#45;&gt;Node7</title>
<path fill="none" stroke="midnightblue" d="M998.92,-190.22C968.56,-169.3 912.83,-131.84 890.4,-123 813.94,-92.86 717.84,-80.33 664.6,-75.42"/>
<polygon fill="midnightblue" stroke="midnightblue" points="664.8,-71.92 654.54,-74.54 664.19,-78.9 664.8,-71.92"/>
</g>
<!-- Node20 -->
<g id="node20" class="node">
<title>Node20</title>
<g id="a_node20"><a xlink:href="process-heap_8h.html" target="_top" xlink:title=" ">
<polygon fill="white" stroke="black" points="954.9,-123.5 954.9,-153.5 1069.9,-153.5 1069.9,-123.5 954.9,-123.5"/>
<text text-anchor="start" x="962.9" y="-141.5" font-family="Helvetica,sans-Serif" font-size="10.00">cppgc/internal/process</text>
<text text-anchor="middle" x="1012.4" y="-130.5" font-family="Helvetica,sans-Serif" font-size="10.00">&#45;heap.h</text>
</a>
</g>
</g>
<!-- Node19&#45;&gt;Node20 -->
<g id="edge32" class="edge">
<title>Node19&#45;&gt;Node20</title>
<path fill="none" stroke="midnightblue" d="M1017.88,-190.4C1017.04,-182.56 1015.96,-172.6 1014.99,-163.57"/>
<polygon fill="midnightblue" stroke="midnightblue" points="1018.47,-163.14 1013.91,-153.58 1011.51,-163.89 1018.47,-163.14"/>
</g>
<!-- Node20&#45;&gt;Node7 -->
<g id="edge35" class="edge">
<title>Node20&#45;&gt;Node7</title>
<path fill="none" stroke="midnightblue" d="M954.5,-126.59C947.72,-125.36 940.91,-124.14 934.4,-123 837.86,-106.17 724.09,-88.08 664.86,-78.8"/>
<polygon fill="midnightblue" stroke="midnightblue" points="665.22,-75.31 654.8,-77.22 664.14,-82.23 665.22,-75.31"/>
</g>
<!-- Node21 -->
<g id="node21" class="node">
<title>Node21</title>
<g id="a_node21"><a xlink:href="atomic-entry-flag_8h.html" target="_top" xlink:title=" ">
<polygon fill="white" stroke="black" points="958.4,-56.5 958.4,-86.5 1068.4,-86.5 1068.4,-56.5 958.4,-56.5"/>
<text text-anchor="start" x="966.4" y="-74.5" font-family="Helvetica,sans-Serif" font-size="10.00">cppgc/internal/atomic</text>
<text text-anchor="middle" x="1013.4" y="-63.5" font-family="Helvetica,sans-Serif" font-size="10.00">&#45;entry&#45;flag.h</text>
</a>
</g>
</g>
<!-- Node20&#45;&gt;Node21 -->
<g id="edge33" class="edge">
<title>Node20&#45;&gt;Node21</title>
<path fill="none" stroke="midnightblue" d="M1012.62,-123.4C1012.73,-115.64 1012.89,-105.81 1013.02,-96.86"/>
<polygon fill="midnightblue" stroke="midnightblue" points="1016.53,-96.63 1013.18,-86.58 1009.53,-96.52 1016.53,-96.63"/>
</g>
<!-- Node22 -->
<g id="node22" class="node">
<title>Node22</title>
<g id="a_node22"><a xlink:title=" ">
<polygon fill="white" stroke="#bfbfbf" points="1033.4,-0.5 1033.4,-19.5 1079.4,-19.5 1079.4,-0.5 1033.4,-0.5"/>
<text text-anchor="middle" x="1056.4" y="-7.5" font-family="Helvetica,sans-Serif" font-size="10.00">atomic</text>
</a>
</g>
</g>
<!-- Node21&#45;&gt;Node22 -->
<g id="edge34" class="edge">
<title>Node21&#45;&gt;Node22</title>
<path fill="none" stroke="midnightblue" d="M1023.59,-56.4C1029.77,-47.84 1037.7,-36.87 1044.22,-27.86"/>
<polygon fill="midnightblue" stroke="midnightblue" points="1047.12,-29.81 1050.14,-19.66 1041.45,-25.71 1047.12,-29.81"/>
</g>
<!-- Node23&#45;&gt;Node7 -->
<g id="edge57" class="edge">
<title>Node23&#45;&gt;Node7</title>
<path fill="none" stroke="midnightblue" d="M484.4,-380.2C503.94,-337.26 589.47,-149.27 616.31,-90.28"/>
<polygon fill="midnightblue" stroke="midnightblue" points="619.53,-91.66 620.48,-81.1 613.16,-88.76 619.53,-91.66"/>
</g>
<!-- Node23&#45;&gt;Node13 -->
<g id="edge56" class="edge">
<title>Node23&#45;&gt;Node13</title>
<path fill="none" stroke="midnightblue" d="M459.17,-380.44C437.01,-371.52 402.08,-357.44 376.96,-347.32"/>
<polygon fill="midnightblue" stroke="midnightblue" points="378.12,-344.01 367.53,-343.52 375.5,-350.5 378.12,-344.01"/>
</g>
<!-- Node24 -->
<g id="node24" class="node">
<title>Node24</title>
<g id="a_node24"><a xlink:href="heap_8h.html" target="_top" xlink:title=" ">
<polygon fill="white" stroke="black" points="428.4,-263 428.4,-282 502.4,-282 502.4,-263 428.4,-263"/>
<text text-anchor="middle" x="465.4" y="-270" font-family="Helvetica,sans-Serif" font-size="10.00">cppgc/heap.h</text>
</a>
</g>
</g>
<!-- Node23&#45;&gt;Node24 -->
<g id="edge40" class="edge">
<title>Node23&#45;&gt;Node24</title>
<path fill="none" stroke="midnightblue" d="M479.27,-380.32C476.86,-361.76 471.16,-317.84 467.86,-292.47"/>
<polygon fill="midnightblue" stroke="midnightblue" points="471.3,-291.75 466.54,-282.28 464.36,-292.65 471.3,-291.75"/>
</g>
<!-- Node23&#45;&gt;Node28 -->
<g id="edge49" class="edge">
<title>Node23&#45;&gt;Node28</title>
<path fill="none" stroke="midnightblue" d="M505.91,-380.44C532.99,-371.36 575.99,-356.94 606.27,-346.78"/>
<polygon fill="midnightblue" stroke="midnightblue" points="607.64,-350.01 616.01,-343.52 605.41,-343.38 607.64,-350.01"/>
</g>
<!-- Node24&#45;&gt;Node7 -->
<g id="edge48" class="edge">
<title>Node24&#45;&gt;Node7</title>
<path fill="none" stroke="midnightblue" d="M472.23,-262.95C496.49,-232.59 578.73,-129.65 611.13,-89.11"/>
<polygon fill="midnightblue" stroke="midnightblue" points="613.9,-91.24 617.41,-81.24 608.44,-86.87 613.9,-91.24"/>
</g>
<!-- Node24&#45;&gt;Node8 -->
<g id="edge47" class="edge">
<title>Node24&#45;&gt;Node8</title>
<path fill="none" stroke="midnightblue" d="M446.94,-262.87C423.16,-251.75 381.61,-232.32 354.05,-219.43"/>
<polygon fill="midnightblue" stroke="midnightblue" points="355.47,-216.23 344.93,-215.17 352.51,-222.57 355.47,-216.23"/>
</g>
<!-- Node24&#45;&gt;Node11 -->
<g id="edge41" class="edge">
<title>Node24&#45;&gt;Node11</title>
<path fill="none" stroke="midnightblue" d="M428.34,-263.84C363.02,-250.29 233.83,-223.32 229.4,-221 211.57,-211.66 214.33,-199.13 196.4,-190 120.21,-151.18 61.91,-219.88 7.4,-154 -7.83,-135.59 4.96,-107.46 16.19,-89.52"/>
<polygon fill="midnightblue" stroke="midnightblue" points="19.12,-91.44 21.76,-81.18 13.3,-87.55 19.12,-91.44"/>
</g>
<!-- Node25 -->
<g id="node25" class="node">
<title>Node25</title>
<g id="a_node25"><a xlink:title=" ">
<polygon fill="white" stroke="#bfbfbf" points="428.4,-196 428.4,-215 472.4,-215 472.4,-196 428.4,-196"/>
<text text-anchor="middle" x="450.4" y="-203" font-family="Helvetica,sans-Serif" font-size="10.00">vector</text>
</a>
</g>
</g>
<!-- Node24&#45;&gt;Node25 -->
<g id="edge42" class="edge">
<title>Node24&#45;&gt;Node25</title>
<path fill="none" stroke="midnightblue" d="M463.38,-262.73C461.15,-253.09 457.51,-237.3 454.65,-224.91"/>
<polygon fill="midnightblue" stroke="midnightblue" points="458.05,-224.08 452.39,-215.13 451.23,-225.66 458.05,-224.08"/>
</g>
<!-- Node26 -->
<g id="node26" class="node">
<title>Node26</title>
<g id="a_node26"><a xlink:href="common_8h.html" target="_top" xlink:title=" ">
<polygon fill="white" stroke="black" points="428.9,-129 428.9,-148 519.9,-148 519.9,-129 428.9,-129"/>
<text text-anchor="middle" x="474.4" y="-136" font-family="Helvetica,sans-Serif" font-size="10.00">cppgc/common.h</text>
</a>
</g>
</g>
<!-- Node24&#45;&gt;Node26 -->
<g id="edge43" class="edge">
<title>Node24&#45;&gt;Node26</title>
<path fill="none" stroke="midnightblue" d="M469.08,-262.76C473.03,-252.84 479.07,-236.09 481.4,-221 484.71,-199.56 481.58,-174.69 478.51,-158.12"/>
<polygon fill="midnightblue" stroke="midnightblue" points="481.9,-157.21 476.48,-148.11 475.04,-158.61 481.9,-157.21"/>
</g>
<!-- Node27 -->
<g id="node27" class="node">
<title>Node27</title>
<g id="a_node27"><a xlink:href="custom-space_8h.html" target="_top" xlink:title=" ">
<polygon fill="white" stroke="black" points="16.9,-129 16.9,-148 131.9,-148 131.9,-129 16.9,-129"/>
<text text-anchor="middle" x="74.4" y="-136" font-family="Helvetica,sans-Serif" font-size="10.00">cppgc/custom&#45;space.h</text>
</a>
</g>
</g>
<!-- Node24&#45;&gt;Node27 -->
<g id="edge45" class="edge">
<title>Node24&#45;&gt;Node27</title>
<path fill="none" stroke="midnightblue" d="M428.32,-265.8C388.64,-258.78 324.49,-244.77 273.4,-221 251.71,-210.91 250.79,-200.71 229.4,-190 194.46,-172.5 152.13,-159.19 120.54,-150.64"/>
<polygon fill="midnightblue" stroke="midnightblue" points="121.24,-147.2 110.68,-148.03 119.45,-153.97 121.24,-147.2"/>
</g>
<!-- Node26&#45;&gt;Node7 -->
<g id="edge44" class="edge">
<title>Node26&#45;&gt;Node7</title>
<path fill="none" stroke="midnightblue" d="M494.32,-128.87C520.09,-117.7 565.21,-98.15 594.95,-85.26"/>
<polygon fill="midnightblue" stroke="midnightblue" points="596.61,-88.35 604.4,-81.17 593.83,-81.93 596.61,-88.35"/>
</g>
<!-- Node27&#45;&gt;Node5 -->
<g id="edge46" class="edge">
<title>Node27&#45;&gt;Node5</title>
<path fill="none" stroke="midnightblue" d="M81.68,-128.73C90.1,-118.6 104.15,-101.69 114.64,-89.06"/>
<polygon fill="midnightblue" stroke="midnightblue" points="117.53,-91.06 121.23,-81.13 112.15,-86.58 117.53,-91.06"/>
</g>
<!-- Node28&#45;&gt;Node3 -->
<g id="edge52" class="edge">
<title>Node28&#45;&gt;Node3</title>
<path fill="none" stroke="midnightblue" d="M596.56,-326.44C551.29,-319.24 479.63,-306.21 419.4,-288 384.48,-277.44 378.05,-268.4 343.4,-257 281.55,-236.66 263.97,-238.99 201.4,-221 198.24,-220.09 194.98,-219.11 191.71,-218.11"/>
<polygon fill="midnightblue" stroke="midnightblue" points="192.6,-214.72 182.01,-215.06 190.5,-221.4 192.6,-214.72"/>
</g>
<!-- Node28&#45;&gt;Node7 -->
<g id="edge55" class="edge">
<title>Node28&#45;&gt;Node7</title>
<path fill="none" stroke="midnightblue" d="M645,-324.22C648.45,-315.28 653.43,-300.94 655.4,-288 666.46,-215.19 642.73,-128.38 630.75,-91.05"/>
<polygon fill="midnightblue" stroke="midnightblue" points="633.93,-89.52 627.47,-81.13 627.29,-91.72 633.93,-89.52"/>
</g>
<!-- Node28&#45;&gt;Node14 -->
<g id="edge54" class="edge">
<title>Node28&#45;&gt;Node14</title>
<path fill="none" stroke="midnightblue" d="M596.54,-327.21C538.89,-319.51 435.81,-304.91 348.4,-288 342.63,-286.88 336.58,-285.61 330.62,-284.28"/>
<polygon fill="midnightblue" stroke="midnightblue" points="331.26,-280.84 320.73,-282.03 329.7,-287.66 331.26,-280.84"/>
</g>
<!-- Node28&#45;&gt;Node17 -->
<g id="edge53" class="edge">
<title>Node28&#45;&gt;Node17</title>
<path fill="none" stroke="midnightblue" d="M677.79,-324.48C717.57,-315.16 782.11,-300.04 830.59,-288.68"/>
<polygon fill="midnightblue" stroke="midnightblue" points="831.43,-292.08 840.37,-286.39 829.83,-285.26 831.43,-292.08"/>
</g>
<!-- Node28&#45;&gt;Node22 -->
<g id="edge50" class="edge">
<title>Node28&#45;&gt;Node22</title>
<path fill="none" stroke="midnightblue" d="M686.05,-330.17C801.04,-321.68 1098.4,-291.5 1098.4,-206.5 1098.4,-206.5 1098.4,-206.5 1098.4,-137.5 1098.4,-96.8 1078.58,-52.32 1066.17,-28.46"/>
<polygon fill="midnightblue" stroke="midnightblue" points="1069.2,-26.71 1061.38,-19.57 1063.04,-30.03 1069.2,-26.71"/>
</g>
<!-- Node29 -->
<g id="node29" class="node">
<title>Node29</title>
<g id="a_node29"><a xlink:title=" ">
<polygon fill="white" stroke="#bfbfbf" points="596.9,-263 596.9,-282 645.9,-282 645.9,-263 596.9,-263"/>
<text text-anchor="middle" x="621.4" y="-270" font-family="Helvetica,sans-Serif" font-size="10.00">cstddef</text>
</a>
</g>
</g>
<!-- Node28&#45;&gt;Node29 -->
<g id="edge51" class="edge">
<title>Node28&#45;&gt;Node29</title>
<path fill="none" stroke="midnightblue" d="M638.53,-324.48C635.68,-315.99 631.21,-302.7 627.56,-291.82"/>
<polygon fill="midnightblue" stroke="midnightblue" points="630.76,-290.37 624.26,-282.01 624.13,-292.6 630.76,-290.37"/>
</g>
</g>
</svg>
