<?xml version="1.0" encoding="UTF-8" standalone="no"?>
<!DOCTYPE svg PUBLIC "-//W3C//DTD SVG 1.1//EN"
 "http://www.w3.org/Graphics/SVG/1.1/DTD/svg11.dtd">
<!-- Generated by graphviz version 2.44.0 ()
 -->
<!-- Title: include/cppgc/internal/write&#45;barrier.h Pages: 1 -->
<svg width="406pt" height="352pt"
 viewBox="0.00 0.00 405.50 352.00" xmlns="http://www.w3.org/2000/svg" xmlns:xlink="http://www.w3.org/1999/xlink">
<g id="graph0" class="graph" transform="scale(1 1) rotate(0) translate(4 348)">
<title>include/cppgc/internal/write&#45;barrier.h</title>
<polygon fill="white" stroke="transparent" points="-4,4 -4,-348 401.5,-348 401.5,4 -4,4"/>
<!-- Node1 -->
<g id="node1" class="node">
<title>Node1</title>
<g id="a_node1"><a xlink:title=" ">
<polygon fill="#bfbfbf" stroke="black" points="223,-313.5 223,-343.5 334,-343.5 334,-313.5 223,-313.5"/>
<text text-anchor="start" x="231" y="-331.5" font-family="Helvetica,sans-Serif" font-size="10.00">include/cppgc/internal</text>
<text text-anchor="middle" x="278.5" y="-320.5" font-family="Helvetica,sans-Serif" font-size="10.00">/write&#45;barrier.h</text>
</a>
</g>
</g>
<!-- Node2 -->
<g id="node2" class="node">
<title>Node2</title>
<g id="a_node2"><a xlink:href="pointer-policies_8h.html" target="_top" xlink:title=" ">
<polygon fill="white" stroke="black" points="223,-246.5 223,-276.5 334,-276.5 334,-246.5 223,-246.5"/>
<text text-anchor="start" x="231" y="-264.5" font-family="Helvetica,sans-Serif" font-size="10.00">include/cppgc/internal</text>
<text text-anchor="middle" x="278.5" y="-253.5" font-family="Helvetica,sans-Serif" font-size="10.00">/pointer&#45;policies.h</text>
</a>
</g>
</g>
<!-- Node1&#45;&gt;Node2 -->
<g id="edge1" class="edge">
<title>Node1&#45;&gt;Node2</title>
<path fill="none" stroke="midnightblue" d="M278.5,-303.11C278.5,-294.15 278.5,-284.32 278.5,-276.58"/>
<polygon fill="midnightblue" stroke="midnightblue" points="275,-303.4 278.5,-313.4 282,-303.4 275,-303.4"/>
</g>
<!-- Node3 -->
<g id="node3" class="node">
<title>Node3</title>
<g id="a_node3"><a xlink:href="member_8h.html" target="_top" xlink:title=" ">
<polygon fill="white" stroke="black" points="128.5,-190.5 128.5,-209.5 250.5,-209.5 250.5,-190.5 128.5,-190.5"/>
<text text-anchor="middle" x="189.5" y="-197.5" font-family="Helvetica,sans-Serif" font-size="10.00">include/cppgc/member.h</text>
</a>
</g>
</g>
<!-- Node2&#45;&gt;Node3 -->
<g id="edge2" class="edge">
<title>Node2&#45;&gt;Node3</title>
<path fill="none" stroke="midnightblue" d="M249,-240.78C233.22,-230.23 214.6,-217.78 202.45,-209.66"/>
<polygon fill="midnightblue" stroke="midnightblue" points="247.15,-243.75 257.41,-246.4 251.04,-237.93 247.15,-243.75"/>
</g>
<!-- Node7 -->
<g id="node7" class="node">
<title>Node7</title>
<g id="a_node7"><a xlink:href="visitor_8h.html" target="_top" xlink:title=" ">
<polygon fill="white" stroke="black" points="180,-62 180,-81 293,-81 293,-62 180,-62"/>
<text text-anchor="middle" x="236.5" y="-69" font-family="Helvetica,sans-Serif" font-size="10.00">include/cppgc/visitor.h</text>
</a>
</g>
</g>
<!-- Node2&#45;&gt;Node7 -->
<g id="edge12" class="edge">
<title>Node2&#45;&gt;Node7</title>
<path fill="none" stroke="midnightblue" d="M273.11,-236.39C263.68,-194.16 244.58,-108.67 238.44,-81.21"/>
<polygon fill="midnightblue" stroke="midnightblue" points="269.75,-237.37 275.34,-246.37 276.58,-235.85 269.75,-237.37"/>
</g>
<!-- Node8 -->
<g id="node8" class="node">
<title>Node8</title>
<g id="a_node8"><a xlink:href="persistent_8h.html" target="_top" xlink:title=" ">
<polygon fill="white" stroke="black" points="267.5,-0.5 267.5,-19.5 397.5,-19.5 397.5,-0.5 267.5,-0.5"/>
<text text-anchor="middle" x="332.5" y="-7.5" font-family="Helvetica,sans-Serif" font-size="10.00">include/cppgc/persistent.h</text>
</a>
</g>
</g>
<!-- Node2&#45;&gt;Node8 -->
<g id="edge11" class="edge">
<title>Node2&#45;&gt;Node8</title>
<path fill="none" stroke="midnightblue" d="M283.72,-236.36C295.37,-182.56 323.02,-54.81 330.57,-19.93"/>
<polygon fill="midnightblue" stroke="midnightblue" points="280.25,-235.86 281.56,-246.37 287.09,-237.34 280.25,-235.86"/>
</g>
<!-- Node4 -->
<g id="node4" class="node">
<title>Node4</title>
<g id="a_node4"><a xlink:href="liveness-broker_8h.html" target="_top" xlink:title=" ">
<polygon fill="white" stroke="black" points="92.5,-123.5 92.5,-153.5 208.5,-153.5 208.5,-123.5 92.5,-123.5"/>
<text text-anchor="start" x="100.5" y="-141.5" font-family="Helvetica,sans-Serif" font-size="10.00">include/cppgc/liveness</text>
<text text-anchor="middle" x="150.5" y="-130.5" font-family="Helvetica,sans-Serif" font-size="10.00">&#45;broker.h</text>
</a>
</g>
</g>
<!-- Node3&#45;&gt;Node4 -->
<g id="edge3" class="edge">
<title>Node3&#45;&gt;Node4</title>
<path fill="none" stroke="midnightblue" d="M178.33,-181.96C172.43,-172.96 165.27,-162.03 159.69,-153.52"/>
<polygon fill="midnightblue" stroke="midnightblue" points="175.5,-184.03 183.91,-190.48 181.36,-180.19 175.5,-184.03"/>
</g>
<!-- Node3&#45;&gt;Node7 -->
<g id="edge10" class="edge">
<title>Node3&#45;&gt;Node7</title>
<path fill="none" stroke="midnightblue" d="M201.76,-182.25C207.26,-174.07 213.41,-163.88 217.5,-154 227.96,-128.77 233.3,-96.64 235.4,-81.36"/>
<polygon fill="midnightblue" stroke="midnightblue" points="198.85,-180.3 195.98,-190.5 204.58,-184.32 198.85,-180.3"/>
</g>
<!-- Node5 -->
<g id="node5" class="node">
<title>Node5</title>
<g id="a_node5"><a xlink:href="prefinalizer-handler_8h.html" target="_top" xlink:title=" ">
<polygon fill="white" stroke="black" points="11,-56.5 11,-86.5 122,-86.5 122,-56.5 11,-56.5"/>
<text text-anchor="start" x="19" y="-74.5" font-family="Helvetica,sans-Serif" font-size="10.00">include/cppgc/internal</text>
<text text-anchor="middle" x="66.5" y="-63.5" font-family="Helvetica,sans-Serif" font-size="10.00">/prefinalizer&#45;handler.h</text>
</a>
</g>
</g>
<!-- Node4&#45;&gt;Node5 -->
<g id="edge4" class="edge">
<title>Node4&#45;&gt;Node5</title>
<path fill="none" stroke="midnightblue" d="M124.22,-117.17C111.38,-107.23 96.24,-95.51 84.69,-86.58"/>
<polygon fill="midnightblue" stroke="midnightblue" points="122.22,-120.04 132.27,-123.4 126.51,-114.51 122.22,-120.04"/>
</g>
<!-- Node6 -->
<g id="node6" class="node">
<title>Node6</title>
<g id="a_node6"><a xlink:href="prefinalizer_8h.html" target="_top" xlink:title=" ">
<polygon fill="white" stroke="black" points="0,-0.5 0,-19.5 133,-19.5 133,-0.5 0,-0.5"/>
<text text-anchor="middle" x="66.5" y="-7.5" font-family="Helvetica,sans-Serif" font-size="10.00">include/cppgc/prefinalizer.h</text>
</a>
</g>
</g>
<!-- Node4&#45;&gt;Node6 -->
<g id="edge9" class="edge">
<title>Node4&#45;&gt;Node6</title>
<path fill="none" stroke="midnightblue" d="M149,-112.94C146.93,-95.73 142.03,-72.88 130.5,-56 119.24,-39.51 99.81,-27.12 85.3,-19.56"/>
<polygon fill="midnightblue" stroke="midnightblue" points="145.56,-113.7 150,-123.32 152.53,-113.03 145.56,-113.7"/>
</g>
<!-- Node4&#45;&gt;Node7 -->
<g id="edge6" class="edge">
<title>Node4&#45;&gt;Node7</title>
<path fill="none" stroke="midnightblue" d="M177.17,-117.34C193.22,-105.21 212.83,-90.39 225,-81.19"/>
<polygon fill="midnightblue" stroke="midnightblue" points="175.03,-114.57 169.16,-123.4 179.25,-120.16 175.03,-114.57"/>
</g>
<!-- Node5&#45;&gt;Node6 -->
<g id="edge5" class="edge">
<title>Node5&#45;&gt;Node6</title>
<path fill="none" stroke="midnightblue" d="M66.5,-46.29C66.5,-36.86 66.5,-26.65 66.5,-19.66"/>
<polygon fill="midnightblue" stroke="midnightblue" points="63,-46.4 66.5,-56.4 70,-46.4 63,-46.4"/>
</g>
<!-- Node7&#45;&gt;Node8 -->
<g id="edge7" class="edge">
<title>Node7&#45;&gt;Node8</title>
<path fill="none" stroke="midnightblue" d="M258.95,-56.59C277.47,-45.1 303.17,-29.18 318.77,-19.51"/>
<polygon fill="midnightblue" stroke="midnightblue" points="256.91,-53.73 250.25,-61.98 260.6,-59.68 256.91,-53.73"/>
</g>
<!-- Node9 -->
<g id="node9" class="node">
<title>Node9</title>
<g id="a_node9"><a xlink:href="v8-cppgc_8h.html" target="_top" xlink:title=" ">
<polygon fill="white" stroke="black" points="151.5,-0.5 151.5,-19.5 249.5,-19.5 249.5,-0.5 151.5,-0.5"/>
<text text-anchor="middle" x="200.5" y="-7.5" font-family="Helvetica,sans-Serif" font-size="10.00">include/v8&#45;cppgc.h</text>
</a>
</g>
</g>
<!-- Node7&#45;&gt;Node9 -->
<g id="edge8" class="edge">
<title>Node7&#45;&gt;Node9</title>
<path fill="none" stroke="midnightblue" d="M226.02,-53.17C219.32,-42.11 210.94,-28.25 205.65,-19.51"/>
<polygon fill="midnightblue" stroke="midnightblue" points="223.17,-55.23 231.34,-61.98 229.16,-51.61 223.17,-55.23"/>
</g>
</g>
</svg>
