<?xml version="1.0" encoding="UTF-8" standalone="no"?>
<!DOCTYPE svg PUBLIC "-//W3C//DTD SVG 1.1//EN"
 "http://www.w3.org/Graphics/SVG/1.1/DTD/svg11.dtd">
<!-- Generated by graphviz version 2.44.0 ()
 -->
<!-- Title: include/cppgc/gc&#45;info.h Pages: 1 -->
<svg width="298pt" height="207pt"
 viewBox="0.00 0.00 297.98 207.00" xmlns="http://www.w3.org/2000/svg" xmlns:xlink="http://www.w3.org/1999/xlink">
<g id="graph0" class="graph" transform="scale(1 1) rotate(0) translate(4 203)">
<title>include/cppgc/gc&#45;info.h</title>
<polygon fill="white" stroke="transparent" points="-4,4 -4,-203 293.98,-203 293.98,4 -4,4"/>
<!-- Node1 -->
<g id="node1" class="node">
<title>Node1</title>
<g id="a_node1"><a xlink:title=" ">
<polygon fill="#bfbfbf" stroke="black" points="51.98,-179.5 51.98,-198.5 167.98,-198.5 167.98,-179.5 51.98,-179.5"/>
<text text-anchor="middle" x="109.98" y="-186.5" font-family="Helvetica,sans-Serif" font-size="10.00">include/cppgc/gc&#45;info.h</text>
</a>
</g>
</g>
<!-- Node2 -->
<g id="node2" class="node">
<title>Node2</title>
<g id="a_node2"><a xlink:title=" ">
<polygon fill="white" stroke="#bfbfbf" points="9.98,-0.5 9.98,-19.5 57.98,-19.5 57.98,-0.5 9.98,-0.5"/>
<text text-anchor="middle" x="33.98" y="-7.5" font-family="Helvetica,sans-Serif" font-size="10.00">stdint.h</text>
</a>
</g>
</g>
<!-- Node1&#45;&gt;Node2 -->
<g id="edge1" class="edge">
<title>Node1&#45;&gt;Node2</title>
<path fill="none" stroke="midnightblue" d="M93.96,-179.34C79.93,-171.23 59.56,-158.11 44.98,-143 20.4,-117.55 11.94,-109.95 1.98,-76 -0.52,-67.47 -0.73,-64.47 1.98,-56 5.32,-45.54 12.08,-35.43 18.53,-27.45"/>
<polygon fill="midnightblue" stroke="midnightblue" points="21.32,-29.56 25.23,-19.71 16.03,-24.98 21.32,-29.56"/>
</g>
<!-- Node3 -->
<g id="node3" class="node">
<title>Node3</title>
<g id="a_node3"><a xlink:href="finalizer-trait_8h.html" target="_top" xlink:title=" ">
<polygon fill="white" stroke="black" points="53.98,-112.5 53.98,-142.5 165.98,-142.5 165.98,-112.5 53.98,-112.5"/>
<text text-anchor="start" x="61.98" y="-130.5" font-family="Helvetica,sans-Serif" font-size="10.00">include/cppgc/finalizer</text>
<text text-anchor="middle" x="109.98" y="-119.5" font-family="Helvetica,sans-Serif" font-size="10.00">&#45;trait.h</text>
</a>
</g>
</g>
<!-- Node1&#45;&gt;Node3 -->
<g id="edge2" class="edge">
<title>Node1&#45;&gt;Node3</title>
<path fill="none" stroke="midnightblue" d="M109.98,-179.48C109.98,-172.47 109.98,-162.19 109.98,-152.7"/>
<polygon fill="midnightblue" stroke="midnightblue" points="113.48,-152.52 109.98,-142.52 106.48,-152.52 113.48,-152.52"/>
</g>
<!-- Node7 -->
<g id="node7" class="node">
<title>Node7</title>
<g id="a_node7"><a xlink:href="v8config_8h.html" target="_top" xlink:title=" ">
<polygon fill="white" stroke="black" points="195.98,-0.5 195.98,-19.5 289.98,-19.5 289.98,-0.5 195.98,-0.5"/>
<text text-anchor="middle" x="242.98" y="-7.5" font-family="Helvetica,sans-Serif" font-size="10.00">include/v8config.h</text>
</a>
</g>
</g>
<!-- Node1&#45;&gt;Node7 -->
<g id="edge8" class="edge">
<title>Node1&#45;&gt;Node7</title>
<path fill="none" stroke="midnightblue" d="M125.23,-179.45C139.13,-171.21 159.74,-157.85 174.98,-143 201.4,-117.25 207.67,-109.09 223.98,-76 231.29,-61.17 236.3,-43.02 239.33,-29.67"/>
<polygon fill="midnightblue" stroke="midnightblue" points="242.78,-30.27 241.42,-19.77 235.93,-28.83 242.78,-30.27"/>
</g>
<!-- Node4 -->
<g id="node4" class="node">
<title>Node4</title>
<g id="a_node4"><a xlink:title=" ">
<polygon fill="white" stroke="#bfbfbf" points="10.98,-56.5 10.98,-75.5 72.98,-75.5 72.98,-56.5 10.98,-56.5"/>
<text text-anchor="middle" x="41.98" y="-63.5" font-family="Helvetica,sans-Serif" font-size="10.00">type_traits</text>
</a>
</g>
</g>
<!-- Node3&#45;&gt;Node4 -->
<g id="edge3" class="edge">
<title>Node3&#45;&gt;Node4</title>
<path fill="none" stroke="midnightblue" d="M93.86,-112.4C83.57,-103.4 70.23,-91.72 59.65,-82.47"/>
<polygon fill="midnightblue" stroke="midnightblue" points="61.7,-79.61 51.87,-75.66 57.09,-84.88 61.7,-79.61"/>
</g>
<!-- Node5 -->
<g id="node5" class="node">
<title>Node5</title>
<g id="a_node5"><a xlink:href="internals_8h.html" target="_top" xlink:title=" ">
<polygon fill="white" stroke="black" points="90.98,-56.5 90.98,-75.5 214.98,-75.5 214.98,-56.5 90.98,-56.5"/>
<text text-anchor="middle" x="152.98" y="-63.5" font-family="Helvetica,sans-Serif" font-size="10.00">include/cppgc/internals.h</text>
</a>
</g>
</g>
<!-- Node3&#45;&gt;Node5 -->
<g id="edge4" class="edge">
<title>Node3&#45;&gt;Node5</title>
<path fill="none" stroke="midnightblue" d="M120.17,-112.4C126.35,-103.84 134.28,-92.87 140.79,-83.86"/>
<polygon fill="midnightblue" stroke="midnightblue" points="143.7,-85.81 146.72,-75.66 138.03,-81.71 143.7,-85.81"/>
</g>
<!-- Node5&#45;&gt;Node2 -->
<g id="edge6" class="edge">
<title>Node5&#45;&gt;Node2</title>
<path fill="none" stroke="midnightblue" d="M134.12,-56.44C114.71,-47.64 84.25,-33.81 62.01,-23.72"/>
<polygon fill="midnightblue" stroke="midnightblue" points="63.3,-20.46 52.74,-19.52 60.4,-26.84 63.3,-20.46"/>
</g>
<!-- Node6 -->
<g id="node6" class="node">
<title>Node6</title>
<g id="a_node6"><a xlink:title=" ">
<polygon fill="white" stroke="#bfbfbf" points="126.48,-0.5 126.48,-19.5 177.48,-19.5 177.48,-0.5 126.48,-0.5"/>
<text text-anchor="middle" x="151.98" y="-7.5" font-family="Helvetica,sans-Serif" font-size="10.00">stddef.h</text>
</a>
</g>
</g>
<!-- Node5&#45;&gt;Node6 -->
<g id="edge5" class="edge">
<title>Node5&#45;&gt;Node6</title>
<path fill="none" stroke="midnightblue" d="M152.81,-56.08C152.68,-49.01 152.49,-38.86 152.33,-29.99"/>
<polygon fill="midnightblue" stroke="midnightblue" points="155.82,-29.68 152.14,-19.75 148.83,-29.81 155.82,-29.68"/>
</g>
<!-- Node5&#45;&gt;Node7 -->
<g id="edge7" class="edge">
<title>Node5&#45;&gt;Node7</title>
<path fill="none" stroke="midnightblue" d="M167.44,-56.32C181.48,-47.9 203.03,-34.97 219.52,-25.07"/>
<polygon fill="midnightblue" stroke="midnightblue" points="221.78,-27.8 228.55,-19.65 218.18,-21.8 221.78,-27.8"/>
</g>
</g>
</svg>
