<?xml version="1.0" encoding="UTF-8" standalone="no"?>
<!DOCTYPE svg PUBLIC "-//W3C//DTD SVG 1.1//EN"
 "http://www.w3.org/Graphics/SVG/1.1/DTD/svg11.dtd">
<!-- Generated by graphviz version 2.44.0 ()
 -->
<!-- Title: Graphical Class Hierarchy Pages: 1 -->
<svg width="253pt" height="99pt"
 viewBox="0.00 0.00 253.00 98.50" xmlns="http://www.w3.org/2000/svg" xmlns:xlink="http://www.w3.org/1999/xlink">
<g id="graph0" class="graph" transform="scale(1 1) rotate(0) translate(4 94.5)">
<title>Graphical Class Hierarchy</title>
<polygon fill="white" stroke="transparent" points="-4,4 -4,-94.5 249,-94.5 249,4 -4,4"/>
<!-- Node183 -->
<g id="node1" class="node">
<title>Node183</title>
<g id="a_node1"><a xlink:title=" ">
<polygon fill="white" stroke="#bfbfbf" points="0,-33 0,-52 61,-52 61,-33 0,-33"/>
<text text-anchor="middle" x="30.5" y="-40" font-family="Helvetica,sans-Serif" font-size="10.00">false_type</text>
</a>
</g>
</g>
<!-- Node0 -->
<g id="node2" class="node">
<title>Node0</title>
<g id="a_node2"><a xlink:href="structcppgc_1_1internal_1_1HasFinalizeGarbageCollectedObject.html" target="_top" xlink:title=" ">
<polygon fill="white" stroke="black" points="104,-49 104,-90 238,-90 238,-49 104,-49"/>
<text text-anchor="start" x="112" y="-78" font-family="Helvetica,sans-Serif" font-size="10.00">cppgc::internal::HasFinalize</text>
<text text-anchor="start" x="112" y="-67" font-family="Helvetica,sans-Serif" font-size="10.00">GarbageCollectedObject&lt;</text>
<text text-anchor="middle" x="171" y="-56" font-family="Helvetica,sans-Serif" font-size="10.00"> T, typename &gt;</text>
</a>
</g>
</g>
<!-- Node183&#45;&gt;Node0 -->
<g id="edge1" class="edge">
<title>Node183&#45;&gt;Node0</title>
<path fill="none" stroke="midnightblue" d="M71.08,-50.22C81.34,-52.22 92.68,-54.43 103.91,-56.62"/>
<polygon fill="midnightblue" stroke="midnightblue" points="71.7,-46.77 61.21,-48.29 70.36,-53.64 71.7,-46.77"/>
</g>
<!-- Node185 -->
<g id="node3" class="node">
<title>Node185</title>
<g id="a_node3"><a xlink:href="structcppgc_1_1internal_1_1IsGarbageCollectedType.html" target="_top" xlink:title=" ">
<polygon fill="white" stroke="black" points="97,-0.5 97,-30.5 245,-30.5 245,-0.5 97,-0.5"/>
<text text-anchor="start" x="105" y="-18.5" font-family="Helvetica,sans-Serif" font-size="10.00">cppgc::internal::IsGarbage</text>
<text text-anchor="middle" x="171" y="-7.5" font-family="Helvetica,sans-Serif" font-size="10.00">CollectedType&lt; T, typename &gt;</text>
</a>
</g>
</g>
<!-- Node183&#45;&gt;Node185 -->
<g id="edge2" class="edge">
<title>Node183&#45;&gt;Node185</title>
<path fill="none" stroke="midnightblue" d="M71.07,-34.79C79.17,-33.21 87.94,-31.5 96.8,-29.77"/>
<polygon fill="midnightblue" stroke="midnightblue" points="70.36,-31.36 61.21,-36.71 71.7,-38.23 70.36,-31.36"/>
</g>
</g>
</svg>
