<?xml version="1.0" encoding="UTF-8" standalone="no"?>
<!DOCTYPE svg PUBLIC "-//W3C//DTD SVG 1.1//EN"
 "http://www.w3.org/Graphics/SVG/1.1/DTD/svg11.dtd">
<!-- Generated by graphviz version 2.44.0 ()
 -->
<!-- Title: include/cppgc/internals.h Pages: 1 -->
<svg width="294pt" height="218pt"
 viewBox="0.00 0.00 294.00 218.00" xmlns="http://www.w3.org/2000/svg" xmlns:xlink="http://www.w3.org/1999/xlink">
<g id="graph0" class="graph" transform="scale(1 1) rotate(0) translate(4 214)">
<title>include/cppgc/internals.h</title>
<polygon fill="white" stroke="transparent" points="-4,4 -4,-214 290,-214 290,4 -4,4"/>
<!-- Node1 -->
<g id="node1" class="node">
<title>Node1</title>
<g id="a_node1"><a xlink:title=" ">
<polygon fill="#bfbfbf" stroke="black" points="80,-190.5 80,-209.5 204,-209.5 204,-190.5 80,-190.5"/>
<text text-anchor="middle" x="142" y="-197.5" font-family="Helvetica,sans-Serif" font-size="10.00">include/cppgc/internals.h</text>
</a>
</g>
</g>
<!-- Node2 -->
<g id="node2" class="node">
<title>Node2</title>
<g id="a_node2"><a xlink:href="garbage-collected_8h.html" target="_top" xlink:title=" ">
<polygon fill="white" stroke="black" points="0,-56.5 0,-86.5 114,-86.5 114,-56.5 0,-56.5"/>
<text text-anchor="start" x="8" y="-74.5" font-family="Helvetica,sans-Serif" font-size="10.00">include/cppgc/garbage</text>
<text text-anchor="middle" x="57" y="-63.5" font-family="Helvetica,sans-Serif" font-size="10.00">&#45;collected.h</text>
</a>
</g>
</g>
<!-- Node1&#45;&gt;Node2 -->
<g id="edge1" class="edge">
<title>Node1&#45;&gt;Node2</title>
<path fill="none" stroke="midnightblue" d="M130.44,-181.8C113.55,-156.66 82.42,-110.33 66.67,-86.89"/>
<polygon fill="midnightblue" stroke="midnightblue" points="127.68,-183.96 136.16,-190.31 133.49,-180.05 127.68,-183.96"/>
</g>
<!-- Node3 -->
<g id="node3" class="node">
<title>Node3</title>
<g id="a_node3"><a xlink:href="allocation_8h.html" target="_top" xlink:title=" ">
<polygon fill="white" stroke="black" points="78,-0.5 78,-19.5 206,-19.5 206,-0.5 78,-0.5"/>
<text text-anchor="middle" x="142" y="-7.5" font-family="Helvetica,sans-Serif" font-size="10.00">include/cppgc/allocation.h</text>
</a>
</g>
</g>
<!-- Node1&#45;&gt;Node3 -->
<g id="edge6" class="edge">
<title>Node1&#45;&gt;Node3</title>
<path fill="none" stroke="midnightblue" d="M142,-180.24C142,-140.31 142,-48.2 142,-19.62"/>
<polygon fill="midnightblue" stroke="midnightblue" points="138.5,-180.43 142,-190.43 145.5,-180.43 138.5,-180.43"/>
</g>
<!-- Node4 -->
<g id="node4" class="node">
<title>Node4</title>
<g id="a_node4"><a xlink:href="finalizer-trait_8h.html" target="_top" xlink:title=" ">
<polygon fill="white" stroke="black" points="171,-123.5 171,-153.5 283,-153.5 283,-123.5 171,-123.5"/>
<text text-anchor="start" x="179" y="-141.5" font-family="Helvetica,sans-Serif" font-size="10.00">include/cppgc/finalizer</text>
<text text-anchor="middle" x="227" y="-130.5" font-family="Helvetica,sans-Serif" font-size="10.00">&#45;trait.h</text>
</a>
</g>
</g>
<!-- Node1&#45;&gt;Node4 -->
<g id="edge3" class="edge">
<title>Node1&#45;&gt;Node4</title>
<path fill="none" stroke="midnightblue" d="M162.37,-184.74C175.88,-175.28 193.53,-162.93 206.97,-153.52"/>
<polygon fill="midnightblue" stroke="midnightblue" points="160.36,-181.87 154.18,-190.48 164.38,-187.61 160.36,-181.87"/>
</g>
<!-- Node2&#45;&gt;Node3 -->
<g id="edge2" class="edge">
<title>Node2&#45;&gt;Node3</title>
<path fill="none" stroke="midnightblue" d="M85.6,-50.48C100.57,-40 118.13,-27.71 129.63,-19.66"/>
<polygon fill="midnightblue" stroke="midnightblue" points="83.33,-47.8 77.14,-56.4 87.34,-53.53 83.33,-47.8"/>
</g>
<!-- Node5 -->
<g id="node5" class="node">
<title>Node5</title>
<g id="a_node5"><a xlink:href="gc-info_8h.html" target="_top" xlink:title=" ">
<polygon fill="white" stroke="black" points="170,-62 170,-81 286,-81 286,-62 170,-62"/>
<text text-anchor="middle" x="228" y="-69" font-family="Helvetica,sans-Serif" font-size="10.00">include/cppgc/gc&#45;info.h</text>
</a>
</g>
</g>
<!-- Node4&#45;&gt;Node5 -->
<g id="edge4" class="edge">
<title>Node4&#45;&gt;Node5</title>
<path fill="none" stroke="midnightblue" d="M227.37,-113.25C227.55,-102.02 227.74,-89.38 227.87,-81.19"/>
<polygon fill="midnightblue" stroke="midnightblue" points="223.87,-113.34 227.22,-123.4 230.87,-113.45 223.87,-113.34"/>
</g>
<!-- Node5&#45;&gt;Node3 -->
<g id="edge5" class="edge">
<title>Node5&#45;&gt;Node3</title>
<path fill="none" stroke="midnightblue" d="M207.2,-56.11C190.66,-44.67 168.08,-29.05 154.3,-19.51"/>
<polygon fill="midnightblue" stroke="midnightblue" points="205.46,-59.16 215.68,-61.98 209.45,-53.41 205.46,-59.16"/>
</g>
</g>
</svg>
