<?xml version="1.0" encoding="UTF-8" standalone="no"?>
<!DOCTYPE svg PUBLIC "-//W3C//DTD SVG 1.1//EN"
 "http://www.w3.org/Graphics/SVG/1.1/DTD/svg11.dtd">
<!-- Generated by graphviz version 2.44.0 ()
 -->
<!-- Title: v8::internal::GetCTypePointerPointerImpl&lt; T, typename EnableIfHasWrapperTypeInfo&lt; T &gt;::type &gt;::Get Pages: 1 -->
<svg width="350pt" height="61pt"
 viewBox="0.00 0.00 350.00 61.00" xmlns="http://www.w3.org/2000/svg" xmlns:xlink="http://www.w3.org/1999/xlink">
<g id="graph0" class="graph" transform="scale(1 1) rotate(0) translate(4 57)">
<title>v8::internal::GetCTypePointerPointerImpl&lt; T, typename EnableIfHasWrapperTypeInfo&lt; T &gt;::type &gt;::Get</title>
<polygon fill="white" stroke="transparent" points="-4,4 -4,-57 346,-57 346,4 -4,4"/>
<!-- Node1 -->
<g id="node1" class="node">
<title>Node1</title>
<g id="a_node1"><a xlink:title=" ">
<polygon fill="#bfbfbf" stroke="black" points="0,-0.5 0,-52.5 146,-52.5 146,-0.5 0,-0.5"/>
<text text-anchor="start" x="8" y="-40.5" font-family="Helvetica,sans-Serif" font-size="10.00">v8::internal::GetCTypePointer</text>
<text text-anchor="start" x="8" y="-29.5" font-family="Helvetica,sans-Serif" font-size="10.00">PointerImpl&lt; T, typename</text>
<text text-anchor="start" x="8" y="-18.5" font-family="Helvetica,sans-Serif" font-size="10.00"> EnableIfHasWrapperTypeInfo</text>
<text text-anchor="middle" x="73" y="-7.5" font-family="Helvetica,sans-Serif" font-size="10.00">&lt; T &gt;::type &gt;::Get</text>
</a>
</g>
</g>
<!-- Node2 -->
<g id="node2" class="node">
<title>Node2</title>
<g id="a_node2"><a xlink:href="classv8_1_1CTypeInfo.html#a6fe19a9974dd01fa3b2caf22b556f27d" target="_top" xlink:title=" ">
<polygon fill="white" stroke="black" points="182,-17 182,-36 342,-36 342,-17 182,-17"/>
<text text-anchor="middle" x="262" y="-24" font-family="Helvetica,sans-Serif" font-size="10.00">v8::CTypeInfo::FromWrapperType</text>
</a>
</g>
</g>
<!-- Node1&#45;&gt;Node2 -->
<g id="edge1" class="edge">
<title>Node1&#45;&gt;Node2</title>
<path fill="none" stroke="midnightblue" d="M146.03,-26.5C154.46,-26.5 163.14,-26.5 171.77,-26.5"/>
<polygon fill="midnightblue" stroke="midnightblue" points="171.86,-30 181.86,-26.5 171.86,-23 171.86,-30"/>
</g>
</g>
</svg>
