<?xml version="1.0" encoding="UTF-8" standalone="no"?>
<!DOCTYPE svg PUBLIC "-//W3C//DTD SVG 1.1//EN"
 "http://www.w3.org/Graphics/SVG/1.1/DTD/svg11.dtd">
<!-- Generated by graphviz version 2.44.0 ()
 -->
<!-- Title: v8::internal::GetCTypePointerImpl&lt; T, typename EnableIfHasWrapperTypeInfo&lt; T &gt;::type &gt;::Get Pages: 1 -->
<svg width="392pt" height="78pt"
 viewBox="0.00 0.00 392.00 77.50" xmlns="http://www.w3.org/2000/svg" xmlns:xlink="http://www.w3.org/1999/xlink">
<g id="graph0" class="graph" transform="scale(1 1) rotate(0) translate(4 73.5)">
<title>v8::internal::GetCTypePointerImpl&lt; T, typename EnableIfHasWrapperTypeInfo&lt; T &gt;::type &gt;::Get</title>
<polygon fill="white" stroke="transparent" points="-4,4 -4,-73.5 388,-73.5 388,4 -4,4"/>
<!-- Node1 -->
<g id="node1" class="node">
<title>Node1</title>
<g id="a_node1"><a xlink:title=" ">
<polygon fill="#bfbfbf" stroke="black" points="0,-17 0,-58 188,-58 188,-17 0,-17"/>
<text text-anchor="start" x="8" y="-46" font-family="Helvetica,sans-Serif" font-size="10.00">v8::internal::GetCTypePointer</text>
<text text-anchor="start" x="8" y="-35" font-family="Helvetica,sans-Serif" font-size="10.00">Impl&lt; T, typename EnableIfHasWrapper</text>
<text text-anchor="middle" x="94" y="-24" font-family="Helvetica,sans-Serif" font-size="10.00">TypeInfo&lt; T &gt;::type &gt;::Get</text>
</a>
</g>
</g>
<!-- Node2 -->
<g id="node2" class="node">
<title>Node2</title>
<g id="a_node2"><a xlink:href="classv8_1_1CTypeInfo.html#a6fe19a9974dd01fa3b2caf22b556f27d" target="_top" xlink:title=" ">
<polygon fill="white" stroke="black" points="224,-50 224,-69 384,-69 384,-50 224,-50"/>
<text text-anchor="middle" x="304" y="-57" font-family="Helvetica,sans-Serif" font-size="10.00">v8::CTypeInfo::FromWrapperType</text>
</a>
</g>
</g>
<!-- Node1&#45;&gt;Node2 -->
<g id="edge1" class="edge">
<title>Node1&#45;&gt;Node2</title>
<path fill="none" stroke="midnightblue" d="M188.05,-47.34C196.51,-48.24 205.06,-49.14 213.49,-50.03"/>
<polygon fill="midnightblue" stroke="midnightblue" points="213.38,-53.54 223.69,-51.11 214.12,-46.58 213.38,-53.54"/>
</g>
<!-- Node3 -->
<g id="node3" class="node">
<title>Node3</title>
<g id="a_node3"><a xlink:href="structv8_1_1internal_1_1GetCTypePointerImpl.html#a31964d3aa8b1dca8d7b4cd7f55f9ab64" target="_top" xlink:title=" ">
<polygon fill="white" stroke="black" points="233,-0.5 233,-30.5 375,-30.5 375,-0.5 233,-0.5"/>
<text text-anchor="start" x="241" y="-18.5" font-family="Helvetica,sans-Serif" font-size="10.00">v8::internal::GetCTypePointer</text>
<text text-anchor="middle" x="304" y="-7.5" font-family="Helvetica,sans-Serif" font-size="10.00">Impl::Get</text>
</a>
</g>
</g>
<!-- Node1&#45;&gt;Node3 -->
<g id="edge2" class="edge">
<title>Node1&#45;&gt;Node3</title>
<path fill="none" stroke="midnightblue" d="M188.05,-27.66C199.56,-26.44 211.25,-25.2 222.55,-24.01"/>
<polygon fill="midnightblue" stroke="midnightblue" points="223.23,-27.46 232.8,-22.92 222.49,-20.5 223.23,-27.46"/>
</g>
</g>
</svg>
