<?xml version="1.0" encoding="UTF-8" standalone="no"?>
<!DOCTYPE svg PUBLIC "-//W3C//DTD SVG 1.1//EN"
 "http://www.w3.org/Graphics/SVG/1.1/DTD/svg11.dtd">
<!-- Generated by graphviz version 2.44.0 ()
 -->
<!-- Title: include/v8config.h Pages: 1 -->
<svg width="1126pt" height="296pt"
 viewBox="0.00 0.00 1125.81 296.00" xmlns="http://www.w3.org/2000/svg" xmlns:xlink="http://www.w3.org/1999/xlink">
<g id="graph0" class="graph" transform="scale(1 1) rotate(0) translate(4 292)">
<title>include/v8config.h</title>
<polygon fill="white" stroke="transparent" points="-4,4 -4,-292 1121.81,-292 1121.81,4 -4,4"/>
<!-- Node1 -->
<g id="node1" class="node">
<title>Node1</title>
<g id="a_node1"><a xlink:title=" ">
<polygon fill="#bfbfbf" stroke="black" points="530.81,-268.5 530.81,-287.5 624.81,-287.5 624.81,-268.5 530.81,-268.5"/>
<text text-anchor="middle" x="577.81" y="-275.5" font-family="Helvetica,sans-Serif" font-size="10.00">include/v8config.h</text>
</a>
</g>
</g>
<!-- Node2 -->
<g id="node2" class="node">
<title>Node2</title>
<g id="a_node2"><a xlink:href="internals_8h.html" target="_top" xlink:title=" ">
<polygon fill="white" stroke="black" points="119.81,-207 119.81,-226 243.81,-226 243.81,-207 119.81,-207"/>
<text text-anchor="middle" x="181.81" y="-214" font-family="Helvetica,sans-Serif" font-size="10.00">include/cppgc/internals.h</text>
</a>
</g>
</g>
<!-- Node1&#45;&gt;Node2 -->
<g id="edge1" class="edge">
<title>Node1&#45;&gt;Node2</title>
<path fill="none" stroke="midnightblue" d="M520.57,-268.56C459.82,-259.58 361.03,-244.92 275.81,-232 263.24,-230.09 249.73,-228.02 236.98,-226.06"/>
<polygon fill="midnightblue" stroke="midnightblue" points="520.32,-272.06 530.72,-270.06 521.34,-265.14 520.32,-272.06"/>
</g>
<!-- Node6 -->
<g id="node6" class="node">
<title>Node6</title>
<g id="a_node6"><a xlink:href="gc-info_8h.html" target="_top" xlink:title=" ">
<polygon fill="white" stroke="black" points="9.81,-73 9.81,-92 125.81,-92 125.81,-73 9.81,-73"/>
<text text-anchor="middle" x="67.81" y="-80" font-family="Helvetica,sans-Serif" font-size="10.00">include/cppgc/gc&#45;info.h</text>
</a>
</g>
</g>
<!-- Node1&#45;&gt;Node6 -->
<g id="edge15" class="edge">
<title>Node1&#45;&gt;Node6</title>
<path fill="none" stroke="midnightblue" d="M520.44,-274.79C412.9,-270.11 185.19,-257.46 110.81,-232 58.09,-213.95 31.71,-213.81 4.81,-165 -1.83,-152.93 -1.15,-146.42 4.81,-134 14.1,-114.67 34.79,-100.4 49.93,-92.06"/>
<polygon fill="midnightblue" stroke="midnightblue" points="520.32,-278.29 530.46,-275.22 520.62,-271.3 520.32,-278.29"/>
</g>
<!-- Node7 -->
<g id="node7" class="node">
<title>Node7</title>
<g id="a_node7"><a xlink:href="v8-platform_8h.html" target="_top" xlink:title=" ">
<polygon fill="white" stroke="black" points="442.31,-207 442.31,-226 549.31,-226 549.31,-207 442.31,-207"/>
<text text-anchor="middle" x="495.81" y="-214" font-family="Helvetica,sans-Serif" font-size="10.00">include/v8&#45;platform.h</text>
</a>
</g>
</g>
<!-- Node1&#45;&gt;Node7 -->
<g id="edge8" class="edge">
<title>Node1&#45;&gt;Node7</title>
<path fill="none" stroke="midnightblue" d="M557.55,-262.29C541.82,-250.88 520.56,-235.46 507.54,-226.01"/>
<polygon fill="midnightblue" stroke="midnightblue" points="555.92,-265.43 566.07,-268.48 560.03,-259.77 555.92,-265.43"/>
</g>
<!-- Node8 -->
<g id="node8" class="node">
<title>Node8</title>
<g id="a_node8"><a xlink:href="platform_8h.html" target="_top" xlink:title=" ">
<polygon fill="white" stroke="black" points="219.81,-140 219.81,-159 341.81,-159 341.81,-140 219.81,-140"/>
<text text-anchor="middle" x="280.81" y="-147" font-family="Helvetica,sans-Serif" font-size="10.00">include/cppgc/platform.h</text>
</a>
</g>
</g>
<!-- Node1&#45;&gt;Node8 -->
<g id="edge14" class="edge">
<title>Node1&#45;&gt;Node8</title>
<path fill="none" stroke="midnightblue" d="M524.05,-266.28C491.39,-258.79 449.29,-247.37 413.81,-232 365.86,-211.22 314.62,-175.45 292.3,-159.1"/>
<polygon fill="midnightblue" stroke="midnightblue" points="523.34,-269.71 533.86,-268.48 524.87,-262.88 523.34,-269.71"/>
</g>
<!-- Node10 -->
<g id="node10" class="node">
<title>Node10</title>
<g id="a_node10"><a xlink:href="libplatform_8h.html" target="_top" xlink:title=" ">
<polygon fill="white" stroke="black" points="524.31,-67.5 524.31,-97.5 619.31,-97.5 619.31,-67.5 524.31,-67.5"/>
<text text-anchor="start" x="532.31" y="-85.5" font-family="Helvetica,sans-Serif" font-size="10.00">include/libplatform</text>
<text text-anchor="middle" x="571.81" y="-74.5" font-family="Helvetica,sans-Serif" font-size="10.00">/libplatform.h</text>
</a>
</g>
</g>
<!-- Node1&#45;&gt;Node10 -->
<g id="edge18" class="edge">
<title>Node1&#45;&gt;Node10</title>
<path fill="none" stroke="midnightblue" d="M580.01,-257.87C582.42,-241.93 587.31,-219 596.81,-201 606.81,-182.07 621.21,-185.01 628.81,-165 633.71,-152.12 634.47,-146.56 628.81,-134 621.98,-118.81 608.06,-106.34 595.69,-97.59"/>
<polygon fill="midnightblue" stroke="midnightblue" points="576.5,-257.7 578.65,-268.08 583.44,-258.63 576.5,-257.7"/>
</g>
<!-- Node11 -->
<g id="node11" class="node">
<title>Node11</title>
<g id="a_node11"><a xlink:href="heap_8h.html" target="_top" xlink:title=" ">
<polygon fill="white" stroke="black" points="359.81,-140 359.81,-159 467.81,-159 467.81,-140 359.81,-140"/>
<text text-anchor="middle" x="413.81" y="-147" font-family="Helvetica,sans-Serif" font-size="10.00">include/cppgc/heap.h</text>
</a>
</g>
</g>
<!-- Node1&#45;&gt;Node11 -->
<g id="edge16" class="edge">
<title>Node1&#45;&gt;Node11</title>
<path fill="none" stroke="midnightblue" d="M520.81,-272.44C491.03,-267.13 456.21,-255.84 433.81,-232 414.66,-211.61 412.99,-175.96 413.35,-159.41"/>
<polygon fill="midnightblue" stroke="midnightblue" points="520.27,-275.9 530.7,-274.02 521.37,-268.98 520.27,-275.9"/>
</g>
<!-- Node12 -->
<g id="node12" class="node">
<title>Node12</title>
<g id="a_node12"><a xlink:href="v8-fast-api-calls_8h.html" target="_top" xlink:title=" ">
<polygon fill="white" stroke="black" points="605.81,-201.5 605.81,-231.5 701.81,-231.5 701.81,-201.5 605.81,-201.5"/>
<text text-anchor="start" x="613.81" y="-219.5" font-family="Helvetica,sans-Serif" font-size="10.00">include/v8&#45;fast&#45;api</text>
<text text-anchor="middle" x="653.81" y="-208.5" font-family="Helvetica,sans-Serif" font-size="10.00">&#45;calls.h</text>
</a>
</g>
</g>
<!-- Node1&#45;&gt;Node12 -->
<g id="edge19" class="edge">
<title>Node1&#45;&gt;Node12</title>
<path fill="none" stroke="midnightblue" d="M596.72,-262.2C608.71,-252.81 624.12,-240.75 635.9,-231.52"/>
<polygon fill="midnightblue" stroke="midnightblue" points="594.42,-259.55 588.7,-268.48 598.74,-265.07 594.42,-259.55"/>
</g>
<!-- Node13 -->
<g id="node13" class="node">
<title>Node13</title>
<g id="a_node13"><a xlink:href="v8-internal_8h.html" target="_top" xlink:title=" ">
<polygon fill="white" stroke="black" points="720.31,-207 720.31,-226 823.31,-226 823.31,-207 720.31,-207"/>
<text text-anchor="middle" x="771.81" y="-214" font-family="Helvetica,sans-Serif" font-size="10.00">include/v8&#45;internal.h</text>
</a>
</g>
</g>
<!-- Node1&#45;&gt;Node13 -->
<g id="edge20" class="edge">
<title>Node1&#45;&gt;Node13</title>
<path fill="none" stroke="midnightblue" d="M615.22,-265.53C652.92,-253.96 710.24,-236.38 744.07,-226.01"/>
<polygon fill="midnightblue" stroke="midnightblue" points="614.14,-262.2 605.61,-268.48 616.2,-268.89 614.14,-262.2"/>
</g>
<!-- Node14 -->
<g id="node14" class="node">
<title>Node14</title>
<g id="a_node14"><a xlink:href="v8_8h.html" target="_top" xlink:title=" ">
<polygon fill="white" stroke="black" points="800.81,-140 800.81,-159 868.81,-159 868.81,-140 800.81,-140"/>
<text text-anchor="middle" x="834.81" y="-147" font-family="Helvetica,sans-Serif" font-size="10.00">include/v8.h</text>
</a>
</g>
</g>
<!-- Node1&#45;&gt;Node14 -->
<g id="edge26" class="edge">
<title>Node1&#45;&gt;Node14</title>
<path fill="none" stroke="midnightblue" d="M634.95,-275.06C702.13,-271.45 807.72,-261.18 832.81,-232 850.54,-211.4 842.8,-175.85 837.82,-159.37"/>
<polygon fill="midnightblue" stroke="midnightblue" points="634.73,-271.57 624.92,-275.57 635.08,-278.56 634.73,-271.57"/>
</g>
<!-- Node19 -->
<g id="node19" class="node">
<title>Node19</title>
<g id="a_node19"><a xlink:href="v8-wasm-trap-handler-posix_8h.html" target="_top" xlink:title=" ">
<polygon fill="white" stroke="black" points="879.81,-201.5 879.81,-231.5 989.81,-231.5 989.81,-201.5 879.81,-201.5"/>
<text text-anchor="start" x="887.81" y="-219.5" font-family="Helvetica,sans-Serif" font-size="10.00">include/v8&#45;wasm&#45;trap</text>
<text text-anchor="middle" x="934.81" y="-208.5" font-family="Helvetica,sans-Serif" font-size="10.00">&#45;handler&#45;posix.h</text>
</a>
</g>
</g>
<!-- Node1&#45;&gt;Node19 -->
<g id="edge27" class="edge">
<title>Node1&#45;&gt;Node19</title>
<path fill="none" stroke="midnightblue" d="M634.93,-268.97C693.15,-260.58 785.98,-246.61 865.81,-232 870.27,-231.18 874.88,-230.3 879.5,-229.39"/>
<polygon fill="midnightblue" stroke="midnightblue" points="634.23,-265.54 624.83,-270.42 635.23,-272.46 634.23,-265.54"/>
</g>
<!-- Node20 -->
<g id="node20" class="node">
<title>Node20</title>
<g id="a_node20"><a xlink:href="v8-wasm-trap-handler-win_8h.html" target="_top" xlink:title=" ">
<polygon fill="white" stroke="black" points="1007.81,-201.5 1007.81,-231.5 1117.81,-231.5 1117.81,-201.5 1007.81,-201.5"/>
<text text-anchor="start" x="1015.81" y="-219.5" font-family="Helvetica,sans-Serif" font-size="10.00">include/v8&#45;wasm&#45;trap</text>
<text text-anchor="middle" x="1062.81" y="-208.5" font-family="Helvetica,sans-Serif" font-size="10.00">&#45;handler&#45;win.h</text>
</a>
</g>
</g>
<!-- Node1&#45;&gt;Node20 -->
<g id="edge28" class="edge">
<title>Node1&#45;&gt;Node20</title>
<path fill="none" stroke="midnightblue" d="M635.12,-273C716.4,-266.84 869.65,-253.46 998.81,-232 1001.74,-231.51 1004.73,-230.98 1007.74,-230.41"/>
<polygon fill="midnightblue" stroke="midnightblue" points="634.81,-269.51 625.1,-273.75 635.33,-276.49 634.81,-269.51"/>
</g>
<!-- Node3 -->
<g id="node3" class="node">
<title>Node3</title>
<g id="a_node3"><a xlink:href="garbage-collected_8h.html" target="_top" xlink:title=" ">
<polygon fill="white" stroke="black" points="181.81,-67.5 181.81,-97.5 295.81,-97.5 295.81,-67.5 181.81,-67.5"/>
<text text-anchor="start" x="189.81" y="-85.5" font-family="Helvetica,sans-Serif" font-size="10.00">include/cppgc/garbage</text>
<text text-anchor="middle" x="238.81" y="-74.5" font-family="Helvetica,sans-Serif" font-size="10.00">&#45;collected.h</text>
</a>
</g>
</g>
<!-- Node2&#45;&gt;Node3 -->
<g id="edge2" class="edge">
<title>Node2&#45;&gt;Node3</title>
<path fill="none" stroke="midnightblue" d="M187.4,-197.11C192.71,-180.36 201.28,-155.11 210.81,-134 216.51,-121.39 224.2,-107.7 230.08,-97.76"/>
<polygon fill="midnightblue" stroke="midnightblue" points="184.03,-196.16 184.41,-206.75 190.72,-198.24 184.03,-196.16"/>
</g>
<!-- Node4 -->
<g id="node4" class="node">
<title>Node4</title>
<g id="a_node4"><a xlink:href="allocation_8h.html" target="_top" xlink:title=" ">
<polygon fill="white" stroke="black" points="132.81,-6 132.81,-25 260.81,-25 260.81,-6 132.81,-6"/>
<text text-anchor="middle" x="196.81" y="-13" font-family="Helvetica,sans-Serif" font-size="10.00">include/cppgc/allocation.h</text>
</a>
</g>
</g>
<!-- Node2&#45;&gt;Node4 -->
<g id="edge7" class="edge">
<title>Node2&#45;&gt;Node4</title>
<path fill="none" stroke="midnightblue" d="M177.39,-196.91C171.38,-168.53 162.48,-112.84 172.81,-67 176.36,-51.28 185.4,-34.71 191.32,-25.01"/>
<polygon fill="midnightblue" stroke="midnightblue" points="174.05,-198 179.66,-206.99 180.88,-196.47 174.05,-198"/>
</g>
<!-- Node5 -->
<g id="node5" class="node">
<title>Node5</title>
<g id="a_node5"><a xlink:href="finalizer-trait_8h.html" target="_top" xlink:title=" ">
<polygon fill="white" stroke="black" points="13.81,-134.5 13.81,-164.5 125.81,-164.5 125.81,-134.5 13.81,-134.5"/>
<text text-anchor="start" x="21.81" y="-152.5" font-family="Helvetica,sans-Serif" font-size="10.00">include/cppgc/finalizer</text>
<text text-anchor="middle" x="69.81" y="-141.5" font-family="Helvetica,sans-Serif" font-size="10.00">&#45;trait.h</text>
</a>
</g>
</g>
<!-- Node2&#45;&gt;Node5 -->
<g id="edge4" class="edge">
<title>Node2&#45;&gt;Node5</title>
<path fill="none" stroke="midnightblue" d="M157.87,-201.6C139.06,-190.69 112.98,-175.55 94.09,-164.59"/>
<polygon fill="midnightblue" stroke="midnightblue" points="156.3,-204.74 166.71,-206.73 159.82,-198.69 156.3,-204.74"/>
</g>
<!-- Node3&#45;&gt;Node4 -->
<g id="edge3" class="edge">
<title>Node3&#45;&gt;Node4</title>
<path fill="none" stroke="midnightblue" d="M224.26,-58.97C216.74,-47.33 207.99,-33.8 202.43,-25.19"/>
<polygon fill="midnightblue" stroke="midnightblue" points="221.33,-60.9 229.7,-67.4 227.21,-57.1 221.33,-60.9"/>
</g>
<!-- Node5&#45;&gt;Node6 -->
<g id="edge5" class="edge">
<title>Node5&#45;&gt;Node6</title>
<path fill="none" stroke="midnightblue" d="M69.07,-124.25C68.72,-113.02 68.33,-100.38 68.08,-92.19"/>
<polygon fill="midnightblue" stroke="midnightblue" points="65.57,-124.51 69.38,-134.4 72.57,-124.29 65.57,-124.51"/>
</g>
<!-- Node6&#45;&gt;Node4 -->
<g id="edge6" class="edge">
<title>Node6&#45;&gt;Node4</title>
<path fill="none" stroke="midnightblue" d="M94.06,-68.27C119.61,-55.4 157.7,-36.21 179.61,-25.17"/>
<polygon fill="midnightblue" stroke="midnightblue" points="92.3,-65.24 84.95,-72.87 95.45,-71.49 92.3,-65.24"/>
</g>
<!-- Node7&#45;&gt;Node8 -->
<g id="edge9" class="edge">
<title>Node7&#45;&gt;Node8</title>
<path fill="none" stroke="midnightblue" d="M457.54,-203.93C414.97,-191.06 347.2,-170.57 309.14,-159.06"/>
<polygon fill="midnightblue" stroke="midnightblue" points="456.68,-207.32 467.26,-206.87 458.71,-200.62 456.68,-207.32"/>
</g>
<!-- Node9 -->
<g id="node9" class="node">
<title>Node9</title>
<g id="a_node9"><a xlink:href="v8-tracing_8h.html" target="_top" xlink:title=" ">
<polygon fill="white" stroke="black" points="524.31,-134.5 524.31,-164.5 619.31,-164.5 619.31,-134.5 524.31,-134.5"/>
<text text-anchor="start" x="532.31" y="-152.5" font-family="Helvetica,sans-Serif" font-size="10.00">include/libplatform</text>
<text text-anchor="middle" x="571.81" y="-141.5" font-family="Helvetica,sans-Serif" font-size="10.00">/v8&#45;tracing.h</text>
</a>
</g>
</g>
<!-- Node7&#45;&gt;Node9 -->
<g id="edge11" class="edge">
<title>Node7&#45;&gt;Node9</title>
<path fill="none" stroke="midnightblue" d="M514.02,-199.93C526.59,-189.18 543.17,-175 555.34,-164.59"/>
<polygon fill="midnightblue" stroke="midnightblue" points="511.39,-197.57 506.06,-206.73 515.94,-202.89 511.39,-197.57"/>
</g>
<!-- Node7&#45;&gt;Node10 -->
<g id="edge13" class="edge">
<title>Node7&#45;&gt;Node10</title>
<path fill="none" stroke="midnightblue" d="M497.25,-196.79C499.29,-179.46 504.16,-153.49 515.81,-134 524.55,-119.39 538.85,-106.6 550.82,-97.54"/>
<polygon fill="midnightblue" stroke="midnightblue" points="493.77,-196.49 496.29,-206.78 500.73,-197.16 493.77,-196.49"/>
</g>
<!-- Node8&#45;&gt;Node3 -->
<g id="edge10" class="edge">
<title>Node8&#45;&gt;Node3</title>
<path fill="none" stroke="midnightblue" d="M269.53,-131.03C262.76,-120.56 254.26,-107.4 247.92,-97.59"/>
<polygon fill="midnightblue" stroke="midnightblue" points="266.78,-133.23 275.15,-139.73 272.66,-129.44 266.78,-133.23"/>
</g>
<!-- Node9&#45;&gt;Node10 -->
<g id="edge12" class="edge">
<title>Node9&#45;&gt;Node10</title>
<path fill="none" stroke="midnightblue" d="M571.81,-124.11C571.81,-115.15 571.81,-105.32 571.81,-97.58"/>
<polygon fill="midnightblue" stroke="midnightblue" points="568.31,-124.4 571.81,-134.4 575.31,-124.4 568.31,-124.4"/>
</g>
<!-- Node11&#45;&gt;Node4 -->
<g id="edge17" class="edge">
<title>Node11&#45;&gt;Node4</title>
<path fill="none" stroke="midnightblue" d="M396.05,-133.42C375.11,-116.08 338.84,-87.38 304.81,-67 276.23,-49.87 240.88,-34.32 218.58,-25.13"/>
<polygon fill="midnightblue" stroke="midnightblue" points="393.87,-136.16 403.79,-139.89 398.36,-130.79 393.87,-136.16"/>
</g>
<!-- Node13&#45;&gt;Node14 -->
<g id="edge21" class="edge">
<title>Node13&#45;&gt;Node14</title>
<path fill="none" stroke="midnightblue" d="M787.33,-199.5C799.68,-186.75 816.5,-169.39 826.45,-159.13"/>
<polygon fill="midnightblue" stroke="midnightblue" points="784.76,-197.12 780.31,-206.73 789.78,-201.99 784.76,-197.12"/>
</g>
<!-- Node15 -->
<g id="node15" class="node">
<title>Node15</title>
<g id="a_node15"><a xlink:href="v8-inspector_8h.html" target="_top" xlink:title=" ">
<polygon fill="white" stroke="black" points="655.31,-73 655.31,-92 766.31,-92 766.31,-73 655.31,-73"/>
<text text-anchor="middle" x="710.81" y="-80" font-family="Helvetica,sans-Serif" font-size="10.00">include/v8&#45;inspector.h</text>
</a>
</g>
</g>
<!-- Node14&#45;&gt;Node15 -->
<g id="edge22" class="edge">
<title>Node14&#45;&gt;Node15</title>
<path fill="none" stroke="midnightblue" d="M809.26,-135.1C784.7,-122.23 748.32,-103.16 727.35,-92.17"/>
<polygon fill="midnightblue" stroke="midnightblue" points="807.87,-138.33 818.35,-139.87 811.12,-132.13 807.87,-138.33"/>
</g>
<!-- Node17 -->
<g id="node17" class="node">
<title>Node17</title>
<g id="a_node17"><a xlink:href="v8-profiler_8h.html" target="_top" xlink:title=" ">
<polygon fill="white" stroke="black" points="784.81,-73 784.81,-92 884.81,-92 884.81,-73 784.81,-73"/>
<text text-anchor="middle" x="834.81" y="-80" font-family="Helvetica,sans-Serif" font-size="10.00">include/v8&#45;profiler.h</text>
</a>
</g>
</g>
<!-- Node14&#45;&gt;Node17 -->
<g id="edge24" class="edge">
<title>Node14&#45;&gt;Node17</title>
<path fill="none" stroke="midnightblue" d="M834.81,-129.54C834.81,-117.17 834.81,-101.62 834.81,-92.13"/>
<polygon fill="midnightblue" stroke="midnightblue" points="831.31,-129.73 834.81,-139.73 838.31,-129.73 831.31,-129.73"/>
</g>
<!-- Node18 -->
<g id="node18" class="node">
<title>Node18</title>
<g id="a_node18"><a xlink:href="v8-util_8h.html" target="_top" xlink:title=" ">
<polygon fill="white" stroke="black" points="902.81,-73 902.81,-92 986.81,-92 986.81,-73 902.81,-73"/>
<text text-anchor="middle" x="944.81" y="-80" font-family="Helvetica,sans-Serif" font-size="10.00">include/v8&#45;util.h</text>
</a>
</g>
</g>
<!-- Node14&#45;&gt;Node18 -->
<g id="edge25" class="edge">
<title>Node14&#45;&gt;Node18</title>
<path fill="none" stroke="midnightblue" d="M858.31,-134.62C880.11,-121.74 911.86,-102.98 930.21,-92.13"/>
<polygon fill="midnightblue" stroke="midnightblue" points="856.48,-131.63 849.65,-139.73 860.04,-137.66 856.48,-131.63"/>
</g>
<!-- Node16 -->
<g id="node16" class="node">
<title>Node16</title>
<g id="a_node16"><a xlink:href="v8-inspector-protocol_8h.html" target="_top" xlink:title=" ">
<polygon fill="white" stroke="black" points="658.81,-0.5 658.81,-30.5 762.81,-30.5 762.81,-0.5 658.81,-0.5"/>
<text text-anchor="start" x="666.81" y="-18.5" font-family="Helvetica,sans-Serif" font-size="10.00">include/v8&#45;inspector</text>
<text text-anchor="middle" x="710.81" y="-7.5" font-family="Helvetica,sans-Serif" font-size="10.00">&#45;protocol.h</text>
</a>
</g>
</g>
<!-- Node15&#45;&gt;Node16 -->
<g id="edge23" class="edge">
<title>Node15&#45;&gt;Node16</title>
<path fill="none" stroke="midnightblue" d="M710.81,-62.41C710.81,-52.22 710.81,-39.9 710.81,-30.59"/>
<polygon fill="midnightblue" stroke="midnightblue" points="707.31,-62.73 710.81,-72.73 714.31,-62.73 707.31,-62.73"/>
</g>
</g>
</svg>
