<?xml version="1.0" encoding="UTF-8" standalone="no"?>
<!DOCTYPE svg PUBLIC "-//W3C//DTD SVG 1.1//EN"
 "http://www.w3.org/Graphics/SVG/1.1/DTD/svg11.dtd">
<!-- Generated by graphviz version 2.44.0 ()
 -->
<!-- Title: v8::Local&lt; T &gt; Pages: 1 -->
<svg width="373pt" height="349pt"
 viewBox="0.00 0.00 373.00 349.00" xmlns="http://www.w3.org/2000/svg" xmlns:xlink="http://www.w3.org/1999/xlink">
<g id="graph0" class="graph" transform="scale(1 1) rotate(0) translate(4 345)">
<title>v8::Local&lt; T &gt;</title>
<polygon fill="white" stroke="transparent" points="-4,4 -4,-345 369,-345 369,4 -4,4"/>
<!-- Node1 -->
<g id="node1" class="node">
<title>Node1</title>
<g id="a_node1"><a xlink:title=" ">
<polygon fill="#bfbfbf" stroke="black" points="0,-152.5 0,-171.5 78,-171.5 78,-152.5 0,-152.5"/>
<text text-anchor="middle" x="39" y="-159.5" font-family="Helvetica,sans-Serif" font-size="10.00">v8::Local&lt; T &gt;</text>
</a>
</g>
</g>
<!-- Node2 -->
<g id="node2" class="node">
<title>Node2</title>
<g id="a_node2"><a xlink:href="classv8_1_1Local.html" target="_top" xlink:title=" ">
<polygon fill="white" stroke="black" points="232.5,-316.5 232.5,-335.5 345.5,-335.5 345.5,-316.5 232.5,-316.5"/>
<text text-anchor="middle" x="289" y="-323.5" font-family="Helvetica,sans-Serif" font-size="10.00">v8::Local&lt; v8::String &gt;</text>
</a>
</g>
</g>
<!-- Node1&#45;&gt;Node2 -->
<g id="edge1" class="edge">
<title>Node1&#45;&gt;Node2</title>
<path fill="none" stroke="orange" stroke-dasharray="5,2" d="M42.1,-182.02C46.42,-212.32 59.22,-269.31 96,-298 134.38,-327.94 190.6,-333 232.3,-331.73"/>
<polygon fill="orange" stroke="orange" points="45.54,-181.32 40.83,-171.83 38.59,-182.19 45.54,-181.32"/>
<text text-anchor="middle" x="145.5" y="-333" font-family="Helvetica,sans-Serif" font-size="10.00"> &lt; v8::String &gt;</text>
</g>
<!-- Node3 -->
<g id="node3" class="node">
<title>Node3</title>
<g id="a_node3"><a xlink:href="classv8_1_1Local.html" target="_top" xlink:title=" ">
<polygon fill="white" stroke="black" points="227.5,-278.5 227.5,-297.5 350.5,-297.5 350.5,-278.5 227.5,-278.5"/>
<text text-anchor="middle" x="289" y="-285.5" font-family="Helvetica,sans-Serif" font-size="10.00">v8::Local&lt; v8::Promise &gt;</text>
</a>
</g>
</g>
<!-- Node1&#45;&gt;Node3 -->
<g id="edge2" class="edge">
<title>Node1&#45;&gt;Node3</title>
<path fill="none" stroke="orange" stroke-dasharray="5,2" d="M47.1,-180.82C55.61,-200.72 71.82,-231.48 96,-248 134.51,-274.32 186.79,-283.92 227.07,-287.17"/>
<polygon fill="orange" stroke="orange" points="50.34,-179.5 43.35,-171.54 43.85,-182.12 50.34,-179.5"/>
<text text-anchor="middle" x="145.5" y="-286" font-family="Helvetica,sans-Serif" font-size="10.00"> &lt; v8::Promise &gt;</text>
</g>
<!-- Node4 -->
<g id="node4" class="node">
<title>Node4</title>
<g id="a_node4"><a xlink:href="classv8_1_1Local.html" target="_top" xlink:title=" ">
<polygon fill="white" stroke="black" points="230.5,-229 230.5,-259 347.5,-259 347.5,-229 230.5,-229"/>
<text text-anchor="start" x="238.5" y="-247" font-family="Helvetica,sans-Serif" font-size="10.00">v8::Local&lt; v8::Primitive</text>
<text text-anchor="middle" x="289" y="-236" font-family="Helvetica,sans-Serif" font-size="10.00">Array &gt;</text>
</a>
</g>
</g>
<!-- Node1&#45;&gt;Node4 -->
<g id="edge3" class="edge">
<title>Node1&#45;&gt;Node4</title>
<path fill="none" stroke="orange" stroke-dasharray="5,2" d="M57.33,-178.66C67.76,-187.77 81.74,-198.5 96,-205 138.71,-224.47 191.17,-234.28 230.45,-239.19"/>
<polygon fill="orange" stroke="orange" points="59.55,-175.94 49.8,-171.8 54.84,-181.12 59.55,-175.94"/>
<text text-anchor="middle" x="145.5" y="-236" font-family="Helvetica,sans-Serif" font-size="10.00"> &lt; v8::PrimitiveArray &gt;</text>
</g>
<!-- Node5 -->
<g id="node5" class="node">
<title>Node5</title>
<g id="a_node5"><a xlink:href="classv8_1_1Local.html" target="_top" xlink:title=" ">
<polygon fill="white" stroke="black" points="233,-190.5 233,-209.5 345,-209.5 345,-190.5 233,-190.5"/>
<text text-anchor="middle" x="289" y="-197.5" font-family="Helvetica,sans-Serif" font-size="10.00">v8::Local&lt; v8::Value &gt;</text>
</a>
</g>
</g>
<!-- Node1&#45;&gt;Node5 -->
<g id="edge4" class="edge">
<title>Node1&#45;&gt;Node5</title>
<path fill="none" stroke="orange" stroke-dasharray="5,2" d="M82.32,-174.02C86.92,-175.12 91.54,-176.14 96,-177 141.66,-185.8 194.11,-191.81 232.64,-195.48"/>
<polygon fill="orange" stroke="orange" points="82.94,-170.56 72.39,-171.52 81.23,-177.35 82.94,-170.56"/>
<text text-anchor="middle" x="145.5" y="-193" font-family="Helvetica,sans-Serif" font-size="10.00"> &lt; v8::Value &gt;</text>
</g>
<!-- Node6 -->
<g id="node6" class="node">
<title>Node6</title>
<g id="a_node6"><a xlink:href="classv8_1_1Local.html" target="_top" xlink:title=" ">
<polygon fill="white" stroke="black" points="230.5,-152.5 230.5,-171.5 347.5,-171.5 347.5,-152.5 230.5,-152.5"/>
<text text-anchor="middle" x="289" y="-159.5" font-family="Helvetica,sans-Serif" font-size="10.00">v8::Local&lt; v8::Integer &gt;</text>
</a>
</g>
</g>
<!-- Node1&#45;&gt;Node6 -->
<g id="edge5" class="edge">
<title>Node1&#45;&gt;Node6</title>
<path fill="none" stroke="orange" stroke-dasharray="5,2" d="M88.41,-162C129.08,-162 187.3,-162 230.38,-162"/>
<polygon fill="orange" stroke="orange" points="88.21,-158.5 78.21,-162 88.21,-165.5 88.21,-158.5"/>
<text text-anchor="middle" x="145.5" y="-165" font-family="Helvetica,sans-Serif" font-size="10.00"> &lt; v8::Integer &gt;</text>
</g>
<!-- Node7 -->
<g id="node7" class="node">
<title>Node7</title>
<g id="a_node7"><a xlink:href="classv8_1_1Local.html" target="_top" xlink:title=" ">
<polygon fill="white" stroke="black" points="229,-114.5 229,-133.5 349,-133.5 349,-114.5 229,-114.5"/>
<text text-anchor="middle" x="289" y="-121.5" font-family="Helvetica,sans-Serif" font-size="10.00">v8::Local&lt; v8::Context &gt;</text>
</a>
</g>
</g>
<!-- Node1&#45;&gt;Node7 -->
<g id="edge6" class="edge">
<title>Node1&#45;&gt;Node7</title>
<path fill="none" stroke="orange" stroke-dasharray="5,2" d="M82.32,-149.98C86.92,-148.88 91.54,-147.86 96,-147 140.17,-138.48 190.71,-132.58 228.84,-128.89"/>
<polygon fill="orange" stroke="orange" points="81.23,-146.65 72.39,-152.48 82.94,-153.44 81.23,-146.65"/>
<text text-anchor="middle" x="145.5" y="-150" font-family="Helvetica,sans-Serif" font-size="10.00"> &lt; v8::Context &gt;</text>
</g>
<!-- Node8 -->
<g id="node8" class="node">
<title>Node8</title>
<g id="a_node8"><a xlink:href="classv8_1_1Local.html" target="_top" xlink:title=" ">
<polygon fill="white" stroke="black" points="213,-76.5 213,-95.5 365,-95.5 365,-76.5 213,-76.5"/>
<text text-anchor="middle" x="289" y="-83.5" font-family="Helvetica,sans-Serif" font-size="10.00">v8::Local&lt; v8::UnboundScript &gt;</text>
</a>
</g>
</g>
<!-- Node1&#45;&gt;Node8 -->
<g id="edge7" class="edge">
<title>Node1&#45;&gt;Node8</title>
<path fill="none" stroke="orange" stroke-dasharray="5,2" d="M56.8,-145.1C67.21,-135.63 81.36,-124.46 96,-118 132.48,-101.9 176.13,-93.85 212.58,-89.84"/>
<polygon fill="orange" stroke="orange" points="54.16,-142.79 49.31,-152.21 58.97,-147.86 54.16,-142.79"/>
<text text-anchor="middle" x="145.5" y="-121" font-family="Helvetica,sans-Serif" font-size="10.00"> &lt; v8::UnboundScript &gt;</text>
</g>
<!-- Node9 -->
<g id="node9" class="node">
<title>Node9</title>
<g id="a_node9"><a xlink:href="classv8_1_1Local.html" target="_top" xlink:title=" ">
<polygon fill="white" stroke="black" points="240,-38.5 240,-57.5 338,-57.5 338,-38.5 240,-38.5"/>
<text text-anchor="middle" x="289" y="-45.5" font-family="Helvetica,sans-Serif" font-size="10.00">v8::Local&lt; Name &gt;</text>
</a>
</g>
</g>
<!-- Node1&#45;&gt;Node9 -->
<g id="edge8" class="edge">
<title>Node1&#45;&gt;Node9</title>
<path fill="none" stroke="orange" stroke-dasharray="5,2" d="M46.99,-143.14C55.4,-123.24 71.53,-92.65 96,-77 139.02,-49.48 198.37,-44.38 239.65,-44.79"/>
<polygon fill="orange" stroke="orange" points="43.73,-141.84 43.29,-152.43 50.24,-144.43 43.73,-141.84"/>
<text text-anchor="middle" x="145.5" y="-80" font-family="Helvetica,sans-Serif" font-size="10.00"> &lt; Name &gt;</text>
</g>
<!-- Node10 -->
<g id="node10" class="node">
<title>Node10</title>
<g id="a_node10"><a xlink:href="classv8_1_1Local.html" target="_top" xlink:title=" ">
<polygon fill="white" stroke="black" points="240.5,-0.5 240.5,-19.5 337.5,-19.5 337.5,-0.5 240.5,-0.5"/>
<text text-anchor="middle" x="289" y="-7.5" font-family="Helvetica,sans-Serif" font-size="10.00">v8::Local&lt; Value &gt;</text>
</a>
</g>
</g>
<!-- Node1&#45;&gt;Node10 -->
<g id="edge9" class="edge">
<title>Node1&#45;&gt;Node10</title>
<path fill="none" stroke="orange" stroke-dasharray="5,2" d="M42.28,-142.14C46.81,-112.62 59.86,-57.79 96,-31 137.35,-0.35 198.14,1.1 240.19,-2.66"/>
<polygon fill="orange" stroke="orange" points="38.76,-142.05 40.89,-152.43 45.7,-142.99 38.76,-142.05"/>
<text text-anchor="middle" x="145.5" y="-34" font-family="Helvetica,sans-Serif" font-size="10.00"> &lt; Value &gt;</text>
</g>
</g>
</svg>
