<?xml version="1.0" encoding="UTF-8" standalone="no"?>
<!DOCTYPE svg PUBLIC "-//W3C//DTD SVG 1.1//EN"
 "http://www.w3.org/Graphics/SVG/1.1/DTD/svg11.dtd">
<!-- Generated by graphviz version 2.44.0 ()
 -->
<!-- Title: v8::PersistentValueMapBase::impl Pages: 1 -->
<svg width="340pt" height="170pt"
 viewBox="0.00 0.00 340.00 170.00" xmlns="http://www.w3.org/2000/svg" xmlns:xlink="http://www.w3.org/1999/xlink">
<g id="graph0" class="graph" transform="scale(1 1) rotate(0) translate(4 166)">
<title>v8::PersistentValueMapBase::impl</title>
<polygon fill="white" stroke="transparent" points="-4,4 -4,-166 336,-166 336,4 -4,4"/>
<!-- Node1 -->
<g id="node1" class="node">
<title>Node1</title>
<g id="a_node1"><a xlink:title=" ">
<polygon fill="#bfbfbf" stroke="black" points="190,-66 190,-96 332,-96 332,-66 190,-66"/>
<text text-anchor="start" x="198" y="-84" font-family="Helvetica,sans-Serif" font-size="10.00">v8::PersistentValueMapBase</text>
<text text-anchor="middle" x="261" y="-73" font-family="Helvetica,sans-Serif" font-size="10.00">::impl</text>
</a>
</g>
</g>
<!-- Node2 -->
<g id="node2" class="node">
<title>Node2</title>
<g id="a_node2"><a xlink:href="classv8_1_1PersistentValueMapBase.html#a1bf074e7a7c24713c9a3d40ddce89e74" target="_top" xlink:title=" ">
<polygon fill="white" stroke="black" points="1.5,-120.5 1.5,-161.5 152.5,-161.5 152.5,-120.5 1.5,-120.5"/>
<text text-anchor="start" x="9.5" y="-149.5" font-family="Helvetica,sans-Serif" font-size="10.00">v8::PersistentValueMapBase</text>
<text text-anchor="start" x="9.5" y="-138.5" font-family="Helvetica,sans-Serif" font-size="10.00">&lt; K, V, DefaultGlobalMapTraits</text>
<text text-anchor="middle" x="77" y="-127.5" font-family="Helvetica,sans-Serif" font-size="10.00">&lt; K, V &gt; &gt;::Clear</text>
</a>
</g>
</g>
<!-- Node1&#45;&gt;Node2 -->
<g id="edge1" class="edge">
<title>Node1&#45;&gt;Node2</title>
<path fill="none" stroke="midnightblue" d="M204.39,-99.33C184.17,-106 161.18,-113.58 140.41,-120.42"/>
<polygon fill="midnightblue" stroke="midnightblue" points="205.67,-102.6 214.07,-96.14 203.48,-95.95 205.67,-102.6"/>
</g>
<!-- Node3 -->
<g id="node3" class="node">
<title>Node3</title>
<g id="a_node3"><a xlink:href="classv8_1_1PersistentValueMap.html#a97ab74c7670e65dd5f95ec2940c4ab11" target="_top" xlink:title=" ">
<polygon fill="white" stroke="black" points="0,-60.5 0,-101.5 154,-101.5 154,-60.5 0,-60.5"/>
<text text-anchor="start" x="8" y="-89.5" font-family="Helvetica,sans-Serif" font-size="10.00">v8::PersistentValueMap</text>
<text text-anchor="start" x="8" y="-78.5" font-family="Helvetica,sans-Serif" font-size="10.00">&lt; K, V, DefaultPersistentValue</text>
<text text-anchor="middle" x="77" y="-67.5" font-family="Helvetica,sans-Serif" font-size="10.00">MapTraits&lt; K, V &gt; &gt;::SetUnique</text>
</a>
</g>
</g>
<!-- Node1&#45;&gt;Node3 -->
<g id="edge2" class="edge">
<title>Node1&#45;&gt;Node3</title>
<path fill="none" stroke="midnightblue" d="M179.63,-81C171.15,-81 162.55,-81 154.12,-81"/>
<polygon fill="midnightblue" stroke="midnightblue" points="179.89,-84.5 189.89,-81 179.89,-77.5 179.89,-84.5"/>
</g>
<!-- Node4 -->
<g id="node4" class="node">
<title>Node4</title>
<g id="a_node4"><a xlink:href="classv8_1_1GlobalValueMap.html#aad73de3912571a2f245454d3edea4a41" target="_top" xlink:title=" ">
<polygon fill="white" stroke="black" points="1.5,-0.5 1.5,-41.5 152.5,-41.5 152.5,-0.5 1.5,-0.5"/>
<text text-anchor="start" x="9.5" y="-29.5" font-family="Helvetica,sans-Serif" font-size="10.00">v8::GlobalValueMap</text>
<text text-anchor="start" x="9.5" y="-18.5" font-family="Helvetica,sans-Serif" font-size="10.00">&lt; K, V, DefaultGlobalMapTraits</text>
<text text-anchor="middle" x="77" y="-7.5" font-family="Helvetica,sans-Serif" font-size="10.00">&lt; K, V &gt; &gt;::SetUnique</text>
</a>
</g>
</g>
<!-- Node1&#45;&gt;Node4 -->
<g id="edge3" class="edge">
<title>Node1&#45;&gt;Node4</title>
<path fill="none" stroke="midnightblue" d="M204.39,-62.67C184.17,-56 161.18,-48.42 140.41,-41.58"/>
<polygon fill="midnightblue" stroke="midnightblue" points="203.48,-66.05 214.07,-65.86 205.67,-59.4 203.48,-66.05"/>
</g>
</g>
</svg>
