<?xml version="1.0" encoding="UTF-8" standalone="no"?>
<!DOCTYPE svg PUBLIC "-//W3C//DTD SVG 1.1//EN"
 "http://www.w3.org/Graphics/SVG/1.1/DTD/svg11.dtd">
<!-- Generated by graphviz version 2.44.0 ()
 -->
<!-- Title: Graphical Class Hierarchy Pages: 1 -->
<svg width="303pt" height="88pt"
 viewBox="0.00 0.00 303.00 88.00" xmlns="http://www.w3.org/2000/svg" xmlns:xlink="http://www.w3.org/1999/xlink">
<g id="graph0" class="graph" transform="scale(1 1) rotate(0) translate(4 84)">
<title>Graphical Class Hierarchy</title>
<polygon fill="white" stroke="transparent" points="-4,4 -4,-84 299,-84 299,4 -4,4"/>
<!-- Node0 -->
<g id="node1" class="node">
<title>Node0</title>
<g id="a_node1"><a xlink:href="classv8_1_1StdMapTraits.html" target="_top" xlink:title=" ">
<polygon fill="white" stroke="black" points="0,-30 0,-49 125,-49 125,-30 0,-30"/>
<text text-anchor="middle" x="62.5" y="-37" font-family="Helvetica,sans-Serif" font-size="10.00">v8::StdMapTraits&lt; K, V &gt;</text>
</a>
</g>
</g>
<!-- Node1 -->
<g id="node2" class="node">
<title>Node1</title>
<g id="a_node2"><a xlink:href="classv8_1_1DefaultGlobalMapTraits.html" target="_top" xlink:title=" ">
<polygon fill="white" stroke="black" points="161,-49.5 161,-79.5 295,-79.5 295,-49.5 161,-49.5"/>
<text text-anchor="start" x="169" y="-67.5" font-family="Helvetica,sans-Serif" font-size="10.00">v8::DefaultGlobalMapTraits</text>
<text text-anchor="middle" x="228" y="-56.5" font-family="Helvetica,sans-Serif" font-size="10.00">&lt; K, V &gt;</text>
</a>
</g>
</g>
<!-- Node0&#45;&gt;Node1 -->
<g id="edge1" class="edge">
<title>Node0&#45;&gt;Node1</title>
<path fill="none" stroke="midnightblue" d="M135.47,-50.5C143.87,-51.79 152.41,-53.1 160.73,-54.37"/>
<polygon fill="midnightblue" stroke="midnightblue" points="135.73,-47 125.31,-48.95 134.67,-53.92 135.73,-47"/>
</g>
<!-- Node2 -->
<g id="node3" class="node">
<title>Node2</title>
<g id="a_node3"><a xlink:href="classv8_1_1DefaultPersistentValueMapTraits.html" target="_top" xlink:title=" ">
<polygon fill="white" stroke="black" points="162.5,-0.5 162.5,-30.5 293.5,-30.5 293.5,-0.5 162.5,-0.5"/>
<text text-anchor="start" x="170.5" y="-18.5" font-family="Helvetica,sans-Serif" font-size="10.00">v8::DefaultPersistentValue</text>
<text text-anchor="middle" x="228" y="-7.5" font-family="Helvetica,sans-Serif" font-size="10.00">MapTraits&lt; K, V &gt;</text>
</a>
</g>
</g>
<!-- Node0&#45;&gt;Node2 -->
<g id="edge2" class="edge">
<title>Node0&#45;&gt;Node2</title>
<path fill="none" stroke="midnightblue" d="M135.37,-28.95C144.36,-27.63 153.51,-26.29 162.38,-24.99"/>
<polygon fill="midnightblue" stroke="midnightblue" points="134.7,-25.51 125.31,-30.43 135.71,-32.44 134.7,-25.51"/>
</g>
</g>
</svg>
