<?xml version="1.0" encoding="UTF-8" standalone="no"?>
<!DOCTYPE svg PUBLIC "-//W3C//DTD SVG 1.1//EN"
 "http://www.w3.org/Graphics/SVG/1.1/DTD/svg11.dtd">
<!-- Generated by graphviz version 2.44.0 ()
 -->
<!-- Title: include/v8&#45;inspector&#45;protocol.h Pages: 1 -->
<svg width="748pt" height="263pt"
 viewBox="0.00 0.00 748.00 263.00" xmlns="http://www.w3.org/2000/svg" xmlns:xlink="http://www.w3.org/1999/xlink">
<g id="graph0" class="graph" transform="scale(1 1) rotate(0) translate(4 259)">
<title>include/v8&#45;inspector&#45;protocol.h</title>
<polygon fill="white" stroke="transparent" points="-4,4 -4,-259 744,-259 744,4 -4,4"/>
<!-- Node1 -->
<g id="node1" class="node">
<title>Node1</title>
<g id="a_node1"><a xlink:title=" ">
<polygon fill="#bfbfbf" stroke="black" points="186,-224.5 186,-254.5 290,-254.5 290,-224.5 186,-224.5"/>
<text text-anchor="start" x="194" y="-242.5" font-family="Helvetica,sans-Serif" font-size="10.00">include/v8&#45;inspector</text>
<text text-anchor="middle" x="238" y="-231.5" font-family="Helvetica,sans-Serif" font-size="10.00">&#45;protocol.h</text>
</a>
</g>
</g>
<!-- Node2 -->
<g id="node2" class="node">
<title>Node2</title>
<g id="a_node2"><a xlink:title=" ">
<polygon fill="white" stroke="#bfbfbf" points="0,-168.5 0,-187.5 108,-187.5 108,-168.5 0,-168.5"/>
<text text-anchor="middle" x="54" y="-175.5" font-family="Helvetica,sans-Serif" font-size="10.00">inspector/Debugger.h</text>
</a>
</g>
</g>
<!-- Node1&#45;&gt;Node2 -->
<g id="edge1" class="edge">
<title>Node1&#45;&gt;Node2</title>
<path fill="none" stroke="midnightblue" d="M194.39,-224.4C162.6,-214.12 120.03,-200.35 90.13,-190.68"/>
<polygon fill="midnightblue" stroke="midnightblue" points="91.1,-187.32 80.51,-187.57 88.94,-193.98 91.1,-187.32"/>
</g>
<!-- Node3 -->
<g id="node3" class="node">
<title>Node3</title>
<g id="a_node3"><a xlink:title=" ">
<polygon fill="white" stroke="#bfbfbf" points="126.5,-168.5 126.5,-187.5 229.5,-187.5 229.5,-168.5 126.5,-168.5"/>
<text text-anchor="middle" x="178" y="-175.5" font-family="Helvetica,sans-Serif" font-size="10.00">inspector/Runtime.h</text>
</a>
</g>
</g>
<!-- Node1&#45;&gt;Node3 -->
<g id="edge2" class="edge">
<title>Node1&#45;&gt;Node3</title>
<path fill="none" stroke="midnightblue" d="M223.78,-224.4C214.79,-215.49 203.16,-203.95 193.87,-194.74"/>
<polygon fill="midnightblue" stroke="midnightblue" points="196.3,-192.21 186.73,-187.66 191.37,-197.18 196.3,-192.21"/>
</g>
<!-- Node4 -->
<g id="node4" class="node">
<title>Node4</title>
<g id="a_node4"><a xlink:title=" ">
<polygon fill="white" stroke="#bfbfbf" points="247.5,-168.5 247.5,-187.5 350.5,-187.5 350.5,-168.5 247.5,-168.5"/>
<text text-anchor="middle" x="299" y="-175.5" font-family="Helvetica,sans-Serif" font-size="10.00">inspector/Schema.h</text>
</a>
</g>
</g>
<!-- Node1&#45;&gt;Node4 -->
<g id="edge3" class="edge">
<title>Node1&#45;&gt;Node4</title>
<path fill="none" stroke="midnightblue" d="M252.46,-224.4C261.59,-215.49 273.42,-203.95 282.86,-194.74"/>
<polygon fill="midnightblue" stroke="midnightblue" points="285.41,-197.15 290.12,-187.66 280.52,-192.13 285.41,-197.15"/>
</g>
<!-- Node5 -->
<g id="node5" class="node">
<title>Node5</title>
<g id="a_node5"><a xlink:href="v8-inspector_8h.html" target="_top" xlink:title=" ">
<polygon fill="white" stroke="black" points="368.5,-168.5 368.5,-187.5 445.5,-187.5 445.5,-168.5 368.5,-168.5"/>
<text text-anchor="middle" x="407" y="-175.5" font-family="Helvetica,sans-Serif" font-size="10.00">v8&#45;inspector.h</text>
</a>
</g>
</g>
<!-- Node1&#45;&gt;Node5 -->
<g id="edge4" class="edge">
<title>Node1&#45;&gt;Node5</title>
<path fill="none" stroke="midnightblue" d="M278.05,-224.4C306.91,-214.24 345.45,-200.67 372.85,-191.02"/>
<polygon fill="midnightblue" stroke="midnightblue" points="374.14,-194.28 382.41,-187.66 371.81,-187.68 374.14,-194.28"/>
</g>
<!-- Node6 -->
<g id="node6" class="node">
<title>Node6</title>
<g id="a_node6"><a xlink:title=" ">
<polygon fill="white" stroke="#bfbfbf" points="213,-0.5 213,-19.5 261,-19.5 261,-0.5 213,-0.5"/>
<text text-anchor="middle" x="237" y="-7.5" font-family="Helvetica,sans-Serif" font-size="10.00">stdint.h</text>
</a>
</g>
</g>
<!-- Node5&#45;&gt;Node6 -->
<g id="edge5" class="edge">
<title>Node5&#45;&gt;Node6</title>
<path fill="none" stroke="midnightblue" d="M385.07,-168.39C351.92,-154.24 289.41,-122.87 256,-76 246.3,-62.39 241.51,-43.84 239.17,-30.05"/>
<polygon fill="midnightblue" stroke="midnightblue" points="242.59,-29.2 237.73,-19.79 235.66,-30.18 242.59,-29.2"/>
</g>
<!-- Node7 -->
<g id="node7" class="node">
<title>Node7</title>
<g id="a_node7"><a xlink:title=" ">
<polygon fill="white" stroke="#bfbfbf" points="481.5,-112.5 481.5,-131.5 526.5,-131.5 526.5,-112.5 481.5,-112.5"/>
<text text-anchor="middle" x="504" y="-119.5" font-family="Helvetica,sans-Serif" font-size="10.00">cctype</text>
</a>
</g>
</g>
<!-- Node5&#45;&gt;Node7 -->
<g id="edge6" class="edge">
<title>Node5&#45;&gt;Node7</title>
<path fill="none" stroke="midnightblue" d="M422.58,-168.32C438,-159.74 461.81,-146.49 479.71,-136.52"/>
<polygon fill="midnightblue" stroke="midnightblue" points="481.42,-139.58 488.45,-131.65 478.01,-133.46 481.42,-139.58"/>
</g>
<!-- Node8 -->
<g id="node8" class="node">
<title>Node8</title>
<g id="a_node8"><a xlink:title=" ">
<polygon fill="white" stroke="#bfbfbf" points="265.5,-56.5 265.5,-75.5 316.5,-75.5 316.5,-56.5 265.5,-56.5"/>
<text text-anchor="middle" x="291" y="-63.5" font-family="Helvetica,sans-Serif" font-size="10.00">memory</text>
</a>
</g>
</g>
<!-- Node5&#45;&gt;Node8 -->
<g id="edge7" class="edge">
<title>Node5&#45;&gt;Node8</title>
<path fill="none" stroke="midnightblue" d="M397.9,-168.37C378.42,-149.89 332.44,-106.29 307.6,-82.74"/>
<polygon fill="midnightblue" stroke="midnightblue" points="309.72,-79.93 300.06,-75.59 304.91,-85.01 309.72,-79.93"/>
</g>
<!-- Node9 -->
<g id="node9" class="node">
<title>Node9</title>
<g id="a_node9"><a xlink:href="v8_8h.html" target="_top" xlink:title=" ">
<polygon fill="white" stroke="black" points="428.5,-112.5 428.5,-131.5 463.5,-131.5 463.5,-112.5 428.5,-112.5"/>
<text text-anchor="middle" x="446" y="-119.5" font-family="Helvetica,sans-Serif" font-size="10.00">v8.h</text>
</a>
</g>
</g>
<!-- Node5&#45;&gt;Node9 -->
<g id="edge8" class="edge">
<title>Node5&#45;&gt;Node9</title>
<path fill="none" stroke="midnightblue" d="M413.44,-168.08C418.95,-160.46 427.03,-149.26 433.76,-139.94"/>
<polygon fill="midnightblue" stroke="midnightblue" points="436.66,-141.91 439.68,-131.75 430.99,-137.81 436.66,-141.91"/>
</g>
<!-- Node9&#45;&gt;Node6 -->
<g id="edge10" class="edge">
<title>Node9&#45;&gt;Node6</title>
<path fill="none" stroke="midnightblue" d="M428.85,-112.48C411.2,-103.62 382.97,-89.23 359,-76 343.65,-67.53 340.37,-64.44 325,-56 304.7,-44.85 281.33,-32.94 263.79,-24.18"/>
<polygon fill="midnightblue" stroke="midnightblue" points="265.2,-20.98 254.69,-19.66 262.09,-27.25 265.2,-20.98"/>
</g>
<!-- Node9&#45;&gt;Node8 -->
<g id="edge12" class="edge">
<title>Node9&#45;&gt;Node8</title>
<path fill="none" stroke="midnightblue" d="M428.22,-114.81C403.18,-106.08 357.03,-90 325.21,-78.92"/>
<polygon fill="midnightblue" stroke="midnightblue" points="326.02,-75.5 315.43,-75.51 323.72,-82.11 326.02,-75.5"/>
</g>
<!-- Node10 -->
<g id="node10" class="node">
<title>Node10</title>
<g id="a_node10"><a xlink:title=" ">
<polygon fill="white" stroke="#bfbfbf" points="279.5,-0.5 279.5,-19.5 330.5,-19.5 330.5,-0.5 279.5,-0.5"/>
<text text-anchor="middle" x="305" y="-7.5" font-family="Helvetica,sans-Serif" font-size="10.00">stddef.h</text>
</a>
</g>
</g>
<!-- Node9&#45;&gt;Node10 -->
<g id="edge9" class="edge">
<title>Node9&#45;&gt;Node10</title>
<path fill="none" stroke="midnightblue" d="M434.94,-112.37C410.95,-93.65 353.9,-49.15 324.01,-25.83"/>
<polygon fill="midnightblue" stroke="midnightblue" points="326.05,-22.98 316.01,-19.59 321.74,-28.5 326.05,-22.98"/>
</g>
<!-- Node11 -->
<g id="node11" class="node">
<title>Node11</title>
<g id="a_node11"><a xlink:title=" ">
<polygon fill="white" stroke="#bfbfbf" points="575.5,-56.5 575.5,-75.5 620.5,-75.5 620.5,-56.5 575.5,-56.5"/>
<text text-anchor="middle" x="598" y="-63.5" font-family="Helvetica,sans-Serif" font-size="10.00">stdio.h</text>
</a>
</g>
</g>
<!-- Node9&#45;&gt;Node11 -->
<g id="edge11" class="edge">
<title>Node9&#45;&gt;Node11</title>
<path fill="none" stroke="midnightblue" d="M463.73,-114.7C488.75,-105.81 534.81,-89.45 565.92,-78.4"/>
<polygon fill="midnightblue" stroke="midnightblue" points="567.2,-81.66 575.45,-75.01 564.86,-75.06 567.2,-81.66"/>
</g>
<!-- Node12 -->
<g id="node12" class="node">
<title>Node12</title>
<g id="a_node12"><a xlink:title=" ">
<polygon fill="white" stroke="#bfbfbf" points="638.5,-56.5 638.5,-75.5 677.5,-75.5 677.5,-56.5 638.5,-56.5"/>
<text text-anchor="middle" x="658" y="-63.5" font-family="Helvetica,sans-Serif" font-size="10.00">utility</text>
</a>
</g>
</g>
<!-- Node9&#45;&gt;Node12 -->
<g id="edge13" class="edge">
<title>Node9&#45;&gt;Node12</title>
<path fill="none" stroke="midnightblue" d="M463.54,-114.64C466.35,-113.7 469.24,-112.79 472,-112 538.27,-93.04 558.79,-94.83 628.75,-76.16"/>
<polygon fill="midnightblue" stroke="midnightblue" points="629.75,-79.51 638.48,-73.51 627.92,-72.76 629.75,-79.51"/>
</g>
<!-- Node13 -->
<g id="node13" class="node">
<title>Node13</title>
<g id="a_node13"><a xlink:title=" ">
<polygon fill="white" stroke="#bfbfbf" points="696,-56.5 696,-75.5 740,-75.5 740,-56.5 696,-56.5"/>
<text text-anchor="middle" x="718" y="-63.5" font-family="Helvetica,sans-Serif" font-size="10.00">vector</text>
</a>
</g>
</g>
<!-- Node9&#45;&gt;Node13 -->
<g id="edge14" class="edge">
<title>Node9&#45;&gt;Node13</title>
<path fill="none" stroke="midnightblue" d="M463.5,-114.5C466.32,-113.58 469.22,-112.71 472,-112 562.77,-88.86 590.7,-96.95 685.7,-76.06"/>
<polygon fill="midnightblue" stroke="midnightblue" points="686.74,-79.41 695.73,-73.8 685.21,-72.58 686.74,-79.41"/>
</g>
<!-- Node14 -->
<g id="node14" class="node">
<title>Node14</title>
<g id="a_node14"><a xlink:href="v8-internal_8h.html" target="_top" xlink:title=" ">
<polygon fill="white" stroke="black" points="411.5,-56.5 411.5,-75.5 480.5,-75.5 480.5,-56.5 411.5,-56.5"/>
<text text-anchor="middle" x="446" y="-63.5" font-family="Helvetica,sans-Serif" font-size="10.00">v8&#45;internal.h</text>
</a>
</g>
</g>
<!-- Node9&#45;&gt;Node14 -->
<g id="edge15" class="edge">
<title>Node9&#45;&gt;Node14</title>
<path fill="none" stroke="midnightblue" d="M446,-112.08C446,-105.01 446,-94.86 446,-85.99"/>
<polygon fill="midnightblue" stroke="midnightblue" points="449.5,-85.75 446,-75.75 442.5,-85.75 449.5,-85.75"/>
</g>
<!-- Node17 -->
<g id="node17" class="node">
<title>Node17</title>
<g id="a_node17"><a xlink:href="v8-version_8h.html" target="_top" xlink:title=" ">
<polygon fill="white" stroke="black" points="495.5,-0.5 495.5,-19.5 564.5,-19.5 564.5,-0.5 495.5,-0.5"/>
<text text-anchor="middle" x="530" y="-7.5" font-family="Helvetica,sans-Serif" font-size="10.00">v8&#45;version.h</text>
</a>
</g>
</g>
<!-- Node9&#45;&gt;Node17 -->
<g id="edge22" class="edge">
<title>Node9&#45;&gt;Node17</title>
<path fill="none" stroke="midnightblue" d="M455.46,-112.18C464.58,-103.45 478.5,-89.46 489,-76 500.89,-60.77 512.45,-41.96 520.25,-28.51"/>
<polygon fill="midnightblue" stroke="midnightblue" points="523.31,-30.2 525.21,-19.78 517.23,-26.74 523.31,-30.2"/>
</g>
<!-- Node18 -->
<g id="node18" class="node">
<title>Node18</title>
<g id="a_node18"><a xlink:href="v8config_8h.html" target="_top" xlink:title=" ">
<polygon fill="white" stroke="black" points="583,-0.5 583,-19.5 643,-19.5 643,-0.5 583,-0.5"/>
<text text-anchor="middle" x="613" y="-7.5" font-family="Helvetica,sans-Serif" font-size="10.00">v8config.h</text>
</a>
</g>
</g>
<!-- Node9&#45;&gt;Node18 -->
<g id="edge23" class="edge">
<title>Node9&#45;&gt;Node18</title>
<path fill="none" stroke="midnightblue" d="M459.1,-112.37C487.76,-93.49 556.24,-48.38 591.39,-25.24"/>
<polygon fill="midnightblue" stroke="midnightblue" points="593.53,-28.02 599.96,-19.59 589.68,-22.17 593.53,-28.02"/>
</g>
<!-- Node14&#45;&gt;Node6 -->
<g id="edge17" class="edge">
<title>Node14&#45;&gt;Node6</title>
<path fill="none" stroke="midnightblue" d="M411.89,-56.45C378.41,-48.02 325.65,-34.64 271,-20.23"/>
<polygon fill="midnightblue" stroke="midnightblue" points="271.7,-16.8 261.14,-17.63 269.91,-23.57 271.7,-16.8"/>
</g>
<!-- Node14&#45;&gt;Node10 -->
<g id="edge16" class="edge">
<title>Node14&#45;&gt;Node10</title>
<path fill="none" stroke="midnightblue" d="M423.66,-56.44C400.25,-47.48 363.26,-33.31 336.81,-23.18"/>
<polygon fill="midnightblue" stroke="midnightblue" points="337.83,-19.82 327.24,-19.52 335.32,-26.36 337.83,-19.82"/>
</g>
<!-- Node15 -->
<g id="node15" class="node">
<title>Node15</title>
<g id="a_node15"><a xlink:title=" ">
<polygon fill="white" stroke="#bfbfbf" points="349,-0.5 349,-19.5 397,-19.5 397,-0.5 349,-0.5"/>
<text text-anchor="middle" x="373" y="-7.5" font-family="Helvetica,sans-Serif" font-size="10.00">string.h</text>
</a>
</g>
</g>
<!-- Node14&#45;&gt;Node15 -->
<g id="edge18" class="edge">
<title>Node14&#45;&gt;Node15</title>
<path fill="none" stroke="midnightblue" d="M434.27,-56.32C423.16,-48.11 406.26,-35.6 393.02,-25.81"/>
<polygon fill="midnightblue" stroke="midnightblue" points="395.06,-22.97 384.94,-19.83 390.9,-28.59 395.06,-22.97"/>
</g>
<!-- Node16 -->
<g id="node16" class="node">
<title>Node16</title>
<g id="a_node16"><a xlink:title=" ">
<polygon fill="white" stroke="#bfbfbf" points="415,-0.5 415,-19.5 477,-19.5 477,-0.5 415,-0.5"/>
<text text-anchor="middle" x="446" y="-7.5" font-family="Helvetica,sans-Serif" font-size="10.00">type_traits</text>
</a>
</g>
</g>
<!-- Node14&#45;&gt;Node16 -->
<g id="edge19" class="edge">
<title>Node14&#45;&gt;Node16</title>
<path fill="none" stroke="midnightblue" d="M446,-56.08C446,-49.01 446,-38.86 446,-29.99"/>
<polygon fill="midnightblue" stroke="midnightblue" points="449.5,-29.75 446,-19.75 442.5,-29.75 449.5,-29.75"/>
</g>
<!-- Node14&#45;&gt;Node17 -->
<g id="edge20" class="edge">
<title>Node14&#45;&gt;Node17</title>
<path fill="none" stroke="midnightblue" d="M459.5,-56.32C472.6,-47.9 492.71,-34.97 508.11,-25.07"/>
<polygon fill="midnightblue" stroke="midnightblue" points="510.02,-28.01 516.54,-19.65 506.23,-22.12 510.02,-28.01"/>
</g>
<!-- Node14&#45;&gt;Node18 -->
<g id="edge21" class="edge">
<title>Node14&#45;&gt;Node18</title>
<path fill="none" stroke="midnightblue" d="M472.46,-56.44C500.68,-47.32 545.54,-32.81 576.97,-22.65"/>
<polygon fill="midnightblue" stroke="midnightblue" points="578.22,-25.92 586.66,-19.52 576.07,-19.26 578.22,-25.92"/>
</g>
</g>
</svg>
