<?xml version="1.0" encoding="UTF-8" standalone="no"?>
<!DOCTYPE svg PUBLIC "-//W3C//DTD SVG 1.1//EN"
 "http://www.w3.org/Graphics/SVG/1.1/DTD/svg11.dtd">
<!-- Generated by graphviz version 2.44.0 ()
 -->
<!-- Title: include/v8&#45;profiler.h Pages: 1 -->
<svg width="579pt" height="196pt"
 viewBox="0.00 0.00 579.00 196.00" xmlns="http://www.w3.org/2000/svg" xmlns:xlink="http://www.w3.org/1999/xlink">
<g id="graph0" class="graph" transform="scale(1 1) rotate(0) translate(4 192)">
<title>include/v8&#45;profiler.h</title>
<polygon fill="white" stroke="transparent" points="-4,4 -4,-192 575,-192 575,4 -4,4"/>
<!-- Node1 -->
<g id="node1" class="node">
<title>Node1</title>
<g id="a_node1"><a xlink:title=" ">
<polygon fill="#bfbfbf" stroke="black" points="87.5,-168.5 87.5,-187.5 187.5,-187.5 187.5,-168.5 87.5,-168.5"/>
<text text-anchor="middle" x="137.5" y="-175.5" font-family="Helvetica,sans-Serif" font-size="10.00">include/v8&#45;profiler.h</text>
</a>
</g>
</g>
<!-- Node2 -->
<g id="node2" class="node">
<title>Node2</title>
<g id="a_node2"><a xlink:title=" ">
<polygon fill="white" stroke="#bfbfbf" points="0,-112.5 0,-131.5 47,-131.5 47,-112.5 0,-112.5"/>
<text text-anchor="middle" x="23.5" y="-119.5" font-family="Helvetica,sans-Serif" font-size="10.00">limits.h</text>
</a>
</g>
</g>
<!-- Node1&#45;&gt;Node2 -->
<g id="edge1" class="edge">
<title>Node1&#45;&gt;Node2</title>
<path fill="none" stroke="midnightblue" d="M119.44,-168.44C100.93,-159.68 71.92,-145.94 50.64,-135.86"/>
<polygon fill="midnightblue" stroke="midnightblue" points="52.01,-132.63 41.48,-131.52 49.02,-138.96 52.01,-132.63"/>
</g>
<!-- Node3 -->
<g id="node3" class="node">
<title>Node3</title>
<g id="a_node3"><a xlink:title=" ">
<polygon fill="white" stroke="#bfbfbf" points="65.5,-112.5 65.5,-131.5 143.5,-131.5 143.5,-112.5 65.5,-112.5"/>
<text text-anchor="middle" x="104.5" y="-119.5" font-family="Helvetica,sans-Serif" font-size="10.00">unordered_set</text>
</a>
</g>
</g>
<!-- Node1&#45;&gt;Node3 -->
<g id="edge2" class="edge">
<title>Node1&#45;&gt;Node3</title>
<path fill="none" stroke="midnightblue" d="M132.05,-168.08C127.49,-160.61 120.83,-149.72 115.21,-140.52"/>
<polygon fill="midnightblue" stroke="midnightblue" points="118.05,-138.46 109.85,-131.75 112.08,-142.11 118.05,-138.46"/>
</g>
<!-- Node4 -->
<g id="node4" class="node">
<title>Node4</title>
<g id="a_node4"><a xlink:title=" ">
<polygon fill="white" stroke="#bfbfbf" points="97.5,-56.5 97.5,-75.5 141.5,-75.5 141.5,-56.5 97.5,-56.5"/>
<text text-anchor="middle" x="119.5" y="-63.5" font-family="Helvetica,sans-Serif" font-size="10.00">vector</text>
</a>
</g>
</g>
<!-- Node1&#45;&gt;Node4 -->
<g id="edge3" class="edge">
<title>Node1&#45;&gt;Node4</title>
<path fill="none" stroke="midnightblue" d="M142.4,-168.45C148.94,-155.9 158.99,-131.81 152.5,-112 149.01,-101.34 141.93,-91.12 135.21,-83.12"/>
<polygon fill="midnightblue" stroke="midnightblue" points="137.8,-80.76 128.52,-75.66 132.6,-85.44 137.8,-80.76"/>
</g>
<!-- Node5 -->
<g id="node5" class="node">
<title>Node5</title>
<g id="a_node5"><a xlink:href="v8_8h.html" target="_top" xlink:title=" ">
<polygon fill="white" stroke="black" points="284,-112.5 284,-131.5 319,-131.5 319,-112.5 284,-112.5"/>
<text text-anchor="middle" x="301.5" y="-119.5" font-family="Helvetica,sans-Serif" font-size="10.00">v8.h</text>
</a>
</g>
</g>
<!-- Node1&#45;&gt;Node5 -->
<g id="edge4" class="edge">
<title>Node1&#45;&gt;Node5</title>
<path fill="none" stroke="midnightblue" d="M163.49,-168.44C193.67,-158.5 243.26,-142.18 274.05,-132.04"/>
<polygon fill="midnightblue" stroke="midnightblue" points="275.32,-135.31 283.72,-128.85 273.13,-128.66 275.32,-135.31"/>
</g>
<!-- Node5&#45;&gt;Node4 -->
<g id="edge10" class="edge">
<title>Node5&#45;&gt;Node4</title>
<path fill="none" stroke="midnightblue" d="M283.72,-115.72C253.01,-106.61 189.65,-87.81 151.23,-76.41"/>
<polygon fill="midnightblue" stroke="midnightblue" points="152.15,-73.04 141.57,-73.55 150.16,-79.75 152.15,-73.04"/>
</g>
<!-- Node6 -->
<g id="node6" class="node">
<title>Node6</title>
<g id="a_node6"><a xlink:title=" ">
<polygon fill="white" stroke="#bfbfbf" points="75,-0.5 75,-19.5 126,-19.5 126,-0.5 75,-0.5"/>
<text text-anchor="middle" x="100.5" y="-7.5" font-family="Helvetica,sans-Serif" font-size="10.00">stddef.h</text>
</a>
</g>
</g>
<!-- Node5&#45;&gt;Node6 -->
<g id="edge5" class="edge">
<title>Node5&#45;&gt;Node6</title>
<path fill="none" stroke="midnightblue" d="M283.97,-113.92C263.9,-105.6 230.21,-91.03 202.5,-76 173.37,-60.2 141.39,-39.17 121.14,-25.37"/>
<polygon fill="midnightblue" stroke="midnightblue" points="122.94,-22.36 112.72,-19.59 118.98,-28.13 122.94,-22.36"/>
</g>
<!-- Node7 -->
<g id="node7" class="node">
<title>Node7</title>
<g id="a_node7"><a xlink:title=" ">
<polygon fill="white" stroke="#bfbfbf" points="144.5,-0.5 144.5,-19.5 192.5,-19.5 192.5,-0.5 144.5,-0.5"/>
<text text-anchor="middle" x="168.5" y="-7.5" font-family="Helvetica,sans-Serif" font-size="10.00">stdint.h</text>
</a>
</g>
</g>
<!-- Node5&#45;&gt;Node7 -->
<g id="edge6" class="edge">
<title>Node5&#45;&gt;Node7</title>
<path fill="none" stroke="midnightblue" d="M283.85,-112.36C268,-104.17 244.52,-90.91 226.5,-76 209.1,-61.6 192.27,-41.89 181.26,-27.96"/>
<polygon fill="midnightblue" stroke="midnightblue" points="183.81,-25.53 174.92,-19.75 178.27,-29.81 183.81,-25.53"/>
</g>
<!-- Node8 -->
<g id="node8" class="node">
<title>Node8</title>
<g id="a_node8"><a xlink:title=" ">
<polygon fill="white" stroke="#bfbfbf" points="400,-56.5 400,-75.5 445,-75.5 445,-56.5 400,-56.5"/>
<text text-anchor="middle" x="422.5" y="-63.5" font-family="Helvetica,sans-Serif" font-size="10.00">stdio.h</text>
</a>
</g>
</g>
<!-- Node5&#45;&gt;Node8 -->
<g id="edge7" class="edge">
<title>Node5&#45;&gt;Node8</title>
<path fill="none" stroke="midnightblue" d="M319.09,-113.15C338.71,-104.39 370.72,-90.11 393.93,-79.75"/>
<polygon fill="midnightblue" stroke="midnightblue" points="395.58,-82.85 403.28,-75.58 392.73,-76.45 395.58,-82.85"/>
</g>
<!-- Node9 -->
<g id="node9" class="node">
<title>Node9</title>
<g id="a_node9"><a xlink:title=" ">
<polygon fill="white" stroke="#bfbfbf" points="463,-56.5 463,-75.5 514,-75.5 514,-56.5 463,-56.5"/>
<text text-anchor="middle" x="488.5" y="-63.5" font-family="Helvetica,sans-Serif" font-size="10.00">memory</text>
</a>
</g>
</g>
<!-- Node5&#45;&gt;Node9 -->
<g id="edge8" class="edge">
<title>Node5&#45;&gt;Node9</title>
<path fill="none" stroke="midnightblue" d="M319.09,-115.92C349.69,-107.09 413.24,-88.73 453.21,-77.19"/>
<polygon fill="midnightblue" stroke="midnightblue" points="454.2,-80.55 462.83,-74.41 452.25,-73.82 454.2,-80.55"/>
</g>
<!-- Node10 -->
<g id="node10" class="node">
<title>Node10</title>
<g id="a_node10"><a xlink:title=" ">
<polygon fill="white" stroke="#bfbfbf" points="532,-56.5 532,-75.5 571,-75.5 571,-56.5 532,-56.5"/>
<text text-anchor="middle" x="551.5" y="-63.5" font-family="Helvetica,sans-Serif" font-size="10.00">utility</text>
</a>
</g>
</g>
<!-- Node5&#45;&gt;Node10 -->
<g id="edge9" class="edge">
<title>Node5&#45;&gt;Node10</title>
<path fill="none" stroke="midnightblue" d="M319.21,-118.1C355.55,-112 441.3,-96.87 522.17,-76.13"/>
<polygon fill="midnightblue" stroke="midnightblue" points="523.2,-79.48 532,-73.57 521.44,-72.7 523.2,-79.48"/>
</g>
<!-- Node11 -->
<g id="node11" class="node">
<title>Node11</title>
<g id="a_node11"><a xlink:href="v8-internal_8h.html" target="_top" xlink:title=" ">
<polygon fill="white" stroke="black" points="236,-56.5 236,-75.5 305,-75.5 305,-56.5 236,-56.5"/>
<text text-anchor="middle" x="270.5" y="-63.5" font-family="Helvetica,sans-Serif" font-size="10.00">v8&#45;internal.h</text>
</a>
</g>
</g>
<!-- Node5&#45;&gt;Node11 -->
<g id="edge11" class="edge">
<title>Node5&#45;&gt;Node11</title>
<path fill="none" stroke="midnightblue" d="M296.38,-112.08C292.09,-104.61 285.84,-93.72 280.56,-84.52"/>
<polygon fill="midnightblue" stroke="midnightblue" points="283.54,-82.68 275.52,-75.75 277.47,-86.17 283.54,-82.68"/>
</g>
<!-- Node14 -->
<g id="node14" class="node">
<title>Node14</title>
<g id="a_node14"><a xlink:href="v8-version_8h.html" target="_top" xlink:title=" ">
<polygon fill="white" stroke="black" points="357,-0.5 357,-19.5 426,-19.5 426,-0.5 357,-0.5"/>
<text text-anchor="middle" x="391.5" y="-7.5" font-family="Helvetica,sans-Serif" font-size="10.00">v8&#45;version.h</text>
</a>
</g>
</g>
<!-- Node5&#45;&gt;Node14 -->
<g id="edge18" class="edge">
<title>Node5&#45;&gt;Node14</title>
<path fill="none" stroke="midnightblue" d="M308.56,-112.37C323.55,-94.05 358.73,-51.05 378.11,-27.36"/>
<polygon fill="midnightblue" stroke="midnightblue" points="380.85,-29.55 384.47,-19.59 375.43,-25.11 380.85,-29.55"/>
</g>
<!-- Node15 -->
<g id="node15" class="node">
<title>Node15</title>
<g id="a_node15"><a xlink:href="v8config_8h.html" target="_top" xlink:title=" ">
<polygon fill="white" stroke="black" points="444.5,-0.5 444.5,-19.5 504.5,-19.5 504.5,-0.5 444.5,-0.5"/>
<text text-anchor="middle" x="474.5" y="-7.5" font-family="Helvetica,sans-Serif" font-size="10.00">v8config.h</text>
</a>
</g>
</g>
<!-- Node5&#45;&gt;Node15 -->
<g id="edge19" class="edge">
<title>Node5&#45;&gt;Node15</title>
<path fill="none" stroke="midnightblue" d="M312.54,-112.31C329.2,-99.37 361.96,-74.56 391.5,-56 409.95,-44.41 431.61,-32.72 448.18,-24.16"/>
<polygon fill="midnightblue" stroke="midnightblue" points="449.97,-27.18 457.29,-19.51 446.79,-20.95 449.97,-27.18"/>
</g>
<!-- Node11&#45;&gt;Node6 -->
<g id="edge12" class="edge">
<title>Node11&#45;&gt;Node6</title>
<path fill="none" stroke="midnightblue" d="M243.56,-56.44C214.5,-47.21 168.09,-32.47 136.06,-22.29"/>
<polygon fill="midnightblue" stroke="midnightblue" points="136.79,-18.85 126.2,-19.16 134.67,-25.53 136.79,-18.85"/>
</g>
<!-- Node11&#45;&gt;Node7 -->
<g id="edge13" class="edge">
<title>Node11&#45;&gt;Node7</title>
<path fill="none" stroke="midnightblue" d="M254.11,-56.32C237.83,-47.7 212.63,-34.36 193.78,-24.39"/>
<polygon fill="midnightblue" stroke="midnightblue" points="195.32,-21.24 184.85,-19.65 192.05,-27.43 195.32,-21.24"/>
</g>
<!-- Node12 -->
<g id="node12" class="node">
<title>Node12</title>
<g id="a_node12"><a xlink:title=" ">
<polygon fill="white" stroke="#bfbfbf" points="210.5,-0.5 210.5,-19.5 258.5,-19.5 258.5,-0.5 210.5,-0.5"/>
<text text-anchor="middle" x="234.5" y="-7.5" font-family="Helvetica,sans-Serif" font-size="10.00">string.h</text>
</a>
</g>
</g>
<!-- Node11&#45;&gt;Node12 -->
<g id="edge14" class="edge">
<title>Node11&#45;&gt;Node12</title>
<path fill="none" stroke="midnightblue" d="M264.56,-56.08C259.52,-48.53 252.16,-37.49 245.99,-28.23"/>
<polygon fill="midnightblue" stroke="midnightblue" points="248.79,-26.13 240.33,-19.75 242.97,-30.01 248.79,-26.13"/>
</g>
<!-- Node13 -->
<g id="node13" class="node">
<title>Node13</title>
<g id="a_node13"><a xlink:title=" ">
<polygon fill="white" stroke="#bfbfbf" points="276.5,-0.5 276.5,-19.5 338.5,-19.5 338.5,-0.5 276.5,-0.5"/>
<text text-anchor="middle" x="307.5" y="-7.5" font-family="Helvetica,sans-Serif" font-size="10.00">type_traits</text>
</a>
</g>
</g>
<!-- Node11&#45;&gt;Node13 -->
<g id="edge15" class="edge">
<title>Node11&#45;&gt;Node13</title>
<path fill="none" stroke="midnightblue" d="M276.61,-56.08C281.78,-48.53 289.35,-37.49 295.69,-28.23"/>
<polygon fill="midnightblue" stroke="midnightblue" points="298.74,-29.98 301.5,-19.75 292.96,-26.02 298.74,-29.98"/>
</g>
<!-- Node11&#45;&gt;Node14 -->
<g id="edge16" class="edge">
<title>Node11&#45;&gt;Node14</title>
<path fill="none" stroke="midnightblue" d="M289.67,-56.44C309.41,-47.64 340.39,-33.81 362.99,-23.72"/>
<polygon fill="midnightblue" stroke="midnightblue" points="364.71,-26.79 372.42,-19.52 361.86,-20.4 364.71,-26.79"/>
</g>
<!-- Node11&#45;&gt;Node15 -->
<g id="edge17" class="edge">
<title>Node11&#45;&gt;Node15</title>
<path fill="none" stroke="midnightblue" d="M302.82,-56.44C338.51,-47 395.99,-31.78 434.48,-21.59"/>
<polygon fill="midnightblue" stroke="midnightblue" points="435.55,-24.93 444.32,-18.99 433.76,-18.16 435.55,-24.93"/>
</g>
</g>
</svg>
