<?xml version="1.0" encoding="UTF-8" standalone="no"?>
<!DOCTYPE svg PUBLIC "-//W3C//DTD SVG 1.1//EN"
 "http://www.w3.org/Graphics/SVG/1.1/DTD/svg11.dtd">
<!-- Generated by graphviz version 2.44.0 ()
 -->
<!-- Title: v8::Data Pages: 1 -->
<svg width="774pt" height="902pt"
 viewBox="0.00 0.00 774.00 902.00" xmlns="http://www.w3.org/2000/svg" xmlns:xlink="http://www.w3.org/1999/xlink">
<g id="graph0" class="graph" transform="scale(1 1) rotate(0) translate(4 898)">
<title>v8::Data</title>
<polygon fill="white" stroke="transparent" points="-4,4 -4,-898 770,-898 770,4 -4,4"/>
<!-- Node1 -->
<g id="node1" class="node">
<title>Node1</title>
<g id="a_node1"><a xlink:title=" ">
<polygon fill="#bfbfbf" stroke="black" points="0,-589.5 0,-608.5 52,-608.5 52,-589.5 0,-589.5"/>
<text text-anchor="middle" x="26" y="-596.5" font-family="Helvetica,sans-Serif" font-size="10.00">v8::Data</text>
</a>
</g>
</g>
<!-- Node2 -->
<g id="node2" class="node">
<title>Node2</title>
<g id="a_node2"><a xlink:href="classv8_1_1AccessorSignature.html" target="_top" xlink:title=" ">
<polygon fill="white" stroke="black" points="95,-703.5 95,-722.5 209,-722.5 209,-703.5 95,-703.5"/>
<text text-anchor="middle" x="152" y="-710.5" font-family="Helvetica,sans-Serif" font-size="10.00">v8::AccessorSignature</text>
</a>
</g>
</g>
<!-- Node1&#45;&gt;Node2 -->
<g id="edge1" class="edge">
<title>Node1&#45;&gt;Node2</title>
<path fill="none" stroke="midnightblue" d="M34.42,-618.09C43.75,-639.62 61.78,-674.21 88,-694 93.11,-697.85 98.99,-700.93 105.08,-703.39"/>
<polygon fill="midnightblue" stroke="midnightblue" points="37.59,-616.6 30.54,-608.69 31.12,-619.27 37.59,-616.6"/>
</g>
<!-- Node3 -->
<g id="node3" class="node">
<title>Node3</title>
<g id="a_node3"><a xlink:href="classv8_1_1Module.html" target="_top" xlink:title=" ">
<polygon fill="white" stroke="black" points="120.5,-665.5 120.5,-684.5 183.5,-684.5 183.5,-665.5 120.5,-665.5"/>
<text text-anchor="middle" x="152" y="-672.5" font-family="Helvetica,sans-Serif" font-size="10.00">v8::Module</text>
</a>
</g>
</g>
<!-- Node1&#45;&gt;Node3 -->
<g id="edge2" class="edge">
<title>Node1&#45;&gt;Node3</title>
<path fill="none" stroke="midnightblue" d="M41.73,-616.54C53.17,-629.15 70.07,-645.68 88,-656 97.9,-661.7 109.68,-665.84 120.36,-668.78"/>
<polygon fill="midnightblue" stroke="midnightblue" points="44.27,-614.13 35.04,-608.93 39.01,-618.75 44.27,-614.13"/>
</g>
<!-- Node4 -->
<g id="node4" class="node">
<title>Node4</title>
<g id="a_node4"><a xlink:href="classv8_1_1Private.html" target="_top" xlink:title=" ">
<polygon fill="white" stroke="black" points="121,-627.5 121,-646.5 183,-646.5 183,-627.5 121,-627.5"/>
<text text-anchor="middle" x="152" y="-634.5" font-family="Helvetica,sans-Serif" font-size="10.00">v8::Private</text>
</a>
</g>
</g>
<!-- Node1&#45;&gt;Node4 -->
<g id="edge3" class="edge">
<title>Node1&#45;&gt;Node4</title>
<path fill="none" stroke="midnightblue" d="M61.89,-609.93C70.43,-612.58 79.54,-615.41 88,-618 98.7,-621.28 110.45,-624.83 120.86,-627.97"/>
<polygon fill="midnightblue" stroke="midnightblue" points="62.8,-606.54 52.21,-606.91 60.72,-613.23 62.8,-606.54"/>
</g>
<!-- Node5 -->
<g id="node5" class="node">
<title>Node5</title>
<g id="a_node5"><a xlink:href="classv8_1_1Signature.html" target="_top" xlink:title=" ">
<polygon fill="white" stroke="black" points="115.5,-589.5 115.5,-608.5 188.5,-608.5 188.5,-589.5 115.5,-589.5"/>
<text text-anchor="middle" x="152" y="-596.5" font-family="Helvetica,sans-Serif" font-size="10.00">v8::Signature</text>
</a>
</g>
</g>
<!-- Node1&#45;&gt;Node5 -->
<g id="edge4" class="edge">
<title>Node1&#45;&gt;Node5</title>
<path fill="none" stroke="midnightblue" d="M62.43,-599C78.95,-599 98.57,-599 115.13,-599"/>
<polygon fill="midnightblue" stroke="midnightblue" points="62.09,-595.5 52.09,-599 62.09,-602.5 62.09,-595.5"/>
</g>
<!-- Node6 -->
<g id="node6" class="node">
<title>Node6</title>
<g id="a_node6"><a xlink:href="classv8_1_1Template.html" target="_top" xlink:title=" ">
<polygon fill="white" stroke="black" points="116,-551.5 116,-570.5 188,-570.5 188,-551.5 116,-551.5"/>
<text text-anchor="middle" x="152" y="-558.5" font-family="Helvetica,sans-Serif" font-size="10.00">v8::Template</text>
</a>
</g>
</g>
<!-- Node1&#45;&gt;Node6 -->
<g id="edge5" class="edge">
<title>Node1&#45;&gt;Node6</title>
<path fill="none" stroke="midnightblue" d="M61.89,-588.07C70.43,-585.42 79.54,-582.59 88,-580 98.16,-576.89 109.25,-573.53 119.26,-570.51"/>
<polygon fill="midnightblue" stroke="midnightblue" points="60.72,-584.77 52.21,-591.09 62.8,-591.46 60.72,-584.77"/>
</g>
<!-- Node9 -->
<g id="node9" class="node">
<title>Node9</title>
<g id="a_node9"><a xlink:href="classv8_1_1UnboundModuleScript.html" target="_top" xlink:title=" ">
<polygon fill="white" stroke="black" points="88,-513.5 88,-532.5 216,-532.5 216,-513.5 88,-513.5"/>
<text text-anchor="middle" x="152" y="-520.5" font-family="Helvetica,sans-Serif" font-size="10.00">v8::UnboundModuleScript</text>
</a>
</g>
</g>
<!-- Node1&#45;&gt;Node9 -->
<g id="edge8" class="edge">
<title>Node1&#45;&gt;Node9</title>
<path fill="none" stroke="midnightblue" d="M41.73,-581.46C53.17,-568.85 70.07,-552.32 88,-542 94.63,-538.18 102.11,-535.06 109.53,-532.53"/>
<polygon fill="midnightblue" stroke="midnightblue" points="39.01,-579.25 35.04,-589.07 44.27,-583.87 39.01,-579.25"/>
</g>
<!-- Node10 -->
<g id="node10" class="node">
<title>Node10</title>
<g id="a_node10"><a xlink:href="classv8_1_1Value.html" target="_top" xlink:title=" ">
<polygon fill="white" stroke="black" points="124,-475.5 124,-494.5 180,-494.5 180,-475.5 124,-475.5"/>
<text text-anchor="middle" x="152" y="-482.5" font-family="Helvetica,sans-Serif" font-size="10.00">v8::Value</text>
</a>
</g>
</g>
<!-- Node1&#45;&gt;Node10 -->
<g id="edge9" class="edge">
<title>Node1&#45;&gt;Node10</title>
<path fill="none" stroke="midnightblue" d="M34.42,-579.91C43.75,-558.38 61.78,-523.79 88,-504 98.4,-496.16 112.03,-491.53 123.95,-488.81"/>
<polygon fill="midnightblue" stroke="midnightblue" points="31.12,-578.73 30.54,-589.31 37.59,-581.4 31.12,-578.73"/>
</g>
<!-- Node7 -->
<g id="node7" class="node">
<title>Node7</title>
<g id="a_node7"><a xlink:href="classv8_1_1FunctionTemplate.html" target="_top" xlink:title=" ">
<polygon fill="white" stroke="black" points="252,-589.5 252,-608.5 362,-608.5 362,-589.5 252,-589.5"/>
<text text-anchor="middle" x="307" y="-596.5" font-family="Helvetica,sans-Serif" font-size="10.00">v8::FunctionTemplate</text>
</a>
</g>
</g>
<!-- Node6&#45;&gt;Node7 -->
<g id="edge6" class="edge">
<title>Node6&#45;&gt;Node7</title>
<path fill="none" stroke="midnightblue" d="M197.93,-572.16C220.04,-577.65 246.41,-584.2 267.57,-589.46"/>
<polygon fill="midnightblue" stroke="midnightblue" points="198.65,-568.73 188.1,-569.72 196.96,-575.53 198.65,-568.73"/>
</g>
<!-- Node8 -->
<g id="node8" class="node">
<title>Node8</title>
<g id="a_node8"><a xlink:href="classv8_1_1ObjectTemplate.html" target="_top" xlink:title=" ">
<polygon fill="white" stroke="black" points="256.5,-551.5 256.5,-570.5 357.5,-570.5 357.5,-551.5 256.5,-551.5"/>
<text text-anchor="middle" x="307" y="-558.5" font-family="Helvetica,sans-Serif" font-size="10.00">v8::ObjectTemplate</text>
</a>
</g>
</g>
<!-- Node6&#45;&gt;Node8 -->
<g id="edge7" class="edge">
<title>Node6&#45;&gt;Node8</title>
<path fill="none" stroke="midnightblue" d="M198.2,-561C216.45,-561 237.59,-561 256.28,-561"/>
<polygon fill="midnightblue" stroke="midnightblue" points="198.1,-557.5 188.1,-561 198.1,-564.5 198.1,-557.5"/>
</g>
<!-- Node11 -->
<g id="node11" class="node">
<title>Node11</title>
<g id="a_node11"><a xlink:href="classv8_1_1External.html" target="_top" xlink:title=" ">
<polygon fill="white" stroke="black" points="274,-513.5 274,-532.5 340,-532.5 340,-513.5 274,-513.5"/>
<text text-anchor="middle" x="307" y="-520.5" font-family="Helvetica,sans-Serif" font-size="10.00">v8::External</text>
</a>
</g>
</g>
<!-- Node10&#45;&gt;Node11 -->
<g id="edge10" class="edge">
<title>Node10&#45;&gt;Node11</title>
<path fill="none" stroke="midnightblue" d="M189.75,-494.13C215.43,-500.51 249.39,-508.94 273.97,-515.05"/>
<polygon fill="midnightblue" stroke="midnightblue" points="190.55,-490.72 180,-491.71 188.86,-497.51 190.55,-490.72"/>
</g>
<!-- Node12 -->
<g id="node12" class="node">
<title>Node12</title>
<g id="a_node12"><a xlink:href="classv8_1_1Object.html" target="_top" xlink:title=" ">
<polygon fill="white" stroke="black" points="277,-475.5 277,-494.5 337,-494.5 337,-475.5 277,-475.5"/>
<text text-anchor="middle" x="307" y="-482.5" font-family="Helvetica,sans-Serif" font-size="10.00">v8::Object</text>
</a>
</g>
</g>
<!-- Node10&#45;&gt;Node12 -->
<g id="edge11" class="edge">
<title>Node10&#45;&gt;Node12</title>
<path fill="none" stroke="midnightblue" d="M190.12,-485C216.81,-485 252.29,-485 276.93,-485"/>
<polygon fill="midnightblue" stroke="midnightblue" points="190,-481.5 180,-485 190,-488.5 190,-481.5"/>
</g>
<!-- Node45 -->
<g id="node42" class="node">
<title>Node45</title>
<g id="a_node42"><a xlink:href="classv8_1_1Primitive.html" target="_top" xlink:title=" ">
<polygon fill="white" stroke="black" points="272,-76.5 272,-95.5 342,-95.5 342,-76.5 272,-76.5"/>
<text text-anchor="middle" x="307" y="-83.5" font-family="Helvetica,sans-Serif" font-size="10.00">v8::Primitive</text>
</a>
</g>
</g>
<!-- Node10&#45;&gt;Node45 -->
<g id="edge41" class="edge">
<title>Node10&#45;&gt;Node45</title>
<path fill="none" stroke="midnightblue" d="M160.45,-465.56C187.87,-394.07 282.55,-147.17 302.35,-95.52"/>
<polygon fill="midnightblue" stroke="midnightblue" points="157.09,-464.55 156.78,-475.14 163.63,-467.05 157.09,-464.55"/>
</g>
<!-- Node13 -->
<g id="node13" class="node">
<title>Node13</title>
<g id="a_node13"><a xlink:href="classv8_1_1Array.html" target="_top" xlink:title=" ">
<polygon fill="white" stroke="black" points="430.5,-836.5 430.5,-855.5 484.5,-855.5 484.5,-836.5 430.5,-836.5"/>
<text text-anchor="middle" x="457.5" y="-843.5" font-family="Helvetica,sans-Serif" font-size="10.00">v8::Array</text>
</a>
</g>
</g>
<!-- Node12&#45;&gt;Node13 -->
<g id="edge12" class="edge">
<title>Node12&#45;&gt;Node13</title>
<path fill="none" stroke="midnightblue" d="M346.62,-492.51C352.52,-495.23 357.98,-498.95 362,-504 451.89,-617.06 306.74,-715.04 398,-827 405.89,-836.68 418.79,-841.49 430.47,-843.84"/>
<polygon fill="midnightblue" stroke="midnightblue" points="347.7,-489.18 337.11,-488.98 345.27,-495.74 347.7,-489.18"/>
</g>
<!-- Node14 -->
<g id="node14" class="node">
<title>Node14</title>
<g id="a_node14"><a xlink:href="classv8_1_1ArrayBuffer.html" target="_top" xlink:title=" ">
<polygon fill="white" stroke="black" points="417.5,-798.5 417.5,-817.5 497.5,-817.5 497.5,-798.5 417.5,-798.5"/>
<text text-anchor="middle" x="457.5" y="-805.5" font-family="Helvetica,sans-Serif" font-size="10.00">v8::ArrayBuffer</text>
</a>
</g>
</g>
<!-- Node12&#45;&gt;Node14 -->
<g id="edge13" class="edge">
<title>Node12&#45;&gt;Node14</title>
<path fill="none" stroke="midnightblue" d="M346.56,-492.56C352.47,-495.28 357.94,-498.98 362,-504 442.19,-603.35 316.61,-690.63 398,-789 403.04,-795.09 410.05,-799.24 417.48,-802.08"/>
<polygon fill="midnightblue" stroke="midnightblue" points="347.64,-489.23 337.05,-489.03 345.21,-495.79 347.64,-489.23"/>
</g>
<!-- Node15 -->
<g id="node15" class="node">
<title>Node15</title>
<g id="a_node15"><a xlink:href="classv8_1_1ArrayBufferView.html" target="_top" xlink:title=" ">
<polygon fill="white" stroke="black" points="407,-760.5 407,-779.5 508,-779.5 508,-760.5 407,-760.5"/>
<text text-anchor="middle" x="457.5" y="-767.5" font-family="Helvetica,sans-Serif" font-size="10.00">v8::ArrayBufferView</text>
</a>
</g>
</g>
<!-- Node12&#45;&gt;Node15 -->
<g id="edge14" class="edge">
<title>Node12&#45;&gt;Node15</title>
<path fill="none" stroke="midnightblue" d="M346.66,-492.7C352.51,-495.41 357.94,-499.06 362,-504 432.5,-589.66 326.47,-666.2 398,-751 401.24,-754.84 405.26,-757.9 409.66,-760.36"/>
<polygon fill="midnightblue" stroke="midnightblue" points="347.84,-489.41 337.25,-489.18 345.39,-495.97 347.84,-489.41"/>
</g>
<!-- Node29 -->
<g id="node26" class="node">
<title>Node29</title>
<g id="a_node26"><a xlink:href="classv8_1_1BigIntObject.html" target="_top" xlink:title=" ">
<polygon fill="white" stroke="black" points="414.5,-722.5 414.5,-741.5 500.5,-741.5 500.5,-722.5 414.5,-722.5"/>
<text text-anchor="middle" x="457.5" y="-729.5" font-family="Helvetica,sans-Serif" font-size="10.00">v8::BigIntObject</text>
</a>
</g>
</g>
<!-- Node12&#45;&gt;Node29 -->
<g id="edge25" class="edge">
<title>Node12&#45;&gt;Node29</title>
<path fill="none" stroke="midnightblue" d="M346.55,-492.79C352.41,-495.49 357.87,-499.12 362,-504 422.83,-576 336.3,-641.74 398,-713 402.4,-718.09 408.18,-721.82 414.39,-724.56"/>
<polygon fill="midnightblue" stroke="midnightblue" points="347.73,-489.5 337.14,-489.28 345.28,-496.05 347.73,-489.5"/>
</g>
<!-- Node30 -->
<g id="node27" class="node">
<title>Node30</title>
<g id="a_node27"><a xlink:href="classv8_1_1BooleanObject.html" target="_top" xlink:title=" ">
<polygon fill="white" stroke="black" points="410,-684.5 410,-703.5 505,-703.5 505,-684.5 410,-684.5"/>
<text text-anchor="middle" x="457.5" y="-691.5" font-family="Helvetica,sans-Serif" font-size="10.00">v8::BooleanObject</text>
</a>
</g>
</g>
<!-- Node12&#45;&gt;Node30 -->
<g id="edge26" class="edge">
<title>Node12&#45;&gt;Node30</title>
<path fill="none" stroke="midnightblue" d="M346.99,-493.2C352.65,-495.85 357.93,-499.36 362,-504 413.21,-562.39 346.08,-617.24 398,-675 401.5,-678.89 405.8,-681.99 410.47,-684.46"/>
<polygon fill="midnightblue" stroke="midnightblue" points="347.85,-489.78 337.26,-489.5 345.36,-496.32 347.85,-489.78"/>
</g>
<!-- Node31 -->
<g id="node28" class="node">
<title>Node31</title>
<g id="a_node28"><a xlink:href="classv8_1_1Date.html" target="_top" xlink:title=" ">
<polygon fill="white" stroke="black" points="431.5,-646.5 431.5,-665.5 483.5,-665.5 483.5,-646.5 431.5,-646.5"/>
<text text-anchor="middle" x="457.5" y="-653.5" font-family="Helvetica,sans-Serif" font-size="10.00">v8::Date</text>
</a>
</g>
</g>
<!-- Node12&#45;&gt;Node31 -->
<g id="edge27" class="edge">
<title>Node12&#45;&gt;Node31</title>
<path fill="none" stroke="midnightblue" d="M346.77,-493.4C352.45,-496.03 357.8,-499.47 362,-504 403.67,-548.87 355.79,-592.64 398,-637 406.69,-646.13 419.79,-650.88 431.4,-653.35"/>
<polygon fill="midnightblue" stroke="midnightblue" points="347.62,-489.98 337.03,-489.71 345.14,-496.52 347.62,-489.98"/>
</g>
<!-- Node32 -->
<g id="node29" class="node">
<title>Node32</title>
<g id="a_node29"><a xlink:href="classv8_1_1FinalizationGroup.html" target="_top" xlink:title=" ">
<polygon fill="white" stroke="black" points="404,-608.5 404,-627.5 511,-627.5 511,-608.5 404,-608.5"/>
<text text-anchor="middle" x="457.5" y="-615.5" font-family="Helvetica,sans-Serif" font-size="10.00">v8::FinalizationGroup</text>
</a>
</g>
</g>
<!-- Node12&#45;&gt;Node32 -->
<g id="edge28" class="edge">
<title>Node12&#45;&gt;Node32</title>
<path fill="none" stroke="midnightblue" d="M346.75,-493.92C352.35,-496.48 357.67,-499.77 362,-504 394.31,-535.54 365.31,-567.85 398,-599 402.1,-602.9 407.01,-606.01 412.21,-608.47"/>
<polygon fill="midnightblue" stroke="midnightblue" points="347.78,-490.57 337.19,-490.27 345.28,-497.11 347.78,-490.57"/>
</g>
<!-- Node33 -->
<g id="node30" class="node">
<title>Node33</title>
<g id="a_node30"><a xlink:href="classv8_1_1Function.html" target="_top" xlink:title=" ">
<polygon fill="white" stroke="black" points="423,-570.5 423,-589.5 492,-589.5 492,-570.5 423,-570.5"/>
<text text-anchor="middle" x="457.5" y="-577.5" font-family="Helvetica,sans-Serif" font-size="10.00">v8::Function</text>
</a>
</g>
</g>
<!-- Node12&#45;&gt;Node33 -->
<g id="edge29" class="edge">
<title>Node12&#45;&gt;Node33</title>
<path fill="none" stroke="midnightblue" d="M346.41,-494.87C351.97,-497.31 357.37,-500.31 362,-504 385.43,-522.67 374.34,-542.61 398,-561 405.25,-566.64 414.23,-570.63 422.96,-573.45"/>
<polygon fill="midnightblue" stroke="midnightblue" points="347.6,-491.58 337.01,-491.29 345.11,-498.12 347.6,-491.58"/>
</g>
<!-- Node34 -->
<g id="node31" class="node">
<title>Node34</title>
<g id="a_node31"><a xlink:href="classv8_1_1Map.html" target="_top" xlink:title=" ">
<polygon fill="white" stroke="black" points="432.5,-532.5 432.5,-551.5 482.5,-551.5 482.5,-532.5 432.5,-532.5"/>
<text text-anchor="middle" x="457.5" y="-539.5" font-family="Helvetica,sans-Serif" font-size="10.00">v8::Map</text>
</a>
</g>
</g>
<!-- Node12&#45;&gt;Node34 -->
<g id="edge30" class="edge">
<title>Node12&#45;&gt;Node34</title>
<path fill="none" stroke="midnightblue" d="M346.91,-497.91C352.03,-499.84 357.17,-501.89 362,-504 378.58,-511.24 381.34,-515.96 398,-523 409.02,-527.66 421.59,-531.87 432.25,-535.15"/>
<polygon fill="midnightblue" stroke="midnightblue" points="347.76,-494.5 337.17,-494.38 345.38,-501.08 347.76,-494.5"/>
</g>
<!-- Node35 -->
<g id="node32" class="node">
<title>Node35</title>
<g id="a_node32"><a xlink:href="classv8_1_1NumberObject.html" target="_top" xlink:title=" ">
<polygon fill="white" stroke="black" points="410,-494.5 410,-513.5 505,-513.5 505,-494.5 410,-494.5"/>
<text text-anchor="middle" x="457.5" y="-501.5" font-family="Helvetica,sans-Serif" font-size="10.00">v8::NumberObject</text>
</a>
</g>
</g>
<!-- Node12&#45;&gt;Node35 -->
<g id="edge31" class="edge">
<title>Node12&#45;&gt;Node35</title>
<path fill="none" stroke="midnightblue" d="M347.28,-490.03C366.53,-492.49 389.84,-495.47 409.98,-498.05"/>
<polygon fill="midnightblue" stroke="midnightblue" points="347.7,-486.55 337.34,-488.75 346.81,-493.49 347.7,-486.55"/>
</g>
<!-- Node36 -->
<g id="node33" class="node">
<title>Node36</title>
<g id="a_node33"><a xlink:href="classv8_1_1Promise.html" target="_top" xlink:title=" ">
<polygon fill="white" stroke="black" points="423.5,-456.5 423.5,-475.5 491.5,-475.5 491.5,-456.5 423.5,-456.5"/>
<text text-anchor="middle" x="457.5" y="-463.5" font-family="Helvetica,sans-Serif" font-size="10.00">v8::Promise</text>
</a>
</g>
</g>
<!-- Node12&#45;&gt;Node36 -->
<g id="edge32" class="edge">
<title>Node12&#45;&gt;Node36</title>
<path fill="none" stroke="midnightblue" d="M347.41,-479.96C371.08,-476.93 400.87,-473.12 423.34,-470.24"/>
<polygon fill="midnightblue" stroke="midnightblue" points="346.81,-476.51 337.34,-481.25 347.7,-483.45 346.81,-476.51"/>
</g>
<!-- Node37 -->
<g id="node34" class="node">
<title>Node37</title>
<g id="a_node34"><a xlink:href="classv8_1_1Promise_1_1Resolver.html" target="_top" xlink:title=" ">
<polygon fill="white" stroke="black" points="402.5,-418.5 402.5,-437.5 512.5,-437.5 512.5,-418.5 402.5,-418.5"/>
<text text-anchor="middle" x="457.5" y="-425.5" font-family="Helvetica,sans-Serif" font-size="10.00">v8::Promise::Resolver</text>
</a>
</g>
</g>
<!-- Node12&#45;&gt;Node37 -->
<g id="edge33" class="edge">
<title>Node12&#45;&gt;Node37</title>
<path fill="none" stroke="midnightblue" d="M338.81,-471.22C356.07,-463.7 378.07,-454.43 398,-447 406.81,-443.72 416.47,-440.45 425.36,-437.57"/>
<polygon fill="midnightblue" stroke="midnightblue" points="337,-468.19 329.25,-475.42 339.81,-474.6 337,-468.19"/>
</g>
<!-- Node38 -->
<g id="node35" class="node">
<title>Node38</title>
<g id="a_node35"><a xlink:href="classv8_1_1Proxy.html" target="_top" xlink:title=" ">
<polygon fill="white" stroke="black" points="429.5,-380.5 429.5,-399.5 485.5,-399.5 485.5,-380.5 429.5,-380.5"/>
<text text-anchor="middle" x="457.5" y="-387.5" font-family="Helvetica,sans-Serif" font-size="10.00">v8::Proxy</text>
</a>
</g>
</g>
<!-- Node12&#45;&gt;Node38 -->
<g id="edge34" class="edge">
<title>Node12&#45;&gt;Node38</title>
<path fill="none" stroke="midnightblue" d="M324.19,-467.89C341.15,-450.84 369.28,-424.98 398,-409 407.71,-403.6 419.18,-399.45 429.38,-396.43"/>
<polygon fill="midnightblue" stroke="midnightblue" points="321.28,-465.86 316.81,-475.46 326.29,-470.75 321.28,-465.86"/>
</g>
<!-- Node39 -->
<g id="node36" class="node">
<title>Node39</title>
<g id="a_node36"><a xlink:href="classv8_1_1RegExp.html" target="_top" xlink:title=" ">
<polygon fill="white" stroke="black" points="425,-342.5 425,-361.5 490,-361.5 490,-342.5 425,-342.5"/>
<text text-anchor="middle" x="457.5" y="-349.5" font-family="Helvetica,sans-Serif" font-size="10.00">v8::RegExp</text>
</a>
</g>
</g>
<!-- Node12&#45;&gt;Node39 -->
<g id="edge35" class="edge">
<title>Node12&#45;&gt;Node39</title>
<path fill="none" stroke="midnightblue" d="M317.85,-466.61C332.22,-441.46 361.28,-396.57 398,-371 405.97,-365.45 415.67,-361.44 424.86,-358.58"/>
<polygon fill="midnightblue" stroke="midnightblue" points="314.71,-465.04 312.92,-475.49 320.83,-468.44 314.71,-465.04"/>
</g>
<!-- Node40 -->
<g id="node37" class="node">
<title>Node40</title>
<g id="a_node37"><a xlink:href="classv8_1_1Set.html" target="_top" xlink:title=" ">
<polygon fill="white" stroke="black" points="434,-304.5 434,-323.5 481,-323.5 481,-304.5 434,-304.5"/>
<text text-anchor="middle" x="457.5" y="-311.5" font-family="Helvetica,sans-Serif" font-size="10.00">v8::Set</text>
</a>
</g>
</g>
<!-- Node12&#45;&gt;Node40 -->
<g id="edge36" class="edge">
<title>Node12&#45;&gt;Node40</title>
<path fill="none" stroke="midnightblue" d="M314.36,-465.57C325.88,-433.34 353.26,-368.82 398,-333 408.25,-324.79 422.16,-320.08 433.84,-317.41"/>
<polygon fill="midnightblue" stroke="midnightblue" points="311,-464.58 311.05,-475.18 317.62,-466.86 311,-464.58"/>
</g>
<!-- Node41 -->
<g id="node38" class="node">
<title>Node41</title>
<g id="a_node38"><a xlink:href="classv8_1_1SharedArrayBuffer.html" target="_top" xlink:title=" ">
<polygon fill="white" stroke="black" points="402.5,-266.5 402.5,-285.5 512.5,-285.5 512.5,-266.5 402.5,-266.5"/>
<text text-anchor="middle" x="457.5" y="-273.5" font-family="Helvetica,sans-Serif" font-size="10.00">v8::SharedArrayBuffer</text>
</a>
</g>
</g>
<!-- Node12&#45;&gt;Node41 -->
<g id="edge37" class="edge">
<title>Node12&#45;&gt;Node41</title>
<path fill="none" stroke="midnightblue" d="M311.94,-465.11C320.59,-426.64 344.86,-341.72 398,-295 402.41,-291.12 407.63,-288.03 413.1,-285.57"/>
<polygon fill="midnightblue" stroke="midnightblue" points="308.48,-464.55 309.82,-475.06 315.33,-466.01 308.48,-464.55"/>
</g>
<!-- Node42 -->
<g id="node39" class="node">
<title>Node42</title>
<g id="a_node39"><a xlink:href="classv8_1_1StringObject.html" target="_top" xlink:title=" ">
<polygon fill="white" stroke="black" points="414.5,-228.5 414.5,-247.5 500.5,-247.5 500.5,-228.5 414.5,-228.5"/>
<text text-anchor="middle" x="457.5" y="-235.5" font-family="Helvetica,sans-Serif" font-size="10.00">v8::StringObject</text>
</a>
</g>
</g>
<!-- Node12&#45;&gt;Node42 -->
<g id="edge38" class="edge">
<title>Node12&#45;&gt;Node42</title>
<path fill="none" stroke="midnightblue" d="M310.17,-465.16C316.01,-421.26 336.1,-315.18 398,-257 402.67,-252.61 408.36,-249.24 414.34,-246.64"/>
<polygon fill="midnightblue" stroke="midnightblue" points="306.69,-464.79 308.94,-475.14 313.63,-465.64 306.69,-464.79"/>
</g>
<!-- Node43 -->
<g id="node40" class="node">
<title>Node43</title>
<g id="a_node40"><a xlink:href="classv8_1_1SymbolObject.html" target="_top" xlink:title=" ">
<polygon fill="white" stroke="black" points="411.5,-190.5 411.5,-209.5 503.5,-209.5 503.5,-190.5 411.5,-190.5"/>
<text text-anchor="middle" x="457.5" y="-197.5" font-family="Helvetica,sans-Serif" font-size="10.00">v8::SymbolObject</text>
</a>
</g>
</g>
<!-- Node12&#45;&gt;Node43 -->
<g id="edge39" class="edge">
<title>Node12&#45;&gt;Node43</title>
<path fill="none" stroke="midnightblue" d="M308.87,-465.28C312.09,-416.48 327.2,-288.94 398,-219 401.95,-215.1 406.71,-212 411.79,-209.53"/>
<polygon fill="midnightblue" stroke="midnightblue" points="305.36,-465.25 308.3,-475.43 312.35,-465.64 305.36,-465.25"/>
</g>
<!-- Node44 -->
<g id="node41" class="node">
<title>Node44</title>
<g id="a_node41"><a xlink:href="classv8_1_1WasmModuleObject.html" target="_top" xlink:title=" ">
<polygon fill="white" stroke="black" points="398,-152.5 398,-171.5 517,-171.5 517,-152.5 398,-152.5"/>
<text text-anchor="middle" x="457.5" y="-159.5" font-family="Helvetica,sans-Serif" font-size="10.00">v8::WasmModuleObject</text>
</a>
</g>
</g>
<!-- Node12&#45;&gt;Node44 -->
<g id="edge40" class="edge">
<title>Node12&#45;&gt;Node44</title>
<path fill="none" stroke="midnightblue" d="M307.89,-465.05C308.69,-411.42 318.39,-262.73 398,-181 401.8,-177.1 406.41,-174 411.35,-171.53"/>
<polygon fill="midnightblue" stroke="midnightblue" points="304.39,-465.23 307.83,-475.25 311.39,-465.27 304.39,-465.23"/>
</g>
<!-- Node16 -->
<g id="node16" class="node">
<title>Node16</title>
<g id="a_node16"><a xlink:href="classv8_1_1DataView.html" target="_top" xlink:title=" ">
<polygon fill="white" stroke="black" points="556,-779.5 556,-798.5 630,-798.5 630,-779.5 556,-779.5"/>
<text text-anchor="middle" x="593" y="-786.5" font-family="Helvetica,sans-Serif" font-size="10.00">v8::DataView</text>
</a>
</g>
</g>
<!-- Node15&#45;&gt;Node16 -->
<g id="edge15" class="edge">
<title>Node15&#45;&gt;Node16</title>
<path fill="none" stroke="midnightblue" d="M518.3,-778.51C531.02,-780.32 544.07,-782.18 555.6,-783.82"/>
<polygon fill="midnightblue" stroke="midnightblue" points="518.6,-775.02 508.21,-777.07 517.62,-781.95 518.6,-775.02"/>
</g>
<!-- Node17 -->
<g id="node17" class="node">
<title>Node17</title>
<g id="a_node17"><a xlink:href="classv8_1_1TypedArray.html" target="_top" xlink:title=" ">
<polygon fill="white" stroke="red" points="553,-741.5 553,-760.5 633,-760.5 633,-741.5 553,-741.5"/>
<text text-anchor="middle" x="593" y="-748.5" font-family="Helvetica,sans-Serif" font-size="10.00">v8::TypedArray</text>
</a>
</g>
</g>
<!-- Node15&#45;&gt;Node17 -->
<g id="edge16" class="edge">
<title>Node15&#45;&gt;Node17</title>
<path fill="none" stroke="midnightblue" d="M518.33,-761.48C529.97,-759.83 541.9,-758.13 552.67,-756.6"/>
<polygon fill="midnightblue" stroke="midnightblue" points="517.62,-758.05 508.21,-762.93 518.6,-764.98 517.62,-758.05"/>
</g>
<!-- Node18 -->
<g id="node18" class="node">
<title>Node18</title>
<g id="a_node18"><a xlink:href="classv8_1_1BigInt64Array.html" target="_top" xlink:title=" ">
<polygon fill="white" stroke="black" points="672.5,-874.5 672.5,-893.5 762.5,-893.5 762.5,-874.5 672.5,-874.5"/>
<text text-anchor="middle" x="717.5" y="-881.5" font-family="Helvetica,sans-Serif" font-size="10.00">v8::BigInt64Array</text>
</a>
</g>
</g>
<!-- Node17&#45;&gt;Node18 -->
<g id="edge17" class="edge">
<title>Node17&#45;&gt;Node18</title>
<path fill="none" stroke="midnightblue" d="M629.14,-766.33C630.52,-767.48 631.81,-768.7 633,-770 663.44,-803.35 637.37,-832.78 669,-865 672.73,-868.8 677.33,-871.87 682.17,-874.33"/>
<polygon fill="midnightblue" stroke="midnightblue" points="630.87,-763.27 620.62,-760.57 626.94,-769.07 630.87,-763.27"/>
</g>
<!-- Node19 -->
<g id="node19" class="node">
<title>Node19</title>
<g id="a_node19"><a xlink:href="classv8_1_1BigUint64Array.html" target="_top" xlink:title=" ">
<polygon fill="white" stroke="black" points="669,-836.5 669,-855.5 766,-855.5 766,-836.5 669,-836.5"/>
<text text-anchor="middle" x="717.5" y="-843.5" font-family="Helvetica,sans-Serif" font-size="10.00">v8::BigUint64Array</text>
</a>
</g>
</g>
<!-- Node17&#45;&gt;Node19 -->
<g id="edge18" class="edge">
<title>Node17&#45;&gt;Node19</title>
<path fill="none" stroke="midnightblue" d="M627.57,-765.75C629.49,-767.07 631.31,-768.49 633,-770 655.32,-789.99 645.97,-807.84 669,-827 673.51,-830.75 678.85,-833.83 684.29,-836.33"/>
<polygon fill="midnightblue" stroke="midnightblue" points="629.19,-762.64 618.81,-760.52 625.61,-768.65 629.19,-762.64"/>
</g>
<!-- Node20 -->
<g id="node20" class="node">
<title>Node20</title>
<g id="a_node20"><a xlink:href="classv8_1_1Float32Array.html" target="_top" xlink:title=" ">
<polygon fill="white" stroke="black" points="674.5,-798.5 674.5,-817.5 760.5,-817.5 760.5,-798.5 674.5,-798.5"/>
<text text-anchor="middle" x="717.5" y="-805.5" font-family="Helvetica,sans-Serif" font-size="10.00">v8::Float32Array</text>
</a>
</g>
</g>
<!-- Node17&#45;&gt;Node20 -->
<g id="edge19" class="edge">
<title>Node17&#45;&gt;Node20</title>
<path fill="none" stroke="midnightblue" d="M623.13,-765.07C626.47,-766.71 629.81,-768.38 633,-770 649.13,-778.19 652.58,-781.41 669,-789 676.09,-792.28 683.92,-795.55 691.15,-798.43"/>
<polygon fill="midnightblue" stroke="midnightblue" points="624.42,-761.8 613.9,-760.54 621.34,-768.09 624.42,-761.8"/>
</g>
<!-- Node21 -->
<g id="node21" class="node">
<title>Node21</title>
<g id="a_node21"><a xlink:href="classv8_1_1Float64Array.html" target="_top" xlink:title=" ">
<polygon fill="white" stroke="black" points="674.5,-760.5 674.5,-779.5 760.5,-779.5 760.5,-760.5 674.5,-760.5"/>
<text text-anchor="middle" x="717.5" y="-767.5" font-family="Helvetica,sans-Serif" font-size="10.00">v8::Float64Array</text>
</a>
</g>
</g>
<!-- Node17&#45;&gt;Node21 -->
<g id="edge20" class="edge">
<title>Node17&#45;&gt;Node21</title>
<path fill="none" stroke="midnightblue" d="M643.22,-758.63C653.55,-760.24 664.35,-761.91 674.39,-763.47"/>
<polygon fill="midnightblue" stroke="midnightblue" points="643.51,-755.14 633.1,-757.06 642.44,-762.06 643.51,-755.14"/>
</g>
<!-- Node22 -->
<g id="node22" class="node">
<title>Node22</title>
<g id="a_node22"><a xlink:href="classv8_1_1Int16Array.html" target="_top" xlink:title=" ">
<polygon fill="white" stroke="black" points="679.5,-722.5 679.5,-741.5 755.5,-741.5 755.5,-722.5 679.5,-722.5"/>
<text text-anchor="middle" x="717.5" y="-729.5" font-family="Helvetica,sans-Serif" font-size="10.00">v8::Int16Array</text>
</a>
</g>
</g>
<!-- Node17&#45;&gt;Node22 -->
<g id="edge21" class="edge">
<title>Node17&#45;&gt;Node22</title>
<path fill="none" stroke="midnightblue" d="M643.08,-743.39C655.21,-741.51 668,-739.52 679.44,-737.75"/>
<polygon fill="midnightblue" stroke="midnightblue" points="642.44,-739.94 633.1,-744.94 643.51,-746.86 642.44,-739.94"/>
</g>
<!-- Node23 -->
<g id="node23" class="node">
<title>Node23</title>
<g id="a_node23"><a xlink:href="classv8_1_1Int32Array.html" target="_top" xlink:title=" ">
<polygon fill="white" stroke="black" points="679.5,-684.5 679.5,-703.5 755.5,-703.5 755.5,-684.5 679.5,-684.5"/>
<text text-anchor="middle" x="717.5" y="-691.5" font-family="Helvetica,sans-Serif" font-size="10.00">v8::Int32Array</text>
</a>
</g>
</g>
<!-- Node17&#45;&gt;Node23 -->
<g id="edge22" class="edge">
<title>Node17&#45;&gt;Node23</title>
<path fill="none" stroke="midnightblue" d="M620.84,-736.67C635.02,-729.29 652.79,-720.33 669,-713 676.12,-709.78 683.96,-706.53 691.18,-703.65"/>
<polygon fill="midnightblue" stroke="midnightblue" points="618.89,-733.74 611.67,-741.49 622.15,-739.94 618.89,-733.74"/>
</g>
<!-- Node24 -->
<g id="node24" class="node">
<title>Node24</title>
<g id="a_node24"><a xlink:href="classv8_1_1Int8Array.html" target="_top" xlink:title=" ">
<polygon fill="white" stroke="black" points="682,-646.5 682,-665.5 753,-665.5 753,-646.5 682,-646.5"/>
<text text-anchor="middle" x="717.5" y="-653.5" font-family="Helvetica,sans-Serif" font-size="10.00">v8::Int8Array</text>
</a>
</g>
</g>
<!-- Node17&#45;&gt;Node24 -->
<g id="edge23" class="edge">
<title>Node17&#45;&gt;Node24</title>
<path fill="none" stroke="midnightblue" d="M607.73,-733.36C621.64,-716.48 644.54,-691.24 669,-675 674.47,-671.36 680.75,-668.24 686.91,-665.64"/>
<polygon fill="midnightblue" stroke="midnightblue" points="604.85,-731.35 601.31,-741.34 610.31,-735.74 604.85,-731.35"/>
</g>
<!-- Node25 -->
<g id="node25" class="node">
<title>Node25</title>
<g id="a_node25"><a xlink:href="classv8_1_1Uint16Array.html" target="_top" xlink:title=" ">
<polygon fill="white" stroke="black" points="676,-608.5 676,-627.5 759,-627.5 759,-608.5 676,-608.5"/>
<text text-anchor="middle" x="717.5" y="-615.5" font-family="Helvetica,sans-Serif" font-size="10.00">v8::Uint16Array</text>
</a>
</g>
</g>
<!-- Node17&#45;&gt;Node25 -->
<g id="edge24" class="edge">
<title>Node17&#45;&gt;Node25</title>
<path fill="none" stroke="midnightblue" d="M602.13,-731.86C613.63,-706.86 636.89,-663.22 669,-637 673.68,-633.18 679.22,-630.05 684.84,-627.51"/>
<polygon fill="midnightblue" stroke="midnightblue" points="598.79,-730.76 597.93,-741.32 605.18,-733.6 598.79,-730.76"/>
</g>
<!-- Node46 -->
<g id="node43" class="node">
<title>Node46</title>
<g id="a_node43"><a xlink:href="classv8_1_1BigInt.html" target="_top" xlink:title=" ">
<polygon fill="white" stroke="black" points="429,-114.5 429,-133.5 486,-133.5 486,-114.5 429,-114.5"/>
<text text-anchor="middle" x="457.5" y="-121.5" font-family="Helvetica,sans-Serif" font-size="10.00">v8::BigInt</text>
</a>
</g>
</g>
<!-- Node45&#45;&gt;Node46 -->
<g id="edge42" class="edge">
<title>Node45&#45;&gt;Node46</title>
<path fill="none" stroke="midnightblue" d="M351.97,-97.25C376.77,-103.6 407,-111.33 428.56,-116.85"/>
<polygon fill="midnightblue" stroke="midnightblue" points="352.62,-93.81 342.07,-94.72 350.89,-100.59 352.62,-93.81"/>
</g>
<!-- Node47 -->
<g id="node44" class="node">
<title>Node47</title>
<g id="a_node44"><a xlink:href="classv8_1_1Boolean.html" target="_top" xlink:title=" ">
<polygon fill="white" stroke="black" points="424,-76.5 424,-95.5 491,-95.5 491,-76.5 424,-76.5"/>
<text text-anchor="middle" x="457.5" y="-83.5" font-family="Helvetica,sans-Serif" font-size="10.00">v8::Boolean</text>
</a>
</g>
</g>
<!-- Node45&#45;&gt;Node47 -->
<g id="edge43" class="edge">
<title>Node45&#45;&gt;Node47</title>
<path fill="none" stroke="midnightblue" d="M352.27,-86C375.25,-86 402.84,-86 423.86,-86"/>
<polygon fill="midnightblue" stroke="midnightblue" points="352.07,-82.5 342.07,-86 352.07,-89.5 352.07,-82.5"/>
</g>
<!-- Node48 -->
<g id="node45" class="node">
<title>Node48</title>
<g id="a_node45"><a xlink:href="classv8_1_1Name.html" target="_top" xlink:title=" ">
<polygon fill="white" stroke="black" points="428.5,-38.5 428.5,-57.5 486.5,-57.5 486.5,-38.5 428.5,-38.5"/>
<text text-anchor="middle" x="457.5" y="-45.5" font-family="Helvetica,sans-Serif" font-size="10.00">v8::Name</text>
</a>
</g>
</g>
<!-- Node45&#45;&gt;Node48 -->
<g id="edge44" class="edge">
<title>Node45&#45;&gt;Node48</title>
<path fill="none" stroke="midnightblue" d="M351.9,-74.77C376.53,-68.46 406.53,-60.79 428.08,-55.27"/>
<polygon fill="midnightblue" stroke="midnightblue" points="350.89,-71.41 342.07,-77.28 352.62,-78.19 350.89,-71.41"/>
</g>
<!-- Node51 -->
<g id="node48" class="node">
<title>Node51</title>
<g id="a_node48"><a xlink:href="classv8_1_1Number.html" target="_top" xlink:title=" ">
<polygon fill="white" stroke="black" points="424.5,-0.5 424.5,-19.5 490.5,-19.5 490.5,-0.5 424.5,-0.5"/>
<text text-anchor="middle" x="457.5" y="-7.5" font-family="Helvetica,sans-Serif" font-size="10.00">v8::Number</text>
</a>
</g>
</g>
<!-- Node45&#45;&gt;Node51 -->
<g id="edge47" class="edge">
<title>Node45&#45;&gt;Node51</title>
<path fill="none" stroke="midnightblue" d="M329.25,-70.38C346.96,-57.91 373.2,-40.66 398,-29 406.31,-25.09 415.64,-21.67 424.37,-18.84"/>
<polygon fill="midnightblue" stroke="midnightblue" points="326.92,-67.75 320.82,-76.41 330.99,-73.44 326.92,-67.75"/>
</g>
<!-- Node49 -->
<g id="node46" class="node">
<title>Node49</title>
<g id="a_node46"><a xlink:href="classv8_1_1String.html" target="_top" xlink:title=" ">
<polygon fill="white" stroke="black" points="564.5,-76.5 564.5,-95.5 621.5,-95.5 621.5,-76.5 564.5,-76.5"/>
<text text-anchor="middle" x="593" y="-83.5" font-family="Helvetica,sans-Serif" font-size="10.00">v8::String</text>
</a>
</g>
</g>
<!-- Node48&#45;&gt;Node49 -->
<g id="edge45" class="edge">
<title>Node48&#45;&gt;Node49</title>
<path fill="none" stroke="midnightblue" d="M496.63,-58.85C518.17,-64.98 544.61,-72.51 564.19,-78.08"/>
<polygon fill="midnightblue" stroke="midnightblue" points="497.39,-55.43 486.81,-56.06 495.47,-62.16 497.39,-55.43"/>
</g>
<!-- Node50 -->
<g id="node47" class="node">
<title>Node50</title>
<g id="a_node47"><a xlink:href="classv8_1_1Symbol.html" target="_top" xlink:title=" ">
<polygon fill="white" stroke="black" points="561,-38.5 561,-57.5 625,-57.5 625,-38.5 561,-38.5"/>
<text text-anchor="middle" x="593" y="-45.5" font-family="Helvetica,sans-Serif" font-size="10.00">v8::Symbol</text>
</a>
</g>
</g>
<!-- Node48&#45;&gt;Node50 -->
<g id="edge46" class="edge">
<title>Node48&#45;&gt;Node50</title>
<path fill="none" stroke="midnightblue" d="M496.99,-48C517.28,-48 541.86,-48 560.93,-48"/>
<polygon fill="midnightblue" stroke="midnightblue" points="496.81,-44.5 486.81,-48 496.81,-51.5 496.81,-44.5"/>
</g>
<!-- Node52 -->
<g id="node49" class="node">
<title>Node52</title>
<g id="a_node49"><a xlink:href="classv8_1_1Integer.html" target="_top" xlink:title=" ">
<polygon fill="white" stroke="red" points="562,-0.5 562,-19.5 624,-19.5 624,-0.5 562,-0.5"/>
<text text-anchor="middle" x="593" y="-7.5" font-family="Helvetica,sans-Serif" font-size="10.00">v8::Integer</text>
</a>
</g>
</g>
<!-- Node51&#45;&gt;Node52 -->
<g id="edge48" class="edge">
<title>Node51&#45;&gt;Node52</title>
<path fill="none" stroke="midnightblue" d="M500.83,-10C520.65,-10 543.8,-10 561.81,-10"/>
<polygon fill="midnightblue" stroke="midnightblue" points="500.82,-6.5 490.82,-10 500.82,-13.5 500.82,-6.5"/>
</g>
</g>
</svg>
