<?xml version="1.0" encoding="UTF-8" standalone="no"?>
<!DOCTYPE svg PUBLIC "-//W3C//DTD SVG 1.1//EN"
 "http://www.w3.org/Graphics/SVG/1.1/DTD/svg11.dtd">
<!-- Generated by graphviz version 2.44.0 ()
 -->
<!-- Title: v8::Value Pages: 1 -->
<svg width="681pt" height="978pt"
 viewBox="0.00 0.00 681.00 978.00" xmlns="http://www.w3.org/2000/svg" xmlns:xlink="http://www.w3.org/1999/xlink">
<g id="graph0" class="graph" transform="scale(1 1) rotate(0) translate(4 974)">
<title>v8::Value</title>
<polygon fill="white" stroke="transparent" points="-4,4 -4,-974 677,-974 677,4 -4,4"/>
<!-- Node1 -->
<g id="node1" class="node">
<title>Node1</title>
<g id="a_node1"><a xlink:title=" ">
<polygon fill="#bfbfbf" stroke="black" points="88,-494.5 88,-513.5 144,-513.5 144,-494.5 88,-494.5"/>
<text text-anchor="middle" x="116" y="-501.5" font-family="Helvetica,sans-Serif" font-size="10.00">v8::Value</text>
</a>
</g>
</g>
<!-- Node3 -->
<g id="node3" class="node">
<title>Node3</title>
<g id="a_node3"><a xlink:href="classv8_1_1External.html" target="_top" xlink:title=" ">
<polygon fill="white" stroke="black" points="182,-532.5 182,-551.5 248,-551.5 248,-532.5 182,-532.5"/>
<text text-anchor="middle" x="215" y="-539.5" font-family="Helvetica,sans-Serif" font-size="10.00">v8::External</text>
</a>
</g>
</g>
<!-- Node1&#45;&gt;Node3 -->
<g id="edge2" class="edge">
<title>Node1&#45;&gt;Node3</title>
<path fill="none" stroke="midnightblue" d="M150.86,-517.26C163.59,-522.25 177.81,-527.82 189.53,-532.41"/>
<polygon fill="midnightblue" stroke="midnightblue" points="152.06,-513.98 141.48,-513.59 149.51,-520.5 152.06,-513.98"/>
</g>
<!-- Node4 -->
<g id="node4" class="node">
<title>Node4</title>
<g id="a_node4"><a xlink:href="classv8_1_1Object.html" target="_top" xlink:title=" ">
<polygon fill="white" stroke="black" points="185,-494.5 185,-513.5 245,-513.5 245,-494.5 185,-494.5"/>
<text text-anchor="middle" x="215" y="-501.5" font-family="Helvetica,sans-Serif" font-size="10.00">v8::Object</text>
</a>
</g>
</g>
<!-- Node1&#45;&gt;Node4 -->
<g id="edge3" class="edge">
<title>Node1&#45;&gt;Node4</title>
<path fill="none" stroke="midnightblue" d="M154.23,-504C164.34,-504 175.14,-504 184.75,-504"/>
<polygon fill="midnightblue" stroke="midnightblue" points="154.02,-500.5 144.02,-504 154.02,-507.5 154.02,-500.5"/>
</g>
<!-- Node37 -->
<g id="node37" class="node">
<title>Node37</title>
<g id="a_node37"><a xlink:href="classv8_1_1Primitive.html" target="_top" xlink:title=" ">
<polygon fill="white" stroke="black" points="180,-95.5 180,-114.5 250,-114.5 250,-95.5 180,-95.5"/>
<text text-anchor="middle" x="215" y="-102.5" font-family="Helvetica,sans-Serif" font-size="10.00">v8::Primitive</text>
</a>
</g>
</g>
<!-- Node1&#45;&gt;Node37 -->
<g id="edge36" class="edge">
<title>Node1&#45;&gt;Node37</title>
<path fill="none" stroke="midnightblue" d="M121.83,-484.12C139.35,-412.06 199.16,-166.06 211.69,-114.52"/>
<polygon fill="midnightblue" stroke="midnightblue" points="118.36,-483.59 119.4,-494.14 125.16,-485.25 118.36,-483.59"/>
</g>
<!-- Node2 -->
<g id="node2" class="node">
<title>Node2</title>
<g id="a_node2"><a xlink:href="classv8_1_1Data.html" target="_top" xlink:title=" ">
<polygon fill="white" stroke="black" points="0,-494.5 0,-513.5 52,-513.5 52,-494.5 0,-494.5"/>
<text text-anchor="middle" x="26" y="-501.5" font-family="Helvetica,sans-Serif" font-size="10.00">v8::Data</text>
</a>
</g>
</g>
<!-- Node2&#45;&gt;Node1 -->
<g id="edge1" class="edge">
<title>Node2&#45;&gt;Node1</title>
<path fill="none" stroke="midnightblue" d="M62.72,-504C71.08,-504 79.84,-504 87.76,-504"/>
<polygon fill="midnightblue" stroke="midnightblue" points="62.45,-500.5 52.45,-504 62.45,-507.5 62.45,-500.5"/>
</g>
<!-- Node5 -->
<g id="node5" class="node">
<title>Node5</title>
<g id="a_node5"><a xlink:href="classv8_1_1Array.html" target="_top" xlink:title=" ">
<polygon fill="white" stroke="black" points="318.5,-855.5 318.5,-874.5 372.5,-874.5 372.5,-855.5 318.5,-855.5"/>
<text text-anchor="middle" x="345.5" y="-862.5" font-family="Helvetica,sans-Serif" font-size="10.00">v8::Array</text>
</a>
</g>
</g>
<!-- Node4&#45;&gt;Node5 -->
<g id="edge4" class="edge">
<title>Node4&#45;&gt;Node5</title>
<path fill="none" stroke="midnightblue" d="M247.97,-520.33C248.7,-521.18 249.38,-522.07 250,-523 329.89,-643.34 194.74,-734.04 286,-846 293.89,-855.68 306.79,-860.49 318.47,-862.84"/>
<polygon fill="midnightblue" stroke="midnightblue" points="250.16,-517.6 240.31,-513.72 245.59,-522.9 250.16,-517.6"/>
</g>
<!-- Node6 -->
<g id="node6" class="node">
<title>Node6</title>
<g id="a_node6"><a xlink:href="classv8_1_1ArrayBuffer.html" target="_top" xlink:title=" ">
<polygon fill="white" stroke="black" points="305.5,-817.5 305.5,-836.5 385.5,-836.5 385.5,-817.5 305.5,-817.5"/>
<text text-anchor="middle" x="345.5" y="-824.5" font-family="Helvetica,sans-Serif" font-size="10.00">v8::ArrayBuffer</text>
</a>
</g>
</g>
<!-- Node4&#45;&gt;Node6 -->
<g id="edge5" class="edge">
<title>Node4&#45;&gt;Node6</title>
<path fill="none" stroke="midnightblue" d="M247.6,-519.94C248.47,-520.91 249.28,-521.93 250,-523 321.4,-628.84 204.61,-709.63 286,-808 291.04,-814.09 298.05,-818.24 305.48,-821.08"/>
<polygon fill="midnightblue" stroke="midnightblue" points="249.84,-517.25 239.92,-513.52 245.35,-522.62 249.84,-517.25"/>
</g>
<!-- Node7 -->
<g id="node7" class="node">
<title>Node7</title>
<g id="a_node7"><a xlink:href="classv8_1_1ArrayBufferView.html" target="_top" xlink:title=" ">
<polygon fill="white" stroke="black" points="295,-779.5 295,-798.5 396,-798.5 396,-779.5 295,-779.5"/>
<text text-anchor="middle" x="345.5" y="-786.5" font-family="Helvetica,sans-Serif" font-size="10.00">v8::ArrayBufferView</text>
</a>
</g>
</g>
<!-- Node4&#45;&gt;Node7 -->
<g id="edge6" class="edge">
<title>Node4&#45;&gt;Node7</title>
<path fill="none" stroke="midnightblue" d="M247.58,-519.96C248.45,-520.92 249.27,-521.93 250,-523 312.91,-614.37 214.47,-685.2 286,-770 289.24,-773.84 293.26,-776.9 297.66,-779.36"/>
<polygon fill="midnightblue" stroke="midnightblue" points="249.79,-517.25 239.86,-513.56 245.32,-522.64 249.79,-517.25"/>
</g>
<!-- Node21 -->
<g id="node21" class="node">
<title>Node21</title>
<g id="a_node21"><a xlink:href="classv8_1_1BigIntObject.html" target="_top" xlink:title=" ">
<polygon fill="white" stroke="black" points="302.5,-741.5 302.5,-760.5 388.5,-760.5 388.5,-741.5 302.5,-741.5"/>
<text text-anchor="middle" x="345.5" y="-748.5" font-family="Helvetica,sans-Serif" font-size="10.00">v8::BigIntObject</text>
</a>
</g>
</g>
<!-- Node4&#45;&gt;Node21 -->
<g id="edge20" class="edge">
<title>Node4&#45;&gt;Node21</title>
<path fill="none" stroke="midnightblue" d="M247.54,-519.99C248.43,-520.94 249.25,-521.94 250,-523 304.45,-599.94 224.3,-660.74 286,-732 290.4,-737.09 296.18,-740.82 302.39,-743.56"/>
<polygon fill="midnightblue" stroke="midnightblue" points="249.73,-517.26 239.78,-513.62 245.29,-522.67 249.73,-517.26"/>
</g>
<!-- Node22 -->
<g id="node22" class="node">
<title>Node22</title>
<g id="a_node22"><a xlink:href="classv8_1_1BooleanObject.html" target="_top" xlink:title=" ">
<polygon fill="white" stroke="black" points="298,-703.5 298,-722.5 393,-722.5 393,-703.5 298,-703.5"/>
<text text-anchor="middle" x="345.5" y="-710.5" font-family="Helvetica,sans-Serif" font-size="10.00">v8::BooleanObject</text>
</a>
</g>
</g>
<!-- Node4&#45;&gt;Node22 -->
<g id="edge21" class="edge">
<title>Node4&#45;&gt;Node22</title>
<path fill="none" stroke="midnightblue" d="M247.49,-520.02C248.39,-520.97 249.23,-521.96 250,-523 296.03,-585.56 234.08,-636.24 286,-694 289.5,-697.89 293.8,-700.99 298.47,-703.46"/>
<polygon fill="midnightblue" stroke="midnightblue" points="249.65,-517.26 239.67,-513.7 245.24,-522.71 249.65,-517.26"/>
</g>
<!-- Node23 -->
<g id="node23" class="node">
<title>Node23</title>
<g id="a_node23"><a xlink:href="classv8_1_1Date.html" target="_top" xlink:title=" ">
<polygon fill="white" stroke="black" points="319.5,-665.5 319.5,-684.5 371.5,-684.5 371.5,-665.5 319.5,-665.5"/>
<text text-anchor="middle" x="345.5" y="-672.5" font-family="Helvetica,sans-Serif" font-size="10.00">v8::Date</text>
</a>
</g>
</g>
<!-- Node4&#45;&gt;Node23 -->
<g id="edge22" class="edge">
<title>Node4&#45;&gt;Node23</title>
<path fill="none" stroke="midnightblue" d="M247.33,-520C248.29,-520.95 249.18,-521.95 250,-523 287.68,-571.27 243.79,-611.64 286,-656 294.69,-665.13 307.79,-669.88 319.4,-672.35"/>
<polygon fill="midnightblue" stroke="midnightblue" points="249.19,-517 239.15,-513.61 244.88,-522.52 249.19,-517"/>
</g>
<!-- Node24 -->
<g id="node24" class="node">
<title>Node24</title>
<g id="a_node24"><a xlink:href="classv8_1_1FinalizationGroup.html" target="_top" xlink:title=" ">
<polygon fill="white" stroke="black" points="292,-627.5 292,-646.5 399,-646.5 399,-627.5 292,-627.5"/>
<text text-anchor="middle" x="345.5" y="-634.5" font-family="Helvetica,sans-Serif" font-size="10.00">v8::FinalizationGroup</text>
</a>
</g>
</g>
<!-- Node4&#45;&gt;Node24 -->
<g id="edge23" class="edge">
<title>Node4&#45;&gt;Node24</title>
<path fill="none" stroke="midnightblue" d="M246.78,-519.71C247.92,-520.75 249.01,-521.85 250,-523 279.49,-557.19 253.31,-586.85 286,-618 290.1,-621.9 295.01,-625.01 300.21,-627.47"/>
<polygon fill="midnightblue" stroke="midnightblue" points="248.64,-516.74 238.52,-513.62 244.49,-522.37 248.64,-516.74"/>
</g>
<!-- Node25 -->
<g id="node25" class="node">
<title>Node25</title>
<g id="a_node25"><a xlink:href="classv8_1_1Function.html" target="_top" xlink:title=" ">
<polygon fill="white" stroke="black" points="311,-589.5 311,-608.5 380,-608.5 380,-589.5 311,-589.5"/>
<text text-anchor="middle" x="345.5" y="-596.5" font-family="Helvetica,sans-Serif" font-size="10.00">v8::Function</text>
</a>
</g>
</g>
<!-- Node4&#45;&gt;Node25 -->
<g id="edge24" class="edge">
<title>Node4&#45;&gt;Node25</title>
<path fill="none" stroke="midnightblue" d="M245.39,-519.11C247.01,-520.34 248.56,-521.64 250,-523 271.75,-543.61 262.34,-561.61 286,-580 293.25,-585.64 302.23,-589.63 310.96,-592.45"/>
<polygon fill="midnightblue" stroke="midnightblue" points="247.18,-516.1 236.9,-513.52 243.33,-521.94 247.18,-516.1"/>
</g>
<!-- Node26 -->
<g id="node26" class="node">
<title>Node26</title>
<g id="a_node26"><a xlink:href="classv8_1_1Map.html" target="_top" xlink:title=" ">
<polygon fill="white" stroke="black" points="320.5,-551.5 320.5,-570.5 370.5,-570.5 370.5,-551.5 320.5,-551.5"/>
<text text-anchor="middle" x="345.5" y="-558.5" font-family="Helvetica,sans-Serif" font-size="10.00">v8::Map</text>
</a>
</g>
</g>
<!-- Node4&#45;&gt;Node26 -->
<g id="edge25" class="edge">
<title>Node4&#45;&gt;Node26</title>
<path fill="none" stroke="midnightblue" d="M242.2,-518.52C260.13,-528.41 281.46,-540.05 286,-542 296.99,-546.72 309.56,-550.95 320.23,-554.21"/>
<polygon fill="midnightblue" stroke="midnightblue" points="243.68,-515.34 233.24,-513.57 240.3,-521.47 243.68,-515.34"/>
</g>
<!-- Node27 -->
<g id="node27" class="node">
<title>Node27</title>
<g id="a_node27"><a xlink:href="classv8_1_1NumberObject.html" target="_top" xlink:title=" ">
<polygon fill="white" stroke="black" points="298,-513.5 298,-532.5 393,-532.5 393,-513.5 298,-513.5"/>
<text text-anchor="middle" x="345.5" y="-520.5" font-family="Helvetica,sans-Serif" font-size="10.00">v8::NumberObject</text>
</a>
</g>
</g>
<!-- Node4&#45;&gt;Node27 -->
<g id="edge26" class="edge">
<title>Node4&#45;&gt;Node27</title>
<path fill="none" stroke="midnightblue" d="M255.08,-509.78C268.55,-511.77 283.79,-514.02 297.82,-516.1"/>
<polygon fill="midnightblue" stroke="midnightblue" points="255.56,-506.31 245.16,-508.31 254.54,-513.24 255.56,-506.31"/>
</g>
<!-- Node28 -->
<g id="node28" class="node">
<title>Node28</title>
<g id="a_node28"><a xlink:href="classv8_1_1Promise.html" target="_top" xlink:title=" ">
<polygon fill="white" stroke="black" points="311.5,-475.5 311.5,-494.5 379.5,-494.5 379.5,-475.5 311.5,-475.5"/>
<text text-anchor="middle" x="345.5" y="-482.5" font-family="Helvetica,sans-Serif" font-size="10.00">v8::Promise</text>
</a>
</g>
</g>
<!-- Node4&#45;&gt;Node28 -->
<g id="edge27" class="edge">
<title>Node4&#45;&gt;Node28</title>
<path fill="none" stroke="midnightblue" d="M255.06,-498.22C273.06,-495.56 294.18,-492.44 311.38,-489.9"/>
<polygon fill="midnightblue" stroke="midnightblue" points="254.54,-494.76 245.16,-499.69 255.56,-501.69 254.54,-494.76"/>
</g>
<!-- Node29 -->
<g id="node29" class="node">
<title>Node29</title>
<g id="a_node29"><a xlink:href="classv8_1_1Promise_1_1Resolver.html" target="_top" xlink:title=" ">
<polygon fill="white" stroke="black" points="290.5,-437.5 290.5,-456.5 400.5,-456.5 400.5,-437.5 290.5,-437.5"/>
<text text-anchor="middle" x="345.5" y="-444.5" font-family="Helvetica,sans-Serif" font-size="10.00">v8::Promise::Resolver</text>
</a>
</g>
</g>
<!-- Node4&#45;&gt;Node29 -->
<g id="edge28" class="edge">
<title>Node4&#45;&gt;Node29</title>
<path fill="none" stroke="midnightblue" d="M240.62,-489.2C253.79,-481.65 270.46,-472.67 286,-466 294.14,-462.5 303.16,-459.28 311.62,-456.51"/>
<polygon fill="midnightblue" stroke="midnightblue" points="238.59,-486.33 231.71,-494.39 242.11,-492.38 238.59,-486.33"/>
</g>
<!-- Node30 -->
<g id="node30" class="node">
<title>Node30</title>
<g id="a_node30"><a xlink:href="classv8_1_1Proxy.html" target="_top" xlink:title=" ">
<polygon fill="white" stroke="black" points="317.5,-399.5 317.5,-418.5 373.5,-418.5 373.5,-399.5 317.5,-399.5"/>
<text text-anchor="middle" x="345.5" y="-406.5" font-family="Helvetica,sans-Serif" font-size="10.00">v8::Proxy</text>
</a>
</g>
</g>
<!-- Node4&#45;&gt;Node30 -->
<g id="edge29" class="edge">
<title>Node4&#45;&gt;Node30</title>
<path fill="none" stroke="midnightblue" d="M228.48,-485.77C241.13,-468.59 262.18,-443.28 286,-428 295.44,-421.95 306.98,-417.66 317.3,-414.72"/>
<polygon fill="midnightblue" stroke="midnightblue" points="225.32,-484.19 222.36,-494.36 231.02,-488.25 225.32,-484.19"/>
</g>
<!-- Node31 -->
<g id="node31" class="node">
<title>Node31</title>
<g id="a_node31"><a xlink:href="classv8_1_1RegExp.html" target="_top" xlink:title=" ">
<polygon fill="white" stroke="black" points="313,-361.5 313,-380.5 378,-380.5 378,-361.5 313,-361.5"/>
<text text-anchor="middle" x="345.5" y="-368.5" font-family="Helvetica,sans-Serif" font-size="10.00">v8::RegExp</text>
</a>
</g>
</g>
<!-- Node4&#45;&gt;Node31 -->
<g id="edge30" class="edge">
<title>Node4&#45;&gt;Node31</title>
<path fill="none" stroke="midnightblue" d="M222.85,-484.91C232.87,-459.63 253.91,-415.27 286,-390 293.72,-383.92 303.44,-379.76 312.74,-376.92"/>
<polygon fill="midnightblue" stroke="midnightblue" points="219.5,-483.88 219.23,-494.47 226.04,-486.36 219.5,-483.88"/>
</g>
<!-- Node32 -->
<g id="node32" class="node">
<title>Node32</title>
<g id="a_node32"><a xlink:href="classv8_1_1Set.html" target="_top" xlink:title=" ">
<polygon fill="white" stroke="black" points="322,-323.5 322,-342.5 369,-342.5 369,-323.5 322,-323.5"/>
<text text-anchor="middle" x="345.5" y="-330.5" font-family="Helvetica,sans-Serif" font-size="10.00">v8::Set</text>
</a>
</g>
</g>
<!-- Node4&#45;&gt;Node32 -->
<g id="edge31" class="edge">
<title>Node4&#45;&gt;Node32</title>
<path fill="none" stroke="midnightblue" d="M219.77,-484.21C226.95,-451.92 245.6,-387.91 286,-352 295.9,-343.2 309.93,-338.47 321.77,-335.93"/>
<polygon fill="midnightblue" stroke="midnightblue" points="216.3,-483.7 217.7,-494.21 223.16,-485.13 216.3,-483.7"/>
</g>
<!-- Node33 -->
<g id="node33" class="node">
<title>Node33</title>
<g id="a_node33"><a xlink:href="classv8_1_1SharedArrayBuffer.html" target="_top" xlink:title=" ">
<polygon fill="white" stroke="black" points="290.5,-285.5 290.5,-304.5 400.5,-304.5 400.5,-285.5 290.5,-285.5"/>
<text text-anchor="middle" x="345.5" y="-292.5" font-family="Helvetica,sans-Serif" font-size="10.00">v8::SharedArrayBuffer</text>
</a>
</g>
</g>
<!-- Node4&#45;&gt;Node33 -->
<g id="edge32" class="edge">
<title>Node4&#45;&gt;Node33</title>
<path fill="none" stroke="midnightblue" d="M217.74,-483.71C222.14,-445.17 237.09,-361.04 286,-314 290,-310.15 294.79,-307.08 299.88,-304.63"/>
<polygon fill="midnightblue" stroke="midnightblue" points="214.22,-483.81 216.69,-494.11 221.18,-484.51 214.22,-483.81"/>
</g>
<!-- Node34 -->
<g id="node34" class="node">
<title>Node34</title>
<g id="a_node34"><a xlink:href="classv8_1_1StringObject.html" target="_top" xlink:title=" ">
<polygon fill="white" stroke="black" points="302.5,-247.5 302.5,-266.5 388.5,-266.5 388.5,-247.5 302.5,-247.5"/>
<text text-anchor="middle" x="345.5" y="-254.5" font-family="Helvetica,sans-Serif" font-size="10.00">v8::StringObject</text>
</a>
</g>
</g>
<!-- Node4&#45;&gt;Node34 -->
<g id="edge33" class="edge">
<title>Node4&#45;&gt;Node34</title>
<path fill="none" stroke="midnightblue" d="M216.27,-483.99C217.95,-440.14 228.15,-334.79 286,-276 290.57,-271.36 296.28,-267.85 302.33,-265.2"/>
<polygon fill="midnightblue" stroke="midnightblue" points="212.76,-484.11 215.99,-494.2 219.76,-484.29 212.76,-484.11"/>
</g>
<!-- Node35 -->
<g id="node35" class="node">
<title>Node35</title>
<g id="a_node35"><a xlink:href="classv8_1_1SymbolObject.html" target="_top" xlink:title=" ">
<polygon fill="white" stroke="black" points="299.5,-209.5 299.5,-228.5 391.5,-228.5 391.5,-209.5 299.5,-209.5"/>
<text text-anchor="middle" x="345.5" y="-216.5" font-family="Helvetica,sans-Serif" font-size="10.00">v8::SymbolObject</text>
</a>
</g>
</g>
<!-- Node4&#45;&gt;Node35 -->
<g id="edge34" class="edge">
<title>Node4&#45;&gt;Node35</title>
<path fill="none" stroke="midnightblue" d="M215.21,-484.39C214.36,-435.85 219.05,-308.86 286,-238 289.74,-234.04 294.31,-230.91 299.24,-228.42"/>
<polygon fill="midnightblue" stroke="midnightblue" points="211.72,-484.59 215.49,-494.49 218.71,-484.39 211.72,-484.59"/>
</g>
<!-- Node36 -->
<g id="node36" class="node">
<title>Node36</title>
<g id="a_node36"><a xlink:href="classv8_1_1WasmModuleObject.html" target="_top" xlink:title=" ">
<polygon fill="white" stroke="black" points="286,-171.5 286,-190.5 405,-190.5 405,-171.5 286,-171.5"/>
<text text-anchor="middle" x="345.5" y="-178.5" font-family="Helvetica,sans-Serif" font-size="10.00">v8::WasmModuleObject</text>
</a>
</g>
</g>
<!-- Node4&#45;&gt;Node36 -->
<g id="edge35" class="edge">
<title>Node4&#45;&gt;Node36</title>
<path fill="none" stroke="midnightblue" d="M218.03,-484.17C224.6,-423.57 247.17,-242.4 286,-200 289.53,-196.14 293.86,-193.06 298.54,-190.61"/>
<polygon fill="midnightblue" stroke="midnightblue" points="214.53,-484 216.96,-494.31 221.49,-484.74 214.53,-484"/>
</g>
<!-- Node8 -->
<g id="node8" class="node">
<title>Node8</title>
<g id="a_node8"><a xlink:href="classv8_1_1DataView.html" target="_top" xlink:title=" ">
<polygon fill="white" stroke="black" points="444,-798.5 444,-817.5 518,-817.5 518,-798.5 444,-798.5"/>
<text text-anchor="middle" x="481" y="-805.5" font-family="Helvetica,sans-Serif" font-size="10.00">v8::DataView</text>
</a>
</g>
</g>
<!-- Node7&#45;&gt;Node8 -->
<g id="edge7" class="edge">
<title>Node7&#45;&gt;Node8</title>
<path fill="none" stroke="midnightblue" d="M406.3,-797.51C419.02,-799.32 432.07,-801.18 443.6,-802.82"/>
<polygon fill="midnightblue" stroke="midnightblue" points="406.6,-794.02 396.21,-796.07 405.62,-800.95 406.6,-794.02"/>
</g>
<!-- Node9 -->
<g id="node9" class="node">
<title>Node9</title>
<g id="a_node9"><a xlink:href="classv8_1_1TypedArray.html" target="_top" xlink:title=" ">
<polygon fill="white" stroke="black" points="441,-760.5 441,-779.5 521,-779.5 521,-760.5 441,-760.5"/>
<text text-anchor="middle" x="481" y="-767.5" font-family="Helvetica,sans-Serif" font-size="10.00">v8::TypedArray</text>
</a>
</g>
</g>
<!-- Node7&#45;&gt;Node9 -->
<g id="edge8" class="edge">
<title>Node7&#45;&gt;Node9</title>
<path fill="none" stroke="midnightblue" d="M406.33,-780.48C417.97,-778.83 429.9,-777.13 440.67,-775.6"/>
<polygon fill="midnightblue" stroke="midnightblue" points="405.62,-777.05 396.21,-781.93 406.6,-783.98 405.62,-777.05"/>
</g>
<!-- Node10 -->
<g id="node10" class="node">
<title>Node10</title>
<g id="a_node10"><a xlink:href="classv8_1_1BigInt64Array.html" target="_top" xlink:title=" ">
<polygon fill="white" stroke="black" points="570,-950.5 570,-969.5 660,-969.5 660,-950.5 570,-950.5"/>
<text text-anchor="middle" x="615" y="-957.5" font-family="Helvetica,sans-Serif" font-size="10.00">v8::BigInt64Array</text>
</a>
</g>
</g>
<!-- Node9&#45;&gt;Node10 -->
<g id="edge9" class="edge">
<title>Node9&#45;&gt;Node10</title>
<path fill="none" stroke="midnightblue" d="M517.92,-785.67C519.03,-786.72 520.06,-787.82 521,-789 564.38,-843.2 510.15,-889.77 557,-941 560.59,-944.93 565.01,-948.04 569.79,-950.51"/>
<polygon fill="midnightblue" stroke="midnightblue" points="519.94,-782.81 509.82,-779.68 515.78,-788.44 519.94,-782.81"/>
</g>
<!-- Node11 -->
<g id="node11" class="node">
<title>Node11</title>
<g id="a_node11"><a xlink:href="classv8_1_1BigUint64Array.html" target="_top" xlink:title=" ">
<polygon fill="white" stroke="black" points="566.5,-912.5 566.5,-931.5 663.5,-931.5 663.5,-912.5 566.5,-912.5"/>
<text text-anchor="middle" x="615" y="-919.5" font-family="Helvetica,sans-Serif" font-size="10.00">v8::BigUint64Array</text>
</a>
</g>
</g>
<!-- Node9&#45;&gt;Node11 -->
<g id="edge10" class="edge">
<title>Node9&#45;&gt;Node11</title>
<path fill="none" stroke="midnightblue" d="M517.71,-785.67C518.88,-786.71 519.99,-787.82 521,-789 555.7,-829.24 519.73,-865.13 557,-903 560.8,-906.87 565.42,-909.95 570.35,-912.4"/>
<polygon fill="midnightblue" stroke="midnightblue" points="519.38,-782.56 509.2,-779.64 515.34,-788.28 519.38,-782.56"/>
</g>
<!-- Node12 -->
<g id="node12" class="node">
<title>Node12</title>
<g id="a_node12"><a xlink:href="classv8_1_1Float32Array.html" target="_top" xlink:title=" ">
<polygon fill="white" stroke="black" points="572,-874.5 572,-893.5 658,-893.5 658,-874.5 572,-874.5"/>
<text text-anchor="middle" x="615" y="-881.5" font-family="Helvetica,sans-Serif" font-size="10.00">v8::Float32Array</text>
</a>
</g>
</g>
<!-- Node9&#45;&gt;Node12 -->
<g id="edge11" class="edge">
<title>Node9&#45;&gt;Node12</title>
<path fill="none" stroke="midnightblue" d="M516.49,-785.05C518.09,-786.28 519.61,-787.59 521,-789 547.28,-815.57 529.03,-840.21 557,-865 561.37,-868.87 566.56,-871.96 571.99,-874.42"/>
<polygon fill="midnightblue" stroke="midnightblue" points="518.28,-782.03 507.98,-779.58 514.5,-787.93 518.28,-782.03"/>
</g>
<!-- Node13 -->
<g id="node13" class="node">
<title>Node13</title>
<g id="a_node13"><a xlink:href="classv8_1_1Float64Array.html" target="_top" xlink:title=" ">
<polygon fill="white" stroke="black" points="572,-836.5 572,-855.5 658,-855.5 658,-836.5 572,-836.5"/>
<text text-anchor="middle" x="615" y="-843.5" font-family="Helvetica,sans-Serif" font-size="10.00">v8::Float64Array</text>
</a>
</g>
</g>
<!-- Node9&#45;&gt;Node13 -->
<g id="edge12" class="edge">
<title>Node9&#45;&gt;Node13</title>
<path fill="none" stroke="midnightblue" d="M514.01,-784.4C516.44,-785.85 518.8,-787.39 521,-789 539.76,-802.76 537.38,-814.5 557,-827 562.98,-830.81 569.81,-833.94 576.61,-836.47"/>
<polygon fill="midnightblue" stroke="midnightblue" points="515.52,-781.24 505.07,-779.54 512.18,-787.39 515.52,-781.24"/>
</g>
<!-- Node14 -->
<g id="node14" class="node">
<title>Node14</title>
<g id="a_node14"><a xlink:href="classv8_1_1Int16Array.html" target="_top" xlink:title=" ">
<polygon fill="white" stroke="black" points="577,-798.5 577,-817.5 653,-817.5 653,-798.5 577,-798.5"/>
<text text-anchor="middle" x="615" y="-805.5" font-family="Helvetica,sans-Serif" font-size="10.00">v8::Int16Array</text>
</a>
</g>
</g>
<!-- Node9&#45;&gt;Node14 -->
<g id="edge13" class="edge">
<title>Node9&#45;&gt;Node14</title>
<path fill="none" stroke="midnightblue" d="M525.04,-782.39C543.12,-787.59 563.82,-793.55 580.7,-798.41"/>
<polygon fill="midnightblue" stroke="midnightblue" points="525.89,-778.99 515.31,-779.59 523.95,-785.72 525.89,-778.99"/>
</g>
<!-- Node15 -->
<g id="node15" class="node">
<title>Node15</title>
<g id="a_node15"><a xlink:href="classv8_1_1Int32Array.html" target="_top" xlink:title=" ">
<polygon fill="white" stroke="black" points="577,-760.5 577,-779.5 653,-779.5 653,-760.5 577,-760.5"/>
<text text-anchor="middle" x="615" y="-767.5" font-family="Helvetica,sans-Serif" font-size="10.00">v8::Int32Array</text>
</a>
</g>
</g>
<!-- Node9&#45;&gt;Node15 -->
<g id="edge14" class="edge">
<title>Node9&#45;&gt;Node15</title>
<path fill="none" stroke="midnightblue" d="M531.45,-770C546.52,-770 562.83,-770 576.94,-770"/>
<polygon fill="midnightblue" stroke="midnightblue" points="531.25,-766.5 521.25,-770 531.25,-773.5 531.25,-766.5"/>
</g>
<!-- Node16 -->
<g id="node16" class="node">
<title>Node16</title>
<g id="a_node16"><a xlink:href="classv8_1_1Int8Array.html" target="_top" xlink:title=" ">
<polygon fill="white" stroke="black" points="579.5,-722.5 579.5,-741.5 650.5,-741.5 650.5,-722.5 579.5,-722.5"/>
<text text-anchor="middle" x="615" y="-729.5" font-family="Helvetica,sans-Serif" font-size="10.00">v8::Int8Array</text>
</a>
</g>
</g>
<!-- Node9&#45;&gt;Node16 -->
<g id="edge15" class="edge">
<title>Node9&#45;&gt;Node16</title>
<path fill="none" stroke="midnightblue" d="M525.04,-757.61C543.12,-752.41 563.82,-746.45 580.7,-741.59"/>
<polygon fill="midnightblue" stroke="midnightblue" points="523.95,-754.28 515.31,-760.41 525.89,-761.01 523.95,-754.28"/>
</g>
<!-- Node17 -->
<g id="node17" class="node">
<title>Node17</title>
<g id="a_node17"><a xlink:href="classv8_1_1Uint16Array.html" target="_top" xlink:title=" ">
<polygon fill="white" stroke="black" points="573.5,-684.5 573.5,-703.5 656.5,-703.5 656.5,-684.5 573.5,-684.5"/>
<text text-anchor="middle" x="615" y="-691.5" font-family="Helvetica,sans-Serif" font-size="10.00">v8::Uint16Array</text>
</a>
</g>
</g>
<!-- Node9&#45;&gt;Node17 -->
<g id="edge16" class="edge">
<title>Node9&#45;&gt;Node17</title>
<path fill="none" stroke="midnightblue" d="M500.11,-753.51C514.62,-740.99 535.96,-724.11 557,-713 563.92,-709.35 571.68,-706.2 579.19,-703.58"/>
<polygon fill="midnightblue" stroke="midnightblue" points="497.6,-751.05 492.41,-760.29 502.23,-756.31 497.6,-751.05"/>
</g>
<!-- Node18 -->
<g id="node18" class="node">
<title>Node18</title>
<g id="a_node18"><a xlink:href="classv8_1_1Uint32Array.html" target="_top" xlink:title=" ">
<polygon fill="white" stroke="black" points="573.5,-646.5 573.5,-665.5 656.5,-665.5 656.5,-646.5 573.5,-646.5"/>
<text text-anchor="middle" x="615" y="-653.5" font-family="Helvetica,sans-Serif" font-size="10.00">v8::Uint32Array</text>
</a>
</g>
</g>
<!-- Node9&#45;&gt;Node18 -->
<g id="edge17" class="edge">
<title>Node9&#45;&gt;Node18</title>
<path fill="none" stroke="midnightblue" d="M492.01,-751.65C504.53,-730.31 527.92,-695.42 557,-675 562.46,-671.16 568.76,-668.06 575.13,-665.56"/>
<polygon fill="midnightblue" stroke="midnightblue" points="488.93,-749.98 487.03,-760.4 495.02,-753.43 488.93,-749.98"/>
</g>
<!-- Node19 -->
<g id="node19" class="node">
<title>Node19</title>
<g id="a_node19"><a xlink:href="classv8_1_1Uint8Array.html" target="_top" xlink:title=" ">
<polygon fill="white" stroke="black" points="576.5,-608.5 576.5,-627.5 653.5,-627.5 653.5,-608.5 576.5,-608.5"/>
<text text-anchor="middle" x="615" y="-615.5" font-family="Helvetica,sans-Serif" font-size="10.00">v8::Uint8Array</text>
</a>
</g>
</g>
<!-- Node9&#45;&gt;Node19 -->
<g id="edge18" class="edge">
<title>Node9&#45;&gt;Node19</title>
<path fill="none" stroke="midnightblue" d="M487.88,-750.67C497.63,-721.83 519.82,-667.66 557,-637 562.63,-632.35 569.45,-628.83 576.38,-626.16"/>
<polygon fill="midnightblue" stroke="midnightblue" points="484.49,-749.79 484.75,-760.38 491.15,-751.94 484.49,-749.79"/>
</g>
<!-- Node20 -->
<g id="node20" class="node">
<title>Node20</title>
<g id="a_node20"><a xlink:href="classv8_1_1Uint8ClampedArray.html" target="_top" xlink:title=" ">
<polygon fill="white" stroke="black" points="557,-570.5 557,-589.5 673,-589.5 673,-570.5 557,-570.5"/>
<text text-anchor="middle" x="615" y="-577.5" font-family="Helvetica,sans-Serif" font-size="10.00">v8::Uint8ClampedArray</text>
</a>
</g>
</g>
<!-- Node9&#45;&gt;Node20 -->
<g id="edge19" class="edge">
<title>Node9&#45;&gt;Node20</title>
<path fill="none" stroke="midnightblue" d="M485.27,-750.26C492.15,-714.91 511.4,-640.6 557,-599 561.24,-595.13 566.29,-592.05 571.6,-589.59"/>
<polygon fill="midnightblue" stroke="midnightblue" points="481.79,-749.82 483.45,-760.28 488.68,-751.06 481.79,-749.82"/>
</g>
<!-- Node38 -->
<g id="node38" class="node">
<title>Node38</title>
<g id="a_node38"><a xlink:href="classv8_1_1BigInt.html" target="_top" xlink:title=" ">
<polygon fill="white" stroke="black" points="317,-133.5 317,-152.5 374,-152.5 374,-133.5 317,-133.5"/>
<text text-anchor="middle" x="345.5" y="-140.5" font-family="Helvetica,sans-Serif" font-size="10.00">v8::BigInt</text>
</a>
</g>
</g>
<!-- Node37&#45;&gt;Node38 -->
<g id="edge37" class="edge">
<title>Node37&#45;&gt;Node38</title>
<path fill="none" stroke="midnightblue" d="M258.19,-117.48C277.47,-123.18 299.77,-129.77 316.87,-134.83"/>
<polygon fill="midnightblue" stroke="midnightblue" points="259.01,-114.07 248.43,-114.59 257.02,-120.78 259.01,-114.07"/>
</g>
<!-- Node39 -->
<g id="node39" class="node">
<title>Node39</title>
<g id="a_node39"><a xlink:href="classv8_1_1Boolean.html" target="_top" xlink:title=" ">
<polygon fill="white" stroke="black" points="312,-95.5 312,-114.5 379,-114.5 379,-95.5 312,-95.5"/>
<text text-anchor="middle" x="345.5" y="-102.5" font-family="Helvetica,sans-Serif" font-size="10.00">v8::Boolean</text>
</a>
</g>
</g>
<!-- Node37&#45;&gt;Node39 -->
<g id="edge38" class="edge">
<title>Node37&#45;&gt;Node39</title>
<path fill="none" stroke="midnightblue" d="M260.27,-105C277.1,-105 295.97,-105 311.57,-105"/>
<polygon fill="midnightblue" stroke="midnightblue" points="260.1,-101.5 250.1,-105 260.1,-108.5 260.1,-101.5"/>
</g>
<!-- Node40 -->
<g id="node40" class="node">
<title>Node40</title>
<g id="a_node40"><a xlink:href="classv8_1_1Name.html" target="_top" xlink:title=" ">
<polygon fill="white" stroke="black" points="316.5,-57.5 316.5,-76.5 374.5,-76.5 374.5,-57.5 316.5,-57.5"/>
<text text-anchor="middle" x="345.5" y="-64.5" font-family="Helvetica,sans-Serif" font-size="10.00">v8::Name</text>
</a>
</g>
</g>
<!-- Node37&#45;&gt;Node40 -->
<g id="edge39" class="edge">
<title>Node37&#45;&gt;Node40</title>
<path fill="none" stroke="midnightblue" d="M258.12,-92.54C277.26,-86.88 299.38,-80.34 316.45,-75.3"/>
<polygon fill="midnightblue" stroke="midnightblue" points="257.02,-89.22 248.43,-95.41 259.01,-95.93 257.02,-89.22"/>
</g>
<!-- Node43 -->
<g id="node43" class="node">
<title>Node43</title>
<g id="a_node43"><a xlink:href="classv8_1_1Number.html" target="_top" xlink:title=" ">
<polygon fill="white" stroke="black" points="312.5,-19.5 312.5,-38.5 378.5,-38.5 378.5,-19.5 312.5,-19.5"/>
<text text-anchor="middle" x="345.5" y="-26.5" font-family="Helvetica,sans-Serif" font-size="10.00">v8::Number</text>
</a>
</g>
</g>
<!-- Node37&#45;&gt;Node43 -->
<g id="edge42" class="edge">
<title>Node37&#45;&gt;Node43</title>
<path fill="none" stroke="midnightblue" d="M233.06,-88.04C246.48,-75.5 266.17,-58.8 286,-48 294.16,-43.56 303.53,-39.94 312.34,-37.1"/>
<polygon fill="midnightblue" stroke="midnightblue" points="230.37,-85.77 225.57,-95.22 235.22,-90.83 230.37,-85.77"/>
</g>
<!-- Node41 -->
<g id="node41" class="node">
<title>Node41</title>
<g id="a_node41"><a xlink:href="classv8_1_1String.html" target="_top" xlink:title=" ">
<polygon fill="white" stroke="black" points="452.5,-95.5 452.5,-114.5 509.5,-114.5 509.5,-95.5 452.5,-95.5"/>
<text text-anchor="middle" x="481" y="-102.5" font-family="Helvetica,sans-Serif" font-size="10.00">v8::String</text>
</a>
</g>
</g>
<!-- Node40&#45;&gt;Node41 -->
<g id="edge40" class="edge">
<title>Node40&#45;&gt;Node41</title>
<path fill="none" stroke="midnightblue" d="M384.63,-77.85C406.17,-83.98 432.61,-91.51 452.19,-97.08"/>
<polygon fill="midnightblue" stroke="midnightblue" points="385.39,-74.43 374.81,-75.06 383.47,-81.16 385.39,-74.43"/>
</g>
<!-- Node42 -->
<g id="node42" class="node">
<title>Node42</title>
<g id="a_node42"><a xlink:href="classv8_1_1Symbol.html" target="_top" xlink:title=" ">
<polygon fill="white" stroke="black" points="449,-57.5 449,-76.5 513,-76.5 513,-57.5 449,-57.5"/>
<text text-anchor="middle" x="481" y="-64.5" font-family="Helvetica,sans-Serif" font-size="10.00">v8::Symbol</text>
</a>
</g>
</g>
<!-- Node40&#45;&gt;Node42 -->
<g id="edge41" class="edge">
<title>Node40&#45;&gt;Node42</title>
<path fill="none" stroke="midnightblue" d="M384.99,-67C405.28,-67 429.86,-67 448.93,-67"/>
<polygon fill="midnightblue" stroke="midnightblue" points="384.81,-63.5 374.81,-67 384.81,-70.5 384.81,-63.5"/>
</g>
<!-- Node44 -->
<g id="node44" class="node">
<title>Node44</title>
<g id="a_node44"><a xlink:href="classv8_1_1Integer.html" target="_top" xlink:title=" ">
<polygon fill="white" stroke="black" points="450,-19.5 450,-38.5 512,-38.5 512,-19.5 450,-19.5"/>
<text text-anchor="middle" x="481" y="-26.5" font-family="Helvetica,sans-Serif" font-size="10.00">v8::Integer</text>
</a>
</g>
</g>
<!-- Node43&#45;&gt;Node44 -->
<g id="edge43" class="edge">
<title>Node43&#45;&gt;Node44</title>
<path fill="none" stroke="midnightblue" d="M388.83,-29C408.65,-29 431.8,-29 449.81,-29"/>
<polygon fill="midnightblue" stroke="midnightblue" points="388.82,-25.5 378.82,-29 388.82,-32.5 388.82,-25.5"/>
</g>
<!-- Node45 -->
<g id="node45" class="node">
<title>Node45</title>
<g id="a_node45"><a xlink:href="classv8_1_1Int32.html" target="_top" xlink:title=" ">
<polygon fill="white" stroke="black" points="588.5,-38.5 588.5,-57.5 641.5,-57.5 641.5,-38.5 588.5,-38.5"/>
<text text-anchor="middle" x="615" y="-45.5" font-family="Helvetica,sans-Serif" font-size="10.00">v8::Int32</text>
</a>
</g>
</g>
<!-- Node44&#45;&gt;Node45 -->
<g id="edge44" class="edge">
<title>Node44&#45;&gt;Node45</title>
<path fill="none" stroke="midnightblue" d="M522.42,-34.82C543.87,-37.91 569.59,-41.61 588.3,-44.3"/>
<polygon fill="midnightblue" stroke="midnightblue" points="522.68,-31.32 512.28,-33.36 521.68,-38.25 522.68,-31.32"/>
</g>
<!-- Node46 -->
<g id="node46" class="node">
<title>Node46</title>
<g id="a_node46"><a xlink:href="classv8_1_1Uint32.html" target="_top" xlink:title=" ">
<polygon fill="white" stroke="black" points="585,-0.5 585,-19.5 645,-19.5 645,-0.5 585,-0.5"/>
<text text-anchor="middle" x="615" y="-7.5" font-family="Helvetica,sans-Serif" font-size="10.00">v8::Uint32</text>
</a>
</g>
</g>
<!-- Node44&#45;&gt;Node46 -->
<g id="edge45" class="edge">
<title>Node44&#45;&gt;Node46</title>
<path fill="none" stroke="midnightblue" d="M522.42,-23.18C542.55,-20.28 566.43,-16.85 584.77,-14.21"/>
<polygon fill="midnightblue" stroke="midnightblue" points="521.68,-19.75 512.28,-24.64 522.68,-26.68 521.68,-19.75"/>
</g>
</g>
</svg>
