<?xml version="1.0" encoding="UTF-8" standalone="no"?>
<!DOCTYPE svg PUBLIC "-//W3C//DTD SVG 1.1//EN"
 "http://www.w3.org/Graphics/SVG/1.1/DTD/svg11.dtd">
<!-- Generated by graphviz version 2.44.0 ()
 -->
<!-- Title: v8::StdMapTraits&lt; K, V &gt; Pages: 1 -->
<svg width="292pt" height="95pt"
 viewBox="0.00 0.00 291.50 95.00" xmlns="http://www.w3.org/2000/svg" xmlns:xlink="http://www.w3.org/1999/xlink">
<g id="graph0" class="graph" transform="scale(1 1) rotate(0) translate(4 91)">
<title>v8::StdMapTraits&lt; K, V &gt;</title>
<polygon fill="white" stroke="transparent" points="-4,4 -4,-91 287.5,-91 287.5,4 -4,4"/>
<!-- Node1 -->
<g id="node1" class="node">
<title>Node1</title>
<g id="a_node1"><a xlink:title=" ">
<polygon fill="#bfbfbf" stroke="black" points="79.5,-67.5 79.5,-86.5 204.5,-86.5 204.5,-67.5 79.5,-67.5"/>
<text text-anchor="middle" x="142" y="-74.5" font-family="Helvetica,sans-Serif" font-size="10.00">v8::StdMapTraits&lt; K, V &gt;</text>
</a>
</g>
</g>
<!-- Node2 -->
<g id="node2" class="node">
<title>Node2</title>
<g id="a_node2"><a xlink:href="classv8_1_1DefaultGlobalMapTraits.html" target="_top" xlink:title=" ">
<polygon fill="white" stroke="black" points="0,-0.5 0,-30.5 134,-30.5 134,-0.5 0,-0.5"/>
<text text-anchor="start" x="8" y="-18.5" font-family="Helvetica,sans-Serif" font-size="10.00">v8::DefaultGlobalMapTraits</text>
<text text-anchor="middle" x="67" y="-7.5" font-family="Helvetica,sans-Serif" font-size="10.00">&lt; K, V &gt;</text>
</a>
</g>
</g>
<!-- Node1&#45;&gt;Node2 -->
<g id="edge1" class="edge">
<title>Node1&#45;&gt;Node2</title>
<path fill="none" stroke="midnightblue" d="M123.34,-61.2C111.51,-51.81 96.31,-39.75 84.68,-30.52"/>
<polygon fill="midnightblue" stroke="midnightblue" points="121.24,-64 131.25,-67.48 125.6,-58.52 121.24,-64"/>
</g>
<!-- Node3 -->
<g id="node3" class="node">
<title>Node3</title>
<g id="a_node3"><a xlink:href="classv8_1_1DefaultPersistentValueMapTraits.html" target="_top" xlink:title=" ">
<polygon fill="white" stroke="black" points="152.5,-0.5 152.5,-30.5 283.5,-30.5 283.5,-0.5 152.5,-0.5"/>
<text text-anchor="start" x="160.5" y="-18.5" font-family="Helvetica,sans-Serif" font-size="10.00">v8::DefaultPersistentValue</text>
<text text-anchor="middle" x="218" y="-7.5" font-family="Helvetica,sans-Serif" font-size="10.00">MapTraits&lt; K, V &gt;</text>
</a>
</g>
</g>
<!-- Node1&#45;&gt;Node3 -->
<g id="edge2" class="edge">
<title>Node1&#45;&gt;Node3</title>
<path fill="none" stroke="midnightblue" d="M160.91,-61.2C172.89,-51.81 188.3,-39.75 200.09,-30.52"/>
<polygon fill="midnightblue" stroke="midnightblue" points="158.61,-58.55 152.89,-67.48 162.92,-64.07 158.61,-58.55"/>
</g>
</g>
</svg>
