<?xml version="1.0" encoding="UTF-8" standalone="no"?>
<!DOCTYPE svg PUBLIC "-//W3C//DTD SVG 1.1//EN"
 "http://www.w3.org/Graphics/SVG/1.1/DTD/svg11.dtd">
<!-- Generated by graphviz version 2.44.0 ()
 -->
<!-- Title: Graphical Class Hierarchy Pages: 1 -->
<svg width="793pt" height="978pt"
 viewBox="0.00 0.00 793.00 978.00" xmlns="http://www.w3.org/2000/svg" xmlns:xlink="http://www.w3.org/1999/xlink">
<g id="graph0" class="graph" transform="scale(1 1) rotate(0) translate(4 974)">
<title>Graphical Class Hierarchy</title>
<polygon fill="white" stroke="transparent" points="-4,4 -4,-974 789,-974 789,4 -4,4"/>
<!-- Node0 -->
<g id="node1" class="node">
<title>Node0</title>
<g id="a_node1"><a xlink:href="classv8_1_1Data.html" target="_top" xlink:title=" ">
<polygon fill="white" stroke="black" points="0,-608.5 0,-627.5 52,-627.5 52,-608.5 0,-608.5"/>
<text text-anchor="middle" x="26" y="-615.5" font-family="Helvetica,sans-Serif" font-size="10.00">v8::Data</text>
</a>
</g>
</g>
<!-- Node1 -->
<g id="node2" class="node">
<title>Node1</title>
<g id="a_node2"><a xlink:href="classv8_1_1AccessorSignature.html" target="_top" xlink:title=" ">
<polygon fill="white" stroke="black" points="95,-722.5 95,-741.5 209,-741.5 209,-722.5 95,-722.5"/>
<text text-anchor="middle" x="152" y="-729.5" font-family="Helvetica,sans-Serif" font-size="10.00">v8::AccessorSignature</text>
</a>
</g>
</g>
<!-- Node0&#45;&gt;Node1 -->
<g id="edge1" class="edge">
<title>Node0&#45;&gt;Node1</title>
<path fill="none" stroke="midnightblue" d="M34.42,-637.09C43.75,-658.62 61.78,-693.21 88,-713 93.11,-716.85 98.99,-719.93 105.08,-722.39"/>
<polygon fill="midnightblue" stroke="midnightblue" points="37.59,-635.6 30.54,-627.69 31.12,-638.27 37.59,-635.6"/>
</g>
<!-- Node2 -->
<g id="node3" class="node">
<title>Node2</title>
<g id="a_node3"><a xlink:href="classv8_1_1Module.html" target="_top" xlink:title=" ">
<polygon fill="white" stroke="black" points="120.5,-684.5 120.5,-703.5 183.5,-703.5 183.5,-684.5 120.5,-684.5"/>
<text text-anchor="middle" x="152" y="-691.5" font-family="Helvetica,sans-Serif" font-size="10.00">v8::Module</text>
</a>
</g>
</g>
<!-- Node0&#45;&gt;Node2 -->
<g id="edge2" class="edge">
<title>Node0&#45;&gt;Node2</title>
<path fill="none" stroke="midnightblue" d="M41.73,-635.54C53.17,-648.15 70.07,-664.68 88,-675 97.9,-680.7 109.68,-684.84 120.36,-687.78"/>
<polygon fill="midnightblue" stroke="midnightblue" points="44.27,-633.13 35.04,-627.93 39.01,-637.75 44.27,-633.13"/>
</g>
<!-- Node3 -->
<g id="node4" class="node">
<title>Node3</title>
<g id="a_node4"><a xlink:href="classv8_1_1Private.html" target="_top" xlink:title=" ">
<polygon fill="white" stroke="black" points="121,-646.5 121,-665.5 183,-665.5 183,-646.5 121,-646.5"/>
<text text-anchor="middle" x="152" y="-653.5" font-family="Helvetica,sans-Serif" font-size="10.00">v8::Private</text>
</a>
</g>
</g>
<!-- Node0&#45;&gt;Node3 -->
<g id="edge3" class="edge">
<title>Node0&#45;&gt;Node3</title>
<path fill="none" stroke="midnightblue" d="M61.89,-628.93C70.43,-631.58 79.54,-634.41 88,-637 98.7,-640.28 110.45,-643.83 120.86,-646.97"/>
<polygon fill="midnightblue" stroke="midnightblue" points="62.8,-625.54 52.21,-625.91 60.72,-632.23 62.8,-625.54"/>
</g>
<!-- Node4 -->
<g id="node5" class="node">
<title>Node4</title>
<g id="a_node5"><a xlink:href="classv8_1_1Signature.html" target="_top" xlink:title=" ">
<polygon fill="white" stroke="black" points="115.5,-608.5 115.5,-627.5 188.5,-627.5 188.5,-608.5 115.5,-608.5"/>
<text text-anchor="middle" x="152" y="-615.5" font-family="Helvetica,sans-Serif" font-size="10.00">v8::Signature</text>
</a>
</g>
</g>
<!-- Node0&#45;&gt;Node4 -->
<g id="edge4" class="edge">
<title>Node0&#45;&gt;Node4</title>
<path fill="none" stroke="midnightblue" d="M62.43,-618C78.95,-618 98.57,-618 115.13,-618"/>
<polygon fill="midnightblue" stroke="midnightblue" points="62.09,-614.5 52.09,-618 62.09,-621.5 62.09,-614.5"/>
</g>
<!-- Node5 -->
<g id="node6" class="node">
<title>Node5</title>
<g id="a_node6"><a xlink:href="classv8_1_1Template.html" target="_top" xlink:title=" ">
<polygon fill="white" stroke="black" points="116,-570.5 116,-589.5 188,-589.5 188,-570.5 116,-570.5"/>
<text text-anchor="middle" x="152" y="-577.5" font-family="Helvetica,sans-Serif" font-size="10.00">v8::Template</text>
</a>
</g>
</g>
<!-- Node0&#45;&gt;Node5 -->
<g id="edge5" class="edge">
<title>Node0&#45;&gt;Node5</title>
<path fill="none" stroke="midnightblue" d="M61.89,-607.07C70.43,-604.42 79.54,-601.59 88,-599 98.16,-595.89 109.25,-592.53 119.26,-589.51"/>
<polygon fill="midnightblue" stroke="midnightblue" points="60.72,-603.77 52.21,-610.09 62.8,-610.46 60.72,-603.77"/>
</g>
<!-- Node8 -->
<g id="node9" class="node">
<title>Node8</title>
<g id="a_node9"><a xlink:href="classv8_1_1UnboundModuleScript.html" target="_top" xlink:title=" ">
<polygon fill="white" stroke="black" points="88,-532.5 88,-551.5 216,-551.5 216,-532.5 88,-532.5"/>
<text text-anchor="middle" x="152" y="-539.5" font-family="Helvetica,sans-Serif" font-size="10.00">v8::UnboundModuleScript</text>
</a>
</g>
</g>
<!-- Node0&#45;&gt;Node8 -->
<g id="edge8" class="edge">
<title>Node0&#45;&gt;Node8</title>
<path fill="none" stroke="midnightblue" d="M41.73,-600.46C53.17,-587.85 70.07,-571.32 88,-561 94.63,-557.18 102.11,-554.06 109.53,-551.53"/>
<polygon fill="midnightblue" stroke="midnightblue" points="39.01,-598.25 35.04,-608.07 44.27,-602.87 39.01,-598.25"/>
</g>
<!-- Node9 -->
<g id="node10" class="node">
<title>Node9</title>
<g id="a_node10"><a xlink:href="classv8_1_1Value.html" target="_top" xlink:title=" ">
<polygon fill="white" stroke="black" points="124,-494.5 124,-513.5 180,-513.5 180,-494.5 124,-494.5"/>
<text text-anchor="middle" x="152" y="-501.5" font-family="Helvetica,sans-Serif" font-size="10.00">v8::Value</text>
</a>
</g>
</g>
<!-- Node0&#45;&gt;Node9 -->
<g id="edge9" class="edge">
<title>Node0&#45;&gt;Node9</title>
<path fill="none" stroke="midnightblue" d="M34.42,-598.91C43.75,-577.38 61.78,-542.79 88,-523 98.4,-515.16 112.03,-510.53 123.95,-507.81"/>
<polygon fill="midnightblue" stroke="midnightblue" points="31.12,-597.73 30.54,-608.31 37.59,-600.4 31.12,-597.73"/>
</g>
<!-- Node6 -->
<g id="node7" class="node">
<title>Node6</title>
<g id="a_node7"><a xlink:href="classv8_1_1FunctionTemplate.html" target="_top" xlink:title=" ">
<polygon fill="white" stroke="black" points="252,-608.5 252,-627.5 362,-627.5 362,-608.5 252,-608.5"/>
<text text-anchor="middle" x="307" y="-615.5" font-family="Helvetica,sans-Serif" font-size="10.00">v8::FunctionTemplate</text>
</a>
</g>
</g>
<!-- Node5&#45;&gt;Node6 -->
<g id="edge6" class="edge">
<title>Node5&#45;&gt;Node6</title>
<path fill="none" stroke="midnightblue" d="M197.93,-591.16C220.04,-596.65 246.41,-603.2 267.57,-608.46"/>
<polygon fill="midnightblue" stroke="midnightblue" points="198.65,-587.73 188.1,-588.72 196.96,-594.53 198.65,-587.73"/>
</g>
<!-- Node7 -->
<g id="node8" class="node">
<title>Node7</title>
<g id="a_node8"><a xlink:href="classv8_1_1ObjectTemplate.html" target="_top" xlink:title=" ">
<polygon fill="white" stroke="black" points="256.5,-570.5 256.5,-589.5 357.5,-589.5 357.5,-570.5 256.5,-570.5"/>
<text text-anchor="middle" x="307" y="-577.5" font-family="Helvetica,sans-Serif" font-size="10.00">v8::ObjectTemplate</text>
</a>
</g>
</g>
<!-- Node5&#45;&gt;Node7 -->
<g id="edge7" class="edge">
<title>Node5&#45;&gt;Node7</title>
<path fill="none" stroke="midnightblue" d="M198.2,-580C216.45,-580 237.59,-580 256.28,-580"/>
<polygon fill="midnightblue" stroke="midnightblue" points="198.1,-576.5 188.1,-580 198.1,-583.5 198.1,-576.5"/>
</g>
<!-- Node10 -->
<g id="node11" class="node">
<title>Node10</title>
<g id="a_node11"><a xlink:href="classv8_1_1External.html" target="_top" xlink:title=" ">
<polygon fill="white" stroke="black" points="274,-532.5 274,-551.5 340,-551.5 340,-532.5 274,-532.5"/>
<text text-anchor="middle" x="307" y="-539.5" font-family="Helvetica,sans-Serif" font-size="10.00">v8::External</text>
</a>
</g>
</g>
<!-- Node9&#45;&gt;Node10 -->
<g id="edge10" class="edge">
<title>Node9&#45;&gt;Node10</title>
<path fill="none" stroke="midnightblue" d="M189.75,-513.13C215.43,-519.51 249.39,-527.94 273.97,-534.05"/>
<polygon fill="midnightblue" stroke="midnightblue" points="190.55,-509.72 180,-510.71 188.86,-516.51 190.55,-509.72"/>
</g>
<!-- Node11 -->
<g id="node12" class="node">
<title>Node11</title>
<g id="a_node12"><a xlink:href="classv8_1_1Object.html" target="_top" xlink:title=" ">
<polygon fill="white" stroke="black" points="277,-494.5 277,-513.5 337,-513.5 337,-494.5 277,-494.5"/>
<text text-anchor="middle" x="307" y="-501.5" font-family="Helvetica,sans-Serif" font-size="10.00">v8::Object</text>
</a>
</g>
</g>
<!-- Node9&#45;&gt;Node11 -->
<g id="edge11" class="edge">
<title>Node9&#45;&gt;Node11</title>
<path fill="none" stroke="midnightblue" d="M190.12,-504C216.81,-504 252.29,-504 276.93,-504"/>
<polygon fill="midnightblue" stroke="midnightblue" points="190,-500.5 180,-504 190,-507.5 190,-500.5"/>
</g>
<!-- Node44 -->
<g id="node45" class="node">
<title>Node44</title>
<g id="a_node45"><a xlink:href="classv8_1_1Primitive.html" target="_top" xlink:title=" ">
<polygon fill="white" stroke="black" points="272,-95.5 272,-114.5 342,-114.5 342,-95.5 272,-95.5"/>
<text text-anchor="middle" x="307" y="-102.5" font-family="Helvetica,sans-Serif" font-size="10.00">v8::Primitive</text>
</a>
</g>
</g>
<!-- Node9&#45;&gt;Node44 -->
<g id="edge44" class="edge">
<title>Node9&#45;&gt;Node44</title>
<path fill="none" stroke="midnightblue" d="M160.45,-484.56C187.87,-413.07 282.55,-166.17 302.35,-114.52"/>
<polygon fill="midnightblue" stroke="midnightblue" points="157.09,-483.55 156.78,-494.14 163.63,-486.05 157.09,-483.55"/>
</g>
<!-- Node12 -->
<g id="node13" class="node">
<title>Node12</title>
<g id="a_node13"><a xlink:href="classv8_1_1Array.html" target="_top" xlink:title=" ">
<polygon fill="white" stroke="black" points="430.5,-855.5 430.5,-874.5 484.5,-874.5 484.5,-855.5 430.5,-855.5"/>
<text text-anchor="middle" x="457.5" y="-862.5" font-family="Helvetica,sans-Serif" font-size="10.00">v8::Array</text>
</a>
</g>
</g>
<!-- Node11&#45;&gt;Node12 -->
<g id="edge12" class="edge">
<title>Node11&#45;&gt;Node12</title>
<path fill="none" stroke="midnightblue" d="M346.62,-511.51C352.52,-514.23 357.98,-517.95 362,-523 451.89,-636.06 306.74,-734.04 398,-846 405.89,-855.68 418.79,-860.49 430.47,-862.84"/>
<polygon fill="midnightblue" stroke="midnightblue" points="347.7,-508.18 337.11,-507.98 345.27,-514.74 347.7,-508.18"/>
</g>
<!-- Node13 -->
<g id="node14" class="node">
<title>Node13</title>
<g id="a_node14"><a xlink:href="classv8_1_1ArrayBuffer.html" target="_top" xlink:title=" ">
<polygon fill="white" stroke="black" points="417.5,-817.5 417.5,-836.5 497.5,-836.5 497.5,-817.5 417.5,-817.5"/>
<text text-anchor="middle" x="457.5" y="-824.5" font-family="Helvetica,sans-Serif" font-size="10.00">v8::ArrayBuffer</text>
</a>
</g>
</g>
<!-- Node11&#45;&gt;Node13 -->
<g id="edge13" class="edge">
<title>Node11&#45;&gt;Node13</title>
<path fill="none" stroke="midnightblue" d="M346.56,-511.56C352.47,-514.28 357.94,-517.98 362,-523 442.19,-622.35 316.61,-709.63 398,-808 403.04,-814.09 410.05,-818.24 417.48,-821.08"/>
<polygon fill="midnightblue" stroke="midnightblue" points="347.64,-508.23 337.05,-508.03 345.21,-514.79 347.64,-508.23"/>
</g>
<!-- Node14 -->
<g id="node15" class="node">
<title>Node14</title>
<g id="a_node15"><a xlink:href="classv8_1_1ArrayBufferView.html" target="_top" xlink:title=" ">
<polygon fill="white" stroke="black" points="407,-779.5 407,-798.5 508,-798.5 508,-779.5 407,-779.5"/>
<text text-anchor="middle" x="457.5" y="-786.5" font-family="Helvetica,sans-Serif" font-size="10.00">v8::ArrayBufferView</text>
</a>
</g>
</g>
<!-- Node11&#45;&gt;Node14 -->
<g id="edge14" class="edge">
<title>Node11&#45;&gt;Node14</title>
<path fill="none" stroke="midnightblue" d="M346.66,-511.7C352.51,-514.41 357.94,-518.06 362,-523 432.5,-608.66 326.47,-685.2 398,-770 401.24,-773.84 405.26,-776.9 409.66,-779.36"/>
<polygon fill="midnightblue" stroke="midnightblue" points="347.84,-508.41 337.25,-508.18 345.39,-514.97 347.84,-508.41"/>
</g>
<!-- Node28 -->
<g id="node29" class="node">
<title>Node28</title>
<g id="a_node29"><a xlink:href="classv8_1_1BigIntObject.html" target="_top" xlink:title=" ">
<polygon fill="white" stroke="black" points="414.5,-741.5 414.5,-760.5 500.5,-760.5 500.5,-741.5 414.5,-741.5"/>
<text text-anchor="middle" x="457.5" y="-748.5" font-family="Helvetica,sans-Serif" font-size="10.00">v8::BigIntObject</text>
</a>
</g>
</g>
<!-- Node11&#45;&gt;Node28 -->
<g id="edge28" class="edge">
<title>Node11&#45;&gt;Node28</title>
<path fill="none" stroke="midnightblue" d="M346.55,-511.79C352.41,-514.49 357.87,-518.12 362,-523 422.83,-595 336.3,-660.74 398,-732 402.4,-737.09 408.18,-740.82 414.39,-743.56"/>
<polygon fill="midnightblue" stroke="midnightblue" points="347.73,-508.5 337.14,-508.28 345.28,-515.05 347.73,-508.5"/>
</g>
<!-- Node29 -->
<g id="node30" class="node">
<title>Node29</title>
<g id="a_node30"><a xlink:href="classv8_1_1BooleanObject.html" target="_top" xlink:title=" ">
<polygon fill="white" stroke="black" points="410,-703.5 410,-722.5 505,-722.5 505,-703.5 410,-703.5"/>
<text text-anchor="middle" x="457.5" y="-710.5" font-family="Helvetica,sans-Serif" font-size="10.00">v8::BooleanObject</text>
</a>
</g>
</g>
<!-- Node11&#45;&gt;Node29 -->
<g id="edge29" class="edge">
<title>Node11&#45;&gt;Node29</title>
<path fill="none" stroke="midnightblue" d="M346.99,-512.2C352.65,-514.85 357.93,-518.36 362,-523 413.21,-581.39 346.08,-636.24 398,-694 401.5,-697.89 405.8,-700.99 410.47,-703.46"/>
<polygon fill="midnightblue" stroke="midnightblue" points="347.85,-508.78 337.26,-508.5 345.36,-515.32 347.85,-508.78"/>
</g>
<!-- Node30 -->
<g id="node31" class="node">
<title>Node30</title>
<g id="a_node31"><a xlink:href="classv8_1_1Date.html" target="_top" xlink:title=" ">
<polygon fill="white" stroke="black" points="431.5,-665.5 431.5,-684.5 483.5,-684.5 483.5,-665.5 431.5,-665.5"/>
<text text-anchor="middle" x="457.5" y="-672.5" font-family="Helvetica,sans-Serif" font-size="10.00">v8::Date</text>
</a>
</g>
</g>
<!-- Node11&#45;&gt;Node30 -->
<g id="edge30" class="edge">
<title>Node11&#45;&gt;Node30</title>
<path fill="none" stroke="midnightblue" d="M346.77,-512.4C352.45,-515.03 357.8,-518.47 362,-523 403.67,-567.87 355.79,-611.64 398,-656 406.69,-665.13 419.79,-669.88 431.4,-672.35"/>
<polygon fill="midnightblue" stroke="midnightblue" points="347.62,-508.98 337.03,-508.71 345.14,-515.52 347.62,-508.98"/>
</g>
<!-- Node31 -->
<g id="node32" class="node">
<title>Node31</title>
<g id="a_node32"><a xlink:href="classv8_1_1FinalizationGroup.html" target="_top" xlink:title=" ">
<polygon fill="white" stroke="black" points="404,-627.5 404,-646.5 511,-646.5 511,-627.5 404,-627.5"/>
<text text-anchor="middle" x="457.5" y="-634.5" font-family="Helvetica,sans-Serif" font-size="10.00">v8::FinalizationGroup</text>
</a>
</g>
</g>
<!-- Node11&#45;&gt;Node31 -->
<g id="edge31" class="edge">
<title>Node11&#45;&gt;Node31</title>
<path fill="none" stroke="midnightblue" d="M346.75,-512.92C352.35,-515.48 357.67,-518.77 362,-523 394.31,-554.54 365.31,-586.85 398,-618 402.1,-621.9 407.01,-625.01 412.21,-627.47"/>
<polygon fill="midnightblue" stroke="midnightblue" points="347.78,-509.57 337.19,-509.27 345.28,-516.11 347.78,-509.57"/>
</g>
<!-- Node32 -->
<g id="node33" class="node">
<title>Node32</title>
<g id="a_node33"><a xlink:href="classv8_1_1Function.html" target="_top" xlink:title=" ">
<polygon fill="white" stroke="black" points="423,-589.5 423,-608.5 492,-608.5 492,-589.5 423,-589.5"/>
<text text-anchor="middle" x="457.5" y="-596.5" font-family="Helvetica,sans-Serif" font-size="10.00">v8::Function</text>
</a>
</g>
</g>
<!-- Node11&#45;&gt;Node32 -->
<g id="edge32" class="edge">
<title>Node11&#45;&gt;Node32</title>
<path fill="none" stroke="midnightblue" d="M346.41,-513.87C351.97,-516.31 357.37,-519.31 362,-523 385.43,-541.67 374.34,-561.61 398,-580 405.25,-585.64 414.23,-589.63 422.96,-592.45"/>
<polygon fill="midnightblue" stroke="midnightblue" points="347.6,-510.58 337.01,-510.29 345.11,-517.12 347.6,-510.58"/>
</g>
<!-- Node33 -->
<g id="node34" class="node">
<title>Node33</title>
<g id="a_node34"><a xlink:href="classv8_1_1Map.html" target="_top" xlink:title=" ">
<polygon fill="white" stroke="black" points="432.5,-551.5 432.5,-570.5 482.5,-570.5 482.5,-551.5 432.5,-551.5"/>
<text text-anchor="middle" x="457.5" y="-558.5" font-family="Helvetica,sans-Serif" font-size="10.00">v8::Map</text>
</a>
</g>
</g>
<!-- Node11&#45;&gt;Node33 -->
<g id="edge33" class="edge">
<title>Node11&#45;&gt;Node33</title>
<path fill="none" stroke="midnightblue" d="M346.91,-516.91C352.03,-518.84 357.17,-520.89 362,-523 378.58,-530.24 381.34,-534.96 398,-542 409.02,-546.66 421.59,-550.87 432.25,-554.15"/>
<polygon fill="midnightblue" stroke="midnightblue" points="347.76,-513.5 337.17,-513.38 345.38,-520.08 347.76,-513.5"/>
</g>
<!-- Node34 -->
<g id="node35" class="node">
<title>Node34</title>
<g id="a_node35"><a xlink:href="classv8_1_1NumberObject.html" target="_top" xlink:title=" ">
<polygon fill="white" stroke="black" points="410,-513.5 410,-532.5 505,-532.5 505,-513.5 410,-513.5"/>
<text text-anchor="middle" x="457.5" y="-520.5" font-family="Helvetica,sans-Serif" font-size="10.00">v8::NumberObject</text>
</a>
</g>
</g>
<!-- Node11&#45;&gt;Node34 -->
<g id="edge34" class="edge">
<title>Node11&#45;&gt;Node34</title>
<path fill="none" stroke="midnightblue" d="M347.28,-509.03C366.53,-511.49 389.84,-514.47 409.98,-517.05"/>
<polygon fill="midnightblue" stroke="midnightblue" points="347.7,-505.55 337.34,-507.75 346.81,-512.49 347.7,-505.55"/>
</g>
<!-- Node35 -->
<g id="node36" class="node">
<title>Node35</title>
<g id="a_node36"><a xlink:href="classv8_1_1Promise.html" target="_top" xlink:title=" ">
<polygon fill="white" stroke="black" points="423.5,-475.5 423.5,-494.5 491.5,-494.5 491.5,-475.5 423.5,-475.5"/>
<text text-anchor="middle" x="457.5" y="-482.5" font-family="Helvetica,sans-Serif" font-size="10.00">v8::Promise</text>
</a>
</g>
</g>
<!-- Node11&#45;&gt;Node35 -->
<g id="edge35" class="edge">
<title>Node11&#45;&gt;Node35</title>
<path fill="none" stroke="midnightblue" d="M347.41,-498.96C371.08,-495.93 400.87,-492.12 423.34,-489.24"/>
<polygon fill="midnightblue" stroke="midnightblue" points="346.81,-495.51 337.34,-500.25 347.7,-502.45 346.81,-495.51"/>
</g>
<!-- Node36 -->
<g id="node37" class="node">
<title>Node36</title>
<g id="a_node37"><a xlink:href="classv8_1_1Promise_1_1Resolver.html" target="_top" xlink:title=" ">
<polygon fill="white" stroke="black" points="402.5,-437.5 402.5,-456.5 512.5,-456.5 512.5,-437.5 402.5,-437.5"/>
<text text-anchor="middle" x="457.5" y="-444.5" font-family="Helvetica,sans-Serif" font-size="10.00">v8::Promise::Resolver</text>
</a>
</g>
</g>
<!-- Node11&#45;&gt;Node36 -->
<g id="edge36" class="edge">
<title>Node11&#45;&gt;Node36</title>
<path fill="none" stroke="midnightblue" d="M338.81,-490.22C356.07,-482.7 378.07,-473.43 398,-466 406.81,-462.72 416.47,-459.45 425.36,-456.57"/>
<polygon fill="midnightblue" stroke="midnightblue" points="337,-487.19 329.25,-494.42 339.81,-493.6 337,-487.19"/>
</g>
<!-- Node37 -->
<g id="node38" class="node">
<title>Node37</title>
<g id="a_node38"><a xlink:href="classv8_1_1Proxy.html" target="_top" xlink:title=" ">
<polygon fill="white" stroke="black" points="429.5,-399.5 429.5,-418.5 485.5,-418.5 485.5,-399.5 429.5,-399.5"/>
<text text-anchor="middle" x="457.5" y="-406.5" font-family="Helvetica,sans-Serif" font-size="10.00">v8::Proxy</text>
</a>
</g>
</g>
<!-- Node11&#45;&gt;Node37 -->
<g id="edge37" class="edge">
<title>Node11&#45;&gt;Node37</title>
<path fill="none" stroke="midnightblue" d="M324.19,-486.89C341.15,-469.84 369.28,-443.98 398,-428 407.71,-422.6 419.18,-418.45 429.38,-415.43"/>
<polygon fill="midnightblue" stroke="midnightblue" points="321.28,-484.86 316.81,-494.46 326.29,-489.75 321.28,-484.86"/>
</g>
<!-- Node38 -->
<g id="node39" class="node">
<title>Node38</title>
<g id="a_node39"><a xlink:href="classv8_1_1RegExp.html" target="_top" xlink:title=" ">
<polygon fill="white" stroke="black" points="425,-361.5 425,-380.5 490,-380.5 490,-361.5 425,-361.5"/>
<text text-anchor="middle" x="457.5" y="-368.5" font-family="Helvetica,sans-Serif" font-size="10.00">v8::RegExp</text>
</a>
</g>
</g>
<!-- Node11&#45;&gt;Node38 -->
<g id="edge38" class="edge">
<title>Node11&#45;&gt;Node38</title>
<path fill="none" stroke="midnightblue" d="M317.85,-485.61C332.22,-460.46 361.28,-415.57 398,-390 405.97,-384.45 415.67,-380.44 424.86,-377.58"/>
<polygon fill="midnightblue" stroke="midnightblue" points="314.71,-484.04 312.92,-494.49 320.83,-487.44 314.71,-484.04"/>
</g>
<!-- Node39 -->
<g id="node40" class="node">
<title>Node39</title>
<g id="a_node40"><a xlink:href="classv8_1_1Set.html" target="_top" xlink:title=" ">
<polygon fill="white" stroke="black" points="434,-323.5 434,-342.5 481,-342.5 481,-323.5 434,-323.5"/>
<text text-anchor="middle" x="457.5" y="-330.5" font-family="Helvetica,sans-Serif" font-size="10.00">v8::Set</text>
</a>
</g>
</g>
<!-- Node11&#45;&gt;Node39 -->
<g id="edge39" class="edge">
<title>Node11&#45;&gt;Node39</title>
<path fill="none" stroke="midnightblue" d="M314.36,-484.57C325.88,-452.34 353.26,-387.82 398,-352 408.25,-343.79 422.16,-339.08 433.84,-336.41"/>
<polygon fill="midnightblue" stroke="midnightblue" points="311,-483.58 311.05,-494.18 317.62,-485.86 311,-483.58"/>
</g>
<!-- Node40 -->
<g id="node41" class="node">
<title>Node40</title>
<g id="a_node41"><a xlink:href="classv8_1_1SharedArrayBuffer.html" target="_top" xlink:title=" ">
<polygon fill="white" stroke="black" points="402.5,-285.5 402.5,-304.5 512.5,-304.5 512.5,-285.5 402.5,-285.5"/>
<text text-anchor="middle" x="457.5" y="-292.5" font-family="Helvetica,sans-Serif" font-size="10.00">v8::SharedArrayBuffer</text>
</a>
</g>
</g>
<!-- Node11&#45;&gt;Node40 -->
<g id="edge40" class="edge">
<title>Node11&#45;&gt;Node40</title>
<path fill="none" stroke="midnightblue" d="M311.94,-484.11C320.59,-445.64 344.86,-360.72 398,-314 402.41,-310.12 407.63,-307.03 413.1,-304.57"/>
<polygon fill="midnightblue" stroke="midnightblue" points="308.48,-483.55 309.82,-494.06 315.33,-485.01 308.48,-483.55"/>
</g>
<!-- Node41 -->
<g id="node42" class="node">
<title>Node41</title>
<g id="a_node42"><a xlink:href="classv8_1_1StringObject.html" target="_top" xlink:title=" ">
<polygon fill="white" stroke="black" points="414.5,-247.5 414.5,-266.5 500.5,-266.5 500.5,-247.5 414.5,-247.5"/>
<text text-anchor="middle" x="457.5" y="-254.5" font-family="Helvetica,sans-Serif" font-size="10.00">v8::StringObject</text>
</a>
</g>
</g>
<!-- Node11&#45;&gt;Node41 -->
<g id="edge41" class="edge">
<title>Node11&#45;&gt;Node41</title>
<path fill="none" stroke="midnightblue" d="M310.17,-484.16C316.01,-440.26 336.1,-334.18 398,-276 402.67,-271.61 408.36,-268.24 414.34,-265.64"/>
<polygon fill="midnightblue" stroke="midnightblue" points="306.69,-483.79 308.94,-494.14 313.63,-484.64 306.69,-483.79"/>
</g>
<!-- Node42 -->
<g id="node43" class="node">
<title>Node42</title>
<g id="a_node43"><a xlink:href="classv8_1_1SymbolObject.html" target="_top" xlink:title=" ">
<polygon fill="white" stroke="black" points="411.5,-209.5 411.5,-228.5 503.5,-228.5 503.5,-209.5 411.5,-209.5"/>
<text text-anchor="middle" x="457.5" y="-216.5" font-family="Helvetica,sans-Serif" font-size="10.00">v8::SymbolObject</text>
</a>
</g>
</g>
<!-- Node11&#45;&gt;Node42 -->
<g id="edge42" class="edge">
<title>Node11&#45;&gt;Node42</title>
<path fill="none" stroke="midnightblue" d="M308.87,-484.28C312.09,-435.48 327.2,-307.94 398,-238 401.95,-234.1 406.71,-231 411.79,-228.53"/>
<polygon fill="midnightblue" stroke="midnightblue" points="305.36,-484.25 308.3,-494.43 312.35,-484.64 305.36,-484.25"/>
</g>
<!-- Node43 -->
<g id="node44" class="node">
<title>Node43</title>
<g id="a_node44"><a xlink:href="classv8_1_1WasmModuleObject.html" target="_top" xlink:title=" ">
<polygon fill="white" stroke="black" points="398,-171.5 398,-190.5 517,-190.5 517,-171.5 398,-171.5"/>
<text text-anchor="middle" x="457.5" y="-178.5" font-family="Helvetica,sans-Serif" font-size="10.00">v8::WasmModuleObject</text>
</a>
</g>
</g>
<!-- Node11&#45;&gt;Node43 -->
<g id="edge43" class="edge">
<title>Node11&#45;&gt;Node43</title>
<path fill="none" stroke="midnightblue" d="M307.89,-484.05C308.69,-430.42 318.39,-281.73 398,-200 401.8,-196.1 406.41,-193 411.35,-190.53"/>
<polygon fill="midnightblue" stroke="midnightblue" points="304.39,-484.23 307.83,-494.25 311.39,-484.27 304.39,-484.23"/>
</g>
<!-- Node15 -->
<g id="node16" class="node">
<title>Node15</title>
<g id="a_node16"><a xlink:href="classv8_1_1DataView.html" target="_top" xlink:title=" ">
<polygon fill="white" stroke="black" points="556,-798.5 556,-817.5 630,-817.5 630,-798.5 556,-798.5"/>
<text text-anchor="middle" x="593" y="-805.5" font-family="Helvetica,sans-Serif" font-size="10.00">v8::DataView</text>
</a>
</g>
</g>
<!-- Node14&#45;&gt;Node15 -->
<g id="edge15" class="edge">
<title>Node14&#45;&gt;Node15</title>
<path fill="none" stroke="midnightblue" d="M518.3,-797.51C531.02,-799.32 544.07,-801.18 555.6,-802.82"/>
<polygon fill="midnightblue" stroke="midnightblue" points="518.6,-794.02 508.21,-796.07 517.62,-800.95 518.6,-794.02"/>
</g>
<!-- Node16 -->
<g id="node17" class="node">
<title>Node16</title>
<g id="a_node17"><a xlink:href="classv8_1_1TypedArray.html" target="_top" xlink:title=" ">
<polygon fill="white" stroke="black" points="553,-760.5 553,-779.5 633,-779.5 633,-760.5 553,-760.5"/>
<text text-anchor="middle" x="593" y="-767.5" font-family="Helvetica,sans-Serif" font-size="10.00">v8::TypedArray</text>
</a>
</g>
</g>
<!-- Node14&#45;&gt;Node16 -->
<g id="edge16" class="edge">
<title>Node14&#45;&gt;Node16</title>
<path fill="none" stroke="midnightblue" d="M518.33,-780.48C529.97,-778.83 541.9,-777.13 552.67,-775.6"/>
<polygon fill="midnightblue" stroke="midnightblue" points="517.62,-777.05 508.21,-781.93 518.6,-783.98 517.62,-777.05"/>
</g>
<!-- Node17 -->
<g id="node18" class="node">
<title>Node17</title>
<g id="a_node18"><a xlink:href="classv8_1_1BigInt64Array.html" target="_top" xlink:title=" ">
<polygon fill="white" stroke="black" points="682,-950.5 682,-969.5 772,-969.5 772,-950.5 682,-950.5"/>
<text text-anchor="middle" x="727" y="-957.5" font-family="Helvetica,sans-Serif" font-size="10.00">v8::BigInt64Array</text>
</a>
</g>
</g>
<!-- Node16&#45;&gt;Node17 -->
<g id="edge17" class="edge">
<title>Node16&#45;&gt;Node17</title>
<path fill="none" stroke="midnightblue" d="M629.92,-785.67C631.03,-786.72 632.06,-787.82 633,-789 676.38,-843.2 622.15,-889.77 669,-941 672.59,-944.93 677.01,-948.04 681.79,-950.51"/>
<polygon fill="midnightblue" stroke="midnightblue" points="631.94,-782.81 621.82,-779.68 627.78,-788.44 631.94,-782.81"/>
</g>
<!-- Node18 -->
<g id="node19" class="node">
<title>Node18</title>
<g id="a_node19"><a xlink:href="classv8_1_1BigUint64Array.html" target="_top" xlink:title=" ">
<polygon fill="white" stroke="black" points="678.5,-912.5 678.5,-931.5 775.5,-931.5 775.5,-912.5 678.5,-912.5"/>
<text text-anchor="middle" x="727" y="-919.5" font-family="Helvetica,sans-Serif" font-size="10.00">v8::BigUint64Array</text>
</a>
</g>
</g>
<!-- Node16&#45;&gt;Node18 -->
<g id="edge18" class="edge">
<title>Node16&#45;&gt;Node18</title>
<path fill="none" stroke="midnightblue" d="M629.71,-785.67C630.88,-786.71 631.99,-787.82 633,-789 667.7,-829.24 631.73,-865.13 669,-903 672.8,-906.87 677.42,-909.95 682.35,-912.4"/>
<polygon fill="midnightblue" stroke="midnightblue" points="631.38,-782.56 621.2,-779.64 627.34,-788.28 631.38,-782.56"/>
</g>
<!-- Node19 -->
<g id="node20" class="node">
<title>Node19</title>
<g id="a_node20"><a xlink:href="classv8_1_1Float32Array.html" target="_top" xlink:title=" ">
<polygon fill="white" stroke="black" points="684,-874.5 684,-893.5 770,-893.5 770,-874.5 684,-874.5"/>
<text text-anchor="middle" x="727" y="-881.5" font-family="Helvetica,sans-Serif" font-size="10.00">v8::Float32Array</text>
</a>
</g>
</g>
<!-- Node16&#45;&gt;Node19 -->
<g id="edge19" class="edge">
<title>Node16&#45;&gt;Node19</title>
<path fill="none" stroke="midnightblue" d="M628.49,-785.05C630.09,-786.28 631.61,-787.59 633,-789 659.28,-815.57 641.03,-840.21 669,-865 673.37,-868.87 678.56,-871.96 683.99,-874.42"/>
<polygon fill="midnightblue" stroke="midnightblue" points="630.28,-782.03 619.98,-779.58 626.5,-787.93 630.28,-782.03"/>
</g>
<!-- Node20 -->
<g id="node21" class="node">
<title>Node20</title>
<g id="a_node21"><a xlink:href="classv8_1_1Float64Array.html" target="_top" xlink:title=" ">
<polygon fill="white" stroke="black" points="684,-836.5 684,-855.5 770,-855.5 770,-836.5 684,-836.5"/>
<text text-anchor="middle" x="727" y="-843.5" font-family="Helvetica,sans-Serif" font-size="10.00">v8::Float64Array</text>
</a>
</g>
</g>
<!-- Node16&#45;&gt;Node20 -->
<g id="edge20" class="edge">
<title>Node16&#45;&gt;Node20</title>
<path fill="none" stroke="midnightblue" d="M626.01,-784.4C628.44,-785.85 630.8,-787.39 633,-789 651.76,-802.76 649.38,-814.5 669,-827 674.98,-830.81 681.81,-833.94 688.61,-836.47"/>
<polygon fill="midnightblue" stroke="midnightblue" points="627.52,-781.24 617.07,-779.54 624.18,-787.39 627.52,-781.24"/>
</g>
<!-- Node21 -->
<g id="node22" class="node">
<title>Node21</title>
<g id="a_node22"><a xlink:href="classv8_1_1Int16Array.html" target="_top" xlink:title=" ">
<polygon fill="white" stroke="black" points="689,-798.5 689,-817.5 765,-817.5 765,-798.5 689,-798.5"/>
<text text-anchor="middle" x="727" y="-805.5" font-family="Helvetica,sans-Serif" font-size="10.00">v8::Int16Array</text>
</a>
</g>
</g>
<!-- Node16&#45;&gt;Node21 -->
<g id="edge21" class="edge">
<title>Node16&#45;&gt;Node21</title>
<path fill="none" stroke="midnightblue" d="M637.04,-782.39C655.12,-787.59 675.82,-793.55 692.7,-798.41"/>
<polygon fill="midnightblue" stroke="midnightblue" points="637.89,-778.99 627.31,-779.59 635.95,-785.72 637.89,-778.99"/>
</g>
<!-- Node22 -->
<g id="node23" class="node">
<title>Node22</title>
<g id="a_node23"><a xlink:href="classv8_1_1Int32Array.html" target="_top" xlink:title=" ">
<polygon fill="white" stroke="black" points="689,-760.5 689,-779.5 765,-779.5 765,-760.5 689,-760.5"/>
<text text-anchor="middle" x="727" y="-767.5" font-family="Helvetica,sans-Serif" font-size="10.00">v8::Int32Array</text>
</a>
</g>
</g>
<!-- Node16&#45;&gt;Node22 -->
<g id="edge22" class="edge">
<title>Node16&#45;&gt;Node22</title>
<path fill="none" stroke="midnightblue" d="M643.45,-770C658.52,-770 674.83,-770 688.94,-770"/>
<polygon fill="midnightblue" stroke="midnightblue" points="643.25,-766.5 633.25,-770 643.25,-773.5 643.25,-766.5"/>
</g>
<!-- Node23 -->
<g id="node24" class="node">
<title>Node23</title>
<g id="a_node24"><a xlink:href="classv8_1_1Int8Array.html" target="_top" xlink:title=" ">
<polygon fill="white" stroke="black" points="691.5,-722.5 691.5,-741.5 762.5,-741.5 762.5,-722.5 691.5,-722.5"/>
<text text-anchor="middle" x="727" y="-729.5" font-family="Helvetica,sans-Serif" font-size="10.00">v8::Int8Array</text>
</a>
</g>
</g>
<!-- Node16&#45;&gt;Node23 -->
<g id="edge23" class="edge">
<title>Node16&#45;&gt;Node23</title>
<path fill="none" stroke="midnightblue" d="M637.04,-757.61C655.12,-752.41 675.82,-746.45 692.7,-741.59"/>
<polygon fill="midnightblue" stroke="midnightblue" points="635.95,-754.28 627.31,-760.41 637.89,-761.01 635.95,-754.28"/>
</g>
<!-- Node24 -->
<g id="node25" class="node">
<title>Node24</title>
<g id="a_node25"><a xlink:href="classv8_1_1Uint16Array.html" target="_top" xlink:title=" ">
<polygon fill="white" stroke="black" points="685.5,-684.5 685.5,-703.5 768.5,-703.5 768.5,-684.5 685.5,-684.5"/>
<text text-anchor="middle" x="727" y="-691.5" font-family="Helvetica,sans-Serif" font-size="10.00">v8::Uint16Array</text>
</a>
</g>
</g>
<!-- Node16&#45;&gt;Node24 -->
<g id="edge24" class="edge">
<title>Node16&#45;&gt;Node24</title>
<path fill="none" stroke="midnightblue" d="M612.11,-753.51C626.62,-740.99 647.96,-724.11 669,-713 675.92,-709.35 683.68,-706.2 691.19,-703.58"/>
<polygon fill="midnightblue" stroke="midnightblue" points="609.6,-751.05 604.41,-760.29 614.23,-756.31 609.6,-751.05"/>
</g>
<!-- Node25 -->
<g id="node26" class="node">
<title>Node25</title>
<g id="a_node26"><a xlink:href="classv8_1_1Uint32Array.html" target="_top" xlink:title=" ">
<polygon fill="white" stroke="black" points="685.5,-646.5 685.5,-665.5 768.5,-665.5 768.5,-646.5 685.5,-646.5"/>
<text text-anchor="middle" x="727" y="-653.5" font-family="Helvetica,sans-Serif" font-size="10.00">v8::Uint32Array</text>
</a>
</g>
</g>
<!-- Node16&#45;&gt;Node25 -->
<g id="edge25" class="edge">
<title>Node16&#45;&gt;Node25</title>
<path fill="none" stroke="midnightblue" d="M604.01,-751.65C616.53,-730.31 639.92,-695.42 669,-675 674.46,-671.16 680.76,-668.06 687.13,-665.56"/>
<polygon fill="midnightblue" stroke="midnightblue" points="600.93,-749.98 599.03,-760.4 607.02,-753.43 600.93,-749.98"/>
</g>
<!-- Node26 -->
<g id="node27" class="node">
<title>Node26</title>
<g id="a_node27"><a xlink:href="classv8_1_1Uint8Array.html" target="_top" xlink:title=" ">
<polygon fill="white" stroke="black" points="688.5,-608.5 688.5,-627.5 765.5,-627.5 765.5,-608.5 688.5,-608.5"/>
<text text-anchor="middle" x="727" y="-615.5" font-family="Helvetica,sans-Serif" font-size="10.00">v8::Uint8Array</text>
</a>
</g>
</g>
<!-- Node16&#45;&gt;Node26 -->
<g id="edge26" class="edge">
<title>Node16&#45;&gt;Node26</title>
<path fill="none" stroke="midnightblue" d="M599.88,-750.67C609.63,-721.83 631.82,-667.66 669,-637 674.63,-632.35 681.45,-628.83 688.38,-626.16"/>
<polygon fill="midnightblue" stroke="midnightblue" points="596.49,-749.79 596.75,-760.38 603.15,-751.94 596.49,-749.79"/>
</g>
<!-- Node27 -->
<g id="node28" class="node">
<title>Node27</title>
<g id="a_node28"><a xlink:href="classv8_1_1Uint8ClampedArray.html" target="_top" xlink:title=" ">
<polygon fill="white" stroke="black" points="669,-570.5 669,-589.5 785,-589.5 785,-570.5 669,-570.5"/>
<text text-anchor="middle" x="727" y="-577.5" font-family="Helvetica,sans-Serif" font-size="10.00">v8::Uint8ClampedArray</text>
</a>
</g>
</g>
<!-- Node16&#45;&gt;Node27 -->
<g id="edge27" class="edge">
<title>Node16&#45;&gt;Node27</title>
<path fill="none" stroke="midnightblue" d="M597.27,-750.26C604.15,-714.91 623.4,-640.6 669,-599 673.24,-595.13 678.29,-592.05 683.6,-589.59"/>
<polygon fill="midnightblue" stroke="midnightblue" points="593.79,-749.82 595.45,-760.28 600.68,-751.06 593.79,-749.82"/>
</g>
<!-- Node45 -->
<g id="node46" class="node">
<title>Node45</title>
<g id="a_node46"><a xlink:href="classv8_1_1BigInt.html" target="_top" xlink:title=" ">
<polygon fill="white" stroke="black" points="429,-133.5 429,-152.5 486,-152.5 486,-133.5 429,-133.5"/>
<text text-anchor="middle" x="457.5" y="-140.5" font-family="Helvetica,sans-Serif" font-size="10.00">v8::BigInt</text>
</a>
</g>
</g>
<!-- Node44&#45;&gt;Node45 -->
<g id="edge45" class="edge">
<title>Node44&#45;&gt;Node45</title>
<path fill="none" stroke="midnightblue" d="M351.97,-116.25C376.77,-122.6 407,-130.33 428.56,-135.85"/>
<polygon fill="midnightblue" stroke="midnightblue" points="352.62,-112.81 342.07,-113.72 350.89,-119.59 352.62,-112.81"/>
</g>
<!-- Node46 -->
<g id="node47" class="node">
<title>Node46</title>
<g id="a_node47"><a xlink:href="classv8_1_1Boolean.html" target="_top" xlink:title=" ">
<polygon fill="white" stroke="black" points="424,-95.5 424,-114.5 491,-114.5 491,-95.5 424,-95.5"/>
<text text-anchor="middle" x="457.5" y="-102.5" font-family="Helvetica,sans-Serif" font-size="10.00">v8::Boolean</text>
</a>
</g>
</g>
<!-- Node44&#45;&gt;Node46 -->
<g id="edge46" class="edge">
<title>Node44&#45;&gt;Node46</title>
<path fill="none" stroke="midnightblue" d="M352.27,-105C375.25,-105 402.84,-105 423.86,-105"/>
<polygon fill="midnightblue" stroke="midnightblue" points="352.07,-101.5 342.07,-105 352.07,-108.5 352.07,-101.5"/>
</g>
<!-- Node47 -->
<g id="node48" class="node">
<title>Node47</title>
<g id="a_node48"><a xlink:href="classv8_1_1Name.html" target="_top" xlink:title=" ">
<polygon fill="white" stroke="black" points="428.5,-57.5 428.5,-76.5 486.5,-76.5 486.5,-57.5 428.5,-57.5"/>
<text text-anchor="middle" x="457.5" y="-64.5" font-family="Helvetica,sans-Serif" font-size="10.00">v8::Name</text>
</a>
</g>
</g>
<!-- Node44&#45;&gt;Node47 -->
<g id="edge47" class="edge">
<title>Node44&#45;&gt;Node47</title>
<path fill="none" stroke="midnightblue" d="M351.9,-93.77C376.53,-87.46 406.53,-79.79 428.08,-74.27"/>
<polygon fill="midnightblue" stroke="midnightblue" points="350.89,-90.41 342.07,-96.28 352.62,-97.19 350.89,-90.41"/>
</g>
<!-- Node50 -->
<g id="node51" class="node">
<title>Node50</title>
<g id="a_node51"><a xlink:href="classv8_1_1Number.html" target="_top" xlink:title=" ">
<polygon fill="white" stroke="black" points="424.5,-19.5 424.5,-38.5 490.5,-38.5 490.5,-19.5 424.5,-19.5"/>
<text text-anchor="middle" x="457.5" y="-26.5" font-family="Helvetica,sans-Serif" font-size="10.00">v8::Number</text>
</a>
</g>
</g>
<!-- Node44&#45;&gt;Node50 -->
<g id="edge50" class="edge">
<title>Node44&#45;&gt;Node50</title>
<path fill="none" stroke="midnightblue" d="M329.25,-89.38C346.96,-76.91 373.2,-59.66 398,-48 406.31,-44.09 415.64,-40.67 424.37,-37.84"/>
<polygon fill="midnightblue" stroke="midnightblue" points="326.92,-86.75 320.82,-95.41 330.99,-92.44 326.92,-86.75"/>
</g>
<!-- Node48 -->
<g id="node49" class="node">
<title>Node48</title>
<g id="a_node49"><a xlink:href="classv8_1_1String.html" target="_top" xlink:title=" ">
<polygon fill="white" stroke="black" points="564.5,-95.5 564.5,-114.5 621.5,-114.5 621.5,-95.5 564.5,-95.5"/>
<text text-anchor="middle" x="593" y="-102.5" font-family="Helvetica,sans-Serif" font-size="10.00">v8::String</text>
</a>
</g>
</g>
<!-- Node47&#45;&gt;Node48 -->
<g id="edge48" class="edge">
<title>Node47&#45;&gt;Node48</title>
<path fill="none" stroke="midnightblue" d="M496.63,-77.85C518.17,-83.98 544.61,-91.51 564.19,-97.08"/>
<polygon fill="midnightblue" stroke="midnightblue" points="497.39,-74.43 486.81,-75.06 495.47,-81.16 497.39,-74.43"/>
</g>
<!-- Node49 -->
<g id="node50" class="node">
<title>Node49</title>
<g id="a_node50"><a xlink:href="classv8_1_1Symbol.html" target="_top" xlink:title=" ">
<polygon fill="white" stroke="black" points="561,-57.5 561,-76.5 625,-76.5 625,-57.5 561,-57.5"/>
<text text-anchor="middle" x="593" y="-64.5" font-family="Helvetica,sans-Serif" font-size="10.00">v8::Symbol</text>
</a>
</g>
</g>
<!-- Node47&#45;&gt;Node49 -->
<g id="edge49" class="edge">
<title>Node47&#45;&gt;Node49</title>
<path fill="none" stroke="midnightblue" d="M496.99,-67C517.28,-67 541.86,-67 560.93,-67"/>
<polygon fill="midnightblue" stroke="midnightblue" points="496.81,-63.5 486.81,-67 496.81,-70.5 496.81,-63.5"/>
</g>
<!-- Node51 -->
<g id="node52" class="node">
<title>Node51</title>
<g id="a_node52"><a xlink:href="classv8_1_1Integer.html" target="_top" xlink:title=" ">
<polygon fill="white" stroke="black" points="562,-19.5 562,-38.5 624,-38.5 624,-19.5 562,-19.5"/>
<text text-anchor="middle" x="593" y="-26.5" font-family="Helvetica,sans-Serif" font-size="10.00">v8::Integer</text>
</a>
</g>
</g>
<!-- Node50&#45;&gt;Node51 -->
<g id="edge51" class="edge">
<title>Node50&#45;&gt;Node51</title>
<path fill="none" stroke="midnightblue" d="M500.83,-29C520.65,-29 543.8,-29 561.81,-29"/>
<polygon fill="midnightblue" stroke="midnightblue" points="500.82,-25.5 490.82,-29 500.82,-32.5 500.82,-25.5"/>
</g>
<!-- Node52 -->
<g id="node53" class="node">
<title>Node52</title>
<g id="a_node53"><a xlink:href="classv8_1_1Int32.html" target="_top" xlink:title=" ">
<polygon fill="white" stroke="black" points="700.5,-38.5 700.5,-57.5 753.5,-57.5 753.5,-38.5 700.5,-38.5"/>
<text text-anchor="middle" x="727" y="-45.5" font-family="Helvetica,sans-Serif" font-size="10.00">v8::Int32</text>
</a>
</g>
</g>
<!-- Node51&#45;&gt;Node52 -->
<g id="edge52" class="edge">
<title>Node51&#45;&gt;Node52</title>
<path fill="none" stroke="midnightblue" d="M634.42,-34.82C655.87,-37.91 681.59,-41.61 700.3,-44.3"/>
<polygon fill="midnightblue" stroke="midnightblue" points="634.68,-31.32 624.28,-33.36 633.68,-38.25 634.68,-31.32"/>
</g>
<!-- Node53 -->
<g id="node54" class="node">
<title>Node53</title>
<g id="a_node54"><a xlink:href="classv8_1_1Uint32.html" target="_top" xlink:title=" ">
<polygon fill="white" stroke="black" points="697,-0.5 697,-19.5 757,-19.5 757,-0.5 697,-0.5"/>
<text text-anchor="middle" x="727" y="-7.5" font-family="Helvetica,sans-Serif" font-size="10.00">v8::Uint32</text>
</a>
</g>
</g>
<!-- Node51&#45;&gt;Node53 -->
<g id="edge53" class="edge">
<title>Node51&#45;&gt;Node53</title>
<path fill="none" stroke="midnightblue" d="M634.42,-23.18C654.55,-20.28 678.43,-16.85 696.77,-14.21"/>
<polygon fill="midnightblue" stroke="midnightblue" points="633.68,-19.75 624.28,-24.64 634.68,-26.68 633.68,-19.75"/>
</g>
</g>
</svg>
