<?xml version="1.0" encoding="UTF-8" standalone="no"?>
<!DOCTYPE svg PUBLIC "-//W3C//DTD SVG 1.1//EN"
 "http://www.w3.org/Graphics/SVG/1.1/DTD/svg11.dtd">
<!-- Generated by graphviz version 2.44.0 ()
 -->
<!-- Title: include/v8&#45;inspector.h Pages: 1 -->
<svg width="697pt" height="196pt"
 viewBox="0.00 0.00 697.09 196.00" xmlns="http://www.w3.org/2000/svg" xmlns:xlink="http://www.w3.org/1999/xlink">
<g id="graph0" class="graph" transform="scale(1 1) rotate(0) translate(4 192)">
<title>include/v8&#45;inspector.h</title>
<polygon fill="white" stroke="transparent" points="-4,4 -4,-192 693.09,-192 693.09,4 -4,4"/>
<!-- Node1 -->
<g id="node1" class="node">
<title>Node1</title>
<g id="a_node1"><a xlink:title=" ">
<polygon fill="#bfbfbf" stroke="black" points="174.09,-168.5 174.09,-187.5 285.09,-187.5 285.09,-168.5 174.09,-168.5"/>
<text text-anchor="middle" x="229.59" y="-175.5" font-family="Helvetica,sans-Serif" font-size="10.00">include/v8&#45;inspector.h</text>
</a>
</g>
</g>
<!-- Node2 -->
<g id="node2" class="node">
<title>Node2</title>
<g id="a_node2"><a xlink:title=" ">
<polygon fill="white" stroke="#bfbfbf" points="259.59,-0.5 259.59,-19.5 307.59,-19.5 307.59,-0.5 259.59,-0.5"/>
<text text-anchor="middle" x="283.59" y="-7.5" font-family="Helvetica,sans-Serif" font-size="10.00">stdint.h</text>
</a>
</g>
</g>
<!-- Node1&#45;&gt;Node2 -->
<g id="edge1" class="edge">
<title>Node1&#45;&gt;Node2</title>
<path fill="none" stroke="midnightblue" d="M177.28,-168.46C97.45,-153.26 -40.35,-117.24 11.59,-56 41.65,-20.56 182.62,-12.99 248.93,-11.4"/>
<polygon fill="midnightblue" stroke="midnightblue" points="249.36,-14.9 259.28,-11.19 249.21,-7.9 249.36,-14.9"/>
</g>
<!-- Node3 -->
<g id="node3" class="node">
<title>Node3</title>
<g id="a_node3"><a xlink:title=" ">
<polygon fill="white" stroke="#bfbfbf" points="327.09,-112.5 327.09,-131.5 372.09,-131.5 372.09,-112.5 327.09,-112.5"/>
<text text-anchor="middle" x="349.59" y="-119.5" font-family="Helvetica,sans-Serif" font-size="10.00">cctype</text>
</a>
</g>
</g>
<!-- Node1&#45;&gt;Node3 -->
<g id="edge2" class="edge">
<title>Node1&#45;&gt;Node3</title>
<path fill="none" stroke="midnightblue" d="M248.6,-168.44C268.18,-159.64 298.9,-145.81 321.32,-135.72"/>
<polygon fill="midnightblue" stroke="midnightblue" points="322.98,-138.81 330.66,-131.52 320.11,-132.43 322.98,-138.81"/>
</g>
<!-- Node4 -->
<g id="node4" class="node">
<title>Node4</title>
<g id="a_node4"><a xlink:title=" ">
<polygon fill="white" stroke="#bfbfbf" points="21.09,-56.5 21.09,-75.5 72.09,-75.5 72.09,-56.5 21.09,-56.5"/>
<text text-anchor="middle" x="46.59" y="-63.5" font-family="Helvetica,sans-Serif" font-size="10.00">memory</text>
</a>
</g>
</g>
<!-- Node1&#45;&gt;Node4 -->
<g id="edge3" class="edge">
<title>Node1&#45;&gt;Node4</title>
<path fill="none" stroke="midnightblue" d="M215.23,-168.37C183.69,-149.41 108.15,-104 69.79,-80.94"/>
<polygon fill="midnightblue" stroke="midnightblue" points="71.26,-77.74 60.88,-75.59 67.65,-83.74 71.26,-77.74"/>
</g>
<!-- Node5 -->
<g id="node5" class="node">
<title>Node5</title>
<g id="a_node5"><a xlink:href="v8_8h.html" target="_top" xlink:title=" ">
<polygon fill="white" stroke="black" points="274.09,-112.5 274.09,-131.5 309.09,-131.5 309.09,-112.5 274.09,-112.5"/>
<text text-anchor="middle" x="291.59" y="-119.5" font-family="Helvetica,sans-Serif" font-size="10.00">v8.h</text>
</a>
</g>
</g>
<!-- Node1&#45;&gt;Node5 -->
<g id="edge4" class="edge">
<title>Node1&#45;&gt;Node5</title>
<path fill="none" stroke="midnightblue" d="M239.55,-168.32C248.72,-160.34 262.53,-148.31 273.62,-138.65"/>
<polygon fill="midnightblue" stroke="midnightblue" points="276.21,-141.04 281.45,-131.83 271.61,-135.76 276.21,-141.04"/>
</g>
<!-- Node5&#45;&gt;Node2 -->
<g id="edge6" class="edge">
<title>Node5&#45;&gt;Node2</title>
<path fill="none" stroke="midnightblue" d="M300.64,-112.38C312.34,-100.13 330.37,-76.85 322.59,-56 318.42,-44.81 310.07,-34.56 302.17,-26.68"/>
<polygon fill="midnightblue" stroke="midnightblue" points="304.29,-23.87 294.58,-19.63 299.53,-29 304.29,-23.87"/>
</g>
<!-- Node5&#45;&gt;Node4 -->
<g id="edge8" class="edge">
<title>Node5&#45;&gt;Node4</title>
<path fill="none" stroke="midnightblue" d="M274.02,-117.55C239.23,-110.67 158.95,-94.46 82.02,-76.26"/>
<polygon fill="midnightblue" stroke="midnightblue" points="82.72,-72.83 72.18,-73.92 81.09,-79.64 82.72,-72.83"/>
</g>
<!-- Node6 -->
<g id="node6" class="node">
<title>Node6</title>
<g id="a_node6"><a xlink:title=" ">
<polygon fill="white" stroke="#bfbfbf" points="470.09,-0.5 470.09,-19.5 521.09,-19.5 521.09,-0.5 470.09,-0.5"/>
<text text-anchor="middle" x="495.59" y="-7.5" font-family="Helvetica,sans-Serif" font-size="10.00">stddef.h</text>
</a>
</g>
</g>
<!-- Node5&#45;&gt;Node6 -->
<g id="edge5" class="edge">
<title>Node5&#45;&gt;Node6</title>
<path fill="none" stroke="midnightblue" d="M309.12,-114.61C311.93,-113.67 314.83,-112.77 317.59,-112 391.14,-91.47 433.2,-131.55 485.59,-76 496.96,-63.94 498.65,-44.65 497.98,-30.21"/>
<polygon fill="midnightblue" stroke="midnightblue" points="501.44,-29.56 497.08,-19.91 494.47,-30.17 501.44,-29.56"/>
</g>
<!-- Node7 -->
<g id="node7" class="node">
<title>Node7</title>
<g id="a_node7"><a xlink:title=" ">
<polygon fill="white" stroke="#bfbfbf" points="90.09,-56.5 90.09,-75.5 135.09,-75.5 135.09,-56.5 90.09,-56.5"/>
<text text-anchor="middle" x="112.59" y="-63.5" font-family="Helvetica,sans-Serif" font-size="10.00">stdio.h</text>
</a>
</g>
</g>
<!-- Node5&#45;&gt;Node7 -->
<g id="edge7" class="edge">
<title>Node5&#45;&gt;Node7</title>
<path fill="none" stroke="midnightblue" d="M273.77,-115.62C243.87,-106.6 183.14,-88.28 145.36,-76.89"/>
<polygon fill="midnightblue" stroke="midnightblue" points="145.94,-73.41 135.36,-73.87 143.92,-80.11 145.94,-73.41"/>
</g>
<!-- Node8 -->
<g id="node8" class="node">
<title>Node8</title>
<g id="a_node8"><a xlink:title=" ">
<polygon fill="white" stroke="#bfbfbf" points="153.09,-56.5 153.09,-75.5 194.09,-75.5 194.09,-56.5 153.09,-56.5"/>
<text text-anchor="middle" x="173.59" y="-63.5" font-family="Helvetica,sans-Serif" font-size="10.00">string</text>
</a>
</g>
</g>
<!-- Node5&#45;&gt;Node8 -->
<g id="edge9" class="edge">
<title>Node5&#45;&gt;Node8</title>
<path fill="none" stroke="midnightblue" d="M273.92,-112.92C254.88,-104.2 224.3,-90.2 201.89,-79.95"/>
<polygon fill="midnightblue" stroke="midnightblue" points="203.1,-76.66 192.55,-75.68 200.19,-83.02 203.1,-76.66"/>
</g>
<!-- Node9 -->
<g id="node9" class="node">
<title>Node9</title>
<g id="a_node9"><a xlink:title=" ">
<polygon fill="white" stroke="#bfbfbf" points="539.59,-0.5 539.59,-19.5 601.59,-19.5 601.59,-0.5 539.59,-0.5"/>
<text text-anchor="middle" x="570.59" y="-7.5" font-family="Helvetica,sans-Serif" font-size="10.00">type_traits</text>
</a>
</g>
</g>
<!-- Node5&#45;&gt;Node9 -->
<g id="edge10" class="edge">
<title>Node5&#45;&gt;Node9</title>
<path fill="none" stroke="midnightblue" d="M309.11,-114.55C311.92,-113.63 314.82,-112.74 317.59,-112 399.78,-90.03 430.42,-115.83 505.59,-76 527.52,-64.38 546.79,-42.9 558.54,-27.82"/>
<polygon fill="midnightblue" stroke="midnightblue" points="561.35,-29.9 564.55,-19.8 555.75,-25.7 561.35,-29.9"/>
</g>
<!-- Node10 -->
<g id="node10" class="node">
<title>Node10</title>
<g id="a_node10"><a xlink:title=" ">
<polygon fill="white" stroke="#bfbfbf" points="212.09,-56.5 212.09,-75.5 251.09,-75.5 251.09,-56.5 212.09,-56.5"/>
<text text-anchor="middle" x="231.59" y="-63.5" font-family="Helvetica,sans-Serif" font-size="10.00">utility</text>
</a>
</g>
</g>
<!-- Node5&#45;&gt;Node10 -->
<g id="edge11" class="edge">
<title>Node5&#45;&gt;Node10</title>
<path fill="none" stroke="midnightblue" d="M281.95,-112.32C273.08,-104.34 259.72,-92.31 248.98,-82.65"/>
<polygon fill="midnightblue" stroke="midnightblue" points="251.18,-79.92 241.41,-75.83 246.5,-85.13 251.18,-79.92"/>
</g>
<!-- Node11 -->
<g id="node11" class="node">
<title>Node11</title>
<g id="a_node11"><a xlink:title=" ">
<polygon fill="white" stroke="#bfbfbf" points="269.59,-56.5 269.59,-75.5 313.59,-75.5 313.59,-56.5 269.59,-56.5"/>
<text text-anchor="middle" x="291.59" y="-63.5" font-family="Helvetica,sans-Serif" font-size="10.00">vector</text>
</a>
</g>
</g>
<!-- Node5&#45;&gt;Node11 -->
<g id="edge12" class="edge">
<title>Node5&#45;&gt;Node11</title>
<path fill="none" stroke="midnightblue" d="M291.59,-112.08C291.59,-105.01 291.59,-94.86 291.59,-85.99"/>
<polygon fill="midnightblue" stroke="midnightblue" points="295.09,-85.75 291.59,-75.75 288.09,-85.75 295.09,-85.75"/>
</g>
<!-- Node12 -->
<g id="node12" class="node">
<title>Node12</title>
<g id="a_node12"><a xlink:href="v8-internal_8h.html" target="_top" xlink:title=" ">
<polygon fill="white" stroke="black" points="408.09,-56.5 408.09,-75.5 477.09,-75.5 477.09,-56.5 408.09,-56.5"/>
<text text-anchor="middle" x="442.59" y="-63.5" font-family="Helvetica,sans-Serif" font-size="10.00">v8&#45;internal.h</text>
</a>
</g>
</g>
<!-- Node5&#45;&gt;Node12 -->
<g id="edge13" class="edge">
<title>Node5&#45;&gt;Node12</title>
<path fill="none" stroke="midnightblue" d="M309.21,-114.7C333.64,-105.96 378.27,-90 409.14,-78.96"/>
<polygon fill="midnightblue" stroke="midnightblue" points="410.4,-82.23 418.64,-75.57 408.04,-75.64 410.4,-82.23"/>
</g>
<!-- Node14 -->
<g id="node14" class="node">
<title>Node14</title>
<g id="a_node14"><a xlink:href="v8-version_8h.html" target="_top" xlink:title=" ">
<polygon fill="white" stroke="black" points="620.09,-0.5 620.09,-19.5 689.09,-19.5 689.09,-0.5 620.09,-0.5"/>
<text text-anchor="middle" x="654.59" y="-7.5" font-family="Helvetica,sans-Serif" font-size="10.00">v8&#45;version.h</text>
</a>
</g>
</g>
<!-- Node5&#45;&gt;Node14 -->
<g id="edge20" class="edge">
<title>Node5&#45;&gt;Node14</title>
<path fill="none" stroke="midnightblue" d="M309.09,-114.49C311.91,-113.58 314.81,-112.71 317.59,-112 411.91,-88 441.49,-107.45 533.59,-76 570.65,-63.35 609.95,-40.18 633.37,-25.2"/>
<polygon fill="midnightblue" stroke="midnightblue" points="635.34,-28.09 641.81,-19.71 631.52,-22.22 635.34,-28.09"/>
</g>
<!-- Node15 -->
<g id="node15" class="node">
<title>Node15</title>
<g id="a_node15"><a xlink:href="v8config_8h.html" target="_top" xlink:title=" ">
<polygon fill="white" stroke="black" points="325.59,-0.5 325.59,-19.5 385.59,-19.5 385.59,-0.5 325.59,-0.5"/>
<text text-anchor="middle" x="355.59" y="-7.5" font-family="Helvetica,sans-Serif" font-size="10.00">v8config.h</text>
</a>
</g>
</g>
<!-- Node5&#45;&gt;Node15 -->
<g id="edge21" class="edge">
<title>Node5&#45;&gt;Node15</title>
<path fill="none" stroke="midnightblue" d="M303.51,-112.32C313.97,-104.09 328.84,-90.82 337.59,-76 346.05,-61.66 350.67,-43.2 353.1,-29.62"/>
<polygon fill="midnightblue" stroke="midnightblue" points="356.59,-29.97 354.66,-19.55 349.67,-28.9 356.59,-29.97"/>
</g>
<!-- Node12&#45;&gt;Node2 -->
<g id="edge15" class="edge">
<title>Node12&#45;&gt;Node2</title>
<path fill="none" stroke="midnightblue" d="M417.4,-56.44C390.33,-47.25 347.19,-32.6 317.23,-22.43"/>
<polygon fill="midnightblue" stroke="midnightblue" points="318.22,-19.06 307.63,-19.16 315.97,-25.69 318.22,-19.06"/>
</g>
<!-- Node12&#45;&gt;Node6 -->
<g id="edge14" class="edge">
<title>Node12&#45;&gt;Node6</title>
<path fill="none" stroke="midnightblue" d="M451.34,-56.08C459.06,-48.22 470.49,-36.57 479.81,-27.08"/>
<polygon fill="midnightblue" stroke="midnightblue" points="482.49,-29.34 487,-19.75 477.5,-24.44 482.49,-29.34"/>
</g>
<!-- Node12&#45;&gt;Node9 -->
<g id="edge17" class="edge">
<title>Node12&#45;&gt;Node9</title>
<path fill="none" stroke="midnightblue" d="M462.87,-56.44C483.94,-47.56 517.11,-33.56 541.08,-23.45"/>
<polygon fill="midnightblue" stroke="midnightblue" points="542.55,-26.63 550.4,-19.52 539.83,-20.18 542.55,-26.63"/>
</g>
<!-- Node13 -->
<g id="node13" class="node">
<title>Node13</title>
<g id="a_node13"><a xlink:title=" ">
<polygon fill="white" stroke="#bfbfbf" points="403.59,-0.5 403.59,-19.5 451.59,-19.5 451.59,-0.5 403.59,-0.5"/>
<text text-anchor="middle" x="427.59" y="-7.5" font-family="Helvetica,sans-Serif" font-size="10.00">string.h</text>
</a>
</g>
</g>
<!-- Node12&#45;&gt;Node13 -->
<g id="edge16" class="edge">
<title>Node12&#45;&gt;Node13</title>
<path fill="none" stroke="midnightblue" d="M440.11,-56.08C438.1,-48.85 435.2,-38.41 432.7,-29.4"/>
<polygon fill="midnightblue" stroke="midnightblue" points="436.07,-28.45 430.02,-19.75 429.33,-30.32 436.07,-28.45"/>
</g>
<!-- Node12&#45;&gt;Node14 -->
<g id="edge18" class="edge">
<title>Node12&#45;&gt;Node14</title>
<path fill="none" stroke="midnightblue" d="M476.18,-56.44C512.78,-47.12 571.43,-32.18 611.42,-22"/>
<polygon fill="midnightblue" stroke="midnightblue" points="612.33,-25.38 621.16,-19.52 610.6,-18.59 612.33,-25.38"/>
</g>
<!-- Node12&#45;&gt;Node15 -->
<g id="edge19" class="edge">
<title>Node12&#45;&gt;Node15</title>
<path fill="none" stroke="midnightblue" d="M428.61,-56.32C415.04,-47.9 394.21,-34.97 378.27,-25.07"/>
<polygon fill="midnightblue" stroke="midnightblue" points="379.88,-21.95 369.53,-19.65 376.18,-27.9 379.88,-21.95"/>
</g>
</g>
</svg>
