<?xml version="1.0" encoding="UTF-8" standalone="no"?>
<!DOCTYPE svg PUBLIC "-//W3C//DTD SVG 1.1//EN"
 "http://www.w3.org/Graphics/SVG/1.1/DTD/svg11.dtd">
<!-- Generated by graphviz version 2.44.0 ()
 -->
<!-- Title: v8::Value Pages: 1 -->
<svg width="672pt" height="788pt"
 viewBox="0.00 0.00 672.00 788.00" xmlns="http://www.w3.org/2000/svg" xmlns:xlink="http://www.w3.org/1999/xlink">
<g id="graph0" class="graph" transform="scale(1 1) rotate(0) translate(4 784)">
<title>v8::Value</title>
<polygon fill="white" stroke="transparent" points="-4,4 -4,-784 668,-784 668,4 -4,4"/>
<!-- Node1 -->
<g id="node1" class="node">
<title>Node1</title>
<g id="a_node1"><a xlink:title=" ">
<polygon fill="#bfbfbf" stroke="black" points="88,-399.5 88,-418.5 144,-418.5 144,-399.5 88,-399.5"/>
<text text-anchor="middle" x="116" y="-406.5" font-family="Helvetica,sans-Serif" font-size="10.00">v8::Value</text>
</a>
</g>
</g>
<!-- Node3 -->
<g id="node3" class="node">
<title>Node3</title>
<g id="a_node3"><a xlink:href="classv8_1_1External.html" target="_top" xlink:title=" ">
<polygon fill="white" stroke="black" points="182,-437.5 182,-456.5 248,-456.5 248,-437.5 182,-437.5"/>
<text text-anchor="middle" x="215" y="-444.5" font-family="Helvetica,sans-Serif" font-size="10.00">v8::External</text>
</a>
</g>
</g>
<!-- Node1&#45;&gt;Node3 -->
<g id="edge2" class="edge">
<title>Node1&#45;&gt;Node3</title>
<path fill="none" stroke="midnightblue" d="M150.86,-422.26C163.59,-427.25 177.81,-432.82 189.53,-437.41"/>
<polygon fill="midnightblue" stroke="midnightblue" points="152.06,-418.98 141.48,-418.59 149.51,-425.5 152.06,-418.98"/>
</g>
<!-- Node4 -->
<g id="node4" class="node">
<title>Node4</title>
<g id="a_node4"><a xlink:href="classv8_1_1Object.html" target="_top" xlink:title=" ">
<polygon fill="white" stroke="black" points="185,-399.5 185,-418.5 245,-418.5 245,-399.5 185,-399.5"/>
<text text-anchor="middle" x="215" y="-406.5" font-family="Helvetica,sans-Serif" font-size="10.00">v8::Object</text>
</a>
</g>
</g>
<!-- Node1&#45;&gt;Node4 -->
<g id="edge3" class="edge">
<title>Node1&#45;&gt;Node4</title>
<path fill="none" stroke="midnightblue" d="M154.23,-409C164.34,-409 175.14,-409 184.75,-409"/>
<polygon fill="midnightblue" stroke="midnightblue" points="154.02,-405.5 144.02,-409 154.02,-412.5 154.02,-405.5"/>
</g>
<!-- Node32 -->
<g id="node32" class="node">
<title>Node32</title>
<g id="a_node32"><a xlink:href="classv8_1_1Primitive.html" target="_top" xlink:title=" ">
<polygon fill="white" stroke="black" points="180,-76.5 180,-95.5 250,-95.5 250,-76.5 180,-76.5"/>
<text text-anchor="middle" x="215" y="-83.5" font-family="Helvetica,sans-Serif" font-size="10.00">v8::Primitive</text>
</a>
</g>
</g>
<!-- Node1&#45;&gt;Node32 -->
<g id="edge31" class="edge">
<title>Node1&#45;&gt;Node32</title>
<path fill="none" stroke="midnightblue" d="M122.89,-389.38C141.36,-327.88 197.69,-140.31 211.11,-95.63"/>
<polygon fill="midnightblue" stroke="midnightblue" points="119.43,-388.75 119.9,-399.33 126.13,-390.76 119.43,-388.75"/>
</g>
<!-- Node2 -->
<g id="node2" class="node">
<title>Node2</title>
<g id="a_node2"><a xlink:href="classv8_1_1Data.html" target="_top" xlink:title=" ">
<polygon fill="white" stroke="black" points="0,-399.5 0,-418.5 52,-418.5 52,-399.5 0,-399.5"/>
<text text-anchor="middle" x="26" y="-406.5" font-family="Helvetica,sans-Serif" font-size="10.00">v8::Data</text>
</a>
</g>
</g>
<!-- Node2&#45;&gt;Node1 -->
<g id="edge1" class="edge">
<title>Node2&#45;&gt;Node1</title>
<path fill="none" stroke="midnightblue" d="M62.72,-409C71.08,-409 79.84,-409 87.76,-409"/>
<polygon fill="midnightblue" stroke="midnightblue" points="62.45,-405.5 52.45,-409 62.45,-412.5 62.45,-405.5"/>
</g>
<!-- Node5 -->
<g id="node5" class="node">
<title>Node5</title>
<g id="a_node5"><a xlink:href="classv8_1_1Array.html" target="_top" xlink:title=" ">
<polygon fill="white" stroke="black" points="314,-703.5 314,-722.5 368,-722.5 368,-703.5 314,-703.5"/>
<text text-anchor="middle" x="341" y="-710.5" font-family="Helvetica,sans-Serif" font-size="10.00">v8::Array</text>
</a>
</g>
</g>
<!-- Node4&#45;&gt;Node5 -->
<g id="edge4" class="edge">
<title>Node4&#45;&gt;Node5</title>
<path fill="none" stroke="midnightblue" d="M247.59,-424.95C248.46,-425.92 249.27,-426.93 250,-428 317.15,-526.61 210.66,-601.5 286,-694 292.84,-702.4 303.65,-707.09 313.8,-709.71"/>
<polygon fill="midnightblue" stroke="midnightblue" points="249.81,-422.25 239.89,-418.54 245.34,-427.63 249.81,-422.25"/>
</g>
<!-- Node6 -->
<g id="node6" class="node">
<title>Node6</title>
<g id="a_node6"><a xlink:href="classv8_1_1ArrayBuffer.html" target="_top" xlink:title=" ">
<polygon fill="white" stroke="black" points="301,-665.5 301,-684.5 381,-684.5 381,-665.5 301,-665.5"/>
<text text-anchor="middle" x="341" y="-672.5" font-family="Helvetica,sans-Serif" font-size="10.00">v8::ArrayBuffer</text>
</a>
</g>
</g>
<!-- Node4&#45;&gt;Node6 -->
<g id="edge5" class="edge">
<title>Node4&#45;&gt;Node6</title>
<path fill="none" stroke="midnightblue" d="M247.56,-424.97C248.44,-425.93 249.26,-426.94 250,-428 308.68,-512.15 220.34,-577.18 286,-656 289.94,-660.73 295.14,-664.29 300.76,-666.96"/>
<polygon fill="midnightblue" stroke="midnightblue" points="249.76,-422.25 239.82,-418.59 245.31,-427.65 249.76,-422.25"/>
</g>
<!-- Node7 -->
<g id="node7" class="node">
<title>Node7</title>
<g id="a_node7"><a xlink:href="classv8_1_1ArrayBufferView.html" target="_top" xlink:title=" ">
<polygon fill="white" stroke="black" points="290.5,-627.5 290.5,-646.5 391.5,-646.5 391.5,-627.5 290.5,-627.5"/>
<text text-anchor="middle" x="341" y="-634.5" font-family="Helvetica,sans-Serif" font-size="10.00">v8::ArrayBufferView</text>
</a>
</g>
</g>
<!-- Node4&#45;&gt;Node7 -->
<g id="edge6" class="edge">
<title>Node4&#45;&gt;Node7</title>
<path fill="none" stroke="midnightblue" d="M247.52,-425C248.41,-425.95 249.24,-426.95 250,-428 300.23,-497.74 229.99,-552.81 286,-618 289.3,-621.84 293.43,-624.91 297.93,-627.36"/>
<polygon fill="midnightblue" stroke="midnightblue" points="249.69,-422.26 239.73,-418.65 245.27,-427.69 249.69,-422.26"/>
</g>
<!-- Node19 -->
<g id="node19" class="node">
<title>Node19</title>
<g id="a_node19"><a xlink:href="classv8_1_1BooleanObject.html" target="_top" xlink:title=" ">
<polygon fill="white" stroke="black" points="293.5,-589.5 293.5,-608.5 388.5,-608.5 388.5,-589.5 293.5,-589.5"/>
<text text-anchor="middle" x="341" y="-596.5" font-family="Helvetica,sans-Serif" font-size="10.00">v8::BooleanObject</text>
</a>
</g>
</g>
<!-- Node4&#45;&gt;Node19 -->
<g id="edge18" class="edge">
<title>Node4&#45;&gt;Node19</title>
<path fill="none" stroke="midnightblue" d="M247.38,-424.96C248.32,-425.93 249.2,-426.94 250,-428 291.84,-483.4 239.57,-528.38 286,-580 289.52,-583.92 293.9,-587.03 298.63,-589.49"/>
<polygon fill="midnightblue" stroke="midnightblue" points="249.26,-421.99 239.25,-418.53 244.92,-427.48 249.26,-421.99"/>
</g>
<!-- Node20 -->
<g id="node20" class="node">
<title>Node20</title>
<g id="a_node20"><a xlink:href="classv8_1_1Date.html" target="_top" xlink:title=" ">
<polygon fill="white" stroke="black" points="315,-551.5 315,-570.5 367,-570.5 367,-551.5 315,-551.5"/>
<text text-anchor="middle" x="341" y="-558.5" font-family="Helvetica,sans-Serif" font-size="10.00">v8::Date</text>
</a>
</g>
</g>
<!-- Node4&#45;&gt;Node20 -->
<g id="edge19" class="edge">
<title>Node4&#45;&gt;Node20</title>
<path fill="none" stroke="midnightblue" d="M247.28,-425.04C248.25,-425.98 249.16,-426.97 250,-428 283.56,-469.2 249.04,-503.82 286,-542 293.6,-549.85 304.64,-554.47 314.76,-557.17"/>
<polygon fill="midnightblue" stroke="midnightblue" points="249.09,-422.02 239.03,-418.7 244.83,-427.57 249.09,-422.02"/>
</g>
<!-- Node21 -->
<g id="node21" class="node">
<title>Node21</title>
<g id="a_node21"><a xlink:href="classv8_1_1Function.html" target="_top" xlink:title=" ">
<polygon fill="white" stroke="black" points="306.5,-513.5 306.5,-532.5 375.5,-532.5 375.5,-513.5 306.5,-513.5"/>
<text text-anchor="middle" x="341" y="-520.5" font-family="Helvetica,sans-Serif" font-size="10.00">v8::Function</text>
</a>
</g>
</g>
<!-- Node4&#45;&gt;Node21 -->
<g id="edge20" class="edge">
<title>Node4&#45;&gt;Node21</title>
<path fill="none" stroke="midnightblue" d="M246.2,-424.42C247.55,-425.55 248.83,-426.74 250,-428 275.53,-455.3 258.23,-478.98 286,-504 291.76,-509.19 299.02,-512.98 306.34,-515.74"/>
<polygon fill="midnightblue" stroke="midnightblue" points="248.13,-421.5 237.94,-418.61 244.11,-427.22 248.13,-421.5"/>
</g>
<!-- Node22 -->
<g id="node22" class="node">
<title>Node22</title>
<g id="a_node22"><a xlink:href="classv8_1_1Map.html" target="_top" xlink:title=" ">
<polygon fill="white" stroke="black" points="316,-475.5 316,-494.5 366,-494.5 366,-475.5 316,-475.5"/>
<text text-anchor="middle" x="341" y="-482.5" font-family="Helvetica,sans-Serif" font-size="10.00">v8::Map</text>
</a>
</g>
</g>
<!-- Node4&#45;&gt;Node22 -->
<g id="edge21" class="edge">
<title>Node4&#45;&gt;Node22</title>
<path fill="none" stroke="midnightblue" d="M244.39,-423.98C246.33,-425.27 248.22,-426.62 250,-428 268.36,-442.28 266.48,-453.34 286,-466 295.01,-471.84 306.02,-476.13 315.75,-479.15"/>
<polygon fill="midnightblue" stroke="midnightblue" points="246.06,-420.9 235.7,-418.68 242.42,-426.88 246.06,-420.9"/>
</g>
<!-- Node23 -->
<g id="node23" class="node">
<title>Node23</title>
<g id="a_node23"><a xlink:href="classv8_1_1NumberObject.html" target="_top" xlink:title=" ">
<polygon fill="white" stroke="black" points="293.5,-437.5 293.5,-456.5 388.5,-456.5 388.5,-437.5 293.5,-437.5"/>
<text text-anchor="middle" x="341" y="-444.5" font-family="Helvetica,sans-Serif" font-size="10.00">v8::NumberObject</text>
</a>
</g>
</g>
<!-- Node4&#45;&gt;Node23 -->
<g id="edge22" class="edge">
<title>Node4&#45;&gt;Node23</title>
<path fill="none" stroke="midnightblue" d="M254.94,-420.93C272.35,-426.27 292.58,-432.47 308.94,-437.48"/>
<polygon fill="midnightblue" stroke="midnightblue" points="255.66,-417.49 245.07,-417.91 253.61,-424.19 255.66,-417.49"/>
</g>
<!-- Node24 -->
<g id="node24" class="node">
<title>Node24</title>
<g id="a_node24"><a xlink:href="classv8_1_1Promise.html" target="_top" xlink:title=" ">
<polygon fill="white" stroke="black" points="307,-399.5 307,-418.5 375,-418.5 375,-399.5 307,-399.5"/>
<text text-anchor="middle" x="341" y="-406.5" font-family="Helvetica,sans-Serif" font-size="10.00">v8::Promise</text>
</a>
</g>
</g>
<!-- Node4&#45;&gt;Node24 -->
<g id="edge23" class="edge">
<title>Node4&#45;&gt;Node24</title>
<path fill="none" stroke="midnightblue" d="M255.5,-409C272,-409 290.96,-409 306.73,-409"/>
<polygon fill="midnightblue" stroke="midnightblue" points="255.07,-405.5 245.07,-409 255.07,-412.5 255.07,-405.5"/>
</g>
<!-- Node25 -->
<g id="node25" class="node">
<title>Node25</title>
<g id="a_node25"><a xlink:href="classv8_1_1Promise_1_1Resolver.html" target="_top" xlink:title=" ">
<polygon fill="white" stroke="black" points="286,-361.5 286,-380.5 396,-380.5 396,-361.5 286,-361.5"/>
<text text-anchor="middle" x="341" y="-368.5" font-family="Helvetica,sans-Serif" font-size="10.00">v8::Promise::Resolver</text>
</a>
</g>
</g>
<!-- Node4&#45;&gt;Node25 -->
<g id="edge24" class="edge">
<title>Node4&#45;&gt;Node25</title>
<path fill="none" stroke="midnightblue" d="M254.94,-397.07C272.35,-391.73 292.58,-385.53 308.94,-380.52"/>
<polygon fill="midnightblue" stroke="midnightblue" points="253.61,-393.81 245.07,-400.09 255.66,-400.51 253.61,-393.81"/>
</g>
<!-- Node26 -->
<g id="node26" class="node">
<title>Node26</title>
<g id="a_node26"><a xlink:href="classv8_1_1Proxy.html" target="_top" xlink:title=" ">
<polygon fill="white" stroke="black" points="313,-323.5 313,-342.5 369,-342.5 369,-323.5 313,-323.5"/>
<text text-anchor="middle" x="341" y="-330.5" font-family="Helvetica,sans-Serif" font-size="10.00">v8::Proxy</text>
</a>
</g>
</g>
<!-- Node4&#45;&gt;Node26 -->
<g id="edge25" class="edge">
<title>Node4&#45;&gt;Node26</title>
<path fill="none" stroke="midnightblue" d="M233.14,-392.18C246.6,-379.71 266.3,-363.04 286,-352 294.32,-347.34 304,-343.5 312.84,-340.52"/>
<polygon fill="midnightblue" stroke="midnightblue" points="230.47,-389.88 225.62,-399.31 235.29,-394.96 230.47,-389.88"/>
</g>
<!-- Node27 -->
<g id="node27" class="node">
<title>Node27</title>
<g id="a_node27"><a xlink:href="classv8_1_1RegExp.html" target="_top" xlink:title=" ">
<polygon fill="white" stroke="black" points="308.5,-285.5 308.5,-304.5 373.5,-304.5 373.5,-285.5 308.5,-285.5"/>
<text text-anchor="middle" x="341" y="-292.5" font-family="Helvetica,sans-Serif" font-size="10.00">v8::RegExp</text>
</a>
</g>
</g>
<!-- Node4&#45;&gt;Node27 -->
<g id="edge26" class="edge">
<title>Node4&#45;&gt;Node27</title>
<path fill="none" stroke="midnightblue" d="M225.25,-390.43C236.75,-369.13 258.28,-334.51 286,-314 292.63,-309.09 300.64,-305.37 308.43,-302.58"/>
<polygon fill="midnightblue" stroke="midnightblue" points="222.07,-388.95 220.56,-399.44 228.28,-392.18 222.07,-388.95"/>
</g>
<!-- Node28 -->
<g id="node28" class="node">
<title>Node28</title>
<g id="a_node28"><a xlink:href="classv8_1_1Set.html" target="_top" xlink:title=" ">
<polygon fill="white" stroke="black" points="317.5,-247.5 317.5,-266.5 364.5,-266.5 364.5,-247.5 317.5,-247.5"/>
<text text-anchor="middle" x="341" y="-254.5" font-family="Helvetica,sans-Serif" font-size="10.00">v8::Set</text>
</a>
</g>
</g>
<!-- Node4&#45;&gt;Node28 -->
<g id="edge27" class="edge">
<title>Node4&#45;&gt;Node28</title>
<path fill="none" stroke="midnightblue" d="M221.19,-389.76C229.89,-361.03 250.1,-307 286,-276 294.8,-268.4 306.84,-263.78 317.31,-261"/>
<polygon fill="midnightblue" stroke="midnightblue" points="217.81,-388.85 218.41,-399.43 224.53,-390.79 217.81,-388.85"/>
</g>
<!-- Node29 -->
<g id="node29" class="node">
<title>Node29</title>
<g id="a_node29"><a xlink:href="classv8_1_1SharedArrayBuffer.html" target="_top" xlink:title=" ">
<polygon fill="white" stroke="black" points="286,-209.5 286,-228.5 396,-228.5 396,-209.5 286,-209.5"/>
<text text-anchor="middle" x="341" y="-216.5" font-family="Helvetica,sans-Serif" font-size="10.00">v8::SharedArrayBuffer</text>
</a>
</g>
</g>
<!-- Node4&#45;&gt;Node29 -->
<g id="edge28" class="edge">
<title>Node4&#45;&gt;Node29</title>
<path fill="none" stroke="midnightblue" d="M218.72,-389.36C224.6,-354.16 241.74,-280.09 286,-238 290.1,-234.1 295.06,-230.99 300.28,-228.52"/>
<polygon fill="midnightblue" stroke="midnightblue" points="215.24,-388.91 217.18,-399.33 222.16,-389.98 215.24,-388.91"/>
</g>
<!-- Node30 -->
<g id="node30" class="node">
<title>Node30</title>
<g id="a_node30"><a xlink:href="classv8_1_1StringObject.html" target="_top" xlink:title=" ">
<polygon fill="white" stroke="black" points="298,-171.5 298,-190.5 384,-190.5 384,-171.5 298,-171.5"/>
<text text-anchor="middle" x="341" y="-178.5" font-family="Helvetica,sans-Serif" font-size="10.00">v8::StringObject</text>
</a>
</g>
</g>
<!-- Node4&#45;&gt;Node30 -->
<g id="edge29" class="edge">
<title>Node4&#45;&gt;Node30</title>
<path fill="none" stroke="midnightblue" d="M217.03,-389.07C220.23,-348.06 233.23,-253.58 286,-200 289.84,-196.11 294.52,-193.01 299.5,-190.54"/>
<polygon fill="midnightblue" stroke="midnightblue" points="213.54,-388.94 216.37,-399.14 220.52,-389.4 213.54,-388.94"/>
</g>
<!-- Node31 -->
<g id="node31" class="node">
<title>Node31</title>
<g id="a_node31"><a xlink:href="classv8_1_1SymbolObject.html" target="_top" xlink:title=" ">
<polygon fill="white" stroke="black" points="295,-133.5 295,-152.5 387,-152.5 387,-133.5 295,-133.5"/>
<text text-anchor="middle" x="341" y="-140.5" font-family="Helvetica,sans-Serif" font-size="10.00">v8::SymbolObject</text>
</a>
</g>
</g>
<!-- Node4&#45;&gt;Node31 -->
<g id="edge30" class="edge">
<title>Node4&#45;&gt;Node31</title>
<path fill="none" stroke="midnightblue" d="M215.8,-389.35C216.42,-343.34 224.38,-227.58 286,-162 289.68,-158.09 294.2,-154.98 299.06,-152.52"/>
<polygon fill="midnightblue" stroke="midnightblue" points="212.3,-389.46 215.78,-399.47 219.3,-389.48 212.3,-389.46"/>
</g>
<!-- Node8 -->
<g id="node8" class="node">
<title>Node8</title>
<g id="a_node8"><a xlink:href="classv8_1_1DataView.html" target="_top" xlink:title=" ">
<polygon fill="white" stroke="black" points="435,-646.5 435,-665.5 509,-665.5 509,-646.5 435,-646.5"/>
<text text-anchor="middle" x="472" y="-653.5" font-family="Helvetica,sans-Serif" font-size="10.00">v8::DataView</text>
</a>
</g>
</g>
<!-- Node7&#45;&gt;Node8 -->
<g id="edge7" class="edge">
<title>Node7&#45;&gt;Node8</title>
<path fill="none" stroke="midnightblue" d="M401.73,-645.8C412.97,-647.45 424.4,-649.14 434.65,-650.65"/>
<polygon fill="midnightblue" stroke="midnightblue" points="401.91,-642.29 391.51,-644.29 400.89,-649.21 401.91,-642.29"/>
</g>
<!-- Node9 -->
<g id="node9" class="node">
<title>Node9</title>
<g id="a_node9"><a xlink:href="classv8_1_1TypedArray.html" target="_top" xlink:title=" ">
<polygon fill="white" stroke="black" points="432,-608.5 432,-627.5 512,-627.5 512,-608.5 432,-608.5"/>
<text text-anchor="middle" x="472" y="-615.5" font-family="Helvetica,sans-Serif" font-size="10.00">v8::TypedArray</text>
</a>
</g>
</g>
<!-- Node7&#45;&gt;Node9 -->
<g id="edge8" class="edge">
<title>Node7&#45;&gt;Node9</title>
<path fill="none" stroke="midnightblue" d="M401.66,-628.21C411.9,-626.7 422.31,-625.17 431.84,-623.77"/>
<polygon fill="midnightblue" stroke="midnightblue" points="400.89,-624.79 391.51,-629.71 401.91,-631.71 400.89,-624.79"/>
</g>
<!-- Node10 -->
<g id="node10" class="node">
<title>Node10</title>
<g id="a_node10"><a xlink:href="classv8_1_1Float32Array.html" target="_top" xlink:title=" ">
<polygon fill="white" stroke="black" points="563,-760.5 563,-779.5 649,-779.5 649,-760.5 563,-760.5"/>
<text text-anchor="middle" x="606" y="-767.5" font-family="Helvetica,sans-Serif" font-size="10.00">v8::Float32Array</text>
</a>
</g>
</g>
<!-- Node9&#45;&gt;Node10 -->
<g id="edge9" class="edge">
<title>Node9&#45;&gt;Node10</title>
<path fill="none" stroke="midnightblue" d="M508.71,-633.67C509.88,-634.71 510.99,-635.82 512,-637 546.7,-677.24 510.73,-713.13 548,-751 552.17,-755.24 557.31,-758.53 562.78,-761.09"/>
<polygon fill="midnightblue" stroke="midnightblue" points="510.38,-630.56 500.2,-627.64 506.34,-636.28 510.38,-630.56"/>
</g>
<!-- Node11 -->
<g id="node11" class="node">
<title>Node11</title>
<g id="a_node11"><a xlink:href="classv8_1_1Float64Array.html" target="_top" xlink:title=" ">
<polygon fill="white" stroke="black" points="563,-722.5 563,-741.5 649,-741.5 649,-722.5 563,-722.5"/>
<text text-anchor="middle" x="606" y="-729.5" font-family="Helvetica,sans-Serif" font-size="10.00">v8::Float64Array</text>
</a>
</g>
</g>
<!-- Node9&#45;&gt;Node11 -->
<g id="edge10" class="edge">
<title>Node9&#45;&gt;Node11</title>
<path fill="none" stroke="midnightblue" d="M507.49,-633.05C509.09,-634.28 510.61,-635.59 512,-637 538.28,-663.57 520.03,-688.21 548,-713 552.37,-716.87 557.56,-719.96 562.99,-722.42"/>
<polygon fill="midnightblue" stroke="midnightblue" points="509.28,-630.03 498.98,-627.58 505.5,-635.93 509.28,-630.03"/>
</g>
<!-- Node12 -->
<g id="node12" class="node">
<title>Node12</title>
<g id="a_node12"><a xlink:href="classv8_1_1Int16Array.html" target="_top" xlink:title=" ">
<polygon fill="white" stroke="black" points="568,-684.5 568,-703.5 644,-703.5 644,-684.5 568,-684.5"/>
<text text-anchor="middle" x="606" y="-691.5" font-family="Helvetica,sans-Serif" font-size="10.00">v8::Int16Array</text>
</a>
</g>
</g>
<!-- Node9&#45;&gt;Node12 -->
<g id="edge11" class="edge">
<title>Node9&#45;&gt;Node12</title>
<path fill="none" stroke="midnightblue" d="M505.01,-632.4C507.44,-633.85 509.8,-635.39 512,-637 530.76,-650.76 528.38,-662.5 548,-675 554.07,-678.87 561.01,-682.03 567.91,-684.59"/>
<polygon fill="midnightblue" stroke="midnightblue" points="506.52,-629.24 496.07,-627.54 503.18,-635.39 506.52,-629.24"/>
</g>
<!-- Node13 -->
<g id="node13" class="node">
<title>Node13</title>
<g id="a_node13"><a xlink:href="classv8_1_1Int32Array.html" target="_top" xlink:title=" ">
<polygon fill="white" stroke="black" points="568,-646.5 568,-665.5 644,-665.5 644,-646.5 568,-646.5"/>
<text text-anchor="middle" x="606" y="-653.5" font-family="Helvetica,sans-Serif" font-size="10.00">v8::Int32Array</text>
</a>
</g>
</g>
<!-- Node9&#45;&gt;Node13 -->
<g id="edge12" class="edge">
<title>Node9&#45;&gt;Node13</title>
<path fill="none" stroke="midnightblue" d="M516.04,-630.39C534.12,-635.59 554.82,-641.55 571.7,-646.41"/>
<polygon fill="midnightblue" stroke="midnightblue" points="516.89,-626.99 506.31,-627.59 514.95,-633.72 516.89,-626.99"/>
</g>
<!-- Node14 -->
<g id="node14" class="node">
<title>Node14</title>
<g id="a_node14"><a xlink:href="classv8_1_1Int8Array.html" target="_top" xlink:title=" ">
<polygon fill="white" stroke="black" points="570.5,-608.5 570.5,-627.5 641.5,-627.5 641.5,-608.5 570.5,-608.5"/>
<text text-anchor="middle" x="606" y="-615.5" font-family="Helvetica,sans-Serif" font-size="10.00">v8::Int8Array</text>
</a>
</g>
</g>
<!-- Node9&#45;&gt;Node14 -->
<g id="edge13" class="edge">
<title>Node9&#45;&gt;Node14</title>
<path fill="none" stroke="midnightblue" d="M522.44,-618C538.32,-618 555.56,-618 570.17,-618"/>
<polygon fill="midnightblue" stroke="midnightblue" points="522.25,-614.5 512.25,-618 522.25,-621.5 522.25,-614.5"/>
</g>
<!-- Node15 -->
<g id="node15" class="node">
<title>Node15</title>
<g id="a_node15"><a xlink:href="classv8_1_1Uint16Array.html" target="_top" xlink:title=" ">
<polygon fill="white" stroke="black" points="564.5,-570.5 564.5,-589.5 647.5,-589.5 647.5,-570.5 564.5,-570.5"/>
<text text-anchor="middle" x="606" y="-577.5" font-family="Helvetica,sans-Serif" font-size="10.00">v8::Uint16Array</text>
</a>
</g>
</g>
<!-- Node9&#45;&gt;Node15 -->
<g id="edge14" class="edge">
<title>Node9&#45;&gt;Node15</title>
<path fill="none" stroke="midnightblue" d="M516.04,-605.61C534.12,-600.41 554.82,-594.45 571.7,-589.59"/>
<polygon fill="midnightblue" stroke="midnightblue" points="514.95,-602.28 506.31,-608.41 516.89,-609.01 514.95,-602.28"/>
</g>
<!-- Node16 -->
<g id="node16" class="node">
<title>Node16</title>
<g id="a_node16"><a xlink:href="classv8_1_1Uint32Array.html" target="_top" xlink:title=" ">
<polygon fill="white" stroke="black" points="564.5,-532.5 564.5,-551.5 647.5,-551.5 647.5,-532.5 564.5,-532.5"/>
<text text-anchor="middle" x="606" y="-539.5" font-family="Helvetica,sans-Serif" font-size="10.00">v8::Uint32Array</text>
</a>
</g>
</g>
<!-- Node9&#45;&gt;Node16 -->
<g id="edge15" class="edge">
<title>Node9&#45;&gt;Node16</title>
<path fill="none" stroke="midnightblue" d="M491.11,-601.51C505.62,-588.99 526.96,-572.11 548,-561 554.92,-557.35 562.68,-554.2 570.19,-551.58"/>
<polygon fill="midnightblue" stroke="midnightblue" points="488.6,-599.05 483.41,-608.29 493.23,-604.31 488.6,-599.05"/>
</g>
<!-- Node17 -->
<g id="node17" class="node">
<title>Node17</title>
<g id="a_node17"><a xlink:href="classv8_1_1Uint8Array.html" target="_top" xlink:title=" ">
<polygon fill="white" stroke="black" points="567.5,-494.5 567.5,-513.5 644.5,-513.5 644.5,-494.5 567.5,-494.5"/>
<text text-anchor="middle" x="606" y="-501.5" font-family="Helvetica,sans-Serif" font-size="10.00">v8::Uint8Array</text>
</a>
</g>
</g>
<!-- Node9&#45;&gt;Node17 -->
<g id="edge16" class="edge">
<title>Node9&#45;&gt;Node17</title>
<path fill="none" stroke="midnightblue" d="M483.01,-599.65C495.53,-578.31 518.92,-543.42 548,-523 553.81,-518.92 560.55,-515.67 567.32,-513.1"/>
<polygon fill="midnightblue" stroke="midnightblue" points="479.93,-597.98 478.03,-608.4 486.02,-601.43 479.93,-597.98"/>
</g>
<!-- Node18 -->
<g id="node18" class="node">
<title>Node18</title>
<g id="a_node18"><a xlink:href="classv8_1_1Uint8ClampedArray.html" target="_top" xlink:title=" ">
<polygon fill="white" stroke="black" points="548,-456.5 548,-475.5 664,-475.5 664,-456.5 548,-456.5"/>
<text text-anchor="middle" x="606" y="-463.5" font-family="Helvetica,sans-Serif" font-size="10.00">v8::Uint8ClampedArray</text>
</a>
</g>
</g>
<!-- Node9&#45;&gt;Node18 -->
<g id="edge17" class="edge">
<title>Node9&#45;&gt;Node18</title>
<path fill="none" stroke="midnightblue" d="M478.88,-598.67C488.63,-569.83 510.82,-515.66 548,-485 552.67,-481.15 558.15,-478.07 563.83,-475.61"/>
<polygon fill="midnightblue" stroke="midnightblue" points="475.49,-597.79 475.75,-608.38 482.15,-599.94 475.49,-597.79"/>
</g>
<!-- Node33 -->
<g id="node33" class="node">
<title>Node33</title>
<g id="a_node33"><a xlink:href="classv8_1_1Boolean.html" target="_top" xlink:title=" ">
<polygon fill="white" stroke="black" points="307.5,-95.5 307.5,-114.5 374.5,-114.5 374.5,-95.5 307.5,-95.5"/>
<text text-anchor="middle" x="341" y="-102.5" font-family="Helvetica,sans-Serif" font-size="10.00">v8::Boolean</text>
</a>
</g>
</g>
<!-- Node32&#45;&gt;Node33 -->
<g id="edge32" class="edge">
<title>Node32&#45;&gt;Node33</title>
<path fill="none" stroke="midnightblue" d="M260.12,-92.76C275.63,-95.14 292.77,-97.76 307.18,-99.97"/>
<polygon fill="midnightblue" stroke="midnightblue" points="260.63,-89.3 250.21,-91.24 259.57,-96.22 260.63,-89.3"/>
</g>
<!-- Node34 -->
<g id="node34" class="node">
<title>Node34</title>
<g id="a_node34"><a xlink:href="classv8_1_1Name.html" target="_top" xlink:title=" ">
<polygon fill="white" stroke="black" points="312,-57.5 312,-76.5 370,-76.5 370,-57.5 312,-57.5"/>
<text text-anchor="middle" x="341" y="-64.5" font-family="Helvetica,sans-Serif" font-size="10.00">v8::Name</text>
</a>
</g>
</g>
<!-- Node32&#45;&gt;Node34 -->
<g id="edge33" class="edge">
<title>Node32&#45;&gt;Node34</title>
<path fill="none" stroke="midnightblue" d="M260.54,-79.17C277.62,-76.56 296.62,-73.65 311.76,-71.33"/>
<polygon fill="midnightblue" stroke="midnightblue" points="259.57,-75.78 250.21,-80.76 260.63,-82.7 259.57,-75.78"/>
</g>
<!-- Node37 -->
<g id="node37" class="node">
<title>Node37</title>
<g id="a_node37"><a xlink:href="classv8_1_1Number.html" target="_top" xlink:title=" ">
<polygon fill="white" stroke="black" points="308,-19.5 308,-38.5 374,-38.5 374,-19.5 308,-19.5"/>
<text text-anchor="middle" x="341" y="-26.5" font-family="Helvetica,sans-Serif" font-size="10.00">v8::Number</text>
</a>
</g>
</g>
<!-- Node32&#45;&gt;Node37 -->
<g id="edge36" class="edge">
<title>Node32&#45;&gt;Node37</title>
<path fill="none" stroke="midnightblue" d="M240.95,-71.2C254.09,-63.72 270.64,-54.82 286,-48 293.72,-44.57 302.27,-41.33 310.24,-38.52"/>
<polygon fill="midnightblue" stroke="midnightblue" points="238.95,-68.31 232.04,-76.34 242.45,-74.38 238.95,-68.31"/>
</g>
<!-- Node35 -->
<g id="node35" class="node">
<title>Node35</title>
<g id="a_node35"><a xlink:href="classv8_1_1String.html" target="_top" xlink:title=" ">
<polygon fill="white" stroke="black" points="443.5,-95.5 443.5,-114.5 500.5,-114.5 500.5,-95.5 443.5,-95.5"/>
<text text-anchor="middle" x="472" y="-102.5" font-family="Helvetica,sans-Serif" font-size="10.00">v8::String</text>
</a>
</g>
</g>
<!-- Node34&#45;&gt;Node35 -->
<g id="edge34" class="edge">
<title>Node34&#45;&gt;Node35</title>
<path fill="none" stroke="midnightblue" d="M380.16,-78.24C400.38,-84.2 424.78,-91.39 443.2,-96.81"/>
<polygon fill="midnightblue" stroke="midnightblue" points="380.89,-74.81 370.31,-75.34 378.91,-81.52 380.89,-74.81"/>
</g>
<!-- Node36 -->
<g id="node36" class="node">
<title>Node36</title>
<g id="a_node36"><a xlink:href="classv8_1_1Symbol.html" target="_top" xlink:title=" ">
<polygon fill="white" stroke="black" points="440,-57.5 440,-76.5 504,-76.5 504,-57.5 440,-57.5"/>
<text text-anchor="middle" x="472" y="-64.5" font-family="Helvetica,sans-Serif" font-size="10.00">v8::Symbol</text>
</a>
</g>
</g>
<!-- Node34&#45;&gt;Node36 -->
<g id="edge35" class="edge">
<title>Node34&#45;&gt;Node36</title>
<path fill="none" stroke="midnightblue" d="M380.38,-67C399.26,-67 421.74,-67 439.59,-67"/>
<polygon fill="midnightblue" stroke="midnightblue" points="380.31,-63.5 370.31,-67 380.31,-70.5 380.31,-63.5"/>
</g>
<!-- Node38 -->
<g id="node38" class="node">
<title>Node38</title>
<g id="a_node38"><a xlink:href="classv8_1_1Integer.html" target="_top" xlink:title=" ">
<polygon fill="white" stroke="black" points="441,-19.5 441,-38.5 503,-38.5 503,-19.5 441,-19.5"/>
<text text-anchor="middle" x="472" y="-26.5" font-family="Helvetica,sans-Serif" font-size="10.00">v8::Integer</text>
</a>
</g>
</g>
<!-- Node37&#45;&gt;Node38 -->
<g id="edge37" class="edge">
<title>Node37&#45;&gt;Node38</title>
<path fill="none" stroke="midnightblue" d="M384.44,-29C402.92,-29 424.15,-29 440.96,-29"/>
<polygon fill="midnightblue" stroke="midnightblue" points="384.22,-25.5 374.22,-29 384.22,-32.5 384.22,-25.5"/>
</g>
<!-- Node39 -->
<g id="node39" class="node">
<title>Node39</title>
<g id="a_node39"><a xlink:href="classv8_1_1Int32.html" target="_top" xlink:title=" ">
<polygon fill="white" stroke="black" points="579.5,-38.5 579.5,-57.5 632.5,-57.5 632.5,-38.5 579.5,-38.5"/>
<text text-anchor="middle" x="606" y="-45.5" font-family="Helvetica,sans-Serif" font-size="10.00">v8::Int32</text>
</a>
</g>
</g>
<!-- Node38&#45;&gt;Node39 -->
<g id="edge38" class="edge">
<title>Node38&#45;&gt;Node39</title>
<path fill="none" stroke="midnightblue" d="M513.42,-34.82C534.87,-37.91 560.59,-41.61 579.3,-44.3"/>
<polygon fill="midnightblue" stroke="midnightblue" points="513.68,-31.32 503.28,-33.36 512.68,-38.25 513.68,-31.32"/>
</g>
<!-- Node40 -->
<g id="node40" class="node">
<title>Node40</title>
<g id="a_node40"><a xlink:href="classv8_1_1Uint32.html" target="_top" xlink:title=" ">
<polygon fill="white" stroke="black" points="576,-0.5 576,-19.5 636,-19.5 636,-0.5 576,-0.5"/>
<text text-anchor="middle" x="606" y="-7.5" font-family="Helvetica,sans-Serif" font-size="10.00">v8::Uint32</text>
</a>
</g>
</g>
<!-- Node38&#45;&gt;Node40 -->
<g id="edge39" class="edge">
<title>Node38&#45;&gt;Node40</title>
<path fill="none" stroke="midnightblue" d="M513.42,-23.18C533.55,-20.28 557.43,-16.85 575.77,-14.21"/>
<polygon fill="midnightblue" stroke="midnightblue" points="512.68,-19.75 503.28,-24.64 513.68,-26.68 512.68,-19.75"/>
</g>
</g>
</svg>
