<?xml version="1.0" encoding="UTF-8" standalone="no"?>
<!DOCTYPE svg PUBLIC "-//W3C//DTD SVG 1.1//EN"
 "http://www.w3.org/Graphics/SVG/1.1/DTD/svg11.dtd">
<!-- Generated by graphviz version 2.44.0 ()
 -->
<!-- Title: v8::V8::VisitHandlesWithClassIds Pages: 1 -->
<svg width="288pt" height="78pt"
 viewBox="0.00 0.00 288.00 77.50" xmlns="http://www.w3.org/2000/svg" xmlns:xlink="http://www.w3.org/1999/xlink">
<g id="graph0" class="graph" transform="scale(1 1) rotate(0) translate(4 73.5)">
<title>v8::V8::VisitHandlesWithClassIds</title>
<polygon fill="white" stroke="transparent" points="-4,4 -4,-73.5 284,-73.5 284,4 -4,4"/>
<!-- Node1 -->
<g id="node1" class="node">
<title>Node1</title>
<g id="a_node1"><a xlink:title=" ">
<polygon fill="#bfbfbf" stroke="black" points="0,-22.5 0,-52.5 123,-52.5 123,-22.5 0,-22.5"/>
<text text-anchor="start" x="8" y="-40.5" font-family="Helvetica,sans-Serif" font-size="10.00">v8::V8::VisitHandlesWith</text>
<text text-anchor="middle" x="61.5" y="-29.5" font-family="Helvetica,sans-Serif" font-size="10.00">ClassIds</text>
</a>
</g>
</g>
<!-- Node2 -->
<g id="node2" class="node">
<title>Node2</title>
<g id="a_node2"><a xlink:href="classv8_1_1Isolate.html#aa79441b5da4438221d0f38790c4de2ed" target="_top" xlink:title=" ">
<polygon fill="white" stroke="black" points="163,-50 163,-69 276,-69 276,-50 163,-50"/>
<text text-anchor="middle" x="219.5" y="-57" font-family="Helvetica,sans-Serif" font-size="10.00">v8::Isolate::GetCurrent</text>
</a>
</g>
</g>
<!-- Node1&#45;&gt;Node2 -->
<g id="edge1" class="edge">
<title>Node1&#45;&gt;Node2</title>
<path fill="none" stroke="midnightblue" d="M123.26,-46.07C132.98,-47.44 143.07,-48.86 152.89,-50.25"/>
<polygon fill="midnightblue" stroke="midnightblue" points="152.61,-53.74 163,-51.67 153.58,-46.81 152.61,-53.74"/>
</g>
<!-- Node3 -->
<g id="node3" class="node">
<title>Node3</title>
<g id="a_node3"><a xlink:href="classv8_1_1Isolate.html#a8c60c4e0f61250a422ba2336dcd50a75" target="_top" xlink:title=" ">
<polygon fill="white" stroke="black" points="159,-0.5 159,-30.5 280,-30.5 280,-0.5 159,-0.5"/>
<text text-anchor="start" x="167" y="-18.5" font-family="Helvetica,sans-Serif" font-size="10.00">v8::Isolate::VisitHandles</text>
<text text-anchor="middle" x="219.5" y="-7.5" font-family="Helvetica,sans-Serif" font-size="10.00">WithClassIds</text>
</a>
</g>
</g>
<!-- Node1&#45;&gt;Node3 -->
<g id="edge2" class="edge">
<title>Node1&#45;&gt;Node3</title>
<path fill="none" stroke="midnightblue" d="M123.26,-28.93C131.68,-27.74 140.39,-26.52 148.96,-25.31"/>
<polygon fill="midnightblue" stroke="midnightblue" points="149.52,-28.76 158.93,-23.9 148.54,-21.83 149.52,-28.76"/>
</g>
</g>
</svg>
