<?xml version="1.0" encoding="UTF-8" standalone="no"?>
<!DOCTYPE svg PUBLIC "-//W3C//DTD SVG 1.1//EN"
 "http://www.w3.org/Graphics/SVG/1.1/DTD/svg11.dtd">
<!-- Generated by graphviz version 2.44.0 ()
 -->
<!-- Title: v8::Maybe::operator== Pages: 1 -->
<svg width="390pt" height="47pt"
 viewBox="0.00 0.00 390.00 47.00" xmlns="http://www.w3.org/2000/svg" xmlns:xlink="http://www.w3.org/1999/xlink">
<g id="graph0" class="graph" transform="scale(1 1) rotate(0) translate(4 43)">
<title>v8::Maybe::operator==</title>
<polygon fill="white" stroke="transparent" points="-4,4 -4,-43 386,-43 386,4 -4,4"/>
<!-- Node1 -->
<g id="node1" class="node">
<title>Node1</title>
<g id="a_node1"><a xlink:title=" ">
<polygon fill="#bfbfbf" stroke="black" points="0,-0.5 0,-19.5 112,-19.5 112,-0.5 0,-0.5"/>
<text text-anchor="middle" x="56" y="-7.5" font-family="Helvetica,sans-Serif" font-size="10.00">v8::Maybe::operator==</text>
</a>
</g>
</g>
<!-- Node2 -->
<g id="node2" class="node">
<title>Node2</title>
<g id="a_node2"><a xlink:href="classv8_1_1Maybe.html#a95d278637faea00e4b221527a700f30d" target="_top" xlink:title=" ">
<polygon fill="white" stroke="black" points="148,-19.5 148,-38.5 254,-38.5 254,-19.5 148,-19.5"/>
<text text-anchor="middle" x="201" y="-26.5" font-family="Helvetica,sans-Serif" font-size="10.00">v8::Maybe::FromJust</text>
</a>
</g>
</g>
<!-- Node1&#45;&gt;Node2 -->
<g id="edge1" class="edge">
<title>Node1&#45;&gt;Node2</title>
<path fill="none" stroke="midnightblue" d="M112.29,-17.35C120.56,-18.44 129.13,-19.58 137.54,-20.7"/>
<polygon fill="midnightblue" stroke="midnightblue" points="137.3,-24.2 147.67,-22.05 138.22,-17.26 137.3,-24.2"/>
</g>
<!-- Node3 -->
<g id="node3" class="node">
<title>Node3</title>
<g id="a_node3"><a xlink:href="classv8_1_1Maybe.html#ad2eaaef8cd0988f1fc95f2a71c1888c5" target="_top" xlink:title=" ">
<polygon fill="white" stroke="black" points="290,-0.5 290,-19.5 382,-19.5 382,-0.5 290,-0.5"/>
<text text-anchor="middle" x="336" y="-7.5" font-family="Helvetica,sans-Serif" font-size="10.00">v8::Maybe::IsJust</text>
</a>
</g>
</g>
<!-- Node1&#45;&gt;Node3 -->
<g id="edge3" class="edge">
<title>Node1&#45;&gt;Node3</title>
<path fill="none" stroke="midnightblue" d="M112.26,-10C160.89,-10 231.34,-10 279.92,-10"/>
<polygon fill="midnightblue" stroke="midnightblue" points="279.94,-13.5 289.94,-10 279.94,-6.5 279.94,-13.5"/>
</g>
<!-- Node2&#45;&gt;Node3 -->
<g id="edge2" class="edge">
<title>Node2&#45;&gt;Node3</title>
<path fill="none" stroke="midnightblue" d="M254.18,-21.55C262.57,-20.35 271.27,-19.1 279.72,-17.9"/>
<polygon fill="midnightblue" stroke="midnightblue" points="280.46,-21.33 289.86,-16.45 279.47,-14.4 280.46,-21.33"/>
</g>
</g>
</svg>
