<?xml version="1.0" encoding="UTF-8" standalone="no"?>
<!DOCTYPE svg PUBLIC "-//W3C//DTD SVG 1.1//EN"
 "http://www.w3.org/Graphics/SVG/1.1/DTD/svg11.dtd">
<!-- Generated by graphviz version 2.44.0 ()
 -->
<!-- Title: v8::IndexedPropertyHandlerConfiguration Pages: 1 -->
<svg width="592pt" height="263pt"
 viewBox="0.00 0.00 592.00 262.50" xmlns="http://www.w3.org/2000/svg" xmlns:xlink="http://www.w3.org/1999/xlink">
<g id="graph0" class="graph" transform="scale(1 1) rotate(0) translate(4 258.5)">
<title>v8::IndexedPropertyHandlerConfiguration</title>
<polygon fill="white" stroke="transparent" points="-4,4 -4,-258.5 588,-258.5 588,4 -4,4"/>
<!-- Node1 -->
<g id="node1" class="node">
<title>Node1</title>
<g id="a_node1"><a xlink:title=" ">
<polygon fill="#bfbfbf" stroke="black" points="449,-101 449,-131 584,-131 584,-101 449,-101"/>
<text text-anchor="start" x="457" y="-119" font-family="Helvetica,sans-Serif" font-size="10.00">v8::IndexedPropertyHandler</text>
<text text-anchor="middle" x="516.5" y="-108" font-family="Helvetica,sans-Serif" font-size="10.00">Configuration</text>
</a>
</g>
</g>
<!-- Node2 -->
<g id="node2" class="node">
<title>Node2</title>
<g id="a_node2"><a xlink:href="classv8_1_1PropertyCallbackInfo.html" target="_top" xlink:title=" ">
<polygon fill="white" stroke="black" points="239,-224 239,-254 361,-254 361,-224 239,-224"/>
<text text-anchor="start" x="247" y="-242" font-family="Helvetica,sans-Serif" font-size="10.00">v8::PropertyCallbackInfo</text>
<text text-anchor="middle" x="300" y="-231" font-family="Helvetica,sans-Serif" font-size="10.00">&lt; Value &gt;</text>
</a>
</g>
</g>
<!-- Node2&#45;&gt;Node1 -->
<g id="edge1" class="edge">
<title>Node2&#45;&gt;Node1</title>
<path fill="none" stroke="#9a32cd" stroke-dasharray="5,2" d="M349.8,-219.99C353.61,-218.35 357.38,-216.67 361,-215 392.94,-200.22 401.18,-196.68 431,-178 454.44,-163.32 479.83,-144.21 496.6,-131.11"/>
<polygon fill="#9a32cd" stroke="#9a32cd" points="348.17,-216.87 340.31,-223.97 350.88,-223.33 348.17,-216.87"/>
<text text-anchor="middle" x="405" y="-209" font-family="Helvetica,sans-Serif" font-size="10.00"> getter</text>
</g>
<!-- Node3 -->
<g id="node3" class="node">
<title>Node3</title>
<g id="a_node3"><a xlink:href="classv8_1_1PropertyCallbackInfo.html" target="_top" xlink:title=" ">
<polygon fill="white" stroke="black" points="0,-155.5 0,-174.5 144,-174.5 144,-155.5 0,-155.5"/>
<text text-anchor="middle" x="72" y="-162.5" font-family="Helvetica,sans-Serif" font-size="10.00">v8::PropertyCallbackInfo&lt; T &gt;</text>
</a>
</g>
</g>
<!-- Node3&#45;&gt;Node2 -->
<g id="edge2" class="edge">
<title>Node3&#45;&gt;Node2</title>
<path fill="none" stroke="orange" stroke-dasharray="5,2" d="M109.37,-177.96C125.46,-183.61 144.63,-190.25 162,-196 190.99,-205.6 223.61,-215.85 249.74,-223.94"/>
<polygon fill="orange" stroke="orange" points="110.39,-174.6 99.8,-174.58 108.07,-181.21 110.39,-174.6"/>
<text text-anchor="middle" x="191.5" y="-217" font-family="Helvetica,sans-Serif" font-size="10.00"> &lt; Value &gt;</text>
</g>
<!-- Node4 -->
<g id="node4" class="node">
<title>Node4</title>
<g id="a_node4"><a xlink:href="classv8_1_1PropertyCallbackInfo.html" target="_top" xlink:title=" ">
<polygon fill="white" stroke="black" points="239,-175 239,-205 361,-205 361,-175 239,-175"/>
<text text-anchor="start" x="247" y="-193" font-family="Helvetica,sans-Serif" font-size="10.00">v8::PropertyCallbackInfo</text>
<text text-anchor="middle" x="300" y="-182" font-family="Helvetica,sans-Serif" font-size="10.00">&lt; Boolean &gt;</text>
</a>
</g>
</g>
<!-- Node3&#45;&gt;Node4 -->
<g id="edge4" class="edge">
<title>Node3&#45;&gt;Node4</title>
<path fill="none" stroke="orange" stroke-dasharray="5,2" d="M154.33,-174C182.21,-177.08 212.89,-180.47 238.8,-183.34"/>
<polygon fill="orange" stroke="orange" points="154.52,-170.5 144.2,-172.88 153.75,-177.45 154.52,-170.5"/>
<text text-anchor="middle" x="191.5" y="-184" font-family="Helvetica,sans-Serif" font-size="10.00"> &lt; Boolean &gt;</text>
</g>
<!-- Node5 -->
<g id="node5" class="node">
<title>Node5</title>
<g id="a_node5"><a xlink:href="classv8_1_1PropertyCallbackInfo.html" target="_top" xlink:title=" ">
<polygon fill="white" stroke="black" points="239,-126 239,-156 361,-156 361,-126 239,-126"/>
<text text-anchor="start" x="247" y="-144" font-family="Helvetica,sans-Serif" font-size="10.00">v8::PropertyCallbackInfo</text>
<text text-anchor="middle" x="300" y="-133" font-family="Helvetica,sans-Serif" font-size="10.00">&lt; Array &gt;</text>
</a>
</g>
</g>
<!-- Node3&#45;&gt;Node5 -->
<g id="edge6" class="edge">
<title>Node3&#45;&gt;Node5</title>
<path fill="none" stroke="orange" stroke-dasharray="5,2" d="M151.51,-154.21C155.06,-153.79 158.56,-153.38 162,-153 187.15,-150.2 214.97,-147.67 238.92,-145.65"/>
<polygon fill="orange" stroke="orange" points="150.97,-150.75 141.47,-155.44 151.82,-157.7 150.97,-150.75"/>
<text text-anchor="middle" x="191.5" y="-156" font-family="Helvetica,sans-Serif" font-size="10.00"> &lt; Array &gt;</text>
</g>
<!-- Node6 -->
<g id="node6" class="node">
<title>Node6</title>
<g id="a_node6"><a xlink:href="classv8_1_1PropertyCallbackInfo.html" target="_top" xlink:title=" ">
<polygon fill="white" stroke="black" points="239,-77 239,-107 361,-107 361,-77 239,-77"/>
<text text-anchor="start" x="247" y="-95" font-family="Helvetica,sans-Serif" font-size="10.00">v8::PropertyCallbackInfo</text>
<text text-anchor="middle" x="300" y="-84" font-family="Helvetica,sans-Serif" font-size="10.00">&lt; Integer &gt;</text>
</a>
</g>
</g>
<!-- Node3&#45;&gt;Node6 -->
<g id="edge8" class="edge">
<title>Node3&#45;&gt;Node6</title>
<path fill="none" stroke="orange" stroke-dasharray="5,2" d="M107.13,-151.7C123.61,-145.44 143.73,-138.05 162,-132 188.82,-123.13 218.92,-114.22 244.06,-107.08"/>
<polygon fill="orange" stroke="orange" points="105.48,-148.58 97.39,-155.42 107.98,-155.12 105.48,-148.58"/>
<text text-anchor="middle" x="191.5" y="-135" font-family="Helvetica,sans-Serif" font-size="10.00"> &lt; Integer &gt;</text>
</g>
<!-- Node4&#45;&gt;Node1 -->
<g id="edge3" class="edge">
<title>Node4&#45;&gt;Node1</title>
<path fill="none" stroke="#9a32cd" stroke-dasharray="5,2" d="M355.58,-171.73C378.85,-163.89 406.28,-154.57 431,-146 444.83,-141.21 459.89,-135.89 473.42,-131.08"/>
<polygon fill="#9a32cd" stroke="#9a32cd" points="354.24,-168.48 345.88,-174.99 356.47,-175.12 354.24,-168.48"/>
<text text-anchor="middle" x="405" y="-166" font-family="Helvetica,sans-Serif" font-size="10.00"> deleter</text>
</g>
<!-- Node5&#45;&gt;Node1 -->
<g id="edge5" class="edge">
<title>Node5&#45;&gt;Node1</title>
<path fill="none" stroke="#9a32cd" stroke-dasharray="5,2" d="M371.15,-132.82C396.07,-129.92 424.05,-126.66 448.69,-123.79"/>
<polygon fill="#9a32cd" stroke="#9a32cd" points="370.56,-129.37 361.04,-134 371.37,-136.32 370.56,-129.37"/>
<text text-anchor="middle" x="405" y="-134" font-family="Helvetica,sans-Serif" font-size="10.00"> enumerator</text>
</g>
<!-- Node6&#45;&gt;Node1 -->
<g id="edge7" class="edge">
<title>Node6&#45;&gt;Node1</title>
<path fill="none" stroke="#9a32cd" stroke-dasharray="5,2" d="M371.23,-97.85C390.61,-99.63 411.64,-101.73 431,-104 436.74,-104.67 442.69,-105.42 448.66,-106.2"/>
<polygon fill="#9a32cd" stroke="#9a32cd" points="371.53,-94.36 361.26,-96.94 370.9,-101.33 371.53,-94.36"/>
<text text-anchor="middle" x="405" y="-107" font-family="Helvetica,sans-Serif" font-size="10.00"> query</text>
</g>
<!-- Node7 -->
<g id="node7" class="node">
<title>Node7</title>
<g id="a_node7"><a xlink:href="classv8_1_1Local.html" target="_top" xlink:title=" ">
<polygon fill="white" stroke="black" points="251.5,-38.5 251.5,-57.5 348.5,-57.5 348.5,-38.5 251.5,-38.5"/>
<text text-anchor="middle" x="300" y="-45.5" font-family="Helvetica,sans-Serif" font-size="10.00">v8::Local&lt; Value &gt;</text>
</a>
</g>
</g>
<!-- Node7&#45;&gt;Node1 -->
<g id="edge9" class="edge">
<title>Node7&#45;&gt;Node1</title>
<path fill="none" stroke="#9a32cd" stroke-dasharray="5,2" d="M350.63,-60C375.03,-66.25 404.75,-74.37 431,-83 447.16,-88.31 464.72,-95.02 479.63,-100.99"/>
<polygon fill="#9a32cd" stroke="#9a32cd" points="351.43,-56.59 340.87,-57.53 349.71,-63.38 351.43,-56.59"/>
<text text-anchor="middle" x="405" y="-86" font-family="Helvetica,sans-Serif" font-size="10.00"> setter</text>
</g>
<!-- Node8 -->
<g id="node8" class="node">
<title>Node8</title>
<g id="a_node8"><a xlink:href="classv8_1_1Local.html" target="_top" xlink:title=" ">
<polygon fill="white" stroke="black" points="33,-19.5 33,-38.5 111,-38.5 111,-19.5 33,-19.5"/>
<text text-anchor="middle" x="72" y="-26.5" font-family="Helvetica,sans-Serif" font-size="10.00">v8::Local&lt; T &gt;</text>
</a>
</g>
</g>
<!-- Node8&#45;&gt;Node7 -->
<g id="edge10" class="edge">
<title>Node8&#45;&gt;Node7</title>
<path fill="none" stroke="orange" stroke-dasharray="5,2" d="M121.48,-33.08C159.86,-36.3 213.16,-40.78 251.32,-43.99"/>
<polygon fill="orange" stroke="orange" points="121.34,-29.55 111.08,-32.2 120.75,-36.53 121.34,-29.55"/>
<text text-anchor="middle" x="191.5" y="-45" font-family="Helvetica,sans-Serif" font-size="10.00"> &lt; Value &gt;</text>
</g>
<!-- Node9 -->
<g id="node9" class="node">
<title>Node9</title>
<g id="a_node9"><a xlink:href="classv8_1_1Local.html" target="_top" xlink:title=" ">
<polygon fill="white" stroke="black" points="244,-0.5 244,-19.5 356,-19.5 356,-0.5 244,-0.5"/>
<text text-anchor="middle" x="300" y="-7.5" font-family="Helvetica,sans-Serif" font-size="10.00">v8::Local&lt; v8::Value &gt;</text>
</a>
</g>
</g>
<!-- Node8&#45;&gt;Node9 -->
<g id="edge12" class="edge">
<title>Node8&#45;&gt;Node9</title>
<path fill="none" stroke="orange" stroke-dasharray="5,2" d="M121.31,-24.94C157.24,-21.92 206.32,-17.79 243.8,-14.64"/>
<polygon fill="orange" stroke="orange" points="120.75,-21.47 111.08,-25.8 121.34,-28.45 120.75,-21.47"/>
<text text-anchor="middle" x="191.5" y="-25" font-family="Helvetica,sans-Serif" font-size="10.00"> &lt; v8::Value &gt;</text>
</g>
<!-- Node9&#45;&gt;Node1 -->
<g id="edge11" class="edge">
<title>Node9&#45;&gt;Node1</title>
<path fill="none" stroke="#9a32cd" stroke-dasharray="5,2" d="M341.12,-22.56C347.77,-24.68 354.59,-26.89 361,-29 392.23,-39.3 401.91,-37.65 431,-53 456.25,-66.32 482.1,-86.8 498.45,-100.77"/>
<polygon fill="#9a32cd" stroke="#9a32cd" points="342.16,-19.22 331.57,-19.53 340.04,-25.89 342.16,-19.22"/>
<text text-anchor="middle" x="405" y="-56" font-family="Helvetica,sans-Serif" font-size="10.00"> data</text>
</g>
</g>
</svg>
