<?xml version="1.0" encoding="UTF-8" standalone="no"?>
<!DOCTYPE svg PUBLIC "-//W3C//DTD SVG 1.1//EN"
 "http://www.w3.org/Graphics/SVG/1.1/DTD/svg11.dtd">
<!-- Generated by graphviz version 2.44.0 ()
 -->
<!-- Title: v8::Data Pages: 1 -->
<svg width="779pt" height="921pt"
 viewBox="0.00 0.00 779.00 921.00" xmlns="http://www.w3.org/2000/svg" xmlns:xlink="http://www.w3.org/1999/xlink">
<g id="graph0" class="graph" transform="scale(1 1) rotate(0) translate(4 917)">
<title>v8::Data</title>
<polygon fill="white" stroke="transparent" points="-4,4 -4,-917 775,-917 775,4 -4,4"/>
<!-- Node1 -->
<g id="node1" class="node">
<title>Node1</title>
<g id="a_node1"><a xlink:title=" ">
<polygon fill="#bfbfbf" stroke="black" points="0,-570.5 0,-589.5 52,-589.5 52,-570.5 0,-570.5"/>
<text text-anchor="middle" x="26" y="-577.5" font-family="Helvetica,sans-Serif" font-size="10.00">v8::Data</text>
</a>
</g>
</g>
<!-- Node2 -->
<g id="node2" class="node">
<title>Node2</title>
<g id="a_node2"><a xlink:href="classv8_1_1AccessorSignature.html" target="_top" xlink:title=" ">
<polygon fill="white" stroke="black" points="88,-646.5 88,-665.5 202,-665.5 202,-646.5 88,-646.5"/>
<text text-anchor="middle" x="145" y="-653.5" font-family="Helvetica,sans-Serif" font-size="10.00">v8::AccessorSignature</text>
</a>
</g>
</g>
<!-- Node1&#45;&gt;Node2 -->
<g id="edge1" class="edge">
<title>Node1&#45;&gt;Node2</title>
<path fill="none" stroke="midnightblue" d="M41.83,-597.36C53.33,-609.88 70.25,-626.38 88,-637 94.25,-640.74 101.35,-643.87 108.33,-646.44"/>
<polygon fill="midnightblue" stroke="midnightblue" points="44.37,-594.95 35.11,-589.81 39.14,-599.61 44.37,-594.95"/>
</g>
<!-- Node3 -->
<g id="node3" class="node">
<title>Node3</title>
<g id="a_node3"><a xlink:href="classv8_1_1Private.html" target="_top" xlink:title=" ">
<polygon fill="white" stroke="black" points="114,-608.5 114,-627.5 176,-627.5 176,-608.5 114,-608.5"/>
<text text-anchor="middle" x="145" y="-615.5" font-family="Helvetica,sans-Serif" font-size="10.00">v8::Private</text>
</a>
</g>
</g>
<!-- Node1&#45;&gt;Node3 -->
<g id="edge2" class="edge">
<title>Node1&#45;&gt;Node3</title>
<path fill="none" stroke="midnightblue" d="M62.03,-591.38C78.72,-596.8 98.46,-603.21 114.39,-608.38"/>
<polygon fill="midnightblue" stroke="midnightblue" points="62.69,-587.91 52.1,-588.15 60.53,-594.57 62.69,-587.91"/>
</g>
<!-- Node4 -->
<g id="node4" class="node">
<title>Node4</title>
<g id="a_node4"><a xlink:href="classv8_1_1Signature.html" target="_top" xlink:title=" ">
<polygon fill="white" stroke="black" points="108.5,-570.5 108.5,-589.5 181.5,-589.5 181.5,-570.5 108.5,-570.5"/>
<text text-anchor="middle" x="145" y="-577.5" font-family="Helvetica,sans-Serif" font-size="10.00">v8::Signature</text>
</a>
</g>
</g>
<!-- Node1&#45;&gt;Node4 -->
<g id="edge3" class="edge">
<title>Node1&#45;&gt;Node4</title>
<path fill="none" stroke="midnightblue" d="M62.24,-580C76.8,-580 93.67,-580 108.29,-580"/>
<polygon fill="midnightblue" stroke="midnightblue" points="62.1,-576.5 52.1,-580 62.1,-583.5 62.1,-576.5"/>
</g>
<!-- Node5 -->
<g id="node5" class="node">
<title>Node5</title>
<g id="a_node5"><a xlink:href="classv8_1_1Template.html" target="_top" xlink:title=" ">
<polygon fill="white" stroke="black" points="109,-532.5 109,-551.5 181,-551.5 181,-532.5 109,-532.5"/>
<text text-anchor="middle" x="145" y="-539.5" font-family="Helvetica,sans-Serif" font-size="10.00">v8::Template</text>
</a>
</g>
</g>
<!-- Node1&#45;&gt;Node5 -->
<g id="edge4" class="edge">
<title>Node1&#45;&gt;Node5</title>
<path fill="none" stroke="midnightblue" d="M62.03,-568.62C78.72,-563.2 98.46,-556.79 114.39,-551.62"/>
<polygon fill="midnightblue" stroke="midnightblue" points="60.53,-565.43 52.1,-571.85 62.69,-572.09 60.53,-565.43"/>
</g>
<!-- Node8 -->
<g id="node8" class="node">
<title>Node8</title>
<g id="a_node8"><a xlink:href="classv8_1_1Value.html" target="_top" xlink:title=" ">
<polygon fill="white" stroke="black" points="117,-475.5 117,-494.5 173,-494.5 173,-475.5 117,-475.5"/>
<text text-anchor="middle" x="145" y="-482.5" font-family="Helvetica,sans-Serif" font-size="10.00">v8::Value</text>
</a>
</g>
</g>
<!-- Node1&#45;&gt;Node8 -->
<g id="edge7" class="edge">
<title>Node1&#45;&gt;Node8</title>
<path fill="none" stroke="midnightblue" d="M43.6,-563.16C55.52,-551.4 72.21,-535.61 88,-523 101.04,-512.59 116.84,-502.04 128.33,-494.7"/>
<polygon fill="midnightblue" stroke="midnightblue" points="41.12,-560.69 36.51,-570.23 46.06,-565.64 41.12,-560.69"/>
</g>
<!-- Node6 -->
<g id="node6" class="node">
<title>Node6</title>
<g id="a_node6"><a xlink:href="classv8_1_1FunctionTemplate.html" target="_top" xlink:title=" ">
<polygon fill="white" stroke="black" points="238,-570.5 238,-589.5 348,-589.5 348,-570.5 238,-570.5"/>
<text text-anchor="middle" x="293" y="-577.5" font-family="Helvetica,sans-Serif" font-size="10.00">v8::FunctionTemplate</text>
</a>
</g>
</g>
<!-- Node5&#45;&gt;Node6 -->
<g id="edge5" class="edge">
<title>Node5&#45;&gt;Node6</title>
<path fill="none" stroke="midnightblue" d="M191.17,-553.76C211.82,-559.13 235.97,-565.42 255.46,-570.49"/>
<polygon fill="midnightblue" stroke="midnightblue" points="191.9,-550.33 181.34,-551.2 190.14,-557.1 191.9,-550.33"/>
</g>
<!-- Node7 -->
<g id="node7" class="node">
<title>Node7</title>
<g id="a_node7"><a xlink:href="classv8_1_1ObjectTemplate.html" target="_top" xlink:title=" ">
<polygon fill="white" stroke="black" points="242.5,-532.5 242.5,-551.5 343.5,-551.5 343.5,-532.5 242.5,-532.5"/>
<text text-anchor="middle" x="293" y="-539.5" font-family="Helvetica,sans-Serif" font-size="10.00">v8::ObjectTemplate</text>
</a>
</g>
</g>
<!-- Node5&#45;&gt;Node7 -->
<g id="edge6" class="edge">
<title>Node5&#45;&gt;Node7</title>
<path fill="none" stroke="midnightblue" d="M191.6,-542C207.72,-542 225.92,-542 242.36,-542"/>
<polygon fill="midnightblue" stroke="midnightblue" points="191.34,-538.5 181.34,-542 191.34,-545.5 191.34,-538.5"/>
</g>
<!-- Node9 -->
<g id="node9" class="node">
<title>Node9</title>
<g id="a_node9"><a xlink:href="classv8_1_1External.html" target="_top" xlink:title=" ">
<polygon fill="white" stroke="black" points="260,-494.5 260,-513.5 326,-513.5 326,-494.5 260,-494.5"/>
<text text-anchor="middle" x="293" y="-501.5" font-family="Helvetica,sans-Serif" font-size="10.00">v8::External</text>
</a>
</g>
</g>
<!-- Node8&#45;&gt;Node9 -->
<g id="edge8" class="edge">
<title>Node8&#45;&gt;Node9</title>
<path fill="none" stroke="midnightblue" d="M183.16,-489.84C206.87,-492.92 237.29,-496.88 259.94,-499.83"/>
<polygon fill="midnightblue" stroke="midnightblue" points="183.49,-486.35 173.12,-488.53 182.58,-493.29 183.49,-486.35"/>
</g>
<!-- Node10 -->
<g id="node10" class="node">
<title>Node10</title>
<g id="a_node10"><a xlink:href="classv8_1_1Object.html" target="_top" xlink:title=" ">
<polygon fill="white" stroke="black" points="263,-456.5 263,-475.5 323,-475.5 323,-456.5 263,-456.5"/>
<text text-anchor="middle" x="293" y="-463.5" font-family="Helvetica,sans-Serif" font-size="10.00">v8::Object</text>
</a>
</g>
</g>
<!-- Node8&#45;&gt;Node10 -->
<g id="edge9" class="edge">
<title>Node8&#45;&gt;Node10</title>
<path fill="none" stroke="midnightblue" d="M183.22,-480.16C207.92,-476.94 239.89,-472.78 262.77,-469.8"/>
<polygon fill="midnightblue" stroke="midnightblue" points="182.58,-476.71 173.12,-481.47 183.49,-483.65 182.58,-476.71"/>
</g>
<!-- Node42 -->
<g id="node42" class="node">
<title>Node42</title>
<g id="a_node42"><a xlink:href="classv8_1_1Primitive.html" target="_top" xlink:title=" ">
<polygon fill="white" stroke="black" points="258,-76.5 258,-95.5 328,-95.5 328,-76.5 258,-76.5"/>
<text text-anchor="middle" x="293" y="-83.5" font-family="Helvetica,sans-Serif" font-size="10.00">v8::Primitive</text>
</a>
</g>
</g>
<!-- Node8&#45;&gt;Node42 -->
<g id="edge41" class="edge">
<title>Node8&#45;&gt;Node42</title>
<path fill="none" stroke="midnightblue" d="M153.11,-465.56C179.27,-394.07 269.62,-147.17 288.52,-95.52"/>
<polygon fill="midnightblue" stroke="midnightblue" points="149.76,-464.54 149.61,-475.14 156.33,-466.95 149.76,-464.54"/>
</g>
<!-- Node11 -->
<g id="node11" class="node">
<title>Node11</title>
<g id="a_node11"><a xlink:href="classv8_1_1Array.html" target="_top" xlink:title=" ">
<polygon fill="white" stroke="black" points="416.5,-798.5 416.5,-817.5 470.5,-817.5 470.5,-798.5 416.5,-798.5"/>
<text text-anchor="middle" x="443.5" y="-805.5" font-family="Helvetica,sans-Serif" font-size="10.00">v8::Array</text>
</a>
</g>
</g>
<!-- Node10&#45;&gt;Node11 -->
<g id="edge10" class="edge">
<title>Node10&#45;&gt;Node11</title>
<path fill="none" stroke="midnightblue" d="M332.59,-473.53C338.5,-476.25 343.96,-479.96 348,-485 433.04,-591.2 297.68,-683.84 384,-789 391.93,-798.66 404.83,-803.46 416.5,-805.82"/>
<polygon fill="midnightblue" stroke="midnightblue" points="333.67,-470.2 323.08,-470.01 331.24,-476.76 333.67,-470.2"/>
</g>
<!-- Node12 -->
<g id="node12" class="node">
<title>Node12</title>
<g id="a_node12"><a xlink:href="classv8_1_1ArrayBuffer.html" target="_top" xlink:title=" ">
<polygon fill="white" stroke="black" points="403.5,-760.5 403.5,-779.5 483.5,-779.5 483.5,-760.5 403.5,-760.5"/>
<text text-anchor="middle" x="443.5" y="-767.5" font-family="Helvetica,sans-Serif" font-size="10.00">v8::ArrayBuffer</text>
</a>
</g>
</g>
<!-- Node10&#45;&gt;Node12 -->
<g id="edge11" class="edge">
<title>Node10&#45;&gt;Node12</title>
<path fill="none" stroke="midnightblue" d="M332.52,-473.59C338.44,-476.3 343.92,-479.99 348,-485 423.34,-577.5 307.54,-659.42 384,-751 389,-756.98 395.9,-761.1 403.22,-763.93"/>
<polygon fill="midnightblue" stroke="midnightblue" points="333.6,-470.25 323.01,-470.07 331.17,-476.82 333.6,-470.25"/>
</g>
<!-- Node13 -->
<g id="node13" class="node">
<title>Node13</title>
<g id="a_node13"><a xlink:href="classv8_1_1ArrayBufferView.html" target="_top" xlink:title=" ">
<polygon fill="white" stroke="black" points="393,-722.5 393,-741.5 494,-741.5 494,-722.5 393,-722.5"/>
<text text-anchor="middle" x="443.5" y="-729.5" font-family="Helvetica,sans-Serif" font-size="10.00">v8::ArrayBufferView</text>
</a>
</g>
</g>
<!-- Node10&#45;&gt;Node13 -->
<g id="edge12" class="edge">
<title>Node10&#45;&gt;Node13</title>
<path fill="none" stroke="midnightblue" d="M332.61,-473.74C338.47,-476.45 343.91,-480.09 348,-485 413.66,-563.82 317.39,-634.98 384,-713 387.33,-716.9 391.46,-720 395.99,-722.47"/>
<polygon fill="midnightblue" stroke="midnightblue" points="333.79,-470.45 323.19,-470.23 331.34,-477.01 333.79,-470.45"/>
</g>
<!-- Node27 -->
<g id="node27" class="node">
<title>Node27</title>
<g id="a_node27"><a xlink:href="classv8_1_1BigIntObject.html" target="_top" xlink:title=" ">
<polygon fill="white" stroke="black" points="400.5,-684.5 400.5,-703.5 486.5,-703.5 486.5,-684.5 400.5,-684.5"/>
<text text-anchor="middle" x="443.5" y="-691.5" font-family="Helvetica,sans-Serif" font-size="10.00">v8::BigIntObject</text>
</a>
</g>
</g>
<!-- Node10&#45;&gt;Node27 -->
<g id="edge26" class="edge">
<title>Node10&#45;&gt;Node27</title>
<path fill="none" stroke="midnightblue" d="M332.48,-473.85C338.35,-476.54 343.83,-480.15 348,-485 404.01,-550.19 327.2,-610.5 384,-675 388.45,-680.05 394.25,-683.76 400.47,-686.49"/>
<polygon fill="midnightblue" stroke="midnightblue" points="333.66,-470.55 323.06,-470.34 331.21,-477.11 333.66,-470.55"/>
</g>
<!-- Node28 -->
<g id="node28" class="node">
<title>Node28</title>
<g id="a_node28"><a xlink:href="classv8_1_1BooleanObject.html" target="_top" xlink:title=" ">
<polygon fill="white" stroke="black" points="396,-646.5 396,-665.5 491,-665.5 491,-646.5 396,-646.5"/>
<text text-anchor="middle" x="443.5" y="-653.5" font-family="Helvetica,sans-Serif" font-size="10.00">v8::BooleanObject</text>
</a>
</g>
</g>
<!-- Node10&#45;&gt;Node28 -->
<g id="edge27" class="edge">
<title>Node10&#45;&gt;Node28</title>
<path fill="none" stroke="midnightblue" d="M332.89,-474.29C338.56,-476.93 343.87,-480.41 348,-485 394.43,-536.62 336.95,-585.95 384,-637 387.55,-640.85 391.88,-643.92 396.56,-646.37"/>
<polygon fill="midnightblue" stroke="midnightblue" points="333.75,-470.87 323.16,-470.59 331.26,-477.41 333.75,-470.87"/>
</g>
<!-- Node29 -->
<g id="node29" class="node">
<title>Node29</title>
<g id="a_node29"><a xlink:href="classv8_1_1Date.html" target="_top" xlink:title=" ">
<polygon fill="white" stroke="black" points="417.5,-608.5 417.5,-627.5 469.5,-627.5 469.5,-608.5 417.5,-608.5"/>
<text text-anchor="middle" x="443.5" y="-615.5" font-family="Helvetica,sans-Serif" font-size="10.00">v8::Date</text>
</a>
</g>
</g>
<!-- Node10&#45;&gt;Node29 -->
<g id="edge28" class="edge">
<title>Node10&#45;&gt;Node29</title>
<path fill="none" stroke="midnightblue" d="M332.79,-474.63C338.42,-477.23 343.75,-480.61 348,-485 384.96,-523.18 346.58,-561.28 384,-599 392.8,-607.87 405.77,-612.6 417.27,-615.12"/>
<polygon fill="midnightblue" stroke="midnightblue" points="333.73,-471.25 323.14,-470.96 331.24,-477.79 333.73,-471.25"/>
</g>
<!-- Node30 -->
<g id="node30" class="node">
<title>Node30</title>
<g id="a_node30"><a xlink:href="classv8_1_1Function.html" target="_top" xlink:title=" ">
<polygon fill="white" stroke="black" points="409,-570.5 409,-589.5 478,-589.5 478,-570.5 409,-570.5"/>
<text text-anchor="middle" x="443.5" y="-577.5" font-family="Helvetica,sans-Serif" font-size="10.00">v8::Function</text>
</a>
</g>
</g>
<!-- Node10&#45;&gt;Node30 -->
<g id="edge29" class="edge">
<title>Node10&#45;&gt;Node30</title>
<path fill="none" stroke="midnightblue" d="M332.64,-475.31C338.21,-477.82 343.55,-480.99 348,-485 375.77,-510.02 355.93,-536.32 384,-561 390.98,-567.13 399.97,-571.29 408.8,-574.11"/>
<polygon fill="midnightblue" stroke="midnightblue" points="333.76,-471.99 323.17,-471.68 331.25,-478.53 333.76,-471.99"/>
</g>
<!-- Node31 -->
<g id="node31" class="node">
<title>Node31</title>
<g id="a_node31"><a xlink:href="classv8_1_1Map.html" target="_top" xlink:title=" ">
<polygon fill="white" stroke="black" points="418.5,-532.5 418.5,-551.5 468.5,-551.5 468.5,-532.5 418.5,-532.5"/>
<text text-anchor="middle" x="443.5" y="-539.5" font-family="Helvetica,sans-Serif" font-size="10.00">v8::Map</text>
</a>
</g>
</g>
<!-- Node10&#45;&gt;Node31 -->
<g id="edge30" class="edge">
<title>Node10&#45;&gt;Node31</title>
<path fill="none" stroke="midnightblue" d="M332.76,-477.1C338.07,-479.34 343.31,-481.96 348,-485 367.52,-497.66 364.33,-510.58 384,-523 394.38,-529.56 407.24,-534.06 418.26,-537.02"/>
<polygon fill="midnightblue" stroke="midnightblue" points="333.8,-473.75 323.2,-473.47 331.31,-480.29 333.8,-473.75"/>
</g>
<!-- Node32 -->
<g id="node32" class="node">
<title>Node32</title>
<g id="a_node32"><a xlink:href="classv8_1_1NumberObject.html" target="_top" xlink:title=" ">
<polygon fill="white" stroke="black" points="396,-494.5 396,-513.5 491,-513.5 491,-494.5 396,-494.5"/>
<text text-anchor="middle" x="443.5" y="-501.5" font-family="Helvetica,sans-Serif" font-size="10.00">v8::NumberObject</text>
</a>
</g>
</g>
<!-- Node10&#45;&gt;Node32 -->
<g id="edge31" class="edge">
<title>Node10&#45;&gt;Node32</title>
<path fill="none" stroke="midnightblue" d="M333.17,-476.02C355.5,-481.74 383.32,-488.86 405.31,-494.48"/>
<polygon fill="midnightblue" stroke="midnightblue" points="333.89,-472.6 323.34,-473.51 332.16,-479.38 333.89,-472.6"/>
</g>
<!-- Node33 -->
<g id="node33" class="node">
<title>Node33</title>
<g id="a_node33"><a xlink:href="classv8_1_1Promise.html" target="_top" xlink:title=" ">
<polygon fill="white" stroke="black" points="409.5,-456.5 409.5,-475.5 477.5,-475.5 477.5,-456.5 409.5,-456.5"/>
<text text-anchor="middle" x="443.5" y="-463.5" font-family="Helvetica,sans-Serif" font-size="10.00">v8::Promise</text>
</a>
</g>
</g>
<!-- Node10&#45;&gt;Node33 -->
<g id="edge32" class="edge">
<title>Node10&#45;&gt;Node33</title>
<path fill="none" stroke="midnightblue" d="M333.41,-466C357.08,-466 386.87,-466 409.34,-466"/>
<polygon fill="midnightblue" stroke="midnightblue" points="333.34,-462.5 323.34,-466 333.34,-469.5 333.34,-462.5"/>
</g>
<!-- Node34 -->
<g id="node34" class="node">
<title>Node34</title>
<g id="a_node34"><a xlink:href="classv8_1_1Promise_1_1Resolver.html" target="_top" xlink:title=" ">
<polygon fill="white" stroke="black" points="388.5,-418.5 388.5,-437.5 498.5,-437.5 498.5,-418.5 388.5,-418.5"/>
<text text-anchor="middle" x="443.5" y="-425.5" font-family="Helvetica,sans-Serif" font-size="10.00">v8::Promise::Resolver</text>
</a>
</g>
</g>
<!-- Node10&#45;&gt;Node34 -->
<g id="edge33" class="edge">
<title>Node10&#45;&gt;Node34</title>
<path fill="none" stroke="midnightblue" d="M333.17,-455.98C355.5,-450.26 383.32,-443.14 405.31,-437.52"/>
<polygon fill="midnightblue" stroke="midnightblue" points="332.16,-452.62 323.34,-458.49 333.89,-459.4 332.16,-452.62"/>
</g>
<!-- Node35 -->
<g id="node35" class="node">
<title>Node35</title>
<g id="a_node35"><a xlink:href="classv8_1_1Proxy.html" target="_top" xlink:title=" ">
<polygon fill="white" stroke="black" points="415.5,-380.5 415.5,-399.5 471.5,-399.5 471.5,-380.5 415.5,-380.5"/>
<text text-anchor="middle" x="443.5" y="-387.5" font-family="Helvetica,sans-Serif" font-size="10.00">v8::Proxy</text>
</a>
</g>
</g>
<!-- Node10&#45;&gt;Node35 -->
<g id="edge34" class="edge">
<title>Node10&#45;&gt;Node35</title>
<path fill="none" stroke="midnightblue" d="M315.25,-450.38C332.96,-437.91 359.2,-420.66 384,-409 393.95,-404.32 405.37,-400.33 415.46,-397.24"/>
<polygon fill="midnightblue" stroke="midnightblue" points="312.92,-447.75 306.82,-456.41 316.99,-453.44 312.92,-447.75"/>
</g>
<!-- Node36 -->
<g id="node36" class="node">
<title>Node36</title>
<g id="a_node36"><a xlink:href="classv8_1_1RegExp.html" target="_top" xlink:title=" ">
<polygon fill="white" stroke="black" points="411,-342.5 411,-361.5 476,-361.5 476,-342.5 411,-342.5"/>
<text text-anchor="middle" x="443.5" y="-349.5" font-family="Helvetica,sans-Serif" font-size="10.00">v8::RegExp</text>
</a>
</g>
</g>
<!-- Node10&#45;&gt;Node36 -->
<g id="edge35" class="edge">
<title>Node10&#45;&gt;Node36</title>
<path fill="none" stroke="midnightblue" d="M306.42,-448.26C322.16,-427.01 351.22,-391.7 384,-371 392.13,-365.87 401.77,-362 410.86,-359.13"/>
<polygon fill="midnightblue" stroke="midnightblue" points="303.54,-446.26 300.51,-456.42 309.21,-450.37 303.54,-446.26"/>
</g>
<!-- Node37 -->
<g id="node37" class="node">
<title>Node37</title>
<g id="a_node37"><a xlink:href="classv8_1_1Set.html" target="_top" xlink:title=" ">
<polygon fill="white" stroke="black" points="420,-304.5 420,-323.5 467,-323.5 467,-304.5 420,-304.5"/>
<text text-anchor="middle" x="443.5" y="-311.5" font-family="Helvetica,sans-Serif" font-size="10.00">v8::Set</text>
</a>
</g>
</g>
<!-- Node10&#45;&gt;Node37 -->
<g id="edge36" class="edge">
<title>Node10&#45;&gt;Node37</title>
<path fill="none" stroke="midnightblue" d="M301.92,-447.01C314.89,-418.2 343.32,-363.6 384,-333 394.41,-325.17 408.18,-320.49 419.75,-317.73"/>
<polygon fill="midnightblue" stroke="midnightblue" points="298.64,-445.79 297.85,-456.36 305.05,-448.59 298.64,-445.79"/>
</g>
<!-- Node38 -->
<g id="node38" class="node">
<title>Node38</title>
<g id="a_node38"><a xlink:href="classv8_1_1SharedArrayBuffer.html" target="_top" xlink:title=" ">
<polygon fill="white" stroke="black" points="388.5,-266.5 388.5,-285.5 498.5,-285.5 498.5,-266.5 388.5,-266.5"/>
<text text-anchor="middle" x="443.5" y="-273.5" font-family="Helvetica,sans-Serif" font-size="10.00">v8::SharedArrayBuffer</text>
</a>
</g>
</g>
<!-- Node10&#45;&gt;Node38 -->
<g id="edge37" class="edge">
<title>Node10&#45;&gt;Node38</title>
<path fill="none" stroke="midnightblue" d="M299.08,-446.17C309.18,-410.68 335.15,-336.16 384,-295 388.57,-291.15 393.94,-288.07 399.55,-285.61"/>
<polygon fill="midnightblue" stroke="midnightblue" points="295.59,-445.67 296.35,-456.23 302.35,-447.5 295.59,-445.67"/>
</g>
<!-- Node39 -->
<g id="node39" class="node">
<title>Node39</title>
<g id="a_node39"><a xlink:href="classv8_1_1StringObject.html" target="_top" xlink:title=" ">
<polygon fill="white" stroke="black" points="400.5,-228.5 400.5,-247.5 486.5,-247.5 486.5,-228.5 400.5,-228.5"/>
<text text-anchor="middle" x="443.5" y="-235.5" font-family="Helvetica,sans-Serif" font-size="10.00">v8::StringObject</text>
</a>
</g>
</g>
<!-- Node10&#45;&gt;Node39 -->
<g id="edge38" class="edge">
<title>Node10&#45;&gt;Node39</title>
<path fill="none" stroke="midnightblue" d="M296.92,-446.44C304.09,-405.35 326.35,-309.54 384,-257 388.74,-252.68 394.46,-249.35 400.46,-246.77"/>
<polygon fill="midnightblue" stroke="midnightblue" points="293.44,-446.06 295.29,-456.5 300.35,-447.19 293.44,-446.06"/>
</g>
<!-- Node40 -->
<g id="node40" class="node">
<title>Node40</title>
<g id="a_node40"><a xlink:href="classv8_1_1SymbolObject.html" target="_top" xlink:title=" ">
<polygon fill="white" stroke="black" points="397.5,-190.5 397.5,-209.5 489.5,-209.5 489.5,-190.5 397.5,-190.5"/>
<text text-anchor="middle" x="443.5" y="-197.5" font-family="Helvetica,sans-Serif" font-size="10.00">v8::SymbolObject</text>
</a>
</g>
</g>
<!-- Node10&#45;&gt;Node40 -->
<g id="edge39" class="edge">
<title>Node10&#45;&gt;Node40</title>
<path fill="none" stroke="midnightblue" d="M295.48,-446.14C300,-399.67 317.7,-282.99 384,-219 388,-215.14 392.78,-212.07 397.87,-209.62"/>
<polygon fill="midnightblue" stroke="midnightblue" points="291.97,-446.1 294.59,-456.36 298.94,-446.7 291.97,-446.1"/>
</g>
<!-- Node41 -->
<g id="node41" class="node">
<title>Node41</title>
<g id="a_node41"><a xlink:href="classv8_1_1WasmModuleObject.html" target="_top" xlink:title=" ">
<polygon fill="white" stroke="black" points="384,-152.5 384,-171.5 503,-171.5 503,-152.5 384,-152.5"/>
<text text-anchor="middle" x="443.5" y="-159.5" font-family="Helvetica,sans-Serif" font-size="10.00">v8::WasmModuleObject</text>
</a>
</g>
</g>
<!-- Node10&#45;&gt;Node41 -->
<g id="edge40" class="edge">
<title>Node10&#45;&gt;Node41</title>
<path fill="none" stroke="midnightblue" d="M294.35,-446.26C296.33,-395.09 308.75,-256.86 384,-181 387.84,-177.13 392.46,-174.05 397.42,-171.6"/>
<polygon fill="midnightblue" stroke="midnightblue" points="290.85,-446.21 294.05,-456.31 297.84,-446.42 290.85,-446.21"/>
</g>
<!-- Node14 -->
<g id="node14" class="node">
<title>Node14</title>
<g id="a_node14"><a xlink:href="classv8_1_1DataView.html" target="_top" xlink:title=" ">
<polygon fill="white" stroke="black" points="542,-741.5 542,-760.5 616,-760.5 616,-741.5 542,-741.5"/>
<text text-anchor="middle" x="579" y="-748.5" font-family="Helvetica,sans-Serif" font-size="10.00">v8::DataView</text>
</a>
</g>
</g>
<!-- Node13&#45;&gt;Node14 -->
<g id="edge13" class="edge">
<title>Node13&#45;&gt;Node14</title>
<path fill="none" stroke="midnightblue" d="M504.3,-740.51C517.02,-742.32 530.07,-744.18 541.6,-745.82"/>
<polygon fill="midnightblue" stroke="midnightblue" points="504.6,-737.02 494.21,-739.07 503.62,-743.95 504.6,-737.02"/>
</g>
<!-- Node15 -->
<g id="node15" class="node">
<title>Node15</title>
<g id="a_node15"><a xlink:href="classv8_1_1TypedArray.html" target="_top" xlink:title=" ">
<polygon fill="white" stroke="black" points="539,-703.5 539,-722.5 619,-722.5 619,-703.5 539,-703.5"/>
<text text-anchor="middle" x="579" y="-710.5" font-family="Helvetica,sans-Serif" font-size="10.00">v8::TypedArray</text>
</a>
</g>
</g>
<!-- Node13&#45;&gt;Node15 -->
<g id="edge14" class="edge">
<title>Node13&#45;&gt;Node15</title>
<path fill="none" stroke="midnightblue" d="M504.33,-723.48C515.97,-721.83 527.9,-720.13 538.67,-718.6"/>
<polygon fill="midnightblue" stroke="midnightblue" points="503.62,-720.05 494.21,-724.93 504.6,-726.98 503.62,-720.05"/>
</g>
<!-- Node16 -->
<g id="node16" class="node">
<title>Node16</title>
<g id="a_node16"><a xlink:href="classv8_1_1BigInt64Array.html" target="_top" xlink:title=" ">
<polygon fill="white" stroke="black" points="668,-893.5 668,-912.5 758,-912.5 758,-893.5 668,-893.5"/>
<text text-anchor="middle" x="713" y="-900.5" font-family="Helvetica,sans-Serif" font-size="10.00">v8::BigInt64Array</text>
</a>
</g>
</g>
<!-- Node15&#45;&gt;Node16 -->
<g id="edge15" class="edge">
<title>Node15&#45;&gt;Node16</title>
<path fill="none" stroke="midnightblue" d="M615.92,-728.67C617.03,-729.72 618.06,-730.82 619,-732 662.38,-786.2 608.15,-832.77 655,-884 658.59,-887.93 663.01,-891.04 667.79,-893.51"/>
<polygon fill="midnightblue" stroke="midnightblue" points="617.94,-725.81 607.82,-722.68 613.78,-731.44 617.94,-725.81"/>
</g>
<!-- Node17 -->
<g id="node17" class="node">
<title>Node17</title>
<g id="a_node17"><a xlink:href="classv8_1_1BigUint64Array.html" target="_top" xlink:title=" ">
<polygon fill="white" stroke="black" points="664.5,-855.5 664.5,-874.5 761.5,-874.5 761.5,-855.5 664.5,-855.5"/>
<text text-anchor="middle" x="713" y="-862.5" font-family="Helvetica,sans-Serif" font-size="10.00">v8::BigUint64Array</text>
</a>
</g>
</g>
<!-- Node15&#45;&gt;Node17 -->
<g id="edge16" class="edge">
<title>Node15&#45;&gt;Node17</title>
<path fill="none" stroke="midnightblue" d="M615.71,-728.67C616.88,-729.71 617.99,-730.82 619,-732 653.7,-772.24 617.73,-808.13 655,-846 658.8,-849.87 663.42,-852.95 668.35,-855.4"/>
<polygon fill="midnightblue" stroke="midnightblue" points="617.38,-725.56 607.2,-722.64 613.34,-731.28 617.38,-725.56"/>
</g>
<!-- Node18 -->
<g id="node18" class="node">
<title>Node18</title>
<g id="a_node18"><a xlink:href="classv8_1_1Float32Array.html" target="_top" xlink:title=" ">
<polygon fill="white" stroke="black" points="670,-817.5 670,-836.5 756,-836.5 756,-817.5 670,-817.5"/>
<text text-anchor="middle" x="713" y="-824.5" font-family="Helvetica,sans-Serif" font-size="10.00">v8::Float32Array</text>
</a>
</g>
</g>
<!-- Node15&#45;&gt;Node18 -->
<g id="edge17" class="edge">
<title>Node15&#45;&gt;Node18</title>
<path fill="none" stroke="midnightblue" d="M614.49,-728.05C616.09,-729.28 617.61,-730.59 619,-732 645.28,-758.57 627.03,-783.21 655,-808 659.37,-811.87 664.56,-814.96 669.99,-817.42"/>
<polygon fill="midnightblue" stroke="midnightblue" points="616.28,-725.03 605.98,-722.58 612.5,-730.93 616.28,-725.03"/>
</g>
<!-- Node19 -->
<g id="node19" class="node">
<title>Node19</title>
<g id="a_node19"><a xlink:href="classv8_1_1Float64Array.html" target="_top" xlink:title=" ">
<polygon fill="white" stroke="black" points="670,-779.5 670,-798.5 756,-798.5 756,-779.5 670,-779.5"/>
<text text-anchor="middle" x="713" y="-786.5" font-family="Helvetica,sans-Serif" font-size="10.00">v8::Float64Array</text>
</a>
</g>
</g>
<!-- Node15&#45;&gt;Node19 -->
<g id="edge18" class="edge">
<title>Node15&#45;&gt;Node19</title>
<path fill="none" stroke="midnightblue" d="M612.01,-727.4C614.44,-728.85 616.8,-730.39 619,-732 637.76,-745.76 635.38,-757.5 655,-770 660.98,-773.81 667.81,-776.94 674.61,-779.47"/>
<polygon fill="midnightblue" stroke="midnightblue" points="613.52,-724.24 603.07,-722.54 610.18,-730.39 613.52,-724.24"/>
</g>
<!-- Node20 -->
<g id="node20" class="node">
<title>Node20</title>
<g id="a_node20"><a xlink:href="classv8_1_1Int16Array.html" target="_top" xlink:title=" ">
<polygon fill="white" stroke="black" points="675,-741.5 675,-760.5 751,-760.5 751,-741.5 675,-741.5"/>
<text text-anchor="middle" x="713" y="-748.5" font-family="Helvetica,sans-Serif" font-size="10.00">v8::Int16Array</text>
</a>
</g>
</g>
<!-- Node15&#45;&gt;Node20 -->
<g id="edge19" class="edge">
<title>Node15&#45;&gt;Node20</title>
<path fill="none" stroke="midnightblue" d="M623.04,-725.39C641.12,-730.59 661.82,-736.55 678.7,-741.41"/>
<polygon fill="midnightblue" stroke="midnightblue" points="623.89,-721.99 613.31,-722.59 621.95,-728.72 623.89,-721.99"/>
</g>
<!-- Node21 -->
<g id="node21" class="node">
<title>Node21</title>
<g id="a_node21"><a xlink:href="classv8_1_1Int32Array.html" target="_top" xlink:title=" ">
<polygon fill="white" stroke="black" points="675,-703.5 675,-722.5 751,-722.5 751,-703.5 675,-703.5"/>
<text text-anchor="middle" x="713" y="-710.5" font-family="Helvetica,sans-Serif" font-size="10.00">v8::Int32Array</text>
</a>
</g>
</g>
<!-- Node15&#45;&gt;Node21 -->
<g id="edge20" class="edge">
<title>Node15&#45;&gt;Node21</title>
<path fill="none" stroke="midnightblue" d="M629.45,-713C644.52,-713 660.83,-713 674.94,-713"/>
<polygon fill="midnightblue" stroke="midnightblue" points="629.25,-709.5 619.25,-713 629.25,-716.5 629.25,-709.5"/>
</g>
<!-- Node22 -->
<g id="node22" class="node">
<title>Node22</title>
<g id="a_node22"><a xlink:href="classv8_1_1Int8Array.html" target="_top" xlink:title=" ">
<polygon fill="white" stroke="black" points="677.5,-665.5 677.5,-684.5 748.5,-684.5 748.5,-665.5 677.5,-665.5"/>
<text text-anchor="middle" x="713" y="-672.5" font-family="Helvetica,sans-Serif" font-size="10.00">v8::Int8Array</text>
</a>
</g>
</g>
<!-- Node15&#45;&gt;Node22 -->
<g id="edge21" class="edge">
<title>Node15&#45;&gt;Node22</title>
<path fill="none" stroke="midnightblue" d="M623.04,-700.61C641.12,-695.41 661.82,-689.45 678.7,-684.59"/>
<polygon fill="midnightblue" stroke="midnightblue" points="621.95,-697.28 613.31,-703.41 623.89,-704.01 621.95,-697.28"/>
</g>
<!-- Node23 -->
<g id="node23" class="node">
<title>Node23</title>
<g id="a_node23"><a xlink:href="classv8_1_1Uint16Array.html" target="_top" xlink:title=" ">
<polygon fill="white" stroke="black" points="671.5,-627.5 671.5,-646.5 754.5,-646.5 754.5,-627.5 671.5,-627.5"/>
<text text-anchor="middle" x="713" y="-634.5" font-family="Helvetica,sans-Serif" font-size="10.00">v8::Uint16Array</text>
</a>
</g>
</g>
<!-- Node15&#45;&gt;Node23 -->
<g id="edge22" class="edge">
<title>Node15&#45;&gt;Node23</title>
<path fill="none" stroke="midnightblue" d="M598.11,-696.51C612.62,-683.99 633.96,-667.11 655,-656 661.92,-652.35 669.68,-649.2 677.19,-646.58"/>
<polygon fill="midnightblue" stroke="midnightblue" points="595.6,-694.05 590.41,-703.29 600.23,-699.31 595.6,-694.05"/>
</g>
<!-- Node24 -->
<g id="node24" class="node">
<title>Node24</title>
<g id="a_node24"><a xlink:href="classv8_1_1Uint32Array.html" target="_top" xlink:title=" ">
<polygon fill="white" stroke="black" points="671.5,-589.5 671.5,-608.5 754.5,-608.5 754.5,-589.5 671.5,-589.5"/>
<text text-anchor="middle" x="713" y="-596.5" font-family="Helvetica,sans-Serif" font-size="10.00">v8::Uint32Array</text>
</a>
</g>
</g>
<!-- Node15&#45;&gt;Node24 -->
<g id="edge23" class="edge">
<title>Node15&#45;&gt;Node24</title>
<path fill="none" stroke="midnightblue" d="M590.01,-694.65C602.53,-673.31 625.92,-638.42 655,-618 660.46,-614.16 666.76,-611.06 673.13,-608.56"/>
<polygon fill="midnightblue" stroke="midnightblue" points="586.93,-692.98 585.03,-703.4 593.02,-696.43 586.93,-692.98"/>
</g>
<!-- Node25 -->
<g id="node25" class="node">
<title>Node25</title>
<g id="a_node25"><a xlink:href="classv8_1_1Uint8Array.html" target="_top" xlink:title=" ">
<polygon fill="white" stroke="black" points="674.5,-551.5 674.5,-570.5 751.5,-570.5 751.5,-551.5 674.5,-551.5"/>
<text text-anchor="middle" x="713" y="-558.5" font-family="Helvetica,sans-Serif" font-size="10.00">v8::Uint8Array</text>
</a>
</g>
</g>
<!-- Node15&#45;&gt;Node25 -->
<g id="edge24" class="edge">
<title>Node15&#45;&gt;Node25</title>
<path fill="none" stroke="midnightblue" d="M585.88,-693.67C595.63,-664.83 617.82,-610.66 655,-580 660.63,-575.35 667.45,-571.83 674.38,-569.16"/>
<polygon fill="midnightblue" stroke="midnightblue" points="582.49,-692.79 582.75,-703.38 589.15,-694.94 582.49,-692.79"/>
</g>
<!-- Node26 -->
<g id="node26" class="node">
<title>Node26</title>
<g id="a_node26"><a xlink:href="classv8_1_1Uint8ClampedArray.html" target="_top" xlink:title=" ">
<polygon fill="white" stroke="black" points="655,-513.5 655,-532.5 771,-532.5 771,-513.5 655,-513.5"/>
<text text-anchor="middle" x="713" y="-520.5" font-family="Helvetica,sans-Serif" font-size="10.00">v8::Uint8ClampedArray</text>
</a>
</g>
</g>
<!-- Node15&#45;&gt;Node26 -->
<g id="edge25" class="edge">
<title>Node15&#45;&gt;Node26</title>
<path fill="none" stroke="midnightblue" d="M583.27,-693.26C590.15,-657.91 609.4,-583.6 655,-542 659.24,-538.13 664.29,-535.05 669.6,-532.59"/>
<polygon fill="midnightblue" stroke="midnightblue" points="579.79,-692.82 581.45,-703.28 586.68,-694.06 579.79,-692.82"/>
</g>
<!-- Node43 -->
<g id="node43" class="node">
<title>Node43</title>
<g id="a_node43"><a xlink:href="classv8_1_1BigInt.html" target="_top" xlink:title=" ">
<polygon fill="white" stroke="black" points="415,-114.5 415,-133.5 472,-133.5 472,-114.5 415,-114.5"/>
<text text-anchor="middle" x="443.5" y="-121.5" font-family="Helvetica,sans-Serif" font-size="10.00">v8::BigInt</text>
</a>
</g>
</g>
<!-- Node42&#45;&gt;Node43 -->
<g id="edge42" class="edge">
<title>Node42&#45;&gt;Node43</title>
<path fill="none" stroke="midnightblue" d="M337.97,-97.25C362.77,-103.6 393,-111.33 414.56,-116.85"/>
<polygon fill="midnightblue" stroke="midnightblue" points="338.62,-93.81 328.07,-94.72 336.89,-100.59 338.62,-93.81"/>
</g>
<!-- Node44 -->
<g id="node44" class="node">
<title>Node44</title>
<g id="a_node44"><a xlink:href="classv8_1_1Boolean.html" target="_top" xlink:title=" ">
<polygon fill="white" stroke="black" points="410,-76.5 410,-95.5 477,-95.5 477,-76.5 410,-76.5"/>
<text text-anchor="middle" x="443.5" y="-83.5" font-family="Helvetica,sans-Serif" font-size="10.00">v8::Boolean</text>
</a>
</g>
</g>
<!-- Node42&#45;&gt;Node44 -->
<g id="edge43" class="edge">
<title>Node42&#45;&gt;Node44</title>
<path fill="none" stroke="midnightblue" d="M338.27,-86C361.25,-86 388.84,-86 409.86,-86"/>
<polygon fill="midnightblue" stroke="midnightblue" points="338.07,-82.5 328.07,-86 338.07,-89.5 338.07,-82.5"/>
</g>
<!-- Node45 -->
<g id="node45" class="node">
<title>Node45</title>
<g id="a_node45"><a xlink:href="classv8_1_1Name.html" target="_top" xlink:title=" ">
<polygon fill="white" stroke="black" points="414.5,-38.5 414.5,-57.5 472.5,-57.5 472.5,-38.5 414.5,-38.5"/>
<text text-anchor="middle" x="443.5" y="-45.5" font-family="Helvetica,sans-Serif" font-size="10.00">v8::Name</text>
</a>
</g>
</g>
<!-- Node42&#45;&gt;Node45 -->
<g id="edge44" class="edge">
<title>Node42&#45;&gt;Node45</title>
<path fill="none" stroke="midnightblue" d="M337.9,-74.77C362.53,-68.46 392.53,-60.79 414.08,-55.27"/>
<polygon fill="midnightblue" stroke="midnightblue" points="336.89,-71.41 328.07,-77.28 338.62,-78.19 336.89,-71.41"/>
</g>
<!-- Node48 -->
<g id="node48" class="node">
<title>Node48</title>
<g id="a_node48"><a xlink:href="classv8_1_1Number.html" target="_top" xlink:title=" ">
<polygon fill="white" stroke="black" points="410.5,-0.5 410.5,-19.5 476.5,-19.5 476.5,-0.5 410.5,-0.5"/>
<text text-anchor="middle" x="443.5" y="-7.5" font-family="Helvetica,sans-Serif" font-size="10.00">v8::Number</text>
</a>
</g>
</g>
<!-- Node42&#45;&gt;Node48 -->
<g id="edge47" class="edge">
<title>Node42&#45;&gt;Node48</title>
<path fill="none" stroke="midnightblue" d="M315.25,-70.38C332.96,-57.91 359.2,-40.66 384,-29 392.31,-25.09 401.64,-21.67 410.37,-18.84"/>
<polygon fill="midnightblue" stroke="midnightblue" points="312.92,-67.75 306.82,-76.41 316.99,-73.44 312.92,-67.75"/>
</g>
<!-- Node46 -->
<g id="node46" class="node">
<title>Node46</title>
<g id="a_node46"><a xlink:href="classv8_1_1String.html" target="_top" xlink:title=" ">
<polygon fill="white" stroke="black" points="550.5,-76.5 550.5,-95.5 607.5,-95.5 607.5,-76.5 550.5,-76.5"/>
<text text-anchor="middle" x="579" y="-83.5" font-family="Helvetica,sans-Serif" font-size="10.00">v8::String</text>
</a>
</g>
</g>
<!-- Node45&#45;&gt;Node46 -->
<g id="edge45" class="edge">
<title>Node45&#45;&gt;Node46</title>
<path fill="none" stroke="midnightblue" d="M482.63,-58.85C504.17,-64.98 530.61,-72.51 550.19,-78.08"/>
<polygon fill="midnightblue" stroke="midnightblue" points="483.39,-55.43 472.81,-56.06 481.47,-62.16 483.39,-55.43"/>
</g>
<!-- Node47 -->
<g id="node47" class="node">
<title>Node47</title>
<g id="a_node47"><a xlink:href="classv8_1_1Symbol.html" target="_top" xlink:title=" ">
<polygon fill="white" stroke="black" points="547,-38.5 547,-57.5 611,-57.5 611,-38.5 547,-38.5"/>
<text text-anchor="middle" x="579" y="-45.5" font-family="Helvetica,sans-Serif" font-size="10.00">v8::Symbol</text>
</a>
</g>
</g>
<!-- Node45&#45;&gt;Node47 -->
<g id="edge46" class="edge">
<title>Node45&#45;&gt;Node47</title>
<path fill="none" stroke="midnightblue" d="M482.99,-48C503.28,-48 527.86,-48 546.93,-48"/>
<polygon fill="midnightblue" stroke="midnightblue" points="482.81,-44.5 472.81,-48 482.81,-51.5 482.81,-44.5"/>
</g>
<!-- Node49 -->
<g id="node49" class="node">
<title>Node49</title>
<g id="a_node49"><a xlink:href="classv8_1_1Integer.html" target="_top" xlink:title=" ">
<polygon fill="white" stroke="red" points="548,-0.5 548,-19.5 610,-19.5 610,-0.5 548,-0.5"/>
<text text-anchor="middle" x="579" y="-7.5" font-family="Helvetica,sans-Serif" font-size="10.00">v8::Integer</text>
</a>
</g>
</g>
<!-- Node48&#45;&gt;Node49 -->
<g id="edge48" class="edge">
<title>Node48&#45;&gt;Node49</title>
<path fill="none" stroke="midnightblue" d="M486.83,-10C506.65,-10 529.8,-10 547.81,-10"/>
<polygon fill="midnightblue" stroke="midnightblue" points="486.82,-6.5 476.82,-10 486.82,-13.5 486.82,-6.5"/>
</g>
</g>
</svg>
