<?xml version="1.0" encoding="UTF-8" standalone="no"?>
<!DOCTYPE svg PUBLIC "-//W3C//DTD SVG 1.1//EN"
 "http://www.w3.org/Graphics/SVG/1.1/DTD/svg11.dtd">
<!-- Generated by graphviz version 2.44.0 ()
 -->
<!-- Title: v8::Object::GetInternalField Pages: 1 -->
<svg width="332pt" height="78pt"
 viewBox="0.00 0.00 332.00 77.50" xmlns="http://www.w3.org/2000/svg" xmlns:xlink="http://www.w3.org/1999/xlink">
<g id="graph0" class="graph" transform="scale(1 1) rotate(0) translate(4 73.5)">
<title>v8::Object::GetInternalField</title>
<polygon fill="white" stroke="transparent" points="-4,4 -4,-73.5 328,-73.5 328,4 -4,4"/>
<!-- Node1 -->
<g id="node1" class="node">
<title>Node1</title>
<g id="a_node1"><a xlink:title=" ">
<polygon fill="#bfbfbf" stroke="black" points="0,-28 0,-47 134,-47 134,-28 0,-28"/>
<text text-anchor="middle" x="67" y="-35" font-family="Helvetica,sans-Serif" font-size="10.00">v8::Object::GetInternalField</text>
</a>
</g>
</g>
<!-- Node2 -->
<g id="node2" class="node">
<title>Node2</title>
<g id="a_node2"><a xlink:href="classv8_1_1HandleScope.html#a1dfeb02024b2b75746a1aa1f0b2e94fa" target="_top" xlink:title=" ">
<polygon fill="white" stroke="black" points="170,-50 170,-69 324,-69 324,-50 170,-50"/>
<text text-anchor="middle" x="247" y="-57" font-family="Helvetica,sans-Serif" font-size="10.00">v8::HandleScope::CreateHandle</text>
</a>
</g>
</g>
<!-- Node1&#45;&gt;Node2 -->
<g id="edge1" class="edge">
<title>Node1&#45;&gt;Node2</title>
<path fill="none" stroke="midnightblue" d="M134.03,-45.66C142.42,-46.7 151.1,-47.77 159.75,-48.84"/>
<polygon fill="midnightblue" stroke="midnightblue" points="159.52,-52.34 169.87,-50.09 160.37,-45.39 159.52,-52.34"/>
</g>
<!-- Node3 -->
<g id="node3" class="node">
<title>Node3</title>
<g id="a_node3"><a xlink:href="namespacev8_1_1internal.html#a0fd6c7fcb9cbf8cd7811487aee5b09b5" target="_top" xlink:title=" ">
<polygon fill="white" stroke="black" points="176.5,-0.5 176.5,-30.5 317.5,-30.5 317.5,-0.5 176.5,-0.5"/>
<text text-anchor="start" x="184.5" y="-18.5" font-family="Helvetica,sans-Serif" font-size="10.00">v8::internal::IsolateFrom</text>
<text text-anchor="middle" x="247" y="-7.5" font-family="Helvetica,sans-Serif" font-size="10.00">NeverReadOnlySpaceObject</text>
</a>
</g>
</g>
<!-- Node1&#45;&gt;Node3 -->
<g id="edge2" class="edge">
<title>Node1&#45;&gt;Node3</title>
<path fill="none" stroke="midnightblue" d="M134.03,-29.34C144.45,-28.05 155.32,-26.71 166.02,-25.39"/>
<polygon fill="midnightblue" stroke="midnightblue" points="166.71,-28.83 176.2,-24.13 165.85,-21.88 166.71,-28.83"/>
</g>
</g>
</svg>
