<?xml version="1.0" encoding="UTF-8" standalone="no"?>
<!DOCTYPE svg PUBLIC "-//W3C//DTD SVG 1.1//EN"
 "http://www.w3.org/Graphics/SVG/1.1/DTD/svg11.dtd">
<!-- Generated by graphviz version 2.44.0 ()
 -->
<!-- Title: v8::Isolate::CreateParams Pages: 1 -->
<svg width="829pt" height="207pt"
 viewBox="0.00 0.00 829.00 207.00" xmlns="http://www.w3.org/2000/svg" xmlns:xlink="http://www.w3.org/1999/xlink">
<g id="graph0" class="graph" transform="scale(1 1) rotate(0) translate(4 203)">
<title>v8::Isolate::CreateParams</title>
<polygon fill="white" stroke="transparent" points="-4,4 -4,-203 825,-203 825,4 -4,4"/>
<!-- Node1 -->
<g id="node1" class="node">
<title>Node1</title>
<g id="a_node1"><a xlink:title=" ">
<polygon fill="#bfbfbf" stroke="black" points="693,-122.5 693,-141.5 821,-141.5 821,-122.5 693,-122.5"/>
<text text-anchor="middle" x="757" y="-129.5" font-family="Helvetica,sans-Serif" font-size="10.00">v8::Isolate::CreateParams</text>
</a>
</g>
</g>
<!-- Node2 -->
<g id="node2" class="node">
<title>Node2</title>
<g id="a_node2"><a xlink:href="classv8_1_1ArrayBuffer_1_1Allocator.html" target="_top" xlink:title=" ">
<polygon fill="white" stroke="black" points="440,-179.5 440,-198.5 562,-198.5 562,-179.5 440,-179.5"/>
<text text-anchor="middle" x="501" y="-186.5" font-family="Helvetica,sans-Serif" font-size="10.00">v8::ArrayBuffer::Allocator</text>
</a>
</g>
</g>
<!-- Node2&#45;&gt;Node1 -->
<g id="edge1" class="edge">
<title>Node2&#45;&gt;Node1</title>
<path fill="none" stroke="#9a32cd" stroke-dasharray="5,2" d="M572.16,-179.28C603.81,-174.27 641.53,-167.43 675,-159 693.97,-154.22 714.92,-147.19 730.75,-141.5"/>
<polygon fill="#9a32cd" stroke="#9a32cd" points="571.46,-175.85 562.11,-180.84 572.53,-182.77 571.46,-175.85"/>
<text text-anchor="middle" x="627.5" y="-180" font-family="Helvetica,sans-Serif" font-size="10.00"> array_buffer_allocator</text>
</g>
<!-- Node3 -->
<g id="node3" class="node">
<title>Node3</title>
<g id="a_node3"><a xlink:href="classv8_1_1ResourceConstraints.html" target="_top" xlink:title=" ">
<polygon fill="white" stroke="black" points="440,-141.5 440,-160.5 562,-160.5 562,-141.5 440,-141.5"/>
<text text-anchor="middle" x="501" y="-148.5" font-family="Helvetica,sans-Serif" font-size="10.00">v8::ResourceConstraints</text>
</a>
</g>
</g>
<!-- Node3&#45;&gt;Node1 -->
<g id="edge2" class="edge">
<title>Node3&#45;&gt;Node1</title>
<path fill="none" stroke="#9a32cd" stroke-dasharray="5,2" d="M572.58,-145.72C610.24,-142.9 656.2,-139.47 692.69,-136.74"/>
<polygon fill="#9a32cd" stroke="#9a32cd" points="571.91,-142.26 562.19,-146.5 572.43,-149.24 571.91,-142.26"/>
<text text-anchor="middle" x="627.5" y="-147" font-family="Helvetica,sans-Serif" font-size="10.00"> constraints</text>
</g>
<!-- Node4 -->
<g id="node4" class="node">
<title>Node4</title>
<g id="a_node4"><a xlink:href="classv8_1_1StartupData.html" target="_top" xlink:title=" ">
<polygon fill="white" stroke="black" points="459.5,-103.5 459.5,-122.5 542.5,-122.5 542.5,-103.5 459.5,-103.5"/>
<text text-anchor="middle" x="501" y="-110.5" font-family="Helvetica,sans-Serif" font-size="10.00">v8::StartupData</text>
</a>
</g>
</g>
<!-- Node4&#45;&gt;Node1 -->
<g id="edge3" class="edge">
<title>Node4&#45;&gt;Node1</title>
<path fill="none" stroke="#9a32cd" stroke-dasharray="5,2" d="M552.89,-115.23C587.38,-116.92 633.98,-119.54 675,-123 680.78,-123.49 686.79,-124.05 692.8,-124.65"/>
<polygon fill="#9a32cd" stroke="#9a32cd" points="552.75,-111.72 542.59,-114.74 552.41,-118.71 552.75,-111.72"/>
<text text-anchor="middle" x="627.5" y="-126" font-family="Helvetica,sans-Serif" font-size="10.00"> snapshot_blob</text>
</g>
<!-- Node5 -->
<g id="node5" class="node">
<title>Node5</title>
<g id="a_node5"><a xlink:href="structv8_1_1JitCodeEvent.html" target="_top" xlink:title=" ">
<polygon fill="white" stroke="black" points="456.5,-65.5 456.5,-84.5 545.5,-84.5 545.5,-65.5 456.5,-65.5"/>
<text text-anchor="middle" x="501" y="-72.5" font-family="Helvetica,sans-Serif" font-size="10.00">v8::JitCodeEvent</text>
</a>
</g>
</g>
<!-- Node5&#45;&gt;Node1 -->
<g id="edge4" class="edge">
<title>Node5&#45;&gt;Node1</title>
<path fill="none" stroke="#9a32cd" stroke-dasharray="5,2" d="M555.86,-80.06C590.31,-84.04 635.74,-90.67 675,-101 695.82,-106.48 718.66,-115.51 734.76,-122.42"/>
<polygon fill="#9a32cd" stroke="#9a32cd" points="555.87,-76.54 545.54,-78.91 555.09,-83.49 555.87,-76.54"/>
<text text-anchor="middle" x="627.5" y="-104" font-family="Helvetica,sans-Serif" font-size="10.00"> code_event_handler</text>
</g>
<!-- Node6 -->
<g id="node6" class="node">
<title>Node6</title>
<g id="a_node6"><a xlink:href="structv8_1_1JitCodeEvent_1_1name__t.html" target="_top" xlink:title=" ">
<polygon fill="white" stroke="black" points="226,-126.5 226,-145.5 352,-145.5 352,-126.5 226,-126.5"/>
<text text-anchor="middle" x="289" y="-133.5" font-family="Helvetica,sans-Serif" font-size="10.00">v8::JitCodeEvent::name_t</text>
</a>
</g>
</g>
<!-- Node6&#45;&gt;Node5 -->
<g id="edge5" class="edge">
<title>Node6&#45;&gt;Node5</title>
<path fill="none" stroke="#9a32cd" stroke-dasharray="5,2" d="M339.33,-123.9C347.91,-121.69 356.73,-119.33 365,-117 375.19,-114.13 432.94,-96.06 469.53,-84.57"/>
<polygon fill="#9a32cd" stroke="#9a32cd" points="338.24,-120.57 329.42,-126.43 339.97,-127.35 338.24,-120.57"/>
<text text-anchor="middle" x="402.5" y="-113" font-family="Helvetica,sans-Serif" font-size="10.00"> name</text>
</g>
<!-- Node7 -->
<g id="node7" class="node">
<title>Node7</title>
<g id="a_node7"><a xlink:href="structv8_1_1JitCodeEvent_1_1line__info__t.html" target="_top" xlink:title=" ">
<polygon fill="white" stroke="black" points="234.5,-77 234.5,-107 343.5,-107 343.5,-77 234.5,-77"/>
<text text-anchor="start" x="242.5" y="-95" font-family="Helvetica,sans-Serif" font-size="10.00">v8::JitCodeEvent::line</text>
<text text-anchor="middle" x="289" y="-84" font-family="Helvetica,sans-Serif" font-size="10.00">_info_t</text>
</a>
</g>
</g>
<!-- Node7&#45;&gt;Node5 -->
<g id="edge6" class="edge">
<title>Node7&#45;&gt;Node5</title>
<path fill="none" stroke="#9a32cd" stroke-dasharray="5,2" d="M353.63,-86.85C386.89,-84.16 426.74,-80.93 456.46,-78.52"/>
<polygon fill="#9a32cd" stroke="#9a32cd" points="353.22,-83.37 343.54,-87.67 353.79,-90.35 353.22,-83.37"/>
<text text-anchor="middle" x="402.5" y="-87" font-family="Helvetica,sans-Serif" font-size="10.00"> line_info</text>
</g>
<!-- Node8 -->
<g id="node8" class="node">
<title>Node8</title>
<g id="a_node8"><a xlink:href="classv8_1_1Local.html" target="_top" xlink:title=" ">
<polygon fill="white" stroke="black" points="213,-38.5 213,-57.5 365,-57.5 365,-38.5 213,-38.5"/>
<text text-anchor="middle" x="289" y="-45.5" font-family="Helvetica,sans-Serif" font-size="10.00">v8::Local&lt; v8::UnboundScript &gt;</text>
</a>
</g>
</g>
<!-- Node8&#45;&gt;Node5 -->
<g id="edge7" class="edge">
<title>Node8&#45;&gt;Node5</title>
<path fill="none" stroke="#9a32cd" stroke-dasharray="5,2" d="M374.28,-58.84C402.36,-62.45 432.5,-66.32 456.23,-69.37"/>
<polygon fill="#9a32cd" stroke="#9a32cd" points="374.4,-55.32 364.04,-57.52 373.51,-62.27 374.4,-55.32"/>
<text text-anchor="middle" x="402.5" y="-67" font-family="Helvetica,sans-Serif" font-size="10.00"> script</text>
</g>
<!-- Node9 -->
<g id="node9" class="node">
<title>Node9</title>
<g id="a_node9"><a xlink:href="classv8_1_1Local.html" target="_top" xlink:title=" ">
<polygon fill="white" stroke="black" points="0,-38.5 0,-57.5 78,-57.5 78,-38.5 0,-38.5"/>
<text text-anchor="middle" x="39" y="-45.5" font-family="Helvetica,sans-Serif" font-size="10.00">v8::Local&lt; T &gt;</text>
</a>
</g>
</g>
<!-- Node9&#45;&gt;Node8 -->
<g id="edge8" class="edge">
<title>Node9&#45;&gt;Node8</title>
<path fill="none" stroke="orange" stroke-dasharray="5,2" d="M88.27,-48C123.63,-48 172.31,-48 212.76,-48"/>
<polygon fill="orange" stroke="orange" points="88.21,-44.5 78.21,-48 88.21,-51.5 88.21,-44.5"/>
<text text-anchor="middle" x="145.5" y="-51" font-family="Helvetica,sans-Serif" font-size="10.00"> &lt; v8::UnboundScript &gt;</text>
</g>
<!-- Node10 -->
<g id="node10" class="node">
<title>Node10</title>
<g id="a_node10"><a xlink:href="classv8_1_1Isolate.html" target="_top" xlink:title=" ">
<polygon fill="white" stroke="black" points="258.5,-0.5 258.5,-19.5 319.5,-19.5 319.5,-0.5 258.5,-0.5"/>
<text text-anchor="middle" x="289" y="-7.5" font-family="Helvetica,sans-Serif" font-size="10.00">v8::Isolate</text>
</a>
</g>
</g>
<!-- Node10&#45;&gt;Node5 -->
<g id="edge9" class="edge">
<title>Node10&#45;&gt;Node5</title>
<path fill="none" stroke="#9a32cd" stroke-dasharray="5,2" d="M329.38,-19.78C340.88,-22.68 353.46,-25.92 365,-29 390.42,-35.79 397.03,-36.71 422,-45 440.59,-51.17 461.26,-59.17 476.66,-65.36"/>
<polygon fill="#9a32cd" stroke="#9a32cd" points="330.16,-16.36 319.61,-17.32 328.45,-23.15 330.16,-16.36"/>
<text text-anchor="middle" x="402.5" y="-48" font-family="Helvetica,sans-Serif" font-size="10.00"> isolate</text>
</g>
</g>
</svg>
