<?xml version="1.0" encoding="UTF-8" standalone="no"?>
<!DOCTYPE svg PUBLIC "-//W3C//DTD SVG 1.1//EN"
 "http://www.w3.org/Graphics/SVG/1.1/DTD/svg11.dtd">
<!-- Generated by graphviz version 2.44.0 ()
 -->
<!-- Title: include/v8&#45;inspector&#45;protocol.h Pages: 1 -->
<svg width="806pt" height="263pt"
 viewBox="0.00 0.00 805.50 263.00" xmlns="http://www.w3.org/2000/svg" xmlns:xlink="http://www.w3.org/1999/xlink">
<g id="graph0" class="graph" transform="scale(1 1) rotate(0) translate(4 259)">
<title>include/v8&#45;inspector&#45;protocol.h</title>
<polygon fill="white" stroke="transparent" points="-4,4 -4,-259 801.5,-259 801.5,4 -4,4"/>
<!-- Node1 -->
<g id="node1" class="node">
<title>Node1</title>
<g id="a_node1"><a xlink:title=" ">
<polygon fill="#bfbfbf" stroke="black" points="186,-224.5 186,-254.5 290,-254.5 290,-224.5 186,-224.5"/>
<text text-anchor="start" x="194" y="-242.5" font-family="Helvetica,sans-Serif" font-size="10.00">include/v8&#45;inspector</text>
<text text-anchor="middle" x="238" y="-231.5" font-family="Helvetica,sans-Serif" font-size="10.00">&#45;protocol.h</text>
</a>
</g>
</g>
<!-- Node2 -->
<g id="node2" class="node">
<title>Node2</title>
<g id="a_node2"><a xlink:title=" ">
<polygon fill="white" stroke="#bfbfbf" points="0,-168.5 0,-187.5 108,-187.5 108,-168.5 0,-168.5"/>
<text text-anchor="middle" x="54" y="-175.5" font-family="Helvetica,sans-Serif" font-size="10.00">inspector/Debugger.h</text>
</a>
</g>
</g>
<!-- Node1&#45;&gt;Node2 -->
<g id="edge1" class="edge">
<title>Node1&#45;&gt;Node2</title>
<path fill="none" stroke="midnightblue" d="M194.39,-224.4C162.6,-214.12 120.03,-200.35 90.13,-190.68"/>
<polygon fill="midnightblue" stroke="midnightblue" points="91.1,-187.32 80.51,-187.57 88.94,-193.98 91.1,-187.32"/>
</g>
<!-- Node3 -->
<g id="node3" class="node">
<title>Node3</title>
<g id="a_node3"><a xlink:title=" ">
<polygon fill="white" stroke="#bfbfbf" points="126.5,-168.5 126.5,-187.5 229.5,-187.5 229.5,-168.5 126.5,-168.5"/>
<text text-anchor="middle" x="178" y="-175.5" font-family="Helvetica,sans-Serif" font-size="10.00">inspector/Runtime.h</text>
</a>
</g>
</g>
<!-- Node1&#45;&gt;Node3 -->
<g id="edge2" class="edge">
<title>Node1&#45;&gt;Node3</title>
<path fill="none" stroke="midnightblue" d="M223.78,-224.4C214.79,-215.49 203.16,-203.95 193.87,-194.74"/>
<polygon fill="midnightblue" stroke="midnightblue" points="196.3,-192.21 186.73,-187.66 191.37,-197.18 196.3,-192.21"/>
</g>
<!-- Node4 -->
<g id="node4" class="node">
<title>Node4</title>
<g id="a_node4"><a xlink:title=" ">
<polygon fill="white" stroke="#bfbfbf" points="247.5,-168.5 247.5,-187.5 350.5,-187.5 350.5,-168.5 247.5,-168.5"/>
<text text-anchor="middle" x="299" y="-175.5" font-family="Helvetica,sans-Serif" font-size="10.00">inspector/Schema.h</text>
</a>
</g>
</g>
<!-- Node1&#45;&gt;Node4 -->
<g id="edge3" class="edge">
<title>Node1&#45;&gt;Node4</title>
<path fill="none" stroke="midnightblue" d="M252.46,-224.4C261.59,-215.49 273.42,-203.95 282.86,-194.74"/>
<polygon fill="midnightblue" stroke="midnightblue" points="285.41,-197.15 290.12,-187.66 280.52,-192.13 285.41,-197.15"/>
</g>
<!-- Node5 -->
<g id="node5" class="node">
<title>Node5</title>
<g id="a_node5"><a xlink:href="v8-inspector_8h.html" target="_top" xlink:title=" ">
<polygon fill="white" stroke="black" points="368.5,-168.5 368.5,-187.5 445.5,-187.5 445.5,-168.5 368.5,-168.5"/>
<text text-anchor="middle" x="407" y="-175.5" font-family="Helvetica,sans-Serif" font-size="10.00">v8&#45;inspector.h</text>
</a>
</g>
</g>
<!-- Node1&#45;&gt;Node5 -->
<g id="edge4" class="edge">
<title>Node1&#45;&gt;Node5</title>
<path fill="none" stroke="midnightblue" d="M278.05,-224.4C306.91,-214.24 345.45,-200.67 372.85,-191.02"/>
<polygon fill="midnightblue" stroke="midnightblue" points="374.14,-194.28 382.41,-187.66 371.81,-187.68 374.14,-194.28"/>
</g>
<!-- Node6 -->
<g id="node6" class="node">
<title>Node6</title>
<g id="a_node6"><a xlink:title=" ">
<polygon fill="white" stroke="#bfbfbf" points="314,-0.5 314,-19.5 362,-19.5 362,-0.5 314,-0.5"/>
<text text-anchor="middle" x="338" y="-7.5" font-family="Helvetica,sans-Serif" font-size="10.00">stdint.h</text>
</a>
</g>
</g>
<!-- Node5&#45;&gt;Node6 -->
<g id="edge5" class="edge">
<title>Node5&#45;&gt;Node6</title>
<path fill="none" stroke="midnightblue" d="M378.19,-168.42C340.4,-155.41 275.75,-126.67 249,-76 234.65,-48.82 273.34,-30.16 304.17,-20.03"/>
<polygon fill="midnightblue" stroke="midnightblue" points="305.3,-23.34 313.82,-17.04 303.23,-16.65 305.3,-23.34"/>
</g>
<!-- Node7 -->
<g id="node7" class="node">
<title>Node7</title>
<g id="a_node7"><a xlink:title=" ">
<polygon fill="white" stroke="#bfbfbf" points="484.5,-112.5 484.5,-131.5 529.5,-131.5 529.5,-112.5 484.5,-112.5"/>
<text text-anchor="middle" x="507" y="-119.5" font-family="Helvetica,sans-Serif" font-size="10.00">cctype</text>
</a>
</g>
</g>
<!-- Node5&#45;&gt;Node7 -->
<g id="edge6" class="edge">
<title>Node5&#45;&gt;Node7</title>
<path fill="none" stroke="midnightblue" d="M423.07,-168.32C438.96,-159.74 463.51,-146.49 481.96,-136.52"/>
<polygon fill="midnightblue" stroke="midnightblue" points="483.84,-139.49 490.97,-131.65 480.51,-133.33 483.84,-139.49"/>
</g>
<!-- Node8 -->
<g id="node8" class="node">
<title>Node8</title>
<g id="a_node8"><a xlink:title=" ">
<polygon fill="white" stroke="#bfbfbf" points="258.5,-56.5 258.5,-75.5 309.5,-75.5 309.5,-56.5 258.5,-56.5"/>
<text text-anchor="middle" x="284" y="-63.5" font-family="Helvetica,sans-Serif" font-size="10.00">memory</text>
</a>
</g>
</g>
<!-- Node5&#45;&gt;Node8 -->
<g id="edge7" class="edge">
<title>Node5&#45;&gt;Node8</title>
<path fill="none" stroke="midnightblue" d="M397.35,-168.37C376.6,-149.81 327.51,-105.91 301.26,-82.44"/>
<polygon fill="midnightblue" stroke="midnightblue" points="303.39,-79.65 293.61,-75.59 298.73,-84.87 303.39,-79.65"/>
</g>
<!-- Node9 -->
<g id="node9" class="node">
<title>Node9</title>
<g id="a_node9"><a xlink:href="v8_8h.html" target="_top" xlink:title=" ">
<polygon fill="white" stroke="black" points="431.5,-112.5 431.5,-131.5 466.5,-131.5 466.5,-112.5 431.5,-112.5"/>
<text text-anchor="middle" x="449" y="-119.5" font-family="Helvetica,sans-Serif" font-size="10.00">v8.h</text>
</a>
</g>
</g>
<!-- Node5&#45;&gt;Node9 -->
<g id="edge8" class="edge">
<title>Node5&#45;&gt;Node9</title>
<path fill="none" stroke="midnightblue" d="M413.94,-168.08C419.93,-160.38 428.75,-149.03 436.05,-139.65"/>
<polygon fill="midnightblue" stroke="midnightblue" points="438.82,-141.79 442.19,-131.75 433.29,-137.5 438.82,-141.79"/>
</g>
<!-- Node9&#45;&gt;Node6 -->
<g id="edge10" class="edge">
<title>Node9&#45;&gt;Node6</title>
<path fill="none" stroke="midnightblue" d="M431.42,-117C410.66,-111.38 376.48,-99.12 357,-76 346,-62.95 341.37,-43.79 339.42,-29.66"/>
<polygon fill="midnightblue" stroke="midnightblue" points="342.89,-29.18 338.36,-19.61 335.92,-29.92 342.89,-29.18"/>
</g>
<!-- Node9&#45;&gt;Node8 -->
<g id="edge12" class="edge">
<title>Node9&#45;&gt;Node8</title>
<path fill="none" stroke="midnightblue" d="M431.34,-115.22C404.71,-106.5 353.71,-89.82 319.28,-78.54"/>
<polygon fill="midnightblue" stroke="midnightblue" points="320.19,-75.16 309.6,-75.38 318.02,-81.82 320.19,-75.16"/>
</g>
<!-- Node10 -->
<g id="node10" class="node">
<title>Node10</title>
<g id="a_node10"><a xlink:title=" ">
<polygon fill="white" stroke="#bfbfbf" points="659.5,-0.5 659.5,-19.5 710.5,-19.5 710.5,-0.5 659.5,-0.5"/>
<text text-anchor="middle" x="685" y="-7.5" font-family="Helvetica,sans-Serif" font-size="10.00">stddef.h</text>
</a>
</g>
</g>
<!-- Node9&#45;&gt;Node10 -->
<g id="edge9" class="edge">
<title>Node9&#45;&gt;Node10</title>
<path fill="none" stroke="midnightblue" d="M466.51,-114.55C469.33,-113.62 472.23,-112.74 475,-112 558.05,-89.88 600.94,-133.3 665,-76 678.04,-64.33 682.69,-44.39 684.29,-29.66"/>
<polygon fill="midnightblue" stroke="midnightblue" points="687.78,-29.86 685,-19.64 680.8,-29.36 687.78,-29.86"/>
</g>
<!-- Node11 -->
<g id="node11" class="node">
<title>Node11</title>
<g id="a_node11"><a xlink:title=" ">
<polygon fill="white" stroke="#bfbfbf" points="366.5,-56.5 366.5,-75.5 411.5,-75.5 411.5,-56.5 366.5,-56.5"/>
<text text-anchor="middle" x="389" y="-63.5" font-family="Helvetica,sans-Serif" font-size="10.00">stdio.h</text>
</a>
</g>
</g>
<!-- Node9&#45;&gt;Node11 -->
<g id="edge11" class="edge">
<title>Node9&#45;&gt;Node11</title>
<path fill="none" stroke="midnightblue" d="M439.36,-112.32C430.49,-104.34 417.13,-92.31 406.39,-82.65"/>
<polygon fill="midnightblue" stroke="midnightblue" points="408.59,-79.92 398.82,-75.83 403.91,-85.13 408.59,-79.92"/>
</g>
<!-- Node12 -->
<g id="node12" class="node">
<title>Node12</title>
<g id="a_node12"><a xlink:title=" ">
<polygon fill="white" stroke="#bfbfbf" points="429.5,-56.5 429.5,-75.5 468.5,-75.5 468.5,-56.5 429.5,-56.5"/>
<text text-anchor="middle" x="449" y="-63.5" font-family="Helvetica,sans-Serif" font-size="10.00">utility</text>
</a>
</g>
</g>
<!-- Node9&#45;&gt;Node12 -->
<g id="edge13" class="edge">
<title>Node9&#45;&gt;Node12</title>
<path fill="none" stroke="midnightblue" d="M449,-112.08C449,-105.01 449,-94.86 449,-85.99"/>
<polygon fill="midnightblue" stroke="midnightblue" points="452.5,-85.75 449,-75.75 445.5,-85.75 452.5,-85.75"/>
</g>
<!-- Node13 -->
<g id="node13" class="node">
<title>Node13</title>
<g id="a_node13"><a xlink:title=" ">
<polygon fill="white" stroke="#bfbfbf" points="487,-56.5 487,-75.5 531,-75.5 531,-56.5 487,-56.5"/>
<text text-anchor="middle" x="509" y="-63.5" font-family="Helvetica,sans-Serif" font-size="10.00">vector</text>
</a>
</g>
</g>
<!-- Node9&#45;&gt;Node13 -->
<g id="edge14" class="edge">
<title>Node9&#45;&gt;Node13</title>
<path fill="none" stroke="midnightblue" d="M458.64,-112.32C467.51,-104.34 480.87,-92.31 491.61,-82.65"/>
<polygon fill="midnightblue" stroke="midnightblue" points="494.09,-85.13 499.18,-75.83 489.41,-79.92 494.09,-85.13"/>
</g>
<!-- Node14 -->
<g id="node14" class="node">
<title>Node14</title>
<g id="a_node14"><a xlink:href="v8-internal_8h.html" target="_top" xlink:title=" ">
<polygon fill="white" stroke="black" points="587.5,-56.5 587.5,-75.5 656.5,-75.5 656.5,-56.5 587.5,-56.5"/>
<text text-anchor="middle" x="622" y="-63.5" font-family="Helvetica,sans-Serif" font-size="10.00">v8&#45;internal.h</text>
</a>
</g>
</g>
<!-- Node9&#45;&gt;Node14 -->
<g id="edge15" class="edge">
<title>Node9&#45;&gt;Node14</title>
<path fill="none" stroke="midnightblue" d="M466.59,-114.81C469.4,-113.85 472.28,-112.89 475,-112 511.43,-100.12 553.24,-87.41 582.93,-78.54"/>
<polygon fill="midnightblue" stroke="midnightblue" points="584.31,-81.78 592.89,-75.57 582.31,-75.07 584.31,-81.78"/>
</g>
<!-- Node16 -->
<g id="node16" class="node">
<title>Node16</title>
<g id="a_node16"><a xlink:href="v8-version_8h.html" target="_top" xlink:title=" ">
<polygon fill="white" stroke="black" points="728.5,-0.5 728.5,-19.5 797.5,-19.5 797.5,-0.5 728.5,-0.5"/>
<text text-anchor="middle" x="763" y="-7.5" font-family="Helvetica,sans-Serif" font-size="10.00">v8&#45;version.h</text>
</a>
</g>
</g>
<!-- Node9&#45;&gt;Node16 -->
<g id="edge21" class="edge">
<title>Node9&#45;&gt;Node16</title>
<path fill="none" stroke="midnightblue" d="M466.5,-114.5C469.32,-113.58 472.22,-112.71 475,-112 567.15,-88.36 599.73,-116.09 686,-76 710.9,-64.43 734.21,-42.62 748.52,-27.47"/>
<polygon fill="midnightblue" stroke="midnightblue" points="751.33,-29.59 755.5,-19.85 746.16,-24.86 751.33,-29.59"/>
</g>
<!-- Node17 -->
<g id="node17" class="node">
<title>Node17</title>
<g id="a_node17"><a xlink:href="v8config_8h.html" target="_top" xlink:title=" ">
<polygon fill="white" stroke="black" points="501,-0.5 501,-19.5 561,-19.5 561,-0.5 501,-0.5"/>
<text text-anchor="middle" x="531" y="-7.5" font-family="Helvetica,sans-Serif" font-size="10.00">v8config.h</text>
</a>
</g>
</g>
<!-- Node9&#45;&gt;Node17 -->
<g id="edge22" class="edge">
<title>Node9&#45;&gt;Node17</title>
<path fill="none" stroke="midnightblue" d="M466.89,-114.72C490.96,-105.88 531.72,-89.33 540,-76 548.72,-61.96 544.67,-42.97 539.52,-29.14"/>
<polygon fill="midnightblue" stroke="midnightblue" points="542.67,-27.6 535.56,-19.74 536.22,-30.31 542.67,-27.6"/>
</g>
<!-- Node14&#45;&gt;Node6 -->
<g id="edge17" class="edge">
<title>Node14&#45;&gt;Node6</title>
<path fill="none" stroke="midnightblue" d="M587.46,-58.43C532.74,-48.03 426.76,-27.88 372.24,-17.51"/>
<polygon fill="midnightblue" stroke="midnightblue" points="372.84,-14.06 362.36,-15.63 371.53,-20.94 372.84,-14.06"/>
</g>
<!-- Node14&#45;&gt;Node10 -->
<g id="edge16" class="edge">
<title>Node14&#45;&gt;Node10</title>
<path fill="none" stroke="midnightblue" d="M632.12,-56.32C641.53,-48.26 655.74,-36.08 667.07,-26.37"/>
<polygon fill="midnightblue" stroke="midnightblue" points="669.38,-29 674.69,-19.83 664.82,-23.68 669.38,-29"/>
</g>
<!-- Node15 -->
<g id="node15" class="node">
<title>Node15</title>
<g id="a_node15"><a xlink:title=" ">
<polygon fill="white" stroke="#bfbfbf" points="579,-0.5 579,-19.5 641,-19.5 641,-0.5 579,-0.5"/>
<text text-anchor="middle" x="610" y="-7.5" font-family="Helvetica,sans-Serif" font-size="10.00">type_traits</text>
</a>
</g>
</g>
<!-- Node14&#45;&gt;Node15 -->
<g id="edge18" class="edge">
<title>Node14&#45;&gt;Node15</title>
<path fill="none" stroke="midnightblue" d="M620.02,-56.08C618.43,-48.93 616.14,-38.64 614.15,-29.69"/>
<polygon fill="midnightblue" stroke="midnightblue" points="617.53,-28.75 611.94,-19.75 610.7,-30.27 617.53,-28.75"/>
</g>
<!-- Node14&#45;&gt;Node16 -->
<g id="edge19" class="edge">
<title>Node14&#45;&gt;Node16</title>
<path fill="none" stroke="midnightblue" d="M644.34,-56.44C667.75,-47.48 704.74,-33.31 731.19,-23.18"/>
<polygon fill="midnightblue" stroke="midnightblue" points="732.68,-26.36 740.76,-19.52 730.17,-19.82 732.68,-26.36"/>
</g>
<!-- Node14&#45;&gt;Node17 -->
<g id="edge20" class="edge">
<title>Node14&#45;&gt;Node17</title>
<path fill="none" stroke="midnightblue" d="M607.38,-56.32C593.05,-47.82 570.99,-34.73 554.25,-24.8"/>
<polygon fill="midnightblue" stroke="midnightblue" points="555.97,-21.75 545.58,-19.65 552.4,-27.77 555.97,-21.75"/>
</g>
</g>
</svg>
