<?xml version="1.0" encoding="UTF-8" standalone="no"?>
<!DOCTYPE svg PUBLIC "-//W3C//DTD SVG 1.1//EN"
 "http://www.w3.org/Graphics/SVG/1.1/DTD/svg11.dtd">
<!-- Generated by graphviz version 2.44.0 ()
 -->
<!-- Title: include/v8&#45;inspector.h Pages: 1 -->
<svg width="560pt" height="196pt"
 viewBox="0.00 0.00 559.77 196.00" xmlns="http://www.w3.org/2000/svg" xmlns:xlink="http://www.w3.org/1999/xlink">
<g id="graph0" class="graph" transform="scale(1 1) rotate(0) translate(4 192)">
<title>include/v8&#45;inspector.h</title>
<polygon fill="white" stroke="transparent" points="-4,4 -4,-192 555.77,-192 555.77,4 -4,4"/>
<!-- Node1 -->
<g id="node1" class="node">
<title>Node1</title>
<g id="a_node1"><a xlink:title=" ">
<polygon fill="#bfbfbf" stroke="black" points="105.77,-168.5 105.77,-187.5 216.77,-187.5 216.77,-168.5 105.77,-168.5"/>
<text text-anchor="middle" x="161.27" y="-175.5" font-family="Helvetica,sans-Serif" font-size="10.00">include/v8&#45;inspector.h</text>
</a>
</g>
</g>
<!-- Node2 -->
<g id="node2" class="node">
<title>Node2</title>
<g id="a_node2"><a xlink:title=" ">
<polygon fill="white" stroke="#bfbfbf" points="68.27,-0.5 68.27,-19.5 116.27,-19.5 116.27,-0.5 68.27,-0.5"/>
<text text-anchor="middle" x="92.27" y="-7.5" font-family="Helvetica,sans-Serif" font-size="10.00">stdint.h</text>
</a>
</g>
</g>
<!-- Node1&#45;&gt;Node2 -->
<g id="edge1" class="edge">
<title>Node1&#45;&gt;Node2</title>
<path fill="none" stroke="midnightblue" d="M132.46,-168.42C94.67,-155.41 30.02,-126.67 3.27,-76 -11.08,-48.82 27.61,-30.16 58.43,-20.03"/>
<polygon fill="midnightblue" stroke="midnightblue" points="59.57,-23.34 68.09,-17.04 57.5,-16.65 59.57,-23.34"/>
</g>
<!-- Node3 -->
<g id="node3" class="node">
<title>Node3</title>
<g id="a_node3"><a xlink:title=" ">
<polygon fill="white" stroke="#bfbfbf" points="238.77,-112.5 238.77,-131.5 283.77,-131.5 283.77,-112.5 238.77,-112.5"/>
<text text-anchor="middle" x="261.27" y="-119.5" font-family="Helvetica,sans-Serif" font-size="10.00">cctype</text>
</a>
</g>
</g>
<!-- Node1&#45;&gt;Node3 -->
<g id="edge2" class="edge">
<title>Node1&#45;&gt;Node3</title>
<path fill="none" stroke="midnightblue" d="M177.34,-168.32C193.23,-159.74 217.78,-146.49 236.23,-136.52"/>
<polygon fill="midnightblue" stroke="midnightblue" points="238.11,-139.49 245.24,-131.65 234.78,-133.33 238.11,-139.49"/>
</g>
<!-- Node4 -->
<g id="node4" class="node">
<title>Node4</title>
<g id="a_node4"><a xlink:title=" ">
<polygon fill="white" stroke="#bfbfbf" points="12.77,-56.5 12.77,-75.5 63.77,-75.5 63.77,-56.5 12.77,-56.5"/>
<text text-anchor="middle" x="38.27" y="-63.5" font-family="Helvetica,sans-Serif" font-size="10.00">memory</text>
</a>
</g>
</g>
<!-- Node1&#45;&gt;Node4 -->
<g id="edge3" class="edge">
<title>Node1&#45;&gt;Node4</title>
<path fill="none" stroke="midnightblue" d="M151.62,-168.37C130.87,-149.81 81.78,-105.91 55.53,-82.44"/>
<polygon fill="midnightblue" stroke="midnightblue" points="57.66,-79.65 47.88,-75.59 53,-84.87 57.66,-79.65"/>
</g>
<!-- Node5 -->
<g id="node5" class="node">
<title>Node5</title>
<g id="a_node5"><a xlink:href="v8_8h.html" target="_top" xlink:title=" ">
<polygon fill="white" stroke="black" points="185.77,-112.5 185.77,-131.5 220.77,-131.5 220.77,-112.5 185.77,-112.5"/>
<text text-anchor="middle" x="203.27" y="-119.5" font-family="Helvetica,sans-Serif" font-size="10.00">v8.h</text>
</a>
</g>
</g>
<!-- Node1&#45;&gt;Node5 -->
<g id="edge4" class="edge">
<title>Node1&#45;&gt;Node5</title>
<path fill="none" stroke="midnightblue" d="M168.2,-168.08C174.2,-160.38 183.02,-149.03 190.32,-139.65"/>
<polygon fill="midnightblue" stroke="midnightblue" points="193.09,-141.79 196.46,-131.75 187.56,-137.5 193.09,-141.79"/>
</g>
<!-- Node5&#45;&gt;Node2 -->
<g id="edge6" class="edge">
<title>Node5&#45;&gt;Node2</title>
<path fill="none" stroke="midnightblue" d="M185.69,-117C164.92,-111.38 130.74,-99.12 111.27,-76 100.27,-62.95 95.64,-43.79 93.68,-29.66"/>
<polygon fill="midnightblue" stroke="midnightblue" points="97.15,-29.18 92.62,-19.61 90.19,-29.92 97.15,-29.18"/>
</g>
<!-- Node5&#45;&gt;Node4 -->
<g id="edge8" class="edge">
<title>Node5&#45;&gt;Node4</title>
<path fill="none" stroke="midnightblue" d="M185.61,-115.22C158.98,-106.5 107.98,-89.82 73.54,-78.54"/>
<polygon fill="midnightblue" stroke="midnightblue" points="74.46,-75.16 63.87,-75.38 72.28,-81.82 74.46,-75.16"/>
</g>
<!-- Node6 -->
<g id="node6" class="node">
<title>Node6</title>
<g id="a_node6"><a xlink:title=" ">
<polygon fill="white" stroke="#bfbfbf" points="413.77,-0.5 413.77,-19.5 464.77,-19.5 464.77,-0.5 413.77,-0.5"/>
<text text-anchor="middle" x="439.27" y="-7.5" font-family="Helvetica,sans-Serif" font-size="10.00">stddef.h</text>
</a>
</g>
</g>
<!-- Node5&#45;&gt;Node6 -->
<g id="edge5" class="edge">
<title>Node5&#45;&gt;Node6</title>
<path fill="none" stroke="midnightblue" d="M220.78,-114.55C223.6,-113.62 226.5,-112.74 229.27,-112 312.32,-89.88 355.21,-133.3 419.27,-76 432.31,-64.33 436.96,-44.39 438.55,-29.66"/>
<polygon fill="midnightblue" stroke="midnightblue" points="442.05,-29.86 439.27,-19.64 435.07,-29.36 442.05,-29.86"/>
</g>
<!-- Node7 -->
<g id="node7" class="node">
<title>Node7</title>
<g id="a_node7"><a xlink:title=" ">
<polygon fill="white" stroke="#bfbfbf" points="120.77,-56.5 120.77,-75.5 165.77,-75.5 165.77,-56.5 120.77,-56.5"/>
<text text-anchor="middle" x="143.27" y="-63.5" font-family="Helvetica,sans-Serif" font-size="10.00">stdio.h</text>
</a>
</g>
</g>
<!-- Node5&#45;&gt;Node7 -->
<g id="edge7" class="edge">
<title>Node5&#45;&gt;Node7</title>
<path fill="none" stroke="midnightblue" d="M193.63,-112.32C184.76,-104.34 171.39,-92.31 160.66,-82.65"/>
<polygon fill="midnightblue" stroke="midnightblue" points="162.86,-79.92 153.08,-75.83 158.18,-85.13 162.86,-79.92"/>
</g>
<!-- Node8 -->
<g id="node8" class="node">
<title>Node8</title>
<g id="a_node8"><a xlink:title=" ">
<polygon fill="white" stroke="#bfbfbf" points="183.77,-56.5 183.77,-75.5 222.77,-75.5 222.77,-56.5 183.77,-56.5"/>
<text text-anchor="middle" x="203.27" y="-63.5" font-family="Helvetica,sans-Serif" font-size="10.00">utility</text>
</a>
</g>
</g>
<!-- Node5&#45;&gt;Node8 -->
<g id="edge9" class="edge">
<title>Node5&#45;&gt;Node8</title>
<path fill="none" stroke="midnightblue" d="M203.27,-112.08C203.27,-105.01 203.27,-94.86 203.27,-85.99"/>
<polygon fill="midnightblue" stroke="midnightblue" points="206.77,-85.75 203.27,-75.75 199.77,-85.75 206.77,-85.75"/>
</g>
<!-- Node9 -->
<g id="node9" class="node">
<title>Node9</title>
<g id="a_node9"><a xlink:title=" ">
<polygon fill="white" stroke="#bfbfbf" points="241.27,-56.5 241.27,-75.5 285.27,-75.5 285.27,-56.5 241.27,-56.5"/>
<text text-anchor="middle" x="263.27" y="-63.5" font-family="Helvetica,sans-Serif" font-size="10.00">vector</text>
</a>
</g>
</g>
<!-- Node5&#45;&gt;Node9 -->
<g id="edge10" class="edge">
<title>Node5&#45;&gt;Node9</title>
<path fill="none" stroke="midnightblue" d="M212.91,-112.32C221.78,-104.34 235.14,-92.31 245.88,-82.65"/>
<polygon fill="midnightblue" stroke="midnightblue" points="248.36,-85.13 253.45,-75.83 243.68,-79.92 248.36,-85.13"/>
</g>
<!-- Node10 -->
<g id="node10" class="node">
<title>Node10</title>
<g id="a_node10"><a xlink:href="v8-internal_8h.html" target="_top" xlink:title=" ">
<polygon fill="white" stroke="black" points="341.77,-56.5 341.77,-75.5 410.77,-75.5 410.77,-56.5 341.77,-56.5"/>
<text text-anchor="middle" x="376.27" y="-63.5" font-family="Helvetica,sans-Serif" font-size="10.00">v8&#45;internal.h</text>
</a>
</g>
</g>
<!-- Node5&#45;&gt;Node10 -->
<g id="edge11" class="edge">
<title>Node5&#45;&gt;Node10</title>
<path fill="none" stroke="midnightblue" d="M220.86,-114.81C223.67,-113.85 226.54,-112.89 229.27,-112 265.7,-100.12 307.5,-87.41 337.2,-78.54"/>
<polygon fill="midnightblue" stroke="midnightblue" points="338.58,-81.78 347.16,-75.57 336.58,-75.07 338.58,-81.78"/>
</g>
<!-- Node12 -->
<g id="node12" class="node">
<title>Node12</title>
<g id="a_node12"><a xlink:href="v8-version_8h.html" target="_top" xlink:title=" ">
<polygon fill="white" stroke="black" points="482.77,-0.5 482.77,-19.5 551.77,-19.5 551.77,-0.5 482.77,-0.5"/>
<text text-anchor="middle" x="517.27" y="-7.5" font-family="Helvetica,sans-Serif" font-size="10.00">v8&#45;version.h</text>
</a>
</g>
</g>
<!-- Node5&#45;&gt;Node12 -->
<g id="edge17" class="edge">
<title>Node5&#45;&gt;Node12</title>
<path fill="none" stroke="midnightblue" d="M220.77,-114.5C223.59,-113.58 226.49,-112.71 229.27,-112 321.42,-88.36 354,-116.09 440.27,-76 465.17,-64.43 488.48,-42.62 502.79,-27.47"/>
<polygon fill="midnightblue" stroke="midnightblue" points="505.59,-29.59 509.76,-19.85 500.43,-24.86 505.59,-29.59"/>
</g>
<!-- Node13 -->
<g id="node13" class="node">
<title>Node13</title>
<g id="a_node13"><a xlink:href="v8config_8h.html" target="_top" xlink:title=" ">
<polygon fill="white" stroke="black" points="255.27,-0.5 255.27,-19.5 315.27,-19.5 315.27,-0.5 255.27,-0.5"/>
<text text-anchor="middle" x="285.27" y="-7.5" font-family="Helvetica,sans-Serif" font-size="10.00">v8config.h</text>
</a>
</g>
</g>
<!-- Node5&#45;&gt;Node13 -->
<g id="edge18" class="edge">
<title>Node5&#45;&gt;Node13</title>
<path fill="none" stroke="midnightblue" d="M221.16,-114.72C245.23,-105.88 285.99,-89.33 294.27,-76 302.99,-61.96 298.94,-42.97 293.79,-29.14"/>
<polygon fill="midnightblue" stroke="midnightblue" points="296.94,-27.6 289.83,-19.74 290.49,-30.31 296.94,-27.6"/>
</g>
<!-- Node10&#45;&gt;Node2 -->
<g id="edge13" class="edge">
<title>Node10&#45;&gt;Node2</title>
<path fill="none" stroke="midnightblue" d="M341.73,-58.43C287.01,-48.03 181.03,-27.88 126.51,-17.51"/>
<polygon fill="midnightblue" stroke="midnightblue" points="127.11,-14.06 116.63,-15.63 125.8,-20.94 127.11,-14.06"/>
</g>
<!-- Node10&#45;&gt;Node6 -->
<g id="edge12" class="edge">
<title>Node10&#45;&gt;Node6</title>
<path fill="none" stroke="midnightblue" d="M386.39,-56.32C395.8,-48.26 410.01,-36.08 421.34,-26.37"/>
<polygon fill="midnightblue" stroke="midnightblue" points="423.65,-29 428.96,-19.83 419.09,-23.68 423.65,-29"/>
</g>
<!-- Node11 -->
<g id="node11" class="node">
<title>Node11</title>
<g id="a_node11"><a xlink:title=" ">
<polygon fill="white" stroke="#bfbfbf" points="333.27,-0.5 333.27,-19.5 395.27,-19.5 395.27,-0.5 333.27,-0.5"/>
<text text-anchor="middle" x="364.27" y="-7.5" font-family="Helvetica,sans-Serif" font-size="10.00">type_traits</text>
</a>
</g>
</g>
<!-- Node10&#45;&gt;Node11 -->
<g id="edge14" class="edge">
<title>Node10&#45;&gt;Node11</title>
<path fill="none" stroke="midnightblue" d="M374.29,-56.08C372.7,-48.93 370.41,-38.64 368.42,-29.69"/>
<polygon fill="midnightblue" stroke="midnightblue" points="371.8,-28.75 366.21,-19.75 364.97,-30.27 371.8,-28.75"/>
</g>
<!-- Node10&#45;&gt;Node12 -->
<g id="edge15" class="edge">
<title>Node10&#45;&gt;Node12</title>
<path fill="none" stroke="midnightblue" d="M398.61,-56.44C422.02,-47.48 459,-33.31 485.46,-23.18"/>
<polygon fill="midnightblue" stroke="midnightblue" points="486.94,-26.36 495.03,-19.52 484.44,-19.82 486.94,-26.36"/>
</g>
<!-- Node10&#45;&gt;Node13 -->
<g id="edge16" class="edge">
<title>Node10&#45;&gt;Node13</title>
<path fill="none" stroke="midnightblue" d="M361.65,-56.32C347.32,-47.82 325.26,-34.73 308.52,-24.8"/>
<polygon fill="midnightblue" stroke="midnightblue" points="310.24,-21.75 299.85,-19.65 306.67,-27.77 310.24,-21.75"/>
</g>
</g>
</svg>
