<?xml version="1.0" encoding="UTF-8" standalone="no"?>
<!DOCTYPE svg PUBLIC "-//W3C//DTD SVG 1.1//EN"
 "http://www.w3.org/Graphics/SVG/1.1/DTD/svg11.dtd">
<!-- Generated by graphviz version 2.44.0 ()
 -->
<!-- Title: v8::Persistent&lt; T, M &gt; Pages: 1 -->
<svg width="134pt" height="106pt"
 viewBox="0.00 0.00 134.00 106.00" xmlns="http://www.w3.org/2000/svg" xmlns:xlink="http://www.w3.org/1999/xlink">
<g id="graph0" class="graph" transform="scale(1 1) rotate(0) translate(4 102)">
<title>v8::Persistent&lt; T, M &gt;</title>
<polygon fill="white" stroke="transparent" points="-4,4 -4,-102 130,-102 130,4 -4,4"/>
<!-- Node1 -->
<g id="node1" class="node">
<title>Node1</title>
<g id="a_node1"><a xlink:title=" ">
<polygon fill="#bfbfbf" stroke="black" points="0,-78.5 0,-97.5 112,-97.5 112,-78.5 0,-78.5"/>
<text text-anchor="middle" x="56" y="-85.5" font-family="Helvetica,sans-Serif" font-size="10.00">v8::Persistent&lt; T, M &gt;</text>
</a>
</g>
</g>
<!-- Node2 -->
<g id="node2" class="node">
<title>Node2</title>
<g id="a_node2"><a xlink:href="classv8_1_1Persistent.html" target="_top" xlink:title=" ">
<polygon fill="white" stroke="black" points="8.5,-0.5 8.5,-30.5 103.5,-30.5 103.5,-0.5 8.5,-0.5"/>
<text text-anchor="start" x="16.5" y="-18.5" font-family="Helvetica,sans-Serif" font-size="10.00">v8::Persistent&lt; v8</text>
<text text-anchor="middle" x="56" y="-7.5" font-family="Helvetica,sans-Serif" font-size="10.00">::Promise &gt;</text>
</a>
</g>
</g>
<!-- Node1&#45;&gt;Node2 -->
<g id="edge1" class="edge">
<title>Node1&#45;&gt;Node2</title>
<path fill="none" stroke="orange" stroke-dasharray="5,2" d="M56,-68.24C56,-56.41 56,-41.38 56,-30.58"/>
<polygon fill="orange" stroke="orange" points="52.5,-68.36 56,-78.36 59.5,-68.36 52.5,-68.36"/>
<text text-anchor="middle" x="91" y="-52" font-family="Helvetica,sans-Serif" font-size="10.00"> &lt; v8::Promise &gt;</text>
</g>
</g>
</svg>
