<?xml version="1.0" encoding="UTF-8" standalone="no"?>
<!DOCTYPE svg PUBLIC "-//W3C//DTD SVG 1.1//EN"
 "http://www.w3.org/Graphics/SVG/1.1/DTD/svg11.dtd">
<!-- Generated by graphviz version 2.44.0 ()
 -->
<!-- Title: v8::Maybe::IsJust Pages: 1 -->
<svg width="248pt" height="78pt"
 viewBox="0.00 0.00 248.00 77.50" xmlns="http://www.w3.org/2000/svg" xmlns:xlink="http://www.w3.org/1999/xlink">
<g id="graph0" class="graph" transform="scale(1 1) rotate(0) translate(4 73.5)">
<title>v8::Maybe::IsJust</title>
<polygon fill="white" stroke="transparent" points="-4,4 -4,-73.5 244,-73.5 244,4 -4,4"/>
<!-- Node1 -->
<g id="node1" class="node">
<title>Node1</title>
<g id="a_node1"><a xlink:title=" ">
<polygon fill="#bfbfbf" stroke="black" points="148,-28 148,-47 240,-47 240,-28 148,-28"/>
<text text-anchor="middle" x="194" y="-35" font-family="Helvetica,sans-Serif" font-size="10.00">v8::Maybe::IsJust</text>
</a>
</g>
</g>
<!-- Node2 -->
<g id="node2" class="node">
<title>Node2</title>
<g id="a_node2"><a xlink:href="classv8_1_1Maybe.html#af190e1c503b1b5dca0eb6dc5ed264448" target="_top" xlink:title=" ">
<polygon fill="white" stroke="black" points="0,-50 0,-69 112,-69 112,-50 0,-50"/>
<text text-anchor="middle" x="56" y="-57" font-family="Helvetica,sans-Serif" font-size="10.00">v8::Maybe::operator==</text>
</a>
</g>
</g>
<!-- Node1&#45;&gt;Node2 -->
<g id="edge1" class="edge">
<title>Node1&#45;&gt;Node2</title>
<path fill="none" stroke="midnightblue" d="M137.59,-46.46C129.15,-47.83 120.45,-49.24 112.02,-50.6"/>
<polygon fill="midnightblue" stroke="midnightblue" points="138.4,-49.88 147.71,-44.83 137.28,-42.97 138.4,-49.88"/>
</g>
<!-- Node3 -->
<g id="node3" class="node">
<title>Node3</title>
<g id="a_node3"><a xlink:href="classv8_1_1Maybe_3_01void_01_4.html#a3e50b2a7e2224c69fdde7abdddd79faf" target="_top" xlink:title=" ">
<polygon fill="white" stroke="black" points="6.5,-0.5 6.5,-30.5 105.5,-30.5 105.5,-0.5 6.5,-0.5"/>
<text text-anchor="start" x="14.5" y="-18.5" font-family="Helvetica,sans-Serif" font-size="10.00">v8::Maybe&lt; void &gt;::</text>
<text text-anchor="middle" x="56" y="-7.5" font-family="Helvetica,sans-Serif" font-size="10.00">operator==</text>
</a>
</g>
</g>
<!-- Node1&#45;&gt;Node3 -->
<g id="edge2" class="edge">
<title>Node1&#45;&gt;Node3</title>
<path fill="none" stroke="midnightblue" d="M137.74,-28.56C127.17,-26.85 116.18,-25.07 105.83,-23.4"/>
<polygon fill="midnightblue" stroke="midnightblue" points="137.28,-32.03 147.71,-30.17 138.4,-25.12 137.28,-32.03"/>
</g>
</g>
</svg>
