<?xml version="1.0" encoding="UTF-8" standalone="no"?>
<!DOCTYPE svg PUBLIC "-//W3C//DTD SVG 1.1//EN"
 "http://www.w3.org/Graphics/SVG/1.1/DTD/svg11.dtd">
<!-- Generated by graphviz version 2.44.0 ()
 -->
<!-- Title: include/v8&#45;inspector&#45;protocol.h Pages: 1 -->
<svg width="813pt" height="263pt"
 viewBox="0.00 0.00 812.50 263.00" xmlns="http://www.w3.org/2000/svg" xmlns:xlink="http://www.w3.org/1999/xlink">
<g id="graph0" class="graph" transform="scale(1 1) rotate(0) translate(4 259)">
<title>include/v8&#45;inspector&#45;protocol.h</title>
<polygon fill="white" stroke="transparent" points="-4,4 -4,-259 808.5,-259 808.5,4 -4,4"/>
<!-- Node1 -->
<g id="node1" class="node">
<title>Node1</title>
<g id="a_node1"><a xlink:title=" ">
<polygon fill="#bfbfbf" stroke="black" points="186,-224.5 186,-254.5 290,-254.5 290,-224.5 186,-224.5"/>
<text text-anchor="start" x="194" y="-242.5" font-family="Helvetica,sans-Serif" font-size="10.00">include/v8&#45;inspector</text>
<text text-anchor="middle" x="238" y="-231.5" font-family="Helvetica,sans-Serif" font-size="10.00">&#45;protocol.h</text>
</a>
</g>
</g>
<!-- Node2 -->
<g id="node2" class="node">
<title>Node2</title>
<g id="a_node2"><a xlink:title=" ">
<polygon fill="white" stroke="#bfbfbf" points="0,-168.5 0,-187.5 108,-187.5 108,-168.5 0,-168.5"/>
<text text-anchor="middle" x="54" y="-175.5" font-family="Helvetica,sans-Serif" font-size="10.00">inspector/Debugger.h</text>
</a>
</g>
</g>
<!-- Node1&#45;&gt;Node2 -->
<g id="edge1" class="edge">
<title>Node1&#45;&gt;Node2</title>
<path fill="none" stroke="midnightblue" d="M194.39,-224.4C162.6,-214.12 120.03,-200.35 90.13,-190.68"/>
<polygon fill="midnightblue" stroke="midnightblue" points="91.1,-187.32 80.51,-187.57 88.94,-193.98 91.1,-187.32"/>
</g>
<!-- Node3 -->
<g id="node3" class="node">
<title>Node3</title>
<g id="a_node3"><a xlink:title=" ">
<polygon fill="white" stroke="#bfbfbf" points="126.5,-168.5 126.5,-187.5 229.5,-187.5 229.5,-168.5 126.5,-168.5"/>
<text text-anchor="middle" x="178" y="-175.5" font-family="Helvetica,sans-Serif" font-size="10.00">inspector/Runtime.h</text>
</a>
</g>
</g>
<!-- Node1&#45;&gt;Node3 -->
<g id="edge2" class="edge">
<title>Node1&#45;&gt;Node3</title>
<path fill="none" stroke="midnightblue" d="M223.78,-224.4C214.79,-215.49 203.16,-203.95 193.87,-194.74"/>
<polygon fill="midnightblue" stroke="midnightblue" points="196.3,-192.21 186.73,-187.66 191.37,-197.18 196.3,-192.21"/>
</g>
<!-- Node4 -->
<g id="node4" class="node">
<title>Node4</title>
<g id="a_node4"><a xlink:title=" ">
<polygon fill="white" stroke="#bfbfbf" points="247.5,-168.5 247.5,-187.5 350.5,-187.5 350.5,-168.5 247.5,-168.5"/>
<text text-anchor="middle" x="299" y="-175.5" font-family="Helvetica,sans-Serif" font-size="10.00">inspector/Schema.h</text>
</a>
</g>
</g>
<!-- Node1&#45;&gt;Node4 -->
<g id="edge3" class="edge">
<title>Node1&#45;&gt;Node4</title>
<path fill="none" stroke="midnightblue" d="M252.46,-224.4C261.59,-215.49 273.42,-203.95 282.86,-194.74"/>
<polygon fill="midnightblue" stroke="midnightblue" points="285.41,-197.15 290.12,-187.66 280.52,-192.13 285.41,-197.15"/>
</g>
<!-- Node5 -->
<g id="node5" class="node">
<title>Node5</title>
<g id="a_node5"><a xlink:href="v8-inspector_8h.html" target="_top" xlink:title=" ">
<polygon fill="white" stroke="black" points="368.5,-168.5 368.5,-187.5 445.5,-187.5 445.5,-168.5 368.5,-168.5"/>
<text text-anchor="middle" x="407" y="-175.5" font-family="Helvetica,sans-Serif" font-size="10.00">v8&#45;inspector.h</text>
</a>
</g>
</g>
<!-- Node1&#45;&gt;Node5 -->
<g id="edge4" class="edge">
<title>Node1&#45;&gt;Node5</title>
<path fill="none" stroke="midnightblue" d="M278.05,-224.4C306.91,-214.24 345.45,-200.67 372.85,-191.02"/>
<polygon fill="midnightblue" stroke="midnightblue" points="374.14,-194.28 382.41,-187.66 371.81,-187.68 374.14,-194.28"/>
</g>
<!-- Node6 -->
<g id="node6" class="node">
<title>Node6</title>
<g id="a_node6"><a xlink:title=" ">
<polygon fill="white" stroke="#bfbfbf" points="375,-0.5 375,-19.5 423,-19.5 423,-0.5 375,-0.5"/>
<text text-anchor="middle" x="399" y="-7.5" font-family="Helvetica,sans-Serif" font-size="10.00">stdint.h</text>
</a>
</g>
</g>
<!-- Node5&#45;&gt;Node6 -->
<g id="edge5" class="edge">
<title>Node5&#45;&gt;Node6</title>
<path fill="none" stroke="midnightblue" d="M369.95,-168.49C286.26,-148.42 92.45,-96.74 127,-56 157.06,-20.56 298.03,-12.99 364.34,-11.4"/>
<polygon fill="midnightblue" stroke="midnightblue" points="364.77,-14.9 374.69,-11.19 364.62,-7.9 364.77,-14.9"/>
</g>
<!-- Node7 -->
<g id="node7" class="node">
<title>Node7</title>
<g id="a_node7"><a xlink:title=" ">
<polygon fill="white" stroke="#bfbfbf" points="442.5,-112.5 442.5,-131.5 487.5,-131.5 487.5,-112.5 442.5,-112.5"/>
<text text-anchor="middle" x="465" y="-119.5" font-family="Helvetica,sans-Serif" font-size="10.00">cctype</text>
</a>
</g>
</g>
<!-- Node5&#45;&gt;Node7 -->
<g id="edge6" class="edge">
<title>Node5&#45;&gt;Node7</title>
<path fill="none" stroke="midnightblue" d="M416.32,-168.32C424.89,-160.34 437.81,-148.31 448.19,-138.65"/>
<polygon fill="midnightblue" stroke="midnightblue" points="450.58,-141.21 455.51,-131.83 445.81,-136.09 450.58,-141.21"/>
</g>
<!-- Node8 -->
<g id="node8" class="node">
<title>Node8</title>
<g id="a_node8"><a xlink:title=" ">
<polygon fill="white" stroke="#bfbfbf" points="136.5,-56.5 136.5,-75.5 187.5,-75.5 187.5,-56.5 136.5,-56.5"/>
<text text-anchor="middle" x="162" y="-63.5" font-family="Helvetica,sans-Serif" font-size="10.00">memory</text>
</a>
</g>
</g>
<!-- Node5&#45;&gt;Node8 -->
<g id="edge7" class="edge">
<title>Node5&#45;&gt;Node8</title>
<path fill="none" stroke="midnightblue" d="M387.78,-168.37C344.84,-149.09 240.96,-102.45 190.49,-79.79"/>
<polygon fill="midnightblue" stroke="midnightblue" points="191.69,-76.49 181.14,-75.59 188.82,-82.88 191.69,-76.49"/>
</g>
<!-- Node9 -->
<g id="node9" class="node">
<title>Node9</title>
<g id="a_node9"><a xlink:title=" ">
<polygon fill="white" stroke="#bfbfbf" points="505.5,-112.5 505.5,-131.5 588.5,-131.5 588.5,-112.5 505.5,-112.5"/>
<text text-anchor="middle" x="547" y="-119.5" font-family="Helvetica,sans-Serif" font-size="10.00">unordered_map</text>
</a>
</g>
</g>
<!-- Node5&#45;&gt;Node9 -->
<g id="edge8" class="edge">
<title>Node5&#45;&gt;Node9</title>
<path fill="none" stroke="midnightblue" d="M429.18,-168.44C452.43,-159.48 489.15,-145.31 515.42,-135.18"/>
<polygon fill="midnightblue" stroke="midnightblue" points="516.85,-138.38 524.92,-131.52 514.33,-131.85 516.85,-138.38"/>
</g>
<!-- Node10 -->
<g id="node10" class="node">
<title>Node10</title>
<g id="a_node10"><a xlink:href="v8_8h.html" target="_top" xlink:title=" ">
<polygon fill="white" stroke="black" points="389.5,-112.5 389.5,-131.5 424.5,-131.5 424.5,-112.5 389.5,-112.5"/>
<text text-anchor="middle" x="407" y="-119.5" font-family="Helvetica,sans-Serif" font-size="10.00">v8.h</text>
</a>
</g>
</g>
<!-- Node5&#45;&gt;Node10 -->
<g id="edge9" class="edge">
<title>Node5&#45;&gt;Node10</title>
<path fill="none" stroke="midnightblue" d="M407,-168.08C407,-161.01 407,-150.86 407,-141.99"/>
<polygon fill="midnightblue" stroke="midnightblue" points="410.5,-141.75 407,-131.75 403.5,-141.75 410.5,-141.75"/>
</g>
<!-- Node10&#45;&gt;Node6 -->
<g id="edge11" class="edge">
<title>Node10&#45;&gt;Node6</title>
<path fill="none" stroke="midnightblue" d="M416.05,-112.38C427.75,-100.13 445.78,-76.85 438,-56 433.83,-44.81 425.48,-34.56 417.58,-26.68"/>
<polygon fill="midnightblue" stroke="midnightblue" points="419.7,-23.87 409.99,-19.63 414.94,-29 419.7,-23.87"/>
</g>
<!-- Node10&#45;&gt;Node8 -->
<g id="edge13" class="edge">
<title>Node10&#45;&gt;Node8</title>
<path fill="none" stroke="midnightblue" d="M389.43,-117.55C354.64,-110.67 274.36,-94.46 197.43,-76.26"/>
<polygon fill="midnightblue" stroke="midnightblue" points="198.12,-72.83 187.59,-73.92 196.5,-79.64 198.12,-72.83"/>
</g>
<!-- Node11 -->
<g id="node11" class="node">
<title>Node11</title>
<g id="a_node11"><a xlink:title=" ">
<polygon fill="white" stroke="#bfbfbf" points="585.5,-0.5 585.5,-19.5 636.5,-19.5 636.5,-0.5 585.5,-0.5"/>
<text text-anchor="middle" x="611" y="-7.5" font-family="Helvetica,sans-Serif" font-size="10.00">stddef.h</text>
</a>
</g>
</g>
<!-- Node10&#45;&gt;Node11 -->
<g id="edge10" class="edge">
<title>Node10&#45;&gt;Node11</title>
<path fill="none" stroke="midnightblue" d="M424.53,-114.61C427.34,-113.67 430.24,-112.77 433,-112 506.55,-91.47 548.6,-131.55 601,-76 612.37,-63.94 614.06,-44.65 613.39,-30.21"/>
<polygon fill="midnightblue" stroke="midnightblue" points="616.85,-29.56 612.49,-19.91 609.88,-30.17 616.85,-29.56"/>
</g>
<!-- Node12 -->
<g id="node12" class="node">
<title>Node12</title>
<g id="a_node12"><a xlink:title=" ">
<polygon fill="white" stroke="#bfbfbf" points="205.5,-56.5 205.5,-75.5 250.5,-75.5 250.5,-56.5 205.5,-56.5"/>
<text text-anchor="middle" x="228" y="-63.5" font-family="Helvetica,sans-Serif" font-size="10.00">stdio.h</text>
</a>
</g>
</g>
<!-- Node10&#45;&gt;Node12 -->
<g id="edge12" class="edge">
<title>Node10&#45;&gt;Node12</title>
<path fill="none" stroke="midnightblue" d="M389.18,-115.62C359.28,-106.6 298.55,-88.28 260.77,-76.89"/>
<polygon fill="midnightblue" stroke="midnightblue" points="261.35,-73.41 250.77,-73.87 259.33,-80.11 261.35,-73.41"/>
</g>
<!-- Node13 -->
<g id="node13" class="node">
<title>Node13</title>
<g id="a_node13"><a xlink:title=" ">
<polygon fill="white" stroke="#bfbfbf" points="268.5,-56.5 268.5,-75.5 309.5,-75.5 309.5,-56.5 268.5,-56.5"/>
<text text-anchor="middle" x="289" y="-63.5" font-family="Helvetica,sans-Serif" font-size="10.00">string</text>
</a>
</g>
</g>
<!-- Node10&#45;&gt;Node13 -->
<g id="edge14" class="edge">
<title>Node10&#45;&gt;Node13</title>
<path fill="none" stroke="midnightblue" d="M389.33,-112.92C370.29,-104.2 339.71,-90.2 317.3,-79.95"/>
<polygon fill="midnightblue" stroke="midnightblue" points="318.51,-76.66 307.96,-75.68 315.6,-83.02 318.51,-76.66"/>
</g>
<!-- Node14 -->
<g id="node14" class="node">
<title>Node14</title>
<g id="a_node14"><a xlink:title=" ">
<polygon fill="white" stroke="#bfbfbf" points="655,-0.5 655,-19.5 717,-19.5 717,-0.5 655,-0.5"/>
<text text-anchor="middle" x="686" y="-7.5" font-family="Helvetica,sans-Serif" font-size="10.00">type_traits</text>
</a>
</g>
</g>
<!-- Node10&#45;&gt;Node14 -->
<g id="edge15" class="edge">
<title>Node10&#45;&gt;Node14</title>
<path fill="none" stroke="midnightblue" d="M424.52,-114.55C427.33,-113.63 430.23,-112.74 433,-112 515.19,-90.03 545.83,-115.83 621,-76 642.93,-64.38 662.2,-42.9 673.95,-27.82"/>
<polygon fill="midnightblue" stroke="midnightblue" points="676.76,-29.9 679.96,-19.8 671.16,-25.7 676.76,-29.9"/>
</g>
<!-- Node15 -->
<g id="node15" class="node">
<title>Node15</title>
<g id="a_node15"><a xlink:title=" ">
<polygon fill="white" stroke="#bfbfbf" points="327.5,-56.5 327.5,-75.5 366.5,-75.5 366.5,-56.5 327.5,-56.5"/>
<text text-anchor="middle" x="347" y="-63.5" font-family="Helvetica,sans-Serif" font-size="10.00">utility</text>
</a>
</g>
</g>
<!-- Node10&#45;&gt;Node15 -->
<g id="edge16" class="edge">
<title>Node10&#45;&gt;Node15</title>
<path fill="none" stroke="midnightblue" d="M397.36,-112.32C388.49,-104.34 375.13,-92.31 364.39,-82.65"/>
<polygon fill="midnightblue" stroke="midnightblue" points="366.59,-79.92 356.82,-75.83 361.91,-85.13 366.59,-79.92"/>
</g>
<!-- Node16 -->
<g id="node16" class="node">
<title>Node16</title>
<g id="a_node16"><a xlink:title=" ">
<polygon fill="white" stroke="#bfbfbf" points="385,-56.5 385,-75.5 429,-75.5 429,-56.5 385,-56.5"/>
<text text-anchor="middle" x="407" y="-63.5" font-family="Helvetica,sans-Serif" font-size="10.00">vector</text>
</a>
</g>
</g>
<!-- Node10&#45;&gt;Node16 -->
<g id="edge17" class="edge">
<title>Node10&#45;&gt;Node16</title>
<path fill="none" stroke="midnightblue" d="M407,-112.08C407,-105.01 407,-94.86 407,-85.99"/>
<polygon fill="midnightblue" stroke="midnightblue" points="410.5,-85.75 407,-75.75 403.5,-85.75 410.5,-85.75"/>
</g>
<!-- Node17 -->
<g id="node17" class="node">
<title>Node17</title>
<g id="a_node17"><a xlink:href="v8-internal_8h.html" target="_top" xlink:title=" ">
<polygon fill="white" stroke="black" points="523.5,-56.5 523.5,-75.5 592.5,-75.5 592.5,-56.5 523.5,-56.5"/>
<text text-anchor="middle" x="558" y="-63.5" font-family="Helvetica,sans-Serif" font-size="10.00">v8&#45;internal.h</text>
</a>
</g>
</g>
<!-- Node10&#45;&gt;Node17 -->
<g id="edge18" class="edge">
<title>Node10&#45;&gt;Node17</title>
<path fill="none" stroke="midnightblue" d="M424.62,-114.7C449.05,-105.96 493.68,-90 524.55,-78.96"/>
<polygon fill="midnightblue" stroke="midnightblue" points="525.81,-82.23 534.04,-75.57 523.45,-75.64 525.81,-82.23"/>
</g>
<!-- Node19 -->
<g id="node19" class="node">
<title>Node19</title>
<g id="a_node19"><a xlink:href="v8-version_8h.html" target="_top" xlink:title=" ">
<polygon fill="white" stroke="black" points="735.5,-0.5 735.5,-19.5 804.5,-19.5 804.5,-0.5 735.5,-0.5"/>
<text text-anchor="middle" x="770" y="-7.5" font-family="Helvetica,sans-Serif" font-size="10.00">v8&#45;version.h</text>
</a>
</g>
</g>
<!-- Node10&#45;&gt;Node19 -->
<g id="edge25" class="edge">
<title>Node10&#45;&gt;Node19</title>
<path fill="none" stroke="midnightblue" d="M424.5,-114.49C427.32,-113.58 430.22,-112.71 433,-112 527.32,-88 556.9,-107.45 649,-76 686.06,-63.35 725.36,-40.18 748.78,-25.2"/>
<polygon fill="midnightblue" stroke="midnightblue" points="750.75,-28.09 757.22,-19.71 746.93,-22.22 750.75,-28.09"/>
</g>
<!-- Node20 -->
<g id="node20" class="node">
<title>Node20</title>
<g id="a_node20"><a xlink:href="v8config_8h.html" target="_top" xlink:title=" ">
<polygon fill="white" stroke="black" points="441,-0.5 441,-19.5 501,-19.5 501,-0.5 441,-0.5"/>
<text text-anchor="middle" x="471" y="-7.5" font-family="Helvetica,sans-Serif" font-size="10.00">v8config.h</text>
</a>
</g>
</g>
<!-- Node10&#45;&gt;Node20 -->
<g id="edge26" class="edge">
<title>Node10&#45;&gt;Node20</title>
<path fill="none" stroke="midnightblue" d="M418.92,-112.32C429.38,-104.09 444.25,-90.82 453,-76 461.46,-61.66 466.08,-43.2 468.51,-29.62"/>
<polygon fill="midnightblue" stroke="midnightblue" points="472,-29.97 470.07,-19.55 465.08,-28.9 472,-29.97"/>
</g>
<!-- Node17&#45;&gt;Node6 -->
<g id="edge20" class="edge">
<title>Node17&#45;&gt;Node6</title>
<path fill="none" stroke="midnightblue" d="M532.81,-56.44C505.74,-47.25 462.6,-32.6 432.64,-22.43"/>
<polygon fill="midnightblue" stroke="midnightblue" points="433.63,-19.06 423.04,-19.16 431.38,-25.69 433.63,-19.06"/>
</g>
<!-- Node17&#45;&gt;Node11 -->
<g id="edge19" class="edge">
<title>Node17&#45;&gt;Node11</title>
<path fill="none" stroke="midnightblue" d="M566.75,-56.08C574.47,-48.22 585.9,-36.57 595.22,-27.08"/>
<polygon fill="midnightblue" stroke="midnightblue" points="597.9,-29.34 602.41,-19.75 592.91,-24.44 597.9,-29.34"/>
</g>
<!-- Node17&#45;&gt;Node14 -->
<g id="edge22" class="edge">
<title>Node17&#45;&gt;Node14</title>
<path fill="none" stroke="midnightblue" d="M578.28,-56.44C599.35,-47.56 632.52,-33.56 656.49,-23.45"/>
<polygon fill="midnightblue" stroke="midnightblue" points="657.96,-26.63 665.81,-19.52 655.24,-20.18 657.96,-26.63"/>
</g>
<!-- Node18 -->
<g id="node18" class="node">
<title>Node18</title>
<g id="a_node18"><a xlink:title=" ">
<polygon fill="white" stroke="#bfbfbf" points="519,-0.5 519,-19.5 567,-19.5 567,-0.5 519,-0.5"/>
<text text-anchor="middle" x="543" y="-7.5" font-family="Helvetica,sans-Serif" font-size="10.00">string.h</text>
</a>
</g>
</g>
<!-- Node17&#45;&gt;Node18 -->
<g id="edge21" class="edge">
<title>Node17&#45;&gt;Node18</title>
<path fill="none" stroke="midnightblue" d="M555.52,-56.08C553.51,-48.85 550.61,-38.41 548.11,-29.4"/>
<polygon fill="midnightblue" stroke="midnightblue" points="551.48,-28.45 545.43,-19.75 544.74,-30.32 551.48,-28.45"/>
</g>
<!-- Node17&#45;&gt;Node19 -->
<g id="edge23" class="edge">
<title>Node17&#45;&gt;Node19</title>
<path fill="none" stroke="midnightblue" d="M591.59,-56.44C628.19,-47.12 686.84,-32.18 726.83,-22"/>
<polygon fill="midnightblue" stroke="midnightblue" points="727.74,-25.38 736.57,-19.52 726.01,-18.59 727.74,-25.38"/>
</g>
<!-- Node17&#45;&gt;Node20 -->
<g id="edge24" class="edge">
<title>Node17&#45;&gt;Node20</title>
<path fill="none" stroke="midnightblue" d="M544.02,-56.32C530.45,-47.9 509.62,-34.97 493.68,-25.07"/>
<polygon fill="midnightblue" stroke="midnightblue" points="495.29,-21.95 484.94,-19.65 491.59,-27.9 495.29,-21.95"/>
</g>
</g>
</svg>
