<?xml version="1.0" encoding="UTF-8" standalone="no"?>
<!DOCTYPE svg PUBLIC "-//W3C//DTD SVG 1.1//EN"
 "http://www.w3.org/Graphics/SVG/1.1/DTD/svg11.dtd">
<!-- Generated by graphviz version 2.44.0 ()
 -->
<!-- Title: include/libplatform/v8&#45;tracing.h Pages: 1 -->
<svg width="662pt" height="162pt"
 viewBox="0.00 0.00 662.00 162.00" xmlns="http://www.w3.org/2000/svg" xmlns:xlink="http://www.w3.org/1999/xlink">
<g id="graph0" class="graph" transform="scale(1 1) rotate(0) translate(4 158)">
<title>include/libplatform/v8&#45;tracing.h</title>
<polygon fill="white" stroke="transparent" points="-4,4 -4,-158 658,-158 658,4 -4,4"/>
<!-- Node1 -->
<g id="node1" class="node">
<title>Node1</title>
<g id="a_node1"><a xlink:title=" ">
<polygon fill="#bfbfbf" stroke="black" points="161.5,-123.5 161.5,-153.5 256.5,-153.5 256.5,-123.5 161.5,-123.5"/>
<text text-anchor="start" x="169.5" y="-141.5" font-family="Helvetica,sans-Serif" font-size="10.00">include/libplatform</text>
<text text-anchor="middle" x="209" y="-130.5" font-family="Helvetica,sans-Serif" font-size="10.00">/v8&#45;tracing.h</text>
</a>
</g>
</g>
<!-- Node2 -->
<g id="node2" class="node">
<title>Node2</title>
<g id="a_node2"><a xlink:title=" ">
<polygon fill="white" stroke="#bfbfbf" points="0,-62 0,-81 46,-81 46,-62 0,-62"/>
<text text-anchor="middle" x="23" y="-69" font-family="Helvetica,sans-Serif" font-size="10.00">atomic</text>
</a>
</g>
</g>
<!-- Node1&#45;&gt;Node2 -->
<g id="edge1" class="edge">
<title>Node1&#45;&gt;Node2</title>
<path fill="none" stroke="midnightblue" d="M161.69,-123.45C130.99,-113.97 90.27,-100.73 55,-87 53.58,-86.45 52.13,-85.86 50.67,-85.26"/>
<polygon fill="midnightblue" stroke="midnightblue" points="51.7,-81.89 41.13,-81.13 48.92,-88.31 51.7,-81.89"/>
</g>
<!-- Node3 -->
<g id="node3" class="node">
<title>Node3</title>
<g id="a_node3"><a xlink:title=" ">
<polygon fill="white" stroke="#bfbfbf" points="64,-62 64,-81 114,-81 114,-62 64,-62"/>
<text text-anchor="middle" x="89" y="-69" font-family="Helvetica,sans-Serif" font-size="10.00">fstream</text>
</a>
</g>
</g>
<!-- Node1&#45;&gt;Node3 -->
<g id="edge2" class="edge">
<title>Node1&#45;&gt;Node3</title>
<path fill="none" stroke="midnightblue" d="M182.96,-123.4C162.37,-112.24 133.83,-96.78 113.62,-85.83"/>
<polygon fill="midnightblue" stroke="midnightblue" points="115.17,-82.69 104.71,-81.01 111.83,-88.85 115.17,-82.69"/>
</g>
<!-- Node4 -->
<g id="node4" class="node">
<title>Node4</title>
<g id="a_node4"><a xlink:title=" ">
<polygon fill="white" stroke="#bfbfbf" points="190.5,-0.5 190.5,-19.5 241.5,-19.5 241.5,-0.5 190.5,-0.5"/>
<text text-anchor="middle" x="216" y="-7.5" font-family="Helvetica,sans-Serif" font-size="10.00">memory</text>
</a>
</g>
</g>
<!-- Node1&#45;&gt;Node4 -->
<g id="edge3" class="edge">
<title>Node1&#45;&gt;Node4</title>
<path fill="none" stroke="midnightblue" d="M189.8,-123.45C179.12,-114.4 166.83,-101.6 161,-87 155.89,-74.21 155.1,-68.45 161,-56 167.13,-43.07 178.99,-32.62 190.14,-25.05"/>
<polygon fill="midnightblue" stroke="midnightblue" points="192.19,-27.9 198.8,-19.61 188.47,-21.97 192.19,-27.9"/>
</g>
<!-- Node5 -->
<g id="node5" class="node">
<title>Node5</title>
<g id="a_node5"><a xlink:title=" ">
<polygon fill="white" stroke="#bfbfbf" points="170,-62 170,-81 248,-81 248,-62 170,-62"/>
<text text-anchor="middle" x="209" y="-69" font-family="Helvetica,sans-Serif" font-size="10.00">unordered_set</text>
</a>
</g>
</g>
<!-- Node1&#45;&gt;Node5 -->
<g id="edge4" class="edge">
<title>Node1&#45;&gt;Node5</title>
<path fill="none" stroke="midnightblue" d="M209,-123.4C209,-114.06 209,-101.71 209,-91.52"/>
<polygon fill="midnightblue" stroke="midnightblue" points="212.5,-91.19 209,-81.19 205.5,-91.19 212.5,-91.19"/>
</g>
<!-- Node6 -->
<g id="node6" class="node">
<title>Node6</title>
<g id="a_node6"><a xlink:title=" ">
<polygon fill="white" stroke="#bfbfbf" points="266,-62 266,-81 310,-81 310,-62 266,-62"/>
<text text-anchor="middle" x="288" y="-69" font-family="Helvetica,sans-Serif" font-size="10.00">vector</text>
</a>
</g>
</g>
<!-- Node1&#45;&gt;Node6 -->
<g id="edge5" class="edge">
<title>Node1&#45;&gt;Node6</title>
<path fill="none" stroke="midnightblue" d="M226.14,-123.4C238.95,-112.86 256.43,-98.48 269.54,-87.69"/>
<polygon fill="midnightblue" stroke="midnightblue" points="271.93,-90.25 277.43,-81.19 267.49,-84.85 271.93,-90.25"/>
</g>
<!-- Node7 -->
<g id="node7" class="node">
<title>Node7</title>
<g id="a_node7"><a xlink:href="libplatform-export_8h.html" target="_top" xlink:title=" ">
<polygon fill="white" stroke="black" points="328,-56.5 328,-86.5 438,-86.5 438,-56.5 328,-56.5"/>
<text text-anchor="start" x="336" y="-74.5" font-family="Helvetica,sans-Serif" font-size="10.00">libplatform/libplatform</text>
<text text-anchor="middle" x="383" y="-63.5" font-family="Helvetica,sans-Serif" font-size="10.00">&#45;export.h</text>
</a>
</g>
</g>
<!-- Node1&#45;&gt;Node7 -->
<g id="edge6" class="edge">
<title>Node1&#45;&gt;Node7</title>
<path fill="none" stroke="midnightblue" d="M246.76,-123.4C272.86,-113.64 307.79,-100.59 335.75,-90.15"/>
<polygon fill="midnightblue" stroke="midnightblue" points="337.18,-93.35 345.32,-86.58 334.73,-86.8 337.18,-93.35"/>
</g>
<!-- Node8 -->
<g id="node8" class="node">
<title>Node8</title>
<g id="a_node8"><a xlink:href="v8-platform_8h.html" target="_top" xlink:title=" ">
<polygon fill="white" stroke="black" points="456.5,-62 456.5,-81 529.5,-81 529.5,-62 456.5,-62"/>
<text text-anchor="middle" x="493" y="-69" font-family="Helvetica,sans-Serif" font-size="10.00">v8&#45;platform.h</text>
</a>
</g>
</g>
<!-- Node1&#45;&gt;Node8 -->
<g id="edge7" class="edge">
<title>Node1&#45;&gt;Node8</title>
<path fill="none" stroke="midnightblue" d="M256.73,-128.77C305.01,-119.62 381.64,-104.19 447,-87 450.42,-86.1 453.97,-85.1 457.51,-84.06"/>
<polygon fill="midnightblue" stroke="midnightblue" points="458.79,-87.33 467.34,-81.07 456.75,-80.63 458.79,-87.33"/>
</g>
<!-- Node8&#45;&gt;Node4 -->
<g id="edge11" class="edge">
<title>Node8&#45;&gt;Node4</title>
<path fill="none" stroke="midnightblue" d="M467.36,-61.85C460.77,-59.79 453.65,-57.69 447,-56 378.48,-38.59 297.06,-24.16 251.48,-16.63"/>
<polygon fill="midnightblue" stroke="midnightblue" points="251.94,-13.16 241.5,-15 250.81,-20.07 251.94,-13.16"/>
</g>
<!-- Node9 -->
<g id="node9" class="node">
<title>Node9</title>
<g id="a_node9"><a xlink:title=" ">
<polygon fill="white" stroke="#bfbfbf" points="333.5,-0.5 333.5,-19.5 384.5,-19.5 384.5,-0.5 333.5,-0.5"/>
<text text-anchor="middle" x="359" y="-7.5" font-family="Helvetica,sans-Serif" font-size="10.00">stddef.h</text>
</a>
</g>
</g>
<!-- Node8&#45;&gt;Node9 -->
<g id="edge8" class="edge">
<title>Node8&#45;&gt;Node9</title>
<path fill="none" stroke="midnightblue" d="M473.8,-61.98C451.21,-51.95 413.5,-35.2 387.5,-23.65"/>
<polygon fill="midnightblue" stroke="midnightblue" points="388.72,-20.37 378.16,-19.51 385.88,-26.77 388.72,-20.37"/>
</g>
<!-- Node10 -->
<g id="node10" class="node">
<title>Node10</title>
<g id="a_node10"><a xlink:title=" ">
<polygon fill="white" stroke="#bfbfbf" points="403,-0.5 403,-19.5 451,-19.5 451,-0.5 403,-0.5"/>
<text text-anchor="middle" x="427" y="-7.5" font-family="Helvetica,sans-Serif" font-size="10.00">stdint.h</text>
</a>
</g>
</g>
<!-- Node8&#45;&gt;Node10 -->
<g id="edge9" class="edge">
<title>Node8&#45;&gt;Node10</title>
<path fill="none" stroke="midnightblue" d="M483.54,-61.98C473.25,-52.7 456.58,-37.67 444.01,-26.33"/>
<polygon fill="midnightblue" stroke="midnightblue" points="446.21,-23.61 436.44,-19.51 441.52,-28.8 446.21,-23.61"/>
</g>
<!-- Node11 -->
<g id="node11" class="node">
<title>Node11</title>
<g id="a_node11"><a xlink:title=" ">
<polygon fill="white" stroke="#bfbfbf" points="469.5,-0.5 469.5,-19.5 516.5,-19.5 516.5,-0.5 469.5,-0.5"/>
<text text-anchor="middle" x="493" y="-7.5" font-family="Helvetica,sans-Serif" font-size="10.00">stdlib.h</text>
</a>
</g>
</g>
<!-- Node8&#45;&gt;Node11 -->
<g id="edge10" class="edge">
<title>Node8&#45;&gt;Node11</title>
<path fill="none" stroke="midnightblue" d="M493,-61.98C493,-53.58 493,-40.48 493,-29.66"/>
<polygon fill="midnightblue" stroke="midnightblue" points="496.5,-29.51 493,-19.51 489.5,-29.51 496.5,-29.51"/>
</g>
<!-- Node12 -->
<g id="node12" class="node">
<title>Node12</title>
<g id="a_node12"><a xlink:title=" ">
<polygon fill="white" stroke="#bfbfbf" points="534.5,-0.5 534.5,-19.5 575.5,-19.5 575.5,-0.5 534.5,-0.5"/>
<text text-anchor="middle" x="555" y="-7.5" font-family="Helvetica,sans-Serif" font-size="10.00">string</text>
</a>
</g>
</g>
<!-- Node8&#45;&gt;Node12 -->
<g id="edge12" class="edge">
<title>Node8&#45;&gt;Node12</title>
<path fill="none" stroke="midnightblue" d="M501.88,-61.98C511.46,-52.78 526.91,-37.96 538.69,-26.66"/>
<polygon fill="midnightblue" stroke="midnightblue" points="541.34,-28.96 546.13,-19.51 536.49,-23.91 541.34,-28.96"/>
</g>
<!-- Node13 -->
<g id="node13" class="node">
<title>Node13</title>
<g id="a_node13"><a xlink:href="v8config_8h.html" target="_top" xlink:title=" ">
<polygon fill="white" stroke="black" points="594,-0.5 594,-19.5 654,-19.5 654,-0.5 594,-0.5"/>
<text text-anchor="middle" x="624" y="-7.5" font-family="Helvetica,sans-Serif" font-size="10.00">v8config.h</text>
</a>
</g>
</g>
<!-- Node8&#45;&gt;Node13 -->
<g id="edge13" class="edge">
<title>Node8&#45;&gt;Node13</title>
<path fill="none" stroke="midnightblue" d="M511.77,-61.98C533.85,-51.95 570.72,-35.2 596.14,-23.65"/>
<polygon fill="midnightblue" stroke="midnightblue" points="597.61,-26.83 605.27,-19.51 594.71,-20.46 597.61,-26.83"/>
</g>
</g>
</svg>
