<?xml version="1.0" encoding="UTF-8" standalone="no"?>
<!DOCTYPE svg PUBLIC "-//W3C//DTD SVG 1.1//EN"
 "http://www.w3.org/Graphics/SVG/1.1/DTD/svg11.dtd">
<!-- Generated by graphviz version 2.44.0 ()
 -->
<!-- Title: include/v8&#45;util.h Pages: 1 -->
<svg width="634pt" height="196pt"
 viewBox="0.00 0.00 634.00 196.00" xmlns="http://www.w3.org/2000/svg" xmlns:xlink="http://www.w3.org/1999/xlink">
<g id="graph0" class="graph" transform="scale(1 1) rotate(0) translate(4 192)">
<title>include/v8&#45;util.h</title>
<polygon fill="white" stroke="transparent" points="-4,4 -4,-192 630,-192 630,4 -4,4"/>
<!-- Node1 -->
<g id="node1" class="node">
<title>Node1</title>
<g id="a_node1"><a xlink:title=" ">
<polygon fill="#bfbfbf" stroke="black" points="478.5,-168.5 478.5,-187.5 562.5,-187.5 562.5,-168.5 478.5,-168.5"/>
<text text-anchor="middle" x="520.5" y="-175.5" font-family="Helvetica,sans-Serif" font-size="10.00">include/v8&#45;util.h</text>
</a>
</g>
</g>
<!-- Node2 -->
<g id="node2" class="node">
<title>Node2</title>
<g id="a_node2"><a xlink:href="v8_8h.html" target="_top" xlink:title=" ">
<polygon fill="white" stroke="black" points="352,-112.5 352,-131.5 387,-131.5 387,-112.5 352,-112.5"/>
<text text-anchor="middle" x="369.5" y="-119.5" font-family="Helvetica,sans-Serif" font-size="10.00">v8.h</text>
</a>
</g>
</g>
<!-- Node1&#45;&gt;Node2 -->
<g id="edge1" class="edge">
<title>Node1&#45;&gt;Node2</title>
<path fill="none" stroke="midnightblue" d="M496.57,-168.44C469.47,-158.75 425.37,-142.98 396.9,-132.8"/>
<polygon fill="midnightblue" stroke="midnightblue" points="397.78,-129.39 387.18,-129.32 395.42,-135.99 397.78,-129.39"/>
</g>
<!-- Node10 -->
<g id="node10" class="node">
<title>Node10</title>
<g id="a_node10"><a xlink:title=" ">
<polygon fill="white" stroke="#bfbfbf" points="550.5,-56.5 550.5,-75.5 594.5,-75.5 594.5,-56.5 550.5,-56.5"/>
<text text-anchor="middle" x="572.5" y="-63.5" font-family="Helvetica,sans-Serif" font-size="10.00">vector</text>
</a>
</g>
</g>
<!-- Node1&#45;&gt;Node10 -->
<g id="edge21" class="edge">
<title>Node1&#45;&gt;Node10</title>
<path fill="none" stroke="midnightblue" d="M516.79,-168.49C511.74,-155.56 504.34,-130.51 513.5,-112 520.1,-98.66 532.76,-88.19 544.67,-80.73"/>
<polygon fill="midnightblue" stroke="midnightblue" points="546.62,-83.64 553.52,-75.6 543.11,-77.59 546.62,-83.64"/>
</g>
<!-- Node15 -->
<g id="node15" class="node">
<title>Node15</title>
<g id="a_node15"><a xlink:title=" ">
<polygon fill="white" stroke="#bfbfbf" points="522,-112.5 522,-131.5 573,-131.5 573,-112.5 522,-112.5"/>
<text text-anchor="middle" x="547.5" y="-119.5" font-family="Helvetica,sans-Serif" font-size="10.00">assert.h</text>
</a>
</g>
</g>
<!-- Node1&#45;&gt;Node15 -->
<g id="edge19" class="edge">
<title>Node1&#45;&gt;Node15</title>
<path fill="none" stroke="midnightblue" d="M524.96,-168.08C528.65,-160.69 534.02,-149.95 538.59,-140.81"/>
<polygon fill="midnightblue" stroke="midnightblue" points="541.78,-142.26 543.12,-131.75 535.52,-139.13 541.78,-142.26"/>
</g>
<!-- Node16 -->
<g id="node16" class="node">
<title>Node16</title>
<g id="a_node16"><a xlink:title=" ">
<polygon fill="white" stroke="#bfbfbf" points="591,-112.5 591,-131.5 626,-131.5 626,-112.5 591,-112.5"/>
<text text-anchor="middle" x="608.5" y="-119.5" font-family="Helvetica,sans-Serif" font-size="10.00">map</text>
</a>
</g>
</g>
<!-- Node1&#45;&gt;Node16 -->
<g id="edge20" class="edge">
<title>Node1&#45;&gt;Node16</title>
<path fill="none" stroke="midnightblue" d="M534.64,-168.32C548.37,-159.9 569.44,-146.97 585.56,-137.07"/>
<polygon fill="midnightblue" stroke="midnightblue" points="587.7,-139.87 594.4,-131.65 584.04,-133.9 587.7,-139.87"/>
</g>
<!-- Node3 -->
<g id="node3" class="node">
<title>Node3</title>
<g id="a_node3"><a xlink:title=" ">
<polygon fill="white" stroke="#bfbfbf" points="294,-0.5 294,-19.5 345,-19.5 345,-0.5 294,-0.5"/>
<text text-anchor="middle" x="319.5" y="-7.5" font-family="Helvetica,sans-Serif" font-size="10.00">stddef.h</text>
</a>
</g>
</g>
<!-- Node2&#45;&gt;Node3 -->
<g id="edge2" class="edge">
<title>Node2&#45;&gt;Node3</title>
<path fill="none" stroke="midnightblue" d="M387,-112.37C408.69,-100.47 441.12,-78 426.5,-56 410.79,-32.35 379.97,-21.1 355.42,-15.77"/>
<polygon fill="midnightblue" stroke="midnightblue" points="355.83,-12.28 345.35,-13.83 354.51,-19.16 355.83,-12.28"/>
</g>
<!-- Node4 -->
<g id="node4" class="node">
<title>Node4</title>
<g id="a_node4"><a xlink:title=" ">
<polygon fill="white" stroke="#bfbfbf" points="394.5,-0.5 394.5,-19.5 442.5,-19.5 442.5,-0.5 394.5,-0.5"/>
<text text-anchor="middle" x="418.5" y="-7.5" font-family="Helvetica,sans-Serif" font-size="10.00">stdint.h</text>
</a>
</g>
</g>
<!-- Node2&#45;&gt;Node4 -->
<g id="edge3" class="edge">
<title>Node2&#45;&gt;Node4</title>
<path fill="none" stroke="midnightblue" d="M387.3,-117.96C408.93,-113.21 444.51,-101.75 460.5,-76 471.21,-58.76 454.66,-39.24 439.29,-26.13"/>
<polygon fill="midnightblue" stroke="midnightblue" points="441.06,-23.06 431.06,-19.56 436.69,-28.53 441.06,-23.06"/>
</g>
<!-- Node5 -->
<g id="node5" class="node">
<title>Node5</title>
<g id="a_node5"><a xlink:title=" ">
<polygon fill="white" stroke="#bfbfbf" points="188,-56.5 188,-75.5 233,-75.5 233,-56.5 188,-56.5"/>
<text text-anchor="middle" x="210.5" y="-63.5" font-family="Helvetica,sans-Serif" font-size="10.00">stdio.h</text>
</a>
</g>
</g>
<!-- Node2&#45;&gt;Node5 -->
<g id="edge4" class="edge">
<title>Node2&#45;&gt;Node5</title>
<path fill="none" stroke="midnightblue" d="M351.88,-115.01C325.57,-106.08 275.61,-89.11 242.68,-77.93"/>
<polygon fill="midnightblue" stroke="midnightblue" points="243.65,-74.56 233.05,-74.66 241.4,-81.19 243.65,-74.56"/>
</g>
<!-- Node6 -->
<g id="node6" class="node">
<title>Node6</title>
<g id="a_node6"><a xlink:title=" ">
<polygon fill="white" stroke="#bfbfbf" points="251,-56.5 251,-75.5 302,-75.5 302,-56.5 251,-56.5"/>
<text text-anchor="middle" x="276.5" y="-63.5" font-family="Helvetica,sans-Serif" font-size="10.00">memory</text>
</a>
</g>
</g>
<!-- Node2&#45;&gt;Node6 -->
<g id="edge5" class="edge">
<title>Node2&#45;&gt;Node6</title>
<path fill="none" stroke="midnightblue" d="M354.56,-112.32C339.91,-103.82 317.37,-90.73 300.26,-80.8"/>
<polygon fill="midnightblue" stroke="midnightblue" points="301.81,-77.65 291.4,-75.65 298.3,-83.7 301.81,-77.65"/>
</g>
<!-- Node7 -->
<g id="node7" class="node">
<title>Node7</title>
<g id="a_node7"><a xlink:title=" ">
<polygon fill="white" stroke="#bfbfbf" points="320,-56.5 320,-75.5 361,-75.5 361,-56.5 320,-56.5"/>
<text text-anchor="middle" x="340.5" y="-63.5" font-family="Helvetica,sans-Serif" font-size="10.00">string</text>
</a>
</g>
</g>
<!-- Node2&#45;&gt;Node7 -->
<g id="edge6" class="edge">
<title>Node2&#45;&gt;Node7</title>
<path fill="none" stroke="midnightblue" d="M364.71,-112.08C360.74,-104.69 354.97,-93.95 350.07,-84.81"/>
<polygon fill="midnightblue" stroke="midnightblue" points="353.01,-82.91 345.2,-75.75 346.85,-86.22 353.01,-82.91"/>
</g>
<!-- Node8 -->
<g id="node8" class="node">
<title>Node8</title>
<g id="a_node8"><a xlink:title=" ">
<polygon fill="white" stroke="#bfbfbf" points="475.5,-0.5 475.5,-19.5 537.5,-19.5 537.5,-0.5 475.5,-0.5"/>
<text text-anchor="middle" x="506.5" y="-7.5" font-family="Helvetica,sans-Serif" font-size="10.00">type_traits</text>
</a>
</g>
</g>
<!-- Node2&#45;&gt;Node8 -->
<g id="edge7" class="edge">
<title>Node2&#45;&gt;Node8</title>
<path fill="none" stroke="midnightblue" d="M387.24,-117.7C410.45,-112.54 451.14,-100.51 476.5,-76 489.61,-63.34 497.54,-43.86 501.93,-29.52"/>
<polygon fill="midnightblue" stroke="midnightblue" points="505.33,-30.33 504.62,-19.76 498.59,-28.47 505.33,-30.33"/>
</g>
<!-- Node9 -->
<g id="node9" class="node">
<title>Node9</title>
<g id="a_node9"><a xlink:title=" ">
<polygon fill="white" stroke="#bfbfbf" points="379,-56.5 379,-75.5 418,-75.5 418,-56.5 379,-56.5"/>
<text text-anchor="middle" x="398.5" y="-63.5" font-family="Helvetica,sans-Serif" font-size="10.00">utility</text>
</a>
</g>
</g>
<!-- Node2&#45;&gt;Node9 -->
<g id="edge8" class="edge">
<title>Node2&#45;&gt;Node9</title>
<path fill="none" stroke="midnightblue" d="M374.29,-112.08C378.26,-104.69 384.03,-93.95 388.93,-84.81"/>
<polygon fill="midnightblue" stroke="midnightblue" points="392.15,-86.22 393.8,-75.75 385.99,-82.91 392.15,-86.22"/>
</g>
<!-- Node2&#45;&gt;Node10 -->
<g id="edge9" class="edge">
<title>Node2&#45;&gt;Node10</title>
<path fill="none" stroke="midnightblue" d="M387.16,-116.3C421.45,-107.18 497.48,-86.96 540.75,-75.45"/>
<polygon fill="midnightblue" stroke="midnightblue" points="541.72,-78.81 550.49,-72.86 539.92,-72.04 541.72,-78.81"/>
</g>
<!-- Node11 -->
<g id="node11" class="node">
<title>Node11</title>
<g id="a_node11"><a xlink:href="v8-internal_8h.html" target="_top" xlink:title=" ">
<polygon fill="white" stroke="black" points="101,-56.5 101,-75.5 170,-75.5 170,-56.5 101,-56.5"/>
<text text-anchor="middle" x="135.5" y="-63.5" font-family="Helvetica,sans-Serif" font-size="10.00">v8&#45;internal.h</text>
</a>
</g>
</g>
<!-- Node2&#45;&gt;Node11 -->
<g id="edge10" class="edge">
<title>Node2&#45;&gt;Node11</title>
<path fill="none" stroke="midnightblue" d="M351.91,-116.94C315.74,-108.59 232.05,-89.28 179.98,-77.26"/>
<polygon fill="midnightblue" stroke="midnightblue" points="180.54,-73.8 170.01,-74.96 178.97,-80.62 180.54,-73.8"/>
</g>
<!-- Node13 -->
<g id="node13" class="node">
<title>Node13</title>
<g id="a_node13"><a xlink:href="v8-version_8h.html" target="_top" xlink:title=" ">
<polygon fill="white" stroke="black" points="0,-0.5 0,-19.5 69,-19.5 69,-0.5 0,-0.5"/>
<text text-anchor="middle" x="34.5" y="-7.5" font-family="Helvetica,sans-Serif" font-size="10.00">v8&#45;version.h</text>
</a>
</g>
</g>
<!-- Node2&#45;&gt;Node13 -->
<g id="edge17" class="edge">
<title>Node2&#45;&gt;Node13</title>
<path fill="none" stroke="midnightblue" d="M351.82,-119.98C296.61,-116.51 128.43,-103.85 82.5,-76 64.37,-65.01 50.92,-44.34 42.94,-29.25"/>
<polygon fill="midnightblue" stroke="midnightblue" points="45.88,-27.29 38.3,-19.89 39.6,-30.4 45.88,-27.29"/>
</g>
<!-- Node14 -->
<g id="node14" class="node">
<title>Node14</title>
<g id="a_node14"><a xlink:href="v8config_8h.html" target="_top" xlink:title=" ">
<polygon fill="white" stroke="black" points="87.5,-0.5 87.5,-19.5 147.5,-19.5 147.5,-0.5 87.5,-0.5"/>
<text text-anchor="middle" x="117.5" y="-7.5" font-family="Helvetica,sans-Serif" font-size="10.00">v8config.h</text>
</a>
</g>
</g>
<!-- Node2&#45;&gt;Node14 -->
<g id="edge18" class="edge">
<title>Node2&#45;&gt;Node14</title>
<path fill="none" stroke="midnightblue" d="M351.86,-120.98C296.09,-120.5 125.33,-115.74 91.5,-76 79.63,-62.05 90.75,-42 101.9,-27.86"/>
<polygon fill="midnightblue" stroke="midnightblue" points="104.83,-29.82 108.64,-19.93 99.5,-25.28 104.83,-29.82"/>
</g>
<!-- Node11&#45;&gt;Node3 -->
<g id="edge11" class="edge">
<title>Node11&#45;&gt;Node3</title>
<path fill="none" stroke="midnightblue" d="M164.66,-56.44C197.03,-46.94 249.29,-31.61 284.01,-21.41"/>
<polygon fill="midnightblue" stroke="midnightblue" points="285.14,-24.73 293.75,-18.56 283.17,-18.02 285.14,-24.73"/>
</g>
<!-- Node11&#45;&gt;Node4 -->
<g id="edge12" class="edge">
<title>Node11&#45;&gt;Node4</title>
<path fill="none" stroke="midnightblue" d="M170.22,-57.67C173.02,-57.1 175.81,-56.53 178.5,-56 251.76,-41.47 337.85,-25.62 384.42,-17.16"/>
<polygon fill="midnightblue" stroke="midnightblue" points="385.07,-20.6 394.28,-15.37 383.82,-13.71 385.07,-20.6"/>
</g>
<!-- Node11&#45;&gt;Node8 -->
<g id="edge14" class="edge">
<title>Node11&#45;&gt;Node8</title>
<path fill="none" stroke="midnightblue" d="M170.19,-57.51C173,-56.97 175.79,-56.46 178.5,-56 299.15,-35.45 330.43,-37.88 451.5,-20 455.98,-19.34 460.67,-18.62 465.33,-17.88"/>
<polygon fill="midnightblue" stroke="midnightblue" points="466.09,-21.3 475.4,-16.26 464.97,-14.39 466.09,-21.3"/>
</g>
<!-- Node12 -->
<g id="node12" class="node">
<title>Node12</title>
<g id="a_node12"><a xlink:title=" ">
<polygon fill="white" stroke="#bfbfbf" points="165.5,-0.5 165.5,-19.5 213.5,-19.5 213.5,-0.5 165.5,-0.5"/>
<text text-anchor="middle" x="189.5" y="-7.5" font-family="Helvetica,sans-Serif" font-size="10.00">string.h</text>
</a>
</g>
</g>
<!-- Node11&#45;&gt;Node12 -->
<g id="edge13" class="edge">
<title>Node11&#45;&gt;Node12</title>
<path fill="none" stroke="midnightblue" d="M144.42,-56.08C152.28,-48.22 163.93,-36.57 173.42,-27.08"/>
<polygon fill="midnightblue" stroke="midnightblue" points="176.15,-29.3 180.75,-19.75 171.2,-24.35 176.15,-29.3"/>
</g>
<!-- Node11&#45;&gt;Node13 -->
<g id="edge15" class="edge">
<title>Node11&#45;&gt;Node13</title>
<path fill="none" stroke="midnightblue" d="M119.27,-56.32C103.15,-47.7 78.2,-34.36 59.54,-24.39"/>
<polygon fill="midnightblue" stroke="midnightblue" points="61.16,-21.28 50.69,-19.65 57.86,-27.46 61.16,-21.28"/>
</g>
<!-- Node11&#45;&gt;Node14 -->
<g id="edge16" class="edge">
<title>Node11&#45;&gt;Node14</title>
<path fill="none" stroke="midnightblue" d="M132.53,-56.08C130.12,-48.85 126.64,-38.41 123.63,-29.4"/>
<polygon fill="midnightblue" stroke="midnightblue" points="126.9,-28.13 120.42,-19.75 120.26,-30.34 126.9,-28.13"/>
</g>
</g>
</svg>
