<?xml version="1.0" encoding="UTF-8" standalone="no"?>
<!DOCTYPE svg PUBLIC "-//W3C//DTD SVG 1.1//EN"
 "http://www.w3.org/Graphics/SVG/1.1/DTD/svg11.dtd">
<!-- Generated by graphviz version 2.44.0 ()
 -->
<!-- Title: include/v8config.h Pages: 1 -->
<svg width="624pt" height="296pt"
 viewBox="0.00 0.00 623.50 296.00" xmlns="http://www.w3.org/2000/svg" xmlns:xlink="http://www.w3.org/1999/xlink">
<g id="graph0" class="graph" transform="scale(1 1) rotate(0) translate(4 292)">
<title>include/v8config.h</title>
<polygon fill="white" stroke="transparent" points="-4,4 -4,-292 619.5,-292 619.5,4 -4,4"/>
<!-- Node1 -->
<g id="node1" class="node">
<title>Node1</title>
<g id="a_node1"><a xlink:title=" ">
<polygon fill="#bfbfbf" stroke="black" points="256.5,-268.5 256.5,-287.5 350.5,-287.5 350.5,-268.5 256.5,-268.5"/>
<text text-anchor="middle" x="303.5" y="-275.5" font-family="Helvetica,sans-Serif" font-size="10.00">include/v8config.h</text>
</a>
</g>
</g>
<!-- Node2 -->
<g id="node2" class="node">
<title>Node2</title>
<g id="a_node2"><a xlink:href="v8-platform_8h.html" target="_top" xlink:title=" ">
<polygon fill="white" stroke="black" points="48,-207 48,-226 155,-226 155,-207 48,-207"/>
<text text-anchor="middle" x="101.5" y="-214" font-family="Helvetica,sans-Serif" font-size="10.00">include/v8&#45;platform.h</text>
</a>
</g>
</g>
<!-- Node1&#45;&gt;Node2 -->
<g id="edge1" class="edge">
<title>Node1&#45;&gt;Node2</title>
<path fill="none" stroke="midnightblue" d="M264.81,-265.6C225.55,-254.04 165.69,-236.41 130.39,-226.01"/>
<polygon fill="midnightblue" stroke="midnightblue" points="263.98,-269.01 274.56,-268.48 265.95,-262.29 263.98,-269.01"/>
</g>
<!-- Node4 -->
<g id="node4" class="node">
<title>Node4</title>
<g id="a_node4"><a xlink:href="libplatform_8h.html" target="_top" xlink:title=" ">
<polygon fill="white" stroke="black" points="51,-67.5 51,-97.5 146,-97.5 146,-67.5 51,-67.5"/>
<text text-anchor="start" x="59" y="-85.5" font-family="Helvetica,sans-Serif" font-size="10.00">include/libplatform</text>
<text text-anchor="middle" x="98.5" y="-74.5" font-family="Helvetica,sans-Serif" font-size="10.00">/libplatform.h</text>
</a>
</g>
</g>
<!-- Node1&#45;&gt;Node4 -->
<g id="edge5" class="edge">
<title>Node1&#45;&gt;Node4</title>
<path fill="none" stroke="midnightblue" d="M264.32,-265.17C244.37,-257.82 220.57,-246.9 202.5,-232 154.9,-192.76 119.23,-126.56 105.12,-97.68"/>
<polygon fill="midnightblue" stroke="midnightblue" points="263.17,-268.48 273.76,-268.49 265.49,-261.87 263.17,-268.48"/>
</g>
<!-- Node5 -->
<g id="node5" class="node">
<title>Node5</title>
<g id="a_node5"><a xlink:href="v8-internal_8h.html" target="_top" xlink:title=" ">
<polygon fill="white" stroke="black" points="212,-207 212,-226 315,-226 315,-207 212,-207"/>
<text text-anchor="middle" x="263.5" y="-214" font-family="Helvetica,sans-Serif" font-size="10.00">include/v8&#45;internal.h</text>
</a>
</g>
</g>
<!-- Node1&#45;&gt;Node5 -->
<g id="edge6" class="edge">
<title>Node1&#45;&gt;Node5</title>
<path fill="none" stroke="midnightblue" d="M292.07,-260.01C284.6,-248.89 275.16,-234.84 269.22,-226.01"/>
<polygon fill="midnightblue" stroke="midnightblue" points="289.29,-262.13 297.77,-268.48 295.09,-258.22 289.29,-262.13"/>
</g>
<!-- Node6 -->
<g id="node6" class="node">
<title>Node6</title>
<g id="a_node6"><a xlink:href="v8_8h.html" target="_top" xlink:title=" ">
<polygon fill="white" stroke="black" points="309.5,-140 309.5,-159 377.5,-159 377.5,-140 309.5,-140"/>
<text text-anchor="middle" x="343.5" y="-147" font-family="Helvetica,sans-Serif" font-size="10.00">include/v8.h</text>
</a>
</g>
</g>
<!-- Node1&#45;&gt;Node6 -->
<g id="edge13" class="edge">
<title>Node1&#45;&gt;Node6</title>
<path fill="none" stroke="midnightblue" d="M312.78,-259.34C316.79,-251.18 321.3,-241.27 324.5,-232 333.42,-206.18 339.49,-174.33 342.08,-159.23"/>
<polygon fill="midnightblue" stroke="midnightblue" points="309.66,-257.76 308.24,-268.26 315.9,-260.93 309.66,-257.76"/>
</g>
<!-- Node12 -->
<g id="node12" class="node">
<title>Node12</title>
<g id="a_node12"><a xlink:href="v8-wasm-trap-handler-posix_8h.html" target="_top" xlink:title=" ">
<polygon fill="white" stroke="black" points="371.5,-201.5 371.5,-231.5 481.5,-231.5 481.5,-201.5 371.5,-201.5"/>
<text text-anchor="start" x="379.5" y="-219.5" font-family="Helvetica,sans-Serif" font-size="10.00">include/v8&#45;wasm&#45;trap</text>
<text text-anchor="middle" x="426.5" y="-208.5" font-family="Helvetica,sans-Serif" font-size="10.00">&#45;handler&#45;posix.h</text>
</a>
</g>
</g>
<!-- Node1&#45;&gt;Node12 -->
<g id="edge14" class="edge">
<title>Node1&#45;&gt;Node12</title>
<path fill="none" stroke="midnightblue" d="M330.23,-264.07C350.08,-254.47 377.14,-241.38 397.51,-231.52"/>
<polygon fill="midnightblue" stroke="midnightblue" points="328.6,-260.97 321.12,-268.48 331.65,-267.27 328.6,-260.97"/>
</g>
<!-- Node13 -->
<g id="node13" class="node">
<title>Node13</title>
<g id="a_node13"><a xlink:href="v8-wasm-trap-handler-win_8h.html" target="_top" xlink:title=" ">
<polygon fill="white" stroke="black" points="499.5,-201.5 499.5,-231.5 609.5,-231.5 609.5,-201.5 499.5,-201.5"/>
<text text-anchor="start" x="507.5" y="-219.5" font-family="Helvetica,sans-Serif" font-size="10.00">include/v8&#45;wasm&#45;trap</text>
<text text-anchor="middle" x="554.5" y="-208.5" font-family="Helvetica,sans-Serif" font-size="10.00">&#45;handler&#45;win.h</text>
</a>
</g>
</g>
<!-- Node1&#45;&gt;Node13 -->
<g id="edge15" class="edge">
<title>Node1&#45;&gt;Node13</title>
<path fill="none" stroke="midnightblue" d="M349.19,-266.17C391.39,-256.17 454.16,-241.29 499.17,-230.62"/>
<polygon fill="midnightblue" stroke="midnightblue" points="348.39,-262.76 339.46,-268.48 350,-269.57 348.39,-262.76"/>
</g>
<!-- Node3 -->
<g id="node3" class="node">
<title>Node3</title>
<g id="a_node3"><a xlink:href="v8-tracing_8h.html" target="_top" xlink:title=" ">
<polygon fill="white" stroke="black" points="0,-134.5 0,-164.5 95,-164.5 95,-134.5 0,-134.5"/>
<text text-anchor="start" x="8" y="-152.5" font-family="Helvetica,sans-Serif" font-size="10.00">include/libplatform</text>
<text text-anchor="middle" x="47.5" y="-141.5" font-family="Helvetica,sans-Serif" font-size="10.00">/v8&#45;tracing.h</text>
</a>
</g>
</g>
<!-- Node2&#45;&gt;Node3 -->
<g id="edge2" class="edge">
<title>Node2&#45;&gt;Node3</title>
<path fill="none" stroke="midnightblue" d="M87.78,-198.99C78.96,-188.36 67.61,-174.7 59.2,-164.59"/>
<polygon fill="midnightblue" stroke="midnightblue" points="85.13,-201.28 94.22,-206.73 90.52,-196.81 85.13,-201.28"/>
</g>
<!-- Node2&#45;&gt;Node4 -->
<g id="edge4" class="edge">
<title>Node2&#45;&gt;Node4</title>
<path fill="none" stroke="midnightblue" d="M102.76,-196.48C103.67,-179.96 104.56,-155.39 103.5,-134 102.89,-121.68 101.45,-107.73 100.27,-97.62"/>
<polygon fill="midnightblue" stroke="midnightblue" points="99.24,-196.74 102.13,-206.93 106.23,-197.16 99.24,-196.74"/>
</g>
<!-- Node3&#45;&gt;Node4 -->
<g id="edge3" class="edge">
<title>Node3&#45;&gt;Node4</title>
<path fill="none" stroke="midnightblue" d="M64.8,-126.45C72.29,-116.9 80.84,-106 87.46,-97.58"/>
<polygon fill="midnightblue" stroke="midnightblue" points="61.99,-124.37 58.57,-134.4 67.49,-128.69 61.99,-124.37"/>
</g>
<!-- Node5&#45;&gt;Node6 -->
<g id="edge7" class="edge">
<title>Node5&#45;&gt;Node6</title>
<path fill="none" stroke="midnightblue" d="M282.31,-200.21C298.08,-187.41 320.01,-169.59 332.88,-159.13"/>
<polygon fill="midnightblue" stroke="midnightblue" points="279.84,-197.71 274.29,-206.73 284.26,-203.14 279.84,-197.71"/>
</g>
<!-- Node7 -->
<g id="node7" class="node">
<title>Node7</title>
<g id="a_node7"><a xlink:href="v8-inspector_8h.html" target="_top" xlink:title=" ">
<polygon fill="white" stroke="black" points="164,-73 164,-92 275,-92 275,-73 164,-73"/>
<text text-anchor="middle" x="219.5" y="-80" font-family="Helvetica,sans-Serif" font-size="10.00">include/v8&#45;inspector.h</text>
</a>
</g>
</g>
<!-- Node6&#45;&gt;Node7 -->
<g id="edge8" class="edge">
<title>Node6&#45;&gt;Node7</title>
<path fill="none" stroke="midnightblue" d="M317.94,-135.1C293.39,-122.23 257.01,-103.16 236.03,-92.17"/>
<polygon fill="midnightblue" stroke="midnightblue" points="316.55,-138.33 327.03,-139.87 319.8,-132.13 316.55,-138.33"/>
</g>
<!-- Node9 -->
<g id="node9" class="node">
<title>Node9</title>
<g id="a_node9"><a xlink:href="v8-profiler_8h.html" target="_top" xlink:title=" ">
<polygon fill="white" stroke="black" points="293.5,-73 293.5,-92 393.5,-92 393.5,-73 293.5,-73"/>
<text text-anchor="middle" x="343.5" y="-80" font-family="Helvetica,sans-Serif" font-size="10.00">include/v8&#45;profiler.h</text>
</a>
</g>
</g>
<!-- Node6&#45;&gt;Node9 -->
<g id="edge10" class="edge">
<title>Node6&#45;&gt;Node9</title>
<path fill="none" stroke="midnightblue" d="M343.5,-129.54C343.5,-117.17 343.5,-101.62 343.5,-92.13"/>
<polygon fill="midnightblue" stroke="midnightblue" points="340,-129.73 343.5,-139.73 347,-129.73 340,-129.73"/>
</g>
<!-- Node10 -->
<g id="node10" class="node">
<title>Node10</title>
<g id="a_node10"><a xlink:href="v8-testing_8h.html" target="_top" xlink:title=" ">
<polygon fill="white" stroke="black" points="412,-73 412,-92 513,-92 513,-73 412,-73"/>
<text text-anchor="middle" x="462.5" y="-80" font-family="Helvetica,sans-Serif" font-size="10.00">include/v8&#45;testing.h</text>
</a>
</g>
</g>
<!-- Node6&#45;&gt;Node10 -->
<g id="edge11" class="edge">
<title>Node6&#45;&gt;Node10</title>
<path fill="none" stroke="midnightblue" d="M368.61,-134.79C392.19,-121.9 426.76,-103.02 446.71,-92.13"/>
<polygon fill="midnightblue" stroke="midnightblue" points="366.65,-131.87 359.55,-139.73 370,-138.01 366.65,-131.87"/>
</g>
<!-- Node11 -->
<g id="node11" class="node">
<title>Node11</title>
<g id="a_node11"><a xlink:href="v8-util_8h.html" target="_top" xlink:title=" ">
<polygon fill="white" stroke="black" points="531.5,-73 531.5,-92 615.5,-92 615.5,-73 531.5,-73"/>
<text text-anchor="middle" x="573.5" y="-80" font-family="Helvetica,sans-Serif" font-size="10.00">include/v8&#45;util.h</text>
</a>
</g>
</g>
<!-- Node6&#45;&gt;Node11 -->
<g id="edge12" class="edge">
<title>Node6&#45;&gt;Node11</title>
<path fill="none" stroke="midnightblue" d="M383.63,-137.2C419.91,-126.98 474.79,-111.51 522.5,-98 529.32,-96.07 536.65,-93.99 543.57,-92.02"/>
<polygon fill="midnightblue" stroke="midnightblue" points="382.59,-133.86 373.91,-139.94 384.48,-140.6 382.59,-133.86"/>
</g>
<!-- Node8 -->
<g id="node8" class="node">
<title>Node8</title>
<g id="a_node8"><a xlink:href="v8-inspector-protocol_8h.html" target="_top" xlink:title=" ">
<polygon fill="white" stroke="black" points="167.5,-0.5 167.5,-30.5 271.5,-30.5 271.5,-0.5 167.5,-0.5"/>
<text text-anchor="start" x="175.5" y="-18.5" font-family="Helvetica,sans-Serif" font-size="10.00">include/v8&#45;inspector</text>
<text text-anchor="middle" x="219.5" y="-7.5" font-family="Helvetica,sans-Serif" font-size="10.00">&#45;protocol.h</text>
</a>
</g>
</g>
<!-- Node7&#45;&gt;Node8 -->
<g id="edge9" class="edge">
<title>Node7&#45;&gt;Node8</title>
<path fill="none" stroke="midnightblue" d="M219.5,-62.41C219.5,-52.22 219.5,-39.9 219.5,-30.59"/>
<polygon fill="midnightblue" stroke="midnightblue" points="216,-62.73 219.5,-72.73 223,-62.73 216,-62.73"/>
</g>
</g>
</svg>
