<?xml version="1.0" encoding="UTF-8" standalone="no"?>
<!DOCTYPE svg PUBLIC "-//W3C//DTD SVG 1.1//EN"
 "http://www.w3.org/Graphics/SVG/1.1/DTD/svg11.dtd">
<!-- Generated by graphviz version 2.44.0 ()
 -->
<!-- Title: v8::Local&lt; T &gt; Pages: 1 -->
<svg width="373pt" height="393pt"
 viewBox="0.00 0.00 373.00 392.80" xmlns="http://www.w3.org/2000/svg" xmlns:xlink="http://www.w3.org/1999/xlink">
<g id="graph0" class="graph" transform="scale(1 1) rotate(0) translate(4 388.8)">
<title>v8::Local&lt; T &gt;</title>
<polygon fill="white" stroke="transparent" points="-4,4 -4,-388.8 369,-388.8 369,4 -4,4"/>
<!-- Node1 -->
<g id="node1" class="node">
<title>Node1</title>
<g id="a_node1"><a xlink:title=" ">
<polygon fill="#bfbfbf" stroke="black" points="0,-173.3 0,-192.3 78,-192.3 78,-173.3 0,-173.3"/>
<text text-anchor="middle" x="39" y="-180.3" font-family="Helvetica,sans-Serif" font-size="10.00">v8::Local&lt; T &gt;</text>
</a>
</g>
</g>
<!-- Node2 -->
<g id="node2" class="node">
<title>Node2</title>
<g id="a_node2"><a xlink:href="classv8_1_1Local.html" target="_top" xlink:title=" ">
<polygon fill="white" stroke="black" points="232.5,-356.3 232.5,-375.3 345.5,-375.3 345.5,-356.3 232.5,-356.3"/>
<text text-anchor="middle" x="289" y="-363.3" font-family="Helvetica,sans-Serif" font-size="10.00">v8::Local&lt; v8::String &gt;</text>
</a>
</g>
</g>
<!-- Node1&#45;&gt;Node2 -->
<g id="edge1" class="edge">
<title>Node1&#45;&gt;Node2</title>
<path fill="none" stroke="orange" stroke-dasharray="5,2" d="M40.6,-202.96C42.81,-237.6 52.71,-308.03 96,-342.8 133.95,-373.28 190.51,-376.61 232.42,-373.77"/>
<polygon fill="orange" stroke="orange" points="44.08,-202.51 40.11,-192.69 37.09,-202.84 44.08,-202.51"/>
<text text-anchor="middle" x="145.5" y="-376.8" font-family="Helvetica,sans-Serif" font-size="10.00"> &lt; v8::String &gt;</text>
</g>
<!-- Node3 -->
<g id="node3" class="node">
<title>Node3</title>
<g id="a_node3"><a xlink:href="classv8_1_1Local.html" target="_top" xlink:title=" ">
<polygon fill="white" stroke="black" points="220.5,-318.3 220.5,-337.3 357.5,-337.3 357.5,-318.3 220.5,-318.3"/>
<text text-anchor="middle" x="289" y="-325.3" font-family="Helvetica,sans-Serif" font-size="10.00">v8::Local&lt; v8::StackTrace &gt;</text>
</a>
</g>
</g>
<!-- Node1&#45;&gt;Node3 -->
<g id="edge2" class="edge">
<title>Node1&#45;&gt;Node3</title>
<path fill="none" stroke="orange" stroke-dasharray="5,2" d="M44.09,-202.49C50.49,-228.06 65.44,-272.1 96,-294.8 131.44,-321.11 180.64,-329.17 220.36,-330.75"/>
<polygon fill="orange" stroke="orange" points="47.44,-201.44 41.79,-192.48 40.62,-203.01 47.44,-201.44"/>
<text text-anchor="middle" x="145.5" y="-330.8" font-family="Helvetica,sans-Serif" font-size="10.00"> &lt; v8::StackTrace &gt;</text>
</g>
<!-- Node4 -->
<g id="node4" class="node">
<title>Node4</title>
<g id="a_node4"><a xlink:href="classv8_1_1Local.html" target="_top" xlink:title=" ">
<polygon fill="white" stroke="black" points="227.5,-280.3 227.5,-299.3 350.5,-299.3 350.5,-280.3 227.5,-280.3"/>
<text text-anchor="middle" x="289" y="-287.3" font-family="Helvetica,sans-Serif" font-size="10.00">v8::Local&lt; v8::Promise &gt;</text>
</a>
</g>
</g>
<!-- Node1&#45;&gt;Node4 -->
<g id="edge3" class="edge">
<title>Node1&#45;&gt;Node4</title>
<path fill="none" stroke="orange" stroke-dasharray="5,2" d="M51.2,-201.01C61.16,-215.64 77.05,-235.54 96,-246.8 135.94,-270.53 187.63,-281.18 227.31,-285.95"/>
<polygon fill="orange" stroke="orange" points="53.93,-198.78 45.54,-192.31 48.06,-202.6 53.93,-198.78"/>
<text text-anchor="middle" x="145.5" y="-282.8" font-family="Helvetica,sans-Serif" font-size="10.00"> &lt; v8::Promise &gt;</text>
</g>
<!-- Node5 -->
<g id="node5" class="node">
<title>Node5</title>
<g id="a_node5"><a xlink:href="classv8_1_1Local.html" target="_top" xlink:title=" ">
<polygon fill="white" stroke="black" points="230.5,-230.8 230.5,-260.8 347.5,-260.8 347.5,-230.8 230.5,-230.8"/>
<text text-anchor="start" x="238.5" y="-248.8" font-family="Helvetica,sans-Serif" font-size="10.00">v8::Local&lt; v8::Primitive</text>
<text text-anchor="middle" x="289" y="-237.8" font-family="Helvetica,sans-Serif" font-size="10.00">Array &gt;</text>
</a>
</g>
</g>
<!-- Node1&#45;&gt;Node5 -->
<g id="edge4" class="edge">
<title>Node1&#45;&gt;Node5</title>
<path fill="none" stroke="orange" stroke-dasharray="5,2" d="M66.96,-196.93C76,-201.23 86.26,-205.65 96,-208.8 140.09,-223.04 191.75,-232.62 230.37,-238.45"/>
<polygon fill="orange" stroke="orange" points="68.22,-193.66 57.71,-192.38 65.13,-199.94 68.22,-193.66"/>
<text text-anchor="middle" x="145.5" y="-234.8" font-family="Helvetica,sans-Serif" font-size="10.00"> &lt; v8::PrimitiveArray &gt;</text>
</g>
<!-- Node6 -->
<g id="node6" class="node">
<title>Node6</title>
<g id="a_node6"><a xlink:href="classv8_1_1Local.html" target="_top" xlink:title=" ">
<polygon fill="white" stroke="black" points="233,-192.3 233,-211.3 345,-211.3 345,-192.3 233,-192.3"/>
<text text-anchor="middle" x="289" y="-199.3" font-family="Helvetica,sans-Serif" font-size="10.00">v8::Local&lt; v8::Value &gt;</text>
</a>
</g>
</g>
<!-- Node1&#45;&gt;Node6 -->
<g id="edge5" class="edge">
<title>Node1&#45;&gt;Node6</title>
<path fill="none" stroke="orange" stroke-dasharray="5,2" d="M88.32,-186.5C129.74,-189.67 189.4,-194.24 232.71,-197.56"/>
<polygon fill="orange" stroke="orange" points="88.44,-183 78.21,-185.72 87.91,-189.98 88.44,-183"/>
<text text-anchor="middle" x="145.5" y="-196.8" font-family="Helvetica,sans-Serif" font-size="10.00"> &lt; v8::Value &gt;</text>
</g>
<!-- Node7 -->
<g id="node7" class="node">
<title>Node7</title>
<g id="a_node7"><a xlink:href="classv8_1_1Local.html" target="_top" xlink:title=" ">
<polygon fill="white" stroke="black" points="230.5,-154.3 230.5,-173.3 347.5,-173.3 347.5,-154.3 230.5,-154.3"/>
<text text-anchor="middle" x="289" y="-161.3" font-family="Helvetica,sans-Serif" font-size="10.00">v8::Local&lt; v8::Integer &gt;</text>
</a>
</g>
</g>
<!-- Node1&#45;&gt;Node7 -->
<g id="edge6" class="edge">
<title>Node1&#45;&gt;Node7</title>
<path fill="none" stroke="orange" stroke-dasharray="5,2" d="M88.25,-172.84C90.86,-172.45 93.46,-172.1 96,-171.8 140.89,-166.48 192.05,-164.55 230.27,-163.91"/>
<polygon fill="orange" stroke="orange" points="87.43,-169.42 78.13,-174.5 88.57,-176.33 87.43,-169.42"/>
<text text-anchor="middle" x="145.5" y="-174.8" font-family="Helvetica,sans-Serif" font-size="10.00"> &lt; v8::Integer &gt;</text>
</g>
<!-- Node8 -->
<g id="node8" class="node">
<title>Node8</title>
<g id="a_node8"><a xlink:href="classv8_1_1Local.html" target="_top" xlink:title=" ">
<polygon fill="white" stroke="black" points="229,-116.3 229,-135.3 349,-135.3 349,-116.3 229,-116.3"/>
<text text-anchor="middle" x="289" y="-123.3" font-family="Helvetica,sans-Serif" font-size="10.00">v8::Local&lt; v8::Context &gt;</text>
</a>
</g>
</g>
<!-- Node1&#45;&gt;Node8 -->
<g id="edge7" class="edge">
<title>Node1&#45;&gt;Node8</title>
<path fill="none" stroke="orange" stroke-dasharray="5,2" d="M61.52,-167.31C71.54,-160.86 83.9,-153.92 96,-149.8 138.93,-135.17 189.97,-129.29 228.64,-127.01"/>
<polygon fill="orange" stroke="orange" points="59.39,-164.52 53.05,-173.01 63.3,-170.33 59.39,-164.52"/>
<text text-anchor="middle" x="145.5" y="-152.8" font-family="Helvetica,sans-Serif" font-size="10.00"> &lt; v8::Context &gt;</text>
</g>
<!-- Node9 -->
<g id="node9" class="node">
<title>Node9</title>
<g id="a_node9"><a xlink:href="classv8_1_1Local.html" target="_top" xlink:title=" ">
<polygon fill="white" stroke="black" points="213,-78.3 213,-97.3 365,-97.3 365,-78.3 213,-78.3"/>
<text text-anchor="middle" x="289" y="-85.3" font-family="Helvetica,sans-Serif" font-size="10.00">v8::Local&lt; v8::UnboundScript &gt;</text>
</a>
</g>
</g>
<!-- Node1&#45;&gt;Node9 -->
<g id="edge8" class="edge">
<title>Node1&#45;&gt;Node9</title>
<path fill="none" stroke="orange" stroke-dasharray="5,2" d="M50.11,-163.99C59.7,-148.11 75.67,-126.19 96,-114.8 131.24,-95.05 175.63,-87.88 212.85,-85.84"/>
<polygon fill="orange" stroke="orange" points="46.91,-162.53 44.97,-172.95 52.98,-166.01 46.91,-162.53"/>
<text text-anchor="middle" x="145.5" y="-117.8" font-family="Helvetica,sans-Serif" font-size="10.00"> &lt; v8::UnboundScript &gt;</text>
</g>
<!-- Node10 -->
<g id="node10" class="node">
<title>Node10</title>
<g id="a_node10"><a xlink:href="classv8_1_1Local.html" target="_top" xlink:title=" ">
<polygon fill="white" stroke="black" points="240,-40.3 240,-59.3 338,-59.3 338,-40.3 240,-40.3"/>
<text text-anchor="middle" x="289" y="-47.3" font-family="Helvetica,sans-Serif" font-size="10.00">v8::Local&lt; Name &gt;</text>
</a>
</g>
</g>
<!-- Node1&#45;&gt;Node10 -->
<g id="edge9" class="edge">
<title>Node1&#45;&gt;Node10</title>
<path fill="none" stroke="orange" stroke-dasharray="5,2" d="M43.96,-163.02C50.21,-137.38 65,-93.41 96,-71.8 137.97,-42.53 198.07,-40.33 239.81,-43.33"/>
<polygon fill="orange" stroke="orange" points="40.48,-162.54 41.72,-173.06 47.31,-164.06 40.48,-162.54"/>
<text text-anchor="middle" x="145.5" y="-74.8" font-family="Helvetica,sans-Serif" font-size="10.00"> &lt; Name &gt;</text>
</g>
<!-- Node11 -->
<g id="node11" class="node">
<title>Node11</title>
<g id="a_node11"><a xlink:href="classv8_1_1Local.html" target="_top" xlink:title=" ">
<polygon fill="white" stroke="black" points="240.5,-2.3 240.5,-21.3 337.5,-21.3 337.5,-2.3 240.5,-2.3"/>
<text text-anchor="middle" x="289" y="-9.3" font-family="Helvetica,sans-Serif" font-size="10.00">v8::Local&lt; Value &gt;</text>
</a>
</g>
</g>
<!-- Node1&#45;&gt;Node11 -->
<g id="edge10" class="edge">
<title>Node1&#45;&gt;Node11</title>
<path fill="none" stroke="orange" stroke-dasharray="5,2" d="M40.78,-162.79C43.28,-129.05 53.62,-61.36 96,-28.8 136.86,2.6 198.04,2.38 240.31,-2.79"/>
<polygon fill="orange" stroke="orange" points="37.27,-163.01 40.19,-173.19 44.25,-163.41 37.27,-163.01"/>
<text text-anchor="middle" x="145.5" y="-31.8" font-family="Helvetica,sans-Serif" font-size="10.00"> &lt; Value &gt;</text>
</g>
</g>
</svg>
