<?xml version="1.0" encoding="UTF-8" standalone="no"?>
<!DOCTYPE svg PUBLIC "-//W3C//DTD SVG 1.1//EN"
 "http://www.w3.org/Graphics/SVG/1.1/DTD/svg11.dtd">
<!-- Generated by graphviz version 2.44.0 ()
 -->
<!-- Title: Graphical Class Hierarchy Pages: 1 -->
<svg width="779pt" height="940pt"
 viewBox="0.00 0.00 779.00 940.00" xmlns="http://www.w3.org/2000/svg" xmlns:xlink="http://www.w3.org/1999/xlink">
<g id="graph0" class="graph" transform="scale(1 1) rotate(0) translate(4 936)">
<title>Graphical Class Hierarchy</title>
<polygon fill="white" stroke="transparent" points="-4,4 -4,-936 775,-936 775,4 -4,4"/>
<!-- Node0 -->
<g id="node1" class="node">
<title>Node0</title>
<g id="a_node1"><a xlink:href="classv8_1_1Data.html" target="_top" xlink:title=" ">
<polygon fill="white" stroke="black" points="0,-589.5 0,-608.5 52,-608.5 52,-589.5 0,-589.5"/>
<text text-anchor="middle" x="26" y="-596.5" font-family="Helvetica,sans-Serif" font-size="10.00">v8::Data</text>
</a>
</g>
</g>
<!-- Node1 -->
<g id="node2" class="node">
<title>Node1</title>
<g id="a_node2"><a xlink:href="classv8_1_1AccessorSignature.html" target="_top" xlink:title=" ">
<polygon fill="white" stroke="black" points="88,-665.5 88,-684.5 202,-684.5 202,-665.5 88,-665.5"/>
<text text-anchor="middle" x="145" y="-672.5" font-family="Helvetica,sans-Serif" font-size="10.00">v8::AccessorSignature</text>
</a>
</g>
</g>
<!-- Node0&#45;&gt;Node1 -->
<g id="edge1" class="edge">
<title>Node0&#45;&gt;Node1</title>
<path fill="none" stroke="midnightblue" d="M41.83,-616.36C53.33,-628.88 70.25,-645.38 88,-656 94.25,-659.74 101.35,-662.87 108.33,-665.44"/>
<polygon fill="midnightblue" stroke="midnightblue" points="44.37,-613.95 35.11,-608.81 39.14,-618.61 44.37,-613.95"/>
</g>
<!-- Node2 -->
<g id="node3" class="node">
<title>Node2</title>
<g id="a_node3"><a xlink:href="classv8_1_1Private.html" target="_top" xlink:title=" ">
<polygon fill="white" stroke="black" points="114,-627.5 114,-646.5 176,-646.5 176,-627.5 114,-627.5"/>
<text text-anchor="middle" x="145" y="-634.5" font-family="Helvetica,sans-Serif" font-size="10.00">v8::Private</text>
</a>
</g>
</g>
<!-- Node0&#45;&gt;Node2 -->
<g id="edge2" class="edge">
<title>Node0&#45;&gt;Node2</title>
<path fill="none" stroke="midnightblue" d="M62.03,-610.38C78.72,-615.8 98.46,-622.21 114.39,-627.38"/>
<polygon fill="midnightblue" stroke="midnightblue" points="62.69,-606.91 52.1,-607.15 60.53,-613.57 62.69,-606.91"/>
</g>
<!-- Node3 -->
<g id="node4" class="node">
<title>Node3</title>
<g id="a_node4"><a xlink:href="classv8_1_1Signature.html" target="_top" xlink:title=" ">
<polygon fill="white" stroke="black" points="108.5,-589.5 108.5,-608.5 181.5,-608.5 181.5,-589.5 108.5,-589.5"/>
<text text-anchor="middle" x="145" y="-596.5" font-family="Helvetica,sans-Serif" font-size="10.00">v8::Signature</text>
</a>
</g>
</g>
<!-- Node0&#45;&gt;Node3 -->
<g id="edge3" class="edge">
<title>Node0&#45;&gt;Node3</title>
<path fill="none" stroke="midnightblue" d="M62.24,-599C76.8,-599 93.67,-599 108.29,-599"/>
<polygon fill="midnightblue" stroke="midnightblue" points="62.1,-595.5 52.1,-599 62.1,-602.5 62.1,-595.5"/>
</g>
<!-- Node4 -->
<g id="node5" class="node">
<title>Node4</title>
<g id="a_node5"><a xlink:href="classv8_1_1Template.html" target="_top" xlink:title=" ">
<polygon fill="white" stroke="black" points="109,-551.5 109,-570.5 181,-570.5 181,-551.5 109,-551.5"/>
<text text-anchor="middle" x="145" y="-558.5" font-family="Helvetica,sans-Serif" font-size="10.00">v8::Template</text>
</a>
</g>
</g>
<!-- Node0&#45;&gt;Node4 -->
<g id="edge4" class="edge">
<title>Node0&#45;&gt;Node4</title>
<path fill="none" stroke="midnightblue" d="M62.03,-587.62C78.72,-582.2 98.46,-575.79 114.39,-570.62"/>
<polygon fill="midnightblue" stroke="midnightblue" points="60.53,-584.43 52.1,-590.85 62.69,-591.09 60.53,-584.43"/>
</g>
<!-- Node7 -->
<g id="node8" class="node">
<title>Node7</title>
<g id="a_node8"><a xlink:href="classv8_1_1Value.html" target="_top" xlink:title=" ">
<polygon fill="white" stroke="black" points="117,-494.5 117,-513.5 173,-513.5 173,-494.5 117,-494.5"/>
<text text-anchor="middle" x="145" y="-501.5" font-family="Helvetica,sans-Serif" font-size="10.00">v8::Value</text>
</a>
</g>
</g>
<!-- Node0&#45;&gt;Node7 -->
<g id="edge7" class="edge">
<title>Node0&#45;&gt;Node7</title>
<path fill="none" stroke="midnightblue" d="M43.6,-582.16C55.52,-570.4 72.21,-554.61 88,-542 101.04,-531.59 116.84,-521.04 128.33,-513.7"/>
<polygon fill="midnightblue" stroke="midnightblue" points="41.12,-579.69 36.51,-589.23 46.06,-584.64 41.12,-579.69"/>
</g>
<!-- Node5 -->
<g id="node6" class="node">
<title>Node5</title>
<g id="a_node6"><a xlink:href="classv8_1_1FunctionTemplate.html" target="_top" xlink:title=" ">
<polygon fill="white" stroke="black" points="238,-589.5 238,-608.5 348,-608.5 348,-589.5 238,-589.5"/>
<text text-anchor="middle" x="293" y="-596.5" font-family="Helvetica,sans-Serif" font-size="10.00">v8::FunctionTemplate</text>
</a>
</g>
</g>
<!-- Node4&#45;&gt;Node5 -->
<g id="edge5" class="edge">
<title>Node4&#45;&gt;Node5</title>
<path fill="none" stroke="midnightblue" d="M191.17,-572.76C211.82,-578.13 235.97,-584.42 255.46,-589.49"/>
<polygon fill="midnightblue" stroke="midnightblue" points="191.9,-569.33 181.34,-570.2 190.14,-576.1 191.9,-569.33"/>
</g>
<!-- Node6 -->
<g id="node7" class="node">
<title>Node6</title>
<g id="a_node7"><a xlink:href="classv8_1_1ObjectTemplate.html" target="_top" xlink:title=" ">
<polygon fill="white" stroke="black" points="242.5,-551.5 242.5,-570.5 343.5,-570.5 343.5,-551.5 242.5,-551.5"/>
<text text-anchor="middle" x="293" y="-558.5" font-family="Helvetica,sans-Serif" font-size="10.00">v8::ObjectTemplate</text>
</a>
</g>
</g>
<!-- Node4&#45;&gt;Node6 -->
<g id="edge6" class="edge">
<title>Node4&#45;&gt;Node6</title>
<path fill="none" stroke="midnightblue" d="M191.6,-561C207.72,-561 225.92,-561 242.36,-561"/>
<polygon fill="midnightblue" stroke="midnightblue" points="191.34,-557.5 181.34,-561 191.34,-564.5 191.34,-557.5"/>
</g>
<!-- Node8 -->
<g id="node9" class="node">
<title>Node8</title>
<g id="a_node9"><a xlink:href="classv8_1_1External.html" target="_top" xlink:title=" ">
<polygon fill="white" stroke="black" points="260,-513.5 260,-532.5 326,-532.5 326,-513.5 260,-513.5"/>
<text text-anchor="middle" x="293" y="-520.5" font-family="Helvetica,sans-Serif" font-size="10.00">v8::External</text>
</a>
</g>
</g>
<!-- Node7&#45;&gt;Node8 -->
<g id="edge8" class="edge">
<title>Node7&#45;&gt;Node8</title>
<path fill="none" stroke="midnightblue" d="M183.16,-508.84C206.87,-511.92 237.29,-515.88 259.94,-518.83"/>
<polygon fill="midnightblue" stroke="midnightblue" points="183.49,-505.35 173.12,-507.53 182.58,-512.29 183.49,-505.35"/>
</g>
<!-- Node9 -->
<g id="node10" class="node">
<title>Node9</title>
<g id="a_node10"><a xlink:href="classv8_1_1Object.html" target="_top" xlink:title=" ">
<polygon fill="white" stroke="black" points="263,-475.5 263,-494.5 323,-494.5 323,-475.5 263,-475.5"/>
<text text-anchor="middle" x="293" y="-482.5" font-family="Helvetica,sans-Serif" font-size="10.00">v8::Object</text>
</a>
</g>
</g>
<!-- Node7&#45;&gt;Node9 -->
<g id="edge9" class="edge">
<title>Node7&#45;&gt;Node9</title>
<path fill="none" stroke="midnightblue" d="M183.22,-499.16C207.92,-495.94 239.89,-491.78 262.77,-488.8"/>
<polygon fill="midnightblue" stroke="midnightblue" points="182.58,-495.71 173.12,-500.47 183.49,-502.65 182.58,-495.71"/>
</g>
<!-- Node41 -->
<g id="node42" class="node">
<title>Node41</title>
<g id="a_node42"><a xlink:href="classv8_1_1Primitive.html" target="_top" xlink:title=" ">
<polygon fill="white" stroke="black" points="258,-95.5 258,-114.5 328,-114.5 328,-95.5 258,-95.5"/>
<text text-anchor="middle" x="293" y="-102.5" font-family="Helvetica,sans-Serif" font-size="10.00">v8::Primitive</text>
</a>
</g>
</g>
<!-- Node7&#45;&gt;Node41 -->
<g id="edge41" class="edge">
<title>Node7&#45;&gt;Node41</title>
<path fill="none" stroke="midnightblue" d="M153.11,-484.56C179.27,-413.07 269.62,-166.17 288.52,-114.52"/>
<polygon fill="midnightblue" stroke="midnightblue" points="149.76,-483.54 149.61,-494.14 156.33,-485.95 149.76,-483.54"/>
</g>
<!-- Node10 -->
<g id="node11" class="node">
<title>Node10</title>
<g id="a_node11"><a xlink:href="classv8_1_1Array.html" target="_top" xlink:title=" ">
<polygon fill="white" stroke="black" points="416.5,-817.5 416.5,-836.5 470.5,-836.5 470.5,-817.5 416.5,-817.5"/>
<text text-anchor="middle" x="443.5" y="-824.5" font-family="Helvetica,sans-Serif" font-size="10.00">v8::Array</text>
</a>
</g>
</g>
<!-- Node9&#45;&gt;Node10 -->
<g id="edge10" class="edge">
<title>Node9&#45;&gt;Node10</title>
<path fill="none" stroke="midnightblue" d="M332.59,-492.53C338.5,-495.25 343.96,-498.96 348,-504 433.04,-610.2 297.68,-702.84 384,-808 391.93,-817.66 404.83,-822.46 416.5,-824.82"/>
<polygon fill="midnightblue" stroke="midnightblue" points="333.67,-489.2 323.08,-489.01 331.24,-495.76 333.67,-489.2"/>
</g>
<!-- Node11 -->
<g id="node12" class="node">
<title>Node11</title>
<g id="a_node12"><a xlink:href="classv8_1_1ArrayBuffer.html" target="_top" xlink:title=" ">
<polygon fill="white" stroke="black" points="403.5,-779.5 403.5,-798.5 483.5,-798.5 483.5,-779.5 403.5,-779.5"/>
<text text-anchor="middle" x="443.5" y="-786.5" font-family="Helvetica,sans-Serif" font-size="10.00">v8::ArrayBuffer</text>
</a>
</g>
</g>
<!-- Node9&#45;&gt;Node11 -->
<g id="edge11" class="edge">
<title>Node9&#45;&gt;Node11</title>
<path fill="none" stroke="midnightblue" d="M332.52,-492.59C338.44,-495.3 343.92,-498.99 348,-504 423.34,-596.5 307.54,-678.42 384,-770 389,-775.98 395.9,-780.1 403.22,-782.93"/>
<polygon fill="midnightblue" stroke="midnightblue" points="333.6,-489.25 323.01,-489.07 331.17,-495.82 333.6,-489.25"/>
</g>
<!-- Node12 -->
<g id="node13" class="node">
<title>Node12</title>
<g id="a_node13"><a xlink:href="classv8_1_1ArrayBufferView.html" target="_top" xlink:title=" ">
<polygon fill="white" stroke="black" points="393,-741.5 393,-760.5 494,-760.5 494,-741.5 393,-741.5"/>
<text text-anchor="middle" x="443.5" y="-748.5" font-family="Helvetica,sans-Serif" font-size="10.00">v8::ArrayBufferView</text>
</a>
</g>
</g>
<!-- Node9&#45;&gt;Node12 -->
<g id="edge12" class="edge">
<title>Node9&#45;&gt;Node12</title>
<path fill="none" stroke="midnightblue" d="M332.61,-492.74C338.47,-495.45 343.91,-499.09 348,-504 413.66,-582.82 317.39,-653.98 384,-732 387.33,-735.9 391.46,-739 395.99,-741.47"/>
<polygon fill="midnightblue" stroke="midnightblue" points="333.79,-489.45 323.19,-489.23 331.34,-496.01 333.79,-489.45"/>
</g>
<!-- Node26 -->
<g id="node27" class="node">
<title>Node26</title>
<g id="a_node27"><a xlink:href="classv8_1_1BigIntObject.html" target="_top" xlink:title=" ">
<polygon fill="white" stroke="black" points="400.5,-703.5 400.5,-722.5 486.5,-722.5 486.5,-703.5 400.5,-703.5"/>
<text text-anchor="middle" x="443.5" y="-710.5" font-family="Helvetica,sans-Serif" font-size="10.00">v8::BigIntObject</text>
</a>
</g>
</g>
<!-- Node9&#45;&gt;Node26 -->
<g id="edge26" class="edge">
<title>Node9&#45;&gt;Node26</title>
<path fill="none" stroke="midnightblue" d="M332.48,-492.85C338.35,-495.54 343.83,-499.15 348,-504 404.01,-569.19 327.2,-629.5 384,-694 388.45,-699.05 394.25,-702.76 400.47,-705.49"/>
<polygon fill="midnightblue" stroke="midnightblue" points="333.66,-489.55 323.06,-489.34 331.21,-496.11 333.66,-489.55"/>
</g>
<!-- Node27 -->
<g id="node28" class="node">
<title>Node27</title>
<g id="a_node28"><a xlink:href="classv8_1_1BooleanObject.html" target="_top" xlink:title=" ">
<polygon fill="white" stroke="black" points="396,-665.5 396,-684.5 491,-684.5 491,-665.5 396,-665.5"/>
<text text-anchor="middle" x="443.5" y="-672.5" font-family="Helvetica,sans-Serif" font-size="10.00">v8::BooleanObject</text>
</a>
</g>
</g>
<!-- Node9&#45;&gt;Node27 -->
<g id="edge27" class="edge">
<title>Node9&#45;&gt;Node27</title>
<path fill="none" stroke="midnightblue" d="M332.89,-493.29C338.56,-495.93 343.87,-499.41 348,-504 394.43,-555.62 336.95,-604.95 384,-656 387.55,-659.85 391.88,-662.92 396.56,-665.37"/>
<polygon fill="midnightblue" stroke="midnightblue" points="333.75,-489.87 323.16,-489.59 331.26,-496.41 333.75,-489.87"/>
</g>
<!-- Node28 -->
<g id="node29" class="node">
<title>Node28</title>
<g id="a_node29"><a xlink:href="classv8_1_1Date.html" target="_top" xlink:title=" ">
<polygon fill="white" stroke="black" points="417.5,-627.5 417.5,-646.5 469.5,-646.5 469.5,-627.5 417.5,-627.5"/>
<text text-anchor="middle" x="443.5" y="-634.5" font-family="Helvetica,sans-Serif" font-size="10.00">v8::Date</text>
</a>
</g>
</g>
<!-- Node9&#45;&gt;Node28 -->
<g id="edge28" class="edge">
<title>Node9&#45;&gt;Node28</title>
<path fill="none" stroke="midnightblue" d="M332.79,-493.63C338.42,-496.23 343.75,-499.61 348,-504 384.96,-542.18 346.58,-580.28 384,-618 392.8,-626.87 405.77,-631.6 417.27,-634.12"/>
<polygon fill="midnightblue" stroke="midnightblue" points="333.73,-490.25 323.14,-489.96 331.24,-496.79 333.73,-490.25"/>
</g>
<!-- Node29 -->
<g id="node30" class="node">
<title>Node29</title>
<g id="a_node30"><a xlink:href="classv8_1_1Function.html" target="_top" xlink:title=" ">
<polygon fill="white" stroke="black" points="409,-589.5 409,-608.5 478,-608.5 478,-589.5 409,-589.5"/>
<text text-anchor="middle" x="443.5" y="-596.5" font-family="Helvetica,sans-Serif" font-size="10.00">v8::Function</text>
</a>
</g>
</g>
<!-- Node9&#45;&gt;Node29 -->
<g id="edge29" class="edge">
<title>Node9&#45;&gt;Node29</title>
<path fill="none" stroke="midnightblue" d="M332.64,-494.31C338.21,-496.82 343.55,-499.99 348,-504 375.77,-529.02 355.93,-555.32 384,-580 390.98,-586.13 399.97,-590.29 408.8,-593.11"/>
<polygon fill="midnightblue" stroke="midnightblue" points="333.76,-490.99 323.17,-490.68 331.25,-497.53 333.76,-490.99"/>
</g>
<!-- Node30 -->
<g id="node31" class="node">
<title>Node30</title>
<g id="a_node31"><a xlink:href="classv8_1_1Map.html" target="_top" xlink:title=" ">
<polygon fill="white" stroke="black" points="418.5,-551.5 418.5,-570.5 468.5,-570.5 468.5,-551.5 418.5,-551.5"/>
<text text-anchor="middle" x="443.5" y="-558.5" font-family="Helvetica,sans-Serif" font-size="10.00">v8::Map</text>
</a>
</g>
</g>
<!-- Node9&#45;&gt;Node30 -->
<g id="edge30" class="edge">
<title>Node9&#45;&gt;Node30</title>
<path fill="none" stroke="midnightblue" d="M332.76,-496.1C338.07,-498.34 343.31,-500.96 348,-504 367.52,-516.66 364.33,-529.58 384,-542 394.38,-548.56 407.24,-553.06 418.26,-556.02"/>
<polygon fill="midnightblue" stroke="midnightblue" points="333.8,-492.75 323.2,-492.47 331.31,-499.29 333.8,-492.75"/>
</g>
<!-- Node31 -->
<g id="node32" class="node">
<title>Node31</title>
<g id="a_node32"><a xlink:href="classv8_1_1NumberObject.html" target="_top" xlink:title=" ">
<polygon fill="white" stroke="black" points="396,-513.5 396,-532.5 491,-532.5 491,-513.5 396,-513.5"/>
<text text-anchor="middle" x="443.5" y="-520.5" font-family="Helvetica,sans-Serif" font-size="10.00">v8::NumberObject</text>
</a>
</g>
</g>
<!-- Node9&#45;&gt;Node31 -->
<g id="edge31" class="edge">
<title>Node9&#45;&gt;Node31</title>
<path fill="none" stroke="midnightblue" d="M333.17,-495.02C355.5,-500.74 383.32,-507.86 405.31,-513.48"/>
<polygon fill="midnightblue" stroke="midnightblue" points="333.89,-491.6 323.34,-492.51 332.16,-498.38 333.89,-491.6"/>
</g>
<!-- Node32 -->
<g id="node33" class="node">
<title>Node32</title>
<g id="a_node33"><a xlink:href="classv8_1_1Promise.html" target="_top" xlink:title=" ">
<polygon fill="white" stroke="black" points="409.5,-475.5 409.5,-494.5 477.5,-494.5 477.5,-475.5 409.5,-475.5"/>
<text text-anchor="middle" x="443.5" y="-482.5" font-family="Helvetica,sans-Serif" font-size="10.00">v8::Promise</text>
</a>
</g>
</g>
<!-- Node9&#45;&gt;Node32 -->
<g id="edge32" class="edge">
<title>Node9&#45;&gt;Node32</title>
<path fill="none" stroke="midnightblue" d="M333.41,-485C357.08,-485 386.87,-485 409.34,-485"/>
<polygon fill="midnightblue" stroke="midnightblue" points="333.34,-481.5 323.34,-485 333.34,-488.5 333.34,-481.5"/>
</g>
<!-- Node33 -->
<g id="node34" class="node">
<title>Node33</title>
<g id="a_node34"><a xlink:href="classv8_1_1Promise_1_1Resolver.html" target="_top" xlink:title=" ">
<polygon fill="white" stroke="black" points="388.5,-437.5 388.5,-456.5 498.5,-456.5 498.5,-437.5 388.5,-437.5"/>
<text text-anchor="middle" x="443.5" y="-444.5" font-family="Helvetica,sans-Serif" font-size="10.00">v8::Promise::Resolver</text>
</a>
</g>
</g>
<!-- Node9&#45;&gt;Node33 -->
<g id="edge33" class="edge">
<title>Node9&#45;&gt;Node33</title>
<path fill="none" stroke="midnightblue" d="M333.17,-474.98C355.5,-469.26 383.32,-462.14 405.31,-456.52"/>
<polygon fill="midnightblue" stroke="midnightblue" points="332.16,-471.62 323.34,-477.49 333.89,-478.4 332.16,-471.62"/>
</g>
<!-- Node34 -->
<g id="node35" class="node">
<title>Node34</title>
<g id="a_node35"><a xlink:href="classv8_1_1Proxy.html" target="_top" xlink:title=" ">
<polygon fill="white" stroke="black" points="415.5,-399.5 415.5,-418.5 471.5,-418.5 471.5,-399.5 415.5,-399.5"/>
<text text-anchor="middle" x="443.5" y="-406.5" font-family="Helvetica,sans-Serif" font-size="10.00">v8::Proxy</text>
</a>
</g>
</g>
<!-- Node9&#45;&gt;Node34 -->
<g id="edge34" class="edge">
<title>Node9&#45;&gt;Node34</title>
<path fill="none" stroke="midnightblue" d="M315.25,-469.38C332.96,-456.91 359.2,-439.66 384,-428 393.95,-423.32 405.37,-419.33 415.46,-416.24"/>
<polygon fill="midnightblue" stroke="midnightblue" points="312.92,-466.75 306.82,-475.41 316.99,-472.44 312.92,-466.75"/>
</g>
<!-- Node35 -->
<g id="node36" class="node">
<title>Node35</title>
<g id="a_node36"><a xlink:href="classv8_1_1RegExp.html" target="_top" xlink:title=" ">
<polygon fill="white" stroke="black" points="411,-361.5 411,-380.5 476,-380.5 476,-361.5 411,-361.5"/>
<text text-anchor="middle" x="443.5" y="-368.5" font-family="Helvetica,sans-Serif" font-size="10.00">v8::RegExp</text>
</a>
</g>
</g>
<!-- Node9&#45;&gt;Node35 -->
<g id="edge35" class="edge">
<title>Node9&#45;&gt;Node35</title>
<path fill="none" stroke="midnightblue" d="M306.42,-467.26C322.16,-446.01 351.22,-410.7 384,-390 392.13,-384.87 401.77,-381 410.86,-378.13"/>
<polygon fill="midnightblue" stroke="midnightblue" points="303.54,-465.26 300.51,-475.42 309.21,-469.37 303.54,-465.26"/>
</g>
<!-- Node36 -->
<g id="node37" class="node">
<title>Node36</title>
<g id="a_node37"><a xlink:href="classv8_1_1Set.html" target="_top" xlink:title=" ">
<polygon fill="white" stroke="black" points="420,-323.5 420,-342.5 467,-342.5 467,-323.5 420,-323.5"/>
<text text-anchor="middle" x="443.5" y="-330.5" font-family="Helvetica,sans-Serif" font-size="10.00">v8::Set</text>
</a>
</g>
</g>
<!-- Node9&#45;&gt;Node36 -->
<g id="edge36" class="edge">
<title>Node9&#45;&gt;Node36</title>
<path fill="none" stroke="midnightblue" d="M301.92,-466.01C314.89,-437.2 343.32,-382.6 384,-352 394.41,-344.17 408.18,-339.49 419.75,-336.73"/>
<polygon fill="midnightblue" stroke="midnightblue" points="298.64,-464.79 297.85,-475.36 305.05,-467.59 298.64,-464.79"/>
</g>
<!-- Node37 -->
<g id="node38" class="node">
<title>Node37</title>
<g id="a_node38"><a xlink:href="classv8_1_1SharedArrayBuffer.html" target="_top" xlink:title=" ">
<polygon fill="white" stroke="black" points="388.5,-285.5 388.5,-304.5 498.5,-304.5 498.5,-285.5 388.5,-285.5"/>
<text text-anchor="middle" x="443.5" y="-292.5" font-family="Helvetica,sans-Serif" font-size="10.00">v8::SharedArrayBuffer</text>
</a>
</g>
</g>
<!-- Node9&#45;&gt;Node37 -->
<g id="edge37" class="edge">
<title>Node9&#45;&gt;Node37</title>
<path fill="none" stroke="midnightblue" d="M299.08,-465.17C309.18,-429.68 335.15,-355.16 384,-314 388.57,-310.15 393.94,-307.07 399.55,-304.61"/>
<polygon fill="midnightblue" stroke="midnightblue" points="295.59,-464.67 296.35,-475.23 302.35,-466.5 295.59,-464.67"/>
</g>
<!-- Node38 -->
<g id="node39" class="node">
<title>Node38</title>
<g id="a_node39"><a xlink:href="classv8_1_1StringObject.html" target="_top" xlink:title=" ">
<polygon fill="white" stroke="black" points="400.5,-247.5 400.5,-266.5 486.5,-266.5 486.5,-247.5 400.5,-247.5"/>
<text text-anchor="middle" x="443.5" y="-254.5" font-family="Helvetica,sans-Serif" font-size="10.00">v8::StringObject</text>
</a>
</g>
</g>
<!-- Node9&#45;&gt;Node38 -->
<g id="edge38" class="edge">
<title>Node9&#45;&gt;Node38</title>
<path fill="none" stroke="midnightblue" d="M296.92,-465.44C304.09,-424.35 326.35,-328.54 384,-276 388.74,-271.68 394.46,-268.35 400.46,-265.77"/>
<polygon fill="midnightblue" stroke="midnightblue" points="293.44,-465.06 295.29,-475.5 300.35,-466.19 293.44,-465.06"/>
</g>
<!-- Node39 -->
<g id="node40" class="node">
<title>Node39</title>
<g id="a_node40"><a xlink:href="classv8_1_1SymbolObject.html" target="_top" xlink:title=" ">
<polygon fill="white" stroke="black" points="397.5,-209.5 397.5,-228.5 489.5,-228.5 489.5,-209.5 397.5,-209.5"/>
<text text-anchor="middle" x="443.5" y="-216.5" font-family="Helvetica,sans-Serif" font-size="10.00">v8::SymbolObject</text>
</a>
</g>
</g>
<!-- Node9&#45;&gt;Node39 -->
<g id="edge39" class="edge">
<title>Node9&#45;&gt;Node39</title>
<path fill="none" stroke="midnightblue" d="M295.48,-465.14C300,-418.67 317.7,-301.99 384,-238 388,-234.14 392.78,-231.07 397.87,-228.62"/>
<polygon fill="midnightblue" stroke="midnightblue" points="291.97,-465.1 294.59,-475.36 298.94,-465.7 291.97,-465.1"/>
</g>
<!-- Node40 -->
<g id="node41" class="node">
<title>Node40</title>
<g id="a_node41"><a xlink:href="classv8_1_1WasmModuleObject.html" target="_top" xlink:title=" ">
<polygon fill="white" stroke="black" points="384,-171.5 384,-190.5 503,-190.5 503,-171.5 384,-171.5"/>
<text text-anchor="middle" x="443.5" y="-178.5" font-family="Helvetica,sans-Serif" font-size="10.00">v8::WasmModuleObject</text>
</a>
</g>
</g>
<!-- Node9&#45;&gt;Node40 -->
<g id="edge40" class="edge">
<title>Node9&#45;&gt;Node40</title>
<path fill="none" stroke="midnightblue" d="M294.35,-465.26C296.33,-414.09 308.75,-275.86 384,-200 387.84,-196.13 392.46,-193.05 397.42,-190.6"/>
<polygon fill="midnightblue" stroke="midnightblue" points="290.85,-465.21 294.05,-475.31 297.84,-465.42 290.85,-465.21"/>
</g>
<!-- Node13 -->
<g id="node14" class="node">
<title>Node13</title>
<g id="a_node14"><a xlink:href="classv8_1_1DataView.html" target="_top" xlink:title=" ">
<polygon fill="white" stroke="black" points="542,-760.5 542,-779.5 616,-779.5 616,-760.5 542,-760.5"/>
<text text-anchor="middle" x="579" y="-767.5" font-family="Helvetica,sans-Serif" font-size="10.00">v8::DataView</text>
</a>
</g>
</g>
<!-- Node12&#45;&gt;Node13 -->
<g id="edge13" class="edge">
<title>Node12&#45;&gt;Node13</title>
<path fill="none" stroke="midnightblue" d="M504.3,-759.51C517.02,-761.32 530.07,-763.18 541.6,-764.82"/>
<polygon fill="midnightblue" stroke="midnightblue" points="504.6,-756.02 494.21,-758.07 503.62,-762.95 504.6,-756.02"/>
</g>
<!-- Node14 -->
<g id="node15" class="node">
<title>Node14</title>
<g id="a_node15"><a xlink:href="classv8_1_1TypedArray.html" target="_top" xlink:title=" ">
<polygon fill="white" stroke="black" points="539,-722.5 539,-741.5 619,-741.5 619,-722.5 539,-722.5"/>
<text text-anchor="middle" x="579" y="-729.5" font-family="Helvetica,sans-Serif" font-size="10.00">v8::TypedArray</text>
</a>
</g>
</g>
<!-- Node12&#45;&gt;Node14 -->
<g id="edge14" class="edge">
<title>Node12&#45;&gt;Node14</title>
<path fill="none" stroke="midnightblue" d="M504.33,-742.48C515.97,-740.83 527.9,-739.13 538.67,-737.6"/>
<polygon fill="midnightblue" stroke="midnightblue" points="503.62,-739.05 494.21,-743.93 504.6,-745.98 503.62,-739.05"/>
</g>
<!-- Node15 -->
<g id="node16" class="node">
<title>Node15</title>
<g id="a_node16"><a xlink:href="classv8_1_1BigInt64Array.html" target="_top" xlink:title=" ">
<polygon fill="white" stroke="black" points="668,-912.5 668,-931.5 758,-931.5 758,-912.5 668,-912.5"/>
<text text-anchor="middle" x="713" y="-919.5" font-family="Helvetica,sans-Serif" font-size="10.00">v8::BigInt64Array</text>
</a>
</g>
</g>
<!-- Node14&#45;&gt;Node15 -->
<g id="edge15" class="edge">
<title>Node14&#45;&gt;Node15</title>
<path fill="none" stroke="midnightblue" d="M615.92,-747.67C617.03,-748.72 618.06,-749.82 619,-751 662.38,-805.2 608.15,-851.77 655,-903 658.59,-906.93 663.01,-910.04 667.79,-912.51"/>
<polygon fill="midnightblue" stroke="midnightblue" points="617.94,-744.81 607.82,-741.68 613.78,-750.44 617.94,-744.81"/>
</g>
<!-- Node16 -->
<g id="node17" class="node">
<title>Node16</title>
<g id="a_node17"><a xlink:href="classv8_1_1BigUint64Array.html" target="_top" xlink:title=" ">
<polygon fill="white" stroke="black" points="664.5,-874.5 664.5,-893.5 761.5,-893.5 761.5,-874.5 664.5,-874.5"/>
<text text-anchor="middle" x="713" y="-881.5" font-family="Helvetica,sans-Serif" font-size="10.00">v8::BigUint64Array</text>
</a>
</g>
</g>
<!-- Node14&#45;&gt;Node16 -->
<g id="edge16" class="edge">
<title>Node14&#45;&gt;Node16</title>
<path fill="none" stroke="midnightblue" d="M615.71,-747.67C616.88,-748.71 617.99,-749.82 619,-751 653.7,-791.24 617.73,-827.13 655,-865 658.8,-868.87 663.42,-871.95 668.35,-874.4"/>
<polygon fill="midnightblue" stroke="midnightblue" points="617.38,-744.56 607.2,-741.64 613.34,-750.28 617.38,-744.56"/>
</g>
<!-- Node17 -->
<g id="node18" class="node">
<title>Node17</title>
<g id="a_node18"><a xlink:href="classv8_1_1Float32Array.html" target="_top" xlink:title=" ">
<polygon fill="white" stroke="black" points="670,-836.5 670,-855.5 756,-855.5 756,-836.5 670,-836.5"/>
<text text-anchor="middle" x="713" y="-843.5" font-family="Helvetica,sans-Serif" font-size="10.00">v8::Float32Array</text>
</a>
</g>
</g>
<!-- Node14&#45;&gt;Node17 -->
<g id="edge17" class="edge">
<title>Node14&#45;&gt;Node17</title>
<path fill="none" stroke="midnightblue" d="M614.49,-747.05C616.09,-748.28 617.61,-749.59 619,-751 645.28,-777.57 627.03,-802.21 655,-827 659.37,-830.87 664.56,-833.96 669.99,-836.42"/>
<polygon fill="midnightblue" stroke="midnightblue" points="616.28,-744.03 605.98,-741.58 612.5,-749.93 616.28,-744.03"/>
</g>
<!-- Node18 -->
<g id="node19" class="node">
<title>Node18</title>
<g id="a_node19"><a xlink:href="classv8_1_1Float64Array.html" target="_top" xlink:title=" ">
<polygon fill="white" stroke="black" points="670,-798.5 670,-817.5 756,-817.5 756,-798.5 670,-798.5"/>
<text text-anchor="middle" x="713" y="-805.5" font-family="Helvetica,sans-Serif" font-size="10.00">v8::Float64Array</text>
</a>
</g>
</g>
<!-- Node14&#45;&gt;Node18 -->
<g id="edge18" class="edge">
<title>Node14&#45;&gt;Node18</title>
<path fill="none" stroke="midnightblue" d="M612.01,-746.4C614.44,-747.85 616.8,-749.39 619,-751 637.76,-764.76 635.38,-776.5 655,-789 660.98,-792.81 667.81,-795.94 674.61,-798.47"/>
<polygon fill="midnightblue" stroke="midnightblue" points="613.52,-743.24 603.07,-741.54 610.18,-749.39 613.52,-743.24"/>
</g>
<!-- Node19 -->
<g id="node20" class="node">
<title>Node19</title>
<g id="a_node20"><a xlink:href="classv8_1_1Int16Array.html" target="_top" xlink:title=" ">
<polygon fill="white" stroke="black" points="675,-760.5 675,-779.5 751,-779.5 751,-760.5 675,-760.5"/>
<text text-anchor="middle" x="713" y="-767.5" font-family="Helvetica,sans-Serif" font-size="10.00">v8::Int16Array</text>
</a>
</g>
</g>
<!-- Node14&#45;&gt;Node19 -->
<g id="edge19" class="edge">
<title>Node14&#45;&gt;Node19</title>
<path fill="none" stroke="midnightblue" d="M623.04,-744.39C641.12,-749.59 661.82,-755.55 678.7,-760.41"/>
<polygon fill="midnightblue" stroke="midnightblue" points="623.89,-740.99 613.31,-741.59 621.95,-747.72 623.89,-740.99"/>
</g>
<!-- Node20 -->
<g id="node21" class="node">
<title>Node20</title>
<g id="a_node21"><a xlink:href="classv8_1_1Int32Array.html" target="_top" xlink:title=" ">
<polygon fill="white" stroke="black" points="675,-722.5 675,-741.5 751,-741.5 751,-722.5 675,-722.5"/>
<text text-anchor="middle" x="713" y="-729.5" font-family="Helvetica,sans-Serif" font-size="10.00">v8::Int32Array</text>
</a>
</g>
</g>
<!-- Node14&#45;&gt;Node20 -->
<g id="edge20" class="edge">
<title>Node14&#45;&gt;Node20</title>
<path fill="none" stroke="midnightblue" d="M629.45,-732C644.52,-732 660.83,-732 674.94,-732"/>
<polygon fill="midnightblue" stroke="midnightblue" points="629.25,-728.5 619.25,-732 629.25,-735.5 629.25,-728.5"/>
</g>
<!-- Node21 -->
<g id="node22" class="node">
<title>Node21</title>
<g id="a_node22"><a xlink:href="classv8_1_1Int8Array.html" target="_top" xlink:title=" ">
<polygon fill="white" stroke="black" points="677.5,-684.5 677.5,-703.5 748.5,-703.5 748.5,-684.5 677.5,-684.5"/>
<text text-anchor="middle" x="713" y="-691.5" font-family="Helvetica,sans-Serif" font-size="10.00">v8::Int8Array</text>
</a>
</g>
</g>
<!-- Node14&#45;&gt;Node21 -->
<g id="edge21" class="edge">
<title>Node14&#45;&gt;Node21</title>
<path fill="none" stroke="midnightblue" d="M623.04,-719.61C641.12,-714.41 661.82,-708.45 678.7,-703.59"/>
<polygon fill="midnightblue" stroke="midnightblue" points="621.95,-716.28 613.31,-722.41 623.89,-723.01 621.95,-716.28"/>
</g>
<!-- Node22 -->
<g id="node23" class="node">
<title>Node22</title>
<g id="a_node23"><a xlink:href="classv8_1_1Uint16Array.html" target="_top" xlink:title=" ">
<polygon fill="white" stroke="black" points="671.5,-646.5 671.5,-665.5 754.5,-665.5 754.5,-646.5 671.5,-646.5"/>
<text text-anchor="middle" x="713" y="-653.5" font-family="Helvetica,sans-Serif" font-size="10.00">v8::Uint16Array</text>
</a>
</g>
</g>
<!-- Node14&#45;&gt;Node22 -->
<g id="edge22" class="edge">
<title>Node14&#45;&gt;Node22</title>
<path fill="none" stroke="midnightblue" d="M598.11,-715.51C612.62,-702.99 633.96,-686.11 655,-675 661.92,-671.35 669.68,-668.2 677.19,-665.58"/>
<polygon fill="midnightblue" stroke="midnightblue" points="595.6,-713.05 590.41,-722.29 600.23,-718.31 595.6,-713.05"/>
</g>
<!-- Node23 -->
<g id="node24" class="node">
<title>Node23</title>
<g id="a_node24"><a xlink:href="classv8_1_1Uint32Array.html" target="_top" xlink:title=" ">
<polygon fill="white" stroke="black" points="671.5,-608.5 671.5,-627.5 754.5,-627.5 754.5,-608.5 671.5,-608.5"/>
<text text-anchor="middle" x="713" y="-615.5" font-family="Helvetica,sans-Serif" font-size="10.00">v8::Uint32Array</text>
</a>
</g>
</g>
<!-- Node14&#45;&gt;Node23 -->
<g id="edge23" class="edge">
<title>Node14&#45;&gt;Node23</title>
<path fill="none" stroke="midnightblue" d="M590.01,-713.65C602.53,-692.31 625.92,-657.42 655,-637 660.46,-633.16 666.76,-630.06 673.13,-627.56"/>
<polygon fill="midnightblue" stroke="midnightblue" points="586.93,-711.98 585.03,-722.4 593.02,-715.43 586.93,-711.98"/>
</g>
<!-- Node24 -->
<g id="node25" class="node">
<title>Node24</title>
<g id="a_node25"><a xlink:href="classv8_1_1Uint8Array.html" target="_top" xlink:title=" ">
<polygon fill="white" stroke="black" points="674.5,-570.5 674.5,-589.5 751.5,-589.5 751.5,-570.5 674.5,-570.5"/>
<text text-anchor="middle" x="713" y="-577.5" font-family="Helvetica,sans-Serif" font-size="10.00">v8::Uint8Array</text>
</a>
</g>
</g>
<!-- Node14&#45;&gt;Node24 -->
<g id="edge24" class="edge">
<title>Node14&#45;&gt;Node24</title>
<path fill="none" stroke="midnightblue" d="M585.88,-712.67C595.63,-683.83 617.82,-629.66 655,-599 660.63,-594.35 667.45,-590.83 674.38,-588.16"/>
<polygon fill="midnightblue" stroke="midnightblue" points="582.49,-711.79 582.75,-722.38 589.15,-713.94 582.49,-711.79"/>
</g>
<!-- Node25 -->
<g id="node26" class="node">
<title>Node25</title>
<g id="a_node26"><a xlink:href="classv8_1_1Uint8ClampedArray.html" target="_top" xlink:title=" ">
<polygon fill="white" stroke="black" points="655,-532.5 655,-551.5 771,-551.5 771,-532.5 655,-532.5"/>
<text text-anchor="middle" x="713" y="-539.5" font-family="Helvetica,sans-Serif" font-size="10.00">v8::Uint8ClampedArray</text>
</a>
</g>
</g>
<!-- Node14&#45;&gt;Node25 -->
<g id="edge25" class="edge">
<title>Node14&#45;&gt;Node25</title>
<path fill="none" stroke="midnightblue" d="M583.27,-712.26C590.15,-676.91 609.4,-602.6 655,-561 659.24,-557.13 664.29,-554.05 669.6,-551.59"/>
<polygon fill="midnightblue" stroke="midnightblue" points="579.79,-711.82 581.45,-722.28 586.68,-713.06 579.79,-711.82"/>
</g>
<!-- Node42 -->
<g id="node43" class="node">
<title>Node42</title>
<g id="a_node43"><a xlink:href="classv8_1_1BigInt.html" target="_top" xlink:title=" ">
<polygon fill="white" stroke="black" points="415,-133.5 415,-152.5 472,-152.5 472,-133.5 415,-133.5"/>
<text text-anchor="middle" x="443.5" y="-140.5" font-family="Helvetica,sans-Serif" font-size="10.00">v8::BigInt</text>
</a>
</g>
</g>
<!-- Node41&#45;&gt;Node42 -->
<g id="edge42" class="edge">
<title>Node41&#45;&gt;Node42</title>
<path fill="none" stroke="midnightblue" d="M337.97,-116.25C362.77,-122.6 393,-130.33 414.56,-135.85"/>
<polygon fill="midnightblue" stroke="midnightblue" points="338.62,-112.81 328.07,-113.72 336.89,-119.59 338.62,-112.81"/>
</g>
<!-- Node43 -->
<g id="node44" class="node">
<title>Node43</title>
<g id="a_node44"><a xlink:href="classv8_1_1Boolean.html" target="_top" xlink:title=" ">
<polygon fill="white" stroke="black" points="410,-95.5 410,-114.5 477,-114.5 477,-95.5 410,-95.5"/>
<text text-anchor="middle" x="443.5" y="-102.5" font-family="Helvetica,sans-Serif" font-size="10.00">v8::Boolean</text>
</a>
</g>
</g>
<!-- Node41&#45;&gt;Node43 -->
<g id="edge43" class="edge">
<title>Node41&#45;&gt;Node43</title>
<path fill="none" stroke="midnightblue" d="M338.27,-105C361.25,-105 388.84,-105 409.86,-105"/>
<polygon fill="midnightblue" stroke="midnightblue" points="338.07,-101.5 328.07,-105 338.07,-108.5 338.07,-101.5"/>
</g>
<!-- Node44 -->
<g id="node45" class="node">
<title>Node44</title>
<g id="a_node45"><a xlink:href="classv8_1_1Name.html" target="_top" xlink:title=" ">
<polygon fill="white" stroke="black" points="414.5,-57.5 414.5,-76.5 472.5,-76.5 472.5,-57.5 414.5,-57.5"/>
<text text-anchor="middle" x="443.5" y="-64.5" font-family="Helvetica,sans-Serif" font-size="10.00">v8::Name</text>
</a>
</g>
</g>
<!-- Node41&#45;&gt;Node44 -->
<g id="edge44" class="edge">
<title>Node41&#45;&gt;Node44</title>
<path fill="none" stroke="midnightblue" d="M337.9,-93.77C362.53,-87.46 392.53,-79.79 414.08,-74.27"/>
<polygon fill="midnightblue" stroke="midnightblue" points="336.89,-90.41 328.07,-96.28 338.62,-97.19 336.89,-90.41"/>
</g>
<!-- Node47 -->
<g id="node48" class="node">
<title>Node47</title>
<g id="a_node48"><a xlink:href="classv8_1_1Number.html" target="_top" xlink:title=" ">
<polygon fill="white" stroke="black" points="410.5,-19.5 410.5,-38.5 476.5,-38.5 476.5,-19.5 410.5,-19.5"/>
<text text-anchor="middle" x="443.5" y="-26.5" font-family="Helvetica,sans-Serif" font-size="10.00">v8::Number</text>
</a>
</g>
</g>
<!-- Node41&#45;&gt;Node47 -->
<g id="edge47" class="edge">
<title>Node41&#45;&gt;Node47</title>
<path fill="none" stroke="midnightblue" d="M315.25,-89.38C332.96,-76.91 359.2,-59.66 384,-48 392.31,-44.09 401.64,-40.67 410.37,-37.84"/>
<polygon fill="midnightblue" stroke="midnightblue" points="312.92,-86.75 306.82,-95.41 316.99,-92.44 312.92,-86.75"/>
</g>
<!-- Node45 -->
<g id="node46" class="node">
<title>Node45</title>
<g id="a_node46"><a xlink:href="classv8_1_1String.html" target="_top" xlink:title=" ">
<polygon fill="white" stroke="black" points="550.5,-95.5 550.5,-114.5 607.5,-114.5 607.5,-95.5 550.5,-95.5"/>
<text text-anchor="middle" x="579" y="-102.5" font-family="Helvetica,sans-Serif" font-size="10.00">v8::String</text>
</a>
</g>
</g>
<!-- Node44&#45;&gt;Node45 -->
<g id="edge45" class="edge">
<title>Node44&#45;&gt;Node45</title>
<path fill="none" stroke="midnightblue" d="M482.63,-77.85C504.17,-83.98 530.61,-91.51 550.19,-97.08"/>
<polygon fill="midnightblue" stroke="midnightblue" points="483.39,-74.43 472.81,-75.06 481.47,-81.16 483.39,-74.43"/>
</g>
<!-- Node46 -->
<g id="node47" class="node">
<title>Node46</title>
<g id="a_node47"><a xlink:href="classv8_1_1Symbol.html" target="_top" xlink:title=" ">
<polygon fill="white" stroke="black" points="547,-57.5 547,-76.5 611,-76.5 611,-57.5 547,-57.5"/>
<text text-anchor="middle" x="579" y="-64.5" font-family="Helvetica,sans-Serif" font-size="10.00">v8::Symbol</text>
</a>
</g>
</g>
<!-- Node44&#45;&gt;Node46 -->
<g id="edge46" class="edge">
<title>Node44&#45;&gt;Node46</title>
<path fill="none" stroke="midnightblue" d="M482.99,-67C503.28,-67 527.86,-67 546.93,-67"/>
<polygon fill="midnightblue" stroke="midnightblue" points="482.81,-63.5 472.81,-67 482.81,-70.5 482.81,-63.5"/>
</g>
<!-- Node48 -->
<g id="node49" class="node">
<title>Node48</title>
<g id="a_node49"><a xlink:href="classv8_1_1Integer.html" target="_top" xlink:title=" ">
<polygon fill="white" stroke="black" points="548,-19.5 548,-38.5 610,-38.5 610,-19.5 548,-19.5"/>
<text text-anchor="middle" x="579" y="-26.5" font-family="Helvetica,sans-Serif" font-size="10.00">v8::Integer</text>
</a>
</g>
</g>
<!-- Node47&#45;&gt;Node48 -->
<g id="edge48" class="edge">
<title>Node47&#45;&gt;Node48</title>
<path fill="none" stroke="midnightblue" d="M486.83,-29C506.65,-29 529.8,-29 547.81,-29"/>
<polygon fill="midnightblue" stroke="midnightblue" points="486.82,-25.5 476.82,-29 486.82,-32.5 486.82,-25.5"/>
</g>
<!-- Node49 -->
<g id="node50" class="node">
<title>Node49</title>
<g id="a_node50"><a xlink:href="classv8_1_1Int32.html" target="_top" xlink:title=" ">
<polygon fill="white" stroke="black" points="686.5,-38.5 686.5,-57.5 739.5,-57.5 739.5,-38.5 686.5,-38.5"/>
<text text-anchor="middle" x="713" y="-45.5" font-family="Helvetica,sans-Serif" font-size="10.00">v8::Int32</text>
</a>
</g>
</g>
<!-- Node48&#45;&gt;Node49 -->
<g id="edge49" class="edge">
<title>Node48&#45;&gt;Node49</title>
<path fill="none" stroke="midnightblue" d="M620.42,-34.82C641.87,-37.91 667.59,-41.61 686.3,-44.3"/>
<polygon fill="midnightblue" stroke="midnightblue" points="620.68,-31.32 610.28,-33.36 619.68,-38.25 620.68,-31.32"/>
</g>
<!-- Node50 -->
<g id="node51" class="node">
<title>Node50</title>
<g id="a_node51"><a xlink:href="classv8_1_1Uint32.html" target="_top" xlink:title=" ">
<polygon fill="white" stroke="black" points="683,-0.5 683,-19.5 743,-19.5 743,-0.5 683,-0.5"/>
<text text-anchor="middle" x="713" y="-7.5" font-family="Helvetica,sans-Serif" font-size="10.00">v8::Uint32</text>
</a>
</g>
</g>
<!-- Node48&#45;&gt;Node50 -->
<g id="edge50" class="edge">
<title>Node48&#45;&gt;Node50</title>
<path fill="none" stroke="midnightblue" d="M620.42,-23.18C640.55,-20.28 664.43,-16.85 682.77,-14.21"/>
<polygon fill="midnightblue" stroke="midnightblue" points="619.68,-19.75 610.28,-24.64 620.68,-26.68 619.68,-19.75"/>
</g>
</g>
</svg>
