<?xml version="1.0" encoding="UTF-8" standalone="no"?>
<!DOCTYPE svg PUBLIC "-//W3C//DTD SVG 1.1//EN"
 "http://www.w3.org/Graphics/SVG/1.1/DTD/svg11.dtd">
<!-- Generated by graphviz version 2.44.0 ()
 -->
<!-- Title: include/v8&#45;util.h Pages: 1 -->
<svg width="518pt" height="196pt"
 viewBox="0.00 0.00 517.50 196.00" xmlns="http://www.w3.org/2000/svg" xmlns:xlink="http://www.w3.org/1999/xlink">
<g id="graph0" class="graph" transform="scale(1 1) rotate(0) translate(4 192)">
<title>include/v8&#45;util.h</title>
<polygon fill="white" stroke="transparent" points="-4,4 -4,-192 513.5,-192 513.5,4 -4,4"/>
<!-- Node1 -->
<g id="node1" class="node">
<title>Node1</title>
<g id="a_node1"><a xlink:title=" ">
<polygon fill="#bfbfbf" stroke="black" points="362,-168.5 362,-187.5 446,-187.5 446,-168.5 362,-168.5"/>
<text text-anchor="middle" x="404" y="-175.5" font-family="Helvetica,sans-Serif" font-size="10.00">include/v8&#45;util.h</text>
</a>
</g>
</g>
<!-- Node2 -->
<g id="node2" class="node">
<title>Node2</title>
<g id="a_node2"><a xlink:href="v8_8h.html" target="_top" xlink:title=" ">
<polygon fill="white" stroke="black" points="243.5,-112.5 243.5,-131.5 278.5,-131.5 278.5,-112.5 243.5,-112.5"/>
<text text-anchor="middle" x="261" y="-119.5" font-family="Helvetica,sans-Serif" font-size="10.00">v8.h</text>
</a>
</g>
</g>
<!-- Node1&#45;&gt;Node2 -->
<g id="edge1" class="edge">
<title>Node1&#45;&gt;Node2</title>
<path fill="none" stroke="midnightblue" d="M381.34,-168.44C356.06,-158.9 315.18,-143.46 288.19,-133.27"/>
<polygon fill="midnightblue" stroke="midnightblue" points="289.19,-129.9 278.59,-129.64 286.71,-136.45 289.19,-129.9"/>
</g>
<!-- Node8 -->
<g id="node8" class="node">
<title>Node8</title>
<g id="a_node8"><a xlink:title=" ">
<polygon fill="white" stroke="#bfbfbf" points="426,-56.5 426,-75.5 470,-75.5 470,-56.5 426,-56.5"/>
<text text-anchor="middle" x="448" y="-63.5" font-family="Helvetica,sans-Serif" font-size="10.00">vector</text>
</a>
</g>
</g>
<!-- Node1&#45;&gt;Node8 -->
<g id="edge18" class="edge">
<title>Node1&#45;&gt;Node8</title>
<path fill="none" stroke="midnightblue" d="M400.29,-168.14C395.47,-155.19 388.6,-130.62 397,-112 402.62,-99.56 413.56,-89.17 423.88,-81.53"/>
<polygon fill="midnightblue" stroke="midnightblue" points="426.01,-84.31 432.27,-75.76 422.04,-78.54 426.01,-84.31"/>
</g>
<!-- Node13 -->
<g id="node13" class="node">
<title>Node13</title>
<g id="a_node13"><a xlink:title=" ">
<polygon fill="white" stroke="#bfbfbf" points="405.5,-112.5 405.5,-131.5 456.5,-131.5 456.5,-112.5 405.5,-112.5"/>
<text text-anchor="middle" x="431" y="-119.5" font-family="Helvetica,sans-Serif" font-size="10.00">assert.h</text>
</a>
</g>
</g>
<!-- Node1&#45;&gt;Node13 -->
<g id="edge16" class="edge">
<title>Node1&#45;&gt;Node13</title>
<path fill="none" stroke="midnightblue" d="M408.46,-168.08C412.15,-160.69 417.52,-149.95 422.09,-140.81"/>
<polygon fill="midnightblue" stroke="midnightblue" points="425.28,-142.26 426.62,-131.75 419.02,-139.13 425.28,-142.26"/>
</g>
<!-- Node14 -->
<g id="node14" class="node">
<title>Node14</title>
<g id="a_node14"><a xlink:title=" ">
<polygon fill="white" stroke="#bfbfbf" points="474.5,-112.5 474.5,-131.5 509.5,-131.5 509.5,-112.5 474.5,-112.5"/>
<text text-anchor="middle" x="492" y="-119.5" font-family="Helvetica,sans-Serif" font-size="10.00">map</text>
</a>
</g>
</g>
<!-- Node1&#45;&gt;Node14 -->
<g id="edge17" class="edge">
<title>Node1&#45;&gt;Node14</title>
<path fill="none" stroke="midnightblue" d="M418.14,-168.32C431.87,-159.9 452.94,-146.97 469.06,-137.07"/>
<polygon fill="midnightblue" stroke="midnightblue" points="471.2,-139.87 477.9,-131.65 467.54,-133.9 471.2,-139.87"/>
</g>
<!-- Node3 -->
<g id="node3" class="node">
<title>Node3</title>
<g id="a_node3"><a xlink:title=" ">
<polygon fill="white" stroke="#bfbfbf" points="124.5,-0.5 124.5,-19.5 175.5,-19.5 175.5,-0.5 124.5,-0.5"/>
<text text-anchor="middle" x="150" y="-7.5" font-family="Helvetica,sans-Serif" font-size="10.00">stddef.h</text>
</a>
</g>
</g>
<!-- Node2&#45;&gt;Node3 -->
<g id="edge2" class="edge">
<title>Node2&#45;&gt;Node3</title>
<path fill="none" stroke="midnightblue" d="M243.33,-119.7C199.26,-116.06 86.42,-104.12 64,-76 45.42,-52.69 83.24,-33.23 114.48,-21.85"/>
<polygon fill="midnightblue" stroke="midnightblue" points="116.01,-25.02 124.31,-18.44 113.72,-18.41 116.01,-25.02"/>
</g>
<!-- Node4 -->
<g id="node4" class="node">
<title>Node4</title>
<g id="a_node4"><a xlink:title=" ">
<polygon fill="white" stroke="#bfbfbf" points="297,-0.5 297,-19.5 345,-19.5 345,-0.5 297,-0.5"/>
<text text-anchor="middle" x="321" y="-7.5" font-family="Helvetica,sans-Serif" font-size="10.00">stdint.h</text>
</a>
</g>
</g>
<!-- Node2&#45;&gt;Node4 -->
<g id="edge3" class="edge">
<title>Node2&#45;&gt;Node4</title>
<path fill="none" stroke="midnightblue" d="M278.76,-116.69C297.97,-110.98 327.65,-98.83 341,-76 349.81,-60.93 341.77,-41.58 333.41,-27.93"/>
<polygon fill="midnightblue" stroke="midnightblue" points="336.24,-25.87 327.77,-19.5 330.42,-29.76 336.24,-25.87"/>
</g>
<!-- Node5 -->
<g id="node5" class="node">
<title>Node5</title>
<g id="a_node5"><a xlink:title=" ">
<polygon fill="white" stroke="#bfbfbf" points="73.5,-56.5 73.5,-75.5 118.5,-75.5 118.5,-56.5 73.5,-56.5"/>
<text text-anchor="middle" x="96" y="-63.5" font-family="Helvetica,sans-Serif" font-size="10.00">stdio.h</text>
</a>
</g>
</g>
<!-- Node2&#45;&gt;Node5 -->
<g id="edge4" class="edge">
<title>Node2&#45;&gt;Node5</title>
<path fill="none" stroke="midnightblue" d="M243.34,-115.22C215.88,-106.23 162.5,-88.76 128.1,-77.5"/>
<polygon fill="midnightblue" stroke="midnightblue" points="129.1,-74.15 118.51,-74.37 126.92,-80.8 129.1,-74.15"/>
</g>
<!-- Node6 -->
<g id="node6" class="node">
<title>Node6</title>
<g id="a_node6"><a xlink:title=" ">
<polygon fill="white" stroke="#bfbfbf" points="136.5,-56.5 136.5,-75.5 187.5,-75.5 187.5,-56.5 136.5,-56.5"/>
<text text-anchor="middle" x="162" y="-63.5" font-family="Helvetica,sans-Serif" font-size="10.00">memory</text>
</a>
</g>
</g>
<!-- Node2&#45;&gt;Node6 -->
<g id="edge5" class="edge">
<title>Node2&#45;&gt;Node6</title>
<path fill="none" stroke="midnightblue" d="M245.09,-112.32C229.36,-103.74 205.06,-90.49 186.79,-80.52"/>
<polygon fill="midnightblue" stroke="midnightblue" points="188.32,-77.37 177.87,-75.65 184.97,-83.52 188.32,-77.37"/>
</g>
<!-- Node7 -->
<g id="node7" class="node">
<title>Node7</title>
<g id="a_node7"><a xlink:title=" ">
<polygon fill="white" stroke="#bfbfbf" points="205.5,-56.5 205.5,-75.5 244.5,-75.5 244.5,-56.5 205.5,-56.5"/>
<text text-anchor="middle" x="225" y="-63.5" font-family="Helvetica,sans-Serif" font-size="10.00">utility</text>
</a>
</g>
</g>
<!-- Node2&#45;&gt;Node7 -->
<g id="edge6" class="edge">
<title>Node2&#45;&gt;Node7</title>
<path fill="none" stroke="midnightblue" d="M255.06,-112.08C250.02,-104.53 242.66,-93.49 236.49,-84.23"/>
<polygon fill="midnightblue" stroke="midnightblue" points="239.29,-82.13 230.83,-75.75 233.47,-86.01 239.29,-82.13"/>
</g>
<!-- Node2&#45;&gt;Node8 -->
<g id="edge7" class="edge">
<title>Node2&#45;&gt;Node8</title>
<path fill="none" stroke="midnightblue" d="M278.59,-115.92C310.04,-106.84 376.31,-87.7 416.01,-76.24"/>
<polygon fill="midnightblue" stroke="midnightblue" points="417.09,-79.57 425.73,-73.43 415.15,-72.84 417.09,-79.57"/>
</g>
<!-- Node9 -->
<g id="node9" class="node">
<title>Node9</title>
<g id="a_node9"><a xlink:href="v8-internal_8h.html" target="_top" xlink:title=" ">
<polygon fill="white" stroke="black" points="262.5,-56.5 262.5,-75.5 331.5,-75.5 331.5,-56.5 262.5,-56.5"/>
<text text-anchor="middle" x="297" y="-63.5" font-family="Helvetica,sans-Serif" font-size="10.00">v8&#45;internal.h</text>
</a>
</g>
</g>
<!-- Node2&#45;&gt;Node9 -->
<g id="edge8" class="edge">
<title>Node2&#45;&gt;Node9</title>
<path fill="none" stroke="midnightblue" d="M266.94,-112.08C271.98,-104.53 279.34,-93.49 285.51,-84.23"/>
<polygon fill="midnightblue" stroke="midnightblue" points="288.53,-86.01 291.17,-75.75 282.71,-82.13 288.53,-86.01"/>
</g>
<!-- Node11 -->
<g id="node11" class="node">
<title>Node11</title>
<g id="a_node11"><a xlink:href="v8-version_8h.html" target="_top" xlink:title=" ">
<polygon fill="white" stroke="black" points="363.5,-0.5 363.5,-19.5 432.5,-19.5 432.5,-0.5 363.5,-0.5"/>
<text text-anchor="middle" x="398" y="-7.5" font-family="Helvetica,sans-Serif" font-size="10.00">v8&#45;version.h</text>
</a>
</g>
</g>
<!-- Node2&#45;&gt;Node11 -->
<g id="edge14" class="edge">
<title>Node2&#45;&gt;Node11</title>
<path fill="none" stroke="midnightblue" d="M278.79,-115.87C299.24,-109.27 332.94,-96.21 356,-76 370.96,-62.89 382.66,-43.2 389.87,-28.93"/>
<polygon fill="midnightblue" stroke="midnightblue" points="393.15,-30.2 394.31,-19.67 386.84,-27.17 393.15,-30.2"/>
</g>
<!-- Node12 -->
<g id="node12" class="node">
<title>Node12</title>
<g id="a_node12"><a xlink:href="v8config_8h.html" target="_top" xlink:title=" ">
<polygon fill="white" stroke="black" points="0,-0.5 0,-19.5 60,-19.5 60,-0.5 0,-0.5"/>
<text text-anchor="middle" x="30" y="-7.5" font-family="Helvetica,sans-Serif" font-size="10.00">v8config.h</text>
</a>
</g>
</g>
<!-- Node2&#45;&gt;Node12 -->
<g id="edge15" class="edge">
<title>Node2&#45;&gt;Node12</title>
<path fill="none" stroke="midnightblue" d="M243.23,-119.23C198.81,-114.48 84.49,-100.15 56,-76 42.26,-64.35 35.71,-44.4 32.64,-29.67"/>
<polygon fill="midnightblue" stroke="midnightblue" points="36.06,-28.9 30.9,-19.64 29.16,-30.09 36.06,-28.9"/>
</g>
<!-- Node9&#45;&gt;Node3 -->
<g id="edge9" class="edge">
<title>Node9&#45;&gt;Node3</title>
<path fill="none" stroke="midnightblue" d="M273.71,-56.44C249.19,-47.44 210.4,-33.19 182.8,-23.05"/>
<polygon fill="midnightblue" stroke="midnightblue" points="183.78,-19.68 173.18,-19.52 181.36,-26.25 183.78,-19.68"/>
</g>
<!-- Node9&#45;&gt;Node4 -->
<g id="edge10" class="edge">
<title>Node9&#45;&gt;Node4</title>
<path fill="none" stroke="midnightblue" d="M300.96,-56.08C304.21,-48.77 308.92,-38.18 312.95,-29.1"/>
<polygon fill="midnightblue" stroke="midnightblue" points="316.25,-30.31 317.11,-19.75 309.85,-27.47 316.25,-30.31"/>
</g>
<!-- Node10 -->
<g id="node10" class="node">
<title>Node10</title>
<g id="a_node10"><a xlink:title=" ">
<polygon fill="white" stroke="#bfbfbf" points="217,-0.5 217,-19.5 279,-19.5 279,-0.5 217,-0.5"/>
<text text-anchor="middle" x="248" y="-7.5" font-family="Helvetica,sans-Serif" font-size="10.00">type_traits</text>
</a>
</g>
</g>
<!-- Node9&#45;&gt;Node10 -->
<g id="edge11" class="edge">
<title>Node9&#45;&gt;Node10</title>
<path fill="none" stroke="midnightblue" d="M288.91,-56.08C281.84,-48.3 271.41,-36.8 262.85,-27.37"/>
<polygon fill="midnightblue" stroke="midnightblue" points="265.25,-24.8 255.94,-19.75 260.07,-29.51 265.25,-24.8"/>
</g>
<!-- Node9&#45;&gt;Node11 -->
<g id="edge12" class="edge">
<title>Node9&#45;&gt;Node11</title>
<path fill="none" stroke="midnightblue" d="M313.23,-56.32C329.35,-47.7 354.3,-34.36 372.96,-24.39"/>
<polygon fill="midnightblue" stroke="midnightblue" points="374.64,-27.46 381.81,-19.65 371.34,-21.28 374.64,-27.46"/>
</g>
<!-- Node9&#45;&gt;Node12 -->
<g id="edge13" class="edge">
<title>Node9&#45;&gt;Node12</title>
<path fill="none" stroke="midnightblue" d="M262.41,-57.92C259.23,-57.27 256.06,-56.62 253,-56 189.08,-43.01 114.84,-28.06 70.18,-19.08"/>
<polygon fill="midnightblue" stroke="midnightblue" points="70.8,-15.63 60.3,-17.09 69.42,-22.49 70.8,-15.63"/>
</g>
</g>
</svg>
