<?xml version="1.0" encoding="UTF-8" standalone="no"?>
<!DOCTYPE svg PUBLIC "-//W3C//DTD SVG 1.1//EN"
 "http://www.w3.org/Graphics/SVG/1.1/DTD/svg11.dtd">
<!-- Generated by graphviz version 2.44.0 ()
 -->
<!-- Title: include/cppgc/internal/api&#45;constants.h Pages: 1 -->
<svg width="722pt" height="486pt"
 viewBox="0.00 0.00 722.00 486.00" xmlns="http://www.w3.org/2000/svg" xmlns:xlink="http://www.w3.org/1999/xlink">
<g id="graph0" class="graph" transform="scale(1 1) rotate(0) translate(4 482)">
<title>include/cppgc/internal/api&#45;constants.h</title>
<polygon fill="white" stroke="transparent" points="-4,4 -4,-482 718,-482 718,4 -4,4"/>
<!-- Node1 -->
<g id="node1" class="node">
<title>Node1</title>
<g id="a_node1"><a xlink:title=" ">
<polygon fill="#bfbfbf" stroke="black" points="162.5,-447.5 162.5,-477.5 273.5,-477.5 273.5,-447.5 162.5,-447.5"/>
<text text-anchor="start" x="170.5" y="-465.5" font-family="Helvetica,sans-Serif" font-size="10.00">include/cppgc/internal</text>
<text text-anchor="middle" x="218" y="-454.5" font-family="Helvetica,sans-Serif" font-size="10.00">/api&#45;constants.h</text>
</a>
</g>
</g>
<!-- Node2 -->
<g id="node2" class="node">
<title>Node2</title>
<g id="a_node2"><a xlink:href="garbage-collected_8h.html" target="_top" xlink:title=" ">
<polygon fill="white" stroke="black" points="96,-380.5 96,-410.5 210,-410.5 210,-380.5 96,-380.5"/>
<text text-anchor="start" x="104" y="-398.5" font-family="Helvetica,sans-Serif" font-size="10.00">include/cppgc/garbage</text>
<text text-anchor="middle" x="153" y="-387.5" font-family="Helvetica,sans-Serif" font-size="10.00">&#45;collected.h</text>
</a>
</g>
</g>
<!-- Node1&#45;&gt;Node2 -->
<g id="edge1" class="edge">
<title>Node1&#45;&gt;Node2</title>
<path fill="none" stroke="midnightblue" d="M196.81,-440.31C187.06,-430.56 175.76,-419.26 167.08,-410.58"/>
<polygon fill="midnightblue" stroke="midnightblue" points="194.35,-442.8 203.9,-447.4 199.3,-437.85 194.35,-442.8"/>
</g>
<!-- Node3 -->
<g id="node3" class="node">
<title>Node3</title>
<g id="a_node3"><a xlink:href="allocation_8h.html" target="_top" xlink:title=" ">
<polygon fill="white" stroke="black" points="0,-319 0,-338 128,-338 128,-319 0,-319"/>
<text text-anchor="middle" x="64" y="-326" font-family="Helvetica,sans-Serif" font-size="10.00">include/cppgc/allocation.h</text>
</a>
</g>
</g>
<!-- Node1&#45;&gt;Node3 -->
<g id="edge8" class="edge">
<title>Node1&#45;&gt;Node3</title>
<path fill="none" stroke="midnightblue" d="M152.75,-449.18C129.18,-441.72 104.17,-429.84 87,-411 67.99,-390.13 64.56,-354.72 64.03,-338.32"/>
<polygon fill="midnightblue" stroke="midnightblue" points="151.81,-452.55 162.39,-452.01 153.78,-445.83 151.81,-452.55"/>
</g>
<!-- Node8 -->
<g id="node8" class="node">
<title>Node8</title>
<g id="a_node8"><a xlink:href="write-barrier_8h.html" target="_top" xlink:title=" ">
<polygon fill="white" stroke="black" points="228.5,-380.5 228.5,-410.5 339.5,-410.5 339.5,-380.5 228.5,-380.5"/>
<text text-anchor="start" x="236.5" y="-398.5" font-family="Helvetica,sans-Serif" font-size="10.00">include/cppgc/internal</text>
<text text-anchor="middle" x="284" y="-387.5" font-family="Helvetica,sans-Serif" font-size="10.00">/write&#45;barrier.h</text>
</a>
</g>
</g>
<!-- Node1&#45;&gt;Node8 -->
<g id="edge9" class="edge">
<title>Node1&#45;&gt;Node8</title>
<path fill="none" stroke="midnightblue" d="M239.51,-440.31C249.41,-430.56 260.89,-419.26 269.71,-410.58"/>
<polygon fill="midnightblue" stroke="midnightblue" points="236.99,-437.89 232.32,-447.4 241.9,-442.87 236.99,-437.89"/>
</g>
<!-- Node16 -->
<g id="node16" class="node">
<title>Node16</title>
<g id="a_node16"><a xlink:href="caged-heap-local-data_8h.html" target="_top" xlink:title=" ">
<polygon fill="white" stroke="black" points="358,-380.5 358,-410.5 480,-410.5 480,-380.5 358,-380.5"/>
<text text-anchor="start" x="366" y="-398.5" font-family="Helvetica,sans-Serif" font-size="10.00">include/cppgc/internal</text>
<text text-anchor="middle" x="419" y="-387.5" font-family="Helvetica,sans-Serif" font-size="10.00">/caged&#45;heap&#45;local&#45;data.h</text>
</a>
</g>
</g>
<!-- Node1&#45;&gt;Node16 -->
<g id="edge25" class="edge">
<title>Node1&#45;&gt;Node16</title>
<path fill="none" stroke="midnightblue" d="M271.41,-444.23C303.93,-433.71 344.94,-420.45 375.47,-410.58"/>
<polygon fill="midnightblue" stroke="midnightblue" points="270.05,-440.99 261.61,-447.4 272.21,-447.65 270.05,-440.99"/>
</g>
<!-- Node2&#45;&gt;Node3 -->
<g id="edge2" class="edge">
<title>Node2&#45;&gt;Node3</title>
<path fill="none" stroke="midnightblue" d="M125.35,-374.31C108.64,-362.1 88.2,-347.18 75.65,-338.01"/>
<polygon fill="midnightblue" stroke="midnightblue" points="123.55,-377.32 133.69,-380.4 127.68,-371.67 123.55,-377.32"/>
</g>
<!-- Node4 -->
<g id="node4" class="node">
<title>Node4</title>
<g id="a_node4"><a xlink:href="visitor_8h.html" target="_top" xlink:title=" ">
<polygon fill="white" stroke="black" points="271.5,-129 271.5,-148 384.5,-148 384.5,-129 271.5,-129"/>
<text text-anchor="middle" x="328" y="-136" font-family="Helvetica,sans-Serif" font-size="10.00">include/cppgc/visitor.h</text>
</a>
</g>
</g>
<!-- Node2&#45;&gt;Node4 -->
<g id="edge3" class="edge">
<title>Node2&#45;&gt;Node4</title>
<path fill="none" stroke="midnightblue" d="M157.61,-370.43C166.6,-329.15 189.93,-244.08 238,-190 255.74,-170.05 283.32,-156.21 303.27,-148.14"/>
<polygon fill="midnightblue" stroke="midnightblue" points="154.15,-369.9 155.54,-380.4 161,-371.32 154.15,-369.9"/>
</g>
<!-- Node5 -->
<g id="node5" class="node">
<title>Node5</title>
<g id="a_node5"><a xlink:href="persistent_8h.html" target="_top" xlink:title=" ">
<polygon fill="white" stroke="black" points="185,-67.5 185,-86.5 315,-86.5 315,-67.5 185,-67.5"/>
<text text-anchor="middle" x="250" y="-74.5" font-family="Helvetica,sans-Serif" font-size="10.00">include/cppgc/persistent.h</text>
</a>
</g>
</g>
<!-- Node4&#45;&gt;Node5 -->
<g id="edge4" class="edge">
<title>Node4&#45;&gt;Node5</title>
<path fill="none" stroke="midnightblue" d="M308.72,-122.79C293.76,-111.38 273.54,-95.96 261.15,-86.51"/>
<polygon fill="midnightblue" stroke="midnightblue" points="306.75,-125.69 316.82,-128.98 311,-120.13 306.75,-125.69"/>
</g>
<!-- Node6 -->
<g id="node6" class="node">
<title>Node6</title>
<g id="a_node6"><a xlink:href="cross-thread-persistent_8h.html" target="_top" xlink:title=" ">
<polygon fill="white" stroke="black" points="291,-0.5 291,-30.5 395,-30.5 395,-0.5 291,-0.5"/>
<text text-anchor="start" x="299" y="-18.5" font-family="Helvetica,sans-Serif" font-size="10.00">include/cppgc/cross</text>
<text text-anchor="middle" x="343" y="-7.5" font-family="Helvetica,sans-Serif" font-size="10.00">&#45;thread&#45;persistent.h</text>
</a>
</g>
</g>
<!-- Node4&#45;&gt;Node6 -->
<g id="edge6" class="edge">
<title>Node4&#45;&gt;Node6</title>
<path fill="none" stroke="midnightblue" d="M330.33,-118.68C333.36,-94.3 338.56,-52.32 341.26,-30.54"/>
<polygon fill="midnightblue" stroke="midnightblue" points="326.84,-118.44 329.08,-128.8 333.78,-119.3 326.84,-118.44"/>
</g>
<!-- Node7 -->
<g id="node7" class="node">
<title>Node7</title>
<g id="a_node7"><a xlink:href="v8-cppgc_8h.html" target="_top" xlink:title=" ">
<polygon fill="white" stroke="black" points="616,-67.5 616,-86.5 714,-86.5 714,-67.5 616,-67.5"/>
<text text-anchor="middle" x="665" y="-74.5" font-family="Helvetica,sans-Serif" font-size="10.00">include/v8&#45;cppgc.h</text>
</a>
</g>
</g>
<!-- Node4&#45;&gt;Node7 -->
<g id="edge7" class="edge">
<title>Node4&#45;&gt;Node7</title>
<path fill="none" stroke="midnightblue" d="M386.41,-127.19C451.64,-115.67 556.04,-97.24 616.81,-86.51"/>
<polygon fill="midnightblue" stroke="midnightblue" points="385.52,-123.79 376.28,-128.98 386.74,-130.68 385.52,-123.79"/>
</g>
<!-- Node5&#45;&gt;Node6 -->
<g id="edge5" class="edge">
<title>Node5&#45;&gt;Node6</title>
<path fill="none" stroke="midnightblue" d="M271.87,-62.01C286.7,-52.52 306.24,-40.02 321.08,-30.52"/>
<polygon fill="midnightblue" stroke="midnightblue" points="269.86,-59.14 263.32,-67.48 273.63,-65.03 269.86,-59.14"/>
</g>
<!-- Node8&#45;&gt;Node7 -->
<g id="edge24" class="edge">
<title>Node8&#45;&gt;Node7</title>
<path fill="none" stroke="midnightblue" d="M349.58,-378.45C453.91,-351.98 646,-299.04 646,-268 646,-268 646,-268 646,-204.5 646,-159.64 657.83,-106.81 662.82,-86.52"/>
<polygon fill="midnightblue" stroke="midnightblue" points="348.61,-375.08 339.77,-380.93 350.32,-381.87 348.61,-375.08"/>
</g>
<!-- Node9 -->
<g id="node9" class="node">
<title>Node9</title>
<g id="a_node9"><a xlink:href="pointer-policies_8h.html" target="_top" xlink:title=" ">
<polygon fill="white" stroke="black" points="206.5,-313.5 206.5,-343.5 317.5,-343.5 317.5,-313.5 206.5,-313.5"/>
<text text-anchor="start" x="214.5" y="-331.5" font-family="Helvetica,sans-Serif" font-size="10.00">include/cppgc/internal</text>
<text text-anchor="middle" x="262" y="-320.5" font-family="Helvetica,sans-Serif" font-size="10.00">/pointer&#45;policies.h</text>
</a>
</g>
</g>
<!-- Node8&#45;&gt;Node9 -->
<g id="edge10" class="edge">
<title>Node8&#45;&gt;Node9</title>
<path fill="none" stroke="midnightblue" d="M275.94,-370.7C272.86,-361.59 269.44,-351.49 266.76,-343.58"/>
<polygon fill="midnightblue" stroke="midnightblue" points="272.71,-372.05 279.23,-380.4 279.34,-369.8 272.71,-372.05"/>
</g>
<!-- Node15 -->
<g id="node15" class="node">
<title>Node15</title>
<g id="a_node15"><a xlink:href="heap-consistency_8h.html" target="_top" xlink:title=" ">
<polygon fill="white" stroke="black" points="335.5,-313.5 335.5,-343.5 436.5,-343.5 436.5,-313.5 335.5,-313.5"/>
<text text-anchor="start" x="343.5" y="-331.5" font-family="Helvetica,sans-Serif" font-size="10.00">include/cppgc/heap</text>
<text text-anchor="middle" x="386" y="-320.5" font-family="Helvetica,sans-Serif" font-size="10.00">&#45;consistency.h</text>
</a>
</g>
</g>
<!-- Node8&#45;&gt;Node15 -->
<g id="edge23" class="edge">
<title>Node8&#45;&gt;Node15</title>
<path fill="none" stroke="midnightblue" d="M314.58,-375.02C330.45,-364.9 349.48,-352.77 363.91,-343.58"/>
<polygon fill="midnightblue" stroke="midnightblue" points="312.68,-372.07 306.13,-380.4 316.45,-377.97 312.68,-372.07"/>
</g>
<!-- Node9&#45;&gt;Node4 -->
<g id="edge22" class="edge">
<title>Node9&#45;&gt;Node4</title>
<path fill="none" stroke="midnightblue" d="M252.58,-303.56C242.87,-274.77 231.64,-225.84 251,-190 262.09,-169.46 285.58,-155.93 303.71,-148.08"/>
<polygon fill="midnightblue" stroke="midnightblue" points="249.36,-304.96 256.03,-313.19 255.95,-302.6 249.36,-304.96"/>
</g>
<!-- Node9&#45;&gt;Node5 -->
<g id="edge12" class="edge">
<title>Node9&#45;&gt;Node5</title>
<path fill="none" stroke="midnightblue" d="M248.22,-304.08C244.08,-295.81 240.09,-286.26 238,-277 221.78,-205.08 240.86,-115.08 247.73,-86.87"/>
<polygon fill="midnightblue" stroke="midnightblue" points="245.24,-305.93 253.04,-313.1 251.42,-302.63 245.24,-305.93"/>
</g>
<!-- Node9&#45;&gt;Node6 -->
<g id="edge11" class="edge">
<title>Node9&#45;&gt;Node6</title>
<path fill="none" stroke="midnightblue" d="M327.33,-311.2C361.28,-302.17 403.24,-290.13 440,-277 498.86,-255.98 515.09,-252.64 569,-221 578.16,-215.62 588,-217.12 588,-206.5 588,-206.5 588,-206.5 588,-137.5 588,-101.9 578.17,-88.76 550,-67 505.36,-32.51 440.45,-21.19 395.26,-17.68"/>
<polygon fill="midnightblue" stroke="midnightblue" points="326.3,-307.85 317.53,-313.78 328.09,-314.62 326.3,-307.85"/>
</g>
<!-- Node10 -->
<g id="node10" class="node">
<title>Node10</title>
<g id="a_node10"><a xlink:href="member_8h.html" target="_top" xlink:title=" ">
<polygon fill="white" stroke="black" points="309,-257.5 309,-276.5 431,-276.5 431,-257.5 309,-257.5"/>
<text text-anchor="middle" x="370" y="-264.5" font-family="Helvetica,sans-Serif" font-size="10.00">include/cppgc/member.h</text>
</a>
</g>
</g>
<!-- Node9&#45;&gt;Node10 -->
<g id="edge13" class="edge">
<title>Node9&#45;&gt;Node10</title>
<path fill="none" stroke="midnightblue" d="M296.48,-308.51C315.89,-297.81 339.19,-284.97 354.29,-276.66"/>
<polygon fill="midnightblue" stroke="midnightblue" points="294.66,-305.51 287.59,-313.4 298.04,-311.64 294.66,-305.51"/>
</g>
<!-- Node10&#45;&gt;Node4 -->
<g id="edge21" class="edge">
<title>Node10&#45;&gt;Node4</title>
<path fill="none" stroke="midnightblue" d="M383.77,-249.03C394.78,-233.28 406.85,-209.42 397,-190 386.93,-170.14 364.97,-156.22 348.51,-148.09"/>
<polygon fill="midnightblue" stroke="midnightblue" points="380.79,-247.17 377.6,-257.27 386.4,-251.37 380.79,-247.17"/>
</g>
<!-- Node11 -->
<g id="node11" class="node">
<title>Node11</title>
<g id="a_node11"><a xlink:href="ephemeron-pair_8h.html" target="_top" xlink:title=" ">
<polygon fill="white" stroke="black" points="260,-190.5 260,-220.5 388,-220.5 388,-190.5 260,-190.5"/>
<text text-anchor="start" x="268" y="-208.5" font-family="Helvetica,sans-Serif" font-size="10.00">include/cppgc/ephemeron</text>
<text text-anchor="middle" x="324" y="-197.5" font-family="Helvetica,sans-Serif" font-size="10.00">&#45;pair.h</text>
</a>
</g>
</g>
<!-- Node10&#45;&gt;Node11 -->
<g id="edge14" class="edge">
<title>Node10&#45;&gt;Node11</title>
<path fill="none" stroke="midnightblue" d="M357.27,-249.53C350.22,-240.42 341.56,-229.21 334.84,-220.52"/>
<polygon fill="midnightblue" stroke="midnightblue" points="354.52,-251.7 363.41,-257.48 360.06,-247.42 354.52,-251.7"/>
</g>
<!-- Node12 -->
<g id="node12" class="node">
<title>Node12</title>
<g id="a_node12"><a xlink:href="liveness-broker_8h.html" target="_top" xlink:title=" ">
<polygon fill="white" stroke="black" points="444,-190.5 444,-220.5 560,-220.5 560,-190.5 444,-190.5"/>
<text text-anchor="start" x="452" y="-208.5" font-family="Helvetica,sans-Serif" font-size="10.00">include/cppgc/liveness</text>
<text text-anchor="middle" x="502" y="-197.5" font-family="Helvetica,sans-Serif" font-size="10.00">&#45;broker.h</text>
</a>
</g>
</g>
<!-- Node10&#45;&gt;Node12 -->
<g id="edge16" class="edge">
<title>Node10&#45;&gt;Node12</title>
<path fill="none" stroke="midnightblue" d="M398.11,-253.33C419.46,-243.7 448.83,-230.47 470.89,-220.52"/>
<polygon fill="midnightblue" stroke="midnightblue" points="396.59,-250.17 388.91,-257.48 399.47,-256.56 396.59,-250.17"/>
</g>
<!-- Node11&#45;&gt;Node4 -->
<g id="edge15" class="edge">
<title>Node11&#45;&gt;Node4</title>
<path fill="none" stroke="midnightblue" d="M325.49,-180.25C326.18,-169.02 326.96,-156.38 327.46,-148.19"/>
<polygon fill="midnightblue" stroke="midnightblue" points="321.99,-180.2 324.87,-190.4 328.98,-180.63 321.99,-180.2"/>
</g>
<!-- Node12&#45;&gt;Node4 -->
<g id="edge17" class="edge">
<title>Node12&#45;&gt;Node4</title>
<path fill="none" stroke="midnightblue" d="M454.58,-186.78C420.84,-174.18 377.01,-157.81 350.77,-148.01"/>
<polygon fill="midnightblue" stroke="midnightblue" points="453.65,-190.18 464.24,-190.4 456.1,-183.62 453.65,-190.18"/>
</g>
<!-- Node13 -->
<g id="node13" class="node">
<title>Node13</title>
<g id="a_node13"><a xlink:href="prefinalizer-handler_8h.html" target="_top" xlink:title=" ">
<polygon fill="white" stroke="black" points="447.5,-123.5 447.5,-153.5 558.5,-153.5 558.5,-123.5 447.5,-123.5"/>
<text text-anchor="start" x="455.5" y="-141.5" font-family="Helvetica,sans-Serif" font-size="10.00">include/cppgc/internal</text>
<text text-anchor="middle" x="503" y="-130.5" font-family="Helvetica,sans-Serif" font-size="10.00">/prefinalizer&#45;handler.h</text>
</a>
</g>
</g>
<!-- Node12&#45;&gt;Node13 -->
<g id="edge18" class="edge">
<title>Node12&#45;&gt;Node13</title>
<path fill="none" stroke="midnightblue" d="M502.38,-180.11C502.51,-171.15 502.66,-161.32 502.78,-153.58"/>
<polygon fill="midnightblue" stroke="midnightblue" points="498.87,-180.34 502.22,-190.4 505.87,-180.45 498.87,-180.34"/>
</g>
<!-- Node14 -->
<g id="node14" class="node">
<title>Node14</title>
<g id="a_node14"><a xlink:href="prefinalizer_8h.html" target="_top" xlink:title=" ">
<polygon fill="white" stroke="black" points="408.5,-67.5 408.5,-86.5 541.5,-86.5 541.5,-67.5 408.5,-67.5"/>
<text text-anchor="middle" x="475" y="-74.5" font-family="Helvetica,sans-Serif" font-size="10.00">include/cppgc/prefinalizer.h</text>
</a>
</g>
</g>
<!-- Node12&#45;&gt;Node14 -->
<g id="edge20" class="edge">
<title>Node12&#45;&gt;Node14</title>
<path fill="none" stroke="midnightblue" d="M465.88,-184.8C454.85,-176.81 444.05,-166.48 438,-154 431.99,-141.6 433.35,-135.97 438,-123 443.25,-108.34 455.58,-95.03 464.56,-86.76"/>
<polygon fill="midnightblue" stroke="midnightblue" points="464.02,-187.78 474.28,-190.46 467.93,-181.97 464.02,-187.78"/>
</g>
<!-- Node13&#45;&gt;Node14 -->
<g id="edge19" class="edge">
<title>Node13&#45;&gt;Node14</title>
<path fill="none" stroke="midnightblue" d="M492.04,-114.2C487.48,-104.52 482.47,-93.88 479.07,-86.66"/>
<polygon fill="midnightblue" stroke="midnightblue" points="488.94,-115.84 496.36,-123.4 495.27,-112.86 488.94,-115.84"/>
</g>
</g>
</svg>
