<?xml version="1.0" encoding="UTF-8" standalone="no"?>
<!DOCTYPE svg PUBLIC "-//W3C//DTD SVG 1.1//EN"
 "http://www.w3.org/Graphics/SVG/1.1/DTD/svg11.dtd">
<!-- Generated by graphviz version 2.44.0 ()
 -->
<!-- Title: include/cppgc/internal/atomic&#45;entry&#45;flag.h Pages: 1 -->
<svg width="687pt" height="553pt"
 viewBox="0.00 0.00 686.61 553.00" xmlns="http://www.w3.org/2000/svg" xmlns:xlink="http://www.w3.org/1999/xlink">
<g id="graph0" class="graph" transform="scale(1 1) rotate(0) translate(4 549)">
<title>include/cppgc/internal/atomic&#45;entry&#45;flag.h</title>
<polygon fill="white" stroke="transparent" points="-4,4 -4,-549 682.61,-549 682.61,4 -4,4"/>
<!-- Node1 -->
<g id="node1" class="node">
<title>Node1</title>
<g id="a_node1"><a xlink:title=" ">
<polygon fill="#bfbfbf" stroke="black" points="493.61,-514.5 493.61,-544.5 604.61,-544.5 604.61,-514.5 493.61,-514.5"/>
<text text-anchor="start" x="501.61" y="-532.5" font-family="Helvetica,sans-Serif" font-size="10.00">include/cppgc/internal</text>
<text text-anchor="middle" x="549.11" y="-521.5" font-family="Helvetica,sans-Serif" font-size="10.00">/atomic&#45;entry&#45;flag.h</text>
</a>
</g>
</g>
<!-- Node2 -->
<g id="node2" class="node">
<title>Node2</title>
<g id="a_node2"><a xlink:href="process-heap_8h.html" target="_top" xlink:title=" ">
<polygon fill="white" stroke="black" points="493.61,-447.5 493.61,-477.5 604.61,-477.5 604.61,-447.5 493.61,-447.5"/>
<text text-anchor="start" x="501.61" y="-465.5" font-family="Helvetica,sans-Serif" font-size="10.00">include/cppgc/internal</text>
<text text-anchor="middle" x="549.11" y="-454.5" font-family="Helvetica,sans-Serif" font-size="10.00">/process&#45;heap.h</text>
</a>
</g>
</g>
<!-- Node1&#45;&gt;Node2 -->
<g id="edge1" class="edge">
<title>Node1&#45;&gt;Node2</title>
<path fill="none" stroke="midnightblue" d="M549.11,-504.11C549.11,-495.15 549.11,-485.32 549.11,-477.58"/>
<polygon fill="midnightblue" stroke="midnightblue" points="545.61,-504.4 549.11,-514.4 552.61,-504.4 545.61,-504.4"/>
</g>
<!-- Node3 -->
<g id="node3" class="node">
<title>Node3</title>
<g id="a_node3"><a xlink:href="write-barrier_8h.html" target="_top" xlink:title=" ">
<polygon fill="white" stroke="black" points="493.61,-380.5 493.61,-410.5 604.61,-410.5 604.61,-380.5 493.61,-380.5"/>
<text text-anchor="start" x="501.61" y="-398.5" font-family="Helvetica,sans-Serif" font-size="10.00">include/cppgc/internal</text>
<text text-anchor="middle" x="549.11" y="-387.5" font-family="Helvetica,sans-Serif" font-size="10.00">/write&#45;barrier.h</text>
</a>
</g>
</g>
<!-- Node2&#45;&gt;Node3 -->
<g id="edge2" class="edge">
<title>Node2&#45;&gt;Node3</title>
<path fill="none" stroke="midnightblue" d="M549.11,-437.11C549.11,-428.15 549.11,-418.32 549.11,-410.58"/>
<polygon fill="midnightblue" stroke="midnightblue" points="545.61,-437.4 549.11,-447.4 552.61,-437.4 545.61,-437.4"/>
</g>
<!-- Node4 -->
<g id="node4" class="node">
<title>Node4</title>
<g id="a_node4"><a xlink:href="pointer-policies_8h.html" target="_top" xlink:title=" ">
<polygon fill="white" stroke="black" points="271.61,-313.5 271.61,-343.5 382.61,-343.5 382.61,-313.5 271.61,-313.5"/>
<text text-anchor="start" x="279.61" y="-331.5" font-family="Helvetica,sans-Serif" font-size="10.00">include/cppgc/internal</text>
<text text-anchor="middle" x="327.11" y="-320.5" font-family="Helvetica,sans-Serif" font-size="10.00">/pointer&#45;policies.h</text>
</a>
</g>
</g>
<!-- Node3&#45;&gt;Node4 -->
<g id="edge3" class="edge">
<title>Node3&#45;&gt;Node4</title>
<path fill="none" stroke="midnightblue" d="M491.32,-377.58C455.26,-367.02 409.39,-353.59 375.3,-343.61"/>
<polygon fill="midnightblue" stroke="midnightblue" points="490.63,-381.02 501.21,-380.48 492.6,-374.31 490.63,-381.02"/>
</g>
<!-- Node10 -->
<g id="node10" class="node">
<title>Node10</title>
<g id="a_node10"><a xlink:href="v8-cppgc_8h.html" target="_top" xlink:title=" ">
<polygon fill="white" stroke="black" points="439.11,-67.5 439.11,-86.5 537.11,-86.5 537.11,-67.5 439.11,-67.5"/>
<text text-anchor="middle" x="488.11" y="-74.5" font-family="Helvetica,sans-Serif" font-size="10.00">include/v8&#45;cppgc.h</text>
</a>
</g>
</g>
<!-- Node3&#45;&gt;Node10 -->
<g id="edge21" class="edge">
<title>Node3&#45;&gt;Node10</title>
<path fill="none" stroke="midnightblue" d="M549.11,-370.26C549.11,-344.8 549.11,-303.58 549.11,-268 549.11,-268 549.11,-268 549.11,-204.5 549.11,-155.74 511.88,-105.96 495.59,-86.51"/>
<polygon fill="midnightblue" stroke="midnightblue" points="545.61,-370.46 549.11,-380.46 552.61,-370.46 545.61,-370.46"/>
</g>
<!-- Node14 -->
<g id="node14" class="node">
<title>Node14</title>
<g id="a_node14"><a xlink:href="heap-consistency_8h.html" target="_top" xlink:title=" ">
<polygon fill="white" stroke="black" points="577.61,-313.5 577.61,-343.5 678.61,-343.5 678.61,-313.5 577.61,-313.5"/>
<text text-anchor="start" x="585.61" y="-331.5" font-family="Helvetica,sans-Serif" font-size="10.00">include/cppgc/heap</text>
<text text-anchor="middle" x="628.11" y="-320.5" font-family="Helvetica,sans-Serif" font-size="10.00">&#45;consistency.h</text>
</a>
</g>
</g>
<!-- Node3&#45;&gt;Node14 -->
<g id="edge20" class="edge">
<title>Node3&#45;&gt;Node14</title>
<path fill="none" stroke="midnightblue" d="M574.17,-373.88C586.17,-364.01 600.24,-352.43 611,-343.58"/>
<polygon fill="midnightblue" stroke="midnightblue" points="571.75,-371.34 566.25,-380.4 576.2,-376.75 571.75,-371.34"/>
</g>
<!-- Node5 -->
<g id="node5" class="node">
<title>Node5</title>
<g id="a_node5"><a xlink:href="cross-thread-persistent_8h.html" target="_top" xlink:title=" ">
<polygon fill="white" stroke="black" points="194.11,-0.5 194.11,-30.5 298.11,-30.5 298.11,-0.5 194.11,-0.5"/>
<text text-anchor="start" x="202.11" y="-18.5" font-family="Helvetica,sans-Serif" font-size="10.00">include/cppgc/cross</text>
<text text-anchor="middle" x="246.11" y="-7.5" font-family="Helvetica,sans-Serif" font-size="10.00">&#45;thread&#45;persistent.h</text>
</a>
</g>
</g>
<!-- Node4&#45;&gt;Node5 -->
<g id="edge4" class="edge">
<title>Node4&#45;&gt;Node5</title>
<path fill="none" stroke="midnightblue" d="M261.32,-316.82C166.09,-299.47 1.11,-261.47 1.11,-206.5 1.11,-206.5 1.11,-206.5 1.11,-137.5 1.11,-105.05 -3.33,-89.44 20.11,-67 44.65,-43.51 135.28,-29.02 194.05,-21.89"/>
<polygon fill="midnightblue" stroke="midnightblue" points="260.98,-320.31 271.44,-318.63 262.21,-313.42 260.98,-320.31"/>
</g>
<!-- Node6 -->
<g id="node6" class="node">
<title>Node6</title>
<g id="a_node6"><a xlink:href="persistent_8h.html" target="_top" xlink:title=" ">
<polygon fill="white" stroke="black" points="181.11,-67.5 181.11,-86.5 311.11,-86.5 311.11,-67.5 181.11,-67.5"/>
<text text-anchor="middle" x="246.11" y="-74.5" font-family="Helvetica,sans-Serif" font-size="10.00">include/cppgc/persistent.h</text>
</a>
</g>
</g>
<!-- Node4&#45;&gt;Node6 -->
<g id="edge5" class="edge">
<title>Node4&#45;&gt;Node6</title>
<path fill="none" stroke="midnightblue" d="M280.08,-309.23C243.82,-292.34 196.25,-263.4 174.11,-221 147.73,-170.49 209.77,-109.18 235.53,-86.75"/>
<polygon fill="midnightblue" stroke="midnightblue" points="278.95,-312.56 289.5,-313.47 281.82,-306.17 278.95,-312.56"/>
</g>
<!-- Node7 -->
<g id="node7" class="node">
<title>Node7</title>
<g id="a_node7"><a xlink:href="member_8h.html" target="_top" xlink:title=" ">
<polygon fill="white" stroke="black" points="266.11,-257.5 266.11,-276.5 388.11,-276.5 388.11,-257.5 266.11,-257.5"/>
<text text-anchor="middle" x="327.11" y="-264.5" font-family="Helvetica,sans-Serif" font-size="10.00">include/cppgc/member.h</text>
</a>
</g>
</g>
<!-- Node4&#45;&gt;Node7 -->
<g id="edge7" class="edge">
<title>Node4&#45;&gt;Node7</title>
<path fill="none" stroke="midnightblue" d="M327.11,-303.29C327.11,-293.86 327.11,-283.65 327.11,-276.66"/>
<polygon fill="midnightblue" stroke="midnightblue" points="323.61,-303.4 327.11,-313.4 330.61,-303.4 323.61,-303.4"/>
</g>
<!-- Node9 -->
<g id="node9" class="node">
<title>Node9</title>
<g id="a_node9"><a xlink:href="visitor_8h.html" target="_top" xlink:title=" ">
<polygon fill="white" stroke="black" points="282.61,-129 282.61,-148 395.61,-148 395.61,-129 282.61,-129"/>
<text text-anchor="middle" x="339.11" y="-136" font-family="Helvetica,sans-Serif" font-size="10.00">include/cppgc/visitor.h</text>
</a>
</g>
</g>
<!-- Node4&#45;&gt;Node9 -->
<g id="edge19" class="edge">
<title>Node4&#45;&gt;Node9</title>
<path fill="none" stroke="midnightblue" d="M379.41,-309.5C418.21,-293.07 468.35,-264.61 492.11,-221 515.36,-178.32 448.38,-157.05 395.77,-147.17"/>
<polygon fill="midnightblue" stroke="midnightblue" points="377.74,-306.4 369.81,-313.43 380.39,-312.88 377.74,-306.4"/>
</g>
<!-- Node6&#45;&gt;Node5 -->
<g id="edge6" class="edge">
<title>Node6&#45;&gt;Node5</title>
<path fill="none" stroke="midnightblue" d="M246.11,-57.23C246.11,-48.59 246.11,-38.5 246.11,-30.52"/>
<polygon fill="midnightblue" stroke="midnightblue" points="242.61,-57.48 246.11,-67.48 249.61,-57.48 242.61,-57.48"/>
</g>
<!-- Node8 -->
<g id="node8" class="node">
<title>Node8</title>
<g id="a_node8"><a xlink:href="ephemeron-pair_8h.html" target="_top" xlink:title=" ">
<polygon fill="white" stroke="black" points="355.11,-190.5 355.11,-220.5 483.11,-220.5 483.11,-190.5 355.11,-190.5"/>
<text text-anchor="start" x="363.11" y="-208.5" font-family="Helvetica,sans-Serif" font-size="10.00">include/cppgc/ephemeron</text>
<text text-anchor="middle" x="419.11" y="-197.5" font-family="Helvetica,sans-Serif" font-size="10.00">&#45;pair.h</text>
</a>
</g>
</g>
<!-- Node7&#45;&gt;Node8 -->
<g id="edge8" class="edge">
<title>Node7&#45;&gt;Node8</title>
<path fill="none" stroke="midnightblue" d="M348.74,-252.01C363.42,-242.52 382.74,-230.02 397.43,-220.52"/>
<polygon fill="midnightblue" stroke="midnightblue" points="346.79,-249.11 340.29,-257.48 350.59,-254.98 346.79,-249.11"/>
</g>
<!-- Node7&#45;&gt;Node9 -->
<g id="edge18" class="edge">
<title>Node7&#45;&gt;Node9</title>
<path fill="none" stroke="midnightblue" d="M328.88,-247.31C331.51,-219.58 336.35,-168.63 338.28,-148.26"/>
<polygon fill="midnightblue" stroke="midnightblue" points="325.39,-247.02 327.93,-257.31 332.36,-247.68 325.39,-247.02"/>
</g>
<!-- Node11 -->
<g id="node11" class="node">
<title>Node11</title>
<g id="a_node11"><a xlink:href="liveness-broker_8h.html" target="_top" xlink:title=" ">
<polygon fill="white" stroke="black" points="183.11,-190.5 183.11,-220.5 299.11,-220.5 299.11,-190.5 183.11,-190.5"/>
<text text-anchor="start" x="191.11" y="-208.5" font-family="Helvetica,sans-Serif" font-size="10.00">include/cppgc/liveness</text>
<text text-anchor="middle" x="241.11" y="-197.5" font-family="Helvetica,sans-Serif" font-size="10.00">&#45;broker.h</text>
</a>
</g>
</g>
<!-- Node7&#45;&gt;Node11 -->
<g id="edge13" class="edge">
<title>Node7&#45;&gt;Node11</title>
<path fill="none" stroke="midnightblue" d="M306.5,-251.74C292.83,-242.28 274.98,-229.93 261.38,-220.52"/>
<polygon fill="midnightblue" stroke="midnightblue" points="304.57,-254.66 314.79,-257.48 308.56,-248.91 304.57,-254.66"/>
</g>
<!-- Node8&#45;&gt;Node9 -->
<g id="edge9" class="edge">
<title>Node8&#45;&gt;Node9</title>
<path fill="none" stroke="midnightblue" d="M393.89,-184.01C379.04,-171.94 361.02,-157.3 349.81,-148.19"/>
<polygon fill="midnightblue" stroke="midnightblue" points="391.78,-186.81 401.75,-190.4 396.2,-181.37 391.78,-186.81"/>
</g>
<!-- Node9&#45;&gt;Node5 -->
<g id="edge11" class="edge">
<title>Node9&#45;&gt;Node5</title>
<path fill="none" stroke="midnightblue" d="M337.63,-118.68C335.64,-103.53 330.99,-82.32 320.11,-67 309.03,-51.4 291.52,-39.14 276.31,-30.6"/>
<polygon fill="midnightblue" stroke="midnightblue" points="334.17,-119.3 338.69,-128.88 341.14,-118.57 334.17,-119.3"/>
</g>
<!-- Node9&#45;&gt;Node6 -->
<g id="edge10" class="edge">
<title>Node9&#45;&gt;Node6</title>
<path fill="none" stroke="midnightblue" d="M317.12,-123.43C299.19,-111.96 274.45,-96.13 259.41,-86.51"/>
<polygon fill="midnightblue" stroke="midnightblue" points="315.48,-126.53 325.79,-128.98 319.25,-120.64 315.48,-126.53"/>
</g>
<!-- Node9&#45;&gt;Node10 -->
<g id="edge12" class="edge">
<title>Node9&#45;&gt;Node10</title>
<path fill="none" stroke="midnightblue" d="M370.08,-125.13C399.03,-113.57 441.48,-96.62 466.8,-86.51"/>
<polygon fill="midnightblue" stroke="midnightblue" points="368.45,-122.02 360.46,-128.98 371.04,-128.52 368.45,-122.02"/>
</g>
<!-- Node11&#45;&gt;Node9 -->
<g id="edge14" class="edge">
<title>Node11&#45;&gt;Node9</title>
<path fill="none" stroke="midnightblue" d="M270.8,-184.81C289.34,-172.51 312.27,-157.3 326.28,-148.01"/>
<polygon fill="midnightblue" stroke="midnightblue" points="268.77,-181.95 262.37,-190.4 272.64,-187.79 268.77,-181.95"/>
</g>
<!-- Node12 -->
<g id="node12" class="node">
<title>Node12</title>
<g id="a_node12"><a xlink:href="prefinalizer-handler_8h.html" target="_top" xlink:title=" ">
<polygon fill="white" stroke="black" points="29.61,-123.5 29.61,-153.5 140.61,-153.5 140.61,-123.5 29.61,-123.5"/>
<text text-anchor="start" x="37.61" y="-141.5" font-family="Helvetica,sans-Serif" font-size="10.00">include/cppgc/internal</text>
<text text-anchor="middle" x="85.11" y="-130.5" font-family="Helvetica,sans-Serif" font-size="10.00">/prefinalizer&#45;handler.h</text>
</a>
</g>
</g>
<!-- Node11&#45;&gt;Node12 -->
<g id="edge15" class="edge">
<title>Node11&#45;&gt;Node12</title>
<path fill="none" stroke="midnightblue" d="M198.02,-186.54C173.05,-176.14 142.08,-163.24 118.89,-153.58"/>
<polygon fill="midnightblue" stroke="midnightblue" points="196.68,-189.78 207.26,-190.4 199.38,-183.32 196.68,-189.78"/>
</g>
<!-- Node13 -->
<g id="node13" class="node">
<title>Node13</title>
<g id="a_node13"><a xlink:href="prefinalizer_8h.html" target="_top" xlink:title=" ">
<polygon fill="white" stroke="black" points="29.61,-67.5 29.61,-86.5 162.61,-86.5 162.61,-67.5 29.61,-67.5"/>
<text text-anchor="middle" x="96.11" y="-74.5" font-family="Helvetica,sans-Serif" font-size="10.00">include/cppgc/prefinalizer.h</text>
</a>
</g>
</g>
<!-- Node11&#45;&gt;Node13 -->
<g id="edge17" class="edge">
<title>Node11&#45;&gt;Node13</title>
<path fill="none" stroke="midnightblue" d="M218,-183.4C199.73,-166.8 173.49,-143.2 150.11,-123 135.15,-110.08 117.5,-95.49 106.55,-86.52"/>
<polygon fill="midnightblue" stroke="midnightblue" points="216.05,-186.35 225.8,-190.49 220.76,-181.17 216.05,-186.35"/>
</g>
<!-- Node12&#45;&gt;Node13 -->
<g id="edge16" class="edge">
<title>Node12&#45;&gt;Node13</title>
<path fill="none" stroke="midnightblue" d="M89.59,-113.29C91.33,-103.86 93.22,-93.65 94.51,-86.66"/>
<polygon fill="midnightblue" stroke="midnightblue" points="86.09,-112.93 87.72,-123.4 92.98,-114.2 86.09,-112.93"/>
</g>
</g>
</svg>
