<?xml version="1.0" encoding="UTF-8" standalone="no"?>
<!DOCTYPE svg PUBLIC "-//W3C//DTD SVG 1.1//EN"
 "http://www.w3.org/Graphics/SVG/1.1/DTD/svg11.dtd">
<!-- Generated by graphviz version 2.44.0 ()
 -->
<!-- Title: cppgc::internal::BasicCrossThreadPersistent::Get Pages: 1 -->
<svg width="502pt" height="284pt"
 viewBox="0.00 0.00 502.00 284.00" xmlns="http://www.w3.org/2000/svg" xmlns:xlink="http://www.w3.org/1999/xlink">
<g id="graph0" class="graph" transform="scale(1 1) rotate(0) translate(4 280)">
<title>cppgc::internal::BasicCrossThreadPersistent::Get</title>
<polygon fill="white" stroke="transparent" points="-4,4 -4,-280 498,-280 498,4 -4,4"/>
<!-- Node1 -->
<g id="node1" class="node">
<title>Node1</title>
<g id="a_node1"><a xlink:title=" ">
<polygon fill="#bfbfbf" stroke="black" points="360,-122.5 360,-152.5 494,-152.5 494,-122.5 360,-122.5"/>
<text text-anchor="start" x="368" y="-140.5" font-family="Helvetica,sans-Serif" font-size="10.00">cppgc::internal::BasicCross</text>
<text text-anchor="middle" x="427" y="-129.5" font-family="Helvetica,sans-Serif" font-size="10.00">ThreadPersistent::Get</text>
</a>
</g>
</g>
<!-- Node2 -->
<g id="node2" class="node">
<title>Node2</title>
<g id="a_node2"><a xlink:href="classcppgc_1_1internal_1_1BasicCrossThreadPersistent.html#a84f83cc8d906976362b01e2549638d1b" target="_top" xlink:title=" ">
<polygon fill="white" stroke="black" points="173,-245.5 173,-275.5 324,-275.5 324,-245.5 173,-245.5"/>
<text text-anchor="start" x="181" y="-263.5" font-family="Helvetica,sans-Serif" font-size="10.00">cppgc::internal::BasicCross</text>
<text text-anchor="middle" x="248.5" y="-252.5" font-family="Helvetica,sans-Serif" font-size="10.00">ThreadPersistent::operator bool</text>
</a>
</g>
</g>
<!-- Node1&#45;&gt;Node2 -->
<g id="edge1" class="edge">
<title>Node1&#45;&gt;Node2</title>
<path fill="none" stroke="midnightblue" d="M407.55,-160.78C388.73,-183.11 357.57,-216.33 324,-236.5 318.41,-239.86 312.3,-242.8 306.05,-245.37"/>
<polygon fill="midnightblue" stroke="midnightblue" points="410.47,-162.74 414.14,-152.81 405.08,-158.29 410.47,-162.74"/>
</g>
<!-- Node3 -->
<g id="node3" class="node">
<title>Node3</title>
<g id="a_node3"><a xlink:href="classcppgc_1_1internal_1_1BasicCrossThreadPersistent.html#a1aec53f1cfad5e17e9eeec7b5dac1ac8" target="_top" xlink:title=" ">
<polygon fill="white" stroke="black" points="177,-196.5 177,-226.5 320,-226.5 320,-196.5 177,-196.5"/>
<text text-anchor="start" x="185" y="-214.5" font-family="Helvetica,sans-Serif" font-size="10.00">cppgc::internal::BasicCross</text>
<text text-anchor="middle" x="248.5" y="-203.5" font-family="Helvetica,sans-Serif" font-size="10.00">ThreadPersistent::operator T*</text>
</a>
</g>
</g>
<!-- Node1&#45;&gt;Node3 -->
<g id="edge2" class="edge">
<title>Node1&#45;&gt;Node3</title>
<path fill="none" stroke="midnightblue" d="M388.95,-157.26C369.85,-167.04 346,-178.62 324,-187.5 316.19,-190.65 307.79,-193.69 299.55,-196.48"/>
<polygon fill="midnightblue" stroke="midnightblue" points="390.65,-160.33 397.92,-152.63 387.43,-154.11 390.65,-160.33"/>
</g>
<!-- Node4 -->
<g id="node4" class="node">
<title>Node4</title>
<g id="a_node4"><a xlink:href="classcppgc_1_1internal_1_1BasicCrossThreadPersistent.html#a5222c8c62ffb482c011c701ef3860070" target="_top" xlink:title=" ">
<polygon fill="white" stroke="black" points="181.5,-147.5 181.5,-177.5 315.5,-177.5 315.5,-147.5 181.5,-147.5"/>
<text text-anchor="start" x="189.5" y="-165.5" font-family="Helvetica,sans-Serif" font-size="10.00">cppgc::internal::BasicCross</text>
<text text-anchor="middle" x="248.5" y="-154.5" font-family="Helvetica,sans-Serif" font-size="10.00">ThreadPersistent::operator*</text>
</a>
</g>
</g>
<!-- Node1&#45;&gt;Node4 -->
<g id="edge3" class="edge">
<title>Node1&#45;&gt;Node4</title>
<path fill="none" stroke="midnightblue" d="M349.83,-148.29C338.4,-149.91 326.7,-151.57 315.51,-153.15"/>
<polygon fill="midnightblue" stroke="midnightblue" points="350.37,-151.75 359.78,-146.88 349.38,-144.82 350.37,-151.75"/>
</g>
<!-- Node5 -->
<g id="node5" class="node">
<title>Node5</title>
<g id="a_node5"><a xlink:href="classcppgc_1_1internal_1_1BasicCrossThreadPersistent.html#a158195be1c9b221dc5f0c97d86cdbe48" target="_top" xlink:title=" ">
<polygon fill="white" stroke="black" points="178.5,-98.5 178.5,-128.5 318.5,-128.5 318.5,-98.5 178.5,-98.5"/>
<text text-anchor="start" x="186.5" y="-116.5" font-family="Helvetica,sans-Serif" font-size="10.00">cppgc::internal::BasicCross</text>
<text text-anchor="middle" x="248.5" y="-105.5" font-family="Helvetica,sans-Serif" font-size="10.00">ThreadPersistent::operator&#45;&gt;</text>
</a>
</g>
</g>
<!-- Node1&#45;&gt;Node5 -->
<g id="edge4" class="edge">
<title>Node1&#45;&gt;Node5</title>
<path fill="none" stroke="midnightblue" d="M349.61,-127.11C339.35,-125.72 328.87,-124.29 318.75,-122.92"/>
<polygon fill="midnightblue" stroke="midnightblue" points="349.4,-130.62 359.78,-128.5 350.34,-123.68 349.4,-130.62"/>
</g>
<!-- Node6 -->
<g id="node6" class="node">
<title>Node6</title>
<g id="a_node6"><a xlink:href="classcppgc_1_1internal_1_1BasicCrossThreadPersistent.html#a1179b3c5364c0cf7df8cd31f70b92d85" target="_top" xlink:title=" ">
<polygon fill="white" stroke="black" points="180,-49.5 180,-79.5 317,-79.5 317,-49.5 180,-49.5"/>
<text text-anchor="start" x="188" y="-67.5" font-family="Helvetica,sans-Serif" font-size="10.00">cppgc::internal::BasicCross</text>
<text text-anchor="middle" x="248.5" y="-56.5" font-family="Helvetica,sans-Serif" font-size="10.00">ThreadPersistent::operator=</text>
</a>
</g>
</g>
<!-- Node1&#45;&gt;Node6 -->
<g id="edge5" class="edge">
<title>Node1&#45;&gt;Node6</title>
<path fill="none" stroke="midnightblue" d="M386.92,-117.81C368.12,-108.67 345.13,-97.98 324,-89.5 315.39,-86.04 306.1,-82.66 297.09,-79.55"/>
<polygon fill="midnightblue" stroke="midnightblue" points="385.54,-121.03 396.06,-122.28 388.62,-114.74 385.54,-121.03"/>
</g>
<!-- Node8 -->
<g id="node8" class="node">
<title>Node8</title>
<g id="a_node8"><a xlink:href="classcppgc_1_1internal_1_1BasicCrossThreadPersistent.html#a6e20aaa3cf3d3867f6c12fa44b89b057" target="_top" xlink:title=" ">
<polygon fill="white" stroke="black" points="181.5,-0.5 181.5,-30.5 315.5,-30.5 315.5,-0.5 181.5,-0.5"/>
<text text-anchor="start" x="189.5" y="-18.5" font-family="Helvetica,sans-Serif" font-size="10.00">cppgc::internal::BasicCross</text>
<text text-anchor="middle" x="248.5" y="-7.5" font-family="Helvetica,sans-Serif" font-size="10.00">ThreadPersistent::Release</text>
</a>
</g>
</g>
<!-- Node1&#45;&gt;Node8 -->
<g id="edge7" class="edge">
<title>Node1&#45;&gt;Node8</title>
<path fill="none" stroke="midnightblue" d="M407.08,-114.43C388.11,-92.63 357.04,-60.4 324,-40.5 317.69,-36.7 310.73,-33.39 303.67,-30.53"/>
<polygon fill="midnightblue" stroke="midnightblue" points="404.59,-116.89 413.74,-122.22 409.91,-112.34 404.59,-116.89"/>
</g>
<!-- Node7 -->
<g id="node7" class="node">
<title>Node7</title>
<g id="a_node7"><a xlink:href="classcppgc_1_1internal_1_1BasicCrossThreadPersistent.html#abd2b011af337c9ed478dfc015475018d" target="_top" xlink:title=" ">
<polygon fill="white" stroke="black" points="0,-49.5 0,-79.5 137,-79.5 137,-49.5 0,-49.5"/>
<text text-anchor="start" x="8" y="-67.5" font-family="Helvetica,sans-Serif" font-size="10.00">cppgc::internal::BasicCross</text>
<text text-anchor="middle" x="68.5" y="-56.5" font-family="Helvetica,sans-Serif" font-size="10.00">ThreadPersistent::operator=</text>
</a>
</g>
</g>
<!-- Node6&#45;&gt;Node7 -->
<g id="edge6" class="edge">
<title>Node6&#45;&gt;Node7</title>
<path fill="none" stroke="midnightblue" d="M169.62,-64.5C158.75,-64.5 147.66,-64.5 137,-64.5"/>
<polygon fill="midnightblue" stroke="midnightblue" points="169.95,-68 179.95,-64.5 169.95,-61 169.95,-68"/>
</g>
</g>
</svg>
