<?xml version="1.0" encoding="UTF-8" standalone="no"?>
<!DOCTYPE svg PUBLIC "-//W3C//DTD SVG 1.1//EN"
 "http://www.w3.org/Graphics/SVG/1.1/DTD/svg11.dtd">
<!-- Generated by graphviz version 2.44.0 ()
 -->
<!-- Title: v8::Local&lt; T &gt; Pages: 1 -->
<svg width="373pt" height="307pt"
 viewBox="0.00 0.00 373.00 307.00" xmlns="http://www.w3.org/2000/svg" xmlns:xlink="http://www.w3.org/1999/xlink">
<g id="graph0" class="graph" transform="scale(1 1) rotate(0) translate(4 303)">
<title>v8::Local&lt; T &gt;</title>
<polygon fill="white" stroke="transparent" points="-4,4 -4,-303 369,-303 369,4 -4,4"/>
<!-- Node1 -->
<g id="node1" class="node">
<title>Node1</title>
<g id="a_node1"><a xlink:title=" ">
<polygon fill="#bfbfbf" stroke="black" points="0,-133.5 0,-152.5 78,-152.5 78,-133.5 0,-133.5"/>
<text text-anchor="middle" x="39" y="-140.5" font-family="Helvetica,sans-Serif" font-size="10.00">v8::Local&lt; T &gt;</text>
</a>
</g>
</g>
<!-- Node2 -->
<g id="node2" class="node">
<title>Node2</title>
<g id="a_node2"><a xlink:href="classv8_1_1Local.html" target="_top" xlink:title=" ">
<polygon fill="white" stroke="black" points="227.5,-278.5 227.5,-297.5 350.5,-297.5 350.5,-278.5 227.5,-278.5"/>
<text text-anchor="middle" x="289" y="-285.5" font-family="Helvetica,sans-Serif" font-size="10.00">v8::Local&lt; v8::Promise &gt;</text>
</a>
</g>
</g>
<!-- Node1&#45;&gt;Node2 -->
<g id="edge1" class="edge">
<title>Node1&#45;&gt;Node2</title>
<path fill="none" stroke="orange" stroke-dasharray="5,2" d="M44.09,-162.69C50.49,-188.27 65.44,-232.31 96,-255 133.47,-282.82 186.34,-290.24 227.11,-291.16"/>
<polygon fill="orange" stroke="orange" points="47.44,-161.64 41.79,-152.68 40.62,-163.21 47.44,-161.64"/>
<text text-anchor="middle" x="145.5" y="-291" font-family="Helvetica,sans-Serif" font-size="10.00"> &lt; v8::Promise &gt;</text>
</g>
<!-- Node3 -->
<g id="node3" class="node">
<title>Node3</title>
<g id="a_node3"><a xlink:href="classv8_1_1Local.html" target="_top" xlink:title=" ">
<polygon fill="white" stroke="black" points="232.5,-240.5 232.5,-259.5 345.5,-259.5 345.5,-240.5 232.5,-240.5"/>
<text text-anchor="middle" x="289" y="-247.5" font-family="Helvetica,sans-Serif" font-size="10.00">v8::Local&lt; v8::String &gt;</text>
</a>
</g>
</g>
<!-- Node1&#45;&gt;Node3 -->
<g id="edge2" class="edge">
<title>Node1&#45;&gt;Node3</title>
<path fill="none" stroke="orange" stroke-dasharray="5,2" d="M51.2,-161.22C61.16,-175.85 77.05,-195.74 96,-207 137.7,-231.78 192.21,-242.3 232.49,-246.75"/>
<polygon fill="orange" stroke="orange" points="53.93,-158.99 45.54,-152.51 48.06,-162.8 53.93,-158.99"/>
<text text-anchor="middle" x="145.5" y="-243" font-family="Helvetica,sans-Serif" font-size="10.00"> &lt; v8::String &gt;</text>
</g>
<!-- Node4 -->
<g id="node4" class="node">
<title>Node4</title>
<g id="a_node4"><a xlink:href="classv8_1_1Local.html" target="_top" xlink:title=" ">
<polygon fill="white" stroke="black" points="230.5,-191 230.5,-221 347.5,-221 347.5,-191 230.5,-191"/>
<text text-anchor="start" x="238.5" y="-209" font-family="Helvetica,sans-Serif" font-size="10.00">v8::Local&lt; v8::Primitive</text>
<text text-anchor="middle" x="289" y="-198" font-family="Helvetica,sans-Serif" font-size="10.00">Array &gt;</text>
</a>
</g>
</g>
<!-- Node1&#45;&gt;Node4 -->
<g id="edge3" class="edge">
<title>Node1&#45;&gt;Node4</title>
<path fill="none" stroke="orange" stroke-dasharray="5,2" d="M66.96,-157.14C76,-161.44 86.26,-165.85 96,-169 140.09,-183.25 191.75,-192.82 230.37,-198.65"/>
<polygon fill="orange" stroke="orange" points="68.22,-153.86 57.71,-152.58 65.13,-160.14 68.22,-153.86"/>
<text text-anchor="middle" x="145.5" y="-195" font-family="Helvetica,sans-Serif" font-size="10.00"> &lt; v8::PrimitiveArray &gt;</text>
</g>
<!-- Node5 -->
<g id="node5" class="node">
<title>Node5</title>
<g id="a_node5"><a xlink:href="classv8_1_1Local.html" target="_top" xlink:title=" ">
<polygon fill="white" stroke="black" points="233,-152.5 233,-171.5 345,-171.5 345,-152.5 233,-152.5"/>
<text text-anchor="middle" x="289" y="-159.5" font-family="Helvetica,sans-Serif" font-size="10.00">v8::Local&lt; v8::Value &gt;</text>
</a>
</g>
</g>
<!-- Node1&#45;&gt;Node5 -->
<g id="edge4" class="edge">
<title>Node1&#45;&gt;Node5</title>
<path fill="none" stroke="orange" stroke-dasharray="5,2" d="M88.32,-146.7C129.74,-149.88 189.4,-154.45 232.71,-157.76"/>
<polygon fill="orange" stroke="orange" points="88.44,-143.2 78.21,-145.93 87.91,-150.18 88.44,-143.2"/>
<text text-anchor="middle" x="145.5" y="-157" font-family="Helvetica,sans-Serif" font-size="10.00"> &lt; v8::Value &gt;</text>
</g>
<!-- Node6 -->
<g id="node6" class="node">
<title>Node6</title>
<g id="a_node6"><a xlink:href="classv8_1_1Local.html" target="_top" xlink:title=" ">
<polygon fill="white" stroke="black" points="229,-114.5 229,-133.5 349,-133.5 349,-114.5 229,-114.5"/>
<text text-anchor="middle" x="289" y="-121.5" font-family="Helvetica,sans-Serif" font-size="10.00">v8::Local&lt; v8::Context &gt;</text>
</a>
</g>
</g>
<!-- Node1&#45;&gt;Node6 -->
<g id="edge5" class="edge">
<title>Node1&#45;&gt;Node6</title>
<path fill="none" stroke="orange" stroke-dasharray="5,2" d="M88.25,-133.04C90.86,-132.65 93.46,-132.3 96,-132 140.4,-126.75 190.92,-124.8 228.99,-124.14"/>
<polygon fill="orange" stroke="orange" points="87.43,-129.63 78.13,-134.7 88.57,-136.54 87.43,-129.63"/>
<text text-anchor="middle" x="145.5" y="-135" font-family="Helvetica,sans-Serif" font-size="10.00"> &lt; v8::Context &gt;</text>
</g>
<!-- Node7 -->
<g id="node7" class="node">
<title>Node7</title>
<g id="a_node7"><a xlink:href="classv8_1_1Local.html" target="_top" xlink:title=" ">
<polygon fill="white" stroke="black" points="213,-76.5 213,-95.5 365,-95.5 365,-76.5 213,-76.5"/>
<text text-anchor="middle" x="289" y="-83.5" font-family="Helvetica,sans-Serif" font-size="10.00">v8::Local&lt; v8::UnboundScript &gt;</text>
</a>
</g>
</g>
<!-- Node1&#45;&gt;Node7 -->
<g id="edge6" class="edge">
<title>Node1&#45;&gt;Node7</title>
<path fill="none" stroke="orange" stroke-dasharray="5,2" d="M61.52,-127.52C71.54,-121.06 83.9,-114.12 96,-110 133.2,-97.32 176.5,-91.22 212.56,-88.33"/>
<polygon fill="orange" stroke="orange" points="59.39,-124.73 53.05,-133.21 63.3,-130.54 59.39,-124.73"/>
<text text-anchor="middle" x="145.5" y="-113" font-family="Helvetica,sans-Serif" font-size="10.00"> &lt; v8::UnboundScript &gt;</text>
</g>
<!-- Node8 -->
<g id="node8" class="node">
<title>Node8</title>
<g id="a_node8"><a xlink:href="classv8_1_1Local.html" target="_top" xlink:title=" ">
<polygon fill="white" stroke="black" points="240,-38.5 240,-57.5 338,-57.5 338,-38.5 240,-38.5"/>
<text text-anchor="middle" x="289" y="-45.5" font-family="Helvetica,sans-Serif" font-size="10.00">v8::Local&lt; Name &gt;</text>
</a>
</g>
</g>
<!-- Node1&#45;&gt;Node8 -->
<g id="edge7" class="edge">
<title>Node1&#45;&gt;Node8</title>
<path fill="none" stroke="orange" stroke-dasharray="5,2" d="M50.11,-124.19C59.7,-108.31 75.67,-86.39 96,-75 140.34,-50.15 199.17,-45.22 239.97,-45.36"/>
<polygon fill="orange" stroke="orange" points="46.91,-122.74 44.97,-133.15 52.98,-126.22 46.91,-122.74"/>
<text text-anchor="middle" x="145.5" y="-78" font-family="Helvetica,sans-Serif" font-size="10.00"> &lt; Name &gt;</text>
</g>
<!-- Node9 -->
<g id="node9" class="node">
<title>Node9</title>
<g id="a_node9"><a xlink:href="classv8_1_1Local.html" target="_top" xlink:title=" ">
<polygon fill="white" stroke="black" points="240.5,-0.5 240.5,-19.5 337.5,-19.5 337.5,-0.5 240.5,-0.5"/>
<text text-anchor="middle" x="289" y="-7.5" font-family="Helvetica,sans-Serif" font-size="10.00">v8::Local&lt; Value &gt;</text>
</a>
</g>
</g>
<!-- Node1&#45;&gt;Node9 -->
<g id="edge8" class="edge">
<title>Node1&#45;&gt;Node9</title>
<path fill="none" stroke="orange" stroke-dasharray="5,2" d="M43.96,-123.22C50.21,-97.59 65,-53.61 96,-32 138.11,-2.64 198.47,-0.52 240.22,-3.56"/>
<polygon fill="orange" stroke="orange" points="40.48,-122.74 41.72,-133.27 47.31,-124.27 40.48,-122.74"/>
<text text-anchor="middle" x="145.5" y="-35" font-family="Helvetica,sans-Serif" font-size="10.00"> &lt; Value &gt;</text>
</g>
</g>
</svg>
