<?xml version="1.0" encoding="UTF-8" standalone="no"?>
<!DOCTYPE svg PUBLIC "-//W3C//DTD SVG 1.1//EN"
 "http://www.w3.org/Graphics/SVG/1.1/DTD/svg11.dtd">
<!-- Generated by graphviz version 2.44.0 ()
 -->
<!-- Title: cppgc::internal::WriteBarrier::CheckParams Pages: 1 -->
<svg width="529pt" height="210pt"
 viewBox="0.00 0.00 529.00 210.00" xmlns="http://www.w3.org/2000/svg" xmlns:xlink="http://www.w3.org/1999/xlink">
<g id="graph0" class="graph" transform="scale(1 1) rotate(0) translate(4 206)">
<title>cppgc::internal::WriteBarrier::CheckParams</title>
<polygon fill="white" stroke="transparent" points="-4,4 -4,-206 525,-206 525,4 -4,4"/>
<!-- Node1 -->
<g id="node1" class="node">
<title>Node1</title>
<g id="a_node1"><a xlink:title=" ">
<polygon fill="#bfbfbf" stroke="black" points="387,-73.5 387,-103.5 521,-103.5 521,-73.5 387,-73.5"/>
<text text-anchor="start" x="395" y="-91.5" font-family="Helvetica,sans-Serif" font-size="10.00">cppgc::internal::WriteBarrier</text>
<text text-anchor="middle" x="454" y="-80.5" font-family="Helvetica,sans-Serif" font-size="10.00">::CheckParams</text>
</a>
</g>
</g>
<!-- Node2 -->
<g id="node2" class="node">
<title>Node2</title>
<g id="a_node2"><a xlink:href="classcppgc_1_1internal_1_1WriteBarrier.html#ad8bbc0c512828b14d55c18a6735386e4" target="_top" xlink:title=" ">
<polygon fill="white" stroke="black" points="211.5,-147.5 211.5,-177.5 345.5,-177.5 345.5,-147.5 211.5,-147.5"/>
<text text-anchor="start" x="219.5" y="-165.5" font-family="Helvetica,sans-Serif" font-size="10.00">cppgc::internal::WriteBarrier</text>
<text text-anchor="middle" x="278.5" y="-154.5" font-family="Helvetica,sans-Serif" font-size="10.00">::DijkstraMarkingBarrier</text>
</a>
</g>
</g>
<!-- Node1&#45;&gt;Node2 -->
<g id="edge1" class="edge">
<title>Node1&#45;&gt;Node2</title>
<path fill="none" stroke="midnightblue" d="M415.91,-108.15C396.79,-117.9 372.95,-129.48 351,-138.5 343.37,-141.63 335.16,-144.68 327.13,-147.49"/>
<polygon fill="midnightblue" stroke="midnightblue" points="417.59,-111.22 424.88,-103.53 414.39,-105 417.59,-111.22"/>
</g>
<!-- Node5 -->
<g id="node5" class="node">
<title>Node5</title>
<g id="a_node5"><a xlink:href="classv8_1_1JSHeapConsistency.html#ad964924c09a111e9f4d72c971ea9e8bc" target="_top" xlink:title=" ">
<polygon fill="white" stroke="black" points="218.5,-98.5 218.5,-128.5 338.5,-128.5 338.5,-98.5 218.5,-98.5"/>
<text text-anchor="start" x="226.5" y="-116.5" font-family="Helvetica,sans-Serif" font-size="10.00">v8::JSHeapConsistency</text>
<text text-anchor="middle" x="278.5" y="-105.5" font-family="Helvetica,sans-Serif" font-size="10.00">::DijkstraMarkingBarrier</text>
</a>
</g>
</g>
<!-- Node1&#45;&gt;Node5 -->
<g id="edge4" class="edge">
<title>Node1&#45;&gt;Node5</title>
<path fill="none" stroke="midnightblue" d="M376.74,-99.49C363.95,-101.33 350.85,-103.22 338.58,-104.99"/>
<polygon fill="midnightblue" stroke="midnightblue" points="377.51,-102.91 386.91,-98.02 376.52,-95.98 377.51,-102.91"/>
</g>
<!-- Node6 -->
<g id="node6" class="node">
<title>Node6</title>
<g id="a_node6"><a xlink:href="classcppgc_1_1internal_1_1WriteBarrier.html#ae206b73f5d2cc97b54b877df902dd0c1" target="_top" xlink:title=" ">
<polygon fill="white" stroke="black" points="206,-49.5 206,-79.5 351,-79.5 351,-49.5 206,-49.5"/>
<text text-anchor="start" x="214" y="-67.5" font-family="Helvetica,sans-Serif" font-size="10.00">cppgc::internal::WriteBarrier</text>
<text text-anchor="middle" x="278.5" y="-56.5" font-family="Helvetica,sans-Serif" font-size="10.00">::DijkstraMarkingBarrierRange</text>
</a>
</g>
</g>
<!-- Node1&#45;&gt;Node6 -->
<g id="edge5" class="edge">
<title>Node1&#45;&gt;Node6</title>
<path fill="none" stroke="midnightblue" d="M376.95,-77.98C368.39,-76.8 359.69,-75.59 351.19,-74.42"/>
<polygon fill="midnightblue" stroke="midnightblue" points="376.53,-81.45 386.91,-79.36 377.49,-74.52 376.53,-81.45"/>
</g>
<!-- Node8 -->
<g id="node8" class="node">
<title>Node8</title>
<g id="a_node8"><a xlink:href="classcppgc_1_1internal_1_1WriteBarrier.html#ad829efae0eddd5cb9483574112a5da5b" target="_top" xlink:title=" ">
<polygon fill="white" stroke="black" points="211.5,-0.5 211.5,-30.5 345.5,-30.5 345.5,-0.5 211.5,-0.5"/>
<text text-anchor="start" x="219.5" y="-18.5" font-family="Helvetica,sans-Serif" font-size="10.00">cppgc::internal::WriteBarrier</text>
<text text-anchor="middle" x="278.5" y="-7.5" font-family="Helvetica,sans-Serif" font-size="10.00">::SteeleMarkingBarrier</text>
</a>
</g>
</g>
<!-- Node1&#45;&gt;Node8 -->
<g id="edge7" class="edge">
<title>Node1&#45;&gt;Node8</title>
<path fill="none" stroke="midnightblue" d="M413.87,-68.92C395.06,-59.82 372.08,-49.12 351,-40.5 342.6,-37.07 333.54,-33.67 324.77,-30.53"/>
<polygon fill="midnightblue" stroke="midnightblue" points="412.49,-72.15 423.02,-73.39 415.56,-65.86 412.49,-72.15"/>
</g>
<!-- Node3 -->
<g id="node3" class="node">
<title>Node3</title>
<g id="a_node3"><a xlink:href="structcppgc_1_1internal_1_1DijkstraWriteBarrierPolicy.html#ae117911156c06e2ec91d322320399ffd" target="_top" xlink:title=" ">
<polygon fill="white" stroke="black" points="0,-171.5 0,-201.5 170,-201.5 170,-171.5 0,-171.5"/>
<text text-anchor="start" x="8" y="-189.5" font-family="Helvetica,sans-Serif" font-size="10.00">cppgc::internal::Dijkstra</text>
<text text-anchor="middle" x="85" y="-178.5" font-family="Helvetica,sans-Serif" font-size="10.00">WriteBarrierPolicy::AssigningBarrier</text>
</a>
</g>
</g>
<!-- Node2&#45;&gt;Node3 -->
<g id="edge2" class="edge">
<title>Node2&#45;&gt;Node3</title>
<path fill="none" stroke="midnightblue" d="M201.22,-172.06C190.98,-173.34 180.44,-174.66 170.08,-175.96"/>
<polygon fill="midnightblue" stroke="midnightblue" points="201.84,-175.51 211.33,-170.79 200.97,-168.56 201.84,-175.51"/>
</g>
<!-- Node4 -->
<g id="node4" class="node">
<title>Node4</title>
<g id="a_node4"><a xlink:href="classcppgc_1_1subtle_1_1HeapConsistency.html#add539377031d7bab7f9f29f3667bfc57" target="_top" xlink:title=" ">
<polygon fill="white" stroke="black" points="7.5,-122.5 7.5,-152.5 162.5,-152.5 162.5,-122.5 7.5,-122.5"/>
<text text-anchor="start" x="15.5" y="-140.5" font-family="Helvetica,sans-Serif" font-size="10.00">cppgc::subtle::HeapConsistency</text>
<text text-anchor="middle" x="85" y="-129.5" font-family="Helvetica,sans-Serif" font-size="10.00">::DijkstraWriteBarrier</text>
</a>
</g>
</g>
<!-- Node2&#45;&gt;Node4 -->
<g id="edge3" class="edge">
<title>Node2&#45;&gt;Node4</title>
<path fill="none" stroke="midnightblue" d="M201.27,-152.55C188.58,-150.89 175.41,-149.17 162.7,-147.51"/>
<polygon fill="midnightblue" stroke="midnightblue" points="200.96,-156.04 211.33,-153.86 201.87,-149.1 200.96,-156.04"/>
</g>
<!-- Node7 -->
<g id="node7" class="node">
<title>Node7</title>
<g id="a_node7"><a xlink:href="classcppgc_1_1subtle_1_1HeapConsistency.html#aaaa4e0da023870994c966f5e3a278d06" target="_top" xlink:title=" ">
<polygon fill="white" stroke="black" points="7.5,-49.5 7.5,-79.5 162.5,-79.5 162.5,-49.5 7.5,-49.5"/>
<text text-anchor="start" x="15.5" y="-67.5" font-family="Helvetica,sans-Serif" font-size="10.00">cppgc::subtle::HeapConsistency</text>
<text text-anchor="middle" x="85" y="-56.5" font-family="Helvetica,sans-Serif" font-size="10.00">::DijkstraWriteBarrierRange</text>
</a>
</g>
</g>
<!-- Node6&#45;&gt;Node7 -->
<g id="edge6" class="edge">
<title>Node6&#45;&gt;Node7</title>
<path fill="none" stroke="midnightblue" d="M195.88,-64.5C184.85,-64.5 173.56,-64.5 162.62,-64.5"/>
<polygon fill="midnightblue" stroke="midnightblue" points="195.92,-68 205.92,-64.5 195.92,-61 195.92,-68"/>
</g>
<!-- Node9 -->
<g id="node9" class="node">
<title>Node9</title>
<g id="a_node9"><a xlink:href="classcppgc_1_1subtle_1_1HeapConsistency.html#af93d2b3219e211e78bd1ea7eefb02f99" target="_top" xlink:title=" ">
<polygon fill="white" stroke="black" points="7.5,-0.5 7.5,-30.5 162.5,-30.5 162.5,-0.5 7.5,-0.5"/>
<text text-anchor="start" x="15.5" y="-18.5" font-family="Helvetica,sans-Serif" font-size="10.00">cppgc::subtle::HeapConsistency</text>
<text text-anchor="middle" x="85" y="-7.5" font-family="Helvetica,sans-Serif" font-size="10.00">::SteeleWriteBarrier</text>
</a>
</g>
</g>
<!-- Node8&#45;&gt;Node9 -->
<g id="edge8" class="edge">
<title>Node8&#45;&gt;Node9</title>
<path fill="none" stroke="midnightblue" d="M201.27,-15.5C188.58,-15.5 175.41,-15.5 162.7,-15.5"/>
<polygon fill="midnightblue" stroke="midnightblue" points="201.33,-19 211.33,-15.5 201.33,-12 201.33,-19"/>
</g>
</g>
</svg>
