<?xml version="1.0" encoding="UTF-8" standalone="no"?>
<!DOCTYPE svg PUBLIC "-//W3C//DTD SVG 1.1//EN"
 "http://www.w3.org/Graphics/SVG/1.1/DTD/svg11.dtd">
<!-- Generated by graphviz version 2.44.0 ()
 -->
<!-- Title: v8::Data Pages: 1 -->
<svg width="777pt" height="864pt"
 viewBox="0.00 0.00 777.00 864.00" xmlns="http://www.w3.org/2000/svg" xmlns:xlink="http://www.w3.org/1999/xlink">
<g id="graph0" class="graph" transform="scale(1 1) rotate(0) translate(4 860)">
<title>v8::Data</title>
<polygon fill="white" stroke="transparent" points="-4,4 -4,-860 773,-860 773,4 -4,4"/>
<!-- Node1 -->
<g id="node1" class="node">
<title>Node1</title>
<g id="a_node1"><a xlink:title=" ">
<polygon fill="#bfbfbf" stroke="black" points="0,-627.5 0,-646.5 52,-646.5 52,-627.5 0,-627.5"/>
<text text-anchor="middle" x="26" y="-634.5" font-family="Helvetica,sans-Serif" font-size="10.00">v8::Data</text>
</a>
</g>
</g>
<!-- Node2 -->
<g id="node2" class="node">
<title>Node2</title>
<g id="a_node2"><a xlink:href="classv8_1_1AccessorSignature.html" target="_top" xlink:title=" ">
<polygon fill="white" stroke="black" points="95,-779.5 95,-798.5 209,-798.5 209,-779.5 95,-779.5"/>
<text text-anchor="middle" x="152" y="-786.5" font-family="Helvetica,sans-Serif" font-size="10.00">v8::AccessorSignature</text>
</a>
</g>
</g>
<!-- Node1&#45;&gt;Node2 -->
<g id="edge1" class="edge">
<title>Node1&#45;&gt;Node2</title>
<path fill="none" stroke="midnightblue" d="M30.72,-656.79C37.2,-685.83 53.34,-739.79 88,-770 92.48,-773.9 97.74,-777 103.27,-779.47"/>
<polygon fill="midnightblue" stroke="midnightblue" points="34.07,-655.74 28.62,-646.66 27.22,-657.16 34.07,-655.74"/>
</g>
<!-- Node3 -->
<g id="node3" class="node">
<title>Node3</title>
<g id="a_node3"><a xlink:href="classv8_1_1FixedArray.html" target="_top" xlink:title=" ">
<polygon fill="white" stroke="black" points="113.5,-741.5 113.5,-760.5 190.5,-760.5 190.5,-741.5 113.5,-741.5"/>
<text text-anchor="middle" x="152" y="-748.5" font-family="Helvetica,sans-Serif" font-size="10.00">v8::FixedArray</text>
</a>
</g>
</g>
<!-- Node1&#45;&gt;Node3 -->
<g id="edge2" class="edge">
<title>Node1&#45;&gt;Node3</title>
<path fill="none" stroke="midnightblue" d="M34.42,-656.09C43.75,-677.62 61.78,-712.21 88,-732 95.39,-737.57 104.41,-741.52 113.29,-744.32"/>
<polygon fill="midnightblue" stroke="midnightblue" points="37.59,-654.6 30.54,-646.69 31.12,-657.27 37.59,-654.6"/>
</g>
<!-- Node4 -->
<g id="node4" class="node">
<title>Node4</title>
<g id="a_node4"><a xlink:href="classv8_1_1Module.html" target="_top" xlink:title=" ">
<polygon fill="white" stroke="black" points="120.5,-703.5 120.5,-722.5 183.5,-722.5 183.5,-703.5 120.5,-703.5"/>
<text text-anchor="middle" x="152" y="-710.5" font-family="Helvetica,sans-Serif" font-size="10.00">v8::Module</text>
</a>
</g>
</g>
<!-- Node1&#45;&gt;Node4 -->
<g id="edge3" class="edge">
<title>Node1&#45;&gt;Node4</title>
<path fill="none" stroke="midnightblue" d="M41.73,-654.54C53.17,-667.15 70.07,-683.68 88,-694 97.9,-699.7 109.68,-703.84 120.36,-706.78"/>
<polygon fill="midnightblue" stroke="midnightblue" points="44.27,-652.13 35.04,-646.93 39.01,-656.75 44.27,-652.13"/>
</g>
<!-- Node5 -->
<g id="node5" class="node">
<title>Node5</title>
<g id="a_node5"><a xlink:href="classv8_1_1ModuleRequest.html" target="_top" xlink:title=" ">
<polygon fill="white" stroke="black" points="102.5,-665.5 102.5,-684.5 201.5,-684.5 201.5,-665.5 102.5,-665.5"/>
<text text-anchor="middle" x="152" y="-672.5" font-family="Helvetica,sans-Serif" font-size="10.00">v8::ModuleRequest</text>
</a>
</g>
</g>
<!-- Node1&#45;&gt;Node5 -->
<g id="edge4" class="edge">
<title>Node1&#45;&gt;Node5</title>
<path fill="none" stroke="midnightblue" d="M61.89,-647.93C70.43,-650.58 79.54,-653.41 88,-656 98.16,-659.11 109.25,-662.47 119.26,-665.49"/>
<polygon fill="midnightblue" stroke="midnightblue" points="62.8,-644.54 52.21,-644.91 60.72,-651.23 62.8,-644.54"/>
</g>
<!-- Node6 -->
<g id="node6" class="node">
<title>Node6</title>
<g id="a_node6"><a xlink:href="classv8_1_1Private.html" target="_top" xlink:title=" ">
<polygon fill="white" stroke="black" points="121,-627.5 121,-646.5 183,-646.5 183,-627.5 121,-627.5"/>
<text text-anchor="middle" x="152" y="-634.5" font-family="Helvetica,sans-Serif" font-size="10.00">v8::Private</text>
</a>
</g>
</g>
<!-- Node1&#45;&gt;Node6 -->
<g id="edge5" class="edge">
<title>Node1&#45;&gt;Node6</title>
<path fill="none" stroke="midnightblue" d="M62.16,-637C80.62,-637 103,-637 120.69,-637"/>
<polygon fill="midnightblue" stroke="midnightblue" points="62.09,-633.5 52.09,-637 62.09,-640.5 62.09,-633.5"/>
</g>
<!-- Node7 -->
<g id="node7" class="node">
<title>Node7</title>
<g id="a_node7"><a xlink:href="classv8_1_1Signature.html" target="_top" xlink:title=" ">
<polygon fill="white" stroke="black" points="115.5,-589.5 115.5,-608.5 188.5,-608.5 188.5,-589.5 115.5,-589.5"/>
<text text-anchor="middle" x="152" y="-596.5" font-family="Helvetica,sans-Serif" font-size="10.00">v8::Signature</text>
</a>
</g>
</g>
<!-- Node1&#45;&gt;Node7 -->
<g id="edge6" class="edge">
<title>Node1&#45;&gt;Node7</title>
<path fill="none" stroke="midnightblue" d="M61.89,-626.07C70.43,-623.42 79.54,-620.59 88,-618 98.16,-614.89 109.25,-611.53 119.26,-608.51"/>
<polygon fill="midnightblue" stroke="midnightblue" points="60.72,-622.77 52.21,-629.09 62.8,-629.46 60.72,-622.77"/>
</g>
<!-- Node8 -->
<g id="node8" class="node">
<title>Node8</title>
<g id="a_node8"><a xlink:href="classv8_1_1Template.html" target="_top" xlink:title=" ">
<polygon fill="white" stroke="black" points="116,-551.5 116,-570.5 188,-570.5 188,-551.5 116,-551.5"/>
<text text-anchor="middle" x="152" y="-558.5" font-family="Helvetica,sans-Serif" font-size="10.00">v8::Template</text>
</a>
</g>
</g>
<!-- Node1&#45;&gt;Node8 -->
<g id="edge7" class="edge">
<title>Node1&#45;&gt;Node8</title>
<path fill="none" stroke="midnightblue" d="M41.73,-619.46C53.17,-606.85 70.07,-590.32 88,-580 96.52,-575.1 106.42,-571.35 115.82,-568.52"/>
<polygon fill="midnightblue" stroke="midnightblue" points="39.01,-617.25 35.04,-627.07 44.27,-621.87 39.01,-617.25"/>
</g>
<!-- Node11 -->
<g id="node11" class="node">
<title>Node11</title>
<g id="a_node11"><a xlink:href="classv8_1_1UnboundModuleScript.html" target="_top" xlink:title=" ">
<polygon fill="white" stroke="black" points="88,-513.5 88,-532.5 216,-532.5 216,-513.5 88,-513.5"/>
<text text-anchor="middle" x="152" y="-520.5" font-family="Helvetica,sans-Serif" font-size="10.00">v8::UnboundModuleScript</text>
</a>
</g>
</g>
<!-- Node1&#45;&gt;Node11 -->
<g id="edge10" class="edge">
<title>Node1&#45;&gt;Node11</title>
<path fill="none" stroke="midnightblue" d="M34.42,-617.91C43.75,-596.38 61.78,-561.79 88,-542 93.11,-538.15 98.99,-535.07 105.08,-532.61"/>
<polygon fill="midnightblue" stroke="midnightblue" points="31.12,-616.73 30.54,-627.31 37.59,-619.4 31.12,-616.73"/>
</g>
<!-- Node12 -->
<g id="node12" class="node">
<title>Node12</title>
<g id="a_node12"><a xlink:href="classv8_1_1Value.html" target="_top" xlink:title=" ">
<polygon fill="white" stroke="black" points="124,-475.5 124,-494.5 180,-494.5 180,-475.5 124,-475.5"/>
<text text-anchor="middle" x="152" y="-482.5" font-family="Helvetica,sans-Serif" font-size="10.00">v8::Value</text>
</a>
</g>
</g>
<!-- Node1&#45;&gt;Node12 -->
<g id="edge11" class="edge">
<title>Node1&#45;&gt;Node12</title>
<path fill="none" stroke="midnightblue" d="M30.72,-617.21C37.2,-588.17 53.34,-534.21 88,-504 97.9,-495.37 111.62,-490.66 123.73,-488.09"/>
<polygon fill="midnightblue" stroke="midnightblue" points="27.22,-616.84 28.62,-627.34 34.07,-618.26 27.22,-616.84"/>
</g>
<!-- Node9 -->
<g id="node9" class="node">
<title>Node9</title>
<g id="a_node9"><a xlink:href="classv8_1_1FunctionTemplate.html" target="_top" xlink:title=" ">
<polygon fill="white" stroke="black" points="252,-589.5 252,-608.5 362,-608.5 362,-589.5 252,-589.5"/>
<text text-anchor="middle" x="307" y="-596.5" font-family="Helvetica,sans-Serif" font-size="10.00">v8::FunctionTemplate</text>
</a>
</g>
</g>
<!-- Node8&#45;&gt;Node9 -->
<g id="edge8" class="edge">
<title>Node8&#45;&gt;Node9</title>
<path fill="none" stroke="midnightblue" d="M197.93,-572.16C220.04,-577.65 246.41,-584.2 267.57,-589.46"/>
<polygon fill="midnightblue" stroke="midnightblue" points="198.65,-568.73 188.1,-569.72 196.96,-575.53 198.65,-568.73"/>
</g>
<!-- Node10 -->
<g id="node10" class="node">
<title>Node10</title>
<g id="a_node10"><a xlink:href="classv8_1_1ObjectTemplate.html" target="_top" xlink:title=" ">
<polygon fill="white" stroke="black" points="256.5,-551.5 256.5,-570.5 357.5,-570.5 357.5,-551.5 256.5,-551.5"/>
<text text-anchor="middle" x="307" y="-558.5" font-family="Helvetica,sans-Serif" font-size="10.00">v8::ObjectTemplate</text>
</a>
</g>
</g>
<!-- Node8&#45;&gt;Node10 -->
<g id="edge9" class="edge">
<title>Node8&#45;&gt;Node10</title>
<path fill="none" stroke="midnightblue" d="M198.2,-561C216.45,-561 237.59,-561 256.28,-561"/>
<polygon fill="midnightblue" stroke="midnightblue" points="198.1,-557.5 188.1,-561 198.1,-564.5 198.1,-557.5"/>
</g>
<!-- Node13 -->
<g id="node13" class="node">
<title>Node13</title>
<g id="a_node13"><a xlink:href="classv8_1_1External.html" target="_top" xlink:title=" ">
<polygon fill="white" stroke="black" points="274,-513.5 274,-532.5 340,-532.5 340,-513.5 274,-513.5"/>
<text text-anchor="middle" x="307" y="-520.5" font-family="Helvetica,sans-Serif" font-size="10.00">v8::External</text>
</a>
</g>
</g>
<!-- Node12&#45;&gt;Node13 -->
<g id="edge12" class="edge">
<title>Node12&#45;&gt;Node13</title>
<path fill="none" stroke="midnightblue" d="M189.75,-494.13C215.43,-500.51 249.39,-508.94 273.97,-515.05"/>
<polygon fill="midnightblue" stroke="midnightblue" points="190.55,-490.72 180,-491.71 188.86,-497.51 190.55,-490.72"/>
</g>
<!-- Node14 -->
<g id="node14" class="node">
<title>Node14</title>
<g id="a_node14"><a xlink:href="classv8_1_1Object.html" target="_top" xlink:title=" ">
<polygon fill="white" stroke="black" points="277,-475.5 277,-494.5 337,-494.5 337,-475.5 277,-475.5"/>
<text text-anchor="middle" x="307" y="-482.5" font-family="Helvetica,sans-Serif" font-size="10.00">v8::Object</text>
</a>
</g>
</g>
<!-- Node12&#45;&gt;Node14 -->
<g id="edge13" class="edge">
<title>Node12&#45;&gt;Node14</title>
<path fill="none" stroke="midnightblue" d="M190.12,-485C216.81,-485 252.29,-485 276.93,-485"/>
<polygon fill="midnightblue" stroke="midnightblue" points="190,-481.5 180,-485 190,-488.5 190,-481.5"/>
</g>
<!-- Node47 -->
<g id="node42" class="node">
<title>Node47</title>
<g id="a_node42"><a xlink:href="classv8_1_1Primitive.html" target="_top" xlink:title=" ">
<polygon fill="white" stroke="black" points="272,-76.5 272,-95.5 342,-95.5 342,-76.5 272,-76.5"/>
<text text-anchor="middle" x="307" y="-83.5" font-family="Helvetica,sans-Serif" font-size="10.00">v8::Primitive</text>
</a>
</g>
</g>
<!-- Node12&#45;&gt;Node47 -->
<g id="edge41" class="edge">
<title>Node12&#45;&gt;Node47</title>
<path fill="none" stroke="midnightblue" d="M160.45,-465.56C187.87,-394.07 282.55,-147.17 302.35,-95.52"/>
<polygon fill="midnightblue" stroke="midnightblue" points="157.09,-464.55 156.78,-475.14 163.63,-467.05 157.09,-464.55"/>
</g>
<!-- Node15 -->
<g id="node15" class="node">
<title>Node15</title>
<g id="a_node15"><a xlink:href="classv8_1_1Array.html" target="_top" xlink:title=" ">
<polygon fill="white" stroke="black" points="432,-836.5 432,-855.5 486,-855.5 486,-836.5 432,-836.5"/>
<text text-anchor="middle" x="459" y="-843.5" font-family="Helvetica,sans-Serif" font-size="10.00">v8::Array</text>
</a>
</g>
</g>
<!-- Node14&#45;&gt;Node15 -->
<g id="edge14" class="edge">
<title>Node14&#45;&gt;Node15</title>
<path fill="none" stroke="midnightblue" d="M346.62,-492.51C352.52,-495.23 357.98,-498.95 362,-504 451.89,-617.06 306.33,-715.37 398,-827 406.25,-837.05 419.8,-841.86 431.93,-844.13"/>
<polygon fill="midnightblue" stroke="midnightblue" points="347.7,-489.18 337.11,-488.98 345.27,-495.74 347.7,-489.18"/>
</g>
<!-- Node16 -->
<g id="node16" class="node">
<title>Node16</title>
<g id="a_node16"><a xlink:href="classv8_1_1ArrayBuffer.html" target="_top" xlink:title=" ">
<polygon fill="white" stroke="black" points="419,-798.5 419,-817.5 499,-817.5 499,-798.5 419,-798.5"/>
<text text-anchor="middle" x="459" y="-805.5" font-family="Helvetica,sans-Serif" font-size="10.00">v8::ArrayBuffer</text>
</a>
</g>
</g>
<!-- Node14&#45;&gt;Node16 -->
<g id="edge15" class="edge">
<title>Node14&#45;&gt;Node16</title>
<path fill="none" stroke="midnightblue" d="M346.56,-492.56C352.47,-495.28 357.94,-498.98 362,-504 442.19,-603.35 316.25,-690.93 398,-789 403.39,-795.46 410.96,-799.76 418.92,-802.6"/>
<polygon fill="midnightblue" stroke="midnightblue" points="347.64,-489.23 337.05,-489.03 345.21,-495.79 347.64,-489.23"/>
</g>
<!-- Node17 -->
<g id="node17" class="node">
<title>Node17</title>
<g id="a_node17"><a xlink:href="classv8_1_1ArrayBufferView.html" target="_top" xlink:title=" ">
<polygon fill="white" stroke="black" points="408.5,-760.5 408.5,-779.5 509.5,-779.5 509.5,-760.5 408.5,-760.5"/>
<text text-anchor="middle" x="459" y="-767.5" font-family="Helvetica,sans-Serif" font-size="10.00">v8::ArrayBufferView</text>
</a>
</g>
</g>
<!-- Node14&#45;&gt;Node17 -->
<g id="edge16" class="edge">
<title>Node14&#45;&gt;Node17</title>
<path fill="none" stroke="midnightblue" d="M346.66,-492.7C352.51,-495.41 357.94,-499.06 362,-504 432.5,-589.66 326.16,-666.47 398,-751 401.25,-754.83 405.28,-757.9 409.69,-760.35"/>
<polygon fill="midnightblue" stroke="midnightblue" points="347.84,-489.41 337.25,-489.18 345.39,-495.97 347.84,-489.41"/>
</g>
<!-- Node31 -->
<g id="node26" class="node">
<title>Node31</title>
<g id="a_node26"><a xlink:href="classv8_1_1BigIntObject.html" target="_top" xlink:title=" ">
<polygon fill="white" stroke="black" points="416,-722.5 416,-741.5 502,-741.5 502,-722.5 416,-722.5"/>
<text text-anchor="middle" x="459" y="-729.5" font-family="Helvetica,sans-Serif" font-size="10.00">v8::BigIntObject</text>
</a>
</g>
</g>
<!-- Node14&#45;&gt;Node31 -->
<g id="edge25" class="edge">
<title>Node14&#45;&gt;Node31</title>
<path fill="none" stroke="midnightblue" d="M346.55,-492.79C352.41,-495.49 357.87,-499.12 362,-504 422.83,-576 336.04,-641.97 398,-713 402.74,-718.43 409.03,-722.33 415.74,-725.12"/>
<polygon fill="midnightblue" stroke="midnightblue" points="347.73,-489.5 337.14,-489.28 345.28,-496.05 347.73,-489.5"/>
</g>
<!-- Node32 -->
<g id="node27" class="node">
<title>Node32</title>
<g id="a_node27"><a xlink:href="classv8_1_1BooleanObject.html" target="_top" xlink:title=" ">
<polygon fill="white" stroke="black" points="411.5,-684.5 411.5,-703.5 506.5,-703.5 506.5,-684.5 411.5,-684.5"/>
<text text-anchor="middle" x="459" y="-691.5" font-family="Helvetica,sans-Serif" font-size="10.00">v8::BooleanObject</text>
</a>
</g>
</g>
<!-- Node14&#45;&gt;Node32 -->
<g id="edge26" class="edge">
<title>Node14&#45;&gt;Node32</title>
<path fill="none" stroke="midnightblue" d="M346.99,-493.2C352.65,-495.85 357.93,-499.36 362,-504 413.21,-562.39 345.87,-617.43 398,-675 401.74,-679.13 406.37,-682.37 411.39,-684.91"/>
<polygon fill="midnightblue" stroke="midnightblue" points="347.85,-489.78 337.26,-489.5 345.36,-496.32 347.85,-489.78"/>
</g>
<!-- Node33 -->
<g id="node28" class="node">
<title>Node33</title>
<g id="a_node28"><a xlink:href="classv8_1_1Date.html" target="_top" xlink:title=" ">
<polygon fill="white" stroke="black" points="433,-646.5 433,-665.5 485,-665.5 485,-646.5 433,-646.5"/>
<text text-anchor="middle" x="459" y="-653.5" font-family="Helvetica,sans-Serif" font-size="10.00">v8::Date</text>
</a>
</g>
</g>
<!-- Node14&#45;&gt;Node33 -->
<g id="edge27" class="edge">
<title>Node14&#45;&gt;Node33</title>
<path fill="none" stroke="midnightblue" d="M346.77,-493.4C352.45,-496.03 357.8,-499.47 362,-504 403.67,-548.87 355.62,-592.79 398,-637 407.07,-646.47 420.82,-651.23 432.87,-653.62"/>
<polygon fill="midnightblue" stroke="midnightblue" points="347.62,-489.98 337.03,-489.71 345.14,-496.52 347.62,-489.98"/>
</g>
<!-- Node34 -->
<g id="node29" class="node">
<title>Node34</title>
<g id="a_node29"><a xlink:href="classv8_1_1Function.html" target="_top" xlink:title=" ">
<polygon fill="white" stroke="black" points="424.5,-608.5 424.5,-627.5 493.5,-627.5 493.5,-608.5 424.5,-608.5"/>
<text text-anchor="middle" x="459" y="-615.5" font-family="Helvetica,sans-Serif" font-size="10.00">v8::Function</text>
</a>
</g>
</g>
<!-- Node14&#45;&gt;Node34 -->
<g id="edge28" class="edge">
<title>Node14&#45;&gt;Node34</title>
<path fill="none" stroke="midnightblue" d="M346.75,-493.92C352.35,-496.48 357.67,-499.77 362,-504 394.31,-535.54 365.2,-567.97 398,-599 405.22,-605.83 414.89,-610.21 424.36,-613.01"/>
<polygon fill="midnightblue" stroke="midnightblue" points="347.78,-490.57 337.19,-490.27 345.28,-497.11 347.78,-490.57"/>
</g>
<!-- Node35 -->
<g id="node30" class="node">
<title>Node35</title>
<g id="a_node30"><a xlink:href="classv8_1_1Map.html" target="_top" xlink:title=" ">
<polygon fill="white" stroke="black" points="434,-570.5 434,-589.5 484,-589.5 484,-570.5 434,-570.5"/>
<text text-anchor="middle" x="459" y="-577.5" font-family="Helvetica,sans-Serif" font-size="10.00">v8::Map</text>
</a>
</g>
</g>
<!-- Node14&#45;&gt;Node35 -->
<g id="edge29" class="edge">
<title>Node14&#45;&gt;Node35</title>
<path fill="none" stroke="midnightblue" d="M346.41,-494.87C351.97,-497.31 357.37,-500.31 362,-504 385.43,-522.67 374.28,-542.7 398,-561 408.38,-569.01 422.21,-573.68 433.98,-576.39"/>
<polygon fill="midnightblue" stroke="midnightblue" points="347.6,-491.58 337.01,-491.29 345.11,-498.12 347.6,-491.58"/>
</g>
<!-- Node36 -->
<g id="node31" class="node">
<title>Node36</title>
<g id="a_node31"><a xlink:href="classv8_1_1NumberObject.html" target="_top" xlink:title=" ">
<polygon fill="white" stroke="black" points="411.5,-532.5 411.5,-551.5 506.5,-551.5 506.5,-532.5 411.5,-532.5"/>
<text text-anchor="middle" x="459" y="-539.5" font-family="Helvetica,sans-Serif" font-size="10.00">v8::NumberObject</text>
</a>
</g>
</g>
<!-- Node14&#45;&gt;Node36 -->
<g id="edge30" class="edge">
<title>Node14&#45;&gt;Node36</title>
<path fill="none" stroke="midnightblue" d="M346.91,-497.91C352.03,-499.84 357.17,-501.89 362,-504 378.58,-511.24 381.31,-516.02 398,-523 406.37,-526.5 415.62,-529.73 424.29,-532.49"/>
<polygon fill="midnightblue" stroke="midnightblue" points="347.76,-494.5 337.17,-494.38 345.38,-501.08 347.76,-494.5"/>
</g>
<!-- Node37 -->
<g id="node32" class="node">
<title>Node37</title>
<g id="a_node32"><a xlink:href="classv8_1_1Promise.html" target="_top" xlink:title=" ">
<polygon fill="white" stroke="black" points="425,-494.5 425,-513.5 493,-513.5 493,-494.5 425,-494.5"/>
<text text-anchor="middle" x="459" y="-501.5" font-family="Helvetica,sans-Serif" font-size="10.00">v8::Promise</text>
</a>
</g>
</g>
<!-- Node14&#45;&gt;Node37 -->
<g id="edge31" class="edge">
<title>Node14&#45;&gt;Node37</title>
<path fill="none" stroke="midnightblue" d="M347.51,-490C371.61,-493.06 402.05,-496.91 424.88,-499.8"/>
<polygon fill="midnightblue" stroke="midnightblue" points="347.64,-486.49 337.28,-488.71 346.76,-493.44 347.64,-486.49"/>
</g>
<!-- Node38 -->
<g id="node33" class="node">
<title>Node38</title>
<g id="a_node33"><a xlink:href="classv8_1_1Promise_1_1Resolver.html" target="_top" xlink:title=" ">
<polygon fill="white" stroke="black" points="404,-456.5 404,-475.5 514,-475.5 514,-456.5 404,-456.5"/>
<text text-anchor="middle" x="459" y="-463.5" font-family="Helvetica,sans-Serif" font-size="10.00">v8::Promise::Resolver</text>
</a>
</g>
</g>
<!-- Node14&#45;&gt;Node38 -->
<g id="edge32" class="edge">
<title>Node14&#45;&gt;Node38</title>
<path fill="none" stroke="midnightblue" d="M347.55,-479.99C364.79,-477.81 385.28,-475.21 403.9,-472.85"/>
<polygon fill="midnightblue" stroke="midnightblue" points="346.76,-476.56 337.28,-481.29 347.64,-483.51 346.76,-476.56"/>
</g>
<!-- Node39 -->
<g id="node34" class="node">
<title>Node39</title>
<g id="a_node34"><a xlink:href="classv8_1_1Proxy.html" target="_top" xlink:title=" ">
<polygon fill="white" stroke="black" points="431,-418.5 431,-437.5 487,-437.5 487,-418.5 431,-418.5"/>
<text text-anchor="middle" x="459" y="-425.5" font-family="Helvetica,sans-Serif" font-size="10.00">v8::Proxy</text>
</a>
</g>
</g>
<!-- Node14&#45;&gt;Node39 -->
<g id="edge33" class="edge">
<title>Node14&#45;&gt;Node39</title>
<path fill="none" stroke="midnightblue" d="M338.79,-471.16C356.05,-463.62 378.04,-454.35 398,-447 408.66,-443.07 420.56,-439.2 430.94,-435.98"/>
<polygon fill="midnightblue" stroke="midnightblue" points="336.97,-468.14 329.23,-475.38 339.8,-474.54 336.97,-468.14"/>
</g>
<!-- Node40 -->
<g id="node35" class="node">
<title>Node40</title>
<g id="a_node35"><a xlink:href="classv8_1_1RegExp.html" target="_top" xlink:title=" ">
<polygon fill="white" stroke="black" points="426.5,-380.5 426.5,-399.5 491.5,-399.5 491.5,-380.5 426.5,-380.5"/>
<text text-anchor="middle" x="459" y="-387.5" font-family="Helvetica,sans-Serif" font-size="10.00">v8::RegExp</text>
</a>
</g>
</g>
<!-- Node14&#45;&gt;Node40 -->
<g id="edge34" class="edge">
<title>Node14&#45;&gt;Node40</title>
<path fill="none" stroke="midnightblue" d="M324.17,-467.84C341.11,-450.76 369.22,-424.87 398,-409 406.71,-404.2 416.81,-400.41 426.21,-397.52"/>
<polygon fill="midnightblue" stroke="midnightblue" points="321.25,-465.83 316.79,-475.44 326.27,-470.7 321.25,-465.83"/>
</g>
<!-- Node41 -->
<g id="node36" class="node">
<title>Node41</title>
<g id="a_node36"><a xlink:href="classv8_1_1Set.html" target="_top" xlink:title=" ">
<polygon fill="white" stroke="black" points="435.5,-342.5 435.5,-361.5 482.5,-361.5 482.5,-342.5 435.5,-342.5"/>
<text text-anchor="middle" x="459" y="-349.5" font-family="Helvetica,sans-Serif" font-size="10.00">v8::Set</text>
</a>
</g>
</g>
<!-- Node14&#45;&gt;Node41 -->
<g id="edge35" class="edge">
<title>Node14&#45;&gt;Node41</title>
<path fill="none" stroke="midnightblue" d="M317.82,-466.57C332.17,-441.38 361.19,-396.43 398,-371 409.15,-363.3 423.57,-358.6 435.49,-355.8"/>
<polygon fill="midnightblue" stroke="midnightblue" points="314.68,-465.02 312.9,-475.46 320.81,-468.41 314.68,-465.02"/>
</g>
<!-- Node42 -->
<g id="node37" class="node">
<title>Node42</title>
<g id="a_node37"><a xlink:href="classv8_1_1SharedArrayBuffer.html" target="_top" xlink:title=" ">
<polygon fill="white" stroke="black" points="404,-304.5 404,-323.5 514,-323.5 514,-304.5 404,-304.5"/>
<text text-anchor="middle" x="459" y="-311.5" font-family="Helvetica,sans-Serif" font-size="10.00">v8::SharedArrayBuffer</text>
</a>
</g>
</g>
<!-- Node14&#45;&gt;Node42 -->
<g id="edge36" class="edge">
<title>Node14&#45;&gt;Node42</title>
<path fill="none" stroke="midnightblue" d="M314.33,-465.54C325.81,-433.25 353.13,-368.65 398,-333 402.88,-329.13 408.56,-326.03 414.44,-323.57"/>
<polygon fill="midnightblue" stroke="midnightblue" points="310.96,-464.56 311.04,-475.16 317.59,-466.83 310.96,-464.56"/>
</g>
<!-- Node43 -->
<g id="node38" class="node">
<title>Node43</title>
<g id="a_node38"><a xlink:href="classv8_1_1StringObject.html" target="_top" xlink:title=" ">
<polygon fill="white" stroke="black" points="416,-266.5 416,-285.5 502,-285.5 502,-266.5 416,-266.5"/>
<text text-anchor="middle" x="459" y="-273.5" font-family="Helvetica,sans-Serif" font-size="10.00">v8::StringObject</text>
</a>
</g>
</g>
<!-- Node14&#45;&gt;Node43 -->
<g id="edge37" class="edge">
<title>Node14&#45;&gt;Node43</title>
<path fill="none" stroke="midnightblue" d="M311.79,-465.62C320.28,-427.34 344.44,-341.75 398,-295 403.19,-290.47 409.45,-287.02 415.96,-284.4"/>
<polygon fill="midnightblue" stroke="midnightblue" points="308.35,-464.98 309.72,-475.48 315.2,-466.41 308.35,-464.98"/>
</g>
<!-- Node44 -->
<g id="node39" class="node">
<title>Node44</title>
<g id="a_node39"><a xlink:href="classv8_1_1SymbolObject.html" target="_top" xlink:title=" ">
<polygon fill="white" stroke="black" points="413,-228.5 413,-247.5 505,-247.5 505,-228.5 413,-228.5"/>
<text text-anchor="middle" x="459" y="-235.5" font-family="Helvetica,sans-Serif" font-size="10.00">v8::SymbolObject</text>
</a>
</g>
</g>
<!-- Node14&#45;&gt;Node44 -->
<g id="edge38" class="edge">
<title>Node14&#45;&gt;Node44</title>
<path fill="none" stroke="midnightblue" d="M310.13,-465.13C315.92,-421.16 335.89,-314.95 398,-257 402.31,-252.97 407.48,-249.8 412.94,-247.3"/>
<polygon fill="midnightblue" stroke="midnightblue" points="306.65,-464.78 308.93,-475.12 313.6,-465.62 306.65,-464.78"/>
</g>
<!-- Node45 -->
<g id="node40" class="node">
<title>Node45</title>
<g id="a_node40"><a xlink:href="classv8_1_1WasmMemoryObject.html" target="_top" xlink:title=" ">
<polygon fill="white" stroke="black" points="398,-190.5 398,-209.5 520,-209.5 520,-190.5 398,-190.5"/>
<text text-anchor="middle" x="459" y="-197.5" font-family="Helvetica,sans-Serif" font-size="10.00">v8::WasmMemoryObject</text>
</a>
</g>
</g>
<!-- Node14&#45;&gt;Node45 -->
<g id="edge39" class="edge">
<title>Node14&#45;&gt;Node45</title>
<path fill="none" stroke="midnightblue" d="M308.84,-465.25C311.98,-416.37 326.94,-288.68 398,-219 401.98,-215.1 406.75,-212 411.85,-209.53"/>
<polygon fill="midnightblue" stroke="midnightblue" points="305.33,-465.24 308.28,-475.42 312.32,-465.62 305.33,-465.24"/>
</g>
<!-- Node46 -->
<g id="node41" class="node">
<title>Node46</title>
<g id="a_node41"><a xlink:href="classv8_1_1WasmModuleObject.html" target="_top" xlink:title=" ">
<polygon fill="white" stroke="black" points="399.5,-152.5 399.5,-171.5 518.5,-171.5 518.5,-152.5 399.5,-152.5"/>
<text text-anchor="middle" x="459" y="-159.5" font-family="Helvetica,sans-Serif" font-size="10.00">v8::WasmModuleObject</text>
</a>
</g>
</g>
<!-- Node14&#45;&gt;Node46 -->
<g id="edge40" class="edge">
<title>Node14&#45;&gt;Node46</title>
<path fill="none" stroke="midnightblue" d="M307.86,-465.02C308.58,-411.31 318.09,-262.44 398,-181 401.83,-177.1 406.45,-174 411.41,-171.53"/>
<polygon fill="midnightblue" stroke="midnightblue" points="304.35,-465.22 307.81,-475.24 311.35,-465.25 304.35,-465.22"/>
</g>
<!-- Node18 -->
<g id="node18" class="node">
<title>Node18</title>
<g id="a_node18"><a xlink:href="classv8_1_1DataView.html" target="_top" xlink:title=" ">
<polygon fill="white" stroke="black" points="559,-779.5 559,-798.5 633,-798.5 633,-779.5 559,-779.5"/>
<text text-anchor="middle" x="596" y="-786.5" font-family="Helvetica,sans-Serif" font-size="10.00">v8::DataView</text>
</a>
</g>
</g>
<!-- Node17&#45;&gt;Node18 -->
<g id="edge17" class="edge">
<title>Node17&#45;&gt;Node18</title>
<path fill="none" stroke="midnightblue" d="M519.56,-778.38C532.86,-780.25 546.58,-782.19 558.61,-783.88"/>
<polygon fill="midnightblue" stroke="midnightblue" points="519.89,-774.89 509.5,-776.97 518.92,-781.83 519.89,-774.89"/>
</g>
<!-- Node19 -->
<g id="node19" class="node">
<title>Node19</title>
<g id="a_node19"><a xlink:href="classv8_1_1TypedArray.html" target="_top" xlink:title=" ">
<polygon fill="white" stroke="red" points="556,-741.5 556,-760.5 636,-760.5 636,-741.5 556,-741.5"/>
<text text-anchor="middle" x="596" y="-748.5" font-family="Helvetica,sans-Serif" font-size="10.00">v8::TypedArray</text>
</a>
</g>
</g>
<!-- Node17&#45;&gt;Node19 -->
<g id="edge18" class="edge">
<title>Node17&#45;&gt;Node19</title>
<path fill="none" stroke="midnightblue" d="M519.63,-761.61C531.83,-759.89 544.37,-758.13 555.64,-756.54"/>
<polygon fill="midnightblue" stroke="midnightblue" points="518.92,-758.17 509.5,-763.03 519.89,-765.11 518.92,-758.17"/>
</g>
<!-- Node20 -->
<g id="node20" class="node">
<title>Node20</title>
<g id="a_node20"><a xlink:href="classv8_1_1BigInt64Array.html" target="_top" xlink:title=" ">
<polygon fill="white" stroke="black" points="675.5,-836.5 675.5,-855.5 765.5,-855.5 765.5,-836.5 675.5,-836.5"/>
<text text-anchor="middle" x="720.5" y="-843.5" font-family="Helvetica,sans-Serif" font-size="10.00">v8::BigInt64Array</text>
</a>
</g>
</g>
<!-- Node19&#45;&gt;Node20 -->
<g id="edge19" class="edge">
<title>Node19&#45;&gt;Node20</title>
<path fill="none" stroke="midnightblue" d="M630.57,-765.75C632.49,-767.07 634.31,-768.49 636,-770 658.32,-789.99 648.97,-807.84 672,-827 676.51,-830.75 681.85,-833.83 687.29,-836.33"/>
<polygon fill="midnightblue" stroke="midnightblue" points="632.19,-762.64 621.81,-760.52 628.61,-768.65 632.19,-762.64"/>
</g>
<!-- Node21 -->
<g id="node21" class="node">
<title>Node21</title>
<g id="a_node21"><a xlink:href="classv8_1_1BigUint64Array.html" target="_top" xlink:title=" ">
<polygon fill="white" stroke="black" points="672,-798.5 672,-817.5 769,-817.5 769,-798.5 672,-798.5"/>
<text text-anchor="middle" x="720.5" y="-805.5" font-family="Helvetica,sans-Serif" font-size="10.00">v8::BigUint64Array</text>
</a>
</g>
</g>
<!-- Node19&#45;&gt;Node21 -->
<g id="edge20" class="edge">
<title>Node19&#45;&gt;Node21</title>
<path fill="none" stroke="midnightblue" d="M626.13,-765.07C629.47,-766.71 632.81,-768.38 636,-770 652.13,-778.19 655.58,-781.41 672,-789 679.09,-792.28 686.92,-795.55 694.15,-798.43"/>
<polygon fill="midnightblue" stroke="midnightblue" points="627.42,-761.8 616.9,-760.54 624.34,-768.09 627.42,-761.8"/>
</g>
<!-- Node22 -->
<g id="node22" class="node">
<title>Node22</title>
<g id="a_node22"><a xlink:href="classv8_1_1Float32Array.html" target="_top" xlink:title=" ">
<polygon fill="white" stroke="black" points="677.5,-760.5 677.5,-779.5 763.5,-779.5 763.5,-760.5 677.5,-760.5"/>
<text text-anchor="middle" x="720.5" y="-767.5" font-family="Helvetica,sans-Serif" font-size="10.00">v8::Float32Array</text>
</a>
</g>
</g>
<!-- Node19&#45;&gt;Node22 -->
<g id="edge21" class="edge">
<title>Node19&#45;&gt;Node22</title>
<path fill="none" stroke="midnightblue" d="M646.22,-758.63C656.55,-760.24 667.35,-761.91 677.39,-763.47"/>
<polygon fill="midnightblue" stroke="midnightblue" points="646.51,-755.14 636.1,-757.06 645.44,-762.06 646.51,-755.14"/>
</g>
<!-- Node23 -->
<g id="node23" class="node">
<title>Node23</title>
<g id="a_node23"><a xlink:href="classv8_1_1Float64Array.html" target="_top" xlink:title=" ">
<polygon fill="white" stroke="black" points="677.5,-722.5 677.5,-741.5 763.5,-741.5 763.5,-722.5 677.5,-722.5"/>
<text text-anchor="middle" x="720.5" y="-729.5" font-family="Helvetica,sans-Serif" font-size="10.00">v8::Float64Array</text>
</a>
</g>
</g>
<!-- Node19&#45;&gt;Node23 -->
<g id="edge22" class="edge">
<title>Node19&#45;&gt;Node23</title>
<path fill="none" stroke="midnightblue" d="M646.22,-743.37C656.55,-741.76 667.35,-740.09 677.39,-738.53"/>
<polygon fill="midnightblue" stroke="midnightblue" points="645.44,-739.94 636.1,-744.94 646.51,-746.86 645.44,-739.94"/>
</g>
<!-- Node24 -->
<g id="node24" class="node">
<title>Node24</title>
<g id="a_node24"><a xlink:href="classv8_1_1Int16Array.html" target="_top" xlink:title=" ">
<polygon fill="white" stroke="black" points="682.5,-684.5 682.5,-703.5 758.5,-703.5 758.5,-684.5 682.5,-684.5"/>
<text text-anchor="middle" x="720.5" y="-691.5" font-family="Helvetica,sans-Serif" font-size="10.00">v8::Int16Array</text>
</a>
</g>
</g>
<!-- Node19&#45;&gt;Node24 -->
<g id="edge23" class="edge">
<title>Node19&#45;&gt;Node24</title>
<path fill="none" stroke="midnightblue" d="M623.84,-736.67C638.02,-729.29 655.79,-720.33 672,-713 679.12,-709.78 686.96,-706.53 694.18,-703.65"/>
<polygon fill="midnightblue" stroke="midnightblue" points="621.89,-733.74 614.67,-741.49 625.15,-739.94 621.89,-733.74"/>
</g>
<!-- Node25 -->
<g id="node25" class="node">
<title>Node25</title>
<g id="a_node25"><a xlink:href="classv8_1_1Int32Array.html" target="_top" xlink:title=" ">
<polygon fill="white" stroke="black" points="682.5,-646.5 682.5,-665.5 758.5,-665.5 758.5,-646.5 682.5,-646.5"/>
<text text-anchor="middle" x="720.5" y="-653.5" font-family="Helvetica,sans-Serif" font-size="10.00">v8::Int32Array</text>
</a>
</g>
</g>
<!-- Node19&#45;&gt;Node25 -->
<g id="edge24" class="edge">
<title>Node19&#45;&gt;Node25</title>
<path fill="none" stroke="midnightblue" d="M610.73,-733.36C624.64,-716.48 647.54,-691.24 672,-675 677.47,-671.36 683.75,-668.24 689.91,-665.64"/>
<polygon fill="midnightblue" stroke="midnightblue" points="607.85,-731.35 604.31,-741.34 613.31,-735.74 607.85,-731.35"/>
</g>
<!-- Node48 -->
<g id="node43" class="node">
<title>Node48</title>
<g id="a_node43"><a xlink:href="classv8_1_1BigInt.html" target="_top" xlink:title=" ">
<polygon fill="white" stroke="black" points="430.5,-114.5 430.5,-133.5 487.5,-133.5 487.5,-114.5 430.5,-114.5"/>
<text text-anchor="middle" x="459" y="-121.5" font-family="Helvetica,sans-Serif" font-size="10.00">v8::BigInt</text>
</a>
</g>
</g>
<!-- Node47&#45;&gt;Node48 -->
<g id="edge42" class="edge">
<title>Node47&#45;&gt;Node48</title>
<path fill="none" stroke="midnightblue" d="M351.77,-97.09C377.07,-103.5 408.14,-111.37 430.12,-116.94"/>
<polygon fill="midnightblue" stroke="midnightblue" points="352.59,-93.69 342.04,-94.62 350.87,-100.47 352.59,-93.69"/>
</g>
<!-- Node49 -->
<g id="node44" class="node">
<title>Node49</title>
<g id="a_node44"><a xlink:href="classv8_1_1Boolean.html" target="_top" xlink:title=" ">
<polygon fill="white" stroke="black" points="425.5,-76.5 425.5,-95.5 492.5,-95.5 492.5,-76.5 425.5,-76.5"/>
<text text-anchor="middle" x="459" y="-83.5" font-family="Helvetica,sans-Serif" font-size="10.00">v8::Boolean</text>
</a>
</g>
</g>
<!-- Node47&#45;&gt;Node49 -->
<g id="edge43" class="edge">
<title>Node47&#45;&gt;Node49</title>
<path fill="none" stroke="midnightblue" d="M352.1,-86C375.56,-86 403.92,-86 425.38,-86"/>
<polygon fill="midnightblue" stroke="midnightblue" points="352.04,-82.5 342.04,-86 352.04,-89.5 352.04,-82.5"/>
</g>
<!-- Node50 -->
<g id="node45" class="node">
<title>Node50</title>
<g id="a_node45"><a xlink:href="classv8_1_1Name.html" target="_top" xlink:title=" ">
<polygon fill="white" stroke="black" points="430,-38.5 430,-57.5 488,-57.5 488,-38.5 430,-38.5"/>
<text text-anchor="middle" x="459" y="-45.5" font-family="Helvetica,sans-Serif" font-size="10.00">v8::Name</text>
</a>
</g>
</g>
<!-- Node47&#45;&gt;Node50 -->
<g id="edge44" class="edge">
<title>Node47&#45;&gt;Node50</title>
<path fill="none" stroke="midnightblue" d="M352.04,-74.84C377.1,-68.49 407.76,-60.73 429.63,-55.19"/>
<polygon fill="midnightblue" stroke="midnightblue" points="350.87,-71.53 342.04,-77.38 352.59,-78.31 350.87,-71.53"/>
</g>
<!-- Node53 -->
<g id="node48" class="node">
<title>Node53</title>
<g id="a_node48"><a xlink:href="classv8_1_1Number.html" target="_top" xlink:title=" ">
<polygon fill="white" stroke="black" points="426,-0.5 426,-19.5 492,-19.5 492,-0.5 426,-0.5"/>
<text text-anchor="middle" x="459" y="-7.5" font-family="Helvetica,sans-Serif" font-size="10.00">v8::Number</text>
</a>
</g>
</g>
<!-- Node47&#45;&gt;Node53 -->
<g id="edge47" class="edge">
<title>Node47&#45;&gt;Node53</title>
<path fill="none" stroke="midnightblue" d="M329.23,-70.34C346.92,-57.84 373.15,-40.56 398,-29 406.82,-24.9 416.75,-21.35 425.97,-18.47"/>
<polygon fill="midnightblue" stroke="midnightblue" points="326.89,-67.71 320.81,-76.38 330.97,-73.39 326.89,-67.71"/>
</g>
<!-- Node51 -->
<g id="node46" class="node">
<title>Node51</title>
<g id="a_node46"><a xlink:href="classv8_1_1String.html" target="_top" xlink:title=" ">
<polygon fill="white" stroke="black" points="567.5,-76.5 567.5,-95.5 624.5,-95.5 624.5,-76.5 567.5,-76.5"/>
<text text-anchor="middle" x="596" y="-83.5" font-family="Helvetica,sans-Serif" font-size="10.00">v8::String</text>
</a>
</g>
</g>
<!-- Node50&#45;&gt;Node51 -->
<g id="edge45" class="edge">
<title>Node50&#45;&gt;Node51</title>
<path fill="none" stroke="midnightblue" d="M498,-58.7C520,-64.89 547.2,-72.55 567.2,-78.17"/>
<polygon fill="midnightblue" stroke="midnightblue" points="498.87,-55.31 488.3,-55.97 496.98,-62.04 498.87,-55.31"/>
</g>
<!-- Node52 -->
<g id="node47" class="node">
<title>Node52</title>
<g id="a_node47"><a xlink:href="classv8_1_1Symbol.html" target="_top" xlink:title=" ">
<polygon fill="white" stroke="black" points="564,-38.5 564,-57.5 628,-57.5 628,-38.5 564,-38.5"/>
<text text-anchor="middle" x="596" y="-45.5" font-family="Helvetica,sans-Serif" font-size="10.00">v8::Symbol</text>
</a>
</g>
</g>
<!-- Node50&#45;&gt;Node52 -->
<g id="edge46" class="edge">
<title>Node50&#45;&gt;Node52</title>
<path fill="none" stroke="midnightblue" d="M498.38,-48C519.12,-48 544.41,-48 563.91,-48"/>
<polygon fill="midnightblue" stroke="midnightblue" points="498.3,-44.5 488.3,-48 498.3,-51.5 498.3,-44.5"/>
</g>
<!-- Node54 -->
<g id="node49" class="node">
<title>Node54</title>
<g id="a_node49"><a xlink:href="classv8_1_1Integer.html" target="_top" xlink:title=" ">
<polygon fill="white" stroke="red" points="565,-0.5 565,-19.5 627,-19.5 627,-0.5 565,-0.5"/>
<text text-anchor="middle" x="596" y="-7.5" font-family="Helvetica,sans-Serif" font-size="10.00">v8::Integer</text>
</a>
</g>
</g>
<!-- Node53&#45;&gt;Node54 -->
<g id="edge48" class="edge">
<title>Node53&#45;&gt;Node54</title>
<path fill="none" stroke="midnightblue" d="M502.54,-10C522.75,-10 546.44,-10 564.78,-10"/>
<polygon fill="midnightblue" stroke="midnightblue" points="502.34,-6.5 492.34,-10 502.34,-13.5 502.34,-6.5"/>
</g>
</g>
</svg>
