<?xml version="1.0" encoding="UTF-8" standalone="no"?>
<!DOCTYPE svg PUBLIC "-//W3C//DTD SVG 1.1//EN"
 "http://www.w3.org/Graphics/SVG/1.1/DTD/svg11.dtd">
<!-- Generated by graphviz version 2.44.0 ()
 -->
<!-- Title: cppgc::internal::PersistentBase::GetValue Pages: 1 -->
<svg width="669pt" height="284pt"
 viewBox="0.00 0.00 669.00 284.00" xmlns="http://www.w3.org/2000/svg" xmlns:xlink="http://www.w3.org/1999/xlink">
<g id="graph0" class="graph" transform="scale(1 1) rotate(0) translate(4 280)">
<title>cppgc::internal::PersistentBase::GetValue</title>
<polygon fill="white" stroke="transparent" points="-4,4 -4,-280 665,-280 665,4 -4,4"/>
<!-- Node1 -->
<g id="node1" class="node">
<title>Node1</title>
<g id="a_node1"><a xlink:title=" ">
<polygon fill="#bfbfbf" stroke="black" points="533,-97.5 533,-127.5 661,-127.5 661,-97.5 533,-97.5"/>
<text text-anchor="start" x="541" y="-115.5" font-family="Helvetica,sans-Serif" font-size="10.00">cppgc::internal::Persistent</text>
<text text-anchor="middle" x="597" y="-104.5" font-family="Helvetica,sans-Serif" font-size="10.00">Base::GetValue</text>
</a>
</g>
</g>
<!-- Node2 -->
<g id="node2" class="node">
<title>Node2</title>
<g id="a_node2"><a xlink:href="classcppgc_1_1internal_1_1BasicCrossThreadPersistent.html#a8df84a9926b1bc95c305c213d14508c9" target="_top" xlink:title=" ">
<polygon fill="white" stroke="black" points="361.5,-122.5 361.5,-152.5 495.5,-152.5 495.5,-122.5 361.5,-122.5"/>
<text text-anchor="start" x="369.5" y="-140.5" font-family="Helvetica,sans-Serif" font-size="10.00">cppgc::internal::BasicCross</text>
<text text-anchor="middle" x="428.5" y="-129.5" font-family="Helvetica,sans-Serif" font-size="10.00">ThreadPersistent::Get</text>
</a>
</g>
</g>
<!-- Node1&#45;&gt;Node2 -->
<g id="edge1" class="edge">
<title>Node1&#45;&gt;Node2</title>
<path fill="none" stroke="midnightblue" d="M522.52,-123.53C513.53,-124.88 504.38,-126.26 495.51,-127.59"/>
<polygon fill="midnightblue" stroke="midnightblue" points="523.21,-126.97 532.58,-122.02 522.17,-120.05 523.21,-126.97"/>
</g>
<!-- Node10 -->
<g id="node10" class="node">
<title>Node10</title>
<g id="a_node10"><a xlink:href="classcppgc_1_1internal_1_1BasicCrossThreadPersistent.html#a444de90db04aee7132566783b4a4113c" target="_top" xlink:title=" ">
<polygon fill="white" stroke="black" points="360,-73.5 360,-103.5 497,-103.5 497,-73.5 360,-73.5"/>
<text text-anchor="start" x="368" y="-91.5" font-family="Helvetica,sans-Serif" font-size="10.00">cppgc::internal::BasicCross</text>
<text text-anchor="middle" x="428.5" y="-80.5" font-family="Helvetica,sans-Serif" font-size="10.00">ThreadPersistent::operator=</text>
</a>
</g>
</g>
<!-- Node1&#45;&gt;Node10 -->
<g id="edge9" class="edge">
<title>Node1&#45;&gt;Node10</title>
<path fill="none" stroke="midnightblue" d="M522.42,-101.89C514.03,-100.68 505.49,-99.45 497.18,-98.26"/>
<polygon fill="midnightblue" stroke="midnightblue" points="522.18,-105.4 532.58,-103.36 523.18,-98.47 522.18,-105.4"/>
</g>
<!-- Node3 -->
<g id="node3" class="node">
<title>Node3</title>
<g id="a_node3"><a xlink:href="classcppgc_1_1internal_1_1BasicCrossThreadPersistent.html#a84f83cc8d906976362b01e2549638d1b" target="_top" xlink:title=" ">
<polygon fill="white" stroke="black" points="173,-245.5 173,-275.5 324,-275.5 324,-245.5 173,-245.5"/>
<text text-anchor="start" x="181" y="-263.5" font-family="Helvetica,sans-Serif" font-size="10.00">cppgc::internal::BasicCross</text>
<text text-anchor="middle" x="248.5" y="-252.5" font-family="Helvetica,sans-Serif" font-size="10.00">ThreadPersistent::operator bool</text>
</a>
</g>
</g>
<!-- Node2&#45;&gt;Node3 -->
<g id="edge2" class="edge">
<title>Node2&#45;&gt;Node3</title>
<path fill="none" stroke="midnightblue" d="M408.96,-160.47C389.83,-182.8 358.05,-216.21 324,-236.5 318.28,-239.91 312.02,-242.89 305.64,-245.49"/>
<polygon fill="midnightblue" stroke="midnightblue" points="411.66,-162.7 415.42,-152.8 406.3,-158.2 411.66,-162.7"/>
</g>
<!-- Node4 -->
<g id="node4" class="node">
<title>Node4</title>
<g id="a_node4"><a xlink:href="classcppgc_1_1internal_1_1BasicCrossThreadPersistent.html#a1aec53f1cfad5e17e9eeec7b5dac1ac8" target="_top" xlink:title=" ">
<polygon fill="white" stroke="black" points="177,-196.5 177,-226.5 320,-226.5 320,-196.5 177,-196.5"/>
<text text-anchor="start" x="185" y="-214.5" font-family="Helvetica,sans-Serif" font-size="10.00">cppgc::internal::BasicCross</text>
<text text-anchor="middle" x="248.5" y="-203.5" font-family="Helvetica,sans-Serif" font-size="10.00">ThreadPersistent::operator T*</text>
</a>
</g>
</g>
<!-- Node2&#45;&gt;Node4 -->
<g id="edge3" class="edge">
<title>Node2&#45;&gt;Node4</title>
<path fill="none" stroke="midnightblue" d="M389.88,-157.23C370.49,-167 346.29,-178.58 324,-187.5 316.18,-190.63 307.78,-193.65 299.53,-196.44"/>
<polygon fill="midnightblue" stroke="midnightblue" points="391.66,-160.25 398.98,-152.6 388.48,-154.01 391.66,-160.25"/>
</g>
<!-- Node5 -->
<g id="node5" class="node">
<title>Node5</title>
<g id="a_node5"><a xlink:href="classcppgc_1_1internal_1_1BasicCrossThreadPersistent.html#a5222c8c62ffb482c011c701ef3860070" target="_top" xlink:title=" ">
<polygon fill="white" stroke="black" points="181.5,-147.5 181.5,-177.5 315.5,-177.5 315.5,-147.5 181.5,-147.5"/>
<text text-anchor="start" x="189.5" y="-165.5" font-family="Helvetica,sans-Serif" font-size="10.00">cppgc::internal::BasicCross</text>
<text text-anchor="middle" x="248.5" y="-154.5" font-family="Helvetica,sans-Serif" font-size="10.00">ThreadPersistent::operator*</text>
</a>
</g>
</g>
<!-- Node2&#45;&gt;Node5 -->
<g id="edge4" class="edge">
<title>Node2&#45;&gt;Node5</title>
<path fill="none" stroke="midnightblue" d="M351.55,-148.17C339.63,-149.84 327.4,-151.56 315.72,-153.2"/>
<polygon fill="midnightblue" stroke="midnightblue" points="352.06,-151.63 361.47,-146.77 351.08,-144.7 352.06,-151.63"/>
</g>
<!-- Node6 -->
<g id="node6" class="node">
<title>Node6</title>
<g id="a_node6"><a xlink:href="classcppgc_1_1internal_1_1BasicCrossThreadPersistent.html#a158195be1c9b221dc5f0c97d86cdbe48" target="_top" xlink:title=" ">
<polygon fill="white" stroke="black" points="178.5,-98.5 178.5,-128.5 318.5,-128.5 318.5,-98.5 178.5,-98.5"/>
<text text-anchor="start" x="186.5" y="-116.5" font-family="Helvetica,sans-Serif" font-size="10.00">cppgc::internal::BasicCross</text>
<text text-anchor="middle" x="248.5" y="-105.5" font-family="Helvetica,sans-Serif" font-size="10.00">ThreadPersistent::operator&#45;&gt;</text>
</a>
</g>
</g>
<!-- Node2&#45;&gt;Node6 -->
<g id="edge5" class="edge">
<title>Node2&#45;&gt;Node6</title>
<path fill="none" stroke="midnightblue" d="M351.55,-127.26C340.64,-125.79 329.47,-124.28 318.7,-122.83"/>
<polygon fill="midnightblue" stroke="midnightblue" points="351.09,-130.73 361.47,-128.6 352.03,-123.79 351.09,-130.73"/>
</g>
<!-- Node7 -->
<g id="node7" class="node">
<title>Node7</title>
<g id="a_node7"><a xlink:href="classcppgc_1_1internal_1_1BasicCrossThreadPersistent.html#a1179b3c5364c0cf7df8cd31f70b92d85" target="_top" xlink:title=" ">
<polygon fill="white" stroke="black" points="180,-49.5 180,-79.5 317,-79.5 317,-49.5 180,-49.5"/>
<text text-anchor="start" x="188" y="-67.5" font-family="Helvetica,sans-Serif" font-size="10.00">cppgc::internal::BasicCross</text>
<text text-anchor="middle" x="248.5" y="-56.5" font-family="Helvetica,sans-Serif" font-size="10.00">ThreadPersistent::operator=</text>
</a>
</g>
</g>
<!-- Node2&#45;&gt;Node7 -->
<g id="edge6" class="edge">
<title>Node2&#45;&gt;Node7</title>
<path fill="none" stroke="midnightblue" d="M370.97,-118.59C367.22,-116.97 363.53,-115.27 360,-113.5 342.81,-104.88 341.27,-97.97 324,-89.5 316.53,-85.84 308.39,-82.5 300.32,-79.54"/>
<polygon fill="midnightblue" stroke="midnightblue" points="369.82,-121.89 380.4,-122.44 372.47,-115.42 369.82,-121.89"/>
</g>
<!-- Node9 -->
<g id="node9" class="node">
<title>Node9</title>
<g id="a_node9"><a xlink:href="classcppgc_1_1internal_1_1BasicCrossThreadPersistent.html#a6e20aaa3cf3d3867f6c12fa44b89b057" target="_top" xlink:title=" ">
<polygon fill="white" stroke="black" points="181.5,-0.5 181.5,-30.5 315.5,-30.5 315.5,-0.5 181.5,-0.5"/>
<text text-anchor="start" x="189.5" y="-18.5" font-family="Helvetica,sans-Serif" font-size="10.00">cppgc::internal::BasicCross</text>
<text text-anchor="middle" x="248.5" y="-7.5" font-family="Helvetica,sans-Serif" font-size="10.00">ThreadPersistent::Release</text>
</a>
</g>
</g>
<!-- Node2&#45;&gt;Node9 -->
<g id="edge8" class="edge">
<title>Node2&#45;&gt;Node9</title>
<path fill="none" stroke="midnightblue" d="M364.1,-116.83C362.68,-115.77 361.31,-114.67 360,-113.5 332.97,-89.45 351.24,-64.3 324,-40.5 319.58,-36.64 314.55,-33.37 309.23,-30.6"/>
<polygon fill="midnightblue" stroke="midnightblue" points="362.39,-119.89 372.7,-122.32 366.15,-113.99 362.39,-119.89"/>
</g>
<!-- Node8 -->
<g id="node8" class="node">
<title>Node8</title>
<g id="a_node8"><a xlink:href="classcppgc_1_1internal_1_1BasicCrossThreadPersistent.html#abd2b011af337c9ed478dfc015475018d" target="_top" xlink:title=" ">
<polygon fill="white" stroke="black" points="0,-49.5 0,-79.5 137,-79.5 137,-49.5 0,-49.5"/>
<text text-anchor="start" x="8" y="-67.5" font-family="Helvetica,sans-Serif" font-size="10.00">cppgc::internal::BasicCross</text>
<text text-anchor="middle" x="68.5" y="-56.5" font-family="Helvetica,sans-Serif" font-size="10.00">ThreadPersistent::operator=</text>
</a>
</g>
</g>
<!-- Node7&#45;&gt;Node8 -->
<g id="edge7" class="edge">
<title>Node7&#45;&gt;Node8</title>
<path fill="none" stroke="midnightblue" d="M169.62,-64.5C158.75,-64.5 147.66,-64.5 137,-64.5"/>
<polygon fill="midnightblue" stroke="midnightblue" points="169.95,-68 179.95,-64.5 169.95,-61 169.95,-68"/>
</g>
</g>
</svg>
