<?xml version="1.0" encoding="UTF-8" standalone="no"?>
<!DOCTYPE svg PUBLIC "-//W3C//DTD SVG 1.1//EN"
 "http://www.w3.org/Graphics/SVG/1.1/DTD/svg11.dtd">
<!-- Generated by graphviz version 2.44.0 ()
 -->
<!-- Title: v8::internal::CFunctionInfoImpl::CFunctionInfoImpl Pages: 1 -->
<svg width="470pt" height="39pt"
 viewBox="0.00 0.00 470.00 39.00" xmlns="http://www.w3.org/2000/svg" xmlns:xlink="http://www.w3.org/1999/xlink">
<g id="graph0" class="graph" transform="scale(1 1) rotate(0) translate(4 35)">
<title>v8::internal::CFunctionInfoImpl::CFunctionInfoImpl</title>
<polygon fill="white" stroke="transparent" points="-4,4 -4,-35 466,-35 466,4 -4,4"/>
<!-- Node1 -->
<g id="node1" class="node">
<title>Node1</title>
<g id="a_node1"><a xlink:title=" ">
<polygon fill="#bfbfbf" stroke="black" points="0,-0.5 0,-30.5 128,-30.5 128,-0.5 0,-0.5"/>
<text text-anchor="start" x="8" y="-18.5" font-family="Helvetica,sans-Serif" font-size="10.00">v8::internal::CFunctionInfo</text>
<text text-anchor="middle" x="64" y="-7.5" font-family="Helvetica,sans-Serif" font-size="10.00">Impl::CFunctionInfoImpl</text>
</a>
</g>
</g>
<!-- Node2 -->
<g id="node2" class="node">
<title>Node2</title>
<g id="a_node2"><a xlink:href="structv8_1_1internal_1_1GetCType.html#ac8e64d1cbab2e7b7c0c3c303af4e7086" target="_top" xlink:title=" ">
<polygon fill="white" stroke="black" points="164,-6 164,-25 295,-25 295,-6 164,-6"/>
<text text-anchor="middle" x="229.5" y="-13" font-family="Helvetica,sans-Serif" font-size="10.00">v8::internal::GetCType::Get</text>
</a>
</g>
</g>
<!-- Node1&#45;&gt;Node2 -->
<g id="edge1" class="edge">
<title>Node1&#45;&gt;Node2</title>
<path fill="none" stroke="midnightblue" d="M128.21,-15.5C136.52,-15.5 145.09,-15.5 153.57,-15.5"/>
<polygon fill="midnightblue" stroke="midnightblue" points="153.83,-19 163.83,-15.5 153.83,-12 153.83,-19"/>
</g>
<!-- Node3 -->
<g id="node3" class="node">
<title>Node3</title>
<g id="a_node3"><a xlink:href="classv8_1_1CTypeInfo.html#a10b761dabd462db54f6f926bb41b1f63" target="_top" xlink:title=" ">
<polygon fill="white" stroke="black" points="331,-6 331,-25 462,-25 462,-6 331,-6"/>
<text text-anchor="middle" x="396.5" y="-13" font-family="Helvetica,sans-Serif" font-size="10.00">v8::CTypeInfo::FromCType</text>
</a>
</g>
</g>
<!-- Node2&#45;&gt;Node3 -->
<g id="edge2" class="edge">
<title>Node2&#45;&gt;Node3</title>
<path fill="none" stroke="midnightblue" d="M295.24,-15.5C303.58,-15.5 312.18,-15.5 320.67,-15.5"/>
<polygon fill="midnightblue" stroke="midnightblue" points="320.95,-19 330.95,-15.5 320.95,-12 320.95,-19"/>
</g>
</g>
</svg>
