<?xml version="1.0" encoding="UTF-8" standalone="no"?>
<!DOCTYPE svg PUBLIC "-//W3C//DTD SVG 1.1//EN"
 "http://www.w3.org/Graphics/SVG/1.1/DTD/svg11.dtd">
<!-- Generated by graphviz version 2.44.0 ()
 -->
<!-- Title: cppgc::internal::PersistentNode::IsUsed Pages: 1 -->
<svg width="859pt" height="179pt"
 viewBox="0.00 0.00 859.00 179.00" xmlns="http://www.w3.org/2000/svg" xmlns:xlink="http://www.w3.org/1999/xlink">
<g id="graph0" class="graph" transform="scale(1 1) rotate(0) translate(4 175)">
<title>cppgc::internal::PersistentNode::IsUsed</title>
<polygon fill="white" stroke="transparent" points="-4,4 -4,-175 855,-175 855,4 -4,4"/>
<!-- Node1 -->
<g id="node1" class="node">
<title>Node1</title>
<g id="a_node1"><a xlink:title=" ">
<polygon fill="#bfbfbf" stroke="black" points="723,-66.5 723,-96.5 851,-96.5 851,-66.5 723,-66.5"/>
<text text-anchor="start" x="731" y="-84.5" font-family="Helvetica,sans-Serif" font-size="10.00">cppgc::internal::Persistent</text>
<text text-anchor="middle" x="787" y="-73.5" font-family="Helvetica,sans-Serif" font-size="10.00">Node::IsUsed</text>
</a>
</g>
</g>
<!-- Node2 -->
<g id="node2" class="node">
<title>Node2</title>
<g id="a_node2"><a xlink:href="classcppgc_1_1internal_1_1PersistentNode.html#aa3d1960fd3dc51e1a6bf03bd316569ef" target="_top" xlink:title=" ">
<polygon fill="white" stroke="black" points="390,-140.5 390,-170.5 518,-170.5 518,-140.5 390,-140.5"/>
<text text-anchor="start" x="398" y="-158.5" font-family="Helvetica,sans-Serif" font-size="10.00">cppgc::internal::Persistent</text>
<text text-anchor="middle" x="454" y="-147.5" font-family="Helvetica,sans-Serif" font-size="10.00">Node::FreeListNext</text>
</a>
</g>
</g>
<!-- Node1&#45;&gt;Node2 -->
<g id="edge1" class="edge">
<title>Node1&#45;&gt;Node2</title>
<path fill="none" stroke="midnightblue" d="M751.12,-101.51C732.64,-111.21 709.21,-122.12 687,-128.5 631.27,-144.5 565.41,-151.05 518.12,-153.71"/>
<polygon fill="midnightblue" stroke="midnightblue" points="752.88,-104.54 760.04,-96.73 749.57,-98.37 752.88,-104.54"/>
</g>
<!-- Node5 -->
<g id="node5" class="node">
<title>Node5</title>
<g id="a_node5"><a xlink:href="classcppgc_1_1internal_1_1PersistentNode.html#afb99622120d5c6d6eb763d26b244bc5f" target="_top" xlink:title=" ">
<polygon fill="white" stroke="black" points="559,-88.5 559,-118.5 687,-118.5 687,-88.5 559,-88.5"/>
<text text-anchor="start" x="567" y="-106.5" font-family="Helvetica,sans-Serif" font-size="10.00">cppgc::internal::Persistent</text>
<text text-anchor="middle" x="623" y="-95.5" font-family="Helvetica,sans-Serif" font-size="10.00">Node::owner</text>
</a>
</g>
</g>
<!-- Node1&#45;&gt;Node5 -->
<g id="edge4" class="edge">
<title>Node1&#45;&gt;Node5</title>
<path fill="none" stroke="midnightblue" d="M712.91,-91.43C704.32,-92.59 695.62,-93.77 687.19,-94.92"/>
<polygon fill="midnightblue" stroke="midnightblue" points="713.46,-94.88 722.9,-90.07 712.52,-87.95 713.46,-94.88"/>
</g>
<!-- Node7 -->
<g id="node7" class="node">
<title>Node7</title>
<g id="a_node7"><a xlink:href="classcppgc_1_1internal_1_1PersistentNode.html#a1ca2104547bd2139cb56233c575a38f9" target="_top" xlink:title=" ">
<polygon fill="white" stroke="black" points="390,-42.5 390,-72.5 518,-72.5 518,-42.5 390,-42.5"/>
<text text-anchor="start" x="398" y="-60.5" font-family="Helvetica,sans-Serif" font-size="10.00">cppgc::internal::Persistent</text>
<text text-anchor="middle" x="454" y="-49.5" font-family="Helvetica,sans-Serif" font-size="10.00">Node::UpdateOwner</text>
</a>
</g>
</g>
<!-- Node1&#45;&gt;Node7 -->
<g id="edge10" class="edge">
<title>Node1&#45;&gt;Node7</title>
<path fill="none" stroke="midnightblue" d="M712.71,-76.19C654.37,-71.96 573.57,-66.1 518.08,-62.07"/>
<polygon fill="midnightblue" stroke="midnightblue" points="712.74,-79.7 722.96,-76.93 713.24,-72.72 712.74,-79.7"/>
</g>
<!-- Node9 -->
<g id="node9" class="node">
<title>Node9</title>
<g id="a_node9"><a xlink:href="classcppgc_1_1internal_1_1PersistentNode.html#abad2492c5f2fd83b81597b0cb321a770" target="_top" xlink:title=" ">
<polygon fill="white" stroke="black" points="559,-0.5 559,-30.5 687,-30.5 687,-0.5 559,-0.5"/>
<text text-anchor="start" x="567" y="-18.5" font-family="Helvetica,sans-Serif" font-size="10.00">cppgc::internal::Persistent</text>
<text text-anchor="middle" x="623" y="-7.5" font-family="Helvetica,sans-Serif" font-size="10.00">Node::Trace</text>
</a>
</g>
</g>
<!-- Node1&#45;&gt;Node9 -->
<g id="edge9" class="edge">
<title>Node1&#45;&gt;Node9</title>
<path fill="none" stroke="midnightblue" d="M739.57,-62.58C714.63,-52.42 684.32,-40.07 660.99,-30.57"/>
<polygon fill="midnightblue" stroke="midnightblue" points="738.25,-65.83 748.83,-66.36 740.89,-59.34 738.25,-65.83"/>
</g>
<!-- Node3 -->
<g id="node3" class="node">
<title>Node3</title>
<g id="a_node3"><a xlink:href="classcppgc_1_1internal_1_1PersistentRegion.html#a25973373213a5e0257ce287132ca8f1c" target="_top" xlink:title=" ">
<polygon fill="white" stroke="black" points="216.5,-115.5 216.5,-145.5 344.5,-145.5 344.5,-115.5 216.5,-115.5"/>
<text text-anchor="start" x="224.5" y="-133.5" font-family="Helvetica,sans-Serif" font-size="10.00">cppgc::internal::Persistent</text>
<text text-anchor="middle" x="280.5" y="-122.5" font-family="Helvetica,sans-Serif" font-size="10.00">Region::AllocateNode</text>
</a>
</g>
</g>
<!-- Node2&#45;&gt;Node3 -->
<g id="edge2" class="edge">
<title>Node2&#45;&gt;Node3</title>
<path fill="none" stroke="midnightblue" d="M379.52,-144.79C367.9,-143.09 355.97,-141.36 344.61,-139.7"/>
<polygon fill="midnightblue" stroke="midnightblue" points="379.23,-148.28 389.63,-146.26 380.24,-141.36 379.23,-148.28"/>
</g>
<!-- Node4 -->
<g id="node4" class="node">
<title>Node4</title>
<g id="a_node4"><a xlink:href="classcppgc_1_1internal_1_1BasicCrossThreadPersistent.html#ae6349479cb58549b01386d82d66fa656" target="_top" xlink:title=" ">
<polygon fill="white" stroke="black" points="0,-110 0,-151 176,-151 176,-110 0,-110"/>
<text text-anchor="start" x="8" y="-139" font-family="Helvetica,sans-Serif" font-size="10.00">cppgc::internal::BasicCross</text>
<text text-anchor="start" x="8" y="-128" font-family="Helvetica,sans-Serif" font-size="10.00">ThreadPersistent::BasicCrossThread</text>
<text text-anchor="middle" x="88" y="-117" font-family="Helvetica,sans-Serif" font-size="10.00">Persistent</text>
</a>
</g>
</g>
<!-- Node3&#45;&gt;Node4 -->
<g id="edge3" class="edge">
<title>Node3&#45;&gt;Node4</title>
<path fill="none" stroke="midnightblue" d="M206.2,-130.5C196.35,-130.5 186.17,-130.5 176.11,-130.5"/>
<polygon fill="midnightblue" stroke="midnightblue" points="206.33,-134 216.33,-130.5 206.33,-127 206.33,-134"/>
</g>
<!-- Node6 -->
<g id="node6" class="node">
<title>Node6</title>
<g id="a_node6"><a xlink:href="classcppgc_1_1internal_1_1PersistentNode.html#a18c4a9bce10409fd47e53cc0cdf8acab" target="_top" xlink:title=" ">
<polygon fill="white" stroke="black" points="385,-91.5 385,-121.5 523,-121.5 523,-91.5 385,-91.5"/>
<text text-anchor="start" x="393" y="-109.5" font-family="Helvetica,sans-Serif" font-size="10.00">cppgc::internal::Persistent</text>
<text text-anchor="middle" x="454" y="-98.5" font-family="Helvetica,sans-Serif" font-size="10.00">Node::InitializeAsUsedNode</text>
</a>
</g>
</g>
<!-- Node5&#45;&gt;Node6 -->
<g id="edge5" class="edge">
<title>Node5&#45;&gt;Node6</title>
<path fill="none" stroke="midnightblue" d="M548.65,-104.82C540.21,-104.97 531.62,-105.12 523.25,-105.27"/>
<polygon fill="midnightblue" stroke="midnightblue" points="548.93,-108.31 558.86,-104.63 548.8,-101.31 548.93,-108.31"/>
</g>
<!-- Node5&#45;&gt;Node7 -->
<g id="edge7" class="edge">
<title>Node5&#45;&gt;Node7</title>
<path fill="none" stroke="midnightblue" d="M557.58,-85.76C541.71,-81.39 524.87,-76.75 509.52,-72.52"/>
<polygon fill="midnightblue" stroke="midnightblue" points="556.75,-89.16 567.32,-88.44 558.61,-82.41 556.75,-89.16"/>
</g>
<!-- Node6&#45;&gt;Node3 -->
<g id="edge6" class="edge">
<title>Node6&#45;&gt;Node3</title>
<path fill="none" stroke="midnightblue" d="M374.69,-117.46C364.59,-118.87 354.34,-120.31 344.53,-121.68"/>
<polygon fill="midnightblue" stroke="midnightblue" points="375.31,-120.91 384.73,-116.05 374.34,-113.97 375.31,-120.91"/>
</g>
<!-- Node8 -->
<g id="node8" class="node">
<title>Node8</title>
<g id="a_node8"><a xlink:href="classcppgc_1_1internal_1_1BasicCrossThreadPersistent.html#a444de90db04aee7132566783b4a4113c" target="_top" xlink:title=" ">
<polygon fill="white" stroke="black" points="212,-42.5 212,-72.5 349,-72.5 349,-42.5 212,-42.5"/>
<text text-anchor="start" x="220" y="-60.5" font-family="Helvetica,sans-Serif" font-size="10.00">cppgc::internal::BasicCross</text>
<text text-anchor="middle" x="280.5" y="-49.5" font-family="Helvetica,sans-Serif" font-size="10.00">ThreadPersistent::operator=</text>
</a>
</g>
</g>
<!-- Node7&#45;&gt;Node8 -->
<g id="edge8" class="edge">
<title>Node7&#45;&gt;Node8</title>
<path fill="none" stroke="midnightblue" d="M379.32,-57.5C369.32,-57.5 359.1,-57.5 349.22,-57.5"/>
<polygon fill="midnightblue" stroke="midnightblue" points="379.63,-61 389.63,-57.5 379.63,-54 379.63,-61"/>
</g>
</g>
</svg>
