<?xml version="1.0" encoding="UTF-8" standalone="no"?>
<!DOCTYPE svg PUBLIC "-//W3C//DTD SVG 1.1//EN"
 "http://www.w3.org/Graphics/SVG/1.1/DTD/svg11.dtd">
<!-- Generated by graphviz version 2.44.0 ()
 -->
<!-- Title: v8::Integer::New Pages: 1 -->
<svg width="258pt" height="127pt"
 viewBox="0.00 0.00 258.00 126.50" xmlns="http://www.w3.org/2000/svg" xmlns:xlink="http://www.w3.org/1999/xlink">
<g id="graph0" class="graph" transform="scale(1 1) rotate(0) translate(4 122.5)">
<title>v8::Integer::New</title>
<polygon fill="white" stroke="transparent" points="-4,4 -4,-122.5 254,-122.5 254,4 -4,4"/>
<!-- Node1 -->
<g id="node1" class="node">
<title>Node1</title>
<g id="a_node1"><a xlink:title=" ">
<polygon fill="#bfbfbf" stroke="black" points="164,-44.5 164,-63.5 250,-63.5 250,-44.5 164,-44.5"/>
<text text-anchor="middle" x="207" y="-51.5" font-family="Helvetica,sans-Serif" font-size="10.00">v8::Integer::New</text>
</a>
</g>
</g>
<!-- Node2 -->
<g id="node2" class="node">
<title>Node2</title>
<g id="a_node2"><a xlink:href="classv8_1_1ScriptOrigin.html#a75794aa0bda3508406b97cf66ac47682" target="_top" xlink:title=" ">
<polygon fill="white" stroke="black" points="0,-88 0,-118 128,-118 128,-88 0,-88"/>
<text text-anchor="start" x="8" y="-106" font-family="Helvetica,sans-Serif" font-size="10.00">v8::ScriptOrigin::Resource</text>
<text text-anchor="middle" x="64" y="-95" font-family="Helvetica,sans-Serif" font-size="10.00">ColumnOffset</text>
</a>
</g>
</g>
<!-- Node1&#45;&gt;Node2 -->
<g id="edge1" class="edge">
<title>Node1&#45;&gt;Node2</title>
<path fill="none" stroke="midnightblue" d="M168.88,-66.9C150.28,-73.36 127.65,-81.23 108.27,-87.96"/>
<polygon fill="midnightblue" stroke="midnightblue" points="170.18,-70.15 178.48,-63.56 167.88,-63.54 170.18,-70.15"/>
</g>
<!-- Node3 -->
<g id="node3" class="node">
<title>Node3</title>
<g id="a_node3"><a xlink:href="classv8_1_1ScriptOrigin.html#ae9f8419ea44b2b0d9e249f2c6825e8cd" target="_top" xlink:title=" ">
<polygon fill="white" stroke="black" points="0,-39 0,-69 128,-69 128,-39 0,-39"/>
<text text-anchor="start" x="8" y="-57" font-family="Helvetica,sans-Serif" font-size="10.00">v8::ScriptOrigin::Resource</text>
<text text-anchor="middle" x="64" y="-46" font-family="Helvetica,sans-Serif" font-size="10.00">LineOffset</text>
</a>
</g>
</g>
<!-- Node1&#45;&gt;Node3 -->
<g id="edge2" class="edge">
<title>Node1&#45;&gt;Node3</title>
<path fill="none" stroke="midnightblue" d="M153.46,-54C145.21,-54 136.6,-54 128.13,-54"/>
<polygon fill="midnightblue" stroke="midnightblue" points="153.7,-57.5 163.7,-54 153.7,-50.5 153.7,-57.5"/>
</g>
<!-- Node4 -->
<g id="node4" class="node">
<title>Node4</title>
<g id="a_node4"><a xlink:href="classv8_1_1ScriptOrigin.html#ae4431018214bd4512c6c0f8168ca3101" target="_top" xlink:title=" ">
<polygon fill="white" stroke="black" points="3,-0.5 3,-19.5 125,-19.5 125,-0.5 3,-0.5"/>
<text text-anchor="middle" x="64" y="-7.5" font-family="Helvetica,sans-Serif" font-size="10.00">v8::ScriptOrigin::ScriptID</text>
</a>
</g>
</g>
<!-- Node1&#45;&gt;Node4 -->
<g id="edge3" class="edge">
<title>Node1&#45;&gt;Node4</title>
<path fill="none" stroke="midnightblue" d="M165.85,-41.47C143.5,-34.5 116.12,-25.95 95.54,-19.53"/>
<polygon fill="midnightblue" stroke="midnightblue" points="164.82,-44.81 175.41,-44.45 166.9,-38.13 164.82,-44.81"/>
</g>
</g>
</svg>
