<?xml version="1.0" encoding="UTF-8" standalone="no"?>
<!DOCTYPE svg PUBLIC "-//W3C//DTD SVG 1.1//EN"
 "http://www.w3.org/Graphics/SVG/1.1/DTD/svg11.dtd">
<!-- Generated by graphviz version 2.44.0 ()
 -->
<!-- Title: v8_inspector::V8ContextInfo Pages: 1 -->
<svg width="293pt" height="184pt"
 viewBox="0.00 0.00 293.00 184.00" xmlns="http://www.w3.org/2000/svg" xmlns:xlink="http://www.w3.org/1999/xlink">
<g id="graph0" class="graph" transform="scale(1 1) rotate(0) translate(4 180)">
<title>v8_inspector::V8ContextInfo</title>
<polygon fill="white" stroke="transparent" points="-4,4 -4,-180 289,-180 289,4 -4,4"/>
<!-- Node1 -->
<g id="node1" class="node">
<title>Node1</title>
<g id="a_node1"><a xlink:title=" ">
<polygon fill="#bfbfbf" stroke="black" points="96,-0.5 96,-19.5 234,-19.5 234,-0.5 96,-0.5"/>
<text text-anchor="middle" x="165" y="-7.5" font-family="Helvetica,sans-Serif" font-size="10.00">v8_inspector::V8ContextInfo</text>
</a>
</g>
</g>
<!-- Node2 -->
<g id="node2" class="node">
<title>Node2</title>
<g id="a_node2"><a xlink:href="classv8_1_1Local.html" target="_top" xlink:title=" ">
<polygon fill="white" stroke="black" points="0,-89.5 0,-108.5 120,-108.5 120,-89.5 0,-89.5"/>
<text text-anchor="middle" x="60" y="-96.5" font-family="Helvetica,sans-Serif" font-size="10.00">v8::Local&lt; v8::Context &gt;</text>
</a>
</g>
</g>
<!-- Node2&#45;&gt;Node1 -->
<g id="edge1" class="edge">
<title>Node2&#45;&gt;Node1</title>
<path fill="none" stroke="#9a32cd" stroke-dasharray="5,2" d="M78.43,-82.73C100.54,-64.41 136.85,-34.32 154.59,-19.62"/>
<polygon fill="#9a32cd" stroke="#9a32cd" points="75.92,-80.26 70.45,-89.34 80.38,-85.65 75.92,-80.26"/>
<text text-anchor="middle" x="149" y="-52" font-family="Helvetica,sans-Serif" font-size="10.00"> context</text>
</g>
<!-- Node3 -->
<g id="node3" class="node">
<title>Node3</title>
<g id="a_node3"><a xlink:href="classv8_1_1Local.html" target="_top" xlink:title=" ">
<polygon fill="white" stroke="black" points="21,-156.5 21,-175.5 99,-175.5 99,-156.5 21,-156.5"/>
<text text-anchor="middle" x="60" y="-163.5" font-family="Helvetica,sans-Serif" font-size="10.00">v8::Local&lt; T &gt;</text>
</a>
</g>
</g>
<!-- Node3&#45;&gt;Node2 -->
<g id="edge2" class="edge">
<title>Node3&#45;&gt;Node2</title>
<path fill="none" stroke="orange" stroke-dasharray="5,2" d="M60,-146.04C60,-133.67 60,-118.12 60,-108.63"/>
<polygon fill="orange" stroke="orange" points="56.5,-146.23 60,-156.23 63.5,-146.23 56.5,-146.23"/>
<text text-anchor="middle" x="93.5" y="-130" font-family="Helvetica,sans-Serif" font-size="10.00"> &lt; v8::Context &gt;</text>
</g>
<!-- Node4 -->
<g id="node4" class="node">
<title>Node4</title>
<g id="a_node4"><a xlink:href="classv8__inspector_1_1StringView.html" target="_top" xlink:title=" ">
<polygon fill="white" stroke="black" points="138,-89.5 138,-108.5 262,-108.5 262,-89.5 138,-89.5"/>
<text text-anchor="middle" x="200" y="-96.5" font-family="Helvetica,sans-Serif" font-size="10.00">v8_inspector::StringView</text>
</a>
</g>
</g>
<!-- Node4&#45;&gt;Node1 -->
<g id="edge3" class="edge">
<title>Node4&#45;&gt;Node1</title>
<path fill="none" stroke="#9a32cd" stroke-dasharray="5,2" d="M192.75,-79.97C185.32,-61.51 174.09,-33.61 168.47,-19.62"/>
<polygon fill="#9a32cd" stroke="#9a32cd" points="189.54,-81.37 196.52,-89.34 196.03,-78.76 189.54,-81.37"/>
<text text-anchor="middle" x="236.5" y="-63" font-family="Helvetica,sans-Serif" font-size="10.00"> origin</text>
<text text-anchor="middle" x="236.5" y="-52" font-family="Helvetica,sans-Serif" font-size="10.00">humanReadableName</text>
<text text-anchor="middle" x="236.5" y="-41" font-family="Helvetica,sans-Serif" font-size="10.00">auxData</text>
</g>
</g>
</svg>
