<?xml version="1.0" encoding="UTF-8" standalone="no"?>
<!DOCTYPE svg PUBLIC "-//W3C//DTD SVG 1.1//EN"
 "http://www.w3.org/Graphics/SVG/1.1/DTD/svg11.dtd">
<!-- Generated by graphviz version 2.44.0 ()
 -->
<!-- Title: cppgc::internal::BasicMember&lt; T, WeaknessTag, WriteBarrierPolicy, CheckingPolicy &gt; Pages: 1 -->
<svg width="360pt" height="117pt"
 viewBox="0.00 0.00 360.00 117.00" xmlns="http://www.w3.org/2000/svg" xmlns:xlink="http://www.w3.org/1999/xlink">
<g id="graph0" class="graph" transform="scale(1 1) rotate(0) translate(4 113)">
<title>cppgc::internal::BasicMember&lt; T, WeaknessTag, WriteBarrierPolicy, CheckingPolicy &gt;</title>
<polygon fill="white" stroke="transparent" points="-4,4 -4,-113 356,-113 356,4 -4,4"/>
<!-- Node1 -->
<g id="node1" class="node">
<title>Node1</title>
<g id="a_node1"><a xlink:title=" ">
<polygon fill="#bfbfbf" stroke="black" points="83.5,-67.5 83.5,-108.5 267.5,-108.5 267.5,-67.5 83.5,-67.5"/>
<text text-anchor="start" x="91.5" y="-96.5" font-family="Helvetica,sans-Serif" font-size="10.00">cppgc::internal::BasicMember</text>
<text text-anchor="start" x="91.5" y="-85.5" font-family="Helvetica,sans-Serif" font-size="10.00">&lt; T, WeaknessTag, WriteBarrierPolicy,</text>
<text text-anchor="middle" x="175.5" y="-74.5" font-family="Helvetica,sans-Serif" font-size="10.00"> CheckingPolicy &gt;</text>
</a>
</g>
</g>
<!-- Node2 -->
<g id="node2" class="node">
<title>Node2</title>
<g id="a_node2"><a xlink:href="classcppgc_1_1internal_1_1BasicMember.html" target="_top" xlink:title=" ">
<polygon fill="white" stroke="black" points="0,-0.5 0,-19.5 167,-19.5 167,-0.5 0,-0.5"/>
<text text-anchor="middle" x="83.5" y="-7.5" font-family="Helvetica,sans-Serif" font-size="10.00">cppgc::internal::BasicMember&lt; V &gt;</text>
</a>
</g>
</g>
<!-- Node1&#45;&gt;Node2 -->
<g id="edge1" class="edge">
<title>Node1&#45;&gt;Node2</title>
<path fill="none" stroke="orange" stroke-dasharray="5,2" d="M144.04,-61.01C126.56,-46.57 105.96,-29.55 93.85,-19.55"/>
<polygon fill="orange" stroke="orange" points="141.87,-63.76 151.81,-67.43 146.33,-58.36 141.87,-63.76"/>
<text text-anchor="middle" x="142.5" y="-41" font-family="Helvetica,sans-Serif" font-size="10.00"> &lt; V &gt;</text>
</g>
<!-- Node3 -->
<g id="node3" class="node">
<title>Node3</title>
<g id="a_node3"><a xlink:href="classcppgc_1_1internal_1_1BasicMember.html" target="_top" xlink:title=" ">
<polygon fill="white" stroke="black" points="185,-0.5 185,-19.5 352,-19.5 352,-0.5 185,-0.5"/>
<text text-anchor="middle" x="268.5" y="-7.5" font-family="Helvetica,sans-Serif" font-size="10.00">cppgc::internal::BasicMember&lt; K &gt;</text>
</a>
</g>
</g>
<!-- Node1&#45;&gt;Node3 -->
<g id="edge2" class="edge">
<title>Node1&#45;&gt;Node3</title>
<path fill="none" stroke="orange" stroke-dasharray="5,2" d="M207.3,-61.01C224.97,-46.57 245.8,-29.55 258.04,-19.55"/>
<polygon fill="orange" stroke="orange" points="204.98,-58.39 199.45,-67.43 209.41,-63.81 204.98,-58.39"/>
<text text-anchor="middle" x="245.5" y="-41" font-family="Helvetica,sans-Serif" font-size="10.00"> &lt; K &gt;</text>
</g>
</g>
</svg>
