<?xml version="1.0" encoding="UTF-8" standalone="no"?>
<!DOCTYPE svg PUBLIC "-//W3C//DTD SVG 1.1//EN"
 "http://www.w3.org/Graphics/SVG/1.1/DTD/svg11.dtd">
<!-- Generated by graphviz version 2.44.0 ()
 -->
<!-- Title: cppgc::internal::BasicCrossThreadPersistent::operator= Pages: 1 -->
<svg width="643pt" height="306pt"
 viewBox="0.00 0.00 643.00 306.00" xmlns="http://www.w3.org/2000/svg" xmlns:xlink="http://www.w3.org/1999/xlink">
<g id="graph0" class="graph" transform="scale(1 1) rotate(0) translate(4 302)">
<title>cppgc::internal::BasicCrossThreadPersistent::operator=</title>
<polygon fill="white" stroke="transparent" points="-4,4 -4,-302 639,-302 639,4 -4,4"/>
<!-- Node1 -->
<g id="node1" class="node">
<title>Node1</title>
<g id="a_node1"><a xlink:title=" ">
<polygon fill="#bfbfbf" stroke="black" points="0,-144.5 0,-174.5 137,-174.5 137,-144.5 0,-144.5"/>
<text text-anchor="start" x="8" y="-162.5" font-family="Helvetica,sans-Serif" font-size="10.00">cppgc::internal::BasicCross</text>
<text text-anchor="middle" x="68.5" y="-151.5" font-family="Helvetica,sans-Serif" font-size="10.00">ThreadPersistent::operator=</text>
</a>
</g>
</g>
<!-- Node2 -->
<g id="node2" class="node">
<title>Node2</title>
<g id="a_node2"><a xlink:href="classcppgc_1_1internal_1_1BasicCrossThreadPersistent.html#a4101c15a02138c88ea1d29ef95b10b34" target="_top" xlink:title=" ">
<polygon fill="white" stroke="black" points="173,-267.5 173,-297.5 307,-297.5 307,-267.5 173,-267.5"/>
<text text-anchor="start" x="181" y="-285.5" font-family="Helvetica,sans-Serif" font-size="10.00">cppgc::internal::BasicCross</text>
<text text-anchor="middle" x="240" y="-274.5" font-family="Helvetica,sans-Serif" font-size="10.00">ThreadPersistent::Clear</text>
</a>
</g>
</g>
<!-- Node1&#45;&gt;Node2 -->
<g id="edge1" class="edge">
<title>Node1&#45;&gt;Node2</title>
<path fill="none" stroke="midnightblue" d="M81.7,-174.61C99.66,-195.97 135.19,-235.01 173,-258.5 175.61,-260.12 178.34,-261.65 181.15,-263.1"/>
<polygon fill="midnightblue" stroke="midnightblue" points="179.79,-266.33 190.32,-267.44 182.78,-260 179.79,-266.33"/>
</g>
<!-- Node3 -->
<g id="node3" class="node">
<title>Node3</title>
<g id="a_node3"><a xlink:href="classcppgc_1_1internal_1_1PersistentBase.html#af217e6169510bb96021b5ffd4002c40a" target="_top" xlink:title=" ">
<polygon fill="white" stroke="black" points="176,-218.5 176,-248.5 304,-248.5 304,-218.5 176,-218.5"/>
<text text-anchor="start" x="184" y="-236.5" font-family="Helvetica,sans-Serif" font-size="10.00">cppgc::internal::Persistent</text>
<text text-anchor="middle" x="240" y="-225.5" font-family="Helvetica,sans-Serif" font-size="10.00">Base::GetNode</text>
</a>
</g>
</g>
<!-- Node1&#45;&gt;Node3 -->
<g id="edge2" class="edge">
<title>Node1&#45;&gt;Node3</title>
<path fill="none" stroke="midnightblue" d="M98.58,-174.53C119.13,-184.9 147.44,-198.71 173,-209.5 177.16,-211.25 181.49,-213 185.86,-214.71"/>
<polygon fill="midnightblue" stroke="midnightblue" points="184.85,-218.07 195.44,-218.37 187.35,-211.53 184.85,-218.07"/>
</g>
<!-- Node4 -->
<g id="node4" class="node">
<title>Node4</title>
<g id="a_node4"><a xlink:href="classcppgc_1_1internal_1_1PersistentBase.html#aa77630a5fd5a70f8391e5e36db76780c" target="_top" xlink:title=" ">
<polygon fill="white" stroke="black" points="176,-169.5 176,-199.5 304,-199.5 304,-169.5 176,-169.5"/>
<text text-anchor="start" x="184" y="-187.5" font-family="Helvetica,sans-Serif" font-size="10.00">cppgc::internal::Persistent</text>
<text text-anchor="middle" x="240" y="-176.5" font-family="Helvetica,sans-Serif" font-size="10.00">Base::GetValue</text>
</a>
</g>
</g>
<!-- Node1&#45;&gt;Node4 -->
<g id="edge3" class="edge">
<title>Node1&#45;&gt;Node4</title>
<path fill="none" stroke="midnightblue" d="M137.47,-169.52C146.8,-170.9 156.42,-172.32 165.84,-173.71"/>
<polygon fill="midnightblue" stroke="midnightblue" points="165.56,-177.21 175.96,-175.2 166.58,-170.28 165.56,-177.21"/>
</g>
<!-- Node5 -->
<g id="node5" class="node">
<title>Node5</title>
<g id="a_node5"><a xlink:href="classcppgc_1_1internal_1_1PersistentBase.html#af84e1d2f71c9cbd3f0a4424339c725cb" target="_top" xlink:title=" ">
<polygon fill="white" stroke="black" points="176,-120.5 176,-150.5 304,-150.5 304,-120.5 176,-120.5"/>
<text text-anchor="start" x="184" y="-138.5" font-family="Helvetica,sans-Serif" font-size="10.00">cppgc::internal::Persistent</text>
<text text-anchor="middle" x="240" y="-127.5" font-family="Helvetica,sans-Serif" font-size="10.00">Base::SetNode</text>
</a>
</g>
</g>
<!-- Node1&#45;&gt;Node5 -->
<g id="edge4" class="edge">
<title>Node1&#45;&gt;Node5</title>
<path fill="none" stroke="midnightblue" d="M137.47,-149.88C146.8,-148.55 156.42,-147.19 165.84,-145.86"/>
<polygon fill="midnightblue" stroke="midnightblue" points="166.55,-149.29 175.96,-144.43 165.57,-142.36 166.55,-149.29"/>
</g>
<!-- Node6 -->
<g id="node6" class="node">
<title>Node6</title>
<g id="a_node6"><a xlink:href="classcppgc_1_1internal_1_1PersistentBase.html#a4aa141bb08a81570f725c71d31c0e681" target="_top" xlink:title=" ">
<polygon fill="white" stroke="black" points="176,-71.5 176,-101.5 304,-101.5 304,-71.5 176,-71.5"/>
<text text-anchor="start" x="184" y="-89.5" font-family="Helvetica,sans-Serif" font-size="10.00">cppgc::internal::Persistent</text>
<text text-anchor="middle" x="240" y="-78.5" font-family="Helvetica,sans-Serif" font-size="10.00">Base::SetValue</text>
</a>
</g>
</g>
<!-- Node1&#45;&gt;Node6 -->
<g id="edge5" class="edge">
<title>Node1&#45;&gt;Node6</title>
<path fill="none" stroke="midnightblue" d="M100.49,-144.42C120.92,-134.65 148.35,-121.87 173,-111.5 178.01,-109.39 183.27,-107.26 188.54,-105.18"/>
<polygon fill="midnightblue" stroke="midnightblue" points="189.93,-108.4 197.98,-101.51 187.39,-101.88 189.93,-108.4"/>
</g>
<!-- Node7 -->
<g id="node7" class="node">
<title>Node7</title>
<g id="a_node7"><a xlink:href="classcppgc_1_1internal_1_1PersistentNode.html#a1ca2104547bd2139cb56233c575a38f9" target="_top" xlink:title=" ">
<polygon fill="white" stroke="black" points="176,-22.5 176,-52.5 304,-52.5 304,-22.5 176,-22.5"/>
<text text-anchor="start" x="184" y="-40.5" font-family="Helvetica,sans-Serif" font-size="10.00">cppgc::internal::Persistent</text>
<text text-anchor="middle" x="240" y="-29.5" font-family="Helvetica,sans-Serif" font-size="10.00">Node::UpdateOwner</text>
</a>
</g>
</g>
<!-- Node1&#45;&gt;Node7 -->
<g id="edge6" class="edge">
<title>Node1&#45;&gt;Node7</title>
<path fill="none" stroke="midnightblue" d="M82.11,-144.43C100.3,-123.53 135.8,-85.69 173,-62.5 176.15,-60.54 179.48,-58.69 182.89,-56.95"/>
<polygon fill="midnightblue" stroke="midnightblue" points="184.54,-60.05 192.1,-52.63 181.56,-53.71 184.54,-60.05"/>
</g>
<!-- Node8 -->
<g id="node8" class="node">
<title>Node8</title>
<g id="a_node8"><a xlink:href="classcppgc_1_1internal_1_1PersistentNode.html#a6117a8f66c181bb22827a21b3fbd3457" target="_top" xlink:title=" ">
<polygon fill="white" stroke="black" points="507,-22.5 507,-52.5 635,-52.5 635,-22.5 507,-22.5"/>
<text text-anchor="start" x="515" y="-40.5" font-family="Helvetica,sans-Serif" font-size="10.00">cppgc::internal::Persistent</text>
<text text-anchor="middle" x="571" y="-29.5" font-family="Helvetica,sans-Serif" font-size="10.00">Node::IsUsed</text>
</a>
</g>
</g>
<!-- Node7&#45;&gt;Node8 -->
<g id="edge7" class="edge">
<title>Node7&#45;&gt;Node8</title>
<path fill="none" stroke="midnightblue" d="M304.11,-39.65C316.98,-40 330.42,-40.32 343,-40.5 399.88,-41.34 414.12,-41.36 471,-40.5 479.34,-40.37 488.08,-40.19 496.76,-39.97"/>
<polygon fill="midnightblue" stroke="midnightblue" points="496.99,-43.46 506.9,-39.7 496.81,-36.47 496.99,-43.46"/>
</g>
<!-- Node9 -->
<g id="node9" class="node">
<title>Node9</title>
<g id="a_node9"><a xlink:href="classcppgc_1_1internal_1_1PersistentNode.html#afb99622120d5c6d6eb763d26b244bc5f" target="_top" xlink:title=" ">
<polygon fill="white" stroke="black" points="343,-0.5 343,-30.5 471,-30.5 471,-0.5 343,-0.5"/>
<text text-anchor="start" x="351" y="-18.5" font-family="Helvetica,sans-Serif" font-size="10.00">cppgc::internal::Persistent</text>
<text text-anchor="middle" x="407" y="-7.5" font-family="Helvetica,sans-Serif" font-size="10.00">Node::owner</text>
</a>
</g>
</g>
<!-- Node7&#45;&gt;Node9 -->
<g id="edge8" class="edge">
<title>Node7&#45;&gt;Node9</title>
<path fill="none" stroke="midnightblue" d="M304.32,-29.06C313.6,-27.82 323.22,-26.54 332.67,-25.28"/>
<polygon fill="midnightblue" stroke="midnightblue" points="333.4,-28.71 342.85,-23.92 332.47,-21.77 333.4,-28.71"/>
</g>
<!-- Node9&#45;&gt;Node8 -->
<g id="edge9" class="edge">
<title>Node9&#45;&gt;Node8</title>
<path fill="none" stroke="midnightblue" d="M471.1,-24.07C479.53,-25.21 488.23,-26.4 496.81,-27.56"/>
<polygon fill="midnightblue" stroke="midnightblue" points="496.43,-31.04 506.81,-28.92 497.37,-24.1 496.43,-31.04"/>
</g>
</g>
</svg>
