<?xml version="1.0" encoding="UTF-8" standalone="no"?>
<!DOCTYPE svg PUBLIC "-//W3C//DTD SVG 1.1//EN"
 "http://www.w3.org/Graphics/SVG/1.1/DTD/svg11.dtd">
<!-- Generated by graphviz version 2.44.0 ()
 -->
<!-- Title: v8::Object Pages: 1 -->
<svg width="674pt" height="807pt"
 viewBox="0.00 0.00 674.00 807.00" xmlns="http://www.w3.org/2000/svg" xmlns:xlink="http://www.w3.org/1999/xlink">
<g id="graph0" class="graph" transform="scale(1 1) rotate(0) translate(4 803)">
<title>v8::Object</title>
<polygon fill="white" stroke="transparent" points="-4,4 -4,-803 670,-803 670,4 -4,4"/>
<!-- Node1 -->
<g id="node1" class="node">
<title>Node1</title>
<g id="a_node1"><a xlink:title=" ">
<polygon fill="#bfbfbf" stroke="black" points="180,-342.5 180,-361.5 240,-361.5 240,-342.5 180,-342.5"/>
<text text-anchor="middle" x="210" y="-349.5" font-family="Helvetica,sans-Serif" font-size="10.00">v8::Object</text>
</a>
</g>
</g>
<!-- Node4 -->
<g id="node4" class="node">
<title>Node4</title>
<g id="a_node4"><a xlink:href="classv8_1_1Array.html" target="_top" xlink:title=" ">
<polygon fill="white" stroke="black" points="310,-684.5 310,-703.5 364,-703.5 364,-684.5 310,-684.5"/>
<text text-anchor="middle" x="337" y="-691.5" font-family="Helvetica,sans-Serif" font-size="10.00">v8::Array</text>
</a>
</g>
</g>
<!-- Node1&#45;&gt;Node4 -->
<g id="edge3" class="edge">
<title>Node1&#45;&gt;Node4</title>
<path fill="none" stroke="midnightblue" d="M212.39,-371.82C217.22,-434.89 235.18,-629.51 276,-675 284.61,-684.6 298.03,-689.38 310,-691.75"/>
<polygon fill="midnightblue" stroke="midnightblue" points="215.87,-371.35 211.64,-361.64 208.89,-371.87 215.87,-371.35"/>
</g>
<!-- Node5 -->
<g id="node5" class="node">
<title>Node5</title>
<g id="a_node5"><a xlink:href="classv8_1_1ArrayBuffer.html" target="_top" xlink:title=" ">
<polygon fill="white" stroke="black" points="297,-646.5 297,-665.5 377,-665.5 377,-646.5 297,-646.5"/>
<text text-anchor="middle" x="337" y="-653.5" font-family="Helvetica,sans-Serif" font-size="10.00">v8::ArrayBuffer</text>
</a>
</g>
</g>
<!-- Node1&#45;&gt;Node5 -->
<g id="edge4" class="edge">
<title>Node1&#45;&gt;Node5</title>
<path fill="none" stroke="midnightblue" d="M212.96,-371.72C219.11,-429.64 239.74,-597.62 276,-637 281.55,-643.03 289,-647.16 296.76,-649.98"/>
<polygon fill="midnightblue" stroke="midnightblue" points="216.43,-371.27 211.93,-361.68 209.47,-371.98 216.43,-371.27"/>
</g>
<!-- Node6 -->
<g id="node6" class="node">
<title>Node6</title>
<g id="a_node6"><a xlink:href="classv8_1_1ArrayBufferView.html" target="_top" xlink:title=" ">
<polygon fill="white" stroke="black" points="286.5,-608.5 286.5,-627.5 387.5,-627.5 387.5,-608.5 286.5,-608.5"/>
<text text-anchor="middle" x="337" y="-615.5" font-family="Helvetica,sans-Serif" font-size="10.00">v8::ArrayBufferView</text>
</a>
</g>
</g>
<!-- Node1&#45;&gt;Node6 -->
<g id="edge5" class="edge">
<title>Node1&#45;&gt;Node6</title>
<path fill="none" stroke="midnightblue" d="M210.21,-371.75C209.48,-417.97 214.28,-534.16 276,-599 279.69,-602.88 284.17,-605.97 288.99,-608.43"/>
<polygon fill="midnightblue" stroke="midnightblue" points="213.72,-371.67 210.49,-361.58 206.72,-371.48 213.72,-371.67"/>
</g>
<!-- Node20 -->
<g id="node20" class="node">
<title>Node20</title>
<g id="a_node20"><a xlink:href="classv8_1_1BigIntObject.html" target="_top" xlink:title=" ">
<polygon fill="white" stroke="black" points="294,-570.5 294,-589.5 380,-589.5 380,-570.5 294,-570.5"/>
<text text-anchor="middle" x="337" y="-577.5" font-family="Helvetica,sans-Serif" font-size="10.00">v8::BigIntObject</text>
</a>
</g>
</g>
<!-- Node1&#45;&gt;Node20 -->
<g id="edge19" class="edge">
<title>Node1&#45;&gt;Node20</title>
<path fill="none" stroke="midnightblue" d="M211.37,-372.03C213.22,-413.23 223.33,-508.06 276,-561 280.93,-565.96 287.15,-569.62 293.7,-572.33"/>
<polygon fill="midnightblue" stroke="midnightblue" points="214.86,-371.79 211.03,-361.91 207.86,-372.02 214.86,-371.79"/>
</g>
<!-- Node21 -->
<g id="node21" class="node">
<title>Node21</title>
<g id="a_node21"><a xlink:href="classv8_1_1BooleanObject.html" target="_top" xlink:title=" ">
<polygon fill="white" stroke="black" points="289.5,-532.5 289.5,-551.5 384.5,-551.5 384.5,-532.5 289.5,-532.5"/>
<text text-anchor="middle" x="337" y="-539.5" font-family="Helvetica,sans-Serif" font-size="10.00">v8::BooleanObject</text>
</a>
</g>
</g>
<!-- Node1&#45;&gt;Node21 -->
<g id="edge20" class="edge">
<title>Node1&#45;&gt;Node21</title>
<path fill="none" stroke="midnightblue" d="M212.96,-371.75C217.52,-407.13 232.05,-481.47 276,-523 280.13,-526.9 285.06,-530 290.29,-532.47"/>
<polygon fill="midnightblue" stroke="midnightblue" points="216.43,-371.26 211.8,-361.73 209.47,-372.06 216.43,-371.26"/>
</g>
<!-- Node22 -->
<g id="node22" class="node">
<title>Node22</title>
<g id="a_node22"><a xlink:href="classv8_1_1Date.html" target="_top" xlink:title=" ">
<polygon fill="white" stroke="black" points="311,-494.5 311,-513.5 363,-513.5 363,-494.5 311,-494.5"/>
<text text-anchor="middle" x="337" y="-501.5" font-family="Helvetica,sans-Serif" font-size="10.00">v8::Date</text>
</a>
</g>
</g>
<!-- Node1&#45;&gt;Node22 -->
<g id="edge21" class="edge">
<title>Node1&#45;&gt;Node22</title>
<path fill="none" stroke="midnightblue" d="M215.3,-371.36C222.71,-400.25 240.62,-454.5 276,-485 285.68,-493.35 299.05,-498.03 310.71,-500.66"/>
<polygon fill="midnightblue" stroke="midnightblue" points="218.7,-370.54 212.96,-361.64 211.9,-372.18 218.7,-370.54"/>
</g>
<!-- Node23 -->
<g id="node23" class="node">
<title>Node23</title>
<g id="a_node23"><a xlink:href="classv8_1_1Function.html" target="_top" xlink:title=" ">
<polygon fill="white" stroke="black" points="302.5,-456.5 302.5,-475.5 371.5,-475.5 371.5,-456.5 302.5,-456.5"/>
<text text-anchor="middle" x="337" y="-463.5" font-family="Helvetica,sans-Serif" font-size="10.00">v8::Function</text>
</a>
</g>
</g>
<!-- Node1&#45;&gt;Node23 -->
<g id="edge22" class="edge">
<title>Node1&#45;&gt;Node23</title>
<path fill="none" stroke="midnightblue" d="M219.28,-371.03C229.57,-392.5 249.11,-427.04 276,-447 283.72,-452.73 293.22,-456.77 302.37,-459.6"/>
<polygon fill="midnightblue" stroke="midnightblue" points="222.34,-369.28 214.98,-361.65 215.97,-372.2 222.34,-369.28"/>
</g>
<!-- Node24 -->
<g id="node24" class="node">
<title>Node24</title>
<g id="a_node24"><a xlink:href="classv8_1_1Map.html" target="_top" xlink:title=" ">
<polygon fill="white" stroke="black" points="312,-418.5 312,-437.5 362,-437.5 362,-418.5 312,-418.5"/>
<text text-anchor="middle" x="337" y="-425.5" font-family="Helvetica,sans-Serif" font-size="10.00">v8::Map</text>
</a>
</g>
</g>
<!-- Node1&#45;&gt;Node24 -->
<g id="edge23" class="edge">
<title>Node1&#45;&gt;Node24</title>
<path fill="none" stroke="midnightblue" d="M226.95,-369.42C239.28,-381.97 257.34,-398.48 276,-409 287.14,-415.28 300.63,-419.79 311.99,-422.83"/>
<polygon fill="midnightblue" stroke="midnightblue" points="229.17,-366.67 219.73,-361.85 224.1,-371.5 229.17,-366.67"/>
</g>
<!-- Node25 -->
<g id="node25" class="node">
<title>Node25</title>
<g id="a_node25"><a xlink:href="classv8_1_1NumberObject.html" target="_top" xlink:title=" ">
<polygon fill="white" stroke="black" points="289.5,-380.5 289.5,-399.5 384.5,-399.5 384.5,-380.5 289.5,-380.5"/>
<text text-anchor="middle" x="337" y="-387.5" font-family="Helvetica,sans-Serif" font-size="10.00">v8::NumberObject</text>
</a>
</g>
</g>
<!-- Node1&#45;&gt;Node25 -->
<g id="edge24" class="edge">
<title>Node1&#45;&gt;Node25</title>
<path fill="none" stroke="midnightblue" d="M250.26,-363.93C267.8,-369.27 288.2,-375.47 304.69,-380.48"/>
<polygon fill="midnightblue" stroke="midnightblue" points="250.89,-360.47 240.31,-360.91 248.86,-367.17 250.89,-360.47"/>
</g>
<!-- Node26 -->
<g id="node26" class="node">
<title>Node26</title>
<g id="a_node26"><a xlink:href="classv8_1_1Promise.html" target="_top" xlink:title=" ">
<polygon fill="white" stroke="black" points="303,-342.5 303,-361.5 371,-361.5 371,-342.5 303,-342.5"/>
<text text-anchor="middle" x="337" y="-349.5" font-family="Helvetica,sans-Serif" font-size="10.00">v8::Promise</text>
</a>
</g>
</g>
<!-- Node1&#45;&gt;Node26 -->
<g id="edge25" class="edge">
<title>Node1&#45;&gt;Node26</title>
<path fill="none" stroke="midnightblue" d="M250.43,-352C267.31,-352 286.8,-352 302.91,-352"/>
<polygon fill="midnightblue" stroke="midnightblue" points="250.31,-348.5 240.31,-352 250.31,-355.5 250.31,-348.5"/>
</g>
<!-- Node27 -->
<g id="node27" class="node">
<title>Node27</title>
<g id="a_node27"><a xlink:href="classv8_1_1Promise_1_1Resolver.html" target="_top" xlink:title=" ">
<polygon fill="white" stroke="black" points="282,-304.5 282,-323.5 392,-323.5 392,-304.5 282,-304.5"/>
<text text-anchor="middle" x="337" y="-311.5" font-family="Helvetica,sans-Serif" font-size="10.00">v8::Promise::Resolver</text>
</a>
</g>
</g>
<!-- Node1&#45;&gt;Node27 -->
<g id="edge26" class="edge">
<title>Node1&#45;&gt;Node27</title>
<path fill="none" stroke="midnightblue" d="M250.26,-340.07C267.8,-334.73 288.2,-328.53 304.69,-323.52"/>
<polygon fill="midnightblue" stroke="midnightblue" points="248.86,-336.83 240.31,-343.09 250.89,-343.53 248.86,-336.83"/>
</g>
<!-- Node28 -->
<g id="node28" class="node">
<title>Node28</title>
<g id="a_node28"><a xlink:href="classv8_1_1Proxy.html" target="_top" xlink:title=" ">
<polygon fill="white" stroke="black" points="309,-266.5 309,-285.5 365,-285.5 365,-266.5 309,-266.5"/>
<text text-anchor="middle" x="337" y="-273.5" font-family="Helvetica,sans-Serif" font-size="10.00">v8::Proxy</text>
</a>
</g>
</g>
<!-- Node1&#45;&gt;Node28 -->
<g id="edge27" class="edge">
<title>Node1&#45;&gt;Node28</title>
<path fill="none" stroke="midnightblue" d="M226.95,-334.58C239.28,-322.03 257.34,-305.52 276,-295 286.09,-289.31 298.11,-285.08 308.73,-282.07"/>
<polygon fill="midnightblue" stroke="midnightblue" points="224.1,-332.5 219.73,-342.15 229.17,-337.33 224.1,-332.5"/>
</g>
<!-- Node29 -->
<g id="node29" class="node">
<title>Node29</title>
<g id="a_node29"><a xlink:href="classv8_1_1RegExp.html" target="_top" xlink:title=" ">
<polygon fill="white" stroke="black" points="304.5,-228.5 304.5,-247.5 369.5,-247.5 369.5,-228.5 304.5,-228.5"/>
<text text-anchor="middle" x="337" y="-235.5" font-family="Helvetica,sans-Serif" font-size="10.00">v8::RegExp</text>
</a>
</g>
</g>
<!-- Node1&#45;&gt;Node29 -->
<g id="edge28" class="edge">
<title>Node1&#45;&gt;Node29</title>
<path fill="none" stroke="midnightblue" d="M219.28,-332.97C229.57,-311.5 249.11,-276.96 276,-257 284.25,-250.88 294.53,-246.69 304.23,-243.84"/>
<polygon fill="midnightblue" stroke="midnightblue" points="215.97,-331.8 214.98,-342.35 222.34,-334.72 215.97,-331.8"/>
</g>
<!-- Node30 -->
<g id="node30" class="node">
<title>Node30</title>
<g id="a_node30"><a xlink:href="classv8_1_1Set.html" target="_top" xlink:title=" ">
<polygon fill="white" stroke="black" points="313.5,-190.5 313.5,-209.5 360.5,-209.5 360.5,-190.5 313.5,-190.5"/>
<text text-anchor="middle" x="337" y="-197.5" font-family="Helvetica,sans-Serif" font-size="10.00">v8::Set</text>
</a>
</g>
</g>
<!-- Node1&#45;&gt;Node30 -->
<g id="edge29" class="edge">
<title>Node1&#45;&gt;Node30</title>
<path fill="none" stroke="midnightblue" d="M215.3,-332.64C222.71,-303.75 240.62,-249.5 276,-219 286.43,-210.01 301.13,-205.27 313.36,-202.77"/>
<polygon fill="midnightblue" stroke="midnightblue" points="211.9,-331.82 212.96,-342.36 218.7,-333.46 211.9,-331.82"/>
</g>
<!-- Node31 -->
<g id="node31" class="node">
<title>Node31</title>
<g id="a_node31"><a xlink:href="classv8_1_1SharedArrayBuffer.html" target="_top" xlink:title=" ">
<polygon fill="white" stroke="black" points="282,-152.5 282,-171.5 392,-171.5 392,-152.5 282,-152.5"/>
<text text-anchor="middle" x="337" y="-159.5" font-family="Helvetica,sans-Serif" font-size="10.00">v8::SharedArrayBuffer</text>
</a>
</g>
</g>
<!-- Node1&#45;&gt;Node31 -->
<g id="edge30" class="edge">
<title>Node1&#45;&gt;Node31</title>
<path fill="none" stroke="midnightblue" d="M212.96,-332.25C217.52,-296.87 232.05,-222.53 276,-181 280.13,-177.1 285.06,-174 290.29,-171.53"/>
<polygon fill="midnightblue" stroke="midnightblue" points="209.47,-331.94 211.8,-342.27 216.43,-332.74 209.47,-331.94"/>
</g>
<!-- Node32 -->
<g id="node32" class="node">
<title>Node32</title>
<g id="a_node32"><a xlink:href="classv8_1_1StringObject.html" target="_top" xlink:title=" ">
<polygon fill="white" stroke="black" points="294,-114.5 294,-133.5 380,-133.5 380,-114.5 294,-114.5"/>
<text text-anchor="middle" x="337" y="-121.5" font-family="Helvetica,sans-Serif" font-size="10.00">v8::StringObject</text>
</a>
</g>
</g>
<!-- Node1&#45;&gt;Node32 -->
<g id="edge31" class="edge">
<title>Node1&#45;&gt;Node32</title>
<path fill="none" stroke="midnightblue" d="M211.37,-331.97C213.22,-290.77 223.33,-195.94 276,-143 280.93,-138.04 287.15,-134.38 293.7,-131.67"/>
<polygon fill="midnightblue" stroke="midnightblue" points="207.86,-331.98 211.03,-342.09 214.86,-332.21 207.86,-331.98"/>
</g>
<!-- Node33 -->
<g id="node33" class="node">
<title>Node33</title>
<g id="a_node33"><a xlink:href="classv8_1_1SymbolObject.html" target="_top" xlink:title=" ">
<polygon fill="white" stroke="black" points="291,-76.5 291,-95.5 383,-95.5 383,-76.5 291,-76.5"/>
<text text-anchor="middle" x="337" y="-83.5" font-family="Helvetica,sans-Serif" font-size="10.00">v8::SymbolObject</text>
</a>
</g>
</g>
<!-- Node1&#45;&gt;Node33 -->
<g id="edge32" class="edge">
<title>Node1&#45;&gt;Node33</title>
<path fill="none" stroke="midnightblue" d="M210.21,-332.25C209.48,-286.03 214.28,-169.84 276,-105 280.14,-100.65 285.28,-97.29 290.78,-94.7"/>
<polygon fill="midnightblue" stroke="midnightblue" points="206.72,-332.52 210.49,-342.42 213.72,-332.33 206.72,-332.52"/>
</g>
<!-- Node34 -->
<g id="node34" class="node">
<title>Node34</title>
<g id="a_node34"><a xlink:href="classv8_1_1WasmMemoryObject.html" target="_top" xlink:title=" ">
<polygon fill="white" stroke="black" points="276,-38.5 276,-57.5 398,-57.5 398,-38.5 276,-38.5"/>
<text text-anchor="middle" x="337" y="-45.5" font-family="Helvetica,sans-Serif" font-size="10.00">v8::WasmMemoryObject</text>
</a>
</g>
</g>
<!-- Node1&#45;&gt;Node34 -->
<g id="edge33" class="edge">
<title>Node1&#45;&gt;Node34</title>
<path fill="none" stroke="midnightblue" d="M212.96,-332.28C219.11,-274.36 239.74,-106.38 276,-67 279.55,-63.14 283.88,-60.06 288.57,-57.61"/>
<polygon fill="midnightblue" stroke="midnightblue" points="209.47,-332.02 211.93,-342.32 216.43,-332.73 209.47,-332.02"/>
</g>
<!-- Node35 -->
<g id="node35" class="node">
<title>Node35</title>
<g id="a_node35"><a xlink:href="classv8_1_1WasmModuleObject.html" target="_top" xlink:title=" ">
<polygon fill="white" stroke="black" points="277.5,-0.5 277.5,-19.5 396.5,-19.5 396.5,-0.5 277.5,-0.5"/>
<text text-anchor="middle" x="337" y="-7.5" font-family="Helvetica,sans-Serif" font-size="10.00">v8::WasmModuleObject</text>
</a>
</g>
</g>
<!-- Node1&#45;&gt;Node35 -->
<g id="edge34" class="edge">
<title>Node1&#45;&gt;Node35</title>
<path fill="none" stroke="midnightblue" d="M212.39,-332.18C217.22,-269.11 235.18,-74.49 276,-29 279.5,-25.1 283.8,-21.99 288.47,-19.52"/>
<polygon fill="midnightblue" stroke="midnightblue" points="208.89,-332.13 211.64,-342.36 215.87,-332.65 208.89,-332.13"/>
</g>
<!-- Node2 -->
<g id="node2" class="node">
<title>Node2</title>
<g id="a_node2"><a xlink:href="classv8_1_1Value.html" target="_top" xlink:title=" ">
<polygon fill="white" stroke="black" points="88,-342.5 88,-361.5 144,-361.5 144,-342.5 88,-342.5"/>
<text text-anchor="middle" x="116" y="-349.5" font-family="Helvetica,sans-Serif" font-size="10.00">v8::Value</text>
</a>
</g>
</g>
<!-- Node2&#45;&gt;Node1 -->
<g id="edge1" class="edge">
<title>Node2&#45;&gt;Node1</title>
<path fill="none" stroke="midnightblue" d="M154.22,-352C162.76,-352 171.71,-352 179.84,-352"/>
<polygon fill="midnightblue" stroke="midnightblue" points="154.11,-348.5 144.11,-352 154.11,-355.5 154.11,-348.5"/>
</g>
<!-- Node3 -->
<g id="node3" class="node">
<title>Node3</title>
<g id="a_node3"><a xlink:href="classv8_1_1Data.html" target="_top" xlink:title=" ">
<polygon fill="white" stroke="black" points="0,-342.5 0,-361.5 52,-361.5 52,-342.5 0,-342.5"/>
<text text-anchor="middle" x="26" y="-349.5" font-family="Helvetica,sans-Serif" font-size="10.00">v8::Data</text>
</a>
</g>
</g>
<!-- Node3&#45;&gt;Node2 -->
<g id="edge2" class="edge">
<title>Node3&#45;&gt;Node2</title>
<path fill="none" stroke="midnightblue" d="M62.72,-352C71.08,-352 79.84,-352 87.76,-352"/>
<polygon fill="midnightblue" stroke="midnightblue" points="62.45,-348.5 52.45,-352 62.45,-355.5 62.45,-348.5"/>
</g>
<!-- Node7 -->
<g id="node7" class="node">
<title>Node7</title>
<g id="a_node7"><a xlink:href="classv8_1_1DataView.html" target="_top" xlink:title=" ">
<polygon fill="white" stroke="black" points="437,-627.5 437,-646.5 511,-646.5 511,-627.5 437,-627.5"/>
<text text-anchor="middle" x="474" y="-634.5" font-family="Helvetica,sans-Serif" font-size="10.00">v8::DataView</text>
</a>
</g>
</g>
<!-- Node6&#45;&gt;Node7 -->
<g id="edge6" class="edge">
<title>Node6&#45;&gt;Node7</title>
<path fill="none" stroke="midnightblue" d="M397.56,-626.38C410.86,-628.25 424.58,-630.19 436.61,-631.88"/>
<polygon fill="midnightblue" stroke="midnightblue" points="397.89,-622.89 387.5,-624.97 396.92,-629.83 397.89,-622.89"/>
</g>
<!-- Node8 -->
<g id="node8" class="node">
<title>Node8</title>
<g id="a_node8"><a xlink:href="classv8_1_1TypedArray.html" target="_top" xlink:title=" ">
<polygon fill="white" stroke="black" points="434,-589.5 434,-608.5 514,-608.5 514,-589.5 434,-589.5"/>
<text text-anchor="middle" x="474" y="-596.5" font-family="Helvetica,sans-Serif" font-size="10.00">v8::TypedArray</text>
</a>
</g>
</g>
<!-- Node6&#45;&gt;Node8 -->
<g id="edge7" class="edge">
<title>Node6&#45;&gt;Node8</title>
<path fill="none" stroke="midnightblue" d="M397.63,-609.61C409.83,-607.89 422.37,-606.13 433.64,-604.54"/>
<polygon fill="midnightblue" stroke="midnightblue" points="396.92,-606.17 387.5,-611.03 397.89,-613.11 396.92,-606.17"/>
</g>
<!-- Node9 -->
<g id="node9" class="node">
<title>Node9</title>
<g id="a_node9"><a xlink:href="classv8_1_1BigInt64Array.html" target="_top" xlink:title=" ">
<polygon fill="white" stroke="black" points="563,-779.5 563,-798.5 653,-798.5 653,-779.5 563,-779.5"/>
<text text-anchor="middle" x="608" y="-786.5" font-family="Helvetica,sans-Serif" font-size="10.00">v8::BigInt64Array</text>
</a>
</g>
</g>
<!-- Node8&#45;&gt;Node9 -->
<g id="edge8" class="edge">
<title>Node8&#45;&gt;Node9</title>
<path fill="none" stroke="midnightblue" d="M510.92,-614.67C512.03,-615.72 513.06,-616.82 514,-618 557.38,-672.2 503.15,-718.77 550,-770 553.59,-773.93 558.01,-777.04 562.79,-779.51"/>
<polygon fill="midnightblue" stroke="midnightblue" points="512.94,-611.81 502.82,-608.68 508.78,-617.44 512.94,-611.81"/>
</g>
<!-- Node10 -->
<g id="node10" class="node">
<title>Node10</title>
<g id="a_node10"><a xlink:href="classv8_1_1BigUint64Array.html" target="_top" xlink:title=" ">
<polygon fill="white" stroke="black" points="559.5,-741.5 559.5,-760.5 656.5,-760.5 656.5,-741.5 559.5,-741.5"/>
<text text-anchor="middle" x="608" y="-748.5" font-family="Helvetica,sans-Serif" font-size="10.00">v8::BigUint64Array</text>
</a>
</g>
</g>
<!-- Node8&#45;&gt;Node10 -->
<g id="edge9" class="edge">
<title>Node8&#45;&gt;Node10</title>
<path fill="none" stroke="midnightblue" d="M510.71,-614.67C511.88,-615.71 512.99,-616.82 514,-618 548.7,-658.24 512.73,-694.13 550,-732 553.8,-735.87 558.42,-738.95 563.35,-741.4"/>
<polygon fill="midnightblue" stroke="midnightblue" points="512.38,-611.56 502.2,-608.64 508.34,-617.28 512.38,-611.56"/>
</g>
<!-- Node11 -->
<g id="node11" class="node">
<title>Node11</title>
<g id="a_node11"><a xlink:href="classv8_1_1Float32Array.html" target="_top" xlink:title=" ">
<polygon fill="white" stroke="black" points="565,-703.5 565,-722.5 651,-722.5 651,-703.5 565,-703.5"/>
<text text-anchor="middle" x="608" y="-710.5" font-family="Helvetica,sans-Serif" font-size="10.00">v8::Float32Array</text>
</a>
</g>
</g>
<!-- Node8&#45;&gt;Node11 -->
<g id="edge10" class="edge">
<title>Node8&#45;&gt;Node11</title>
<path fill="none" stroke="midnightblue" d="M509.49,-614.05C511.09,-615.28 512.61,-616.59 514,-618 540.28,-644.57 522.03,-669.21 550,-694 554.37,-697.87 559.56,-700.96 564.99,-703.42"/>
<polygon fill="midnightblue" stroke="midnightblue" points="511.28,-611.03 500.98,-608.58 507.5,-616.93 511.28,-611.03"/>
</g>
<!-- Node12 -->
<g id="node12" class="node">
<title>Node12</title>
<g id="a_node12"><a xlink:href="classv8_1_1Float64Array.html" target="_top" xlink:title=" ">
<polygon fill="white" stroke="black" points="565,-665.5 565,-684.5 651,-684.5 651,-665.5 565,-665.5"/>
<text text-anchor="middle" x="608" y="-672.5" font-family="Helvetica,sans-Serif" font-size="10.00">v8::Float64Array</text>
</a>
</g>
</g>
<!-- Node8&#45;&gt;Node12 -->
<g id="edge11" class="edge">
<title>Node8&#45;&gt;Node12</title>
<path fill="none" stroke="midnightblue" d="M507.01,-613.4C509.44,-614.85 511.8,-616.39 514,-618 532.76,-631.76 530.38,-643.5 550,-656 555.98,-659.81 562.81,-662.94 569.61,-665.47"/>
<polygon fill="midnightblue" stroke="midnightblue" points="508.52,-610.24 498.07,-608.54 505.18,-616.39 508.52,-610.24"/>
</g>
<!-- Node13 -->
<g id="node13" class="node">
<title>Node13</title>
<g id="a_node13"><a xlink:href="classv8_1_1Int16Array.html" target="_top" xlink:title=" ">
<polygon fill="white" stroke="black" points="570,-627.5 570,-646.5 646,-646.5 646,-627.5 570,-627.5"/>
<text text-anchor="middle" x="608" y="-634.5" font-family="Helvetica,sans-Serif" font-size="10.00">v8::Int16Array</text>
</a>
</g>
</g>
<!-- Node8&#45;&gt;Node13 -->
<g id="edge12" class="edge">
<title>Node8&#45;&gt;Node13</title>
<path fill="none" stroke="midnightblue" d="M518.04,-611.39C536.12,-616.59 556.82,-622.55 573.7,-627.41"/>
<polygon fill="midnightblue" stroke="midnightblue" points="518.89,-607.99 508.31,-608.59 516.95,-614.72 518.89,-607.99"/>
</g>
<!-- Node14 -->
<g id="node14" class="node">
<title>Node14</title>
<g id="a_node14"><a xlink:href="classv8_1_1Int32Array.html" target="_top" xlink:title=" ">
<polygon fill="white" stroke="black" points="570,-589.5 570,-608.5 646,-608.5 646,-589.5 570,-589.5"/>
<text text-anchor="middle" x="608" y="-596.5" font-family="Helvetica,sans-Serif" font-size="10.00">v8::Int32Array</text>
</a>
</g>
</g>
<!-- Node8&#45;&gt;Node14 -->
<g id="edge13" class="edge">
<title>Node8&#45;&gt;Node14</title>
<path fill="none" stroke="midnightblue" d="M524.45,-599C539.52,-599 555.83,-599 569.94,-599"/>
<polygon fill="midnightblue" stroke="midnightblue" points="524.25,-595.5 514.25,-599 524.25,-602.5 524.25,-595.5"/>
</g>
<!-- Node15 -->
<g id="node15" class="node">
<title>Node15</title>
<g id="a_node15"><a xlink:href="classv8_1_1Int8Array.html" target="_top" xlink:title=" ">
<polygon fill="white" stroke="black" points="572.5,-551.5 572.5,-570.5 643.5,-570.5 643.5,-551.5 572.5,-551.5"/>
<text text-anchor="middle" x="608" y="-558.5" font-family="Helvetica,sans-Serif" font-size="10.00">v8::Int8Array</text>
</a>
</g>
</g>
<!-- Node8&#45;&gt;Node15 -->
<g id="edge14" class="edge">
<title>Node8&#45;&gt;Node15</title>
<path fill="none" stroke="midnightblue" d="M518.04,-586.61C536.12,-581.41 556.82,-575.45 573.7,-570.59"/>
<polygon fill="midnightblue" stroke="midnightblue" points="516.95,-583.28 508.31,-589.41 518.89,-590.01 516.95,-583.28"/>
</g>
<!-- Node16 -->
<g id="node16" class="node">
<title>Node16</title>
<g id="a_node16"><a xlink:href="classv8_1_1Uint16Array.html" target="_top" xlink:title=" ">
<polygon fill="white" stroke="black" points="566.5,-513.5 566.5,-532.5 649.5,-532.5 649.5,-513.5 566.5,-513.5"/>
<text text-anchor="middle" x="608" y="-520.5" font-family="Helvetica,sans-Serif" font-size="10.00">v8::Uint16Array</text>
</a>
</g>
</g>
<!-- Node8&#45;&gt;Node16 -->
<g id="edge15" class="edge">
<title>Node8&#45;&gt;Node16</title>
<path fill="none" stroke="midnightblue" d="M493.11,-582.51C507.62,-569.99 528.96,-553.11 550,-542 556.92,-538.35 564.68,-535.2 572.19,-532.58"/>
<polygon fill="midnightblue" stroke="midnightblue" points="490.6,-580.05 485.41,-589.29 495.23,-585.31 490.6,-580.05"/>
</g>
<!-- Node17 -->
<g id="node17" class="node">
<title>Node17</title>
<g id="a_node17"><a xlink:href="classv8_1_1Uint32Array.html" target="_top" xlink:title=" ">
<polygon fill="white" stroke="black" points="566.5,-475.5 566.5,-494.5 649.5,-494.5 649.5,-475.5 566.5,-475.5"/>
<text text-anchor="middle" x="608" y="-482.5" font-family="Helvetica,sans-Serif" font-size="10.00">v8::Uint32Array</text>
</a>
</g>
</g>
<!-- Node8&#45;&gt;Node17 -->
<g id="edge16" class="edge">
<title>Node8&#45;&gt;Node17</title>
<path fill="none" stroke="midnightblue" d="M485.01,-580.65C497.53,-559.31 520.92,-524.42 550,-504 555.46,-500.16 561.76,-497.06 568.13,-494.56"/>
<polygon fill="midnightblue" stroke="midnightblue" points="481.93,-578.98 480.03,-589.4 488.02,-582.43 481.93,-578.98"/>
</g>
<!-- Node18 -->
<g id="node18" class="node">
<title>Node18</title>
<g id="a_node18"><a xlink:href="classv8_1_1Uint8Array.html" target="_top" xlink:title=" ">
<polygon fill="white" stroke="black" points="569.5,-437.5 569.5,-456.5 646.5,-456.5 646.5,-437.5 569.5,-437.5"/>
<text text-anchor="middle" x="608" y="-444.5" font-family="Helvetica,sans-Serif" font-size="10.00">v8::Uint8Array</text>
</a>
</g>
</g>
<!-- Node8&#45;&gt;Node18 -->
<g id="edge17" class="edge">
<title>Node8&#45;&gt;Node18</title>
<path fill="none" stroke="midnightblue" d="M480.88,-579.67C490.63,-550.83 512.82,-496.66 550,-466 555.63,-461.35 562.45,-457.83 569.38,-455.16"/>
<polygon fill="midnightblue" stroke="midnightblue" points="477.49,-578.79 477.75,-589.38 484.15,-580.94 477.49,-578.79"/>
</g>
<!-- Node19 -->
<g id="node19" class="node">
<title>Node19</title>
<g id="a_node19"><a xlink:href="classv8_1_1Uint8ClampedArray.html" target="_top" xlink:title=" ">
<polygon fill="white" stroke="black" points="550,-399.5 550,-418.5 666,-418.5 666,-399.5 550,-399.5"/>
<text text-anchor="middle" x="608" y="-406.5" font-family="Helvetica,sans-Serif" font-size="10.00">v8::Uint8ClampedArray</text>
</a>
</g>
</g>
<!-- Node8&#45;&gt;Node19 -->
<g id="edge18" class="edge">
<title>Node8&#45;&gt;Node19</title>
<path fill="none" stroke="midnightblue" d="M478.27,-579.26C485.15,-543.91 504.4,-469.6 550,-428 554.24,-424.13 559.29,-421.05 564.6,-418.59"/>
<polygon fill="midnightblue" stroke="midnightblue" points="474.79,-578.82 476.45,-589.28 481.68,-580.06 474.79,-578.82"/>
</g>
</g>
</svg>
