<?xml version="1.0" encoding="UTF-8" standalone="no"?>
<!DOCTYPE svg PUBLIC "-//W3C//DTD SVG 1.1//EN"
 "http://www.w3.org/Graphics/SVG/1.1/DTD/svg11.dtd">
<!-- Generated by graphviz version 2.44.0 ()
 -->
<!-- Title: cppgc::subtle::HeapConsistency::DijkstraWriteBarrierRange Pages: 1 -->
<svg width="514pt" height="39pt"
 viewBox="0.00 0.00 514.00 39.00" xmlns="http://www.w3.org/2000/svg" xmlns:xlink="http://www.w3.org/1999/xlink">
<g id="graph0" class="graph" transform="scale(1 1) rotate(0) translate(4 35)">
<title>cppgc::subtle::HeapConsistency::DijkstraWriteBarrierRange</title>
<polygon fill="white" stroke="transparent" points="-4,4 -4,-35 510,-35 510,4 -4,4"/>
<!-- Node1 -->
<g id="node1" class="node">
<title>Node1</title>
<g id="a_node1"><a xlink:title=" ">
<polygon fill="#bfbfbf" stroke="black" points="0,-0.5 0,-30.5 155,-30.5 155,-0.5 0,-0.5"/>
<text text-anchor="start" x="8" y="-18.5" font-family="Helvetica,sans-Serif" font-size="10.00">cppgc::subtle::HeapConsistency</text>
<text text-anchor="middle" x="77.5" y="-7.5" font-family="Helvetica,sans-Serif" font-size="10.00">::DijkstraWriteBarrierRange</text>
</a>
</g>
</g>
<!-- Node2 -->
<g id="node2" class="node">
<title>Node2</title>
<g id="a_node2"><a xlink:href="classcppgc_1_1internal_1_1WriteBarrier.html#ae206b73f5d2cc97b54b877df902dd0c1" target="_top" xlink:title=" ">
<polygon fill="white" stroke="black" points="191,-0.5 191,-30.5 336,-30.5 336,-0.5 191,-0.5"/>
<text text-anchor="start" x="199" y="-18.5" font-family="Helvetica,sans-Serif" font-size="10.00">cppgc::internal::WriteBarrier</text>
<text text-anchor="middle" x="263.5" y="-7.5" font-family="Helvetica,sans-Serif" font-size="10.00">::DijkstraMarkingBarrierRange</text>
</a>
</g>
</g>
<!-- Node1&#45;&gt;Node2 -->
<g id="edge1" class="edge">
<title>Node1&#45;&gt;Node2</title>
<path fill="none" stroke="midnightblue" d="M155.2,-15.5C163.61,-15.5 172.2,-15.5 180.67,-15.5"/>
<polygon fill="midnightblue" stroke="midnightblue" points="180.93,-19 190.93,-15.5 180.93,-12 180.93,-19"/>
</g>
<!-- Node3 -->
<g id="node3" class="node">
<title>Node3</title>
<g id="a_node3"><a xlink:href="classcppgc_1_1internal_1_1WriteBarrier.html#a23c41cf46d6e6c09033835fda0aaea1e" target="_top" xlink:title=" ">
<polygon fill="white" stroke="black" points="372,-0.5 372,-30.5 506,-30.5 506,-0.5 372,-0.5"/>
<text text-anchor="start" x="380" y="-18.5" font-family="Helvetica,sans-Serif" font-size="10.00">cppgc::internal::WriteBarrier</text>
<text text-anchor="middle" x="439" y="-7.5" font-family="Helvetica,sans-Serif" font-size="10.00">::CheckParams</text>
</a>
</g>
</g>
<!-- Node2&#45;&gt;Node3 -->
<g id="edge2" class="edge">
<title>Node2&#45;&gt;Node3</title>
<path fill="none" stroke="midnightblue" d="M336.07,-15.5C344.5,-15.5 353.12,-15.5 361.62,-15.5"/>
<polygon fill="midnightblue" stroke="midnightblue" points="361.88,-19 371.88,-15.5 361.88,-12 361.88,-19"/>
</g>
</g>
</svg>
