<?xml version="1.0" encoding="UTF-8" standalone="no"?>
<!DOCTYPE svg PUBLIC "-//W3C//DTD SVG 1.1//EN"
 "http://www.w3.org/Graphics/SVG/1.1/DTD/svg11.dtd">
<!-- Generated by graphviz version 2.44.0 ()
 -->
<!-- Title: include/cppgc/internal/compiler&#45;specific.h Pages: 1 -->
<svg width="278pt" height="95pt"
 viewBox="0.00 0.00 278.00 95.00" xmlns="http://www.w3.org/2000/svg" xmlns:xlink="http://www.w3.org/1999/xlink">
<g id="graph0" class="graph" transform="scale(1 1) rotate(0) translate(4 91)">
<title>include/cppgc/internal/compiler&#45;specific.h</title>
<polygon fill="white" stroke="transparent" points="-4,4 -4,-91 274,-91 274,4 -4,4"/>
<!-- Node1 -->
<g id="node1" class="node">
<title>Node1</title>
<g id="a_node1"><a xlink:title=" ">
<polygon fill="#bfbfbf" stroke="black" points="76,-56.5 76,-86.5 187,-86.5 187,-56.5 76,-56.5"/>
<text text-anchor="start" x="84" y="-74.5" font-family="Helvetica,sans-Serif" font-size="10.00">include/cppgc/internal</text>
<text text-anchor="middle" x="131.5" y="-63.5" font-family="Helvetica,sans-Serif" font-size="10.00">/compiler&#45;specific.h</text>
</a>
</g>
</g>
<!-- Node2 -->
<g id="node2" class="node">
<title>Node2</title>
<g id="a_node2"><a xlink:href="macros_8h.html" target="_top" xlink:title=" ">
<polygon fill="white" stroke="black" points="0,-0.5 0,-19.5 119,-19.5 119,-0.5 0,-0.5"/>
<text text-anchor="middle" x="59.5" y="-7.5" font-family="Helvetica,sans-Serif" font-size="10.00">include/cppgc/macros.h</text>
</a>
</g>
</g>
<!-- Node1&#45;&gt;Node2 -->
<g id="edge1" class="edge">
<title>Node1&#45;&gt;Node2</title>
<path fill="none" stroke="midnightblue" d="M106.56,-49.89C94.04,-39.54 79.54,-27.56 69.98,-19.66"/>
<polygon fill="midnightblue" stroke="midnightblue" points="104.5,-52.73 114.44,-56.4 108.96,-47.33 104.5,-52.73"/>
</g>
<!-- Node3 -->
<g id="node3" class="node">
<title>Node3</title>
<g id="a_node3"><a xlink:href="prefinalizer_8h.html" target="_top" xlink:title=" ">
<polygon fill="white" stroke="black" points="137,-0.5 137,-19.5 270,-19.5 270,-0.5 137,-0.5"/>
<text text-anchor="middle" x="203.5" y="-7.5" font-family="Helvetica,sans-Serif" font-size="10.00">include/cppgc/prefinalizer.h</text>
</a>
</g>
</g>
<!-- Node1&#45;&gt;Node3 -->
<g id="edge2" class="edge">
<title>Node1&#45;&gt;Node3</title>
<path fill="none" stroke="midnightblue" d="M156.44,-49.89C168.96,-39.54 183.46,-27.56 193.02,-19.66"/>
<polygon fill="midnightblue" stroke="midnightblue" points="154.04,-47.33 148.56,-56.4 158.5,-52.73 154.04,-47.33"/>
</g>
</g>
</svg>
