<?xml version="1.0" encoding="UTF-8" standalone="no"?>
<!DOCTYPE svg PUBLIC "-//W3C//DTD SVG 1.1//EN"
 "http://www.w3.org/Graphics/SVG/1.1/DTD/svg11.dtd">
<!-- Generated by graphviz version 2.44.0 ()
 -->
<!-- Title: include/cppgc/cross&#45;thread&#45;persistent.h Pages: 1 -->
<svg width="1678pt" height="587pt"
 viewBox="0.00 0.00 1678.00 587.00" xmlns="http://www.w3.org/2000/svg" xmlns:xlink="http://www.w3.org/1999/xlink">
<g id="graph0" class="graph" transform="scale(1 1) rotate(0) translate(4 583)">
<title>include/cppgc/cross&#45;thread&#45;persistent.h</title>
<polygon fill="white" stroke="transparent" points="-4,4 -4,-583 1674,-583 1674,4 -4,4"/>
<!-- Node1 -->
<g id="node1" class="node">
<title>Node1</title>
<g id="a_node1"><a xlink:title=" ">
<polygon fill="#bfbfbf" stroke="black" points="935,-548.5 935,-578.5 1039,-578.5 1039,-548.5 935,-548.5"/>
<text text-anchor="start" x="943" y="-566.5" font-family="Helvetica,sans-Serif" font-size="10.00">include/cppgc/cross</text>
<text text-anchor="middle" x="987" y="-555.5" font-family="Helvetica,sans-Serif" font-size="10.00">&#45;thread&#45;persistent.h</text>
</a>
</g>
</g>
<!-- Node2 -->
<g id="node2" class="node">
<title>Node2</title>
<g id="a_node2"><a xlink:title=" ">
<polygon fill="white" stroke="#bfbfbf" points="15,-0.5 15,-19.5 61,-19.5 61,-0.5 15,-0.5"/>
<text text-anchor="middle" x="38" y="-7.5" font-family="Helvetica,sans-Serif" font-size="10.00">atomic</text>
</a>
</g>
</g>
<!-- Node1&#45;&gt;Node2 -->
<g id="edge1" class="edge">
<title>Node1&#45;&gt;Node2</title>
<path fill="none" stroke="midnightblue" d="M934.98,-561.93C731.41,-559.04 0,-542.05 0,-447 0,-447 0,-447 0,-137.5 0,-97.35 17.78,-52.95 29.01,-28.89"/>
<polygon fill="midnightblue" stroke="midnightblue" points="32.29,-30.15 33.49,-19.63 25.99,-27.1 32.29,-30.15"/>
</g>
<!-- Node3 -->
<g id="node3" class="node">
<title>Node3</title>
<g id="a_node3"><a xlink:href="persistent-node_8h.html" target="_top" xlink:title=" ">
<polygon fill="white" stroke="black" points="581.5,-257.5 581.5,-287.5 704.5,-287.5 704.5,-257.5 581.5,-257.5"/>
<text text-anchor="start" x="589.5" y="-275.5" font-family="Helvetica,sans-Serif" font-size="10.00">cppgc/internal/persistent</text>
<text text-anchor="middle" x="643" y="-264.5" font-family="Helvetica,sans-Serif" font-size="10.00">&#45;node.h</text>
</a>
</g>
</g>
<!-- Node1&#45;&gt;Node3 -->
<g id="edge2" class="edge">
<title>Node1&#45;&gt;Node3</title>
<path fill="none" stroke="midnightblue" d="M934.88,-559.41C772.43,-549.11 286,-512.76 286,-447 286,-447 286,-447 286,-389 286,-329.66 466.8,-296.28 571.07,-281.97"/>
<polygon fill="midnightblue" stroke="midnightblue" points="571.78,-285.41 581.22,-280.6 570.85,-278.47 571.78,-285.41"/>
</g>
<!-- Node14 -->
<g id="node14" class="node">
<title>Node14</title>
<g id="a_node14"><a xlink:href="pointer-policies_8h.html" target="_top" xlink:title=" ">
<polygon fill="white" stroke="black" points="1171,-257.5 1171,-287.5 1281,-287.5 1281,-257.5 1171,-257.5"/>
<text text-anchor="start" x="1179" y="-275.5" font-family="Helvetica,sans-Serif" font-size="10.00">cppgc/internal/pointer</text>
<text text-anchor="middle" x="1226" y="-264.5" font-family="Helvetica,sans-Serif" font-size="10.00">&#45;policies.h</text>
</a>
</g>
</g>
<!-- Node1&#45;&gt;Node14 -->
<g id="edge17" class="edge">
<title>Node1&#45;&gt;Node14</title>
<path fill="none" stroke="midnightblue" d="M1039.06,-550.74C1065.3,-542.93 1096.45,-530.61 1120,-512 1189.46,-457.11 1204.86,-429.71 1227,-344 1230.89,-328.94 1230.67,-311.47 1229.47,-297.68"/>
<polygon fill="midnightblue" stroke="midnightblue" points="1232.92,-297.09 1228.35,-287.54 1225.96,-297.86 1232.92,-297.09"/>
</g>
<!-- Node22 -->
<g id="node22" class="node">
<title>Node22</title>
<g id="a_node22"><a xlink:href="persistent_8h.html" target="_top" xlink:title=" ">
<polygon fill="white" stroke="black" points="1015,-492.5 1015,-511.5 1111,-511.5 1111,-492.5 1015,-492.5"/>
<text text-anchor="middle" x="1063" y="-499.5" font-family="Helvetica,sans-Serif" font-size="10.00">cppgc/persistent.h</text>
</a>
</g>
</g>
<!-- Node1&#45;&gt;Node22 -->
<g id="edge33" class="edge">
<title>Node1&#45;&gt;Node22</title>
<path fill="none" stroke="midnightblue" d="M1005.01,-548.4C1016.74,-539.22 1032.02,-527.26 1043.94,-517.92"/>
<polygon fill="midnightblue" stroke="midnightblue" points="1046.22,-520.58 1051.94,-511.66 1041.91,-515.07 1046.22,-520.58"/>
</g>
<!-- Node23 -->
<g id="node23" class="node">
<title>Node23</title>
<g id="a_node23"><a xlink:href="visitor_8h.html" target="_top" xlink:title=" ">
<polygon fill="white" stroke="black" points="1023,-436.5 1023,-455.5 1103,-455.5 1103,-436.5 1023,-436.5"/>
<text text-anchor="middle" x="1063" y="-443.5" font-family="Helvetica,sans-Serif" font-size="10.00">cppgc/visitor.h</text>
</a>
</g>
</g>
<!-- Node1&#45;&gt;Node23 -->
<g id="edge83" class="edge">
<title>Node1&#45;&gt;Node23</title>
<path fill="none" stroke="midnightblue" d="M988.16,-548.45C989.98,-533.41 994.56,-509.36 1006,-492 1014.21,-479.54 1027.02,-468.98 1038.41,-461.23"/>
<polygon fill="midnightblue" stroke="midnightblue" points="1040.6,-463.98 1047.13,-455.64 1036.82,-458.09 1040.6,-463.98"/>
</g>
<!-- Node4 -->
<g id="node4" class="node">
<title>Node4</title>
<g id="a_node4"><a xlink:title=" ">
<polygon fill="white" stroke="#bfbfbf" points="598,-196 598,-215 636,-215 636,-196 598,-196"/>
<text text-anchor="middle" x="617" y="-203" font-family="Helvetica,sans-Serif" font-size="10.00">array</text>
</a>
</g>
</g>
<!-- Node3&#45;&gt;Node4 -->
<g id="edge3" class="edge">
<title>Node3&#45;&gt;Node4</title>
<path fill="none" stroke="midnightblue" d="M637.36,-257.4C633.51,-247.76 628.37,-234.91 624.21,-224.54"/>
<polygon fill="midnightblue" stroke="midnightblue" points="627.44,-223.18 620.48,-215.19 620.94,-225.78 627.44,-223.18"/>
</g>
<!-- Node5 -->
<g id="node5" class="node">
<title>Node5</title>
<g id="a_node5"><a xlink:title=" ">
<polygon fill="white" stroke="#bfbfbf" points="175.5,-62 175.5,-81 226.5,-81 226.5,-62 175.5,-62"/>
<text text-anchor="middle" x="201" y="-69" font-family="Helvetica,sans-Serif" font-size="10.00">memory</text>
</a>
</g>
</g>
<!-- Node3&#45;&gt;Node5 -->
<g id="edge4" class="edge">
<title>Node3&#45;&gt;Node5</title>
<path fill="none" stroke="midnightblue" d="M581.45,-262.8C540.88,-255.43 487.44,-242.52 444,-221 424.16,-211.17 424.88,-199.75 405,-190 344.61,-160.39 313.5,-192 258,-154 234.68,-138.03 217.88,-109.17 208.79,-90.42"/>
<polygon fill="midnightblue" stroke="midnightblue" points="211.91,-88.82 204.55,-81.2 205.55,-91.74 211.91,-88.82"/>
</g>
<!-- Node6 -->
<g id="node6" class="node">
<title>Node6</title>
<g id="a_node6"><a xlink:title=" ">
<polygon fill="white" stroke="#bfbfbf" points="352,-196 352,-215 396,-215 396,-196 352,-196"/>
<text text-anchor="middle" x="374" y="-203" font-family="Helvetica,sans-Serif" font-size="10.00">vector</text>
</a>
</g>
</g>
<!-- Node3&#45;&gt;Node6 -->
<g id="edge5" class="edge">
<title>Node3&#45;&gt;Node6</title>
<path fill="none" stroke="midnightblue" d="M581.44,-261.1C534.04,-252.39 467.17,-238.57 410,-221 407.72,-220.3 405.38,-219.51 403.04,-218.68"/>
<polygon fill="midnightblue" stroke="midnightblue" points="404.18,-215.37 393.59,-215.09 401.69,-221.91 404.18,-215.37"/>
</g>
<!-- Node7 -->
<g id="node7" class="node">
<title>Node7</title>
<g id="a_node7"><a xlink:href="logging_8h.html" target="_top" xlink:title=" ">
<polygon fill="white" stroke="black" points="654.5,-196 654.5,-215 773.5,-215 773.5,-196 654.5,-196"/>
<text text-anchor="middle" x="714" y="-203" font-family="Helvetica,sans-Serif" font-size="10.00">cppgc/internal/logging.h</text>
</a>
</g>
</g>
<!-- Node3&#45;&gt;Node7 -->
<g id="edge6" class="edge">
<title>Node3&#45;&gt;Node7</title>
<path fill="none" stroke="midnightblue" d="M658.41,-257.4C669.81,-246.96 685.33,-232.75 697.07,-222"/>
<polygon fill="midnightblue" stroke="midnightblue" points="699.49,-224.53 704.5,-215.19 694.76,-219.37 699.49,-224.53"/>
</g>
<!-- Node10 -->
<g id="node10" class="node">
<title>Node10</title>
<g id="a_node10"><a xlink:href="v8config_8h.html" target="_top" xlink:title=" ">
<polygon fill="white" stroke="black" points="810,-62 810,-81 870,-81 870,-62 810,-62"/>
<text text-anchor="middle" x="840" y="-69" font-family="Helvetica,sans-Serif" font-size="10.00">v8config.h</text>
</a>
</g>
</g>
<!-- Node3&#45;&gt;Node10 -->
<g id="edge16" class="edge">
<title>Node3&#45;&gt;Node10</title>
<path fill="none" stroke="midnightblue" d="M704.67,-261.25C731.63,-253.99 761.87,-241.71 783,-221 819.89,-184.85 833.3,-122.26 837.85,-91.16"/>
<polygon fill="midnightblue" stroke="midnightblue" points="841.32,-91.6 839.15,-81.23 834.38,-90.69 841.32,-91.6"/>
</g>
<!-- Node11 -->
<g id="node11" class="node">
<title>Node11</title>
<g id="a_node11"><a xlink:href="trace-trait_8h.html" target="_top" xlink:title=" ">
<polygon fill="white" stroke="black" points="1210.5,-129 1210.5,-148 1305.5,-148 1305.5,-129 1210.5,-129"/>
<text text-anchor="middle" x="1258" y="-136" font-family="Helvetica,sans-Serif" font-size="10.00">cppgc/trace&#45;trait.h</text>
</a>
</g>
</g>
<!-- Node3&#45;&gt;Node11 -->
<g id="edge11" class="edge">
<title>Node3&#45;&gt;Node11</title>
<path fill="none" stroke="midnightblue" d="M704.88,-267.77C834.81,-259.62 1127.46,-239.48 1169,-221 1185.97,-213.45 1222.14,-177.25 1242.76,-155.72"/>
<polygon fill="midnightblue" stroke="midnightblue" points="1245.49,-157.93 1249.83,-148.27 1240.41,-153.11 1245.49,-157.93"/>
</g>
<!-- Node8 -->
<g id="node8" class="node">
<title>Node8</title>
<g id="a_node8"><a xlink:href="source-location_8h.html" target="_top" xlink:title=" ">
<polygon fill="white" stroke="black" points="358.5,-129 358.5,-148 477.5,-148 477.5,-129 358.5,-129"/>
<text text-anchor="middle" x="418" y="-136" font-family="Helvetica,sans-Serif" font-size="10.00">cppgc/source&#45;location.h</text>
</a>
</g>
</g>
<!-- Node7&#45;&gt;Node8 -->
<g id="edge7" class="edge">
<title>Node7&#45;&gt;Node8</title>
<path fill="none" stroke="midnightblue" d="M675,-195.94C621.54,-184.2 525.49,-163.11 467.17,-150.3"/>
<polygon fill="midnightblue" stroke="midnightblue" points="467.61,-146.81 457.09,-148.08 466.1,-153.65 467.61,-146.81"/>
</g>
<!-- Node7&#45;&gt;Node10 -->
<g id="edge10" class="edge">
<title>Node7&#45;&gt;Node10</title>
<path fill="none" stroke="midnightblue" d="M727.05,-195.69C740.57,-186.23 761.93,-170.36 778,-154 797.97,-133.67 817.25,-106.84 828.86,-89.63"/>
<polygon fill="midnightblue" stroke="midnightblue" points="831.87,-91.42 834.48,-81.15 826.04,-87.55 831.87,-91.42"/>
</g>
<!-- Node9 -->
<g id="node9" class="node">
<title>Node9</title>
<g id="a_node9"><a xlink:title=" ">
<polygon fill="white" stroke="#bfbfbf" points="392.5,-62 392.5,-81 433.5,-81 433.5,-62 392.5,-62"/>
<text text-anchor="middle" x="413" y="-69" font-family="Helvetica,sans-Serif" font-size="10.00">string</text>
</a>
</g>
</g>
<!-- Node8&#45;&gt;Node9 -->
<g id="edge8" class="edge">
<title>Node8&#45;&gt;Node9</title>
<path fill="none" stroke="midnightblue" d="M417.33,-128.73C416.59,-119.18 415.39,-103.62 414.44,-91.28"/>
<polygon fill="midnightblue" stroke="midnightblue" points="417.92,-90.83 413.66,-81.13 410.94,-91.37 417.92,-90.83"/>
</g>
<!-- Node8&#45;&gt;Node10 -->
<g id="edge9" class="edge">
<title>Node8&#45;&gt;Node10</title>
<path fill="none" stroke="midnightblue" d="M456.6,-128.93C466.48,-126.86 477.12,-124.74 487,-123 599.85,-103.09 734.05,-85.57 799.73,-77.39"/>
<polygon fill="midnightblue" stroke="midnightblue" points="800.18,-80.87 809.67,-76.16 799.32,-73.92 800.18,-80.87"/>
</g>
<!-- Node11&#45;&gt;Node10 -->
<g id="edge15" class="edge">
<title>Node11&#45;&gt;Node10</title>
<path fill="none" stroke="midnightblue" d="M1227.63,-128.96C1219.36,-126.82 1210.37,-124.66 1202,-123 1086.2,-100.01 947.52,-83.76 880.38,-76.6"/>
<polygon fill="midnightblue" stroke="midnightblue" points="880.54,-73.1 870.23,-75.53 879.81,-80.06 880.54,-73.1"/>
</g>
<!-- Node12 -->
<g id="node12" class="node">
<title>Node12</title>
<g id="a_node12"><a xlink:title=" ">
<polygon fill="white" stroke="#bfbfbf" points="1430,-0.5 1430,-19.5 1492,-19.5 1492,-0.5 1430,-0.5"/>
<text text-anchor="middle" x="1461" y="-7.5" font-family="Helvetica,sans-Serif" font-size="10.00">type_traits</text>
</a>
</g>
</g>
<!-- Node11&#45;&gt;Node12 -->
<g id="edge12" class="edge">
<title>Node11&#45;&gt;Node12</title>
<path fill="none" stroke="midnightblue" d="M1262.19,-128.97C1270.75,-112.44 1291.82,-75.89 1320,-56 1349.86,-34.92 1390.06,-23.38 1419.9,-17.28"/>
<polygon fill="midnightblue" stroke="midnightblue" points="1420.83,-20.66 1429.99,-15.34 1419.51,-13.79 1420.83,-20.66"/>
</g>
<!-- Node13 -->
<g id="node13" class="node">
<title>Node13</title>
<g id="a_node13"><a xlink:href="type-traits_8h.html" target="_top" xlink:title=" ">
<polygon fill="white" stroke="black" points="1508,-62 1508,-81 1604,-81 1604,-62 1508,-62"/>
<text text-anchor="middle" x="1556" y="-69" font-family="Helvetica,sans-Serif" font-size="10.00">cppgc/type&#45;traits.h</text>
</a>
</g>
</g>
<!-- Node11&#45;&gt;Node13 -->
<g id="edge13" class="edge">
<title>Node11&#45;&gt;Node13</title>
<path fill="none" stroke="midnightblue" d="M1297.26,-128.94C1351.2,-117.17 1448.18,-96.02 1506.86,-83.22"/>
<polygon fill="midnightblue" stroke="midnightblue" points="1507.62,-86.63 1516.65,-81.08 1506.13,-79.8 1507.62,-86.63"/>
</g>
<!-- Node13&#45;&gt;Node12 -->
<g id="edge14" class="edge">
<title>Node13&#45;&gt;Node12</title>
<path fill="none" stroke="midnightblue" d="M1542.39,-61.98C1526.94,-52.3 1501.51,-36.37 1483.18,-24.89"/>
<polygon fill="midnightblue" stroke="midnightblue" points="1484.92,-21.85 1474.59,-19.51 1481.2,-27.78 1484.92,-21.85"/>
</g>
<!-- Node14&#45;&gt;Node8 -->
<g id="edge31" class="edge">
<title>Node14&#45;&gt;Node8</title>
<path fill="none" stroke="midnightblue" d="M1170.94,-265.35C1104.41,-257.42 989.29,-242.1 892,-221 842.78,-210.32 832.37,-199.96 783,-190 653.09,-163.79 617.75,-175.65 487,-154 480.18,-152.87 473.02,-151.54 465.99,-150.14"/>
<polygon fill="midnightblue" stroke="midnightblue" points="466.35,-146.64 455.85,-148.07 464.95,-153.5 466.35,-146.64"/>
</g>
<!-- Node14&#45;&gt;Node10 -->
<g id="edge32" class="edge">
<title>Node14&#45;&gt;Node10</title>
<path fill="none" stroke="midnightblue" d="M1170.73,-265.89C1133.59,-259.81 1085.2,-247.18 1050,-221 1008.45,-190.1 1027.74,-154.96 987,-123 955.68,-98.43 911.63,-85.41 879.94,-78.78"/>
<polygon fill="midnightblue" stroke="midnightblue" points="880.6,-75.34 870.11,-76.85 879.25,-82.21 880.6,-75.34"/>
</g>
<!-- Node14&#45;&gt;Node12 -->
<g id="edge19" class="edge">
<title>Node14&#45;&gt;Node12</title>
<path fill="none" stroke="midnightblue" d="M1280.74,-257.44C1303.23,-249.57 1328.33,-237.86 1347,-221 1408.35,-165.6 1443.26,-69.21 1455.72,-29.21"/>
<polygon fill="midnightblue" stroke="midnightblue" points="1459.12,-30.09 1458.65,-19.5 1452.41,-28.07 1459.12,-30.09"/>
</g>
<!-- Node15 -->
<g id="node15" class="node">
<title>Node15</title>
<g id="a_node15"><a xlink:title=" ">
<polygon fill="white" stroke="#bfbfbf" points="1292,-196 1292,-215 1338,-215 1338,-196 1292,-196"/>
<text text-anchor="middle" x="1315" y="-203" font-family="Helvetica,sans-Serif" font-size="10.00">cstdint</text>
</a>
</g>
</g>
<!-- Node14&#45;&gt;Node15 -->
<g id="edge18" class="edge">
<title>Node14&#45;&gt;Node15</title>
<path fill="none" stroke="midnightblue" d="M1245.31,-257.4C1259.96,-246.7 1280.04,-232.03 1294.88,-221.19"/>
<polygon fill="midnightblue" stroke="midnightblue" points="1297.34,-223.73 1303.35,-215.01 1293.21,-218.08 1297.34,-223.73"/>
</g>
<!-- Node16 -->
<g id="node16" class="node">
<title>Node16</title>
<g id="a_node16"><a xlink:href="write-barrier_8h.html" target="_top" xlink:title=" ">
<polygon fill="white" stroke="black" points="1058.5,-190.5 1058.5,-220.5 1159.5,-220.5 1159.5,-190.5 1058.5,-190.5"/>
<text text-anchor="start" x="1066.5" y="-208.5" font-family="Helvetica,sans-Serif" font-size="10.00">cppgc/internal/write</text>
<text text-anchor="middle" x="1109" y="-197.5" font-family="Helvetica,sans-Serif" font-size="10.00">&#45;barrier.h</text>
</a>
</g>
</g>
<!-- Node14&#45;&gt;Node16 -->
<g id="edge20" class="edge">
<title>Node14&#45;&gt;Node16</title>
<path fill="none" stroke="midnightblue" d="M1200.61,-257.4C1183.82,-248.07 1161.61,-235.73 1143.26,-225.53"/>
<polygon fill="midnightblue" stroke="midnightblue" points="1144.78,-222.37 1134.34,-220.58 1141.38,-228.49 1144.78,-222.37"/>
</g>
<!-- Node16&#45;&gt;Node10 -->
<g id="edge30" class="edge">
<title>Node16&#45;&gt;Node10</title>
<path fill="none" stroke="midnightblue" d="M1098.37,-190.48C1083.8,-172.23 1055.89,-140.62 1025,-123 979.21,-96.88 919.28,-83.75 880.23,-77.54"/>
<polygon fill="midnightblue" stroke="midnightblue" points="880.7,-74.07 870.28,-76.03 879.65,-80.99 880.7,-74.07"/>
</g>
<!-- Node16&#45;&gt;Node11 -->
<g id="edge29" class="edge">
<title>Node16&#45;&gt;Node11</title>
<path fill="none" stroke="midnightblue" d="M1141.33,-190.4C1167.47,-178.99 1203.95,-163.08 1229.12,-152.1"/>
<polygon fill="midnightblue" stroke="midnightblue" points="1230.73,-155.21 1238.5,-148.01 1227.93,-148.8 1230.73,-155.21"/>
</g>
<!-- Node17 -->
<g id="node17" class="node">
<title>Node17</title>
<g id="a_node17"><a xlink:href="api-constants_8h.html" target="_top" xlink:title=" ">
<polygon fill="white" stroke="black" points="604.5,-123.5 604.5,-153.5 697.5,-153.5 697.5,-123.5 604.5,-123.5"/>
<text text-anchor="start" x="612.5" y="-141.5" font-family="Helvetica,sans-Serif" font-size="10.00">cppgc/internal/api</text>
<text text-anchor="middle" x="651" y="-130.5" font-family="Helvetica,sans-Serif" font-size="10.00">&#45;constants.h</text>
</a>
</g>
</g>
<!-- Node16&#45;&gt;Node17 -->
<g id="edge21" class="edge">
<title>Node16&#45;&gt;Node17</title>
<path fill="none" stroke="midnightblue" d="M1058.24,-197.3C972.01,-185.06 797.55,-160.3 707.54,-147.52"/>
<polygon fill="midnightblue" stroke="midnightblue" points="707.92,-144.04 697.52,-146.1 706.93,-150.97 707.92,-144.04"/>
</g>
<!-- Node20 -->
<g id="node20" class="node">
<title>Node20</title>
<g id="a_node20"><a xlink:href="process-heap_8h.html" target="_top" xlink:title=" ">
<polygon fill="white" stroke="black" points="1077.5,-123.5 1077.5,-153.5 1192.5,-153.5 1192.5,-123.5 1077.5,-123.5"/>
<text text-anchor="start" x="1085.5" y="-141.5" font-family="Helvetica,sans-Serif" font-size="10.00">cppgc/internal/process</text>
<text text-anchor="middle" x="1135" y="-130.5" font-family="Helvetica,sans-Serif" font-size="10.00">&#45;heap.h</text>
</a>
</g>
</g>
<!-- Node16&#45;&gt;Node20 -->
<g id="edge25" class="edge">
<title>Node16&#45;&gt;Node20</title>
<path fill="none" stroke="midnightblue" d="M1114.64,-190.4C1117.84,-182.39 1121.94,-172.16 1125.61,-162.98"/>
<polygon fill="midnightblue" stroke="midnightblue" points="1128.91,-164.16 1129.37,-153.58 1122.41,-161.56 1128.91,-164.16"/>
</g>
<!-- Node17&#45;&gt;Node10 -->
<g id="edge24" class="edge">
<title>Node17&#45;&gt;Node10</title>
<path fill="none" stroke="midnightblue" d="M692.01,-123.4C725.91,-111.74 773.49,-95.37 805.47,-84.38"/>
<polygon fill="midnightblue" stroke="midnightblue" points="806.95,-87.57 815.26,-81.01 804.67,-80.95 806.95,-87.57"/>
</g>
<!-- Node18 -->
<g id="node18" class="node">
<title>Node18</title>
<g id="a_node18"><a xlink:title=" ">
<polygon fill="white" stroke="#bfbfbf" points="249.5,-62 249.5,-81 300.5,-81 300.5,-62 249.5,-62"/>
<text text-anchor="middle" x="275" y="-69" font-family="Helvetica,sans-Serif" font-size="10.00">stddef.h</text>
</a>
</g>
</g>
<!-- Node17&#45;&gt;Node18 -->
<g id="edge22" class="edge">
<title>Node17&#45;&gt;Node18</title>
<path fill="none" stroke="midnightblue" d="M604.29,-124.73C601.49,-124.11 598.71,-123.53 596,-123 469.79,-98.56 433.1,-120.54 309,-87 306.7,-86.38 304.35,-85.63 302.02,-84.81"/>
<polygon fill="midnightblue" stroke="midnightblue" points="303.25,-81.54 292.67,-81.13 300.69,-88.05 303.25,-81.54"/>
</g>
<!-- Node19 -->
<g id="node19" class="node">
<title>Node19</title>
<g id="a_node19"><a xlink:title=" ">
<polygon fill="white" stroke="#bfbfbf" points="542,-62 542,-81 590,-81 590,-62 542,-62"/>
<text text-anchor="middle" x="566" y="-69" font-family="Helvetica,sans-Serif" font-size="10.00">stdint.h</text>
</a>
</g>
</g>
<!-- Node17&#45;&gt;Node19 -->
<g id="edge23" class="edge">
<title>Node17&#45;&gt;Node19</title>
<path fill="none" stroke="midnightblue" d="M632.56,-123.4C618.65,-112.76 599.61,-98.2 585.46,-87.38"/>
<polygon fill="midnightblue" stroke="midnightblue" points="587.44,-84.49 577.37,-81.19 583.19,-90.05 587.44,-84.49"/>
</g>
<!-- Node20&#45;&gt;Node10 -->
<g id="edge28" class="edge">
<title>Node20&#45;&gt;Node10</title>
<path fill="none" stroke="midnightblue" d="M1077.42,-124.81C1019.38,-112.02 931.3,-92.62 880.33,-81.39"/>
<polygon fill="midnightblue" stroke="midnightblue" points="880.86,-77.92 870.34,-79.19 879.35,-84.76 880.86,-77.92"/>
</g>
<!-- Node21 -->
<g id="node21" class="node">
<title>Node21</title>
<g id="a_node21"><a xlink:href="atomic-entry-flag_8h.html" target="_top" xlink:title=" ">
<polygon fill="white" stroke="black" points="984,-56.5 984,-86.5 1094,-86.5 1094,-56.5 984,-56.5"/>
<text text-anchor="start" x="992" y="-74.5" font-family="Helvetica,sans-Serif" font-size="10.00">cppgc/internal/atomic</text>
<text text-anchor="middle" x="1039" y="-63.5" font-family="Helvetica,sans-Serif" font-size="10.00">&#45;entry&#45;flag.h</text>
</a>
</g>
</g>
<!-- Node20&#45;&gt;Node21 -->
<g id="edge26" class="edge">
<title>Node20&#45;&gt;Node21</title>
<path fill="none" stroke="midnightblue" d="M1114.17,-123.4C1100.71,-114.28 1083,-102.29 1068.15,-92.24"/>
<polygon fill="midnightblue" stroke="midnightblue" points="1070.03,-89.28 1059.79,-86.58 1066.11,-95.08 1070.03,-89.28"/>
</g>
<!-- Node21&#45;&gt;Node2 -->
<g id="edge27" class="edge">
<title>Node21&#45;&gt;Node2</title>
<path fill="none" stroke="midnightblue" d="M983.87,-65C953.05,-62.05 913.91,-58.52 879,-56 565,-33.38 184.3,-16.98 71.2,-12.34"/>
<polygon fill="midnightblue" stroke="midnightblue" points="71.23,-8.83 61.1,-11.92 70.95,-15.83 71.23,-8.83"/>
</g>
<!-- Node22&#45;&gt;Node3 -->
<g id="edge35" class="edge">
<title>Node22&#45;&gt;Node3</title>
<path fill="none" stroke="midnightblue" d="M1014.91,-499.26C937.52,-495.63 789.67,-485.02 747,-456 690.39,-417.51 660.88,-337.33 649.17,-297.31"/>
<polygon fill="midnightblue" stroke="midnightblue" points="652.51,-296.28 646.45,-287.59 645.77,-298.17 652.51,-296.28"/>
</g>
<!-- Node22&#45;&gt;Node8 -->
<g id="edge37" class="edge">
<title>Node22&#45;&gt;Node8</title>
<path fill="none" stroke="midnightblue" d="M1014.76,-499.6C839.68,-493.9 248,-468.86 248,-391 248,-391 248,-391 248,-271.5 248,-206.34 326.87,-168.71 377.17,-151.33"/>
<polygon fill="midnightblue" stroke="midnightblue" points="378.43,-154.6 386.82,-148.12 376.23,-147.96 378.43,-154.6"/>
</g>
<!-- Node22&#45;&gt;Node10 -->
<g id="edge82" class="edge">
<title>Node22&#45;&gt;Node10</title>
<path fill="none" stroke="midnightblue" d="M1014.56,-495.08C960.03,-485.54 873.87,-461.15 834,-400 829.15,-392.55 833.86,-388.89 834,-380 835.56,-279.52 839.44,-254.48 841,-154 841.33,-132.6 840.92,-108.03 840.53,-91.51"/>
<polygon fill="midnightblue" stroke="midnightblue" points="844.02,-90.97 840.26,-81.07 837.02,-91.15 844.02,-90.97"/>
</g>
<!-- Node22&#45;&gt;Node12 -->
<g id="edge34" class="edge">
<title>Node22&#45;&gt;Node12</title>
<path fill="none" stroke="midnightblue" d="M1111.23,-492.74C1112.84,-492.49 1114.43,-492.24 1116,-492 1239.69,-473.01 1670,-516.14 1670,-391 1670,-391 1670,-391 1670,-137.5 1670,-59.92 1563.3,-28.62 1502.37,-17.07"/>
<polygon fill="midnightblue" stroke="midnightblue" points="1502.75,-13.59 1492.29,-15.26 1501.51,-20.48 1502.75,-13.59"/>
</g>
<!-- Node22&#45;&gt;Node13 -->
<g id="edge38" class="edge">
<title>Node22&#45;&gt;Node13</title>
<path fill="none" stroke="midnightblue" d="M1110.53,-492.44C1247.29,-467.73 1632,-397.62 1632,-391 1632,-391 1632,-391 1632,-204.5 1632,-157.19 1594.88,-111.54 1572.53,-88.33"/>
<polygon fill="midnightblue" stroke="midnightblue" points="1574.86,-85.71 1565.32,-81.09 1569.89,-90.65 1574.86,-85.71"/>
</g>
<!-- Node22&#45;&gt;Node14 -->
<g id="edge36" class="edge">
<title>Node22&#45;&gt;Node14</title>
<path fill="none" stroke="midnightblue" d="M1075.25,-492.47C1104.55,-471.28 1178.57,-412.98 1210,-344 1216.65,-329.4 1220.65,-311.8 1222.99,-297.84"/>
<polygon fill="midnightblue" stroke="midnightblue" points="1226.51,-297.96 1224.52,-287.55 1219.58,-296.93 1226.51,-297.96"/>
</g>
<!-- Node22&#45;&gt;Node23 -->
<g id="edge39" class="edge">
<title>Node22&#45;&gt;Node23</title>
<path fill="none" stroke="midnightblue" d="M1063,-492.08C1063,-485.01 1063,-474.86 1063,-465.99"/>
<polygon fill="midnightblue" stroke="midnightblue" points="1066.5,-465.75 1063,-455.75 1059.5,-465.75 1066.5,-465.75"/>
</g>
<!-- Node23&#45;&gt;Node7 -->
<g id="edge64" class="edge">
<title>Node23&#45;&gt;Node7</title>
<path fill="none" stroke="midnightblue" d="M1022.72,-445.51C978.13,-444.11 906.08,-435.83 857,-400 825.47,-376.99 835.44,-355.94 813,-324 786.08,-285.68 749.52,-244.66 729.2,-222.66"/>
<polygon fill="midnightblue" stroke="midnightblue" points="731.64,-220.14 722.27,-215.21 726.52,-224.91 731.64,-220.14"/>
</g>
<!-- Node23&#45;&gt;Node8 -->
<g id="edge79" class="edge">
<title>Node23&#45;&gt;Node8</title>
<path fill="none" stroke="midnightblue" d="M1022.93,-439.42C875.94,-418.57 372.6,-343.55 328,-288 318.2,-275.8 316.94,-214.57 332,-190 342.84,-172.31 362.37,-160.12 380.08,-152.15"/>
<polygon fill="midnightblue" stroke="midnightblue" points="381.79,-155.23 389.67,-148.15 379.09,-148.77 381.79,-155.23"/>
</g>
<!-- Node23&#45;&gt;Node11 -->
<g id="edge80" class="edge">
<title>Node23&#45;&gt;Node11</title>
<path fill="none" stroke="midnightblue" d="M1103.24,-442.39C1183.9,-434.7 1363.97,-404.65 1438,-288 1479.11,-223.22 1360.9,-173.02 1296.59,-151.28"/>
<polygon fill="midnightblue" stroke="midnightblue" points="1297.35,-147.85 1286.76,-148.04 1295.16,-154.49 1297.35,-147.85"/>
</g>
<!-- Node23&#45;&gt;Node13 -->
<g id="edge81" class="edge">
<title>Node23&#45;&gt;Node13</title>
<path fill="none" stroke="midnightblue" d="M1103.39,-443.07C1156.02,-439.44 1250.16,-429.11 1325,-400 1367.86,-383.33 1376.03,-372.65 1412,-344 1473.21,-295.24 1497.06,-287.69 1538,-221 1561.31,-183.04 1560.32,-167.52 1559,-123 1558.69,-112.51 1558.01,-100.82 1557.38,-91.33"/>
<polygon fill="midnightblue" stroke="midnightblue" points="1560.86,-90.8 1556.66,-81.07 1553.87,-91.29 1560.86,-90.8"/>
</g>
<!-- Node23&#45;&gt;Node14 -->
<g id="edge65" class="edge">
<title>Node23&#45;&gt;Node14</title>
<path fill="none" stroke="midnightblue" d="M1086.43,-436.36C1104.52,-428.82 1129.36,-416.5 1147,-400 1178.99,-370.06 1203.21,-324.43 1215.95,-296.93"/>
<polygon fill="midnightblue" stroke="midnightblue" points="1219.2,-298.24 1220.12,-287.69 1212.82,-295.37 1219.2,-298.24"/>
</g>
<!-- Node24 -->
<g id="node24" class="node">
<title>Node24</title>
<g id="a_node24"><a xlink:href="custom-space_8h.html" target="_top" xlink:title=" ">
<polygon fill="white" stroke="black" points="104.5,-196 104.5,-215 219.5,-215 219.5,-196 104.5,-196"/>
<text text-anchor="middle" x="162" y="-203" font-family="Helvetica,sans-Serif" font-size="10.00">cppgc/custom&#45;space.h</text>
</a>
</g>
</g>
<!-- Node23&#45;&gt;Node24 -->
<g id="edge40" class="edge">
<title>Node23&#45;&gt;Node24</title>
<path fill="none" stroke="midnightblue" d="M1022.73,-442.74C904.48,-434.91 549.8,-402.74 283,-288 243.15,-270.86 202.46,-240.18 179.9,-221.74"/>
<polygon fill="midnightblue" stroke="midnightblue" points="181.84,-218.81 171.91,-215.11 177.37,-224.19 181.84,-218.81"/>
</g>
<!-- Node25 -->
<g id="node25" class="node">
<title>Node25</title>
<g id="a_node25"><a xlink:href="ephemeron-pair_8h.html" target="_top" xlink:title=" ">
<polygon fill="white" stroke="black" points="1003,-380.5 1003,-399.5 1123,-399.5 1123,-380.5 1003,-380.5"/>
<text text-anchor="middle" x="1063" y="-387.5" font-family="Helvetica,sans-Serif" font-size="10.00">cppgc/ephemeron&#45;pair.h</text>
</a>
</g>
</g>
<!-- Node23&#45;&gt;Node25 -->
<g id="edge42" class="edge">
<title>Node23&#45;&gt;Node25</title>
<path fill="none" stroke="midnightblue" d="M1063,-436.08C1063,-429.01 1063,-418.86 1063,-409.99"/>
<polygon fill="midnightblue" stroke="midnightblue" points="1066.5,-409.75 1063,-399.75 1059.5,-409.75 1066.5,-409.75"/>
</g>
<!-- Node26 -->
<g id="node26" class="node">
<title>Node26</title>
<g id="a_node26"><a xlink:href="member_8h.html" target="_top" xlink:title=" ">
<polygon fill="white" stroke="black" points="1039.5,-324.5 1039.5,-343.5 1128.5,-343.5 1128.5,-324.5 1039.5,-324.5"/>
<text text-anchor="middle" x="1084" y="-331.5" font-family="Helvetica,sans-Serif" font-size="10.00">cppgc/member.h</text>
</a>
</g>
</g>
<!-- Node23&#45;&gt;Node26 -->
<g id="edge78" class="edge">
<title>Node23&#45;&gt;Node26</title>
<path fill="none" stroke="midnightblue" d="M1086.79,-436.5C1102.72,-429.41 1122.46,-417.61 1132,-400 1142.07,-381.41 1123.64,-362.18 1106.78,-349.5"/>
<polygon fill="midnightblue" stroke="midnightblue" points="1108.46,-346.4 1098.27,-343.51 1104.43,-352.13 1108.46,-346.4"/>
</g>
<!-- Node28 -->
<g id="node28" class="node">
<title>Node28</title>
<g id="a_node28"><a xlink:href="garbage-collected_8h.html" target="_top" xlink:title=" ">
<polygon fill="white" stroke="black" points="1299,-263 1299,-282 1429,-282 1429,-263 1299,-263"/>
<text text-anchor="middle" x="1364" y="-270" font-family="Helvetica,sans-Serif" font-size="10.00">cppgc/garbage&#45;collected.h</text>
</a>
</g>
</g>
<!-- Node23&#45;&gt;Node28 -->
<g id="edge50" class="edge">
<title>Node23&#45;&gt;Node28</title>
<path fill="none" stroke="midnightblue" d="M1086.28,-436.46C1108.12,-428.14 1141.46,-414.64 1169,-400 1235.73,-364.54 1309.18,-313.27 1343.81,-288.29"/>
<polygon fill="midnightblue" stroke="midnightblue" points="1346.09,-290.96 1352.13,-282.26 1341.98,-285.29 1346.09,-290.96"/>
</g>
<!-- Node32 -->
<g id="node32" class="node">
<title>Node32</title>
<g id="a_node32"><a xlink:href="liveness-broker_8h.html" target="_top" xlink:title=" ">
<polygon fill="white" stroke="black" points="865.5,-380.5 865.5,-399.5 984.5,-399.5 984.5,-380.5 865.5,-380.5"/>
<text text-anchor="middle" x="925" y="-387.5" font-family="Helvetica,sans-Serif" font-size="10.00">cppgc/liveness&#45;broker.h</text>
</a>
</g>
</g>
<!-- Node23&#45;&gt;Node32 -->
<g id="edge66" class="edge">
<title>Node23&#45;&gt;Node32</title>
<path fill="none" stroke="midnightblue" d="M1041.13,-436.44C1018.22,-427.48 982.02,-413.31 956.13,-403.18"/>
<polygon fill="midnightblue" stroke="midnightblue" points="957.35,-399.9 946.76,-399.52 954.8,-406.42 957.35,-399.9"/>
</g>
<!-- Node24&#45;&gt;Node18 -->
<g id="edge41" class="edge">
<title>Node24&#45;&gt;Node18</title>
<path fill="none" stroke="midnightblue" d="M169.41,-195.84C188.01,-174.11 236.89,-117.02 261.06,-88.79"/>
<polygon fill="midnightblue" stroke="midnightblue" points="263.86,-90.89 267.71,-81.02 258.54,-86.34 263.86,-90.89"/>
</g>
<!-- Node25&#45;&gt;Node26 -->
<g id="edge43" class="edge">
<title>Node25&#45;&gt;Node26</title>
<path fill="none" stroke="midnightblue" d="M1066.47,-380.08C1069.31,-372.77 1073.43,-362.18 1076.96,-353.1"/>
<polygon fill="midnightblue" stroke="midnightblue" points="1080.23,-354.34 1080.6,-343.75 1073.71,-351.8 1080.23,-354.34"/>
</g>
<!-- Node26&#45;&gt;Node2 -->
<g id="edge44" class="edge">
<title>Node26&#45;&gt;Node2</title>
<path fill="none" stroke="midnightblue" d="M1039.39,-332.37C839.74,-328.98 38,-308.99 38,-206.5 38,-206.5 38,-206.5 38,-137.5 38,-99.2 38,-54.38 38,-29.7"/>
<polygon fill="midnightblue" stroke="midnightblue" points="41.5,-29.59 38,-19.59 34.5,-29.59 41.5,-29.59"/>
</g>
<!-- Node26&#45;&gt;Node10 -->
<g id="edge49" class="edge">
<title>Node26&#45;&gt;Node10</title>
<path fill="none" stroke="midnightblue" d="M1083.59,-324.33C1082.52,-309.46 1078.69,-278.59 1065,-257 1051.47,-235.66 1039.42,-238.3 1021,-221 977.68,-180.31 976.7,-159.76 930,-123 910.94,-108 886.86,-94.74 868.41,-85.57"/>
<polygon fill="midnightblue" stroke="midnightblue" points="869.86,-82.38 859.33,-81.17 866.8,-88.68 869.86,-82.38"/>
</g>
<!-- Node26&#45;&gt;Node12 -->
<g id="edge46" class="edge">
<title>Node26&#45;&gt;Node12</title>
<path fill="none" stroke="midnightblue" d="M1091.51,-324.19C1104.67,-309.11 1133.27,-277.93 1162,-257 1189.64,-236.86 1201.34,-239.66 1230,-221 1321.63,-161.33 1412.3,-65.29 1446.62,-27.26"/>
<polygon fill="midnightblue" stroke="midnightblue" points="1449.35,-29.45 1453.41,-19.67 1444.13,-24.78 1449.35,-29.45"/>
</g>
<!-- Node26&#45;&gt;Node13 -->
<g id="edge48" class="edge">
<title>Node26&#45;&gt;Node13</title>
<path fill="none" stroke="midnightblue" d="M1128.79,-330.48C1211.21,-325.33 1383.5,-312.01 1438,-288 1506.99,-257.61 1522.36,-226.78 1542,-154 1547.71,-132.83 1551.59,-107.91 1553.79,-91.25"/>
<polygon fill="midnightblue" stroke="midnightblue" points="1557.28,-91.54 1555.05,-81.18 1550.34,-90.67 1557.28,-91.54"/>
</g>
<!-- Node26&#45;&gt;Node14 -->
<g id="edge47" class="edge">
<title>Node26&#45;&gt;Node14</title>
<path fill="none" stroke="midnightblue" d="M1104.35,-324.48C1124.84,-315.89 1157.07,-302.38 1183.21,-291.43"/>
<polygon fill="midnightblue" stroke="midnightblue" points="1184.66,-294.62 1192.53,-287.52 1181.96,-288.16 1184.66,-294.62"/>
</g>
<!-- Node27 -->
<g id="node27" class="node">
<title>Node27</title>
<g id="a_node27"><a xlink:title=" ">
<polygon fill="white" stroke="#bfbfbf" points="1006.5,-263 1006.5,-282 1055.5,-282 1055.5,-263 1006.5,-263"/>
<text text-anchor="middle" x="1031" y="-270" font-family="Helvetica,sans-Serif" font-size="10.00">cstddef</text>
</a>
</g>
</g>
<!-- Node26&#45;&gt;Node27 -->
<g id="edge45" class="edge">
<title>Node26&#45;&gt;Node27</title>
<path fill="none" stroke="midnightblue" d="M1076.41,-324.48C1068.3,-315.37 1055.27,-300.74 1045.24,-289.48"/>
<polygon fill="midnightblue" stroke="midnightblue" points="1047.84,-287.15 1038.58,-282.01 1042.62,-291.8 1047.84,-287.15"/>
</g>
<!-- Node28&#45;&gt;Node11 -->
<g id="edge62" class="edge">
<title>Node28&#45;&gt;Node11</title>
<path fill="none" stroke="midnightblue" d="M1364.41,-262.97C1364.74,-247.05 1363.35,-212.42 1347,-190 1334.07,-172.28 1312.91,-159.9 1294.47,-151.84"/>
<polygon fill="midnightblue" stroke="midnightblue" points="1295.71,-148.57 1285.13,-148.01 1293.05,-155.04 1295.71,-148.57"/>
</g>
<!-- Node28&#45;&gt;Node12 -->
<g id="edge51" class="edge">
<title>Node28&#45;&gt;Node12</title>
<path fill="none" stroke="midnightblue" d="M1396.29,-262.9C1417.22,-255.48 1442.94,-242.48 1456,-221 1493.25,-159.74 1476.24,-68.72 1466.33,-29.78"/>
<polygon fill="midnightblue" stroke="midnightblue" points="1469.64,-28.6 1463.67,-19.85 1462.88,-30.41 1469.64,-28.6"/>
</g>
<!-- Node28&#45;&gt;Node13 -->
<g id="edge63" class="edge">
<title>Node28&#45;&gt;Node13</title>
<path fill="none" stroke="midnightblue" d="M1410.47,-262.98C1437.78,-255.85 1471.29,-243.15 1494,-221 1513.4,-202.08 1539,-126.55 1550.27,-91.08"/>
<polygon fill="midnightblue" stroke="midnightblue" points="1553.75,-91.68 1553.39,-81.09 1547.06,-89.59 1553.75,-91.68"/>
</g>
<!-- Node28&#45;&gt;Node17 -->
<g id="edge52" class="edge">
<title>Node28&#45;&gt;Node17</title>
<path fill="none" stroke="midnightblue" d="M1322.19,-262.97C1311.69,-260.92 1300.45,-258.81 1290,-257 1183.72,-238.63 1156.21,-239.8 1050,-221 927.41,-199.3 784.68,-168.89 707.52,-152.02"/>
<polygon fill="midnightblue" stroke="midnightblue" points="708.05,-148.55 697.53,-149.83 706.55,-155.39 708.05,-148.55"/>
</g>
<!-- Node29 -->
<g id="node29" class="node">
<title>Node29</title>
<g id="a_node29"><a xlink:href="platform_8h.html" target="_top" xlink:title=" ">
<polygon fill="white" stroke="black" points="452.5,-196 452.5,-215 541.5,-215 541.5,-196 452.5,-196"/>
<text text-anchor="middle" x="497" y="-203" font-family="Helvetica,sans-Serif" font-size="10.00">cppgc/platform.h</text>
</a>
</g>
</g>
<!-- Node28&#45;&gt;Node29 -->
<g id="edge53" class="edge">
<title>Node28&#45;&gt;Node29</title>
<path fill="none" stroke="midnightblue" d="M1325.76,-262.93C1314.31,-260.66 1301.69,-258.44 1290,-257 980.37,-218.91 899.29,-253.33 589,-221 576.94,-219.74 564.05,-217.98 551.85,-216.11"/>
<polygon fill="midnightblue" stroke="midnightblue" points="552.22,-212.63 541.8,-214.53 551.13,-219.54 552.22,-212.63"/>
</g>
<!-- Node29&#45;&gt;Node10 -->
<g id="edge61" class="edge">
<title>Node29&#45;&gt;Node10</title>
<path fill="none" stroke="midnightblue" d="M531.62,-195.95C539.62,-193.98 548.11,-191.91 556,-190 623.06,-173.77 644.27,-182.72 707,-154 728.42,-144.19 730.14,-135.67 750,-123 771.22,-109.46 796.26,-95.57 814.53,-85.79"/>
<polygon fill="midnightblue" stroke="midnightblue" points="816.22,-88.86 823.42,-81.08 812.94,-82.67 816.22,-88.86"/>
</g>
<!-- Node30 -->
<g id="node30" class="node">
<title>Node30</title>
<g id="a_node30"><a xlink:href="v8-platform_8h.html" target="_top" xlink:title=" ">
<polygon fill="white" stroke="black" points="267.5,-129 267.5,-148 340.5,-148 340.5,-129 267.5,-129"/>
<text text-anchor="middle" x="304" y="-136" font-family="Helvetica,sans-Serif" font-size="10.00">v8&#45;platform.h</text>
</a>
</g>
</g>
<!-- Node29&#45;&gt;Node30 -->
<g id="edge54" class="edge">
<title>Node29&#45;&gt;Node30</title>
<path fill="none" stroke="midnightblue" d="M471.37,-195.87C437.39,-184.42 377.28,-164.18 339.1,-151.32"/>
<polygon fill="midnightblue" stroke="midnightblue" points="340.02,-147.94 329.43,-148.06 337.79,-154.57 340.02,-147.94"/>
</g>
<!-- Node30&#45;&gt;Node5 -->
<g id="edge58" class="edge">
<title>Node30&#45;&gt;Node5</title>
<path fill="none" stroke="midnightblue" d="M290.11,-128.73C272.97,-117.92 243.6,-99.38 223.29,-86.57"/>
<polygon fill="midnightblue" stroke="midnightblue" points="225,-83.5 214.67,-81.13 221.26,-89.42 225,-83.5"/>
</g>
<!-- Node30&#45;&gt;Node9 -->
<g id="edge59" class="edge">
<title>Node30&#45;&gt;Node9</title>
<path fill="none" stroke="midnightblue" d="M318.7,-128.73C336.92,-117.87 368.2,-99.22 389.7,-86.39"/>
<polygon fill="midnightblue" stroke="midnightblue" points="391.74,-89.26 398.53,-81.13 388.15,-83.24 391.74,-89.26"/>
</g>
<!-- Node30&#45;&gt;Node10 -->
<g id="edge60" class="edge">
<title>Node30&#45;&gt;Node10</title>
<path fill="none" stroke="midnightblue" d="M328.11,-128.89C335.09,-126.67 342.78,-124.49 350,-123 514.64,-88.94 715.38,-77.41 799.68,-73.89"/>
<polygon fill="midnightblue" stroke="midnightblue" points="800,-77.38 809.85,-73.48 799.72,-70.39 800,-77.38"/>
</g>
<!-- Node30&#45;&gt;Node18 -->
<g id="edge55" class="edge">
<title>Node30&#45;&gt;Node18</title>
<path fill="none" stroke="midnightblue" d="M300.09,-128.73C295.74,-118.99 288.6,-102.98 283.04,-90.53"/>
<polygon fill="midnightblue" stroke="midnightblue" points="286.12,-88.83 278.85,-81.13 279.73,-91.69 286.12,-88.83"/>
</g>
<!-- Node30&#45;&gt;Node19 -->
<g id="edge56" class="edge">
<title>Node30&#45;&gt;Node19</title>
<path fill="none" stroke="midnightblue" d="M330.17,-128.87C336.62,-126.85 343.54,-124.77 350,-123 413.82,-105.51 489.28,-88.75 532,-79.61"/>
<polygon fill="midnightblue" stroke="midnightblue" points="532.82,-83.02 541.88,-77.52 531.37,-76.17 532.82,-83.02"/>
</g>
<!-- Node31 -->
<g id="node31" class="node">
<title>Node31</title>
<g id="a_node31"><a xlink:title=" ">
<polygon fill="white" stroke="#bfbfbf" points="318.5,-62 318.5,-81 365.5,-81 365.5,-62 318.5,-62"/>
<text text-anchor="middle" x="342" y="-69" font-family="Helvetica,sans-Serif" font-size="10.00">stdlib.h</text>
</a>
</g>
</g>
<!-- Node30&#45;&gt;Node31 -->
<g id="edge57" class="edge">
<title>Node30&#45;&gt;Node31</title>
<path fill="none" stroke="midnightblue" d="M309.12,-128.73C314.94,-118.79 324.56,-102.34 331.89,-89.79"/>
<polygon fill="midnightblue" stroke="midnightblue" points="334.93,-91.53 336.96,-81.13 328.89,-87.99 334.93,-91.53"/>
</g>
<!-- Node32&#45;&gt;Node10 -->
<g id="edge77" class="edge">
<title>Node32&#45;&gt;Node10</title>
<path fill="none" stroke="midnightblue" d="M923.86,-380.32C921.44,-361.12 916,-313.52 916,-273.5 916,-273.5 916,-273.5 916,-204.5 916,-166.74 911.52,-155.32 892,-123 883.71,-109.26 870.78,-96.68 859.88,-87.52"/>
<polygon fill="midnightblue" stroke="midnightblue" points="862.04,-84.76 852.06,-81.21 857.65,-90.21 862.04,-84.76"/>
</g>
<!-- Node32&#45;&gt;Node11 -->
<g id="edge76" class="edge">
<title>Node32&#45;&gt;Node11</title>
<path fill="none" stroke="midnightblue" d="M927.06,-380.16C933.19,-356.02 953.69,-288.67 998,-257 1072.55,-203.72 1123.76,-270.29 1201,-221 1224.95,-205.72 1241.66,-176.41 1250.54,-157.43"/>
<polygon fill="midnightblue" stroke="midnightblue" points="1253.83,-158.65 1254.67,-148.09 1247.42,-155.82 1253.83,-158.65"/>
</g>
<!-- Node32&#45;&gt;Node26 -->
<g id="edge75" class="edge">
<title>Node32&#45;&gt;Node26</title>
<path fill="none" stroke="midnightblue" d="M950.19,-380.44C976.94,-371.36 1019.4,-356.94 1049.31,-346.78"/>
<polygon fill="midnightblue" stroke="midnightblue" points="1050.58,-350.05 1058.92,-343.52 1048.33,-343.42 1050.58,-350.05"/>
</g>
<!-- Node33 -->
<g id="node33" class="node">
<title>Node33</title>
<g id="a_node33"><a xlink:href="heap_8h.html" target="_top" xlink:title=" ">
<polygon fill="white" stroke="black" points="337,-263 337,-282 411,-282 411,-263 337,-263"/>
<text text-anchor="middle" x="374" y="-270" font-family="Helvetica,sans-Serif" font-size="10.00">cppgc/heap.h</text>
</a>
</g>
</g>
<!-- Node32&#45;&gt;Node33 -->
<g id="edge67" class="edge">
<title>Node32&#45;&gt;Node33</title>
<path fill="none" stroke="midnightblue" d="M913.98,-380.49C894.71,-366.12 853.12,-337.3 813,-324 741.16,-300.18 519.27,-283.08 421.31,-276.49"/>
<polygon fill="midnightblue" stroke="midnightblue" points="421.32,-272.98 411.11,-275.81 420.86,-279.97 421.32,-272.98"/>
</g>
<!-- Node33&#45;&gt;Node5 -->
<g id="edge68" class="edge">
<title>Node33&#45;&gt;Node5</title>
<path fill="none" stroke="midnightblue" d="M336.89,-270.44C268.19,-267.62 125.41,-257.41 95,-221 55.75,-174 136.22,-113.3 177.99,-86.4"/>
<polygon fill="midnightblue" stroke="midnightblue" points="179.9,-89.33 186.49,-81.04 176.16,-83.41 179.9,-89.33"/>
</g>
<!-- Node33&#45;&gt;Node6 -->
<g id="edge69" class="edge">
<title>Node33&#45;&gt;Node6</title>
<path fill="none" stroke="midnightblue" d="M374,-262.73C374,-253.18 374,-237.62 374,-225.28"/>
<polygon fill="midnightblue" stroke="midnightblue" points="377.5,-225.13 374,-215.13 370.5,-225.13 377.5,-225.13"/>
</g>
<!-- Node33&#45;&gt;Node10 -->
<g id="edge74" class="edge">
<title>Node33&#45;&gt;Node10</title>
<path fill="none" stroke="midnightblue" d="M411.23,-265.44C448.23,-258.39 505.82,-244.59 551,-221 570.32,-210.91 569.45,-199.63 589,-190 651.67,-159.13 679.75,-185.7 742,-154 760.82,-144.42 761.81,-136.56 778,-123 792.35,-110.98 808.79,-97.61 821.14,-87.64"/>
<polygon fill="midnightblue" stroke="midnightblue" points="823.36,-90.35 828.95,-81.35 818.97,-84.9 823.36,-90.35"/>
</g>
<!-- Node33&#45;&gt;Node24 -->
<g id="edge72" class="edge">
<title>Node33&#45;&gt;Node24</title>
<path fill="none" stroke="midnightblue" d="M345.85,-262.87C308.21,-251.33 241.37,-230.84 199.49,-218"/>
<polygon fill="midnightblue" stroke="midnightblue" points="200.52,-214.65 189.93,-215.06 198.47,-221.34 200.52,-214.65"/>
</g>
<!-- Node33&#45;&gt;Node29 -->
<g id="edge73" class="edge">
<title>Node33&#45;&gt;Node29</title>
<path fill="none" stroke="midnightblue" d="M390.33,-262.87C411.1,-251.89 447.19,-232.82 471.57,-219.94"/>
<polygon fill="midnightblue" stroke="midnightblue" points="473.39,-222.93 480.6,-215.17 470.12,-216.75 473.39,-222.93"/>
</g>
<!-- Node34 -->
<g id="node34" class="node">
<title>Node34</title>
<g id="a_node34"><a xlink:href="common_8h.html" target="_top" xlink:title=" ">
<polygon fill="white" stroke="black" points="495.5,-129 495.5,-148 586.5,-148 586.5,-129 495.5,-129"/>
<text text-anchor="middle" x="541" y="-136" font-family="Helvetica,sans-Serif" font-size="10.00">cppgc/common.h</text>
</a>
</g>
</g>
<!-- Node33&#45;&gt;Node34 -->
<g id="edge70" class="edge">
<title>Node33&#45;&gt;Node34</title>
<path fill="none" stroke="midnightblue" d="M365.58,-262.81C351.22,-246.94 325.21,-212.79 343,-190 383.6,-138 423.14,-170.55 487,-154 491.12,-152.93 495.42,-151.8 499.71,-150.67"/>
<polygon fill="midnightblue" stroke="midnightblue" points="500.85,-153.98 509.61,-148.03 499.05,-147.22 500.85,-153.98"/>
</g>
<!-- Node34&#45;&gt;Node10 -->
<g id="edge71" class="edge">
<title>Node34&#45;&gt;Node10</title>
<path fill="none" stroke="midnightblue" d="M572.34,-128.93C580.05,-126.9 588.31,-124.81 596,-123 667.4,-106.21 751.26,-89.51 799.75,-80.14"/>
<polygon fill="midnightblue" stroke="midnightblue" points="800.68,-83.53 809.83,-78.2 799.35,-76.65 800.68,-83.53"/>
</g>
</g>
</svg>
