<?xml version="1.0" encoding="UTF-8" standalone="no"?>
<!DOCTYPE svg PUBLIC "-//W3C//DTD SVG 1.1//EN"
 "http://www.w3.org/Graphics/SVG/1.1/DTD/svg11.dtd">
<!-- Generated by graphviz version 2.44.0 ()
 -->
<!-- Title: include/cppgc/custom&#45;space.h Pages: 1 -->
<svg width="518pt" height="352pt"
 viewBox="0.00 0.00 517.50 352.00" xmlns="http://www.w3.org/2000/svg" xmlns:xlink="http://www.w3.org/1999/xlink">
<g id="graph0" class="graph" transform="scale(1 1) rotate(0) translate(4 348)">
<title>include/cppgc/custom&#45;space.h</title>
<polygon fill="white" stroke="transparent" points="-4,4 -4,-348 513.5,-348 513.5,4 -4,4"/>
<!-- Node1 -->
<g id="node1" class="node">
<title>Node1</title>
<g id="a_node1"><a xlink:title=" ">
<polygon fill="#bfbfbf" stroke="black" points="130,-313.5 130,-343.5 242,-343.5 242,-313.5 130,-313.5"/>
<text text-anchor="start" x="138" y="-331.5" font-family="Helvetica,sans-Serif" font-size="10.00">include/cppgc/custom</text>
<text text-anchor="middle" x="186" y="-320.5" font-family="Helvetica,sans-Serif" font-size="10.00">&#45;space.h</text>
</a>
</g>
</g>
<!-- Node2 -->
<g id="node2" class="node">
<title>Node2</title>
<g id="a_node2"><a xlink:href="allocation_8h.html" target="_top" xlink:title=" ">
<polygon fill="white" stroke="black" points="0,-257.5 0,-276.5 128,-276.5 128,-257.5 0,-257.5"/>
<text text-anchor="middle" x="64" y="-264.5" font-family="Helvetica,sans-Serif" font-size="10.00">include/cppgc/allocation.h</text>
</a>
</g>
</g>
<!-- Node1&#45;&gt;Node2 -->
<g id="edge1" class="edge">
<title>Node1&#45;&gt;Node2</title>
<path fill="none" stroke="midnightblue" d="M147.94,-308.94C125.84,-298.16 99.03,-285.08 81.75,-276.66"/>
<polygon fill="midnightblue" stroke="midnightblue" points="146.57,-312.16 157.09,-313.4 149.63,-305.87 146.57,-312.16"/>
</g>
<!-- Node3 -->
<g id="node3" class="node">
<title>Node3</title>
<g id="a_node3"><a xlink:href="visitor_8h.html" target="_top" xlink:title=" ">
<polygon fill="white" stroke="black" points="184.5,-129 184.5,-148 297.5,-148 297.5,-129 184.5,-129"/>
<text text-anchor="middle" x="241" y="-136" font-family="Helvetica,sans-Serif" font-size="10.00">include/cppgc/visitor.h</text>
</a>
</g>
</g>
<!-- Node1&#45;&gt;Node3 -->
<g id="edge2" class="edge">
<title>Node1&#45;&gt;Node3</title>
<path fill="none" stroke="midnightblue" d="M192.97,-303.66C205.3,-261.52 230.4,-175.73 238.45,-148.21"/>
<polygon fill="midnightblue" stroke="midnightblue" points="189.58,-302.79 190.13,-313.37 196.3,-304.75 189.58,-302.79"/>
</g>
<!-- Node6 -->
<g id="node6" class="node">
<title>Node6</title>
<g id="a_node6"><a xlink:href="v8-cppgc_8h.html" target="_top" xlink:title=" ">
<polygon fill="white" stroke="black" points="74,-67.5 74,-86.5 172,-86.5 172,-67.5 74,-67.5"/>
<text text-anchor="middle" x="123" y="-74.5" font-family="Helvetica,sans-Serif" font-size="10.00">include/v8&#45;cppgc.h</text>
</a>
</g>
</g>
<!-- Node1&#45;&gt;Node6 -->
<g id="edge14" class="edge">
<title>Node1&#45;&gt;Node6</title>
<path fill="none" stroke="midnightblue" d="M179.9,-303.36C166.32,-249.56 134.06,-121.81 125.25,-86.93"/>
<polygon fill="midnightblue" stroke="midnightblue" points="176.59,-304.53 182.43,-313.37 183.38,-302.82 176.59,-304.53"/>
</g>
<!-- Node7 -->
<g id="node7" class="node">
<title>Node7</title>
<g id="a_node7"><a xlink:href="heap_8h.html" target="_top" xlink:title=" ">
<polygon fill="white" stroke="black" points="287,-257.5 287,-276.5 395,-276.5 395,-257.5 287,-257.5"/>
<text text-anchor="middle" x="341" y="-264.5" font-family="Helvetica,sans-Serif" font-size="10.00">include/cppgc/heap.h</text>
</a>
</g>
</g>
<!-- Node1&#45;&gt;Node7 -->
<g id="edge7" class="edge">
<title>Node1&#45;&gt;Node7</title>
<path fill="none" stroke="midnightblue" d="M232.11,-309.8C260.6,-298.86 295.91,-285.31 318.45,-276.66"/>
<polygon fill="midnightblue" stroke="midnightblue" points="230.81,-306.55 222.73,-313.4 233.32,-313.08 230.81,-306.55"/>
</g>
<!-- Node4 -->
<g id="node4" class="node">
<title>Node4</title>
<g id="a_node4"><a xlink:href="persistent_8h.html" target="_top" xlink:title=" ">
<polygon fill="white" stroke="black" points="228,-67.5 228,-86.5 358,-86.5 358,-67.5 228,-67.5"/>
<text text-anchor="middle" x="293" y="-74.5" font-family="Helvetica,sans-Serif" font-size="10.00">include/cppgc/persistent.h</text>
</a>
</g>
</g>
<!-- Node3&#45;&gt;Node4 -->
<g id="edge3" class="edge">
<title>Node3&#45;&gt;Node4</title>
<path fill="none" stroke="midnightblue" d="M255.27,-121.17C265.08,-109.95 277.69,-95.52 285.56,-86.51"/>
<polygon fill="midnightblue" stroke="midnightblue" points="252.4,-119.14 248.45,-128.98 257.67,-123.75 252.4,-119.14"/>
</g>
<!-- Node5 -->
<g id="node5" class="node">
<title>Node5</title>
<g id="a_node5"><a xlink:href="cross-thread-persistent_8h.html" target="_top" xlink:title=" ">
<polygon fill="white" stroke="black" points="194,-0.5 194,-30.5 298,-30.5 298,-0.5 194,-0.5"/>
<text text-anchor="start" x="202" y="-18.5" font-family="Helvetica,sans-Serif" font-size="10.00">include/cppgc/cross</text>
<text text-anchor="middle" x="246" y="-7.5" font-family="Helvetica,sans-Serif" font-size="10.00">&#45;thread&#45;persistent.h</text>
</a>
</g>
</g>
<!-- Node3&#45;&gt;Node5 -->
<g id="edge5" class="edge">
<title>Node3&#45;&gt;Node5</title>
<path fill="none" stroke="midnightblue" d="M230.08,-120.24C222.45,-106.06 214.39,-85.39 219,-67 222.29,-53.88 229.7,-40.45 235.93,-30.74"/>
<polygon fill="midnightblue" stroke="midnightblue" points="227.07,-122.03 235.13,-128.91 233.12,-118.5 227.07,-122.03"/>
</g>
<!-- Node3&#45;&gt;Node6 -->
<g id="edge6" class="edge">
<title>Node3&#45;&gt;Node6</title>
<path fill="none" stroke="midnightblue" d="M214.95,-124.37C192.08,-112.83 159.49,-96.4 139.88,-86.51"/>
<polygon fill="midnightblue" stroke="midnightblue" points="213.59,-127.6 224.09,-128.98 216.74,-121.35 213.59,-127.6"/>
</g>
<!-- Node4&#45;&gt;Node5 -->
<g id="edge4" class="edge">
<title>Node4&#45;&gt;Node5</title>
<path fill="none" stroke="midnightblue" d="M279.99,-59.53C272.79,-50.42 263.94,-39.21 257.08,-30.52"/>
<polygon fill="midnightblue" stroke="midnightblue" points="277.32,-61.8 286.27,-67.48 282.81,-57.46 277.32,-61.8"/>
</g>
<!-- Node8 -->
<g id="node8" class="node">
<title>Node8</title>
<g id="a_node8"><a xlink:href="liveness-broker_8h.html" target="_top" xlink:title=" ">
<polygon fill="white" stroke="black" points="283,-190.5 283,-220.5 399,-220.5 399,-190.5 283,-190.5"/>
<text text-anchor="start" x="291" y="-208.5" font-family="Helvetica,sans-Serif" font-size="10.00">include/cppgc/liveness</text>
<text text-anchor="middle" x="341" y="-197.5" font-family="Helvetica,sans-Serif" font-size="10.00">&#45;broker.h</text>
</a>
</g>
</g>
<!-- Node7&#45;&gt;Node8 -->
<g id="edge8" class="edge">
<title>Node7&#45;&gt;Node8</title>
<path fill="none" stroke="midnightblue" d="M341,-247.23C341,-238.59 341,-228.5 341,-220.52"/>
<polygon fill="midnightblue" stroke="midnightblue" points="337.5,-247.48 341,-257.48 344.5,-247.48 337.5,-247.48"/>
</g>
<!-- Node9 -->
<g id="node9" class="node">
<title>Node9</title>
<g id="a_node9"><a xlink:href="prefinalizer-handler_8h.html" target="_top" xlink:title=" ">
<polygon fill="white" stroke="black" points="371.5,-123.5 371.5,-153.5 482.5,-153.5 482.5,-123.5 371.5,-123.5"/>
<text text-anchor="start" x="379.5" y="-141.5" font-family="Helvetica,sans-Serif" font-size="10.00">include/cppgc/internal</text>
<text text-anchor="middle" x="427" y="-130.5" font-family="Helvetica,sans-Serif" font-size="10.00">/prefinalizer&#45;handler.h</text>
</a>
</g>
</g>
<!-- Node7&#45;&gt;Node9 -->
<g id="edge13" class="edge">
<title>Node7&#45;&gt;Node9</title>
<path fill="none" stroke="midnightblue" d="M370.29,-252.69C383.69,-245.2 398.62,-234.59 408,-221 422.11,-200.55 425.85,-171.06 426.78,-153.73"/>
<polygon fill="midnightblue" stroke="midnightblue" points="368.58,-249.64 361.36,-257.39 371.84,-255.84 368.58,-249.64"/>
</g>
<!-- Node8&#45;&gt;Node3 -->
<g id="edge9" class="edge">
<title>Node8&#45;&gt;Node3</title>
<path fill="none" stroke="midnightblue" d="M310.7,-184.81C291.79,-172.51 268.39,-157.3 254.09,-148.01"/>
<polygon fill="midnightblue" stroke="midnightblue" points="309.01,-187.88 319.3,-190.4 312.82,-182.01 309.01,-187.88"/>
</g>
<!-- Node8&#45;&gt;Node9 -->
<g id="edge10" class="edge">
<title>Node8&#45;&gt;Node9</title>
<path fill="none" stroke="midnightblue" d="M367.9,-184.17C381.05,-174.23 396.55,-162.51 408.38,-153.58"/>
<polygon fill="midnightblue" stroke="midnightblue" points="365.53,-181.57 359.66,-190.4 369.75,-187.16 365.53,-181.57"/>
</g>
<!-- Node10 -->
<g id="node10" class="node">
<title>Node10</title>
<g id="a_node10"><a xlink:href="prefinalizer_8h.html" target="_top" xlink:title=" ">
<polygon fill="white" stroke="black" points="376.5,-67.5 376.5,-86.5 509.5,-86.5 509.5,-67.5 376.5,-67.5"/>
<text text-anchor="middle" x="443" y="-74.5" font-family="Helvetica,sans-Serif" font-size="10.00">include/cppgc/prefinalizer.h</text>
</a>
</g>
</g>
<!-- Node8&#45;&gt;Node10 -->
<g id="edge12" class="edge">
<title>Node8&#45;&gt;Node10</title>
<path fill="none" stroke="midnightblue" d="M342.58,-180.34C344.82,-162.85 350.18,-139.48 363,-123 376.6,-105.52 399.02,-93.75 416.66,-86.65"/>
<polygon fill="midnightblue" stroke="midnightblue" points="339.09,-180.06 341.55,-190.36 346.06,-180.77 339.09,-180.06"/>
</g>
<!-- Node9&#45;&gt;Node10 -->
<g id="edge11" class="edge">
<title>Node9&#45;&gt;Node10</title>
<path fill="none" stroke="midnightblue" d="M433.43,-113.59C435.99,-104.08 438.77,-93.73 440.67,-86.66"/>
<polygon fill="midnightblue" stroke="midnightblue" points="430.01,-112.83 430.79,-123.4 436.77,-114.65 430.01,-112.83"/>
</g>
</g>
</svg>
