<?xml version="1.0" encoding="UTF-8" standalone="no"?>
<!DOCTYPE svg PUBLIC "-//W3C//DTD SVG 1.1//EN"
 "http://www.w3.org/Graphics/SVG/1.1/DTD/svg11.dtd">
<!-- Generated by graphviz version 2.44.0 ()
 -->
<!-- Title: include Pages: 1 -->
<svg width="166pt" height="148pt"
 viewBox="0.00 0.00 166.00 148.00" xmlns="http://www.w3.org/2000/svg" xmlns:xlink="http://www.w3.org/1999/xlink">
<g id="graph0" class="graph" transform="scale(1 1) rotate(0) translate(4 144)">
<title>include</title>
<polygon fill="white" stroke="transparent" points="-4,4 -4,-144 162,-144 162,4 -4,4"/>
<g id="clust1" class="cluster">
<title>clusterdir_d44c64559bbebec7f509842c48db8b23</title>
<g id="a_clust1"><a xlink:href="dir_d44c64559bbebec7f509842c48db8b23.html" target="_top">
<polygon fill="#eeeeff" stroke="black" points="8,-8 8,-132 150,-132 150,-8 8,-8"/>
</a>
</g>
</g>
<!-- dir_d44c64559bbebec7f509842c48db8b23 -->
<g id="node1" class="node">
<title>dir_d44c64559bbebec7f509842c48db8b23</title>
<text text-anchor="middle" x="115" y="-103.5" font-family="Helvetica,sans-Serif" font-size="10.00">include</text>
</g>
<!-- dir_c3a29de58f961e253e7c5c44d07916b0 -->
<g id="node2" class="node">
<title>dir_c3a29de58f961e253e7c5c44d07916b0</title>
<g id="a_node2"><a xlink:href="dir_c3a29de58f961e253e7c5c44d07916b0.html" target="_top" xlink:title="cppgc">
<polygon fill="white" stroke="red" points="70,-124 16,-124 16,-88 70,-88 70,-124"/>
<text text-anchor="middle" x="43" y="-103.5" font-family="Helvetica,sans-Serif" font-size="10.00">cppgc</text>
</a>
</g>
</g>
<!-- dir_4b115f4a4385e80dbbb632542e3abce3 -->
<g id="node3" class="node">
<title>dir_4b115f4a4385e80dbbb632542e3abce3</title>
<g id="a_node3"><a xlink:href="dir_4b115f4a4385e80dbbb632542e3abce3.html" target="_top" xlink:title="libplatform">
<polygon fill="white" stroke="black" points="78,-52 16,-52 16,-16 78,-16 78,-52"/>
<text text-anchor="middle" x="47" y="-31.5" font-family="Helvetica,sans-Serif" font-size="10.00">libplatform</text>
</a>
</g>
</g>
<!-- dir_c3a29de58f961e253e7c5c44d07916b0&#45;&gt;dir_4b115f4a4385e80dbbb632542e3abce3 -->
<g id="edge1" class="edge">
<title>dir_c3a29de58f961e253e7c5c44d07916b0&#45;&gt;dir_4b115f4a4385e80dbbb632542e3abce3</title>
<path fill="none" stroke="black" d="M43.99,-87.7C44.43,-79.98 44.96,-70.71 45.45,-62.11"/>
<polygon fill="black" stroke="black" points="48.95,-62.29 46.02,-52.1 41.96,-61.89 48.95,-62.29"/>
<g id="a_edge1&#45;headlabel"><a xlink:href="dir_000001_000003.html" target="_top" xlink:title="1">
<text text-anchor="middle" x="51.58" y="-63.54" font-family="Helvetica,sans-Serif" font-size="10.00">1</text>
</a>
</g>
</g>
</g>
</svg>
