<?xml version="1.0" encoding="UTF-8" standalone="no"?>
<!DOCTYPE svg PUBLIC "-//W3C//DTD SVG 1.1//EN"
 "http://www.w3.org/Graphics/SVG/1.1/DTD/svg11.dtd">
<!-- Generated by graphviz version 2.44.0 ()
 -->
<!-- Title: include/cppgc/ephemeron&#45;pair.h Pages: 1 -->
<svg width="696pt" height="419pt"
 viewBox="0.00 0.00 696.45 419.00" xmlns="http://www.w3.org/2000/svg" xmlns:xlink="http://www.w3.org/1999/xlink">
<g id="graph0" class="graph" transform="scale(1 1) rotate(0) translate(4 415)">
<title>include/cppgc/ephemeron&#45;pair.h</title>
<polygon fill="white" stroke="transparent" points="-4,4 -4,-415 692.45,-415 692.45,4 -4,4"/>
<!-- Node1 -->
<g id="node1" class="node">
<title>Node1</title>
<g id="a_node1"><a xlink:title=" ">
<polygon fill="#bfbfbf" stroke="black" points="149.82,-380.5 149.82,-410.5 277.82,-410.5 277.82,-380.5 149.82,-380.5"/>
<text text-anchor="start" x="157.82" y="-398.5" font-family="Helvetica,sans-Serif" font-size="10.00">include/cppgc/ephemeron</text>
<text text-anchor="middle" x="213.82" y="-387.5" font-family="Helvetica,sans-Serif" font-size="10.00">&#45;pair.h</text>
</a>
</g>
</g>
<!-- Node2 -->
<g id="node2" class="node">
<title>Node2</title>
<g id="a_node2"><a xlink:href="member_8h.html" target="_top" xlink:title=" ">
<polygon fill="white" stroke="black" points="169.32,-324.5 169.32,-343.5 258.32,-343.5 258.32,-324.5 169.32,-324.5"/>
<text text-anchor="middle" x="213.82" y="-331.5" font-family="Helvetica,sans-Serif" font-size="10.00">cppgc/member.h</text>
</a>
</g>
</g>
<!-- Node1&#45;&gt;Node2 -->
<g id="edge1" class="edge">
<title>Node1&#45;&gt;Node2</title>
<path fill="none" stroke="midnightblue" d="M213.82,-380.4C213.82,-372.47 213.82,-362.46 213.82,-353.86"/>
<polygon fill="midnightblue" stroke="midnightblue" points="217.32,-353.66 213.82,-343.66 210.32,-353.66 217.32,-353.66"/>
</g>
<!-- Node3 -->
<g id="node3" class="node">
<title>Node3</title>
<g id="a_node3"><a xlink:title=" ">
<polygon fill="white" stroke="#bfbfbf" points="152.82,-0.5 152.82,-19.5 198.82,-19.5 198.82,-0.5 152.82,-0.5"/>
<text text-anchor="middle" x="175.82" y="-7.5" font-family="Helvetica,sans-Serif" font-size="10.00">atomic</text>
</a>
</g>
</g>
<!-- Node2&#45;&gt;Node3 -->
<g id="edge2" class="edge">
<title>Node2&#45;&gt;Node3</title>
<path fill="none" stroke="midnightblue" d="M169.23,-328.06C118.91,-321.58 41.38,-308.56 20.82,-288 -5.47,-261.7 1.82,-243.69 1.82,-206.5 1.82,-206.5 1.82,-206.5 1.82,-137.5 1.82,-68.49 92.47,-33.2 142.91,-18.9"/>
<polygon fill="midnightblue" stroke="midnightblue" points="143.98,-22.24 152.72,-16.24 142.15,-15.48 143.98,-22.24"/>
</g>
<!-- Node4 -->
<g id="node4" class="node">
<title>Node4</title>
<g id="a_node4"><a xlink:title=" ">
<polygon fill="white" stroke="#bfbfbf" points="30.32,-263 30.32,-282 79.32,-282 79.32,-263 30.32,-263"/>
<text text-anchor="middle" x="54.82" y="-270" font-family="Helvetica,sans-Serif" font-size="10.00">cstddef</text>
</a>
</g>
</g>
<!-- Node2&#45;&gt;Node4 -->
<g id="edge3" class="edge">
<title>Node2&#45;&gt;Node4</title>
<path fill="none" stroke="midnightblue" d="M191.04,-324.48C163.77,-314.27 117.91,-297.11 87.02,-285.55"/>
<polygon fill="midnightblue" stroke="midnightblue" points="88.16,-282.24 77.56,-282.01 85.7,-288.79 88.16,-282.24"/>
</g>
<!-- Node5 -->
<g id="node5" class="node">
<title>Node5</title>
<g id="a_node5"><a xlink:title=" ">
<polygon fill="white" stroke="#bfbfbf" points="235.82,-0.5 235.82,-19.5 297.82,-19.5 297.82,-0.5 235.82,-0.5"/>
<text text-anchor="middle" x="266.82" y="-7.5" font-family="Helvetica,sans-Serif" font-size="10.00">type_traits</text>
</a>
</g>
</g>
<!-- Node2&#45;&gt;Node5 -->
<g id="edge4" class="edge">
<title>Node2&#45;&gt;Node5</title>
<path fill="none" stroke="midnightblue" d="M205.35,-324.45C170.67,-288.46 44.67,-146.93 112.82,-56 126.42,-37.87 184.94,-24.61 225.79,-17.35"/>
<polygon fill="midnightblue" stroke="midnightblue" points="226.5,-20.78 235.76,-15.63 225.31,-13.88 226.5,-20.78"/>
</g>
<!-- Node6 -->
<g id="node6" class="node">
<title>Node6</title>
<g id="a_node6"><a xlink:href="pointer-policies_8h.html" target="_top" xlink:title=" ">
<polygon fill="white" stroke="black" points="230.82,-257.5 230.82,-287.5 340.82,-287.5 340.82,-257.5 230.82,-257.5"/>
<text text-anchor="start" x="238.82" y="-275.5" font-family="Helvetica,sans-Serif" font-size="10.00">cppgc/internal/pointer</text>
<text text-anchor="middle" x="285.82" y="-264.5" font-family="Helvetica,sans-Serif" font-size="10.00">&#45;policies.h</text>
</a>
</g>
</g>
<!-- Node2&#45;&gt;Node6 -->
<g id="edge5" class="edge">
<title>Node2&#45;&gt;Node6</title>
<path fill="none" stroke="midnightblue" d="M224.14,-324.48C233.71,-316.57 248.33,-304.48 260.94,-294.07"/>
<polygon fill="midnightblue" stroke="midnightblue" points="263.38,-296.59 268.86,-287.52 258.92,-291.2 263.38,-296.59"/>
</g>
<!-- Node12 -->
<g id="node12" class="node">
<title>Node12</title>
<g id="a_node12"><a xlink:href="v8config_8h.html" target="_top" xlink:title=" ">
<polygon fill="white" stroke="black" points="403.82,-62 403.82,-81 463.82,-81 463.82,-62 403.82,-62"/>
<text text-anchor="middle" x="433.82" y="-69" font-family="Helvetica,sans-Serif" font-size="10.00">v8config.h</text>
</a>
</g>
</g>
<!-- Node2&#45;&gt;Node12 -->
<g id="edge28" class="edge">
<title>Node2&#45;&gt;Node12</title>
<path fill="none" stroke="midnightblue" d="M258.44,-333.13C358.05,-330.59 595.12,-308.03 662.82,-154 668.37,-141.39 671.45,-133.74 662.82,-123 656.89,-115.62 538.52,-92.27 474.35,-80.08"/>
<polygon fill="midnightblue" stroke="midnightblue" points="474.65,-76.57 464.17,-78.15 473.35,-83.45 474.65,-76.57"/>
</g>
<!-- Node16 -->
<g id="node16" class="node">
<title>Node16</title>
<g id="a_node16"><a xlink:href="type-traits_8h.html" target="_top" xlink:title=" ">
<polygon fill="white" stroke="black" points="519.82,-62 519.82,-81 615.82,-81 615.82,-62 519.82,-62"/>
<text text-anchor="middle" x="567.82" y="-69" font-family="Helvetica,sans-Serif" font-size="10.00">cppgc/type&#45;traits.h</text>
</a>
</g>
</g>
<!-- Node2&#45;&gt;Node16 -->
<g id="edge27" class="edge">
<title>Node2&#45;&gt;Node16</title>
<path fill="none" stroke="midnightblue" d="M258.45,-333.69C324.45,-333.25 450.92,-326.78 549.82,-288 597.93,-269.14 611.03,-260.08 644.82,-221 674.98,-186.13 703.78,-161.77 678.82,-123 666.35,-103.63 644.43,-91.6 623.33,-84.17"/>
<polygon fill="midnightblue" stroke="midnightblue" points="624.33,-80.81 613.74,-81.07 622.18,-87.48 624.33,-80.81"/>
</g>
<!-- Node6&#45;&gt;Node5 -->
<g id="edge7" class="edge">
<title>Node6&#45;&gt;Node5</title>
<path fill="none" stroke="midnightblue" d="M251.12,-257.38C213.04,-239.69 154.2,-205.32 130.82,-154 112.77,-114.36 105.32,-91.31 130.82,-56 142.13,-40.36 189.7,-27.14 225.42,-19.16"/>
<polygon fill="midnightblue" stroke="midnightblue" points="226.57,-22.49 235.6,-16.95 225.09,-15.65 226.57,-22.49"/>
</g>
<!-- Node7 -->
<g id="node7" class="node">
<title>Node7</title>
<g id="a_node7"><a xlink:title=" ">
<polygon fill="white" stroke="#bfbfbf" points="216.82,-196 216.82,-215 262.82,-215 262.82,-196 216.82,-196"/>
<text text-anchor="middle" x="239.82" y="-203" font-family="Helvetica,sans-Serif" font-size="10.00">cstdint</text>
</a>
</g>
</g>
<!-- Node6&#45;&gt;Node7 -->
<g id="edge6" class="edge">
<title>Node6&#45;&gt;Node7</title>
<path fill="none" stroke="midnightblue" d="M275.84,-257.4C268.81,-247.46 259.36,-234.11 251.91,-223.57"/>
<polygon fill="midnightblue" stroke="midnightblue" points="254.61,-221.34 245.98,-215.19 248.9,-225.38 254.61,-221.34"/>
</g>
<!-- Node8 -->
<g id="node8" class="node">
<title>Node8</title>
<g id="a_node8"><a xlink:href="write-barrier_8h.html" target="_top" xlink:title=" ">
<polygon fill="white" stroke="black" points="281.32,-190.5 281.32,-220.5 382.32,-220.5 382.32,-190.5 281.32,-190.5"/>
<text text-anchor="start" x="289.32" y="-208.5" font-family="Helvetica,sans-Serif" font-size="10.00">cppgc/internal/write</text>
<text text-anchor="middle" x="331.82" y="-197.5" font-family="Helvetica,sans-Serif" font-size="10.00">&#45;barrier.h</text>
</a>
</g>
</g>
<!-- Node6&#45;&gt;Node8 -->
<g id="edge8" class="edge">
<title>Node6&#45;&gt;Node8</title>
<path fill="none" stroke="midnightblue" d="M295.81,-257.4C301.71,-249.05 309.33,-238.29 316.04,-228.81"/>
<polygon fill="midnightblue" stroke="midnightblue" points="318.94,-230.76 321.86,-220.58 313.23,-226.72 318.94,-230.76"/>
</g>
<!-- Node6&#45;&gt;Node12 -->
<g id="edge26" class="edge">
<title>Node6&#45;&gt;Node12</title>
<path fill="none" stroke="midnightblue" d="M335.57,-257.43C355.24,-249.59 376.52,-237.91 390.82,-221 422.95,-183.03 431.1,-122.21 433.15,-91.52"/>
<polygon fill="midnightblue" stroke="midnightblue" points="436.65,-91.51 433.67,-81.35 429.66,-91.15 436.65,-91.51"/>
</g>
<!-- Node17 -->
<g id="node17" class="node">
<title>Node17</title>
<g id="a_node17"><a xlink:href="source-location_8h.html" target="_top" xlink:title=" ">
<polygon fill="white" stroke="black" points="461.32,-196 461.32,-215 580.32,-215 580.32,-196 461.32,-196"/>
<text text-anchor="middle" x="520.82" y="-203" font-family="Helvetica,sans-Serif" font-size="10.00">cppgc/source&#45;location.h</text>
</a>
</g>
</g>
<!-- Node6&#45;&gt;Node17 -->
<g id="edge23" class="edge">
<title>Node6&#45;&gt;Node17</title>
<path fill="none" stroke="midnightblue" d="M336.53,-257.48C379.57,-245.57 440.51,-228.72 480.34,-217.7"/>
<polygon fill="midnightblue" stroke="midnightblue" points="481.29,-221.07 489.99,-215.03 479.42,-214.32 481.29,-221.07"/>
</g>
<!-- Node9 -->
<g id="node9" class="node">
<title>Node9</title>
<g id="a_node9"><a xlink:href="api-constants_8h.html" target="_top" xlink:title=" ">
<polygon fill="white" stroke="black" points="140.32,-123.5 140.32,-153.5 233.32,-153.5 233.32,-123.5 140.32,-123.5"/>
<text text-anchor="start" x="148.32" y="-141.5" font-family="Helvetica,sans-Serif" font-size="10.00">cppgc/internal/api</text>
<text text-anchor="middle" x="186.82" y="-130.5" font-family="Helvetica,sans-Serif" font-size="10.00">&#45;constants.h</text>
</a>
</g>
</g>
<!-- Node8&#45;&gt;Node9 -->
<g id="edge9" class="edge">
<title>Node8&#45;&gt;Node9</title>
<path fill="none" stroke="midnightblue" d="M300.36,-190.4C278.99,-180.81 250.51,-168.05 227.43,-157.7"/>
<polygon fill="midnightblue" stroke="midnightblue" points="228.78,-154.47 218.23,-153.58 225.92,-160.86 228.78,-154.47"/>
</g>
<!-- Node8&#45;&gt;Node12 -->
<g id="edge22" class="edge">
<title>Node8&#45;&gt;Node12</title>
<path fill="none" stroke="midnightblue" d="M344.55,-190.17C353.28,-180.19 365.01,-166.5 374.82,-154 391.94,-132.21 410.5,-106.13 422.14,-89.45"/>
<polygon fill="midnightblue" stroke="midnightblue" points="425.02,-91.44 427.84,-81.23 419.27,-87.45 425.02,-91.44"/>
</g>
<!-- Node13 -->
<g id="node13" class="node">
<title>Node13</title>
<g id="a_node13"><a xlink:href="process-heap_8h.html" target="_top" xlink:title=" ">
<polygon fill="white" stroke="black" points="251.32,-123.5 251.32,-153.5 366.32,-153.5 366.32,-123.5 251.32,-123.5"/>
<text text-anchor="start" x="259.32" y="-141.5" font-family="Helvetica,sans-Serif" font-size="10.00">cppgc/internal/process</text>
<text text-anchor="middle" x="308.82" y="-130.5" font-family="Helvetica,sans-Serif" font-size="10.00">&#45;heap.h</text>
</a>
</g>
</g>
<!-- Node8&#45;&gt;Node13 -->
<g id="edge13" class="edge">
<title>Node8&#45;&gt;Node13</title>
<path fill="none" stroke="midnightblue" d="M326.83,-190.4C324.03,-182.47 320.46,-172.38 317.24,-163.27"/>
<polygon fill="midnightblue" stroke="midnightblue" points="320.44,-161.84 313.81,-153.58 313.84,-164.17 320.44,-161.84"/>
</g>
<!-- Node15 -->
<g id="node15" class="node">
<title>Node15</title>
<g id="a_node15"><a xlink:href="trace-trait_8h.html" target="_top" xlink:title=" ">
<polygon fill="white" stroke="black" points="499.32,-129 499.32,-148 594.32,-148 594.32,-129 499.32,-129"/>
<text text-anchor="middle" x="546.82" y="-136" font-family="Helvetica,sans-Serif" font-size="10.00">cppgc/trace&#45;trait.h</text>
</a>
</g>
</g>
<!-- Node8&#45;&gt;Node15 -->
<g id="edge17" class="edge">
<title>Node8&#45;&gt;Node15</title>
<path fill="none" stroke="midnightblue" d="M378.21,-190.48C417.25,-178.67 472.4,-162 508.86,-150.98"/>
<polygon fill="midnightblue" stroke="midnightblue" points="510.06,-154.27 518.61,-148.03 508.03,-147.57 510.06,-154.27"/>
</g>
<!-- Node10 -->
<g id="node10" class="node">
<title>Node10</title>
<g id="a_node10"><a xlink:title=" ">
<polygon fill="white" stroke="#bfbfbf" points="140.32,-62 140.32,-81 191.32,-81 191.32,-62 140.32,-62"/>
<text text-anchor="middle" x="165.82" y="-69" font-family="Helvetica,sans-Serif" font-size="10.00">stddef.h</text>
</a>
</g>
</g>
<!-- Node9&#45;&gt;Node10 -->
<g id="edge10" class="edge">
<title>Node9&#45;&gt;Node10</title>
<path fill="none" stroke="midnightblue" d="M182.27,-123.4C179.19,-113.86 175.09,-101.18 171.76,-90.86"/>
<polygon fill="midnightblue" stroke="midnightblue" points="175.04,-89.63 168.63,-81.19 168.38,-91.79 175.04,-89.63"/>
</g>
<!-- Node11 -->
<g id="node11" class="node">
<title>Node11</title>
<g id="a_node11"><a xlink:title=" ">
<polygon fill="white" stroke="#bfbfbf" points="209.82,-62 209.82,-81 257.82,-81 257.82,-62 209.82,-62"/>
<text text-anchor="middle" x="233.82" y="-69" font-family="Helvetica,sans-Serif" font-size="10.00">stdint.h</text>
</a>
</g>
</g>
<!-- Node9&#45;&gt;Node11 -->
<g id="edge11" class="edge">
<title>Node9&#45;&gt;Node11</title>
<path fill="none" stroke="midnightblue" d="M197.02,-123.4C204.21,-113.46 213.86,-100.11 221.48,-89.57"/>
<polygon fill="midnightblue" stroke="midnightblue" points="224.51,-91.35 227.54,-81.19 218.84,-87.25 224.51,-91.35"/>
</g>
<!-- Node9&#45;&gt;Node12 -->
<g id="edge12" class="edge">
<title>Node9&#45;&gt;Node12</title>
<path fill="none" stroke="midnightblue" d="M233.61,-125.07C236.39,-124.37 239.14,-123.67 241.82,-123 309.61,-106.09 327.96,-107.21 394.82,-87 397.39,-86.22 400.04,-85.37 402.68,-84.47"/>
<polygon fill="midnightblue" stroke="midnightblue" points="403.87,-87.76 412.12,-81.11 401.53,-81.17 403.87,-87.76"/>
</g>
<!-- Node13&#45;&gt;Node12 -->
<g id="edge16" class="edge">
<title>Node13&#45;&gt;Node12</title>
<path fill="none" stroke="midnightblue" d="M335.95,-123.4C357.49,-112.19 387.4,-96.64 408.47,-85.69"/>
<polygon fill="midnightblue" stroke="midnightblue" points="410.21,-88.73 417.47,-81.01 406.98,-82.52 410.21,-88.73"/>
</g>
<!-- Node14 -->
<g id="node14" class="node">
<title>Node14</title>
<g id="a_node14"><a xlink:href="atomic-entry-flag_8h.html" target="_top" xlink:title=" ">
<polygon fill="white" stroke="black" points="275.82,-56.5 275.82,-86.5 385.82,-86.5 385.82,-56.5 275.82,-56.5"/>
<text text-anchor="start" x="283.82" y="-74.5" font-family="Helvetica,sans-Serif" font-size="10.00">cppgc/internal/atomic</text>
<text text-anchor="middle" x="330.82" y="-63.5" font-family="Helvetica,sans-Serif" font-size="10.00">&#45;entry&#45;flag.h</text>
</a>
</g>
</g>
<!-- Node13&#45;&gt;Node14 -->
<g id="edge14" class="edge">
<title>Node13&#45;&gt;Node14</title>
<path fill="none" stroke="midnightblue" d="M313.6,-123.4C316.28,-115.47 319.7,-105.38 322.78,-96.27"/>
<polygon fill="midnightblue" stroke="midnightblue" points="326.17,-97.17 326.06,-86.58 319.54,-94.93 326.17,-97.17"/>
</g>
<!-- Node14&#45;&gt;Node3 -->
<g id="edge15" class="edge">
<title>Node14&#45;&gt;Node3</title>
<path fill="none" stroke="midnightblue" d="M294.09,-56.4C267.85,-46.33 232.9,-32.91 207.81,-23.28"/>
<polygon fill="midnightblue" stroke="midnightblue" points="208.97,-19.97 198.38,-19.66 206.46,-26.51 208.97,-19.97"/>
</g>
<!-- Node15&#45;&gt;Node5 -->
<g id="edge18" class="edge">
<title>Node15&#45;&gt;Node5</title>
<path fill="none" stroke="midnightblue" d="M541.55,-128.74C530.87,-111.79 504.92,-74.56 472.82,-56 421.15,-26.12 351.73,-16.05 308.14,-12.67"/>
<polygon fill="midnightblue" stroke="midnightblue" points="308.12,-9.16 297.9,-11.97 307.64,-16.14 308.12,-9.16"/>
</g>
<!-- Node15&#45;&gt;Node12 -->
<g id="edge21" class="edge">
<title>Node15&#45;&gt;Node12</title>
<path fill="none" stroke="midnightblue" d="M531.59,-128.73C512.61,-117.82 479.98,-99.05 457.68,-86.22"/>
<polygon fill="midnightblue" stroke="midnightblue" points="459.24,-83.08 448.82,-81.13 455.75,-89.15 459.24,-83.08"/>
</g>
<!-- Node15&#45;&gt;Node16 -->
<g id="edge19" class="edge">
<title>Node15&#45;&gt;Node16</title>
<path fill="none" stroke="midnightblue" d="M549.66,-128.73C552.77,-119.09 557.87,-103.3 561.88,-90.91"/>
<polygon fill="midnightblue" stroke="midnightblue" points="565.29,-91.72 565.04,-81.13 558.63,-89.57 565.29,-91.72"/>
</g>
<!-- Node16&#45;&gt;Node5 -->
<g id="edge20" class="edge">
<title>Node16&#45;&gt;Node5</title>
<path fill="none" stroke="midnightblue" d="M532.47,-61.95C523.78,-59.93 514.48,-57.83 505.82,-56 436.55,-41.38 355.47,-26.61 307.79,-18.15"/>
<polygon fill="midnightblue" stroke="midnightblue" points="308.31,-14.69 297.85,-16.4 307.09,-21.58 308.31,-14.69"/>
</g>
<!-- Node17&#45;&gt;Node12 -->
<g id="edge25" class="edge">
<title>Node17&#45;&gt;Node12</title>
<path fill="none" stroke="midnightblue" d="M515.12,-195.84C500.92,-174.3 463.81,-118 445.04,-89.52"/>
<polygon fill="midnightblue" stroke="midnightblue" points="447.87,-87.44 439.44,-81.02 442.02,-91.3 447.87,-87.44"/>
</g>
<!-- Node18 -->
<g id="node18" class="node">
<title>Node18</title>
<g id="a_node18"><a xlink:title=" ">
<polygon fill="white" stroke="#bfbfbf" points="612.32,-129 612.32,-148 653.32,-148 653.32,-129 612.32,-129"/>
<text text-anchor="middle" x="632.82" y="-136" font-family="Helvetica,sans-Serif" font-size="10.00">string</text>
</a>
</g>
</g>
<!-- Node17&#45;&gt;Node18 -->
<g id="edge24" class="edge">
<title>Node17&#45;&gt;Node18</title>
<path fill="none" stroke="midnightblue" d="M535.93,-195.73C554.74,-184.82 587.08,-166.05 609.18,-153.22"/>
<polygon fill="midnightblue" stroke="midnightblue" points="611.07,-156.17 617.96,-148.13 607.55,-150.12 611.07,-156.17"/>
</g>
</g>
</svg>
