<?xml version="1.0" encoding="UTF-8" standalone="no"?>
<!DOCTYPE svg PUBLIC "-//W3C//DTD SVG 1.1//EN"
 "http://www.w3.org/Graphics/SVG/1.1/DTD/svg11.dtd">
<!-- Generated by graphviz version 2.44.0 ()
 -->
<!-- Title: include/cppgc/ephemeron&#45;pair.h Pages: 1 -->
<svg width="292pt" height="218pt"
 viewBox="0.00 0.00 292.00 218.00" xmlns="http://www.w3.org/2000/svg" xmlns:xlink="http://www.w3.org/1999/xlink">
<g id="graph0" class="graph" transform="scale(1 1) rotate(0) translate(4 214)">
<title>include/cppgc/ephemeron&#45;pair.h</title>
<polygon fill="white" stroke="transparent" points="-4,4 -4,-214 288,-214 288,4 -4,4"/>
<!-- Node1 -->
<g id="node1" class="node">
<title>Node1</title>
<g id="a_node1"><a xlink:title=" ">
<polygon fill="#bfbfbf" stroke="black" points="94,-179.5 94,-209.5 222,-209.5 222,-179.5 94,-179.5"/>
<text text-anchor="start" x="102" y="-197.5" font-family="Helvetica,sans-Serif" font-size="10.00">include/cppgc/ephemeron</text>
<text text-anchor="middle" x="158" y="-186.5" font-family="Helvetica,sans-Serif" font-size="10.00">&#45;pair.h</text>
</a>
</g>
</g>
<!-- Node2 -->
<g id="node2" class="node">
<title>Node2</title>
<g id="a_node2"><a xlink:href="visitor_8h.html" target="_top" xlink:title=" ">
<polygon fill="white" stroke="black" points="101.5,-123.5 101.5,-142.5 214.5,-142.5 214.5,-123.5 101.5,-123.5"/>
<text text-anchor="middle" x="158" y="-130.5" font-family="Helvetica,sans-Serif" font-size="10.00">include/cppgc/visitor.h</text>
</a>
</g>
</g>
<!-- Node1&#45;&gt;Node2 -->
<g id="edge1" class="edge">
<title>Node1&#45;&gt;Node2</title>
<path fill="none" stroke="midnightblue" d="M158,-169.29C158,-159.86 158,-149.65 158,-142.66"/>
<polygon fill="midnightblue" stroke="midnightblue" points="154.5,-169.4 158,-179.4 161.5,-169.4 154.5,-169.4"/>
</g>
<!-- Node3 -->
<g id="node3" class="node">
<title>Node3</title>
<g id="a_node3"><a xlink:href="persistent_8h.html" target="_top" xlink:title=" ">
<polygon fill="white" stroke="black" points="0,-67.5 0,-86.5 130,-86.5 130,-67.5 0,-67.5"/>
<text text-anchor="middle" x="65" y="-74.5" font-family="Helvetica,sans-Serif" font-size="10.00">include/cppgc/persistent.h</text>
</a>
</g>
</g>
<!-- Node2&#45;&gt;Node3 -->
<g id="edge2" class="edge">
<title>Node2&#45;&gt;Node3</title>
<path fill="none" stroke="midnightblue" d="M134.19,-118.18C117.08,-108.24 94.53,-95.15 79.9,-86.65"/>
<polygon fill="midnightblue" stroke="midnightblue" points="132.65,-121.33 143.06,-123.32 136.17,-115.28 132.65,-121.33"/>
</g>
<!-- Node4 -->
<g id="node4" class="node">
<title>Node4</title>
<g id="a_node4"><a xlink:href="cross-thread-persistent_8h.html" target="_top" xlink:title=" ">
<polygon fill="white" stroke="black" points="59,-0.5 59,-30.5 163,-30.5 163,-0.5 59,-0.5"/>
<text text-anchor="start" x="67" y="-18.5" font-family="Helvetica,sans-Serif" font-size="10.00">include/cppgc/cross</text>
<text text-anchor="middle" x="111" y="-7.5" font-family="Helvetica,sans-Serif" font-size="10.00">&#45;thread&#45;persistent.h</text>
</a>
</g>
</g>
<!-- Node2&#45;&gt;Node4 -->
<g id="edge4" class="edge">
<title>Node2&#45;&gt;Node4</title>
<path fill="none" stroke="midnightblue" d="M153.78,-113.59C150.47,-100.37 145.37,-82.26 139,-67 133.67,-54.23 125.95,-40.56 119.97,-30.66"/>
<polygon fill="midnightblue" stroke="midnightblue" points="150.39,-114.47 156.13,-123.38 157.2,-112.84 150.39,-114.47"/>
</g>
<!-- Node5 -->
<g id="node5" class="node">
<title>Node5</title>
<g id="a_node5"><a xlink:href="v8-cppgc_8h.html" target="_top" xlink:title=" ">
<polygon fill="white" stroke="black" points="186,-67.5 186,-86.5 284,-86.5 284,-67.5 186,-67.5"/>
<text text-anchor="middle" x="235" y="-74.5" font-family="Helvetica,sans-Serif" font-size="10.00">include/v8&#45;cppgc.h</text>
</a>
</g>
</g>
<!-- Node2&#45;&gt;Node5 -->
<g id="edge5" class="edge">
<title>Node2&#45;&gt;Node5</title>
<path fill="none" stroke="midnightblue" d="M178.9,-117.34C192.91,-107.52 210.88,-94.91 222.66,-86.65"/>
<polygon fill="midnightblue" stroke="midnightblue" points="176.55,-114.72 170.37,-123.32 180.57,-120.45 176.55,-114.72"/>
</g>
<!-- Node3&#45;&gt;Node4 -->
<g id="edge3" class="edge">
<title>Node3&#45;&gt;Node4</title>
<path fill="none" stroke="midnightblue" d="M77.73,-59.53C84.78,-50.42 93.44,-39.21 100.16,-30.52"/>
<polygon fill="midnightblue" stroke="midnightblue" points="74.94,-57.42 71.59,-67.48 80.48,-61.7 74.94,-57.42"/>
</g>
</g>
</svg>
