<?xml version="1.0" encoding="UTF-8" standalone="no"?>
<!DOCTYPE svg PUBLIC "-//W3C//DTD SVG 1.1//EN"
 "http://www.w3.org/Graphics/SVG/1.1/DTD/svg11.dtd">
<!-- Generated by graphviz version 2.44.0 ()
 -->
<!-- Title: include/cppgc/heap&#45;consistency.h Pages: 1 -->
<svg width="520pt" height="296pt"
 viewBox="0.00 0.00 519.50 296.00" xmlns="http://www.w3.org/2000/svg" xmlns:xlink="http://www.w3.org/1999/xlink">
<g id="graph0" class="graph" transform="scale(1 1) rotate(0) translate(4 292)">
<title>include/cppgc/heap&#45;consistency.h</title>
<polygon fill="white" stroke="transparent" points="-4,4 -4,-292 515.5,-292 515.5,4 -4,4"/>
<!-- Node1 -->
<g id="node1" class="node">
<title>Node1</title>
<g id="a_node1"><a xlink:title=" ">
<polygon fill="#bfbfbf" stroke="black" points="144,-257.5 144,-287.5 245,-287.5 245,-257.5 144,-257.5"/>
<text text-anchor="start" x="152" y="-275.5" font-family="Helvetica,sans-Serif" font-size="10.00">include/cppgc/heap</text>
<text text-anchor="middle" x="194.5" y="-264.5" font-family="Helvetica,sans-Serif" font-size="10.00">&#45;consistency.h</text>
</a>
</g>
</g>
<!-- Node2 -->
<g id="node2" class="node">
<title>Node2</title>
<g id="a_node2"><a xlink:title=" ">
<polygon fill="white" stroke="#bfbfbf" points="78,-196 78,-215 127,-215 127,-196 78,-196"/>
<text text-anchor="middle" x="102.5" y="-203" font-family="Helvetica,sans-Serif" font-size="10.00">cstddef</text>
</a>
</g>
</g>
<!-- Node1&#45;&gt;Node2 -->
<g id="edge1" class="edge">
<title>Node1&#45;&gt;Node2</title>
<path fill="none" stroke="midnightblue" d="M174.54,-257.4C159.25,-246.6 138.25,-231.76 122.86,-220.89"/>
<polygon fill="midnightblue" stroke="midnightblue" points="124.73,-217.92 114.54,-215.01 120.69,-223.64 124.73,-217.92"/>
</g>
<!-- Node3 -->
<g id="node3" class="node">
<title>Node3</title>
<g id="a_node3"><a xlink:href="write-barrier_8h.html" target="_top" xlink:title=" ">
<polygon fill="white" stroke="black" points="184,-190.5 184,-220.5 285,-220.5 285,-190.5 184,-190.5"/>
<text text-anchor="start" x="192" y="-208.5" font-family="Helvetica,sans-Serif" font-size="10.00">cppgc/internal/write</text>
<text text-anchor="middle" x="234.5" y="-197.5" font-family="Helvetica,sans-Serif" font-size="10.00">&#45;barrier.h</text>
</a>
</g>
</g>
<!-- Node1&#45;&gt;Node3 -->
<g id="edge2" class="edge">
<title>Node1&#45;&gt;Node3</title>
<path fill="none" stroke="midnightblue" d="M203.18,-257.4C208.26,-249.13 214.8,-238.51 220.59,-229.1"/>
<polygon fill="midnightblue" stroke="midnightblue" points="223.58,-230.93 225.84,-220.58 217.62,-227.26 223.58,-230.93"/>
</g>
<!-- Node7 -->
<g id="node7" class="node">
<title>Node7</title>
<g id="a_node7"><a xlink:href="v8config_8h.html" target="_top" xlink:title=" ">
<polygon fill="white" stroke="black" points="155.5,-62 155.5,-81 215.5,-81 215.5,-62 155.5,-62"/>
<text text-anchor="middle" x="185.5" y="-69" font-family="Helvetica,sans-Serif" font-size="10.00">v8config.h</text>
</a>
</g>
</g>
<!-- Node1&#45;&gt;Node7 -->
<g id="edge18" class="edge">
<title>Node1&#45;&gt;Node7</title>
<path fill="none" stroke="midnightblue" d="M187.22,-257.35C182.56,-247.46 176.94,-233.78 174.5,-221 165.73,-175.02 174.87,-119.8 180.97,-91.41"/>
<polygon fill="midnightblue" stroke="midnightblue" points="184.46,-91.82 183.26,-81.3 177.64,-90.27 184.46,-91.82"/>
</g>
<!-- Node11 -->
<g id="node11" class="node">
<title>Node11</title>
<g id="a_node11"><a xlink:href="trace-trait_8h.html" target="_top" xlink:title=" ">
<polygon fill="white" stroke="black" points="355,-129 355,-148 450,-148 450,-129 355,-129"/>
<text text-anchor="middle" x="402.5" y="-136" font-family="Helvetica,sans-Serif" font-size="10.00">cppgc/trace&#45;trait.h</text>
</a>
</g>
</g>
<!-- Node1&#45;&gt;Node11 -->
<g id="edge17" class="edge">
<title>Node1&#45;&gt;Node11</title>
<path fill="none" stroke="midnightblue" d="M225.57,-257.33C245.46,-247.86 271.55,-234.66 293.5,-221 327,-200.15 363.17,-171.82 384.28,-154.64"/>
<polygon fill="midnightblue" stroke="midnightblue" points="386.59,-157.28 392.1,-148.23 382.15,-151.86 386.59,-157.28"/>
</g>
<!-- Node4 -->
<g id="node4" class="node">
<title>Node4</title>
<g id="a_node4"><a xlink:href="api-constants_8h.html" target="_top" xlink:title=" ">
<polygon fill="white" stroke="black" points="34,-123.5 34,-153.5 127,-153.5 127,-123.5 34,-123.5"/>
<text text-anchor="start" x="42" y="-141.5" font-family="Helvetica,sans-Serif" font-size="10.00">cppgc/internal/api</text>
<text text-anchor="middle" x="80.5" y="-130.5" font-family="Helvetica,sans-Serif" font-size="10.00">&#45;constants.h</text>
</a>
</g>
</g>
<!-- Node3&#45;&gt;Node4 -->
<g id="edge3" class="edge">
<title>Node3&#45;&gt;Node4</title>
<path fill="none" stroke="midnightblue" d="M201.08,-190.4C178.28,-180.77 147.87,-167.94 123.3,-157.56"/>
<polygon fill="midnightblue" stroke="midnightblue" points="124.42,-154.24 113.85,-153.58 121.7,-160.69 124.42,-154.24"/>
</g>
<!-- Node3&#45;&gt;Node7 -->
<g id="edge16" class="edge">
<title>Node3&#45;&gt;Node7</title>
<path fill="none" stroke="midnightblue" d="M227.99,-190.49C223.41,-180.44 217.28,-166.5 212.5,-154 204.29,-132.53 196.17,-107.35 191.02,-90.72"/>
<polygon fill="midnightblue" stroke="midnightblue" points="194.36,-89.69 188.08,-81.16 187.67,-91.74 194.36,-89.69"/>
</g>
<!-- Node8 -->
<g id="node8" class="node">
<title>Node8</title>
<g id="a_node8"><a xlink:href="process-heap_8h.html" target="_top" xlink:title=" ">
<polygon fill="white" stroke="black" points="222,-123.5 222,-153.5 337,-153.5 337,-123.5 222,-123.5"/>
<text text-anchor="start" x="230" y="-141.5" font-family="Helvetica,sans-Serif" font-size="10.00">cppgc/internal/process</text>
<text text-anchor="middle" x="279.5" y="-130.5" font-family="Helvetica,sans-Serif" font-size="10.00">&#45;heap.h</text>
</a>
</g>
</g>
<!-- Node3&#45;&gt;Node8 -->
<g id="edge7" class="edge">
<title>Node3&#45;&gt;Node8</title>
<path fill="none" stroke="midnightblue" d="M244.26,-190.4C250.04,-182.05 257.49,-171.29 264.05,-161.81"/>
<polygon fill="midnightblue" stroke="midnightblue" points="266.94,-163.79 269.75,-153.58 261.18,-159.81 266.94,-163.79"/>
</g>
<!-- Node3&#45;&gt;Node11 -->
<g id="edge11" class="edge">
<title>Node3&#45;&gt;Node11</title>
<path fill="none" stroke="midnightblue" d="M270.95,-190.4C300.82,-178.84 342.65,-162.66 371.06,-151.66"/>
<polygon fill="midnightblue" stroke="midnightblue" points="372.45,-154.88 380.51,-148.01 369.92,-148.35 372.45,-154.88"/>
</g>
<!-- Node5 -->
<g id="node5" class="node">
<title>Node5</title>
<g id="a_node5"><a xlink:title=" ">
<polygon fill="white" stroke="#bfbfbf" points="0,-62 0,-81 51,-81 51,-62 0,-62"/>
<text text-anchor="middle" x="25.5" y="-69" font-family="Helvetica,sans-Serif" font-size="10.00">stddef.h</text>
</a>
</g>
</g>
<!-- Node4&#45;&gt;Node5 -->
<g id="edge4" class="edge">
<title>Node4&#45;&gt;Node5</title>
<path fill="none" stroke="midnightblue" d="M68.57,-123.4C59.99,-113.26 48.4,-99.57 39.41,-88.94"/>
<polygon fill="midnightblue" stroke="midnightblue" points="41.99,-86.57 32.86,-81.19 36.64,-91.09 41.99,-86.57"/>
</g>
<!-- Node6 -->
<g id="node6" class="node">
<title>Node6</title>
<g id="a_node6"><a xlink:title=" ">
<polygon fill="white" stroke="#bfbfbf" points="69.5,-62 69.5,-81 117.5,-81 117.5,-62 69.5,-62"/>
<text text-anchor="middle" x="93.5" y="-69" font-family="Helvetica,sans-Serif" font-size="10.00">stdint.h</text>
</a>
</g>
</g>
<!-- Node4&#45;&gt;Node6 -->
<g id="edge5" class="edge">
<title>Node4&#45;&gt;Node6</title>
<path fill="none" stroke="midnightblue" d="M83.32,-123.4C85.21,-113.96 87.71,-101.45 89.76,-91.19"/>
<polygon fill="midnightblue" stroke="midnightblue" points="93.23,-91.69 91.76,-81.19 86.37,-90.31 93.23,-91.69"/>
</g>
<!-- Node4&#45;&gt;Node7 -->
<g id="edge6" class="edge">
<title>Node4&#45;&gt;Node7</title>
<path fill="none" stroke="midnightblue" d="M103.28,-123.4C121.05,-112.39 145.6,-97.2 163.24,-86.28"/>
<polygon fill="midnightblue" stroke="midnightblue" points="165.1,-89.25 171.76,-81.01 161.41,-83.29 165.1,-89.25"/>
</g>
<!-- Node8&#45;&gt;Node7 -->
<g id="edge10" class="edge">
<title>Node8&#45;&gt;Node7</title>
<path fill="none" stroke="midnightblue" d="M259.1,-123.4C243.49,-112.6 222.02,-97.76 206.31,-86.89"/>
<polygon fill="midnightblue" stroke="midnightblue" points="208.02,-83.82 197.8,-81.01 204.04,-89.57 208.02,-83.82"/>
</g>
<!-- Node9 -->
<g id="node9" class="node">
<title>Node9</title>
<g id="a_node9"><a xlink:href="atomic-entry-flag_8h.html" target="_top" xlink:title=" ">
<polygon fill="white" stroke="black" points="233.5,-56.5 233.5,-86.5 343.5,-86.5 343.5,-56.5 233.5,-56.5"/>
<text text-anchor="start" x="241.5" y="-74.5" font-family="Helvetica,sans-Serif" font-size="10.00">cppgc/internal/atomic</text>
<text text-anchor="middle" x="288.5" y="-63.5" font-family="Helvetica,sans-Serif" font-size="10.00">&#45;entry&#45;flag.h</text>
</a>
</g>
</g>
<!-- Node8&#45;&gt;Node9 -->
<g id="edge8" class="edge">
<title>Node8&#45;&gt;Node9</title>
<path fill="none" stroke="midnightblue" d="M281.45,-123.4C282.54,-115.56 283.92,-105.6 285.17,-96.57"/>
<polygon fill="midnightblue" stroke="midnightblue" points="288.65,-96.96 286.55,-86.58 281.71,-96 288.65,-96.96"/>
</g>
<!-- Node10 -->
<g id="node10" class="node">
<title>Node10</title>
<g id="a_node10"><a xlink:title=" ">
<polygon fill="white" stroke="#bfbfbf" points="265.5,-0.5 265.5,-19.5 311.5,-19.5 311.5,-0.5 265.5,-0.5"/>
<text text-anchor="middle" x="288.5" y="-7.5" font-family="Helvetica,sans-Serif" font-size="10.00">atomic</text>
</a>
</g>
</g>
<!-- Node9&#45;&gt;Node10 -->
<g id="edge9" class="edge">
<title>Node9&#45;&gt;Node10</title>
<path fill="none" stroke="midnightblue" d="M288.5,-56.4C288.5,-48.47 288.5,-38.46 288.5,-29.86"/>
<polygon fill="midnightblue" stroke="midnightblue" points="292,-29.66 288.5,-19.66 285,-29.66 292,-29.66"/>
</g>
<!-- Node11&#45;&gt;Node7 -->
<g id="edge15" class="edge">
<title>Node11&#45;&gt;Node7</title>
<path fill="none" stroke="midnightblue" d="M369.46,-128.97C333.54,-119.5 274.57,-103.38 224.5,-87 222.1,-86.21 219.62,-85.37 217.14,-84.5"/>
<polygon fill="midnightblue" stroke="midnightblue" points="218.26,-81.19 207.67,-81.09 215.89,-87.77 218.26,-81.19"/>
</g>
<!-- Node12 -->
<g id="node12" class="node">
<title>Node12</title>
<g id="a_node12"><a xlink:title=" ">
<polygon fill="white" stroke="#bfbfbf" points="394.5,-0.5 394.5,-19.5 456.5,-19.5 456.5,-0.5 394.5,-0.5"/>
<text text-anchor="middle" x="425.5" y="-7.5" font-family="Helvetica,sans-Serif" font-size="10.00">type_traits</text>
</a>
</g>
</g>
<!-- Node11&#45;&gt;Node12 -->
<g id="edge12" class="edge">
<title>Node11&#45;&gt;Node12</title>
<path fill="none" stroke="midnightblue" d="M401.94,-128.8C401.2,-113.75 400.58,-81.97 406.5,-56 408.62,-46.7 412.55,-36.88 416.28,-28.8"/>
<polygon fill="midnightblue" stroke="midnightblue" points="419.51,-30.18 420.76,-19.66 413.22,-27.1 419.51,-30.18"/>
</g>
<!-- Node13 -->
<g id="node13" class="node">
<title>Node13</title>
<g id="a_node13"><a xlink:href="type-traits_8h.html" target="_top" xlink:title=" ">
<polygon fill="white" stroke="black" points="415.5,-62 415.5,-81 511.5,-81 511.5,-62 415.5,-62"/>
<text text-anchor="middle" x="463.5" y="-69" font-family="Helvetica,sans-Serif" font-size="10.00">cppgc/type&#45;traits.h</text>
</a>
</g>
</g>
<!-- Node11&#45;&gt;Node13 -->
<g id="edge13" class="edge">
<title>Node11&#45;&gt;Node13</title>
<path fill="none" stroke="midnightblue" d="M410.73,-128.73C420.33,-118.5 436.41,-101.36 448.3,-88.69"/>
<polygon fill="midnightblue" stroke="midnightblue" points="451.11,-90.81 455.4,-81.13 446.01,-86.02 451.11,-90.81"/>
</g>
<!-- Node13&#45;&gt;Node12 -->
<g id="edge14" class="edge">
<title>Node13&#45;&gt;Node12</title>
<path fill="none" stroke="midnightblue" d="M458.06,-61.98C452.41,-53.14 443.44,-39.09 436.34,-27.98"/>
<polygon fill="midnightblue" stroke="midnightblue" points="439.27,-26.05 430.93,-19.51 433.37,-29.82 439.27,-26.05"/>
</g>
</g>
</svg>
