<?xml version="1.0" encoding="UTF-8" standalone="no"?>
<!DOCTYPE svg PUBLIC "-//W3C//DTD SVG 1.1//EN"
 "http://www.w3.org/Graphics/SVG/1.1/DTD/svg11.dtd">
<!-- Generated by graphviz version 2.44.0 ()
 -->
<!-- Title: Graphical Class Hierarchy Pages: 1 -->
<svg width="796pt" height="978pt"
 viewBox="0.00 0.00 796.00 978.00" xmlns="http://www.w3.org/2000/svg" xmlns:xlink="http://www.w3.org/1999/xlink">
<g id="graph0" class="graph" transform="scale(1 1) rotate(0) translate(4 974)">
<title>Graphical Class Hierarchy</title>
<polygon fill="white" stroke="transparent" points="-4,4 -4,-974 792,-974 792,4 -4,4"/>
<!-- Node0 -->
<g id="node1" class="node">
<title>Node0</title>
<g id="a_node1"><a xlink:href="classv8_1_1Data.html" target="_top" xlink:title=" ">
<polygon fill="white" stroke="black" points="0,-646.5 0,-665.5 52,-665.5 52,-646.5 0,-646.5"/>
<text text-anchor="middle" x="26" y="-653.5" font-family="Helvetica,sans-Serif" font-size="10.00">v8::Data</text>
</a>
</g>
</g>
<!-- Node1 -->
<g id="node2" class="node">
<title>Node1</title>
<g id="a_node2"><a xlink:href="classv8_1_1AccessorSignature.html" target="_top" xlink:title=" ">
<polygon fill="white" stroke="black" points="95,-798.5 95,-817.5 209,-817.5 209,-798.5 95,-798.5"/>
<text text-anchor="middle" x="152" y="-805.5" font-family="Helvetica,sans-Serif" font-size="10.00">v8::AccessorSignature</text>
</a>
</g>
</g>
<!-- Node0&#45;&gt;Node1 -->
<g id="edge1" class="edge">
<title>Node0&#45;&gt;Node1</title>
<path fill="none" stroke="midnightblue" d="M30.72,-675.79C37.2,-704.83 53.34,-758.79 88,-789 92.48,-792.9 97.74,-796 103.27,-798.47"/>
<polygon fill="midnightblue" stroke="midnightblue" points="34.07,-674.74 28.62,-665.66 27.22,-676.16 34.07,-674.74"/>
</g>
<!-- Node2 -->
<g id="node3" class="node">
<title>Node2</title>
<g id="a_node3"><a xlink:href="classv8_1_1FixedArray.html" target="_top" xlink:title=" ">
<polygon fill="white" stroke="black" points="113.5,-760.5 113.5,-779.5 190.5,-779.5 190.5,-760.5 113.5,-760.5"/>
<text text-anchor="middle" x="152" y="-767.5" font-family="Helvetica,sans-Serif" font-size="10.00">v8::FixedArray</text>
</a>
</g>
</g>
<!-- Node0&#45;&gt;Node2 -->
<g id="edge2" class="edge">
<title>Node0&#45;&gt;Node2</title>
<path fill="none" stroke="midnightblue" d="M34.42,-675.09C43.75,-696.62 61.78,-731.21 88,-751 95.39,-756.57 104.41,-760.52 113.29,-763.32"/>
<polygon fill="midnightblue" stroke="midnightblue" points="37.59,-673.6 30.54,-665.69 31.12,-676.27 37.59,-673.6"/>
</g>
<!-- Node3 -->
<g id="node4" class="node">
<title>Node3</title>
<g id="a_node4"><a xlink:href="classv8_1_1Module.html" target="_top" xlink:title=" ">
<polygon fill="white" stroke="black" points="120.5,-722.5 120.5,-741.5 183.5,-741.5 183.5,-722.5 120.5,-722.5"/>
<text text-anchor="middle" x="152" y="-729.5" font-family="Helvetica,sans-Serif" font-size="10.00">v8::Module</text>
</a>
</g>
</g>
<!-- Node0&#45;&gt;Node3 -->
<g id="edge3" class="edge">
<title>Node0&#45;&gt;Node3</title>
<path fill="none" stroke="midnightblue" d="M41.73,-673.54C53.17,-686.15 70.07,-702.68 88,-713 97.9,-718.7 109.68,-722.84 120.36,-725.78"/>
<polygon fill="midnightblue" stroke="midnightblue" points="44.27,-671.13 35.04,-665.93 39.01,-675.75 44.27,-671.13"/>
</g>
<!-- Node4 -->
<g id="node5" class="node">
<title>Node4</title>
<g id="a_node5"><a xlink:href="classv8_1_1ModuleRequest.html" target="_top" xlink:title=" ">
<polygon fill="white" stroke="black" points="102.5,-684.5 102.5,-703.5 201.5,-703.5 201.5,-684.5 102.5,-684.5"/>
<text text-anchor="middle" x="152" y="-691.5" font-family="Helvetica,sans-Serif" font-size="10.00">v8::ModuleRequest</text>
</a>
</g>
</g>
<!-- Node0&#45;&gt;Node4 -->
<g id="edge4" class="edge">
<title>Node0&#45;&gt;Node4</title>
<path fill="none" stroke="midnightblue" d="M61.89,-666.93C70.43,-669.58 79.54,-672.41 88,-675 98.16,-678.11 109.25,-681.47 119.26,-684.49"/>
<polygon fill="midnightblue" stroke="midnightblue" points="62.8,-663.54 52.21,-663.91 60.72,-670.23 62.8,-663.54"/>
</g>
<!-- Node5 -->
<g id="node6" class="node">
<title>Node5</title>
<g id="a_node6"><a xlink:href="classv8_1_1Private.html" target="_top" xlink:title=" ">
<polygon fill="white" stroke="black" points="121,-646.5 121,-665.5 183,-665.5 183,-646.5 121,-646.5"/>
<text text-anchor="middle" x="152" y="-653.5" font-family="Helvetica,sans-Serif" font-size="10.00">v8::Private</text>
</a>
</g>
</g>
<!-- Node0&#45;&gt;Node5 -->
<g id="edge5" class="edge">
<title>Node0&#45;&gt;Node5</title>
<path fill="none" stroke="midnightblue" d="M62.16,-656C80.62,-656 103,-656 120.69,-656"/>
<polygon fill="midnightblue" stroke="midnightblue" points="62.09,-652.5 52.09,-656 62.09,-659.5 62.09,-652.5"/>
</g>
<!-- Node6 -->
<g id="node7" class="node">
<title>Node6</title>
<g id="a_node7"><a xlink:href="classv8_1_1Signature.html" target="_top" xlink:title=" ">
<polygon fill="white" stroke="black" points="115.5,-608.5 115.5,-627.5 188.5,-627.5 188.5,-608.5 115.5,-608.5"/>
<text text-anchor="middle" x="152" y="-615.5" font-family="Helvetica,sans-Serif" font-size="10.00">v8::Signature</text>
</a>
</g>
</g>
<!-- Node0&#45;&gt;Node6 -->
<g id="edge6" class="edge">
<title>Node0&#45;&gt;Node6</title>
<path fill="none" stroke="midnightblue" d="M61.89,-645.07C70.43,-642.42 79.54,-639.59 88,-637 98.16,-633.89 109.25,-630.53 119.26,-627.51"/>
<polygon fill="midnightblue" stroke="midnightblue" points="60.72,-641.77 52.21,-648.09 62.8,-648.46 60.72,-641.77"/>
</g>
<!-- Node7 -->
<g id="node8" class="node">
<title>Node7</title>
<g id="a_node8"><a xlink:href="classv8_1_1Template.html" target="_top" xlink:title=" ">
<polygon fill="white" stroke="black" points="116,-570.5 116,-589.5 188,-589.5 188,-570.5 116,-570.5"/>
<text text-anchor="middle" x="152" y="-577.5" font-family="Helvetica,sans-Serif" font-size="10.00">v8::Template</text>
</a>
</g>
</g>
<!-- Node0&#45;&gt;Node7 -->
<g id="edge7" class="edge">
<title>Node0&#45;&gt;Node7</title>
<path fill="none" stroke="midnightblue" d="M41.73,-638.46C53.17,-625.85 70.07,-609.32 88,-599 96.52,-594.1 106.42,-590.35 115.82,-587.52"/>
<polygon fill="midnightblue" stroke="midnightblue" points="39.01,-636.25 35.04,-646.07 44.27,-640.87 39.01,-636.25"/>
</g>
<!-- Node10 -->
<g id="node11" class="node">
<title>Node10</title>
<g id="a_node11"><a xlink:href="classv8_1_1UnboundModuleScript.html" target="_top" xlink:title=" ">
<polygon fill="white" stroke="black" points="88,-532.5 88,-551.5 216,-551.5 216,-532.5 88,-532.5"/>
<text text-anchor="middle" x="152" y="-539.5" font-family="Helvetica,sans-Serif" font-size="10.00">v8::UnboundModuleScript</text>
</a>
</g>
</g>
<!-- Node0&#45;&gt;Node10 -->
<g id="edge10" class="edge">
<title>Node0&#45;&gt;Node10</title>
<path fill="none" stroke="midnightblue" d="M34.42,-636.91C43.75,-615.38 61.78,-580.79 88,-561 93.11,-557.15 98.99,-554.07 105.08,-551.61"/>
<polygon fill="midnightblue" stroke="midnightblue" points="31.12,-635.73 30.54,-646.31 37.59,-638.4 31.12,-635.73"/>
</g>
<!-- Node11 -->
<g id="node12" class="node">
<title>Node11</title>
<g id="a_node12"><a xlink:href="classv8_1_1Value.html" target="_top" xlink:title=" ">
<polygon fill="white" stroke="black" points="124,-494.5 124,-513.5 180,-513.5 180,-494.5 124,-494.5"/>
<text text-anchor="middle" x="152" y="-501.5" font-family="Helvetica,sans-Serif" font-size="10.00">v8::Value</text>
</a>
</g>
</g>
<!-- Node0&#45;&gt;Node11 -->
<g id="edge11" class="edge">
<title>Node0&#45;&gt;Node11</title>
<path fill="none" stroke="midnightblue" d="M30.72,-636.21C37.2,-607.17 53.34,-553.21 88,-523 97.9,-514.37 111.62,-509.66 123.73,-507.09"/>
<polygon fill="midnightblue" stroke="midnightblue" points="27.22,-635.84 28.62,-646.34 34.07,-637.26 27.22,-635.84"/>
</g>
<!-- Node8 -->
<g id="node9" class="node">
<title>Node8</title>
<g id="a_node9"><a xlink:href="classv8_1_1FunctionTemplate.html" target="_top" xlink:title=" ">
<polygon fill="white" stroke="black" points="252,-608.5 252,-627.5 362,-627.5 362,-608.5 252,-608.5"/>
<text text-anchor="middle" x="307" y="-615.5" font-family="Helvetica,sans-Serif" font-size="10.00">v8::FunctionTemplate</text>
</a>
</g>
</g>
<!-- Node7&#45;&gt;Node8 -->
<g id="edge8" class="edge">
<title>Node7&#45;&gt;Node8</title>
<path fill="none" stroke="midnightblue" d="M197.93,-591.16C220.04,-596.65 246.41,-603.2 267.57,-608.46"/>
<polygon fill="midnightblue" stroke="midnightblue" points="198.65,-587.73 188.1,-588.72 196.96,-594.53 198.65,-587.73"/>
</g>
<!-- Node9 -->
<g id="node10" class="node">
<title>Node9</title>
<g id="a_node10"><a xlink:href="classv8_1_1ObjectTemplate.html" target="_top" xlink:title=" ">
<polygon fill="white" stroke="black" points="256.5,-570.5 256.5,-589.5 357.5,-589.5 357.5,-570.5 256.5,-570.5"/>
<text text-anchor="middle" x="307" y="-577.5" font-family="Helvetica,sans-Serif" font-size="10.00">v8::ObjectTemplate</text>
</a>
</g>
</g>
<!-- Node7&#45;&gt;Node9 -->
<g id="edge9" class="edge">
<title>Node7&#45;&gt;Node9</title>
<path fill="none" stroke="midnightblue" d="M198.2,-580C216.45,-580 237.59,-580 256.28,-580"/>
<polygon fill="midnightblue" stroke="midnightblue" points="198.1,-576.5 188.1,-580 198.1,-583.5 198.1,-576.5"/>
</g>
<!-- Node12 -->
<g id="node13" class="node">
<title>Node12</title>
<g id="a_node13"><a xlink:href="classv8_1_1External.html" target="_top" xlink:title=" ">
<polygon fill="white" stroke="black" points="274,-532.5 274,-551.5 340,-551.5 340,-532.5 274,-532.5"/>
<text text-anchor="middle" x="307" y="-539.5" font-family="Helvetica,sans-Serif" font-size="10.00">v8::External</text>
</a>
</g>
</g>
<!-- Node11&#45;&gt;Node12 -->
<g id="edge12" class="edge">
<title>Node11&#45;&gt;Node12</title>
<path fill="none" stroke="midnightblue" d="M189.75,-513.13C215.43,-519.51 249.39,-527.94 273.97,-534.05"/>
<polygon fill="midnightblue" stroke="midnightblue" points="190.55,-509.72 180,-510.71 188.86,-516.51 190.55,-509.72"/>
</g>
<!-- Node13 -->
<g id="node14" class="node">
<title>Node13</title>
<g id="a_node14"><a xlink:href="classv8_1_1Object.html" target="_top" xlink:title=" ">
<polygon fill="white" stroke="black" points="277,-494.5 277,-513.5 337,-513.5 337,-494.5 277,-494.5"/>
<text text-anchor="middle" x="307" y="-501.5" font-family="Helvetica,sans-Serif" font-size="10.00">v8::Object</text>
</a>
</g>
</g>
<!-- Node11&#45;&gt;Node13 -->
<g id="edge13" class="edge">
<title>Node11&#45;&gt;Node13</title>
<path fill="none" stroke="midnightblue" d="M190.12,-504C216.81,-504 252.29,-504 276.93,-504"/>
<polygon fill="midnightblue" stroke="midnightblue" points="190,-500.5 180,-504 190,-507.5 190,-500.5"/>
</g>
<!-- Node46 -->
<g id="node47" class="node">
<title>Node46</title>
<g id="a_node47"><a xlink:href="classv8_1_1Primitive.html" target="_top" xlink:title=" ">
<polygon fill="white" stroke="black" points="272,-95.5 272,-114.5 342,-114.5 342,-95.5 272,-95.5"/>
<text text-anchor="middle" x="307" y="-102.5" font-family="Helvetica,sans-Serif" font-size="10.00">v8::Primitive</text>
</a>
</g>
</g>
<!-- Node11&#45;&gt;Node46 -->
<g id="edge46" class="edge">
<title>Node11&#45;&gt;Node46</title>
<path fill="none" stroke="midnightblue" d="M160.45,-484.56C187.87,-413.07 282.55,-166.17 302.35,-114.52"/>
<polygon fill="midnightblue" stroke="midnightblue" points="157.09,-483.55 156.78,-494.14 163.63,-486.05 157.09,-483.55"/>
</g>
<!-- Node14 -->
<g id="node15" class="node">
<title>Node14</title>
<g id="a_node15"><a xlink:href="classv8_1_1Array.html" target="_top" xlink:title=" ">
<polygon fill="white" stroke="black" points="432,-855.5 432,-874.5 486,-874.5 486,-855.5 432,-855.5"/>
<text text-anchor="middle" x="459" y="-862.5" font-family="Helvetica,sans-Serif" font-size="10.00">v8::Array</text>
</a>
</g>
</g>
<!-- Node13&#45;&gt;Node14 -->
<g id="edge14" class="edge">
<title>Node13&#45;&gt;Node14</title>
<path fill="none" stroke="midnightblue" d="M346.62,-511.51C352.52,-514.23 357.98,-517.95 362,-523 451.89,-636.06 306.33,-734.37 398,-846 406.25,-856.05 419.8,-860.86 431.93,-863.13"/>
<polygon fill="midnightblue" stroke="midnightblue" points="347.7,-508.18 337.11,-507.98 345.27,-514.74 347.7,-508.18"/>
</g>
<!-- Node15 -->
<g id="node16" class="node">
<title>Node15</title>
<g id="a_node16"><a xlink:href="classv8_1_1ArrayBuffer.html" target="_top" xlink:title=" ">
<polygon fill="white" stroke="black" points="419,-817.5 419,-836.5 499,-836.5 499,-817.5 419,-817.5"/>
<text text-anchor="middle" x="459" y="-824.5" font-family="Helvetica,sans-Serif" font-size="10.00">v8::ArrayBuffer</text>
</a>
</g>
</g>
<!-- Node13&#45;&gt;Node15 -->
<g id="edge15" class="edge">
<title>Node13&#45;&gt;Node15</title>
<path fill="none" stroke="midnightblue" d="M346.56,-511.56C352.47,-514.28 357.94,-517.98 362,-523 442.19,-622.35 316.25,-709.93 398,-808 403.39,-814.46 410.96,-818.76 418.92,-821.6"/>
<polygon fill="midnightblue" stroke="midnightblue" points="347.64,-508.23 337.05,-508.03 345.21,-514.79 347.64,-508.23"/>
</g>
<!-- Node16 -->
<g id="node17" class="node">
<title>Node16</title>
<g id="a_node17"><a xlink:href="classv8_1_1ArrayBufferView.html" target="_top" xlink:title=" ">
<polygon fill="white" stroke="black" points="408.5,-779.5 408.5,-798.5 509.5,-798.5 509.5,-779.5 408.5,-779.5"/>
<text text-anchor="middle" x="459" y="-786.5" font-family="Helvetica,sans-Serif" font-size="10.00">v8::ArrayBufferView</text>
</a>
</g>
</g>
<!-- Node13&#45;&gt;Node16 -->
<g id="edge16" class="edge">
<title>Node13&#45;&gt;Node16</title>
<path fill="none" stroke="midnightblue" d="M346.66,-511.7C352.51,-514.41 357.94,-518.06 362,-523 432.5,-608.66 326.16,-685.47 398,-770 401.25,-773.83 405.28,-776.9 409.69,-779.35"/>
<polygon fill="midnightblue" stroke="midnightblue" points="347.84,-508.41 337.25,-508.18 345.39,-514.97 347.84,-508.41"/>
</g>
<!-- Node30 -->
<g id="node31" class="node">
<title>Node30</title>
<g id="a_node31"><a xlink:href="classv8_1_1BigIntObject.html" target="_top" xlink:title=" ">
<polygon fill="white" stroke="black" points="416,-741.5 416,-760.5 502,-760.5 502,-741.5 416,-741.5"/>
<text text-anchor="middle" x="459" y="-748.5" font-family="Helvetica,sans-Serif" font-size="10.00">v8::BigIntObject</text>
</a>
</g>
</g>
<!-- Node13&#45;&gt;Node30 -->
<g id="edge30" class="edge">
<title>Node13&#45;&gt;Node30</title>
<path fill="none" stroke="midnightblue" d="M346.55,-511.79C352.41,-514.49 357.87,-518.12 362,-523 422.83,-595 336.04,-660.97 398,-732 402.74,-737.43 409.03,-741.33 415.74,-744.12"/>
<polygon fill="midnightblue" stroke="midnightblue" points="347.73,-508.5 337.14,-508.28 345.28,-515.05 347.73,-508.5"/>
</g>
<!-- Node31 -->
<g id="node32" class="node">
<title>Node31</title>
<g id="a_node32"><a xlink:href="classv8_1_1BooleanObject.html" target="_top" xlink:title=" ">
<polygon fill="white" stroke="black" points="411.5,-703.5 411.5,-722.5 506.5,-722.5 506.5,-703.5 411.5,-703.5"/>
<text text-anchor="middle" x="459" y="-710.5" font-family="Helvetica,sans-Serif" font-size="10.00">v8::BooleanObject</text>
</a>
</g>
</g>
<!-- Node13&#45;&gt;Node31 -->
<g id="edge31" class="edge">
<title>Node13&#45;&gt;Node31</title>
<path fill="none" stroke="midnightblue" d="M346.99,-512.2C352.65,-514.85 357.93,-518.36 362,-523 413.21,-581.39 345.87,-636.43 398,-694 401.74,-698.13 406.37,-701.37 411.39,-703.91"/>
<polygon fill="midnightblue" stroke="midnightblue" points="347.85,-508.78 337.26,-508.5 345.36,-515.32 347.85,-508.78"/>
</g>
<!-- Node32 -->
<g id="node33" class="node">
<title>Node32</title>
<g id="a_node33"><a xlink:href="classv8_1_1Date.html" target="_top" xlink:title=" ">
<polygon fill="white" stroke="black" points="433,-665.5 433,-684.5 485,-684.5 485,-665.5 433,-665.5"/>
<text text-anchor="middle" x="459" y="-672.5" font-family="Helvetica,sans-Serif" font-size="10.00">v8::Date</text>
</a>
</g>
</g>
<!-- Node13&#45;&gt;Node32 -->
<g id="edge32" class="edge">
<title>Node13&#45;&gt;Node32</title>
<path fill="none" stroke="midnightblue" d="M346.77,-512.4C352.45,-515.03 357.8,-518.47 362,-523 403.67,-567.87 355.62,-611.79 398,-656 407.07,-665.47 420.82,-670.23 432.87,-672.62"/>
<polygon fill="midnightblue" stroke="midnightblue" points="347.62,-508.98 337.03,-508.71 345.14,-515.52 347.62,-508.98"/>
</g>
<!-- Node33 -->
<g id="node34" class="node">
<title>Node33</title>
<g id="a_node34"><a xlink:href="classv8_1_1Function.html" target="_top" xlink:title=" ">
<polygon fill="white" stroke="black" points="424.5,-627.5 424.5,-646.5 493.5,-646.5 493.5,-627.5 424.5,-627.5"/>
<text text-anchor="middle" x="459" y="-634.5" font-family="Helvetica,sans-Serif" font-size="10.00">v8::Function</text>
</a>
</g>
</g>
<!-- Node13&#45;&gt;Node33 -->
<g id="edge33" class="edge">
<title>Node13&#45;&gt;Node33</title>
<path fill="none" stroke="midnightblue" d="M346.75,-512.92C352.35,-515.48 357.67,-518.77 362,-523 394.31,-554.54 365.2,-586.97 398,-618 405.22,-624.83 414.89,-629.21 424.36,-632.01"/>
<polygon fill="midnightblue" stroke="midnightblue" points="347.78,-509.57 337.19,-509.27 345.28,-516.11 347.78,-509.57"/>
</g>
<!-- Node34 -->
<g id="node35" class="node">
<title>Node34</title>
<g id="a_node35"><a xlink:href="classv8_1_1Map.html" target="_top" xlink:title=" ">
<polygon fill="white" stroke="black" points="434,-589.5 434,-608.5 484,-608.5 484,-589.5 434,-589.5"/>
<text text-anchor="middle" x="459" y="-596.5" font-family="Helvetica,sans-Serif" font-size="10.00">v8::Map</text>
</a>
</g>
</g>
<!-- Node13&#45;&gt;Node34 -->
<g id="edge34" class="edge">
<title>Node13&#45;&gt;Node34</title>
<path fill="none" stroke="midnightblue" d="M346.41,-513.87C351.97,-516.31 357.37,-519.31 362,-523 385.43,-541.67 374.28,-561.7 398,-580 408.38,-588.01 422.21,-592.68 433.98,-595.39"/>
<polygon fill="midnightblue" stroke="midnightblue" points="347.6,-510.58 337.01,-510.29 345.11,-517.12 347.6,-510.58"/>
</g>
<!-- Node35 -->
<g id="node36" class="node">
<title>Node35</title>
<g id="a_node36"><a xlink:href="classv8_1_1NumberObject.html" target="_top" xlink:title=" ">
<polygon fill="white" stroke="black" points="411.5,-551.5 411.5,-570.5 506.5,-570.5 506.5,-551.5 411.5,-551.5"/>
<text text-anchor="middle" x="459" y="-558.5" font-family="Helvetica,sans-Serif" font-size="10.00">v8::NumberObject</text>
</a>
</g>
</g>
<!-- Node13&#45;&gt;Node35 -->
<g id="edge35" class="edge">
<title>Node13&#45;&gt;Node35</title>
<path fill="none" stroke="midnightblue" d="M346.91,-516.91C352.03,-518.84 357.17,-520.89 362,-523 378.58,-530.24 381.31,-535.02 398,-542 406.37,-545.5 415.62,-548.73 424.29,-551.49"/>
<polygon fill="midnightblue" stroke="midnightblue" points="347.76,-513.5 337.17,-513.38 345.38,-520.08 347.76,-513.5"/>
</g>
<!-- Node36 -->
<g id="node37" class="node">
<title>Node36</title>
<g id="a_node37"><a xlink:href="classv8_1_1Promise.html" target="_top" xlink:title=" ">
<polygon fill="white" stroke="black" points="425,-513.5 425,-532.5 493,-532.5 493,-513.5 425,-513.5"/>
<text text-anchor="middle" x="459" y="-520.5" font-family="Helvetica,sans-Serif" font-size="10.00">v8::Promise</text>
</a>
</g>
</g>
<!-- Node13&#45;&gt;Node36 -->
<g id="edge36" class="edge">
<title>Node13&#45;&gt;Node36</title>
<path fill="none" stroke="midnightblue" d="M347.51,-509C371.61,-512.06 402.05,-515.91 424.88,-518.8"/>
<polygon fill="midnightblue" stroke="midnightblue" points="347.64,-505.49 337.28,-507.71 346.76,-512.44 347.64,-505.49"/>
</g>
<!-- Node37 -->
<g id="node38" class="node">
<title>Node37</title>
<g id="a_node38"><a xlink:href="classv8_1_1Promise_1_1Resolver.html" target="_top" xlink:title=" ">
<polygon fill="white" stroke="black" points="404,-475.5 404,-494.5 514,-494.5 514,-475.5 404,-475.5"/>
<text text-anchor="middle" x="459" y="-482.5" font-family="Helvetica,sans-Serif" font-size="10.00">v8::Promise::Resolver</text>
</a>
</g>
</g>
<!-- Node13&#45;&gt;Node37 -->
<g id="edge37" class="edge">
<title>Node13&#45;&gt;Node37</title>
<path fill="none" stroke="midnightblue" d="M347.55,-498.99C364.79,-496.81 385.28,-494.21 403.9,-491.85"/>
<polygon fill="midnightblue" stroke="midnightblue" points="346.76,-495.56 337.28,-500.29 347.64,-502.51 346.76,-495.56"/>
</g>
<!-- Node38 -->
<g id="node39" class="node">
<title>Node38</title>
<g id="a_node39"><a xlink:href="classv8_1_1Proxy.html" target="_top" xlink:title=" ">
<polygon fill="white" stroke="black" points="431,-437.5 431,-456.5 487,-456.5 487,-437.5 431,-437.5"/>
<text text-anchor="middle" x="459" y="-444.5" font-family="Helvetica,sans-Serif" font-size="10.00">v8::Proxy</text>
</a>
</g>
</g>
<!-- Node13&#45;&gt;Node38 -->
<g id="edge38" class="edge">
<title>Node13&#45;&gt;Node38</title>
<path fill="none" stroke="midnightblue" d="M338.79,-490.16C356.05,-482.62 378.04,-473.35 398,-466 408.66,-462.07 420.56,-458.2 430.94,-454.98"/>
<polygon fill="midnightblue" stroke="midnightblue" points="336.97,-487.14 329.23,-494.38 339.8,-493.54 336.97,-487.14"/>
</g>
<!-- Node39 -->
<g id="node40" class="node">
<title>Node39</title>
<g id="a_node40"><a xlink:href="classv8_1_1RegExp.html" target="_top" xlink:title=" ">
<polygon fill="white" stroke="black" points="426.5,-399.5 426.5,-418.5 491.5,-418.5 491.5,-399.5 426.5,-399.5"/>
<text text-anchor="middle" x="459" y="-406.5" font-family="Helvetica,sans-Serif" font-size="10.00">v8::RegExp</text>
</a>
</g>
</g>
<!-- Node13&#45;&gt;Node39 -->
<g id="edge39" class="edge">
<title>Node13&#45;&gt;Node39</title>
<path fill="none" stroke="midnightblue" d="M324.17,-486.84C341.11,-469.76 369.22,-443.87 398,-428 406.71,-423.2 416.81,-419.41 426.21,-416.52"/>
<polygon fill="midnightblue" stroke="midnightblue" points="321.25,-484.83 316.79,-494.44 326.27,-489.7 321.25,-484.83"/>
</g>
<!-- Node40 -->
<g id="node41" class="node">
<title>Node40</title>
<g id="a_node41"><a xlink:href="classv8_1_1Set.html" target="_top" xlink:title=" ">
<polygon fill="white" stroke="black" points="435.5,-361.5 435.5,-380.5 482.5,-380.5 482.5,-361.5 435.5,-361.5"/>
<text text-anchor="middle" x="459" y="-368.5" font-family="Helvetica,sans-Serif" font-size="10.00">v8::Set</text>
</a>
</g>
</g>
<!-- Node13&#45;&gt;Node40 -->
<g id="edge40" class="edge">
<title>Node13&#45;&gt;Node40</title>
<path fill="none" stroke="midnightblue" d="M317.82,-485.57C332.17,-460.38 361.19,-415.43 398,-390 409.15,-382.3 423.57,-377.6 435.49,-374.8"/>
<polygon fill="midnightblue" stroke="midnightblue" points="314.68,-484.02 312.9,-494.46 320.81,-487.41 314.68,-484.02"/>
</g>
<!-- Node41 -->
<g id="node42" class="node">
<title>Node41</title>
<g id="a_node42"><a xlink:href="classv8_1_1SharedArrayBuffer.html" target="_top" xlink:title=" ">
<polygon fill="white" stroke="black" points="404,-323.5 404,-342.5 514,-342.5 514,-323.5 404,-323.5"/>
<text text-anchor="middle" x="459" y="-330.5" font-family="Helvetica,sans-Serif" font-size="10.00">v8::SharedArrayBuffer</text>
</a>
</g>
</g>
<!-- Node13&#45;&gt;Node41 -->
<g id="edge41" class="edge">
<title>Node13&#45;&gt;Node41</title>
<path fill="none" stroke="midnightblue" d="M314.33,-484.54C325.81,-452.25 353.13,-387.65 398,-352 402.88,-348.13 408.56,-345.03 414.44,-342.57"/>
<polygon fill="midnightblue" stroke="midnightblue" points="310.96,-483.56 311.04,-494.16 317.59,-485.83 310.96,-483.56"/>
</g>
<!-- Node42 -->
<g id="node43" class="node">
<title>Node42</title>
<g id="a_node43"><a xlink:href="classv8_1_1StringObject.html" target="_top" xlink:title=" ">
<polygon fill="white" stroke="black" points="416,-285.5 416,-304.5 502,-304.5 502,-285.5 416,-285.5"/>
<text text-anchor="middle" x="459" y="-292.5" font-family="Helvetica,sans-Serif" font-size="10.00">v8::StringObject</text>
</a>
</g>
</g>
<!-- Node13&#45;&gt;Node42 -->
<g id="edge42" class="edge">
<title>Node13&#45;&gt;Node42</title>
<path fill="none" stroke="midnightblue" d="M311.79,-484.62C320.28,-446.34 344.44,-360.75 398,-314 403.19,-309.47 409.45,-306.02 415.96,-303.4"/>
<polygon fill="midnightblue" stroke="midnightblue" points="308.35,-483.98 309.72,-494.48 315.2,-485.41 308.35,-483.98"/>
</g>
<!-- Node43 -->
<g id="node44" class="node">
<title>Node43</title>
<g id="a_node44"><a xlink:href="classv8_1_1SymbolObject.html" target="_top" xlink:title=" ">
<polygon fill="white" stroke="black" points="413,-247.5 413,-266.5 505,-266.5 505,-247.5 413,-247.5"/>
<text text-anchor="middle" x="459" y="-254.5" font-family="Helvetica,sans-Serif" font-size="10.00">v8::SymbolObject</text>
</a>
</g>
</g>
<!-- Node13&#45;&gt;Node43 -->
<g id="edge43" class="edge">
<title>Node13&#45;&gt;Node43</title>
<path fill="none" stroke="midnightblue" d="M310.13,-484.13C315.92,-440.16 335.89,-333.95 398,-276 402.31,-271.97 407.48,-268.8 412.94,-266.3"/>
<polygon fill="midnightblue" stroke="midnightblue" points="306.65,-483.78 308.93,-494.12 313.6,-484.62 306.65,-483.78"/>
</g>
<!-- Node44 -->
<g id="node45" class="node">
<title>Node44</title>
<g id="a_node45"><a xlink:href="classv8_1_1WasmMemoryObject.html" target="_top" xlink:title=" ">
<polygon fill="white" stroke="black" points="398,-209.5 398,-228.5 520,-228.5 520,-209.5 398,-209.5"/>
<text text-anchor="middle" x="459" y="-216.5" font-family="Helvetica,sans-Serif" font-size="10.00">v8::WasmMemoryObject</text>
</a>
</g>
</g>
<!-- Node13&#45;&gt;Node44 -->
<g id="edge44" class="edge">
<title>Node13&#45;&gt;Node44</title>
<path fill="none" stroke="midnightblue" d="M308.84,-484.25C311.98,-435.37 326.94,-307.68 398,-238 401.98,-234.1 406.75,-231 411.85,-228.53"/>
<polygon fill="midnightblue" stroke="midnightblue" points="305.33,-484.24 308.28,-494.42 312.32,-484.62 305.33,-484.24"/>
</g>
<!-- Node45 -->
<g id="node46" class="node">
<title>Node45</title>
<g id="a_node46"><a xlink:href="classv8_1_1WasmModuleObject.html" target="_top" xlink:title=" ">
<polygon fill="white" stroke="black" points="399.5,-171.5 399.5,-190.5 518.5,-190.5 518.5,-171.5 399.5,-171.5"/>
<text text-anchor="middle" x="459" y="-178.5" font-family="Helvetica,sans-Serif" font-size="10.00">v8::WasmModuleObject</text>
</a>
</g>
</g>
<!-- Node13&#45;&gt;Node45 -->
<g id="edge45" class="edge">
<title>Node13&#45;&gt;Node45</title>
<path fill="none" stroke="midnightblue" d="M307.86,-484.02C308.58,-430.31 318.09,-281.44 398,-200 401.83,-196.1 406.45,-193 411.41,-190.53"/>
<polygon fill="midnightblue" stroke="midnightblue" points="304.35,-484.22 307.81,-494.24 311.35,-484.25 304.35,-484.22"/>
</g>
<!-- Node17 -->
<g id="node18" class="node">
<title>Node17</title>
<g id="a_node18"><a xlink:href="classv8_1_1DataView.html" target="_top" xlink:title=" ">
<polygon fill="white" stroke="black" points="559,-798.5 559,-817.5 633,-817.5 633,-798.5 559,-798.5"/>
<text text-anchor="middle" x="596" y="-805.5" font-family="Helvetica,sans-Serif" font-size="10.00">v8::DataView</text>
</a>
</g>
</g>
<!-- Node16&#45;&gt;Node17 -->
<g id="edge17" class="edge">
<title>Node16&#45;&gt;Node17</title>
<path fill="none" stroke="midnightblue" d="M519.56,-797.38C532.86,-799.25 546.58,-801.19 558.61,-802.88"/>
<polygon fill="midnightblue" stroke="midnightblue" points="519.89,-793.89 509.5,-795.97 518.92,-800.83 519.89,-793.89"/>
</g>
<!-- Node18 -->
<g id="node19" class="node">
<title>Node18</title>
<g id="a_node19"><a xlink:href="classv8_1_1TypedArray.html" target="_top" xlink:title=" ">
<polygon fill="white" stroke="black" points="556,-760.5 556,-779.5 636,-779.5 636,-760.5 556,-760.5"/>
<text text-anchor="middle" x="596" y="-767.5" font-family="Helvetica,sans-Serif" font-size="10.00">v8::TypedArray</text>
</a>
</g>
</g>
<!-- Node16&#45;&gt;Node18 -->
<g id="edge18" class="edge">
<title>Node16&#45;&gt;Node18</title>
<path fill="none" stroke="midnightblue" d="M519.63,-780.61C531.83,-778.89 544.37,-777.13 555.64,-775.54"/>
<polygon fill="midnightblue" stroke="midnightblue" points="518.92,-777.17 509.5,-782.03 519.89,-784.11 518.92,-777.17"/>
</g>
<!-- Node19 -->
<g id="node20" class="node">
<title>Node19</title>
<g id="a_node20"><a xlink:href="classv8_1_1BigInt64Array.html" target="_top" xlink:title=" ">
<polygon fill="white" stroke="black" points="685,-950.5 685,-969.5 775,-969.5 775,-950.5 685,-950.5"/>
<text text-anchor="middle" x="730" y="-957.5" font-family="Helvetica,sans-Serif" font-size="10.00">v8::BigInt64Array</text>
</a>
</g>
</g>
<!-- Node18&#45;&gt;Node19 -->
<g id="edge19" class="edge">
<title>Node18&#45;&gt;Node19</title>
<path fill="none" stroke="midnightblue" d="M632.92,-785.67C634.03,-786.72 635.06,-787.82 636,-789 679.38,-843.2 625.15,-889.77 672,-941 675.59,-944.93 680.01,-948.04 684.79,-950.51"/>
<polygon fill="midnightblue" stroke="midnightblue" points="634.94,-782.81 624.82,-779.68 630.78,-788.44 634.94,-782.81"/>
</g>
<!-- Node20 -->
<g id="node21" class="node">
<title>Node20</title>
<g id="a_node21"><a xlink:href="classv8_1_1BigUint64Array.html" target="_top" xlink:title=" ">
<polygon fill="white" stroke="black" points="681.5,-912.5 681.5,-931.5 778.5,-931.5 778.5,-912.5 681.5,-912.5"/>
<text text-anchor="middle" x="730" y="-919.5" font-family="Helvetica,sans-Serif" font-size="10.00">v8::BigUint64Array</text>
</a>
</g>
</g>
<!-- Node18&#45;&gt;Node20 -->
<g id="edge20" class="edge">
<title>Node18&#45;&gt;Node20</title>
<path fill="none" stroke="midnightblue" d="M632.71,-785.67C633.88,-786.71 634.99,-787.82 636,-789 670.7,-829.24 634.73,-865.13 672,-903 675.8,-906.87 680.42,-909.95 685.35,-912.4"/>
<polygon fill="midnightblue" stroke="midnightblue" points="634.38,-782.56 624.2,-779.64 630.34,-788.28 634.38,-782.56"/>
</g>
<!-- Node21 -->
<g id="node22" class="node">
<title>Node21</title>
<g id="a_node22"><a xlink:href="classv8_1_1Float32Array.html" target="_top" xlink:title=" ">
<polygon fill="white" stroke="black" points="687,-874.5 687,-893.5 773,-893.5 773,-874.5 687,-874.5"/>
<text text-anchor="middle" x="730" y="-881.5" font-family="Helvetica,sans-Serif" font-size="10.00">v8::Float32Array</text>
</a>
</g>
</g>
<!-- Node18&#45;&gt;Node21 -->
<g id="edge21" class="edge">
<title>Node18&#45;&gt;Node21</title>
<path fill="none" stroke="midnightblue" d="M631.49,-785.05C633.09,-786.28 634.61,-787.59 636,-789 662.28,-815.57 644.03,-840.21 672,-865 676.37,-868.87 681.56,-871.96 686.99,-874.42"/>
<polygon fill="midnightblue" stroke="midnightblue" points="633.28,-782.03 622.98,-779.58 629.5,-787.93 633.28,-782.03"/>
</g>
<!-- Node22 -->
<g id="node23" class="node">
<title>Node22</title>
<g id="a_node23"><a xlink:href="classv8_1_1Float64Array.html" target="_top" xlink:title=" ">
<polygon fill="white" stroke="black" points="687,-836.5 687,-855.5 773,-855.5 773,-836.5 687,-836.5"/>
<text text-anchor="middle" x="730" y="-843.5" font-family="Helvetica,sans-Serif" font-size="10.00">v8::Float64Array</text>
</a>
</g>
</g>
<!-- Node18&#45;&gt;Node22 -->
<g id="edge22" class="edge">
<title>Node18&#45;&gt;Node22</title>
<path fill="none" stroke="midnightblue" d="M629.01,-784.4C631.44,-785.85 633.8,-787.39 636,-789 654.76,-802.76 652.38,-814.5 672,-827 677.98,-830.81 684.81,-833.94 691.61,-836.47"/>
<polygon fill="midnightblue" stroke="midnightblue" points="630.52,-781.24 620.07,-779.54 627.18,-787.39 630.52,-781.24"/>
</g>
<!-- Node23 -->
<g id="node24" class="node">
<title>Node23</title>
<g id="a_node24"><a xlink:href="classv8_1_1Int16Array.html" target="_top" xlink:title=" ">
<polygon fill="white" stroke="black" points="692,-798.5 692,-817.5 768,-817.5 768,-798.5 692,-798.5"/>
<text text-anchor="middle" x="730" y="-805.5" font-family="Helvetica,sans-Serif" font-size="10.00">v8::Int16Array</text>
</a>
</g>
</g>
<!-- Node18&#45;&gt;Node23 -->
<g id="edge23" class="edge">
<title>Node18&#45;&gt;Node23</title>
<path fill="none" stroke="midnightblue" d="M640.04,-782.39C658.12,-787.59 678.82,-793.55 695.7,-798.41"/>
<polygon fill="midnightblue" stroke="midnightblue" points="640.89,-778.99 630.31,-779.59 638.95,-785.72 640.89,-778.99"/>
</g>
<!-- Node24 -->
<g id="node25" class="node">
<title>Node24</title>
<g id="a_node25"><a xlink:href="classv8_1_1Int32Array.html" target="_top" xlink:title=" ">
<polygon fill="white" stroke="black" points="692,-760.5 692,-779.5 768,-779.5 768,-760.5 692,-760.5"/>
<text text-anchor="middle" x="730" y="-767.5" font-family="Helvetica,sans-Serif" font-size="10.00">v8::Int32Array</text>
</a>
</g>
</g>
<!-- Node18&#45;&gt;Node24 -->
<g id="edge24" class="edge">
<title>Node18&#45;&gt;Node24</title>
<path fill="none" stroke="midnightblue" d="M646.45,-770C661.52,-770 677.83,-770 691.94,-770"/>
<polygon fill="midnightblue" stroke="midnightblue" points="646.25,-766.5 636.25,-770 646.25,-773.5 646.25,-766.5"/>
</g>
<!-- Node25 -->
<g id="node26" class="node">
<title>Node25</title>
<g id="a_node26"><a xlink:href="classv8_1_1Int8Array.html" target="_top" xlink:title=" ">
<polygon fill="white" stroke="black" points="694.5,-722.5 694.5,-741.5 765.5,-741.5 765.5,-722.5 694.5,-722.5"/>
<text text-anchor="middle" x="730" y="-729.5" font-family="Helvetica,sans-Serif" font-size="10.00">v8::Int8Array</text>
</a>
</g>
</g>
<!-- Node18&#45;&gt;Node25 -->
<g id="edge25" class="edge">
<title>Node18&#45;&gt;Node25</title>
<path fill="none" stroke="midnightblue" d="M640.04,-757.61C658.12,-752.41 678.82,-746.45 695.7,-741.59"/>
<polygon fill="midnightblue" stroke="midnightblue" points="638.95,-754.28 630.31,-760.41 640.89,-761.01 638.95,-754.28"/>
</g>
<!-- Node26 -->
<g id="node27" class="node">
<title>Node26</title>
<g id="a_node27"><a xlink:href="classv8_1_1Uint16Array.html" target="_top" xlink:title=" ">
<polygon fill="white" stroke="black" points="688.5,-684.5 688.5,-703.5 771.5,-703.5 771.5,-684.5 688.5,-684.5"/>
<text text-anchor="middle" x="730" y="-691.5" font-family="Helvetica,sans-Serif" font-size="10.00">v8::Uint16Array</text>
</a>
</g>
</g>
<!-- Node18&#45;&gt;Node26 -->
<g id="edge26" class="edge">
<title>Node18&#45;&gt;Node26</title>
<path fill="none" stroke="midnightblue" d="M615.11,-753.51C629.62,-740.99 650.96,-724.11 672,-713 678.92,-709.35 686.68,-706.2 694.19,-703.58"/>
<polygon fill="midnightblue" stroke="midnightblue" points="612.6,-751.05 607.41,-760.29 617.23,-756.31 612.6,-751.05"/>
</g>
<!-- Node27 -->
<g id="node28" class="node">
<title>Node27</title>
<g id="a_node28"><a xlink:href="classv8_1_1Uint32Array.html" target="_top" xlink:title=" ">
<polygon fill="white" stroke="black" points="688.5,-646.5 688.5,-665.5 771.5,-665.5 771.5,-646.5 688.5,-646.5"/>
<text text-anchor="middle" x="730" y="-653.5" font-family="Helvetica,sans-Serif" font-size="10.00">v8::Uint32Array</text>
</a>
</g>
</g>
<!-- Node18&#45;&gt;Node27 -->
<g id="edge27" class="edge">
<title>Node18&#45;&gt;Node27</title>
<path fill="none" stroke="midnightblue" d="M607.01,-751.65C619.53,-730.31 642.92,-695.42 672,-675 677.46,-671.16 683.76,-668.06 690.13,-665.56"/>
<polygon fill="midnightblue" stroke="midnightblue" points="603.93,-749.98 602.03,-760.4 610.02,-753.43 603.93,-749.98"/>
</g>
<!-- Node28 -->
<g id="node29" class="node">
<title>Node28</title>
<g id="a_node29"><a xlink:href="classv8_1_1Uint8Array.html" target="_top" xlink:title=" ">
<polygon fill="white" stroke="black" points="691.5,-608.5 691.5,-627.5 768.5,-627.5 768.5,-608.5 691.5,-608.5"/>
<text text-anchor="middle" x="730" y="-615.5" font-family="Helvetica,sans-Serif" font-size="10.00">v8::Uint8Array</text>
</a>
</g>
</g>
<!-- Node18&#45;&gt;Node28 -->
<g id="edge28" class="edge">
<title>Node18&#45;&gt;Node28</title>
<path fill="none" stroke="midnightblue" d="M602.88,-750.67C612.63,-721.83 634.82,-667.66 672,-637 677.63,-632.35 684.45,-628.83 691.38,-626.16"/>
<polygon fill="midnightblue" stroke="midnightblue" points="599.49,-749.79 599.75,-760.38 606.15,-751.94 599.49,-749.79"/>
</g>
<!-- Node29 -->
<g id="node30" class="node">
<title>Node29</title>
<g id="a_node30"><a xlink:href="classv8_1_1Uint8ClampedArray.html" target="_top" xlink:title=" ">
<polygon fill="white" stroke="black" points="672,-570.5 672,-589.5 788,-589.5 788,-570.5 672,-570.5"/>
<text text-anchor="middle" x="730" y="-577.5" font-family="Helvetica,sans-Serif" font-size="10.00">v8::Uint8ClampedArray</text>
</a>
</g>
</g>
<!-- Node18&#45;&gt;Node29 -->
<g id="edge29" class="edge">
<title>Node18&#45;&gt;Node29</title>
<path fill="none" stroke="midnightblue" d="M600.27,-750.26C607.15,-714.91 626.4,-640.6 672,-599 676.24,-595.13 681.29,-592.05 686.6,-589.59"/>
<polygon fill="midnightblue" stroke="midnightblue" points="596.79,-749.82 598.45,-760.28 603.68,-751.06 596.79,-749.82"/>
</g>
<!-- Node47 -->
<g id="node48" class="node">
<title>Node47</title>
<g id="a_node48"><a xlink:href="classv8_1_1BigInt.html" target="_top" xlink:title=" ">
<polygon fill="white" stroke="black" points="430.5,-133.5 430.5,-152.5 487.5,-152.5 487.5,-133.5 430.5,-133.5"/>
<text text-anchor="middle" x="459" y="-140.5" font-family="Helvetica,sans-Serif" font-size="10.00">v8::BigInt</text>
</a>
</g>
</g>
<!-- Node46&#45;&gt;Node47 -->
<g id="edge47" class="edge">
<title>Node46&#45;&gt;Node47</title>
<path fill="none" stroke="midnightblue" d="M351.77,-116.09C377.07,-122.5 408.14,-130.37 430.12,-135.94"/>
<polygon fill="midnightblue" stroke="midnightblue" points="352.59,-112.69 342.04,-113.62 350.87,-119.47 352.59,-112.69"/>
</g>
<!-- Node48 -->
<g id="node49" class="node">
<title>Node48</title>
<g id="a_node49"><a xlink:href="classv8_1_1Boolean.html" target="_top" xlink:title=" ">
<polygon fill="white" stroke="black" points="425.5,-95.5 425.5,-114.5 492.5,-114.5 492.5,-95.5 425.5,-95.5"/>
<text text-anchor="middle" x="459" y="-102.5" font-family="Helvetica,sans-Serif" font-size="10.00">v8::Boolean</text>
</a>
</g>
</g>
<!-- Node46&#45;&gt;Node48 -->
<g id="edge48" class="edge">
<title>Node46&#45;&gt;Node48</title>
<path fill="none" stroke="midnightblue" d="M352.1,-105C375.56,-105 403.92,-105 425.38,-105"/>
<polygon fill="midnightblue" stroke="midnightblue" points="352.04,-101.5 342.04,-105 352.04,-108.5 352.04,-101.5"/>
</g>
<!-- Node49 -->
<g id="node50" class="node">
<title>Node49</title>
<g id="a_node50"><a xlink:href="classv8_1_1Name.html" target="_top" xlink:title=" ">
<polygon fill="white" stroke="black" points="430,-57.5 430,-76.5 488,-76.5 488,-57.5 430,-57.5"/>
<text text-anchor="middle" x="459" y="-64.5" font-family="Helvetica,sans-Serif" font-size="10.00">v8::Name</text>
</a>
</g>
</g>
<!-- Node46&#45;&gt;Node49 -->
<g id="edge49" class="edge">
<title>Node46&#45;&gt;Node49</title>
<path fill="none" stroke="midnightblue" d="M352.04,-93.84C377.1,-87.49 407.76,-79.73 429.63,-74.19"/>
<polygon fill="midnightblue" stroke="midnightblue" points="350.87,-90.53 342.04,-96.38 352.59,-97.31 350.87,-90.53"/>
</g>
<!-- Node52 -->
<g id="node53" class="node">
<title>Node52</title>
<g id="a_node53"><a xlink:href="classv8_1_1Number.html" target="_top" xlink:title=" ">
<polygon fill="white" stroke="black" points="426,-19.5 426,-38.5 492,-38.5 492,-19.5 426,-19.5"/>
<text text-anchor="middle" x="459" y="-26.5" font-family="Helvetica,sans-Serif" font-size="10.00">v8::Number</text>
</a>
</g>
</g>
<!-- Node46&#45;&gt;Node52 -->
<g id="edge52" class="edge">
<title>Node46&#45;&gt;Node52</title>
<path fill="none" stroke="midnightblue" d="M329.23,-89.34C346.92,-76.84 373.15,-59.56 398,-48 406.82,-43.9 416.75,-40.35 425.97,-37.47"/>
<polygon fill="midnightblue" stroke="midnightblue" points="326.89,-86.71 320.81,-95.38 330.97,-92.39 326.89,-86.71"/>
</g>
<!-- Node50 -->
<g id="node51" class="node">
<title>Node50</title>
<g id="a_node51"><a xlink:href="classv8_1_1String.html" target="_top" xlink:title=" ">
<polygon fill="white" stroke="black" points="567.5,-95.5 567.5,-114.5 624.5,-114.5 624.5,-95.5 567.5,-95.5"/>
<text text-anchor="middle" x="596" y="-102.5" font-family="Helvetica,sans-Serif" font-size="10.00">v8::String</text>
</a>
</g>
</g>
<!-- Node49&#45;&gt;Node50 -->
<g id="edge50" class="edge">
<title>Node49&#45;&gt;Node50</title>
<path fill="none" stroke="midnightblue" d="M498,-77.7C520,-83.89 547.2,-91.55 567.2,-97.17"/>
<polygon fill="midnightblue" stroke="midnightblue" points="498.87,-74.31 488.3,-74.97 496.98,-81.04 498.87,-74.31"/>
</g>
<!-- Node51 -->
<g id="node52" class="node">
<title>Node51</title>
<g id="a_node52"><a xlink:href="classv8_1_1Symbol.html" target="_top" xlink:title=" ">
<polygon fill="white" stroke="black" points="564,-57.5 564,-76.5 628,-76.5 628,-57.5 564,-57.5"/>
<text text-anchor="middle" x="596" y="-64.5" font-family="Helvetica,sans-Serif" font-size="10.00">v8::Symbol</text>
</a>
</g>
</g>
<!-- Node49&#45;&gt;Node51 -->
<g id="edge51" class="edge">
<title>Node49&#45;&gt;Node51</title>
<path fill="none" stroke="midnightblue" d="M498.38,-67C519.12,-67 544.41,-67 563.91,-67"/>
<polygon fill="midnightblue" stroke="midnightblue" points="498.3,-63.5 488.3,-67 498.3,-70.5 498.3,-63.5"/>
</g>
<!-- Node53 -->
<g id="node54" class="node">
<title>Node53</title>
<g id="a_node54"><a xlink:href="classv8_1_1Integer.html" target="_top" xlink:title=" ">
<polygon fill="white" stroke="black" points="565,-19.5 565,-38.5 627,-38.5 627,-19.5 565,-19.5"/>
<text text-anchor="middle" x="596" y="-26.5" font-family="Helvetica,sans-Serif" font-size="10.00">v8::Integer</text>
</a>
</g>
</g>
<!-- Node52&#45;&gt;Node53 -->
<g id="edge53" class="edge">
<title>Node52&#45;&gt;Node53</title>
<path fill="none" stroke="midnightblue" d="M502.54,-29C522.75,-29 546.44,-29 564.78,-29"/>
<polygon fill="midnightblue" stroke="midnightblue" points="502.34,-25.5 492.34,-29 502.34,-32.5 502.34,-25.5"/>
</g>
<!-- Node54 -->
<g id="node55" class="node">
<title>Node54</title>
<g id="a_node55"><a xlink:href="classv8_1_1Int32.html" target="_top" xlink:title=" ">
<polygon fill="white" stroke="black" points="703.5,-38.5 703.5,-57.5 756.5,-57.5 756.5,-38.5 703.5,-38.5"/>
<text text-anchor="middle" x="730" y="-45.5" font-family="Helvetica,sans-Serif" font-size="10.00">v8::Int32</text>
</a>
</g>
</g>
<!-- Node53&#45;&gt;Node54 -->
<g id="edge54" class="edge">
<title>Node53&#45;&gt;Node54</title>
<path fill="none" stroke="midnightblue" d="M637.42,-34.82C658.87,-37.91 684.59,-41.61 703.3,-44.3"/>
<polygon fill="midnightblue" stroke="midnightblue" points="637.68,-31.32 627.28,-33.36 636.68,-38.25 637.68,-31.32"/>
</g>
<!-- Node55 -->
<g id="node56" class="node">
<title>Node55</title>
<g id="a_node56"><a xlink:href="classv8_1_1Uint32.html" target="_top" xlink:title=" ">
<polygon fill="white" stroke="black" points="700,-0.5 700,-19.5 760,-19.5 760,-0.5 700,-0.5"/>
<text text-anchor="middle" x="730" y="-7.5" font-family="Helvetica,sans-Serif" font-size="10.00">v8::Uint32</text>
</a>
</g>
</g>
<!-- Node53&#45;&gt;Node55 -->
<g id="edge55" class="edge">
<title>Node53&#45;&gt;Node55</title>
<path fill="none" stroke="midnightblue" d="M637.42,-23.18C657.55,-20.28 681.43,-16.85 699.77,-14.21"/>
<polygon fill="midnightblue" stroke="midnightblue" points="636.68,-19.75 627.28,-24.64 637.68,-26.68 636.68,-19.75"/>
</g>
</g>
</svg>
