<?xml version="1.0" encoding="UTF-8" standalone="no"?>
<!DOCTYPE svg PUBLIC "-//W3C//DTD SVG 1.1//EN"
 "http://www.w3.org/Graphics/SVG/1.1/DTD/svg11.dtd">
<!-- Generated by graphviz version 2.44.0 ()
 -->
<!-- Title: Graphical Class Hierarchy Pages: 1 -->
<svg width="530pt" height="50pt"
 viewBox="0.00 0.00 530.00 50.00" xmlns="http://www.w3.org/2000/svg" xmlns:xlink="http://www.w3.org/1999/xlink">
<g id="graph0" class="graph" transform="scale(1 1) rotate(0) translate(4 46)">
<title>Graphical Class Hierarchy</title>
<polygon fill="white" stroke="transparent" points="-4,4 -4,-46 526,-46 526,4 -4,4"/>
<!-- Node0 -->
<g id="node1" class="node">
<title>Node0</title>
<g id="a_node1"><a xlink:href="classv8_1_1PersistentValueMapBase.html" target="_top" xlink:title=" ">
<polygon fill="white" stroke="black" points="0,-0.5 0,-41.5 167,-41.5 167,-0.5 0,-0.5"/>
<text text-anchor="start" x="8" y="-29.5" font-family="Helvetica,sans-Serif" font-size="10.00">v8::PersistentValueMapBase</text>
<text text-anchor="start" x="8" y="-18.5" font-family="Helvetica,sans-Serif" font-size="10.00">&lt; K, V, DefaultPersistentValueMap</text>
<text text-anchor="middle" x="83.5" y="-7.5" font-family="Helvetica,sans-Serif" font-size="10.00">Traits&lt; K, V &gt; &gt;</text>
</a>
</g>
</g>
<!-- Node1 -->
<g id="node2" class="node">
<title>Node1</title>
<g id="a_node2"><a xlink:href="classv8_1_1PersistentValueMap.html" target="_top" xlink:title=" ">
<polygon fill="white" stroke="black" points="203,-0.5 203,-41.5 352,-41.5 352,-0.5 203,-0.5"/>
<text text-anchor="start" x="211" y="-29.5" font-family="Helvetica,sans-Serif" font-size="10.00">v8::PersistentValueMap</text>
<text text-anchor="start" x="211" y="-18.5" font-family="Helvetica,sans-Serif" font-size="10.00">&lt; K, V, DefaultPersistentValue</text>
<text text-anchor="middle" x="277.5" y="-7.5" font-family="Helvetica,sans-Serif" font-size="10.00">MapTraits&lt; K, V &gt; &gt;</text>
</a>
</g>
</g>
<!-- Node0&#45;&gt;Node1 -->
<g id="edge1" class="edge">
<title>Node0&#45;&gt;Node1</title>
<path fill="none" stroke="midnightblue" d="M177.12,-21C185.74,-21 194.4,-21 202.81,-21"/>
<polygon fill="midnightblue" stroke="midnightblue" points="177.04,-17.5 167.04,-21 177.04,-24.5 177.04,-17.5"/>
</g>
<!-- Node2 -->
<g id="node3" class="node">
<title>Node2</title>
<g id="a_node3"><a xlink:href="classv8_1_1StdPersistentValueMap.html" target="_top" xlink:title=" ">
<polygon fill="white" stroke="black" points="388,-6 388,-36 522,-36 522,-6 388,-6"/>
<text text-anchor="start" x="396" y="-24" font-family="Helvetica,sans-Serif" font-size="10.00">v8::StdPersistentValueMap</text>
<text text-anchor="middle" x="455" y="-13" font-family="Helvetica,sans-Serif" font-size="10.00">&lt; K, V, Traits &gt;</text>
</a>
</g>
</g>
<!-- Node1&#45;&gt;Node2 -->
<g id="edge2" class="edge">
<title>Node1&#45;&gt;Node2</title>
<path fill="none" stroke="midnightblue" d="M362.2,-21C370.79,-21 379.42,-21 387.78,-21"/>
<polygon fill="midnightblue" stroke="midnightblue" points="362.17,-17.5 352.16,-21 362.16,-24.5 362.17,-17.5"/>
</g>
</g>
</svg>
