<?xml version="1.0" encoding="UTF-8" standalone="no"?>
<!DOCTYPE svg PUBLIC "-//W3C//DTD SVG 1.1//EN"
 "http://www.w3.org/Graphics/SVG/1.1/DTD/svg11.dtd">
<!-- Generated by graphviz version 2.44.0 ()
 -->
<!-- Title: Graphical Class Hierarchy Pages: 1 -->
<svg width="441pt" height="443pt"
 viewBox="0.00 0.00 441.00 442.50" xmlns="http://www.w3.org/2000/svg" xmlns:xlink="http://www.w3.org/1999/xlink">
<g id="graph0" class="graph" transform="scale(1 1) rotate(0) translate(4 438.5)">
<title>Graphical Class Hierarchy</title>
<polygon fill="white" stroke="transparent" points="-4,4 -4,-438.5 437,-438.5 437,4 -4,4"/>
<!-- Node256 -->
<g id="node1" class="node">
<title>Node256</title>
<g id="a_node1"><a xlink:title=" ">
<polygon fill="white" stroke="#bfbfbf" points="0,-192 0,-211 61,-211 61,-192 0,-192"/>
<text text-anchor="middle" x="30.5" y="-199" font-family="Helvetica,sans-Serif" font-size="10.00">false_type</text>
</a>
</g>
</g>
<!-- Node0 -->
<g id="node2" class="node">
<title>Node0</title>
<g id="a_node2"><a xlink:href="structcppgc_1_1internal_1_1HasFinalizeGarbageCollectedObject.html" target="_top" xlink:title=" ">
<polygon fill="white" stroke="black" points="106,-393 106,-434 240,-434 240,-393 106,-393"/>
<text text-anchor="start" x="114" y="-422" font-family="Helvetica,sans-Serif" font-size="10.00">cppgc::internal::HasFinalize</text>
<text text-anchor="start" x="114" y="-411" font-family="Helvetica,sans-Serif" font-size="10.00">GarbageCollectedObject&lt;</text>
<text text-anchor="middle" x="173" y="-400" font-family="Helvetica,sans-Serif" font-size="10.00"> T, typename &gt;</text>
</a>
</g>
</g>
<!-- Node256&#45;&gt;Node0 -->
<g id="edge1" class="edge">
<title>Node256&#45;&gt;Node0</title>
<path fill="none" stroke="midnightblue" d="M33.39,-221.65C37.87,-258.51 52.38,-337.29 97,-383.5 100.41,-387.03 104.29,-390.16 108.44,-392.92"/>
<polygon fill="midnightblue" stroke="midnightblue" points="36.82,-220.81 32.26,-211.24 29.86,-221.56 36.82,-220.81"/>
</g>
<!-- Node258 -->
<g id="node3" class="node">
<title>Node258</title>
<g id="a_node3"><a xlink:href="structcppgc_1_1internal_1_1IsGarbageCollectedMixinType.html" target="_top" xlink:title=" ">
<polygon fill="white" stroke="black" points="109,-333 109,-374 237,-374 237,-333 109,-333"/>
<text text-anchor="start" x="117" y="-362" font-family="Helvetica,sans-Serif" font-size="10.00">cppgc::internal::IsGarbage</text>
<text text-anchor="start" x="117" y="-351" font-family="Helvetica,sans-Serif" font-size="10.00">CollectedMixinType&lt; T,</text>
<text text-anchor="middle" x="173" y="-340" font-family="Helvetica,sans-Serif" font-size="10.00"> typename &gt;</text>
</a>
</g>
</g>
<!-- Node256&#45;&gt;Node258 -->
<g id="edge2" class="edge">
<title>Node256&#45;&gt;Node258</title>
<path fill="none" stroke="midnightblue" d="M37.13,-221.05C45.79,-247.88 64.86,-296.01 97,-324.5 100.66,-327.74 104.72,-330.64 109,-333.22"/>
<polygon fill="midnightblue" stroke="midnightblue" points="40.41,-219.82 34.13,-211.28 33.72,-221.87 40.41,-219.82"/>
</g>
<!-- Node259 -->
<g id="node4" class="node">
<title>Node259</title>
<g id="a_node4"><a xlink:href="structcppgc_1_1internal_1_1IsMemberType.html" target="_top" xlink:title=" ">
<polygon fill="white" stroke="black" points="109.5,-284.5 109.5,-314.5 236.5,-314.5 236.5,-284.5 109.5,-284.5"/>
<text text-anchor="start" x="117.5" y="-302.5" font-family="Helvetica,sans-Serif" font-size="10.00">cppgc::internal::IsMember</text>
<text text-anchor="middle" x="173" y="-291.5" font-family="Helvetica,sans-Serif" font-size="10.00">Type&lt; T, bool &gt;</text>
</a>
</g>
</g>
<!-- Node256&#45;&gt;Node259 -->
<g id="edge3" class="edge">
<title>Node256&#45;&gt;Node259</title>
<path fill="none" stroke="midnightblue" d="M43.2,-219.56C54.93,-236.3 74.45,-260.79 97,-275.5 102.27,-278.94 108.06,-281.91 114.03,-284.48"/>
<polygon fill="midnightblue" stroke="midnightblue" points="46.02,-217.48 37.52,-211.16 40.23,-221.41 46.02,-217.48"/>
</g>
<!-- Node260 -->
<g id="node5" class="node">
<title>Node260</title>
<g id="a_node5"><a xlink:href="structcppgc_1_1internal_1_1IsTraceable.html" target="_top" xlink:title=" ">
<polygon fill="white" stroke="black" points="106,-235.5 106,-265.5 240,-265.5 240,-235.5 106,-235.5"/>
<text text-anchor="start" x="114" y="-253.5" font-family="Helvetica,sans-Serif" font-size="10.00">cppgc::internal::IsTraceable</text>
<text text-anchor="middle" x="173" y="-242.5" font-family="Helvetica,sans-Serif" font-size="10.00">&lt; T, typename &gt;</text>
</a>
</g>
</g>
<!-- Node256&#45;&gt;Node260 -->
<g id="edge4" class="edge">
<title>Node256&#45;&gt;Node260</title>
<path fill="none" stroke="midnightblue" d="M65.05,-214.71C75.26,-218.62 86.55,-222.84 97,-226.5 105.52,-229.48 114.62,-232.53 123.46,-235.4"/>
<polygon fill="midnightblue" stroke="midnightblue" points="66.24,-211.42 55.65,-211.08 63.71,-217.95 66.24,-211.42"/>
</g>
<!-- Node261 -->
<g id="node6" class="node">
<title>Node261</title>
<g id="a_node6"><a xlink:href="structcppgc_1_1internal_1_1IsTraceMethodConst.html" target="_top" xlink:title=" ">
<polygon fill="white" stroke="black" points="101,-186.5 101,-216.5 245,-216.5 245,-186.5 101,-186.5"/>
<text text-anchor="start" x="109" y="-204.5" font-family="Helvetica,sans-Serif" font-size="10.00">cppgc::internal::IsTrace</text>
<text text-anchor="middle" x="173" y="-193.5" font-family="Helvetica,sans-Serif" font-size="10.00">MethodConst&lt; T, typename &gt;</text>
</a>
</g>
</g>
<!-- Node256&#45;&gt;Node261 -->
<g id="edge5" class="edge">
<title>Node256&#45;&gt;Node261</title>
<path fill="none" stroke="midnightblue" d="M71.34,-201.5C80.6,-201.5 90.74,-201.5 100.91,-201.5"/>
<polygon fill="midnightblue" stroke="midnightblue" points="71.3,-198 61.3,-201.5 71.3,-205 71.3,-198"/>
</g>
<!-- Node262 -->
<g id="node7" class="node">
<title>Node262</title>
<g id="a_node7"><a xlink:href="structcppgc_1_1internal_1_1IsUntracedMemberType.html" target="_top" xlink:title=" ">
<polygon fill="white" stroke="black" points="107.5,-137.5 107.5,-167.5 238.5,-167.5 238.5,-137.5 107.5,-137.5"/>
<text text-anchor="start" x="115.5" y="-155.5" font-family="Helvetica,sans-Serif" font-size="10.00">cppgc::internal::IsUntraced</text>
<text text-anchor="middle" x="173" y="-144.5" font-family="Helvetica,sans-Serif" font-size="10.00">MemberType&lt; T, bool &gt;</text>
</a>
</g>
</g>
<!-- Node256&#45;&gt;Node262 -->
<g id="edge6" class="edge">
<title>Node256&#45;&gt;Node262</title>
<path fill="none" stroke="midnightblue" d="M66.44,-188.48C76.3,-184.87 87.05,-180.98 97,-177.5 106.33,-174.24 116.34,-170.83 125.92,-167.62"/>
<polygon fill="midnightblue" stroke="midnightblue" points="65.12,-185.24 56.94,-191.98 67.54,-191.81 65.12,-185.24"/>
</g>
<!-- Node263 -->
<g id="node8" class="node">
<title>Node263</title>
<g id="a_node8"><a xlink:href="structcppgc_1_1internal_1_1IsWeak.html" target="_top" xlink:title=" ">
<polygon fill="white" stroke="black" points="103.5,-99 103.5,-118 242.5,-118 242.5,-99 103.5,-99"/>
<text text-anchor="middle" x="173" y="-106" font-family="Helvetica,sans-Serif" font-size="10.00">cppgc::internal::IsWeak&lt; T &gt;</text>
</a>
</g>
</g>
<!-- Node256&#45;&gt;Node263 -->
<g id="edge7" class="edge">
<title>Node256&#45;&gt;Node263</title>
<path fill="none" stroke="midnightblue" d="M43.1,-183.44C54.75,-166.75 74.22,-142.47 97,-128.5 104.12,-124.13 112.19,-120.71 120.34,-118.02"/>
<polygon fill="midnightblue" stroke="midnightblue" points="40.14,-181.57 37.46,-191.82 45.95,-185.48 40.14,-181.57"/>
</g>
<!-- Node264 -->
<g id="node9" class="node">
<title>Node264</title>
<g id="a_node9"><a xlink:href="structcppgc_1_1internal_1_1IsWeakMemberType.html" target="_top" xlink:title=" ">
<polygon fill="white" stroke="black" points="97,-49.5 97,-79.5 249,-79.5 249,-49.5 97,-49.5"/>
<text text-anchor="start" x="105" y="-67.5" font-family="Helvetica,sans-Serif" font-size="10.00">cppgc::internal::IsWeakMember</text>
<text text-anchor="middle" x="173" y="-56.5" font-family="Helvetica,sans-Serif" font-size="10.00">Type&lt; T, bool &gt;</text>
</a>
</g>
</g>
<!-- Node256&#45;&gt;Node264 -->
<g id="edge8" class="edge">
<title>Node256&#45;&gt;Node264</title>
<path fill="none" stroke="midnightblue" d="M37.95,-182.08C47.19,-157.17 66.53,-114.23 97,-89.5 101.8,-85.61 107.22,-82.31 112.91,-79.52"/>
<polygon fill="midnightblue" stroke="midnightblue" points="34.54,-181.25 34.51,-191.84 41.14,-183.58 34.54,-181.25"/>
</g>
<!-- Node265 -->
<g id="node10" class="node">
<title>Node265</title>
<g id="a_node10"><a xlink:href="structcppgc_1_1internal_1_1IsGarbageCollectedMixinType.html" target="_top" xlink:title=" ">
<polygon fill="white" stroke="black" points="109,-0.5 109,-30.5 237,-30.5 237,-0.5 109,-0.5"/>
<text text-anchor="start" x="117" y="-18.5" font-family="Helvetica,sans-Serif" font-size="10.00">cppgc::internal::IsGarbage</text>
<text text-anchor="middle" x="173" y="-7.5" font-family="Helvetica,sans-Serif" font-size="10.00">CollectedMixinType&lt; T &gt;</text>
</a>
</g>
</g>
<!-- Node256&#45;&gt;Node265 -->
<g id="edge9" class="edge">
<title>Node256&#45;&gt;Node265</title>
<path fill="none" stroke="midnightblue" d="M34.09,-182.03C39.57,-148.43 55.46,-79.44 97,-40.5 101.11,-36.65 105.82,-33.39 110.84,-30.64"/>
<polygon fill="midnightblue" stroke="midnightblue" points="30.62,-181.56 32.61,-191.97 37.54,-182.6 30.62,-181.56"/>
</g>
<!-- Node266 -->
<g id="node11" class="node">
<title>Node266</title>
<g id="a_node11"><a xlink:href="structcppgc_1_1internal_1_1IsGarbageCollectedType.html" target="_top" xlink:title=" ">
<polygon fill="white" stroke="black" points="285,-0.5 285,-30.5 433,-30.5 433,-0.5 285,-0.5"/>
<text text-anchor="start" x="293" y="-18.5" font-family="Helvetica,sans-Serif" font-size="10.00">cppgc::internal::IsGarbage</text>
<text text-anchor="middle" x="359" y="-7.5" font-family="Helvetica,sans-Serif" font-size="10.00">CollectedType&lt; T, typename &gt;</text>
</a>
</g>
</g>
<!-- Node265&#45;&gt;Node266 -->
<g id="edge10" class="edge">
<title>Node265&#45;&gt;Node266</title>
<path fill="none" stroke="midnightblue" d="M247.32,-15.5C259.69,-15.5 272.52,-15.5 284.88,-15.5"/>
<polygon fill="midnightblue" stroke="midnightblue" points="247.06,-12 237.06,-15.5 247.06,-19 247.06,-12"/>
</g>
</g>
</svg>
