<?xml version="1.0" encoding="UTF-8" standalone="no"?>
<!DOCTYPE svg PUBLIC "-//W3C//DTD SVG 1.1//EN"
 "http://www.w3.org/Graphics/SVG/1.1/DTD/svg11.dtd">
<!-- Generated by graphviz version 2.44.0 ()
 -->
<!-- Title: include/cppgc/liveness&#45;broker.h Pages: 1 -->
<svg width="1149pt" height="419pt"
 viewBox="0.00 0.00 1148.50 419.00" xmlns="http://www.w3.org/2000/svg" xmlns:xlink="http://www.w3.org/1999/xlink">
<g id="graph0" class="graph" transform="scale(1 1) rotate(0) translate(4 415)">
<title>include/cppgc/liveness&#45;broker.h</title>
<polygon fill="white" stroke="transparent" points="-4,4 -4,-415 1144.5,-415 1144.5,4 -4,4"/>
<!-- Node1 -->
<g id="node1" class="node">
<title>Node1</title>
<g id="a_node1"><a xlink:title=" ">
<polygon fill="#bfbfbf" stroke="black" points="715.5,-380.5 715.5,-410.5 831.5,-410.5 831.5,-380.5 715.5,-380.5"/>
<text text-anchor="start" x="723.5" y="-398.5" font-family="Helvetica,sans-Serif" font-size="10.00">include/cppgc/liveness</text>
<text text-anchor="middle" x="773.5" y="-387.5" font-family="Helvetica,sans-Serif" font-size="10.00">&#45;broker.h</text>
</a>
</g>
</g>
<!-- Node2 -->
<g id="node2" class="node">
<title>Node2</title>
<g id="a_node2"><a xlink:href="heap_8h.html" target="_top" xlink:title=" ">
<polygon fill="white" stroke="black" points="266.5,-263 266.5,-282 340.5,-282 340.5,-263 266.5,-263"/>
<text text-anchor="middle" x="303.5" y="-270" font-family="Helvetica,sans-Serif" font-size="10.00">cppgc/heap.h</text>
</a>
</g>
</g>
<!-- Node1&#45;&gt;Node2 -->
<g id="edge1" class="edge">
<title>Node1&#45;&gt;Node2</title>
<path fill="none" stroke="midnightblue" d="M717.72,-380.44C677.82,-370.36 622.83,-356.42 574.5,-344 493.55,-323.2 399.11,-298.54 345.8,-284.59"/>
<polygon fill="midnightblue" stroke="midnightblue" points="346.58,-281.17 336.02,-282.03 344.81,-287.95 346.58,-281.17"/>
</g>
<!-- Node6 -->
<g id="node6" class="node">
<title>Node6</title>
<g id="a_node6"><a xlink:href="v8config_8h.html" target="_top" xlink:title=" ">
<polygon fill="white" stroke="black" points="577.5,-62 577.5,-81 637.5,-81 637.5,-62 577.5,-62"/>
<text text-anchor="middle" x="607.5" y="-69" font-family="Helvetica,sans-Serif" font-size="10.00">v8config.h</text>
</a>
</g>
</g>
<!-- Node1&#45;&gt;Node6 -->
<g id="edge47" class="edge">
<title>Node1&#45;&gt;Node6</title>
<path fill="none" stroke="midnightblue" d="M764.72,-380.33C746.67,-351.01 704.43,-281.39 672.5,-221 657.08,-191.83 653.81,-184.2 640.5,-154 631,-132.46 620.97,-107.29 614.5,-90.69"/>
<polygon fill="midnightblue" stroke="midnightblue" points="617.67,-89.2 610.8,-81.14 611.15,-91.73 617.67,-89.2"/>
</g>
<!-- Node14 -->
<g id="node14" class="node">
<title>Node14</title>
<g id="a_node14"><a xlink:href="member_8h.html" target="_top" xlink:title=" ">
<polygon fill="white" stroke="black" points="914,-324.5 914,-343.5 1003,-343.5 1003,-324.5 914,-324.5"/>
<text text-anchor="middle" x="958.5" y="-331.5" font-family="Helvetica,sans-Serif" font-size="10.00">cppgc/member.h</text>
</a>
</g>
</g>
<!-- Node1&#45;&gt;Node14 -->
<g id="edge18" class="edge">
<title>Node1&#45;&gt;Node14</title>
<path fill="none" stroke="midnightblue" d="M817.34,-380.4C849.31,-370.12 892.12,-356.35 922.18,-346.68"/>
<polygon fill="midnightblue" stroke="midnightblue" points="923.4,-349.96 931.85,-343.57 921.26,-343.3 923.4,-349.96"/>
</g>
<!-- Node24 -->
<g id="node24" class="node">
<title>Node24</title>
<g id="a_node24"><a xlink:href="trace-trait_8h.html" target="_top" xlink:title=" ">
<polygon fill="white" stroke="black" points="941,-129 941,-148 1036,-148 1036,-129 941,-129"/>
<text text-anchor="middle" x="988.5" y="-136" font-family="Helvetica,sans-Serif" font-size="10.00">cppgc/trace&#45;trait.h</text>
</a>
</g>
</g>
<!-- Node1&#45;&gt;Node24 -->
<g id="edge46" class="edge">
<title>Node1&#45;&gt;Node24</title>
<path fill="none" stroke="midnightblue" d="M831.63,-389.65C881.32,-383.78 953.75,-371.08 1011.5,-344 1047.89,-326.94 1064.97,-324.16 1082.5,-288 1107.66,-236.11 1044.44,-179.91 1009.62,-154.03"/>
<polygon fill="midnightblue" stroke="midnightblue" points="1011.61,-151.15 1001.45,-148.13 1007.51,-156.83 1011.61,-151.15"/>
</g>
<!-- Node3 -->
<g id="node3" class="node">
<title>Node3</title>
<g id="a_node3"><a xlink:title=" ">
<polygon fill="white" stroke="#bfbfbf" points="0,-62 0,-81 51,-81 51,-62 0,-62"/>
<text text-anchor="middle" x="25.5" y="-69" font-family="Helvetica,sans-Serif" font-size="10.00">memory</text>
</a>
</g>
</g>
<!-- Node2&#45;&gt;Node3 -->
<g id="edge2" class="edge">
<title>Node2&#45;&gt;Node3</title>
<path fill="none" stroke="midnightblue" d="M266.47,-269.22C203.38,-264.53 79,-251.58 49.5,-221 15.59,-185.85 18.42,-122.79 22.4,-91.37"/>
<polygon fill="midnightblue" stroke="midnightblue" points="25.89,-91.74 23.86,-81.34 18.96,-90.73 25.89,-91.74"/>
</g>
<!-- Node4 -->
<g id="node4" class="node">
<title>Node4</title>
<g id="a_node4"><a xlink:title=" ">
<polygon fill="white" stroke="#bfbfbf" points="197.5,-196 197.5,-215 241.5,-215 241.5,-196 197.5,-196"/>
<text text-anchor="middle" x="219.5" y="-203" font-family="Helvetica,sans-Serif" font-size="10.00">vector</text>
</a>
</g>
</g>
<!-- Node2&#45;&gt;Node4 -->
<g id="edge3" class="edge">
<title>Node2&#45;&gt;Node4</title>
<path fill="none" stroke="midnightblue" d="M292.17,-262.73C278.44,-252.11 255.1,-234.05 238.58,-221.26"/>
<polygon fill="midnightblue" stroke="midnightblue" points="240.7,-218.48 230.65,-215.13 236.42,-224.02 240.7,-218.48"/>
</g>
<!-- Node5 -->
<g id="node5" class="node">
<title>Node5</title>
<g id="a_node5"><a xlink:href="common_8h.html" target="_top" xlink:title=" ">
<polygon fill="white" stroke="black" points="332,-129 332,-148 423,-148 423,-129 332,-129"/>
<text text-anchor="middle" x="377.5" y="-136" font-family="Helvetica,sans-Serif" font-size="10.00">cppgc/common.h</text>
</a>
</g>
</g>
<!-- Node2&#45;&gt;Node5 -->
<g id="edge4" class="edge">
<title>Node2&#45;&gt;Node5</title>
<path fill="none" stroke="midnightblue" d="M315.93,-262.92C328.08,-253.88 346.2,-238.54 356.5,-221 368.03,-201.36 373.3,-175.43 375.67,-158.14"/>
<polygon fill="midnightblue" stroke="midnightblue" points="379.15,-158.52 376.83,-148.18 372.19,-157.71 379.15,-158.52"/>
</g>
<!-- Node2&#45;&gt;Node6 -->
<g id="edge17" class="edge">
<title>Node2&#45;&gt;Node6</title>
<path fill="none" stroke="midnightblue" d="M340.66,-263.72C396.58,-250.29 502.8,-217.82 568.5,-154 586.47,-136.54 597.2,-109.13 602.73,-90.99"/>
<polygon fill="midnightblue" stroke="midnightblue" points="606.12,-91.87 605.46,-81.3 599.38,-89.98 606.12,-91.87"/>
</g>
<!-- Node7 -->
<g id="node7" class="node">
<title>Node7</title>
<g id="a_node7"><a xlink:href="custom-space_8h.html" target="_top" xlink:title=" ">
<polygon fill="white" stroke="black" points="59,-196 59,-215 174,-215 174,-196 59,-196"/>
<text text-anchor="middle" x="116.5" y="-203" font-family="Helvetica,sans-Serif" font-size="10.00">cppgc/custom&#45;space.h</text>
</a>
</g>
</g>
<!-- Node2&#45;&gt;Node7 -->
<g id="edge6" class="edge">
<title>Node2&#45;&gt;Node7</title>
<path fill="none" stroke="midnightblue" d="M278.67,-262.87C245.88,-251.47 188,-231.35 150.99,-218.49"/>
<polygon fill="midnightblue" stroke="midnightblue" points="151.73,-215.04 141.14,-215.06 149.43,-221.65 151.73,-215.04"/>
</g>
<!-- Node9 -->
<g id="node9" class="node">
<title>Node9</title>
<g id="a_node9"><a xlink:href="platform_8h.html" target="_top" xlink:title=" ">
<polygon fill="white" stroke="black" points="259,-196 259,-215 348,-215 348,-196 259,-196"/>
<text text-anchor="middle" x="303.5" y="-203" font-family="Helvetica,sans-Serif" font-size="10.00">cppgc/platform.h</text>
</a>
</g>
</g>
<!-- Node2&#45;&gt;Node9 -->
<g id="edge8" class="edge">
<title>Node2&#45;&gt;Node9</title>
<path fill="none" stroke="midnightblue" d="M303.5,-262.73C303.5,-253.18 303.5,-237.62 303.5,-225.28"/>
<polygon fill="midnightblue" stroke="midnightblue" points="307,-225.13 303.5,-215.13 300,-225.13 307,-225.13"/>
</g>
<!-- Node5&#45;&gt;Node6 -->
<g id="edge5" class="edge">
<title>Node5&#45;&gt;Node6</title>
<path fill="none" stroke="midnightblue" d="M408.04,-128.87C449.05,-117.28 522,-96.66 567.4,-83.83"/>
<polygon fill="midnightblue" stroke="midnightblue" points="568.53,-87.15 577.2,-81.06 566.62,-80.42 568.53,-87.15"/>
</g>
<!-- Node8 -->
<g id="node8" class="node">
<title>Node8</title>
<g id="a_node8"><a xlink:title=" ">
<polygon fill="white" stroke="#bfbfbf" points="69,-62 69,-81 120,-81 120,-62 69,-62"/>
<text text-anchor="middle" x="94.5" y="-69" font-family="Helvetica,sans-Serif" font-size="10.00">stddef.h</text>
</a>
</g>
</g>
<!-- Node7&#45;&gt;Node8 -->
<g id="edge7" class="edge">
<title>Node7&#45;&gt;Node8</title>
<path fill="none" stroke="midnightblue" d="M107.89,-195.75C99.3,-186.34 86.66,-170.49 81.5,-154 74.91,-132.91 80.97,-107.65 86.84,-90.9"/>
<polygon fill="midnightblue" stroke="midnightblue" points="90.23,-91.84 90.53,-81.25 83.69,-89.34 90.23,-91.84"/>
</g>
<!-- Node9&#45;&gt;Node6 -->
<g id="edge16" class="edge">
<title>Node9&#45;&gt;Node6</title>
<path fill="none" stroke="midnightblue" d="M302.7,-195.89C301.68,-179.2 302.04,-142.39 322.5,-123 357.1,-90.2 497,-78.28 567.08,-74.31"/>
<polygon fill="midnightblue" stroke="midnightblue" points="567.5,-77.79 577.3,-73.76 567.12,-70.8 567.5,-77.79"/>
</g>
<!-- Node10 -->
<g id="node10" class="node">
<title>Node10</title>
<g id="a_node10"><a xlink:href="v8-platform_8h.html" target="_top" xlink:title=" ">
<polygon fill="white" stroke="black" points="91,-129 91,-148 164,-148 164,-129 91,-129"/>
<text text-anchor="middle" x="127.5" y="-136" font-family="Helvetica,sans-Serif" font-size="10.00">v8&#45;platform.h</text>
</a>
</g>
</g>
<!-- Node9&#45;&gt;Node10 -->
<g id="edge9" class="edge">
<title>Node9&#45;&gt;Node10</title>
<path fill="none" stroke="midnightblue" d="M280.13,-195.87C249.41,-184.52 195.26,-164.52 160.4,-151.65"/>
<polygon fill="midnightblue" stroke="midnightblue" points="161.28,-148.24 150.69,-148.06 158.86,-154.81 161.28,-148.24"/>
</g>
<!-- Node10&#45;&gt;Node3 -->
<g id="edge13" class="edge">
<title>Node10&#45;&gt;Node3</title>
<path fill="none" stroke="midnightblue" d="M113.74,-128.73C96.77,-117.92 67.69,-99.38 47.57,-86.57"/>
<polygon fill="midnightblue" stroke="midnightblue" points="49.35,-83.55 39.04,-81.13 45.59,-89.45 49.35,-83.55"/>
</g>
<!-- Node10&#45;&gt;Node6 -->
<g id="edge15" class="edge">
<title>Node10&#45;&gt;Node6</title>
<path fill="none" stroke="midnightblue" d="M151.08,-128.94C157.92,-126.72 165.44,-124.53 172.5,-123 247.44,-106.74 474.38,-84.75 567.24,-76.15"/>
<polygon fill="midnightblue" stroke="midnightblue" points="567.72,-79.62 577.36,-75.22 567.08,-72.65 567.72,-79.62"/>
</g>
<!-- Node10&#45;&gt;Node8 -->
<g id="edge10" class="edge">
<title>Node10&#45;&gt;Node8</title>
<path fill="none" stroke="midnightblue" d="M123.05,-128.73C118.05,-118.89 109.81,-102.66 103.47,-90.16"/>
<polygon fill="midnightblue" stroke="midnightblue" points="106.53,-88.46 98.88,-81.13 100.29,-91.63 106.53,-88.46"/>
</g>
<!-- Node11 -->
<g id="node11" class="node">
<title>Node11</title>
<g id="a_node11"><a xlink:title=" ">
<polygon fill="white" stroke="#bfbfbf" points="203.5,-62 203.5,-81 251.5,-81 251.5,-62 203.5,-62"/>
<text text-anchor="middle" x="227.5" y="-69" font-family="Helvetica,sans-Serif" font-size="10.00">stdint.h</text>
</a>
</g>
</g>
<!-- Node10&#45;&gt;Node11 -->
<g id="edge11" class="edge">
<title>Node10&#45;&gt;Node11</title>
<path fill="none" stroke="midnightblue" d="M140.99,-128.73C157.55,-117.96 185.88,-99.55 205.59,-86.74"/>
<polygon fill="midnightblue" stroke="midnightblue" points="207.75,-89.51 214.23,-81.13 203.94,-83.64 207.75,-89.51"/>
</g>
<!-- Node12 -->
<g id="node12" class="node">
<title>Node12</title>
<g id="a_node12"><a xlink:title=" ">
<polygon fill="white" stroke="#bfbfbf" points="138,-62 138,-81 185,-81 185,-62 138,-62"/>
<text text-anchor="middle" x="161.5" y="-69" font-family="Helvetica,sans-Serif" font-size="10.00">stdlib.h</text>
</a>
</g>
</g>
<!-- Node10&#45;&gt;Node12 -->
<g id="edge12" class="edge">
<title>Node10&#45;&gt;Node12</title>
<path fill="none" stroke="midnightblue" d="M132.09,-128.73C137.23,-118.89 145.72,-102.66 152.26,-90.16"/>
<polygon fill="midnightblue" stroke="midnightblue" points="155.45,-91.61 156.99,-81.13 149.25,-88.37 155.45,-91.61"/>
</g>
<!-- Node13 -->
<g id="node13" class="node">
<title>Node13</title>
<g id="a_node13"><a xlink:title=" ">
<polygon fill="white" stroke="#bfbfbf" points="375,-62 375,-81 416,-81 416,-62 375,-62"/>
<text text-anchor="middle" x="395.5" y="-69" font-family="Helvetica,sans-Serif" font-size="10.00">string</text>
</a>
</g>
</g>
<!-- Node10&#45;&gt;Node13 -->
<g id="edge14" class="edge">
<title>Node10&#45;&gt;Node13</title>
<path fill="none" stroke="midnightblue" d="M152.61,-128.97C159.06,-126.9 166.01,-124.78 172.5,-123 240.59,-104.36 321.69,-87.25 364.87,-78.54"/>
<polygon fill="midnightblue" stroke="midnightblue" points="365.63,-81.95 374.75,-76.56 364.26,-75.09 365.63,-81.95"/>
</g>
<!-- Node14&#45;&gt;Node6 -->
<g id="edge45" class="edge">
<title>Node14&#45;&gt;Node6</title>
<path fill="none" stroke="midnightblue" d="M913.65,-330C872.31,-325.59 810.45,-314.73 763.5,-288 684.01,-242.75 689.11,-200.48 640.5,-123 633.41,-111.71 625.21,-99.16 618.76,-89.39"/>
<polygon fill="midnightblue" stroke="midnightblue" points="621.65,-87.41 613.2,-81.02 615.82,-91.28 621.65,-87.41"/>
</g>
<!-- Node15 -->
<g id="node15" class="node">
<title>Node15</title>
<g id="a_node15"><a xlink:title=" ">
<polygon fill="white" stroke="#bfbfbf" points="846.5,-0.5 846.5,-19.5 892.5,-19.5 892.5,-0.5 846.5,-0.5"/>
<text text-anchor="middle" x="869.5" y="-7.5" font-family="Helvetica,sans-Serif" font-size="10.00">atomic</text>
</a>
</g>
</g>
<!-- Node14&#45;&gt;Node15 -->
<g id="edge19" class="edge">
<title>Node14&#45;&gt;Node15</title>
<path fill="none" stroke="midnightblue" d="M957.09,-324.18C951.36,-289.37 928.42,-158.4 891.5,-56 888.15,-46.69 883.43,-36.77 879.22,-28.62"/>
<polygon fill="midnightblue" stroke="midnightblue" points="882.27,-26.89 874.47,-19.72 876.09,-30.19 882.27,-26.89"/>
</g>
<!-- Node16 -->
<g id="node16" class="node">
<title>Node16</title>
<g id="a_node16"><a xlink:title=" ">
<polygon fill="white" stroke="#bfbfbf" points="1025,-263 1025,-282 1074,-282 1074,-263 1025,-263"/>
<text text-anchor="middle" x="1049.5" y="-270" font-family="Helvetica,sans-Serif" font-size="10.00">cstddef</text>
</a>
</g>
</g>
<!-- Node14&#45;&gt;Node16 -->
<g id="edge20" class="edge">
<title>Node14&#45;&gt;Node16</title>
<path fill="none" stroke="midnightblue" d="M971.54,-324.48C986.27,-314.84 1010.47,-299.02 1028.01,-287.55"/>
<polygon fill="midnightblue" stroke="midnightblue" points="1030.03,-290.41 1036.49,-282.01 1026.2,-284.55 1030.03,-290.41"/>
</g>
<!-- Node17 -->
<g id="node17" class="node">
<title>Node17</title>
<g id="a_node17"><a xlink:title=" ">
<polygon fill="white" stroke="#bfbfbf" points="1033.5,-0.5 1033.5,-19.5 1095.5,-19.5 1095.5,-0.5 1033.5,-0.5"/>
<text text-anchor="middle" x="1064.5" y="-7.5" font-family="Helvetica,sans-Serif" font-size="10.00">type_traits</text>
</a>
</g>
</g>
<!-- Node14&#45;&gt;Node17 -->
<g id="edge21" class="edge">
<title>Node14&#45;&gt;Node17</title>
<path fill="none" stroke="midnightblue" d="M997.1,-324.49C1050.52,-310.17 1140.5,-275.76 1140.5,-206.5 1140.5,-206.5 1140.5,-206.5 1140.5,-137.5 1140.5,-92.12 1104.12,-48.98 1081.7,-26.7"/>
<polygon fill="midnightblue" stroke="midnightblue" points="1084.07,-24.13 1074.44,-19.73 1079.22,-29.18 1084.07,-24.13"/>
</g>
<!-- Node18 -->
<g id="node18" class="node">
<title>Node18</title>
<g id="a_node18"><a xlink:href="pointer-policies_8h.html" target="_top" xlink:title=" ">
<polygon fill="white" stroke="black" points="772.5,-257.5 772.5,-287.5 882.5,-287.5 882.5,-257.5 772.5,-257.5"/>
<text text-anchor="start" x="780.5" y="-275.5" font-family="Helvetica,sans-Serif" font-size="10.00">cppgc/internal/pointer</text>
<text text-anchor="middle" x="827.5" y="-264.5" font-family="Helvetica,sans-Serif" font-size="10.00">&#45;policies.h</text>
</a>
</g>
</g>
<!-- Node14&#45;&gt;Node18 -->
<g id="edge22" class="edge">
<title>Node14&#45;&gt;Node18</title>
<path fill="none" stroke="midnightblue" d="M939.73,-324.48C920.99,-315.96 891.61,-302.62 867.61,-291.72"/>
<polygon fill="midnightblue" stroke="midnightblue" points="868.93,-288.47 858.37,-287.52 866.03,-294.85 868.93,-288.47"/>
</g>
<!-- Node25 -->
<g id="node25" class="node">
<title>Node25</title>
<g id="a_node25"><a xlink:href="type-traits_8h.html" target="_top" xlink:title=" ">
<polygon fill="white" stroke="black" points="978.5,-62 978.5,-81 1074.5,-81 1074.5,-62 978.5,-62"/>
<text text-anchor="middle" x="1026.5" y="-69" font-family="Helvetica,sans-Serif" font-size="10.00">cppgc/type&#45;traits.h</text>
</a>
</g>
</g>
<!-- Node14&#45;&gt;Node25 -->
<g id="edge44" class="edge">
<title>Node14&#45;&gt;Node25</title>
<path fill="none" stroke="midnightblue" d="M964.51,-324.22C981.3,-299.1 1028.5,-224.26 1044.5,-154 1049.46,-132.21 1041.91,-107.1 1035.13,-90.57"/>
<polygon fill="midnightblue" stroke="midnightblue" points="1038.17,-88.8 1030.92,-81.07 1031.77,-91.63 1038.17,-88.8"/>
</g>
<!-- Node18&#45;&gt;Node6 -->
<g id="edge43" class="edge">
<title>Node18&#45;&gt;Node6</title>
<path fill="none" stroke="midnightblue" d="M780.5,-257.42C760.26,-249.42 737.6,-237.61 721.5,-221 688.39,-186.85 708.52,-159.89 678.5,-123 666.09,-107.75 647.97,-94.96 633.14,-86.07"/>
<polygon fill="midnightblue" stroke="midnightblue" points="634.83,-83 624.42,-81.05 631.34,-89.07 634.83,-83"/>
</g>
<!-- Node18&#45;&gt;Node17 -->
<g id="edge24" class="edge">
<title>Node18&#45;&gt;Node17</title>
<path fill="none" stroke="midnightblue" d="M867.64,-257.47C914.6,-239.46 992.52,-204.4 1044.5,-154 1069.24,-130.02 1074.52,-120.27 1083.5,-87 1087.09,-73.7 1086.23,-69.5 1083.5,-56 1081.61,-46.65 1077.71,-36.83 1073.93,-28.75"/>
<polygon fill="midnightblue" stroke="midnightblue" points="1076.97,-27.01 1069.38,-19.63 1070.71,-30.14 1076.97,-27.01"/>
</g>
<!-- Node19 -->
<g id="node19" class="node">
<title>Node19</title>
<g id="a_node19"><a xlink:title=" ">
<polygon fill="white" stroke="#bfbfbf" points="850.5,-196 850.5,-215 896.5,-215 896.5,-196 850.5,-196"/>
<text text-anchor="middle" x="873.5" y="-203" font-family="Helvetica,sans-Serif" font-size="10.00">cstdint</text>
</a>
</g>
</g>
<!-- Node18&#45;&gt;Node19 -->
<g id="edge23" class="edge">
<title>Node18&#45;&gt;Node19</title>
<path fill="none" stroke="midnightblue" d="M837.48,-257.4C844.51,-247.46 853.96,-234.11 861.42,-223.57"/>
<polygon fill="midnightblue" stroke="midnightblue" points="864.43,-225.38 867.35,-215.19 858.71,-221.34 864.43,-225.38"/>
</g>
<!-- Node20 -->
<g id="node20" class="node">
<title>Node20</title>
<g id="a_node20"><a xlink:href="write-barrier_8h.html" target="_top" xlink:title=" ">
<polygon fill="white" stroke="black" points="731,-190.5 731,-220.5 832,-220.5 832,-190.5 731,-190.5"/>
<text text-anchor="start" x="739" y="-208.5" font-family="Helvetica,sans-Serif" font-size="10.00">cppgc/internal/write</text>
<text text-anchor="middle" x="781.5" y="-197.5" font-family="Helvetica,sans-Serif" font-size="10.00">&#45;barrier.h</text>
</a>
</g>
</g>
<!-- Node18&#45;&gt;Node20 -->
<g id="edge25" class="edge">
<title>Node18&#45;&gt;Node20</title>
<path fill="none" stroke="midnightblue" d="M817.52,-257.4C811.61,-249.05 804,-238.29 797.29,-228.81"/>
<polygon fill="midnightblue" stroke="midnightblue" points="800.1,-226.72 791.46,-220.58 794.38,-230.76 800.1,-226.72"/>
</g>
<!-- Node26 -->
<g id="node26" class="node">
<title>Node26</title>
<g id="a_node26"><a xlink:href="source-location_8h.html" target="_top" xlink:title=" ">
<polygon fill="white" stroke="black" points="441,-129 441,-148 560,-148 560,-129 441,-129"/>
<text text-anchor="middle" x="500.5" y="-136" font-family="Helvetica,sans-Serif" font-size="10.00">cppgc/source&#45;location.h</text>
</a>
</g>
</g>
<!-- Node18&#45;&gt;Node26 -->
<g id="edge40" class="edge">
<title>Node18&#45;&gt;Node26</title>
<path fill="none" stroke="midnightblue" d="M786.81,-257.45C758.97,-247.65 721.3,-234.05 688.5,-221 631.25,-198.21 565.4,-168.95 528.8,-152.41"/>
<polygon fill="midnightblue" stroke="midnightblue" points="529.84,-149.04 519.29,-148.1 526.95,-155.41 529.84,-149.04"/>
</g>
<!-- Node20&#45;&gt;Node6 -->
<g id="edge39" class="edge">
<title>Node20&#45;&gt;Node6</title>
<path fill="none" stroke="midnightblue" d="M773.2,-190.45C762.15,-172.76 741.12,-142.34 716.5,-123 694.78,-105.94 666.37,-93.02 644,-84.52"/>
<polygon fill="midnightblue" stroke="midnightblue" points="645.1,-81.2 634.51,-81.04 642.69,-87.77 645.1,-81.2"/>
</g>
<!-- Node21 -->
<g id="node21" class="node">
<title>Node21</title>
<g id="a_node21"><a xlink:href="api-constants_8h.html" target="_top" xlink:title=" ">
<polygon fill="white" stroke="black" points="182,-123.5 182,-153.5 275,-153.5 275,-123.5 182,-123.5"/>
<text text-anchor="start" x="190" y="-141.5" font-family="Helvetica,sans-Serif" font-size="10.00">cppgc/internal/api</text>
<text text-anchor="middle" x="228.5" y="-130.5" font-family="Helvetica,sans-Serif" font-size="10.00">&#45;constants.h</text>
</a>
</g>
</g>
<!-- Node20&#45;&gt;Node21 -->
<g id="edge26" class="edge">
<title>Node20&#45;&gt;Node21</title>
<path fill="none" stroke="midnightblue" d="M730.81,-199.65C646.12,-191.38 470.53,-173.55 322.5,-154 310.48,-152.41 297.62,-150.54 285.39,-148.68"/>
<polygon fill="midnightblue" stroke="midnightblue" points="285.72,-145.19 275.3,-147.13 284.65,-152.11 285.72,-145.19"/>
</g>
<!-- Node22 -->
<g id="node22" class="node">
<title>Node22</title>
<g id="a_node22"><a xlink:href="process-heap_8h.html" target="_top" xlink:title=" ">
<polygon fill="white" stroke="black" points="769,-123.5 769,-153.5 884,-153.5 884,-123.5 769,-123.5"/>
<text text-anchor="start" x="777" y="-141.5" font-family="Helvetica,sans-Serif" font-size="10.00">cppgc/internal/process</text>
<text text-anchor="middle" x="826.5" y="-130.5" font-family="Helvetica,sans-Serif" font-size="10.00">&#45;heap.h</text>
</a>
</g>
</g>
<!-- Node20&#45;&gt;Node22 -->
<g id="edge30" class="edge">
<title>Node20&#45;&gt;Node22</title>
<path fill="none" stroke="midnightblue" d="M791.26,-190.4C797.04,-182.05 804.49,-171.29 811.05,-161.81"/>
<polygon fill="midnightblue" stroke="midnightblue" points="813.94,-163.79 816.75,-153.58 808.18,-159.81 813.94,-163.79"/>
</g>
<!-- Node20&#45;&gt;Node24 -->
<g id="edge34" class="edge">
<title>Node20&#45;&gt;Node24</title>
<path fill="none" stroke="midnightblue" d="M826.16,-190.48C863.59,-178.72 916.39,-162.14 951.49,-151.12"/>
<polygon fill="midnightblue" stroke="midnightblue" points="952.85,-154.36 961.34,-148.03 950.75,-147.69 952.85,-154.36"/>
</g>
<!-- Node21&#45;&gt;Node6 -->
<g id="edge29" class="edge">
<title>Node21&#45;&gt;Node6</title>
<path fill="none" stroke="midnightblue" d="M275.05,-126.05C279.92,-124.97 284.8,-123.93 289.5,-123 388.77,-103.35 506.66,-86.24 567.19,-77.9"/>
<polygon fill="midnightblue" stroke="midnightblue" points="567.68,-81.37 577.11,-76.54 566.73,-74.43 567.68,-81.37"/>
</g>
<!-- Node21&#45;&gt;Node8 -->
<g id="edge27" class="edge">
<title>Node21&#45;&gt;Node8</title>
<path fill="none" stroke="midnightblue" d="M199.42,-123.4C176.12,-112.09 143.69,-96.36 121.07,-85.39"/>
<polygon fill="midnightblue" stroke="midnightblue" points="122.56,-82.22 112.04,-81.01 119.51,-88.52 122.56,-82.22"/>
</g>
<!-- Node21&#45;&gt;Node11 -->
<g id="edge28" class="edge">
<title>Node21&#45;&gt;Node11</title>
<path fill="none" stroke="midnightblue" d="M228.28,-123.4C228.14,-114.06 227.95,-101.71 227.79,-91.52"/>
<polygon fill="midnightblue" stroke="midnightblue" points="231.29,-91.14 227.63,-81.19 224.29,-91.25 231.29,-91.14"/>
</g>
<!-- Node22&#45;&gt;Node6 -->
<g id="edge33" class="edge">
<title>Node22&#45;&gt;Node6</title>
<path fill="none" stroke="midnightblue" d="M779.25,-123.48C739.48,-111.67 683.31,-95 646.17,-83.98"/>
<polygon fill="midnightblue" stroke="midnightblue" points="646.82,-80.52 636.24,-81.03 644.83,-87.23 646.82,-80.52"/>
</g>
<!-- Node23 -->
<g id="node23" class="node">
<title>Node23</title>
<g id="a_node23"><a xlink:href="atomic-entry-flag_8h.html" target="_top" xlink:title=" ">
<polygon fill="white" stroke="black" points="772.5,-56.5 772.5,-86.5 882.5,-86.5 882.5,-56.5 772.5,-56.5"/>
<text text-anchor="start" x="780.5" y="-74.5" font-family="Helvetica,sans-Serif" font-size="10.00">cppgc/internal/atomic</text>
<text text-anchor="middle" x="827.5" y="-63.5" font-family="Helvetica,sans-Serif" font-size="10.00">&#45;entry&#45;flag.h</text>
</a>
</g>
</g>
<!-- Node22&#45;&gt;Node23 -->
<g id="edge31" class="edge">
<title>Node22&#45;&gt;Node23</title>
<path fill="none" stroke="midnightblue" d="M826.72,-123.4C826.84,-115.64 826.99,-105.81 827.13,-96.86"/>
<polygon fill="midnightblue" stroke="midnightblue" points="830.63,-96.63 827.28,-86.58 823.63,-96.52 830.63,-96.63"/>
</g>
<!-- Node23&#45;&gt;Node15 -->
<g id="edge32" class="edge">
<title>Node23&#45;&gt;Node15</title>
<path fill="none" stroke="midnightblue" d="M837.45,-56.4C843.49,-47.84 851.24,-36.87 857.6,-27.86"/>
<polygon fill="midnightblue" stroke="midnightblue" points="860.48,-29.85 863.39,-19.66 854.76,-25.81 860.48,-29.85"/>
</g>
<!-- Node24&#45;&gt;Node6 -->
<g id="edge38" class="edge">
<title>Node24&#45;&gt;Node6</title>
<path fill="none" stroke="midnightblue" d="M940.63,-129.33C864.82,-116.4 718.48,-91.43 647.73,-79.36"/>
<polygon fill="midnightblue" stroke="midnightblue" points="648.31,-75.91 637.86,-77.68 647.13,-82.81 648.31,-75.91"/>
</g>
<!-- Node24&#45;&gt;Node17 -->
<g id="edge35" class="edge">
<title>Node24&#45;&gt;Node17</title>
<path fill="none" stroke="midnightblue" d="M982.58,-128.94C972.54,-113.28 954.66,-79.45 969.5,-56 981.44,-37.13 1003.66,-26.02 1023.61,-19.56"/>
<polygon fill="midnightblue" stroke="midnightblue" points="1024.86,-22.85 1033.47,-16.67 1022.89,-16.13 1024.86,-22.85"/>
</g>
<!-- Node24&#45;&gt;Node25 -->
<g id="edge36" class="edge">
<title>Node24&#45;&gt;Node25</title>
<path fill="none" stroke="midnightblue" d="M993.62,-128.73C999.44,-118.79 1009.06,-102.34 1016.39,-89.79"/>
<polygon fill="midnightblue" stroke="midnightblue" points="1019.43,-91.53 1021.46,-81.13 1013.39,-87.99 1019.43,-91.53"/>
</g>
<!-- Node25&#45;&gt;Node17 -->
<g id="edge37" class="edge">
<title>Node25&#45;&gt;Node17</title>
<path fill="none" stroke="midnightblue" d="M1031.94,-61.98C1037.59,-53.14 1046.56,-39.09 1053.66,-27.98"/>
<polygon fill="midnightblue" stroke="midnightblue" points="1056.63,-29.82 1059.07,-19.51 1050.73,-26.05 1056.63,-29.82"/>
</g>
<!-- Node26&#45;&gt;Node6 -->
<g id="edge42" class="edge">
<title>Node26&#45;&gt;Node6</title>
<path fill="none" stroke="midnightblue" d="M514.93,-128.73C532.82,-117.87 563.52,-99.22 584.63,-86.39"/>
<polygon fill="midnightblue" stroke="midnightblue" points="586.57,-89.31 593.3,-81.13 582.93,-83.33 586.57,-89.31"/>
</g>
<!-- Node26&#45;&gt;Node13 -->
<g id="edge41" class="edge">
<title>Node26&#45;&gt;Node13</title>
<path fill="none" stroke="midnightblue" d="M486.34,-128.73C468.79,-117.87 438.66,-99.22 417.94,-86.39"/>
<polygon fill="midnightblue" stroke="midnightblue" points="419.78,-83.41 409.44,-81.13 416.1,-89.37 419.78,-83.41"/>
</g>
</g>
</svg>
