<?xml version="1.0" encoding="UTF-8" standalone="no"?>
<!DOCTYPE svg PUBLIC "-//W3C//DTD SVG 1.1//EN"
 "http://www.w3.org/Graphics/SVG/1.1/DTD/svg11.dtd">
<!-- Generated by graphviz version 2.44.0 ()
 -->
<!-- Title: include/cppgc/internal/logging.h Pages: 1 -->
<svg width="391pt" height="229pt"
 viewBox="0.00 0.00 390.50 229.00" xmlns="http://www.w3.org/2000/svg" xmlns:xlink="http://www.w3.org/1999/xlink">
<g id="graph0" class="graph" transform="scale(1 1) rotate(0) translate(4 225)">
<title>include/cppgc/internal/logging.h</title>
<polygon fill="white" stroke="transparent" points="-4,4 -4,-225 386.5,-225 386.5,4 -4,4"/>
<!-- Node1 -->
<g id="node1" class="node">
<title>Node1</title>
<g id="a_node1"><a xlink:title=" ">
<polygon fill="#bfbfbf" stroke="black" points="130,-190.5 130,-220.5 241,-220.5 241,-190.5 130,-190.5"/>
<text text-anchor="start" x="138" y="-208.5" font-family="Helvetica,sans-Serif" font-size="10.00">include/cppgc/internal</text>
<text text-anchor="middle" x="185.5" y="-197.5" font-family="Helvetica,sans-Serif" font-size="10.00">/logging.h</text>
</a>
</g>
</g>
<!-- Node2 -->
<g id="node2" class="node">
<title>Node2</title>
<g id="a_node2"><a xlink:href="persistent-node_8h.html" target="_top" xlink:title=" ">
<polygon fill="white" stroke="black" points="0,-123.5 0,-153.5 111,-153.5 111,-123.5 0,-123.5"/>
<text text-anchor="start" x="8" y="-141.5" font-family="Helvetica,sans-Serif" font-size="10.00">include/cppgc/internal</text>
<text text-anchor="middle" x="55.5" y="-130.5" font-family="Helvetica,sans-Serif" font-size="10.00">/persistent&#45;node.h</text>
</a>
</g>
</g>
<!-- Node1&#45;&gt;Node2 -->
<g id="edge1" class="edge">
<title>Node1&#45;&gt;Node2</title>
<path fill="none" stroke="midnightblue" d="M148.21,-185.85C127.65,-175.58 102.55,-163.03 83.65,-153.58"/>
<polygon fill="midnightblue" stroke="midnightblue" points="146.78,-189.05 157.29,-190.4 149.91,-182.79 146.78,-189.05"/>
</g>
<!-- Node5 -->
<g id="node5" class="node">
<title>Node5</title>
<g id="a_node5"><a xlink:href="visitor_8h.html" target="_top" xlink:title=" ">
<polygon fill="white" stroke="black" points="129,-129 129,-148 242,-148 242,-129 129,-129"/>
<text text-anchor="middle" x="185.5" y="-136" font-family="Helvetica,sans-Serif" font-size="10.00">include/cppgc/visitor.h</text>
</a>
</g>
</g>
<!-- Node1&#45;&gt;Node5 -->
<g id="edge5" class="edge">
<title>Node1&#45;&gt;Node5</title>
<path fill="none" stroke="midnightblue" d="M185.5,-180.25C185.5,-169.02 185.5,-156.38 185.5,-148.19"/>
<polygon fill="midnightblue" stroke="midnightblue" points="182,-180.4 185.5,-190.4 189,-180.4 182,-180.4"/>
</g>
<!-- Node7 -->
<g id="node7" class="node">
<title>Node7</title>
<g id="a_node7"><a xlink:href="caged-heap-local-data_8h.html" target="_top" xlink:title=" ">
<polygon fill="white" stroke="black" points="260.5,-123.5 260.5,-153.5 382.5,-153.5 382.5,-123.5 260.5,-123.5"/>
<text text-anchor="start" x="268.5" y="-141.5" font-family="Helvetica,sans-Serif" font-size="10.00">include/cppgc/internal</text>
<text text-anchor="middle" x="321.5" y="-130.5" font-family="Helvetica,sans-Serif" font-size="10.00">/caged&#45;heap&#45;local&#45;data.h</text>
</a>
</g>
</g>
<!-- Node1&#45;&gt;Node7 -->
<g id="edge9" class="edge">
<title>Node1&#45;&gt;Node7</title>
<path fill="none" stroke="midnightblue" d="M224.22,-185.99C245.78,-175.69 272.19,-163.07 292.05,-153.58"/>
<polygon fill="midnightblue" stroke="midnightblue" points="222.52,-182.93 215.01,-190.4 225.54,-189.24 222.52,-182.93"/>
</g>
<!-- Node3 -->
<g id="node3" class="node">
<title>Node3</title>
<g id="a_node3"><a xlink:href="cross-thread-persistent_8h.html" target="_top" xlink:title=" ">
<polygon fill="white" stroke="black" points="40.5,-0.5 40.5,-30.5 144.5,-30.5 144.5,-0.5 40.5,-0.5"/>
<text text-anchor="start" x="48.5" y="-18.5" font-family="Helvetica,sans-Serif" font-size="10.00">include/cppgc/cross</text>
<text text-anchor="middle" x="92.5" y="-7.5" font-family="Helvetica,sans-Serif" font-size="10.00">&#45;thread&#45;persistent.h</text>
</a>
</g>
</g>
<!-- Node2&#45;&gt;Node3 -->
<g id="edge2" class="edge">
<title>Node2&#45;&gt;Node3</title>
<path fill="none" stroke="midnightblue" d="M32.34,-115.81C20.35,-101.86 9.86,-83.35 18.5,-67 27.07,-50.77 43.46,-38.77 58.65,-30.56"/>
<polygon fill="midnightblue" stroke="midnightblue" points="30.06,-118.5 39.43,-123.44 35.19,-113.74 30.06,-118.5"/>
</g>
<!-- Node4 -->
<g id="node4" class="node">
<title>Node4</title>
<g id="a_node4"><a xlink:href="persistent_8h.html" target="_top" xlink:title=" ">
<polygon fill="white" stroke="black" points="27.5,-67.5 27.5,-86.5 157.5,-86.5 157.5,-67.5 27.5,-67.5"/>
<text text-anchor="middle" x="92.5" y="-74.5" font-family="Helvetica,sans-Serif" font-size="10.00">include/cppgc/persistent.h</text>
</a>
</g>
</g>
<!-- Node2&#45;&gt;Node4 -->
<g id="edge3" class="edge">
<title>Node2&#45;&gt;Node4</title>
<path fill="none" stroke="midnightblue" d="M69.61,-114.8C75.73,-104.96 82.53,-94.03 87.12,-86.66"/>
<polygon fill="midnightblue" stroke="midnightblue" points="66.58,-113.06 64.27,-123.4 72.52,-116.76 66.58,-113.06"/>
</g>
<!-- Node4&#45;&gt;Node3 -->
<g id="edge4" class="edge">
<title>Node4&#45;&gt;Node3</title>
<path fill="none" stroke="midnightblue" d="M92.5,-57.23C92.5,-48.59 92.5,-38.5 92.5,-30.52"/>
<polygon fill="midnightblue" stroke="midnightblue" points="89,-57.48 92.5,-67.48 96,-57.48 89,-57.48"/>
</g>
<!-- Node5&#45;&gt;Node3 -->
<g id="edge7" class="edge">
<title>Node5&#45;&gt;Node3</title>
<path fill="none" stroke="midnightblue" d="M184.02,-118.68C182.03,-103.53 177.38,-82.32 166.5,-67 155.42,-51.4 137.91,-39.14 122.7,-30.6"/>
<polygon fill="midnightblue" stroke="midnightblue" points="180.56,-119.3 185.08,-128.88 187.53,-118.57 180.56,-119.3"/>
</g>
<!-- Node5&#45;&gt;Node4 -->
<g id="edge6" class="edge">
<title>Node5&#45;&gt;Node4</title>
<path fill="none" stroke="midnightblue" d="M163.51,-123.43C145.58,-111.96 120.84,-96.13 105.8,-86.51"/>
<polygon fill="midnightblue" stroke="midnightblue" points="161.87,-126.53 172.18,-128.98 165.64,-120.64 161.87,-126.53"/>
</g>
<!-- Node6 -->
<g id="node6" class="node">
<title>Node6</title>
<g id="a_node6"><a xlink:href="v8-cppgc_8h.html" target="_top" xlink:title=" ">
<polygon fill="white" stroke="black" points="213.5,-67.5 213.5,-86.5 311.5,-86.5 311.5,-67.5 213.5,-67.5"/>
<text text-anchor="middle" x="262.5" y="-74.5" font-family="Helvetica,sans-Serif" font-size="10.00">include/v8&#45;cppgc.h</text>
</a>
</g>
</g>
<!-- Node5&#45;&gt;Node6 -->
<g id="edge8" class="edge">
<title>Node5&#45;&gt;Node6</title>
<path fill="none" stroke="midnightblue" d="M204.53,-122.79C219.3,-111.38 239.26,-95.96 251.49,-86.51"/>
<polygon fill="midnightblue" stroke="midnightblue" points="202.31,-120.09 196.53,-128.98 206.59,-125.63 202.31,-120.09"/>
</g>
</g>
</svg>
