<?xml version="1.0" encoding="UTF-8" standalone="no"?>
<!DOCTYPE svg PUBLIC "-//W3C//DTD SVG 1.1//EN"
 "http://www.w3.org/Graphics/SVG/1.1/DTD/svg11.dtd">
<!-- Generated by graphviz version 2.44.0 ()
 -->
<!-- Title: include/cppgc/member.h Pages: 1 -->
<svg width="446pt" height="285pt"
 viewBox="0.00 0.00 445.50 285.00" xmlns="http://www.w3.org/2000/svg" xmlns:xlink="http://www.w3.org/1999/xlink">
<g id="graph0" class="graph" transform="scale(1 1) rotate(0) translate(4 281)">
<title>include/cppgc/member.h</title>
<polygon fill="white" stroke="transparent" points="-4,4 -4,-281 441.5,-281 441.5,4 -4,4"/>
<!-- Node1 -->
<g id="node1" class="node">
<title>Node1</title>
<g id="a_node1"><a xlink:title=" ">
<polygon fill="#bfbfbf" stroke="black" points="141,-257.5 141,-276.5 263,-276.5 263,-257.5 141,-257.5"/>
<text text-anchor="middle" x="202" y="-264.5" font-family="Helvetica,sans-Serif" font-size="10.00">include/cppgc/member.h</text>
</a>
</g>
</g>
<!-- Node2 -->
<g id="node2" class="node">
<title>Node2</title>
<g id="a_node2"><a xlink:href="ephemeron-pair_8h.html" target="_top" xlink:title=" ">
<polygon fill="white" stroke="black" points="46,-190.5 46,-220.5 174,-220.5 174,-190.5 46,-190.5"/>
<text text-anchor="start" x="54" y="-208.5" font-family="Helvetica,sans-Serif" font-size="10.00">include/cppgc/ephemeron</text>
<text text-anchor="middle" x="110" y="-197.5" font-family="Helvetica,sans-Serif" font-size="10.00">&#45;pair.h</text>
</a>
</g>
</g>
<!-- Node1&#45;&gt;Node2 -->
<g id="edge1" class="edge">
<title>Node1&#45;&gt;Node2</title>
<path fill="none" stroke="midnightblue" d="M180.37,-252.01C165.69,-242.52 146.37,-230.02 131.68,-220.52"/>
<polygon fill="midnightblue" stroke="midnightblue" points="178.52,-254.98 188.82,-257.48 182.32,-249.11 178.52,-254.98"/>
</g>
<!-- Node3 -->
<g id="node3" class="node">
<title>Node3</title>
<g id="a_node3"><a xlink:href="visitor_8h.html" target="_top" xlink:title=" ">
<polygon fill="white" stroke="black" points="101.5,-129 101.5,-148 214.5,-148 214.5,-129 101.5,-129"/>
<text text-anchor="middle" x="158" y="-136" font-family="Helvetica,sans-Serif" font-size="10.00">include/cppgc/visitor.h</text>
</a>
</g>
</g>
<!-- Node1&#45;&gt;Node3 -->
<g id="edge12" class="edge">
<title>Node1&#45;&gt;Node3</title>
<path fill="none" stroke="midnightblue" d="M198.53,-247.45C195.33,-231.85 190.02,-209.11 183,-190 177.4,-174.76 168.55,-158.05 163.02,-148.18"/>
<polygon fill="midnightblue" stroke="midnightblue" points="195.12,-248.25 200.47,-257.39 201.98,-246.9 195.12,-248.25"/>
</g>
<!-- Node7 -->
<g id="node7" class="node">
<title>Node7</title>
<g id="a_node7"><a xlink:href="liveness-broker_8h.html" target="_top" xlink:title=" ">
<polygon fill="white" stroke="black" points="230,-190.5 230,-220.5 346,-220.5 346,-190.5 230,-190.5"/>
<text text-anchor="start" x="238" y="-208.5" font-family="Helvetica,sans-Serif" font-size="10.00">include/cppgc/liveness</text>
<text text-anchor="middle" x="288" y="-197.5" font-family="Helvetica,sans-Serif" font-size="10.00">&#45;broker.h</text>
</a>
</g>
</g>
<!-- Node1&#45;&gt;Node7 -->
<g id="edge7" class="edge">
<title>Node1&#45;&gt;Node7</title>
<path fill="none" stroke="midnightblue" d="M222.61,-251.74C236.28,-242.28 254.13,-229.93 267.73,-220.52"/>
<polygon fill="midnightblue" stroke="midnightblue" points="220.55,-248.91 214.32,-257.48 224.54,-254.66 220.55,-248.91"/>
</g>
<!-- Node2&#45;&gt;Node3 -->
<g id="edge2" class="edge">
<title>Node2&#45;&gt;Node3</title>
<path fill="none" stroke="midnightblue" d="M126.38,-182.32C135.04,-170.6 145.16,-156.88 151.58,-148.19"/>
<polygon fill="midnightblue" stroke="midnightblue" points="123.54,-180.27 120.42,-190.4 129.17,-184.43 123.54,-180.27"/>
</g>
<!-- Node4 -->
<g id="node4" class="node">
<title>Node4</title>
<g id="a_node4"><a xlink:href="persistent_8h.html" target="_top" xlink:title=" ">
<polygon fill="white" stroke="black" points="0,-67.5 0,-86.5 130,-86.5 130,-67.5 0,-67.5"/>
<text text-anchor="middle" x="65" y="-74.5" font-family="Helvetica,sans-Serif" font-size="10.00">include/cppgc/persistent.h</text>
</a>
</g>
</g>
<!-- Node3&#45;&gt;Node4 -->
<g id="edge3" class="edge">
<title>Node3&#45;&gt;Node4</title>
<path fill="none" stroke="midnightblue" d="M136.01,-123.43C118.08,-111.96 93.34,-96.13 78.3,-86.51"/>
<polygon fill="midnightblue" stroke="midnightblue" points="134.37,-126.53 144.68,-128.98 138.14,-120.64 134.37,-126.53"/>
</g>
<!-- Node5 -->
<g id="node5" class="node">
<title>Node5</title>
<g id="a_node5"><a xlink:href="cross-thread-persistent_8h.html" target="_top" xlink:title=" ">
<polygon fill="white" stroke="black" points="59,-0.5 59,-30.5 163,-30.5 163,-0.5 59,-0.5"/>
<text text-anchor="start" x="67" y="-18.5" font-family="Helvetica,sans-Serif" font-size="10.00">include/cppgc/cross</text>
<text text-anchor="middle" x="111" y="-7.5" font-family="Helvetica,sans-Serif" font-size="10.00">&#45;thread&#45;persistent.h</text>
</a>
</g>
</g>
<!-- Node3&#45;&gt;Node5 -->
<g id="edge5" class="edge">
<title>Node3&#45;&gt;Node5</title>
<path fill="none" stroke="midnightblue" d="M154.18,-118.42C150.98,-104 145.83,-83.87 139,-67 133.81,-54.18 126.08,-40.5 120.05,-30.62"/>
<polygon fill="midnightblue" stroke="midnightblue" points="150.84,-119.53 156.33,-128.59 157.69,-118.09 150.84,-119.53"/>
</g>
<!-- Node6 -->
<g id="node6" class="node">
<title>Node6</title>
<g id="a_node6"><a xlink:href="v8-cppgc_8h.html" target="_top" xlink:title=" ">
<polygon fill="white" stroke="black" points="186,-67.5 186,-86.5 284,-86.5 284,-67.5 186,-67.5"/>
<text text-anchor="middle" x="235" y="-74.5" font-family="Helvetica,sans-Serif" font-size="10.00">include/v8&#45;cppgc.h</text>
</a>
</g>
</g>
<!-- Node3&#45;&gt;Node6 -->
<g id="edge6" class="edge">
<title>Node3&#45;&gt;Node6</title>
<path fill="none" stroke="midnightblue" d="M177.03,-122.79C191.8,-111.38 211.76,-95.96 223.99,-86.51"/>
<polygon fill="midnightblue" stroke="midnightblue" points="174.81,-120.09 169.03,-128.98 179.09,-125.63 174.81,-120.09"/>
</g>
<!-- Node4&#45;&gt;Node5 -->
<g id="edge4" class="edge">
<title>Node4&#45;&gt;Node5</title>
<path fill="none" stroke="midnightblue" d="M77.73,-59.53C84.78,-50.42 93.44,-39.21 100.16,-30.52"/>
<polygon fill="midnightblue" stroke="midnightblue" points="74.94,-57.42 71.59,-67.48 80.48,-61.7 74.94,-57.42"/>
</g>
<!-- Node7&#45;&gt;Node3 -->
<g id="edge8" class="edge">
<title>Node7&#45;&gt;Node3</title>
<path fill="none" stroke="midnightblue" d="M250.61,-185.8C225.68,-173.34 194.11,-157.56 175.01,-148.01"/>
<polygon fill="midnightblue" stroke="midnightblue" points="249.28,-189.05 259.79,-190.4 252.41,-182.79 249.28,-189.05"/>
</g>
<!-- Node8 -->
<g id="node8" class="node">
<title>Node8</title>
<g id="a_node8"><a xlink:href="prefinalizer-handler_8h.html" target="_top" xlink:title=" ">
<polygon fill="white" stroke="black" points="232.5,-123.5 232.5,-153.5 343.5,-153.5 343.5,-123.5 232.5,-123.5"/>
<text text-anchor="start" x="240.5" y="-141.5" font-family="Helvetica,sans-Serif" font-size="10.00">include/cppgc/internal</text>
<text text-anchor="middle" x="288" y="-130.5" font-family="Helvetica,sans-Serif" font-size="10.00">/prefinalizer&#45;handler.h</text>
</a>
</g>
</g>
<!-- Node7&#45;&gt;Node8 -->
<g id="edge9" class="edge">
<title>Node7&#45;&gt;Node8</title>
<path fill="none" stroke="midnightblue" d="M288,-180.11C288,-171.15 288,-161.32 288,-153.58"/>
<polygon fill="midnightblue" stroke="midnightblue" points="284.5,-180.4 288,-190.4 291.5,-180.4 284.5,-180.4"/>
</g>
<!-- Node9 -->
<g id="node9" class="node">
<title>Node9</title>
<g id="a_node9"><a xlink:href="prefinalizer_8h.html" target="_top" xlink:title=" ">
<polygon fill="white" stroke="black" points="304.5,-67.5 304.5,-86.5 437.5,-86.5 437.5,-67.5 304.5,-67.5"/>
<text text-anchor="middle" x="371" y="-74.5" font-family="Helvetica,sans-Serif" font-size="10.00">include/cppgc/prefinalizer.h</text>
</a>
</g>
</g>
<!-- Node7&#45;&gt;Node9 -->
<g id="edge11" class="edge">
<title>Node7&#45;&gt;Node9</title>
<path fill="none" stroke="midnightblue" d="M322.25,-184.59C333.57,-176.44 345.24,-166.07 353,-154 366.79,-132.56 370.03,-101.62 370.78,-86.7"/>
<polygon fill="midnightblue" stroke="midnightblue" points="320.03,-181.86 313.73,-190.37 323.97,-187.65 320.03,-181.86"/>
</g>
<!-- Node8&#45;&gt;Node9 -->
<g id="edge10" class="edge">
<title>Node8&#45;&gt;Node9</title>
<path fill="none" stroke="midnightblue" d="M315.92,-117.48C330.54,-107 347.69,-94.71 358.92,-86.66"/>
<polygon fill="midnightblue" stroke="midnightblue" points="313.76,-114.73 307.67,-123.4 317.84,-120.42 313.76,-114.73"/>
</g>
</g>
</svg>
