<?xml version="1.0" encoding="UTF-8" standalone="no"?>
<!DOCTYPE svg PUBLIC "-//W3C//DTD SVG 1.1//EN"
 "http://www.w3.org/Graphics/SVG/1.1/DTD/svg11.dtd">
<!-- Generated by graphviz version 2.44.0 ()
 -->
<!-- Title: include/cppgc/internal/name&#45;trait.h Pages: 1 -->
<svg width="206pt" height="151pt"
 viewBox="0.00 0.00 205.50 151.00" xmlns="http://www.w3.org/2000/svg" xmlns:xlink="http://www.w3.org/1999/xlink">
<g id="graph0" class="graph" transform="scale(1 1) rotate(0) translate(4 147)">
<title>include/cppgc/internal/name&#45;trait.h</title>
<polygon fill="white" stroke="transparent" points="-4,4 -4,-147 201.5,-147 201.5,4 -4,4"/>
<!-- Node1 -->
<g id="node1" class="node">
<title>Node1</title>
<g id="a_node1"><a xlink:title=" ">
<polygon fill="#bfbfbf" stroke="black" points="69,-112.5 69,-142.5 180,-142.5 180,-112.5 69,-112.5"/>
<text text-anchor="start" x="77" y="-130.5" font-family="Helvetica,sans-Serif" font-size="10.00">include/cppgc/internal</text>
<text text-anchor="middle" x="124.5" y="-119.5" font-family="Helvetica,sans-Serif" font-size="10.00">/name&#45;trait.h</text>
</a>
</g>
</g>
<!-- Node2 -->
<g id="node2" class="node">
<title>Node2</title>
<g id="a_node2"><a xlink:title=" ">
<polygon fill="white" stroke="#bfbfbf" points="0,-56.5 0,-75.5 49,-75.5 49,-56.5 0,-56.5"/>
<text text-anchor="middle" x="24.5" y="-63.5" font-family="Helvetica,sans-Serif" font-size="10.00">cstddef</text>
</a>
</g>
</g>
<!-- Node1&#45;&gt;Node2 -->
<g id="edge1" class="edge">
<title>Node1&#45;&gt;Node2</title>
<path fill="none" stroke="midnightblue" d="M100.8,-112.4C84.77,-102.86 63.7,-90.32 47.76,-80.84"/>
<polygon fill="midnightblue" stroke="midnightblue" points="49.43,-77.76 39.05,-75.66 45.86,-83.78 49.43,-77.76"/>
</g>
<!-- Node3 -->
<g id="node3" class="node">
<title>Node3</title>
<g id="a_node3"><a xlink:href="name-provider_8h.html" target="_top" xlink:title=" ">
<polygon fill="white" stroke="black" points="67,-56.5 67,-75.5 182,-75.5 182,-56.5 67,-56.5"/>
<text text-anchor="middle" x="124.5" y="-63.5" font-family="Helvetica,sans-Serif" font-size="10.00">cppgc/name&#45;provider.h</text>
</a>
</g>
</g>
<!-- Node1&#45;&gt;Node3 -->
<g id="edge2" class="edge">
<title>Node1&#45;&gt;Node3</title>
<path fill="none" stroke="midnightblue" d="M124.5,-112.4C124.5,-104.47 124.5,-94.46 124.5,-85.86"/>
<polygon fill="midnightblue" stroke="midnightblue" points="128,-85.66 124.5,-75.66 121,-85.66 128,-85.66"/>
</g>
<!-- Node4 -->
<g id="node4" class="node">
<title>Node4</title>
<g id="a_node4"><a xlink:href="v8config_8h.html" target="_top" xlink:title=" ">
<polygon fill="white" stroke="black" points="137.5,-0.5 137.5,-19.5 197.5,-19.5 197.5,-0.5 137.5,-0.5"/>
<text text-anchor="middle" x="167.5" y="-7.5" font-family="Helvetica,sans-Serif" font-size="10.00">v8config.h</text>
</a>
</g>
</g>
<!-- Node1&#45;&gt;Node4 -->
<g id="edge4" class="edge">
<title>Node1&#45;&gt;Node4</title>
<path fill="none" stroke="midnightblue" d="M154.19,-112.34C168.24,-103.92 183.64,-91.77 191.5,-76 199.35,-60.25 190.4,-41.29 181.28,-27.91"/>
<polygon fill="midnightblue" stroke="midnightblue" points="183.92,-25.6 175.14,-19.66 178.3,-29.77 183.92,-25.6"/>
</g>
<!-- Node3&#45;&gt;Node4 -->
<g id="edge3" class="edge">
<title>Node3&#45;&gt;Node4</title>
<path fill="none" stroke="midnightblue" d="M131.6,-56.08C137.74,-48.38 146.77,-37.03 154.24,-27.65"/>
<polygon fill="midnightblue" stroke="midnightblue" points="157.04,-29.75 160.53,-19.75 151.56,-25.39 157.04,-29.75"/>
</g>
</g>
</svg>
