<?xml version="1.0" encoding="UTF-8" standalone="no"?>
<!DOCTYPE svg PUBLIC "-//W3C//DTD SVG 1.1//EN"
 "http://www.w3.org/Graphics/SVG/1.1/DTD/svg11.dtd">
<!-- Generated by graphviz version 2.44.0 ()
 -->
<!-- Title: cppgc::MakeGarbageCollected Pages: 1 -->
<svg width="775pt" height="112pt"
 viewBox="0.00 0.00 775.00 112.00" xmlns="http://www.w3.org/2000/svg" xmlns:xlink="http://www.w3.org/1999/xlink">
<g id="graph0" class="graph" transform="scale(1 1) rotate(0) translate(4 108)">
<title>cppgc::MakeGarbageCollected</title>
<polygon fill="white" stroke="transparent" points="-4,4 -4,-108 771,-108 771,4 -4,4"/>
<!-- Node1 -->
<g id="node1" class="node">
<title>Node1</title>
<g id="a_node1"><a xlink:title=" ">
<polygon fill="#bfbfbf" stroke="black" points="0,-30 0,-49 149,-49 149,-30 0,-30"/>
<text text-anchor="middle" x="74.5" y="-37" font-family="Helvetica,sans-Serif" font-size="10.00">cppgc::MakeGarbageCollected</text>
</a>
</g>
</g>
<!-- Node2 -->
<g id="node2" class="node">
<title>Node2</title>
<g id="a_node2"><a xlink:href="classcppgc_1_1MakeGarbageCollectedTrait.html#a554c64c4ade5626f811db6b971644e36" target="_top" xlink:title=" ">
<polygon fill="white" stroke="black" points="190.5,-49.5 190.5,-79.5 339.5,-79.5 339.5,-49.5 190.5,-49.5"/>
<text text-anchor="start" x="198.5" y="-67.5" font-family="Helvetica,sans-Serif" font-size="10.00">cppgc::MakeGarbageCollected</text>
<text text-anchor="middle" x="265" y="-56.5" font-family="Helvetica,sans-Serif" font-size="10.00">Trait::Call</text>
</a>
</g>
</g>
<!-- Node1&#45;&gt;Node2 -->
<g id="edge1" class="edge">
<title>Node1&#45;&gt;Node2</title>
<path fill="none" stroke="midnightblue" d="M147.3,-49.02C158.06,-50.45 169.22,-51.93 180.2,-53.39"/>
<polygon fill="midnightblue" stroke="midnightblue" points="179.84,-56.87 190.21,-54.71 180.76,-49.93 179.84,-56.87"/>
</g>
<!-- Node6 -->
<g id="node6" class="node">
<title>Node6</title>
<g id="a_node6"><a xlink:href="structcppgc_1_1PostConstructionCallbackTrait.html#a62e4169c68d1af2dbdb75f0239f5ae07" target="_top" xlink:title=" ">
<polygon fill="white" stroke="black" points="185,-0.5 185,-30.5 345,-30.5 345,-0.5 185,-0.5"/>
<text text-anchor="start" x="193" y="-18.5" font-family="Helvetica,sans-Serif" font-size="10.00">cppgc::PostConstructionCallback</text>
<text text-anchor="middle" x="265" y="-7.5" font-family="Helvetica,sans-Serif" font-size="10.00">Trait::Call</text>
</a>
</g>
</g>
<!-- Node1&#45;&gt;Node6 -->
<g id="edge5" class="edge">
<title>Node1&#45;&gt;Node6</title>
<path fill="none" stroke="midnightblue" d="M149.19,-30.12C157.58,-29.05 166.19,-27.95 174.75,-26.86"/>
<polygon fill="midnightblue" stroke="midnightblue" points="175.28,-30.32 184.76,-25.59 174.39,-23.38 175.28,-30.32"/>
</g>
<!-- Node3 -->
<g id="node3" class="node">
<title>Node3</title>
<g id="a_node3"><a xlink:href="classcppgc_1_1MakeGarbageCollectedTraitBase.html#ab68f8a381088df7c073d8655d733fb98" target="_top" xlink:title=" ">
<polygon fill="white" stroke="black" points="405.5,-73.5 405.5,-103.5 554.5,-103.5 554.5,-73.5 405.5,-73.5"/>
<text text-anchor="start" x="413.5" y="-91.5" font-family="Helvetica,sans-Serif" font-size="10.00">cppgc::MakeGarbageCollected</text>
<text text-anchor="middle" x="480" y="-80.5" font-family="Helvetica,sans-Serif" font-size="10.00">TraitBase::Allocate</text>
</a>
</g>
</g>
<!-- Node2&#45;&gt;Node3 -->
<g id="edge2" class="edge">
<title>Node2&#45;&gt;Node3</title>
<path fill="none" stroke="midnightblue" d="M339.6,-72.79C357.56,-74.82 376.9,-77 395.29,-79.07"/>
<polygon fill="midnightblue" stroke="midnightblue" points="395.07,-82.56 405.4,-80.21 395.85,-75.61 395.07,-82.56"/>
</g>
<!-- Node4 -->
<g id="node4" class="node">
<title>Node4</title>
<g id="a_node4"><a xlink:href="classcppgc_1_1MakeGarbageCollectedTraitBase.html#abf4c708d0ab67598b320f05e5ff0b6e1" target="_top" xlink:title=" ">
<polygon fill="white" stroke="black" points="381,-24.5 381,-54.5 579,-54.5 579,-24.5 381,-24.5"/>
<text text-anchor="start" x="389" y="-42.5" font-family="Helvetica,sans-Serif" font-size="10.00">cppgc::MakeGarbageCollected</text>
<text text-anchor="middle" x="480" y="-31.5" font-family="Helvetica,sans-Serif" font-size="10.00">TraitBase::MarkObjectAsFullyConstructed</text>
</a>
</g>
</g>
<!-- Node2&#45;&gt;Node4 -->
<g id="edge3" class="edge">
<title>Node2&#45;&gt;Node4</title>
<path fill="none" stroke="midnightblue" d="M339.6,-55.86C349.72,-54.67 360.27,-53.44 370.85,-52.19"/>
<polygon fill="midnightblue" stroke="midnightblue" points="371.45,-55.65 380.98,-51 370.64,-48.69 371.45,-55.65"/>
</g>
<!-- Node5 -->
<g id="node5" class="node">
<title>Node5</title>
<g id="a_node5"><a xlink:href="classcppgc_1_1internal_1_1MakeGarbageCollectedTraitInternal.html#af0b49ea167f0710a3d4260bdeed1bf46" target="_top" xlink:title=" ">
<polygon fill="white" stroke="black" points="615,-19 615,-60 767,-60 767,-19 615,-19"/>
<text text-anchor="start" x="623" y="-48" font-family="Helvetica,sans-Serif" font-size="10.00">cppgc::internal::MakeGarbage</text>
<text text-anchor="start" x="623" y="-37" font-family="Helvetica,sans-Serif" font-size="10.00">CollectedTraitInternal::</text>
<text text-anchor="middle" x="691" y="-26" font-family="Helvetica,sans-Serif" font-size="10.00">MarkObjectAsFullyConstructed</text>
</a>
</g>
</g>
<!-- Node4&#45;&gt;Node5 -->
<g id="edge4" class="edge">
<title>Node4&#45;&gt;Node5</title>
<path fill="none" stroke="midnightblue" d="M579.07,-39.5C587.59,-39.5 596.17,-39.5 604.58,-39.5"/>
<polygon fill="midnightblue" stroke="midnightblue" points="604.73,-43 614.73,-39.5 604.73,-36 604.73,-43"/>
</g>
</g>
</svg>
