<?xml version="1.0" encoding="UTF-8" standalone="no"?>
<!DOCTYPE svg PUBLIC "-//W3C//DTD SVG 1.1//EN"
 "http://www.w3.org/Graphics/SVG/1.1/DTD/svg11.dtd">
<!-- Generated by graphviz version 2.44.0 ()
 -->
<!-- Title: include/cppgc/persistent.h Pages: 1 -->
<svg width="1620pt" height="520pt"
 viewBox="0.00 0.00 1620.22 520.00" xmlns="http://www.w3.org/2000/svg" xmlns:xlink="http://www.w3.org/1999/xlink">
<g id="graph0" class="graph" transform="scale(1 1) rotate(0) translate(4 516)">
<title>include/cppgc/persistent.h</title>
<polygon fill="white" stroke="transparent" points="-4,4 -4,-516 1616.22,-516 1616.22,4 -4,4"/>
<!-- Node1 -->
<g id="node1" class="node">
<title>Node1</title>
<g id="a_node1"><a xlink:title=" ">
<polygon fill="#bfbfbf" stroke="black" points="935,-492.5 935,-511.5 1065,-511.5 1065,-492.5 935,-492.5"/>
<text text-anchor="middle" x="1000" y="-499.5" font-family="Helvetica,sans-Serif" font-size="10.00">include/cppgc/persistent.h</text>
</a>
</g>
</g>
<!-- Node2 -->
<g id="node2" class="node">
<title>Node2</title>
<g id="a_node2"><a xlink:title=" ">
<polygon fill="white" stroke="#bfbfbf" points="976,-0.5 976,-19.5 1038,-19.5 1038,-0.5 976,-0.5"/>
<text text-anchor="middle" x="1007" y="-7.5" font-family="Helvetica,sans-Serif" font-size="10.00">type_traits</text>
</a>
</g>
</g>
<!-- Node1&#45;&gt;Node2 -->
<g id="edge1" class="edge">
<title>Node1&#45;&gt;Node2</title>
<path fill="none" stroke="midnightblue" d="M1065.21,-498.1C1176.94,-492.6 1400.19,-479.06 1475,-456 1532.22,-438.36 1593,-450.87 1593,-391 1593,-391 1593,-391 1593,-137.5 1593,-25.9 1181.81,-12.51 1048.31,-11.1"/>
<polygon fill="midnightblue" stroke="midnightblue" points="1048.12,-7.59 1038.09,-11.01 1048.06,-14.59 1048.12,-7.59"/>
</g>
<!-- Node3 -->
<g id="node3" class="node">
<title>Node3</title>
<g id="a_node3"><a xlink:href="persistent-node_8h.html" target="_top" xlink:title=" ">
<polygon fill="white" stroke="black" points="396.5,-257.5 396.5,-287.5 519.5,-287.5 519.5,-257.5 396.5,-257.5"/>
<text text-anchor="start" x="404.5" y="-275.5" font-family="Helvetica,sans-Serif" font-size="10.00">cppgc/internal/persistent</text>
<text text-anchor="middle" x="458" y="-264.5" font-family="Helvetica,sans-Serif" font-size="10.00">&#45;node.h</text>
</a>
</g>
</g>
<!-- Node1&#45;&gt;Node3 -->
<g id="edge2" class="edge">
<title>Node1&#45;&gt;Node3</title>
<path fill="none" stroke="midnightblue" d="M934.78,-498.79C811.09,-494.03 551.86,-481.16 520,-456 470.91,-417.24 460.45,-337.78 458.38,-297.72"/>
<polygon fill="midnightblue" stroke="midnightblue" points="461.87,-297.4 458,-287.54 454.88,-297.66 461.87,-297.4"/>
</g>
<!-- Node8 -->
<g id="node8" class="node">
<title>Node8</title>
<g id="a_node8"><a xlink:href="source-location_8h.html" target="_top" xlink:title=" ">
<polygon fill="white" stroke="black" points="1329.5,-129 1329.5,-148 1448.5,-148 1448.5,-129 1329.5,-129"/>
<text text-anchor="middle" x="1389" y="-136" font-family="Helvetica,sans-Serif" font-size="10.00">cppgc/source&#45;location.h</text>
</a>
</g>
</g>
<!-- Node1&#45;&gt;Node8 -->
<g id="edge33" class="edge">
<title>Node1&#45;&gt;Node8</title>
<path fill="none" stroke="midnightblue" d="M1065.22,-500.65C1204.2,-498.15 1517,-482.36 1517,-391 1517,-391 1517,-391 1517,-271.5 1517,-214.41 1454.53,-172.66 1416.87,-152.69"/>
<polygon fill="midnightblue" stroke="midnightblue" points="1418.38,-149.53 1407.89,-148.08 1415.19,-155.76 1418.38,-149.53"/>
</g>
<!-- Node10 -->
<g id="node10" class="node">
<title>Node10</title>
<g id="a_node10"><a xlink:href="v8config_8h.html" target="_top" xlink:title=" ">
<polygon fill="white" stroke="black" points="902,-62 902,-81 962,-81 962,-62 902,-62"/>
<text text-anchor="middle" x="932" y="-69" font-family="Helvetica,sans-Serif" font-size="10.00">v8config.h</text>
</a>
</g>
</g>
<!-- Node1&#45;&gt;Node10 -->
<g id="edge78" class="edge">
<title>Node1&#45;&gt;Node10</title>
<path fill="none" stroke="midnightblue" d="M985.78,-492.43C937.9,-462.54 783.16,-357.29 740,-221 735.84,-207.87 733.26,-202.02 740,-190 744.75,-181.53 857.79,-115.43 908.16,-86.25"/>
<polygon fill="midnightblue" stroke="midnightblue" points="910.17,-89.14 917.07,-81.1 906.66,-83.08 910.17,-89.14"/>
</g>
<!-- Node12 -->
<g id="node12" class="node">
<title>Node12</title>
<g id="a_node12"><a xlink:href="type-traits_8h.html" target="_top" xlink:title=" ">
<polygon fill="white" stroke="black" points="28,-62 28,-81 124,-81 124,-62 28,-62"/>
<text text-anchor="middle" x="76" y="-69" font-family="Helvetica,sans-Serif" font-size="10.00">cppgc/type&#45;traits.h</text>
</a>
</g>
</g>
<!-- Node1&#45;&gt;Node12 -->
<g id="edge34" class="edge">
<title>Node1&#45;&gt;Node12</title>
<path fill="none" stroke="midnightblue" d="M934.77,-500.69C712.74,-498.8 0,-485.37 0,-391 0,-391 0,-391 0,-204.5 0,-157.19 37.12,-111.54 59.47,-88.33"/>
<polygon fill="midnightblue" stroke="midnightblue" points="62.11,-90.65 66.68,-81.09 57.14,-85.71 62.11,-90.65"/>
</g>
<!-- Node13 -->
<g id="node13" class="node">
<title>Node13</title>
<g id="a_node13"><a xlink:href="pointer-policies_8h.html" target="_top" xlink:title=" ">
<polygon fill="white" stroke="black" points="1244,-257.5 1244,-287.5 1354,-287.5 1354,-257.5 1244,-257.5"/>
<text text-anchor="start" x="1252" y="-275.5" font-family="Helvetica,sans-Serif" font-size="10.00">cppgc/internal/pointer</text>
<text text-anchor="middle" x="1299" y="-264.5" font-family="Helvetica,sans-Serif" font-size="10.00">&#45;policies.h</text>
</a>
</g>
</g>
<!-- Node1&#45;&gt;Node13 -->
<g id="edge17" class="edge">
<title>Node1&#45;&gt;Node13</title>
<path fill="none" stroke="midnightblue" d="M1055.27,-492.46C1113.07,-480.88 1203.15,-454.93 1260,-400 1288.01,-372.93 1296.03,-326.25 1298.25,-297.8"/>
<polygon fill="midnightblue" stroke="midnightblue" points="1301.76,-297.71 1298.86,-287.52 1294.77,-297.29 1301.76,-297.71"/>
</g>
<!-- Node22 -->
<g id="node22" class="node">
<title>Node22</title>
<g id="a_node22"><a xlink:href="visitor_8h.html" target="_top" xlink:title=" ">
<polygon fill="white" stroke="black" points="960,-436.5 960,-455.5 1040,-455.5 1040,-436.5 960,-436.5"/>
<text text-anchor="middle" x="1000" y="-443.5" font-family="Helvetica,sans-Serif" font-size="10.00">cppgc/visitor.h</text>
</a>
</g>
</g>
<!-- Node1&#45;&gt;Node22 -->
<g id="edge35" class="edge">
<title>Node1&#45;&gt;Node22</title>
<path fill="none" stroke="midnightblue" d="M1000,-492.08C1000,-485.01 1000,-474.86 1000,-465.99"/>
<polygon fill="midnightblue" stroke="midnightblue" points="1003.5,-465.75 1000,-455.75 996.5,-465.75 1003.5,-465.75"/>
</g>
<!-- Node4 -->
<g id="node4" class="node">
<title>Node4</title>
<g id="a_node4"><a xlink:title=" ">
<polygon fill="white" stroke="#bfbfbf" points="294,-196 294,-215 332,-215 332,-196 294,-196"/>
<text text-anchor="middle" x="313" y="-203" font-family="Helvetica,sans-Serif" font-size="10.00">array</text>
</a>
</g>
</g>
<!-- Node3&#45;&gt;Node4 -->
<g id="edge3" class="edge">
<title>Node3&#45;&gt;Node4</title>
<path fill="none" stroke="midnightblue" d="M426.54,-257.4C401.1,-245.99 365.6,-230.08 341.1,-219.1"/>
<polygon fill="midnightblue" stroke="midnightblue" points="342.53,-215.9 331.98,-215.01 339.67,-222.29 342.53,-215.9"/>
</g>
<!-- Node5 -->
<g id="node5" class="node">
<title>Node5</title>
<g id="a_node5"><a xlink:title=" ">
<polygon fill="white" stroke="#bfbfbf" points="437.5,-62 437.5,-81 488.5,-81 488.5,-62 437.5,-62"/>
<text text-anchor="middle" x="463" y="-69" font-family="Helvetica,sans-Serif" font-size="10.00">memory</text>
</a>
</g>
</g>
<!-- Node3&#45;&gt;Node5 -->
<g id="edge4" class="edge">
<title>Node3&#45;&gt;Node5</title>
<path fill="none" stroke="midnightblue" d="M455.77,-257.11C451.98,-230.53 445.26,-171.96 451,-123 452.25,-112.32 454.94,-100.63 457.46,-91.18"/>
<polygon fill="midnightblue" stroke="midnightblue" points="460.89,-91.9 460.24,-81.33 454.16,-90 460.89,-91.9"/>
</g>
<!-- Node6 -->
<g id="node6" class="node">
<title>Node6</title>
<g id="a_node6"><a xlink:title=" ">
<polygon fill="white" stroke="#bfbfbf" points="502,-196 502,-215 546,-215 546,-196 502,-196"/>
<text text-anchor="middle" x="524" y="-203" font-family="Helvetica,sans-Serif" font-size="10.00">vector</text>
</a>
</g>
</g>
<!-- Node3&#45;&gt;Node6 -->
<g id="edge5" class="edge">
<title>Node3&#45;&gt;Node6</title>
<path fill="none" stroke="midnightblue" d="M472.32,-257.4C482.82,-247.06 497.07,-233.02 507.95,-222.31"/>
<polygon fill="midnightblue" stroke="midnightblue" points="510.5,-224.71 515.17,-215.19 505.59,-219.72 510.5,-224.71"/>
</g>
<!-- Node7 -->
<g id="node7" class="node">
<title>Node7</title>
<g id="a_node7"><a xlink:href="logging_8h.html" target="_top" xlink:title=" ">
<polygon fill="white" stroke="black" points="1153.5,-196 1153.5,-215 1272.5,-215 1272.5,-196 1153.5,-196"/>
<text text-anchor="middle" x="1213" y="-203" font-family="Helvetica,sans-Serif" font-size="10.00">cppgc/internal/logging.h</text>
</a>
</g>
</g>
<!-- Node3&#45;&gt;Node7 -->
<g id="edge6" class="edge">
<title>Node3&#45;&gt;Node7</title>
<path fill="none" stroke="midnightblue" d="M519.89,-269.78C640.64,-265.81 915.91,-253.69 1145,-221 1152.31,-219.96 1160.01,-218.58 1167.5,-217.1"/>
<polygon fill="midnightblue" stroke="midnightblue" points="1168.44,-220.48 1177.52,-215.02 1167.02,-213.62 1168.44,-220.48"/>
</g>
<!-- Node3&#45;&gt;Node10 -->
<g id="edge16" class="edge">
<title>Node3&#45;&gt;Node10</title>
<path fill="none" stroke="midnightblue" d="M459.97,-257.24C463.32,-238.73 471.95,-206.83 493,-190 561.5,-135.25 604.82,-184.59 687,-154 712.57,-144.48 714.79,-133.46 740,-123 790.56,-102.03 852.28,-87.64 891.85,-79.74"/>
<polygon fill="midnightblue" stroke="midnightblue" points="892.76,-83.13 901.91,-77.78 891.42,-76.26 892.76,-83.13"/>
</g>
<!-- Node11 -->
<g id="node11" class="node">
<title>Node11</title>
<g id="a_node11"><a xlink:href="trace-trait_8h.html" target="_top" xlink:title=" ">
<polygon fill="white" stroke="black" points="254.5,-129 254.5,-148 349.5,-148 349.5,-129 254.5,-129"/>
<text text-anchor="middle" x="302" y="-136" font-family="Helvetica,sans-Serif" font-size="10.00">cppgc/trace&#45;trait.h</text>
</a>
</g>
</g>
<!-- Node3&#45;&gt;Node11 -->
<g id="edge11" class="edge">
<title>Node3&#45;&gt;Node11</title>
<path fill="none" stroke="midnightblue" d="M441.31,-257.37C411.7,-232.33 350.28,-180.35 319.87,-154.62"/>
<polygon fill="midnightblue" stroke="midnightblue" points="322.06,-151.88 312.16,-148.1 317.53,-157.23 322.06,-151.88"/>
</g>
<!-- Node7&#45;&gt;Node8 -->
<g id="edge7" class="edge">
<title>Node7&#45;&gt;Node8</title>
<path fill="none" stroke="midnightblue" d="M1236.37,-195.87C1267.09,-184.52 1321.24,-164.52 1356.1,-151.65"/>
<polygon fill="midnightblue" stroke="midnightblue" points="1357.64,-154.81 1365.81,-148.06 1355.22,-148.24 1357.64,-154.81"/>
</g>
<!-- Node7&#45;&gt;Node10 -->
<g id="edge10" class="edge">
<title>Node7&#45;&gt;Node10</title>
<path fill="none" stroke="midnightblue" d="M1201.04,-195.91C1178.34,-179.9 1127.06,-145.11 1080,-123 1044.68,-106.4 1002.36,-92.52 972.04,-83.54"/>
<polygon fill="midnightblue" stroke="midnightblue" points="972.82,-80.12 962.24,-80.68 970.86,-86.84 972.82,-80.12"/>
</g>
<!-- Node9 -->
<g id="node9" class="node">
<title>Node9</title>
<g id="a_node9"><a xlink:title=" ">
<polygon fill="white" stroke="#bfbfbf" points="1323.5,-62 1323.5,-81 1364.5,-81 1364.5,-62 1323.5,-62"/>
<text text-anchor="middle" x="1344" y="-69" font-family="Helvetica,sans-Serif" font-size="10.00">string</text>
</a>
</g>
</g>
<!-- Node8&#45;&gt;Node9 -->
<g id="edge8" class="edge">
<title>Node8&#45;&gt;Node9</title>
<path fill="none" stroke="midnightblue" d="M1382.93,-128.73C1375.98,-118.7 1364.43,-102.01 1355.71,-89.42"/>
<polygon fill="midnightblue" stroke="midnightblue" points="1358.54,-87.36 1349.97,-81.13 1352.79,-91.34 1358.54,-87.36"/>
</g>
<!-- Node8&#45;&gt;Node10 -->
<g id="edge9" class="edge">
<title>Node8&#45;&gt;Node10</title>
<path fill="none" stroke="midnightblue" d="M1347.98,-128.99C1337.27,-126.9 1325.72,-124.76 1315,-123 1190.66,-102.64 1042.57,-84.97 972.54,-77"/>
<polygon fill="midnightblue" stroke="midnightblue" points="972.71,-73.5 962.38,-75.85 971.92,-80.46 972.71,-73.5"/>
</g>
<!-- Node11&#45;&gt;Node2 -->
<g id="edge12" class="edge">
<title>Node11&#45;&gt;Node2</title>
<path fill="none" stroke="midnightblue" d="M311.55,-128.86C331.47,-111.44 379.62,-72.35 428,-56 527.81,-22.28 850.49,-13.62 965.67,-11.58"/>
<polygon fill="midnightblue" stroke="midnightblue" points="965.9,-15.08 975.84,-11.41 965.78,-8.08 965.9,-15.08"/>
</g>
<!-- Node11&#45;&gt;Node10 -->
<g id="edge15" class="edge">
<title>Node11&#45;&gt;Node10</title>
<path fill="none" stroke="midnightblue" d="M349.61,-132.59C469.16,-120.25 780.36,-88.15 891.67,-76.66"/>
<polygon fill="midnightblue" stroke="midnightblue" points="892.22,-80.12 901.81,-75.62 891.5,-73.16 892.22,-80.12"/>
</g>
<!-- Node11&#45;&gt;Node12 -->
<g id="edge13" class="edge">
<title>Node11&#45;&gt;Node12</title>
<path fill="none" stroke="midnightblue" d="M271.99,-128.87C231.69,-117.28 160.01,-96.66 115.41,-83.83"/>
<polygon fill="midnightblue" stroke="midnightblue" points="116.35,-80.46 105.78,-81.06 114.42,-87.19 116.35,-80.46"/>
</g>
<!-- Node12&#45;&gt;Node2 -->
<g id="edge14" class="edge">
<title>Node12&#45;&gt;Node2</title>
<path fill="none" stroke="midnightblue" d="M107.65,-61.95C117.33,-59.65 128.04,-57.41 138,-56 453.75,-11.27 839.65,-9.71 965.32,-10.54"/>
<polygon fill="midnightblue" stroke="midnightblue" points="965.61,-14.04 975.63,-10.62 965.66,-7.04 965.61,-14.04"/>
</g>
<!-- Node13&#45;&gt;Node2 -->
<g id="edge19" class="edge">
<title>Node13&#45;&gt;Node2</title>
<path fill="none" stroke="midnightblue" d="M1354.05,-257.87C1377.09,-250.04 1402.88,-238.23 1422,-221 1456.46,-189.93 1478.13,-164.81 1458,-123 1437.28,-79.97 1418.03,-74.49 1374,-56 1315.97,-31.62 1131.47,-18.19 1048.33,-13.23"/>
<polygon fill="midnightblue" stroke="midnightblue" points="1048.42,-9.73 1038.23,-12.64 1048.01,-16.72 1048.42,-9.73"/>
</g>
<!-- Node13&#45;&gt;Node8 -->
<g id="edge31" class="edge">
<title>Node13&#45;&gt;Node8</title>
<path fill="none" stroke="midnightblue" d="M1308.63,-257.37C1325.27,-232.97 1359.34,-183 1377.31,-156.65"/>
<polygon fill="midnightblue" stroke="midnightblue" points="1380.4,-158.33 1383.14,-148.1 1374.61,-154.39 1380.4,-158.33"/>
</g>
<!-- Node13&#45;&gt;Node10 -->
<g id="edge32" class="edge">
<title>Node13&#45;&gt;Node10</title>
<path fill="none" stroke="midnightblue" d="M1301.38,-257.21C1305.42,-227.52 1309.94,-158.98 1273,-123 1251.7,-102.26 1058.01,-83.29 972.39,-75.84"/>
<polygon fill="midnightblue" stroke="midnightblue" points="972.52,-72.34 962.26,-74.97 971.92,-79.31 972.52,-72.34"/>
</g>
<!-- Node14 -->
<g id="node14" class="node">
<title>Node14</title>
<g id="a_node14"><a xlink:title=" ">
<polygon fill="white" stroke="#bfbfbf" points="1367,-196 1367,-215 1413,-215 1413,-196 1367,-196"/>
<text text-anchor="middle" x="1390" y="-203" font-family="Helvetica,sans-Serif" font-size="10.00">cstdint</text>
</a>
</g>
</g>
<!-- Node13&#45;&gt;Node14 -->
<g id="edge18" class="edge">
<title>Node13&#45;&gt;Node14</title>
<path fill="none" stroke="midnightblue" d="M1318.75,-257.4C1333.86,-246.6 1354.64,-231.76 1369.86,-220.89"/>
<polygon fill="midnightblue" stroke="midnightblue" points="1371.99,-223.67 1378.09,-215.01 1367.92,-217.97 1371.99,-223.67"/>
</g>
<!-- Node15 -->
<g id="node15" class="node">
<title>Node15</title>
<g id="a_node15"><a xlink:href="write-barrier_8h.html" target="_top" xlink:title=" ">
<polygon fill="white" stroke="black" points="1034.5,-190.5 1034.5,-220.5 1135.5,-220.5 1135.5,-190.5 1034.5,-190.5"/>
<text text-anchor="start" x="1042.5" y="-208.5" font-family="Helvetica,sans-Serif" font-size="10.00">cppgc/internal/write</text>
<text text-anchor="middle" x="1085" y="-197.5" font-family="Helvetica,sans-Serif" font-size="10.00">&#45;barrier.h</text>
</a>
</g>
</g>
<!-- Node13&#45;&gt;Node15 -->
<g id="edge20" class="edge">
<title>Node13&#45;&gt;Node15</title>
<path fill="none" stroke="midnightblue" d="M1252.83,-257.48C1220.17,-247.56 1176.2,-234.2 1141.46,-223.65"/>
<polygon fill="midnightblue" stroke="midnightblue" points="1142.04,-220.17 1131.46,-220.61 1140.01,-226.87 1142.04,-220.17"/>
</g>
<!-- Node15&#45;&gt;Node10 -->
<g id="edge30" class="edge">
<title>Node15&#45;&gt;Node10</title>
<path fill="none" stroke="midnightblue" d="M1083.9,-190.28C1081.79,-172.4 1075.67,-141.78 1058,-123 1035.28,-98.84 999.47,-85.98 971.82,-79.3"/>
<polygon fill="midnightblue" stroke="midnightblue" points="972.57,-75.88 962.04,-77.11 971.03,-82.71 972.57,-75.88"/>
</g>
<!-- Node15&#45;&gt;Node11 -->
<g id="edge29" class="edge">
<title>Node15&#45;&gt;Node11</title>
<path fill="none" stroke="midnightblue" d="M1034.23,-200.29C894.9,-188.72 507.19,-156.53 359.84,-144.3"/>
<polygon fill="midnightblue" stroke="midnightblue" points="359.9,-140.79 349.65,-143.46 359.33,-147.77 359.9,-140.79"/>
</g>
<!-- Node16 -->
<g id="node16" class="node">
<title>Node16</title>
<g id="a_node16"><a xlink:href="api-constants_8h.html" target="_top" xlink:title=" ">
<polygon fill="white" stroke="black" points="584.5,-123.5 584.5,-153.5 677.5,-153.5 677.5,-123.5 584.5,-123.5"/>
<text text-anchor="start" x="592.5" y="-141.5" font-family="Helvetica,sans-Serif" font-size="10.00">cppgc/internal/api</text>
<text text-anchor="middle" x="631" y="-130.5" font-family="Helvetica,sans-Serif" font-size="10.00">&#45;constants.h</text>
</a>
</g>
</g>
<!-- Node15&#45;&gt;Node16 -->
<g id="edge21" class="edge">
<title>Node15&#45;&gt;Node16</title>
<path fill="none" stroke="midnightblue" d="M1034.24,-197.23C948.8,-185 776.85,-160.38 687.62,-147.61"/>
<polygon fill="midnightblue" stroke="midnightblue" points="688.08,-144.14 677.68,-146.18 687.08,-151.07 688.08,-144.14"/>
</g>
<!-- Node19 -->
<g id="node19" class="node">
<title>Node19</title>
<g id="a_node19"><a xlink:href="process-heap_8h.html" target="_top" xlink:title=" ">
<polygon fill="white" stroke="black" points="1148.5,-123.5 1148.5,-153.5 1263.5,-153.5 1263.5,-123.5 1148.5,-123.5"/>
<text text-anchor="start" x="1156.5" y="-141.5" font-family="Helvetica,sans-Serif" font-size="10.00">cppgc/internal/process</text>
<text text-anchor="middle" x="1206" y="-130.5" font-family="Helvetica,sans-Serif" font-size="10.00">&#45;heap.h</text>
</a>
</g>
</g>
<!-- Node15&#45;&gt;Node19 -->
<g id="edge25" class="edge">
<title>Node15&#45;&gt;Node19</title>
<path fill="none" stroke="midnightblue" d="M1111.26,-190.4C1128.7,-181.03 1151.8,-168.62 1170.83,-158.39"/>
<polygon fill="midnightblue" stroke="midnightblue" points="1172.64,-161.39 1179.8,-153.58 1169.33,-155.23 1172.64,-161.39"/>
</g>
<!-- Node16&#45;&gt;Node10 -->
<g id="edge24" class="edge">
<title>Node16&#45;&gt;Node10</title>
<path fill="none" stroke="midnightblue" d="M677.6,-126.29C682.46,-125.16 687.33,-124.05 692,-123 762.06,-107.3 843.96,-90.37 891.7,-80.65"/>
<polygon fill="midnightblue" stroke="midnightblue" points="892.53,-84.05 901.64,-78.63 891.14,-77.19 892.53,-84.05"/>
</g>
<!-- Node17 -->
<g id="node17" class="node">
<title>Node17</title>
<g id="a_node17"><a xlink:title=" ">
<polygon fill="white" stroke="#bfbfbf" points="638.5,-62 638.5,-81 689.5,-81 689.5,-62 638.5,-62"/>
<text text-anchor="middle" x="664" y="-69" font-family="Helvetica,sans-Serif" font-size="10.00">stddef.h</text>
</a>
</g>
</g>
<!-- Node16&#45;&gt;Node17 -->
<g id="edge22" class="edge">
<title>Node16&#45;&gt;Node17</title>
<path fill="none" stroke="midnightblue" d="M638.16,-123.4C643.1,-113.66 649.71,-100.65 655.01,-90.21"/>
<polygon fill="midnightblue" stroke="midnightblue" points="658.18,-91.7 659.59,-81.19 651.94,-88.53 658.18,-91.7"/>
</g>
<!-- Node18 -->
<g id="node18" class="node">
<title>Node18</title>
<g id="a_node18"><a xlink:title=" ">
<polygon fill="white" stroke="#bfbfbf" points="572,-62 572,-81 620,-81 620,-62 572,-62"/>
<text text-anchor="middle" x="596" y="-69" font-family="Helvetica,sans-Serif" font-size="10.00">stdint.h</text>
</a>
</g>
</g>
<!-- Node16&#45;&gt;Node18 -->
<g id="edge23" class="edge">
<title>Node16&#45;&gt;Node18</title>
<path fill="none" stroke="midnightblue" d="M623.41,-123.4C618.16,-113.66 611.16,-100.65 605.54,-90.21"/>
<polygon fill="midnightblue" stroke="midnightblue" points="608.5,-88.34 600.68,-81.19 602.34,-91.66 608.5,-88.34"/>
</g>
<!-- Node19&#45;&gt;Node10 -->
<g id="edge28" class="edge">
<title>Node19&#45;&gt;Node10</title>
<path fill="none" stroke="midnightblue" d="M1148.23,-123.79C1095.39,-111.26 1018.59,-93.04 972.16,-82.03"/>
<polygon fill="midnightblue" stroke="midnightblue" points="972.71,-78.56 962.17,-79.66 971.09,-85.37 972.71,-78.56"/>
</g>
<!-- Node20 -->
<g id="node20" class="node">
<title>Node20</title>
<g id="a_node20"><a xlink:href="atomic-entry-flag_8h.html" target="_top" xlink:title=" ">
<polygon fill="white" stroke="black" points="1173,-56.5 1173,-86.5 1283,-86.5 1283,-56.5 1173,-56.5"/>
<text text-anchor="start" x="1181" y="-74.5" font-family="Helvetica,sans-Serif" font-size="10.00">cppgc/internal/atomic</text>
<text text-anchor="middle" x="1228" y="-63.5" font-family="Helvetica,sans-Serif" font-size="10.00">&#45;entry&#45;flag.h</text>
</a>
</g>
</g>
<!-- Node19&#45;&gt;Node20 -->
<g id="edge26" class="edge">
<title>Node19&#45;&gt;Node20</title>
<path fill="none" stroke="midnightblue" d="M1210.77,-123.4C1213.45,-115.47 1216.87,-105.38 1219.95,-96.27"/>
<polygon fill="midnightblue" stroke="midnightblue" points="1223.34,-97.17 1223.24,-86.58 1216.71,-94.93 1223.34,-97.17"/>
</g>
<!-- Node21 -->
<g id="node21" class="node">
<title>Node21</title>
<g id="a_node21"><a xlink:title=" ">
<polygon fill="white" stroke="#bfbfbf" points="1418,-0.5 1418,-19.5 1464,-19.5 1464,-0.5 1418,-0.5"/>
<text text-anchor="middle" x="1441" y="-7.5" font-family="Helvetica,sans-Serif" font-size="10.00">atomic</text>
</a>
</g>
</g>
<!-- Node20&#45;&gt;Node21 -->
<g id="edge27" class="edge">
<title>Node20&#45;&gt;Node21</title>
<path fill="none" stroke="midnightblue" d="M1278.21,-56.47C1318.4,-45.25 1373.59,-29.83 1408.27,-20.14"/>
<polygon fill="midnightblue" stroke="midnightblue" points="1409.22,-23.51 1417.91,-17.45 1407.33,-16.77 1409.22,-23.51"/>
</g>
<!-- Node22&#45;&gt;Node7 -->
<g id="edge60" class="edge">
<title>Node22&#45;&gt;Node7</title>
<path fill="none" stroke="midnightblue" d="M1004.9,-436.31C1025.24,-400.28 1102.31,-264.14 1110,-257 1128.77,-239.56 1154.68,-226.9 1175.82,-218.62"/>
<polygon fill="midnightblue" stroke="midnightblue" points="1177.32,-221.79 1185.45,-215.01 1174.86,-215.24 1177.32,-221.79"/>
</g>
<!-- Node22&#45;&gt;Node8 -->
<g id="edge75" class="edge">
<title>Node22&#45;&gt;Node8</title>
<path fill="none" stroke="midnightblue" d="M1040.02,-445.87C1093.42,-445.36 1189.42,-438.5 1260,-400 1354.2,-348.62 1384.1,-321.38 1422,-221 1426.87,-208.11 1425.93,-203.2 1422,-190 1418.29,-177.52 1410.4,-165.26 1403.27,-155.94"/>
<polygon fill="midnightblue" stroke="midnightblue" points="1405.84,-153.56 1396.82,-148 1400.41,-157.97 1405.84,-153.56"/>
</g>
<!-- Node22&#45;&gt;Node11 -->
<g id="edge76" class="edge">
<title>Node22&#45;&gt;Node11</title>
<path fill="none" stroke="midnightblue" d="M959.63,-440.47C827.94,-424.98 413.48,-370.53 311,-288 275.09,-259.08 266.5,-234.89 277,-190 279.71,-178.41 285.5,-166.42 290.82,-157.04"/>
<polygon fill="midnightblue" stroke="midnightblue" points="293.9,-158.7 296.05,-148.33 287.9,-155.1 293.9,-158.7"/>
</g>
<!-- Node22&#45;&gt;Node12 -->
<g id="edge77" class="edge">
<title>Node22&#45;&gt;Node12</title>
<path fill="none" stroke="midnightblue" d="M959.89,-444.7C777.82,-442.81 38,-429.35 38,-335 38,-335 38,-335 38,-204.5 38,-162.35 56.11,-115.48 67.33,-90.5"/>
<polygon fill="midnightblue" stroke="midnightblue" points="70.61,-91.76 71.64,-81.21 64.26,-88.81 70.61,-91.76"/>
</g>
<!-- Node22&#45;&gt;Node13 -->
<g id="edge61" class="edge">
<title>Node22&#45;&gt;Node13</title>
<path fill="none" stroke="midnightblue" d="M1040.25,-441.82C1100.02,-436.38 1208.49,-423.53 1239,-400 1256.19,-386.74 1278.61,-330.37 1290.59,-297.53"/>
<polygon fill="midnightblue" stroke="midnightblue" points="1294.01,-298.37 1294.09,-287.77 1287.42,-296 1294.01,-298.37"/>
</g>
<!-- Node23 -->
<g id="node23" class="node">
<title>Node23</title>
<g id="a_node23"><a xlink:href="custom-space_8h.html" target="_top" xlink:title=" ">
<polygon fill="white" stroke="black" points="748.5,-196 748.5,-215 863.5,-215 863.5,-196 748.5,-196"/>
<text text-anchor="middle" x="806" y="-203" font-family="Helvetica,sans-Serif" font-size="10.00">cppgc/custom&#45;space.h</text>
</a>
</g>
</g>
<!-- Node22&#45;&gt;Node23 -->
<g id="edge36" class="edge">
<title>Node22&#45;&gt;Node23</title>
<path fill="none" stroke="midnightblue" d="M961.52,-436.47C938.14,-429.72 908.87,-418.31 888,-400 834.32,-352.89 814.79,-264.69 808.57,-225.78"/>
<polygon fill="midnightblue" stroke="midnightblue" points="811.96,-224.77 807.04,-215.39 805.03,-225.79 811.96,-224.77"/>
</g>
<!-- Node24 -->
<g id="node24" class="node">
<title>Node24</title>
<g id="a_node24"><a xlink:href="ephemeron-pair_8h.html" target="_top" xlink:title=" ">
<polygon fill="white" stroke="black" points="1110,-380.5 1110,-399.5 1230,-399.5 1230,-380.5 1110,-380.5"/>
<text text-anchor="middle" x="1170" y="-387.5" font-family="Helvetica,sans-Serif" font-size="10.00">cppgc/ephemeron&#45;pair.h</text>
</a>
</g>
</g>
<!-- Node22&#45;&gt;Node24 -->
<g id="edge38" class="edge">
<title>Node22&#45;&gt;Node24</title>
<path fill="none" stroke="midnightblue" d="M1026.94,-436.44C1055.66,-427.32 1101.33,-412.81 1133.32,-402.65"/>
<polygon fill="midnightblue" stroke="midnightblue" points="1134.72,-405.88 1143.19,-399.52 1132.6,-399.21 1134.72,-405.88"/>
</g>
<!-- Node25 -->
<g id="node25" class="node">
<title>Node25</title>
<g id="a_node25"><a xlink:href="member_8h.html" target="_top" xlink:title=" ">
<polygon fill="white" stroke="black" points="1098.5,-324.5 1098.5,-343.5 1187.5,-343.5 1187.5,-324.5 1098.5,-324.5"/>
<text text-anchor="middle" x="1143" y="-331.5" font-family="Helvetica,sans-Serif" font-size="10.00">cppgc/member.h</text>
</a>
</g>
</g>
<!-- Node22&#45;&gt;Node25 -->
<g id="edge74" class="edge">
<title>Node22&#45;&gt;Node25</title>
<path fill="none" stroke="midnightblue" d="M1011.22,-436.37C1035.55,-417.65 1093.4,-373.15 1123.72,-349.83"/>
<polygon fill="midnightblue" stroke="midnightblue" points="1126.04,-352.46 1131.83,-343.59 1121.77,-346.91 1126.04,-352.46"/>
</g>
<!-- Node27 -->
<g id="node27" class="node">
<title>Node27</title>
<g id="a_node27"><a xlink:href="garbage-collected_8h.html" target="_top" xlink:title=" ">
<polygon fill="white" stroke="black" points="129,-263 129,-282 259,-282 259,-263 129,-263"/>
<text text-anchor="middle" x="194" y="-270" font-family="Helvetica,sans-Serif" font-size="10.00">cppgc/garbage&#45;collected.h</text>
</a>
</g>
</g>
<!-- Node22&#45;&gt;Node27 -->
<g id="edge46" class="edge">
<title>Node22&#45;&gt;Node27</title>
<path fill="none" stroke="midnightblue" d="M959.88,-444.03C881.68,-441.47 703.72,-432.27 558,-400 429.3,-371.5 283.09,-311.93 222.56,-286.01"/>
<polygon fill="midnightblue" stroke="midnightblue" points="223.83,-282.74 213.26,-282 221.06,-289.17 223.83,-282.74"/>
</g>
<!-- Node31 -->
<g id="node31" class="node">
<title>Node31</title>
<g id="a_node31"><a xlink:href="liveness-broker_8h.html" target="_top" xlink:title=" ">
<polygon fill="white" stroke="black" points="896.5,-380.5 896.5,-399.5 1015.5,-399.5 1015.5,-380.5 896.5,-380.5"/>
<text text-anchor="middle" x="956" y="-387.5" font-family="Helvetica,sans-Serif" font-size="10.00">cppgc/liveness&#45;broker.h</text>
</a>
</g>
</g>
<!-- Node22&#45;&gt;Node31 -->
<g id="edge62" class="edge">
<title>Node22&#45;&gt;Node31</title>
<path fill="none" stroke="midnightblue" d="M992.73,-436.08C986.46,-428.38 977.21,-417.03 969.57,-407.65"/>
<polygon fill="midnightblue" stroke="midnightblue" points="972.16,-405.29 963.13,-399.75 966.73,-409.71 972.16,-405.29"/>
</g>
<!-- Node23&#45;&gt;Node17 -->
<g id="edge37" class="edge">
<title>Node23&#45;&gt;Node17</title>
<path fill="none" stroke="midnightblue" d="M796.68,-195.84C773.11,-173.92 710.83,-116.03 680.74,-88.06"/>
<polygon fill="midnightblue" stroke="midnightblue" points="682.87,-85.27 673.17,-81.02 678.11,-90.39 682.87,-85.27"/>
</g>
<!-- Node24&#45;&gt;Node25 -->
<g id="edge39" class="edge">
<title>Node24&#45;&gt;Node25</title>
<path fill="none" stroke="midnightblue" d="M1165.54,-380.08C1161.85,-372.69 1156.48,-361.95 1151.91,-352.81"/>
<polygon fill="midnightblue" stroke="midnightblue" points="1154.98,-351.13 1147.38,-343.75 1148.72,-354.26 1154.98,-351.13"/>
</g>
<!-- Node25&#45;&gt;Node2 -->
<g id="edge42" class="edge">
<title>Node25&#45;&gt;Node2</title>
<path fill="none" stroke="midnightblue" d="M1187.82,-329.79C1233.62,-325.18 1305.92,-314.11 1363,-288 1443.6,-251.13 1505.95,-206.05 1475,-123 1461.24,-86.09 1451.87,-74.3 1417,-56 1353.64,-22.75 1139.36,-13.99 1048.39,-11.75"/>
<polygon fill="midnightblue" stroke="midnightblue" points="1048.26,-8.24 1038.18,-11.51 1048.1,-15.24 1048.26,-8.24"/>
</g>
<!-- Node25&#45;&gt;Node10 -->
<g id="edge45" class="edge">
<title>Node25&#45;&gt;Node10</title>
<path fill="none" stroke="midnightblue" d="M1128.57,-324.43C1102.6,-308.09 1048.59,-269.72 1026,-221 1007.64,-181.41 1043.01,-160.08 1020,-123 1008.95,-105.19 989.16,-93.03 971.15,-85.11"/>
<polygon fill="midnightblue" stroke="midnightblue" points="971.97,-81.67 961.39,-81.14 969.33,-88.15 971.97,-81.67"/>
</g>
<!-- Node25&#45;&gt;Node12 -->
<g id="edge44" class="edge">
<title>Node25&#45;&gt;Node12</title>
<path fill="none" stroke="midnightblue" d="M1098.28,-332.54C906.05,-330.35 157.99,-319.82 120,-288 61.28,-238.81 67.57,-134.38 73.04,-91.49"/>
<polygon fill="midnightblue" stroke="midnightblue" points="76.54,-91.73 74.47,-81.34 69.61,-90.75 76.54,-91.73"/>
</g>
<!-- Node25&#45;&gt;Node13 -->
<g id="edge43" class="edge">
<title>Node25&#45;&gt;Node13</title>
<path fill="none" stroke="midnightblue" d="M1165.35,-324.48C1188.06,-315.81 1223.9,-302.15 1252.75,-291.14"/>
<polygon fill="midnightblue" stroke="midnightblue" points="1254.14,-294.36 1262.23,-287.52 1251.64,-287.82 1254.14,-294.36"/>
</g>
<!-- Node25&#45;&gt;Node21 -->
<g id="edge40" class="edge">
<title>Node25&#45;&gt;Node21</title>
<path fill="none" stroke="midnightblue" d="M1187.73,-332.34C1241.63,-329.99 1333.8,-320.97 1405,-288 1519.93,-234.78 1561.29,-205.11 1607,-87 1611.97,-74.15 1615.37,-66.94 1607,-56 1590.99,-35.08 1518.19,-21.62 1474.49,-15.27"/>
<polygon fill="midnightblue" stroke="midnightblue" points="1474.71,-11.77 1464.32,-13.85 1473.74,-18.7 1474.71,-11.77"/>
</g>
<!-- Node26 -->
<g id="node26" class="node">
<title>Node26</title>
<g id="a_node26"><a xlink:title=" ">
<polygon fill="white" stroke="#bfbfbf" points="1118.5,-263 1118.5,-282 1167.5,-282 1167.5,-263 1118.5,-263"/>
<text text-anchor="middle" x="1143" y="-270" font-family="Helvetica,sans-Serif" font-size="10.00">cstddef</text>
</a>
</g>
</g>
<!-- Node25&#45;&gt;Node26 -->
<g id="edge41" class="edge">
<title>Node25&#45;&gt;Node26</title>
<path fill="none" stroke="midnightblue" d="M1143,-324.48C1143,-316.08 1143,-302.98 1143,-292.16"/>
<polygon fill="midnightblue" stroke="midnightblue" points="1146.5,-292.01 1143,-282.01 1139.5,-292.01 1146.5,-292.01"/>
</g>
<!-- Node27&#45;&gt;Node2 -->
<g id="edge47" class="edge">
<title>Node27&#45;&gt;Node2</title>
<path fill="none" stroke="midnightblue" d="M192.53,-262.64C190.37,-247.34 187.43,-215.19 196,-190 226.99,-98.92 273.75,-83.32 366,-56 479.03,-22.53 842.3,-13.65 965.6,-11.57"/>
<polygon fill="midnightblue" stroke="midnightblue" points="965.82,-15.07 975.76,-11.41 965.71,-8.07 965.82,-15.07"/>
</g>
<!-- Node27&#45;&gt;Node11 -->
<g id="edge58" class="edge">
<title>Node27&#45;&gt;Node11</title>
<path fill="none" stroke="midnightblue" d="M193.97,-262.96C194.34,-247.02 197.18,-212.35 214,-190 227.17,-172.5 248.3,-160.09 266.56,-151.95"/>
<polygon fill="midnightblue" stroke="midnightblue" points="267.92,-155.17 275.79,-148.08 265.21,-148.72 267.92,-155.17"/>
</g>
<!-- Node27&#45;&gt;Node12 -->
<g id="edge59" class="edge">
<title>Node27&#45;&gt;Node12</title>
<path fill="none" stroke="midnightblue" d="M181.39,-262.73C168.95,-253.55 150.11,-238.09 138,-221 108.22,-178.95 89.17,-120.41 80.84,-90.97"/>
<polygon fill="midnightblue" stroke="midnightblue" points="84.19,-89.93 78.18,-81.2 77.44,-91.77 84.19,-89.93"/>
</g>
<!-- Node27&#45;&gt;Node16 -->
<g id="edge48" class="edge">
<title>Node27&#45;&gt;Node16</title>
<path fill="none" stroke="midnightblue" d="M221.54,-262.96C269.8,-248.02 372.82,-216.23 460,-190 498.01,-178.56 540.85,-165.91 574.14,-156.14"/>
<polygon fill="midnightblue" stroke="midnightblue" points="575.54,-159.37 584.15,-153.2 573.57,-152.66 575.54,-159.37"/>
</g>
<!-- Node28 -->
<g id="node28" class="node">
<title>Node28</title>
<g id="a_node28"><a xlink:href="platform_8h.html" target="_top" xlink:title=" ">
<polygon fill="white" stroke="black" points="602.5,-196 602.5,-215 691.5,-215 691.5,-196 602.5,-196"/>
<text text-anchor="middle" x="647" y="-203" font-family="Helvetica,sans-Serif" font-size="10.00">cppgc/platform.h</text>
</a>
</g>
</g>
<!-- Node27&#45;&gt;Node28 -->
<g id="edge49" class="edge">
<title>Node27&#45;&gt;Node28</title>
<path fill="none" stroke="midnightblue" d="M257.3,-262.98C329.42,-253.2 450.78,-236.5 555,-221 567,-219.22 579.86,-217.23 592.05,-215.32"/>
<polygon fill="midnightblue" stroke="midnightblue" points="592.77,-218.75 602.1,-213.74 591.68,-211.84 592.77,-218.75"/>
</g>
<!-- Node28&#45;&gt;Node10 -->
<g id="edge57" class="edge">
<title>Node28&#45;&gt;Node10</title>
<path fill="none" stroke="midnightblue" d="M662.56,-195.91C690.76,-180.49 752.37,-147.43 806,-123 837.05,-108.86 873.28,-94.56 898.9,-84.8"/>
<polygon fill="midnightblue" stroke="midnightblue" points="900.39,-87.98 908.5,-81.17 897.91,-81.44 900.39,-87.98"/>
</g>
<!-- Node29 -->
<g id="node29" class="node">
<title>Node29</title>
<g id="a_node29"><a xlink:href="v8-platform_8h.html" target="_top" xlink:title=" ">
<polygon fill="white" stroke="black" points="493.5,-129 493.5,-148 566.5,-148 566.5,-129 493.5,-129"/>
<text text-anchor="middle" x="530" y="-136" font-family="Helvetica,sans-Serif" font-size="10.00">v8&#45;platform.h</text>
</a>
</g>
</g>
<!-- Node28&#45;&gt;Node29 -->
<g id="edge50" class="edge">
<title>Node28&#45;&gt;Node29</title>
<path fill="none" stroke="midnightblue" d="M631.22,-195.73C611.49,-184.77 577.49,-165.88 554.39,-153.05"/>
<polygon fill="midnightblue" stroke="midnightblue" points="555.97,-149.92 545.53,-148.13 552.57,-156.04 555.97,-149.92"/>
</g>
<!-- Node29&#45;&gt;Node5 -->
<g id="edge54" class="edge">
<title>Node29&#45;&gt;Node5</title>
<path fill="none" stroke="midnightblue" d="M520.96,-128.73C510.32,-118.4 492.42,-101.04 479.32,-88.33"/>
<polygon fill="midnightblue" stroke="midnightblue" points="481.51,-85.58 471.89,-81.13 476.63,-90.6 481.51,-85.58"/>
</g>
<!-- Node29&#45;&gt;Node9 -->
<g id="edge55" class="edge">
<title>Node29&#45;&gt;Node9</title>
<path fill="none" stroke="midnightblue" d="M553.11,-128.95C560.34,-126.62 568.42,-124.36 576,-123 889.6,-66.65 977.5,-138.1 1292,-87 1299.09,-85.85 1306.59,-84.09 1313.62,-82.19"/>
<polygon fill="midnightblue" stroke="midnightblue" points="1314.84,-85.48 1323.49,-79.35 1312.91,-78.75 1314.84,-85.48"/>
</g>
<!-- Node29&#45;&gt;Node10 -->
<g id="edge56" class="edge">
<title>Node29&#45;&gt;Node10</title>
<path fill="none" stroke="midnightblue" d="M554.62,-128.92C561.48,-126.75 568.98,-124.59 576,-123 688.97,-97.37 825.22,-82.36 891.64,-76.04"/>
<polygon fill="midnightblue" stroke="midnightblue" points="892.06,-79.52 901.69,-75.1 891.41,-72.55 892.06,-79.52"/>
</g>
<!-- Node29&#45;&gt;Node17 -->
<g id="edge51" class="edge">
<title>Node29&#45;&gt;Node17</title>
<path fill="none" stroke="midnightblue" d="M547.79,-128.87C570.62,-117.8 610.43,-98.49 637,-85.6"/>
<polygon fill="midnightblue" stroke="midnightblue" points="638.66,-88.68 646.13,-81.17 635.61,-82.38 638.66,-88.68"/>
</g>
<!-- Node29&#45;&gt;Node18 -->
<g id="edge52" class="edge">
<title>Node29&#45;&gt;Node18</title>
<path fill="none" stroke="midnightblue" d="M538.9,-128.73C549.39,-118.4 567.02,-101.04 579.92,-88.33"/>
<polygon fill="midnightblue" stroke="midnightblue" points="582.57,-90.64 587.24,-81.13 577.66,-85.65 582.57,-90.64"/>
</g>
<!-- Node30 -->
<g id="node30" class="node">
<title>Node30</title>
<g id="a_node30"><a xlink:title=" ">
<polygon fill="white" stroke="#bfbfbf" points="506.5,-62 506.5,-81 553.5,-81 553.5,-62 506.5,-62"/>
<text text-anchor="middle" x="530" y="-69" font-family="Helvetica,sans-Serif" font-size="10.00">stdlib.h</text>
</a>
</g>
</g>
<!-- Node29&#45;&gt;Node30 -->
<g id="edge53" class="edge">
<title>Node29&#45;&gt;Node30</title>
<path fill="none" stroke="midnightblue" d="M530,-128.73C530,-119.18 530,-103.62 530,-91.28"/>
<polygon fill="midnightblue" stroke="midnightblue" points="533.5,-91.13 530,-81.13 526.5,-91.13 533.5,-91.13"/>
</g>
<!-- Node31&#45;&gt;Node10 -->
<g id="edge73" class="edge">
<title>Node31&#45;&gt;Node10</title>
<path fill="none" stroke="midnightblue" d="M960.11,-380.25C975.68,-345.78 1028.15,-216.64 987,-123 980.45,-108.1 967.1,-95.67 955.19,-86.87"/>
<polygon fill="midnightblue" stroke="midnightblue" points="957.11,-83.94 946.9,-81.12 953.12,-89.69 957.11,-83.94"/>
</g>
<!-- Node31&#45;&gt;Node11 -->
<g id="edge72" class="edge">
<title>Node31&#45;&gt;Node11</title>
<path fill="none" stroke="midnightblue" d="M896.31,-381.51C769.93,-365.15 479.41,-324.74 387,-288 336.6,-267.96 310.76,-268.73 285,-221 274.1,-200.8 283.27,-174.29 291.8,-157.08"/>
<polygon fill="midnightblue" stroke="midnightblue" points="294.95,-158.61 296.59,-148.14 288.78,-155.3 294.95,-158.61"/>
</g>
<!-- Node31&#45;&gt;Node25 -->
<g id="edge71" class="edge">
<title>Node31&#45;&gt;Node25</title>
<path fill="none" stroke="midnightblue" d="M985.63,-380.44C1017.5,-371.24 1068.33,-356.56 1103.56,-346.39"/>
<polygon fill="midnightblue" stroke="midnightblue" points="1104.87,-349.65 1113.51,-343.52 1102.93,-342.93 1104.87,-349.65"/>
</g>
<!-- Node32 -->
<g id="node32" class="node">
<title>Node32</title>
<g id="a_node32"><a xlink:href="heap_8h.html" target="_top" xlink:title=" ">
<polygon fill="white" stroke="black" points="834,-263 834,-282 908,-282 908,-263 834,-263"/>
<text text-anchor="middle" x="871" y="-270" font-family="Helvetica,sans-Serif" font-size="10.00">cppgc/heap.h</text>
</a>
</g>
</g>
<!-- Node31&#45;&gt;Node32 -->
<g id="edge63" class="edge">
<title>Node31&#45;&gt;Node32</title>
<path fill="none" stroke="midnightblue" d="M949.61,-380.32C935.58,-361.26 901.87,-315.45 883.48,-290.46"/>
<polygon fill="midnightblue" stroke="midnightblue" points="886.21,-288.26 877.46,-282.28 880.57,-292.41 886.21,-288.26"/>
</g>
<!-- Node32&#45;&gt;Node5 -->
<g id="edge64" class="edge">
<title>Node32&#45;&gt;Node5</title>
<path fill="none" stroke="midnightblue" d="M833.9,-270.43C779.1,-267.61 674.35,-257.46 594,-221 573.84,-211.85 573.64,-201.96 555,-190 525.22,-170.89 506.16,-181.58 484,-154 469.52,-135.97 464.92,-109.09 463.51,-91.19"/>
<polygon fill="midnightblue" stroke="midnightblue" points="467,-90.94 462.99,-81.13 460.01,-91.3 467,-90.94"/>
</g>
<!-- Node32&#45;&gt;Node6 -->
<g id="edge65" class="edge">
<title>Node32&#45;&gt;Node6</title>
<path fill="none" stroke="midnightblue" d="M833.56,-268.13C774.55,-262.22 656.69,-247.96 560,-221 557.56,-220.32 555.06,-219.53 552.56,-218.67"/>
<polygon fill="midnightblue" stroke="midnightblue" points="553.75,-215.37 543.16,-215.13 551.29,-221.92 553.75,-215.37"/>
</g>
<!-- Node32&#45;&gt;Node10 -->
<g id="edge70" class="edge">
<title>Node32&#45;&gt;Node10</title>
<path fill="none" stroke="midnightblue" d="M871.37,-262.76C872.7,-231.16 877.26,-124.6 878,-123 884.7,-108.52 897.62,-96.19 909.15,-87.34"/>
<polygon fill="midnightblue" stroke="midnightblue" points="911.5,-89.96 917.56,-81.28 907.41,-84.28 911.5,-89.96"/>
</g>
<!-- Node32&#45;&gt;Node23 -->
<g id="edge68" class="edge">
<title>Node32&#45;&gt;Node23</title>
<path fill="none" stroke="midnightblue" d="M862.23,-262.73C851.9,-252.4 834.54,-235.04 821.83,-222.33"/>
<polygon fill="midnightblue" stroke="midnightblue" points="824.17,-219.72 814.63,-215.13 819.22,-224.67 824.17,-219.72"/>
</g>
<!-- Node32&#45;&gt;Node28 -->
<g id="edge69" class="edge">
<title>Node32&#45;&gt;Node28</title>
<path fill="none" stroke="midnightblue" d="M841.25,-262.87C801.4,-251.3 730.57,-230.75 686.34,-217.91"/>
<polygon fill="midnightblue" stroke="midnightblue" points="687.09,-214.49 676.51,-215.06 685.14,-221.21 687.09,-214.49"/>
</g>
<!-- Node33 -->
<g id="node33" class="node">
<title>Node33</title>
<g id="a_node33"><a xlink:href="common_8h.html" target="_top" xlink:title=" ">
<polygon fill="white" stroke="black" points="886.5,-129 886.5,-148 977.5,-148 977.5,-129 886.5,-129"/>
<text text-anchor="middle" x="932" y="-136" font-family="Helvetica,sans-Serif" font-size="10.00">cppgc/common.h</text>
</a>
</g>
</g>
<!-- Node32&#45;&gt;Node33 -->
<g id="edge66" class="edge">
<title>Node32&#45;&gt;Node33</title>
<path fill="none" stroke="midnightblue" d="M878.32,-262.7C886.08,-253.01 898.27,-236.7 906,-221 916.12,-200.45 923.48,-175.08 927.74,-158.16"/>
<polygon fill="midnightblue" stroke="midnightblue" points="931.15,-158.93 930.08,-148.39 924.34,-157.3 931.15,-158.93"/>
</g>
<!-- Node33&#45;&gt;Node10 -->
<g id="edge67" class="edge">
<title>Node33&#45;&gt;Node10</title>
<path fill="none" stroke="midnightblue" d="M932,-128.73C932,-119.18 932,-103.62 932,-91.28"/>
<polygon fill="midnightblue" stroke="midnightblue" points="935.5,-91.13 932,-81.13 928.5,-91.13 935.5,-91.13"/>
</g>
</g>
</svg>
