<?xml version="1.0" encoding="UTF-8" standalone="no"?>
<!DOCTYPE svg PUBLIC "-//W3C//DTD SVG 1.1//EN"
 "http://www.w3.org/Graphics/SVG/1.1/DTD/svg11.dtd">
<!-- Generated by graphviz version 2.44.0 ()
 -->
<!-- Title: include/cppgc/platform.h Pages: 1 -->
<svg width="625pt" height="352pt"
 viewBox="0.00 0.00 625.00 352.00" xmlns="http://www.w3.org/2000/svg" xmlns:xlink="http://www.w3.org/1999/xlink">
<g id="graph0" class="graph" transform="scale(1 1) rotate(0) translate(4 348)">
<title>include/cppgc/platform.h</title>
<polygon fill="white" stroke="transparent" points="-4,4 -4,-348 621,-348 621,4 -4,4"/>
<!-- Node1 -->
<g id="node1" class="node">
<title>Node1</title>
<g id="a_node1"><a xlink:title=" ">
<polygon fill="#bfbfbf" stroke="black" points="297,-324.5 297,-343.5 419,-343.5 419,-324.5 297,-324.5"/>
<text text-anchor="middle" x="358" y="-331.5" font-family="Helvetica,sans-Serif" font-size="10.00">include/cppgc/platform.h</text>
</a>
</g>
</g>
<!-- Node2 -->
<g id="node2" class="node">
<title>Node2</title>
<g id="a_node2"><a xlink:href="garbage-collected_8h.html" target="_top" xlink:title=" ">
<polygon fill="white" stroke="black" points="109,-257.5 109,-287.5 223,-287.5 223,-257.5 109,-257.5"/>
<text text-anchor="start" x="117" y="-275.5" font-family="Helvetica,sans-Serif" font-size="10.00">include/cppgc/garbage</text>
<text text-anchor="middle" x="166" y="-264.5" font-family="Helvetica,sans-Serif" font-size="10.00">&#45;collected.h</text>
</a>
</g>
</g>
<!-- Node1&#45;&gt;Node2 -->
<g id="edge1" class="edge">
<title>Node1&#45;&gt;Node2</title>
<path fill="none" stroke="midnightblue" d="M320.84,-321.48C289.53,-311.78 244.64,-297.87 211.25,-287.52"/>
<polygon fill="midnightblue" stroke="midnightblue" points="319.9,-324.86 330.49,-324.48 321.98,-318.17 319.9,-324.86"/>
</g>
<!-- Node8 -->
<g id="node8" class="node">
<title>Node8</title>
<g id="a_node8"><a xlink:href="heap_8h.html" target="_top" xlink:title=" ">
<polygon fill="white" stroke="black" points="241,-263 241,-282 349,-282 349,-263 241,-263"/>
<text text-anchor="middle" x="295" y="-270" font-family="Helvetica,sans-Serif" font-size="10.00">include/cppgc/heap.h</text>
</a>
</g>
</g>
<!-- Node1&#45;&gt;Node8 -->
<g id="edge8" class="edge">
<title>Node1&#45;&gt;Node8</title>
<path fill="none" stroke="midnightblue" d="M341.4,-317.32C329.43,-306.02 313.73,-291.19 304.01,-282.01"/>
<polygon fill="midnightblue" stroke="midnightblue" points="339.3,-320.15 348.97,-324.48 344.11,-315.06 339.3,-320.15"/>
</g>
<!-- Node12 -->
<g id="node12" class="node">
<title>Node12</title>
<g id="a_node12"><a xlink:href="default-platform_8h.html" target="_top" xlink:title=" ">
<polygon fill="white" stroke="black" points="367.5,-257.5 367.5,-287.5 476.5,-287.5 476.5,-257.5 367.5,-257.5"/>
<text text-anchor="start" x="375.5" y="-275.5" font-family="Helvetica,sans-Serif" font-size="10.00">include/cppgc/default</text>
<text text-anchor="middle" x="422" y="-264.5" font-family="Helvetica,sans-Serif" font-size="10.00">&#45;platform.h</text>
</a>
</g>
</g>
<!-- Node1&#45;&gt;Node12 -->
<g id="edge15" class="edge">
<title>Node1&#45;&gt;Node12</title>
<path fill="none" stroke="midnightblue" d="M374.52,-317.65C384.52,-308.35 397.18,-296.57 406.92,-287.52"/>
<polygon fill="midnightblue" stroke="midnightblue" points="372.11,-315.1 367.17,-324.48 376.88,-320.23 372.11,-315.1"/>
</g>
<!-- Node13 -->
<g id="node13" class="node">
<title>Node13</title>
<g id="a_node13"><a xlink:href="caged-heap-local-data_8h.html" target="_top" xlink:title=" ">
<polygon fill="white" stroke="black" points="495,-257.5 495,-287.5 617,-287.5 617,-257.5 495,-257.5"/>
<text text-anchor="start" x="503" y="-275.5" font-family="Helvetica,sans-Serif" font-size="10.00">include/cppgc/internal</text>
<text text-anchor="middle" x="556" y="-264.5" font-family="Helvetica,sans-Serif" font-size="10.00">/caged&#45;heap&#45;local&#45;data.h</text>
</a>
</g>
</g>
<!-- Node1&#45;&gt;Node13 -->
<g id="edge16" class="edge">
<title>Node1&#45;&gt;Node13</title>
<path fill="none" stroke="midnightblue" d="M396.32,-321.48C428.61,-311.78 474.9,-297.87 509.34,-287.52"/>
<polygon fill="midnightblue" stroke="midnightblue" points="394.94,-318.25 386.37,-324.48 396.95,-324.95 394.94,-318.25"/>
</g>
<!-- Node3 -->
<g id="node3" class="node">
<title>Node3</title>
<g id="a_node3"><a xlink:href="allocation_8h.html" target="_top" xlink:title=" ">
<polygon fill="white" stroke="black" points="22,-196 22,-215 150,-215 150,-196 22,-196"/>
<text text-anchor="middle" x="86" y="-203" font-family="Helvetica,sans-Serif" font-size="10.00">include/cppgc/allocation.h</text>
</a>
</g>
</g>
<!-- Node2&#45;&gt;Node3 -->
<g id="edge2" class="edge">
<title>Node2&#45;&gt;Node3</title>
<path fill="none" stroke="midnightblue" d="M140.78,-251.01C125.93,-238.94 107.91,-224.3 96.7,-215.19"/>
<polygon fill="midnightblue" stroke="midnightblue" points="138.67,-253.81 148.64,-257.4 143.09,-248.37 138.67,-253.81"/>
</g>
<!-- Node4 -->
<g id="node4" class="node">
<title>Node4</title>
<g id="a_node4"><a xlink:href="visitor_8h.html" target="_top" xlink:title=" ">
<polygon fill="white" stroke="black" points="121.5,-129 121.5,-148 234.5,-148 234.5,-129 121.5,-129"/>
<text text-anchor="middle" x="178" y="-136" font-family="Helvetica,sans-Serif" font-size="10.00">include/cppgc/visitor.h</text>
</a>
</g>
</g>
<!-- Node2&#45;&gt;Node4 -->
<g id="edge3" class="edge">
<title>Node2&#45;&gt;Node4</title>
<path fill="none" stroke="midnightblue" d="M168.2,-247.32C170.92,-217.38 175.42,-167.91 177.22,-148.1"/>
<polygon fill="midnightblue" stroke="midnightblue" points="164.7,-247.1 167.28,-257.37 171.68,-247.73 164.7,-247.1"/>
</g>
<!-- Node5 -->
<g id="node5" class="node">
<title>Node5</title>
<g id="a_node5"><a xlink:href="persistent_8h.html" target="_top" xlink:title=" ">
<polygon fill="white" stroke="black" points="0,-67.5 0,-86.5 130,-86.5 130,-67.5 0,-67.5"/>
<text text-anchor="middle" x="65" y="-74.5" font-family="Helvetica,sans-Serif" font-size="10.00">include/cppgc/persistent.h</text>
</a>
</g>
</g>
<!-- Node4&#45;&gt;Node5 -->
<g id="edge4" class="edge">
<title>Node4&#45;&gt;Node5</title>
<path fill="none" stroke="midnightblue" d="M152.76,-124.21C130.88,-112.69 99.86,-96.36 81.16,-86.51"/>
<polygon fill="midnightblue" stroke="midnightblue" points="151.33,-127.41 161.81,-128.98 154.59,-121.22 151.33,-127.41"/>
</g>
<!-- Node6 -->
<g id="node6" class="node">
<title>Node6</title>
<g id="a_node6"><a xlink:href="cross-thread-persistent_8h.html" target="_top" xlink:title=" ">
<polygon fill="white" stroke="black" points="59,-0.5 59,-30.5 163,-30.5 163,-0.5 59,-0.5"/>
<text text-anchor="start" x="67" y="-18.5" font-family="Helvetica,sans-Serif" font-size="10.00">include/cppgc/cross</text>
<text text-anchor="middle" x="111" y="-7.5" font-family="Helvetica,sans-Serif" font-size="10.00">&#45;thread&#45;persistent.h</text>
</a>
</g>
</g>
<!-- Node4&#45;&gt;Node6 -->
<g id="edge6" class="edge">
<title>Node4&#45;&gt;Node6</title>
<path fill="none" stroke="midnightblue" d="M168.14,-119.66C160.26,-105.41 148.92,-84.92 139,-67 132.2,-54.72 124.46,-40.77 118.85,-30.65"/>
<polygon fill="midnightblue" stroke="midnightblue" points="165.3,-121.76 173.2,-128.82 171.42,-118.37 165.3,-121.76"/>
</g>
<!-- Node7 -->
<g id="node7" class="node">
<title>Node7</title>
<g id="a_node7"><a xlink:href="v8-cppgc_8h.html" target="_top" xlink:title=" ">
<polygon fill="white" stroke="black" points="186,-67.5 186,-86.5 284,-86.5 284,-67.5 186,-67.5"/>
<text text-anchor="middle" x="235" y="-74.5" font-family="Helvetica,sans-Serif" font-size="10.00">include/v8&#45;cppgc.h</text>
</a>
</g>
</g>
<!-- Node4&#45;&gt;Node7 -->
<g id="edge7" class="edge">
<title>Node4&#45;&gt;Node7</title>
<path fill="none" stroke="midnightblue" d="M193.33,-121.5C204.12,-110.24 218.14,-95.6 226.85,-86.51"/>
<polygon fill="midnightblue" stroke="midnightblue" points="190.56,-119.33 186.17,-128.98 195.61,-124.18 190.56,-119.33"/>
</g>
<!-- Node5&#45;&gt;Node6 -->
<g id="edge5" class="edge">
<title>Node5&#45;&gt;Node6</title>
<path fill="none" stroke="midnightblue" d="M77.73,-59.53C84.78,-50.42 93.44,-39.21 100.16,-30.52"/>
<polygon fill="midnightblue" stroke="midnightblue" points="74.94,-57.42 71.59,-67.48 80.48,-61.7 74.94,-57.42"/>
</g>
<!-- Node9 -->
<g id="node9" class="node">
<title>Node9</title>
<g id="a_node9"><a xlink:href="liveness-broker_8h.html" target="_top" xlink:title=" ">
<polygon fill="white" stroke="black" points="226,-190.5 226,-220.5 342,-220.5 342,-190.5 226,-190.5"/>
<text text-anchor="start" x="234" y="-208.5" font-family="Helvetica,sans-Serif" font-size="10.00">include/cppgc/liveness</text>
<text text-anchor="middle" x="284" y="-197.5" font-family="Helvetica,sans-Serif" font-size="10.00">&#45;broker.h</text>
</a>
</g>
</g>
<!-- Node8&#45;&gt;Node9 -->
<g id="edge9" class="edge">
<title>Node8&#45;&gt;Node9</title>
<path fill="none" stroke="midnightblue" d="M291.82,-252.74C290.09,-242.49 287.98,-230 286.38,-220.59"/>
<polygon fill="midnightblue" stroke="midnightblue" points="288.4,-253.46 293.52,-262.73 295.3,-252.29 288.4,-253.46"/>
</g>
<!-- Node10 -->
<g id="node10" class="node">
<title>Node10</title>
<g id="a_node10"><a xlink:href="prefinalizer-handler_8h.html" target="_top" xlink:title=" ">
<polygon fill="white" stroke="black" points="313.5,-123.5 313.5,-153.5 424.5,-153.5 424.5,-123.5 313.5,-123.5"/>
<text text-anchor="start" x="321.5" y="-141.5" font-family="Helvetica,sans-Serif" font-size="10.00">include/cppgc/internal</text>
<text text-anchor="middle" x="369" y="-130.5" font-family="Helvetica,sans-Serif" font-size="10.00">/prefinalizer&#45;handler.h</text>
</a>
</g>
</g>
<!-- Node8&#45;&gt;Node10 -->
<g id="edge14" class="edge">
<title>Node8&#45;&gt;Node10</title>
<path fill="none" stroke="midnightblue" d="M316.92,-256.93C328.76,-247.94 342.63,-235.38 351,-221 363.39,-199.71 367.26,-170.76 368.47,-153.71"/>
<polygon fill="midnightblue" stroke="midnightblue" points="314.82,-254.13 308.76,-262.82 318.92,-259.8 314.82,-254.13"/>
</g>
<!-- Node9&#45;&gt;Node4 -->
<g id="edge10" class="edge">
<title>Node9&#45;&gt;Node4</title>
<path fill="none" stroke="midnightblue" d="M252.43,-185.14C232.28,-172.79 207.17,-157.39 191.87,-148.01"/>
<polygon fill="midnightblue" stroke="midnightblue" points="250.65,-188.15 261,-190.4 254.3,-182.18 250.65,-188.15"/>
</g>
<!-- Node9&#45;&gt;Node10 -->
<g id="edge11" class="edge">
<title>Node9&#45;&gt;Node10</title>
<path fill="none" stroke="midnightblue" d="M310.59,-184.17C323.59,-174.23 338.9,-162.51 350.59,-153.58"/>
<polygon fill="midnightblue" stroke="midnightblue" points="308.26,-181.54 302.44,-190.4 312.51,-187.1 308.26,-181.54"/>
</g>
<!-- Node11 -->
<g id="node11" class="node">
<title>Node11</title>
<g id="a_node11"><a xlink:href="prefinalizer_8h.html" target="_top" xlink:title=" ">
<polygon fill="white" stroke="black" points="302.5,-67.5 302.5,-86.5 435.5,-86.5 435.5,-67.5 302.5,-67.5"/>
<text text-anchor="middle" x="369" y="-74.5" font-family="Helvetica,sans-Serif" font-size="10.00">include/cppgc/prefinalizer.h</text>
</a>
</g>
</g>
<!-- Node9&#45;&gt;Node11 -->
<g id="edge13" class="edge">
<title>Node9&#45;&gt;Node11</title>
<path fill="none" stroke="midnightblue" d="M285.85,-179.93C288.15,-162.71 293.34,-139.86 305,-123 316.36,-106.58 335.77,-94.18 350.25,-86.6"/>
<polygon fill="midnightblue" stroke="midnightblue" points="282.32,-179.99 284.71,-190.31 289.28,-180.75 282.32,-179.99"/>
</g>
<!-- Node10&#45;&gt;Node11 -->
<g id="edge12" class="edge">
<title>Node10&#45;&gt;Node11</title>
<path fill="none" stroke="midnightblue" d="M369,-113.29C369,-103.86 369,-93.65 369,-86.66"/>
<polygon fill="midnightblue" stroke="midnightblue" points="365.5,-113.4 369,-123.4 372.5,-113.4 365.5,-113.4"/>
</g>
</g>
</svg>
