<?xml version="1.0" encoding="UTF-8" standalone="no"?>
<!DOCTYPE svg PUBLIC "-//W3C//DTD SVG 1.1//EN"
 "http://www.w3.org/Graphics/SVG/1.1/DTD/svg11.dtd">
<!-- Generated by graphviz version 2.44.0 ()
 -->
<!-- Title: include/cppgc/internal/pointer&#45;policies.h Pages: 1 -->
<svg width="625pt" height="296pt"
 viewBox="0.00 0.00 624.50 296.00" xmlns="http://www.w3.org/2000/svg" xmlns:xlink="http://www.w3.org/1999/xlink">
<g id="graph0" class="graph" transform="scale(1 1) rotate(0) translate(4 292)">
<title>include/cppgc/internal/pointer&#45;policies.h</title>
<polygon fill="white" stroke="transparent" points="-4,4 -4,-292 620.5,-292 620.5,4 -4,4"/>
<!-- Node1 -->
<g id="node1" class="node">
<title>Node1</title>
<g id="a_node1"><a xlink:title=" ">
<polygon fill="#bfbfbf" stroke="black" points="238.5,-257.5 238.5,-287.5 349.5,-287.5 349.5,-257.5 238.5,-257.5"/>
<text text-anchor="start" x="246.5" y="-275.5" font-family="Helvetica,sans-Serif" font-size="10.00">include/cppgc/internal</text>
<text text-anchor="middle" x="294" y="-264.5" font-family="Helvetica,sans-Serif" font-size="10.00">/pointer&#45;policies.h</text>
</a>
</g>
</g>
<!-- Node2 -->
<g id="node2" class="node">
<title>Node2</title>
<g id="a_node2"><a xlink:title=" ">
<polygon fill="white" stroke="#bfbfbf" points="0,-196 0,-215 46,-215 46,-196 0,-196"/>
<text text-anchor="middle" x="23" y="-203" font-family="Helvetica,sans-Serif" font-size="10.00">cstdint</text>
</a>
</g>
</g>
<!-- Node1&#45;&gt;Node2 -->
<g id="edge1" class="edge">
<title>Node1&#45;&gt;Node2</title>
<path fill="none" stroke="midnightblue" d="M238.04,-262.04C190.23,-253.34 119.88,-239.07 60,-221 57.57,-220.27 55.08,-219.45 52.59,-218.58"/>
<polygon fill="midnightblue" stroke="midnightblue" points="53.74,-215.27 43.15,-215.07 51.31,-221.83 53.74,-215.27"/>
</g>
<!-- Node3 -->
<g id="node3" class="node">
<title>Node3</title>
<g id="a_node3"><a xlink:title=" ">
<polygon fill="white" stroke="#bfbfbf" points="423,-0.5 423,-19.5 485,-19.5 485,-0.5 423,-0.5"/>
<text text-anchor="middle" x="454" y="-7.5" font-family="Helvetica,sans-Serif" font-size="10.00">type_traits</text>
</a>
</g>
</g>
<!-- Node1&#45;&gt;Node3 -->
<g id="edge2" class="edge">
<title>Node1&#45;&gt;Node3</title>
<path fill="none" stroke="midnightblue" d="M243.04,-257.35C195.13,-241.06 126.12,-209.16 94,-154 72.08,-116.36 64.17,-88.65 93,-56 103.5,-44.11 320.07,-23.15 412.63,-14.69"/>
<polygon fill="midnightblue" stroke="midnightblue" points="413.12,-18.16 422.76,-13.77 412.49,-11.19 413.12,-18.16"/>
</g>
<!-- Node4 -->
<g id="node4" class="node">
<title>Node4</title>
<g id="a_node4"><a xlink:href="write-barrier_8h.html" target="_top" xlink:title=" ">
<polygon fill="white" stroke="black" points="243.5,-190.5 243.5,-220.5 344.5,-220.5 344.5,-190.5 243.5,-190.5"/>
<text text-anchor="start" x="251.5" y="-208.5" font-family="Helvetica,sans-Serif" font-size="10.00">cppgc/internal/write</text>
<text text-anchor="middle" x="294" y="-197.5" font-family="Helvetica,sans-Serif" font-size="10.00">&#45;barrier.h</text>
</a>
</g>
</g>
<!-- Node1&#45;&gt;Node4 -->
<g id="edge3" class="edge">
<title>Node1&#45;&gt;Node4</title>
<path fill="none" stroke="midnightblue" d="M294,-257.4C294,-249.64 294,-239.81 294,-230.86"/>
<polygon fill="midnightblue" stroke="midnightblue" points="297.5,-230.58 294,-220.58 290.5,-230.58 297.5,-230.58"/>
</g>
<!-- Node8 -->
<g id="node8" class="node">
<title>Node8</title>
<g id="a_node8"><a xlink:href="v8config_8h.html" target="_top" xlink:title=" ">
<polygon fill="white" stroke="black" points="366,-62 366,-81 426,-81 426,-62 366,-62"/>
<text text-anchor="middle" x="396" y="-69" font-family="Helvetica,sans-Serif" font-size="10.00">v8config.h</text>
</a>
</g>
</g>
<!-- Node1&#45;&gt;Node8 -->
<g id="edge21" class="edge">
<title>Node1&#45;&gt;Node8</title>
<path fill="none" stroke="midnightblue" d="M316.2,-257.34C328.67,-248.33 343.58,-235.62 353,-221 379.69,-179.57 390.22,-121.17 394.03,-91.46"/>
<polygon fill="midnightblue" stroke="midnightblue" points="397.54,-91.59 395.22,-81.25 390.59,-90.78 397.54,-91.59"/>
</g>
<!-- Node14 -->
<g id="node14" class="node">
<title>Node14</title>
<g id="a_node14"><a xlink:href="source-location_8h.html" target="_top" xlink:title=" ">
<polygon fill="white" stroke="black" points="424.5,-196 424.5,-215 543.5,-215 543.5,-196 424.5,-196"/>
<text text-anchor="middle" x="484" y="-203" font-family="Helvetica,sans-Serif" font-size="10.00">cppgc/source&#45;location.h</text>
</a>
</g>
</g>
<!-- Node1&#45;&gt;Node14 -->
<g id="edge18" class="edge">
<title>Node1&#45;&gt;Node14</title>
<path fill="none" stroke="midnightblue" d="M335.23,-257.4C369.3,-245.74 417.14,-229.37 449.29,-218.38"/>
<polygon fill="midnightblue" stroke="midnightblue" points="450.8,-221.56 459.13,-215.01 448.54,-214.93 450.8,-221.56"/>
</g>
<!-- Node5 -->
<g id="node5" class="node">
<title>Node5</title>
<g id="a_node5"><a xlink:href="api-constants_8h.html" target="_top" xlink:title=" ">
<polygon fill="white" stroke="black" points="103.5,-123.5 103.5,-153.5 196.5,-153.5 196.5,-123.5 103.5,-123.5"/>
<text text-anchor="start" x="111.5" y="-141.5" font-family="Helvetica,sans-Serif" font-size="10.00">cppgc/internal/api</text>
<text text-anchor="middle" x="150" y="-130.5" font-family="Helvetica,sans-Serif" font-size="10.00">&#45;constants.h</text>
</a>
</g>
</g>
<!-- Node4&#45;&gt;Node5 -->
<g id="edge4" class="edge">
<title>Node4&#45;&gt;Node5</title>
<path fill="none" stroke="midnightblue" d="M262.75,-190.4C241.53,-180.81 213.25,-168.05 190.32,-157.7"/>
<polygon fill="midnightblue" stroke="midnightblue" points="191.74,-154.5 181.18,-153.58 188.86,-160.88 191.74,-154.5"/>
</g>
<!-- Node4&#45;&gt;Node8 -->
<g id="edge17" class="edge">
<title>Node4&#45;&gt;Node8</title>
<path fill="none" stroke="midnightblue" d="M307.09,-190.24C316.06,-180.29 328.06,-166.6 338,-154 354.9,-132.57 372.91,-106.73 384.29,-89.98"/>
<polygon fill="midnightblue" stroke="midnightblue" points="387.48,-91.52 390.18,-81.27 381.68,-87.6 387.48,-91.52"/>
</g>
<!-- Node9 -->
<g id="node9" class="node">
<title>Node9</title>
<g id="a_node9"><a xlink:href="process-heap_8h.html" target="_top" xlink:title=" ">
<polygon fill="white" stroke="black" points="214.5,-123.5 214.5,-153.5 329.5,-153.5 329.5,-123.5 214.5,-123.5"/>
<text text-anchor="start" x="222.5" y="-141.5" font-family="Helvetica,sans-Serif" font-size="10.00">cppgc/internal/process</text>
<text text-anchor="middle" x="272" y="-130.5" font-family="Helvetica,sans-Serif" font-size="10.00">&#45;heap.h</text>
</a>
</g>
</g>
<!-- Node4&#45;&gt;Node9 -->
<g id="edge8" class="edge">
<title>Node4&#45;&gt;Node9</title>
<path fill="none" stroke="midnightblue" d="M289.23,-190.4C286.55,-182.47 283.13,-172.38 280.05,-163.27"/>
<polygon fill="midnightblue" stroke="midnightblue" points="283.29,-161.93 276.76,-153.58 276.66,-164.17 283.29,-161.93"/>
</g>
<!-- Node12 -->
<g id="node12" class="node">
<title>Node12</title>
<g id="a_node12"><a xlink:href="trace-trait_8h.html" target="_top" xlink:title=" ">
<polygon fill="white" stroke="black" points="462.5,-129 462.5,-148 557.5,-148 557.5,-129 462.5,-129"/>
<text text-anchor="middle" x="510" y="-136" font-family="Helvetica,sans-Serif" font-size="10.00">cppgc/trace&#45;trait.h</text>
</a>
</g>
</g>
<!-- Node4&#45;&gt;Node12 -->
<g id="edge12" class="edge">
<title>Node4&#45;&gt;Node12</title>
<path fill="none" stroke="midnightblue" d="M340.6,-190.48C379.83,-178.67 435.23,-162 471.85,-150.98"/>
<polygon fill="midnightblue" stroke="midnightblue" points="473.09,-154.26 481.66,-148.03 471.07,-147.56 473.09,-154.26"/>
</g>
<!-- Node6 -->
<g id="node6" class="node">
<title>Node6</title>
<g id="a_node6"><a xlink:title=" ">
<polygon fill="white" stroke="#bfbfbf" points="102.5,-62 102.5,-81 153.5,-81 153.5,-62 102.5,-62"/>
<text text-anchor="middle" x="128" y="-69" font-family="Helvetica,sans-Serif" font-size="10.00">stddef.h</text>
</a>
</g>
</g>
<!-- Node5&#45;&gt;Node6 -->
<g id="edge5" class="edge">
<title>Node5&#45;&gt;Node6</title>
<path fill="none" stroke="midnightblue" d="M145.23,-123.4C142,-113.86 137.71,-101.18 134.21,-90.86"/>
<polygon fill="midnightblue" stroke="midnightblue" points="137.46,-89.54 130.94,-81.19 130.83,-91.79 137.46,-89.54"/>
</g>
<!-- Node7 -->
<g id="node7" class="node">
<title>Node7</title>
<g id="a_node7"><a xlink:title=" ">
<polygon fill="white" stroke="#bfbfbf" points="172,-62 172,-81 220,-81 220,-62 172,-62"/>
<text text-anchor="middle" x="196" y="-69" font-family="Helvetica,sans-Serif" font-size="10.00">stdint.h</text>
</a>
</g>
</g>
<!-- Node5&#45;&gt;Node7 -->
<g id="edge6" class="edge">
<title>Node5&#45;&gt;Node7</title>
<path fill="none" stroke="midnightblue" d="M159.98,-123.4C167.01,-113.46 176.46,-100.11 183.92,-89.57"/>
<polygon fill="midnightblue" stroke="midnightblue" points="186.93,-91.38 189.85,-81.19 181.21,-87.34 186.93,-91.38"/>
</g>
<!-- Node5&#45;&gt;Node8 -->
<g id="edge7" class="edge">
<title>Node5&#45;&gt;Node8</title>
<path fill="none" stroke="midnightblue" d="M196.79,-125.08C199.56,-124.37 202.32,-123.67 205,-123 272.35,-106.15 290.56,-107.14 357,-87 359.57,-86.22 362.21,-85.36 364.86,-84.47"/>
<polygon fill="midnightblue" stroke="midnightblue" points="366.05,-87.76 374.3,-81.11 363.7,-81.16 366.05,-87.76"/>
</g>
<!-- Node9&#45;&gt;Node8 -->
<g id="edge11" class="edge">
<title>Node9&#45;&gt;Node8</title>
<path fill="none" stroke="midnightblue" d="M298.91,-123.4C320.28,-112.19 349.95,-96.64 370.85,-85.69"/>
<polygon fill="midnightblue" stroke="midnightblue" points="372.54,-88.75 379.77,-81.01 369.29,-82.55 372.54,-88.75"/>
</g>
<!-- Node10 -->
<g id="node10" class="node">
<title>Node10</title>
<g id="a_node10"><a xlink:href="atomic-entry-flag_8h.html" target="_top" xlink:title=" ">
<polygon fill="white" stroke="black" points="238,-56.5 238,-86.5 348,-86.5 348,-56.5 238,-56.5"/>
<text text-anchor="start" x="246" y="-74.5" font-family="Helvetica,sans-Serif" font-size="10.00">cppgc/internal/atomic</text>
<text text-anchor="middle" x="293" y="-63.5" font-family="Helvetica,sans-Serif" font-size="10.00">&#45;entry&#45;flag.h</text>
</a>
</g>
</g>
<!-- Node9&#45;&gt;Node10 -->
<g id="edge9" class="edge">
<title>Node9&#45;&gt;Node10</title>
<path fill="none" stroke="midnightblue" d="M276.56,-123.4C279.12,-115.47 282.38,-105.38 285.32,-96.27"/>
<polygon fill="midnightblue" stroke="midnightblue" points="288.71,-97.17 288.45,-86.58 282.05,-95.02 288.71,-97.17"/>
</g>
<!-- Node11 -->
<g id="node11" class="node">
<title>Node11</title>
<g id="a_node11"><a xlink:title=" ">
<polygon fill="white" stroke="#bfbfbf" points="270,-0.5 270,-19.5 316,-19.5 316,-0.5 270,-0.5"/>
<text text-anchor="middle" x="293" y="-7.5" font-family="Helvetica,sans-Serif" font-size="10.00">atomic</text>
</a>
</g>
</g>
<!-- Node10&#45;&gt;Node11 -->
<g id="edge10" class="edge">
<title>Node10&#45;&gt;Node11</title>
<path fill="none" stroke="midnightblue" d="M293,-56.4C293,-48.47 293,-38.46 293,-29.86"/>
<polygon fill="midnightblue" stroke="midnightblue" points="296.5,-29.66 293,-19.66 289.5,-29.66 296.5,-29.66"/>
</g>
<!-- Node12&#45;&gt;Node3 -->
<g id="edge13" class="edge">
<title>Node12&#45;&gt;Node3</title>
<path fill="none" stroke="midnightblue" d="M502.03,-128.87C493.63,-119.32 480.57,-103.14 473,-87 464.35,-68.57 459.32,-45.71 456.64,-29.9"/>
<polygon fill="midnightblue" stroke="midnightblue" points="460.06,-29.15 455.07,-19.8 453.14,-30.22 460.06,-29.15"/>
</g>
<!-- Node12&#45;&gt;Node8 -->
<g id="edge16" class="edge">
<title>Node12&#45;&gt;Node8</title>
<path fill="none" stroke="midnightblue" d="M494.63,-128.73C475.48,-117.82 442.56,-99.05 420.06,-86.22"/>
<polygon fill="midnightblue" stroke="midnightblue" points="421.55,-83.04 411.13,-81.13 418.08,-89.12 421.55,-83.04"/>
</g>
<!-- Node13 -->
<g id="node13" class="node">
<title>Node13</title>
<g id="a_node13"><a xlink:href="type-traits_8h.html" target="_top" xlink:title=" ">
<polygon fill="white" stroke="black" points="482,-62 482,-81 578,-81 578,-62 482,-62"/>
<text text-anchor="middle" x="530" y="-69" font-family="Helvetica,sans-Serif" font-size="10.00">cppgc/type&#45;traits.h</text>
</a>
</g>
</g>
<!-- Node12&#45;&gt;Node13 -->
<g id="edge14" class="edge">
<title>Node12&#45;&gt;Node13</title>
<path fill="none" stroke="midnightblue" d="M512.7,-128.73C515.67,-119.09 520.52,-103.3 524.34,-90.91"/>
<polygon fill="midnightblue" stroke="midnightblue" points="527.75,-91.71 527.35,-81.13 521.06,-89.66 527.75,-91.71"/>
</g>
<!-- Node13&#45;&gt;Node3 -->
<g id="edge15" class="edge">
<title>Node13&#45;&gt;Node3</title>
<path fill="none" stroke="midnightblue" d="M519.11,-61.98C507.03,-52.52 487.33,-37.1 472.76,-25.69"/>
<polygon fill="midnightblue" stroke="midnightblue" points="474.9,-22.92 464.87,-19.51 470.59,-28.43 474.9,-22.92"/>
</g>
<!-- Node14&#45;&gt;Node8 -->
<g id="edge20" class="edge">
<title>Node14&#45;&gt;Node8</title>
<path fill="none" stroke="midnightblue" d="M478.23,-195.84C463.87,-174.3 426.33,-118 407.35,-89.52"/>
<polygon fill="midnightblue" stroke="midnightblue" points="410.14,-87.4 401.68,-81.02 404.32,-91.28 410.14,-87.4"/>
</g>
<!-- Node15 -->
<g id="node15" class="node">
<title>Node15</title>
<g id="a_node15"><a xlink:title=" ">
<polygon fill="white" stroke="#bfbfbf" points="575.5,-129 575.5,-148 616.5,-148 616.5,-129 575.5,-129"/>
<text text-anchor="middle" x="596" y="-136" font-family="Helvetica,sans-Serif" font-size="10.00">string</text>
</a>
</g>
</g>
<!-- Node14&#45;&gt;Node15 -->
<g id="edge19" class="edge">
<title>Node14&#45;&gt;Node15</title>
<path fill="none" stroke="midnightblue" d="M499.1,-195.73C517.91,-184.82 550.25,-166.05 572.36,-153.22"/>
<polygon fill="midnightblue" stroke="midnightblue" points="574.24,-156.17 581.13,-148.13 570.73,-150.12 574.24,-156.17"/>
</g>
</g>
</svg>
