<?xml version="1.0" encoding="UTF-8" standalone="no"?>
<!DOCTYPE svg PUBLIC "-//W3C//DTD SVG 1.1//EN"
 "http://www.w3.org/Graphics/SVG/1.1/DTD/svg11.dtd">
<!-- Generated by graphviz version 2.44.0 ()
 -->
<!-- Title: include/cppgc/internal/prefinalizer&#45;handler.h Pages: 1 -->
<svg width="1268pt" height="475pt"
 viewBox="0.00 0.00 1267.65 475.00" xmlns="http://www.w3.org/2000/svg" xmlns:xlink="http://www.w3.org/1999/xlink">
<g id="graph0" class="graph" transform="scale(1 1) rotate(0) translate(4 471)">
<title>include/cppgc/internal/prefinalizer&#45;handler.h</title>
<polygon fill="white" stroke="transparent" points="-4,4 -4,-471 1263.65,-471 1263.65,4 -4,4"/>
<!-- Node1 -->
<g id="node1" class="node">
<title>Node1</title>
<g id="a_node1"><a xlink:title=" ">
<polygon fill="#bfbfbf" stroke="black" points="601.65,-436.5 601.65,-466.5 712.65,-466.5 712.65,-436.5 601.65,-436.5"/>
<text text-anchor="start" x="609.65" y="-454.5" font-family="Helvetica,sans-Serif" font-size="10.00">include/cppgc/internal</text>
<text text-anchor="middle" x="657.15" y="-443.5" font-family="Helvetica,sans-Serif" font-size="10.00">/prefinalizer&#45;handler.h</text>
</a>
</g>
</g>
<!-- Node2 -->
<g id="node2" class="node">
<title>Node2</title>
<g id="a_node2"><a xlink:href="heap_8h.html" target="_top" xlink:title=" ">
<polygon fill="white" stroke="black" points="897.15,-263 897.15,-282 971.15,-282 971.15,-263 897.15,-263"/>
<text text-anchor="middle" x="934.15" y="-270" font-family="Helvetica,sans-Serif" font-size="10.00">cppgc/heap.h</text>
</a>
</g>
</g>
<!-- Node1&#45;&gt;Node2 -->
<g id="edge1" class="edge">
<title>Node1&#45;&gt;Node2</title>
<path fill="none" stroke="midnightblue" d="M679.35,-436.31C731.31,-403.12 860.32,-320.68 912.12,-287.58"/>
<polygon fill="midnightblue" stroke="midnightblue" points="914.04,-290.51 920.58,-282.17 910.27,-284.61 914.04,-290.51"/>
</g>
<!-- Node14 -->
<g id="node14" class="node">
<title>Node14</title>
<g id="a_node14"><a xlink:href="liveness-broker_8h.html" target="_top" xlink:title=" ">
<polygon fill="white" stroke="black" points="553.65,-380.5 553.65,-399.5 672.65,-399.5 672.65,-380.5 553.65,-380.5"/>
<text text-anchor="middle" x="613.15" y="-387.5" font-family="Helvetica,sans-Serif" font-size="10.00">cppgc/liveness&#45;broker.h</text>
</a>
</g>
</g>
<!-- Node1&#45;&gt;Node14 -->
<g id="edge18" class="edge">
<title>Node1&#45;&gt;Node14</title>
<path fill="none" stroke="midnightblue" d="M646.72,-436.4C640.4,-427.84 632.28,-416.87 625.62,-407.86"/>
<polygon fill="midnightblue" stroke="midnightblue" points="628.31,-405.62 619.55,-399.66 622.69,-409.78 628.31,-405.62"/>
</g>
<!-- Node3 -->
<g id="node3" class="node">
<title>Node3</title>
<g id="a_node3"><a xlink:title=" ">
<polygon fill="white" stroke="#bfbfbf" points="1208.65,-62 1208.65,-81 1259.65,-81 1259.65,-62 1208.65,-62"/>
<text text-anchor="middle" x="1234.15" y="-69" font-family="Helvetica,sans-Serif" font-size="10.00">memory</text>
</a>
</g>
</g>
<!-- Node2&#45;&gt;Node3 -->
<g id="edge2" class="edge">
<title>Node2&#45;&gt;Node3</title>
<path fill="none" stroke="midnightblue" d="M971.18,-270.3C1040.55,-267.23 1186.13,-256.59 1219.15,-221 1252.12,-185.47 1244.92,-122.59 1238.65,-91.29"/>
<polygon fill="midnightblue" stroke="midnightblue" points="1242.02,-90.32 1236.46,-81.3 1235.18,-91.82 1242.02,-90.32"/>
</g>
<!-- Node4 -->
<g id="node4" class="node">
<title>Node4</title>
<g id="a_node4"><a xlink:title=" ">
<polygon fill="white" stroke="#bfbfbf" points="1166.15,-196 1166.15,-215 1210.15,-215 1210.15,-196 1166.15,-196"/>
<text text-anchor="middle" x="1188.15" y="-203" font-family="Helvetica,sans-Serif" font-size="10.00">vector</text>
</a>
</g>
</g>
<!-- Node2&#45;&gt;Node4 -->
<g id="edge3" class="edge">
<title>Node2&#45;&gt;Node4</title>
<path fill="none" stroke="midnightblue" d="M971.34,-265.8C1016.39,-258.28 1094.17,-243.34 1158.15,-221 1159.77,-220.44 1161.41,-219.81 1163.05,-219.14"/>
<polygon fill="midnightblue" stroke="midnightblue" points="1164.55,-222.3 1172.25,-215.02 1161.69,-215.91 1164.55,-222.3"/>
</g>
<!-- Node5 -->
<g id="node5" class="node">
<title>Node5</title>
<g id="a_node5"><a xlink:href="common_8h.html" target="_top" xlink:title=" ">
<polygon fill="white" stroke="black" points="641.65,-129 641.65,-148 732.65,-148 732.65,-129 641.65,-129"/>
<text text-anchor="middle" x="687.15" y="-136" font-family="Helvetica,sans-Serif" font-size="10.00">cppgc/common.h</text>
</a>
</g>
</g>
<!-- Node2&#45;&gt;Node5 -->
<g id="edge4" class="edge">
<title>Node2&#45;&gt;Node5</title>
<path fill="none" stroke="midnightblue" d="M917.95,-262.84C875.8,-240.32 762.54,-179.79 712.04,-152.8"/>
<polygon fill="midnightblue" stroke="midnightblue" points="713.57,-149.65 703.1,-148.02 710.27,-155.82 713.57,-149.65"/>
</g>
<!-- Node6 -->
<g id="node6" class="node">
<title>Node6</title>
<g id="a_node6"><a xlink:href="v8config_8h.html" target="_top" xlink:title=" ">
<polygon fill="white" stroke="black" points="620.15,-62 620.15,-81 680.15,-81 680.15,-62 620.15,-62"/>
<text text-anchor="middle" x="650.15" y="-69" font-family="Helvetica,sans-Serif" font-size="10.00">v8config.h</text>
</a>
</g>
</g>
<!-- Node2&#45;&gt;Node6 -->
<g id="edge17" class="edge">
<title>Node2&#45;&gt;Node6</title>
<path fill="none" stroke="midnightblue" d="M931.49,-262.89C922.1,-232.69 890.4,-132.8 879.15,-123 851.41,-98.83 748.68,-83.62 690.69,-76.76"/>
<polygon fill="midnightblue" stroke="midnightblue" points="690.74,-73.24 680.41,-75.58 689.94,-80.2 690.74,-73.24"/>
</g>
<!-- Node7 -->
<g id="node7" class="node">
<title>Node7</title>
<g id="a_node7"><a xlink:href="custom-space_8h.html" target="_top" xlink:title=" ">
<polygon fill="white" stroke="black" points="1033.65,-196 1033.65,-215 1148.65,-215 1148.65,-196 1033.65,-196"/>
<text text-anchor="middle" x="1091.15" y="-203" font-family="Helvetica,sans-Serif" font-size="10.00">cppgc/custom&#45;space.h</text>
</a>
</g>
</g>
<!-- Node2&#45;&gt;Node7 -->
<g id="edge6" class="edge">
<title>Node2&#45;&gt;Node7</title>
<path fill="none" stroke="midnightblue" d="M955,-262.87C982.1,-251.65 1029.62,-231.98 1060.74,-219.09"/>
<polygon fill="midnightblue" stroke="midnightblue" points="1062.32,-222.23 1070.22,-215.17 1059.64,-215.76 1062.32,-222.23"/>
</g>
<!-- Node9 -->
<g id="node9" class="node">
<title>Node9</title>
<g id="a_node9"><a xlink:href="platform_8h.html" target="_top" xlink:title=" ">
<polygon fill="white" stroke="black" points="926.65,-196 926.65,-215 1015.65,-215 1015.65,-196 926.65,-196"/>
<text text-anchor="middle" x="971.15" y="-203" font-family="Helvetica,sans-Serif" font-size="10.00">cppgc/platform.h</text>
</a>
</g>
</g>
<!-- Node2&#45;&gt;Node9 -->
<g id="edge8" class="edge">
<title>Node2&#45;&gt;Node9</title>
<path fill="none" stroke="midnightblue" d="M939.14,-262.73C944.75,-252.89 953.98,-236.66 961.1,-224.16"/>
<polygon fill="midnightblue" stroke="midnightblue" points="964.34,-225.55 966.24,-215.13 958.25,-222.09 964.34,-225.55"/>
</g>
<!-- Node5&#45;&gt;Node6 -->
<g id="edge5" class="edge">
<title>Node5&#45;&gt;Node6</title>
<path fill="none" stroke="midnightblue" d="M682.16,-128.73C676.56,-118.89 667.32,-102.66 660.2,-90.16"/>
<polygon fill="midnightblue" stroke="midnightblue" points="663.05,-88.09 655.06,-81.13 656.97,-91.55 663.05,-88.09"/>
</g>
<!-- Node8 -->
<g id="node8" class="node">
<title>Node8</title>
<g id="a_node8"><a xlink:title=" ">
<polygon fill="white" stroke="#bfbfbf" points="1068.65,-62 1068.65,-81 1119.65,-81 1119.65,-62 1068.65,-62"/>
<text text-anchor="middle" x="1094.15" y="-69" font-family="Helvetica,sans-Serif" font-size="10.00">stddef.h</text>
</a>
</g>
</g>
<!-- Node7&#45;&gt;Node8 -->
<g id="edge7" class="edge">
<title>Node7&#45;&gt;Node8</title>
<path fill="none" stroke="midnightblue" d="M1110.77,-195.92C1126.79,-187.72 1148.34,-173.68 1158.15,-154 1164.3,-141.67 1164.16,-135.4 1158.15,-123 1150.45,-107.12 1135.07,-94.73 1121.32,-86.2"/>
<polygon fill="midnightblue" stroke="midnightblue" points="1123.02,-83.14 1112.61,-81.15 1119.51,-89.19 1123.02,-83.14"/>
</g>
<!-- Node9&#45;&gt;Node6 -->
<g id="edge16" class="edge">
<title>Node9&#45;&gt;Node6</title>
<path fill="none" stroke="midnightblue" d="M967.59,-195.94C960.07,-179.01 940.88,-141.3 912.15,-123 875.89,-99.89 754.41,-83.74 690.4,-76.61"/>
<polygon fill="midnightblue" stroke="midnightblue" points="690.59,-73.11 680.27,-75.5 689.83,-80.07 690.59,-73.11"/>
</g>
<!-- Node10 -->
<g id="node10" class="node">
<title>Node10</title>
<g id="a_node10"><a xlink:href="v8-platform_8h.html" target="_top" xlink:title=" ">
<polygon fill="white" stroke="black" points="1075.65,-129 1075.65,-148 1148.65,-148 1148.65,-129 1075.65,-129"/>
<text text-anchor="middle" x="1112.15" y="-136" font-family="Helvetica,sans-Serif" font-size="10.00">v8&#45;platform.h</text>
</a>
</g>
</g>
<!-- Node9&#45;&gt;Node10 -->
<g id="edge9" class="edge">
<title>Node9&#45;&gt;Node10</title>
<path fill="none" stroke="midnightblue" d="M989.88,-195.87C1014,-184.75 1056.15,-165.32 1084.11,-152.43"/>
<polygon fill="midnightblue" stroke="midnightblue" points="1085.73,-155.53 1093.35,-148.17 1082.8,-149.18 1085.73,-155.53"/>
</g>
<!-- Node10&#45;&gt;Node3 -->
<g id="edge13" class="edge">
<title>Node10&#45;&gt;Node3</title>
<path fill="none" stroke="midnightblue" d="M1128.35,-128.87C1148.95,-117.89 1184.74,-98.82 1208.93,-85.94"/>
<polygon fill="midnightblue" stroke="midnightblue" points="1210.7,-88.96 1217.88,-81.17 1207.41,-82.78 1210.7,-88.96"/>
</g>
<!-- Node10&#45;&gt;Node6 -->
<g id="edge15" class="edge">
<title>Node10&#45;&gt;Node6</title>
<path fill="none" stroke="midnightblue" d="M1088.56,-128.96C1081.73,-126.75 1074.21,-124.55 1067.15,-123 931.03,-93.12 765.77,-79.71 690.72,-74.83"/>
<polygon fill="midnightblue" stroke="midnightblue" points="690.52,-71.31 680.32,-74.17 690.07,-78.3 690.52,-71.31"/>
</g>
<!-- Node10&#45;&gt;Node8 -->
<g id="edge10" class="edge">
<title>Node10&#45;&gt;Node8</title>
<path fill="none" stroke="midnightblue" d="M1109.72,-128.73C1107.05,-119.09 1102.68,-103.3 1099.25,-90.91"/>
<polygon fill="midnightblue" stroke="midnightblue" points="1102.58,-89.83 1096.54,-81.13 1095.84,-91.7 1102.58,-89.83"/>
</g>
<!-- Node11 -->
<g id="node11" class="node">
<title>Node11</title>
<g id="a_node11"><a xlink:title=" ">
<polygon fill="white" stroke="#bfbfbf" points="990.15,-62 990.15,-81 1038.15,-81 1038.15,-62 990.15,-62"/>
<text text-anchor="middle" x="1014.15" y="-69" font-family="Helvetica,sans-Serif" font-size="10.00">stdint.h</text>
</a>
</g>
</g>
<!-- Node10&#45;&gt;Node11 -->
<g id="edge11" class="edge">
<title>Node10&#45;&gt;Node11</title>
<path fill="none" stroke="midnightblue" d="M1098.94,-128.73C1082.7,-117.96 1054.94,-99.55 1035.62,-86.74"/>
<polygon fill="midnightblue" stroke="midnightblue" points="1037.43,-83.74 1027.16,-81.13 1033.56,-89.57 1037.43,-83.74"/>
</g>
<!-- Node12 -->
<g id="node12" class="node">
<title>Node12</title>
<g id="a_node12"><a xlink:title=" ">
<polygon fill="white" stroke="#bfbfbf" points="1137.65,-62 1137.65,-81 1184.65,-81 1184.65,-62 1137.65,-62"/>
<text text-anchor="middle" x="1161.15" y="-69" font-family="Helvetica,sans-Serif" font-size="10.00">stdlib.h</text>
</a>
</g>
</g>
<!-- Node10&#45;&gt;Node12 -->
<g id="edge12" class="edge">
<title>Node10&#45;&gt;Node12</title>
<path fill="none" stroke="midnightblue" d="M1118.76,-128.73C1126.33,-118.7 1138.9,-102.01 1148.4,-89.42"/>
<polygon fill="midnightblue" stroke="midnightblue" points="1151.42,-91.22 1154.65,-81.13 1145.83,-87.01 1151.42,-91.22"/>
</g>
<!-- Node13 -->
<g id="node13" class="node">
<title>Node13</title>
<g id="a_node13"><a xlink:title=" ">
<polygon fill="white" stroke="#bfbfbf" points="859.65,-62 859.65,-81 900.65,-81 900.65,-62 859.65,-62"/>
<text text-anchor="middle" x="880.15" y="-69" font-family="Helvetica,sans-Serif" font-size="10.00">string</text>
</a>
</g>
</g>
<!-- Node10&#45;&gt;Node13 -->
<g id="edge14" class="edge">
<title>Node10&#45;&gt;Node13</title>
<path fill="none" stroke="midnightblue" d="M1086.04,-128.85C1079.87,-126.87 1073.29,-124.82 1067.15,-123 1012.18,-106.73 947.5,-89.74 910.42,-80.2"/>
<polygon fill="midnightblue" stroke="midnightblue" points="911.28,-76.8 900.72,-77.71 909.54,-83.58 911.28,-76.8"/>
</g>
<!-- Node14&#45;&gt;Node2 -->
<g id="edge19" class="edge">
<title>Node14&#45;&gt;Node2</title>
<path fill="none" stroke="midnightblue" d="M635.06,-380.45C667.65,-367.78 730.91,-343.44 785.15,-324 823.62,-310.22 868,-295.3 898.26,-285.28"/>
<polygon fill="midnightblue" stroke="midnightblue" points="899.55,-288.54 907.95,-282.08 897.36,-281.89 899.55,-288.54"/>
</g>
<!-- Node14&#45;&gt;Node6 -->
<g id="edge49" class="edge">
<title>Node14&#45;&gt;Node6</title>
<path fill="none" stroke="midnightblue" d="M613.15,-380.31C613.15,-361.06 613.15,-313.4 613.15,-273.5 613.15,-273.5 613.15,-273.5 613.15,-204.5 613.15,-162.43 630.79,-115.53 641.71,-90.52"/>
<polygon fill="midnightblue" stroke="midnightblue" points="644.98,-91.78 645.91,-81.22 638.6,-88.9 644.98,-91.78"/>
</g>
<!-- Node15 -->
<g id="node15" class="node">
<title>Node15</title>
<g id="a_node15"><a xlink:href="member_8h.html" target="_top" xlink:title=" ">
<polygon fill="white" stroke="black" points="333.65,-324.5 333.65,-343.5 422.65,-343.5 422.65,-324.5 333.65,-324.5"/>
<text text-anchor="middle" x="378.15" y="-331.5" font-family="Helvetica,sans-Serif" font-size="10.00">cppgc/member.h</text>
</a>
</g>
</g>
<!-- Node14&#45;&gt;Node15 -->
<g id="edge20" class="edge">
<title>Node14&#45;&gt;Node15</title>
<path fill="none" stroke="midnightblue" d="M575.92,-380.44C535.09,-371.06 469.51,-355.99 425.17,-345.8"/>
<polygon fill="midnightblue" stroke="midnightblue" points="425.74,-342.34 415.21,-343.52 424.18,-349.17 425.74,-342.34"/>
</g>
<!-- Node25 -->
<g id="node25" class="node">
<title>Node25</title>
<g id="a_node25"><a xlink:href="trace-trait_8h.html" target="_top" xlink:title=" ">
<polygon fill="white" stroke="black" points="204.65,-129 204.65,-148 299.65,-148 299.65,-129 204.65,-129"/>
<text text-anchor="middle" x="252.15" y="-136" font-family="Helvetica,sans-Serif" font-size="10.00">cppgc/trace&#45;trait.h</text>
</a>
</g>
</g>
<!-- Node14&#45;&gt;Node25 -->
<g id="edge48" class="edge">
<title>Node14&#45;&gt;Node25</title>
<path fill="none" stroke="midnightblue" d="M553.46,-388.34C415.6,-385.41 81.61,-369.83 13.15,-288 -45.94,-217.36 111.64,-170.22 198.79,-150.29"/>
<polygon fill="midnightblue" stroke="midnightblue" points="199.8,-153.65 208.8,-148.05 198.27,-146.82 199.8,-153.65"/>
</g>
<!-- Node15&#45;&gt;Node6 -->
<g id="edge47" class="edge">
<title>Node15&#45;&gt;Node6</title>
<path fill="none" stroke="midnightblue" d="M405.67,-324.35C426.28,-316.95 454.37,-304.82 475.15,-288 546.46,-230.29 538.84,-192.12 599.15,-123 609.88,-110.7 622.98,-97.77 633.22,-88.07"/>
<polygon fill="midnightblue" stroke="midnightblue" points="635.8,-90.44 640.72,-81.06 631.02,-85.33 635.8,-90.44"/>
</g>
<!-- Node16 -->
<g id="node16" class="node">
<title>Node16</title>
<g id="a_node16"><a xlink:title=" ">
<polygon fill="white" stroke="#bfbfbf" points="396.15,-0.5 396.15,-19.5 442.15,-19.5 442.15,-0.5 396.15,-0.5"/>
<text text-anchor="middle" x="419.15" y="-7.5" font-family="Helvetica,sans-Serif" font-size="10.00">atomic</text>
</a>
</g>
</g>
<!-- Node15&#45;&gt;Node16 -->
<g id="edge21" class="edge">
<title>Node15&#45;&gt;Node16</title>
<path fill="none" stroke="midnightblue" d="M397.01,-324.48C411.54,-316.93 430.99,-304.55 442.15,-288 462.95,-257.17 461.15,-243.69 461.15,-206.5 461.15,-206.5 461.15,-206.5 461.15,-137.5 461.15,-100.31 454.93,-90.93 442.15,-56 438.72,-46.63 433.8,-36.7 429.39,-28.56"/>
<polygon fill="midnightblue" stroke="midnightblue" points="432.35,-26.68 424.39,-19.68 426.24,-30.11 432.35,-26.68"/>
</g>
<!-- Node17 -->
<g id="node17" class="node">
<title>Node17</title>
<g id="a_node17"><a xlink:title=" ">
<polygon fill="white" stroke="#bfbfbf" points="22.65,-263 22.65,-282 71.65,-282 71.65,-263 22.65,-263"/>
<text text-anchor="middle" x="47.15" y="-270" font-family="Helvetica,sans-Serif" font-size="10.00">cstddef</text>
</a>
</g>
</g>
<!-- Node15&#45;&gt;Node17 -->
<g id="edge22" class="edge">
<title>Node15&#45;&gt;Node17</title>
<path fill="none" stroke="midnightblue" d="M333.56,-328.97C275.79,-323.11 172.28,-310.4 86.15,-288 83.33,-287.27 80.44,-286.41 77.55,-285.47"/>
<polygon fill="midnightblue" stroke="midnightblue" points="78.55,-282.11 67.95,-282.12 76.24,-288.72 78.55,-282.11"/>
</g>
<!-- Node18 -->
<g id="node18" class="node">
<title>Node18</title>
<g id="a_node18"><a xlink:title=" ">
<polygon fill="white" stroke="#bfbfbf" points="150.15,-0.5 150.15,-19.5 212.15,-19.5 212.15,-0.5 150.15,-0.5"/>
<text text-anchor="middle" x="181.15" y="-7.5" font-family="Helvetica,sans-Serif" font-size="10.00">type_traits</text>
</a>
</g>
</g>
<!-- Node15&#45;&gt;Node18 -->
<g id="edge23" class="edge">
<title>Node15&#45;&gt;Node18</title>
<path fill="none" stroke="midnightblue" d="M333.49,-332.26C254.9,-328.35 100.15,-307.78 100.15,-206.5 100.15,-206.5 100.15,-206.5 100.15,-137.5 100.15,-91.31 138.93,-48.48 162.82,-26.47"/>
<polygon fill="midnightblue" stroke="midnightblue" points="165.42,-28.85 170.56,-19.59 160.76,-23.62 165.42,-28.85"/>
</g>
<!-- Node19 -->
<g id="node19" class="node">
<title>Node19</title>
<g id="a_node19"><a xlink:href="pointer-policies_8h.html" target="_top" xlink:title=" ">
<polygon fill="white" stroke="black" points="323.15,-257.5 323.15,-287.5 433.15,-287.5 433.15,-257.5 323.15,-257.5"/>
<text text-anchor="start" x="331.15" y="-275.5" font-family="Helvetica,sans-Serif" font-size="10.00">cppgc/internal/pointer</text>
<text text-anchor="middle" x="378.15" y="-264.5" font-family="Helvetica,sans-Serif" font-size="10.00">&#45;policies.h</text>
</a>
</g>
</g>
<!-- Node15&#45;&gt;Node19 -->
<g id="edge24" class="edge">
<title>Node15&#45;&gt;Node19</title>
<path fill="none" stroke="midnightblue" d="M378.15,-324.48C378.15,-317.47 378.15,-307.19 378.15,-297.7"/>
<polygon fill="midnightblue" stroke="midnightblue" points="381.65,-297.52 378.15,-287.52 374.65,-297.52 381.65,-297.52"/>
</g>
<!-- Node26 -->
<g id="node26" class="node">
<title>Node26</title>
<g id="a_node26"><a xlink:href="type-traits_8h.html" target="_top" xlink:title=" ">
<polygon fill="white" stroke="black" points="171.15,-62 171.15,-81 267.15,-81 267.15,-62 171.15,-62"/>
<text text-anchor="middle" x="219.15" y="-69" font-family="Helvetica,sans-Serif" font-size="10.00">cppgc/type&#45;traits.h</text>
</a>
</g>
</g>
<!-- Node15&#45;&gt;Node26 -->
<g id="edge46" class="edge">
<title>Node15&#45;&gt;Node26</title>
<path fill="none" stroke="midnightblue" d="M362.91,-324.48C325.17,-302.34 228.16,-238.79 196.15,-154 187.99,-132.38 198.52,-106.59 207.86,-89.9"/>
<polygon fill="midnightblue" stroke="midnightblue" points="210.93,-91.6 213.08,-81.22 204.93,-87.99 210.93,-91.6"/>
</g>
<!-- Node19&#45;&gt;Node6 -->
<g id="edge45" class="edge">
<title>Node19&#45;&gt;Node6</title>
<path fill="none" stroke="midnightblue" d="M395.54,-257.32C440.39,-220.78 556.79,-125.98 561.15,-123 581.46,-109.14 605.81,-95.51 623.91,-85.91"/>
<polygon fill="midnightblue" stroke="midnightblue" points="626.02,-88.76 633.25,-81.01 622.77,-82.55 626.02,-88.76"/>
</g>
<!-- Node19&#45;&gt;Node18 -->
<g id="edge26" class="edge">
<title>Node19&#45;&gt;Node18</title>
<path fill="none" stroke="midnightblue" d="M330.74,-257.46C307.04,-249.09 278.69,-236.97 256.15,-221 223.54,-197.89 218.72,-186.99 196.15,-154 170.12,-115.95 153,-101.19 162.15,-56 164.05,-46.65 167.94,-36.83 171.72,-28.75"/>
<polygon fill="midnightblue" stroke="midnightblue" points="174.94,-30.14 176.28,-19.63 168.68,-27.01 174.94,-30.14"/>
</g>
<!-- Node20 -->
<g id="node20" class="node">
<title>Node20</title>
<g id="a_node20"><a xlink:title=" ">
<polygon fill="white" stroke="#bfbfbf" points="265.15,-196 265.15,-215 311.15,-215 311.15,-196 265.15,-196"/>
<text text-anchor="middle" x="288.15" y="-203" font-family="Helvetica,sans-Serif" font-size="10.00">cstdint</text>
</a>
</g>
</g>
<!-- Node19&#45;&gt;Node20 -->
<g id="edge25" class="edge">
<title>Node19&#45;&gt;Node20</title>
<path fill="none" stroke="midnightblue" d="M358.62,-257.4C343.67,-246.6 323.12,-231.76 308.07,-220.89"/>
<polygon fill="midnightblue" stroke="midnightblue" points="310.09,-218.02 299.93,-215.01 305.99,-223.7 310.09,-218.02"/>
</g>
<!-- Node21 -->
<g id="node21" class="node">
<title>Node21</title>
<g id="a_node21"><a xlink:href="write-barrier_8h.html" target="_top" xlink:title=" ">
<polygon fill="white" stroke="black" points="329.65,-190.5 329.65,-220.5 430.65,-220.5 430.65,-190.5 329.65,-190.5"/>
<text text-anchor="start" x="337.65" y="-208.5" font-family="Helvetica,sans-Serif" font-size="10.00">cppgc/internal/write</text>
<text text-anchor="middle" x="380.15" y="-197.5" font-family="Helvetica,sans-Serif" font-size="10.00">&#45;barrier.h</text>
</a>
</g>
</g>
<!-- Node19&#45;&gt;Node21 -->
<g id="edge27" class="edge">
<title>Node19&#45;&gt;Node21</title>
<path fill="none" stroke="midnightblue" d="M378.59,-257.4C378.82,-249.64 379.13,-239.81 379.4,-230.86"/>
<polygon fill="midnightblue" stroke="midnightblue" points="382.91,-230.68 379.72,-220.58 375.91,-230.46 382.91,-230.68"/>
</g>
<!-- Node27 -->
<g id="node27" class="node">
<title>Node27</title>
<g id="a_node27"><a xlink:href="source-location_8h.html" target="_top" xlink:title=" ">
<polygon fill="white" stroke="black" points="750.65,-129 750.65,-148 869.65,-148 869.65,-129 750.65,-129"/>
<text text-anchor="middle" x="810.15" y="-136" font-family="Helvetica,sans-Serif" font-size="10.00">cppgc/source&#45;location.h</text>
</a>
</g>
</g>
<!-- Node19&#45;&gt;Node27 -->
<g id="edge42" class="edge">
<title>Node19&#45;&gt;Node27</title>
<path fill="none" stroke="midnightblue" d="M427.45,-257.41C462.11,-247.42 509.53,-233.62 551.15,-221 630.92,-196.81 724.05,-167.16 774.04,-151.13"/>
<polygon fill="midnightblue" stroke="midnightblue" points="775.28,-154.4 783.74,-148.01 773.15,-147.74 775.28,-154.4"/>
</g>
<!-- Node21&#45;&gt;Node6 -->
<g id="edge41" class="edge">
<title>Node21&#45;&gt;Node6</title>
<path fill="none" stroke="midnightblue" d="M402.9,-190.21C430.68,-173.08 479.37,-144.05 523.15,-123 553.92,-108.2 590.23,-94.08 616.12,-84.56"/>
<polygon fill="midnightblue" stroke="midnightblue" points="617.65,-87.73 625.85,-81.02 615.25,-81.15 617.65,-87.73"/>
</g>
<!-- Node22 -->
<g id="node22" class="node">
<title>Node22</title>
<g id="a_node22"><a xlink:href="api-constants_8h.html" target="_top" xlink:title=" ">
<polygon fill="white" stroke="black" points="964.65,-123.5 964.65,-153.5 1057.65,-153.5 1057.65,-123.5 964.65,-123.5"/>
<text text-anchor="start" x="972.65" y="-141.5" font-family="Helvetica,sans-Serif" font-size="10.00">cppgc/internal/api</text>
<text text-anchor="middle" x="1011.15" y="-130.5" font-family="Helvetica,sans-Serif" font-size="10.00">&#45;constants.h</text>
</a>
</g>
</g>
<!-- Node21&#45;&gt;Node22 -->
<g id="edge28" class="edge">
<title>Node21&#45;&gt;Node22</title>
<path fill="none" stroke="midnightblue" d="M430.81,-199.52C520.99,-190.62 715.27,-171.29 879.15,-154 903.82,-151.4 931.06,-148.42 954.36,-145.85"/>
<polygon fill="midnightblue" stroke="midnightblue" points="954.88,-149.31 964.43,-144.73 954.1,-142.35 954.88,-149.31"/>
</g>
<!-- Node23 -->
<g id="node23" class="node">
<title>Node23</title>
<g id="a_node23"><a xlink:href="process-heap_8h.html" target="_top" xlink:title=" ">
<polygon fill="white" stroke="black" points="317.65,-123.5 317.65,-153.5 432.65,-153.5 432.65,-123.5 317.65,-123.5"/>
<text text-anchor="start" x="325.65" y="-141.5" font-family="Helvetica,sans-Serif" font-size="10.00">cppgc/internal/process</text>
<text text-anchor="middle" x="375.15" y="-130.5" font-family="Helvetica,sans-Serif" font-size="10.00">&#45;heap.h</text>
</a>
</g>
</g>
<!-- Node21&#45;&gt;Node23 -->
<g id="edge32" class="edge">
<title>Node21&#45;&gt;Node23</title>
<path fill="none" stroke="midnightblue" d="M379.07,-190.4C378.46,-182.56 377.7,-172.6 377,-163.57"/>
<polygon fill="midnightblue" stroke="midnightblue" points="380.49,-163.28 376.24,-153.58 373.51,-163.82 380.49,-163.28"/>
</g>
<!-- Node21&#45;&gt;Node25 -->
<g id="edge36" class="edge">
<title>Node21&#45;&gt;Node25</title>
<path fill="none" stroke="midnightblue" d="M352.38,-190.4C330.22,-179.14 299.42,-163.5 277.83,-152.54"/>
<polygon fill="midnightblue" stroke="midnightblue" points="279.41,-149.41 268.9,-148.01 276.24,-155.66 279.41,-149.41"/>
</g>
<!-- Node22&#45;&gt;Node6 -->
<g id="edge31" class="edge">
<title>Node22&#45;&gt;Node6</title>
<path fill="none" stroke="midnightblue" d="M964.6,-126.1C959.73,-125 954.85,-123.95 950.15,-123 857.81,-104.27 748.48,-87.12 690.69,-78.45"/>
<polygon fill="midnightblue" stroke="midnightblue" points="690.92,-74.94 680.51,-76.93 689.88,-81.86 690.92,-74.94"/>
</g>
<!-- Node22&#45;&gt;Node8 -->
<g id="edge29" class="edge">
<title>Node22&#45;&gt;Node8</title>
<path fill="none" stroke="midnightblue" d="M1029.16,-123.4C1042.74,-112.76 1061.33,-98.2 1075.15,-87.38"/>
<polygon fill="midnightblue" stroke="midnightblue" points="1077.33,-90.12 1083.05,-81.19 1073.02,-84.6 1077.33,-90.12"/>
</g>
<!-- Node22&#45;&gt;Node11 -->
<g id="edge30" class="edge">
<title>Node22&#45;&gt;Node11</title>
<path fill="none" stroke="midnightblue" d="M1011.8,-123.4C1012.24,-113.96 1012.82,-101.45 1013.29,-91.19"/>
<polygon fill="midnightblue" stroke="midnightblue" points="1016.79,-91.35 1013.75,-81.19 1009.79,-91.02 1016.79,-91.35"/>
</g>
<!-- Node23&#45;&gt;Node6 -->
<g id="edge35" class="edge">
<title>Node23&#45;&gt;Node6</title>
<path fill="none" stroke="midnightblue" d="M432.8,-123.87C485.92,-111.32 563.36,-93.01 610.04,-81.98"/>
<polygon fill="midnightblue" stroke="midnightblue" points="610.87,-85.38 619.8,-79.67 609.26,-78.57 610.87,-85.38"/>
</g>
<!-- Node24 -->
<g id="node24" class="node">
<title>Node24</title>
<g id="a_node24"><a xlink:href="atomic-entry-flag_8h.html" target="_top" xlink:title=" ">
<polygon fill="white" stroke="black" points="323.15,-56.5 323.15,-86.5 433.15,-86.5 433.15,-56.5 323.15,-56.5"/>
<text text-anchor="start" x="331.15" y="-74.5" font-family="Helvetica,sans-Serif" font-size="10.00">cppgc/internal/atomic</text>
<text text-anchor="middle" x="378.15" y="-63.5" font-family="Helvetica,sans-Serif" font-size="10.00">&#45;entry&#45;flag.h</text>
</a>
</g>
</g>
<!-- Node23&#45;&gt;Node24 -->
<g id="edge33" class="edge">
<title>Node23&#45;&gt;Node24</title>
<path fill="none" stroke="midnightblue" d="M375.8,-123.4C376.16,-115.64 376.61,-105.81 377.03,-96.86"/>
<polygon fill="midnightblue" stroke="midnightblue" points="380.54,-96.73 377.5,-86.58 373.55,-96.4 380.54,-96.73"/>
</g>
<!-- Node24&#45;&gt;Node16 -->
<g id="edge34" class="edge">
<title>Node24&#45;&gt;Node16</title>
<path fill="none" stroke="midnightblue" d="M387.87,-56.4C393.7,-47.93 401.17,-37.1 407.34,-28.14"/>
<polygon fill="midnightblue" stroke="midnightblue" points="410.39,-29.88 413.19,-19.66 404.63,-25.91 410.39,-29.88"/>
</g>
<!-- Node25&#45;&gt;Node6 -->
<g id="edge40" class="edge">
<title>Node25&#45;&gt;Node6</title>
<path fill="none" stroke="midnightblue" d="M283.38,-128.94C291.71,-126.83 300.74,-124.69 309.15,-123 416.98,-101.36 545.72,-84.76 609.78,-77.12"/>
<polygon fill="midnightblue" stroke="midnightblue" points="610.35,-80.58 619.87,-75.93 609.53,-73.63 610.35,-80.58"/>
</g>
<!-- Node25&#45;&gt;Node18 -->
<g id="edge37" class="edge">
<title>Node25&#45;&gt;Node18</title>
<path fill="none" stroke="midnightblue" d="M259.1,-128.76C270.66,-113.1 291.14,-79.68 276.15,-56 264.21,-37.13 241.99,-26.02 222.04,-19.56"/>
<polygon fill="midnightblue" stroke="midnightblue" points="222.76,-16.13 212.18,-16.67 220.79,-22.85 222.76,-16.13"/>
</g>
<!-- Node25&#45;&gt;Node26 -->
<g id="edge38" class="edge">
<title>Node25&#45;&gt;Node26</title>
<path fill="none" stroke="midnightblue" d="M247.7,-128.73C242.7,-118.89 234.46,-102.66 228.12,-90.16"/>
<polygon fill="midnightblue" stroke="midnightblue" points="231.18,-88.46 223.53,-81.13 224.94,-91.63 231.18,-88.46"/>
</g>
<!-- Node26&#45;&gt;Node18 -->
<g id="edge39" class="edge">
<title>Node26&#45;&gt;Node18</title>
<path fill="none" stroke="midnightblue" d="M213.71,-61.98C208.06,-53.14 199.09,-39.09 191.99,-27.98"/>
<polygon fill="midnightblue" stroke="midnightblue" points="194.92,-26.05 186.59,-19.51 189.02,-29.82 194.92,-26.05"/>
</g>
<!-- Node27&#45;&gt;Node6 -->
<g id="edge44" class="edge">
<title>Node27&#45;&gt;Node6</title>
<path fill="none" stroke="midnightblue" d="M788.91,-128.87C761.22,-117.62 712.59,-97.87 680.89,-84.99"/>
<polygon fill="midnightblue" stroke="midnightblue" points="681.81,-81.58 671.23,-81.06 679.18,-88.07 681.81,-81.58"/>
</g>
<!-- Node27&#45;&gt;Node13 -->
<g id="edge43" class="edge">
<title>Node27&#45;&gt;Node13</title>
<path fill="none" stroke="midnightblue" d="M819.59,-128.73C830.82,-118.31 849.77,-100.71 863.49,-87.97"/>
<polygon fill="midnightblue" stroke="midnightblue" points="865.91,-90.5 870.86,-81.13 861.15,-85.37 865.91,-90.5"/>
</g>
</g>
</svg>
