<?xml version="1.0" encoding="UTF-8" standalone="no"?>
<!DOCTYPE svg PUBLIC "-//W3C//DTD SVG 1.1//EN"
 "http://www.w3.org/Graphics/SVG/1.1/DTD/svg11.dtd">
<!-- Generated by graphviz version 2.44.0 ()
 -->
<!-- Title: include/cppgc/source&#45;location.h Pages: 1 -->
<svg width="808pt" height="419pt"
 viewBox="0.00 0.00 807.50 419.00" xmlns="http://www.w3.org/2000/svg" xmlns:xlink="http://www.w3.org/1999/xlink">
<g id="graph0" class="graph" transform="scale(1 1) rotate(0) translate(4 415)">
<title>include/cppgc/source&#45;location.h</title>
<polygon fill="white" stroke="transparent" points="-4,4 -4,-415 803.5,-415 803.5,4 -4,4"/>
<!-- Node1 -->
<g id="node1" class="node">
<title>Node1</title>
<g id="a_node1"><a xlink:title=" ">
<polygon fill="#bfbfbf" stroke="black" points="267.5,-380.5 267.5,-410.5 376.5,-410.5 376.5,-380.5 267.5,-380.5"/>
<text text-anchor="start" x="275.5" y="-398.5" font-family="Helvetica,sans-Serif" font-size="10.00">include/cppgc/source</text>
<text text-anchor="middle" x="322" y="-387.5" font-family="Helvetica,sans-Serif" font-size="10.00">&#45;location.h</text>
</a>
</g>
</g>
<!-- Node2 -->
<g id="node2" class="node">
<title>Node2</title>
<g id="a_node2"><a xlink:href="logging_8h.html" target="_top" xlink:title=" ">
<polygon fill="white" stroke="black" points="140.5,-190.5 140.5,-220.5 251.5,-220.5 251.5,-190.5 140.5,-190.5"/>
<text text-anchor="start" x="148.5" y="-208.5" font-family="Helvetica,sans-Serif" font-size="10.00">include/cppgc/internal</text>
<text text-anchor="middle" x="196" y="-197.5" font-family="Helvetica,sans-Serif" font-size="10.00">/logging.h</text>
</a>
</g>
</g>
<!-- Node1&#45;&gt;Node2 -->
<g id="edge1" class="edge">
<title>Node1&#45;&gt;Node2</title>
<path fill="none" stroke="midnightblue" d="M295.25,-373.89C285.27,-365.36 274.36,-354.9 266,-344 234.88,-303.39 211.23,-246.84 201.23,-220.74"/>
<polygon fill="midnightblue" stroke="midnightblue" points="293.04,-376.61 302.98,-380.3 297.51,-371.22 293.04,-376.61"/>
</g>
<!-- Node5 -->
<g id="node5" class="node">
<title>Node5</title>
<g id="a_node5"><a xlink:href="persistent_8h.html" target="_top" xlink:title=" ">
<polygon fill="white" stroke="black" points="173,-67.5 173,-86.5 303,-86.5 303,-67.5 173,-67.5"/>
<text text-anchor="middle" x="238" y="-74.5" font-family="Helvetica,sans-Serif" font-size="10.00">include/cppgc/persistent.h</text>
</a>
</g>
</g>
<!-- Node1&#45;&gt;Node5 -->
<g id="edge24" class="edge">
<title>Node1&#45;&gt;Node5</title>
<path fill="none" stroke="midnightblue" d="M309.27,-371.22C296.91,-346.41 280,-305.59 280,-268 280,-268 280,-268 280,-204.5 280,-157.99 254.11,-106.53 242.98,-86.57"/>
<polygon fill="midnightblue" stroke="midnightblue" points="306.21,-372.93 313.9,-380.21 312.43,-369.72 306.21,-372.93"/>
</g>
<!-- Node6 -->
<g id="node6" class="node">
<title>Node6</title>
<g id="a_node6"><a xlink:href="visitor_8h.html" target="_top" xlink:title=" ">
<polygon fill="white" stroke="black" points="406.5,-129 406.5,-148 519.5,-148 519.5,-129 406.5,-129"/>
<text text-anchor="middle" x="463" y="-136" font-family="Helvetica,sans-Serif" font-size="10.00">include/cppgc/visitor.h</text>
</a>
</g>
</g>
<!-- Node1&#45;&gt;Node6 -->
<g id="edge25" class="edge">
<title>Node1&#45;&gt;Node6</title>
<path fill="none" stroke="midnightblue" d="M386.5,-384.57C447.12,-371.44 534.54,-341.86 576,-277 596.83,-244.42 597.04,-222.44 576,-190 561.45,-167.55 534.32,-155 510.3,-148.02"/>
<polygon fill="midnightblue" stroke="midnightblue" points="385.72,-381.16 376.64,-386.61 387.14,-388.01 385.72,-381.16"/>
</g>
<!-- Node9 -->
<g id="node9" class="node">
<title>Node9</title>
<g id="a_node9"><a xlink:href="pointer-policies_8h.html" target="_top" xlink:title=" ">
<polygon fill="white" stroke="black" points="308.5,-313.5 308.5,-343.5 419.5,-343.5 419.5,-313.5 308.5,-313.5"/>
<text text-anchor="start" x="316.5" y="-331.5" font-family="Helvetica,sans-Serif" font-size="10.00">include/cppgc/internal</text>
<text text-anchor="middle" x="364" y="-320.5" font-family="Helvetica,sans-Serif" font-size="10.00">/pointer&#45;policies.h</text>
</a>
</g>
</g>
<!-- Node1&#45;&gt;Node9 -->
<g id="edge11" class="edge">
<title>Node1&#45;&gt;Node9</title>
<path fill="none" stroke="midnightblue" d="M336.62,-371.87C342.7,-362.46 349.57,-351.83 354.9,-343.58"/>
<polygon fill="midnightblue" stroke="midnightblue" points="333.6,-370.1 331.11,-380.4 339.48,-373.9 333.6,-370.1"/>
</g>
<!-- Node3 -->
<g id="node3" class="node">
<title>Node3</title>
<g id="a_node3"><a xlink:href="persistent-node_8h.html" target="_top" xlink:title=" ">
<polygon fill="white" stroke="black" points="140.5,-123.5 140.5,-153.5 251.5,-153.5 251.5,-123.5 140.5,-123.5"/>
<text text-anchor="start" x="148.5" y="-141.5" font-family="Helvetica,sans-Serif" font-size="10.00">include/cppgc/internal</text>
<text text-anchor="middle" x="196" y="-130.5" font-family="Helvetica,sans-Serif" font-size="10.00">/persistent&#45;node.h</text>
</a>
</g>
</g>
<!-- Node2&#45;&gt;Node3 -->
<g id="edge2" class="edge">
<title>Node2&#45;&gt;Node3</title>
<path fill="none" stroke="midnightblue" d="M196,-180.11C196,-171.15 196,-161.32 196,-153.58"/>
<polygon fill="midnightblue" stroke="midnightblue" points="192.5,-180.4 196,-190.4 199.5,-180.4 192.5,-180.4"/>
</g>
<!-- Node2&#45;&gt;Node6 -->
<g id="edge6" class="edge">
<title>Node2&#45;&gt;Node6</title>
<path fill="none" stroke="midnightblue" d="M261.54,-188.54C314.03,-175.77 385.63,-158.34 427.82,-148.06"/>
<polygon fill="midnightblue" stroke="midnightblue" points="260.54,-185.19 251.65,-190.95 262.19,-191.99 260.54,-185.19"/>
</g>
<!-- Node8 -->
<g id="node8" class="node">
<title>Node8</title>
<g id="a_node8"><a xlink:href="caged-heap-local-data_8h.html" target="_top" xlink:title=" ">
<polygon fill="white" stroke="black" points="0,-123.5 0,-153.5 122,-153.5 122,-123.5 0,-123.5"/>
<text text-anchor="start" x="8" y="-141.5" font-family="Helvetica,sans-Serif" font-size="10.00">include/cppgc/internal</text>
<text text-anchor="middle" x="61" y="-130.5" font-family="Helvetica,sans-Serif" font-size="10.00">/caged&#45;heap&#45;local&#45;data.h</text>
</a>
</g>
</g>
<!-- Node2&#45;&gt;Node8 -->
<g id="edge10" class="edge">
<title>Node2&#45;&gt;Node8</title>
<path fill="none" stroke="midnightblue" d="M157.56,-185.99C136.16,-175.69 109.95,-163.07 90.24,-153.58"/>
<polygon fill="midnightblue" stroke="midnightblue" points="156.18,-189.21 166.71,-190.4 159.22,-182.9 156.18,-189.21"/>
</g>
<!-- Node4 -->
<g id="node4" class="node">
<title>Node4</title>
<g id="a_node4"><a xlink:href="cross-thread-persistent_8h.html" target="_top" xlink:title=" ">
<polygon fill="white" stroke="black" points="232,-0.5 232,-30.5 336,-30.5 336,-0.5 232,-0.5"/>
<text text-anchor="start" x="240" y="-18.5" font-family="Helvetica,sans-Serif" font-size="10.00">include/cppgc/cross</text>
<text text-anchor="middle" x="284" y="-7.5" font-family="Helvetica,sans-Serif" font-size="10.00">&#45;thread&#45;persistent.h</text>
</a>
</g>
</g>
<!-- Node3&#45;&gt;Node4 -->
<g id="edge3" class="edge">
<title>Node3&#45;&gt;Node4</title>
<path fill="none" stroke="midnightblue" d="M174.69,-115.4C163.47,-101.01 153.93,-82.16 164,-67 179.13,-44.22 206.77,-31.69 231.71,-24.81"/>
<polygon fill="midnightblue" stroke="midnightblue" points="172.23,-117.92 181.35,-123.3 177.58,-113.4 172.23,-117.92"/>
</g>
<!-- Node3&#45;&gt;Node5 -->
<g id="edge4" class="edge">
<title>Node3&#45;&gt;Node5</title>
<path fill="none" stroke="midnightblue" d="M211.81,-115.1C218.81,-105.19 226.63,-94.11 231.89,-86.66"/>
<polygon fill="midnightblue" stroke="midnightblue" points="208.86,-113.21 205.95,-123.4 214.58,-117.25 208.86,-113.21"/>
</g>
<!-- Node5&#45;&gt;Node4 -->
<g id="edge5" class="edge">
<title>Node5&#45;&gt;Node4</title>
<path fill="none" stroke="midnightblue" d="M250.73,-59.53C257.78,-50.42 266.44,-39.21 273.16,-30.52"/>
<polygon fill="midnightblue" stroke="midnightblue" points="247.94,-57.42 244.59,-67.48 253.48,-61.7 247.94,-57.42"/>
</g>
<!-- Node6&#45;&gt;Node4 -->
<g id="edge8" class="edge">
<title>Node6&#45;&gt;Node4</title>
<path fill="none" stroke="midnightblue" d="M442.03,-123.32C407.54,-100.01 339.27,-53.86 304.86,-30.6"/>
<polygon fill="midnightblue" stroke="midnightblue" points="440.17,-126.29 450.41,-128.99 444.09,-120.49 440.17,-126.29"/>
</g>
<!-- Node6&#45;&gt;Node5 -->
<g id="edge7" class="edge">
<title>Node6&#45;&gt;Node5</title>
<path fill="none" stroke="midnightblue" d="M421.01,-126.4C377.31,-114.84 309.83,-97 270.18,-86.51"/>
<polygon fill="midnightblue" stroke="midnightblue" points="420.2,-129.8 430.76,-128.98 421.99,-123.03 420.2,-129.8"/>
</g>
<!-- Node7 -->
<g id="node7" class="node">
<title>Node7</title>
<g id="a_node7"><a xlink:href="v8-cppgc_8h.html" target="_top" xlink:title=" ">
<polygon fill="white" stroke="black" points="414,-67.5 414,-86.5 512,-86.5 512,-67.5 414,-67.5"/>
<text text-anchor="middle" x="463" y="-74.5" font-family="Helvetica,sans-Serif" font-size="10.00">include/v8&#45;cppgc.h</text>
</a>
</g>
</g>
<!-- Node6&#45;&gt;Node7 -->
<g id="edge9" class="edge">
<title>Node6&#45;&gt;Node7</title>
<path fill="none" stroke="midnightblue" d="M463,-118.82C463,-108 463,-94.9 463,-86.51"/>
<polygon fill="midnightblue" stroke="midnightblue" points="459.5,-118.98 463,-128.98 466.5,-118.98 459.5,-118.98"/>
</g>
<!-- Node9&#45;&gt;Node4 -->
<g id="edge12" class="edge">
<title>Node9&#45;&gt;Node4</title>
<path fill="none" stroke="midnightblue" d="M355.09,-303.61C352.21,-295.28 349.2,-285.81 347,-277 324.06,-185.2 343.17,-156.34 312,-67 307.51,-54.13 299.89,-40.68 293.73,-30.9"/>
<polygon fill="midnightblue" stroke="midnightblue" points="351.81,-304.85 358.47,-313.1 358.41,-302.5 351.81,-304.85"/>
</g>
<!-- Node9&#45;&gt;Node5 -->
<g id="edge13" class="edge">
<title>Node9&#45;&gt;Node5</title>
<path fill="none" stroke="midnightblue" d="M360.25,-303.37C353.05,-262.97 334.28,-180.4 294,-123 283.11,-107.48 265.41,-94.53 252.83,-86.56"/>
<polygon fill="midnightblue" stroke="midnightblue" points="356.83,-304.1 361.95,-313.37 363.73,-302.93 356.83,-304.1"/>
</g>
<!-- Node9&#45;&gt;Node6 -->
<g id="edge23" class="edge">
<title>Node9&#45;&gt;Node6</title>
<path fill="none" stroke="midnightblue" d="M369.19,-303.4C376.09,-274.77 390.15,-226.33 413,-190 423.64,-173.08 440.84,-157.35 452.03,-148.08"/>
<polygon fill="midnightblue" stroke="midnightblue" points="365.73,-302.8 366.89,-313.33 372.55,-304.38 365.73,-302.8"/>
</g>
<!-- Node10 -->
<g id="node10" class="node">
<title>Node10</title>
<g id="a_node10"><a xlink:href="member_8h.html" target="_top" xlink:title=" ">
<polygon fill="white" stroke="black" points="445,-257.5 445,-276.5 567,-276.5 567,-257.5 445,-257.5"/>
<text text-anchor="middle" x="506" y="-264.5" font-family="Helvetica,sans-Serif" font-size="10.00">include/cppgc/member.h</text>
</a>
</g>
</g>
<!-- Node9&#45;&gt;Node10 -->
<g id="edge14" class="edge">
<title>Node9&#45;&gt;Node10</title>
<path fill="none" stroke="midnightblue" d="M406.92,-309.52C432.9,-298.63 464.87,-285.23 485.34,-276.66"/>
<polygon fill="midnightblue" stroke="midnightblue" points="405.52,-306.31 397.65,-313.4 408.23,-312.76 405.52,-306.31"/>
</g>
<!-- Node10&#45;&gt;Node6 -->
<g id="edge22" class="edge">
<title>Node10&#45;&gt;Node6</title>
<path fill="none" stroke="midnightblue" d="M530.72,-251.9C541.53,-244.28 553.08,-233.79 559,-221 564.79,-208.5 566.12,-201.79 559,-190 545.86,-168.24 519.88,-155.38 498.26,-148.1"/>
<polygon fill="midnightblue" stroke="midnightblue" points="528.79,-248.98 522.33,-257.39 532.62,-254.84 528.79,-248.98"/>
</g>
<!-- Node11 -->
<g id="node11" class="node">
<title>Node11</title>
<g id="a_node11"><a xlink:href="ephemeron-pair_8h.html" target="_top" xlink:title=" ">
<polygon fill="white" stroke="black" points="422,-190.5 422,-220.5 550,-220.5 550,-190.5 422,-190.5"/>
<text text-anchor="start" x="430" y="-208.5" font-family="Helvetica,sans-Serif" font-size="10.00">include/cppgc/ephemeron</text>
<text text-anchor="middle" x="486" y="-197.5" font-family="Helvetica,sans-Serif" font-size="10.00">&#45;pair.h</text>
</a>
</g>
</g>
<!-- Node10&#45;&gt;Node11 -->
<g id="edge15" class="edge">
<title>Node10&#45;&gt;Node11</title>
<path fill="none" stroke="midnightblue" d="M499.89,-247.82C496.94,-239.04 493.45,-228.68 490.71,-220.52"/>
<polygon fill="midnightblue" stroke="midnightblue" points="496.63,-249.11 503.13,-257.48 503.27,-246.88 496.63,-249.11"/>
</g>
<!-- Node12 -->
<g id="node12" class="node">
<title>Node12</title>
<g id="a_node12"><a xlink:href="liveness-broker_8h.html" target="_top" xlink:title=" ">
<polygon fill="white" stroke="black" points="644,-190.5 644,-220.5 760,-220.5 760,-190.5 644,-190.5"/>
<text text-anchor="start" x="652" y="-208.5" font-family="Helvetica,sans-Serif" font-size="10.00">include/cppgc/liveness</text>
<text text-anchor="middle" x="702" y="-197.5" font-family="Helvetica,sans-Serif" font-size="10.00">&#45;broker.h</text>
</a>
</g>
</g>
<!-- Node10&#45;&gt;Node12 -->
<g id="edge17" class="edge">
<title>Node10&#45;&gt;Node12</title>
<path fill="none" stroke="midnightblue" d="M543.94,-254.48C575.89,-244.78 621.72,-230.87 655.81,-220.52"/>
<polygon fill="midnightblue" stroke="midnightblue" points="542.63,-251.22 534.08,-257.48 544.67,-257.92 542.63,-251.22"/>
</g>
<!-- Node11&#45;&gt;Node6 -->
<g id="edge16" class="edge">
<title>Node11&#45;&gt;Node6</title>
<path fill="none" stroke="midnightblue" d="M477.66,-180.94C473.63,-169.54 469.03,-156.55 466.08,-148.19"/>
<polygon fill="midnightblue" stroke="midnightblue" points="474.37,-182.14 481.01,-190.4 480.97,-179.8 474.37,-182.14"/>
</g>
<!-- Node12&#45;&gt;Node6 -->
<g id="edge18" class="edge">
<title>Node12&#45;&gt;Node6</title>
<path fill="none" stroke="midnightblue" d="M640.71,-187.83C593.93,-175.11 531.41,-158.11 494.36,-148.03"/>
<polygon fill="midnightblue" stroke="midnightblue" points="639.87,-191.23 650.43,-190.48 641.7,-184.47 639.87,-191.23"/>
</g>
<!-- Node13 -->
<g id="node13" class="node">
<title>Node13</title>
<g id="a_node13"><a xlink:href="prefinalizer-handler_8h.html" target="_top" xlink:title=" ">
<polygon fill="white" stroke="black" points="688.5,-123.5 688.5,-153.5 799.5,-153.5 799.5,-123.5 688.5,-123.5"/>
<text text-anchor="start" x="696.5" y="-141.5" font-family="Helvetica,sans-Serif" font-size="10.00">include/cppgc/internal</text>
<text text-anchor="middle" x="744" y="-130.5" font-family="Helvetica,sans-Serif" font-size="10.00">/prefinalizer&#45;handler.h</text>
</a>
</g>
</g>
<!-- Node12&#45;&gt;Node13 -->
<g id="edge19" class="edge">
<title>Node12&#45;&gt;Node13</title>
<path fill="none" stroke="midnightblue" d="M716.62,-181.87C722.7,-172.46 729.57,-161.83 734.9,-153.58"/>
<polygon fill="midnightblue" stroke="midnightblue" points="713.6,-180.1 711.11,-190.4 719.48,-183.9 713.6,-180.1"/>
</g>
<!-- Node14 -->
<g id="node14" class="node">
<title>Node14</title>
<g id="a_node14"><a xlink:href="prefinalizer_8h.html" target="_top" xlink:title=" ">
<polygon fill="white" stroke="black" points="635.5,-67.5 635.5,-86.5 768.5,-86.5 768.5,-67.5 635.5,-67.5"/>
<text text-anchor="middle" x="702" y="-74.5" font-family="Helvetica,sans-Serif" font-size="10.00">include/cppgc/prefinalizer.h</text>
</a>
</g>
</g>
<!-- Node12&#45;&gt;Node14 -->
<g id="edge21" class="edge">
<title>Node12&#45;&gt;Node14</title>
<path fill="none" stroke="midnightblue" d="M689.53,-181.32C685.67,-172.96 681.93,-163.29 680,-154 677.19,-140.51 676.89,-136.42 680,-123 683.14,-109.44 690.95,-95.26 696.36,-86.52"/>
<polygon fill="midnightblue" stroke="midnightblue" points="686.45,-183 694,-190.44 692.74,-179.92 686.45,-183"/>
</g>
<!-- Node13&#45;&gt;Node14 -->
<g id="edge20" class="edge">
<title>Node13&#45;&gt;Node14</title>
<path fill="none" stroke="midnightblue" d="M728.19,-115.1C721.19,-105.19 713.37,-94.11 708.11,-86.66"/>
<polygon fill="midnightblue" stroke="midnightblue" points="725.42,-117.25 734.05,-123.4 731.14,-113.21 725.42,-117.25"/>
</g>
</g>
</svg>
