<?xml version="1.0" encoding="UTF-8" standalone="no"?>
<!DOCTYPE svg PUBLIC "-//W3C//DTD SVG 1.1//EN"
 "http://www.w3.org/Graphics/SVG/1.1/DTD/svg11.dtd">
<!-- Generated by graphviz version 2.44.0 ()
 -->
<!-- Title: v8::Isolate::CreateParams Pages: 1 -->
<svg width="1696pt" height="414pt"
 viewBox="0.00 0.00 1696.00 414.00" xmlns="http://www.w3.org/2000/svg" xmlns:xlink="http://www.w3.org/1999/xlink">
<g id="graph0" class="graph" transform="scale(1 1) rotate(0) translate(4 410)">
<title>v8::Isolate::CreateParams</title>
<polygon fill="white" stroke="transparent" points="-4,4 -4,-410 1692,-410 1692,4 -4,4"/>
<!-- Node1 -->
<g id="node1" class="node">
<title>Node1</title>
<g id="a_node1"><a xlink:title=" ">
<polygon fill="#bfbfbf" stroke="black" points="1560,-211.5 1560,-230.5 1688,-230.5 1688,-211.5 1560,-211.5"/>
<text text-anchor="middle" x="1624" y="-218.5" font-family="Helvetica,sans-Serif" font-size="10.00">v8::Isolate::CreateParams</text>
</a>
</g>
</g>
<!-- Node2 -->
<g id="node2" class="node">
<title>Node2</title>
<g id="a_node2"><a xlink:href="classv8_1_1ArrayBuffer_1_1Allocator.html" target="_top" xlink:title=" ">
<polygon fill="white" stroke="black" points="987,-373.5 987,-392.5 1109,-392.5 1109,-373.5 987,-373.5"/>
<text text-anchor="middle" x="1048" y="-380.5" font-family="Helvetica,sans-Serif" font-size="10.00">v8::ArrayBuffer::Allocator</text>
</a>
</g>
</g>
<!-- Node2&#45;&gt;Node1 -->
<g id="edge1" class="edge">
<title>Node2&#45;&gt;Node1</title>
<path fill="none" stroke="#9a32cd" stroke-dasharray="5,2" d="M1119.17,-392.64C1220.77,-402.87 1410.98,-407.77 1542,-325 1580.5,-300.68 1608.09,-251.33 1618.47,-230.55"/>
<polygon fill="#9a32cd" stroke="#9a32cd" points="1119.34,-389.13 1109.03,-391.56 1118.6,-396.09 1119.34,-389.13"/>
<text text-anchor="middle" x="1363" y="-398" font-family="Helvetica,sans-Serif" font-size="10.00"> array_buffer_allocator</text>
</g>
<!-- Node4 -->
<g id="node4" class="node">
<title>Node4</title>
<g id="a_node4"><a xlink:title=" ">
<polygon fill="white" stroke="#bfbfbf" points="1303,-310 1303,-340 1423,-340 1423,-310 1303,-310"/>
<text text-anchor="start" x="1311" y="-328" font-family="Helvetica,sans-Serif" font-size="10.00">std::shared_ptr&lt; v8</text>
<text text-anchor="middle" x="1363" y="-317" font-family="Helvetica,sans-Serif" font-size="10.00">::ArrayBuffer::Allocator &gt;</text>
</a>
</g>
</g>
<!-- Node2&#45;&gt;Node4 -->
<g id="edge4" class="edge">
<title>Node2&#45;&gt;Node4</title>
<path fill="none" stroke="#9a32cd" stroke-dasharray="5,2" d="M1119.15,-373.26C1175.28,-365.3 1249.33,-354.34 1279,-348 1289.53,-345.75 1300.7,-342.94 1311.32,-340.08"/>
<polygon fill="#9a32cd" stroke="#9a32cd" points="1118.66,-369.8 1109.25,-374.66 1119.64,-376.73 1118.66,-369.8"/>
<text text-anchor="middle" x="1210.5" y="-372" font-family="Helvetica,sans-Serif" font-size="10.00"> ptr</text>
</g>
<!-- Node3 -->
<g id="node3" class="node">
<title>Node3</title>
<g id="a_node3"><a xlink:href="classv8_1_1ResourceConstraints.html" target="_top" xlink:title=" ">
<polygon fill="white" stroke="black" points="1302,-173.5 1302,-192.5 1424,-192.5 1424,-173.5 1302,-173.5"/>
<text text-anchor="middle" x="1363" y="-180.5" font-family="Helvetica,sans-Serif" font-size="10.00">v8::ResourceConstraints</text>
</a>
</g>
</g>
<!-- Node3&#45;&gt;Node1 -->
<g id="edge2" class="edge">
<title>Node3&#45;&gt;Node1</title>
<path fill="none" stroke="#9a32cd" stroke-dasharray="5,2" d="M1434.18,-184.46C1467.13,-186.08 1506.82,-189.37 1542,-196 1560.95,-199.57 1581.71,-206.03 1597.48,-211.49"/>
<polygon fill="#9a32cd" stroke="#9a32cd" points="1434.32,-180.97 1424.18,-184.01 1434.01,-187.96 1434.32,-180.97"/>
<text text-anchor="middle" x="1494.5" y="-199" font-family="Helvetica,sans-Serif" font-size="10.00"> constraints</text>
</g>
<!-- Node4&#45;&gt;Node1 -->
<g id="edge3" class="edge">
<title>Node4&#45;&gt;Node1</title>
<path fill="none" stroke="#9a32cd" stroke-dasharray="5,2" d="M1426.28,-306.91C1460.91,-296.13 1504.46,-281.38 1542,-265 1565.47,-254.76 1591.24,-240.13 1607.27,-230.6"/>
<polygon fill="#9a32cd" stroke="#9a32cd" points="1424.83,-303.69 1416.3,-309.98 1426.89,-310.38 1424.83,-303.69"/>
<text text-anchor="start" x="1447" y="-313" font-family="Helvetica,sans-Serif" font-size="10.00"> array_buffer_allocator</text>
<text text-anchor="middle" x="1494.5" y="-302" font-family="Helvetica,sans-Serif" font-size="10.00">_shared</text>
</g>
<!-- Node5 -->
<g id="node5" class="node">
<title>Node5</title>
<g id="a_node5"><a xlink:title="STL class.">
<polygon fill="white" stroke="#bfbfbf" points="996.5,-315.5 996.5,-334.5 1099.5,-334.5 1099.5,-315.5 996.5,-315.5"/>
<text text-anchor="middle" x="1048" y="-322.5" font-family="Helvetica,sans-Serif" font-size="10.00">std::shared_ptr&lt; T &gt;</text>
</a>
</g>
</g>
<!-- Node5&#45;&gt;Node4 -->
<g id="edge5" class="edge">
<title>Node5&#45;&gt;Node4</title>
<path fill="none" stroke="orange" stroke-dasharray="5,2" d="M1109.73,-325C1165.5,-325 1247.64,-325 1302.89,-325"/>
<polygon fill="orange" stroke="orange" points="1109.64,-321.5 1099.64,-325 1109.64,-328.5 1109.64,-321.5"/>
<text text-anchor="start" x="1171" y="-339" font-family="Helvetica,sans-Serif" font-size="10.00"> &lt; v8::ArrayBuffer::</text>
<text text-anchor="middle" x="1210.5" y="-328" font-family="Helvetica,sans-Serif" font-size="10.00">Allocator &gt;</text>
</g>
<!-- Node7 -->
<g id="node7" class="node">
<title>Node7</title>
<g id="a_node7"><a xlink:title=" ">
<polygon fill="white" stroke="#bfbfbf" points="1297,-250 1297,-280 1429,-280 1429,-250 1297,-250"/>
<text text-anchor="start" x="1305" y="-268" font-family="Helvetica,sans-Serif" font-size="10.00">std::shared_ptr&lt; v8</text>
<text text-anchor="middle" x="1363" y="-257" font-family="Helvetica,sans-Serif" font-size="10.00">::CppHeapCreateParams &gt;</text>
</a>
</g>
</g>
<!-- Node5&#45;&gt;Node7 -->
<g id="edge16" class="edge">
<title>Node5&#45;&gt;Node7</title>
<path fill="none" stroke="orange" stroke-dasharray="5,2" d="M1108.67,-313.56C1162.48,-303.25 1241.45,-288.11 1296.87,-277.48"/>
<polygon fill="orange" stroke="orange" points="1107.76,-310.17 1098.6,-315.49 1109.08,-317.05 1107.76,-310.17"/>
<text text-anchor="middle" x="1210.5" y="-308" font-family="Helvetica,sans-Serif" font-size="10.00"> &lt; v8::CppHeapCreateParams &gt;</text>
</g>
<!-- Node6 -->
<g id="node6" class="node">
<title>Node6</title>
<g id="a_node6"><a xlink:title=" ">
<polygon fill="white" stroke="#bfbfbf" points="0,-250.5 0,-269.5 29,-269.5 29,-250.5 0,-250.5"/>
<text text-anchor="middle" x="14.5" y="-257.5" font-family="Helvetica,sans-Serif" font-size="10.00">T</text>
</a>
</g>
</g>
<!-- Node6&#45;&gt;Node5 -->
<g id="edge6" class="edge">
<title>Node6&#45;&gt;Node5</title>
<path fill="none" stroke="#9a32cd" stroke-dasharray="5,2" d="M30.95,-277.55C42.92,-290.16 60.54,-306.7 79,-317 105.1,-331.56 113.62,-336 143.5,-336 143.5,-336 143.5,-336 751.5,-336 837.49,-336 937.46,-331.29 996.3,-328.03"/>
<polygon fill="#9a32cd" stroke="#9a32cd" points="33.29,-274.92 23.94,-269.93 28.14,-279.66 33.29,-274.92"/>
<text text-anchor="middle" x="437" y="-339" font-family="Helvetica,sans-Serif" font-size="10.00"> ptr</text>
</g>
<!-- Node12 -->
<g id="node12" class="node">
<title>Node12</title>
<g id="a_node12"><a xlink:title="STL class.">
<polygon fill="white" stroke="#bfbfbf" points="93.5,-250.5 93.5,-269.5 195.5,-269.5 195.5,-250.5 93.5,-250.5"/>
<text text-anchor="middle" x="144.5" y="-257.5" font-family="Helvetica,sans-Serif" font-size="10.00">std::unique_ptr&lt; T &gt;</text>
</a>
</g>
</g>
<!-- Node6&#45;&gt;Node12 -->
<g id="edge13" class="edge">
<title>Node6&#45;&gt;Node12</title>
<path fill="none" stroke="#9a32cd" stroke-dasharray="5,2" d="M39.24,-260C54.4,-260 74.62,-260 93.23,-260"/>
<polygon fill="#9a32cd" stroke="#9a32cd" points="39.2,-256.5 29.2,-260 39.2,-263.5 39.2,-256.5"/>
<text text-anchor="middle" x="54" y="-263" font-family="Helvetica,sans-Serif" font-size="10.00"> ptr</text>
</g>
<!-- Node13 -->
<g id="node13" class="node">
<title>Node13</title>
<g id="a_node13"><a xlink:title="STL class.">
<polygon fill="white" stroke="#bfbfbf" points="395,-211.5 395,-230.5 479,-230.5 479,-211.5 395,-211.5"/>
<text text-anchor="middle" x="437" y="-218.5" font-family="Helvetica,sans-Serif" font-size="10.00">std::vector&lt; T &gt;</text>
</a>
</g>
</g>
<!-- Node6&#45;&gt;Node13 -->
<g id="edge15" class="edge">
<title>Node6&#45;&gt;Node13</title>
<path fill="none" stroke="#9a32cd" stroke-dasharray="5,2" d="M38.08,-246.51C49.85,-240.22 64.73,-233.39 79,-230 190.74,-203.45 327.7,-210.61 394.87,-216.6"/>
<polygon fill="#9a32cd" stroke="#9a32cd" points="36.03,-243.64 29.01,-251.57 39.45,-249.75 36.03,-243.64"/>
<text text-anchor="middle" x="144.5" y="-233" font-family="Helvetica,sans-Serif" font-size="10.00"> elements</text>
</g>
<!-- Node7&#45;&gt;Node1 -->
<g id="edge7" class="edge">
<title>Node7&#45;&gt;Node1</title>
<path fill="none" stroke="#9a32cd" stroke-dasharray="5,2" d="M1439.2,-252.4C1470.93,-247.06 1508.27,-240.76 1542,-235 1550.44,-233.56 1559.37,-232.02 1568.11,-230.52"/>
<polygon fill="#9a32cd" stroke="#9a32cd" points="1438.39,-248.98 1429.11,-254.09 1439.55,-255.89 1438.39,-248.98"/>
<text text-anchor="middle" x="1494.5" y="-253" font-family="Helvetica,sans-Serif" font-size="10.00"> cpp_heap_params</text>
</g>
<!-- Node8 -->
<g id="node8" class="node">
<title>Node8</title>
<g id="a_node8"><a xlink:href="structv8_1_1CppHeapCreateParams.html" target="_top" xlink:title=" ">
<polygon fill="white" stroke="black" points="981,-249.5 981,-268.5 1115,-268.5 1115,-249.5 981,-249.5"/>
<text text-anchor="middle" x="1048" y="-256.5" font-family="Helvetica,sans-Serif" font-size="10.00">v8::CppHeapCreateParams</text>
</a>
</g>
</g>
<!-- Node8&#45;&gt;Node7 -->
<g id="edge8" class="edge">
<title>Node8&#45;&gt;Node7</title>
<path fill="none" stroke="#9a32cd" stroke-dasharray="5,2" d="M1125.67,-256.89C1170.41,-256.1 1227.92,-255.85 1279,-258 1284.78,-258.24 1290.78,-258.58 1296.79,-258.98"/>
<polygon fill="#9a32cd" stroke="#9a32cd" points="1125.39,-253.39 1115.46,-257.08 1125.52,-260.39 1125.39,-253.39"/>
<text text-anchor="middle" x="1210.5" y="-261" font-family="Helvetica,sans-Serif" font-size="10.00"> ptr</text>
</g>
<!-- Node9 -->
<g id="node9" class="node">
<title>Node9</title>
<g id="a_node9"><a xlink:title=" ">
<polygon fill="white" stroke="#bfbfbf" points="664,-244 664,-274 837,-274 837,-244 664,-244"/>
<text text-anchor="start" x="672" y="-262" font-family="Helvetica,sans-Serif" font-size="10.00">std::vector&lt; std::unique</text>
<text text-anchor="middle" x="750.5" y="-251" font-family="Helvetica,sans-Serif" font-size="10.00">_ptr&lt; cppgc::CustomSpaceBase &gt; &gt;</text>
</a>
</g>
</g>
<!-- Node9&#45;&gt;Node8 -->
<g id="edge9" class="edge">
<title>Node9&#45;&gt;Node8</title>
<path fill="none" stroke="#9a32cd" stroke-dasharray="5,2" d="M847.41,-259C890.96,-259 941.39,-259 980.66,-259"/>
<polygon fill="#9a32cd" stroke="#9a32cd" points="847.37,-255.5 837.37,-259 847.37,-262.5 847.37,-255.5"/>
<text text-anchor="middle" x="904.5" y="-262" font-family="Helvetica,sans-Serif" font-size="10.00"> custom_spaces</text>
</g>
<!-- Node10 -->
<g id="node10" class="node">
<title>Node10</title>
<g id="a_node10"><a xlink:title=" ">
<polygon fill="white" stroke="#bfbfbf" points="380,-268 380,-298 494,-298 494,-268 380,-268"/>
<text text-anchor="start" x="388" y="-286" font-family="Helvetica,sans-Serif" font-size="10.00">std::unique_ptr&lt; cppgc</text>
<text text-anchor="middle" x="437" y="-275" font-family="Helvetica,sans-Serif" font-size="10.00">::CustomSpaceBase &gt;</text>
</a>
</g>
</g>
<!-- Node10&#45;&gt;Node9 -->
<g id="edge10" class="edge">
<title>Node10&#45;&gt;Node9</title>
<path fill="none" stroke="#9a32cd" stroke-dasharray="5,2" d="M504.03,-277.91C550.64,-274.32 613.5,-269.48 663.94,-265.59"/>
<polygon fill="#9a32cd" stroke="#9a32cd" points="503.75,-274.42 494.05,-278.68 504.29,-281.4 503.75,-274.42"/>
<text text-anchor="middle" x="579" y="-280" font-family="Helvetica,sans-Serif" font-size="10.00"> elements</text>
</g>
<!-- Node11 -->
<g id="node11" class="node">
<title>Node11</title>
<g id="a_node11"><a xlink:href="classcppgc_1_1CustomSpaceBase.html" target="_top" xlink:title=" ">
<polygon fill="white" stroke="black" points="79,-288.5 79,-307.5 210,-307.5 210,-288.5 79,-288.5"/>
<text text-anchor="middle" x="144.5" y="-295.5" font-family="Helvetica,sans-Serif" font-size="10.00">cppgc::CustomSpaceBase</text>
</a>
</g>
</g>
<!-- Node11&#45;&gt;Node10 -->
<g id="edge11" class="edge">
<title>Node11&#45;&gt;Node10</title>
<path fill="none" stroke="#9a32cd" stroke-dasharray="5,2" d="M220.39,-294.13C270.1,-291.57 334.32,-288.25 379.7,-285.91"/>
<polygon fill="#9a32cd" stroke="#9a32cd" points="220.14,-290.64 210.33,-294.65 220.5,-297.63 220.14,-290.64"/>
<text text-anchor="middle" x="295" y="-296" font-family="Helvetica,sans-Serif" font-size="10.00"> ptr</text>
</g>
<!-- Node12&#45;&gt;Node10 -->
<g id="edge12" class="edge">
<title>Node12&#45;&gt;Node10</title>
<path fill="none" stroke="orange" stroke-dasharray="5,2" d="M206.04,-261.86C249.52,-263.56 309.47,-266.65 362,-272 367.81,-272.59 373.87,-273.32 379.91,-274.11"/>
<polygon fill="orange" stroke="orange" points="206.04,-258.36 195.91,-261.48 205.77,-265.35 206.04,-258.36"/>
<text text-anchor="middle" x="295" y="-275" font-family="Helvetica,sans-Serif" font-size="10.00"> &lt; cppgc::CustomSpaceBase &gt;</text>
</g>
<!-- Node13&#45;&gt;Node9 -->
<g id="edge14" class="edge">
<title>Node13&#45;&gt;Node9</title>
<path fill="none" stroke="orange" stroke-dasharray="5,2" d="M489.18,-224.83C531.36,-228.24 592.69,-233.81 646,-241 652.69,-241.9 659.6,-242.92 666.54,-244"/>
<polygon fill="orange" stroke="orange" points="489.4,-221.33 479.15,-224.03 488.84,-228.31 489.4,-221.33"/>
<text text-anchor="start" x="512" y="-255" font-family="Helvetica,sans-Serif" font-size="10.00"> &lt; std::unique_ptr&lt;</text>
<text text-anchor="middle" x="579" y="-244" font-family="Helvetica,sans-Serif" font-size="10.00"> cppgc::CustomSpaceBase &gt; &gt;</text>
</g>
<!-- Node22 -->
<g id="node22" class="node">
<title>Node22</title>
<g id="a_node22"><a xlink:title=" ">
<polygon fill="white" stroke="#bfbfbf" points="690.5,-194.5 690.5,-213.5 810.5,-213.5 810.5,-194.5 690.5,-194.5"/>
<text text-anchor="middle" x="750.5" y="-201.5" font-family="Helvetica,sans-Serif" font-size="10.00">std::vector&lt; std::string &gt;</text>
</a>
</g>
</g>
<!-- Node13&#45;&gt;Node22 -->
<g id="edge29" class="edge">
<title>Node13&#45;&gt;Node22</title>
<path fill="none" stroke="orange" stroke-dasharray="5,2" d="M484.62,-209.38C493.65,-207.57 503.08,-205.97 512,-205 572.46,-198.41 642.09,-199.08 690.26,-200.84"/>
<polygon fill="orange" stroke="orange" points="483.69,-206 474.64,-211.5 485.15,-212.84 483.69,-206"/>
<text text-anchor="middle" x="579" y="-208" font-family="Helvetica,sans-Serif" font-size="10.00"> &lt; std::string &gt;</text>
</g>
<!-- Node14 -->
<g id="node14" class="node">
<title>Node14</title>
<g id="a_node14"><a xlink:href="classv8_1_1StartupData.html" target="_top" xlink:title=" ">
<polygon fill="white" stroke="black" points="1321.5,-135.5 1321.5,-154.5 1404.5,-154.5 1404.5,-135.5 1321.5,-135.5"/>
<text text-anchor="middle" x="1363" y="-142.5" font-family="Helvetica,sans-Serif" font-size="10.00">v8::StartupData</text>
</a>
</g>
</g>
<!-- Node14&#45;&gt;Node1 -->
<g id="edge17" class="edge">
<title>Node14&#45;&gt;Node1</title>
<path fill="none" stroke="#9a32cd" stroke-dasharray="5,2" d="M1415.12,-146.49C1451.47,-148.91 1500.92,-154.97 1542,-170 1568.84,-179.82 1596.18,-199.47 1611.23,-211.3"/>
<polygon fill="#9a32cd" stroke="#9a32cd" points="1414.95,-142.98 1404.76,-145.88 1414.54,-149.96 1414.95,-142.98"/>
<text text-anchor="middle" x="1494.5" y="-173" font-family="Helvetica,sans-Serif" font-size="10.00"> snapshot_blob</text>
</g>
<!-- Node15 -->
<g id="node15" class="node">
<title>Node15</title>
<g id="a_node15"><a xlink:href="structv8_1_1JitCodeEvent.html" target="_top" xlink:title=" ">
<polygon fill="white" stroke="black" points="1318.5,-97.5 1318.5,-116.5 1407.5,-116.5 1407.5,-97.5 1318.5,-97.5"/>
<text text-anchor="middle" x="1363" y="-104.5" font-family="Helvetica,sans-Serif" font-size="10.00">v8::JitCodeEvent</text>
</a>
</g>
</g>
<!-- Node15&#45;&gt;Node1 -->
<g id="edge18" class="edge">
<title>Node15&#45;&gt;Node1</title>
<path fill="none" stroke="#9a32cd" stroke-dasharray="5,2" d="M1417.9,-106.07C1454.77,-107.54 1503.72,-113.79 1542,-134 1577.4,-152.69 1605.67,-193.02 1617.28,-211.45"/>
<polygon fill="#9a32cd" stroke="#9a32cd" points="1417.93,-102.57 1407.83,-105.77 1417.73,-109.56 1417.93,-102.57"/>
<text text-anchor="middle" x="1494.5" y="-137" font-family="Helvetica,sans-Serif" font-size="10.00"> code_event_handler</text>
</g>
<!-- Node16 -->
<g id="node16" class="node">
<title>Node16</title>
<g id="a_node16"><a xlink:href="structv8_1_1JitCodeEvent_1_1name__t.html" target="_top" xlink:title=" ">
<polygon fill="white" stroke="black" points="985,-135.5 985,-154.5 1111,-154.5 1111,-135.5 985,-135.5"/>
<text text-anchor="middle" x="1048" y="-142.5" font-family="Helvetica,sans-Serif" font-size="10.00">v8::JitCodeEvent::name_t</text>
</a>
</g>
</g>
<!-- Node16&#45;&gt;Node15 -->
<g id="edge19" class="edge">
<title>Node16&#45;&gt;Node15</title>
<path fill="none" stroke="#9a32cd" stroke-dasharray="5,2" d="M1121.12,-138.04C1166.5,-133.44 1226.25,-126.99 1279,-120 1291.72,-118.31 1305.51,-116.25 1318.12,-114.27"/>
<polygon fill="#9a32cd" stroke="#9a32cd" points="1120.68,-134.57 1111.08,-139.05 1121.38,-141.53 1120.68,-134.57"/>
<text text-anchor="middle" x="1210.5" y="-138" font-family="Helvetica,sans-Serif" font-size="10.00"> name</text>
</g>
<!-- Node17 -->
<g id="node17" class="node">
<title>Node17</title>
<g id="a_node17"><a xlink:href="structv8_1_1JitCodeEvent_1_1line__info__t.html" target="_top" xlink:title=" ">
<polygon fill="white" stroke="black" points="696,-72 696,-102 805,-102 805,-72 696,-72"/>
<text text-anchor="start" x="704" y="-90" font-family="Helvetica,sans-Serif" font-size="10.00">v8::JitCodeEvent::line</text>
<text text-anchor="middle" x="750.5" y="-79" font-family="Helvetica,sans-Serif" font-size="10.00">_info_t</text>
</a>
</g>
</g>
<!-- Node17&#45;&gt;Node15 -->
<g id="edge20" class="edge">
<title>Node17&#45;&gt;Node15</title>
<path fill="none" stroke="#9a32cd" stroke-dasharray="5,2" d="M815.28,-89.09C939.73,-93.17 1212.05,-102.09 1318.31,-105.57"/>
<polygon fill="#9a32cd" stroke="#9a32cd" points="815.25,-85.59 805.14,-88.76 815.02,-92.58 815.25,-85.59"/>
<text text-anchor="middle" x="1048" y="-101" font-family="Helvetica,sans-Serif" font-size="10.00"> line_info</text>
</g>
<!-- Node18 -->
<g id="node18" class="node">
<title>Node18</title>
<g id="a_node18"><a xlink:href="structv8_1_1JitCodeEvent_1_1wasm__source__info__t.html" target="_top" xlink:title=" ">
<polygon fill="white" stroke="black" points="988,-39 988,-69 1108,-69 1108,-39 988,-39"/>
<text text-anchor="start" x="996" y="-57" font-family="Helvetica,sans-Serif" font-size="10.00">v8::JitCodeEvent::wasm</text>
<text text-anchor="middle" x="1048" y="-46" font-family="Helvetica,sans-Serif" font-size="10.00">_source_info_t</text>
</a>
</g>
</g>
<!-- Node17&#45;&gt;Node18 -->
<g id="edge22" class="edge">
<title>Node17&#45;&gt;Node18</title>
<path fill="none" stroke="#9a32cd" stroke-dasharray="5,2" d="M814.98,-79.91C866.21,-74.19 937.74,-66.2 987.8,-60.61"/>
<polygon fill="#9a32cd" stroke="#9a32cd" points="814.56,-76.44 805.01,-81.02 815.34,-83.39 814.56,-76.44"/>
<text text-anchor="middle" x="904.5" y="-78" font-family="Helvetica,sans-Serif" font-size="10.00"> line_number_table</text>
</g>
<!-- Node18&#45;&gt;Node15 -->
<g id="edge21" class="edge">
<title>Node18&#45;&gt;Node15</title>
<path fill="none" stroke="#9a32cd" stroke-dasharray="5,2" d="M1118.25,-58.74C1164.2,-62.71 1225.63,-69.61 1279,-81 1298.35,-85.13 1319.63,-91.84 1335.8,-97.41"/>
<polygon fill="#9a32cd" stroke="#9a32cd" points="1118.36,-55.24 1108.1,-57.89 1117.78,-62.21 1118.36,-55.24"/>
<text text-anchor="middle" x="1210.5" y="-84" font-family="Helvetica,sans-Serif" font-size="10.00"> wasm_source_info</text>
</g>
<!-- Node19 -->
<g id="node19" class="node">
<title>Node19</title>
<g id="a_node19"><a xlink:href="classv8_1_1Local.html" target="_top" xlink:title=" ">
<polygon fill="white" stroke="black" points="972,-0.5 972,-19.5 1124,-19.5 1124,-0.5 972,-0.5"/>
<text text-anchor="middle" x="1048" y="-7.5" font-family="Helvetica,sans-Serif" font-size="10.00">v8::Local&lt; v8::UnboundScript &gt;</text>
</a>
</g>
</g>
<!-- Node19&#45;&gt;Node15 -->
<g id="edge23" class="edge">
<title>Node19&#45;&gt;Node15</title>
<path fill="none" stroke="#9a32cd" stroke-dasharray="5,2" d="M1134.41,-13.66C1178.91,-17.95 1233.39,-27.01 1279,-46 1308.72,-58.37 1337.68,-83.5 1352.25,-97.33"/>
<polygon fill="#9a32cd" stroke="#9a32cd" points="1134.48,-10.15 1124.21,-12.74 1133.85,-17.13 1134.48,-10.15"/>
<text text-anchor="middle" x="1210.5" y="-49" font-family="Helvetica,sans-Serif" font-size="10.00"> script</text>
</g>
<!-- Node20 -->
<g id="node20" class="node">
<title>Node20</title>
<g id="a_node20"><a xlink:href="classv8_1_1Local.html" target="_top" xlink:title=" ">
<polygon fill="white" stroke="black" points="711.5,-0.5 711.5,-19.5 789.5,-19.5 789.5,-0.5 711.5,-0.5"/>
<text text-anchor="middle" x="750.5" y="-7.5" font-family="Helvetica,sans-Serif" font-size="10.00">v8::Local&lt; T &gt;</text>
</a>
</g>
</g>
<!-- Node20&#45;&gt;Node19 -->
<g id="edge24" class="edge">
<title>Node20&#45;&gt;Node19</title>
<path fill="none" stroke="orange" stroke-dasharray="5,2" d="M799.67,-10C846.34,-10 917.81,-10 971.94,-10"/>
<polygon fill="orange" stroke="orange" points="799.53,-6.5 789.53,-10 799.53,-13.5 799.53,-6.5"/>
<text text-anchor="middle" x="904.5" y="-13" font-family="Helvetica,sans-Serif" font-size="10.00"> &lt; v8::UnboundScript &gt;</text>
</g>
<!-- Node21 -->
<g id="node21" class="node">
<title>Node21</title>
<g id="a_node21"><a xlink:href="classv8_1_1Isolate.html" target="_top" xlink:title=" ">
<polygon fill="white" stroke="black" points="1017.5,-173.5 1017.5,-192.5 1078.5,-192.5 1078.5,-173.5 1017.5,-173.5"/>
<text text-anchor="middle" x="1048" y="-180.5" font-family="Helvetica,sans-Serif" font-size="10.00">v8::Isolate</text>
</a>
</g>
</g>
<!-- Node21&#45;&gt;Node15 -->
<g id="edge25" class="edge">
<title>Node21&#45;&gt;Node15</title>
<path fill="none" stroke="#9a32cd" stroke-dasharray="5,2" d="M1088.64,-186.13C1137.01,-188.07 1219.67,-185.15 1279,-150 1290.47,-143.2 1286.04,-133.59 1297,-126 1303.38,-121.58 1310.79,-118.18 1318.27,-115.56"/>
<polygon fill="#9a32cd" stroke="#9a32cd" points="1088.73,-182.63 1078.57,-185.64 1088.39,-189.62 1088.73,-182.63"/>
<text text-anchor="middle" x="1210.5" y="-188" font-family="Helvetica,sans-Serif" font-size="10.00"> isolate</text>
</g>
<!-- Node22&#45;&gt;Node1 -->
<g id="edge26" class="edge">
<title>Node22&#45;&gt;Node1</title>
<path fill="none" stroke="#9a32cd" stroke-dasharray="5,2" d="M820.76,-205.35C985.96,-208.57 1401.15,-216.67 1559.91,-219.77"/>
<polygon fill="#9a32cd" stroke="#9a32cd" points="820.78,-201.85 810.72,-205.16 820.65,-208.85 820.78,-201.85"/>
<text text-anchor="middle" x="1210.5" y="-217" font-family="Helvetica,sans-Serif" font-size="10.00"> supported_import_assertions</text>
</g>
<!-- Node23 -->
<g id="node23" class="node">
<title>Node23</title>
<g id="a_node23"><a xlink:title="STL class.">
<polygon fill="white" stroke="#bfbfbf" points="407.5,-160.5 407.5,-179.5 466.5,-179.5 466.5,-160.5 407.5,-160.5"/>
<text text-anchor="middle" x="437" y="-167.5" font-family="Helvetica,sans-Serif" font-size="10.00">std::string</text>
</a>
</g>
</g>
<!-- Node23&#45;&gt;Node22 -->
<g id="edge27" class="edge">
<title>Node23&#45;&gt;Node22</title>
<path fill="none" stroke="#9a32cd" stroke-dasharray="5,2" d="M476.76,-171.18C518.64,-172.78 587.27,-176.38 646,-184 666.05,-186.6 688.08,-190.68 706.64,-194.48"/>
<polygon fill="#9a32cd" stroke="#9a32cd" points="476.83,-167.68 466.71,-170.81 476.57,-174.67 476.83,-167.68"/>
<text text-anchor="middle" x="579" y="-187" font-family="Helvetica,sans-Serif" font-size="10.00"> elements</text>
</g>
<!-- Node24 -->
<g id="node24" class="node">
<title>Node24</title>
<g id="a_node24"><a xlink:title="STL class.">
<polygon fill="white" stroke="#bfbfbf" points="98,-154 98,-184 191,-184 191,-154 98,-154"/>
<text text-anchor="start" x="106" y="-172" font-family="Helvetica,sans-Serif" font-size="10.00">std::basic_string&lt;</text>
<text text-anchor="middle" x="144.5" y="-161" font-family="Helvetica,sans-Serif" font-size="10.00"> char &gt;</text>
</a>
</g>
</g>
<!-- Node24&#45;&gt;Node23 -->
<g id="edge28" class="edge">
<title>Node24&#45;&gt;Node23</title>
<path fill="none" stroke="midnightblue" d="M201.53,-169.19C263.09,-169.4 359.56,-169.74 407.29,-169.9"/>
<polygon fill="midnightblue" stroke="midnightblue" points="201.22,-165.69 191.21,-169.16 201.2,-172.69 201.22,-165.69"/>
</g>
</g>
</svg>
