<?xml version="1.0" encoding="UTF-8" standalone="no"?>
<!DOCTYPE svg PUBLIC "-//W3C//DTD SVG 1.1//EN"
 "http://www.w3.org/Graphics/SVG/1.1/DTD/svg11.dtd">
<!-- Generated by graphviz version 2.44.0 ()
 -->
<!-- Title: cppgc::internal::DijkstraWriteBarrierPolicy::AssigningBarrier Pages: 1 -->
<svg width="518pt" height="137pt"
 viewBox="0.00 0.00 518.00 137.00" xmlns="http://www.w3.org/2000/svg" xmlns:xlink="http://www.w3.org/1999/xlink">
<g id="graph0" class="graph" transform="scale(1 1) rotate(0) translate(4 133)">
<title>cppgc::internal::DijkstraWriteBarrierPolicy::AssigningBarrier</title>
<polygon fill="white" stroke="transparent" points="-4,4 -4,-133 514,-133 514,4 -4,4"/>
<!-- Node1 -->
<g id="node1" class="node">
<title>Node1</title>
<g id="a_node1"><a xlink:title=" ">
<polygon fill="#bfbfbf" stroke="black" points="0,-49.5 0,-79.5 170,-79.5 170,-49.5 0,-49.5"/>
<text text-anchor="start" x="8" y="-67.5" font-family="Helvetica,sans-Serif" font-size="10.00">cppgc::internal::Dijkstra</text>
<text text-anchor="middle" x="85" y="-56.5" font-family="Helvetica,sans-Serif" font-size="10.00">WriteBarrierPolicy::AssigningBarrier</text>
</a>
</g>
</g>
<!-- Node2 -->
<g id="node2" class="node">
<title>Node2</title>
<g id="a_node2"><a xlink:href="classcppgc_1_1internal_1_1WriteBarrier.html#ad8bbc0c512828b14d55c18a6735386e4" target="_top" xlink:title=" ">
<polygon fill="white" stroke="black" points="206,-98.5 206,-128.5 340,-128.5 340,-98.5 206,-98.5"/>
<text text-anchor="start" x="214" y="-116.5" font-family="Helvetica,sans-Serif" font-size="10.00">cppgc::internal::WriteBarrier</text>
<text text-anchor="middle" x="273" y="-105.5" font-family="Helvetica,sans-Serif" font-size="10.00">::DijkstraMarkingBarrier</text>
</a>
</g>
</g>
<!-- Node1&#45;&gt;Node2 -->
<g id="edge1" class="edge">
<title>Node1&#45;&gt;Node2</title>
<path fill="none" stroke="midnightblue" d="M143.07,-79.53C162.71,-84.71 184.87,-90.55 205.22,-95.91"/>
<polygon fill="midnightblue" stroke="midnightblue" points="204.48,-99.33 215.04,-98.49 206.26,-92.56 204.48,-99.33"/>
</g>
<!-- Node4 -->
<g id="node4" class="node">
<title>Node4</title>
<g id="a_node4"><a xlink:href="classcppgc_1_1internal_1_1WriteBarrier.html#a2612b9fbb8bde6e01c511f23cacba483" target="_top" xlink:title=" ">
<polygon fill="white" stroke="black" points="206,-49.5 206,-79.5 340,-79.5 340,-49.5 206,-49.5"/>
<text text-anchor="start" x="214" y="-67.5" font-family="Helvetica,sans-Serif" font-size="10.00">cppgc::internal::WriteBarrier</text>
<text text-anchor="middle" x="273" y="-56.5" font-family="Helvetica,sans-Serif" font-size="10.00">::GenerationalBarrier</text>
</a>
</g>
</g>
<!-- Node1&#45;&gt;Node4 -->
<g id="edge3" class="edge">
<title>Node1&#45;&gt;Node4</title>
<path fill="none" stroke="midnightblue" d="M170.02,-64.5C178.58,-64.5 187.23,-64.5 195.7,-64.5"/>
<polygon fill="midnightblue" stroke="midnightblue" points="195.91,-68 205.91,-64.5 195.91,-61 195.91,-68"/>
</g>
<!-- Node5 -->
<g id="node5" class="node">
<title>Node5</title>
<g id="a_node5"><a xlink:href="classcppgc_1_1internal_1_1WriteBarrier.html#a5a790553beafc26948b06ab62278eefc" target="_top" xlink:title=" ">
<polygon fill="white" stroke="black" points="206,-0.5 206,-30.5 340,-30.5 340,-0.5 206,-0.5"/>
<text text-anchor="start" x="214" y="-18.5" font-family="Helvetica,sans-Serif" font-size="10.00">cppgc::internal::WriteBarrier</text>
<text text-anchor="middle" x="273" y="-7.5" font-family="Helvetica,sans-Serif" font-size="10.00">::GetWriteBarrierType</text>
</a>
</g>
</g>
<!-- Node1&#45;&gt;Node5 -->
<g id="edge4" class="edge">
<title>Node1&#45;&gt;Node5</title>
<path fill="none" stroke="midnightblue" d="M143.07,-49.47C162.71,-44.29 184.87,-38.45 205.22,-33.09"/>
<polygon fill="midnightblue" stroke="midnightblue" points="206.26,-36.44 215.04,-30.51 204.48,-29.67 206.26,-36.44"/>
</g>
<!-- Node3 -->
<g id="node3" class="node">
<title>Node3</title>
<g id="a_node3"><a xlink:href="classcppgc_1_1internal_1_1WriteBarrier.html#a23c41cf46d6e6c09033835fda0aaea1e" target="_top" xlink:title=" ">
<polygon fill="white" stroke="black" points="376,-98.5 376,-128.5 510,-128.5 510,-98.5 376,-98.5"/>
<text text-anchor="start" x="384" y="-116.5" font-family="Helvetica,sans-Serif" font-size="10.00">cppgc::internal::WriteBarrier</text>
<text text-anchor="middle" x="443" y="-105.5" font-family="Helvetica,sans-Serif" font-size="10.00">::CheckParams</text>
</a>
</g>
</g>
<!-- Node2&#45;&gt;Node3 -->
<g id="edge2" class="edge">
<title>Node2&#45;&gt;Node3</title>
<path fill="none" stroke="midnightblue" d="M340.4,-113.5C348.68,-113.5 357.2,-113.5 365.62,-113.5"/>
<polygon fill="midnightblue" stroke="midnightblue" points="365.81,-117 375.81,-113.5 365.81,-110 365.81,-117"/>
</g>
</g>
</svg>
