<?xml version="1.0" encoding="UTF-8" standalone="no"?>
<!DOCTYPE svg PUBLIC "-//W3C//DTD SVG 1.1//EN"
 "http://www.w3.org/Graphics/SVG/1.1/DTD/svg11.dtd">
<!-- Generated by graphviz version 2.44.0 ()
 -->
<!-- Title: cppgc::internal::TraceTraitBase::Trace Pages: 1 -->
<svg width="280pt" height="88pt"
 viewBox="0.00 0.00 280.00 88.00" xmlns="http://www.w3.org/2000/svg" xmlns:xlink="http://www.w3.org/1999/xlink">
<g id="graph0" class="graph" transform="scale(1 1) rotate(0) translate(4 84)">
<title>cppgc::internal::TraceTraitBase::Trace</title>
<polygon fill="white" stroke="transparent" points="-4,4 -4,-84 276,-84 276,4 -4,4"/>
<!-- Node1 -->
<g id="node1" class="node">
<title>Node1</title>
<g id="a_node1"><a xlink:title=" ">
<polygon fill="#bfbfbf" stroke="black" points="144,-30 144,-60 272,-60 272,-30 144,-30"/>
<text text-anchor="start" x="152" y="-48" font-family="Helvetica,sans-Serif" font-size="10.00">cppgc::internal::TraceTrait</text>
<text text-anchor="middle" x="208" y="-37" font-family="Helvetica,sans-Serif" font-size="10.00">Base::Trace</text>
</a>
</g>
</g>
<!-- Node2 -->
<g id="node2" class="node">
<title>Node2</title>
<g id="a_node2"><a xlink:href="classcppgc_1_1Visitor.html#a83e810379a6baf5fa4aef855f1536efc" target="_top" xlink:title=" ">
<polygon fill="white" stroke="black" points="2,-60.5 2,-79.5 106,-79.5 106,-60.5 2,-60.5"/>
<text text-anchor="middle" x="54" y="-67.5" font-family="Helvetica,sans-Serif" font-size="10.00">cppgc::Visitor::Trace</text>
</a>
</g>
</g>
<!-- Node1&#45;&gt;Node2 -->
<g id="edge1" class="edge">
<title>Node1&#45;&gt;Node2</title>
<path fill="none" stroke="midnightblue" d="M133.77,-57.04C124.43,-58.58 115.04,-60.13 106.15,-61.59"/>
<polygon fill="midnightblue" stroke="midnightblue" points="134.56,-60.46 143.86,-55.39 133.42,-53.55 134.56,-60.46"/>
</g>
<!-- Node3 -->
<g id="node3" class="node">
<title>Node3</title>
<g id="a_node3"><a xlink:href="structcppgc_1_1TraceTrait_3_01v8_1_1TracedReference_3_01T_01_4_01_4.html#af818ee23c0d19ada21a0373e569aafda" target="_top" xlink:title=" ">
<polygon fill="white" stroke="black" points="0,-0.5 0,-41.5 108,-41.5 108,-0.5 0,-0.5"/>
<text text-anchor="start" x="8" y="-29.5" font-family="Helvetica,sans-Serif" font-size="10.00">cppgc::TraceTrait&lt;</text>
<text text-anchor="start" x="8" y="-18.5" font-family="Helvetica,sans-Serif" font-size="10.00"> v8::TracedReference</text>
<text text-anchor="middle" x="54" y="-7.5" font-family="Helvetica,sans-Serif" font-size="10.00">&lt; T &gt; &gt;::Trace</text>
</a>
</g>
</g>
<!-- Node1&#45;&gt;Node3 -->
<g id="edge2" class="edge">
<title>Node1&#45;&gt;Node3</title>
<path fill="none" stroke="midnightblue" d="M133.74,-33.43C125.07,-32.06 116.36,-30.69 108.05,-29.38"/>
<polygon fill="midnightblue" stroke="midnightblue" points="133.44,-36.93 143.86,-35.03 134.53,-30.01 133.44,-36.93"/>
</g>
</g>
</svg>
