<?xml version="1.0" encoding="UTF-8" standalone="no"?>
<!DOCTYPE svg PUBLIC "-//W3C//DTD SVG 1.1//EN"
 "http://www.w3.org/Graphics/SVG/1.1/DTD/svg11.dtd">
<!-- Generated by graphviz version 2.44.0 ()
 -->
<!-- Title: cppgc::internal::IsWeak&lt; BasicPersistent&lt; T, internal::WeakPersistentPolicy, LocationPolicy, CheckingPolicy &gt; &gt; Pages: 1 -->
<svg width="179pt" height="117pt"
 viewBox="0.00 0.00 179.00 117.00" xmlns="http://www.w3.org/2000/svg" xmlns:xlink="http://www.w3.org/1999/xlink">
<g id="graph0" class="graph" transform="scale(1 1) rotate(0) translate(4 113)">
<title>cppgc::internal::IsWeak&lt; BasicPersistent&lt; T, internal::WeakPersistentPolicy, LocationPolicy, CheckingPolicy &gt; &gt;</title>
<polygon fill="white" stroke="transparent" points="-4,4 -4,-113 175,-113 175,4 -4,4"/>
<!-- Node1 -->
<g id="node1" class="node">
<title>Node1</title>
<g id="a_node1"><a xlink:title=" ">
<polygon fill="#bfbfbf" stroke="black" points="0,-0.5 0,-52.5 171,-52.5 171,-0.5 0,-0.5"/>
<text text-anchor="start" x="8" y="-40.5" font-family="Helvetica,sans-Serif" font-size="10.00">cppgc::internal::IsWeak</text>
<text text-anchor="start" x="8" y="-29.5" font-family="Helvetica,sans-Serif" font-size="10.00">&lt; BasicPersistent&lt; T,</text>
<text text-anchor="start" x="8" y="-18.5" font-family="Helvetica,sans-Serif" font-size="10.00"> internal::WeakPersistentPolicy,</text>
<text text-anchor="middle" x="85.5" y="-7.5" font-family="Helvetica,sans-Serif" font-size="10.00"> LocationPolicy, CheckingPolicy &gt; &gt;</text>
</a>
</g>
</g>
<!-- Node2 -->
<g id="node2" class="node">
<title>Node2</title>
<g id="a_node2"><a xlink:title=" ">
<polygon fill="white" stroke="#bfbfbf" points="57.5,-89.5 57.5,-108.5 113.5,-108.5 113.5,-89.5 57.5,-89.5"/>
<text text-anchor="middle" x="85.5" y="-96.5" font-family="Helvetica,sans-Serif" font-size="10.00">true_type</text>
</a>
</g>
</g>
<!-- Node2&#45;&gt;Node1 -->
<g id="edge1" class="edge">
<title>Node2&#45;&gt;Node1</title>
<path fill="none" stroke="midnightblue" d="M85.5,-79.1C85.5,-70.96 85.5,-61.33 85.5,-52.6"/>
<polygon fill="midnightblue" stroke="midnightblue" points="82,-79.36 85.5,-89.36 89,-79.36 82,-79.36"/>
</g>
</g>
</svg>
