<?xml version="1.0" encoding="UTF-8" standalone="no"?>
<!DOCTYPE svg PUBLIC "-//W3C//DTD SVG 1.1//EN"
 "http://www.w3.org/Graphics/SVG/1.1/DTD/svg11.dtd">
<!-- Generated by graphviz version 2.44.0 ()
 -->
<!-- Title: v8::CppHeapCreateParams Pages: 1 -->
<svg width="399pt" height="327pt"
 viewBox="0.00 0.00 398.50 327.00" xmlns="http://www.w3.org/2000/svg" xmlns:xlink="http://www.w3.org/1999/xlink">
<g id="graph0" class="graph" transform="scale(1 1) rotate(0) translate(4 323)">
<title>v8::CppHeapCreateParams</title>
<polygon fill="white" stroke="transparent" points="-4,4 -4,-323 394.5,-323 394.5,4 -4,4"/>
<!-- Node1 -->
<g id="node1" class="node">
<title>Node1</title>
<g id="a_node1"><a xlink:title=" ">
<polygon fill="#bfbfbf" stroke="black" points="104.5,-0.5 104.5,-19.5 238.5,-19.5 238.5,-0.5 104.5,-0.5"/>
<text text-anchor="middle" x="171.5" y="-7.5" font-family="Helvetica,sans-Serif" font-size="10.00">v8::CppHeapCreateParams</text>
</a>
</g>
</g>
<!-- Node2 -->
<g id="node2" class="node">
<title>Node2</title>
<g id="a_node2"><a xlink:title=" ">
<polygon fill="white" stroke="#bfbfbf" points="85,-67.5 85,-97.5 258,-97.5 258,-67.5 85,-67.5"/>
<text text-anchor="start" x="93" y="-85.5" font-family="Helvetica,sans-Serif" font-size="10.00">std::vector&lt; std::unique</text>
<text text-anchor="middle" x="171.5" y="-74.5" font-family="Helvetica,sans-Serif" font-size="10.00">_ptr&lt; cppgc::CustomSpaceBase &gt; &gt;</text>
</a>
</g>
</g>
<!-- Node2&#45;&gt;Node1 -->
<g id="edge1" class="edge">
<title>Node2&#45;&gt;Node1</title>
<path fill="none" stroke="#9a32cd" stroke-dasharray="5,2" d="M171.5,-57.09C171.5,-44.21 171.5,-29.2 171.5,-19.89"/>
<polygon fill="#9a32cd" stroke="#9a32cd" points="168,-57.23 171.5,-67.23 175,-57.23 168,-57.23"/>
<text text-anchor="middle" x="207.5" y="-41" font-family="Helvetica,sans-Serif" font-size="10.00"> custom_spaces</text>
</g>
<!-- Node3 -->
<g id="node3" class="node">
<title>Node3</title>
<g id="a_node3"><a xlink:title=" ">
<polygon fill="white" stroke="#bfbfbf" points="45.5,-145.5 45.5,-175.5 159.5,-175.5 159.5,-145.5 45.5,-145.5"/>
<text text-anchor="start" x="53.5" y="-163.5" font-family="Helvetica,sans-Serif" font-size="10.00">std::unique_ptr&lt; cppgc</text>
<text text-anchor="middle" x="102.5" y="-152.5" font-family="Helvetica,sans-Serif" font-size="10.00">::CustomSpaceBase &gt;</text>
</a>
</g>
</g>
<!-- Node3&#45;&gt;Node2 -->
<g id="edge2" class="edge">
<title>Node3&#45;&gt;Node2</title>
<path fill="none" stroke="#9a32cd" stroke-dasharray="5,2" d="M122.32,-137.67C133.98,-124.83 148.38,-108.97 158.58,-97.73"/>
<polygon fill="#9a32cd" stroke="#9a32cd" points="119.61,-135.45 115.48,-145.2 124.79,-140.15 119.61,-135.45"/>
<text text-anchor="middle" x="163" y="-119" font-family="Helvetica,sans-Serif" font-size="10.00"> elements</text>
</g>
<!-- Node4 -->
<g id="node4" class="node">
<title>Node4</title>
<g id="a_node4"><a xlink:href="classcppgc_1_1CustomSpaceBase.html" target="_top" xlink:title=" ">
<polygon fill="white" stroke="black" points="0,-232.5 0,-251.5 131,-251.5 131,-232.5 0,-232.5"/>
<text text-anchor="middle" x="65.5" y="-239.5" font-family="Helvetica,sans-Serif" font-size="10.00">cppgc::CustomSpaceBase</text>
</a>
</g>
</g>
<!-- Node4&#45;&gt;Node3 -->
<g id="edge3" class="edge">
<title>Node4&#45;&gt;Node3</title>
<path fill="none" stroke="#9a32cd" stroke-dasharray="5,2" d="M62.55,-222.09C61.98,-213.2 62.54,-202.66 66.5,-194 69.72,-186.95 75.28,-180.78 81.07,-175.75"/>
<polygon fill="#9a32cd" stroke="#9a32cd" points="59.09,-222.68 63.69,-232.23 66.05,-221.9 59.09,-222.68"/>
<text text-anchor="middle" x="73.5" y="-201.5" font-family="Helvetica,sans-Serif" font-size="10.00"> ptr</text>
</g>
<!-- Node5 -->
<g id="node5" class="node">
<title>Node5</title>
<g id="a_node5"><a xlink:title="STL class.">
<polygon fill="white" stroke="#bfbfbf" points="151.5,-232.5 151.5,-251.5 253.5,-251.5 253.5,-232.5 151.5,-232.5"/>
<text text-anchor="middle" x="202.5" y="-239.5" font-family="Helvetica,sans-Serif" font-size="10.00">std::unique_ptr&lt; T &gt;</text>
</a>
</g>
</g>
<!-- Node5&#45;&gt;Node3 -->
<g id="edge4" class="edge">
<title>Node5&#45;&gt;Node3</title>
<path fill="none" stroke="orange" stroke-dasharray="5,2" d="M141.56,-231.69C122.24,-227.41 104.36,-221.57 98.5,-214 90.22,-203.3 92.85,-187.42 96.55,-175.93"/>
<polygon fill="orange" stroke="orange" points="140.93,-235.14 151.43,-233.73 142.34,-228.28 140.93,-235.14"/>
<text text-anchor="middle" x="165.5" y="-201.5" font-family="Helvetica,sans-Serif" font-size="10.00"> &lt; cppgc::CustomSpaceBase &gt;</text>
</g>
<!-- Node6 -->
<g id="node6" class="node">
<title>Node6</title>
<g id="a_node6"><a xlink:title=" ">
<polygon fill="white" stroke="#bfbfbf" points="228,-299.5 228,-318.5 257,-318.5 257,-299.5 228,-299.5"/>
<text text-anchor="middle" x="242.5" y="-306.5" font-family="Helvetica,sans-Serif" font-size="10.00">T</text>
</a>
</g>
</g>
<!-- Node6&#45;&gt;Node5 -->
<g id="edge5" class="edge">
<title>Node6&#45;&gt;Node5</title>
<path fill="none" stroke="#9a32cd" stroke-dasharray="5,2" d="M231.75,-290.53C224.01,-277.95 213.89,-261.51 207.81,-251.63"/>
<polygon fill="#9a32cd" stroke="#9a32cd" points="228.88,-292.55 237.11,-299.23 234.85,-288.88 228.88,-292.55"/>
<text text-anchor="middle" x="232.5" y="-273" font-family="Helvetica,sans-Serif" font-size="10.00"> ptr</text>
</g>
<!-- Node7 -->
<g id="node7" class="node">
<title>Node7</title>
<g id="a_node7"><a xlink:title="STL class.">
<polygon fill="white" stroke="#bfbfbf" points="241.5,-194.5 241.5,-213.5 325.5,-213.5 325.5,-194.5 241.5,-194.5"/>
<text text-anchor="middle" x="283.5" y="-201.5" font-family="Helvetica,sans-Serif" font-size="10.00">std::vector&lt; T &gt;</text>
</a>
</g>
</g>
<!-- Node6&#45;&gt;Node7 -->
<g id="edge7" class="edge">
<title>Node6&#45;&gt;Node7</title>
<path fill="none" stroke="#9a32cd" stroke-dasharray="5,2" d="M249.72,-289.86C258.61,-267.53 273.33,-230.54 280.01,-213.76"/>
<polygon fill="#9a32cd" stroke="#9a32cd" points="246.44,-288.63 246,-299.22 252.95,-291.22 246.44,-288.63"/>
<text text-anchor="middle" x="278" y="-273" font-family="Helvetica,sans-Serif" font-size="10.00"> elements</text>
</g>
<!-- Node7&#45;&gt;Node2 -->
<g id="edge6" class="edge">
<title>Node7&#45;&gt;Node2</title>
<path fill="none" stroke="orange" stroke-dasharray="5,2" d="M268.51,-187.01C246.53,-163.55 205.88,-120.18 184.86,-97.76"/>
<polygon fill="orange" stroke="orange" points="266.05,-189.5 275.45,-194.41 271.16,-184.72 266.05,-189.5"/>
<text text-anchor="start" x="256.5" y="-163.5" font-family="Helvetica,sans-Serif" font-size="10.00"> &lt; std::unique_ptr&lt;</text>
<text text-anchor="middle" x="323.5" y="-152.5" font-family="Helvetica,sans-Serif" font-size="10.00"> cppgc::CustomSpaceBase &gt; &gt;</text>
</g>
</g>
</svg>
