<?xml version="1.0" encoding="UTF-8" standalone="no"?>
<!DOCTYPE svg PUBLIC "-//W3C//DTD SVG 1.1//EN"
 "http://www.w3.org/Graphics/SVG/1.1/DTD/svg11.dtd">
<!-- Generated by graphviz version 2.44.0 ()
 -->
<!-- Title: include/cppgc/trace&#45;trait.h Pages: 1 -->
<svg width="755pt" height="486pt"
 viewBox="0.00 0.00 754.58 486.00" xmlns="http://www.w3.org/2000/svg" xmlns:xlink="http://www.w3.org/1999/xlink">
<g id="graph0" class="graph" transform="scale(1 1) rotate(0) translate(4 482)">
<title>include/cppgc/trace&#45;trait.h</title>
<polygon fill="white" stroke="transparent" points="-4,4 -4,-482 750.58,-482 750.58,4 -4,4"/>
<!-- Node1 -->
<g id="node1" class="node">
<title>Node1</title>
<g id="a_node1"><a xlink:title=" ">
<polygon fill="#bfbfbf" stroke="black" points="192.58,-447.5 192.58,-477.5 293.58,-477.5 293.58,-447.5 192.58,-447.5"/>
<text text-anchor="start" x="200.58" y="-465.5" font-family="Helvetica,sans-Serif" font-size="10.00">include/cppgc/trace</text>
<text text-anchor="middle" x="243.08" y="-454.5" font-family="Helvetica,sans-Serif" font-size="10.00">&#45;trait.h</text>
</a>
</g>
</g>
<!-- Node2 -->
<g id="node2" class="node">
<title>Node2</title>
<g id="a_node2"><a xlink:href="garbage-collected_8h.html" target="_top" xlink:title=" ">
<polygon fill="white" stroke="black" points="186.08,-380.5 186.08,-410.5 300.08,-410.5 300.08,-380.5 186.08,-380.5"/>
<text text-anchor="start" x="194.08" y="-398.5" font-family="Helvetica,sans-Serif" font-size="10.00">include/cppgc/garbage</text>
<text text-anchor="middle" x="243.08" y="-387.5" font-family="Helvetica,sans-Serif" font-size="10.00">&#45;collected.h</text>
</a>
</g>
</g>
<!-- Node1&#45;&gt;Node2 -->
<g id="edge1" class="edge">
<title>Node1&#45;&gt;Node2</title>
<path fill="none" stroke="midnightblue" d="M243.08,-437.11C243.08,-428.15 243.08,-418.32 243.08,-410.58"/>
<polygon fill="midnightblue" stroke="midnightblue" points="239.58,-437.4 243.08,-447.4 246.58,-437.4 239.58,-437.4"/>
</g>
<!-- Node4 -->
<g id="node4" class="node">
<title>Node4</title>
<g id="a_node4"><a xlink:href="visitor_8h.html" target="_top" xlink:title=" ">
<polygon fill="white" stroke="black" points="316.58,-129 316.58,-148 429.58,-148 429.58,-129 316.58,-129"/>
<text text-anchor="middle" x="373.08" y="-136" font-family="Helvetica,sans-Serif" font-size="10.00">include/cppgc/visitor.h</text>
</a>
</g>
</g>
<!-- Node1&#45;&gt;Node4 -->
<g id="edge30" class="edge">
<title>Node1&#45;&gt;Node4</title>
<path fill="none" stroke="midnightblue" d="M280.58,-441.83C291.85,-433.88 302.87,-423.58 309.08,-411 352.62,-322.86 254.44,-277.07 300.08,-190 310.67,-169.8 333.41,-156.08 350.72,-148.09"/>
<polygon fill="midnightblue" stroke="midnightblue" points="278.45,-439.05 271.99,-447.45 282.28,-444.91 278.45,-439.05"/>
</g>
<!-- Node8 -->
<g id="node8" class="node">
<title>Node8</title>
<g id="a_node8"><a xlink:href="gc-info_8h.html" target="_top" xlink:title=" ">
<polygon fill="white" stroke="black" points="56.58,-380.5 56.58,-410.5 167.58,-410.5 167.58,-380.5 56.58,-380.5"/>
<text text-anchor="start" x="64.58" y="-398.5" font-family="Helvetica,sans-Serif" font-size="10.00">include/cppgc/internal</text>
<text text-anchor="middle" x="112.08" y="-387.5" font-family="Helvetica,sans-Serif" font-size="10.00">/gc&#45;info.h</text>
</a>
</g>
</g>
<!-- Node1&#45;&gt;Node8 -->
<g id="edge8" class="edge">
<title>Node1&#45;&gt;Node8</title>
<path fill="none" stroke="midnightblue" d="M205.5,-442.85C184.79,-432.58 159.49,-420.03 140.45,-410.58"/>
<polygon fill="midnightblue" stroke="midnightblue" points="204.14,-446.09 214.65,-447.4 207.25,-439.82 204.14,-446.09"/>
</g>
<!-- Node9 -->
<g id="node9" class="node">
<title>Node9</title>
<g id="a_node9"><a xlink:href="persistent-node_8h.html" target="_top" xlink:title=" ">
<polygon fill="white" stroke="black" points="17.58,-123.5 17.58,-153.5 128.58,-153.5 128.58,-123.5 17.58,-123.5"/>
<text text-anchor="start" x="25.58" y="-141.5" font-family="Helvetica,sans-Serif" font-size="10.00">include/cppgc/internal</text>
<text text-anchor="middle" x="73.08" y="-130.5" font-family="Helvetica,sans-Serif" font-size="10.00">/persistent&#45;node.h</text>
</a>
</g>
</g>
<!-- Node1&#45;&gt;Node9 -->
<g id="edge10" class="edge">
<title>Node1&#45;&gt;Node9</title>
<path fill="none" stroke="midnightblue" d="M182.05,-452.81C131.77,-444.42 65.8,-430.16 47.08,-411 21.09,-384.4 28.08,-366.69 28.08,-329.5 28.08,-329.5 28.08,-329.5 28.08,-266 28.08,-223.11 51.33,-176.52 64.4,-153.71"/>
<polygon fill="midnightblue" stroke="midnightblue" points="181.76,-456.31 192.2,-454.46 182.89,-449.4 181.76,-456.31"/>
</g>
<!-- Node10 -->
<g id="node10" class="node">
<title>Node10</title>
<g id="a_node10"><a xlink:href="write-barrier_8h.html" target="_top" xlink:title=" ">
<polygon fill="white" stroke="black" points="497.58,-380.5 497.58,-410.5 608.58,-410.5 608.58,-380.5 497.58,-380.5"/>
<text text-anchor="start" x="505.58" y="-398.5" font-family="Helvetica,sans-Serif" font-size="10.00">include/cppgc/internal</text>
<text text-anchor="middle" x="553.08" y="-387.5" font-family="Helvetica,sans-Serif" font-size="10.00">/write&#45;barrier.h</text>
</a>
</g>
</g>
<!-- Node1&#45;&gt;Node10 -->
<g id="edge13" class="edge">
<title>Node1&#45;&gt;Node10</title>
<path fill="none" stroke="midnightblue" d="M303.75,-448.78C359.98,-436.99 442.95,-419.59 497.49,-408.15"/>
<polygon fill="midnightblue" stroke="midnightblue" points="302.99,-445.36 293.92,-450.84 304.43,-452.21 302.99,-445.36"/>
</g>
<!-- Node14 -->
<g id="node14" class="node">
<title>Node14</title>
<g id="a_node14"><a xlink:href="liveness-broker_8h.html" target="_top" xlink:title=" ">
<polygon fill="white" stroke="black" points="99.08,-190.5 99.08,-220.5 215.08,-220.5 215.08,-190.5 99.08,-190.5"/>
<text text-anchor="start" x="107.08" y="-208.5" font-family="Helvetica,sans-Serif" font-size="10.00">include/cppgc/liveness</text>
<text text-anchor="middle" x="157.08" y="-197.5" font-family="Helvetica,sans-Serif" font-size="10.00">&#45;broker.h</text>
</a>
</g>
</g>
<!-- Node1&#45;&gt;Node14 -->
<g id="edge29" class="edge">
<title>Node1&#45;&gt;Node14</title>
<path fill="none" stroke="midnightblue" d="M182.15,-456.54C121.58,-450.2 34.81,-436.8 14.08,-411 -40.87,-342.61 80.59,-254.46 133.75,-220.6"/>
<polygon fill="midnightblue" stroke="midnightblue" points="182.08,-460.05 192.38,-457.57 182.78,-453.09 182.08,-460.05"/>
</g>
<!-- Node17 -->
<g id="node17" class="node">
<title>Node17</title>
<g id="a_node17"><a xlink:href="heap-consistency_8h.html" target="_top" xlink:title=" ">
<polygon fill="white" stroke="black" points="645.58,-313.5 645.58,-343.5 746.58,-343.5 746.58,-313.5 645.58,-313.5"/>
<text text-anchor="start" x="653.58" y="-331.5" font-family="Helvetica,sans-Serif" font-size="10.00">include/cppgc/heap</text>
<text text-anchor="middle" x="696.08" y="-320.5" font-family="Helvetica,sans-Serif" font-size="10.00">&#45;consistency.h</text>
</a>
</g>
</g>
<!-- Node1&#45;&gt;Node17 -->
<g id="edge31" class="edge">
<title>Node1&#45;&gt;Node17</title>
<path fill="none" stroke="midnightblue" d="M303.9,-458.18C395.65,-452.37 564.47,-438.27 618.08,-411 648.98,-395.28 674.44,-362.34 687.21,-343.5"/>
<polygon fill="midnightblue" stroke="midnightblue" points="303.68,-454.69 293.91,-458.8 304.11,-461.68 303.68,-454.69"/>
</g>
<!-- Node3 -->
<g id="node3" class="node">
<title>Node3</title>
<g id="a_node3"><a xlink:href="allocation_8h.html" target="_top" xlink:title=" ">
<polygon fill="white" stroke="black" points="72.08,-319 72.08,-338 200.08,-338 200.08,-319 72.08,-319"/>
<text text-anchor="middle" x="136.08" y="-326" font-family="Helvetica,sans-Serif" font-size="10.00">include/cppgc/allocation.h</text>
</a>
</g>
</g>
<!-- Node2&#45;&gt;Node3 -->
<g id="edge2" class="edge">
<title>Node2&#45;&gt;Node3</title>
<path fill="none" stroke="midnightblue" d="M211.21,-375.14C190.88,-362.79 165.52,-347.39 150.08,-338.01"/>
<polygon fill="midnightblue" stroke="midnightblue" points="209.5,-378.2 219.86,-380.4 213.13,-372.21 209.5,-378.2"/>
</g>
<!-- Node2&#45;&gt;Node4 -->
<g id="edge3" class="edge">
<title>Node2&#45;&gt;Node4</title>
<path fill="none" stroke="midnightblue" d="M238.99,-370.56C233.36,-329.48 227.91,-244.69 267.08,-190 282.87,-167.96 310.86,-155.19 334.12,-148.01"/>
<polygon fill="midnightblue" stroke="midnightblue" points="235.54,-371.11 240.48,-380.48 242.46,-370.07 235.54,-371.11"/>
</g>
<!-- Node5 -->
<g id="node5" class="node">
<title>Node5</title>
<g id="a_node5"><a xlink:href="persistent_8h.html" target="_top" xlink:title=" ">
<polygon fill="white" stroke="black" points="264.08,-67.5 264.08,-86.5 394.08,-86.5 394.08,-67.5 264.08,-67.5"/>
<text text-anchor="middle" x="329.08" y="-74.5" font-family="Helvetica,sans-Serif" font-size="10.00">include/cppgc/persistent.h</text>
</a>
</g>
</g>
<!-- Node4&#45;&gt;Node5 -->
<g id="edge4" class="edge">
<title>Node4&#45;&gt;Node5</title>
<path fill="none" stroke="midnightblue" d="M360.76,-120.84C352.5,-109.67 341.97,-95.43 335.37,-86.51"/>
<polygon fill="midnightblue" stroke="midnightblue" points="358.01,-123.02 366.77,-128.98 363.64,-118.85 358.01,-123.02"/>
</g>
<!-- Node6 -->
<g id="node6" class="node">
<title>Node6</title>
<g id="a_node6"><a xlink:href="cross-thread-persistent_8h.html" target="_top" xlink:title=" ">
<polygon fill="white" stroke="black" points="323.08,-0.5 323.08,-30.5 427.08,-30.5 427.08,-0.5 323.08,-0.5"/>
<text text-anchor="start" x="331.08" y="-18.5" font-family="Helvetica,sans-Serif" font-size="10.00">include/cppgc/cross</text>
<text text-anchor="middle" x="375.08" y="-7.5" font-family="Helvetica,sans-Serif" font-size="10.00">&#45;thread&#45;persistent.h</text>
</a>
</g>
</g>
<!-- Node4&#45;&gt;Node6 -->
<g id="edge6" class="edge">
<title>Node4&#45;&gt;Node6</title>
<path fill="none" stroke="midnightblue" d="M386.27,-120.57C392.7,-111.23 399.76,-99.1 403.08,-87 408.59,-66.93 396.63,-44.78 386.67,-30.76"/>
<polygon fill="midnightblue" stroke="midnightblue" points="383.27,-118.73 380.2,-128.87 388.93,-122.86 383.27,-118.73"/>
</g>
<!-- Node7 -->
<g id="node7" class="node">
<title>Node7</title>
<g id="a_node7"><a xlink:href="v8-cppgc_8h.html" target="_top" xlink:title=" ">
<polygon fill="white" stroke="black" points="452.08,-67.5 452.08,-86.5 550.08,-86.5 550.08,-67.5 452.08,-67.5"/>
<text text-anchor="middle" x="501.08" y="-74.5" font-family="Helvetica,sans-Serif" font-size="10.00">include/v8&#45;cppgc.h</text>
</a>
</g>
</g>
<!-- Node4&#45;&gt;Node7 -->
<g id="edge7" class="edge">
<title>Node4&#45;&gt;Node7</title>
<path fill="none" stroke="midnightblue" d="M400.67,-124.67C425.51,-113.13 461.31,-96.49 482.77,-86.51"/>
<polygon fill="midnightblue" stroke="midnightblue" points="399.01,-121.59 391.42,-128.98 401.96,-127.93 399.01,-121.59"/>
</g>
<!-- Node5&#45;&gt;Node6 -->
<g id="edge5" class="edge">
<title>Node5&#45;&gt;Node6</title>
<path fill="none" stroke="midnightblue" d="M341.81,-59.53C348.86,-50.42 357.52,-39.21 364.24,-30.52"/>
<polygon fill="midnightblue" stroke="midnightblue" points="339.02,-57.42 335.67,-67.48 344.56,-61.7 339.02,-57.42"/>
</g>
<!-- Node8&#45;&gt;Node3 -->
<g id="edge9" class="edge">
<title>Node8&#45;&gt;Node3</title>
<path fill="none" stroke="midnightblue" d="M120.78,-370.94C124.99,-359.54 129.79,-346.55 132.87,-338.19"/>
<polygon fill="midnightblue" stroke="midnightblue" points="117.47,-369.8 117.29,-380.4 124.03,-372.23 117.47,-369.8"/>
</g>
<!-- Node9&#45;&gt;Node5 -->
<g id="edge12" class="edge">
<title>Node9&#45;&gt;Node5</title>
<path fill="none" stroke="midnightblue" d="M138.47,-122.3C187.24,-110.97 252.11,-95.89 292.2,-86.57"/>
<polygon fill="midnightblue" stroke="midnightblue" points="137.58,-118.92 128.63,-124.59 139.16,-125.73 137.58,-118.92"/>
</g>
<!-- Node9&#45;&gt;Node6 -->
<g id="edge11" class="edge">
<title>Node9&#45;&gt;Node6</title>
<path fill="none" stroke="midnightblue" d="M76.24,-113.23C79.56,-97.72 86.32,-78.43 100.08,-67 133.26,-39.43 252.94,-25.8 323.01,-20.04"/>
<polygon fill="midnightblue" stroke="midnightblue" points="72.77,-112.76 74.45,-123.22 79.66,-114 72.77,-112.76"/>
</g>
<!-- Node10&#45;&gt;Node7 -->
<g id="edge28" class="edge">
<title>Node10&#45;&gt;Node7</title>
<path fill="none" stroke="midnightblue" d="M576.48,-372.93C584.35,-364.57 592.53,-354.49 598.08,-344 614.36,-313.22 617.08,-302.82 617.08,-268 617.08,-268 617.08,-268 617.08,-204.5 617.08,-146.84 550.81,-104.07 518.45,-86.63"/>
<polygon fill="midnightblue" stroke="midnightblue" points="573.96,-370.5 569.42,-380.08 578.94,-375.42 573.96,-370.5"/>
</g>
<!-- Node11 -->
<g id="node11" class="node">
<title>Node11</title>
<g id="a_node11"><a xlink:href="pointer-policies_8h.html" target="_top" xlink:title=" ">
<polygon fill="white" stroke="black" points="477.58,-313.5 477.58,-343.5 588.58,-343.5 588.58,-313.5 477.58,-313.5"/>
<text text-anchor="start" x="485.58" y="-331.5" font-family="Helvetica,sans-Serif" font-size="10.00">include/cppgc/internal</text>
<text text-anchor="middle" x="533.08" y="-320.5" font-family="Helvetica,sans-Serif" font-size="10.00">/pointer&#45;policies.h</text>
</a>
</g>
</g>
<!-- Node10&#45;&gt;Node11 -->
<g id="edge14" class="edge">
<title>Node10&#45;&gt;Node11</title>
<path fill="none" stroke="midnightblue" d="M545.76,-370.7C542.95,-361.59 539.85,-351.49 537.41,-343.58"/>
<polygon fill="midnightblue" stroke="midnightblue" points="542.45,-371.87 548.74,-380.4 549.14,-369.81 542.45,-371.87"/>
</g>
<!-- Node10&#45;&gt;Node17 -->
<g id="edge27" class="edge">
<title>Node10&#45;&gt;Node17</title>
<path fill="none" stroke="midnightblue" d="M593.49,-376.13C616.21,-365.8 644.14,-353.11 665.11,-343.58"/>
<polygon fill="midnightblue" stroke="midnightblue" points="591.76,-373.07 584.11,-380.4 594.66,-379.44 591.76,-373.07"/>
</g>
<!-- Node11&#45;&gt;Node4 -->
<g id="edge26" class="edge">
<title>Node11&#45;&gt;Node4</title>
<path fill="none" stroke="midnightblue" d="M525.62,-303.9C515.3,-274.31 494.22,-223.44 462.08,-190 443.37,-170.53 415.5,-156.38 395.94,-148.09"/>
<polygon fill="midnightblue" stroke="midnightblue" points="522.32,-305.05 528.82,-313.41 528.95,-302.81 522.32,-305.05"/>
</g>
<!-- Node11&#45;&gt;Node5 -->
<g id="edge16" class="edge">
<title>Node11&#45;&gt;Node5</title>
<path fill="none" stroke="midnightblue" d="M532.17,-303.22C531.11,-289.4 528.86,-271.93 524.08,-257 502.56,-189.84 494.63,-166.45 439.08,-123 416.49,-105.33 386,-93.58 362.85,-86.53"/>
<polygon fill="midnightblue" stroke="midnightblue" points="528.69,-303.63 532.78,-313.4 535.67,-303.2 528.69,-303.63"/>
</g>
<!-- Node11&#45;&gt;Node6 -->
<g id="edge15" class="edge">
<title>Node11&#45;&gt;Node6</title>
<path fill="none" stroke="midnightblue" d="M547.64,-304.37C561.12,-280.72 579.08,-242.45 579.08,-206.5 579.08,-206.5 579.08,-206.5 579.08,-137.5 579.08,-104.93 582.21,-89.93 559.08,-67 524.26,-32.48 468.21,-21 427.1,-17.45"/>
<polygon fill="midnightblue" stroke="midnightblue" points="544.46,-302.88 542.39,-313.27 550.49,-306.44 544.46,-302.88"/>
</g>
<!-- Node12 -->
<g id="node12" class="node">
<title>Node12</title>
<g id="a_node12"><a xlink:href="member_8h.html" target="_top" xlink:title=" ">
<polygon fill="white" stroke="black" points="332.08,-257.5 332.08,-276.5 454.08,-276.5 454.08,-257.5 332.08,-257.5"/>
<text text-anchor="middle" x="393.08" y="-264.5" font-family="Helvetica,sans-Serif" font-size="10.00">include/cppgc/member.h</text>
</a>
</g>
</g>
<!-- Node11&#45;&gt;Node12 -->
<g id="edge17" class="edge">
<title>Node11&#45;&gt;Node12</title>
<path fill="none" stroke="midnightblue" d="M490.42,-309.37C464.87,-298.51 433.54,-285.2 413.45,-276.66"/>
<polygon fill="midnightblue" stroke="midnightblue" points="489.33,-312.71 499.9,-313.4 492.07,-306.27 489.33,-312.71"/>
</g>
<!-- Node12&#45;&gt;Node4 -->
<g id="edge25" class="edge">
<title>Node12&#45;&gt;Node4</title>
<path fill="none" stroke="midnightblue" d="M417.8,-251.9C428.61,-244.28 440.16,-233.79 446.08,-221 451.87,-208.5 452.48,-202.2 446.08,-190 435.49,-169.8 412.75,-156.08 395.44,-148.09"/>
<polygon fill="midnightblue" stroke="midnightblue" points="415.87,-248.98 409.41,-257.39 419.7,-254.84 415.87,-248.98"/>
</g>
<!-- Node13 -->
<g id="node13" class="node">
<title>Node13</title>
<g id="a_node13"><a xlink:href="ephemeron-pair_8h.html" target="_top" xlink:title=" ">
<polygon fill="white" stroke="black" points="309.08,-190.5 309.08,-220.5 437.08,-220.5 437.08,-190.5 309.08,-190.5"/>
<text text-anchor="start" x="317.08" y="-208.5" font-family="Helvetica,sans-Serif" font-size="10.00">include/cppgc/ephemeron</text>
<text text-anchor="middle" x="373.08" y="-197.5" font-family="Helvetica,sans-Serif" font-size="10.00">&#45;pair.h</text>
</a>
</g>
</g>
<!-- Node12&#45;&gt;Node13 -->
<g id="edge18" class="edge">
<title>Node12&#45;&gt;Node13</title>
<path fill="none" stroke="midnightblue" d="M386.97,-247.82C384.02,-239.04 380.53,-228.68 377.79,-220.52"/>
<polygon fill="midnightblue" stroke="midnightblue" points="383.71,-249.11 390.21,-257.48 390.34,-246.88 383.71,-249.11"/>
</g>
<!-- Node12&#45;&gt;Node14 -->
<g id="edge20" class="edge">
<title>Node12&#45;&gt;Node14</title>
<path fill="none" stroke="midnightblue" d="M349.38,-254.98C310.84,-245.27 254.46,-231.05 212.7,-220.52"/>
<polygon fill="midnightblue" stroke="midnightblue" points="348.71,-258.42 359.27,-257.48 350.43,-251.64 348.71,-258.42"/>
</g>
<!-- Node13&#45;&gt;Node4 -->
<g id="edge19" class="edge">
<title>Node13&#45;&gt;Node4</title>
<path fill="none" stroke="midnightblue" d="M373.08,-180.25C373.08,-169.02 373.08,-156.38 373.08,-148.19"/>
<polygon fill="midnightblue" stroke="midnightblue" points="369.58,-180.4 373.08,-190.4 376.58,-180.4 369.58,-180.4"/>
</g>
<!-- Node14&#45;&gt;Node4 -->
<g id="edge21" class="edge">
<title>Node14&#45;&gt;Node4</title>
<path fill="none" stroke="midnightblue" d="M213.27,-187.59C255.46,-174.9 311.46,-158.04 344.74,-148.03"/>
<polygon fill="midnightblue" stroke="midnightblue" points="212.25,-184.24 203.68,-190.48 214.27,-190.95 212.25,-184.24"/>
</g>
<!-- Node15 -->
<g id="node15" class="node">
<title>Node15</title>
<g id="a_node15"><a xlink:href="prefinalizer-handler_8h.html" target="_top" xlink:title=" ">
<polygon fill="white" stroke="black" points="185.58,-123.5 185.58,-153.5 296.58,-153.5 296.58,-123.5 185.58,-123.5"/>
<text text-anchor="start" x="193.58" y="-141.5" font-family="Helvetica,sans-Serif" font-size="10.00">include/cppgc/internal</text>
<text text-anchor="middle" x="241.08" y="-130.5" font-family="Helvetica,sans-Serif" font-size="10.00">/prefinalizer&#45;handler.h</text>
</a>
</g>
</g>
<!-- Node14&#45;&gt;Node15 -->
<g id="edge22" class="edge">
<title>Node14&#45;&gt;Node15</title>
<path fill="none" stroke="midnightblue" d="M183.35,-184.17C196.2,-174.23 211.34,-162.51 222.89,-153.58"/>
<polygon fill="midnightblue" stroke="midnightblue" points="181.07,-181.51 175.31,-190.4 185.36,-187.04 181.07,-181.51"/>
</g>
<!-- Node16 -->
<g id="node16" class="node">
<title>Node16</title>
<g id="a_node16"><a xlink:href="prefinalizer_8h.html" target="_top" xlink:title=" ">
<polygon fill="white" stroke="black" points="109.58,-67.5 109.58,-86.5 242.58,-86.5 242.58,-67.5 109.58,-67.5"/>
<text text-anchor="middle" x="176.08" y="-74.5" font-family="Helvetica,sans-Serif" font-size="10.00">include/cppgc/prefinalizer.h</text>
</a>
</g>
</g>
<!-- Node14&#45;&gt;Node16 -->
<g id="edge24" class="edge">
<title>Node14&#45;&gt;Node16</title>
<path fill="none" stroke="midnightblue" d="M160.68,-180.51C164.96,-152.02 171.88,-105.94 174.76,-86.79"/>
<polygon fill="midnightblue" stroke="midnightblue" points="157.21,-180.07 159.19,-190.48 164.13,-181.11 157.21,-180.07"/>
</g>
<!-- Node15&#45;&gt;Node16 -->
<g id="edge23" class="edge">
<title>Node15&#45;&gt;Node16</title>
<path fill="none" stroke="midnightblue" d="M218.24,-116.6C207.01,-106.32 194.09,-94.48 185.54,-86.66"/>
<polygon fill="midnightblue" stroke="midnightblue" points="215.94,-119.23 225.67,-123.4 220.66,-114.07 215.94,-119.23"/>
</g>
</g>
</svg>
