<?xml version="1.0" encoding="UTF-8" standalone="no"?>
<!DOCTYPE svg PUBLIC "-//W3C//DTD SVG 1.1//EN"
 "http://www.w3.org/Graphics/SVG/1.1/DTD/svg11.dtd">
<!-- Generated by graphviz version 2.44.0 ()
 -->
<!-- Title: include/cppgc/type&#45;traits.h Pages: 1 -->
<svg width="821pt" height="553pt"
 viewBox="0.00 0.00 820.81 553.00" xmlns="http://www.w3.org/2000/svg" xmlns:xlink="http://www.w3.org/1999/xlink">
<g id="graph0" class="graph" transform="scale(1 1) rotate(0) translate(4 549)">
<title>include/cppgc/type&#45;traits.h</title>
<polygon fill="white" stroke="transparent" points="-4,4 -4,-549 816.81,-549 816.81,4 -4,4"/>
<!-- Node1 -->
<g id="node1" class="node">
<title>Node1</title>
<g id="a_node1"><a xlink:title=" ">
<polygon fill="#bfbfbf" stroke="black" points="216.31,-514.5 216.31,-544.5 314.31,-544.5 314.31,-514.5 216.31,-514.5"/>
<text text-anchor="start" x="224.31" y="-532.5" font-family="Helvetica,sans-Serif" font-size="10.00">include/cppgc/type</text>
<text text-anchor="middle" x="265.31" y="-521.5" font-family="Helvetica,sans-Serif" font-size="10.00">&#45;traits.h</text>
</a>
</g>
</g>
<!-- Node2 -->
<g id="node2" class="node">
<title>Node2</title>
<g id="a_node2"><a xlink:href="trace-trait_8h.html" target="_top" xlink:title=" ">
<polygon fill="white" stroke="black" points="273.81,-447.5 273.81,-477.5 374.81,-477.5 374.81,-447.5 273.81,-447.5"/>
<text text-anchor="start" x="281.81" y="-465.5" font-family="Helvetica,sans-Serif" font-size="10.00">include/cppgc/trace</text>
<text text-anchor="middle" x="324.31" y="-454.5" font-family="Helvetica,sans-Serif" font-size="10.00">&#45;trait.h</text>
</a>
</g>
</g>
<!-- Node1&#45;&gt;Node2 -->
<g id="edge1" class="edge">
<title>Node1&#45;&gt;Node2</title>
<path fill="none" stroke="midnightblue" d="M285.07,-506.74C293.8,-497.12 303.81,-486.09 311.54,-477.58"/>
<polygon fill="midnightblue" stroke="midnightblue" points="282.24,-504.64 278.11,-514.4 287.43,-509.34 282.24,-504.64"/>
</g>
<!-- Node3 -->
<g id="node3" class="node">
<title>Node3</title>
<g id="a_node3"><a xlink:href="garbage-collected_8h.html" target="_top" xlink:title=" ">
<polygon fill="white" stroke="black" points="163.31,-380.5 163.31,-410.5 277.31,-410.5 277.31,-380.5 163.31,-380.5"/>
<text text-anchor="start" x="171.31" y="-398.5" font-family="Helvetica,sans-Serif" font-size="10.00">include/cppgc/garbage</text>
<text text-anchor="middle" x="220.31" y="-387.5" font-family="Helvetica,sans-Serif" font-size="10.00">&#45;collected.h</text>
</a>
</g>
</g>
<!-- Node1&#45;&gt;Node3 -->
<g id="edge33" class="edge">
<title>Node1&#45;&gt;Node3</title>
<path fill="none" stroke="midnightblue" d="M257.22,-504.75C247.85,-477.29 232.75,-432.99 225.09,-410.52"/>
<polygon fill="midnightblue" stroke="midnightblue" points="253.96,-506.04 260.5,-514.37 260.58,-503.78 253.96,-506.04"/>
</g>
<!-- Node5 -->
<g id="node5" class="node">
<title>Node5</title>
<g id="a_node5"><a xlink:href="visitor_8h.html" target="_top" xlink:title=" ">
<polygon fill="white" stroke="black" points="352.81,-129 352.81,-148 465.81,-148 465.81,-129 352.81,-129"/>
<text text-anchor="middle" x="409.31" y="-136" font-family="Helvetica,sans-Serif" font-size="10.00">include/cppgc/visitor.h</text>
</a>
</g>
</g>
<!-- Node1&#45;&gt;Node5 -->
<g id="edge38" class="edge">
<title>Node1&#45;&gt;Node5</title>
<path fill="none" stroke="midnightblue" d="M324.29,-521.81C415.82,-507.75 588.04,-465.61 650.31,-344 702.02,-243.02 513.02,-171.76 438.38,-148.08"/>
<polygon fill="midnightblue" stroke="midnightblue" points="323.73,-518.36 314.34,-523.28 324.75,-525.28 323.73,-518.36"/>
</g>
<!-- Node6 -->
<g id="node6" class="node">
<title>Node6</title>
<g id="a_node6"><a xlink:href="persistent_8h.html" target="_top" xlink:title=" ">
<polygon fill="white" stroke="black" points="587.31,-67.5 587.31,-86.5 717.31,-86.5 717.31,-67.5 587.31,-67.5"/>
<text text-anchor="middle" x="652.31" y="-74.5" font-family="Helvetica,sans-Serif" font-size="10.00">include/cppgc/persistent.h</text>
</a>
</g>
</g>
<!-- Node1&#45;&gt;Node6 -->
<g id="edge36" class="edge">
<title>Node1&#45;&gt;Node6</title>
<path fill="none" stroke="midnightblue" d="M324.48,-524.7C452.82,-514.83 745.31,-482.86 745.31,-396.5 745.31,-396.5 745.31,-396.5 745.31,-327.5 745.31,-275.84 674.43,-124.21 656.43,-86.54"/>
<polygon fill="midnightblue" stroke="midnightblue" points="324.14,-521.21 314.43,-525.45 324.66,-528.19 324.14,-521.21"/>
</g>
<!-- Node13 -->
<g id="node13" class="node">
<title>Node13</title>
<g id="a_node13"><a xlink:href="member_8h.html" target="_top" xlink:title=" ">
<polygon fill="white" stroke="black" points="234.31,-257.5 234.31,-276.5 356.31,-276.5 356.31,-257.5 234.31,-257.5"/>
<text text-anchor="middle" x="295.31" y="-264.5" font-family="Helvetica,sans-Serif" font-size="10.00">include/cppgc/member.h</text>
</a>
</g>
</g>
<!-- Node1&#45;&gt;Node13 -->
<g id="edge37" class="edge">
<title>Node1&#45;&gt;Node13</title>
<path fill="none" stroke="midnightblue" d="M205.78,-520.97C150.15,-512.83 72.31,-498.24 49.31,-478 -6.03,-429.3 -18.48,-366.43 32.31,-313 59.28,-284.63 165.26,-274.11 234.18,-270.23"/>
<polygon fill="midnightblue" stroke="midnightblue" points="205.5,-524.47 215.89,-522.42 206.49,-517.54 205.5,-524.47"/>
</g>
<!-- Node19 -->
<g id="node19" class="node">
<title>Node19</title>
<g id="a_node19"><a xlink:href="finalizer-trait_8h.html" target="_top" xlink:title=" ">
<polygon fill="white" stroke="black" points="58.81,-447.5 58.81,-477.5 169.81,-477.5 169.81,-447.5 58.81,-447.5"/>
<text text-anchor="start" x="66.81" y="-465.5" font-family="Helvetica,sans-Serif" font-size="10.00">include/cppgc/internal</text>
<text text-anchor="middle" x="114.31" y="-454.5" font-family="Helvetica,sans-Serif" font-size="10.00">/finalizer&#45;trait.h</text>
</a>
</g>
</g>
<!-- Node1&#45;&gt;Node19 -->
<g id="edge34" class="edge">
<title>Node1&#45;&gt;Node19</title>
<path fill="none" stroke="midnightblue" d="M223.28,-510.41C199.17,-500.03 169.36,-487.2 147.01,-477.58"/>
<polygon fill="midnightblue" stroke="midnightblue" points="221.98,-513.66 232.55,-514.4 224.75,-507.23 221.98,-513.66"/>
</g>
<!-- Node2&#45;&gt;Node3 -->
<g id="edge2" class="edge">
<title>Node2&#45;&gt;Node3</title>
<path fill="none" stroke="midnightblue" d="M293.14,-442.02C276.95,-431.9 257.54,-419.77 242.83,-410.58"/>
<polygon fill="midnightblue" stroke="midnightblue" points="291.41,-445.06 301.75,-447.4 295.12,-439.13 291.41,-445.06"/>
</g>
<!-- Node2&#45;&gt;Node5 -->
<g id="edge31" class="edge">
<title>Node2&#45;&gt;Node5</title>
<path fill="none" stroke="midnightblue" d="M330.29,-437.28C337.65,-407.8 350.73,-356.56 363.31,-313 375.21,-271.81 381.48,-262.48 392.31,-221 399.18,-194.71 405.13,-163.08 407.8,-148.13"/>
<polygon fill="midnightblue" stroke="midnightblue" points="326.86,-436.55 327.85,-447.1 333.66,-438.24 326.86,-436.55"/>
</g>
<!-- Node9 -->
<g id="node9" class="node">
<title>Node9</title>
<g id="a_node9"><a xlink:href="gc-info_8h.html" target="_top" xlink:title=" ">
<polygon fill="white" stroke="black" points="33.81,-380.5 33.81,-410.5 144.81,-410.5 144.81,-380.5 33.81,-380.5"/>
<text text-anchor="start" x="41.81" y="-398.5" font-family="Helvetica,sans-Serif" font-size="10.00">include/cppgc/internal</text>
<text text-anchor="middle" x="89.31" y="-387.5" font-family="Helvetica,sans-Serif" font-size="10.00">/gc&#45;info.h</text>
</a>
</g>
</g>
<!-- Node2&#45;&gt;Node9 -->
<g id="edge9" class="edge">
<title>Node2&#45;&gt;Node9</title>
<path fill="none" stroke="midnightblue" d="M263.63,-444.71C225.39,-434.14 176.57,-420.63 140.33,-410.61"/>
<polygon fill="midnightblue" stroke="midnightblue" points="263.04,-448.18 273.61,-447.48 264.91,-441.44 263.04,-448.18"/>
</g>
<!-- Node10 -->
<g id="node10" class="node">
<title>Node10</title>
<g id="a_node10"><a xlink:href="persistent-node_8h.html" target="_top" xlink:title=" ">
<polygon fill="white" stroke="black" points="701.81,-123.5 701.81,-153.5 812.81,-153.5 812.81,-123.5 701.81,-123.5"/>
<text text-anchor="start" x="709.81" y="-141.5" font-family="Helvetica,sans-Serif" font-size="10.00">include/cppgc/internal</text>
<text text-anchor="middle" x="757.31" y="-130.5" font-family="Helvetica,sans-Serif" font-size="10.00">/persistent&#45;node.h</text>
</a>
</g>
</g>
<!-- Node2&#45;&gt;Node10 -->
<g id="edge11" class="edge">
<title>Node2&#45;&gt;Node10</title>
<path fill="none" stroke="midnightblue" d="M385.1,-457.05C459.13,-448.25 582.66,-422.04 650.31,-344 703.86,-282.24 740.01,-189.05 752.49,-153.74"/>
<polygon fill="midnightblue" stroke="midnightblue" points="384.54,-453.59 374.99,-458.18 385.32,-460.55 384.54,-453.59"/>
</g>
<!-- Node11 -->
<g id="node11" class="node">
<title>Node11</title>
<g id="a_node11"><a xlink:href="write-barrier_8h.html" target="_top" xlink:title=" ">
<polygon fill="white" stroke="black" points="436.81,-380.5 436.81,-410.5 547.81,-410.5 547.81,-380.5 436.81,-380.5"/>
<text text-anchor="start" x="444.81" y="-398.5" font-family="Helvetica,sans-Serif" font-size="10.00">include/cppgc/internal</text>
<text text-anchor="middle" x="492.31" y="-387.5" font-family="Helvetica,sans-Serif" font-size="10.00">/write&#45;barrier.h</text>
</a>
</g>
</g>
<!-- Node2&#45;&gt;Node11 -->
<g id="edge14" class="edge">
<title>Node2&#45;&gt;Node11</title>
<path fill="none" stroke="midnightblue" d="M370.37,-443.68C397.31,-433.26 430.85,-420.28 455.93,-410.58"/>
<polygon fill="midnightblue" stroke="midnightblue" points="368.83,-440.52 360.77,-447.4 371.36,-447.05 368.83,-440.52"/>
</g>
<!-- Node15 -->
<g id="node15" class="node">
<title>Node15</title>
<g id="a_node15"><a xlink:href="liveness-broker_8h.html" target="_top" xlink:title=" ">
<polygon fill="white" stroke="black" points="59.31,-190.5 59.31,-220.5 175.31,-220.5 175.31,-190.5 59.31,-190.5"/>
<text text-anchor="start" x="67.31" y="-208.5" font-family="Helvetica,sans-Serif" font-size="10.00">include/cppgc/liveness</text>
<text text-anchor="middle" x="117.31" y="-197.5" font-family="Helvetica,sans-Serif" font-size="10.00">&#45;broker.h</text>
</a>
</g>
</g>
<!-- Node2&#45;&gt;Node15 -->
<g id="edge30" class="edge">
<title>Node2&#45;&gt;Node15</title>
<path fill="none" stroke="midnightblue" d="M315.74,-437.82C309.04,-420.93 298.8,-398.09 286.31,-380 240.08,-313.04 167.19,-248.18 134.35,-220.5"/>
<polygon fill="midnightblue" stroke="midnightblue" points="312.59,-439.39 319.43,-447.48 319.13,-436.89 312.59,-439.39"/>
</g>
<!-- Node18 -->
<g id="node18" class="node">
<title>Node18</title>
<g id="a_node18"><a xlink:href="heap-consistency_8h.html" target="_top" xlink:title=" ">
<polygon fill="white" stroke="black" points="371.81,-313.5 371.81,-343.5 472.81,-343.5 472.81,-313.5 371.81,-313.5"/>
<text text-anchor="start" x="379.81" y="-331.5" font-family="Helvetica,sans-Serif" font-size="10.00">include/cppgc/heap</text>
<text text-anchor="middle" x="422.31" y="-320.5" font-family="Helvetica,sans-Serif" font-size="10.00">&#45;consistency.h</text>
</a>
</g>
</g>
<!-- Node2&#45;&gt;Node18 -->
<g id="edge32" class="edge">
<title>Node2&#45;&gt;Node18</title>
<path fill="none" stroke="midnightblue" d="M340.88,-439.19C361.17,-411.86 394.93,-366.38 411.9,-343.52"/>
<polygon fill="midnightblue" stroke="midnightblue" points="337.95,-437.26 334.8,-447.37 343.57,-441.43 337.95,-437.26"/>
</g>
<!-- Node4 -->
<g id="node4" class="node">
<title>Node4</title>
<g id="a_node4"><a xlink:href="allocation_8h.html" target="_top" xlink:title=" ">
<polygon fill="white" stroke="black" points="41.31,-319 41.31,-338 169.31,-338 169.31,-319 41.31,-319"/>
<text text-anchor="middle" x="105.31" y="-326" font-family="Helvetica,sans-Serif" font-size="10.00">include/cppgc/allocation.h</text>
</a>
</g>
</g>
<!-- Node3&#45;&gt;Node4 -->
<g id="edge3" class="edge">
<title>Node3&#45;&gt;Node4</title>
<path fill="none" stroke="midnightblue" d="M186.65,-375.47C164.7,-363.06 137.11,-347.47 120.36,-338.01"/>
<polygon fill="midnightblue" stroke="midnightblue" points="184.93,-378.52 195.36,-380.4 188.38,-372.43 184.93,-378.52"/>
</g>
<!-- Node3&#45;&gt;Node5 -->
<g id="edge4" class="edge">
<title>Node3&#45;&gt;Node5</title>
<path fill="none" stroke="midnightblue" d="M212.13,-370.44C199.65,-328.87 181.34,-242.96 222.31,-190 238.26,-169.39 303.45,-155.22 352.4,-147.25"/>
<polygon fill="midnightblue" stroke="midnightblue" points="208.88,-371.75 215.22,-380.24 215.55,-369.65 208.88,-371.75"/>
</g>
<!-- Node5&#45;&gt;Node6 -->
<g id="edge5" class="edge">
<title>Node5&#45;&gt;Node6</title>
<path fill="none" stroke="midnightblue" d="M454.07,-126.54C501.24,-114.99 574.55,-97.04 617.56,-86.51"/>
<polygon fill="midnightblue" stroke="midnightblue" points="453.01,-123.2 444.13,-128.98 454.67,-130 453.01,-123.2"/>
</g>
<!-- Node7 -->
<g id="node7" class="node">
<title>Node7</title>
<g id="a_node7"><a xlink:href="cross-thread-persistent_8h.html" target="_top" xlink:title=" ">
<polygon fill="white" stroke="black" points="553.31,-0.5 553.31,-30.5 657.31,-30.5 657.31,-0.5 553.31,-0.5"/>
<text text-anchor="start" x="561.31" y="-18.5" font-family="Helvetica,sans-Serif" font-size="10.00">include/cppgc/cross</text>
<text text-anchor="middle" x="605.31" y="-7.5" font-family="Helvetica,sans-Serif" font-size="10.00">&#45;thread&#45;persistent.h</text>
</a>
</g>
</g>
<!-- Node5&#45;&gt;Node7 -->
<g id="edge7" class="edge">
<title>Node5&#45;&gt;Node7</title>
<path fill="none" stroke="midnightblue" d="M408.28,-118.69C408.47,-102.91 411.35,-80.8 424.31,-67 457.26,-31.93 512.33,-20.51 553.09,-17.12"/>
<polygon fill="midnightblue" stroke="midnightblue" points="404.79,-118.93 408.52,-128.85 411.79,-118.77 404.79,-118.93"/>
</g>
<!-- Node8 -->
<g id="node8" class="node">
<title>Node8</title>
<g id="a_node8"><a xlink:href="v8-cppgc_8h.html" target="_top" xlink:title=" ">
<polygon fill="white" stroke="black" points="433.31,-67.5 433.31,-86.5 531.31,-86.5 531.31,-67.5 433.31,-67.5"/>
<text text-anchor="middle" x="482.31" y="-74.5" font-family="Helvetica,sans-Serif" font-size="10.00">include/v8&#45;cppgc.h</text>
</a>
</g>
</g>
<!-- Node5&#45;&gt;Node8 -->
<g id="edge8" class="edge">
<title>Node5&#45;&gt;Node8</title>
<path fill="none" stroke="midnightblue" d="M427.75,-122.47C441.71,-111.09 460.39,-95.87 471.87,-86.51"/>
<polygon fill="midnightblue" stroke="midnightblue" points="425.31,-119.94 419.77,-128.98 429.73,-125.37 425.31,-119.94"/>
</g>
<!-- Node6&#45;&gt;Node7 -->
<g id="edge6" class="edge">
<title>Node6&#45;&gt;Node7</title>
<path fill="none" stroke="midnightblue" d="M639.3,-59.53C632.1,-50.42 623.25,-39.21 616.39,-30.52"/>
<polygon fill="midnightblue" stroke="midnightblue" points="636.63,-61.8 645.58,-67.48 642.13,-57.46 636.63,-61.8"/>
</g>
<!-- Node9&#45;&gt;Node4 -->
<g id="edge10" class="edge">
<title>Node9&#45;&gt;Node4</title>
<path fill="none" stroke="midnightblue" d="M95.2,-370.6C97.98,-359.28 101.14,-346.46 103.17,-338.19"/>
<polygon fill="midnightblue" stroke="midnightblue" points="91.78,-369.85 92.78,-380.4 98.57,-371.52 91.78,-369.85"/>
</g>
<!-- Node10&#45;&gt;Node6 -->
<g id="edge13" class="edge">
<title>Node10&#45;&gt;Node6</title>
<path fill="none" stroke="midnightblue" d="M723.54,-118.36C704.71,-107.69 682.2,-94.93 667.59,-86.66"/>
<polygon fill="midnightblue" stroke="midnightblue" points="722,-121.51 732.43,-123.4 725.45,-115.42 722,-121.51"/>
</g>
<!-- Node10&#45;&gt;Node7 -->
<g id="edge12" class="edge">
<title>Node10&#45;&gt;Node7</title>
<path fill="none" stroke="midnightblue" d="M751.7,-113.57C747.1,-98.52 739.18,-79.63 726.31,-67 707.47,-48.51 680.85,-36.4 657.39,-28.7"/>
<polygon fill="midnightblue" stroke="midnightblue" points="748.34,-114.55 754.39,-123.25 755.09,-112.68 748.34,-114.55"/>
</g>
<!-- Node11&#45;&gt;Node8 -->
<g id="edge29" class="edge">
<title>Node11&#45;&gt;Node8</title>
<path fill="none" stroke="midnightblue" d="M495.06,-370.3C497.71,-344.86 501.31,-303.67 501.31,-268 501.31,-268 501.31,-268 501.31,-204.5 501.31,-159.64 489.48,-106.81 484.49,-86.52"/>
<polygon fill="midnightblue" stroke="midnightblue" points="491.55,-370.17 493.96,-380.48 498.51,-370.92 491.55,-370.17"/>
</g>
<!-- Node12 -->
<g id="node12" class="node">
<title>Node12</title>
<g id="a_node12"><a xlink:href="pointer-policies_8h.html" target="_top" xlink:title=" ">
<polygon fill="white" stroke="black" points="529.81,-313.5 529.81,-343.5 640.81,-343.5 640.81,-313.5 529.81,-313.5"/>
<text text-anchor="start" x="537.81" y="-331.5" font-family="Helvetica,sans-Serif" font-size="10.00">include/cppgc/internal</text>
<text text-anchor="middle" x="585.31" y="-320.5" font-family="Helvetica,sans-Serif" font-size="10.00">/pointer&#45;policies.h</text>
</a>
</g>
</g>
<!-- Node11&#45;&gt;Node12 -->
<g id="edge15" class="edge">
<title>Node11&#45;&gt;Node12</title>
<path fill="none" stroke="midnightblue" d="M521,-374.45C535.3,-364.45 552.26,-352.6 565.17,-343.58"/>
<polygon fill="midnightblue" stroke="midnightblue" points="518.68,-371.8 512.49,-380.4 522.69,-377.54 518.68,-371.8"/>
</g>
<!-- Node11&#45;&gt;Node18 -->
<g id="edge28" class="edge">
<title>Node11&#45;&gt;Node18</title>
<path fill="none" stroke="midnightblue" d="M469.49,-373.31C458.99,-363.56 446.82,-352.26 437.47,-343.58"/>
<polygon fill="midnightblue" stroke="midnightblue" points="467.41,-376.16 477.12,-380.4 472.18,-371.03 467.41,-376.16"/>
</g>
<!-- Node12&#45;&gt;Node5 -->
<g id="edge27" class="edge">
<title>Node12&#45;&gt;Node5</title>
<path fill="none" stroke="midnightblue" d="M565.2,-306.02C526.63,-264.81 443.72,-176.25 417.46,-148.21"/>
<polygon fill="midnightblue" stroke="midnightblue" points="562.69,-308.46 572.08,-313.37 567.8,-303.68 562.69,-308.46"/>
</g>
<!-- Node12&#45;&gt;Node6 -->
<g id="edge17" class="edge">
<title>Node12&#45;&gt;Node6</title>
<path fill="none" stroke="midnightblue" d="M591.71,-303.69C606.1,-250.09 640.53,-121.88 649.91,-86.93"/>
<polygon fill="midnightblue" stroke="midnightblue" points="588.32,-302.81 589.11,-313.37 595.08,-304.62 588.32,-302.81"/>
</g>
<!-- Node12&#45;&gt;Node7 -->
<g id="edge16" class="edge">
<title>Node12&#45;&gt;Node7</title>
<path fill="none" stroke="midnightblue" d="M577,-303.45C569.39,-279.26 559.31,-240.75 559.31,-206.5 559.31,-206.5 559.31,-206.5 559.31,-137.5 559.31,-96.6 582.56,-52.7 596,-30.73"/>
<polygon fill="midnightblue" stroke="midnightblue" points="573.75,-304.76 580.18,-313.19 580.4,-302.59 573.75,-304.76"/>
</g>
<!-- Node12&#45;&gt;Node13 -->
<g id="edge18" class="edge">
<title>Node12&#45;&gt;Node13</title>
<path fill="none" stroke="midnightblue" d="M519.91,-314.08C463.9,-302.59 384.92,-286.38 337.08,-276.57"/>
<polygon fill="midnightblue" stroke="midnightblue" points="519.24,-317.52 529.74,-316.1 520.65,-310.66 519.24,-317.52"/>
</g>
<!-- Node13&#45;&gt;Node5 -->
<g id="edge26" class="edge">
<title>Node13&#45;&gt;Node5</title>
<path fill="none" stroke="midnightblue" d="M324.5,-252.81C339.05,-245.13 356.09,-234.32 368.31,-221 388.87,-198.59 401.65,-163.95 406.76,-148.03"/>
<polygon fill="midnightblue" stroke="midnightblue" points="322.73,-249.78 315.38,-257.4 325.88,-256.03 322.73,-249.78"/>
</g>
<!-- Node14 -->
<g id="node14" class="node">
<title>Node14</title>
<g id="a_node14"><a xlink:href="ephemeron-pair_8h.html" target="_top" xlink:title=" ">
<polygon fill="white" stroke="black" points="231.31,-190.5 231.31,-220.5 359.31,-220.5 359.31,-190.5 231.31,-190.5"/>
<text text-anchor="start" x="239.31" y="-208.5" font-family="Helvetica,sans-Serif" font-size="10.00">include/cppgc/ephemeron</text>
<text text-anchor="middle" x="295.31" y="-197.5" font-family="Helvetica,sans-Serif" font-size="10.00">&#45;pair.h</text>
</a>
</g>
</g>
<!-- Node13&#45;&gt;Node14 -->
<g id="edge19" class="edge">
<title>Node13&#45;&gt;Node14</title>
<path fill="none" stroke="midnightblue" d="M295.31,-247.23C295.31,-238.59 295.31,-228.5 295.31,-220.52"/>
<polygon fill="midnightblue" stroke="midnightblue" points="291.81,-247.48 295.31,-257.48 298.81,-247.48 291.81,-247.48"/>
</g>
<!-- Node13&#45;&gt;Node15 -->
<g id="edge21" class="edge">
<title>Node13&#45;&gt;Node15</title>
<path fill="none" stroke="midnightblue" d="M260.1,-254.23C231.12,-244.54 189.95,-230.78 159.26,-220.52"/>
<polygon fill="midnightblue" stroke="midnightblue" points="259.22,-257.62 269.81,-257.48 261.43,-250.99 259.22,-257.62"/>
</g>
<!-- Node14&#45;&gt;Node5 -->
<g id="edge20" class="edge">
<title>Node14&#45;&gt;Node5</title>
<path fill="none" stroke="midnightblue" d="M328.97,-185.31C350.69,-172.93 377.87,-157.43 394.39,-148.01"/>
<polygon fill="midnightblue" stroke="midnightblue" points="327,-182.4 320.05,-190.4 330.47,-188.48 327,-182.4"/>
</g>
<!-- Node15&#45;&gt;Node5 -->
<g id="edge22" class="edge">
<title>Node15&#45;&gt;Node5</title>
<path fill="none" stroke="midnightblue" d="M185.13,-189.4C242.87,-176.55 323.75,-158.55 370.92,-148.05"/>
<polygon fill="midnightblue" stroke="midnightblue" points="184.35,-185.99 175.35,-191.58 185.87,-192.82 184.35,-185.99"/>
</g>
<!-- Node16 -->
<g id="node16" class="node">
<title>Node16</title>
<g id="a_node16"><a xlink:href="prefinalizer-handler_8h.html" target="_top" xlink:title=" ">
<polygon fill="white" stroke="black" points="103.81,-123.5 103.81,-153.5 214.81,-153.5 214.81,-123.5 103.81,-123.5"/>
<text text-anchor="start" x="111.81" y="-141.5" font-family="Helvetica,sans-Serif" font-size="10.00">include/cppgc/internal</text>
<text text-anchor="middle" x="159.31" y="-130.5" font-family="Helvetica,sans-Serif" font-size="10.00">/prefinalizer&#45;handler.h</text>
</a>
</g>
</g>
<!-- Node15&#45;&gt;Node16 -->
<g id="edge23" class="edge">
<title>Node15&#45;&gt;Node16</title>
<path fill="none" stroke="midnightblue" d="M131.94,-181.87C138.02,-172.46 144.88,-161.83 150.22,-153.58"/>
<polygon fill="midnightblue" stroke="midnightblue" points="128.91,-180.1 126.43,-190.4 134.79,-183.9 128.91,-180.1"/>
</g>
<!-- Node17 -->
<g id="node17" class="node">
<title>Node17</title>
<g id="a_node17"><a xlink:href="prefinalizer_8h.html" target="_top" xlink:title=" ">
<polygon fill="white" stroke="black" points="50.81,-67.5 50.81,-86.5 183.81,-86.5 183.81,-67.5 50.81,-67.5"/>
<text text-anchor="middle" x="117.31" y="-74.5" font-family="Helvetica,sans-Serif" font-size="10.00">include/cppgc/prefinalizer.h</text>
</a>
</g>
</g>
<!-- Node15&#45;&gt;Node17 -->
<g id="edge25" class="edge">
<title>Node15&#45;&gt;Node17</title>
<path fill="none" stroke="midnightblue" d="M104.28,-181.38C100.25,-173.02 96.34,-163.34 94.31,-154 91.39,-140.54 91.09,-136.4 94.31,-123 97.56,-109.52 105.56,-95.54 111.21,-86.81"/>
<polygon fill="midnightblue" stroke="midnightblue" points="101.27,-183.19 108.95,-190.48 107.5,-179.99 101.27,-183.19"/>
</g>
<!-- Node16&#45;&gt;Node17 -->
<g id="edge24" class="edge">
<title>Node16&#45;&gt;Node17</title>
<path fill="none" stroke="midnightblue" d="M143.5,-115.1C136.5,-105.19 128.68,-94.11 123.42,-86.66"/>
<polygon fill="midnightblue" stroke="midnightblue" points="140.73,-117.25 149.36,-123.4 146.45,-113.21 140.73,-117.25"/>
</g>
<!-- Node19&#45;&gt;Node9 -->
<g id="edge35" class="edge">
<title>Node19&#45;&gt;Node9</title>
<path fill="none" stroke="midnightblue" d="M105.27,-437.99C101.74,-428.8 97.8,-418.58 94.73,-410.58"/>
<polygon fill="midnightblue" stroke="midnightblue" points="102.03,-439.32 108.89,-447.4 108.56,-436.81 102.03,-439.32"/>
</g>
</g>
</svg>
