<?xml version="1.0" encoding="UTF-8" standalone="no"?>
<!DOCTYPE svg PUBLIC "-//W3C//DTD SVG 1.1//EN"
 "http://www.w3.org/Graphics/SVG/1.1/DTD/svg11.dtd">
<!-- Generated by graphviz version 2.44.0 ()
 -->
<!-- Title: include/v8&#45;cppgc.h Pages: 1 -->
<svg width="1825pt" height="520pt"
 viewBox="0.00 0.00 1824.60 520.00" xmlns="http://www.w3.org/2000/svg" xmlns:xlink="http://www.w3.org/1999/xlink">
<g id="graph0" class="graph" transform="scale(1 1) rotate(0) translate(4 516)">
<title>include/v8&#45;cppgc.h</title>
<polygon fill="white" stroke="transparent" points="-4,4 -4,-516 1820.6,-516 1820.6,4 -4,4"/>
<!-- Node1 -->
<g id="node1" class="node">
<title>Node1</title>
<g id="a_node1"><a xlink:title=" ">
<polygon fill="#bfbfbf" stroke="black" points="461.34,-492.5 461.34,-511.5 559.34,-511.5 559.34,-492.5 461.34,-492.5"/>
<text text-anchor="middle" x="510.34" y="-499.5" font-family="Helvetica,sans-Serif" font-size="10.00">include/v8&#45;cppgc.h</text>
</a>
</g>
</g>
<!-- Node2 -->
<g id="node2" class="node">
<title>Node2</title>
<g id="a_node2"><a xlink:title=" ">
<polygon fill="white" stroke="#bfbfbf" points="534.84,-62 534.84,-81 585.84,-81 585.84,-62 534.84,-62"/>
<text text-anchor="middle" x="560.34" y="-69" font-family="Helvetica,sans-Serif" font-size="10.00">memory</text>
</a>
</g>
</g>
<!-- Node1&#45;&gt;Node2 -->
<g id="edge1" class="edge">
<title>Node1&#45;&gt;Node2</title>
<path fill="none" stroke="midnightblue" d="M510.34,-492.44C510.34,-473.94 510.34,-428.81 510.34,-391 510.34,-391 510.34,-391 510.34,-204.5 510.34,-167.31 515.2,-157.4 529.34,-123 534.15,-111.3 541.49,-99.18 547.82,-89.75"/>
<polygon fill="midnightblue" stroke="midnightblue" points="550.84,-91.54 553.69,-81.33 545.1,-87.54 550.84,-91.54"/>
</g>
<!-- Node3 -->
<g id="node3" class="node">
<title>Node3</title>
<g id="a_node3"><a xlink:title=" ">
<polygon fill="white" stroke="#bfbfbf" points="538.34,-129 538.34,-148 582.34,-148 582.34,-129 538.34,-129"/>
<text text-anchor="middle" x="560.34" y="-136" font-family="Helvetica,sans-Serif" font-size="10.00">vector</text>
</a>
</g>
</g>
<!-- Node1&#45;&gt;Node3 -->
<g id="edge2" class="edge">
<title>Node1&#45;&gt;Node3</title>
<path fill="none" stroke="midnightblue" d="M515.62,-492.23C526.06,-474.04 548.34,-430.6 548.34,-391 548.34,-391 548.34,-391 548.34,-271.5 548.34,-230.99 554.01,-183.78 557.56,-158.23"/>
<polygon fill="midnightblue" stroke="midnightblue" points="561.05,-158.52 559.01,-148.12 554.12,-157.53 561.05,-158.52"/>
</g>
<!-- Node4 -->
<g id="node4" class="node">
<title>Node4</title>
<g id="a_node4"><a xlink:href="custom-space_8h.html" target="_top" xlink:title=" ">
<polygon fill="white" stroke="black" points="140.84,-196 140.84,-215 255.84,-215 255.84,-196 140.84,-196"/>
<text text-anchor="middle" x="198.34" y="-203" font-family="Helvetica,sans-Serif" font-size="10.00">cppgc/custom&#45;space.h</text>
</a>
</g>
</g>
<!-- Node1&#45;&gt;Node4 -->
<g id="edge3" class="edge">
<title>Node1&#45;&gt;Node4</title>
<path fill="none" stroke="midnightblue" d="M461.05,-500.03C389.51,-495.71 265.34,-475.97 265.34,-391 265.34,-391 265.34,-391 265.34,-333 265.34,-289.15 233.5,-245.65 213.72,-222.85"/>
<polygon fill="midnightblue" stroke="midnightblue" points="216.11,-220.27 206.82,-215.17 210.9,-224.94 216.11,-220.27"/>
</g>
<!-- Node6 -->
<g id="node6" class="node">
<title>Node6</title>
<g id="a_node6"><a xlink:href="write-barrier_8h.html" target="_top" xlink:title=" ">
<polygon fill="white" stroke="black" points="1433.84,-190.5 1433.84,-220.5 1534.84,-220.5 1534.84,-190.5 1433.84,-190.5"/>
<text text-anchor="start" x="1441.84" y="-208.5" font-family="Helvetica,sans-Serif" font-size="10.00">cppgc/internal/write</text>
<text text-anchor="middle" x="1484.34" y="-197.5" font-family="Helvetica,sans-Serif" font-size="10.00">&#45;barrier.h</text>
</a>
</g>
</g>
<!-- Node1&#45;&gt;Node6 -->
<g id="edge5" class="edge">
<title>Node1&#45;&gt;Node6</title>
<path fill="none" stroke="midnightblue" d="M559.57,-501.45C776.87,-502.79 1639.34,-501.16 1639.34,-391 1639.34,-391 1639.34,-391 1639.34,-333 1639.34,-294.62 1626.51,-283.06 1598.34,-257 1582.91,-242.73 1562.78,-232.02 1543.75,-224.22"/>
<polygon fill="midnightblue" stroke="midnightblue" points="1544.81,-220.88 1534.22,-220.51 1542.27,-227.4 1544.81,-220.88"/>
</g>
<!-- Node16 -->
<g id="node16" class="node">
<title>Node16</title>
<g id="a_node16"><a xlink:href="visitor_8h.html" target="_top" xlink:title=" ">
<polygon fill="white" stroke="black" points="1137.34,-436.5 1137.34,-455.5 1217.34,-455.5 1217.34,-436.5 1137.34,-436.5"/>
<text text-anchor="middle" x="1177.34" y="-443.5" font-family="Helvetica,sans-Serif" font-size="10.00">cppgc/visitor.h</text>
</a>
</g>
</g>
<!-- Node1&#45;&gt;Node16 -->
<g id="edge20" class="edge">
<title>Node1&#45;&gt;Node16</title>
<path fill="none" stroke="midnightblue" d="M559.38,-497.03C682.43,-487.07 1003.23,-461.1 1127.31,-451.05"/>
<polygon fill="midnightblue" stroke="midnightblue" points="1127.62,-454.54 1137.3,-450.24 1127.05,-447.56 1127.62,-454.54"/>
</g>
<!-- Node32 -->
<g id="node32" class="node">
<title>Node32</title>
<g id="a_node32"><a xlink:href="v8-internal_8h.html" target="_top" xlink:title=" ">
<polygon fill="white" stroke="black" points="62.84,-129 62.84,-148 131.84,-148 131.84,-129 62.84,-129"/>
<text text-anchor="middle" x="97.34" y="-136" font-family="Helvetica,sans-Serif" font-size="10.00">v8&#45;internal.h</text>
</a>
</g>
</g>
<!-- Node1&#45;&gt;Node32 -->
<g id="edge71" class="edge">
<title>Node1&#45;&gt;Node32</title>
<path fill="none" stroke="midnightblue" d="M461.08,-498C353.15,-490.08 105.34,-463.95 105.34,-391 105.34,-391 105.34,-391 105.34,-271.5 105.34,-231.08 101.55,-183.83 99.19,-158.26"/>
<polygon fill="midnightblue" stroke="midnightblue" points="102.66,-157.76 98.22,-148.14 95.69,-158.43 102.66,-157.76"/>
</g>
<!-- Node35 -->
<g id="node35" class="node">
<title>Node35</title>
<g id="a_node35"><a xlink:href="v8_8h.html" target="_top" xlink:title=" ">
<polygon fill="white" stroke="black" points="378.84,-196 378.84,-215 413.84,-215 413.84,-196 378.84,-196"/>
<text text-anchor="middle" x="396.34" y="-203" font-family="Helvetica,sans-Serif" font-size="10.00">v8.h</text>
</a>
</g>
</g>
<!-- Node1&#45;&gt;Node35 -->
<g id="edge78" class="edge">
<title>Node1&#45;&gt;Node35</title>
<path fill="none" stroke="midnightblue" d="M493.2,-492.41C464.39,-476.61 409.34,-440 409.34,-391 409.34,-391 409.34,-391 409.34,-333 409.34,-294.5 403.3,-249.75 399.46,-225.14"/>
<polygon fill="midnightblue" stroke="midnightblue" points="402.88,-224.37 397.83,-215.06 395.97,-225.49 402.88,-224.37"/>
</g>
<!-- Node5 -->
<g id="node5" class="node">
<title>Node5</title>
<g id="a_node5"><a xlink:title=" ">
<polygon fill="white" stroke="#bfbfbf" points="306.84,-62 306.84,-81 357.84,-81 357.84,-62 306.84,-62"/>
<text text-anchor="middle" x="332.34" y="-69" font-family="Helvetica,sans-Serif" font-size="10.00">stddef.h</text>
</a>
</g>
</g>
<!-- Node4&#45;&gt;Node5 -->
<g id="edge4" class="edge">
<title>Node4&#45;&gt;Node5</title>
<path fill="none" stroke="midnightblue" d="M201.53,-195.93C207.83,-179.95 223.19,-145.21 245.34,-123 261.36,-106.93 283.53,-94.16 301.48,-85.49"/>
<polygon fill="midnightblue" stroke="midnightblue" points="303.35,-88.48 310.95,-81.09 300.41,-82.13 303.35,-88.48"/>
</g>
<!-- Node7 -->
<g id="node7" class="node">
<title>Node7</title>
<g id="a_node7"><a xlink:href="api-constants_8h.html" target="_top" xlink:title=" ">
<polygon fill="white" stroke="black" points="638.84,-123.5 638.84,-153.5 731.84,-153.5 731.84,-123.5 638.84,-123.5"/>
<text text-anchor="start" x="646.84" y="-141.5" font-family="Helvetica,sans-Serif" font-size="10.00">cppgc/internal/api</text>
<text text-anchor="middle" x="685.34" y="-130.5" font-family="Helvetica,sans-Serif" font-size="10.00">&#45;constants.h</text>
</a>
</g>
</g>
<!-- Node6&#45;&gt;Node7 -->
<g id="edge6" class="edge">
<title>Node6&#45;&gt;Node7</title>
<path fill="none" stroke="midnightblue" d="M1433.84,-196.13C1418.61,-193.85 1401.82,-191.57 1386.34,-190 1103.61,-161.27 1026.18,-198 742.2,-154.09"/>
<polygon fill="midnightblue" stroke="midnightblue" points="742.43,-150.58 732.01,-152.49 741.35,-157.5 742.43,-150.58"/>
</g>
<!-- Node9 -->
<g id="node9" class="node">
<title>Node9</title>
<g id="a_node9"><a xlink:href="v8config_8h.html" target="_top" xlink:title=" ">
<polygon fill="white" stroke="black" points="1083.34,-62 1083.34,-81 1143.34,-81 1143.34,-62 1083.34,-62"/>
<text text-anchor="middle" x="1113.34" y="-69" font-family="Helvetica,sans-Serif" font-size="10.00">v8config.h</text>
</a>
</g>
</g>
<!-- Node6&#45;&gt;Node9 -->
<g id="edge19" class="edge">
<title>Node6&#45;&gt;Node9</title>
<path fill="none" stroke="midnightblue" d="M1466.67,-190.41C1442.81,-172.09 1398.31,-140.39 1355.34,-123 1287.51,-95.55 1202.69,-82.26 1153.6,-76.45"/>
<polygon fill="midnightblue" stroke="midnightblue" points="1153.72,-72.94 1143.39,-75.29 1152.93,-79.9 1153.72,-72.94"/>
</g>
<!-- Node10 -->
<g id="node10" class="node">
<title>Node10</title>
<g id="a_node10"><a xlink:href="process-heap_8h.html" target="_top" xlink:title=" ">
<polygon fill="white" stroke="black" points="1445.84,-123.5 1445.84,-153.5 1560.84,-153.5 1560.84,-123.5 1445.84,-123.5"/>
<text text-anchor="start" x="1453.84" y="-141.5" font-family="Helvetica,sans-Serif" font-size="10.00">cppgc/internal/process</text>
<text text-anchor="middle" x="1503.34" y="-130.5" font-family="Helvetica,sans-Serif" font-size="10.00">&#45;heap.h</text>
</a>
</g>
</g>
<!-- Node6&#45;&gt;Node10 -->
<g id="edge10" class="edge">
<title>Node6&#45;&gt;Node10</title>
<path fill="none" stroke="midnightblue" d="M1488.46,-190.4C1490.78,-182.47 1493.73,-172.38 1496.39,-163.27"/>
<polygon fill="midnightblue" stroke="midnightblue" points="1499.78,-164.16 1499.22,-153.58 1493.06,-162.19 1499.78,-164.16"/>
</g>
<!-- Node13 -->
<g id="node13" class="node">
<title>Node13</title>
<g id="a_node13"><a xlink:href="trace-trait_8h.html" target="_top" xlink:title=" ">
<polygon fill="white" stroke="black" points="1578.84,-129 1578.84,-148 1673.84,-148 1673.84,-129 1578.84,-129"/>
<text text-anchor="middle" x="1626.34" y="-136" font-family="Helvetica,sans-Serif" font-size="10.00">cppgc/trace&#45;trait.h</text>
</a>
</g>
</g>
<!-- Node6&#45;&gt;Node13 -->
<g id="edge14" class="edge">
<title>Node6&#45;&gt;Node13</title>
<path fill="none" stroke="midnightblue" d="M1515.15,-190.4C1539.95,-179.04 1574.52,-163.22 1598.5,-152.24"/>
<polygon fill="midnightblue" stroke="midnightblue" points="1600.12,-155.35 1607.75,-148.01 1597.2,-148.99 1600.12,-155.35"/>
</g>
<!-- Node7&#45;&gt;Node5 -->
<g id="edge7" class="edge">
<title>Node7&#45;&gt;Node5</title>
<path fill="none" stroke="midnightblue" d="M638.83,-128.94C567.53,-115.81 432.75,-90.99 368.35,-79.13"/>
<polygon fill="midnightblue" stroke="midnightblue" points="368.75,-75.65 358.28,-77.28 367.48,-82.53 368.75,-75.65"/>
</g>
<!-- Node8 -->
<g id="node8" class="node">
<title>Node8</title>
<g id="a_node8"><a xlink:title=" ">
<polygon fill="white" stroke="#bfbfbf" points="447.34,-62 447.34,-81 495.34,-81 495.34,-62 447.34,-62"/>
<text text-anchor="middle" x="471.34" y="-69" font-family="Helvetica,sans-Serif" font-size="10.00">stdint.h</text>
</a>
</g>
</g>
<!-- Node7&#45;&gt;Node8 -->
<g id="edge8" class="edge">
<title>Node7&#45;&gt;Node8</title>
<path fill="none" stroke="midnightblue" d="M639.17,-123.48C598.85,-111.23 541.27,-93.74 505.12,-82.76"/>
<polygon fill="midnightblue" stroke="midnightblue" points="506.11,-79.4 495.52,-79.85 504.07,-86.1 506.11,-79.4"/>
</g>
<!-- Node7&#45;&gt;Node9 -->
<g id="edge9" class="edge">
<title>Node7&#45;&gt;Node9</title>
<path fill="none" stroke="midnightblue" d="M732.05,-124.76C734.85,-124.13 737.62,-123.54 740.34,-123 860.44,-99.13 1004.56,-83.15 1073.19,-76.3"/>
<polygon fill="midnightblue" stroke="midnightblue" points="1073.54,-79.78 1083.15,-75.31 1072.86,-72.81 1073.54,-79.78"/>
</g>
<!-- Node10&#45;&gt;Node9 -->
<g id="edge13" class="edge">
<title>Node10&#45;&gt;Node9</title>
<path fill="none" stroke="midnightblue" d="M1445.61,-125.66C1440.79,-124.73 1435.98,-123.84 1431.34,-123 1331.74,-105.07 1213.99,-87.25 1153.56,-78.34"/>
<polygon fill="midnightblue" stroke="midnightblue" points="1154.06,-74.88 1143.66,-76.89 1153.05,-81.81 1154.06,-74.88"/>
</g>
<!-- Node11 -->
<g id="node11" class="node">
<title>Node11</title>
<g id="a_node11"><a xlink:href="atomic-entry-flag_8h.html" target="_top" xlink:title=" ">
<polygon fill="white" stroke="black" points="1483.34,-56.5 1483.34,-86.5 1593.34,-86.5 1593.34,-56.5 1483.34,-56.5"/>
<text text-anchor="start" x="1491.34" y="-74.5" font-family="Helvetica,sans-Serif" font-size="10.00">cppgc/internal/atomic</text>
<text text-anchor="middle" x="1538.34" y="-63.5" font-family="Helvetica,sans-Serif" font-size="10.00">&#45;entry&#45;flag.h</text>
</a>
</g>
</g>
<!-- Node10&#45;&gt;Node11 -->
<g id="edge11" class="edge">
<title>Node10&#45;&gt;Node11</title>
<path fill="none" stroke="midnightblue" d="M1510.93,-123.4C1515.33,-115.22 1520.98,-104.73 1526.01,-95.39"/>
<polygon fill="midnightblue" stroke="midnightblue" points="1529.1,-97.04 1530.76,-86.58 1522.93,-93.72 1529.1,-97.04"/>
</g>
<!-- Node12 -->
<g id="node12" class="node">
<title>Node12</title>
<g id="a_node12"><a xlink:title=" ">
<polygon fill="white" stroke="#bfbfbf" points="1515.34,-0.5 1515.34,-19.5 1561.34,-19.5 1561.34,-0.5 1515.34,-0.5"/>
<text text-anchor="middle" x="1538.34" y="-7.5" font-family="Helvetica,sans-Serif" font-size="10.00">atomic</text>
</a>
</g>
</g>
<!-- Node11&#45;&gt;Node12 -->
<g id="edge12" class="edge">
<title>Node11&#45;&gt;Node12</title>
<path fill="none" stroke="midnightblue" d="M1538.34,-56.4C1538.34,-48.47 1538.34,-38.46 1538.34,-29.86"/>
<polygon fill="midnightblue" stroke="midnightblue" points="1541.84,-29.66 1538.34,-19.66 1534.84,-29.66 1541.84,-29.66"/>
</g>
<!-- Node13&#45;&gt;Node9 -->
<g id="edge18" class="edge">
<title>Node13&#45;&gt;Node9</title>
<path fill="none" stroke="midnightblue" d="M1596.04,-128.96C1587.46,-126.77 1578.08,-124.59 1569.34,-123 1417.09,-95.34 1233.3,-80.58 1153.53,-75.07"/>
<polygon fill="midnightblue" stroke="midnightblue" points="1153.64,-71.57 1143.42,-74.38 1153.16,-78.55 1153.64,-71.57"/>
</g>
<!-- Node14 -->
<g id="node14" class="node">
<title>Node14</title>
<g id="a_node14"><a xlink:title=" ">
<polygon fill="white" stroke="#bfbfbf" points="1348.34,-0.5 1348.34,-19.5 1410.34,-19.5 1410.34,-0.5 1348.34,-0.5"/>
<text text-anchor="middle" x="1379.34" y="-7.5" font-family="Helvetica,sans-Serif" font-size="10.00">type_traits</text>
</a>
</g>
</g>
<!-- Node13&#45;&gt;Node14 -->
<g id="edge15" class="edge">
<title>Node13&#45;&gt;Node14</title>
<path fill="none" stroke="midnightblue" d="M1596.39,-128.96C1558.5,-117.9 1495.6,-98.69 1474.34,-87 1455.24,-76.5 1453.34,-69.64 1436.34,-56 1423.77,-45.91 1409.54,-34.68 1398.44,-25.96"/>
<polygon fill="midnightblue" stroke="midnightblue" points="1400.33,-22.99 1390.31,-19.58 1396.01,-28.5 1400.33,-22.99"/>
</g>
<!-- Node15 -->
<g id="node15" class="node">
<title>Node15</title>
<g id="a_node15"><a xlink:href="type-traits_8h.html" target="_top" xlink:title=" ">
<polygon fill="white" stroke="black" points="1331.34,-62 1331.34,-81 1427.34,-81 1427.34,-62 1331.34,-62"/>
<text text-anchor="middle" x="1379.34" y="-69" font-family="Helvetica,sans-Serif" font-size="10.00">cppgc/type&#45;traits.h</text>
</a>
</g>
</g>
<!-- Node13&#45;&gt;Node15 -->
<g id="edge16" class="edge">
<title>Node13&#45;&gt;Node15</title>
<path fill="none" stroke="midnightblue" d="M1593.79,-128.94C1549.64,-117.32 1470.69,-96.54 1421.89,-83.7"/>
<polygon fill="midnightblue" stroke="midnightblue" points="1422.52,-80.24 1411.95,-81.08 1420.73,-87.01 1422.52,-80.24"/>
</g>
<!-- Node15&#45;&gt;Node14 -->
<g id="edge17" class="edge">
<title>Node15&#45;&gt;Node14</title>
<path fill="none" stroke="midnightblue" d="M1379.34,-61.98C1379.34,-53.58 1379.34,-40.48 1379.34,-29.66"/>
<polygon fill="midnightblue" stroke="midnightblue" points="1382.84,-29.51 1379.34,-19.51 1375.84,-29.51 1382.84,-29.51"/>
</g>
<!-- Node16&#45;&gt;Node4 -->
<g id="edge21" class="edge">
<title>Node16&#45;&gt;Node4</title>
<path fill="none" stroke="midnightblue" d="M1137.67,-436.44C1032.69,-413.67 739,-349.13 496.34,-288 403.36,-264.58 294.92,-234.13 237.95,-217.88"/>
<polygon fill="midnightblue" stroke="midnightblue" points="238.84,-214.5 228.26,-215.12 236.92,-221.23 238.84,-214.5"/>
</g>
<!-- Node16&#45;&gt;Node13 -->
<g id="edge69" class="edge">
<title>Node16&#45;&gt;Node13</title>
<path fill="none" stroke="midnightblue" d="M1217.4,-444.03C1302.63,-441.37 1498.81,-431.88 1556.34,-400 1641.83,-352.62 1634.45,-209.34 1628.8,-158.03"/>
<polygon fill="midnightblue" stroke="midnightblue" points="1632.27,-157.55 1627.6,-148.05 1625.32,-158.4 1632.27,-157.55"/>
</g>
<!-- Node16&#45;&gt;Node15 -->
<g id="edge70" class="edge">
<title>Node16&#45;&gt;Node15</title>
<path fill="none" stroke="midnightblue" d="M1153.04,-436.47C1116.43,-421.88 1051.34,-388.43 1051.34,-335 1051.34,-335 1051.34,-335 1051.34,-271.5 1051.34,-234.31 1043.54,-215.8 1070.34,-190 1130.99,-131.6 1178.4,-185.87 1256.34,-154 1297.12,-137.32 1338.64,-106.26 1361.48,-87.67"/>
<polygon fill="midnightblue" stroke="midnightblue" points="1363.81,-90.29 1369.28,-81.22 1359.35,-84.89 1363.81,-90.29"/>
</g>
<!-- Node17 -->
<g id="node17" class="node">
<title>Node17</title>
<g id="a_node17"><a xlink:href="ephemeron-pair_8h.html" target="_top" xlink:title=" ">
<polygon fill="white" stroke="black" points="1407.34,-380.5 1407.34,-399.5 1527.34,-399.5 1527.34,-380.5 1407.34,-380.5"/>
<text text-anchor="middle" x="1467.34" y="-387.5" font-family="Helvetica,sans-Serif" font-size="10.00">cppgc/ephemeron&#45;pair.h</text>
</a>
</g>
</g>
<!-- Node16&#45;&gt;Node17 -->
<g id="edge22" class="edge">
<title>Node16&#45;&gt;Node17</title>
<path fill="none" stroke="midnightblue" d="M1217.36,-437.55C1267.78,-428.16 1354.71,-411.97 1411.61,-401.38"/>
<polygon fill="midnightblue" stroke="midnightblue" points="1412.33,-404.8 1421.52,-399.53 1411.05,-397.92 1412.33,-404.8"/>
</g>
<!-- Node18 -->
<g id="node18" class="node">
<title>Node18</title>
<g id="a_node18"><a xlink:href="member_8h.html" target="_top" xlink:title=" ">
<polygon fill="white" stroke="black" points="1503.84,-324.5 1503.84,-343.5 1592.84,-343.5 1592.84,-324.5 1503.84,-324.5"/>
<text text-anchor="middle" x="1548.34" y="-331.5" font-family="Helvetica,sans-Serif" font-size="10.00">cppgc/member.h</text>
</a>
</g>
</g>
<!-- Node16&#45;&gt;Node18 -->
<g id="edge67" class="edge">
<title>Node16&#45;&gt;Node18</title>
<path fill="none" stroke="midnightblue" d="M1217.62,-445.69C1301.57,-446.25 1491.17,-442.63 1536.34,-400 1548.71,-388.33 1550.78,-368.38 1550.32,-353.66"/>
<polygon fill="midnightblue" stroke="midnightblue" points="1553.81,-353.36 1549.62,-343.64 1546.83,-353.86 1553.81,-353.36"/>
</g>
<!-- Node20 -->
<g id="node20" class="node">
<title>Node20</title>
<g id="a_node20"><a xlink:href="pointer-policies_8h.html" target="_top" xlink:title=" ">
<polygon fill="white" stroke="black" points="1299.34,-257.5 1299.34,-287.5 1409.34,-287.5 1409.34,-257.5 1299.34,-257.5"/>
<text text-anchor="start" x="1307.34" y="-275.5" font-family="Helvetica,sans-Serif" font-size="10.00">cppgc/internal/pointer</text>
<text text-anchor="middle" x="1354.34" y="-264.5" font-family="Helvetica,sans-Serif" font-size="10.00">&#45;policies.h</text>
</a>
</g>
</g>
<!-- Node16&#45;&gt;Node20 -->
<g id="edge54" class="edge">
<title>Node16&#45;&gt;Node20</title>
<path fill="none" stroke="midnightblue" d="M1186.36,-436.26C1213.24,-410.21 1293.35,-332.6 1332.42,-294.74"/>
<polygon fill="midnightblue" stroke="midnightblue" points="1334.91,-297.2 1339.66,-287.72 1330.04,-292.17 1334.91,-297.2"/>
</g>
<!-- Node22 -->
<g id="node22" class="node">
<title>Node22</title>
<g id="a_node22"><a xlink:href="source-location_8h.html" target="_top" xlink:title=" ">
<polygon fill="white" stroke="black" points="1079.84,-196 1079.84,-215 1198.84,-215 1198.84,-196 1079.84,-196"/>
<text text-anchor="middle" x="1139.34" y="-203" font-family="Helvetica,sans-Serif" font-size="10.00">cppgc/source&#45;location.h</text>
</a>
</g>
</g>
<!-- Node16&#45;&gt;Node22 -->
<g id="edge68" class="edge">
<title>Node16&#45;&gt;Node22</title>
<path fill="none" stroke="midnightblue" d="M1171.91,-436.24C1157.94,-413.11 1120.94,-348.02 1108.34,-288 1105.5,-274.52 1104.59,-270.26 1108.34,-257 1111.81,-244.7 1119.22,-232.44 1125.92,-223.08"/>
<polygon fill="midnightblue" stroke="midnightblue" points="1128.73,-225.17 1131.98,-215.09 1123.15,-220.94 1128.73,-225.17"/>
</g>
<!-- Node24 -->
<g id="node24" class="node">
<title>Node24</title>
<g id="a_node24"><a xlink:href="garbage-collected_8h.html" target="_top" xlink:title=" ">
<polygon fill="white" stroke="black" points="869.34,-263 869.34,-282 999.34,-282 999.34,-263 869.34,-263"/>
<text text-anchor="middle" x="934.34" y="-270" font-family="Helvetica,sans-Serif" font-size="10.00">cppgc/garbage&#45;collected.h</text>
</a>
</g>
</g>
<!-- Node16&#45;&gt;Node24 -->
<g id="edge37" class="edge">
<title>Node16&#45;&gt;Node24</title>
<path fill="none" stroke="midnightblue" d="M1137.21,-438.47C1107.64,-432.22 1067.48,-420.59 1037.34,-400 994.43,-370.69 960.12,-318.42 944.12,-291.15"/>
<polygon fill="midnightblue" stroke="midnightblue" points="947.08,-289.27 939.08,-282.33 941,-292.74 947.08,-289.27"/>
</g>
<!-- Node28 -->
<g id="node28" class="node">
<title>Node28</title>
<g id="a_node28"><a xlink:href="logging_8h.html" target="_top" xlink:title=" ">
<polygon fill="white" stroke="black" points="1117.84,-263 1117.84,-282 1236.84,-282 1236.84,-263 1117.84,-263"/>
<text text-anchor="middle" x="1177.34" y="-270" font-family="Helvetica,sans-Serif" font-size="10.00">cppgc/internal/logging.h</text>
</a>
</g>
</g>
<!-- Node16&#45;&gt;Node28 -->
<g id="edge51" class="edge">
<title>Node16&#45;&gt;Node28</title>
<path fill="none" stroke="midnightblue" d="M1177.34,-436.26C1177.34,-409.65 1177.34,-329.21 1177.34,-292.34"/>
<polygon fill="midnightblue" stroke="midnightblue" points="1180.84,-292.02 1177.34,-282.02 1173.84,-292.02 1180.84,-292.02"/>
</g>
<!-- Node29 -->
<g id="node29" class="node">
<title>Node29</title>
<g id="a_node29"><a xlink:href="liveness-broker_8h.html" target="_top" xlink:title=" ">
<polygon fill="white" stroke="black" points="1269.84,-380.5 1269.84,-399.5 1388.84,-399.5 1388.84,-380.5 1269.84,-380.5"/>
<text text-anchor="middle" x="1329.34" y="-387.5" font-family="Helvetica,sans-Serif" font-size="10.00">cppgc/liveness&#45;broker.h</text>
</a>
</g>
</g>
<!-- Node16&#45;&gt;Node29 -->
<g id="edge55" class="edge">
<title>Node16&#45;&gt;Node29</title>
<path fill="none" stroke="midnightblue" d="M1201.42,-436.44C1226.88,-427.4 1267.23,-413.06 1295.8,-402.92"/>
<polygon fill="midnightblue" stroke="midnightblue" points="1297.11,-406.16 1305.36,-399.52 1294.77,-399.57 1297.11,-406.16"/>
</g>
<!-- Node17&#45;&gt;Node18 -->
<g id="edge23" class="edge">
<title>Node17&#45;&gt;Node18</title>
<path fill="none" stroke="midnightblue" d="M1480.35,-380.32C1492.87,-371.98 1512.02,-359.21 1526.81,-349.35"/>
<polygon fill="midnightblue" stroke="midnightblue" points="1528.98,-352.11 1535.36,-343.65 1525.09,-346.29 1528.98,-352.11"/>
</g>
<!-- Node18&#45;&gt;Node9 -->
<g id="edge36" class="edge">
<title>Node18&#45;&gt;Node9</title>
<path fill="none" stroke="midnightblue" d="M1557.65,-324.24C1572.49,-309.22 1598.19,-278.15 1581.34,-257 1536.73,-201.01 1488.57,-252.6 1424.34,-221 1420.49,-219.11 1309.15,-124.95 1305.34,-123 1256.23,-97.86 1193.47,-84.42 1153.33,-77.87"/>
<polygon fill="midnightblue" stroke="midnightblue" points="1153.8,-74.4 1143.38,-76.31 1152.72,-81.32 1153.8,-74.4"/>
</g>
<!-- Node18&#45;&gt;Node12 -->
<g id="edge24" class="edge">
<title>Node18&#45;&gt;Node12</title>
<path fill="none" stroke="midnightblue" d="M1592.99,-330.28C1655.21,-325.59 1763.62,-313.88 1792.34,-288 1820.39,-262.72 1816.34,-244.26 1816.34,-206.5 1816.34,-206.5 1816.34,-206.5 1816.34,-137.5 1816.34,-99.74 1820.48,-81.18 1792.34,-56 1760.3,-27.34 1633.48,-16.36 1572.04,-12.66"/>
<polygon fill="midnightblue" stroke="midnightblue" points="1571.9,-9.14 1561.72,-12.07 1571.5,-16.13 1571.9,-9.14"/>
</g>
<!-- Node18&#45;&gt;Node14 -->
<g id="edge26" class="edge">
<title>Node18&#45;&gt;Node14</title>
<path fill="none" stroke="midnightblue" d="M1592.96,-328.47C1659.84,-318.94 1778.34,-290.24 1778.34,-206.5 1778.34,-206.5 1778.34,-206.5 1778.34,-137.5 1778.34,-76.3 1723.85,-79.5 1667.34,-56 1623.45,-37.75 1488.89,-22.05 1420.36,-14.99"/>
<polygon fill="midnightblue" stroke="midnightblue" points="1420.66,-11.5 1410.35,-13.97 1419.95,-18.46 1420.66,-11.5"/>
</g>
<!-- Node18&#45;&gt;Node15 -->
<g id="edge35" class="edge">
<title>Node18&#45;&gt;Node15</title>
<path fill="none" stroke="midnightblue" d="M1539.1,-324.46C1524.35,-309.79 1498.68,-279.21 1514.34,-257 1541.8,-218.05 1575.06,-246.47 1615.34,-221 1659.93,-192.8 1716.44,-163.26 1682.34,-123 1680.36,-120.66 1525.16,-95.67 1437.68,-81.74"/>
<polygon fill="midnightblue" stroke="midnightblue" points="1438.05,-78.26 1427.62,-80.14 1436.95,-85.17 1438.05,-78.26"/>
</g>
<!-- Node19 -->
<g id="node19" class="node">
<title>Node19</title>
<g id="a_node19"><a xlink:title=" ">
<polygon fill="white" stroke="#bfbfbf" points="1523.84,-263 1523.84,-282 1572.84,-282 1572.84,-263 1523.84,-263"/>
<text text-anchor="middle" x="1548.34" y="-270" font-family="Helvetica,sans-Serif" font-size="10.00">cstddef</text>
</a>
</g>
</g>
<!-- Node18&#45;&gt;Node19 -->
<g id="edge25" class="edge">
<title>Node18&#45;&gt;Node19</title>
<path fill="none" stroke="midnightblue" d="M1548.34,-324.48C1548.34,-316.08 1548.34,-302.98 1548.34,-292.16"/>
<polygon fill="midnightblue" stroke="midnightblue" points="1551.84,-292.01 1548.34,-282.01 1544.84,-292.01 1551.84,-292.01"/>
</g>
<!-- Node18&#45;&gt;Node20 -->
<g id="edge27" class="edge">
<title>Node18&#45;&gt;Node20</title>
<path fill="none" stroke="midnightblue" d="M1520.54,-324.48C1491.81,-315.66 1446.18,-301.67 1409.99,-290.57"/>
<polygon fill="midnightblue" stroke="midnightblue" points="1410.65,-287.11 1400.06,-287.52 1408.59,-293.8 1410.65,-287.11"/>
</g>
<!-- Node20&#45;&gt;Node6 -->
<g id="edge30" class="edge">
<title>Node20&#45;&gt;Node6</title>
<path fill="none" stroke="midnightblue" d="M1382.54,-257.4C1401.45,-247.94 1426.56,-235.39 1447.1,-225.12"/>
<polygon fill="midnightblue" stroke="midnightblue" points="1448.8,-228.18 1456.18,-220.58 1445.67,-221.92 1448.8,-228.18"/>
</g>
<!-- Node20&#45;&gt;Node9 -->
<g id="edge34" class="edge">
<title>Node20&#45;&gt;Node9</title>
<path fill="none" stroke="midnightblue" d="M1344.5,-257.26C1337.84,-247.33 1329.07,-233.64 1322.34,-221 1299.99,-179.01 1314.9,-154.59 1279.34,-123 1244.29,-91.86 1190.5,-79.92 1153.71,-75.34"/>
<polygon fill="midnightblue" stroke="midnightblue" points="1153.67,-71.82 1143.35,-74.19 1152.9,-78.77 1153.67,-71.82"/>
</g>
<!-- Node20&#45;&gt;Node14 -->
<g id="edge29" class="edge">
<title>Node20&#45;&gt;Node14</title>
<path fill="none" stroke="midnightblue" d="M1409.55,-270.91C1486.95,-266.66 1624.67,-245.82 1682.34,-154 1745.25,-53.84 1517.05,-22.57 1420.51,-13.95"/>
<polygon fill="midnightblue" stroke="midnightblue" points="1420.76,-10.46 1410.5,-13.09 1420.17,-17.43 1420.76,-10.46"/>
</g>
<!-- Node21 -->
<g id="node21" class="node">
<title>Node21</title>
<g id="a_node21"><a xlink:title=" ">
<polygon fill="white" stroke="#bfbfbf" points="1331.34,-196 1331.34,-215 1377.34,-215 1377.34,-196 1331.34,-196"/>
<text text-anchor="middle" x="1354.34" y="-203" font-family="Helvetica,sans-Serif" font-size="10.00">cstdint</text>
</a>
</g>
</g>
<!-- Node20&#45;&gt;Node21 -->
<g id="edge28" class="edge">
<title>Node20&#45;&gt;Node21</title>
<path fill="none" stroke="midnightblue" d="M1354.34,-257.4C1354.34,-248.06 1354.34,-235.71 1354.34,-225.52"/>
<polygon fill="midnightblue" stroke="midnightblue" points="1357.84,-225.19 1354.34,-215.19 1350.84,-225.19 1357.84,-225.19"/>
</g>
<!-- Node20&#45;&gt;Node22 -->
<g id="edge31" class="edge">
<title>Node20&#45;&gt;Node22</title>
<path fill="none" stroke="midnightblue" d="M1307.95,-257.48C1268.91,-245.67 1213.76,-229 1177.31,-217.98"/>
<polygon fill="midnightblue" stroke="midnightblue" points="1178.13,-214.57 1167.55,-215.03 1176.11,-221.27 1178.13,-214.57"/>
</g>
<!-- Node22&#45;&gt;Node9 -->
<g id="edge33" class="edge">
<title>Node22&#45;&gt;Node9</title>
<path fill="none" stroke="midnightblue" d="M1137.63,-195.84C1133.46,-174.67 1122.68,-119.95 1116.99,-91.03"/>
<polygon fill="midnightblue" stroke="midnightblue" points="1120.38,-90.16 1115.02,-81.02 1113.51,-91.51 1120.38,-90.16"/>
</g>
<!-- Node23 -->
<g id="node23" class="node">
<title>Node23</title>
<g id="a_node23"><a xlink:title=" ">
<polygon fill="white" stroke="#bfbfbf" points="796.84,-62 796.84,-81 837.84,-81 837.84,-62 796.84,-62"/>
<text text-anchor="middle" x="817.34" y="-69" font-family="Helvetica,sans-Serif" font-size="10.00">string</text>
</a>
</g>
</g>
<!-- Node22&#45;&gt;Node23 -->
<g id="edge32" class="edge">
<title>Node22&#45;&gt;Node23</title>
<path fill="none" stroke="midnightblue" d="M1124.73,-196C1097.05,-180.13 1034.77,-145.57 979.34,-123 934.65,-104.81 880.84,-89.22 847.86,-80.36"/>
<polygon fill="midnightblue" stroke="midnightblue" points="848.49,-76.9 837.93,-77.72 846.7,-83.67 848.49,-76.9"/>
</g>
<!-- Node24&#45;&gt;Node7 -->
<g id="edge39" class="edge">
<title>Node24&#45;&gt;Node7</title>
<path fill="none" stroke="midnightblue" d="M909.48,-262.97C883.99,-253.86 843.49,-238.36 810.34,-221 775.23,-202.62 737.45,-177.11 712.72,-159.55"/>
<polygon fill="midnightblue" stroke="midnightblue" points="714.71,-156.67 704.55,-153.69 710.64,-162.36 714.71,-156.67"/>
</g>
<!-- Node24&#45;&gt;Node13 -->
<g id="edge49" class="edge">
<title>Node24&#45;&gt;Node13</title>
<path fill="none" stroke="midnightblue" d="M944.77,-262.85C966.5,-245.39 1018.89,-206.25 1070.34,-190 1282.37,-123.03 1349.84,-189.55 1569.34,-154 1575.15,-153.06 1581.23,-151.81 1587.17,-150.43"/>
<polygon fill="midnightblue" stroke="midnightblue" points="1588.08,-153.81 1596.96,-148.03 1586.42,-147.01 1588.08,-153.81"/>
</g>
<!-- Node24&#45;&gt;Node14 -->
<g id="edge38" class="edge">
<title>Node24&#45;&gt;Node14</title>
<path fill="none" stroke="midnightblue" d="M882.07,-262.99C867.61,-260.82 851.89,-258.65 837.34,-257 630.04,-233.56 574.51,-258.74 369.34,-221 321.48,-212.2 311.79,-200.77 264.34,-190 166.01,-167.68 118.33,-217.91 40.34,-154 5.57,-125.51 -15.92,-88.3 15.34,-56 62.45,-7.31 1114.47,-9.7 1337.87,-10.77"/>
<polygon fill="midnightblue" stroke="midnightblue" points="1338.16,-14.27 1348.18,-10.82 1338.19,-7.27 1338.16,-14.27"/>
</g>
<!-- Node24&#45;&gt;Node15 -->
<g id="edge50" class="edge">
<title>Node24&#45;&gt;Node15</title>
<path fill="none" stroke="midnightblue" d="M938.99,-262.9C948.68,-245.9 972.77,-208.07 1004.34,-190 1082.33,-145.34 1117.64,-181.1 1203.34,-154 1260.03,-136.07 1322.24,-104.1 1355.39,-85.99"/>
<polygon fill="midnightblue" stroke="midnightblue" points="1357.26,-88.96 1364.33,-81.06 1353.88,-82.83 1357.26,-88.96"/>
</g>
<!-- Node25 -->
<g id="node25" class="node">
<title>Node25</title>
<g id="a_node25"><a xlink:href="platform_8h.html" target="_top" xlink:title=" ">
<polygon fill="white" stroke="black" points="819.84,-196 819.84,-215 908.84,-215 908.84,-196 819.84,-196"/>
<text text-anchor="middle" x="864.34" y="-203" font-family="Helvetica,sans-Serif" font-size="10.00">cppgc/platform.h</text>
</a>
</g>
</g>
<!-- Node24&#45;&gt;Node25 -->
<g id="edge40" class="edge">
<title>Node24&#45;&gt;Node25</title>
<path fill="none" stroke="midnightblue" d="M924.9,-262.73C913.67,-252.31 894.72,-234.71 881,-221.97"/>
<polygon fill="midnightblue" stroke="midnightblue" points="883.34,-219.37 873.63,-215.13 878.57,-224.5 883.34,-219.37"/>
</g>
<!-- Node25&#45;&gt;Node9 -->
<g id="edge48" class="edge">
<title>Node25&#45;&gt;Node9</title>
<path fill="none" stroke="midnightblue" d="M886.36,-195.85C909.81,-186.4 947.81,-170.42 979.34,-154 1020.2,-132.72 1065.59,-103.96 1091.67,-86.91"/>
<polygon fill="midnightblue" stroke="midnightblue" points="1093.93,-89.61 1100.36,-81.19 1090.08,-83.77 1093.93,-89.61"/>
</g>
<!-- Node26 -->
<g id="node26" class="node">
<title>Node26</title>
<g id="a_node26"><a xlink:href="v8-platform_8h.html" target="_top" xlink:title=" ">
<polygon fill="white" stroke="black" points="749.84,-129 749.84,-148 822.84,-148 822.84,-129 749.84,-129"/>
<text text-anchor="middle" x="786.34" y="-136" font-family="Helvetica,sans-Serif" font-size="10.00">v8&#45;platform.h</text>
</a>
</g>
</g>
<!-- Node25&#45;&gt;Node26 -->
<g id="edge41" class="edge">
<title>Node25&#45;&gt;Node26</title>
<path fill="none" stroke="midnightblue" d="M853.82,-195.73C841.19,-185.21 819.79,-167.38 804.48,-154.62"/>
<polygon fill="midnightblue" stroke="midnightblue" points="806.61,-151.84 796.69,-148.13 802.13,-157.22 806.61,-151.84"/>
</g>
<!-- Node26&#45;&gt;Node2 -->
<g id="edge45" class="edge">
<title>Node26&#45;&gt;Node2</title>
<path fill="none" stroke="midnightblue" d="M759.62,-128.92C753.31,-126.94 746.6,-124.86 740.34,-123 690.29,-108.1 632.06,-91.98 595.7,-82.06"/>
<polygon fill="midnightblue" stroke="midnightblue" points="596.61,-78.69 586.05,-79.44 594.78,-85.44 596.61,-78.69"/>
</g>
<!-- Node26&#45;&gt;Node5 -->
<g id="edge42" class="edge">
<title>Node26&#45;&gt;Node5</title>
<path fill="none" stroke="midnightblue" d="M762.21,-128.97C755.23,-126.75 747.54,-124.55 740.34,-123 608.19,-94.56 572.42,-104.16 438.34,-87 414.96,-84.01 388.72,-80.42 368.19,-77.56"/>
<polygon fill="midnightblue" stroke="midnightblue" points="368.41,-74.06 358.02,-76.14 367.44,-80.99 368.41,-74.06"/>
</g>
<!-- Node26&#45;&gt;Node8 -->
<g id="edge43" class="edge">
<title>Node26&#45;&gt;Node8</title>
<path fill="none" stroke="midnightblue" d="M761.21,-128.88C754.48,-126.77 747.18,-124.64 740.34,-123 646.13,-100.38 620.01,-107.59 525.34,-87 518.86,-85.59 512,-83.9 505.42,-82.19"/>
<polygon fill="midnightblue" stroke="midnightblue" points="505.97,-78.71 495.41,-79.5 504.16,-85.47 505.97,-78.71"/>
</g>
<!-- Node26&#45;&gt;Node9 -->
<g id="edge47" class="edge">
<title>Node26&#45;&gt;Node9</title>
<path fill="none" stroke="midnightblue" d="M814.54,-128.96C821.92,-126.87 829.9,-124.73 837.34,-123 920.51,-103.62 1019.2,-87.1 1073.15,-78.61"/>
<polygon fill="midnightblue" stroke="midnightblue" points="1073.99,-82.02 1083.33,-77.02 1072.91,-75.11 1073.99,-82.02"/>
</g>
<!-- Node26&#45;&gt;Node23 -->
<g id="edge46" class="edge">
<title>Node26&#45;&gt;Node23</title>
<path fill="none" stroke="midnightblue" d="M790.52,-128.73C795.21,-118.89 802.95,-102.66 808.91,-90.16"/>
<polygon fill="midnightblue" stroke="midnightblue" points="812.08,-91.66 813.22,-81.13 805.76,-88.65 812.08,-91.66"/>
</g>
<!-- Node27 -->
<g id="node27" class="node">
<title>Node27</title>
<g id="a_node27"><a xlink:title=" ">
<polygon fill="white" stroke="#bfbfbf" points="731.84,-62 731.84,-81 778.84,-81 778.84,-62 731.84,-62"/>
<text text-anchor="middle" x="755.34" y="-69" font-family="Helvetica,sans-Serif" font-size="10.00">stdlib.h</text>
</a>
</g>
</g>
<!-- Node26&#45;&gt;Node27 -->
<g id="edge44" class="edge">
<title>Node26&#45;&gt;Node27</title>
<path fill="none" stroke="midnightblue" d="M782.16,-128.73C777.46,-118.89 769.72,-102.66 763.76,-90.16"/>
<polygon fill="midnightblue" stroke="midnightblue" points="766.92,-88.65 759.45,-81.13 760.6,-91.66 766.92,-88.65"/>
</g>
<!-- Node28&#45;&gt;Node9 -->
<g id="edge53" class="edge">
<title>Node28&#45;&gt;Node9</title>
<path fill="none" stroke="midnightblue" d="M1184.46,-262.87C1191.84,-253.32 1202.91,-237.13 1207.34,-221 1210.99,-207.71 1211.9,-203 1207.34,-190 1192.32,-147.19 1154.42,-108.39 1131.59,-87.86"/>
<polygon fill="midnightblue" stroke="midnightblue" points="1133.76,-85.11 1123.93,-81.15 1129.15,-90.37 1133.76,-85.11"/>
</g>
<!-- Node28&#45;&gt;Node22 -->
<g id="edge52" class="edge">
<title>Node28&#45;&gt;Node22</title>
<path fill="none" stroke="midnightblue" d="M1172.21,-262.73C1166.4,-252.79 1156.78,-236.34 1149.44,-223.79"/>
<polygon fill="midnightblue" stroke="midnightblue" points="1152.45,-221.99 1144.38,-215.13 1146.41,-225.53 1152.45,-221.99"/>
</g>
<!-- Node29&#45;&gt;Node9 -->
<g id="edge66" class="edge">
<title>Node29&#45;&gt;Node9</title>
<path fill="none" stroke="midnightblue" d="M1320.44,-380.34C1302.85,-362.27 1265.34,-318.43 1265.34,-273.5 1265.34,-273.5 1265.34,-273.5 1265.34,-204.5 1265.34,-142.63 1192.66,-103.21 1147.82,-84.78"/>
<polygon fill="midnightblue" stroke="midnightblue" points="1149.02,-81.49 1138.44,-81.06 1146.44,-87.99 1149.02,-81.49"/>
</g>
<!-- Node29&#45;&gt;Node13 -->
<g id="edge65" class="edge">
<title>Node29&#45;&gt;Node13</title>
<path fill="none" stroke="midnightblue" d="M1341.3,-380.34C1374.39,-356.22 1469.53,-285.85 1543.34,-221 1567.85,-199.46 1594.48,-172.65 1610.79,-155.8"/>
<polygon fill="midnightblue" stroke="midnightblue" points="1613.51,-158.02 1617.92,-148.39 1608.46,-153.17 1613.51,-158.02"/>
</g>
<!-- Node29&#45;&gt;Node18 -->
<g id="edge64" class="edge">
<title>Node29&#45;&gt;Node18</title>
<path fill="none" stroke="midnightblue" d="M1364.04,-380.44C1401.92,-371.1 1462.69,-356.12 1504,-345.93"/>
<polygon fill="midnightblue" stroke="midnightblue" points="1504.93,-349.31 1513.8,-343.52 1503.25,-342.51 1504.93,-349.31"/>
</g>
<!-- Node30 -->
<g id="node30" class="node">
<title>Node30</title>
<g id="a_node30"><a xlink:href="heap_8h.html" target="_top" xlink:title=" ">
<polygon fill="white" stroke="black" points="754.34,-263 754.34,-282 828.34,-282 828.34,-263 754.34,-263"/>
<text text-anchor="middle" x="791.34" y="-270" font-family="Helvetica,sans-Serif" font-size="10.00">cppgc/heap.h</text>
</a>
</g>
</g>
<!-- Node29&#45;&gt;Node30 -->
<g id="edge56" class="edge">
<title>Node29&#45;&gt;Node30</title>
<path fill="none" stroke="midnightblue" d="M1289.34,-380.41C1191.89,-359.49 942.55,-305.96 838.28,-283.58"/>
<polygon fill="midnightblue" stroke="midnightblue" points="838.87,-280.13 828.36,-281.45 837.4,-286.97 838.87,-280.13"/>
</g>
<!-- Node30&#45;&gt;Node2 -->
<g id="edge57" class="edge">
<title>Node30&#45;&gt;Node2</title>
<path fill="none" stroke="midnightblue" d="M777.04,-262.79C747.7,-244.59 679.26,-200.31 629.34,-154 607.55,-133.79 585.99,-106.93 572.92,-89.68"/>
<polygon fill="midnightblue" stroke="midnightblue" points="575.37,-87.1 566.58,-81.18 569.76,-91.29 575.37,-87.1"/>
</g>
<!-- Node30&#45;&gt;Node3 -->
<g id="edge58" class="edge">
<title>Node30&#45;&gt;Node3</title>
<path fill="none" stroke="midnightblue" d="M754.2,-269.07C714.94,-264.81 652.92,-253.12 610.34,-221 588.75,-204.71 574.38,-176.14 566.8,-157.53"/>
<polygon fill="midnightblue" stroke="midnightblue" points="570.04,-156.2 563.19,-148.11 563.5,-158.7 570.04,-156.2"/>
</g>
<!-- Node30&#45;&gt;Node4 -->
<g id="edge61" class="edge">
<title>Node30&#45;&gt;Node4</title>
<path fill="none" stroke="midnightblue" d="M754.22,-269.21C668.61,-263.64 450.78,-247.84 270.34,-221 262.8,-219.88 254.85,-218.49 247.1,-217.02"/>
<polygon fill="midnightblue" stroke="midnightblue" points="247.56,-213.54 237.07,-215.06 246.21,-220.41 247.56,-213.54"/>
</g>
<!-- Node30&#45;&gt;Node9 -->
<g id="edge63" class="edge">
<title>Node30&#45;&gt;Node9</title>
<path fill="none" stroke="midnightblue" d="M817.71,-262.95C843.78,-254.03 884.41,-238.88 917.34,-221 938.36,-209.58 941.34,-203.13 961.34,-190 987.02,-173.14 995.58,-172.19 1020.34,-154 1048.84,-133.05 1079.18,-105.31 1097.18,-88.19"/>
<polygon fill="midnightblue" stroke="midnightblue" points="1099.74,-90.59 1104.53,-81.14 1094.89,-85.54 1099.74,-90.59"/>
</g>
<!-- Node30&#45;&gt;Node25 -->
<g id="edge62" class="edge">
<title>Node30&#45;&gt;Node25</title>
<path fill="none" stroke="midnightblue" d="M801.18,-262.73C812.89,-252.31 832.66,-234.71 846.96,-221.97"/>
<polygon fill="midnightblue" stroke="midnightblue" points="849.51,-224.39 854.65,-215.13 844.85,-219.16 849.51,-224.39"/>
</g>
<!-- Node31 -->
<g id="node31" class="node">
<title>Node31</title>
<g id="a_node31"><a xlink:href="common_8h.html" target="_top" xlink:title=" ">
<polygon fill="white" stroke="black" points="879.84,-129 879.84,-148 970.84,-148 970.84,-129 879.84,-129"/>
<text text-anchor="middle" x="925.34" y="-136" font-family="Helvetica,sans-Serif" font-size="10.00">cppgc/common.h</text>
</a>
</g>
</g>
<!-- Node30&#45;&gt;Node31 -->
<g id="edge59" class="edge">
<title>Node30&#45;&gt;Node31</title>
<path fill="none" stroke="midnightblue" d="M790.96,-262.79C790.74,-246.57 792.52,-211.46 810.34,-190 826.29,-170.78 851,-158.65 873.42,-151.12"/>
<polygon fill="midnightblue" stroke="midnightblue" points="874.69,-154.39 883.19,-148.06 872.6,-147.7 874.69,-154.39"/>
</g>
<!-- Node31&#45;&gt;Node9 -->
<g id="edge60" class="edge">
<title>Node31&#45;&gt;Node9</title>
<path fill="none" stroke="midnightblue" d="M950.3,-128.87C983.26,-117.47 1041.45,-97.35 1078.67,-84.49"/>
<polygon fill="midnightblue" stroke="midnightblue" points="1080.26,-87.64 1088.57,-81.06 1077.97,-81.02 1080.26,-87.64"/>
</g>
<!-- Node32&#45;&gt;Node5 -->
<g id="edge72" class="edge">
<title>Node32&#45;&gt;Node5</title>
<path fill="none" stroke="midnightblue" d="M128.54,-128.87C172.19,-116.8 251.23,-94.93 296.99,-82.28"/>
<polygon fill="midnightblue" stroke="midnightblue" points="298.07,-85.61 306.78,-79.57 296.2,-78.86 298.07,-85.61"/>
</g>
<!-- Node32&#45;&gt;Node8 -->
<g id="edge73" class="edge">
<title>Node32&#45;&gt;Node8</title>
<path fill="none" stroke="midnightblue" d="M131.85,-131.5C203.06,-119.13 365.55,-90.89 436.79,-78.5"/>
<polygon fill="midnightblue" stroke="midnightblue" points="437.76,-81.89 447.01,-76.73 436.56,-74.99 437.76,-81.89"/>
</g>
<!-- Node32&#45;&gt;Node9 -->
<g id="edge77" class="edge">
<title>Node32&#45;&gt;Node9</title>
<path fill="none" stroke="midnightblue" d="M132.14,-133.98C164.14,-130.82 212.9,-126.2 255.34,-123 417.37,-110.8 924.74,-82.81 1072.55,-74.72"/>
<polygon fill="midnightblue" stroke="midnightblue" points="1073.16,-78.19 1082.96,-74.15 1072.78,-71.2 1073.16,-78.19"/>
</g>
<!-- Node32&#45;&gt;Node14 -->
<g id="edge75" class="edge">
<title>Node32&#45;&gt;Node14</title>
<path fill="none" stroke="midnightblue" d="M109.6,-128.97C123.96,-118.97 148.43,-101.87 169.34,-87 188.54,-73.35 190.06,-63.67 212.34,-56 320.4,-18.79 1143.41,-12.22 1338.13,-11.18"/>
<polygon fill="midnightblue" stroke="midnightblue" points="1338.25,-14.68 1348.23,-11.13 1338.21,-7.68 1338.25,-14.68"/>
</g>
<!-- Node33 -->
<g id="node33" class="node">
<title>Node33</title>
<g id="a_node33"><a xlink:title=" ">
<polygon fill="white" stroke="#bfbfbf" points="112.34,-62 112.34,-81 160.34,-81 160.34,-62 112.34,-62"/>
<text text-anchor="middle" x="136.34" y="-69" font-family="Helvetica,sans-Serif" font-size="10.00">string.h</text>
</a>
</g>
</g>
<!-- Node32&#45;&gt;Node33 -->
<g id="edge74" class="edge">
<title>Node32&#45;&gt;Node33</title>
<path fill="none" stroke="midnightblue" d="M102.6,-128.73C108.56,-118.79 118.43,-102.34 125.96,-89.79"/>
<polygon fill="midnightblue" stroke="midnightblue" points="129.02,-91.5 131.16,-81.13 123.01,-87.9 129.02,-91.5"/>
</g>
<!-- Node34 -->
<g id="node34" class="node">
<title>Node34</title>
<g id="a_node34"><a xlink:href="v8-version_8h.html" target="_top" xlink:title=" ">
<polygon fill="white" stroke="black" points="24.84,-62 24.84,-81 93.84,-81 93.84,-62 24.84,-62"/>
<text text-anchor="middle" x="59.34" y="-69" font-family="Helvetica,sans-Serif" font-size="10.00">v8&#45;version.h</text>
</a>
</g>
</g>
<!-- Node32&#45;&gt;Node34 -->
<g id="edge76" class="edge">
<title>Node32&#45;&gt;Node34</title>
<path fill="none" stroke="midnightblue" d="M92.21,-128.73C86.4,-118.79 76.78,-102.34 69.44,-89.79"/>
<polygon fill="midnightblue" stroke="midnightblue" points="72.45,-87.99 64.38,-81.13 66.41,-91.53 72.45,-87.99"/>
</g>
<!-- Node35&#45;&gt;Node2 -->
<g id="edge83" class="edge">
<title>Node35&#45;&gt;Node2</title>
<path fill="none" stroke="midnightblue" d="M401.09,-195.84C410.3,-179.71 432.01,-144.73 458.34,-123 478.46,-106.39 504.97,-93.47 525.92,-84.86"/>
<polygon fill="midnightblue" stroke="midnightblue" points="527.41,-88.04 535.41,-81.1 524.83,-81.53 527.41,-88.04"/>
</g>
<!-- Node35&#45;&gt;Node3 -->
<g id="edge87" class="edge">
<title>Node35&#45;&gt;Node3</title>
<path fill="none" stroke="midnightblue" d="M413.89,-197.54C441.41,-186.63 495.11,-165.35 529.28,-151.81"/>
<polygon fill="midnightblue" stroke="midnightblue" points="530.77,-154.98 538.78,-148.04 528.19,-148.47 530.77,-154.98"/>
</g>
<!-- Node35&#45;&gt;Node5 -->
<g id="edge79" class="edge">
<title>Node35&#45;&gt;Node5</title>
<path fill="none" stroke="midnightblue" d="M386.13,-195.9C375.79,-186.62 360.1,-170.89 351.34,-154 341.01,-134.09 336.23,-108.56 334.06,-91.42"/>
<polygon fill="midnightblue" stroke="midnightblue" points="337.5,-90.64 332.94,-81.07 330.54,-91.39 337.5,-90.64"/>
</g>
<!-- Node35&#45;&gt;Node8 -->
<g id="edge80" class="edge">
<title>Node35&#45;&gt;Node8</title>
<path fill="none" stroke="midnightblue" d="M378.82,-201.73C333.6,-193.84 218.97,-168.85 255.34,-123 266.63,-108.76 378.69,-88.07 436.79,-78.18"/>
<polygon fill="midnightblue" stroke="midnightblue" points="437.69,-81.57 446.97,-76.46 436.53,-74.67 437.69,-81.57"/>
</g>
<!-- Node35&#45;&gt;Node9 -->
<g id="edge91" class="edge">
<title>Node35&#45;&gt;Node9</title>
<path fill="none" stroke="midnightblue" d="M414.16,-203.73C485.94,-200.45 753.75,-186.22 831.34,-154 851.79,-145.51 850.29,-132.4 870.34,-123 937.18,-91.67 1023.38,-79.66 1073.1,-75.14"/>
<polygon fill="midnightblue" stroke="midnightblue" points="1073.47,-78.62 1083.13,-74.28 1072.87,-71.65 1073.47,-78.62"/>
</g>
<!-- Node35&#45;&gt;Node12 -->
<g id="edge82" class="edge">
<title>Node35&#45;&gt;Node12</title>
<path fill="none" stroke="midnightblue" d="M414.15,-204.2C485.72,-202.73 759.04,-194.62 979.34,-154 1135.25,-125.25 1168.41,-93.97 1322.34,-56 1386.62,-40.14 1462.57,-25.18 1505.12,-17.14"/>
<polygon fill="midnightblue" stroke="midnightblue" points="1506.01,-20.53 1515.2,-15.25 1504.72,-13.65 1506.01,-20.53"/>
</g>
<!-- Node35&#45;&gt;Node14 -->
<g id="edge85" class="edge">
<title>Node35&#45;&gt;Node14</title>
<path fill="none" stroke="midnightblue" d="M378.78,-201.26C342.5,-194.18 261.29,-176.15 245.34,-154 215.38,-112.39 293.16,-58.16 297.34,-56 391.02,-7.68 1150.97,-9.49 1337.91,-10.68"/>
<polygon fill="midnightblue" stroke="midnightblue" points="1338.12,-14.18 1348.14,-10.74 1338.17,-7.18 1338.12,-14.18"/>
</g>
<!-- Node35&#45;&gt;Node23 -->
<g id="edge84" class="edge">
<title>Node35&#45;&gt;Node23</title>
<path fill="none" stroke="midnightblue" d="M406.93,-195.86C428.48,-178.78 479.63,-140.82 529.34,-123 638.32,-83.93 676.54,-120.6 787.34,-87 789.01,-86.49 790.71,-85.9 792.4,-85.26"/>
<polygon fill="midnightblue" stroke="midnightblue" points="794.07,-88.35 801.83,-81.13 791.26,-81.93 794.07,-88.35"/>
</g>
<!-- Node35&#45;&gt;Node31 -->
<g id="edge88" class="edge">
<title>Node35&#45;&gt;Node31</title>
<path fill="none" stroke="midnightblue" d="M413.91,-203.43C476,-199.49 690.66,-184.38 865.34,-154 871.22,-152.98 877.39,-151.71 883.43,-150.36"/>
<polygon fill="midnightblue" stroke="midnightblue" points="884.48,-153.71 893.43,-148.03 882.89,-146.89 884.48,-153.71"/>
</g>
<!-- Node35&#45;&gt;Node32 -->
<g id="edge89" class="edge">
<title>Node35&#45;&gt;Node32</title>
<path fill="none" stroke="midnightblue" d="M378.64,-201.48C337.57,-194.35 232.71,-175.46 146.34,-154 142.48,-153.04 138.46,-151.97 134.47,-150.86"/>
<polygon fill="midnightblue" stroke="midnightblue" points="135.27,-147.45 124.69,-148.06 133.34,-154.18 135.27,-147.45"/>
</g>
<!-- Node35&#45;&gt;Node34 -->
<g id="edge90" class="edge">
<title>Node35&#45;&gt;Node34</title>
<path fill="none" stroke="midnightblue" d="M378.63,-201.88C359.01,-198.97 326.41,-194.14 298.34,-190 243.9,-181.97 89.31,-195.64 53.34,-154 38.45,-136.77 44.59,-109.11 51.24,-90.87"/>
<polygon fill="midnightblue" stroke="midnightblue" points="54.58,-91.95 55.06,-81.37 48.08,-89.34 54.58,-91.95"/>
</g>
<!-- Node36 -->
<g id="node36" class="node">
<title>Node36</title>
<g id="a_node36"><a xlink:title=" ">
<polygon fill="white" stroke="#bfbfbf" points="360.84,-129 360.84,-148 405.84,-148 405.84,-129 360.84,-129"/>
<text text-anchor="middle" x="383.34" y="-136" font-family="Helvetica,sans-Serif" font-size="10.00">stdio.h</text>
</a>
</g>
</g>
<!-- Node35&#45;&gt;Node36 -->
<g id="edge81" class="edge">
<title>Node35&#45;&gt;Node36</title>
<path fill="none" stroke="midnightblue" d="M394.58,-195.73C392.67,-186.18 389.56,-170.62 387.09,-158.28"/>
<polygon fill="midnightblue" stroke="midnightblue" points="390.46,-157.25 385.06,-148.13 383.59,-158.62 390.46,-157.25"/>
</g>
<!-- Node37 -->
<g id="node37" class="node">
<title>Node37</title>
<g id="a_node37"><a xlink:title=" ">
<polygon fill="white" stroke="#bfbfbf" points="264.84,-129 264.84,-148 303.84,-148 303.84,-129 264.84,-129"/>
<text text-anchor="middle" x="284.34" y="-136" font-family="Helvetica,sans-Serif" font-size="10.00">utility</text>
</a>
</g>
</g>
<!-- Node35&#45;&gt;Node37 -->
<g id="edge86" class="edge">
<title>Node35&#45;&gt;Node37</title>
<path fill="none" stroke="midnightblue" d="M381.23,-195.73C362.42,-184.82 330.08,-166.05 307.98,-153.22"/>
<polygon fill="midnightblue" stroke="midnightblue" points="309.61,-150.12 299.2,-148.13 306.09,-156.17 309.61,-150.12"/>
</g>
</g>
</svg>
