<?xml version="1.0" encoding="UTF-8" standalone="no"?>
<!DOCTYPE svg PUBLIC "-//W3C//DTD SVG 1.1//EN"
 "http://www.w3.org/Graphics/SVG/1.1/DTD/svg11.dtd">
<!-- Generated by graphviz version 2.44.0 ()
 -->
<!-- Title: include/cppgc/visitor.h Pages: 1 -->
<svg width="1418pt" height="464pt"
 viewBox="0.00 0.00 1417.50 464.00" xmlns="http://www.w3.org/2000/svg" xmlns:xlink="http://www.w3.org/1999/xlink">
<g id="graph0" class="graph" transform="scale(1 1) rotate(0) translate(4 460)">
<title>include/cppgc/visitor.h</title>
<polygon fill="white" stroke="transparent" points="-4,4 -4,-460 1413.5,-460 1413.5,4 -4,4"/>
<!-- Node1 -->
<g id="node1" class="node">
<title>Node1</title>
<g id="a_node1"><a xlink:title=" ">
<polygon fill="#bfbfbf" stroke="black" points="411.5,-436.5 411.5,-455.5 524.5,-455.5 524.5,-436.5 411.5,-436.5"/>
<text text-anchor="middle" x="468" y="-443.5" font-family="Helvetica,sans-Serif" font-size="10.00">include/cppgc/visitor.h</text>
</a>
</g>
</g>
<!-- Node2 -->
<g id="node2" class="node">
<title>Node2</title>
<g id="a_node2"><a xlink:href="custom-space_8h.html" target="_top" xlink:title=" ">
<polygon fill="white" stroke="black" points="1294.5,-196 1294.5,-215 1409.5,-215 1409.5,-196 1294.5,-196"/>
<text text-anchor="middle" x="1352" y="-203" font-family="Helvetica,sans-Serif" font-size="10.00">cppgc/custom&#45;space.h</text>
</a>
</g>
</g>
<!-- Node1&#45;&gt;Node2 -->
<g id="edge1" class="edge">
<title>Node1&#45;&gt;Node2</title>
<path fill="none" stroke="midnightblue" d="M524.69,-442.17C636.28,-435.23 891.1,-412.61 1093,-344 1187.08,-312.03 1288.25,-248.88 1331.02,-220.68"/>
<polygon fill="midnightblue" stroke="midnightblue" points="1333.08,-223.52 1339.46,-215.07 1329.2,-217.69 1333.08,-223.52"/>
</g>
<!-- Node4 -->
<g id="node4" class="node">
<title>Node4</title>
<g id="a_node4"><a xlink:href="ephemeron-pair_8h.html" target="_top" xlink:title=" ">
<polygon fill="white" stroke="black" points="238,-380.5 238,-399.5 358,-399.5 358,-380.5 238,-380.5"/>
<text text-anchor="middle" x="298" y="-387.5" font-family="Helvetica,sans-Serif" font-size="10.00">cppgc/ephemeron&#45;pair.h</text>
</a>
</g>
</g>
<!-- Node1&#45;&gt;Node4 -->
<g id="edge3" class="edge">
<title>Node1&#45;&gt;Node4</title>
<path fill="none" stroke="midnightblue" d="M441.06,-436.44C412.34,-427.32 366.67,-412.81 334.68,-402.65"/>
<polygon fill="midnightblue" stroke="midnightblue" points="335.4,-399.21 324.81,-399.52 333.28,-405.88 335.4,-399.21"/>
</g>
<!-- Node5 -->
<g id="node5" class="node">
<title>Node5</title>
<g id="a_node5"><a xlink:href="member_8h.html" target="_top" xlink:title=" ">
<polygon fill="white" stroke="black" points="165.5,-324.5 165.5,-343.5 254.5,-343.5 254.5,-324.5 165.5,-324.5"/>
<text text-anchor="middle" x="210" y="-331.5" font-family="Helvetica,sans-Serif" font-size="10.00">cppgc/member.h</text>
</a>
</g>
</g>
<!-- Node1&#45;&gt;Node5 -->
<g id="edge62" class="edge">
<title>Node1&#45;&gt;Node5</title>
<path fill="none" stroke="midnightblue" d="M411.45,-441.1C349.43,-435.68 255.2,-423.75 229,-400 216.09,-388.3 211.76,-368.36 210.4,-353.64"/>
<polygon fill="midnightblue" stroke="midnightblue" points="213.89,-353.42 209.85,-343.63 206.91,-353.81 213.89,-353.42"/>
</g>
<!-- Node9 -->
<g id="node9" class="node">
<title>Node9</title>
<g id="a_node9"><a xlink:href="pointer-policies_8h.html" target="_top" xlink:title=" ">
<polygon fill="white" stroke="black" points="663,-257.5 663,-287.5 773,-287.5 773,-257.5 663,-257.5"/>
<text text-anchor="start" x="671" y="-275.5" font-family="Helvetica,sans-Serif" font-size="10.00">cppgc/internal/pointer</text>
<text text-anchor="middle" x="718" y="-264.5" font-family="Helvetica,sans-Serif" font-size="10.00">&#45;policies.h</text>
</a>
</g>
</g>
<!-- Node1&#45;&gt;Node9 -->
<g id="edge49" class="edge">
<title>Node1&#45;&gt;Node9</title>
<path fill="none" stroke="midnightblue" d="M497.73,-436.47C521.38,-428.93 554.74,-416.55 581,-400 628.36,-370.15 674.25,-322.91 699.05,-295.39"/>
<polygon fill="midnightblue" stroke="midnightblue" points="701.72,-297.65 705.75,-287.85 696.49,-292.99 701.72,-297.65"/>
</g>
<!-- Node17 -->
<g id="node17" class="node">
<title>Node17</title>
<g id="a_node17"><a xlink:href="trace-trait_8h.html" target="_top" xlink:title=" ">
<polygon fill="white" stroke="black" points="324.5,-129 324.5,-148 419.5,-148 419.5,-129 324.5,-129"/>
<text text-anchor="middle" x="372" y="-136" font-family="Helvetica,sans-Serif" font-size="10.00">cppgc/trace&#45;trait.h</text>
</a>
</g>
</g>
<!-- Node1&#45;&gt;Node17 -->
<g id="edge64" class="edge">
<title>Node1&#45;&gt;Node17</title>
<path fill="none" stroke="midnightblue" d="M461.88,-436.35C449.79,-418.38 424,-375.31 424,-335 424,-335 424,-335 424,-271.5 424,-227.58 398.77,-180.79 383.46,-156.45"/>
<polygon fill="midnightblue" stroke="midnightblue" points="386.35,-154.48 377.97,-148 380.48,-158.29 386.35,-154.48"/>
</g>
<!-- Node18 -->
<g id="node18" class="node">
<title>Node18</title>
<g id="a_node18"><a xlink:href="type-traits_8h.html" target="_top" xlink:title=" ">
<polygon fill="white" stroke="black" points="104,-62 104,-81 200,-81 200,-62 104,-62"/>
<text text-anchor="middle" x="152" y="-69" font-family="Helvetica,sans-Serif" font-size="10.00">cppgc/type&#45;traits.h</text>
</a>
</g>
</g>
<!-- Node1&#45;&gt;Node18 -->
<g id="edge65" class="edge">
<title>Node1&#45;&gt;Node18</title>
<path fill="none" stroke="midnightblue" d="M411.34,-442.34C294.58,-435.31 38,-411.19 38,-335 38,-335 38,-335 38,-204.5 38,-150.25 93.83,-107.28 127.35,-86.38"/>
<polygon fill="midnightblue" stroke="midnightblue" points="129.39,-89.23 136.15,-81.07 125.78,-83.24 129.39,-89.23"/>
</g>
<!-- Node19 -->
<g id="node19" class="node">
<title>Node19</title>
<g id="a_node19"><a xlink:href="source-location_8h.html" target="_top" xlink:title=" ">
<polygon fill="white" stroke="black" points="1157.5,-196 1157.5,-215 1276.5,-215 1276.5,-196 1157.5,-196"/>
<text text-anchor="middle" x="1217" y="-203" font-family="Helvetica,sans-Serif" font-size="10.00">cppgc/source&#45;location.h</text>
</a>
</g>
</g>
<!-- Node1&#45;&gt;Node19 -->
<g id="edge63" class="edge">
<title>Node1&#45;&gt;Node19</title>
<path fill="none" stroke="midnightblue" d="M509.89,-436.49C553.07,-427.64 622.33,-413.26 682,-400 895,-352.66 979.34,-410.36 1160,-288 1183.4,-272.15 1200.18,-243.25 1209.24,-224.47"/>
<polygon fill="midnightblue" stroke="midnightblue" points="1212.49,-225.77 1213.47,-215.22 1206.13,-222.86 1212.49,-225.77"/>
</g>
<!-- Node21 -->
<g id="node21" class="node">
<title>Node21</title>
<g id="a_node21"><a xlink:href="garbage-collected_8h.html" target="_top" xlink:title=" ">
<polygon fill="white" stroke="black" points="266,-263 266,-282 396,-282 396,-263 266,-263"/>
<text text-anchor="middle" x="331" y="-270" font-family="Helvetica,sans-Serif" font-size="10.00">cppgc/garbage&#45;collected.h</text>
</a>
</g>
</g>
<!-- Node1&#45;&gt;Node21 -->
<g id="edge32" class="edge">
<title>Node1&#45;&gt;Node21</title>
<path fill="none" stroke="midnightblue" d="M453.98,-436.2C441.47,-427.89 423.16,-414.57 410,-400 378.88,-365.55 352.6,-317.3 339.65,-291.49"/>
<polygon fill="midnightblue" stroke="midnightblue" points="342.63,-289.61 335.07,-282.19 336.34,-292.7 342.63,-289.61"/>
</g>
<!-- Node26 -->
<g id="node26" class="node">
<title>Node26</title>
<g id="a_node26"><a xlink:href="logging_8h.html" target="_top" xlink:title=" ">
<polygon fill="white" stroke="black" points="1031.5,-263 1031.5,-282 1150.5,-282 1150.5,-263 1031.5,-263"/>
<text text-anchor="middle" x="1091" y="-270" font-family="Helvetica,sans-Serif" font-size="10.00">cppgc/internal/logging.h</text>
</a>
</g>
</g>
<!-- Node1&#45;&gt;Node26 -->
<g id="edge46" class="edge">
<title>Node1&#45;&gt;Node26</title>
<path fill="none" stroke="midnightblue" d="M498.89,-436.5C601.85,-408.15 933.35,-316.9 1049.96,-284.8"/>
<polygon fill="midnightblue" stroke="midnightblue" points="1051.21,-288.08 1059.92,-282.06 1049.35,-281.34 1051.21,-288.08"/>
</g>
<!-- Node27 -->
<g id="node27" class="node">
<title>Node27</title>
<g id="a_node27"><a xlink:href="liveness-broker_8h.html" target="_top" xlink:title=" ">
<polygon fill="white" stroke="black" points="452.5,-380.5 452.5,-399.5 571.5,-399.5 571.5,-380.5 452.5,-380.5"/>
<text text-anchor="middle" x="512" y="-387.5" font-family="Helvetica,sans-Serif" font-size="10.00">cppgc/liveness&#45;broker.h</text>
</a>
</g>
</g>
<!-- Node1&#45;&gt;Node27 -->
<g id="edge50" class="edge">
<title>Node1&#45;&gt;Node27</title>
<path fill="none" stroke="midnightblue" d="M475.27,-436.08C481.54,-428.38 490.79,-417.03 498.43,-407.65"/>
<polygon fill="midnightblue" stroke="midnightblue" points="501.27,-409.71 504.87,-399.75 495.84,-405.29 501.27,-409.71"/>
</g>
<!-- Node3 -->
<g id="node3" class="node">
<title>Node3</title>
<g id="a_node3"><a xlink:title=" ">
<polygon fill="white" stroke="#bfbfbf" points="985.5,-62 985.5,-81 1036.5,-81 1036.5,-62 985.5,-62"/>
<text text-anchor="middle" x="1011" y="-69" font-family="Helvetica,sans-Serif" font-size="10.00">stddef.h</text>
</a>
</g>
</g>
<!-- Node2&#45;&gt;Node3 -->
<g id="edge2" class="edge">
<title>Node2&#45;&gt;Node3</title>
<path fill="none" stroke="midnightblue" d="M1314.35,-195.99C1305.1,-193.96 1295.2,-191.85 1286,-190 1198.74,-172.45 1167.36,-196.21 1089,-154 1060.1,-138.44 1035.62,-108.33 1022.15,-89.38"/>
<polygon fill="midnightblue" stroke="midnightblue" points="1025,-87.35 1016.45,-81.09 1019.23,-91.32 1025,-87.35"/>
</g>
<!-- Node4&#45;&gt;Node5 -->
<g id="edge4" class="edge">
<title>Node4&#45;&gt;Node5</title>
<path fill="none" stroke="midnightblue" d="M283.86,-380.32C270.13,-371.9 249.06,-358.97 232.94,-349.07"/>
<polygon fill="midnightblue" stroke="midnightblue" points="234.46,-345.9 224.1,-343.65 230.8,-351.87 234.46,-345.9"/>
</g>
<!-- Node6 -->
<g id="node6" class="node">
<title>Node6</title>
<g id="a_node6"><a xlink:title=" ">
<polygon fill="white" stroke="#bfbfbf" points="114,-0.5 114,-19.5 160,-19.5 160,-0.5 114,-0.5"/>
<text text-anchor="middle" x="137" y="-7.5" font-family="Helvetica,sans-Serif" font-size="10.00">atomic</text>
</a>
</g>
</g>
<!-- Node5&#45;&gt;Node6 -->
<g id="edge5" class="edge">
<title>Node5&#45;&gt;Node6</title>
<path fill="none" stroke="midnightblue" d="M165.46,-326.43C103.82,-314.53 0,-283.11 0,-206.5 0,-206.5 0,-206.5 0,-137.5 0,-80.56 64.68,-42.14 105.16,-23.68"/>
<polygon fill="midnightblue" stroke="midnightblue" points="106.63,-26.85 114.38,-19.62 103.81,-20.45 106.63,-26.85"/>
</g>
<!-- Node7 -->
<g id="node7" class="node">
<title>Node7</title>
<g id="a_node7"><a xlink:title=" ">
<polygon fill="white" stroke="#bfbfbf" points="104.5,-263 104.5,-282 153.5,-282 153.5,-263 104.5,-263"/>
<text text-anchor="middle" x="129" y="-270" font-family="Helvetica,sans-Serif" font-size="10.00">cstddef</text>
</a>
</g>
</g>
<!-- Node5&#45;&gt;Node7 -->
<g id="edge6" class="edge">
<title>Node5&#45;&gt;Node7</title>
<path fill="none" stroke="midnightblue" d="M198.39,-324.48C185.52,-315.02 164.53,-299.6 148.99,-288.19"/>
<polygon fill="midnightblue" stroke="midnightblue" points="150.72,-285.11 140.58,-282.01 146.57,-290.75 150.72,-285.11"/>
</g>
<!-- Node8 -->
<g id="node8" class="node">
<title>Node8</title>
<g id="a_node8"><a xlink:title=" ">
<polygon fill="white" stroke="#bfbfbf" points="325,-0.5 325,-19.5 387,-19.5 387,-0.5 325,-0.5"/>
<text text-anchor="middle" x="356" y="-7.5" font-family="Helvetica,sans-Serif" font-size="10.00">type_traits</text>
</a>
</g>
</g>
<!-- Node5&#45;&gt;Node8 -->
<g id="edge7" class="edge">
<title>Node5&#45;&gt;Node8</title>
<path fill="none" stroke="midnightblue" d="M165.4,-325.92C141.26,-319.82 112.82,-308.59 95,-288 70.66,-259.88 76,-243.69 76,-206.5 76,-206.5 76,-206.5 76,-137.5 76,-100.31 67.94,-81.52 95,-56 125.97,-26.78 248.72,-16.29 314.25,-12.72"/>
<polygon fill="midnightblue" stroke="midnightblue" points="314.83,-16.19 324.64,-12.18 314.47,-9.2 314.83,-16.19"/>
</g>
<!-- Node5&#45;&gt;Node9 -->
<g id="edge8" class="edge">
<title>Node5&#45;&gt;Node9</title>
<path fill="none" stroke="midnightblue" d="M254.64,-327.77C344.49,-317.25 547.56,-293.46 652.49,-281.17"/>
<polygon fill="midnightblue" stroke="midnightblue" points="653.11,-284.62 662.64,-279.98 652.3,-277.67 653.11,-284.62"/>
</g>
<!-- Node14 -->
<g id="node14" class="node">
<title>Node14</title>
<g id="a_node14"><a xlink:href="v8config_8h.html" target="_top" xlink:title=" ">
<polygon fill="white" stroke="black" points="739,-62 739,-81 799,-81 799,-62 739,-62"/>
<text text-anchor="middle" x="769" y="-69" font-family="Helvetica,sans-Serif" font-size="10.00">v8config.h</text>
</a>
</g>
</g>
<!-- Node5&#45;&gt;Node14 -->
<g id="edge31" class="edge">
<title>Node5&#45;&gt;Node14</title>
<path fill="none" stroke="midnightblue" d="M211.4,-324.31C217.19,-291.43 242.55,-174.03 316,-123 382.31,-76.93 630.75,-72.22 728.82,-72.2"/>
<polygon fill="midnightblue" stroke="midnightblue" points="728.92,-75.7 738.92,-72.22 728.93,-68.7 728.92,-75.7"/>
</g>
<!-- Node5&#45;&gt;Node18 -->
<g id="edge30" class="edge">
<title>Node5&#45;&gt;Node18</title>
<path fill="none" stroke="midnightblue" d="M208.07,-324.33C199.85,-287.4 167.63,-142.72 156.12,-91"/>
<polygon fill="midnightblue" stroke="midnightblue" points="159.53,-90.2 153.94,-81.2 152.69,-91.72 159.53,-90.2"/>
</g>
<!-- Node9&#45;&gt;Node8 -->
<g id="edge10" class="edge">
<title>Node9&#45;&gt;Node8</title>
<path fill="none" stroke="midnightblue" d="M773.17,-268.25C826.3,-263.38 907.84,-251.23 972,-221 991.72,-211.71 990.34,-199.41 1010,-190 1079.66,-156.65 1131.37,-214 1180,-154 1207.42,-120.16 1209.95,-87.63 1180,-56 1152.83,-27.31 560.32,-14.64 397.23,-11.7"/>
<polygon fill="midnightblue" stroke="midnightblue" points="397.18,-8.19 387.12,-11.52 397.06,-15.19 397.18,-8.19"/>
</g>
<!-- Node10 -->
<g id="node10" class="node">
<title>Node10</title>
<g id="a_node10"><a xlink:title=" ">
<polygon fill="white" stroke="#bfbfbf" points="695,-196 695,-215 741,-215 741,-196 695,-196"/>
<text text-anchor="middle" x="718" y="-203" font-family="Helvetica,sans-Serif" font-size="10.00">cstdint</text>
</a>
</g>
</g>
<!-- Node9&#45;&gt;Node10 -->
<g id="edge9" class="edge">
<title>Node9&#45;&gt;Node10</title>
<path fill="none" stroke="midnightblue" d="M718,-257.4C718,-248.06 718,-235.71 718,-225.52"/>
<polygon fill="midnightblue" stroke="midnightblue" points="721.5,-225.19 718,-215.19 714.5,-225.19 721.5,-225.19"/>
</g>
<!-- Node11 -->
<g id="node11" class="node">
<title>Node11</title>
<g id="a_node11"><a xlink:href="write-barrier_8h.html" target="_top" xlink:title=" ">
<polygon fill="white" stroke="black" points="537.5,-190.5 537.5,-220.5 638.5,-220.5 638.5,-190.5 537.5,-190.5"/>
<text text-anchor="start" x="545.5" y="-208.5" font-family="Helvetica,sans-Serif" font-size="10.00">cppgc/internal/write</text>
<text text-anchor="middle" x="588" y="-197.5" font-family="Helvetica,sans-Serif" font-size="10.00">&#45;barrier.h</text>
</a>
</g>
</g>
<!-- Node9&#45;&gt;Node11 -->
<g id="edge11" class="edge">
<title>Node9&#45;&gt;Node11</title>
<path fill="none" stroke="midnightblue" d="M689.79,-257.4C670.88,-247.94 645.78,-235.39 625.23,-225.12"/>
<polygon fill="midnightblue" stroke="midnightblue" points="626.66,-221.92 616.15,-220.58 623.53,-228.18 626.66,-221.92"/>
</g>
<!-- Node9&#45;&gt;Node14 -->
<g id="edge29" class="edge">
<title>Node9&#45;&gt;Node14</title>
<path fill="none" stroke="midnightblue" d="M729.35,-257.37C736.48,-247.7 745.21,-234.28 750,-221 766.04,-176.52 768.88,-120.26 769.18,-91.43"/>
<polygon fill="midnightblue" stroke="midnightblue" points="772.68,-91.18 769.18,-81.18 765.68,-91.17 772.68,-91.18"/>
</g>
<!-- Node9&#45;&gt;Node19 -->
<g id="edge26" class="edge">
<title>Node9&#45;&gt;Node19</title>
<path fill="none" stroke="midnightblue" d="M773.31,-264.3C864.69,-252.39 1047.04,-228.64 1147.17,-215.6"/>
<polygon fill="midnightblue" stroke="midnightblue" points="1147.72,-219.05 1157.19,-214.29 1146.82,-212.11 1147.72,-219.05"/>
</g>
<!-- Node12 -->
<g id="node12" class="node">
<title>Node12</title>
<g id="a_node12"><a xlink:href="api-constants_8h.html" target="_top" xlink:title=" ">
<polygon fill="white" stroke="black" points="647.5,-123.5 647.5,-153.5 740.5,-153.5 740.5,-123.5 647.5,-123.5"/>
<text text-anchor="start" x="655.5" y="-141.5" font-family="Helvetica,sans-Serif" font-size="10.00">cppgc/internal/api</text>
<text text-anchor="middle" x="694" y="-130.5" font-family="Helvetica,sans-Serif" font-size="10.00">&#45;constants.h</text>
</a>
</g>
</g>
<!-- Node11&#45;&gt;Node12 -->
<g id="edge12" class="edge">
<title>Node11&#45;&gt;Node12</title>
<path fill="none" stroke="midnightblue" d="M611,-190.4C626,-181.2 645.79,-169.07 662.27,-158.95"/>
<polygon fill="midnightblue" stroke="midnightblue" points="664.35,-161.79 671.04,-153.58 660.69,-155.82 664.35,-161.79"/>
</g>
<!-- Node11&#45;&gt;Node14 -->
<g id="edge25" class="edge">
<title>Node11&#45;&gt;Node14</title>
<path fill="none" stroke="midnightblue" d="M593.46,-190.47C601.1,-172.51 616.62,-141.51 639,-123 665.09,-101.42 701.46,-88.35 729.1,-80.93"/>
<polygon fill="midnightblue" stroke="midnightblue" points="730.03,-84.3 738.85,-78.45 728.3,-77.52 730.03,-84.3"/>
</g>
<!-- Node15 -->
<g id="node15" class="node">
<title>Node15</title>
<g id="a_node15"><a xlink:href="process-heap_8h.html" target="_top" xlink:title=" ">
<polygon fill="white" stroke="black" points="437.5,-123.5 437.5,-153.5 552.5,-153.5 552.5,-123.5 437.5,-123.5"/>
<text text-anchor="start" x="445.5" y="-141.5" font-family="Helvetica,sans-Serif" font-size="10.00">cppgc/internal/process</text>
<text text-anchor="middle" x="495" y="-130.5" font-family="Helvetica,sans-Serif" font-size="10.00">&#45;heap.h</text>
</a>
</g>
</g>
<!-- Node11&#45;&gt;Node15 -->
<g id="edge16" class="edge">
<title>Node11&#45;&gt;Node15</title>
<path fill="none" stroke="midnightblue" d="M567.82,-190.4C554.9,-181.37 537.94,-169.51 523.64,-159.52"/>
<polygon fill="midnightblue" stroke="midnightblue" points="525.34,-156.44 515.14,-153.58 521.33,-162.17 525.34,-156.44"/>
</g>
<!-- Node11&#45;&gt;Node17 -->
<g id="edge20" class="edge">
<title>Node11&#45;&gt;Node17</title>
<path fill="none" stroke="midnightblue" d="M541.4,-190.48C502.17,-178.67 446.77,-162 410.15,-150.98"/>
<polygon fill="midnightblue" stroke="midnightblue" points="410.93,-147.56 400.34,-148.03 408.91,-154.26 410.93,-147.56"/>
</g>
<!-- Node12&#45;&gt;Node3 -->
<g id="edge13" class="edge">
<title>Node12&#45;&gt;Node3</title>
<path fill="none" stroke="midnightblue" d="M740.77,-127.91C804.65,-114.81 917.8,-91.61 975.3,-79.82"/>
<polygon fill="midnightblue" stroke="midnightblue" points="976.28,-83.19 985.37,-77.76 974.87,-76.34 976.28,-83.19"/>
</g>
<!-- Node13 -->
<g id="node13" class="node">
<title>Node13</title>
<g id="a_node13"><a xlink:title=" ">
<polygon fill="white" stroke="#bfbfbf" points="868,-62 868,-81 916,-81 916,-62 868,-62"/>
<text text-anchor="middle" x="892" y="-69" font-family="Helvetica,sans-Serif" font-size="10.00">stdint.h</text>
</a>
</g>
</g>
<!-- Node12&#45;&gt;Node13 -->
<g id="edge14" class="edge">
<title>Node12&#45;&gt;Node13</title>
<path fill="none" stroke="midnightblue" d="M736.96,-123.4C773.25,-111.49 824.5,-94.66 857.99,-83.67"/>
<polygon fill="midnightblue" stroke="midnightblue" points="859.36,-86.9 867.77,-80.45 857.18,-80.25 859.36,-86.9"/>
</g>
<!-- Node12&#45;&gt;Node14 -->
<g id="edge15" class="edge">
<title>Node12&#45;&gt;Node14</title>
<path fill="none" stroke="midnightblue" d="M710.27,-123.4C722.32,-112.96 738.71,-98.75 751.12,-88"/>
<polygon fill="midnightblue" stroke="midnightblue" points="753.7,-90.39 758.97,-81.19 749.12,-85.1 753.7,-90.39"/>
</g>
<!-- Node15&#45;&gt;Node14 -->
<g id="edge19" class="edge">
<title>Node15&#45;&gt;Node14</title>
<path fill="none" stroke="midnightblue" d="M552.77,-123.79C605.61,-111.26 682.41,-93.04 728.84,-82.03"/>
<polygon fill="midnightblue" stroke="midnightblue" points="729.91,-85.37 738.83,-79.66 728.29,-78.56 729.91,-85.37"/>
</g>
<!-- Node16 -->
<g id="node16" class="node">
<title>Node16</title>
<g id="a_node16"><a xlink:href="atomic-entry-flag_8h.html" target="_top" xlink:title=" ">
<polygon fill="white" stroke="black" points="218,-56.5 218,-86.5 328,-86.5 328,-56.5 218,-56.5"/>
<text text-anchor="start" x="226" y="-74.5" font-family="Helvetica,sans-Serif" font-size="10.00">cppgc/internal/atomic</text>
<text text-anchor="middle" x="273" y="-63.5" font-family="Helvetica,sans-Serif" font-size="10.00">&#45;entry&#45;flag.h</text>
</a>
</g>
</g>
<!-- Node15&#45;&gt;Node16 -->
<g id="edge17" class="edge">
<title>Node15&#45;&gt;Node16</title>
<path fill="none" stroke="midnightblue" d="M447.1,-123.48C413.08,-113.51 367.22,-100.09 331.1,-89.51"/>
<polygon fill="midnightblue" stroke="midnightblue" points="331.77,-86.06 321.19,-86.61 329.81,-92.78 331.77,-86.06"/>
</g>
<!-- Node16&#45;&gt;Node6 -->
<g id="edge18" class="edge">
<title>Node16&#45;&gt;Node6</title>
<path fill="none" stroke="midnightblue" d="M240.77,-56.4C218.16,-46.51 188.16,-33.38 166.24,-23.79"/>
<polygon fill="midnightblue" stroke="midnightblue" points="167.35,-20.46 156.79,-19.66 164.55,-26.87 167.35,-20.46"/>
</g>
<!-- Node17&#45;&gt;Node8 -->
<g id="edge21" class="edge">
<title>Node17&#45;&gt;Node8</title>
<path fill="none" stroke="midnightblue" d="M372.57,-128.86C373.37,-113.9 374.32,-82.26 370,-56 368.52,-47.02 365.68,-37.34 362.95,-29.28"/>
<polygon fill="midnightblue" stroke="midnightblue" points="366.21,-28.01 359.53,-19.79 359.63,-30.38 366.21,-28.01"/>
</g>
<!-- Node17&#45;&gt;Node14 -->
<g id="edge24" class="edge">
<title>Node17&#45;&gt;Node14</title>
<path fill="none" stroke="midnightblue" d="M403.23,-128.95C411.56,-126.83 420.59,-124.69 429,-123 536.52,-101.4 664.88,-84.79 728.75,-77.13"/>
<polygon fill="midnightblue" stroke="midnightblue" points="729.29,-80.59 738.8,-75.94 728.46,-73.64 729.29,-80.59"/>
</g>
<!-- Node17&#45;&gt;Node18 -->
<g id="edge22" class="edge">
<title>Node17&#45;&gt;Node18</title>
<path fill="none" stroke="midnightblue" d="M342.79,-128.87C303.64,-117.3 234.07,-96.75 190.63,-83.91"/>
<polygon fill="midnightblue" stroke="midnightblue" points="191.57,-80.54 180.98,-81.06 189.58,-87.25 191.57,-80.54"/>
</g>
<!-- Node18&#45;&gt;Node8 -->
<g id="edge23" class="edge">
<title>Node18&#45;&gt;Node8</title>
<path fill="none" stroke="midnightblue" d="M181.23,-61.98C216.9,-51.57 277.36,-33.94 316.98,-22.38"/>
<polygon fill="midnightblue" stroke="midnightblue" points="318.21,-25.67 326.83,-19.51 316.25,-18.95 318.21,-25.67"/>
</g>
<!-- Node19&#45;&gt;Node14 -->
<g id="edge28" class="edge">
<title>Node19&#45;&gt;Node14</title>
<path fill="none" stroke="midnightblue" d="M1170.89,-195.93C1135.4,-188.15 1085.83,-174.7 1046,-154 1026.35,-143.79 1027.03,-132.44 1007,-123 972.4,-106.69 867.62,-88.18 809.29,-78.75"/>
<polygon fill="midnightblue" stroke="midnightblue" points="809.74,-75.28 799.31,-77.15 808.63,-82.19 809.74,-75.28"/>
</g>
<!-- Node20 -->
<g id="node20" class="node">
<title>Node20</title>
<g id="a_node20"><a xlink:title=" ">
<polygon fill="white" stroke="#bfbfbf" points="1240.5,-62 1240.5,-81 1281.5,-81 1281.5,-62 1240.5,-62"/>
<text text-anchor="middle" x="1261" y="-69" font-family="Helvetica,sans-Serif" font-size="10.00">string</text>
</a>
</g>
</g>
<!-- Node19&#45;&gt;Node20 -->
<g id="edge27" class="edge">
<title>Node19&#45;&gt;Node20</title>
<path fill="none" stroke="midnightblue" d="M1224.67,-195.91C1232.69,-186.4 1244.94,-170.24 1251,-154 1258.62,-133.6 1260.7,-108.53 1261.15,-91.62"/>
<polygon fill="midnightblue" stroke="midnightblue" points="1264.65,-91.41 1261.24,-81.38 1257.65,-91.35 1264.65,-91.41"/>
</g>
<!-- Node21&#45;&gt;Node8 -->
<g id="edge33" class="edge">
<title>Node21&#45;&gt;Node8</title>
<path fill="none" stroke="midnightblue" d="M328.02,-262.95C320.45,-239.91 302,-174.78 316,-123 320.83,-105.12 330.02,-104.16 337,-87 344.67,-68.15 349.87,-45.36 352.86,-29.68"/>
<polygon fill="midnightblue" stroke="midnightblue" points="356.33,-30.14 354.65,-19.68 349.44,-28.91 356.33,-30.14"/>
</g>
<!-- Node21&#45;&gt;Node12 -->
<g id="edge34" class="edge">
<title>Node21&#45;&gt;Node12</title>
<path fill="none" stroke="midnightblue" d="M396.18,-267.74C476.81,-261.98 608.3,-248.59 648,-221 667.81,-207.23 680.12,-182.01 686.96,-163.26"/>
<polygon fill="midnightblue" stroke="midnightblue" points="690.33,-164.21 690.21,-153.62 683.7,-161.98 690.33,-164.21"/>
</g>
<!-- Node21&#45;&gt;Node17 -->
<g id="edge44" class="edge">
<title>Node21&#45;&gt;Node17</title>
<path fill="none" stroke="midnightblue" d="M333.69,-262.84C340.29,-241.58 357.41,-186.46 366.36,-157.65"/>
<polygon fill="midnightblue" stroke="midnightblue" points="369.73,-158.61 369.35,-148.02 363.04,-156.53 369.73,-158.61"/>
</g>
<!-- Node21&#45;&gt;Node18 -->
<g id="edge45" class="edge">
<title>Node21&#45;&gt;Node18</title>
<path fill="none" stroke="midnightblue" d="M322.19,-262.69C312.27,-252.72 295.74,-235.91 282,-221 270.39,-208.4 197.6,-124.88 166.29,-88.92"/>
<polygon fill="midnightblue" stroke="midnightblue" points="168.82,-86.49 159.61,-81.25 163.54,-91.09 168.82,-86.49"/>
</g>
<!-- Node22 -->
<g id="node22" class="node">
<title>Node22</title>
<g id="a_node22"><a xlink:href="platform_8h.html" target="_top" xlink:title=" ">
<polygon fill="white" stroke="black" points="873.5,-196 873.5,-215 962.5,-215 962.5,-196 873.5,-196"/>
<text text-anchor="middle" x="918" y="-203" font-family="Helvetica,sans-Serif" font-size="10.00">cppgc/platform.h</text>
</a>
</g>
</g>
<!-- Node21&#45;&gt;Node22 -->
<g id="edge35" class="edge">
<title>Node21&#45;&gt;Node22</title>
<path fill="none" stroke="midnightblue" d="M396.06,-264.3C512.6,-251.39 754.88,-224.56 863.39,-212.55"/>
<polygon fill="midnightblue" stroke="midnightblue" points="863.91,-216.01 873.46,-211.43 863.14,-209.05 863.91,-216.01"/>
</g>
<!-- Node22&#45;&gt;Node14 -->
<g id="edge43" class="edge">
<title>Node22&#45;&gt;Node14</title>
<path fill="none" stroke="midnightblue" d="M923.92,-195.95C934.17,-180.01 952.58,-145.34 936,-123 920.8,-102.52 853.35,-87.14 808.95,-79"/>
<polygon fill="midnightblue" stroke="midnightblue" points="809.49,-75.54 799.04,-77.23 808.27,-82.43 809.49,-75.54"/>
</g>
<!-- Node23 -->
<g id="node23" class="node">
<title>Node23</title>
<g id="a_node23"><a xlink:href="v8-platform_8h.html" target="_top" xlink:title=" ">
<polygon fill="white" stroke="black" points="1097.5,-129 1097.5,-148 1170.5,-148 1170.5,-129 1097.5,-129"/>
<text text-anchor="middle" x="1134" y="-136" font-family="Helvetica,sans-Serif" font-size="10.00">v8&#45;platform.h</text>
</a>
</g>
</g>
<!-- Node22&#45;&gt;Node23 -->
<g id="edge36" class="edge">
<title>Node22&#45;&gt;Node23</title>
<path fill="none" stroke="midnightblue" d="M946.68,-195.87C985.04,-184.33 1053.13,-163.84 1095.8,-151"/>
<polygon fill="midnightblue" stroke="midnightblue" points="1096.98,-154.3 1105.54,-148.06 1094.96,-147.59 1096.98,-154.3"/>
</g>
<!-- Node23&#45;&gt;Node3 -->
<g id="edge37" class="edge">
<title>Node23&#45;&gt;Node3</title>
<path fill="none" stroke="midnightblue" d="M1117.67,-128.87C1096.9,-117.89 1060.81,-98.82 1036.43,-85.94"/>
<polygon fill="midnightblue" stroke="midnightblue" points="1037.88,-82.75 1027.4,-81.17 1034.61,-88.93 1037.88,-82.75"/>
</g>
<!-- Node23&#45;&gt;Node13 -->
<g id="edge38" class="edge">
<title>Node23&#45;&gt;Node13</title>
<path fill="none" stroke="midnightblue" d="M1102.11,-128.94C1056.44,-116.67 972.74,-94.19 925.95,-81.62"/>
<polygon fill="midnightblue" stroke="midnightblue" points="926.84,-78.23 916.28,-79.02 925.03,-84.99 926.84,-78.23"/>
</g>
<!-- Node23&#45;&gt;Node14 -->
<g id="edge42" class="edge">
<title>Node23&#45;&gt;Node14</title>
<path fill="none" stroke="midnightblue" d="M1097.33,-130.97C1028.5,-118.71 880.45,-92.35 809.08,-79.64"/>
<polygon fill="midnightblue" stroke="midnightblue" points="809.59,-76.17 799.13,-77.87 808.36,-83.06 809.59,-76.17"/>
</g>
<!-- Node23&#45;&gt;Node20 -->
<g id="edge41" class="edge">
<title>Node23&#45;&gt;Node20</title>
<path fill="none" stroke="midnightblue" d="M1150.86,-128.87C1172.4,-117.84 1209.9,-98.66 1235.08,-85.77"/>
<polygon fill="midnightblue" stroke="midnightblue" points="1236.76,-88.84 1244.07,-81.17 1233.57,-82.61 1236.76,-88.84"/>
</g>
<!-- Node24 -->
<g id="node24" class="node">
<title>Node24</title>
<g id="a_node24"><a xlink:title=" ">
<polygon fill="white" stroke="#bfbfbf" points="1054.5,-62 1054.5,-81 1101.5,-81 1101.5,-62 1054.5,-62"/>
<text text-anchor="middle" x="1078" y="-69" font-family="Helvetica,sans-Serif" font-size="10.00">stdlib.h</text>
</a>
</g>
</g>
<!-- Node23&#45;&gt;Node24 -->
<g id="edge39" class="edge">
<title>Node23&#45;&gt;Node24</title>
<path fill="none" stroke="midnightblue" d="M1126.45,-128.73C1117.72,-118.6 1103.15,-101.69 1092.26,-89.06"/>
<polygon fill="midnightblue" stroke="midnightblue" points="1094.61,-86.42 1085.43,-81.13 1089.31,-90.99 1094.61,-86.42"/>
</g>
<!-- Node25 -->
<g id="node25" class="node">
<title>Node25</title>
<g id="a_node25"><a xlink:title=" ">
<polygon fill="white" stroke="#bfbfbf" points="1119.5,-62 1119.5,-81 1170.5,-81 1170.5,-62 1119.5,-62"/>
<text text-anchor="middle" x="1145" y="-69" font-family="Helvetica,sans-Serif" font-size="10.00">memory</text>
</a>
</g>
</g>
<!-- Node23&#45;&gt;Node25 -->
<g id="edge40" class="edge">
<title>Node23&#45;&gt;Node25</title>
<path fill="none" stroke="midnightblue" d="M1135.48,-128.73C1137.1,-119.18 1139.73,-103.62 1141.82,-91.28"/>
<polygon fill="midnightblue" stroke="midnightblue" points="1145.32,-91.57 1143.54,-81.13 1138.42,-90.4 1145.32,-91.57"/>
</g>
<!-- Node26&#45;&gt;Node14 -->
<g id="edge48" class="edge">
<title>Node26&#45;&gt;Node14</title>
<path fill="none" stroke="midnightblue" d="M1091.18,-262.94C1091.1,-246.97 1088.82,-212.26 1072,-190 1052.09,-163.65 1035.77,-170.22 1007,-154 982.89,-140.41 978.55,-133.64 953,-123 905.2,-103.1 847.18,-88.67 809.23,-80.46"/>
<polygon fill="midnightblue" stroke="midnightblue" points="809.6,-76.96 799.09,-78.3 808.14,-83.8 809.6,-76.96"/>
</g>
<!-- Node26&#45;&gt;Node19 -->
<g id="edge47" class="edge">
<title>Node26&#45;&gt;Node19</title>
<path fill="none" stroke="midnightblue" d="M1107.73,-262.87C1129.1,-251.84 1166.3,-232.66 1191.28,-219.77"/>
<polygon fill="midnightblue" stroke="midnightblue" points="1192.92,-222.86 1200.2,-215.17 1189.71,-216.64 1192.92,-222.86"/>
</g>
<!-- Node27&#45;&gt;Node5 -->
<g id="edge59" class="edge">
<title>Node27&#45;&gt;Node5</title>
<path fill="none" stroke="midnightblue" d="M464.15,-380.44C409.86,-370.74 321.5,-354.94 264.57,-344.76"/>
<polygon fill="midnightblue" stroke="midnightblue" points="265.14,-341.3 254.68,-342.99 263.9,-348.19 265.14,-341.3"/>
</g>
<!-- Node27&#45;&gt;Node14 -->
<g id="edge61" class="edge">
<title>Node27&#45;&gt;Node14</title>
<path fill="none" stroke="midnightblue" d="M510.52,-380.41C505.99,-351.55 494.61,-256.15 529,-190 539.7,-169.43 588.67,-134.15 609,-123 647.31,-102 695.65,-88.27 729.12,-80.5"/>
<polygon fill="midnightblue" stroke="midnightblue" points="730.01,-83.89 739,-78.28 728.48,-77.06 730.01,-83.89"/>
</g>
<!-- Node27&#45;&gt;Node17 -->
<g id="edge60" class="edge">
<title>Node27&#45;&gt;Node17</title>
<path fill="none" stroke="midnightblue" d="M508.72,-380.38C505.29,-371.33 499.74,-356.67 495,-344 469.44,-275.64 481.35,-248.71 438,-190 426.96,-175.05 410.33,-162.36 396.52,-153.44"/>
<polygon fill="midnightblue" stroke="midnightblue" points="398.29,-150.42 387.94,-148.14 394.61,-156.38 398.29,-150.42"/>
</g>
<!-- Node28 -->
<g id="node28" class="node">
<title>Node28</title>
<g id="a_node28"><a xlink:href="heap_8h.html" target="_top" xlink:title=" ">
<polygon fill="white" stroke="black" points="881,-263 881,-282 955,-282 955,-263 881,-263"/>
<text text-anchor="middle" x="918" y="-270" font-family="Helvetica,sans-Serif" font-size="10.00">cppgc/heap.h</text>
</a>
</g>
</g>
<!-- Node27&#45;&gt;Node28 -->
<g id="edge51" class="edge">
<title>Node27&#45;&gt;Node28</title>
<path fill="none" stroke="midnightblue" d="M542.18,-380.41C614.35,-359.88 796.9,-307.95 878.05,-284.86"/>
<polygon fill="midnightblue" stroke="midnightblue" points="879.23,-288.17 887.89,-282.06 877.32,-281.43 879.23,-288.17"/>
</g>
<!-- Node28&#45;&gt;Node2 -->
<g id="edge56" class="edge">
<title>Node28&#45;&gt;Node2</title>
<path fill="none" stroke="midnightblue" d="M955.42,-266.32C975.46,-263.55 1000.58,-260.08 1023,-257 1139.88,-240.93 1169.85,-241.67 1286,-221 1292.37,-219.87 1299.05,-218.55 1305.62,-217.18"/>
<polygon fill="midnightblue" stroke="midnightblue" points="1306.75,-220.52 1315.79,-215 1305.28,-213.67 1306.75,-220.52"/>
</g>
<!-- Node28&#45;&gt;Node14 -->
<g id="edge58" class="edge">
<title>Node28&#45;&gt;Node14</title>
<path fill="none" stroke="midnightblue" d="M905.22,-262.92C892.05,-253.66 871.47,-237.93 857,-221 820.93,-178.8 790.98,-119.91 777.18,-90.59"/>
<polygon fill="midnightblue" stroke="midnightblue" points="780.22,-88.82 772.85,-81.21 773.87,-91.75 780.22,-88.82"/>
</g>
<!-- Node28&#45;&gt;Node22 -->
<g id="edge57" class="edge">
<title>Node28&#45;&gt;Node22</title>
<path fill="none" stroke="midnightblue" d="M918,-262.73C918,-253.18 918,-237.62 918,-225.28"/>
<polygon fill="midnightblue" stroke="midnightblue" points="921.5,-225.13 918,-215.13 914.5,-225.13 921.5,-225.13"/>
</g>
<!-- Node28&#45;&gt;Node25 -->
<g id="edge52" class="edge">
<title>Node28&#45;&gt;Node25</title>
<path fill="none" stroke="midnightblue" d="M951.62,-262.97C983.42,-254.33 1032.09,-239.6 1072,-221 1123.2,-197.14 1152.53,-203.36 1180,-154 1191.99,-132.46 1175.29,-105.99 1161.1,-89.17"/>
<polygon fill="midnightblue" stroke="midnightblue" points="1163.36,-86.45 1154.08,-81.34 1158.15,-91.12 1163.36,-86.45"/>
</g>
<!-- Node29 -->
<g id="node29" class="node">
<title>Node29</title>
<g id="a_node29"><a xlink:title=" ">
<polygon fill="white" stroke="#bfbfbf" points="1019,-196 1019,-215 1063,-215 1063,-196 1019,-196"/>
<text text-anchor="middle" x="1041" y="-203" font-family="Helvetica,sans-Serif" font-size="10.00">vector</text>
</a>
</g>
</g>
<!-- Node28&#45;&gt;Node29 -->
<g id="edge53" class="edge">
<title>Node28&#45;&gt;Node29</title>
<path fill="none" stroke="midnightblue" d="M934.33,-262.87C955.1,-251.89 991.19,-232.82 1015.57,-219.94"/>
<polygon fill="midnightblue" stroke="midnightblue" points="1017.39,-222.93 1024.6,-215.17 1014.12,-216.75 1017.39,-222.93"/>
</g>
<!-- Node30 -->
<g id="node30" class="node">
<title>Node30</title>
<g id="a_node30"><a xlink:href="common_8h.html" target="_top" xlink:title=" ">
<polygon fill="white" stroke="black" points="835.5,-129 835.5,-148 926.5,-148 926.5,-129 835.5,-129"/>
<text text-anchor="middle" x="881" y="-136" font-family="Helvetica,sans-Serif" font-size="10.00">cppgc/common.h</text>
</a>
</g>
</g>
<!-- Node28&#45;&gt;Node30 -->
<g id="edge54" class="edge">
<title>Node28&#45;&gt;Node30</title>
<path fill="none" stroke="midnightblue" d="M903.63,-262.75C890.78,-253.99 872.81,-239.22 865,-221 856.16,-200.36 863.99,-174.69 871.48,-157.73"/>
<polygon fill="midnightblue" stroke="midnightblue" points="874.78,-158.95 875.95,-148.42 868.47,-155.92 874.78,-158.95"/>
</g>
<!-- Node30&#45;&gt;Node14 -->
<g id="edge55" class="edge">
<title>Node30&#45;&gt;Node14</title>
<path fill="none" stroke="midnightblue" d="M865.9,-128.73C847.09,-117.82 814.75,-99.05 792.64,-86.22"/>
<polygon fill="midnightblue" stroke="midnightblue" points="794.27,-83.12 783.87,-81.13 790.76,-89.17 794.27,-83.12"/>
</g>
</g>
</svg>
