<?xml version="1.0" encoding="UTF-8" standalone="no"?>
<!DOCTYPE svg PUBLIC "-//W3C//DTD SVG 1.1//EN"
 "http://www.w3.org/Graphics/SVG/1.1/DTD/svg11.dtd">
<!-- Generated by graphviz version 2.44.0 ()
 -->
<!-- Title: include/cppgc/internal/write&#45;barrier.h Pages: 1 -->
<svg width="497pt" height="229pt"
 viewBox="0.00 0.00 496.50 229.00" xmlns="http://www.w3.org/2000/svg" xmlns:xlink="http://www.w3.org/1999/xlink">
<g id="graph0" class="graph" transform="scale(1 1) rotate(0) translate(4 225)">
<title>include/cppgc/internal/write&#45;barrier.h</title>
<polygon fill="white" stroke="transparent" points="-4,4 -4,-225 492.5,-225 492.5,4 -4,4"/>
<!-- Node1 -->
<g id="node1" class="node">
<title>Node1</title>
<g id="a_node1"><a xlink:title=" ">
<polygon fill="#bfbfbf" stroke="black" points="154,-190.5 154,-220.5 265,-220.5 265,-190.5 154,-190.5"/>
<text text-anchor="start" x="162" y="-208.5" font-family="Helvetica,sans-Serif" font-size="10.00">include/cppgc/internal</text>
<text text-anchor="middle" x="209.5" y="-197.5" font-family="Helvetica,sans-Serif" font-size="10.00">/write&#45;barrier.h</text>
</a>
</g>
</g>
<!-- Node2 -->
<g id="node2" class="node">
<title>Node2</title>
<g id="a_node2"><a xlink:href="api-constants_8h.html" target="_top" xlink:title=" ">
<polygon fill="white" stroke="black" points="45,-123.5 45,-153.5 138,-153.5 138,-123.5 45,-123.5"/>
<text text-anchor="start" x="53" y="-141.5" font-family="Helvetica,sans-Serif" font-size="10.00">cppgc/internal/api</text>
<text text-anchor="middle" x="91.5" y="-130.5" font-family="Helvetica,sans-Serif" font-size="10.00">&#45;constants.h</text>
</a>
</g>
</g>
<!-- Node1&#45;&gt;Node2 -->
<g id="edge1" class="edge">
<title>Node1&#45;&gt;Node2</title>
<path fill="none" stroke="midnightblue" d="M183.9,-190.4C166.96,-181.07 144.56,-168.73 126.05,-158.53"/>
<polygon fill="midnightblue" stroke="midnightblue" points="127.5,-155.34 117.05,-153.58 124.12,-161.47 127.5,-155.34"/>
</g>
<!-- Node5 -->
<g id="node5" class="node">
<title>Node5</title>
<g id="a_node5"><a xlink:href="v8config_8h.html" target="_top" xlink:title=" ">
<polygon fill="white" stroke="black" points="136.5,-62 136.5,-81 196.5,-81 196.5,-62 136.5,-62"/>
<text text-anchor="middle" x="166.5" y="-69" font-family="Helvetica,sans-Serif" font-size="10.00">v8config.h</text>
</a>
</g>
</g>
<!-- Node1&#45;&gt;Node5 -->
<g id="edge14" class="edge">
<title>Node1&#45;&gt;Node5</title>
<path fill="none" stroke="midnightblue" d="M201.72,-190.26C196.55,-180.33 189.92,-166.65 185.5,-154 178.18,-133.05 172.83,-108.09 169.7,-91.36"/>
<polygon fill="midnightblue" stroke="midnightblue" points="173.1,-90.47 167.9,-81.24 166.21,-91.7 173.1,-90.47"/>
</g>
<!-- Node6 -->
<g id="node6" class="node">
<title>Node6</title>
<g id="a_node6"><a xlink:href="process-heap_8h.html" target="_top" xlink:title=" ">
<polygon fill="white" stroke="black" points="195,-123.5 195,-153.5 310,-153.5 310,-123.5 195,-123.5"/>
<text text-anchor="start" x="203" y="-141.5" font-family="Helvetica,sans-Serif" font-size="10.00">cppgc/internal/process</text>
<text text-anchor="middle" x="252.5" y="-130.5" font-family="Helvetica,sans-Serif" font-size="10.00">&#45;heap.h</text>
</a>
</g>
</g>
<!-- Node1&#45;&gt;Node6 -->
<g id="edge5" class="edge">
<title>Node1&#45;&gt;Node6</title>
<path fill="none" stroke="midnightblue" d="M218.83,-190.4C224.3,-182.13 231.33,-171.51 237.55,-162.1"/>
<polygon fill="midnightblue" stroke="midnightblue" points="240.59,-163.85 243.19,-153.58 234.75,-159.99 240.59,-163.85"/>
</g>
<!-- Node9 -->
<g id="node9" class="node">
<title>Node9</title>
<g id="a_node9"><a xlink:href="trace-trait_8h.html" target="_top" xlink:title=" ">
<polygon fill="white" stroke="black" points="328,-129 328,-148 423,-148 423,-129 328,-129"/>
<text text-anchor="middle" x="375.5" y="-136" font-family="Helvetica,sans-Serif" font-size="10.00">cppgc/trace&#45;trait.h</text>
</a>
</g>
</g>
<!-- Node1&#45;&gt;Node9 -->
<g id="edge9" class="edge">
<title>Node1&#45;&gt;Node9</title>
<path fill="none" stroke="midnightblue" d="M245.52,-190.4C275.03,-178.84 316.36,-162.66 344.44,-151.66"/>
<polygon fill="midnightblue" stroke="midnightblue" points="345.74,-154.91 353.77,-148.01 343.19,-148.39 345.74,-154.91"/>
</g>
<!-- Node3 -->
<g id="node3" class="node">
<title>Node3</title>
<g id="a_node3"><a xlink:title=" ">
<polygon fill="white" stroke="#bfbfbf" points="0,-62 0,-81 51,-81 51,-62 0,-62"/>
<text text-anchor="middle" x="25.5" y="-69" font-family="Helvetica,sans-Serif" font-size="10.00">stddef.h</text>
</a>
</g>
</g>
<!-- Node2&#45;&gt;Node3 -->
<g id="edge2" class="edge">
<title>Node2&#45;&gt;Node3</title>
<path fill="none" stroke="midnightblue" d="M77.18,-123.4C66.68,-113.06 52.43,-99.02 41.55,-88.31"/>
<polygon fill="midnightblue" stroke="midnightblue" points="43.91,-85.72 34.33,-81.19 39,-90.71 43.91,-85.72"/>
</g>
<!-- Node4 -->
<g id="node4" class="node">
<title>Node4</title>
<g id="a_node4"><a xlink:title=" ">
<polygon fill="white" stroke="#bfbfbf" points="69.5,-62 69.5,-81 117.5,-81 117.5,-62 69.5,-62"/>
<text text-anchor="middle" x="93.5" y="-69" font-family="Helvetica,sans-Serif" font-size="10.00">stdint.h</text>
</a>
</g>
</g>
<!-- Node2&#45;&gt;Node4 -->
<g id="edge3" class="edge">
<title>Node2&#45;&gt;Node4</title>
<path fill="none" stroke="midnightblue" d="M91.93,-123.4C92.22,-114.06 92.6,-101.71 92.91,-91.52"/>
<polygon fill="midnightblue" stroke="midnightblue" points="96.42,-91.3 93.23,-81.19 89.43,-91.08 96.42,-91.3"/>
</g>
<!-- Node2&#45;&gt;Node5 -->
<g id="edge4" class="edge">
<title>Node2&#45;&gt;Node5</title>
<path fill="none" stroke="midnightblue" d="M107.77,-123.4C119.82,-112.96 136.21,-98.75 148.62,-88"/>
<polygon fill="midnightblue" stroke="midnightblue" points="151.2,-90.39 156.47,-81.19 146.62,-85.1 151.2,-90.39"/>
</g>
<!-- Node6&#45;&gt;Node5 -->
<g id="edge8" class="edge">
<title>Node6&#45;&gt;Node5</title>
<path fill="none" stroke="midnightblue" d="M233.84,-123.4C219.77,-112.76 200.51,-98.2 186.19,-87.38"/>
<polygon fill="midnightblue" stroke="midnightblue" points="188.09,-84.43 178,-81.19 183.87,-90.02 188.09,-84.43"/>
</g>
<!-- Node7 -->
<g id="node7" class="node">
<title>Node7</title>
<g id="a_node7"><a xlink:href="atomic-entry-flag_8h.html" target="_top" xlink:title=" ">
<polygon fill="white" stroke="black" points="214.5,-56.5 214.5,-86.5 324.5,-86.5 324.5,-56.5 214.5,-56.5"/>
<text text-anchor="start" x="222.5" y="-74.5" font-family="Helvetica,sans-Serif" font-size="10.00">cppgc/internal/atomic</text>
<text text-anchor="middle" x="269.5" y="-63.5" font-family="Helvetica,sans-Serif" font-size="10.00">&#45;entry&#45;flag.h</text>
</a>
</g>
</g>
<!-- Node6&#45;&gt;Node7 -->
<g id="edge6" class="edge">
<title>Node6&#45;&gt;Node7</title>
<path fill="none" stroke="midnightblue" d="M256.19,-123.4C258.26,-115.47 260.9,-105.38 263.28,-96.27"/>
<polygon fill="midnightblue" stroke="midnightblue" points="266.67,-97.14 265.82,-86.58 259.9,-95.37 266.67,-97.14"/>
</g>
<!-- Node8 -->
<g id="node8" class="node">
<title>Node8</title>
<g id="a_node8"><a xlink:title=" ">
<polygon fill="white" stroke="#bfbfbf" points="246.5,-0.5 246.5,-19.5 292.5,-19.5 292.5,-0.5 246.5,-0.5"/>
<text text-anchor="middle" x="269.5" y="-7.5" font-family="Helvetica,sans-Serif" font-size="10.00">atomic</text>
</a>
</g>
</g>
<!-- Node7&#45;&gt;Node8 -->
<g id="edge7" class="edge">
<title>Node7&#45;&gt;Node8</title>
<path fill="none" stroke="midnightblue" d="M269.5,-56.4C269.5,-48.47 269.5,-38.46 269.5,-29.86"/>
<polygon fill="midnightblue" stroke="midnightblue" points="273,-29.66 269.5,-19.66 266,-29.66 273,-29.66"/>
</g>
<!-- Node9&#45;&gt;Node5 -->
<g id="edge13" class="edge">
<title>Node9&#45;&gt;Node5</title>
<path fill="none" stroke="midnightblue" d="M344.59,-128.99C310.38,-119.42 253.68,-103.09 205.5,-87 203.1,-86.2 200.63,-85.35 198.15,-84.47"/>
<polygon fill="midnightblue" stroke="midnightblue" points="199.28,-81.16 188.68,-81.04 196.89,-87.74 199.28,-81.16"/>
</g>
<!-- Node10 -->
<g id="node10" class="node">
<title>Node10</title>
<g id="a_node10"><a xlink:title=" ">
<polygon fill="white" stroke="#bfbfbf" points="371.5,-0.5 371.5,-19.5 433.5,-19.5 433.5,-0.5 371.5,-0.5"/>
<text text-anchor="middle" x="402.5" y="-7.5" font-family="Helvetica,sans-Serif" font-size="10.00">type_traits</text>
</a>
</g>
</g>
<!-- Node9&#45;&gt;Node10 -->
<g id="edge10" class="edge">
<title>Node9&#45;&gt;Node10</title>
<path fill="none" stroke="midnightblue" d="M375.5,-128.79C375.69,-113.72 376.92,-81.91 383.5,-56 385.85,-46.75 389.8,-36.94 393.5,-28.85"/>
<polygon fill="midnightblue" stroke="midnightblue" points="396.72,-30.22 397.9,-19.69 390.41,-27.19 396.72,-30.22"/>
</g>
<!-- Node11 -->
<g id="node11" class="node">
<title>Node11</title>
<g id="a_node11"><a xlink:href="type-traits_8h.html" target="_top" xlink:title=" ">
<polygon fill="white" stroke="black" points="392.5,-62 392.5,-81 488.5,-81 488.5,-62 392.5,-62"/>
<text text-anchor="middle" x="440.5" y="-69" font-family="Helvetica,sans-Serif" font-size="10.00">cppgc/type&#45;traits.h</text>
</a>
</g>
</g>
<!-- Node9&#45;&gt;Node11 -->
<g id="edge11" class="edge">
<title>Node9&#45;&gt;Node11</title>
<path fill="none" stroke="midnightblue" d="M384.27,-128.73C394.6,-118.4 411.96,-101.04 424.67,-88.33"/>
<polygon fill="midnightblue" stroke="midnightblue" points="427.28,-90.67 431.87,-81.13 422.33,-85.72 427.28,-90.67"/>
</g>
<!-- Node11&#45;&gt;Node10 -->
<g id="edge12" class="edge">
<title>Node11&#45;&gt;Node10</title>
<path fill="none" stroke="midnightblue" d="M435.06,-61.98C429.41,-53.14 420.44,-39.09 413.34,-27.98"/>
<polygon fill="midnightblue" stroke="midnightblue" points="416.27,-26.05 407.93,-19.51 410.37,-29.82 416.27,-26.05"/>
</g>
</g>
</svg>
