<?xml version="1.0" encoding="UTF-8" standalone="no"?>
<!DOCTYPE svg PUBLIC "-//W3C//DTD SVG 1.1//EN"
 "http://www.w3.org/Graphics/SVG/1.1/DTD/svg11.dtd">
<!-- Generated by graphviz version 2.44.0 ()
 -->
<!-- Title: v8::V8::SetFatalErrorHandler Pages: 1 -->
<svg width="305pt" height="78pt"
 viewBox="0.00 0.00 305.00 77.50" xmlns="http://www.w3.org/2000/svg" xmlns:xlink="http://www.w3.org/1999/xlink">
<g id="graph0" class="graph" transform="scale(1 1) rotate(0) translate(4 73.5)">
<title>v8::V8::SetFatalErrorHandler</title>
<polygon fill="white" stroke="transparent" points="-4,4 -4,-73.5 301,-73.5 301,4 -4,4"/>
<!-- Node1 -->
<g id="node1" class="node">
<title>Node1</title>
<g id="a_node1"><a xlink:title=" ">
<polygon fill="#bfbfbf" stroke="black" points="0,-28 0,-47 139,-47 139,-28 0,-28"/>
<text text-anchor="middle" x="69.5" y="-35" font-family="Helvetica,sans-Serif" font-size="10.00">v8::V8::SetFatalErrorHandler</text>
</a>
</g>
</g>
<!-- Node2 -->
<g id="node2" class="node">
<title>Node2</title>
<g id="a_node2"><a xlink:href="classv8_1_1Isolate.html#aa79441b5da4438221d0f38790c4de2ed" target="_top" xlink:title=" ">
<polygon fill="white" stroke="black" points="179.5,-50 179.5,-69 292.5,-69 292.5,-50 179.5,-50"/>
<text text-anchor="middle" x="236" y="-57" font-family="Helvetica,sans-Serif" font-size="10.00">v8::Isolate::GetCurrent</text>
</a>
</g>
</g>
<!-- Node1&#45;&gt;Node2 -->
<g id="edge1" class="edge">
<title>Node1&#45;&gt;Node2</title>
<path fill="none" stroke="midnightblue" d="M139.31,-46.7C149.24,-48.03 159.44,-49.4 169.31,-50.71"/>
<polygon fill="midnightblue" stroke="midnightblue" points="169.08,-54.21 179.45,-52.07 170,-47.28 169.08,-54.21"/>
</g>
<!-- Node3 -->
<g id="node3" class="node">
<title>Node3</title>
<g id="a_node3"><a xlink:href="classv8_1_1Isolate.html#a131f1e2e6a80618ac3c8c266a041851d" target="_top" xlink:title=" ">
<polygon fill="white" stroke="black" points="175,-0.5 175,-30.5 297,-30.5 297,-0.5 175,-0.5"/>
<text text-anchor="start" x="183" y="-18.5" font-family="Helvetica,sans-Serif" font-size="10.00">v8::Isolate::SetFatalError</text>
<text text-anchor="middle" x="236" y="-7.5" font-family="Helvetica,sans-Serif" font-size="10.00">Handler</text>
</a>
</g>
</g>
<!-- Node1&#45;&gt;Node3 -->
<g id="edge2" class="edge">
<title>Node1&#45;&gt;Node3</title>
<path fill="none" stroke="midnightblue" d="M139.31,-28.3C147.7,-27.18 156.28,-26.03 164.68,-24.9"/>
<polygon fill="midnightblue" stroke="midnightblue" points="165.39,-28.34 174.83,-23.55 164.46,-21.4 165.39,-28.34"/>
</g>
</g>
</svg>
