<?xml version="1.0" encoding="UTF-8" standalone="no"?>
<!DOCTYPE svg PUBLIC "-//W3C//DTD SVG 1.1//EN"
 "http://www.w3.org/Graphics/SVG/1.1/DTD/svg11.dtd">
<!-- Generated by graphviz version 2.44.0 ()
 -->
<!-- Title: v8::PersistentValueMapBase::FromVal Pages: 1 -->
<svg width="337pt" height="290pt"
 viewBox="0.00 0.00 337.00 290.00" xmlns="http://www.w3.org/2000/svg" xmlns:xlink="http://www.w3.org/1999/xlink">
<g id="graph0" class="graph" transform="scale(1 1) rotate(0) translate(4 286)">
<title>v8::PersistentValueMapBase::FromVal</title>
<polygon fill="white" stroke="transparent" points="-4,4 -4,-286 333,-286 333,4 -4,4"/>
<!-- Node1 -->
<g id="node1" class="node">
<title>Node1</title>
<g id="a_node1"><a xlink:title=" ">
<polygon fill="#bfbfbf" stroke="black" points="187,-126 187,-156 329,-156 329,-126 187,-126"/>
<text text-anchor="start" x="195" y="-144" font-family="Helvetica,sans-Serif" font-size="10.00">v8::PersistentValueMapBase</text>
<text text-anchor="middle" x="258" y="-133" font-family="Helvetica,sans-Serif" font-size="10.00">::FromVal</text>
</a>
</g>
</g>
<!-- Node2 -->
<g id="node2" class="node">
<title>Node2</title>
<g id="a_node2"><a xlink:href="classv8_1_1PersistentValueMapBase.html#a16b8f906ea42036c2f37d44813bf2a72" target="_top" xlink:title=" ">
<polygon fill="white" stroke="black" points="0,-240.5 0,-281.5 151,-281.5 151,-240.5 0,-240.5"/>
<text text-anchor="start" x="8" y="-269.5" font-family="Helvetica,sans-Serif" font-size="10.00">v8::PersistentValueMapBase</text>
<text text-anchor="start" x="8" y="-258.5" font-family="Helvetica,sans-Serif" font-size="10.00">&lt; K, V, DefaultGlobalMapTraits</text>
<text text-anchor="middle" x="75.5" y="-247.5" font-family="Helvetica,sans-Serif" font-size="10.00">&lt; K, V &gt; &gt;::Get</text>
</a>
</g>
</g>
<!-- Node1&#45;&gt;Node2 -->
<g id="edge1" class="edge">
<title>Node1&#45;&gt;Node2</title>
<path fill="none" stroke="midnightblue" d="M235.2,-163.21C214.84,-183.01 182.88,-211.74 151,-231 145.39,-234.39 139.33,-237.54 133.17,-240.44"/>
<polygon fill="midnightblue" stroke="midnightblue" points="237.74,-165.61 242.41,-156.1 232.83,-160.63 237.74,-165.61"/>
</g>
<!-- Node3 -->
<g id="node3" class="node">
<title>Node3</title>
<g id="a_node3"><a xlink:href="classv8_1_1PersistentValueMapBase_1_1PersistentValueReference.html#ac59d20538e1986a423605b013f33e040" target="_top" xlink:title=" ">
<polygon fill="white" stroke="black" points="4.5,-180.5 4.5,-221.5 146.5,-221.5 146.5,-180.5 4.5,-180.5"/>
<text text-anchor="start" x="12.5" y="-209.5" font-family="Helvetica,sans-Serif" font-size="10.00">v8::PersistentValueMapBase</text>
<text text-anchor="start" x="12.5" y="-198.5" font-family="Helvetica,sans-Serif" font-size="10.00">::PersistentValueReference</text>
<text text-anchor="middle" x="75.5" y="-187.5" font-family="Helvetica,sans-Serif" font-size="10.00">::NewLocal</text>
</a>
</g>
</g>
<!-- Node1&#45;&gt;Node3 -->
<g id="edge2" class="edge">
<title>Node1&#45;&gt;Node3</title>
<path fill="none" stroke="midnightblue" d="M201.85,-159.33C181.79,-166 159,-173.58 138.4,-180.42"/>
<polygon fill="midnightblue" stroke="midnightblue" points="203.07,-162.62 211.45,-156.14 200.86,-155.97 203.07,-162.62"/>
</g>
<!-- Node4 -->
<g id="node4" class="node">
<title>Node4</title>
<g id="a_node4"><a xlink:href="classv8_1_1PersistentValueMapBase.html#a9ffa7a4e0c59121c0471d71c04112966" target="_top" xlink:title=" ">
<polygon fill="white" stroke="black" points="0,-120.5 0,-161.5 151,-161.5 151,-120.5 0,-120.5"/>
<text text-anchor="start" x="8" y="-149.5" font-family="Helvetica,sans-Serif" font-size="10.00">v8::PersistentValueMapBase</text>
<text text-anchor="start" x="8" y="-138.5" font-family="Helvetica,sans-Serif" font-size="10.00">&lt; K, V, DefaultGlobalMapTraits</text>
<text text-anchor="middle" x="75.5" y="-127.5" font-family="Helvetica,sans-Serif" font-size="10.00">&lt; K, V &gt; &gt;::Release</text>
</a>
</g>
</g>
<!-- Node1&#45;&gt;Node4 -->
<g id="edge3" class="edge">
<title>Node1&#45;&gt;Node4</title>
<path fill="none" stroke="midnightblue" d="M176.72,-141C168.26,-141 159.68,-141 151.29,-141"/>
<polygon fill="midnightblue" stroke="midnightblue" points="176.96,-144.5 186.96,-141 176.96,-137.5 176.96,-144.5"/>
</g>
<!-- Node5 -->
<g id="node5" class="node">
<title>Node5</title>
<g id="a_node5"><a xlink:href="classv8_1_1PersistentValueMapBase.html#a5c16ace49c257f760c92a010a93b4884" target="_top" xlink:title=" ">
<polygon fill="white" stroke="black" points="0,-60.5 0,-101.5 151,-101.5 151,-60.5 0,-60.5"/>
<text text-anchor="start" x="8" y="-89.5" font-family="Helvetica,sans-Serif" font-size="10.00">v8::PersistentValueMapBase</text>
<text text-anchor="start" x="8" y="-78.5" font-family="Helvetica,sans-Serif" font-size="10.00">&lt; K, V, DefaultGlobalMapTraits</text>
<text text-anchor="middle" x="75.5" y="-67.5" font-family="Helvetica,sans-Serif" font-size="10.00">&lt; K, V &gt; &gt;::RemoveWeak</text>
</a>
</g>
</g>
<!-- Node1&#45;&gt;Node5 -->
<g id="edge4" class="edge">
<title>Node1&#45;&gt;Node5</title>
<path fill="none" stroke="midnightblue" d="M201.85,-122.67C181.79,-116 159,-108.42 138.4,-101.58"/>
<polygon fill="midnightblue" stroke="midnightblue" points="200.86,-126.03 211.45,-125.86 203.07,-119.38 200.86,-126.03"/>
</g>
<!-- Node6 -->
<g id="node6" class="node">
<title>Node6</title>
<g id="a_node6"><a xlink:href="classv8_1_1PersistentValueMapBase.html#a6fa5f720b283dd9fa626a67e7687dcd0" target="_top" xlink:title=" ">
<polygon fill="white" stroke="black" points="0,-0.5 0,-41.5 151,-41.5 151,-0.5 0,-0.5"/>
<text text-anchor="start" x="8" y="-29.5" font-family="Helvetica,sans-Serif" font-size="10.00">v8::PersistentValueMapBase</text>
<text text-anchor="start" x="8" y="-18.5" font-family="Helvetica,sans-Serif" font-size="10.00">&lt; K, V, DefaultGlobalMapTraits</text>
<text text-anchor="middle" x="75.5" y="-7.5" font-family="Helvetica,sans-Serif" font-size="10.00">&lt; K, V &gt; &gt;::SetReference</text>
</a>
</g>
</g>
<!-- Node1&#45;&gt;Node6 -->
<g id="edge5" class="edge">
<title>Node1&#45;&gt;Node6</title>
<path fill="none" stroke="midnightblue" d="M235.2,-118.79C214.84,-98.99 182.88,-70.26 151,-51 145.39,-47.61 139.33,-44.46 133.17,-41.56"/>
<polygon fill="midnightblue" stroke="midnightblue" points="232.83,-121.37 242.41,-125.9 237.74,-116.39 232.83,-121.37"/>
</g>
</g>
</svg>
