<?xml version="1.0" encoding="UTF-8" standalone="no"?>
<!DOCTYPE svg PUBLIC "-//W3C//DTD SVG 1.1//EN"
 "http://www.w3.org/Graphics/SVG/1.1/DTD/svg11.dtd">
<!-- Generated by graphviz version 2.44.0 ()
 -->
<!-- Title: v8::V8::IsExecutionTerminating Pages: 1 -->
<svg width="309pt" height="78pt"
 viewBox="0.00 0.00 309.00 77.50" xmlns="http://www.w3.org/2000/svg" xmlns:xlink="http://www.w3.org/1999/xlink">
<g id="graph0" class="graph" transform="scale(1 1) rotate(0) translate(4 73.5)">
<title>v8::V8::IsExecutionTerminating</title>
<polygon fill="white" stroke="transparent" points="-4,4 -4,-73.5 305,-73.5 305,4 -4,4"/>
<!-- Node1 -->
<g id="node1" class="node">
<title>Node1</title>
<g id="a_node1"><a xlink:title=" ">
<polygon fill="#bfbfbf" stroke="black" points="0,-28 0,-47 149,-47 149,-28 0,-28"/>
<text text-anchor="middle" x="74.5" y="-35" font-family="Helvetica,sans-Serif" font-size="10.00">v8::V8::IsExecutionTerminating</text>
</a>
</g>
</g>
<!-- Node2 -->
<g id="node2" class="node">
<title>Node2</title>
<g id="a_node2"><a xlink:href="classv8_1_1Isolate.html#aa79441b5da4438221d0f38790c4de2ed" target="_top" xlink:title=" ">
<polygon fill="white" stroke="black" points="186.5,-50 186.5,-69 299.5,-69 299.5,-50 186.5,-50"/>
<text text-anchor="middle" x="243" y="-57" font-family="Helvetica,sans-Serif" font-size="10.00">v8::Isolate::GetCurrent</text>
</a>
</g>
</g>
<!-- Node1&#45;&gt;Node2 -->
<g id="edge1" class="edge">
<title>Node1&#45;&gt;Node2</title>
<path fill="none" stroke="midnightblue" d="M147.56,-47.02C157.11,-48.28 166.87,-49.57 176.3,-50.82"/>
<polygon fill="midnightblue" stroke="midnightblue" points="176.02,-54.31 186.4,-52.15 176.94,-47.37 176.02,-54.31"/>
</g>
<!-- Node3 -->
<g id="node3" class="node">
<title>Node3</title>
<g id="a_node3"><a xlink:href="classv8_1_1Isolate.html#aee57283198c192e83afe5e7d12d42e85" target="_top" xlink:title=" ">
<polygon fill="white" stroke="black" points="185,-0.5 185,-30.5 301,-30.5 301,-0.5 185,-0.5"/>
<text text-anchor="start" x="193" y="-18.5" font-family="Helvetica,sans-Serif" font-size="10.00">v8::Isolate::IsExecution</text>
<text text-anchor="middle" x="243" y="-7.5" font-family="Helvetica,sans-Serif" font-size="10.00">Terminating</text>
</a>
</g>
</g>
<!-- Node1&#45;&gt;Node3 -->
<g id="edge2" class="edge">
<title>Node1&#45;&gt;Node3</title>
<path fill="none" stroke="midnightblue" d="M147.56,-27.98C156.63,-26.78 165.88,-25.56 174.86,-24.37"/>
<polygon fill="midnightblue" stroke="midnightblue" points="175.42,-27.83 184.88,-23.05 174.5,-20.89 175.42,-27.83"/>
</g>
</g>
</svg>
