<?xml version="1.0" encoding="UTF-8" standalone="no"?>
<!DOCTYPE svg PUBLIC "-//W3C//DTD SVG 1.1//EN"
 "http://www.w3.org/Graphics/SVG/1.1/DTD/svg11.dtd">
<!-- Generated by graphviz version 2.44.0 ()
 -->
<!-- Title: v8::Isolate::CreateParams Pages: 1 -->
<svg width="829pt" height="186pt"
 viewBox="0.00 0.00 829.00 186.00" xmlns="http://www.w3.org/2000/svg" xmlns:xlink="http://www.w3.org/1999/xlink">
<g id="graph0" class="graph" transform="scale(1 1) rotate(0) translate(4 182)">
<title>v8::Isolate::CreateParams</title>
<polygon fill="white" stroke="transparent" points="-4,4 -4,-182 825,-182 825,4 -4,4"/>
<!-- Node1 -->
<g id="node1" class="node">
<title>Node1</title>
<g id="a_node1"><a xlink:title=" ">
<polygon fill="#bfbfbf" stroke="black" points="693,-101.5 693,-120.5 821,-120.5 821,-101.5 693,-101.5"/>
<text text-anchor="middle" x="757" y="-108.5" font-family="Helvetica,sans-Serif" font-size="10.00">v8::Isolate::CreateParams</text>
</a>
</g>
</g>
<!-- Node2 -->
<g id="node2" class="node">
<title>Node2</title>
<g id="a_node2"><a xlink:href="classv8_1_1ArrayBuffer_1_1Allocator.html" target="_top" xlink:title=" ">
<polygon fill="white" stroke="black" points="440,-158.5 440,-177.5 562,-177.5 562,-158.5 440,-158.5"/>
<text text-anchor="middle" x="501" y="-165.5" font-family="Helvetica,sans-Serif" font-size="10.00">v8::ArrayBuffer::Allocator</text>
</a>
</g>
</g>
<!-- Node2&#45;&gt;Node1 -->
<g id="edge1" class="edge">
<title>Node2&#45;&gt;Node1</title>
<path fill="none" stroke="#9a32cd" stroke-dasharray="5,2" d="M572.16,-158.28C603.81,-153.27 641.53,-146.43 675,-138 693.97,-133.22 714.92,-126.19 730.75,-120.5"/>
<polygon fill="#9a32cd" stroke="#9a32cd" points="571.46,-154.85 562.11,-159.84 572.53,-161.77 571.46,-154.85"/>
<text text-anchor="middle" x="627.5" y="-159" font-family="Helvetica,sans-Serif" font-size="10.00"> array_buffer_allocator</text>
</g>
<!-- Node3 -->
<g id="node3" class="node">
<title>Node3</title>
<g id="a_node3"><a xlink:href="classv8_1_1ResourceConstraints.html" target="_top" xlink:title=" ">
<polygon fill="white" stroke="black" points="440,-120.5 440,-139.5 562,-139.5 562,-120.5 440,-120.5"/>
<text text-anchor="middle" x="501" y="-127.5" font-family="Helvetica,sans-Serif" font-size="10.00">v8::ResourceConstraints</text>
</a>
</g>
</g>
<!-- Node3&#45;&gt;Node1 -->
<g id="edge2" class="edge">
<title>Node3&#45;&gt;Node1</title>
<path fill="none" stroke="#9a32cd" stroke-dasharray="5,2" d="M572.58,-124.72C610.24,-121.9 656.2,-118.47 692.69,-115.74"/>
<polygon fill="#9a32cd" stroke="#9a32cd" points="571.91,-121.26 562.19,-125.5 572.43,-128.24 571.91,-121.26"/>
<text text-anchor="middle" x="627.5" y="-126" font-family="Helvetica,sans-Serif" font-size="10.00"> constraints</text>
</g>
<!-- Node4 -->
<g id="node4" class="node">
<title>Node4</title>
<g id="a_node4"><a xlink:href="classv8_1_1StartupData.html" target="_top" xlink:title=" ">
<polygon fill="white" stroke="black" points="459.5,-82.5 459.5,-101.5 542.5,-101.5 542.5,-82.5 459.5,-82.5"/>
<text text-anchor="middle" x="501" y="-89.5" font-family="Helvetica,sans-Serif" font-size="10.00">v8::StartupData</text>
</a>
</g>
</g>
<!-- Node4&#45;&gt;Node1 -->
<g id="edge3" class="edge">
<title>Node4&#45;&gt;Node1</title>
<path fill="none" stroke="#9a32cd" stroke-dasharray="5,2" d="M552.89,-94.23C587.38,-95.92 633.98,-98.54 675,-102 680.78,-102.49 686.79,-103.05 692.8,-103.65"/>
<polygon fill="#9a32cd" stroke="#9a32cd" points="552.75,-90.72 542.59,-93.74 552.41,-97.71 552.75,-90.72"/>
<text text-anchor="middle" x="627.5" y="-105" font-family="Helvetica,sans-Serif" font-size="10.00"> snapshot_blob</text>
</g>
<!-- Node5 -->
<g id="node5" class="node">
<title>Node5</title>
<g id="a_node5"><a xlink:href="structv8_1_1JitCodeEvent.html" target="_top" xlink:title=" ">
<polygon fill="white" stroke="black" points="456.5,-44.5 456.5,-63.5 545.5,-63.5 545.5,-44.5 456.5,-44.5"/>
<text text-anchor="middle" x="501" y="-51.5" font-family="Helvetica,sans-Serif" font-size="10.00">v8::JitCodeEvent</text>
</a>
</g>
</g>
<!-- Node5&#45;&gt;Node1 -->
<g id="edge4" class="edge">
<title>Node5&#45;&gt;Node1</title>
<path fill="none" stroke="#9a32cd" stroke-dasharray="5,2" d="M555.86,-59.06C590.31,-63.04 635.74,-69.67 675,-80 695.82,-85.48 718.66,-94.51 734.76,-101.42"/>
<polygon fill="#9a32cd" stroke="#9a32cd" points="555.87,-55.54 545.54,-57.91 555.09,-62.49 555.87,-55.54"/>
<text text-anchor="middle" x="627.5" y="-83" font-family="Helvetica,sans-Serif" font-size="10.00"> code_event_handler</text>
</g>
<!-- Node6 -->
<g id="node6" class="node">
<title>Node6</title>
<g id="a_node6"><a xlink:href="structv8_1_1JitCodeEvent_1_1name__t.html" target="_top" xlink:title=" ">
<polygon fill="white" stroke="black" points="226,-88.5 226,-107.5 352,-107.5 352,-88.5 226,-88.5"/>
<text text-anchor="middle" x="289" y="-95.5" font-family="Helvetica,sans-Serif" font-size="10.00">v8::JitCodeEvent::name_t</text>
</a>
</g>
</g>
<!-- Node6&#45;&gt;Node5 -->
<g id="edge5" class="edge">
<title>Node6&#45;&gt;Node5</title>
<path fill="none" stroke="#9a32cd" stroke-dasharray="5,2" d="M345.54,-86.36C380.19,-79.1 424.16,-69.89 456.32,-63.15"/>
<polygon fill="#9a32cd" stroke="#9a32cd" points="344.64,-82.98 335.57,-88.45 346.07,-89.83 344.64,-82.98"/>
<text text-anchor="middle" x="402.5" y="-80" font-family="Helvetica,sans-Serif" font-size="10.00"> name</text>
</g>
<!-- Node7 -->
<g id="node7" class="node">
<title>Node7</title>
<g id="a_node7"><a xlink:href="structv8_1_1JitCodeEvent_1_1line__info__t.html" target="_top" xlink:title=" ">
<polygon fill="white" stroke="black" points="234.5,-39 234.5,-69 343.5,-69 343.5,-39 234.5,-39"/>
<text text-anchor="start" x="242.5" y="-57" font-family="Helvetica,sans-Serif" font-size="10.00">v8::JitCodeEvent::line</text>
<text text-anchor="middle" x="289" y="-46" font-family="Helvetica,sans-Serif" font-size="10.00">_info_t</text>
</a>
</g>
</g>
<!-- Node7&#45;&gt;Node5 -->
<g id="edge6" class="edge">
<title>Node7&#45;&gt;Node5</title>
<path fill="none" stroke="#9a32cd" stroke-dasharray="5,2" d="M353.63,-54C386.89,-54 426.74,-54 456.46,-54"/>
<polygon fill="#9a32cd" stroke="#9a32cd" points="353.54,-50.5 343.54,-54 353.54,-57.5 353.54,-50.5"/>
<text text-anchor="middle" x="402.5" y="-57" font-family="Helvetica,sans-Serif" font-size="10.00"> line_info</text>
</g>
<!-- Node8 -->
<g id="node8" class="node">
<title>Node8</title>
<g id="a_node8"><a xlink:href="classv8_1_1Local.html" target="_top" xlink:title=" ">
<polygon fill="white" stroke="black" points="213,-0.5 213,-19.5 365,-19.5 365,-0.5 213,-0.5"/>
<text text-anchor="middle" x="289" y="-7.5" font-family="Helvetica,sans-Serif" font-size="10.00">v8::Local&lt; v8::UnboundScript &gt;</text>
</a>
</g>
</g>
<!-- Node8&#45;&gt;Node5 -->
<g id="edge7" class="edge">
<title>Node8&#45;&gt;Node5</title>
<path fill="none" stroke="#9a32cd" stroke-dasharray="5,2" d="M345.54,-21.64C380.19,-28.9 424.16,-38.11 456.32,-44.85"/>
<polygon fill="#9a32cd" stroke="#9a32cd" points="346.07,-18.17 335.57,-19.55 344.64,-25.02 346.07,-18.17"/>
<text text-anchor="middle" x="402.5" y="-41" font-family="Helvetica,sans-Serif" font-size="10.00"> script</text>
</g>
<!-- Node9 -->
<g id="node9" class="node">
<title>Node9</title>
<g id="a_node9"><a xlink:href="classv8_1_1Local.html" target="_top" xlink:title=" ">
<polygon fill="white" stroke="black" points="0,-0.5 0,-19.5 78,-19.5 78,-0.5 0,-0.5"/>
<text text-anchor="middle" x="39" y="-7.5" font-family="Helvetica,sans-Serif" font-size="10.00">v8::Local&lt; T &gt;</text>
</a>
</g>
</g>
<!-- Node9&#45;&gt;Node8 -->
<g id="edge8" class="edge">
<title>Node9&#45;&gt;Node8</title>
<path fill="none" stroke="orange" stroke-dasharray="5,2" d="M88.27,-10C123.63,-10 172.31,-10 212.76,-10"/>
<polygon fill="orange" stroke="orange" points="88.21,-6.5 78.21,-10 88.21,-13.5 88.21,-6.5"/>
<text text-anchor="middle" x="145.5" y="-13" font-family="Helvetica,sans-Serif" font-size="10.00"> &lt; v8::UnboundScript &gt;</text>
</g>
</g>
</svg>
