<?xml version="1.0" encoding="UTF-8" standalone="no"?>
<!DOCTYPE svg PUBLIC "-//W3C//DTD SVG 1.1//EN"
 "http://www.w3.org/Graphics/SVG/1.1/DTD/svg11.dtd">
<!-- Generated by graphviz version 2.44.0 ()
 -->
<!-- Title: v8::V8::RemoveMemoryAllocationCallback Pages: 1 -->
<svg width="341pt" height="78pt"
 viewBox="0.00 0.00 341.00 77.50" xmlns="http://www.w3.org/2000/svg" xmlns:xlink="http://www.w3.org/1999/xlink">
<g id="graph0" class="graph" transform="scale(1 1) rotate(0) translate(4 73.5)">
<title>v8::V8::RemoveMemoryAllocationCallback</title>
<polygon fill="white" stroke="transparent" points="-4,4 -4,-73.5 337,-73.5 337,4 -4,4"/>
<!-- Node1 -->
<g id="node1" class="node">
<title>Node1</title>
<g id="a_node1"><a xlink:title=" ">
<polygon fill="#bfbfbf" stroke="black" points="0,-22.5 0,-52.5 161,-52.5 161,-22.5 0,-22.5"/>
<text text-anchor="start" x="8" y="-40.5" font-family="Helvetica,sans-Serif" font-size="10.00">v8::V8::RemoveMemoryAllocation</text>
<text text-anchor="middle" x="80.5" y="-29.5" font-family="Helvetica,sans-Serif" font-size="10.00">Callback</text>
</a>
</g>
</g>
<!-- Node2 -->
<g id="node2" class="node">
<title>Node2</title>
<g id="a_node2"><a xlink:href="classv8_1_1Isolate.html#aa79441b5da4438221d0f38790c4de2ed" target="_top" xlink:title=" ">
<polygon fill="white" stroke="black" points="208.5,-50 208.5,-69 321.5,-69 321.5,-50 208.5,-50"/>
<text text-anchor="middle" x="265" y="-57" font-family="Helvetica,sans-Serif" font-size="10.00">v8::Isolate::GetCurrent</text>
</a>
</g>
</g>
<!-- Node1&#45;&gt;Node2 -->
<g id="edge1" class="edge">
<title>Node1&#45;&gt;Node2</title>
<path fill="none" stroke="midnightblue" d="M161.02,-47.09C173.47,-48.59 186.23,-50.12 198.33,-51.58"/>
<polygon fill="midnightblue" stroke="midnightblue" points="197.97,-55.07 208.32,-52.79 198.81,-48.12 197.97,-55.07"/>
</g>
<!-- Node3 -->
<g id="node3" class="node">
<title>Node3</title>
<g id="a_node3"><a xlink:href="classv8_1_1Isolate.html#a99349e062c11085eeb63a0d825226487" target="_top" xlink:title=" ">
<polygon fill="white" stroke="black" points="197,-0.5 197,-30.5 333,-30.5 333,-0.5 197,-0.5"/>
<text text-anchor="start" x="205" y="-18.5" font-family="Helvetica,sans-Serif" font-size="10.00">v8::Isolate::RemoveMemory</text>
<text text-anchor="middle" x="265" y="-7.5" font-family="Helvetica,sans-Serif" font-size="10.00">AllocationCallback</text>
</a>
</g>
</g>
<!-- Node1&#45;&gt;Node3 -->
<g id="edge2" class="edge">
<title>Node1&#45;&gt;Node3</title>
<path fill="none" stroke="midnightblue" d="M161.02,-27.91C169.48,-26.89 178.09,-25.86 186.53,-24.84"/>
<polygon fill="midnightblue" stroke="midnightblue" points="187.22,-28.28 196.73,-23.61 186.39,-21.33 187.22,-28.28"/>
</g>
</g>
</svg>
