<?xml version="1.0" encoding="UTF-8" standalone="no"?>
<!DOCTYPE svg PUBLIC "-//W3C//DTD SVG 1.1//EN"
 "http://www.w3.org/Graphics/SVG/1.1/DTD/svg11.dtd">
<!-- Generated by graphviz version 2.44.0 ()
 -->
<!-- Title: v8::String::ExternalOneByteStringResource Pages: 1 -->
<svg width="142pt" height="173pt"
 viewBox="0.00 0.00 142.00 173.00" xmlns="http://www.w3.org/2000/svg" xmlns:xlink="http://www.w3.org/1999/xlink">
<g id="graph0" class="graph" transform="scale(1 1) rotate(0) translate(4 169)">
<title>v8::String::ExternalOneByteStringResource</title>
<polygon fill="white" stroke="transparent" points="-4,4 -4,-169 138,-169 138,4 -4,4"/>
<!-- Node1 -->
<g id="node1" class="node">
<title>Node1</title>
<g id="a_node1"><a xlink:title=" ">
<polygon fill="#bfbfbf" stroke="black" points="0,-67.5 0,-97.5 134,-97.5 134,-67.5 0,-67.5"/>
<text text-anchor="start" x="8" y="-85.5" font-family="Helvetica,sans-Serif" font-size="10.00">v8::String::ExternalOneByte</text>
<text text-anchor="middle" x="67" y="-74.5" font-family="Helvetica,sans-Serif" font-size="10.00">StringResource</text>
</a>
</g>
</g>
<!-- Node3 -->
<g id="node3" class="node">
<title>Node3</title>
<g id="a_node3"><a xlink:href="classv8_1_1ExternalOneByteStringResourceImpl.html" target="_top" xlink:title=" ">
<polygon fill="white" stroke="black" points="2.5,-0.5 2.5,-30.5 131.5,-30.5 131.5,-0.5 2.5,-0.5"/>
<text text-anchor="start" x="10.5" y="-18.5" font-family="Helvetica,sans-Serif" font-size="10.00">v8::ExternalOneByteString</text>
<text text-anchor="middle" x="67" y="-7.5" font-family="Helvetica,sans-Serif" font-size="10.00">ResourceImpl</text>
</a>
</g>
</g>
<!-- Node1&#45;&gt;Node3 -->
<g id="edge2" class="edge">
<title>Node1&#45;&gt;Node3</title>
<path fill="none" stroke="midnightblue" d="M67,-57.11C67,-48.15 67,-38.32 67,-30.58"/>
<polygon fill="midnightblue" stroke="midnightblue" points="63.5,-57.4 67,-67.4 70.5,-57.4 63.5,-57.4"/>
</g>
<!-- Node2 -->
<g id="node2" class="node">
<title>Node2</title>
<g id="a_node2"><a xlink:href="classv8_1_1String_1_1ExternalStringResourceBase.html" target="_top" xlink:title=" ">
<polygon fill="white" stroke="black" points="6,-134.5 6,-164.5 128,-164.5 128,-134.5 6,-134.5"/>
<text text-anchor="start" x="14" y="-152.5" font-family="Helvetica,sans-Serif" font-size="10.00">v8::String::ExternalString</text>
<text text-anchor="middle" x="67" y="-141.5" font-family="Helvetica,sans-Serif" font-size="10.00">ResourceBase</text>
</a>
</g>
</g>
<!-- Node2&#45;&gt;Node1 -->
<g id="edge1" class="edge">
<title>Node2&#45;&gt;Node1</title>
<path fill="none" stroke="midnightblue" d="M67,-124.11C67,-115.15 67,-105.32 67,-97.58"/>
<polygon fill="midnightblue" stroke="midnightblue" points="63.5,-124.4 67,-134.4 70.5,-124.4 63.5,-124.4"/>
</g>
</g>
</svg>
