<?xml version="1.0" encoding="UTF-8" standalone="no"?>
<!DOCTYPE svg PUBLIC "-//W3C//DTD SVG 1.1//EN"
 "http://www.w3.org/Graphics/SVG/1.1/DTD/svg11.dtd">
<!-- Generated by graphviz version 2.44.0 ()
 -->
<!-- Title: v8::NamedPropertyHandlerConfiguration Pages: 1 -->
<svg width="387pt" height="217pt"
 viewBox="0.00 0.00 387.00 217.00" xmlns="http://www.w3.org/2000/svg" xmlns:xlink="http://www.w3.org/1999/xlink">
<g id="graph0" class="graph" transform="scale(1 1) rotate(0) translate(4 213)">
<title>v8::NamedPropertyHandlerConfiguration</title>
<polygon fill="white" stroke="transparent" points="-4,4 -4,-213 383,-213 383,4 -4,4"/>
<!-- Node1 -->
<g id="node1" class="node">
<title>Node1</title>
<g id="a_node1"><a xlink:title=" ">
<polygon fill="#bfbfbf" stroke="black" points="133.5,-0.5 133.5,-30.5 266.5,-30.5 266.5,-0.5 133.5,-0.5"/>
<text text-anchor="start" x="141.5" y="-18.5" font-family="Helvetica,sans-Serif" font-size="10.00">v8::NamedPropertyHandler</text>
<text text-anchor="middle" x="200" y="-7.5" font-family="Helvetica,sans-Serif" font-size="10.00">Configuration</text>
</a>
</g>
</g>
<!-- Node2 -->
<g id="node2" class="node">
<title>Node2</title>
<g id="a_node2"><a xlink:href="classv8_1_1PropertyCallbackInfo.html" target="_top" xlink:title=" ">
<polygon fill="white" stroke="black" points="11,-111.5 11,-141.5 133,-141.5 133,-111.5 11,-111.5"/>
<text text-anchor="start" x="19" y="-129.5" font-family="Helvetica,sans-Serif" font-size="10.00">v8::PropertyCallbackInfo</text>
<text text-anchor="middle" x="72" y="-118.5" font-family="Helvetica,sans-Serif" font-size="10.00">&lt; Array &gt;</text>
</a>
</g>
</g>
<!-- Node2&#45;&gt;Node1 -->
<g id="edge1" class="edge">
<title>Node2&#45;&gt;Node1</title>
<path fill="none" stroke="#9a32cd" stroke-dasharray="5,2" d="M89.74,-103.44C103.48,-87.2 123.56,-65.22 144,-49 152.63,-42.15 162.86,-35.78 172.2,-30.53"/>
<polygon fill="#9a32cd" stroke="#9a32cd" points="86.87,-101.42 83.17,-111.35 92.25,-105.9 86.87,-101.42"/>
<text text-anchor="middle" x="170" y="-68.5" font-family="Helvetica,sans-Serif" font-size="10.00"> enumerator</text>
</g>
<!-- Node3 -->
<g id="node3" class="node">
<title>Node3</title>
<g id="a_node3"><a xlink:href="classv8_1_1PropertyCallbackInfo.html" target="_top" xlink:title=" ">
<polygon fill="white" stroke="black" points="0,-189.5 0,-208.5 144,-208.5 144,-189.5 0,-189.5"/>
<text text-anchor="middle" x="72" y="-196.5" font-family="Helvetica,sans-Serif" font-size="10.00">v8::PropertyCallbackInfo&lt; T &gt;</text>
</a>
</g>
</g>
<!-- Node3&#45;&gt;Node2 -->
<g id="edge2" class="edge">
<title>Node3&#45;&gt;Node2</title>
<path fill="none" stroke="orange" stroke-dasharray="5,2" d="M72,-179.24C72,-167.41 72,-152.38 72,-141.58"/>
<polygon fill="orange" stroke="orange" points="68.5,-179.36 72,-189.36 75.5,-179.36 68.5,-179.36"/>
<text text-anchor="middle" x="93" y="-163" font-family="Helvetica,sans-Serif" font-size="10.00"> &lt; Array &gt;</text>
</g>
<!-- Node4 -->
<g id="node4" class="node">
<title>Node4</title>
<g id="a_node4"><a xlink:href="classv8_1_1Local.html" target="_top" xlink:title=" ">
<polygon fill="white" stroke="black" points="151,-117 151,-136 249,-136 249,-117 151,-117"/>
<text text-anchor="middle" x="200" y="-124" font-family="Helvetica,sans-Serif" font-size="10.00">v8::Local&lt; Name &gt;</text>
</a>
</g>
</g>
<!-- Node4&#45;&gt;Node1 -->
<g id="edge3" class="edge">
<title>Node4&#45;&gt;Node1</title>
<path fill="none" stroke="#9a32cd" stroke-dasharray="5,2" d="M200,-106.78C200,-85.2 200,-50.21 200,-30.74"/>
<polygon fill="#9a32cd" stroke="#9a32cd" points="196.5,-106.95 200,-116.95 203.5,-106.95 196.5,-106.95"/>
<text text-anchor="middle" x="215" y="-85" font-family="Helvetica,sans-Serif" font-size="10.00"> query</text>
<text text-anchor="middle" x="215" y="-74" font-family="Helvetica,sans-Serif" font-size="10.00">deleter</text>
<text text-anchor="middle" x="215" y="-63" font-family="Helvetica,sans-Serif" font-size="10.00">getter</text>
<text text-anchor="middle" x="215" y="-52" font-family="Helvetica,sans-Serif" font-size="10.00">setter</text>
</g>
<!-- Node5 -->
<g id="node5" class="node">
<title>Node5</title>
<g id="a_node5"><a xlink:href="classv8_1_1Local.html" target="_top" xlink:title=" ">
<polygon fill="white" stroke="black" points="196,-189.5 196,-208.5 274,-208.5 274,-189.5 196,-189.5"/>
<text text-anchor="middle" x="235" y="-196.5" font-family="Helvetica,sans-Serif" font-size="10.00">v8::Local&lt; T &gt;</text>
</a>
</g>
</g>
<!-- Node5&#45;&gt;Node4 -->
<g id="edge4" class="edge">
<title>Node5&#45;&gt;Node4</title>
<path fill="none" stroke="orange" stroke-dasharray="5,2" d="M226.15,-180.18C219.18,-166.13 209.75,-147.14 204.33,-136.22"/>
<polygon fill="orange" stroke="orange" points="223.13,-181.95 230.71,-189.36 229.4,-178.84 223.13,-181.95"/>
<text text-anchor="middle" x="243" y="-163" font-family="Helvetica,sans-Serif" font-size="10.00"> &lt; Name &gt;</text>
</g>
<!-- Node6 -->
<g id="node6" class="node">
<title>Node6</title>
<g id="a_node6"><a xlink:href="classv8_1_1Local.html" target="_top" xlink:title=" ">
<polygon fill="white" stroke="black" points="267,-117 267,-136 379,-136 379,-117 267,-117"/>
<text text-anchor="middle" x="323" y="-124" font-family="Helvetica,sans-Serif" font-size="10.00">v8::Local&lt; v8::Value &gt;</text>
</a>
</g>
</g>
<!-- Node5&#45;&gt;Node6 -->
<g id="edge6" class="edge">
<title>Node5&#45;&gt;Node6</title>
<path fill="none" stroke="orange" stroke-dasharray="5,2" d="M254.47,-183.15C259.55,-179.23 265,-174.98 270,-171 284.9,-159.14 301.88,-145.11 312.52,-136.26"/>
<polygon fill="orange" stroke="orange" points="252.22,-180.46 246.42,-189.33 256.48,-186.02 252.22,-180.46"/>
<text text-anchor="middle" x="312.5" y="-163" font-family="Helvetica,sans-Serif" font-size="10.00"> &lt; v8::Value &gt;</text>
</g>
<!-- Node6&#45;&gt;Node1 -->
<g id="edge5" class="edge">
<title>Node6&#45;&gt;Node1</title>
<path fill="none" stroke="#9a32cd" stroke-dasharray="5,2" d="M305.77,-110.23C281.94,-89.12 239.26,-51.29 216.06,-30.74"/>
<polygon fill="#9a32cd" stroke="#9a32cd" points="303.54,-112.93 313.35,-116.95 308.19,-107.7 303.54,-112.93"/>
<text text-anchor="middle" x="294" y="-68.5" font-family="Helvetica,sans-Serif" font-size="10.00"> data</text>
</g>
</g>
</svg>
