<?xml version="1.0" encoding="UTF-8" standalone="no"?>
<!DOCTYPE svg PUBLIC "-//W3C//DTD SVG 1.1//EN"
 "http://www.w3.org/Graphics/SVG/1.1/DTD/svg11.dtd">
<!-- Generated by graphviz version 2.44.0 ()
 -->
<!-- Title: v8::PersistentValueMapBase&lt; K, V, Traits &gt; Pages: 1 -->
<svg width="935pt" height="207pt"
 viewBox="0.00 0.00 935.00 207.00" xmlns="http://www.w3.org/2000/svg" xmlns:xlink="http://www.w3.org/1999/xlink">
<g id="graph0" class="graph" transform="scale(1 1) rotate(0) translate(4 203)">
<title>v8::PersistentValueMapBase&lt; K, V, Traits &gt;</title>
<polygon fill="white" stroke="transparent" points="-4,4 -4,-203 931,-203 931,4 -4,4"/>
<!-- Node1 -->
<g id="node1" class="node">
<title>Node1</title>
<g id="a_node1"><a xlink:title=" ">
<polygon fill="#bfbfbf" stroke="black" points="0,-80.5 0,-110.5 142,-110.5 142,-80.5 0,-80.5"/>
<text text-anchor="start" x="8" y="-98.5" font-family="Helvetica,sans-Serif" font-size="10.00">v8::PersistentValueMapBase</text>
<text text-anchor="middle" x="71" y="-87.5" font-family="Helvetica,sans-Serif" font-size="10.00">&lt; K, V, Traits &gt;</text>
</a>
</g>
</g>
<!-- Node2 -->
<g id="node2" class="node">
<title>Node2</title>
<g id="a_node2"><a xlink:href="classv8_1_1GlobalValueMap.html" target="_top" xlink:title=" ">
<polygon fill="white" stroke="black" points="322,-168.5 322,-198.5 425,-198.5 425,-168.5 322,-168.5"/>
<text text-anchor="start" x="330" y="-186.5" font-family="Helvetica,sans-Serif" font-size="10.00">v8::GlobalValueMap</text>
<text text-anchor="middle" x="373.5" y="-175.5" font-family="Helvetica,sans-Serif" font-size="10.00">&lt; K, V, Traits &gt;</text>
</a>
</g>
</g>
<!-- Node1&#45;&gt;Node2 -->
<g id="edge1" class="edge">
<title>Node1&#45;&gt;Node2</title>
<path fill="none" stroke="midnightblue" d="M103.54,-115.85C119.83,-125.53 140.36,-136.49 160,-143.5 213.57,-162.61 278.15,-173.11 321.96,-178.5"/>
<polygon fill="midnightblue" stroke="midnightblue" points="105.33,-112.84 94.96,-110.64 101.69,-118.82 105.33,-112.84"/>
</g>
<!-- Node5 -->
<g id="node5" class="node">
<title>Node5</title>
<g id="a_node5"><a xlink:href="classv8_1_1PersistentValueMap.html" target="_top" xlink:title=" ">
<polygon fill="white" stroke="black" points="314,-0.5 314,-30.5 433,-30.5 433,-0.5 314,-0.5"/>
<text text-anchor="start" x="322" y="-18.5" font-family="Helvetica,sans-Serif" font-size="10.00">v8::PersistentValueMap</text>
<text text-anchor="middle" x="373.5" y="-7.5" font-family="Helvetica,sans-Serif" font-size="10.00">&lt; K, V, Traits &gt;</text>
</a>
</g>
</g>
<!-- Node1&#45;&gt;Node5 -->
<g id="edge4" class="edge">
<title>Node1&#45;&gt;Node5</title>
<path fill="none" stroke="midnightblue" d="M129.07,-77.51C139.34,-74.41 149.97,-71.29 160,-68.5 211.65,-54.15 270.87,-39.52 313.65,-29.29"/>
<polygon fill="midnightblue" stroke="midnightblue" points="127.91,-74.2 119.36,-80.46 129.95,-80.9 127.91,-74.2"/>
</g>
<!-- Node8 -->
<g id="node8" class="node">
<title>Node8</title>
<g id="a_node8"><a xlink:href="classv8_1_1PersistentValueMapBase.html" target="_top" xlink:title=" ">
<polygon fill="white" stroke="black" points="290,-49 290,-90 457,-90 457,-49 290,-49"/>
<text text-anchor="start" x="298" y="-78" font-family="Helvetica,sans-Serif" font-size="10.00">v8::PersistentValueMapBase</text>
<text text-anchor="start" x="298" y="-67" font-family="Helvetica,sans-Serif" font-size="10.00">&lt; K, V, DefaultPersistentValueMap</text>
<text text-anchor="middle" x="373.5" y="-56" font-family="Helvetica,sans-Serif" font-size="10.00">Traits&lt; K, V &gt; &gt;</text>
</a>
</g>
</g>
<!-- Node1&#45;&gt;Node8 -->
<g id="edge7" class="edge">
<title>Node1&#45;&gt;Node8</title>
<path fill="none" stroke="orange" stroke-dasharray="5,2" d="M152.23,-82.39C154.85,-82.07 157.44,-81.77 160,-81.5 202.71,-76.91 250.45,-74.01 289.84,-72.22"/>
<polygon fill="orange" stroke="orange" points="151.51,-78.95 142.04,-83.7 152.41,-85.9 151.51,-78.95"/>
<text text-anchor="start" x="160" y="-95.5" font-family="Helvetica,sans-Serif" font-size="10.00"> &lt; K, V, DefaultPersistent</text>
<text text-anchor="middle" x="216" y="-84.5" font-family="Helvetica,sans-Serif" font-size="10.00">ValueMapTraits&lt; K, V &gt; &gt;</text>
</g>
<!-- Node9 -->
<g id="node9" class="node">
<title>Node9</title>
<g id="a_node9"><a xlink:href="classv8_1_1PersistentValueMapBase.html" target="_top" xlink:title=" ">
<polygon fill="white" stroke="black" points="298,-109 298,-150 449,-150 449,-109 298,-109"/>
<text text-anchor="start" x="306" y="-138" font-family="Helvetica,sans-Serif" font-size="10.00">v8::PersistentValueMapBase</text>
<text text-anchor="start" x="306" y="-127" font-family="Helvetica,sans-Serif" font-size="10.00">&lt; K, V, DefaultGlobalMapTraits</text>
<text text-anchor="middle" x="373.5" y="-116" font-family="Helvetica,sans-Serif" font-size="10.00">&lt; K, V &gt; &gt;</text>
</a>
</g>
</g>
<!-- Node1&#45;&gt;Node9 -->
<g id="edge9" class="edge">
<title>Node1&#45;&gt;Node9</title>
<path fill="none" stroke="orange" stroke-dasharray="5,2" d="M152.14,-104.57C197.38,-109.69 253.54,-116.04 297.85,-121.05"/>
<polygon fill="orange" stroke="orange" points="152.4,-101.08 142.07,-103.43 151.62,-108.03 152.4,-101.08"/>
<text text-anchor="start" x="160" y="-131.5" font-family="Helvetica,sans-Serif" font-size="10.00"> &lt; K, V, DefaultGlobalMap</text>
<text text-anchor="middle" x="216" y="-120.5" font-family="Helvetica,sans-Serif" font-size="10.00">Traits&lt; K, V &gt; &gt;</text>
</g>
<!-- Node3 -->
<g id="node3" class="node">
<title>Node3</title>
<g id="a_node3"><a xlink:href="classv8_1_1GlobalValueMap.html" target="_top" xlink:title=" ">
<polygon fill="white" stroke="black" points="605,-125 605,-166 756,-166 756,-125 605,-125"/>
<text text-anchor="start" x="613" y="-154" font-family="Helvetica,sans-Serif" font-size="10.00">v8::GlobalValueMap</text>
<text text-anchor="start" x="613" y="-143" font-family="Helvetica,sans-Serif" font-size="10.00">&lt; K, V, DefaultGlobalMapTraits</text>
<text text-anchor="middle" x="680.5" y="-132" font-family="Helvetica,sans-Serif" font-size="10.00">&lt; K, V &gt; &gt;</text>
</a>
</g>
</g>
<!-- Node2&#45;&gt;Node3 -->
<g id="edge2" class="edge">
<title>Node2&#45;&gt;Node3</title>
<path fill="none" stroke="orange" stroke-dasharray="5,2" d="M435.31,-175.92C484.11,-169.84 552.84,-161.28 604.95,-154.79"/>
<polygon fill="orange" stroke="orange" points="434.7,-172.47 425.21,-177.18 435.56,-179.42 434.7,-172.47"/>
<text text-anchor="start" x="475" y="-183.5" font-family="Helvetica,sans-Serif" font-size="10.00"> &lt; K, V, DefaultGlobalMap</text>
<text text-anchor="middle" x="531" y="-172.5" font-family="Helvetica,sans-Serif" font-size="10.00">Traits&lt; K, V &gt; &gt;</text>
</g>
<!-- Node4 -->
<g id="node4" class="node">
<title>Node4</title>
<g id="a_node4"><a xlink:href="classv8_1_1StdGlobalValueMap.html" target="_top" xlink:title=" ">
<polygon fill="white" stroke="black" points="801,-130.5 801,-160.5 919,-160.5 919,-130.5 801,-130.5"/>
<text text-anchor="start" x="809" y="-148.5" font-family="Helvetica,sans-Serif" font-size="10.00">v8::StdGlobalValueMap</text>
<text text-anchor="middle" x="860" y="-137.5" font-family="Helvetica,sans-Serif" font-size="10.00">&lt; K, V, Traits &gt;</text>
</a>
</g>
</g>
<!-- Node3&#45;&gt;Node4 -->
<g id="edge3" class="edge">
<title>Node3&#45;&gt;Node4</title>
<path fill="none" stroke="midnightblue" d="M766.26,-145.5C777.98,-145.5 789.79,-145.5 800.87,-145.5"/>
<polygon fill="midnightblue" stroke="midnightblue" points="766,-142 756,-145.5 766,-149 766,-142"/>
</g>
<!-- Node6 -->
<g id="node6" class="node">
<title>Node6</title>
<g id="a_node6"><a xlink:href="classv8_1_1PersistentValueMap.html" target="_top" xlink:title=" ">
<polygon fill="white" stroke="black" points="606,-43 606,-84 755,-84 755,-43 606,-43"/>
<text text-anchor="start" x="614" y="-72" font-family="Helvetica,sans-Serif" font-size="10.00">v8::PersistentValueMap</text>
<text text-anchor="start" x="614" y="-61" font-family="Helvetica,sans-Serif" font-size="10.00">&lt; K, V, DefaultPersistentValue</text>
<text text-anchor="middle" x="680.5" y="-50" font-family="Helvetica,sans-Serif" font-size="10.00">MapTraits&lt; K, V &gt; &gt;</text>
</a>
</g>
</g>
<!-- Node5&#45;&gt;Node6 -->
<g id="edge5" class="edge">
<title>Node5&#45;&gt;Node6</title>
<path fill="none" stroke="orange" stroke-dasharray="5,2" d="M443.08,-20.77C484.89,-24.59 539.28,-30.66 587,-39.5 593.2,-40.65 599.6,-41.98 606,-43.43"/>
<polygon fill="orange" stroke="orange" points="443.27,-17.27 433,-19.87 442.65,-24.24 443.27,-17.27"/>
<text text-anchor="start" x="475" y="-53.5" font-family="Helvetica,sans-Serif" font-size="10.00"> &lt; K, V, DefaultPersistent</text>
<text text-anchor="middle" x="531" y="-42.5" font-family="Helvetica,sans-Serif" font-size="10.00">ValueMapTraits&lt; K, V &gt; &gt;</text>
</g>
<!-- Node7 -->
<g id="node7" class="node">
<title>Node7</title>
<g id="a_node7"><a xlink:href="classv8_1_1StdPersistentValueMap.html" target="_top" xlink:title=" ">
<polygon fill="white" stroke="black" points="793,-48.5 793,-78.5 927,-78.5 927,-48.5 793,-48.5"/>
<text text-anchor="start" x="801" y="-66.5" font-family="Helvetica,sans-Serif" font-size="10.00">v8::StdPersistentValueMap</text>
<text text-anchor="middle" x="860" y="-55.5" font-family="Helvetica,sans-Serif" font-size="10.00">&lt; K, V, Traits &gt;</text>
</a>
</g>
</g>
<!-- Node6&#45;&gt;Node7 -->
<g id="edge6" class="edge">
<title>Node6&#45;&gt;Node7</title>
<path fill="none" stroke="midnightblue" d="M765.24,-63.5C774.51,-63.5 783.86,-63.5 792.87,-63.5"/>
<polygon fill="midnightblue" stroke="midnightblue" points="765.23,-60 755.23,-63.5 765.23,-67 765.23,-60"/>
</g>
<!-- Node8&#45;&gt;Node6 -->
<g id="edge8" class="edge">
<title>Node8&#45;&gt;Node6</title>
<path fill="none" stroke="midnightblue" d="M467.26,-67.68C511.67,-66.8 564.11,-65.77 605.75,-64.95"/>
<polygon fill="midnightblue" stroke="midnightblue" points="466.97,-64.18 457.04,-67.88 467.1,-71.18 466.97,-64.18"/>
</g>
<!-- Node9&#45;&gt;Node3 -->
<g id="edge10" class="edge">
<title>Node9&#45;&gt;Node3</title>
<path fill="none" stroke="midnightblue" d="M459.29,-133.95C504.98,-136.34 560.84,-139.28 604.87,-141.58"/>
<polygon fill="midnightblue" stroke="midnightblue" points="459.28,-130.44 449.11,-133.41 458.91,-137.43 459.28,-130.44"/>
</g>
</g>
</svg>
