<?xml version="1.0" encoding="UTF-8" standalone="no"?>
<!DOCTYPE svg PUBLIC "-//W3C//DTD SVG 1.1//EN"
 "http://www.w3.org/Graphics/SVG/1.1/DTD/svg11.dtd">
<!-- Generated by graphviz version 2.44.0 ()
 -->
<!-- Title: v8::MaybeLocal::IsEmpty Pages: 1 -->
<svg width="479pt" height="72pt"
 viewBox="0.00 0.00 479.00 71.50" xmlns="http://www.w3.org/2000/svg" xmlns:xlink="http://www.w3.org/1999/xlink">
<g id="graph0" class="graph" transform="scale(1 1) rotate(0) translate(4 67.5)">
<title>v8::MaybeLocal::IsEmpty</title>
<polygon fill="white" stroke="transparent" points="-4,4 -4,-67.5 475,-67.5 475,4 -4,4"/>
<!-- Node1 -->
<g id="node1" class="node">
<title>Node1</title>
<g id="a_node1"><a xlink:title=" ">
<polygon fill="#bfbfbf" stroke="black" points="347,-19.5 347,-38.5 471,-38.5 471,-19.5 347,-19.5"/>
<text text-anchor="middle" x="409" y="-26.5" font-family="Helvetica,sans-Serif" font-size="10.00">v8::MaybeLocal::IsEmpty</text>
</a>
</g>
</g>
<!-- Node2 -->
<g id="node2" class="node">
<title>Node2</title>
<g id="a_node2"><a xlink:href="classv8_1_1MaybeLocal.html#ab0a3cc3dada965f5f6f602fb9b0893d2" target="_top" xlink:title=" ">
<polygon fill="white" stroke="black" points="171,-38.5 171,-57.5 311,-57.5 311,-38.5 171,-38.5"/>
<text text-anchor="middle" x="241" y="-45.5" font-family="Helvetica,sans-Serif" font-size="10.00">v8::MaybeLocal::FromMaybe</text>
</a>
</g>
</g>
<!-- Node1&#45;&gt;Node2 -->
<g id="edge1" class="edge">
<title>Node1&#45;&gt;Node2</title>
<path fill="none" stroke="midnightblue" d="M336.52,-37.18C328.12,-38.14 319.57,-39.12 311.2,-40.08"/>
<polygon fill="midnightblue" stroke="midnightblue" points="337.12,-40.64 346.66,-36.02 336.33,-33.68 337.12,-40.64"/>
</g>
<!-- Node4 -->
<g id="node4" class="node">
<title>Node4</title>
<g id="a_node4"><a xlink:href="classv8_1_1MaybeLocal.html#a07067e4e94ba92580d52ca6ff21739d6" target="_top" xlink:title=" ">
<polygon fill="white" stroke="black" points="179,-0.5 179,-19.5 303,-19.5 303,-0.5 179,-0.5"/>
<text text-anchor="middle" x="241" y="-7.5" font-family="Helvetica,sans-Serif" font-size="10.00">v8::MaybeLocal::ToLocal</text>
</a>
</g>
</g>
<!-- Node1&#45;&gt;Node4 -->
<g id="edge3" class="edge">
<title>Node1&#45;&gt;Node4</title>
<path fill="none" stroke="midnightblue" d="M336.53,-20.82C325.39,-19.54 313.97,-18.24 303.09,-16.99"/>
<polygon fill="midnightblue" stroke="midnightblue" points="336.33,-24.32 346.66,-21.98 337.12,-17.36 336.33,-24.32"/>
</g>
<!-- Node3 -->
<g id="node3" class="node">
<title>Node3</title>
<g id="a_node3"><a xlink:href="classv8_1_1EscapableHandleScope.html#a2efc27f1f1e328261a8e47ad7f9fc50d" target="_top" xlink:title=" ">
<polygon fill="white" stroke="black" points="0,-33 0,-63 135,-63 135,-33 0,-33"/>
<text text-anchor="start" x="8" y="-51" font-family="Helvetica,sans-Serif" font-size="10.00">v8::EscapableHandleScope</text>
<text text-anchor="middle" x="67.5" y="-40" font-family="Helvetica,sans-Serif" font-size="10.00">::EscapeMaybe</text>
</a>
</g>
</g>
<!-- Node2&#45;&gt;Node3 -->
<g id="edge2" class="edge">
<title>Node2&#45;&gt;Node3</title>
<path fill="none" stroke="midnightblue" d="M160.5,-48C152.05,-48 143.52,-48 135.24,-48"/>
<polygon fill="midnightblue" stroke="midnightblue" points="160.74,-51.5 170.74,-48 160.74,-44.5 160.74,-51.5"/>
</g>
</g>
</svg>
