<?xml version="1.0" encoding="UTF-8" standalone="no"?>
<!DOCTYPE svg PUBLIC "-//W3C//DTD SVG 1.1//EN"
 "http://www.w3.org/Graphics/SVG/1.1/DTD/svg11.dtd">
<!-- Generated by graphviz version 2.44.0 ()
 -->
<!-- Title: v8::PersistentValueMapBase::FromVal Pages: 1 -->
<svg width="406pt" height="290pt"
 viewBox="0.00 0.00 406.00 290.00" xmlns="http://www.w3.org/2000/svg" xmlns:xlink="http://www.w3.org/1999/xlink">
<g id="graph0" class="graph" transform="scale(1 1) rotate(0) translate(4 286)">
<title>v8::PersistentValueMapBase::FromVal</title>
<polygon fill="white" stroke="transparent" points="-4,4 -4,-286 402,-286 402,4 -4,4"/>
<!-- Node1 -->
<g id="node1" class="node">
<title>Node1</title>
<g id="a_node1"><a xlink:title=" ">
<polygon fill="#bfbfbf" stroke="black" points="256,-126 256,-156 398,-156 398,-126 256,-126"/>
<text text-anchor="start" x="264" y="-144" font-family="Helvetica,sans-Serif" font-size="10.00">v8::PersistentValueMapBase</text>
<text text-anchor="middle" x="327" y="-133" font-family="Helvetica,sans-Serif" font-size="10.00">::FromVal</text>
</a>
</g>
</g>
<!-- Node2 -->
<g id="node2" class="node">
<title>Node2</title>
<g id="a_node2"><a xlink:href="classv8_1_1PersistentValueMapBase.html#a16b8f906ea42036c2f37d44813bf2a72" target="_top" xlink:title=" ">
<polygon fill="white" stroke="black" points="34.5,-240.5 34.5,-281.5 185.5,-281.5 185.5,-240.5 34.5,-240.5"/>
<text text-anchor="start" x="42.5" y="-269.5" font-family="Helvetica,sans-Serif" font-size="10.00">v8::PersistentValueMapBase</text>
<text text-anchor="start" x="42.5" y="-258.5" font-family="Helvetica,sans-Serif" font-size="10.00">&lt; K, V, DefaultGlobalMapTraits</text>
<text text-anchor="middle" x="110" y="-247.5" font-family="Helvetica,sans-Serif" font-size="10.00">&lt; K, V &gt; &gt;::Get</text>
</a>
</g>
</g>
<!-- Node1&#45;&gt;Node2 -->
<g id="edge1" class="edge">
<title>Node1&#45;&gt;Node2</title>
<path fill="none" stroke="midnightblue" d="M305.38,-163.39C285.4,-183.81 253.31,-213.39 220,-231 209.33,-236.64 197.49,-241.3 185.67,-245.13"/>
<polygon fill="midnightblue" stroke="midnightblue" points="308.02,-165.69 312.42,-156.06 302.97,-160.85 308.02,-165.69"/>
</g>
<!-- Node3 -->
<g id="node3" class="node">
<title>Node3</title>
<g id="a_node3"><a xlink:href="classv8_1_1PersistentValueMapBase_1_1PersistentValueReference.html#ac59d20538e1986a423605b013f33e040" target="_top" xlink:title=" ">
<polygon fill="white" stroke="black" points="39,-180.5 39,-221.5 181,-221.5 181,-180.5 39,-180.5"/>
<text text-anchor="start" x="47" y="-209.5" font-family="Helvetica,sans-Serif" font-size="10.00">v8::PersistentValueMapBase</text>
<text text-anchor="start" x="47" y="-198.5" font-family="Helvetica,sans-Serif" font-size="10.00">::PersistentValueReference</text>
<text text-anchor="middle" x="110" y="-187.5" font-family="Helvetica,sans-Serif" font-size="10.00">::NewLocal</text>
</a>
</g>
</g>
<!-- Node1&#45;&gt;Node3 -->
<g id="edge2" class="edge">
<title>Node1&#45;&gt;Node3</title>
<path fill="none" stroke="midnightblue" d="M263.45,-158.78C249.18,-162.82 234.07,-167.07 220,-171 207.43,-174.51 194.03,-178.22 181.09,-181.79"/>
<polygon fill="midnightblue" stroke="midnightblue" points="264.51,-162.12 273.18,-156.03 262.61,-155.38 264.51,-162.12"/>
</g>
<!-- Node4 -->
<g id="node4" class="node">
<title>Node4</title>
<g id="a_node4"><a xlink:href="classv8_1_1PersistentValueMapBase.html#a7d1cd63172b997dfaac9d0f009edd709" target="_top" xlink:title=" ">
<polygon fill="white" stroke="black" points="0,-120.5 0,-161.5 220,-161.5 220,-120.5 0,-120.5"/>
<text text-anchor="start" x="8" y="-149.5" font-family="Helvetica,sans-Serif" font-size="10.00">v8::PersistentValueMapBase</text>
<text text-anchor="start" x="8" y="-138.5" font-family="Helvetica,sans-Serif" font-size="10.00">&lt; K, V, DefaultGlobalMapTraits</text>
<text text-anchor="middle" x="110" y="-127.5" font-family="Helvetica,sans-Serif" font-size="10.00">&lt; K, V &gt; &gt;::RegisterExternallyReferencedObject</text>
</a>
</g>
</g>
<!-- Node1&#45;&gt;Node4 -->
<g id="edge3" class="edge">
<title>Node1&#45;&gt;Node4</title>
<path fill="none" stroke="midnightblue" d="M245.76,-141C237.34,-141 228.68,-141 220.01,-141"/>
<polygon fill="midnightblue" stroke="midnightblue" points="245.9,-144.5 255.9,-141 245.9,-137.5 245.9,-144.5"/>
</g>
<!-- Node5 -->
<g id="node5" class="node">
<title>Node5</title>
<g id="a_node5"><a xlink:href="classv8_1_1PersistentValueMapBase.html#a9ffa7a4e0c59121c0471d71c04112966" target="_top" xlink:title=" ">
<polygon fill="white" stroke="black" points="34.5,-60.5 34.5,-101.5 185.5,-101.5 185.5,-60.5 34.5,-60.5"/>
<text text-anchor="start" x="42.5" y="-89.5" font-family="Helvetica,sans-Serif" font-size="10.00">v8::PersistentValueMapBase</text>
<text text-anchor="start" x="42.5" y="-78.5" font-family="Helvetica,sans-Serif" font-size="10.00">&lt; K, V, DefaultGlobalMapTraits</text>
<text text-anchor="middle" x="110" y="-67.5" font-family="Helvetica,sans-Serif" font-size="10.00">&lt; K, V &gt; &gt;::Release</text>
</a>
</g>
</g>
<!-- Node1&#45;&gt;Node5 -->
<g id="edge4" class="edge">
<title>Node1&#45;&gt;Node5</title>
<path fill="none" stroke="midnightblue" d="M263.45,-123.22C249.18,-119.18 234.07,-114.93 220,-111 208.94,-107.91 197.24,-104.67 185.78,-101.5"/>
<polygon fill="midnightblue" stroke="midnightblue" points="262.61,-126.62 273.18,-125.97 264.51,-119.88 262.61,-126.62"/>
</g>
<!-- Node6 -->
<g id="node6" class="node">
<title>Node6</title>
<g id="a_node6"><a xlink:href="classv8_1_1PersistentValueMapBase.html#a5c16ace49c257f760c92a010a93b4884" target="_top" xlink:title=" ">
<polygon fill="white" stroke="black" points="34.5,-0.5 34.5,-41.5 185.5,-41.5 185.5,-0.5 34.5,-0.5"/>
<text text-anchor="start" x="42.5" y="-29.5" font-family="Helvetica,sans-Serif" font-size="10.00">v8::PersistentValueMapBase</text>
<text text-anchor="start" x="42.5" y="-18.5" font-family="Helvetica,sans-Serif" font-size="10.00">&lt; K, V, DefaultGlobalMapTraits</text>
<text text-anchor="middle" x="110" y="-7.5" font-family="Helvetica,sans-Serif" font-size="10.00">&lt; K, V &gt; &gt;::RemoveWeak</text>
</a>
</g>
</g>
<!-- Node1&#45;&gt;Node6 -->
<g id="edge5" class="edge">
<title>Node1&#45;&gt;Node6</title>
<path fill="none" stroke="midnightblue" d="M305.38,-118.61C285.4,-98.19 253.31,-68.61 220,-51 209.33,-45.36 197.49,-40.7 185.67,-36.87"/>
<polygon fill="midnightblue" stroke="midnightblue" points="302.97,-121.15 312.42,-125.94 308.02,-116.31 302.97,-121.15"/>
</g>
</g>
</svg>
