<?xml version="1.0" encoding="UTF-8" standalone="no"?>
<!DOCTYPE svg PUBLIC "-//W3C//DTD SVG 1.1//EN"
 "http://www.w3.org/Graphics/SVG/1.1/DTD/svg11.dtd">
<!-- Generated by graphviz version 2.44.0 ()
 -->
<!-- Title: include/v8config.h Pages: 1 -->
<svg width="624pt" height="285pt"
 viewBox="0.00 0.00 623.50 285.00" xmlns="http://www.w3.org/2000/svg" xmlns:xlink="http://www.w3.org/1999/xlink">
<g id="graph0" class="graph" transform="scale(1 1) rotate(0) translate(4 281)">
<title>include/v8config.h</title>
<polygon fill="white" stroke="transparent" points="-4,4 -4,-281 619.5,-281 619.5,4 -4,4"/>
<!-- Node1 -->
<g id="node1" class="node">
<title>Node1</title>
<g id="a_node1"><a xlink:title=" ">
<polygon fill="#bfbfbf" stroke="black" points="176.5,-257.5 176.5,-276.5 270.5,-276.5 270.5,-257.5 176.5,-257.5"/>
<text text-anchor="middle" x="223.5" y="-264.5" font-family="Helvetica,sans-Serif" font-size="10.00">include/v8config.h</text>
</a>
</g>
</g>
<!-- Node2 -->
<g id="node2" class="node">
<title>Node2</title>
<g id="a_node2"><a xlink:href="v8-platform_8h.html" target="_top" xlink:title=" ">
<polygon fill="white" stroke="black" points="48,-201.5 48,-220.5 155,-220.5 155,-201.5 48,-201.5"/>
<text text-anchor="middle" x="101.5" y="-208.5" font-family="Helvetica,sans-Serif" font-size="10.00">include/v8&#45;platform.h</text>
</a>
</g>
</g>
<!-- Node1&#45;&gt;Node2 -->
<g id="edge1" class="edge">
<title>Node1&#45;&gt;Node2</title>
<path fill="none" stroke="midnightblue" d="M194.96,-253.37C172.11,-243.26 140.69,-229.35 120.74,-220.52"/>
<polygon fill="midnightblue" stroke="midnightblue" points="193.61,-256.6 204.17,-257.44 196.44,-250.2 193.61,-256.6"/>
</g>
<!-- Node4 -->
<g id="node4" class="node">
<title>Node4</title>
<g id="a_node4"><a xlink:href="libplatform_8h.html" target="_top" xlink:title=" ">
<polygon fill="white" stroke="black" points="51,-67.5 51,-97.5 146,-97.5 146,-67.5 51,-67.5"/>
<text text-anchor="start" x="59" y="-85.5" font-family="Helvetica,sans-Serif" font-size="10.00">include/libplatform</text>
<text text-anchor="middle" x="98.5" y="-74.5" font-family="Helvetica,sans-Serif" font-size="10.00">/libplatform.h</text>
</a>
</g>
</g>
<!-- Node1&#45;&gt;Node4 -->
<g id="edge5" class="edge">
<title>Node1&#45;&gt;Node4</title>
<path fill="none" stroke="midnightblue" d="M211.69,-248.75C187.11,-212.87 130.88,-130.77 108.22,-97.69"/>
<polygon fill="midnightblue" stroke="midnightblue" points="208.93,-250.93 217.47,-257.2 214.71,-246.97 208.93,-250.93"/>
</g>
<!-- Node5 -->
<g id="node5" class="node">
<title>Node5</title>
<g id="a_node5"><a xlink:href="v8-internal_8h.html" target="_top" xlink:title=" ">
<polygon fill="white" stroke="black" points="212,-201.5 212,-220.5 315,-220.5 315,-201.5 212,-201.5"/>
<text text-anchor="middle" x="263.5" y="-208.5" font-family="Helvetica,sans-Serif" font-size="10.00">include/v8&#45;internal.h</text>
</a>
</g>
</g>
<!-- Node1&#45;&gt;Node5 -->
<g id="edge6" class="edge">
<title>Node1&#45;&gt;Node5</title>
<path fill="none" stroke="midnightblue" d="M236.2,-248.86C243.13,-239.5 251.41,-228.33 257.02,-220.75"/>
<polygon fill="midnightblue" stroke="midnightblue" points="233.25,-246.96 230.11,-257.08 238.87,-251.13 233.25,-246.96"/>
</g>
<!-- Node6 -->
<g id="node6" class="node">
<title>Node6</title>
<g id="a_node6"><a xlink:href="v8_8h.html" target="_top" xlink:title=" ">
<polygon fill="white" stroke="black" points="309.5,-140 309.5,-159 377.5,-159 377.5,-140 309.5,-140"/>
<text text-anchor="middle" x="343.5" y="-147" font-family="Helvetica,sans-Serif" font-size="10.00">include/v8.h</text>
</a>
</g>
</g>
<!-- Node1&#45;&gt;Node6 -->
<g id="edge13" class="edge">
<title>Node1&#45;&gt;Node6</title>
<path fill="none" stroke="midnightblue" d="M271.93,-254.18C290.73,-247.34 310.95,-236.84 324.5,-221 339.82,-203.08 342.91,-173.98 343.45,-159.41"/>
<polygon fill="midnightblue" stroke="midnightblue" points="270.63,-250.92 262.27,-257.43 272.87,-257.56 270.63,-250.92"/>
</g>
<!-- Node3 -->
<g id="node3" class="node">
<title>Node3</title>
<g id="a_node3"><a xlink:href="v8-tracing_8h.html" target="_top" xlink:title=" ">
<polygon fill="white" stroke="black" points="0,-134.5 0,-164.5 95,-164.5 95,-134.5 0,-134.5"/>
<text text-anchor="start" x="8" y="-152.5" font-family="Helvetica,sans-Serif" font-size="10.00">include/libplatform</text>
<text text-anchor="middle" x="47.5" y="-141.5" font-family="Helvetica,sans-Serif" font-size="10.00">/v8&#45;tracing.h</text>
</a>
</g>
</g>
<!-- Node2&#45;&gt;Node3 -->
<g id="edge2" class="edge">
<title>Node2&#45;&gt;Node3</title>
<path fill="none" stroke="midnightblue" d="M86.81,-193.81C78.49,-184.65 68.2,-173.3 60.23,-164.52"/>
<polygon fill="midnightblue" stroke="midnightblue" points="84.45,-196.42 93.76,-201.48 89.63,-191.72 84.45,-196.42"/>
</g>
<!-- Node2&#45;&gt;Node4 -->
<g id="edge4" class="edge">
<title>Node2&#45;&gt;Node4</title>
<path fill="none" stroke="midnightblue" d="M102.52,-191.2C102.91,-183.14 103.31,-173.61 103.5,-165 103.81,-151.23 104.18,-147.76 103.5,-134 102.89,-121.68 101.45,-107.73 100.27,-97.62"/>
<polygon fill="midnightblue" stroke="midnightblue" points="99.02,-191.21 102,-201.38 106.01,-191.57 99.02,-191.21"/>
</g>
<!-- Node3&#45;&gt;Node4 -->
<g id="edge3" class="edge">
<title>Node3&#45;&gt;Node4</title>
<path fill="none" stroke="midnightblue" d="M64.8,-126.45C72.29,-116.9 80.84,-106 87.46,-97.58"/>
<polygon fill="midnightblue" stroke="midnightblue" points="61.99,-124.37 58.57,-134.4 67.49,-128.69 61.99,-124.37"/>
</g>
<!-- Node5&#45;&gt;Node6 -->
<g id="edge7" class="edge">
<title>Node5&#45;&gt;Node6</title>
<path fill="none" stroke="midnightblue" d="M283.27,-195.29C298.62,-183.88 319.36,-168.46 332.06,-159.01"/>
<polygon fill="midnightblue" stroke="midnightblue" points="280.9,-192.7 274.96,-201.48 285.07,-198.32 280.9,-192.7"/>
</g>
<!-- Node7 -->
<g id="node7" class="node">
<title>Node7</title>
<g id="a_node7"><a xlink:href="v8-inspector_8h.html" target="_top" xlink:title=" ">
<polygon fill="white" stroke="black" points="164,-73 164,-92 275,-92 275,-73 164,-73"/>
<text text-anchor="middle" x="219.5" y="-80" font-family="Helvetica,sans-Serif" font-size="10.00">include/v8&#45;inspector.h</text>
</a>
</g>
</g>
<!-- Node6&#45;&gt;Node7 -->
<g id="edge8" class="edge">
<title>Node6&#45;&gt;Node7</title>
<path fill="none" stroke="midnightblue" d="M317.94,-135.1C293.39,-122.23 257.01,-103.16 236.03,-92.17"/>
<polygon fill="midnightblue" stroke="midnightblue" points="316.55,-138.33 327.03,-139.87 319.8,-132.13 316.55,-138.33"/>
</g>
<!-- Node9 -->
<g id="node9" class="node">
<title>Node9</title>
<g id="a_node9"><a xlink:href="v8-profiler_8h.html" target="_top" xlink:title=" ">
<polygon fill="white" stroke="black" points="293.5,-73 293.5,-92 393.5,-92 393.5,-73 293.5,-73"/>
<text text-anchor="middle" x="343.5" y="-80" font-family="Helvetica,sans-Serif" font-size="10.00">include/v8&#45;profiler.h</text>
</a>
</g>
</g>
<!-- Node6&#45;&gt;Node9 -->
<g id="edge10" class="edge">
<title>Node6&#45;&gt;Node9</title>
<path fill="none" stroke="midnightblue" d="M343.5,-129.54C343.5,-117.17 343.5,-101.62 343.5,-92.13"/>
<polygon fill="midnightblue" stroke="midnightblue" points="340,-129.73 343.5,-139.73 347,-129.73 340,-129.73"/>
</g>
<!-- Node10 -->
<g id="node10" class="node">
<title>Node10</title>
<g id="a_node10"><a xlink:href="v8-testing_8h.html" target="_top" xlink:title=" ">
<polygon fill="white" stroke="black" points="412,-73 412,-92 513,-92 513,-73 412,-73"/>
<text text-anchor="middle" x="462.5" y="-80" font-family="Helvetica,sans-Serif" font-size="10.00">include/v8&#45;testing.h</text>
</a>
</g>
</g>
<!-- Node6&#45;&gt;Node10 -->
<g id="edge11" class="edge">
<title>Node6&#45;&gt;Node10</title>
<path fill="none" stroke="midnightblue" d="M368.61,-134.79C392.19,-121.9 426.76,-103.02 446.71,-92.13"/>
<polygon fill="midnightblue" stroke="midnightblue" points="366.65,-131.87 359.55,-139.73 370,-138.01 366.65,-131.87"/>
</g>
<!-- Node11 -->
<g id="node11" class="node">
<title>Node11</title>
<g id="a_node11"><a xlink:href="v8-util_8h.html" target="_top" xlink:title=" ">
<polygon fill="white" stroke="black" points="531.5,-73 531.5,-92 615.5,-92 615.5,-73 531.5,-73"/>
<text text-anchor="middle" x="573.5" y="-80" font-family="Helvetica,sans-Serif" font-size="10.00">include/v8&#45;util.h</text>
</a>
</g>
</g>
<!-- Node6&#45;&gt;Node11 -->
<g id="edge12" class="edge">
<title>Node6&#45;&gt;Node11</title>
<path fill="none" stroke="midnightblue" d="M383.63,-137.2C419.91,-126.98 474.79,-111.51 522.5,-98 529.32,-96.07 536.65,-93.99 543.57,-92.02"/>
<polygon fill="midnightblue" stroke="midnightblue" points="382.59,-133.86 373.91,-139.94 384.48,-140.6 382.59,-133.86"/>
</g>
<!-- Node8 -->
<g id="node8" class="node">
<title>Node8</title>
<g id="a_node8"><a xlink:href="v8-inspector-protocol_8h.html" target="_top" xlink:title=" ">
<polygon fill="white" stroke="black" points="167.5,-0.5 167.5,-30.5 271.5,-30.5 271.5,-0.5 167.5,-0.5"/>
<text text-anchor="start" x="175.5" y="-18.5" font-family="Helvetica,sans-Serif" font-size="10.00">include/v8&#45;inspector</text>
<text text-anchor="middle" x="219.5" y="-7.5" font-family="Helvetica,sans-Serif" font-size="10.00">&#45;protocol.h</text>
</a>
</g>
</g>
<!-- Node7&#45;&gt;Node8 -->
<g id="edge9" class="edge">
<title>Node7&#45;&gt;Node8</title>
<path fill="none" stroke="midnightblue" d="M219.5,-62.41C219.5,-52.22 219.5,-39.9 219.5,-30.59"/>
<polygon fill="midnightblue" stroke="midnightblue" points="216,-62.73 219.5,-72.73 223,-62.73 216,-62.73"/>
</g>
</g>
</svg>
