<?xml version="1.0" encoding="UTF-8" standalone="no"?>
<!DOCTYPE svg PUBLIC "-//W3C//DTD SVG 1.1//EN"
 "http://www.w3.org/Graphics/SVG/1.1/DTD/svg11.dtd">
<!-- Generated by graphviz version 2.44.0 ()
 -->
<!-- Title: v8::Data Pages: 1 -->
<svg width="791pt" height="826pt"
 viewBox="0.00 0.00 791.00 826.00" xmlns="http://www.w3.org/2000/svg" xmlns:xlink="http://www.w3.org/1999/xlink">
<g id="graph0" class="graph" transform="scale(1 1) rotate(0) translate(4 822)">
<title>v8::Data</title>
<polygon fill="white" stroke="transparent" points="-4,4 -4,-822 787,-822 787,4 -4,4"/>
<!-- Node1 -->
<g id="node1" class="node">
<title>Node1</title>
<g id="a_node1"><a xlink:title=" ">
<polygon fill="#bfbfbf" stroke="black" points="0,-532.5 0,-551.5 52,-551.5 52,-532.5 0,-532.5"/>
<text text-anchor="middle" x="26" y="-539.5" font-family="Helvetica,sans-Serif" font-size="10.00">v8::Data</text>
</a>
</g>
</g>
<!-- Node2 -->
<g id="node2" class="node">
<title>Node2</title>
<g id="a_node2"><a xlink:href="classv8_1_1AccessorSignature.html" target="_top" xlink:title=" ">
<polygon fill="white" stroke="black" points="88,-608.5 88,-627.5 202,-627.5 202,-608.5 88,-608.5"/>
<text text-anchor="middle" x="145" y="-615.5" font-family="Helvetica,sans-Serif" font-size="10.00">v8::AccessorSignature</text>
</a>
</g>
</g>
<!-- Node1&#45;&gt;Node2 -->
<g id="edge1" class="edge">
<title>Node1&#45;&gt;Node2</title>
<path fill="none" stroke="midnightblue" d="M41.83,-559.36C53.33,-571.88 70.25,-588.38 88,-599 94.25,-602.74 101.35,-605.87 108.33,-608.44"/>
<polygon fill="midnightblue" stroke="midnightblue" points="44.37,-556.95 35.11,-551.81 39.14,-561.61 44.37,-556.95"/>
</g>
<!-- Node3 -->
<g id="node3" class="node">
<title>Node3</title>
<g id="a_node3"><a xlink:href="classv8_1_1Private.html" target="_top" xlink:title=" ">
<polygon fill="white" stroke="black" points="114,-570.5 114,-589.5 176,-589.5 176,-570.5 114,-570.5"/>
<text text-anchor="middle" x="145" y="-577.5" font-family="Helvetica,sans-Serif" font-size="10.00">v8::Private</text>
</a>
</g>
</g>
<!-- Node1&#45;&gt;Node3 -->
<g id="edge2" class="edge">
<title>Node1&#45;&gt;Node3</title>
<path fill="none" stroke="midnightblue" d="M62.03,-553.38C78.72,-558.8 98.46,-565.21 114.39,-570.38"/>
<polygon fill="midnightblue" stroke="midnightblue" points="62.69,-549.91 52.1,-550.15 60.53,-556.57 62.69,-549.91"/>
</g>
<!-- Node4 -->
<g id="node4" class="node">
<title>Node4</title>
<g id="a_node4"><a xlink:href="classv8_1_1Signature.html" target="_top" xlink:title=" ">
<polygon fill="white" stroke="black" points="108.5,-532.5 108.5,-551.5 181.5,-551.5 181.5,-532.5 108.5,-532.5"/>
<text text-anchor="middle" x="145" y="-539.5" font-family="Helvetica,sans-Serif" font-size="10.00">v8::Signature</text>
</a>
</g>
</g>
<!-- Node1&#45;&gt;Node4 -->
<g id="edge3" class="edge">
<title>Node1&#45;&gt;Node4</title>
<path fill="none" stroke="midnightblue" d="M62.24,-542C76.8,-542 93.67,-542 108.29,-542"/>
<polygon fill="midnightblue" stroke="midnightblue" points="62.1,-538.5 52.1,-542 62.1,-545.5 62.1,-538.5"/>
</g>
<!-- Node5 -->
<g id="node5" class="node">
<title>Node5</title>
<g id="a_node5"><a xlink:href="classv8_1_1Template.html" target="_top" xlink:title=" ">
<polygon fill="white" stroke="black" points="109,-494.5 109,-513.5 181,-513.5 181,-494.5 109,-494.5"/>
<text text-anchor="middle" x="145" y="-501.5" font-family="Helvetica,sans-Serif" font-size="10.00">v8::Template</text>
</a>
</g>
</g>
<!-- Node1&#45;&gt;Node5 -->
<g id="edge4" class="edge">
<title>Node1&#45;&gt;Node5</title>
<path fill="none" stroke="midnightblue" d="M62.03,-530.62C78.72,-525.2 98.46,-518.79 114.39,-513.62"/>
<polygon fill="midnightblue" stroke="midnightblue" points="60.53,-527.43 52.1,-533.85 62.69,-534.09 60.53,-527.43"/>
</g>
<!-- Node8 -->
<g id="node8" class="node">
<title>Node8</title>
<g id="a_node8"><a xlink:href="classv8_1_1Value.html" target="_top" xlink:title=" ">
<polygon fill="white" stroke="black" points="117,-437.5 117,-456.5 173,-456.5 173,-437.5 117,-437.5"/>
<text text-anchor="middle" x="145" y="-444.5" font-family="Helvetica,sans-Serif" font-size="10.00">v8::Value</text>
</a>
</g>
</g>
<!-- Node1&#45;&gt;Node8 -->
<g id="edge7" class="edge">
<title>Node1&#45;&gt;Node8</title>
<path fill="none" stroke="midnightblue" d="M43.6,-525.16C55.52,-513.4 72.21,-497.61 88,-485 101.04,-474.59 116.84,-464.04 128.33,-456.7"/>
<polygon fill="midnightblue" stroke="midnightblue" points="41.12,-522.69 36.51,-532.23 46.06,-527.64 41.12,-522.69"/>
</g>
<!-- Node6 -->
<g id="node6" class="node">
<title>Node6</title>
<g id="a_node6"><a xlink:href="classv8_1_1FunctionTemplate.html" target="_top" xlink:title=" ">
<polygon fill="white" stroke="black" points="238,-532.5 238,-551.5 348,-551.5 348,-532.5 238,-532.5"/>
<text text-anchor="middle" x="293" y="-539.5" font-family="Helvetica,sans-Serif" font-size="10.00">v8::FunctionTemplate</text>
</a>
</g>
</g>
<!-- Node5&#45;&gt;Node6 -->
<g id="edge5" class="edge">
<title>Node5&#45;&gt;Node6</title>
<path fill="none" stroke="midnightblue" d="M191.17,-515.76C211.82,-521.13 235.97,-527.42 255.46,-532.49"/>
<polygon fill="midnightblue" stroke="midnightblue" points="191.9,-512.33 181.34,-513.2 190.14,-519.1 191.9,-512.33"/>
</g>
<!-- Node7 -->
<g id="node7" class="node">
<title>Node7</title>
<g id="a_node7"><a xlink:href="classv8_1_1ObjectTemplate.html" target="_top" xlink:title=" ">
<polygon fill="white" stroke="black" points="242.5,-494.5 242.5,-513.5 343.5,-513.5 343.5,-494.5 242.5,-494.5"/>
<text text-anchor="middle" x="293" y="-501.5" font-family="Helvetica,sans-Serif" font-size="10.00">v8::ObjectTemplate</text>
</a>
</g>
</g>
<!-- Node5&#45;&gt;Node7 -->
<g id="edge6" class="edge">
<title>Node5&#45;&gt;Node7</title>
<path fill="none" stroke="midnightblue" d="M191.6,-504C207.72,-504 225.92,-504 242.36,-504"/>
<polygon fill="midnightblue" stroke="midnightblue" points="191.34,-500.5 181.34,-504 191.34,-507.5 191.34,-500.5"/>
</g>
<!-- Node9 -->
<g id="node9" class="node">
<title>Node9</title>
<g id="a_node9"><a xlink:href="classv8_1_1External.html" target="_top" xlink:title=" ">
<polygon fill="white" stroke="black" points="260,-456.5 260,-475.5 326,-475.5 326,-456.5 260,-456.5"/>
<text text-anchor="middle" x="293" y="-463.5" font-family="Helvetica,sans-Serif" font-size="10.00">v8::External</text>
</a>
</g>
</g>
<!-- Node8&#45;&gt;Node9 -->
<g id="edge8" class="edge">
<title>Node8&#45;&gt;Node9</title>
<path fill="none" stroke="midnightblue" d="M183.16,-451.84C206.87,-454.92 237.29,-458.88 259.94,-461.83"/>
<polygon fill="midnightblue" stroke="midnightblue" points="183.49,-448.35 173.12,-450.53 182.58,-455.29 183.49,-448.35"/>
</g>
<!-- Node10 -->
<g id="node10" class="node">
<title>Node10</title>
<g id="a_node10"><a xlink:href="classv8_1_1Object.html" target="_top" xlink:title=" ">
<polygon fill="white" stroke="black" points="263,-418.5 263,-437.5 323,-437.5 323,-418.5 263,-418.5"/>
<text text-anchor="middle" x="293" y="-425.5" font-family="Helvetica,sans-Serif" font-size="10.00">v8::Object</text>
</a>
</g>
</g>
<!-- Node8&#45;&gt;Node10 -->
<g id="edge9" class="edge">
<title>Node8&#45;&gt;Node10</title>
<path fill="none" stroke="midnightblue" d="M183.22,-442.16C207.92,-438.94 239.89,-434.78 262.77,-431.8"/>
<polygon fill="midnightblue" stroke="midnightblue" points="182.58,-438.71 173.12,-443.47 183.49,-445.65 182.58,-438.71"/>
</g>
<!-- Node39 -->
<g id="node39" class="node">
<title>Node39</title>
<g id="a_node39"><a xlink:href="classv8_1_1Primitive.html" target="_top" xlink:title=" ">
<polygon fill="white" stroke="black" points="258,-76.5 258,-95.5 328,-95.5 328,-76.5 258,-76.5"/>
<text text-anchor="middle" x="293" y="-83.5" font-family="Helvetica,sans-Serif" font-size="10.00">v8::Primitive</text>
</a>
</g>
</g>
<!-- Node8&#45;&gt;Node39 -->
<g id="edge38" class="edge">
<title>Node8&#45;&gt;Node39</title>
<path fill="none" stroke="midnightblue" d="M153.8,-427.72C180.64,-361.35 268.65,-143.74 288.15,-95.52"/>
<polygon fill="midnightblue" stroke="midnightblue" points="150.41,-426.76 149.91,-437.34 156.9,-429.39 150.41,-426.76"/>
</g>
<!-- Node11 -->
<g id="node11" class="node">
<title>Node11</title>
<g id="a_node11"><a xlink:href="classv8_1_1Array.html" target="_top" xlink:title=" ">
<polygon fill="white" stroke="black" points="422.5,-741.5 422.5,-760.5 476.5,-760.5 476.5,-741.5 422.5,-741.5"/>
<text text-anchor="middle" x="449.5" y="-748.5" font-family="Helvetica,sans-Serif" font-size="10.00">v8::Array</text>
</a>
</g>
</g>
<!-- Node10&#45;&gt;Node11 -->
<g id="edge10" class="edge">
<title>Node10&#45;&gt;Node11</title>
<path fill="none" stroke="midnightblue" d="M332.56,-435.56C338.47,-438.28 343.94,-441.98 348,-447 428.19,-546.35 301.26,-634.76 384,-732 393.38,-743.02 408.81,-747.83 422.22,-749.85"/>
<polygon fill="midnightblue" stroke="midnightblue" points="333.64,-432.23 323.05,-432.03 331.21,-438.79 333.64,-432.23"/>
</g>
<!-- Node12 -->
<g id="node12" class="node">
<title>Node12</title>
<g id="a_node12"><a xlink:href="classv8_1_1ArrayBuffer.html" target="_top" xlink:title=" ">
<polygon fill="white" stroke="black" points="409.5,-703.5 409.5,-722.5 489.5,-722.5 489.5,-703.5 409.5,-703.5"/>
<text text-anchor="middle" x="449.5" y="-710.5" font-family="Helvetica,sans-Serif" font-size="10.00">v8::ArrayBuffer</text>
</a>
</g>
</g>
<!-- Node10&#45;&gt;Node12 -->
<g id="edge11" class="edge">
<title>Node10&#45;&gt;Node12</title>
<path fill="none" stroke="midnightblue" d="M332.66,-435.7C338.51,-438.41 343.94,-442.06 348,-447 418.5,-532.66 311.31,-610.2 384,-694 390.5,-701.5 399.8,-706.11 409.31,-708.93"/>
<polygon fill="midnightblue" stroke="midnightblue" points="333.84,-432.41 323.25,-432.18 331.39,-438.97 333.84,-432.41"/>
</g>
<!-- Node13 -->
<g id="node13" class="node">
<title>Node13</title>
<g id="a_node13"><a xlink:href="classv8_1_1ArrayBufferView.html" target="_top" xlink:title=" ">
<polygon fill="white" stroke="black" points="399,-665.5 399,-684.5 500,-684.5 500,-665.5 399,-665.5"/>
<text text-anchor="middle" x="449.5" y="-672.5" font-family="Helvetica,sans-Serif" font-size="10.00">v8::ArrayBufferView</text>
</a>
</g>
</g>
<!-- Node10&#45;&gt;Node13 -->
<g id="edge12" class="edge">
<title>Node10&#45;&gt;Node13</title>
<path fill="none" stroke="midnightblue" d="M332.55,-435.79C338.41,-438.49 343.87,-442.12 348,-447 408.83,-519 321.32,-585.6 384,-656 388.11,-660.62 393.29,-664.14 398.91,-666.82"/>
<polygon fill="midnightblue" stroke="midnightblue" points="333.73,-432.5 323.14,-432.28 331.28,-439.05 333.73,-432.5"/>
</g>
<!-- Node25 -->
<g id="node25" class="node">
<title>Node25</title>
<g id="a_node25"><a xlink:href="classv8_1_1BooleanObject.html" target="_top" xlink:title=" ">
<polygon fill="white" stroke="black" points="402,-627.5 402,-646.5 497,-646.5 497,-627.5 402,-627.5"/>
<text text-anchor="middle" x="449.5" y="-634.5" font-family="Helvetica,sans-Serif" font-size="10.00">v8::BooleanObject</text>
</a>
</g>
</g>
<!-- Node10&#45;&gt;Node25 -->
<g id="edge24" class="edge">
<title>Node10&#45;&gt;Node25</title>
<path fill="none" stroke="midnightblue" d="M332.99,-436.2C338.65,-438.85 343.93,-442.36 348,-447 399.21,-505.39 331.29,-560.96 384,-618 388.91,-623.32 395.23,-627.17 401.98,-629.96"/>
<polygon fill="midnightblue" stroke="midnightblue" points="333.85,-432.78 323.26,-432.5 331.36,-439.32 333.85,-432.78"/>
</g>
<!-- Node26 -->
<g id="node26" class="node">
<title>Node26</title>
<g id="a_node26"><a xlink:href="classv8_1_1Date.html" target="_top" xlink:title=" ">
<polygon fill="white" stroke="black" points="423.5,-589.5 423.5,-608.5 475.5,-608.5 475.5,-589.5 423.5,-589.5"/>
<text text-anchor="middle" x="449.5" y="-596.5" font-family="Helvetica,sans-Serif" font-size="10.00">v8::Date</text>
</a>
</g>
</g>
<!-- Node10&#45;&gt;Node26 -->
<g id="edge25" class="edge">
<title>Node10&#45;&gt;Node26</title>
<path fill="none" stroke="midnightblue" d="M332.77,-436.4C338.45,-439.03 343.8,-442.47 348,-447 389.67,-491.87 341.18,-536.22 384,-580 394.28,-590.52 410.07,-595.28 423.45,-597.41"/>
<polygon fill="midnightblue" stroke="midnightblue" points="333.62,-432.98 323.03,-432.71 331.14,-439.52 333.62,-432.98"/>
</g>
<!-- Node27 -->
<g id="node27" class="node">
<title>Node27</title>
<g id="a_node27"><a xlink:href="classv8_1_1Function.html" target="_top" xlink:title=" ">
<polygon fill="white" stroke="black" points="415,-551.5 415,-570.5 484,-570.5 484,-551.5 415,-551.5"/>
<text text-anchor="middle" x="449.5" y="-558.5" font-family="Helvetica,sans-Serif" font-size="10.00">v8::Function</text>
</a>
</g>
</g>
<!-- Node10&#45;&gt;Node27 -->
<g id="edge26" class="edge">
<title>Node10&#45;&gt;Node27</title>
<path fill="none" stroke="midnightblue" d="M332.75,-436.92C338.35,-439.48 343.67,-442.77 348,-447 380.31,-478.54 350.89,-511.3 384,-542 392.39,-549.78 403.81,-554.38 414.71,-557.11"/>
<polygon fill="midnightblue" stroke="midnightblue" points="333.78,-433.57 323.19,-433.27 331.28,-440.11 333.78,-433.57"/>
</g>
<!-- Node28 -->
<g id="node28" class="node">
<title>Node28</title>
<g id="a_node28"><a xlink:href="classv8_1_1Map.html" target="_top" xlink:title=" ">
<polygon fill="white" stroke="black" points="424.5,-513.5 424.5,-532.5 474.5,-532.5 474.5,-513.5 424.5,-513.5"/>
<text text-anchor="middle" x="449.5" y="-520.5" font-family="Helvetica,sans-Serif" font-size="10.00">v8::Map</text>
</a>
</g>
</g>
<!-- Node10&#45;&gt;Node28 -->
<g id="edge27" class="edge">
<title>Node10&#45;&gt;Node28</title>
<path fill="none" stroke="midnightblue" d="M332.41,-437.87C337.97,-440.31 343.37,-443.31 348,-447 371.43,-465.67 360.09,-485.94 384,-504 395.64,-512.8 411.29,-517.53 424.26,-520.08"/>
<polygon fill="midnightblue" stroke="midnightblue" points="333.6,-434.58 323.01,-434.29 331.11,-441.12 333.6,-434.58"/>
</g>
<!-- Node29 -->
<g id="node29" class="node">
<title>Node29</title>
<g id="a_node29"><a xlink:href="classv8_1_1NumberObject.html" target="_top" xlink:title=" ">
<polygon fill="white" stroke="black" points="402,-475.5 402,-494.5 497,-494.5 497,-475.5 402,-475.5"/>
<text text-anchor="middle" x="449.5" y="-482.5" font-family="Helvetica,sans-Serif" font-size="10.00">v8::NumberObject</text>
</a>
</g>
</g>
<!-- Node10&#45;&gt;Node29 -->
<g id="edge28" class="edge">
<title>Node10&#45;&gt;Node29</title>
<path fill="none" stroke="midnightblue" d="M332.91,-440.91C338.03,-442.84 343.17,-444.89 348,-447 364.58,-454.24 367.24,-459.19 384,-466 392.76,-469.56 402.43,-472.77 411.57,-475.49"/>
<polygon fill="midnightblue" stroke="midnightblue" points="333.76,-437.5 323.17,-437.38 331.38,-444.08 333.76,-437.5"/>
</g>
<!-- Node30 -->
<g id="node30" class="node">
<title>Node30</title>
<g id="a_node30"><a xlink:href="classv8_1_1Promise.html" target="_top" xlink:title=" ">
<polygon fill="white" stroke="black" points="415.5,-437.5 415.5,-456.5 483.5,-456.5 483.5,-437.5 415.5,-437.5"/>
<text text-anchor="middle" x="449.5" y="-444.5" font-family="Helvetica,sans-Serif" font-size="10.00">v8::Promise</text>
</a>
</g>
</g>
<!-- Node10&#45;&gt;Node30 -->
<g id="edge29" class="edge">
<title>Node10&#45;&gt;Node30</title>
<path fill="none" stroke="midnightblue" d="M333.09,-432.81C358.46,-435.93 391.17,-439.95 415.28,-442.91"/>
<polygon fill="midnightblue" stroke="midnightblue" points="333.41,-429.32 323.06,-431.57 332.56,-436.27 333.41,-429.32"/>
</g>
<!-- Node31 -->
<g id="node31" class="node">
<title>Node31</title>
<g id="a_node31"><a xlink:href="classv8_1_1Promise_1_1Resolver.html" target="_top" xlink:title=" ">
<polygon fill="white" stroke="black" points="394.5,-399.5 394.5,-418.5 504.5,-418.5 504.5,-399.5 394.5,-399.5"/>
<text text-anchor="middle" x="449.5" y="-406.5" font-family="Helvetica,sans-Serif" font-size="10.00">v8::Promise::Resolver</text>
</a>
</g>
</g>
<!-- Node10&#45;&gt;Node31 -->
<g id="edge30" class="edge">
<title>Node10&#45;&gt;Node31</title>
<path fill="none" stroke="midnightblue" d="M333.19,-423.18C351.71,-420.9 374.12,-418.15 394.24,-415.67"/>
<polygon fill="midnightblue" stroke="midnightblue" points="332.56,-419.73 323.06,-424.43 333.41,-426.68 332.56,-419.73"/>
</g>
<!-- Node32 -->
<g id="node32" class="node">
<title>Node32</title>
<g id="a_node32"><a xlink:href="classv8_1_1Proxy.html" target="_top" xlink:title=" ">
<polygon fill="white" stroke="black" points="421.5,-361.5 421.5,-380.5 477.5,-380.5 477.5,-361.5 421.5,-361.5"/>
<text text-anchor="middle" x="449.5" y="-368.5" font-family="Helvetica,sans-Serif" font-size="10.00">v8::Proxy</text>
</a>
</g>
</g>
<!-- Node10&#45;&gt;Node32 -->
<g id="edge31" class="edge">
<title>Node10&#45;&gt;Node32</title>
<path fill="none" stroke="midnightblue" d="M324.39,-414.16C341.68,-406.54 363.84,-397.2 384,-390 396.09,-385.68 409.7,-381.57 421.29,-378.28"/>
<polygon fill="midnightblue" stroke="midnightblue" points="322.54,-411.15 314.83,-418.41 325.39,-417.54 322.54,-411.15"/>
</g>
<!-- Node33 -->
<g id="node33" class="node">
<title>Node33</title>
<g id="a_node33"><a xlink:href="classv8_1_1RegExp.html" target="_top" xlink:title=" ">
<polygon fill="white" stroke="black" points="417,-323.5 417,-342.5 482,-342.5 482,-323.5 417,-323.5"/>
<text text-anchor="middle" x="449.5" y="-330.5" font-family="Helvetica,sans-Serif" font-size="10.00">v8::RegExp</text>
</a>
</g>
</g>
<!-- Node10&#45;&gt;Node33 -->
<g id="edge32" class="edge">
<title>Node10&#45;&gt;Node33</title>
<path fill="none" stroke="midnightblue" d="M310.1,-410.72C326.99,-393.55 355.06,-367.58 384,-352 394.18,-346.52 406.13,-342.44 416.96,-339.49"/>
<polygon fill="midnightblue" stroke="midnightblue" points="307.16,-408.73 302.75,-418.36 312.21,-413.58 307.16,-408.73"/>
</g>
<!-- Node34 -->
<g id="node34" class="node">
<title>Node34</title>
<g id="a_node34"><a xlink:href="classv8_1_1Set.html" target="_top" xlink:title=" ">
<polygon fill="white" stroke="black" points="426,-285.5 426,-304.5 473,-304.5 473,-285.5 426,-285.5"/>
<text text-anchor="middle" x="449.5" y="-292.5" font-family="Helvetica,sans-Serif" font-size="10.00">v8::Set</text>
</a>
</g>
</g>
<!-- Node10&#45;&gt;Node34 -->
<g id="edge33" class="edge">
<title>Node10&#45;&gt;Node34</title>
<path fill="none" stroke="midnightblue" d="M303.75,-409.46C318.01,-384.15 346.93,-339.06 384,-314 396.48,-305.57 412.76,-300.81 425.84,-298.16"/>
<polygon fill="midnightblue" stroke="midnightblue" points="300.59,-407.95 298.86,-418.41 306.73,-411.31 300.59,-407.95"/>
</g>
<!-- Node35 -->
<g id="node35" class="node">
<title>Node35</title>
<g id="a_node35"><a xlink:href="classv8_1_1SharedArrayBuffer.html" target="_top" xlink:title=" ">
<polygon fill="white" stroke="black" points="394.5,-247.5 394.5,-266.5 504.5,-266.5 504.5,-247.5 394.5,-247.5"/>
<text text-anchor="middle" x="449.5" y="-254.5" font-family="Helvetica,sans-Serif" font-size="10.00">v8::SharedArrayBuffer</text>
</a>
</g>
</g>
<!-- Node10&#45;&gt;Node35 -->
<g id="edge34" class="edge">
<title>Node10&#45;&gt;Node35</title>
<path fill="none" stroke="midnightblue" d="M300.09,-408.9C311.36,-376.63 338.55,-311.37 384,-276 388.97,-272.13 394.72,-269.04 400.69,-266.59"/>
<polygon fill="midnightblue" stroke="midnightblue" points="296.73,-407.9 296.87,-418.49 303.37,-410.12 296.73,-407.9"/>
</g>
<!-- Node36 -->
<g id="node36" class="node">
<title>Node36</title>
<g id="a_node36"><a xlink:href="classv8_1_1StringObject.html" target="_top" xlink:title=" ">
<polygon fill="white" stroke="black" points="406.5,-209.5 406.5,-228.5 492.5,-228.5 492.5,-209.5 406.5,-209.5"/>
<text text-anchor="middle" x="449.5" y="-216.5" font-family="Helvetica,sans-Serif" font-size="10.00">v8::StringObject</text>
</a>
</g>
</g>
<!-- Node10&#45;&gt;Node36 -->
<g id="edge35" class="edge">
<title>Node10&#45;&gt;Node36</title>
<path fill="none" stroke="midnightblue" d="M297.71,-408.52C306.06,-370.08 329.97,-284.2 384,-238 390.39,-232.54 398.28,-228.64 406.34,-225.87"/>
<polygon fill="midnightblue" stroke="midnightblue" points="294.26,-407.94 295.68,-418.43 301.11,-409.34 294.26,-407.94"/>
</g>
<!-- Node37 -->
<g id="node37" class="node">
<title>Node37</title>
<g id="a_node37"><a xlink:href="classv8_1_1SymbolObject.html" target="_top" xlink:title=" ">
<polygon fill="white" stroke="black" points="403.5,-171.5 403.5,-190.5 495.5,-190.5 495.5,-171.5 403.5,-171.5"/>
<text text-anchor="middle" x="449.5" y="-178.5" font-family="Helvetica,sans-Serif" font-size="10.00">v8::SymbolObject</text>
</a>
</g>
</g>
<!-- Node10&#45;&gt;Node37 -->
<g id="edge36" class="edge">
<title>Node10&#45;&gt;Node37</title>
<path fill="none" stroke="midnightblue" d="M296.05,-408.04C301.66,-363.88 321.3,-257.32 384,-200 389.51,-194.96 396.3,-191.25 403.38,-188.52"/>
<polygon fill="midnightblue" stroke="midnightblue" points="292.56,-407.74 294.88,-418.08 299.51,-408.55 292.56,-407.74"/>
</g>
<!-- Node38 -->
<g id="node38" class="node">
<title>Node38</title>
<g id="a_node38"><a xlink:href="classv8_1_1WasmCompiledModule.html" target="_top" xlink:title=" ">
<polygon fill="white" stroke="black" points="384,-133.5 384,-152.5 515,-152.5 515,-133.5 384,-133.5"/>
<text text-anchor="middle" x="449.5" y="-140.5" font-family="Helvetica,sans-Serif" font-size="10.00">v8::WasmCompiledModule</text>
</a>
</g>
</g>
<!-- Node10&#45;&gt;Node38 -->
<g id="edge37" class="edge">
<title>Node10&#45;&gt;Node38</title>
<path fill="none" stroke="midnightblue" d="M294.75,-408.16C297.7,-359.08 312.24,-230.96 384,-162 388.04,-158.12 392.83,-155.02 397.95,-152.56"/>
<polygon fill="midnightblue" stroke="midnightblue" points="291.24,-408.21 294.24,-418.37 298.23,-408.56 291.24,-408.21"/>
</g>
<!-- Node14 -->
<g id="node14" class="node">
<title>Node14</title>
<g id="a_node14"><a xlink:href="classv8_1_1DataView.html" target="_top" xlink:title=" ">
<polygon fill="white" stroke="black" points="554,-684.5 554,-703.5 628,-703.5 628,-684.5 554,-684.5"/>
<text text-anchor="middle" x="591" y="-691.5" font-family="Helvetica,sans-Serif" font-size="10.00">v8::DataView</text>
</a>
</g>
</g>
<!-- Node13&#45;&gt;Node14 -->
<g id="edge13" class="edge">
<title>Node13&#45;&gt;Node14</title>
<path fill="none" stroke="midnightblue" d="M510.2,-683.13C525.01,-685.15 540.44,-687.25 553.74,-689.06"/>
<polygon fill="midnightblue" stroke="midnightblue" points="510.46,-679.63 500.08,-681.75 509.51,-686.57 510.46,-679.63"/>
</g>
<!-- Node15 -->
<g id="node15" class="node">
<title>Node15</title>
<g id="a_node15"><a xlink:href="classv8_1_1TypedArray.html" target="_top" xlink:title=" ">
<polygon fill="white" stroke="black" points="551,-646.5 551,-665.5 631,-665.5 631,-646.5 551,-646.5"/>
<text text-anchor="middle" x="591" y="-653.5" font-family="Helvetica,sans-Serif" font-size="10.00">v8::TypedArray</text>
</a>
</g>
</g>
<!-- Node13&#45;&gt;Node15 -->
<g id="edge14" class="edge">
<title>Node13&#45;&gt;Node15</title>
<path fill="none" stroke="midnightblue" d="M510.36,-666.85C523.99,-664.99 538.14,-663.06 550.66,-661.36"/>
<polygon fill="midnightblue" stroke="midnightblue" points="509.51,-663.43 500.08,-668.25 510.46,-670.37 509.51,-663.43"/>
</g>
<!-- Node16 -->
<g id="node16" class="node">
<title>Node16</title>
<g id="a_node16"><a xlink:href="classv8_1_1Float32Array.html" target="_top" xlink:title=" ">
<polygon fill="white" stroke="black" points="682,-798.5 682,-817.5 768,-817.5 768,-798.5 682,-798.5"/>
<text text-anchor="middle" x="725" y="-805.5" font-family="Helvetica,sans-Serif" font-size="10.00">v8::Float32Array</text>
</a>
</g>
</g>
<!-- Node15&#45;&gt;Node16 -->
<g id="edge15" class="edge">
<title>Node15&#45;&gt;Node16</title>
<path fill="none" stroke="midnightblue" d="M627.71,-671.67C628.88,-672.71 629.99,-673.82 631,-675 665.7,-715.24 629.73,-751.13 667,-789 671.17,-793.24 676.31,-796.53 681.78,-799.09"/>
<polygon fill="midnightblue" stroke="midnightblue" points="629.38,-668.56 619.2,-665.64 625.34,-674.28 629.38,-668.56"/>
</g>
<!-- Node17 -->
<g id="node17" class="node">
<title>Node17</title>
<g id="a_node17"><a xlink:href="classv8_1_1Float64Array.html" target="_top" xlink:title=" ">
<polygon fill="white" stroke="black" points="682,-760.5 682,-779.5 768,-779.5 768,-760.5 682,-760.5"/>
<text text-anchor="middle" x="725" y="-767.5" font-family="Helvetica,sans-Serif" font-size="10.00">v8::Float64Array</text>
</a>
</g>
</g>
<!-- Node15&#45;&gt;Node17 -->
<g id="edge16" class="edge">
<title>Node15&#45;&gt;Node17</title>
<path fill="none" stroke="midnightblue" d="M626.49,-671.05C628.09,-672.28 629.61,-673.59 631,-675 657.28,-701.57 639.03,-726.21 667,-751 671.37,-754.87 676.56,-757.96 681.99,-760.42"/>
<polygon fill="midnightblue" stroke="midnightblue" points="628.28,-668.03 617.98,-665.58 624.5,-673.93 628.28,-668.03"/>
</g>
<!-- Node18 -->
<g id="node18" class="node">
<title>Node18</title>
<g id="a_node18"><a xlink:href="classv8_1_1Int16Array.html" target="_top" xlink:title=" ">
<polygon fill="white" stroke="black" points="687,-722.5 687,-741.5 763,-741.5 763,-722.5 687,-722.5"/>
<text text-anchor="middle" x="725" y="-729.5" font-family="Helvetica,sans-Serif" font-size="10.00">v8::Int16Array</text>
</a>
</g>
</g>
<!-- Node15&#45;&gt;Node18 -->
<g id="edge17" class="edge">
<title>Node15&#45;&gt;Node18</title>
<path fill="none" stroke="midnightblue" d="M624.01,-670.4C626.44,-671.85 628.8,-673.39 631,-675 649.76,-688.76 647.38,-700.5 667,-713 673.07,-716.87 680.01,-720.03 686.91,-722.59"/>
<polygon fill="midnightblue" stroke="midnightblue" points="625.52,-667.24 615.07,-665.54 622.18,-673.39 625.52,-667.24"/>
</g>
<!-- Node19 -->
<g id="node19" class="node">
<title>Node19</title>
<g id="a_node19"><a xlink:href="classv8_1_1Int32Array.html" target="_top" xlink:title=" ">
<polygon fill="white" stroke="black" points="687,-684.5 687,-703.5 763,-703.5 763,-684.5 687,-684.5"/>
<text text-anchor="middle" x="725" y="-691.5" font-family="Helvetica,sans-Serif" font-size="10.00">v8::Int32Array</text>
</a>
</g>
</g>
<!-- Node15&#45;&gt;Node19 -->
<g id="edge18" class="edge">
<title>Node15&#45;&gt;Node19</title>
<path fill="none" stroke="midnightblue" d="M635.04,-668.39C653.12,-673.59 673.82,-679.55 690.7,-684.41"/>
<polygon fill="midnightblue" stroke="midnightblue" points="635.89,-664.99 625.31,-665.59 633.95,-671.72 635.89,-664.99"/>
</g>
<!-- Node20 -->
<g id="node20" class="node">
<title>Node20</title>
<g id="a_node20"><a xlink:href="classv8_1_1Int8Array.html" target="_top" xlink:title=" ">
<polygon fill="white" stroke="black" points="689.5,-646.5 689.5,-665.5 760.5,-665.5 760.5,-646.5 689.5,-646.5"/>
<text text-anchor="middle" x="725" y="-653.5" font-family="Helvetica,sans-Serif" font-size="10.00">v8::Int8Array</text>
</a>
</g>
</g>
<!-- Node15&#45;&gt;Node20 -->
<g id="edge19" class="edge">
<title>Node15&#45;&gt;Node20</title>
<path fill="none" stroke="midnightblue" d="M641.44,-656C657.32,-656 674.56,-656 689.17,-656"/>
<polygon fill="midnightblue" stroke="midnightblue" points="641.25,-652.5 631.25,-656 641.25,-659.5 641.25,-652.5"/>
</g>
<!-- Node21 -->
<g id="node21" class="node">
<title>Node21</title>
<g id="a_node21"><a xlink:href="classv8_1_1Uint16Array.html" target="_top" xlink:title=" ">
<polygon fill="white" stroke="black" points="683.5,-608.5 683.5,-627.5 766.5,-627.5 766.5,-608.5 683.5,-608.5"/>
<text text-anchor="middle" x="725" y="-615.5" font-family="Helvetica,sans-Serif" font-size="10.00">v8::Uint16Array</text>
</a>
</g>
</g>
<!-- Node15&#45;&gt;Node21 -->
<g id="edge20" class="edge">
<title>Node15&#45;&gt;Node21</title>
<path fill="none" stroke="midnightblue" d="M635.04,-643.61C653.12,-638.41 673.82,-632.45 690.7,-627.59"/>
<polygon fill="midnightblue" stroke="midnightblue" points="633.95,-640.28 625.31,-646.41 635.89,-647.01 633.95,-640.28"/>
</g>
<!-- Node22 -->
<g id="node22" class="node">
<title>Node22</title>
<g id="a_node22"><a xlink:href="classv8_1_1Uint32Array.html" target="_top" xlink:title=" ">
<polygon fill="white" stroke="black" points="683.5,-570.5 683.5,-589.5 766.5,-589.5 766.5,-570.5 683.5,-570.5"/>
<text text-anchor="middle" x="725" y="-577.5" font-family="Helvetica,sans-Serif" font-size="10.00">v8::Uint32Array</text>
</a>
</g>
</g>
<!-- Node15&#45;&gt;Node22 -->
<g id="edge21" class="edge">
<title>Node15&#45;&gt;Node22</title>
<path fill="none" stroke="midnightblue" d="M610.11,-639.51C624.62,-626.99 645.96,-610.11 667,-599 673.92,-595.35 681.68,-592.2 689.19,-589.58"/>
<polygon fill="midnightblue" stroke="midnightblue" points="607.6,-637.05 602.41,-646.29 612.23,-642.31 607.6,-637.05"/>
</g>
<!-- Node23 -->
<g id="node23" class="node">
<title>Node23</title>
<g id="a_node23"><a xlink:href="classv8_1_1Uint8Array.html" target="_top" xlink:title=" ">
<polygon fill="white" stroke="black" points="686.5,-532.5 686.5,-551.5 763.5,-551.5 763.5,-532.5 686.5,-532.5"/>
<text text-anchor="middle" x="725" y="-539.5" font-family="Helvetica,sans-Serif" font-size="10.00">v8::Uint8Array</text>
</a>
</g>
</g>
<!-- Node15&#45;&gt;Node23 -->
<g id="edge22" class="edge">
<title>Node15&#45;&gt;Node23</title>
<path fill="none" stroke="midnightblue" d="M602.01,-637.65C614.53,-616.31 637.92,-581.42 667,-561 672.81,-556.92 679.55,-553.67 686.32,-551.1"/>
<polygon fill="midnightblue" stroke="midnightblue" points="598.93,-635.98 597.03,-646.4 605.02,-639.43 598.93,-635.98"/>
</g>
<!-- Node24 -->
<g id="node24" class="node">
<title>Node24</title>
<g id="a_node24"><a xlink:href="classv8_1_1Uint8ClampedArray.html" target="_top" xlink:title=" ">
<polygon fill="white" stroke="black" points="667,-494.5 667,-513.5 783,-513.5 783,-494.5 667,-494.5"/>
<text text-anchor="middle" x="725" y="-501.5" font-family="Helvetica,sans-Serif" font-size="10.00">v8::Uint8ClampedArray</text>
</a>
</g>
</g>
<!-- Node15&#45;&gt;Node24 -->
<g id="edge23" class="edge">
<title>Node15&#45;&gt;Node24</title>
<path fill="none" stroke="midnightblue" d="M597.88,-636.67C607.63,-607.83 629.82,-553.66 667,-523 671.67,-519.15 677.15,-516.07 682.83,-513.61"/>
<polygon fill="midnightblue" stroke="midnightblue" points="594.49,-635.79 594.75,-646.38 601.15,-637.94 594.49,-635.79"/>
</g>
<!-- Node40 -->
<g id="node40" class="node">
<title>Node40</title>
<g id="a_node40"><a xlink:href="classv8_1_1Boolean.html" target="_top" xlink:title=" ">
<polygon fill="white" stroke="black" points="416,-95.5 416,-114.5 483,-114.5 483,-95.5 416,-95.5"/>
<text text-anchor="middle" x="449.5" y="-102.5" font-family="Helvetica,sans-Serif" font-size="10.00">v8::Boolean</text>
</a>
</g>
</g>
<!-- Node39&#45;&gt;Node40 -->
<g id="edge39" class="edge">
<title>Node39&#45;&gt;Node40</title>
<path fill="none" stroke="midnightblue" d="M338.5,-91.47C363.21,-94.51 393.4,-98.22 415.89,-100.99"/>
<polygon fill="midnightblue" stroke="midnightblue" points="338.64,-87.96 328.29,-90.22 337.79,-94.91 338.64,-87.96"/>
</g>
<!-- Node41 -->
<g id="node41" class="node">
<title>Node41</title>
<g id="a_node41"><a xlink:href="classv8_1_1Name.html" target="_top" xlink:title=" ">
<polygon fill="white" stroke="black" points="420.5,-57.5 420.5,-76.5 478.5,-76.5 478.5,-57.5 420.5,-57.5"/>
<text text-anchor="middle" x="449.5" y="-64.5" font-family="Helvetica,sans-Serif" font-size="10.00">v8::Name</text>
</a>
</g>
</g>
<!-- Node39&#45;&gt;Node41 -->
<g id="edge40" class="edge">
<title>Node39&#45;&gt;Node41</title>
<path fill="none" stroke="midnightblue" d="M338.45,-80.53C364.89,-77.28 397.63,-73.26 420.5,-70.44"/>
<polygon fill="midnightblue" stroke="midnightblue" points="337.79,-77.09 328.29,-81.78 338.64,-84.04 337.79,-77.09"/>
</g>
<!-- Node44 -->
<g id="node44" class="node">
<title>Node44</title>
<g id="a_node44"><a xlink:href="classv8_1_1Number.html" target="_top" xlink:title=" ">
<polygon fill="white" stroke="black" points="416.5,-19.5 416.5,-38.5 482.5,-38.5 482.5,-19.5 416.5,-19.5"/>
<text text-anchor="middle" x="449.5" y="-26.5" font-family="Helvetica,sans-Serif" font-size="10.00">v8::Number</text>
</a>
</g>
</g>
<!-- Node39&#45;&gt;Node44 -->
<g id="edge43" class="edge">
<title>Node39&#45;&gt;Node44</title>
<path fill="none" stroke="midnightblue" d="M324.39,-72.16C341.68,-64.54 363.84,-55.2 384,-48 394.44,-44.27 406.02,-40.69 416.45,-37.67"/>
<polygon fill="midnightblue" stroke="midnightblue" points="322.54,-69.15 314.83,-76.41 325.39,-75.54 322.54,-69.15"/>
</g>
<!-- Node42 -->
<g id="node42" class="node">
<title>Node42</title>
<g id="a_node42"><a xlink:href="classv8_1_1String.html" target="_top" xlink:title=" ">
<polygon fill="white" stroke="black" points="562.5,-95.5 562.5,-114.5 619.5,-114.5 619.5,-95.5 562.5,-95.5"/>
<text text-anchor="middle" x="591" y="-102.5" font-family="Helvetica,sans-Serif" font-size="10.00">v8::String</text>
</a>
</g>
</g>
<!-- Node41&#45;&gt;Node42 -->
<g id="edge41" class="edge">
<title>Node41&#45;&gt;Node42</title>
<path fill="none" stroke="midnightblue" d="M488.63,-77.39C511.93,-83.73 541.2,-91.71 562.29,-97.45"/>
<polygon fill="midnightblue" stroke="midnightblue" points="489.3,-73.94 478.73,-74.69 487.46,-80.7 489.3,-73.94"/>
</g>
<!-- Node43 -->
<g id="node43" class="node">
<title>Node43</title>
<g id="a_node43"><a xlink:href="classv8_1_1Symbol.html" target="_top" xlink:title=" ">
<polygon fill="white" stroke="black" points="559,-57.5 559,-76.5 623,-76.5 623,-57.5 559,-57.5"/>
<text text-anchor="middle" x="591" y="-64.5" font-family="Helvetica,sans-Serif" font-size="10.00">v8::Symbol</text>
</a>
</g>
</g>
<!-- Node41&#45;&gt;Node43 -->
<g id="edge42" class="edge">
<title>Node41&#45;&gt;Node43</title>
<path fill="none" stroke="midnightblue" d="M488.76,-67C510.81,-67 538.18,-67 558.9,-67"/>
<polygon fill="midnightblue" stroke="midnightblue" points="488.73,-63.5 478.73,-67 488.73,-70.5 488.73,-63.5"/>
</g>
<!-- Node45 -->
<g id="node45" class="node">
<title>Node45</title>
<g id="a_node45"><a xlink:href="classv8_1_1Integer.html" target="_top" xlink:title=" ">
<polygon fill="white" stroke="black" points="560,-19.5 560,-38.5 622,-38.5 622,-19.5 560,-19.5"/>
<text text-anchor="middle" x="591" y="-26.5" font-family="Helvetica,sans-Serif" font-size="10.00">v8::Integer</text>
</a>
</g>
</g>
<!-- Node44&#45;&gt;Node45 -->
<g id="edge44" class="edge">
<title>Node44&#45;&gt;Node45</title>
<path fill="none" stroke="midnightblue" d="M492.7,-29C514.26,-29 539.99,-29 559.58,-29"/>
<polygon fill="midnightblue" stroke="midnightblue" points="492.5,-25.5 482.5,-29 492.5,-32.5 492.5,-25.5"/>
</g>
<!-- Node46 -->
<g id="node46" class="node">
<title>Node46</title>
<g id="a_node46"><a xlink:href="classv8_1_1Int32.html" target="_top" xlink:title=" ">
<polygon fill="white" stroke="black" points="698.5,-38.5 698.5,-57.5 751.5,-57.5 751.5,-38.5 698.5,-38.5"/>
<text text-anchor="middle" x="725" y="-45.5" font-family="Helvetica,sans-Serif" font-size="10.00">v8::Int32</text>
</a>
</g>
</g>
<!-- Node45&#45;&gt;Node46 -->
<g id="edge45" class="edge">
<title>Node45&#45;&gt;Node46</title>
<path fill="none" stroke="midnightblue" d="M632.42,-34.82C653.87,-37.91 679.59,-41.61 698.3,-44.3"/>
<polygon fill="midnightblue" stroke="midnightblue" points="632.68,-31.32 622.28,-33.36 631.68,-38.25 632.68,-31.32"/>
</g>
<!-- Node47 -->
<g id="node47" class="node">
<title>Node47</title>
<g id="a_node47"><a xlink:href="classv8_1_1Uint32.html" target="_top" xlink:title=" ">
<polygon fill="white" stroke="black" points="695,-0.5 695,-19.5 755,-19.5 755,-0.5 695,-0.5"/>
<text text-anchor="middle" x="725" y="-7.5" font-family="Helvetica,sans-Serif" font-size="10.00">v8::Uint32</text>
</a>
</g>
</g>
<!-- Node45&#45;&gt;Node47 -->
<g id="edge46" class="edge">
<title>Node45&#45;&gt;Node47</title>
<path fill="none" stroke="midnightblue" d="M632.42,-23.18C652.55,-20.28 676.43,-16.85 694.77,-14.21"/>
<polygon fill="midnightblue" stroke="midnightblue" points="631.68,-19.75 622.28,-24.64 632.68,-26.68 631.68,-19.75"/>
</g>
</g>
</svg>
