<?xml version="1.0" encoding="UTF-8" standalone="no"?>
<!DOCTYPE svg PUBLIC "-//W3C//DTD SVG 1.1//EN"
 "http://www.w3.org/Graphics/SVG/1.1/DTD/svg11.dtd">
<!-- Generated by graphviz version 2.44.0 ()
 -->
<!-- Title: v8::Isolate::GetCurrent Pages: 1 -->
<svg width="321pt" height="621pt"
 viewBox="0.00 0.00 321.00 621.00" xmlns="http://www.w3.org/2000/svg" xmlns:xlink="http://www.w3.org/1999/xlink">
<g id="graph0" class="graph" transform="scale(1 1) rotate(0) translate(4 617)">
<title>v8::Isolate::GetCurrent</title>
<polygon fill="white" stroke="transparent" points="-4,4 -4,-617 317,-617 317,4 -4,4"/>
<!-- Node1 -->
<g id="node1" class="node">
<title>Node1</title>
<g id="a_node1"><a xlink:title=" ">
<polygon fill="#bfbfbf" stroke="black" points="200,-285.5 200,-304.5 313,-304.5 313,-285.5 200,-285.5"/>
<text text-anchor="middle" x="256.5" y="-292.5" font-family="Helvetica,sans-Serif" font-size="10.00">v8::Isolate::GetCurrent</text>
</a>
</g>
</g>
<!-- Node2 -->
<g id="node2" class="node">
<title>Node2</title>
<g id="a_node2"><a xlink:href="classv8_1_1V8.html#a8021e7accd9d5f739ecc0eff876f9f0f" target="_top" xlink:title=" ">
<polygon fill="white" stroke="black" points="12,-593.5 12,-612.5 152,-612.5 152,-593.5 12,-593.5"/>
<text text-anchor="middle" x="82" y="-600.5" font-family="Helvetica,sans-Serif" font-size="10.00">v8::V8::AddMessageListener</text>
</a>
</g>
</g>
<!-- Node1&#45;&gt;Node2 -->
<g id="edge1" class="edge">
<title>Node1&#45;&gt;Node2</title>
<path fill="none" stroke="midnightblue" d="M255.5,-315.04C254.35,-367.54 243.68,-510.18 164,-584 159.87,-587.83 155.11,-590.93 150.03,-593.44"/>
<polygon fill="midnightblue" stroke="midnightblue" points="259,-314.78 255.62,-304.74 252,-314.69 259,-314.78"/>
</g>
<!-- Node3 -->
<g id="node3" class="node">
<title>Node3</title>
<g id="a_node3"><a xlink:href="classv8_1_1V8.html#ae5af79b24fc62e987e08c43ee148424d" target="_top" xlink:title=" ">
<polygon fill="white" stroke="black" points="42.5,-555.5 42.5,-574.5 121.5,-574.5 121.5,-555.5 42.5,-555.5"/>
<text text-anchor="middle" x="82" y="-562.5" font-family="Helvetica,sans-Serif" font-size="10.00">v8::V8::IsDead</text>
</a>
</g>
</g>
<!-- Node1&#45;&gt;Node3 -->
<g id="edge2" class="edge">
<title>Node1&#45;&gt;Node3</title>
<path fill="none" stroke="midnightblue" d="M254.4,-314.94C250.66,-362.56 234.35,-483.57 164,-546 152.44,-556.26 136.39,-561.26 121.63,-563.61"/>
<polygon fill="midnightblue" stroke="midnightblue" points="257.91,-314.95 255.09,-304.73 250.93,-314.47 257.91,-314.95"/>
</g>
<!-- Node4 -->
<g id="node4" class="node">
<title>Node4</title>
<g id="a_node4"><a xlink:href="classv8_1_1V8.html#ac9336f620bc684ff6e3c68ee6f549d18" target="_top" xlink:title=" ">
<polygon fill="white" stroke="black" points="7.5,-517.5 7.5,-536.5 156.5,-536.5 156.5,-517.5 7.5,-517.5"/>
<text text-anchor="middle" x="82" y="-524.5" font-family="Helvetica,sans-Serif" font-size="10.00">v8::V8::IsExecutionTerminating</text>
</a>
</g>
</g>
<!-- Node1&#45;&gt;Node4 -->
<g id="edge3" class="edge">
<title>Node1&#45;&gt;Node4</title>
<path fill="none" stroke="midnightblue" d="M252.93,-315.05C246.38,-357.52 225.02,-456.84 164,-508 159.46,-511.8 154.3,-514.88 148.83,-517.36"/>
<polygon fill="midnightblue" stroke="midnightblue" points="256.43,-315.28 254.38,-304.88 249.5,-314.29 256.43,-315.28"/>
</g>
<!-- Node5 -->
<g id="node5" class="node">
<title>Node5</title>
<g id="a_node5"><a xlink:href="classv8_1_1V8.html#a103099e00d03c714261e00d75f0d745a" target="_top" xlink:title=" ">
<polygon fill="white" stroke="black" points="0,-479.5 0,-498.5 164,-498.5 164,-479.5 0,-479.5"/>
<text text-anchor="middle" x="82" y="-486.5" font-family="Helvetica,sans-Serif" font-size="10.00">v8::V8::RemoveMessageListeners</text>
</a>
</g>
</g>
<!-- Node1&#45;&gt;Node5 -->
<g id="edge4" class="edge">
<title>Node1&#45;&gt;Node5</title>
<path fill="none" stroke="midnightblue" d="M250.97,-314.71C241.51,-351.29 216.05,-429.63 164,-470 159.09,-473.81 153.55,-476.87 147.72,-479.33"/>
<polygon fill="midnightblue" stroke="midnightblue" points="254.43,-315.33 253.41,-304.78 247.63,-313.66 254.43,-315.33"/>
</g>
<!-- Node6 -->
<g id="node6" class="node">
<title>Node6</title>
<g id="a_node6"><a xlink:href="classv8_1_1V8.html#a6ed3c6cd32b8d225013445b145381d34" target="_top" xlink:title=" ">
<polygon fill="white" stroke="black" points="8.5,-430 8.5,-460 155.5,-460 155.5,-430 8.5,-430"/>
<text text-anchor="start" x="16.5" y="-448" font-family="Helvetica,sans-Serif" font-size="10.00">v8::V8::SetCaptureStackTrace</text>
<text text-anchor="middle" x="82" y="-437" font-family="Helvetica,sans-Serif" font-size="10.00">ForUncaughtExceptions</text>
</a>
</g>
</g>
<!-- Node1&#45;&gt;Node6 -->
<g id="edge5" class="edge">
<title>Node1&#45;&gt;Node6</title>
<path fill="none" stroke="midnightblue" d="M246.8,-313.88C233.12,-341.52 203.93,-392.77 164,-421 159.09,-424.47 153.67,-427.45 148.04,-430"/>
<polygon fill="midnightblue" stroke="midnightblue" points="250.12,-315.07 251.28,-304.54 243.8,-312.05 250.12,-315.07"/>
</g>
<!-- Node7 -->
<g id="node7" class="node">
<title>Node7</title>
<g id="a_node7"><a xlink:href="classv8_1_1V8.html#affcb65e1fdf849fadc6302655b981bbc" target="_top" xlink:title=" ">
<polygon fill="white" stroke="black" points="7,-381 7,-411 157,-411 157,-381 7,-381"/>
<text text-anchor="start" x="15" y="-399" font-family="Helvetica,sans-Serif" font-size="10.00">v8::V8::SetFailedAccessCheck</text>
<text text-anchor="middle" x="82" y="-388" font-family="Helvetica,sans-Serif" font-size="10.00">CallbackFunction</text>
</a>
</g>
</g>
<!-- Node1&#45;&gt;Node7 -->
<g id="edge6" class="edge">
<title>Node1&#45;&gt;Node7</title>
<path fill="none" stroke="midnightblue" d="M239.5,-311.72C222.3,-328.82 193.45,-355.06 164,-371 157.01,-374.78 149.37,-378.08 141.65,-380.94"/>
<polygon fill="midnightblue" stroke="midnightblue" points="242.01,-314.16 246.54,-304.58 237.03,-309.24 242.01,-314.16"/>
</g>
<!-- Node8 -->
<g id="node8" class="node">
<title>Node8</title>
<g id="a_node8"><a xlink:href="classv8_1_1V8.html#a290bf883bb4bf8f312089a23a628c067" target="_top" xlink:title=" ">
<polygon fill="white" stroke="black" points="12.5,-342.5 12.5,-361.5 151.5,-361.5 151.5,-342.5 12.5,-342.5"/>
<text text-anchor="middle" x="82" y="-349.5" font-family="Helvetica,sans-Serif" font-size="10.00">v8::V8::SetFatalErrorHandler</text>
</a>
</g>
</g>
<!-- Node1&#45;&gt;Node8 -->
<g id="edge7" class="edge">
<title>Node1&#45;&gt;Node8</title>
<path fill="none" stroke="midnightblue" d="M225.92,-308.73C208.22,-316.58 185.13,-326.18 164,-333 153,-336.55 140.97,-339.73 129.62,-342.44"/>
<polygon fill="midnightblue" stroke="midnightblue" points="227.46,-311.87 235.15,-304.58 224.59,-305.49 227.46,-311.87"/>
</g>
<!-- Node9 -->
<g id="node9" class="node">
<title>Node9</title>
<g id="a_node9"><a xlink:href="classv8_1_1Value.html#a155927c52d88aa0145a55484b3035171" target="_top" xlink:title=" ">
<polygon fill="white" stroke="black" points="28.5,-304.5 28.5,-323.5 135.5,-323.5 135.5,-304.5 28.5,-304.5"/>
<text text-anchor="middle" x="82" y="-311.5" font-family="Helvetica,sans-Serif" font-size="10.00">v8::Value::ToBoolean</text>
</a>
</g>
</g>
<!-- Node1&#45;&gt;Node9 -->
<g id="edge8" class="edge">
<title>Node1&#45;&gt;Node9</title>
<path fill="none" stroke="midnightblue" d="M189.65,-302.25C171.83,-304.22 152.78,-306.31 135.78,-308.19"/>
<polygon fill="midnightblue" stroke="midnightblue" points="190.41,-305.69 199.97,-301.12 189.65,-298.73 190.41,-305.69"/>
</g>
<!-- Node10 -->
<g id="node10" class="node">
<title>Node10</title>
<g id="a_node10"><a xlink:href="classv8_1_1Value.html#a252d8ff83acb9af12fca51f08cf855fc" target="_top" xlink:title=" ">
<polygon fill="white" stroke="black" points="21,-266.5 21,-285.5 143,-285.5 143,-266.5 21,-266.5"/>
<text text-anchor="middle" x="82" y="-273.5" font-family="Helvetica,sans-Serif" font-size="10.00">v8::Value::ToDetailString</text>
</a>
</g>
</g>
<!-- Node1&#45;&gt;Node10 -->
<g id="edge9" class="edge">
<title>Node1&#45;&gt;Node10</title>
<path fill="none" stroke="midnightblue" d="M190.02,-287.79C174.64,-286.09 158.33,-284.3 143.2,-282.63"/>
<polygon fill="midnightblue" stroke="midnightblue" points="189.65,-291.27 199.97,-288.88 190.41,-284.31 189.65,-291.27"/>
</g>
<!-- Node11 -->
<g id="node11" class="node">
<title>Node11</title>
<g id="a_node11"><a xlink:href="classv8_1_1Value.html#a9f0fbbd6cfd95af7b7d8e0ccc9cf75f2" target="_top" xlink:title=" ">
<polygon fill="white" stroke="black" points="35,-228.5 35,-247.5 129,-247.5 129,-228.5 35,-228.5"/>
<text text-anchor="middle" x="82" y="-235.5" font-family="Helvetica,sans-Serif" font-size="10.00">v8::Value::ToInt32</text>
</a>
</g>
</g>
<!-- Node1&#45;&gt;Node11 -->
<g id="edge10" class="edge">
<title>Node1&#45;&gt;Node11</title>
<path fill="none" stroke="midnightblue" d="M225.92,-281.27C208.22,-273.42 185.13,-263.82 164,-257 152.87,-253.41 140.67,-250.19 129.19,-247.46"/>
<polygon fill="midnightblue" stroke="midnightblue" points="224.59,-284.51 235.15,-285.42 227.46,-278.13 224.59,-284.51"/>
</g>
<!-- Node12 -->
<g id="node12" class="node">
<title>Node12</title>
<g id="a_node12"><a xlink:href="classv8_1_1Value.html#a5d79bcfef2172049c6d0ecfe3a382323" target="_top" xlink:title=" ">
<polygon fill="white" stroke="black" points="31,-190.5 31,-209.5 133,-209.5 133,-190.5 31,-190.5"/>
<text text-anchor="middle" x="82" y="-197.5" font-family="Helvetica,sans-Serif" font-size="10.00">v8::Value::ToInteger</text>
</a>
</g>
</g>
<!-- Node1&#45;&gt;Node12 -->
<g id="edge11" class="edge">
<title>Node1&#45;&gt;Node12</title>
<path fill="none" stroke="midnightblue" d="M239.99,-278.14C223,-260.72 194.14,-234 164,-219 154.43,-214.24 143.63,-210.64 133.1,-207.93"/>
<polygon fill="midnightblue" stroke="midnightblue" points="237.49,-280.6 246.92,-285.42 242.56,-275.77 237.49,-280.6"/>
</g>
<!-- Node13 -->
<g id="node13" class="node">
<title>Node13</title>
<g id="a_node13"><a xlink:href="classv8_1_1Value.html#af11bb17e54339256ade5979779ccd218" target="_top" xlink:title=" ">
<polygon fill="white" stroke="black" points="28.5,-152.5 28.5,-171.5 135.5,-171.5 135.5,-152.5 28.5,-152.5"/>
<text text-anchor="middle" x="82" y="-159.5" font-family="Helvetica,sans-Serif" font-size="10.00">v8::Value::ToNumber</text>
</a>
</g>
</g>
<!-- Node1&#45;&gt;Node13 -->
<g id="edge12" class="edge">
<title>Node1&#45;&gt;Node13</title>
<path fill="none" stroke="midnightblue" d="M245.7,-276.17C231.34,-250.51 202.1,-205.01 164,-181 155.45,-175.61 145.51,-171.74 135.6,-168.98"/>
<polygon fill="midnightblue" stroke="midnightblue" points="242.78,-278.12 250.62,-285.24 248.93,-274.78 242.78,-278.12"/>
</g>
<!-- Node14 -->
<g id="node14" class="node">
<title>Node14</title>
<g id="a_node14"><a xlink:href="classv8_1_1Value.html#ac4c1254c7bd010dc8c307a3e9a771dc6" target="_top" xlink:title=" ">
<polygon fill="white" stroke="black" points="31.5,-114.5 31.5,-133.5 132.5,-133.5 132.5,-114.5 31.5,-114.5"/>
<text text-anchor="middle" x="82" y="-121.5" font-family="Helvetica,sans-Serif" font-size="10.00">v8::Value::ToObject</text>
</a>
</g>
</g>
<!-- Node1&#45;&gt;Node14 -->
<g id="edge13" class="edge">
<title>Node1&#45;&gt;Node14</title>
<path fill="none" stroke="midnightblue" d="M249.43,-275.62C238.14,-242.93 210.75,-177.06 164,-143 154.89,-136.37 143.82,-132.01 132.82,-129.16"/>
<polygon fill="midnightblue" stroke="midnightblue" points="246.18,-276.95 252.64,-285.34 252.83,-274.75 246.18,-276.95"/>
</g>
<!-- Node15 -->
<g id="node15" class="node">
<title>Node15</title>
<g id="a_node15"><a xlink:href="classv8_1_1Value.html#a1a61145878edc60ae25d5dc57bc44d6d" target="_top" xlink:title=" ">
<polygon fill="white" stroke="black" points="33,-76.5 33,-95.5 131,-95.5 131,-76.5 33,-76.5"/>
<text text-anchor="middle" x="82" y="-83.5" font-family="Helvetica,sans-Serif" font-size="10.00">v8::Value::ToString</text>
</a>
</g>
</g>
<!-- Node1&#45;&gt;Node15 -->
<g id="edge14" class="edge">
<title>Node1&#45;&gt;Node15</title>
<path fill="none" stroke="midnightblue" d="M251.85,-275.25C243.57,-236.33 219.62,-149.63 164,-105 154.65,-97.5 142.85,-92.86 131.17,-90.02"/>
<polygon fill="midnightblue" stroke="midnightblue" points="248.46,-276.18 253.85,-285.3 255.33,-274.8 248.46,-276.18"/>
</g>
<!-- Node16 -->
<g id="node16" class="node">
<title>Node16</title>
<g id="a_node16"><a xlink:href="classv8_1_1Value.html#a6607c42219918519b1a1ad31fcffafbb" target="_top" xlink:title=" ">
<polygon fill="white" stroke="black" points="31.5,-38.5 31.5,-57.5 132.5,-57.5 132.5,-38.5 31.5,-38.5"/>
<text text-anchor="middle" x="82" y="-45.5" font-family="Helvetica,sans-Serif" font-size="10.00">v8::Value::ToUint32</text>
</a>
</g>
</g>
<!-- Node1&#45;&gt;Node16 -->
<g id="edge15" class="edge">
<title>Node1&#45;&gt;Node16</title>
<path fill="none" stroke="midnightblue" d="M253.61,-275.38C248.26,-231.07 228.88,-122.74 164,-67 155.24,-59.47 144.04,-54.79 132.79,-51.92"/>
<polygon fill="midnightblue" stroke="midnightblue" points="250.14,-275.87 254.71,-285.43 257.1,-275.1 250.14,-275.87"/>
</g>
<!-- Node17 -->
<g id="node17" class="node">
<title>Node17</title>
<g id="a_node17"><a xlink:href="classv8_1_1V8.html#a7eb03e6ab4e2eca21632e55a4ad30061" target="_top" xlink:title=" ">
<polygon fill="white" stroke="black" points="7.5,-0.5 7.5,-19.5 156.5,-19.5 156.5,-0.5 7.5,-0.5"/>
<text text-anchor="middle" x="82" y="-7.5" font-family="Helvetica,sans-Serif" font-size="10.00">v8::V8::VisitExternalResources</text>
</a>
</g>
</g>
<!-- Node1&#45;&gt;Node17 -->
<g id="edge16" class="edge">
<title>Node1&#45;&gt;Node17</title>
<path fill="none" stroke="midnightblue" d="M254.88,-275.21C252.21,-225.77 238.11,-95.99 164,-29 159.82,-25.22 155.04,-22.16 149.92,-19.67"/>
<polygon fill="midnightblue" stroke="midnightblue" points="251.38,-275.4 255.32,-285.24 258.38,-275.1 251.38,-275.4"/>
</g>
</g>
</svg>
