<?xml version="1.0" encoding="UTF-8" standalone="no"?>
<!DOCTYPE svg PUBLIC "-//W3C//DTD SVG 1.1//EN"
 "http://www.w3.org/Graphics/SVG/1.1/DTD/svg11.dtd">
<!-- Generated by graphviz version 2.44.0 ()
 -->
<!-- Title: v8::TypedArray Pages: 1 -->
<svg width="653pt" height="332pt"
 viewBox="0.00 0.00 653.00 332.00" xmlns="http://www.w3.org/2000/svg" xmlns:xlink="http://www.w3.org/1999/xlink">
<g id="graph0" class="graph" transform="scale(1 1) rotate(0) translate(4 328)">
<title>v8::TypedArray</title>
<polygon fill="white" stroke="transparent" points="-4,4 -4,-328 649,-328 649,4 -4,4"/>
<!-- Node1 -->
<g id="node1" class="node">
<title>Node1</title>
<g id="a_node1"><a xlink:title=" ">
<polygon fill="#bfbfbf" stroke="black" points="413,-152.5 413,-171.5 493,-171.5 493,-152.5 413,-152.5"/>
<text text-anchor="middle" x="453" y="-159.5" font-family="Helvetica,sans-Serif" font-size="10.00">v8::TypedArray</text>
</a>
</g>
</g>
<!-- Node6 -->
<g id="node6" class="node">
<title>Node6</title>
<g id="a_node6"><a xlink:href="classv8_1_1Float32Array.html" target="_top" xlink:title=" ">
<polygon fill="white" stroke="black" points="544,-304.5 544,-323.5 630,-323.5 630,-304.5 544,-304.5"/>
<text text-anchor="middle" x="587" y="-311.5" font-family="Helvetica,sans-Serif" font-size="10.00">v8::Float32Array</text>
</a>
</g>
</g>
<!-- Node1&#45;&gt;Node6 -->
<g id="edge5" class="edge">
<title>Node1&#45;&gt;Node6</title>
<path fill="none" stroke="midnightblue" d="M459.88,-181.33C469.63,-210.17 491.82,-264.34 529,-295 533.67,-298.85 539.15,-301.93 544.83,-304.39"/>
<polygon fill="midnightblue" stroke="midnightblue" points="463.15,-180.06 456.75,-171.62 456.49,-182.21 463.15,-180.06"/>
</g>
<!-- Node7 -->
<g id="node7" class="node">
<title>Node7</title>
<g id="a_node7"><a xlink:href="classv8_1_1Float64Array.html" target="_top" xlink:title=" ">
<polygon fill="white" stroke="black" points="544,-266.5 544,-285.5 630,-285.5 630,-266.5 544,-266.5"/>
<text text-anchor="middle" x="587" y="-273.5" font-family="Helvetica,sans-Serif" font-size="10.00">v8::Float64Array</text>
</a>
</g>
</g>
<!-- Node1&#45;&gt;Node7 -->
<g id="edge6" class="edge">
<title>Node1&#45;&gt;Node7</title>
<path fill="none" stroke="midnightblue" d="M464.01,-180.35C476.53,-201.69 499.92,-236.58 529,-257 534.46,-260.84 540.76,-263.94 547.13,-266.44"/>
<polygon fill="midnightblue" stroke="midnightblue" points="467.02,-178.57 459.03,-171.6 460.93,-182.02 467.02,-178.57"/>
</g>
<!-- Node8 -->
<g id="node8" class="node">
<title>Node8</title>
<g id="a_node8"><a xlink:href="classv8_1_1Int16Array.html" target="_top" xlink:title=" ">
<polygon fill="white" stroke="black" points="549,-228.5 549,-247.5 625,-247.5 625,-228.5 549,-228.5"/>
<text text-anchor="middle" x="587" y="-235.5" font-family="Helvetica,sans-Serif" font-size="10.00">v8::Int16Array</text>
</a>
</g>
</g>
<!-- Node1&#45;&gt;Node8 -->
<g id="edge7" class="edge">
<title>Node1&#45;&gt;Node8</title>
<path fill="none" stroke="midnightblue" d="M472.11,-178.49C486.62,-191.01 507.96,-207.89 529,-219 535.92,-222.65 543.68,-225.8 551.19,-228.42"/>
<polygon fill="midnightblue" stroke="midnightblue" points="474.23,-175.69 464.41,-171.71 469.6,-180.95 474.23,-175.69"/>
</g>
<!-- Node9 -->
<g id="node9" class="node">
<title>Node9</title>
<g id="a_node9"><a xlink:href="classv8_1_1Int32Array.html" target="_top" xlink:title=" ">
<polygon fill="white" stroke="black" points="549,-190.5 549,-209.5 625,-209.5 625,-190.5 549,-190.5"/>
<text text-anchor="middle" x="587" y="-197.5" font-family="Helvetica,sans-Serif" font-size="10.00">v8::Int32Array</text>
</a>
</g>
</g>
<!-- Node1&#45;&gt;Node9 -->
<g id="edge8" class="edge">
<title>Node1&#45;&gt;Node9</title>
<path fill="none" stroke="midnightblue" d="M497.04,-174.39C515.12,-179.59 535.82,-185.55 552.7,-190.41"/>
<polygon fill="midnightblue" stroke="midnightblue" points="497.89,-170.99 487.31,-171.59 495.95,-177.72 497.89,-170.99"/>
</g>
<!-- Node10 -->
<g id="node10" class="node">
<title>Node10</title>
<g id="a_node10"><a xlink:href="classv8_1_1Int8Array.html" target="_top" xlink:title=" ">
<polygon fill="white" stroke="black" points="551.5,-152.5 551.5,-171.5 622.5,-171.5 622.5,-152.5 551.5,-152.5"/>
<text text-anchor="middle" x="587" y="-159.5" font-family="Helvetica,sans-Serif" font-size="10.00">v8::Int8Array</text>
</a>
</g>
</g>
<!-- Node1&#45;&gt;Node10 -->
<g id="edge9" class="edge">
<title>Node1&#45;&gt;Node10</title>
<path fill="none" stroke="midnightblue" d="M503.44,-162C519.32,-162 536.56,-162 551.17,-162"/>
<polygon fill="midnightblue" stroke="midnightblue" points="503.25,-158.5 493.25,-162 503.25,-165.5 503.25,-158.5"/>
</g>
<!-- Node11 -->
<g id="node11" class="node">
<title>Node11</title>
<g id="a_node11"><a xlink:href="classv8_1_1Uint16Array.html" target="_top" xlink:title=" ">
<polygon fill="white" stroke="black" points="545.5,-114.5 545.5,-133.5 628.5,-133.5 628.5,-114.5 545.5,-114.5"/>
<text text-anchor="middle" x="587" y="-121.5" font-family="Helvetica,sans-Serif" font-size="10.00">v8::Uint16Array</text>
</a>
</g>
</g>
<!-- Node1&#45;&gt;Node11 -->
<g id="edge10" class="edge">
<title>Node1&#45;&gt;Node11</title>
<path fill="none" stroke="midnightblue" d="M497.04,-149.61C515.12,-144.41 535.82,-138.45 552.7,-133.59"/>
<polygon fill="midnightblue" stroke="midnightblue" points="495.95,-146.28 487.31,-152.41 497.89,-153.01 495.95,-146.28"/>
</g>
<!-- Node12 -->
<g id="node12" class="node">
<title>Node12</title>
<g id="a_node12"><a xlink:href="classv8_1_1Uint32Array.html" target="_top" xlink:title=" ">
<polygon fill="white" stroke="black" points="545.5,-76.5 545.5,-95.5 628.5,-95.5 628.5,-76.5 545.5,-76.5"/>
<text text-anchor="middle" x="587" y="-83.5" font-family="Helvetica,sans-Serif" font-size="10.00">v8::Uint32Array</text>
</a>
</g>
</g>
<!-- Node1&#45;&gt;Node12 -->
<g id="edge11" class="edge">
<title>Node1&#45;&gt;Node12</title>
<path fill="none" stroke="midnightblue" d="M472.11,-145.51C486.62,-132.99 507.96,-116.11 529,-105 535.92,-101.35 543.68,-98.2 551.19,-95.58"/>
<polygon fill="midnightblue" stroke="midnightblue" points="469.6,-143.05 464.41,-152.29 474.23,-148.31 469.6,-143.05"/>
</g>
<!-- Node13 -->
<g id="node13" class="node">
<title>Node13</title>
<g id="a_node13"><a xlink:href="classv8_1_1Uint8Array.html" target="_top" xlink:title=" ">
<polygon fill="white" stroke="black" points="548.5,-38.5 548.5,-57.5 625.5,-57.5 625.5,-38.5 548.5,-38.5"/>
<text text-anchor="middle" x="587" y="-45.5" font-family="Helvetica,sans-Serif" font-size="10.00">v8::Uint8Array</text>
</a>
</g>
</g>
<!-- Node1&#45;&gt;Node13 -->
<g id="edge12" class="edge">
<title>Node1&#45;&gt;Node13</title>
<path fill="none" stroke="midnightblue" d="M464.01,-143.65C476.53,-122.31 499.92,-87.42 529,-67 534.81,-62.92 541.55,-59.67 548.32,-57.1"/>
<polygon fill="midnightblue" stroke="midnightblue" points="460.93,-141.98 459.03,-152.4 467.02,-145.43 460.93,-141.98"/>
</g>
<!-- Node14 -->
<g id="node14" class="node">
<title>Node14</title>
<g id="a_node14"><a xlink:href="classv8_1_1Uint8ClampedArray.html" target="_top" xlink:title=" ">
<polygon fill="white" stroke="black" points="529,-0.5 529,-19.5 645,-19.5 645,-0.5 529,-0.5"/>
<text text-anchor="middle" x="587" y="-7.5" font-family="Helvetica,sans-Serif" font-size="10.00">v8::Uint8ClampedArray</text>
</a>
</g>
</g>
<!-- Node1&#45;&gt;Node14 -->
<g id="edge13" class="edge">
<title>Node1&#45;&gt;Node14</title>
<path fill="none" stroke="midnightblue" d="M459.88,-142.67C469.63,-113.83 491.82,-59.66 529,-29 533.67,-25.15 539.15,-22.07 544.83,-19.61"/>
<polygon fill="midnightblue" stroke="midnightblue" points="456.49,-141.79 456.75,-152.38 463.15,-143.94 456.49,-141.79"/>
</g>
<!-- Node2 -->
<g id="node2" class="node">
<title>Node2</title>
<g id="a_node2"><a xlink:href="classv8_1_1ArrayBufferView.html" target="_top" xlink:title=" ">
<polygon fill="white" stroke="black" points="276,-152.5 276,-171.5 377,-171.5 377,-152.5 276,-152.5"/>
<text text-anchor="middle" x="326.5" y="-159.5" font-family="Helvetica,sans-Serif" font-size="10.00">v8::ArrayBufferView</text>
</a>
</g>
</g>
<!-- Node2&#45;&gt;Node1 -->
<g id="edge1" class="edge">
<title>Node2&#45;&gt;Node1</title>
<path fill="none" stroke="midnightblue" d="M387.25,-162C395.98,-162 404.78,-162 412.96,-162"/>
<polygon fill="midnightblue" stroke="midnightblue" points="387.06,-158.5 377.06,-162 387.06,-165.5 387.06,-158.5"/>
</g>
<!-- Node3 -->
<g id="node3" class="node">
<title>Node3</title>
<g id="a_node3"><a xlink:href="classv8_1_1Object.html" target="_top" xlink:title=" ">
<polygon fill="white" stroke="black" points="180,-152.5 180,-171.5 240,-171.5 240,-152.5 180,-152.5"/>
<text text-anchor="middle" x="210" y="-159.5" font-family="Helvetica,sans-Serif" font-size="10.00">v8::Object</text>
</a>
</g>
</g>
<!-- Node3&#45;&gt;Node2 -->
<g id="edge2" class="edge">
<title>Node3&#45;&gt;Node2</title>
<path fill="none" stroke="midnightblue" d="M250.28,-162C258.53,-162 267.33,-162 275.9,-162"/>
<polygon fill="midnightblue" stroke="midnightblue" points="250.19,-158.5 240.19,-162 250.19,-165.5 250.19,-158.5"/>
</g>
<!-- Node4 -->
<g id="node4" class="node">
<title>Node4</title>
<g id="a_node4"><a xlink:href="classv8_1_1Value.html" target="_top" xlink:title=" ">
<polygon fill="white" stroke="black" points="88,-152.5 88,-171.5 144,-171.5 144,-152.5 88,-152.5"/>
<text text-anchor="middle" x="116" y="-159.5" font-family="Helvetica,sans-Serif" font-size="10.00">v8::Value</text>
</a>
</g>
</g>
<!-- Node4&#45;&gt;Node3 -->
<g id="edge3" class="edge">
<title>Node4&#45;&gt;Node3</title>
<path fill="none" stroke="midnightblue" d="M154.22,-162C162.76,-162 171.71,-162 179.84,-162"/>
<polygon fill="midnightblue" stroke="midnightblue" points="154.11,-158.5 144.11,-162 154.11,-165.5 154.11,-158.5"/>
</g>
<!-- Node5 -->
<g id="node5" class="node">
<title>Node5</title>
<g id="a_node5"><a xlink:href="classv8_1_1Data.html" target="_top" xlink:title=" ">
<polygon fill="white" stroke="black" points="0,-152.5 0,-171.5 52,-171.5 52,-152.5 0,-152.5"/>
<text text-anchor="middle" x="26" y="-159.5" font-family="Helvetica,sans-Serif" font-size="10.00">v8::Data</text>
</a>
</g>
</g>
<!-- Node5&#45;&gt;Node4 -->
<g id="edge4" class="edge">
<title>Node5&#45;&gt;Node4</title>
<path fill="none" stroke="midnightblue" d="M62.72,-162C71.08,-162 79.84,-162 87.76,-162"/>
<polygon fill="midnightblue" stroke="midnightblue" points="62.45,-158.5 52.45,-162 62.45,-165.5 62.45,-158.5"/>
</g>
</g>
</svg>
