<?xml version="1.0" encoding="UTF-8" standalone="no"?>
<!DOCTYPE svg PUBLIC "-//W3C//DTD SVG 1.1//EN"
 "http://www.w3.org/Graphics/SVG/1.1/DTD/svg11.dtd">
<!-- Generated by graphviz version 2.44.0 ()
 -->
<!-- Title: v8::NamedPropertyHandlerConfiguration Pages: 1 -->
<svg width="387pt" height="239pt"
 viewBox="0.00 0.00 387.00 239.00" xmlns="http://www.w3.org/2000/svg" xmlns:xlink="http://www.w3.org/1999/xlink">
<g id="graph0" class="graph" transform="scale(1 1) rotate(0) translate(4 235)">
<title>v8::NamedPropertyHandlerConfiguration</title>
<polygon fill="white" stroke="transparent" points="-4,4 -4,-235 383,-235 383,4 -4,4"/>
<!-- Node1 -->
<g id="node1" class="node">
<title>Node1</title>
<g id="a_node1"><a xlink:title=" ">
<polygon fill="#bfbfbf" stroke="black" points="133.5,-0.5 133.5,-30.5 266.5,-30.5 266.5,-0.5 133.5,-0.5"/>
<text text-anchor="start" x="141.5" y="-18.5" font-family="Helvetica,sans-Serif" font-size="10.00">v8::NamedPropertyHandler</text>
<text text-anchor="middle" x="200" y="-7.5" font-family="Helvetica,sans-Serif" font-size="10.00">Configuration</text>
</a>
</g>
</g>
<!-- Node2 -->
<g id="node2" class="node">
<title>Node2</title>
<g id="a_node2"><a xlink:href="classv8_1_1PropertyCallbackInfo.html" target="_top" xlink:title=" ">
<polygon fill="white" stroke="black" points="11,-133.5 11,-163.5 133,-163.5 133,-133.5 11,-133.5"/>
<text text-anchor="start" x="19" y="-151.5" font-family="Helvetica,sans-Serif" font-size="10.00">v8::PropertyCallbackInfo</text>
<text text-anchor="middle" x="72" y="-140.5" font-family="Helvetica,sans-Serif" font-size="10.00">&lt; Array &gt;</text>
</a>
</g>
</g>
<!-- Node2&#45;&gt;Node1 -->
<g id="edge1" class="edge">
<title>Node2&#45;&gt;Node1</title>
<path fill="none" stroke="#9a32cd" stroke-dasharray="5,2" d="M84.93,-124.6C97.86,-103.17 119.31,-71.22 144,-49 151.85,-41.93 161.49,-35.67 170.54,-30.58"/>
<polygon fill="#9a32cd" stroke="#9a32cd" points="81.84,-122.96 79.78,-133.35 87.87,-126.51 81.84,-122.96"/>
<text text-anchor="middle" x="170" y="-79.5" font-family="Helvetica,sans-Serif" font-size="10.00"> enumerator</text>
</g>
<!-- Node3 -->
<g id="node3" class="node">
<title>Node3</title>
<g id="a_node3"><a xlink:href="classv8_1_1PropertyCallbackInfo.html" target="_top" xlink:title=" ">
<polygon fill="white" stroke="black" points="0,-211.5 0,-230.5 144,-230.5 144,-211.5 0,-211.5"/>
<text text-anchor="middle" x="72" y="-218.5" font-family="Helvetica,sans-Serif" font-size="10.00">v8::PropertyCallbackInfo&lt; T &gt;</text>
</a>
</g>
</g>
<!-- Node3&#45;&gt;Node2 -->
<g id="edge2" class="edge">
<title>Node3&#45;&gt;Node2</title>
<path fill="none" stroke="orange" stroke-dasharray="5,2" d="M72,-201.24C72,-189.41 72,-174.38 72,-163.58"/>
<polygon fill="orange" stroke="orange" points="68.5,-201.36 72,-211.36 75.5,-201.36 68.5,-201.36"/>
<text text-anchor="middle" x="93" y="-185" font-family="Helvetica,sans-Serif" font-size="10.00"> &lt; Array &gt;</text>
</g>
<!-- Node4 -->
<g id="node4" class="node">
<title>Node4</title>
<g id="a_node4"><a xlink:href="classv8_1_1Local.html" target="_top" xlink:title=" ">
<polygon fill="white" stroke="black" points="151,-139 151,-158 249,-158 249,-139 151,-139"/>
<text text-anchor="middle" x="200" y="-146" font-family="Helvetica,sans-Serif" font-size="10.00">v8::Local&lt; Name &gt;</text>
</a>
</g>
</g>
<!-- Node4&#45;&gt;Node1 -->
<g id="edge3" class="edge">
<title>Node4&#45;&gt;Node1</title>
<path fill="none" stroke="#9a32cd" stroke-dasharray="5,2" d="M200,-128.67C200,-102.16 200,-54.4 200,-30.67"/>
<polygon fill="#9a32cd" stroke="#9a32cd" points="196.5,-128.9 200,-138.9 203.5,-128.9 196.5,-128.9"/>
<text text-anchor="middle" x="221.5" y="-107" font-family="Helvetica,sans-Serif" font-size="10.00"> query</text>
<text text-anchor="middle" x="221.5" y="-96" font-family="Helvetica,sans-Serif" font-size="10.00">descriptor</text>
<text text-anchor="middle" x="221.5" y="-85" font-family="Helvetica,sans-Serif" font-size="10.00">deleter</text>
<text text-anchor="middle" x="221.5" y="-74" font-family="Helvetica,sans-Serif" font-size="10.00">definer</text>
<text text-anchor="middle" x="221.5" y="-63" font-family="Helvetica,sans-Serif" font-size="10.00">getter</text>
<text text-anchor="middle" x="221.5" y="-52" font-family="Helvetica,sans-Serif" font-size="10.00">setter</text>
</g>
<!-- Node5 -->
<g id="node5" class="node">
<title>Node5</title>
<g id="a_node5"><a xlink:href="classv8_1_1Local.html" target="_top" xlink:title=" ">
<polygon fill="white" stroke="black" points="196,-211.5 196,-230.5 274,-230.5 274,-211.5 196,-211.5"/>
<text text-anchor="middle" x="235" y="-218.5" font-family="Helvetica,sans-Serif" font-size="10.00">v8::Local&lt; T &gt;</text>
</a>
</g>
</g>
<!-- Node5&#45;&gt;Node4 -->
<g id="edge4" class="edge">
<title>Node5&#45;&gt;Node4</title>
<path fill="none" stroke="orange" stroke-dasharray="5,2" d="M226.15,-202.18C219.18,-188.13 209.75,-169.14 204.33,-158.22"/>
<polygon fill="orange" stroke="orange" points="223.13,-203.95 230.71,-211.36 229.4,-200.84 223.13,-203.95"/>
<text text-anchor="middle" x="243" y="-185" font-family="Helvetica,sans-Serif" font-size="10.00"> &lt; Name &gt;</text>
</g>
<!-- Node6 -->
<g id="node6" class="node">
<title>Node6</title>
<g id="a_node6"><a xlink:href="classv8_1_1Local.html" target="_top" xlink:title=" ">
<polygon fill="white" stroke="black" points="267,-139 267,-158 379,-158 379,-139 267,-139"/>
<text text-anchor="middle" x="323" y="-146" font-family="Helvetica,sans-Serif" font-size="10.00">v8::Local&lt; v8::Value &gt;</text>
</a>
</g>
</g>
<!-- Node5&#45;&gt;Node6 -->
<g id="edge6" class="edge">
<title>Node5&#45;&gt;Node6</title>
<path fill="none" stroke="orange" stroke-dasharray="5,2" d="M254.47,-205.15C259.55,-201.23 265,-196.98 270,-193 284.9,-181.14 301.88,-167.11 312.52,-158.26"/>
<polygon fill="orange" stroke="orange" points="252.22,-202.46 246.42,-211.33 256.48,-208.02 252.22,-202.46"/>
<text text-anchor="middle" x="312.5" y="-185" font-family="Helvetica,sans-Serif" font-size="10.00"> &lt; v8::Value &gt;</text>
</g>
<!-- Node6&#45;&gt;Node1 -->
<g id="edge5" class="edge">
<title>Node6&#45;&gt;Node1</title>
<path fill="none" stroke="#9a32cd" stroke-dasharray="5,2" d="M312.06,-130.2C298.43,-109.45 273.64,-74.29 247,-49 239.95,-42.31 231.41,-35.98 223.55,-30.71"/>
<polygon fill="#9a32cd" stroke="#9a32cd" points="309.3,-132.38 317.67,-138.88 315.19,-128.58 309.3,-132.38"/>
<text text-anchor="middle" x="312" y="-79.5" font-family="Helvetica,sans-Serif" font-size="10.00"> data</text>
</g>
</g>
</svg>
