<?xml version="1.0" encoding="UTF-8" standalone="no"?>
<!DOCTYPE svg PUBLIC "-//W3C//DTD SVG 1.1//EN"
 "http://www.w3.org/Graphics/SVG/1.1/DTD/svg11.dtd">
<!-- Generated by graphviz version 2.44.0 ()
 -->
<!-- Title: v8::CpuProfileDeoptInfo Pages: 1 -->
<svg width="292pt" height="240pt"
 viewBox="0.00 0.00 291.50 240.00" xmlns="http://www.w3.org/2000/svg" xmlns:xlink="http://www.w3.org/1999/xlink">
<g id="graph0" class="graph" transform="scale(1 1) rotate(0) translate(4 236)">
<title>v8::CpuProfileDeoptInfo</title>
<polygon fill="white" stroke="transparent" points="-4,4 -4,-236 287.5,-236 287.5,4 -4,4"/>
<!-- Node1 -->
<g id="node1" class="node">
<title>Node1</title>
<g id="a_node1"><a xlink:title=" ">
<polygon fill="#bfbfbf" stroke="black" points="38.5,-0.5 38.5,-19.5 156.5,-19.5 156.5,-0.5 38.5,-0.5"/>
<text text-anchor="middle" x="97.5" y="-7.5" font-family="Helvetica,sans-Serif" font-size="10.00">v8::CpuProfileDeoptInfo</text>
</a>
</g>
</g>
<!-- Node2 -->
<g id="node2" class="node">
<title>Node2</title>
<g id="a_node2"><a xlink:title=" ">
<polygon fill="white" stroke="#bfbfbf" points="33,-67.5 33,-97.5 162,-97.5 162,-67.5 33,-67.5"/>
<text text-anchor="start" x="41" y="-85.5" font-family="Helvetica,sans-Serif" font-size="10.00">std::vector&lt; v8::CpuProfile</text>
<text text-anchor="middle" x="97.5" y="-74.5" font-family="Helvetica,sans-Serif" font-size="10.00">DeoptFrame &gt;</text>
</a>
</g>
</g>
<!-- Node2&#45;&gt;Node1 -->
<g id="edge1" class="edge">
<title>Node2&#45;&gt;Node1</title>
<path fill="none" stroke="#9a32cd" stroke-dasharray="5,2" d="M97.5,-57.09C97.5,-44.21 97.5,-29.2 97.5,-19.89"/>
<polygon fill="#9a32cd" stroke="#9a32cd" points="94,-57.23 97.5,-67.23 101,-57.23 94,-57.23"/>
<text text-anchor="middle" x="111" y="-41" font-family="Helvetica,sans-Serif" font-size="10.00"> stack</text>
</g>
<!-- Node3 -->
<g id="node3" class="node">
<title>Node3</title>
<g id="a_node3"><a xlink:href="structv8_1_1CpuProfileDeoptFrame.html" target="_top" xlink:title=" ">
<polygon fill="white" stroke="black" points="0,-145.5 0,-164.5 129,-164.5 129,-145.5 0,-145.5"/>
<text text-anchor="middle" x="64.5" y="-152.5" font-family="Helvetica,sans-Serif" font-size="10.00">v8::CpuProfileDeoptFrame</text>
</a>
</g>
</g>
<!-- Node3&#45;&gt;Node2 -->
<g id="edge2" class="edge">
<title>Node3&#45;&gt;Node2</title>
<path fill="none" stroke="#9a32cd" stroke-dasharray="5,2" d="M72.94,-135.96C78.53,-124.03 85.75,-108.61 90.91,-97.58"/>
<polygon fill="#9a32cd" stroke="#9a32cd" points="69.62,-134.81 68.55,-145.36 75.96,-137.78 69.62,-134.81"/>
<text text-anchor="middle" x="104" y="-119" font-family="Helvetica,sans-Serif" font-size="10.00"> elements</text>
</g>
<!-- Node4 -->
<g id="node4" class="node">
<title>Node4</title>
<g id="a_node4"><a xlink:title="STL class.">
<polygon fill="white" stroke="#bfbfbf" points="147.5,-145.5 147.5,-164.5 231.5,-164.5 231.5,-145.5 147.5,-145.5"/>
<text text-anchor="middle" x="189.5" y="-152.5" font-family="Helvetica,sans-Serif" font-size="10.00">std::vector&lt; T &gt;</text>
</a>
</g>
</g>
<!-- Node4&#45;&gt;Node2 -->
<g id="edge3" class="edge">
<title>Node4&#45;&gt;Node2</title>
<path fill="none" stroke="orange" stroke-dasharray="5,2" d="M170.09,-139.13C154.1,-126.87 131.57,-109.61 115.87,-97.58"/>
<polygon fill="orange" stroke="orange" points="168.15,-142.05 178.22,-145.36 172.41,-136.49 168.15,-142.05"/>
<text text-anchor="middle" x="217.5" y="-119" font-family="Helvetica,sans-Serif" font-size="10.00"> &lt; v8::CpuProfileDeoptFrame &gt;</text>
</g>
<!-- Node5 -->
<g id="node5" class="node">
<title>Node5</title>
<g id="a_node5"><a xlink:title=" ">
<polygon fill="white" stroke="#bfbfbf" points="175,-212.5 175,-231.5 204,-231.5 204,-212.5 175,-212.5"/>
<text text-anchor="middle" x="189.5" y="-219.5" font-family="Helvetica,sans-Serif" font-size="10.00">T</text>
</a>
</g>
</g>
<!-- Node5&#45;&gt;Node4 -->
<g id="edge4" class="edge">
<title>Node5&#45;&gt;Node4</title>
<path fill="none" stroke="#9a32cd" stroke-dasharray="5,2" d="M189.5,-202.04C189.5,-189.67 189.5,-174.12 189.5,-164.63"/>
<polygon fill="#9a32cd" stroke="#9a32cd" points="186,-202.23 189.5,-212.23 193,-202.23 186,-202.23"/>
<text text-anchor="middle" x="211" y="-186" font-family="Helvetica,sans-Serif" font-size="10.00"> elements</text>
</g>
</g>
</svg>
