<?xml version="1.0" encoding="UTF-8" standalone="no"?>
<!DOCTYPE svg PUBLIC "-//W3C//DTD SVG 1.1//EN"
 "http://www.w3.org/Graphics/SVG/1.1/DTD/svg11.dtd">
<!-- Generated by graphviz version 2.44.0 ()
 -->
<!-- Title: v8::HeapProfiler::RetainerInfos Pages: 1 -->
<svg width="741pt" height="125pt"
 viewBox="0.00 0.00 741.00 124.50" xmlns="http://www.w3.org/2000/svg" xmlns:xlink="http://www.w3.org/1999/xlink">
<g id="graph0" class="graph" transform="scale(1 1) rotate(0) translate(4 120.5)">
<title>v8::HeapProfiler::RetainerInfos</title>
<polygon fill="white" stroke="transparent" points="-4,4 -4,-120.5 737,-120.5 737,4 -4,4"/>
<!-- Node1 -->
<g id="node1" class="node">
<title>Node1</title>
<g id="a_node1"><a xlink:title=" ">
<polygon fill="#bfbfbf" stroke="black" points="608,-44.5 608,-74.5 733,-74.5 733,-44.5 608,-44.5"/>
<text text-anchor="start" x="616" y="-62.5" font-family="Helvetica,sans-Serif" font-size="10.00">v8::HeapProfiler::Retainer</text>
<text text-anchor="middle" x="670.5" y="-51.5" font-family="Helvetica,sans-Serif" font-size="10.00">Infos</text>
</a>
</g>
</g>
<!-- Node2 -->
<g id="node2" class="node">
<title>Node2</title>
<g id="a_node2"><a xlink:title=" ">
<polygon fill="white" stroke="#bfbfbf" points="395,-75 395,-116 518,-116 518,-75 395,-75"/>
<text text-anchor="start" x="403" y="-104" font-family="Helvetica,sans-Serif" font-size="10.00">std::vector&lt; std::pair</text>
<text text-anchor="start" x="403" y="-93" font-family="Helvetica,sans-Serif" font-size="10.00">&lt; v8::RetainedObjectInfo</text>
<text text-anchor="middle" x="456.5" y="-82" font-family="Helvetica,sans-Serif" font-size="10.00"> *, RetainerChildren &gt; &gt;</text>
</a>
</g>
</g>
<!-- Node2&#45;&gt;Node1 -->
<g id="edge1" class="edge">
<title>Node2&#45;&gt;Node1</title>
<path fill="none" stroke="#9a32cd" stroke-dasharray="5,2" d="M528.3,-83.48C553.98,-79.12 582.78,-74.23 607.64,-70.01"/>
<polygon fill="#9a32cd" stroke="#9a32cd" points="527.52,-80.06 518.25,-85.18 528.7,-86.96 527.52,-80.06"/>
<text text-anchor="middle" x="574" y="-80.5" font-family="Helvetica,sans-Serif" font-size="10.00"> groups</text>
</g>
<!-- Node3 -->
<g id="node3" class="node">
<title>Node3</title>
<g id="a_node3"><a xlink:title="STL class.">
<polygon fill="white" stroke="#bfbfbf" points="108,-50 108,-69 192,-69 192,-50 108,-50"/>
<text text-anchor="middle" x="150" y="-57" font-family="Helvetica,sans-Serif" font-size="10.00">std::vector&lt; T &gt;</text>
</a>
</g>
</g>
<!-- Node3&#45;&gt;Node2 -->
<g id="edge2" class="edge">
<title>Node3&#45;&gt;Node2</title>
<path fill="none" stroke="orange" stroke-dasharray="5,2" d="M189.51,-71.81C196.28,-73.63 203.3,-75.29 210,-76.5 272.36,-87.78 344.83,-92.36 394.78,-94.23"/>
<polygon fill="orange" stroke="orange" points="190.41,-68.43 179.83,-69.08 188.5,-75.16 190.41,-68.43"/>
<text text-anchor="start" x="210" y="-106.5" font-family="Helvetica,sans-Serif" font-size="10.00"> &lt; std::pair&lt; v8::Retained</text>
<text text-anchor="middle" x="282.5" y="-95.5" font-family="Helvetica,sans-Serif" font-size="10.00">ObjectInfo *, RetainerChildren &gt; &gt;</text>
</g>
<!-- Node5 -->
<g id="node5" class="node">
<title>Node5</title>
<g id="a_node5"><a xlink:title=" ">
<polygon fill="white" stroke="#bfbfbf" points="373,-0.5 373,-52.5 540,-52.5 540,-0.5 373,-0.5"/>
<text text-anchor="start" x="381" y="-40.5" font-family="Helvetica,sans-Serif" font-size="10.00">std::vector&lt; std::pair</text>
<text text-anchor="start" x="381" y="-29.5" font-family="Helvetica,sans-Serif" font-size="10.00">&lt; const v8::PersistentBase</text>
<text text-anchor="start" x="381" y="-18.5" font-family="Helvetica,sans-Serif" font-size="10.00">&lt; v8::Value &gt; *, const v8</text>
<text text-anchor="middle" x="456.5" y="-7.5" font-family="Helvetica,sans-Serif" font-size="10.00">::PersistentBase&lt; v8::Value &gt; * &gt; &gt;</text>
</a>
</g>
</g>
<!-- Node3&#45;&gt;Node5 -->
<g id="edge5" class="edge">
<title>Node3&#45;&gt;Node5</title>
<path fill="none" stroke="orange" stroke-dasharray="5,2" d="M169.73,-43.46C180.69,-35.14 195.24,-25.84 210,-21.5 262.66,-6.01 324.44,-7.37 372.86,-12.54"/>
<polygon fill="orange" stroke="orange" points="167.42,-40.83 161.78,-49.8 171.78,-46.3 167.42,-40.83"/>
<text text-anchor="start" x="231" y="-68.5" font-family="Helvetica,sans-Serif" font-size="10.00"> &lt; std::pair&lt; const</text>
<text text-anchor="start" x="231" y="-57.5" font-family="Helvetica,sans-Serif" font-size="10.00"> v8::PersistentBase</text>
<text text-anchor="start" x="231" y="-46.5" font-family="Helvetica,sans-Serif" font-size="10.00">&lt; v8::Value &gt; *, const</text>
<text text-anchor="start" x="231" y="-35.5" font-family="Helvetica,sans-Serif" font-size="10.00"> v8::PersistentBase&lt; v8</text>
<text text-anchor="middle" x="282.5" y="-24.5" font-family="Helvetica,sans-Serif" font-size="10.00">::Value &gt; * &gt; &gt;</text>
</g>
<!-- Node4 -->
<g id="node4" class="node">
<title>Node4</title>
<g id="a_node4"><a xlink:title=" ">
<polygon fill="white" stroke="#bfbfbf" points="0,-50 0,-69 29,-69 29,-50 0,-50"/>
<text text-anchor="middle" x="14.5" y="-57" font-family="Helvetica,sans-Serif" font-size="10.00">T</text>
</a>
</g>
</g>
<!-- Node4&#45;&gt;Node3 -->
<g id="edge3" class="edge">
<title>Node4&#45;&gt;Node3</title>
<path fill="none" stroke="#9a32cd" stroke-dasharray="5,2" d="M39.45,-59.5C58.44,-59.5 85.43,-59.5 107.86,-59.5"/>
<polygon fill="#9a32cd" stroke="#9a32cd" points="39.28,-56 29.28,-59.5 39.28,-63 39.28,-56"/>
<text text-anchor="middle" x="68.5" y="-62.5" font-family="Helvetica,sans-Serif" font-size="10.00"> elements</text>
</g>
<!-- Node5&#45;&gt;Node1 -->
<g id="edge4" class="edge">
<title>Node5&#45;&gt;Node1</title>
<path fill="none" stroke="#9a32cd" stroke-dasharray="5,2" d="M550.2,-40.93C569.7,-43.97 589.81,-47.1 607.84,-49.9"/>
<polygon fill="#9a32cd" stroke="#9a32cd" points="550.49,-37.43 540.07,-39.35 549.41,-44.35 550.49,-37.43"/>
<text text-anchor="middle" x="574" y="-50.5" font-family="Helvetica,sans-Serif" font-size="10.00"> edges</text>
</g>
</g>
</svg>
