<?xml version="1.0" encoding="UTF-8" standalone="no"?>
<!DOCTYPE svg PUBLIC "-//W3C//DTD SVG 1.1//EN"
 "http://www.w3.org/Graphics/SVG/1.1/DTD/svg11.dtd">
<!-- Generated by graphviz version 2.44.0 ()
 -->
<!-- Title: include/v8&#45;inspector&#45;protocol.h Pages: 1 -->
<svg width="818pt" height="207pt"
 viewBox="0.00 0.00 818.00 207.00" xmlns="http://www.w3.org/2000/svg" xmlns:xlink="http://www.w3.org/1999/xlink">
<g id="graph0" class="graph" transform="scale(1 1) rotate(0) translate(4 203)">
<title>include/v8&#45;inspector&#45;protocol.h</title>
<polygon fill="white" stroke="transparent" points="-4,4 -4,-203 814,-203 814,4 -4,4"/>
<!-- Node1 -->
<g id="node1" class="node">
<title>Node1</title>
<g id="a_node1"><a xlink:title=" ">
<polygon fill="#bfbfbf" stroke="black" points="186,-168.5 186,-198.5 290,-198.5 290,-168.5 186,-168.5"/>
<text text-anchor="start" x="194" y="-186.5" font-family="Helvetica,sans-Serif" font-size="10.00">include/v8&#45;inspector</text>
<text text-anchor="middle" x="238" y="-175.5" font-family="Helvetica,sans-Serif" font-size="10.00">&#45;protocol.h</text>
</a>
</g>
</g>
<!-- Node2 -->
<g id="node2" class="node">
<title>Node2</title>
<g id="a_node2"><a xlink:title=" ">
<polygon fill="white" stroke="#bfbfbf" points="0,-112.5 0,-131.5 108,-131.5 108,-112.5 0,-112.5"/>
<text text-anchor="middle" x="54" y="-119.5" font-family="Helvetica,sans-Serif" font-size="10.00">inspector/Debugger.h</text>
</a>
</g>
</g>
<!-- Node1&#45;&gt;Node2 -->
<g id="edge1" class="edge">
<title>Node1&#45;&gt;Node2</title>
<path fill="none" stroke="midnightblue" d="M194.39,-168.4C162.6,-158.12 120.03,-144.35 90.13,-134.68"/>
<polygon fill="midnightblue" stroke="midnightblue" points="91.1,-131.32 80.51,-131.57 88.94,-137.98 91.1,-131.32"/>
</g>
<!-- Node3 -->
<g id="node3" class="node">
<title>Node3</title>
<g id="a_node3"><a xlink:title=" ">
<polygon fill="white" stroke="#bfbfbf" points="126.5,-112.5 126.5,-131.5 229.5,-131.5 229.5,-112.5 126.5,-112.5"/>
<text text-anchor="middle" x="178" y="-119.5" font-family="Helvetica,sans-Serif" font-size="10.00">inspector/Runtime.h</text>
</a>
</g>
</g>
<!-- Node1&#45;&gt;Node3 -->
<g id="edge2" class="edge">
<title>Node1&#45;&gt;Node3</title>
<path fill="none" stroke="midnightblue" d="M223.78,-168.4C214.79,-159.49 203.16,-147.95 193.87,-138.74"/>
<polygon fill="midnightblue" stroke="midnightblue" points="196.3,-136.21 186.73,-131.66 191.37,-141.18 196.3,-136.21"/>
</g>
<!-- Node4 -->
<g id="node4" class="node">
<title>Node4</title>
<g id="a_node4"><a xlink:title=" ">
<polygon fill="white" stroke="#bfbfbf" points="247.5,-112.5 247.5,-131.5 350.5,-131.5 350.5,-112.5 247.5,-112.5"/>
<text text-anchor="middle" x="299" y="-119.5" font-family="Helvetica,sans-Serif" font-size="10.00">inspector/Schema.h</text>
</a>
</g>
</g>
<!-- Node1&#45;&gt;Node4 -->
<g id="edge3" class="edge">
<title>Node1&#45;&gt;Node4</title>
<path fill="none" stroke="midnightblue" d="M252.46,-168.4C261.59,-159.49 273.42,-147.95 282.86,-138.74"/>
<polygon fill="midnightblue" stroke="midnightblue" points="285.41,-141.15 290.12,-131.66 280.52,-136.13 285.41,-141.15"/>
</g>
<!-- Node5 -->
<g id="node5" class="node">
<title>Node5</title>
<g id="a_node5"><a xlink:href="v8-inspector_8h.html" target="_top" xlink:title=" ">
<polygon fill="white" stroke="black" points="368.5,-112.5 368.5,-131.5 445.5,-131.5 445.5,-112.5 368.5,-112.5"/>
<text text-anchor="middle" x="407" y="-119.5" font-family="Helvetica,sans-Serif" font-size="10.00">v8&#45;inspector.h</text>
</a>
</g>
</g>
<!-- Node1&#45;&gt;Node5 -->
<g id="edge4" class="edge">
<title>Node1&#45;&gt;Node5</title>
<path fill="none" stroke="midnightblue" d="M278.05,-168.4C306.91,-158.24 345.45,-144.67 372.85,-135.02"/>
<polygon fill="midnightblue" stroke="midnightblue" points="374.14,-138.28 382.41,-131.66 371.81,-131.68 374.14,-138.28"/>
</g>
<!-- Node6 -->
<g id="node6" class="node">
<title>Node6</title>
<g id="a_node6"><a xlink:title=" ">
<polygon fill="white" stroke="#bfbfbf" points="275,-0.5 275,-19.5 323,-19.5 323,-0.5 275,-0.5"/>
<text text-anchor="middle" x="299" y="-7.5" font-family="Helvetica,sans-Serif" font-size="10.00">stdint.h</text>
</a>
</g>
</g>
<!-- Node5&#45;&gt;Node6 -->
<g id="edge5" class="edge">
<title>Node5&#45;&gt;Node6</title>
<path fill="none" stroke="midnightblue" d="M398.53,-112.37C380.39,-93.89 337.58,-50.29 314.46,-26.74"/>
<polygon fill="midnightblue" stroke="midnightblue" points="316.94,-24.28 307.44,-19.59 311.94,-29.18 316.94,-24.28"/>
</g>
<!-- Node7 -->
<g id="node7" class="node">
<title>Node7</title>
<g id="a_node7"><a xlink:title=" ">
<polygon fill="white" stroke="#bfbfbf" points="504.5,-56.5 504.5,-75.5 549.5,-75.5 549.5,-56.5 504.5,-56.5"/>
<text text-anchor="middle" x="527" y="-63.5" font-family="Helvetica,sans-Serif" font-size="10.00">cctype</text>
</a>
</g>
</g>
<!-- Node5&#45;&gt;Node7 -->
<g id="edge6" class="edge">
<title>Node5&#45;&gt;Node7</title>
<path fill="none" stroke="midnightblue" d="M426.01,-112.44C445.59,-103.64 476.31,-89.81 498.73,-79.72"/>
<polygon fill="midnightblue" stroke="midnightblue" points="500.39,-82.81 508.07,-75.52 497.52,-76.43 500.39,-82.81"/>
</g>
<!-- Node8 -->
<g id="node8" class="node">
<title>Node8</title>
<g id="a_node8"><a xlink:title=" ">
<polygon fill="white" stroke="#bfbfbf" points="341.5,-0.5 341.5,-19.5 392.5,-19.5 392.5,-0.5 341.5,-0.5"/>
<text text-anchor="middle" x="367" y="-7.5" font-family="Helvetica,sans-Serif" font-size="10.00">memory</text>
</a>
</g>
</g>
<!-- Node5&#45;&gt;Node8 -->
<g id="edge7" class="edge">
<title>Node5&#45;&gt;Node8</title>
<path fill="none" stroke="midnightblue" d="M403.86,-112.37C397.38,-94.54 382.38,-53.3 373.64,-29.27"/>
<polygon fill="midnightblue" stroke="midnightblue" points="376.83,-27.79 370.12,-19.59 370.25,-30.19 376.83,-27.79"/>
</g>
<!-- Node9 -->
<g id="node9" class="node">
<title>Node9</title>
<g id="a_node9"><a xlink:href="v8_8h.html" target="_top" xlink:title=" ">
<polygon fill="white" stroke="black" points="451.5,-56.5 451.5,-75.5 486.5,-75.5 486.5,-56.5 451.5,-56.5"/>
<text text-anchor="middle" x="469" y="-63.5" font-family="Helvetica,sans-Serif" font-size="10.00">v8.h</text>
</a>
</g>
</g>
<!-- Node5&#45;&gt;Node9 -->
<g id="edge8" class="edge">
<title>Node5&#45;&gt;Node9</title>
<path fill="none" stroke="midnightblue" d="M416.96,-112.32C426.13,-104.34 439.94,-92.31 451.03,-82.65"/>
<polygon fill="midnightblue" stroke="midnightblue" points="453.62,-85.04 458.86,-75.83 449.02,-79.76 453.62,-85.04"/>
</g>
<!-- Node9&#45;&gt;Node6 -->
<g id="edge10" class="edge">
<title>Node9&#45;&gt;Node6</title>
<path fill="none" stroke="midnightblue" d="M451.45,-59.42C423.53,-50.56 368.53,-33.09 332.79,-21.73"/>
<polygon fill="midnightblue" stroke="midnightblue" points="333.85,-18.4 323.26,-18.7 331.73,-25.07 333.85,-18.4"/>
</g>
<!-- Node9&#45;&gt;Node8 -->
<g id="edge12" class="edge">
<title>Node9&#45;&gt;Node8</title>
<path fill="none" stroke="midnightblue" d="M452.61,-56.32C436.33,-47.7 411.13,-34.36 392.28,-24.39"/>
<polygon fill="midnightblue" stroke="midnightblue" points="393.82,-21.24 383.35,-19.65 390.55,-27.43 393.82,-21.24"/>
</g>
<!-- Node10 -->
<g id="node10" class="node">
<title>Node10</title>
<g id="a_node10"><a xlink:title=" ">
<polygon fill="white" stroke="#bfbfbf" points="410.5,-0.5 410.5,-19.5 461.5,-19.5 461.5,-0.5 410.5,-0.5"/>
<text text-anchor="middle" x="436" y="-7.5" font-family="Helvetica,sans-Serif" font-size="10.00">stddef.h</text>
</a>
</g>
</g>
<!-- Node9&#45;&gt;Node10 -->
<g id="edge9" class="edge">
<title>Node9&#45;&gt;Node10</title>
<path fill="none" stroke="midnightblue" d="M463.55,-56.08C458.99,-48.61 452.33,-37.72 446.71,-28.52"/>
<polygon fill="midnightblue" stroke="midnightblue" points="449.55,-26.46 441.35,-19.75 443.58,-30.11 449.55,-26.46"/>
</g>
<!-- Node11 -->
<g id="node11" class="node">
<title>Node11</title>
<g id="a_node11"><a xlink:title=" ">
<polygon fill="white" stroke="#bfbfbf" points="479.5,-0.5 479.5,-19.5 524.5,-19.5 524.5,-0.5 479.5,-0.5"/>
<text text-anchor="middle" x="502" y="-7.5" font-family="Helvetica,sans-Serif" font-size="10.00">stdio.h</text>
</a>
</g>
</g>
<!-- Node9&#45;&gt;Node11 -->
<g id="edge11" class="edge">
<title>Node9&#45;&gt;Node11</title>
<path fill="none" stroke="midnightblue" d="M474.45,-56.08C479.01,-48.61 485.67,-37.72 491.29,-28.52"/>
<polygon fill="midnightblue" stroke="midnightblue" points="494.42,-30.11 496.65,-19.75 488.45,-26.46 494.42,-30.11"/>
</g>
<!-- Node12 -->
<g id="node12" class="node">
<title>Node12</title>
<g id="a_node12"><a xlink:title=" ">
<polygon fill="white" stroke="#bfbfbf" points="542.5,-0.5 542.5,-19.5 581.5,-19.5 581.5,-0.5 542.5,-0.5"/>
<text text-anchor="middle" x="562" y="-7.5" font-family="Helvetica,sans-Serif" font-size="10.00">utility</text>
</a>
</g>
</g>
<!-- Node9&#45;&gt;Node12 -->
<g id="edge13" class="edge">
<title>Node9&#45;&gt;Node12</title>
<path fill="none" stroke="midnightblue" d="M483.94,-56.32C498.59,-47.82 521.13,-34.73 538.24,-24.8"/>
<polygon fill="midnightblue" stroke="midnightblue" points="540.2,-27.7 547.1,-19.65 536.69,-21.65 540.2,-27.7"/>
</g>
<!-- Node13 -->
<g id="node13" class="node">
<title>Node13</title>
<g id="a_node13"><a xlink:title=" ">
<polygon fill="white" stroke="#bfbfbf" points="600,-0.5 600,-19.5 644,-19.5 644,-0.5 600,-0.5"/>
<text text-anchor="middle" x="622" y="-7.5" font-family="Helvetica,sans-Serif" font-size="10.00">vector</text>
</a>
</g>
</g>
<!-- Node9&#45;&gt;Node13 -->
<g id="edge14" class="edge">
<title>Node9&#45;&gt;Node13</title>
<path fill="none" stroke="midnightblue" d="M486.55,-58.81C511.84,-49.88 558.92,-33.26 590.37,-22.16"/>
<polygon fill="midnightblue" stroke="midnightblue" points="591.71,-25.4 599.98,-18.77 589.38,-18.8 591.71,-25.4"/>
</g>
<!-- Node14 -->
<g id="node14" class="node">
<title>Node14</title>
<g id="a_node14"><a xlink:href="v8-version_8h.html" target="_top" xlink:title=" ">
<polygon fill="white" stroke="black" points="662.5,-0.5 662.5,-19.5 731.5,-19.5 731.5,-0.5 662.5,-0.5"/>
<text text-anchor="middle" x="697" y="-7.5" font-family="Helvetica,sans-Serif" font-size="10.00">v8&#45;version.h</text>
</a>
</g>
</g>
<!-- Node9&#45;&gt;Node14 -->
<g id="edge15" class="edge">
<title>Node9&#45;&gt;Node14</title>
<path fill="none" stroke="midnightblue" d="M486.64,-58.83C489.74,-57.83 492.95,-56.85 496,-56 524.93,-47.96 602.4,-31.11 652.27,-20.46"/>
<polygon fill="midnightblue" stroke="midnightblue" points="653.11,-23.86 662.16,-18.35 651.65,-17.01 653.11,-23.86"/>
</g>
<!-- Node15 -->
<g id="node15" class="node">
<title>Node15</title>
<g id="a_node15"><a xlink:href="v8config_8h.html" target="_top" xlink:title=" ">
<polygon fill="white" stroke="black" points="750,-0.5 750,-19.5 810,-19.5 810,-0.5 750,-0.5"/>
<text text-anchor="middle" x="780" y="-7.5" font-family="Helvetica,sans-Serif" font-size="10.00">v8config.h</text>
</a>
</g>
</g>
<!-- Node9&#45;&gt;Node15 -->
<g id="edge16" class="edge">
<title>Node9&#45;&gt;Node15</title>
<path fill="none" stroke="midnightblue" d="M486.59,-58.64C489.7,-57.66 492.92,-56.73 496,-56 599.93,-31.25 631.04,-39.84 739.76,-20.09"/>
<polygon fill="midnightblue" stroke="midnightblue" points="740.62,-23.49 749.82,-18.22 739.35,-16.6 740.62,-23.49"/>
</g>
</g>
</svg>
