<?xml version="1.0" encoding="UTF-8" standalone="no"?>
<!DOCTYPE svg PUBLIC "-//W3C//DTD SVG 1.1//EN"
 "http://www.w3.org/Graphics/SVG/1.1/DTD/svg11.dtd">
<!-- Generated by graphviz version 2.44.0 ()
 -->
<!-- Title: v8::Local&lt; T &gt; Pages: 1 -->
<svg width="373pt" height="381pt"
 viewBox="0.00 0.00 373.00 381.39" xmlns="http://www.w3.org/2000/svg" xmlns:xlink="http://www.w3.org/1999/xlink">
<g id="graph0" class="graph" transform="scale(1 1) rotate(0) translate(4 377.39)">
<title>v8::Local&lt; T &gt;</title>
<polygon fill="white" stroke="transparent" points="-4,4 -4,-377.39 369,-377.39 369,4 -4,4"/>
<!-- Node1 -->
<g id="node1" class="node">
<title>Node1</title>
<g id="a_node1"><a xlink:title=" ">
<polygon fill="#bfbfbf" stroke="black" points="0,-173.89 0,-192.89 78,-192.89 78,-173.89 0,-173.89"/>
<text text-anchor="middle" x="39" y="-180.89" font-family="Helvetica,sans-Serif" font-size="10.00">v8::Local&lt; T &gt;</text>
</a>
</g>
</g>
<!-- Node2 -->
<g id="node2" class="node">
<title>Node2</title>
<g id="a_node2"><a xlink:href="classv8_1_1Local.html" target="_top" xlink:title=" ">
<polygon fill="white" stroke="black" points="220.5,-344.89 220.5,-363.89 357.5,-363.89 357.5,-344.89 220.5,-344.89"/>
<text text-anchor="middle" x="289" y="-351.89" font-family="Helvetica,sans-Serif" font-size="10.00">v8::Local&lt; v8::StackTrace &gt;</text>
</a>
</g>
</g>
<!-- Node1&#45;&gt;Node2 -->
<g id="edge1" class="edge">
<title>Node1&#45;&gt;Node2</title>
<path fill="none" stroke="orange" stroke-dasharray="5,2" d="M41.14,-203.12C44.16,-235.77 55.27,-300.6 96,-332.39 130.65,-359.43 180.11,-364.56 220.16,-363.12"/>
<polygon fill="orange" stroke="orange" points="44.62,-202.72 40.37,-193.02 37.64,-203.25 44.62,-202.72"/>
<text text-anchor="middle" x="145.5" y="-365.39" font-family="Helvetica,sans-Serif" font-size="10.00"> &lt; v8::StackTrace &gt;</text>
</g>
<!-- Node3 -->
<g id="node3" class="node">
<title>Node3</title>
<g id="a_node3"><a xlink:href="classv8_1_1Local.html" target="_top" xlink:title=" ">
<polygon fill="white" stroke="black" points="227.5,-306.89 227.5,-325.89 350.5,-325.89 350.5,-306.89 227.5,-306.89"/>
<text text-anchor="middle" x="289" y="-313.89" font-family="Helvetica,sans-Serif" font-size="10.00">v8::Local&lt; v8::Promise &gt;</text>
</a>
</g>
</g>
<!-- Node1&#45;&gt;Node3 -->
<g id="edge2" class="edge">
<title>Node1&#45;&gt;Node3</title>
<path fill="none" stroke="orange" stroke-dasharray="5,2" d="M44.67,-203.04C51.54,-227.31 66.84,-267.88 96,-288.39 134.03,-315.13 186.85,-321.17 227.47,-321.07"/>
<polygon fill="orange" stroke="orange" points="48.01,-201.96 42.09,-193.17 41.24,-203.73 48.01,-201.96"/>
<text text-anchor="middle" x="145.5" y="-322.39" font-family="Helvetica,sans-Serif" font-size="10.00"> &lt; v8::Promise &gt;</text>
</g>
<!-- Node4 -->
<g id="node4" class="node">
<title>Node4</title>
<g id="a_node4"><a xlink:href="classv8_1_1Local.html" target="_top" xlink:title=" ">
<polygon fill="white" stroke="black" points="232.5,-268.89 232.5,-287.89 345.5,-287.89 345.5,-268.89 232.5,-268.89"/>
<text text-anchor="middle" x="289" y="-275.89" font-family="Helvetica,sans-Serif" font-size="10.00">v8::Local&lt; v8::String &gt;</text>
</a>
</g>
</g>
<!-- Node1&#45;&gt;Node4 -->
<g id="edge3" class="edge">
<title>Node1&#45;&gt;Node4</title>
<path fill="none" stroke="orange" stroke-dasharray="5,2" d="M51.52,-201.75C61.49,-216.02 77.24,-235.06 96,-245.39 137.93,-268.47 192.16,-276.11 232.29,-278.34"/>
<polygon fill="orange" stroke="orange" points="54.28,-199.59 45.83,-193.21 48.46,-203.47 54.28,-199.59"/>
<text text-anchor="middle" x="145.5" y="-276.39" font-family="Helvetica,sans-Serif" font-size="10.00"> &lt; v8::String &gt;</text>
</g>
<!-- Node5 -->
<g id="node5" class="node">
<title>Node5</title>
<g id="a_node5"><a xlink:href="classv8_1_1Local.html" target="_top" xlink:title=" ">
<polygon fill="white" stroke="black" points="233,-230.89 233,-249.89 345,-249.89 345,-230.89 233,-230.89"/>
<text text-anchor="middle" x="289" y="-237.89" font-family="Helvetica,sans-Serif" font-size="10.00">v8::Local&lt; v8::Value &gt;</text>
</a>
</g>
</g>
<!-- Node1&#45;&gt;Node5 -->
<g id="edge4" class="edge">
<title>Node1&#45;&gt;Node5</title>
<path fill="none" stroke="orange" stroke-dasharray="5,2" d="M66.9,-197.7C75.94,-202.01 86.22,-206.39 96,-209.39 141.03,-223.19 194,-231.15 232.88,-235.55"/>
<polygon fill="orange" stroke="orange" points="68.18,-194.42 57.66,-193.12 65.06,-200.69 68.18,-194.42"/>
<text text-anchor="middle" x="145.5" y="-233.39" font-family="Helvetica,sans-Serif" font-size="10.00"> &lt; v8::Value &gt;</text>
</g>
<!-- Node6 -->
<g id="node6" class="node">
<title>Node6</title>
<g id="a_node6"><a xlink:href="classv8_1_1Local.html" target="_top" xlink:title=" ">
<polygon fill="white" stroke="black" points="230.5,-192.89 230.5,-211.89 347.5,-211.89 347.5,-192.89 230.5,-192.89"/>
<text text-anchor="middle" x="289" y="-199.89" font-family="Helvetica,sans-Serif" font-size="10.00">v8::Local&lt; v8::Integer &gt;</text>
</a>
</g>
</g>
<!-- Node1&#45;&gt;Node6 -->
<g id="edge5" class="edge">
<title>Node1&#45;&gt;Node6</title>
<path fill="none" stroke="orange" stroke-dasharray="5,2" d="M88.41,-187.1C129.08,-190.21 187.3,-194.67 230.38,-197.97"/>
<polygon fill="orange" stroke="orange" points="88.44,-183.59 78.21,-186.31 87.91,-190.57 88.44,-183.59"/>
<text text-anchor="middle" x="145.5" y="-197.39" font-family="Helvetica,sans-Serif" font-size="10.00"> &lt; v8::Integer &gt;</text>
</g>
<!-- Node7 -->
<g id="node7" class="node">
<title>Node7</title>
<g id="a_node7"><a xlink:href="classv8_1_1Local.html" target="_top" xlink:title=" ">
<polygon fill="white" stroke="black" points="229,-154.89 229,-173.89 349,-173.89 349,-154.89 229,-154.89"/>
<text text-anchor="middle" x="289" y="-161.89" font-family="Helvetica,sans-Serif" font-size="10.00">v8::Local&lt; v8::Context &gt;</text>
</a>
</g>
</g>
<!-- Node1&#45;&gt;Node7 -->
<g id="edge6" class="edge">
<title>Node1&#45;&gt;Node7</title>
<path fill="none" stroke="orange" stroke-dasharray="5,2" d="M88.25,-173.43C90.86,-173.04 93.46,-172.69 96,-172.39 140.4,-167.13 190.92,-165.19 228.99,-164.53"/>
<polygon fill="orange" stroke="orange" points="87.43,-170.02 78.13,-175.09 88.57,-176.92 87.43,-170.02"/>
<text text-anchor="middle" x="145.5" y="-175.39" font-family="Helvetica,sans-Serif" font-size="10.00"> &lt; v8::Context &gt;</text>
</g>
<!-- Node8 -->
<g id="node8" class="node">
<title>Node8</title>
<g id="a_node8"><a xlink:href="classv8_1_1Local.html" target="_top" xlink:title=" ">
<polygon fill="white" stroke="black" points="238.5,-116.89 238.5,-135.89 339.5,-135.89 339.5,-116.89 238.5,-116.89"/>
<text text-anchor="middle" x="289" y="-123.89" font-family="Helvetica,sans-Serif" font-size="10.00">v8::Local&lt; Object &gt;</text>
</a>
</g>
</g>
<!-- Node1&#45;&gt;Node8 -->
<g id="edge7" class="edge">
<title>Node1&#45;&gt;Node8</title>
<path fill="none" stroke="orange" stroke-dasharray="5,2" d="M61.52,-167.9C71.54,-161.45 83.9,-154.51 96,-150.39 142.58,-134.51 198.73,-128.95 238.24,-127.09"/>
<polygon fill="orange" stroke="orange" points="59.39,-165.11 53.05,-173.6 63.3,-170.92 59.39,-165.11"/>
<text text-anchor="middle" x="145.5" y="-153.39" font-family="Helvetica,sans-Serif" font-size="10.00"> &lt; Object &gt;</text>
</g>
<!-- Node9 -->
<g id="node9" class="node">
<title>Node9</title>
<g id="a_node9"><a xlink:href="classv8_1_1Local.html" target="_top" xlink:title=" ">
<polygon fill="white" stroke="black" points="213,-78.89 213,-97.89 365,-97.89 365,-78.89 213,-78.89"/>
<text text-anchor="middle" x="289" y="-85.89" font-family="Helvetica,sans-Serif" font-size="10.00">v8::Local&lt; v8::UnboundScript &gt;</text>
</a>
</g>
</g>
<!-- Node1&#45;&gt;Node9 -->
<g id="edge8" class="edge">
<title>Node1&#45;&gt;Node9</title>
<path fill="none" stroke="orange" stroke-dasharray="5,2" d="M50.11,-164.58C59.7,-148.7 75.67,-126.78 96,-115.39 131.24,-95.64 175.63,-88.47 212.85,-86.43"/>
<polygon fill="orange" stroke="orange" points="46.91,-163.12 44.97,-173.54 52.98,-166.6 46.91,-163.12"/>
<text text-anchor="middle" x="145.5" y="-118.39" font-family="Helvetica,sans-Serif" font-size="10.00"> &lt; v8::UnboundScript &gt;</text>
</g>
<!-- Node10 -->
<g id="node10" class="node">
<title>Node10</title>
<g id="a_node10"><a xlink:href="classv8_1_1Local.html" target="_top" xlink:title=" ">
<polygon fill="white" stroke="black" points="240,-40.89 240,-59.89 338,-59.89 338,-40.89 240,-40.89"/>
<text text-anchor="middle" x="289" y="-47.89" font-family="Helvetica,sans-Serif" font-size="10.00">v8::Local&lt; Name &gt;</text>
</a>
</g>
</g>
<!-- Node1&#45;&gt;Node10 -->
<g id="edge9" class="edge">
<title>Node1&#45;&gt;Node10</title>
<path fill="none" stroke="orange" stroke-dasharray="5,2" d="M43.96,-163.61C50.21,-137.97 65,-94 96,-72.39 137.97,-43.13 198.07,-40.92 239.81,-43.92"/>
<polygon fill="orange" stroke="orange" points="40.48,-163.13 41.72,-173.65 47.31,-164.66 40.48,-163.13"/>
<text text-anchor="middle" x="145.5" y="-75.39" font-family="Helvetica,sans-Serif" font-size="10.00"> &lt; Name &gt;</text>
</g>
<!-- Node11 -->
<g id="node11" class="node">
<title>Node11</title>
<g id="a_node11"><a xlink:href="classv8_1_1Local.html" target="_top" xlink:title=" ">
<polygon fill="white" stroke="black" points="240.5,-2.89 240.5,-21.89 337.5,-21.89 337.5,-2.89 240.5,-2.89"/>
<text text-anchor="middle" x="289" y="-9.89" font-family="Helvetica,sans-Serif" font-size="10.00">v8::Local&lt; Value &gt;</text>
</a>
</g>
</g>
<!-- Node1&#45;&gt;Node11 -->
<g id="edge10" class="edge">
<title>Node1&#45;&gt;Node11</title>
<path fill="none" stroke="orange" stroke-dasharray="5,2" d="M40.69,-163.67C43.04,-129.84 53.14,-61.21 96,-28.39 136.89,2.93 198.07,2.36 240.32,-3.07"/>
<polygon fill="orange" stroke="orange" points="37.19,-163.54 40.15,-173.71 44.18,-163.91 37.19,-163.54"/>
<text text-anchor="middle" x="145.5" y="-31.39" font-family="Helvetica,sans-Serif" font-size="10.00"> &lt; Value &gt;</text>
</g>
</g>
</svg>
