<?xml version="1.0" encoding="UTF-8" standalone="no"?>
<!DOCTYPE svg PUBLIC "-//W3C//DTD SVG 1.1//EN"
 "http://www.w3.org/Graphics/SVG/1.1/DTD/svg11.dtd">
<!-- Generated by graphviz version 2.44.0 ()
 -->
<!-- Title: v8::Isolate::CreateParams Pages: 1 -->
<svg width="891pt" height="223pt"
 viewBox="0.00 0.00 891.00 222.50" xmlns="http://www.w3.org/2000/svg" xmlns:xlink="http://www.w3.org/1999/xlink">
<g id="graph0" class="graph" transform="scale(1 1) rotate(0) translate(4 218.5)">
<title>v8::Isolate::CreateParams</title>
<polygon fill="white" stroke="transparent" points="-4,4 -4,-218.5 887,-218.5 887,4 -4,4"/>
<!-- Node1 -->
<g id="node1" class="node">
<title>Node1</title>
<g id="a_node1"><a xlink:title=" ">
<polygon fill="#bfbfbf" stroke="black" points="755,-107 755,-126 883,-126 883,-107 755,-107"/>
<text text-anchor="middle" x="819" y="-114" font-family="Helvetica,sans-Serif" font-size="10.00">v8::Isolate::CreateParams</text>
</a>
</g>
</g>
<!-- Node2 -->
<g id="node2" class="node">
<title>Node2</title>
<g id="a_node2"><a xlink:href="classv8_1_1ArrayBuffer_1_1Allocator.html" target="_top" xlink:title=" ">
<polygon fill="white" stroke="black" points="502,-195 502,-214 624,-214 624,-195 502,-195"/>
<text text-anchor="middle" x="563" y="-202" font-family="Helvetica,sans-Serif" font-size="10.00">v8::ArrayBuffer::Allocator</text>
</a>
</g>
</g>
<!-- Node2&#45;&gt;Node1 -->
<g id="edge1" class="edge">
<title>Node2&#45;&gt;Node1</title>
<path fill="none" stroke="#9a32cd" stroke-dasharray="5,2" d="M634.4,-193.32C666.41,-186.96 704.34,-177.59 737,-164.5 762.34,-154.35 789.09,-137.01 804.63,-126.19"/>
<polygon fill="#9a32cd" stroke="#9a32cd" points="633.39,-189.95 624.23,-195.28 634.71,-196.83 633.39,-189.95"/>
<text text-anchor="middle" x="689.5" y="-193.5" font-family="Helvetica,sans-Serif" font-size="10.00"> array_buffer_allocator</text>
</g>
<!-- Node3 -->
<g id="node3" class="node">
<title>Node3</title>
<g id="a_node3"><a xlink:href="classv8_1_1ResourceConstraints.html" target="_top" xlink:title=" ">
<polygon fill="white" stroke="black" points="502,-157 502,-176 624,-176 624,-157 502,-157"/>
<text text-anchor="middle" x="563" y="-164" font-family="Helvetica,sans-Serif" font-size="10.00">v8::ResourceConstraints</text>
</a>
</g>
</g>
<!-- Node3&#45;&gt;Node1 -->
<g id="edge2" class="edge">
<title>Node3&#45;&gt;Node1</title>
<path fill="none" stroke="#9a32cd" stroke-dasharray="5,2" d="M622.47,-154.99C666.97,-146.23 727.5,-134.31 769.37,-126.07"/>
<polygon fill="#9a32cd" stroke="#9a32cd" points="621.51,-151.61 612.37,-156.98 622.86,-158.48 621.51,-151.61"/>
<text text-anchor="middle" x="689.5" y="-152.5" font-family="Helvetica,sans-Serif" font-size="10.00"> constraints</text>
</g>
<!-- Node4 -->
<g id="node4" class="node">
<title>Node4</title>
<g id="a_node4"><a xlink:href="classv8_1_1Local.html" target="_top" xlink:title=" ">
<polygon fill="white" stroke="black" points="383,-119 383,-138 484,-138 484,-119 383,-119"/>
<text text-anchor="middle" x="433.5" y="-126" font-family="Helvetica,sans-Serif" font-size="10.00">v8::Local&lt; Object &gt;</text>
</a>
</g>
</g>
<!-- Node4&#45;&gt;Node1 -->
<g id="edge3" class="edge">
<title>Node4&#45;&gt;Node1</title>
<path fill="none" stroke="#9a32cd" stroke-dasharray="5,2" d="M494.33,-125.79C496.92,-125.69 499.49,-125.59 502,-125.5 589.62,-122.31 690.94,-119.59 754.74,-118.01"/>
<polygon fill="#9a32cd" stroke="#9a32cd" points="494.11,-122.3 484.26,-126.2 494.39,-129.29 494.11,-122.3"/>
<text text-anchor="start" x="520.5" y="-139.5" font-family="Helvetica,sans-Serif" font-size="10.00"> deserialize_internal</text>
<text text-anchor="middle" x="563" y="-128.5" font-family="Helvetica,sans-Serif" font-size="10.00">_fields_callback</text>
</g>
<!-- Node5 -->
<g id="node5" class="node">
<title>Node5</title>
<g id="a_node5"><a xlink:href="classv8_1_1Local.html" target="_top" xlink:title=" ">
<polygon fill="white" stroke="black" points="0,-107 0,-126 78,-126 78,-107 0,-107"/>
<text text-anchor="middle" x="39" y="-114" font-family="Helvetica,sans-Serif" font-size="10.00">v8::Local&lt; T &gt;</text>
</a>
</g>
</g>
<!-- Node5&#45;&gt;Node4 -->
<g id="edge4" class="edge">
<title>Node5&#45;&gt;Node4</title>
<path fill="none" stroke="orange" stroke-dasharray="5,2" d="M88.48,-117.98C163.58,-120.28 307.28,-124.67 383,-126.99"/>
<polygon fill="orange" stroke="orange" points="88.45,-114.48 78.35,-117.67 88.24,-121.48 88.45,-114.48"/>
<text text-anchor="middle" x="145.5" y="-123.5" font-family="Helvetica,sans-Serif" font-size="10.00"> &lt; Object &gt;</text>
</g>
<!-- Node10 -->
<g id="node10" class="node">
<title>Node10</title>
<g id="a_node10"><a xlink:href="classv8_1_1Local.html" target="_top" xlink:title=" ">
<polygon fill="white" stroke="black" points="213,-88 213,-107 365,-107 365,-88 213,-88"/>
<text text-anchor="middle" x="289" y="-95" font-family="Helvetica,sans-Serif" font-size="10.00">v8::Local&lt; v8::UnboundScript &gt;</text>
</a>
</g>
</g>
<!-- Node5&#45;&gt;Node10 -->
<g id="edge10" class="edge">
<title>Node5&#45;&gt;Node10</title>
<path fill="none" stroke="orange" stroke-dasharray="5,2" d="M83,-104.75C87.37,-103.85 91.76,-103.08 96,-102.5 134.33,-97.27 177.34,-95.76 212.93,-95.66"/>
<polygon fill="orange" stroke="orange" points="81.93,-101.4 72.93,-107 83.45,-108.23 81.93,-101.4"/>
<text text-anchor="middle" x="145.5" y="-105.5" font-family="Helvetica,sans-Serif" font-size="10.00"> &lt; v8::UnboundScript &gt;</text>
</g>
<!-- Node6 -->
<g id="node6" class="node">
<title>Node6</title>
<g id="a_node6"><a xlink:href="classv8_1_1StartupData.html" target="_top" xlink:title=" ">
<polygon fill="white" stroke="black" points="521.5,-23 521.5,-42 604.5,-42 604.5,-23 521.5,-23"/>
<text text-anchor="middle" x="563" y="-30" font-family="Helvetica,sans-Serif" font-size="10.00">v8::StartupData</text>
</a>
</g>
</g>
<!-- Node6&#45;&gt;Node1 -->
<g id="edge5" class="edge">
<title>Node6&#45;&gt;Node1</title>
<path fill="none" stroke="#9a32cd" stroke-dasharray="5,2" d="M614.91,-35.28C650.22,-38.57 697.77,-45.77 737,-61.5 764.61,-72.57 792.32,-94.21 807.1,-106.79"/>
<polygon fill="#9a32cd" stroke="#9a32cd" points="615.09,-31.78 604.83,-34.41 614.49,-38.76 615.09,-31.78"/>
<text text-anchor="middle" x="689.5" y="-64.5" font-family="Helvetica,sans-Serif" font-size="10.00"> snapshot_blob</text>
</g>
<!-- Node7 -->
<g id="node7" class="node">
<title>Node7</title>
<g id="a_node7"><a xlink:href="structv8_1_1JitCodeEvent.html" target="_top" xlink:title=" ">
<polygon fill="white" stroke="black" points="518.5,-61 518.5,-80 607.5,-80 607.5,-61 518.5,-61"/>
<text text-anchor="middle" x="563" y="-68" font-family="Helvetica,sans-Serif" font-size="10.00">v8::JitCodeEvent</text>
</a>
</g>
</g>
<!-- Node7&#45;&gt;Node1 -->
<g id="edge6" class="edge">
<title>Node7&#45;&gt;Node1</title>
<path fill="none" stroke="#9a32cd" stroke-dasharray="5,2" d="M618.01,-74.56C652.34,-77.75 697.58,-83.09 737,-91.5 755.42,-95.43 775.67,-101.68 791.32,-106.95"/>
<polygon fill="#9a32cd" stroke="#9a32cd" points="618,-71.04 607.72,-73.63 617.37,-78.01 618,-71.04"/>
<text text-anchor="middle" x="689.5" y="-94.5" font-family="Helvetica,sans-Serif" font-size="10.00"> code_event_handler</text>
</g>
<!-- Node8 -->
<g id="node8" class="node">
<title>Node8</title>
<g id="a_node8"><a xlink:href="structv8_1_1JitCodeEvent_1_1name__t.html" target="_top" xlink:title=" ">
<polygon fill="white" stroke="black" points="226,-50 226,-69 352,-69 352,-50 226,-50"/>
<text text-anchor="middle" x="289" y="-57" font-family="Helvetica,sans-Serif" font-size="10.00">v8::JitCodeEvent::name_t</text>
</a>
</g>
</g>
<!-- Node8&#45;&gt;Node7 -->
<g id="edge7" class="edge">
<title>Node8&#45;&gt;Node7</title>
<path fill="none" stroke="#9a32cd" stroke-dasharray="5,2" d="M362.15,-59.13C398.69,-59.32 443.74,-60.13 484,-62.5 495.14,-63.16 507.15,-64.21 518.33,-65.35"/>
<polygon fill="#9a32cd" stroke="#9a32cd" points="362.1,-55.63 352.08,-59.09 362.07,-62.63 362.1,-55.63"/>
<text text-anchor="middle" x="433.5" y="-65.5" font-family="Helvetica,sans-Serif" font-size="10.00"> name</text>
</g>
<!-- Node9 -->
<g id="node9" class="node">
<title>Node9</title>
<g id="a_node9"><a xlink:href="structv8_1_1JitCodeEvent_1_1line__info__t.html" target="_top" xlink:title=" ">
<polygon fill="white" stroke="black" points="234.5,-0.5 234.5,-30.5 343.5,-30.5 343.5,-0.5 234.5,-0.5"/>
<text text-anchor="start" x="242.5" y="-18.5" font-family="Helvetica,sans-Serif" font-size="10.00">v8::JitCodeEvent::line</text>
<text text-anchor="middle" x="289" y="-7.5" font-family="Helvetica,sans-Serif" font-size="10.00">_info_t</text>
</a>
</g>
</g>
<!-- Node9&#45;&gt;Node7 -->
<g id="edge8" class="edge">
<title>Node9&#45;&gt;Node7</title>
<path fill="none" stroke="#9a32cd" stroke-dasharray="5,2" d="M353.53,-20.23C391.86,-24.17 441.38,-31.21 484,-43.5 492.41,-45.93 493.81,-48.4 502,-51.5 510.89,-54.87 520.67,-58.14 529.7,-61"/>
<polygon fill="#9a32cd" stroke="#9a32cd" points="353.82,-16.74 343.53,-19.25 353.14,-23.71 353.82,-16.74"/>
<text text-anchor="middle" x="433.5" y="-46.5" font-family="Helvetica,sans-Serif" font-size="10.00"> line_info</text>
</g>
<!-- Node10&#45;&gt;Node7 -->
<g id="edge9" class="edge">
<title>Node10&#45;&gt;Node7</title>
<path fill="none" stroke="#9a32cd" stroke-dasharray="5,2" d="M375.02,-89.06C422.49,-84.35 479.65,-78.67 518.17,-74.85"/>
<polygon fill="#9a32cd" stroke="#9a32cd" points="374.65,-85.58 365.05,-90.05 375.34,-92.55 374.65,-85.58"/>
<text text-anchor="middle" x="433.5" y="-90.5" font-family="Helvetica,sans-Serif" font-size="10.00"> script</text>
</g>
</g>
</svg>
