<?xml version="1.0" encoding="UTF-8" standalone="no"?>
<!DOCTYPE svg PUBLIC "-//W3C//DTD SVG 1.1//EN"
 "http://www.w3.org/Graphics/SVG/1.1/DTD/svg11.dtd">
<!-- Generated by graphviz version 2.44.0 ()
 -->
<!-- Title: include/v8&#45;util.h Pages: 1 -->
<svg width="543pt" height="140pt"
 viewBox="0.00 0.00 542.50 140.00" xmlns="http://www.w3.org/2000/svg" xmlns:xlink="http://www.w3.org/1999/xlink">
<g id="graph0" class="graph" transform="scale(1 1) rotate(0) translate(4 136)">
<title>include/v8&#45;util.h</title>
<polygon fill="white" stroke="transparent" points="-4,4 -4,-136 538.5,-136 538.5,4 -4,4"/>
<!-- Node1 -->
<g id="node1" class="node">
<title>Node1</title>
<g id="a_node1"><a xlink:title=" ">
<polygon fill="#bfbfbf" stroke="black" points="380.5,-112.5 380.5,-131.5 464.5,-131.5 464.5,-112.5 380.5,-112.5"/>
<text text-anchor="middle" x="422.5" y="-119.5" font-family="Helvetica,sans-Serif" font-size="10.00">include/v8&#45;util.h</text>
</a>
</g>
</g>
<!-- Node2 -->
<g id="node2" class="node">
<title>Node2</title>
<g id="a_node2"><a xlink:href="v8_8h.html" target="_top" xlink:title=" ">
<polygon fill="white" stroke="black" points="270,-56.5 270,-75.5 305,-75.5 305,-56.5 270,-56.5"/>
<text text-anchor="middle" x="287.5" y="-63.5" font-family="Helvetica,sans-Serif" font-size="10.00">v8.h</text>
</a>
</g>
</g>
<!-- Node1&#45;&gt;Node2 -->
<g id="edge1" class="edge">
<title>Node1&#45;&gt;Node2</title>
<path fill="none" stroke="midnightblue" d="M401.11,-112.44C377.74,-103.1 340.26,-88.1 314.79,-77.92"/>
<polygon fill="midnightblue" stroke="midnightblue" points="315.93,-74.6 305.34,-74.14 313.33,-81.1 315.93,-74.6"/>
</g>
<!-- Node8 -->
<g id="node8" class="node">
<title>Node8</title>
<g id="a_node8"><a xlink:title=" ">
<polygon fill="white" stroke="#bfbfbf" points="490.5,-0.5 490.5,-19.5 534.5,-19.5 534.5,-0.5 490.5,-0.5"/>
<text text-anchor="middle" x="512.5" y="-7.5" font-family="Helvetica,sans-Serif" font-size="10.00">vector</text>
</a>
</g>
</g>
<!-- Node1&#45;&gt;Node8 -->
<g id="edge11" class="edge">
<title>Node1&#45;&gt;Node8</title>
<path fill="none" stroke="midnightblue" d="M423.29,-112.14C424.88,-98.75 429.51,-73.12 442.5,-56 452.79,-42.44 468.43,-31.83 482.32,-24.33"/>
<polygon fill="midnightblue" stroke="midnightblue" points="484.24,-27.28 491.57,-19.63 481.07,-21.04 484.24,-27.28"/>
</g>
<!-- Node11 -->
<g id="node11" class="node">
<title>Node11</title>
<g id="a_node11"><a xlink:title=" ">
<polygon fill="white" stroke="#bfbfbf" points="451,-56.5 451,-75.5 486,-75.5 486,-56.5 451,-56.5"/>
<text text-anchor="middle" x="468.5" y="-63.5" font-family="Helvetica,sans-Serif" font-size="10.00">map</text>
</a>
</g>
</g>
<!-- Node1&#45;&gt;Node11 -->
<g id="edge10" class="edge">
<title>Node1&#45;&gt;Node11</title>
<path fill="none" stroke="midnightblue" d="M430.1,-112.08C436.73,-104.3 446.52,-92.8 454.56,-83.37"/>
<polygon fill="midnightblue" stroke="midnightblue" points="457.23,-85.63 461.05,-75.75 451.9,-81.09 457.23,-85.63"/>
</g>
<!-- Node3 -->
<g id="node3" class="node">
<title>Node3</title>
<g id="a_node3"><a xlink:title=" ">
<polygon fill="white" stroke="#bfbfbf" points="0,-0.5 0,-19.5 51,-19.5 51,-0.5 0,-0.5"/>
<text text-anchor="middle" x="25.5" y="-7.5" font-family="Helvetica,sans-Serif" font-size="10.00">stddef.h</text>
</a>
</g>
</g>
<!-- Node2&#45;&gt;Node3 -->
<g id="edge2" class="edge">
<title>Node2&#45;&gt;Node3</title>
<path fill="none" stroke="midnightblue" d="M269.77,-61.83C232.9,-55.18 145.1,-38.95 61.04,-20.01"/>
<polygon fill="midnightblue" stroke="midnightblue" points="61.6,-16.55 51.07,-17.75 60.05,-23.38 61.6,-16.55"/>
</g>
<!-- Node4 -->
<g id="node4" class="node">
<title>Node4</title>
<g id="a_node4"><a xlink:title=" ">
<polygon fill="white" stroke="#bfbfbf" points="69.5,-0.5 69.5,-19.5 117.5,-19.5 117.5,-0.5 69.5,-0.5"/>
<text text-anchor="middle" x="93.5" y="-7.5" font-family="Helvetica,sans-Serif" font-size="10.00">stdint.h</text>
</a>
</g>
</g>
<!-- Node2&#45;&gt;Node4 -->
<g id="edge3" class="edge">
<title>Node2&#45;&gt;Node4</title>
<path fill="none" stroke="midnightblue" d="M269.94,-60.11C237.8,-51.17 169,-32.02 127.45,-20.45"/>
<polygon fill="midnightblue" stroke="midnightblue" points="128.33,-17.06 117.76,-17.75 126.45,-23.81 128.33,-17.06"/>
</g>
<!-- Node5 -->
<g id="node5" class="node">
<title>Node5</title>
<g id="a_node5"><a xlink:title=" ">
<polygon fill="white" stroke="#bfbfbf" points="136,-0.5 136,-19.5 181,-19.5 181,-0.5 136,-0.5"/>
<text text-anchor="middle" x="158.5" y="-7.5" font-family="Helvetica,sans-Serif" font-size="10.00">stdio.h</text>
</a>
</g>
</g>
<!-- Node2&#45;&gt;Node5 -->
<g id="edge4" class="edge">
<title>Node2&#45;&gt;Node5</title>
<path fill="none" stroke="midnightblue" d="M269.83,-57.6C248.88,-48.83 213.61,-34.07 188.39,-23.51"/>
<polygon fill="midnightblue" stroke="midnightblue" points="189.5,-20.18 178.93,-19.55 186.8,-26.64 189.5,-20.18"/>
</g>
<!-- Node6 -->
<g id="node6" class="node">
<title>Node6</title>
<g id="a_node6"><a xlink:title=" ">
<polygon fill="white" stroke="#bfbfbf" points="199,-0.5 199,-19.5 250,-19.5 250,-0.5 199,-0.5"/>
<text text-anchor="middle" x="224.5" y="-7.5" font-family="Helvetica,sans-Serif" font-size="10.00">memory</text>
</a>
</g>
</g>
<!-- Node2&#45;&gt;Node6 -->
<g id="edge5" class="edge">
<title>Node2&#45;&gt;Node6</title>
<path fill="none" stroke="midnightblue" d="M277.38,-56.32C267.97,-48.26 253.76,-36.08 242.43,-26.37"/>
<polygon fill="midnightblue" stroke="midnightblue" points="244.68,-23.68 234.81,-19.83 240.12,-29 244.68,-23.68"/>
</g>
<!-- Node7 -->
<g id="node7" class="node">
<title>Node7</title>
<g id="a_node7"><a xlink:title=" ">
<polygon fill="white" stroke="#bfbfbf" points="268,-0.5 268,-19.5 307,-19.5 307,-0.5 268,-0.5"/>
<text text-anchor="middle" x="287.5" y="-7.5" font-family="Helvetica,sans-Serif" font-size="10.00">utility</text>
</a>
</g>
</g>
<!-- Node2&#45;&gt;Node7 -->
<g id="edge6" class="edge">
<title>Node2&#45;&gt;Node7</title>
<path fill="none" stroke="midnightblue" d="M287.5,-56.08C287.5,-49.01 287.5,-38.86 287.5,-29.99"/>
<polygon fill="midnightblue" stroke="midnightblue" points="291,-29.75 287.5,-19.75 284,-29.75 291,-29.75"/>
</g>
<!-- Node2&#45;&gt;Node8 -->
<g id="edge7" class="edge">
<title>Node2&#45;&gt;Node8</title>
<path fill="none" stroke="midnightblue" d="M305.23,-61.23C337.92,-54.2 410.06,-38.36 480.3,-20.21"/>
<polygon fill="midnightblue" stroke="midnightblue" points="481.39,-23.54 490.19,-17.64 479.63,-16.77 481.39,-23.54"/>
</g>
<!-- Node9 -->
<g id="node9" class="node">
<title>Node9</title>
<g id="a_node9"><a xlink:href="v8-version_8h.html" target="_top" xlink:title=" ">
<polygon fill="white" stroke="black" points="325,-0.5 325,-19.5 394,-19.5 394,-0.5 325,-0.5"/>
<text text-anchor="middle" x="359.5" y="-7.5" font-family="Helvetica,sans-Serif" font-size="10.00">v8&#45;version.h</text>
</a>
</g>
</g>
<!-- Node2&#45;&gt;Node9 -->
<g id="edge8" class="edge">
<title>Node2&#45;&gt;Node9</title>
<path fill="none" stroke="midnightblue" d="M299.07,-56.32C309.92,-48.18 326.38,-35.84 339.38,-26.09"/>
<polygon fill="midnightblue" stroke="midnightblue" points="341.82,-28.63 347.72,-19.83 337.62,-23.03 341.82,-28.63"/>
</g>
<!-- Node10 -->
<g id="node10" class="node">
<title>Node10</title>
<g id="a_node10"><a xlink:href="v8config_8h.html" target="_top" xlink:title=" ">
<polygon fill="white" stroke="black" points="412.5,-0.5 412.5,-19.5 472.5,-19.5 472.5,-0.5 412.5,-0.5"/>
<text text-anchor="middle" x="442.5" y="-7.5" font-family="Helvetica,sans-Serif" font-size="10.00">v8config.h</text>
</a>
</g>
</g>
<!-- Node2&#45;&gt;Node10 -->
<g id="edge9" class="edge">
<title>Node2&#45;&gt;Node10</title>
<path fill="none" stroke="midnightblue" d="M305.28,-58.81C330.32,-50.08 376.47,-34 408.29,-22.92"/>
<polygon fill="midnightblue" stroke="midnightblue" points="409.78,-26.11 418.07,-19.51 407.48,-19.5 409.78,-26.11"/>
</g>
</g>
</svg>
