<?xml version="1.0" encoding="UTF-8" standalone="no"?>
<!DOCTYPE svg PUBLIC "-//W3C//DTD SVG 1.1//EN"
 "http://www.w3.org/Graphics/SVG/1.1/DTD/svg11.dtd">
<!-- Generated by graphviz version 2.44.0 ()
 -->
<!-- Title: include/v8&#45;version.h Pages: 1 -->
<svg width="720pt" height="207pt"
 viewBox="0.00 0.00 720.00 207.00" xmlns="http://www.w3.org/2000/svg" xmlns:xlink="http://www.w3.org/1999/xlink">
<g id="graph0" class="graph" transform="scale(1 1) rotate(0) translate(4 203)">
<title>include/v8&#45;version.h</title>
<polygon fill="white" stroke="transparent" points="-4,4 -4,-203 716,-203 716,4 -4,4"/>
<!-- Node1 -->
<g id="node1" class="node">
<title>Node1</title>
<g id="a_node1"><a xlink:title=" ">
<polygon fill="#bfbfbf" stroke="black" points="326.5,-179.5 326.5,-198.5 429.5,-198.5 429.5,-179.5 326.5,-179.5"/>
<text text-anchor="middle" x="378" y="-186.5" font-family="Helvetica,sans-Serif" font-size="10.00">include/v8&#45;version.h</text>
</a>
</g>
</g>
<!-- Node2 -->
<g id="node2" class="node">
<title>Node2</title>
<g id="a_node2"><a xlink:href="v8_8h.html" target="_top" xlink:title=" ">
<polygon fill="white" stroke="black" points="344,-123.5 344,-142.5 412,-142.5 412,-123.5 344,-123.5"/>
<text text-anchor="middle" x="378" y="-130.5" font-family="Helvetica,sans-Serif" font-size="10.00">include/v8.h</text>
</a>
</g>
</g>
<!-- Node1&#45;&gt;Node2 -->
<g id="edge1" class="edge">
<title>Node1&#45;&gt;Node2</title>
<path fill="none" stroke="midnightblue" d="M378,-168.8C378,-159.91 378,-149.78 378,-142.75"/>
<polygon fill="midnightblue" stroke="midnightblue" points="374.5,-169.08 378,-179.08 381.5,-169.08 374.5,-169.08"/>
</g>
<!-- Node3 -->
<g id="node3" class="node">
<title>Node3</title>
<g id="a_node3"><a xlink:href="v8-debug_8h.html" target="_top" xlink:title=" ">
<polygon fill="white" stroke="black" points="0,-67.5 0,-86.5 98,-86.5 98,-67.5 0,-67.5"/>
<text text-anchor="middle" x="49" y="-74.5" font-family="Helvetica,sans-Serif" font-size="10.00">include/v8&#45;debug.h</text>
</a>
</g>
</g>
<!-- Node2&#45;&gt;Node3 -->
<g id="edge2" class="edge">
<title>Node2&#45;&gt;Node3</title>
<path fill="none" stroke="midnightblue" d="M333.58,-124.71C272.21,-114.64 161.84,-96.52 98.09,-86.06"/>
<polygon fill="midnightblue" stroke="midnightblue" points="333.29,-128.21 343.72,-126.37 334.42,-121.3 333.29,-128.21"/>
</g>
<!-- Node4 -->
<g id="node4" class="node">
<title>Node4</title>
<g id="a_node4"><a xlink:href="v8-experimental_8h.html" target="_top" xlink:title=" ">
<polygon fill="white" stroke="black" points="116,-67.5 116,-86.5 242,-86.5 242,-67.5 116,-67.5"/>
<text text-anchor="middle" x="179" y="-74.5" font-family="Helvetica,sans-Serif" font-size="10.00">include/v8&#45;experimental.h</text>
</a>
</g>
</g>
<!-- Node2&#45;&gt;Node4 -->
<g id="edge3" class="edge">
<title>Node2&#45;&gt;Node4</title>
<path fill="none" stroke="midnightblue" d="M336.35,-120.7C298.79,-110.51 244.39,-95.74 210.38,-86.52"/>
<polygon fill="midnightblue" stroke="midnightblue" points="335.9,-124.2 346.47,-123.44 337.73,-117.45 335.9,-124.2"/>
</g>
<!-- Node5 -->
<g id="node5" class="node">
<title>Node5</title>
<g id="a_node5"><a xlink:href="v8-inspector_8h.html" target="_top" xlink:title=" ">
<polygon fill="white" stroke="black" points="260.5,-67.5 260.5,-86.5 371.5,-86.5 371.5,-67.5 260.5,-67.5"/>
<text text-anchor="middle" x="316" y="-74.5" font-family="Helvetica,sans-Serif" font-size="10.00">include/v8&#45;inspector.h</text>
</a>
</g>
</g>
<!-- Node2&#45;&gt;Node5 -->
<g id="edge4" class="edge">
<title>Node2&#45;&gt;Node5</title>
<path fill="none" stroke="midnightblue" d="M360.25,-116.54C349.19,-106.91 335.37,-94.87 326.14,-86.83"/>
<polygon fill="midnightblue" stroke="midnightblue" points="358.2,-119.4 368.04,-123.32 362.8,-114.12 358.2,-119.4"/>
</g>
<!-- Node7 -->
<g id="node7" class="node">
<title>Node7</title>
<g id="a_node7"><a xlink:href="v8-profiler_8h.html" target="_top" xlink:title=" ">
<polygon fill="white" stroke="black" points="390,-67.5 390,-86.5 490,-86.5 490,-67.5 390,-67.5"/>
<text text-anchor="middle" x="440" y="-74.5" font-family="Helvetica,sans-Serif" font-size="10.00">include/v8&#45;profiler.h</text>
</a>
</g>
</g>
<!-- Node2&#45;&gt;Node7 -->
<g id="edge6" class="edge">
<title>Node2&#45;&gt;Node7</title>
<path fill="none" stroke="midnightblue" d="M395.75,-116.54C406.81,-106.91 420.63,-94.87 429.86,-86.83"/>
<polygon fill="midnightblue" stroke="midnightblue" points="393.2,-114.12 387.96,-123.32 397.8,-119.4 393.2,-114.12"/>
</g>
<!-- Node8 -->
<g id="node8" class="node">
<title>Node8</title>
<g id="a_node8"><a xlink:href="v8-testing_8h.html" target="_top" xlink:title=" ">
<polygon fill="white" stroke="black" points="508.5,-67.5 508.5,-86.5 609.5,-86.5 609.5,-67.5 508.5,-67.5"/>
<text text-anchor="middle" x="559" y="-74.5" font-family="Helvetica,sans-Serif" font-size="10.00">include/v8&#45;testing.h</text>
</a>
</g>
</g>
<!-- Node2&#45;&gt;Node8 -->
<g id="edge7" class="edge">
<title>Node2&#45;&gt;Node8</title>
<path fill="none" stroke="midnightblue" d="M416.32,-120.57C450.46,-110.38 499.66,-95.7 530.45,-86.52"/>
<polygon fill="midnightblue" stroke="midnightblue" points="415.26,-117.23 406.68,-123.44 417.26,-123.94 415.26,-117.23"/>
</g>
<!-- Node9 -->
<g id="node9" class="node">
<title>Node9</title>
<g id="a_node9"><a xlink:href="v8-util_8h.html" target="_top" xlink:title=" ">
<polygon fill="white" stroke="black" points="628,-67.5 628,-86.5 712,-86.5 712,-67.5 628,-67.5"/>
<text text-anchor="middle" x="670" y="-74.5" font-family="Helvetica,sans-Serif" font-size="10.00">include/v8&#45;util.h</text>
</a>
</g>
</g>
<!-- Node2&#45;&gt;Node9 -->
<g id="edge8" class="edge">
<title>Node2&#45;&gt;Node9</title>
<path fill="none" stroke="midnightblue" d="M421.98,-123.87C477.63,-113.58 572.82,-95.97 627.67,-85.83"/>
<polygon fill="midnightblue" stroke="midnightblue" points="421.26,-120.44 412.07,-125.7 422.54,-127.32 421.26,-120.44"/>
</g>
<!-- Node6 -->
<g id="node6" class="node">
<title>Node6</title>
<g id="a_node6"><a xlink:href="v8-inspector-protocol_8h.html" target="_top" xlink:title=" ">
<polygon fill="white" stroke="black" points="264,-0.5 264,-30.5 368,-30.5 368,-0.5 264,-0.5"/>
<text text-anchor="start" x="272" y="-18.5" font-family="Helvetica,sans-Serif" font-size="10.00">include/v8&#45;inspector</text>
<text text-anchor="middle" x="316" y="-7.5" font-family="Helvetica,sans-Serif" font-size="10.00">&#45;protocol.h</text>
</a>
</g>
</g>
<!-- Node5&#45;&gt;Node6 -->
<g id="edge5" class="edge">
<title>Node5&#45;&gt;Node6</title>
<path fill="none" stroke="midnightblue" d="M316,-57.23C316,-48.59 316,-38.5 316,-30.52"/>
<polygon fill="midnightblue" stroke="midnightblue" points="312.5,-57.48 316,-67.48 319.5,-57.48 312.5,-57.48"/>
</g>
</g>
</svg>
