<?xml version="1.0" encoding="UTF-8" standalone="no"?>
<!DOCTYPE svg PUBLIC "-//W3C//DTD SVG 1.1//EN"
 "http://www.w3.org/Graphics/SVG/1.1/DTD/svg11.dtd">
<!-- Generated by graphviz version 2.44.0 ()
 -->
<!-- Title: v8::Isolate::GetCurrent Pages: 1 -->
<svg width="321pt" height="671pt"
 viewBox="0.00 0.00 321.00 670.50" xmlns="http://www.w3.org/2000/svg" xmlns:xlink="http://www.w3.org/1999/xlink">
<g id="graph0" class="graph" transform="scale(1 1) rotate(0) translate(4 666.5)">
<title>v8::Isolate::GetCurrent</title>
<polygon fill="white" stroke="transparent" points="-4,4 -4,-666.5 317,-666.5 317,4 -4,4"/>
<!-- Node1 -->
<g id="node1" class="node">
<title>Node1</title>
<g id="a_node1"><a xlink:title=" ">
<polygon fill="#bfbfbf" stroke="black" points="200,-316 200,-335 313,-335 313,-316 200,-316"/>
<text text-anchor="middle" x="256.5" y="-323" font-family="Helvetica,sans-Serif" font-size="10.00">v8::Isolate::GetCurrent</text>
</a>
</g>
</g>
<!-- Node2 -->
<g id="node2" class="node">
<title>Node2</title>
<g id="a_node2"><a xlink:href="classv8_1_1V8.html#a8021e7accd9d5f739ecc0eff876f9f0f" target="_top" xlink:title=" ">
<polygon fill="white" stroke="black" points="12,-643 12,-662 152,-662 152,-643 12,-643"/>
<text text-anchor="middle" x="82" y="-650" font-family="Helvetica,sans-Serif" font-size="10.00">v8::V8::AddMessageListener</text>
</a>
</g>
</g>
<!-- Node1&#45;&gt;Node2 -->
<g id="edge1" class="edge">
<title>Node1&#45;&gt;Node2</title>
<path fill="none" stroke="midnightblue" d="M255.96,-345.38C256.07,-400.03 248.48,-553.81 164,-633.5 160.01,-637.27 155.42,-640.33 150.49,-642.83"/>
<polygon fill="midnightblue" stroke="midnightblue" points="259.46,-345.24 255.84,-335.28 252.46,-345.32 259.46,-345.24"/>
</g>
<!-- Node3 -->
<g id="node3" class="node">
<title>Node3</title>
<g id="a_node3"><a xlink:href="classv8_1_1V8.html#ae5af79b24fc62e987e08c43ee148424d" target="_top" xlink:title=" ">
<polygon fill="white" stroke="black" points="42.5,-605 42.5,-624 121.5,-624 121.5,-605 42.5,-605"/>
<text text-anchor="middle" x="82" y="-612" font-family="Helvetica,sans-Serif" font-size="10.00">v8::V8::IsDead</text>
</a>
</g>
</g>
<!-- Node1&#45;&gt;Node3 -->
<g id="edge2" class="edge">
<title>Node1&#45;&gt;Node3</title>
<path fill="none" stroke="midnightblue" d="M255,-345.24C252.61,-395.15 239.13,-527.28 164,-595.5 152.56,-605.89 136.53,-610.91 121.75,-613.24"/>
<polygon fill="midnightblue" stroke="midnightblue" points="258.5,-345.26 255.38,-335.14 251.5,-345 258.5,-345.26"/>
</g>
<!-- Node4 -->
<g id="node4" class="node">
<title>Node4</title>
<g id="a_node4"><a xlink:href="classv8_1_1V8.html#ac9336f620bc684ff6e3c68ee6f549d18" target="_top" xlink:title=" ">
<polygon fill="white" stroke="black" points="7.5,-567 7.5,-586 156.5,-586 156.5,-567 7.5,-567"/>
<text text-anchor="middle" x="82" y="-574" font-family="Helvetica,sans-Serif" font-size="10.00">v8::V8::IsExecutionTerminating</text>
</a>
</g>
</g>
<!-- Node1&#45;&gt;Node4 -->
<g id="edge3" class="edge">
<title>Node1&#45;&gt;Node4</title>
<path fill="none" stroke="midnightblue" d="M253.73,-345.45C248.61,-390.53 229.69,-500.72 164,-557.5 159.63,-561.28 154.65,-564.34 149.35,-566.82"/>
<polygon fill="midnightblue" stroke="midnightblue" points="257.24,-345.54 254.77,-335.24 250.27,-344.83 257.24,-345.54"/>
</g>
<!-- Node5 -->
<g id="node5" class="node">
<title>Node5</title>
<g id="a_node5"><a xlink:href="classv8_1_1V8.html#a103099e00d03c714261e00d75f0d745a" target="_top" xlink:title=" ">
<polygon fill="white" stroke="black" points="0,-529 0,-548 164,-548 164,-529 0,-529"/>
<text text-anchor="middle" x="82" y="-536" font-family="Helvetica,sans-Serif" font-size="10.00">v8::V8::RemoveMessageListeners</text>
</a>
</g>
</g>
<!-- Node1&#45;&gt;Node5 -->
<g id="edge4" class="edge">
<title>Node1&#45;&gt;Node5</title>
<path fill="none" stroke="midnightblue" d="M252.03,-345.4C244.04,-385 220.51,-473.78 164,-519.5 159.28,-523.32 153.93,-526.39 148.29,-528.87"/>
<polygon fill="midnightblue" stroke="midnightblue" points="255.5,-345.88 253.92,-335.4 248.62,-344.58 255.5,-345.88"/>
</g>
<!-- Node6 -->
<g id="node6" class="node">
<title>Node6</title>
<g id="a_node6"><a xlink:href="classv8_1_1V8.html#a6ed3c6cd32b8d225013445b145381d34" target="_top" xlink:title=" ">
<polygon fill="white" stroke="black" points="8.5,-479.5 8.5,-509.5 155.5,-509.5 155.5,-479.5 8.5,-479.5"/>
<text text-anchor="start" x="16.5" y="-497.5" font-family="Helvetica,sans-Serif" font-size="10.00">v8::V8::SetCaptureStackTrace</text>
<text text-anchor="middle" x="82" y="-486.5" font-family="Helvetica,sans-Serif" font-size="10.00">ForUncaughtExceptions</text>
</a>
</g>
</g>
<!-- Node1&#45;&gt;Node6 -->
<g id="edge5" class="edge">
<title>Node1&#45;&gt;Node6</title>
<path fill="none" stroke="midnightblue" d="M248.45,-345.02C236.19,-376.23 207.95,-437.23 164,-470.5 159.44,-473.95 154.39,-476.91 149.1,-479.44"/>
<polygon fill="midnightblue" stroke="midnightblue" points="251.86,-345.91 252.13,-335.32 245.31,-343.43 251.86,-345.91"/>
</g>
<!-- Node7 -->
<g id="node7" class="node">
<title>Node7</title>
<g id="a_node7"><a xlink:href="classv8_1_1V8.html#affcb65e1fdf849fadc6302655b981bbc" target="_top" xlink:title=" ">
<polygon fill="white" stroke="black" points="7,-430.5 7,-460.5 157,-460.5 157,-430.5 7,-430.5"/>
<text text-anchor="start" x="15" y="-448.5" font-family="Helvetica,sans-Serif" font-size="10.00">v8::V8::SetFailedAccessCheck</text>
<text text-anchor="middle" x="82" y="-437.5" font-family="Helvetica,sans-Serif" font-size="10.00">CallbackFunction</text>
</a>
</g>
</g>
<!-- Node1&#45;&gt;Node7 -->
<g id="edge6" class="edge">
<title>Node1&#45;&gt;Node7</title>
<path fill="none" stroke="midnightblue" d="M242.86,-343.32C226.84,-364.64 197.27,-400.02 164,-420.5 157.73,-424.36 150.82,-427.66 143.76,-430.48"/>
<polygon fill="midnightblue" stroke="midnightblue" points="245.78,-345.26 248.87,-335.12 240.13,-341.12 245.78,-345.26"/>
</g>
<!-- Node8 -->
<g id="node8" class="node">
<title>Node8</title>
<g id="a_node8"><a xlink:href="classv8_1_1V8.html#a290bf883bb4bf8f312089a23a628c067" target="_top" xlink:title=" ">
<polygon fill="white" stroke="black" points="12.5,-392 12.5,-411 151.5,-411 151.5,-392 12.5,-392"/>
<text text-anchor="middle" x="82" y="-399" font-family="Helvetica,sans-Serif" font-size="10.00">v8::V8::SetFatalErrorHandler</text>
</a>
</g>
</g>
<!-- Node1&#45;&gt;Node8 -->
<g id="edge7" class="edge">
<title>Node1&#45;&gt;Node8</title>
<path fill="none" stroke="midnightblue" d="M234.72,-341.22C216.84,-354.04 189.9,-371.74 164,-382.5 154.93,-386.27 144.96,-389.38 135.22,-391.91"/>
<polygon fill="midnightblue" stroke="midnightblue" points="237.19,-343.75 243.19,-335.02 233.05,-338.1 237.19,-343.75"/>
</g>
<!-- Node9 -->
<g id="node9" class="node">
<title>Node9</title>
<g id="a_node9"><a xlink:href="classv8_1_1Value.html#a155927c52d88aa0145a55484b3035171" target="_top" xlink:title=" ">
<polygon fill="white" stroke="black" points="28.5,-354 28.5,-373 135.5,-373 135.5,-354 28.5,-354"/>
<text text-anchor="middle" x="82" y="-361" font-family="Helvetica,sans-Serif" font-size="10.00">v8::Value::ToBoolean</text>
</a>
</g>
</g>
<!-- Node1&#45;&gt;Node9 -->
<g id="edge8" class="edge">
<title>Node1&#45;&gt;Node9</title>
<path fill="none" stroke="midnightblue" d="M202.15,-337.25C177.76,-342.63 149.24,-348.91 126.22,-353.98"/>
<polygon fill="midnightblue" stroke="midnightblue" points="202.96,-340.66 211.97,-335.09 201.45,-333.82 202.96,-340.66"/>
</g>
<!-- Node10 -->
<g id="node10" class="node">
<title>Node10</title>
<g id="a_node10"><a xlink:href="classv8_1_1Value.html#a252d8ff83acb9af12fca51f08cf855fc" target="_top" xlink:title=" ">
<polygon fill="white" stroke="black" points="21,-316 21,-335 143,-335 143,-316 21,-316"/>
<text text-anchor="middle" x="82" y="-323" font-family="Helvetica,sans-Serif" font-size="10.00">v8::Value::ToDetailString</text>
</a>
</g>
</g>
<!-- Node1&#45;&gt;Node10 -->
<g id="edge9" class="edge">
<title>Node1&#45;&gt;Node10</title>
<path fill="none" stroke="midnightblue" d="M189.58,-325.5C174.33,-325.5 158.19,-325.5 143.2,-325.5"/>
<polygon fill="midnightblue" stroke="midnightblue" points="189.97,-329 199.97,-325.5 189.97,-322 189.97,-329"/>
</g>
<!-- Node11 -->
<g id="node11" class="node">
<title>Node11</title>
<g id="a_node11"><a xlink:href="classv8_1_1Value.html#a9f0fbbd6cfd95af7b7d8e0ccc9cf75f2" target="_top" xlink:title=" ">
<polygon fill="white" stroke="black" points="35,-278 35,-297 129,-297 129,-278 35,-278"/>
<text text-anchor="middle" x="82" y="-285" font-family="Helvetica,sans-Serif" font-size="10.00">v8::Value::ToInt32</text>
</a>
</g>
</g>
<!-- Node1&#45;&gt;Node11 -->
<g id="edge10" class="edge">
<title>Node1&#45;&gt;Node11</title>
<path fill="none" stroke="midnightblue" d="M202.15,-313.75C177.76,-308.37 149.24,-302.09 126.22,-297.02"/>
<polygon fill="midnightblue" stroke="midnightblue" points="201.45,-317.18 211.97,-315.91 202.96,-310.34 201.45,-317.18"/>
</g>
<!-- Node12 -->
<g id="node12" class="node">
<title>Node12</title>
<g id="a_node12"><a xlink:href="classv8_1_1Value.html#a5d79bcfef2172049c6d0ecfe3a382323" target="_top" xlink:title=" ">
<polygon fill="white" stroke="black" points="31,-240 31,-259 133,-259 133,-240 31,-240"/>
<text text-anchor="middle" x="82" y="-247" font-family="Helvetica,sans-Serif" font-size="10.00">v8::Value::ToInteger</text>
</a>
</g>
</g>
<!-- Node1&#45;&gt;Node12 -->
<g id="edge11" class="edge">
<title>Node1&#45;&gt;Node12</title>
<path fill="none" stroke="midnightblue" d="M234.72,-309.78C216.84,-296.96 189.9,-279.26 164,-268.5 154.26,-264.45 143.49,-261.17 133.07,-258.54"/>
<polygon fill="midnightblue" stroke="midnightblue" points="233.05,-312.9 243.19,-315.98 237.19,-307.25 233.05,-312.9"/>
</g>
<!-- Node13 -->
<g id="node13" class="node">
<title>Node13</title>
<g id="a_node13"><a xlink:href="classv8_1_1Value.html#af11bb17e54339256ade5979779ccd218" target="_top" xlink:title=" ">
<polygon fill="white" stroke="black" points="28.5,-202 28.5,-221 135.5,-221 135.5,-202 28.5,-202"/>
<text text-anchor="middle" x="82" y="-209" font-family="Helvetica,sans-Serif" font-size="10.00">v8::Value::ToNumber</text>
</a>
</g>
</g>
<!-- Node1&#45;&gt;Node13 -->
<g id="edge12" class="edge">
<title>Node1&#45;&gt;Node13</title>
<path fill="none" stroke="midnightblue" d="M243.33,-307.63C227.6,-285.96 198.13,-249.92 164,-230.5 155.34,-225.57 145.46,-221.92 135.65,-219.21"/>
<polygon fill="midnightblue" stroke="midnightblue" points="240.58,-309.8 249.21,-315.95 246.3,-305.76 240.58,-309.8"/>
</g>
<!-- Node14 -->
<g id="node14" class="node">
<title>Node14</title>
<g id="a_node14"><a xlink:href="classv8_1_1Value.html#ac4c1254c7bd010dc8c307a3e9a771dc6" target="_top" xlink:title=" ">
<polygon fill="white" stroke="black" points="31.5,-164 31.5,-183 132.5,-183 132.5,-164 31.5,-164"/>
<text text-anchor="middle" x="82" y="-171" font-family="Helvetica,sans-Serif" font-size="10.00">v8::Value::ToObject</text>
</a>
</g>
</g>
<!-- Node1&#45;&gt;Node14 -->
<g id="edge13" class="edge">
<title>Node1&#45;&gt;Node14</title>
<path fill="none" stroke="midnightblue" d="M247.85,-306.51C235.06,-277.25 206.46,-221.5 164,-192.5 154.7,-186.15 143.54,-181.9 132.53,-179.07"/>
<polygon fill="midnightblue" stroke="midnightblue" points="244.74,-308.13 251.85,-315.99 251.19,-305.41 244.74,-308.13"/>
</g>
<!-- Node15 -->
<g id="node15" class="node">
<title>Node15</title>
<g id="a_node15"><a xlink:href="classv8_1_1Value.html#a1a61145878edc60ae25d5dc57bc44d6d" target="_top" xlink:title=" ">
<polygon fill="white" stroke="black" points="33,-126 33,-145 131,-145 131,-126 33,-126"/>
<text text-anchor="middle" x="82" y="-133" font-family="Helvetica,sans-Serif" font-size="10.00">v8::Value::ToString</text>
</a>
</g>
</g>
<!-- Node1&#45;&gt;Node15 -->
<g id="edge14" class="edge">
<title>Node1&#45;&gt;Node15</title>
<path fill="none" stroke="midnightblue" d="M250.84,-306.23C241.14,-270.48 215.3,-193.9 164,-154.5 154.61,-147.29 142.92,-142.74 131.37,-139.9"/>
<polygon fill="midnightblue" stroke="midnightblue" points="247.45,-307.13 253.34,-315.94 254.23,-305.38 247.45,-307.13"/>
</g>
<!-- Node16 -->
<g id="node16" class="node">
<title>Node16</title>
<g id="a_node16"><a xlink:href="classv8_1_1Value.html#a6607c42219918519b1a1ad31fcffafbb" target="_top" xlink:title=" ">
<polygon fill="white" stroke="black" points="31.5,-88 31.5,-107 132.5,-107 132.5,-88 31.5,-88"/>
<text text-anchor="middle" x="82" y="-95" font-family="Helvetica,sans-Serif" font-size="10.00">v8::Value::ToUint32</text>
</a>
</g>
</g>
<!-- Node1&#45;&gt;Node16 -->
<g id="edge15" class="edge">
<title>Node1&#45;&gt;Node16</title>
<path fill="none" stroke="midnightblue" d="M252.81,-305.82C246.02,-264.12 224.23,-166.64 164,-116.5 155.12,-109.11 143.88,-104.48 132.62,-101.61"/>
<polygon fill="midnightblue" stroke="midnightblue" points="249.36,-306.43 254.31,-315.8 256.28,-305.39 249.36,-306.43"/>
</g>
<!-- Node17 -->
<g id="node17" class="node">
<title>Node17</title>
<g id="a_node17"><a xlink:href="classv8_1_1V8.html#a7eb03e6ab4e2eca21632e55a4ad30061" target="_top" xlink:title=" ">
<polygon fill="white" stroke="black" points="7.5,-50 7.5,-69 156.5,-69 156.5,-50 7.5,-50"/>
<text text-anchor="middle" x="82" y="-57" font-family="Helvetica,sans-Serif" font-size="10.00">v8::V8::VisitExternalResources</text>
</a>
</g>
</g>
<!-- Node1&#45;&gt;Node17 -->
<g id="edge16" class="edge">
<title>Node1&#45;&gt;Node17</title>
<path fill="none" stroke="midnightblue" d="M254.29,-305.87C250.32,-258.99 233.52,-139.87 164,-78.5 159.67,-74.68 154.71,-71.58 149.43,-69.09"/>
<polygon fill="midnightblue" stroke="midnightblue" points="250.81,-306.21 255.04,-315.92 257.79,-305.69 250.81,-306.21"/>
</g>
<!-- Node18 -->
<g id="node18" class="node">
<title>Node18</title>
<g id="a_node18"><a xlink:href="classv8_1_1V8.html#a824fd99c5cbc7c576370c9ffeca233d4" target="_top" xlink:title=" ">
<polygon fill="white" stroke="black" points="20.5,-0.5 20.5,-30.5 143.5,-30.5 143.5,-0.5 20.5,-0.5"/>
<text text-anchor="start" x="28.5" y="-18.5" font-family="Helvetica,sans-Serif" font-size="10.00">v8::V8::VisitHandlesWith</text>
<text text-anchor="middle" x="82" y="-7.5" font-family="Helvetica,sans-Serif" font-size="10.00">ClassIds</text>
</a>
</g>
</g>
<!-- Node1&#45;&gt;Node18 -->
<g id="edge17" class="edge">
<title>Node1&#45;&gt;Node18</title>
<path fill="none" stroke="midnightblue" d="M255.1,-305.69C252.97,-254.35 240.1,-115.74 164,-40.5 158.24,-34.81 151.22,-30.41 143.75,-27.01"/>
<polygon fill="midnightblue" stroke="midnightblue" points="251.61,-305.89 255.42,-315.78 258.6,-305.67 251.61,-305.89"/>
</g>
</g>
</svg>
