<?xml version="1.0" encoding="UTF-8" standalone="no"?>
<!DOCTYPE svg PUBLIC "-//W3C//DTD SVG 1.1//EN"
 "http://www.w3.org/Graphics/SVG/1.1/DTD/svg11.dtd">
<!-- Generated by graphviz version 2.44.0 ()
 -->
<!-- Title: v8::Name Pages: 1 -->
<svg width="148pt" height="252pt"
 viewBox="0.00 0.00 147.50 252.00" xmlns="http://www.w3.org/2000/svg" xmlns:xlink="http://www.w3.org/1999/xlink">
<g id="graph0" class="graph" transform="scale(1 1) rotate(0) translate(4 248)">
<title>v8::Name</title>
<polygon fill="white" stroke="transparent" points="-4,4 -4,-248 143.5,-248 143.5,4 -4,4"/>
<!-- Node1 -->
<g id="node1" class="node">
<title>Node1</title>
<g id="a_node1"><a xlink:title=" ">
<polygon fill="#bfbfbf" stroke="black" points="38.5,-56.5 38.5,-75.5 96.5,-75.5 96.5,-56.5 38.5,-56.5"/>
<text text-anchor="middle" x="67.5" y="-63.5" font-family="Helvetica,sans-Serif" font-size="10.00">v8::Name</text>
</a>
</g>
</g>
<!-- Node5 -->
<g id="node5" class="node">
<title>Node5</title>
<g id="a_node5"><a xlink:href="classv8_1_1String.html" target="_top" xlink:title=" ">
<polygon fill="white" stroke="black" points="0,-0.5 0,-19.5 57,-19.5 57,-0.5 0,-0.5"/>
<text text-anchor="middle" x="28.5" y="-7.5" font-family="Helvetica,sans-Serif" font-size="10.00">v8::String</text>
</a>
</g>
</g>
<!-- Node1&#45;&gt;Node5 -->
<g id="edge4" class="edge">
<title>Node1&#45;&gt;Node5</title>
<path fill="none" stroke="midnightblue" d="M55.12,-47.86C48.36,-38.5 40.29,-27.33 34.82,-19.75"/>
<polygon fill="midnightblue" stroke="midnightblue" points="52.37,-50.03 61.06,-56.08 58.04,-45.93 52.37,-50.03"/>
</g>
<!-- Node6 -->
<g id="node6" class="node">
<title>Node6</title>
<g id="a_node6"><a xlink:href="classv8_1_1Symbol.html" target="_top" xlink:title=" ">
<polygon fill="white" stroke="black" points="75.5,-0.5 75.5,-19.5 139.5,-19.5 139.5,-0.5 75.5,-0.5"/>
<text text-anchor="middle" x="107.5" y="-7.5" font-family="Helvetica,sans-Serif" font-size="10.00">v8::Symbol</text>
</a>
</g>
</g>
<!-- Node1&#45;&gt;Node6 -->
<g id="edge5" class="edge">
<title>Node1&#45;&gt;Node6</title>
<path fill="none" stroke="midnightblue" d="M80.2,-47.86C87.13,-38.5 95.41,-27.33 101.02,-19.75"/>
<polygon fill="midnightblue" stroke="midnightblue" points="77.25,-45.96 74.11,-56.08 82.87,-50.13 77.25,-45.96"/>
</g>
<!-- Node2 -->
<g id="node2" class="node">
<title>Node2</title>
<g id="a_node2"><a xlink:href="classv8_1_1Primitive.html" target="_top" xlink:title=" ">
<polygon fill="white" stroke="black" points="32.5,-112.5 32.5,-131.5 102.5,-131.5 102.5,-112.5 32.5,-112.5"/>
<text text-anchor="middle" x="67.5" y="-119.5" font-family="Helvetica,sans-Serif" font-size="10.00">v8::Primitive</text>
</a>
</g>
</g>
<!-- Node2&#45;&gt;Node1 -->
<g id="edge1" class="edge">
<title>Node2&#45;&gt;Node1</title>
<path fill="none" stroke="midnightblue" d="M67.5,-101.8C67.5,-92.91 67.5,-82.78 67.5,-75.75"/>
<polygon fill="midnightblue" stroke="midnightblue" points="64,-102.08 67.5,-112.08 71,-102.08 64,-102.08"/>
</g>
<!-- Node3 -->
<g id="node3" class="node">
<title>Node3</title>
<g id="a_node3"><a xlink:href="classv8_1_1Value.html" target="_top" xlink:title=" ">
<polygon fill="white" stroke="black" points="39.5,-168.5 39.5,-187.5 95.5,-187.5 95.5,-168.5 39.5,-168.5"/>
<text text-anchor="middle" x="67.5" y="-175.5" font-family="Helvetica,sans-Serif" font-size="10.00">v8::Value</text>
</a>
</g>
</g>
<!-- Node3&#45;&gt;Node2 -->
<g id="edge2" class="edge">
<title>Node3&#45;&gt;Node2</title>
<path fill="none" stroke="midnightblue" d="M67.5,-157.8C67.5,-148.91 67.5,-138.78 67.5,-131.75"/>
<polygon fill="midnightblue" stroke="midnightblue" points="64,-158.08 67.5,-168.08 71,-158.08 64,-158.08"/>
</g>
<!-- Node4 -->
<g id="node4" class="node">
<title>Node4</title>
<g id="a_node4"><a xlink:href="classv8_1_1Data.html" target="_top" xlink:title=" ">
<polygon fill="white" stroke="black" points="41.5,-224.5 41.5,-243.5 93.5,-243.5 93.5,-224.5 41.5,-224.5"/>
<text text-anchor="middle" x="67.5" y="-231.5" font-family="Helvetica,sans-Serif" font-size="10.00">v8::Data</text>
</a>
</g>
</g>
<!-- Node4&#45;&gt;Node3 -->
<g id="edge3" class="edge">
<title>Node4&#45;&gt;Node3</title>
<path fill="none" stroke="midnightblue" d="M67.5,-213.8C67.5,-204.91 67.5,-194.78 67.5,-187.75"/>
<polygon fill="midnightblue" stroke="midnightblue" points="64,-214.08 67.5,-224.08 71,-214.08 64,-214.08"/>
</g>
</g>
</svg>
