<?xml version="1.0" encoding="UTF-8" standalone="no"?>
<!DOCTYPE svg PUBLIC "-//W3C//DTD SVG 1.1//EN"
 "http://www.w3.org/Graphics/SVG/1.1/DTD/svg11.dtd">
<!-- Generated by graphviz version 2.44.0 ()
 -->
<!-- Title: v8::Object Pages: 1 -->
<svg width="683pt" height="769pt"
 viewBox="0.00 0.00 683.00 769.00" xmlns="http://www.w3.org/2000/svg" xmlns:xlink="http://www.w3.org/1999/xlink">
<g id="graph0" class="graph" transform="scale(1 1) rotate(0) translate(4 765)">
<title>v8::Object</title>
<polygon fill="white" stroke="transparent" points="-4,4 -4,-765 679,-765 679,4 -4,4"/>
<!-- Node1 -->
<g id="node1" class="node">
<title>Node1</title>
<g id="a_node1"><a xlink:title=" ">
<polygon fill="#bfbfbf" stroke="black" points="180,-323.5 180,-342.5 240,-342.5 240,-323.5 180,-323.5"/>
<text text-anchor="middle" x="210" y="-330.5" font-family="Helvetica,sans-Serif" font-size="10.00">v8::Object</text>
</a>
</g>
</g>
<!-- Node4 -->
<g id="node4" class="node">
<title>Node4</title>
<g id="a_node4"><a xlink:href="classv8_1_1Array.html" target="_top" xlink:title=" ">
<polygon fill="white" stroke="black" points="314.5,-646.5 314.5,-665.5 368.5,-665.5 368.5,-646.5 314.5,-646.5"/>
<text text-anchor="middle" x="341.5" y="-653.5" font-family="Helvetica,sans-Serif" font-size="10.00">v8::Array</text>
</a>
</g>
</g>
<!-- Node1&#45;&gt;Node4 -->
<g id="edge3" class="edge">
<title>Node1&#45;&gt;Node4</title>
<path fill="none" stroke="midnightblue" d="M212.63,-352.86C218,-413.56 237.05,-594.98 276,-637 285.76,-647.53 301.03,-652.33 314.27,-654.47"/>
<polygon fill="midnightblue" stroke="midnightblue" points="216.1,-352.37 211.76,-342.7 209.13,-352.97 216.1,-352.37"/>
</g>
<!-- Node5 -->
<g id="node5" class="node">
<title>Node5</title>
<g id="a_node5"><a xlink:href="classv8_1_1ArrayBuffer.html" target="_top" xlink:title=" ">
<polygon fill="white" stroke="black" points="301.5,-608.5 301.5,-627.5 381.5,-627.5 381.5,-608.5 301.5,-608.5"/>
<text text-anchor="middle" x="341.5" y="-615.5" font-family="Helvetica,sans-Serif" font-size="10.00">v8::ArrayBuffer</text>
</a>
</g>
</g>
<!-- Node1&#45;&gt;Node5 -->
<g id="edge4" class="edge">
<title>Node1&#45;&gt;Node5</title>
<path fill="none" stroke="midnightblue" d="M213.29,-352.87C220.06,-408.32 241.68,-563.04 276,-599 282.77,-606.09 292.04,-610.58 301.44,-613.4"/>
<polygon fill="midnightblue" stroke="midnightblue" points="216.73,-352.14 212.07,-342.62 209.77,-352.97 216.73,-352.14"/>
</g>
<!-- Node6 -->
<g id="node6" class="node">
<title>Node6</title>
<g id="a_node6"><a xlink:href="classv8_1_1ArrayBufferView.html" target="_top" xlink:title=" ">
<polygon fill="white" stroke="black" points="291,-570.5 291,-589.5 392,-589.5 392,-570.5 291,-570.5"/>
<text text-anchor="middle" x="341.5" y="-577.5" font-family="Helvetica,sans-Serif" font-size="10.00">v8::ArrayBufferView</text>
</a>
</g>
</g>
<!-- Node1&#45;&gt;Node6 -->
<g id="edge5" class="edge">
<title>Node1&#45;&gt;Node6</title>
<path fill="none" stroke="midnightblue" d="M210.65,-353.09C211.03,-397.11 218.28,-502.77 276,-561 280.19,-565.23 285.27,-568.53 290.72,-571.1"/>
<polygon fill="midnightblue" stroke="midnightblue" points="214.16,-352.86 210.69,-342.85 207.16,-352.83 214.16,-352.86"/>
</g>
<!-- Node20 -->
<g id="node20" class="node">
<title>Node20</title>
<g id="a_node20"><a xlink:href="classv8_1_1BigIntObject.html" target="_top" xlink:title=" ">
<polygon fill="white" stroke="black" points="298.5,-532.5 298.5,-551.5 384.5,-551.5 384.5,-532.5 298.5,-532.5"/>
<text text-anchor="middle" x="341.5" y="-539.5" font-family="Helvetica,sans-Serif" font-size="10.00">v8::BigIntObject</text>
</a>
</g>
</g>
<!-- Node1&#45;&gt;Node20 -->
<g id="edge19" class="edge">
<title>Node1&#45;&gt;Node20</title>
<path fill="none" stroke="midnightblue" d="M212.04,-353.38C215.13,-392.07 227.4,-476.45 276,-523 282.15,-528.89 290.04,-532.97 298.18,-535.79"/>
<polygon fill="midnightblue" stroke="midnightblue" points="215.5,-352.68 211.35,-342.93 208.52,-353.14 215.5,-352.68"/>
</g>
<!-- Node21 -->
<g id="node21" class="node">
<title>Node21</title>
<g id="a_node21"><a xlink:href="classv8_1_1BooleanObject.html" target="_top" xlink:title=" ">
<polygon fill="white" stroke="black" points="294,-494.5 294,-513.5 389,-513.5 389,-494.5 294,-494.5"/>
<text text-anchor="middle" x="341.5" y="-501.5" font-family="Helvetica,sans-Serif" font-size="10.00">v8::BooleanObject</text>
</a>
</g>
</g>
<!-- Node1&#45;&gt;Node21 -->
<g id="edge20" class="edge">
<title>Node1&#45;&gt;Node21</title>
<path fill="none" stroke="midnightblue" d="M213.97,-352.89C219.86,-385.32 236.09,-449.52 276,-485 281.15,-489.58 287.35,-493.05 293.84,-495.69"/>
<polygon fill="midnightblue" stroke="midnightblue" points="217.39,-352.13 212.29,-342.84 210.48,-353.28 217.39,-352.13"/>
</g>
<!-- Node22 -->
<g id="node22" class="node">
<title>Node22</title>
<g id="a_node22"><a xlink:href="classv8_1_1Date.html" target="_top" xlink:title=" ">
<polygon fill="white" stroke="black" points="315.5,-456.5 315.5,-475.5 367.5,-475.5 367.5,-456.5 315.5,-456.5"/>
<text text-anchor="middle" x="341.5" y="-463.5" font-family="Helvetica,sans-Serif" font-size="10.00">v8::Date</text>
</a>
</g>
</g>
<!-- Node1&#45;&gt;Node22 -->
<g id="edge21" class="edge">
<title>Node1&#45;&gt;Node22</title>
<path fill="none" stroke="midnightblue" d="M216.88,-352.2C225.65,-377.63 244.58,-422.13 276,-447 287.26,-455.91 302.59,-460.65 315.48,-463.16"/>
<polygon fill="midnightblue" stroke="midnightblue" points="220.17,-351.01 213.74,-342.59 213.52,-353.18 220.17,-351.01"/>
</g>
<!-- Node23 -->
<g id="node23" class="node">
<title>Node23</title>
<g id="a_node23"><a xlink:href="classv8_1_1Function.html" target="_top" xlink:title=" ">
<polygon fill="white" stroke="black" points="307,-418.5 307,-437.5 376,-437.5 376,-418.5 307,-418.5"/>
<text text-anchor="middle" x="341.5" y="-425.5" font-family="Helvetica,sans-Serif" font-size="10.00">v8::Function</text>
</a>
</g>
</g>
<!-- Node1&#45;&gt;Node23 -->
<g id="edge22" class="edge">
<title>Node1&#45;&gt;Node23</title>
<path fill="none" stroke="midnightblue" d="M222.21,-351.4C233.67,-368.7 253.01,-394.11 276,-409 285.21,-414.97 296.35,-419.11 306.77,-421.97"/>
<polygon fill="midnightblue" stroke="midnightblue" points="225.01,-349.29 216.68,-342.74 219.11,-353.05 225.01,-349.29"/>
</g>
<!-- Node24 -->
<g id="node24" class="node">
<title>Node24</title>
<g id="a_node24"><a xlink:href="classv8_1_1Map.html" target="_top" xlink:title=" ">
<polygon fill="white" stroke="black" points="316.5,-380.5 316.5,-399.5 366.5,-399.5 366.5,-380.5 316.5,-380.5"/>
<text text-anchor="middle" x="341.5" y="-387.5" font-family="Helvetica,sans-Serif" font-size="10.00">v8::Map</text>
</a>
</g>
</g>
<!-- Node1&#45;&gt;Node24 -->
<g id="edge23" class="edge">
<title>Node1&#45;&gt;Node24</title>
<path fill="none" stroke="midnightblue" d="M234.01,-348.3C246.13,-355.88 261.47,-364.72 276,-371 288.97,-376.6 304.09,-381.15 316.43,-384.39"/>
<polygon fill="midnightblue" stroke="midnightblue" points="235.75,-345.26 225.44,-342.82 231.98,-351.15 235.75,-345.26"/>
</g>
<!-- Node25 -->
<g id="node25" class="node">
<title>Node25</title>
<g id="a_node25"><a xlink:href="classv8_1_1NumberObject.html" target="_top" xlink:title=" ">
<polygon fill="white" stroke="black" points="294,-342.5 294,-361.5 389,-361.5 389,-342.5 294,-342.5"/>
<text text-anchor="middle" x="341.5" y="-349.5" font-family="Helvetica,sans-Serif" font-size="10.00">v8::NumberObject</text>
</a>
</g>
</g>
<!-- Node1&#45;&gt;Node25 -->
<g id="edge24" class="edge">
<title>Node1&#45;&gt;Node25</title>
<path fill="none" stroke="midnightblue" d="M250.21,-338.75C264.01,-340.78 279.65,-343.07 294,-345.18"/>
<polygon fill="midnightblue" stroke="midnightblue" points="250.46,-335.25 240.06,-337.26 249.45,-342.18 250.46,-335.25"/>
</g>
<!-- Node26 -->
<g id="node26" class="node">
<title>Node26</title>
<g id="a_node26"><a xlink:href="classv8_1_1Promise.html" target="_top" xlink:title=" ">
<polygon fill="white" stroke="black" points="307.5,-304.5 307.5,-323.5 375.5,-323.5 375.5,-304.5 307.5,-304.5"/>
<text text-anchor="middle" x="341.5" y="-311.5" font-family="Helvetica,sans-Serif" font-size="10.00">v8::Promise</text>
</a>
</g>
</g>
<!-- Node1&#45;&gt;Node26 -->
<g id="edge25" class="edge">
<title>Node1&#45;&gt;Node26</title>
<path fill="none" stroke="midnightblue" d="M250.12,-327.26C268.41,-324.58 289.96,-321.42 307.43,-318.85"/>
<polygon fill="midnightblue" stroke="midnightblue" points="249.45,-323.82 240.06,-328.74 250.46,-330.75 249.45,-323.82"/>
</g>
<!-- Node27 -->
<g id="node27" class="node">
<title>Node27</title>
<g id="a_node27"><a xlink:href="classv8_1_1Promise_1_1Resolver.html" target="_top" xlink:title=" ">
<polygon fill="white" stroke="black" points="286.5,-266.5 286.5,-285.5 396.5,-285.5 396.5,-266.5 286.5,-266.5"/>
<text text-anchor="middle" x="341.5" y="-273.5" font-family="Helvetica,sans-Serif" font-size="10.00">v8::Promise::Resolver</text>
</a>
</g>
</g>
<!-- Node1&#45;&gt;Node27 -->
<g id="edge26" class="edge">
<title>Node1&#45;&gt;Node27</title>
<path fill="none" stroke="midnightblue" d="M234.01,-317.7C246.13,-310.12 261.47,-301.28 276,-295 284.36,-291.39 293.61,-288.21 302.44,-285.55"/>
<polygon fill="midnightblue" stroke="midnightblue" points="231.98,-314.85 225.44,-323.18 235.75,-320.74 231.98,-314.85"/>
</g>
<!-- Node28 -->
<g id="node28" class="node">
<title>Node28</title>
<g id="a_node28"><a xlink:href="classv8_1_1Proxy.html" target="_top" xlink:title=" ">
<polygon fill="white" stroke="black" points="313.5,-228.5 313.5,-247.5 369.5,-247.5 369.5,-228.5 313.5,-228.5"/>
<text text-anchor="middle" x="341.5" y="-235.5" font-family="Helvetica,sans-Serif" font-size="10.00">v8::Proxy</text>
</a>
</g>
</g>
<!-- Node1&#45;&gt;Node28 -->
<g id="edge27" class="edge">
<title>Node1&#45;&gt;Node28</title>
<path fill="none" stroke="midnightblue" d="M222.21,-314.6C233.67,-297.3 253.01,-271.89 276,-257 287.17,-249.76 301.18,-245.21 313.29,-242.37"/>
<polygon fill="midnightblue" stroke="midnightblue" points="219.11,-312.95 216.68,-323.26 225.01,-316.71 219.11,-312.95"/>
</g>
<!-- Node29 -->
<g id="node29" class="node">
<title>Node29</title>
<g id="a_node29"><a xlink:href="classv8_1_1RegExp.html" target="_top" xlink:title=" ">
<polygon fill="white" stroke="black" points="309,-190.5 309,-209.5 374,-209.5 374,-190.5 309,-190.5"/>
<text text-anchor="middle" x="341.5" y="-197.5" font-family="Helvetica,sans-Serif" font-size="10.00">v8::RegExp</text>
</a>
</g>
</g>
<!-- Node1&#45;&gt;Node29 -->
<g id="edge28" class="edge">
<title>Node1&#45;&gt;Node29</title>
<path fill="none" stroke="midnightblue" d="M216.88,-313.8C225.65,-288.37 244.58,-243.87 276,-219 285.34,-211.61 297.47,-207.09 308.69,-204.33"/>
<polygon fill="midnightblue" stroke="midnightblue" points="213.52,-312.82 213.74,-323.41 220.17,-314.99 213.52,-312.82"/>
</g>
<!-- Node30 -->
<g id="node30" class="node">
<title>Node30</title>
<g id="a_node30"><a xlink:href="classv8_1_1Set.html" target="_top" xlink:title=" ">
<polygon fill="white" stroke="black" points="318,-152.5 318,-171.5 365,-171.5 365,-152.5 318,-152.5"/>
<text text-anchor="middle" x="341.5" y="-159.5" font-family="Helvetica,sans-Serif" font-size="10.00">v8::Set</text>
</a>
</g>
</g>
<!-- Node1&#45;&gt;Node30 -->
<g id="edge29" class="edge">
<title>Node1&#45;&gt;Node30</title>
<path fill="none" stroke="midnightblue" d="M213.97,-313.11C219.86,-280.68 236.09,-216.48 276,-181 287.52,-170.76 304.31,-166.03 317.87,-163.85"/>
<polygon fill="midnightblue" stroke="midnightblue" points="210.48,-312.72 212.29,-323.16 217.39,-313.87 210.48,-312.72"/>
</g>
<!-- Node31 -->
<g id="node31" class="node">
<title>Node31</title>
<g id="a_node31"><a xlink:href="classv8_1_1SharedArrayBuffer.html" target="_top" xlink:title=" ">
<polygon fill="white" stroke="black" points="286.5,-114.5 286.5,-133.5 396.5,-133.5 396.5,-114.5 286.5,-114.5"/>
<text text-anchor="middle" x="341.5" y="-121.5" font-family="Helvetica,sans-Serif" font-size="10.00">v8::SharedArrayBuffer</text>
</a>
</g>
</g>
<!-- Node1&#45;&gt;Node31 -->
<g id="edge30" class="edge">
<title>Node1&#45;&gt;Node31</title>
<path fill="none" stroke="midnightblue" d="M212.04,-312.62C215.13,-273.93 227.4,-189.55 276,-143 280.05,-139.12 284.84,-136.03 289.97,-133.57"/>
<polygon fill="midnightblue" stroke="midnightblue" points="208.52,-312.86 211.35,-323.07 215.5,-313.32 208.52,-312.86"/>
</g>
<!-- Node32 -->
<g id="node32" class="node">
<title>Node32</title>
<g id="a_node32"><a xlink:href="classv8_1_1StringObject.html" target="_top" xlink:title=" ">
<polygon fill="white" stroke="black" points="298.5,-76.5 298.5,-95.5 384.5,-95.5 384.5,-76.5 298.5,-76.5"/>
<text text-anchor="middle" x="341.5" y="-83.5" font-family="Helvetica,sans-Serif" font-size="10.00">v8::StringObject</text>
</a>
</g>
</g>
<!-- Node1&#45;&gt;Node32 -->
<g id="edge31" class="edge">
<title>Node1&#45;&gt;Node32</title>
<path fill="none" stroke="midnightblue" d="M210.65,-312.91C211.03,-268.89 218.28,-163.23 276,-105 282.08,-98.86 290.04,-94.69 298.27,-91.85"/>
<polygon fill="midnightblue" stroke="midnightblue" points="207.16,-313.17 210.69,-323.15 214.16,-313.14 207.16,-313.17"/>
</g>
<!-- Node33 -->
<g id="node33" class="node">
<title>Node33</title>
<g id="a_node33"><a xlink:href="classv8_1_1SymbolObject.html" target="_top" xlink:title=" ">
<polygon fill="white" stroke="black" points="295.5,-38.5 295.5,-57.5 387.5,-57.5 387.5,-38.5 295.5,-38.5"/>
<text text-anchor="middle" x="341.5" y="-45.5" font-family="Helvetica,sans-Serif" font-size="10.00">v8::SymbolObject</text>
</a>
</g>
</g>
<!-- Node1&#45;&gt;Node33 -->
<g id="edge32" class="edge">
<title>Node1&#45;&gt;Node33</title>
<path fill="none" stroke="midnightblue" d="M213.29,-313.13C220.06,-257.68 241.68,-102.96 276,-67 281.32,-61.43 288.18,-57.46 295.44,-54.65"/>
<polygon fill="midnightblue" stroke="midnightblue" points="209.77,-313.03 212.07,-323.38 216.73,-313.86 209.77,-313.03"/>
</g>
<!-- Node34 -->
<g id="node34" class="node">
<title>Node34</title>
<g id="a_node34"><a xlink:href="classv8_1_1WasmCompiledModule.html" target="_top" xlink:title=" ">
<polygon fill="white" stroke="black" points="276,-0.5 276,-19.5 407,-19.5 407,-0.5 276,-0.5"/>
<text text-anchor="middle" x="341.5" y="-7.5" font-family="Helvetica,sans-Serif" font-size="10.00">v8::WasmCompiledModule</text>
</a>
</g>
</g>
<!-- Node1&#45;&gt;Node34 -->
<g id="edge33" class="edge">
<title>Node1&#45;&gt;Node34</title>
<path fill="none" stroke="midnightblue" d="M212.63,-313.14C218,-252.44 237.05,-71.02 276,-29 279.57,-25.15 283.88,-22.06 288.56,-19.59"/>
<polygon fill="midnightblue" stroke="midnightblue" points="209.13,-313.03 211.76,-323.3 216.1,-313.63 209.13,-313.03"/>
</g>
<!-- Node2 -->
<g id="node2" class="node">
<title>Node2</title>
<g id="a_node2"><a xlink:href="classv8_1_1Value.html" target="_top" xlink:title=" ">
<polygon fill="white" stroke="black" points="88,-323.5 88,-342.5 144,-342.5 144,-323.5 88,-323.5"/>
<text text-anchor="middle" x="116" y="-330.5" font-family="Helvetica,sans-Serif" font-size="10.00">v8::Value</text>
</a>
</g>
</g>
<!-- Node2&#45;&gt;Node1 -->
<g id="edge1" class="edge">
<title>Node2&#45;&gt;Node1</title>
<path fill="none" stroke="midnightblue" d="M154.22,-333C162.76,-333 171.71,-333 179.84,-333"/>
<polygon fill="midnightblue" stroke="midnightblue" points="154.11,-329.5 144.11,-333 154.11,-336.5 154.11,-329.5"/>
</g>
<!-- Node3 -->
<g id="node3" class="node">
<title>Node3</title>
<g id="a_node3"><a xlink:href="classv8_1_1Data.html" target="_top" xlink:title=" ">
<polygon fill="white" stroke="black" points="0,-323.5 0,-342.5 52,-342.5 52,-323.5 0,-323.5"/>
<text text-anchor="middle" x="26" y="-330.5" font-family="Helvetica,sans-Serif" font-size="10.00">v8::Data</text>
</a>
</g>
</g>
<!-- Node3&#45;&gt;Node2 -->
<g id="edge2" class="edge">
<title>Node3&#45;&gt;Node2</title>
<path fill="none" stroke="midnightblue" d="M62.72,-333C71.08,-333 79.84,-333 87.76,-333"/>
<polygon fill="midnightblue" stroke="midnightblue" points="62.45,-329.5 52.45,-333 62.45,-336.5 62.45,-329.5"/>
</g>
<!-- Node7 -->
<g id="node7" class="node">
<title>Node7</title>
<g id="a_node7"><a xlink:href="classv8_1_1DataView.html" target="_top" xlink:title=" ">
<polygon fill="white" stroke="black" points="446,-589.5 446,-608.5 520,-608.5 520,-589.5 446,-589.5"/>
<text text-anchor="middle" x="483" y="-596.5" font-family="Helvetica,sans-Serif" font-size="10.00">v8::DataView</text>
</a>
</g>
</g>
<!-- Node6&#45;&gt;Node7 -->
<g id="edge6" class="edge">
<title>Node6&#45;&gt;Node7</title>
<path fill="none" stroke="midnightblue" d="M402.2,-588.13C417.01,-590.15 432.44,-592.25 445.74,-594.06"/>
<polygon fill="midnightblue" stroke="midnightblue" points="402.46,-584.63 392.08,-586.75 401.51,-591.57 402.46,-584.63"/>
</g>
<!-- Node8 -->
<g id="node8" class="node">
<title>Node8</title>
<g id="a_node8"><a xlink:href="classv8_1_1TypedArray.html" target="_top" xlink:title=" ">
<polygon fill="white" stroke="black" points="443,-551.5 443,-570.5 523,-570.5 523,-551.5 443,-551.5"/>
<text text-anchor="middle" x="483" y="-558.5" font-family="Helvetica,sans-Serif" font-size="10.00">v8::TypedArray</text>
</a>
</g>
</g>
<!-- Node6&#45;&gt;Node8 -->
<g id="edge7" class="edge">
<title>Node6&#45;&gt;Node8</title>
<path fill="none" stroke="midnightblue" d="M402.36,-571.85C415.99,-569.99 430.14,-568.06 442.66,-566.36"/>
<polygon fill="midnightblue" stroke="midnightblue" points="401.51,-568.43 392.08,-573.25 402.46,-575.37 401.51,-568.43"/>
</g>
<!-- Node9 -->
<g id="node9" class="node">
<title>Node9</title>
<g id="a_node9"><a xlink:href="classv8_1_1BigInt64Array.html" target="_top" xlink:title=" ">
<polygon fill="white" stroke="black" points="572,-741.5 572,-760.5 662,-760.5 662,-741.5 572,-741.5"/>
<text text-anchor="middle" x="617" y="-748.5" font-family="Helvetica,sans-Serif" font-size="10.00">v8::BigInt64Array</text>
</a>
</g>
</g>
<!-- Node8&#45;&gt;Node9 -->
<g id="edge8" class="edge">
<title>Node8&#45;&gt;Node9</title>
<path fill="none" stroke="midnightblue" d="M519.92,-576.67C521.03,-577.72 522.06,-578.82 523,-580 566.38,-634.2 512.15,-680.77 559,-732 562.59,-735.93 567.01,-739.04 571.79,-741.51"/>
<polygon fill="midnightblue" stroke="midnightblue" points="521.94,-573.81 511.82,-570.68 517.78,-579.44 521.94,-573.81"/>
</g>
<!-- Node10 -->
<g id="node10" class="node">
<title>Node10</title>
<g id="a_node10"><a xlink:href="classv8_1_1BigUint64Array.html" target="_top" xlink:title=" ">
<polygon fill="white" stroke="black" points="568.5,-703.5 568.5,-722.5 665.5,-722.5 665.5,-703.5 568.5,-703.5"/>
<text text-anchor="middle" x="617" y="-710.5" font-family="Helvetica,sans-Serif" font-size="10.00">v8::BigUint64Array</text>
</a>
</g>
</g>
<!-- Node8&#45;&gt;Node10 -->
<g id="edge9" class="edge">
<title>Node8&#45;&gt;Node10</title>
<path fill="none" stroke="midnightblue" d="M519.71,-576.67C520.88,-577.71 521.99,-578.82 523,-580 557.7,-620.24 521.73,-656.13 559,-694 562.8,-697.87 567.42,-700.95 572.35,-703.4"/>
<polygon fill="midnightblue" stroke="midnightblue" points="521.38,-573.56 511.2,-570.64 517.34,-579.28 521.38,-573.56"/>
</g>
<!-- Node11 -->
<g id="node11" class="node">
<title>Node11</title>
<g id="a_node11"><a xlink:href="classv8_1_1Float32Array.html" target="_top" xlink:title=" ">
<polygon fill="white" stroke="black" points="574,-665.5 574,-684.5 660,-684.5 660,-665.5 574,-665.5"/>
<text text-anchor="middle" x="617" y="-672.5" font-family="Helvetica,sans-Serif" font-size="10.00">v8::Float32Array</text>
</a>
</g>
</g>
<!-- Node8&#45;&gt;Node11 -->
<g id="edge10" class="edge">
<title>Node8&#45;&gt;Node11</title>
<path fill="none" stroke="midnightblue" d="M518.49,-576.05C520.09,-577.28 521.61,-578.59 523,-580 549.28,-606.57 531.03,-631.21 559,-656 563.37,-659.87 568.56,-662.96 573.99,-665.42"/>
<polygon fill="midnightblue" stroke="midnightblue" points="520.28,-573.03 509.98,-570.58 516.5,-578.93 520.28,-573.03"/>
</g>
<!-- Node12 -->
<g id="node12" class="node">
<title>Node12</title>
<g id="a_node12"><a xlink:href="classv8_1_1Float64Array.html" target="_top" xlink:title=" ">
<polygon fill="white" stroke="black" points="574,-627.5 574,-646.5 660,-646.5 660,-627.5 574,-627.5"/>
<text text-anchor="middle" x="617" y="-634.5" font-family="Helvetica,sans-Serif" font-size="10.00">v8::Float64Array</text>
</a>
</g>
</g>
<!-- Node8&#45;&gt;Node12 -->
<g id="edge11" class="edge">
<title>Node8&#45;&gt;Node12</title>
<path fill="none" stroke="midnightblue" d="M516.01,-575.4C518.44,-576.85 520.8,-578.39 523,-580 541.76,-593.76 539.38,-605.5 559,-618 564.98,-621.81 571.81,-624.94 578.61,-627.47"/>
<polygon fill="midnightblue" stroke="midnightblue" points="517.52,-572.24 507.07,-570.54 514.18,-578.39 517.52,-572.24"/>
</g>
<!-- Node13 -->
<g id="node13" class="node">
<title>Node13</title>
<g id="a_node13"><a xlink:href="classv8_1_1Int16Array.html" target="_top" xlink:title=" ">
<polygon fill="white" stroke="black" points="579,-589.5 579,-608.5 655,-608.5 655,-589.5 579,-589.5"/>
<text text-anchor="middle" x="617" y="-596.5" font-family="Helvetica,sans-Serif" font-size="10.00">v8::Int16Array</text>
</a>
</g>
</g>
<!-- Node8&#45;&gt;Node13 -->
<g id="edge12" class="edge">
<title>Node8&#45;&gt;Node13</title>
<path fill="none" stroke="midnightblue" d="M527.04,-573.39C545.12,-578.59 565.82,-584.55 582.7,-589.41"/>
<polygon fill="midnightblue" stroke="midnightblue" points="527.89,-569.99 517.31,-570.59 525.95,-576.72 527.89,-569.99"/>
</g>
<!-- Node14 -->
<g id="node14" class="node">
<title>Node14</title>
<g id="a_node14"><a xlink:href="classv8_1_1Int32Array.html" target="_top" xlink:title=" ">
<polygon fill="white" stroke="black" points="579,-551.5 579,-570.5 655,-570.5 655,-551.5 579,-551.5"/>
<text text-anchor="middle" x="617" y="-558.5" font-family="Helvetica,sans-Serif" font-size="10.00">v8::Int32Array</text>
</a>
</g>
</g>
<!-- Node8&#45;&gt;Node14 -->
<g id="edge13" class="edge">
<title>Node8&#45;&gt;Node14</title>
<path fill="none" stroke="midnightblue" d="M533.45,-561C548.52,-561 564.83,-561 578.94,-561"/>
<polygon fill="midnightblue" stroke="midnightblue" points="533.25,-557.5 523.25,-561 533.25,-564.5 533.25,-557.5"/>
</g>
<!-- Node15 -->
<g id="node15" class="node">
<title>Node15</title>
<g id="a_node15"><a xlink:href="classv8_1_1Int8Array.html" target="_top" xlink:title=" ">
<polygon fill="white" stroke="black" points="581.5,-513.5 581.5,-532.5 652.5,-532.5 652.5,-513.5 581.5,-513.5"/>
<text text-anchor="middle" x="617" y="-520.5" font-family="Helvetica,sans-Serif" font-size="10.00">v8::Int8Array</text>
</a>
</g>
</g>
<!-- Node8&#45;&gt;Node15 -->
<g id="edge14" class="edge">
<title>Node8&#45;&gt;Node15</title>
<path fill="none" stroke="midnightblue" d="M527.04,-548.61C545.12,-543.41 565.82,-537.45 582.7,-532.59"/>
<polygon fill="midnightblue" stroke="midnightblue" points="525.95,-545.28 517.31,-551.41 527.89,-552.01 525.95,-545.28"/>
</g>
<!-- Node16 -->
<g id="node16" class="node">
<title>Node16</title>
<g id="a_node16"><a xlink:href="classv8_1_1Uint16Array.html" target="_top" xlink:title=" ">
<polygon fill="white" stroke="black" points="575.5,-475.5 575.5,-494.5 658.5,-494.5 658.5,-475.5 575.5,-475.5"/>
<text text-anchor="middle" x="617" y="-482.5" font-family="Helvetica,sans-Serif" font-size="10.00">v8::Uint16Array</text>
</a>
</g>
</g>
<!-- Node8&#45;&gt;Node16 -->
<g id="edge15" class="edge">
<title>Node8&#45;&gt;Node16</title>
<path fill="none" stroke="midnightblue" d="M502.11,-544.51C516.62,-531.99 537.96,-515.11 559,-504 565.92,-500.35 573.68,-497.2 581.19,-494.58"/>
<polygon fill="midnightblue" stroke="midnightblue" points="499.6,-542.05 494.41,-551.29 504.23,-547.31 499.6,-542.05"/>
</g>
<!-- Node17 -->
<g id="node17" class="node">
<title>Node17</title>
<g id="a_node17"><a xlink:href="classv8_1_1Uint32Array.html" target="_top" xlink:title=" ">
<polygon fill="white" stroke="black" points="575.5,-437.5 575.5,-456.5 658.5,-456.5 658.5,-437.5 575.5,-437.5"/>
<text text-anchor="middle" x="617" y="-444.5" font-family="Helvetica,sans-Serif" font-size="10.00">v8::Uint32Array</text>
</a>
</g>
</g>
<!-- Node8&#45;&gt;Node17 -->
<g id="edge16" class="edge">
<title>Node8&#45;&gt;Node17</title>
<path fill="none" stroke="midnightblue" d="M494.01,-542.65C506.53,-521.31 529.92,-486.42 559,-466 564.46,-462.16 570.76,-459.06 577.13,-456.56"/>
<polygon fill="midnightblue" stroke="midnightblue" points="490.93,-540.98 489.03,-551.4 497.02,-544.43 490.93,-540.98"/>
</g>
<!-- Node18 -->
<g id="node18" class="node">
<title>Node18</title>
<g id="a_node18"><a xlink:href="classv8_1_1Uint8Array.html" target="_top" xlink:title=" ">
<polygon fill="white" stroke="black" points="578.5,-399.5 578.5,-418.5 655.5,-418.5 655.5,-399.5 578.5,-399.5"/>
<text text-anchor="middle" x="617" y="-406.5" font-family="Helvetica,sans-Serif" font-size="10.00">v8::Uint8Array</text>
</a>
</g>
</g>
<!-- Node8&#45;&gt;Node18 -->
<g id="edge17" class="edge">
<title>Node8&#45;&gt;Node18</title>
<path fill="none" stroke="midnightblue" d="M489.88,-541.67C499.63,-512.83 521.82,-458.66 559,-428 564.63,-423.35 571.45,-419.83 578.38,-417.16"/>
<polygon fill="midnightblue" stroke="midnightblue" points="486.49,-540.79 486.75,-551.38 493.15,-542.94 486.49,-540.79"/>
</g>
<!-- Node19 -->
<g id="node19" class="node">
<title>Node19</title>
<g id="a_node19"><a xlink:href="classv8_1_1Uint8ClampedArray.html" target="_top" xlink:title=" ">
<polygon fill="white" stroke="black" points="559,-361.5 559,-380.5 675,-380.5 675,-361.5 559,-361.5"/>
<text text-anchor="middle" x="617" y="-368.5" font-family="Helvetica,sans-Serif" font-size="10.00">v8::Uint8ClampedArray</text>
</a>
</g>
</g>
<!-- Node8&#45;&gt;Node19 -->
<g id="edge18" class="edge">
<title>Node8&#45;&gt;Node19</title>
<path fill="none" stroke="midnightblue" d="M487.27,-541.26C494.15,-505.91 513.4,-431.6 559,-390 563.24,-386.13 568.29,-383.05 573.6,-380.59"/>
<polygon fill="midnightblue" stroke="midnightblue" points="483.79,-540.82 485.45,-551.28 490.68,-542.06 483.79,-540.82"/>
</g>
</g>
</svg>
