<?xml version="1.0" encoding="UTF-8" standalone="no"?>
<!DOCTYPE svg PUBLIC "-//W3C//DTD SVG 1.1//EN"
 "http://www.w3.org/Graphics/SVG/1.1/DTD/svg11.dtd">
<!-- Generated by graphviz version 2.44.0 ()
 -->
<!-- Title: Graphical Class Hierarchy Pages: 1 -->
<svg width="791pt" height="940pt"
 viewBox="0.00 0.00 791.00 940.00" xmlns="http://www.w3.org/2000/svg" xmlns:xlink="http://www.w3.org/1999/xlink">
<g id="graph0" class="graph" transform="scale(1 1) rotate(0) translate(4 936)">
<title>Graphical Class Hierarchy</title>
<polygon fill="white" stroke="transparent" points="-4,4 -4,-936 787,-936 787,4 -4,4"/>
<!-- Node0 -->
<g id="node1" class="node">
<title>Node0</title>
<g id="a_node1"><a xlink:href="classv8_1_1Data.html" target="_top" xlink:title=" ">
<polygon fill="white" stroke="black" points="0,-589.5 0,-608.5 52,-608.5 52,-589.5 0,-589.5"/>
<text text-anchor="middle" x="26" y="-596.5" font-family="Helvetica,sans-Serif" font-size="10.00">v8::Data</text>
</a>
</g>
</g>
<!-- Node1 -->
<g id="node2" class="node">
<title>Node1</title>
<g id="a_node2"><a xlink:href="classv8_1_1AccessorSignature.html" target="_top" xlink:title=" ">
<polygon fill="white" stroke="black" points="88,-665.5 88,-684.5 202,-684.5 202,-665.5 88,-665.5"/>
<text text-anchor="middle" x="145" y="-672.5" font-family="Helvetica,sans-Serif" font-size="10.00">v8::AccessorSignature</text>
</a>
</g>
</g>
<!-- Node0&#45;&gt;Node1 -->
<g id="edge1" class="edge">
<title>Node0&#45;&gt;Node1</title>
<path fill="none" stroke="midnightblue" d="M41.83,-616.36C53.33,-628.88 70.25,-645.38 88,-656 94.25,-659.74 101.35,-662.87 108.33,-665.44"/>
<polygon fill="midnightblue" stroke="midnightblue" points="44.37,-613.95 35.11,-608.81 39.14,-618.61 44.37,-613.95"/>
</g>
<!-- Node2 -->
<g id="node3" class="node">
<title>Node2</title>
<g id="a_node3"><a xlink:href="classv8_1_1Private.html" target="_top" xlink:title=" ">
<polygon fill="white" stroke="black" points="114,-627.5 114,-646.5 176,-646.5 176,-627.5 114,-627.5"/>
<text text-anchor="middle" x="145" y="-634.5" font-family="Helvetica,sans-Serif" font-size="10.00">v8::Private</text>
</a>
</g>
</g>
<!-- Node0&#45;&gt;Node2 -->
<g id="edge2" class="edge">
<title>Node0&#45;&gt;Node2</title>
<path fill="none" stroke="midnightblue" d="M62.03,-610.38C78.72,-615.8 98.46,-622.21 114.39,-627.38"/>
<polygon fill="midnightblue" stroke="midnightblue" points="62.69,-606.91 52.1,-607.15 60.53,-613.57 62.69,-606.91"/>
</g>
<!-- Node3 -->
<g id="node4" class="node">
<title>Node3</title>
<g id="a_node4"><a xlink:href="classv8_1_1Signature.html" target="_top" xlink:title=" ">
<polygon fill="white" stroke="black" points="108.5,-589.5 108.5,-608.5 181.5,-608.5 181.5,-589.5 108.5,-589.5"/>
<text text-anchor="middle" x="145" y="-596.5" font-family="Helvetica,sans-Serif" font-size="10.00">v8::Signature</text>
</a>
</g>
</g>
<!-- Node0&#45;&gt;Node3 -->
<g id="edge3" class="edge">
<title>Node0&#45;&gt;Node3</title>
<path fill="none" stroke="midnightblue" d="M62.24,-599C76.8,-599 93.67,-599 108.29,-599"/>
<polygon fill="midnightblue" stroke="midnightblue" points="62.1,-595.5 52.1,-599 62.1,-602.5 62.1,-595.5"/>
</g>
<!-- Node4 -->
<g id="node5" class="node">
<title>Node4</title>
<g id="a_node5"><a xlink:href="classv8_1_1Template.html" target="_top" xlink:title=" ">
<polygon fill="white" stroke="black" points="109,-551.5 109,-570.5 181,-570.5 181,-551.5 109,-551.5"/>
<text text-anchor="middle" x="145" y="-558.5" font-family="Helvetica,sans-Serif" font-size="10.00">v8::Template</text>
</a>
</g>
</g>
<!-- Node0&#45;&gt;Node4 -->
<g id="edge4" class="edge">
<title>Node0&#45;&gt;Node4</title>
<path fill="none" stroke="midnightblue" d="M62.03,-587.62C78.72,-582.2 98.46,-575.79 114.39,-570.62"/>
<polygon fill="midnightblue" stroke="midnightblue" points="60.53,-584.43 52.1,-590.85 62.69,-591.09 60.53,-584.43"/>
</g>
<!-- Node7 -->
<g id="node8" class="node">
<title>Node7</title>
<g id="a_node8"><a xlink:href="classv8_1_1Value.html" target="_top" xlink:title=" ">
<polygon fill="white" stroke="black" points="117,-494.5 117,-513.5 173,-513.5 173,-494.5 117,-494.5"/>
<text text-anchor="middle" x="145" y="-501.5" font-family="Helvetica,sans-Serif" font-size="10.00">v8::Value</text>
</a>
</g>
</g>
<!-- Node0&#45;&gt;Node7 -->
<g id="edge7" class="edge">
<title>Node0&#45;&gt;Node7</title>
<path fill="none" stroke="midnightblue" d="M43.6,-582.16C55.52,-570.4 72.21,-554.61 88,-542 101.04,-531.59 116.84,-521.04 128.33,-513.7"/>
<polygon fill="midnightblue" stroke="midnightblue" points="41.12,-579.69 36.51,-589.23 46.06,-584.64 41.12,-579.69"/>
</g>
<!-- Node5 -->
<g id="node6" class="node">
<title>Node5</title>
<g id="a_node6"><a xlink:href="classv8_1_1FunctionTemplate.html" target="_top" xlink:title=" ">
<polygon fill="white" stroke="black" points="238,-589.5 238,-608.5 348,-608.5 348,-589.5 238,-589.5"/>
<text text-anchor="middle" x="293" y="-596.5" font-family="Helvetica,sans-Serif" font-size="10.00">v8::FunctionTemplate</text>
</a>
</g>
</g>
<!-- Node4&#45;&gt;Node5 -->
<g id="edge5" class="edge">
<title>Node4&#45;&gt;Node5</title>
<path fill="none" stroke="midnightblue" d="M191.17,-572.76C211.82,-578.13 235.97,-584.42 255.46,-589.49"/>
<polygon fill="midnightblue" stroke="midnightblue" points="191.9,-569.33 181.34,-570.2 190.14,-576.1 191.9,-569.33"/>
</g>
<!-- Node6 -->
<g id="node7" class="node">
<title>Node6</title>
<g id="a_node7"><a xlink:href="classv8_1_1ObjectTemplate.html" target="_top" xlink:title=" ">
<polygon fill="white" stroke="black" points="242.5,-551.5 242.5,-570.5 343.5,-570.5 343.5,-551.5 242.5,-551.5"/>
<text text-anchor="middle" x="293" y="-558.5" font-family="Helvetica,sans-Serif" font-size="10.00">v8::ObjectTemplate</text>
</a>
</g>
</g>
<!-- Node4&#45;&gt;Node6 -->
<g id="edge6" class="edge">
<title>Node4&#45;&gt;Node6</title>
<path fill="none" stroke="midnightblue" d="M191.6,-561C207.72,-561 225.92,-561 242.36,-561"/>
<polygon fill="midnightblue" stroke="midnightblue" points="191.34,-557.5 181.34,-561 191.34,-564.5 191.34,-557.5"/>
</g>
<!-- Node8 -->
<g id="node9" class="node">
<title>Node8</title>
<g id="a_node9"><a xlink:href="classv8_1_1External.html" target="_top" xlink:title=" ">
<polygon fill="white" stroke="black" points="260,-513.5 260,-532.5 326,-532.5 326,-513.5 260,-513.5"/>
<text text-anchor="middle" x="293" y="-520.5" font-family="Helvetica,sans-Serif" font-size="10.00">v8::External</text>
</a>
</g>
</g>
<!-- Node7&#45;&gt;Node8 -->
<g id="edge8" class="edge">
<title>Node7&#45;&gt;Node8</title>
<path fill="none" stroke="midnightblue" d="M183.16,-508.84C206.87,-511.92 237.29,-515.88 259.94,-518.83"/>
<polygon fill="midnightblue" stroke="midnightblue" points="183.49,-505.35 173.12,-507.53 182.58,-512.29 183.49,-505.35"/>
</g>
<!-- Node9 -->
<g id="node10" class="node">
<title>Node9</title>
<g id="a_node10"><a xlink:href="classv8_1_1Object.html" target="_top" xlink:title=" ">
<polygon fill="white" stroke="black" points="263,-475.5 263,-494.5 323,-494.5 323,-475.5 263,-475.5"/>
<text text-anchor="middle" x="293" y="-482.5" font-family="Helvetica,sans-Serif" font-size="10.00">v8::Object</text>
</a>
</g>
</g>
<!-- Node7&#45;&gt;Node9 -->
<g id="edge9" class="edge">
<title>Node7&#45;&gt;Node9</title>
<path fill="none" stroke="midnightblue" d="M183.22,-499.16C207.92,-495.94 239.89,-491.78 262.77,-488.8"/>
<polygon fill="midnightblue" stroke="midnightblue" points="182.58,-495.71 173.12,-500.47 183.49,-502.65 182.58,-495.71"/>
</g>
<!-- Node41 -->
<g id="node42" class="node">
<title>Node41</title>
<g id="a_node42"><a xlink:href="classv8_1_1Primitive.html" target="_top" xlink:title=" ">
<polygon fill="white" stroke="black" points="258,-95.5 258,-114.5 328,-114.5 328,-95.5 258,-95.5"/>
<text text-anchor="middle" x="293" y="-102.5" font-family="Helvetica,sans-Serif" font-size="10.00">v8::Primitive</text>
</a>
</g>
</g>
<!-- Node7&#45;&gt;Node41 -->
<g id="edge41" class="edge">
<title>Node7&#45;&gt;Node41</title>
<path fill="none" stroke="midnightblue" d="M153.11,-484.56C179.27,-413.07 269.62,-166.17 288.52,-114.52"/>
<polygon fill="midnightblue" stroke="midnightblue" points="149.76,-483.54 149.61,-494.14 156.33,-485.95 149.76,-483.54"/>
</g>
<!-- Node10 -->
<g id="node11" class="node">
<title>Node10</title>
<g id="a_node11"><a xlink:href="classv8_1_1Array.html" target="_top" xlink:title=" ">
<polygon fill="white" stroke="black" points="422.5,-817.5 422.5,-836.5 476.5,-836.5 476.5,-817.5 422.5,-817.5"/>
<text text-anchor="middle" x="449.5" y="-824.5" font-family="Helvetica,sans-Serif" font-size="10.00">v8::Array</text>
</a>
</g>
</g>
<!-- Node9&#45;&gt;Node10 -->
<g id="edge10" class="edge">
<title>Node9&#45;&gt;Node10</title>
<path fill="none" stroke="midnightblue" d="M332.59,-492.53C338.5,-495.25 343.96,-498.96 348,-504 433.04,-610.2 296.24,-704.04 384,-808 393.34,-819.06 408.76,-823.86 422.19,-825.88"/>
<polygon fill="midnightblue" stroke="midnightblue" points="333.67,-489.2 323.08,-489.01 331.24,-495.76 333.67,-489.2"/>
</g>
<!-- Node11 -->
<g id="node12" class="node">
<title>Node11</title>
<g id="a_node12"><a xlink:href="classv8_1_1ArrayBuffer.html" target="_top" xlink:title=" ">
<polygon fill="white" stroke="black" points="409.5,-779.5 409.5,-798.5 489.5,-798.5 489.5,-779.5 409.5,-779.5"/>
<text text-anchor="middle" x="449.5" y="-786.5" font-family="Helvetica,sans-Serif" font-size="10.00">v8::ArrayBuffer</text>
</a>
</g>
</g>
<!-- Node9&#45;&gt;Node11 -->
<g id="edge11" class="edge">
<title>Node9&#45;&gt;Node11</title>
<path fill="none" stroke="midnightblue" d="M332.52,-492.59C338.44,-495.3 343.92,-498.99 348,-504 423.34,-596.5 306.29,-679.48 384,-770 390.46,-777.53 399.75,-782.15 409.26,-784.97"/>
<polygon fill="midnightblue" stroke="midnightblue" points="333.6,-489.25 323.01,-489.07 331.17,-495.82 333.6,-489.25"/>
</g>
<!-- Node12 -->
<g id="node13" class="node">
<title>Node12</title>
<g id="a_node13"><a xlink:href="classv8_1_1ArrayBufferView.html" target="_top" xlink:title=" ">
<polygon fill="white" stroke="black" points="399,-741.5 399,-760.5 500,-760.5 500,-741.5 399,-741.5"/>
<text text-anchor="middle" x="449.5" y="-748.5" font-family="Helvetica,sans-Serif" font-size="10.00">v8::ArrayBufferView</text>
</a>
</g>
</g>
<!-- Node9&#45;&gt;Node12 -->
<g id="edge12" class="edge">
<title>Node9&#45;&gt;Node12</title>
<path fill="none" stroke="midnightblue" d="M332.61,-492.74C338.47,-495.45 343.91,-499.09 348,-504 413.66,-582.82 316.32,-654.9 384,-732 388.08,-736.65 393.24,-740.19 398.85,-742.88"/>
<polygon fill="midnightblue" stroke="midnightblue" points="333.79,-489.45 323.19,-489.23 331.34,-496.01 333.79,-489.45"/>
</g>
<!-- Node26 -->
<g id="node27" class="node">
<title>Node26</title>
<g id="a_node27"><a xlink:href="classv8_1_1BigIntObject.html" target="_top" xlink:title=" ">
<polygon fill="white" stroke="black" points="406.5,-703.5 406.5,-722.5 492.5,-722.5 492.5,-703.5 406.5,-703.5"/>
<text text-anchor="middle" x="449.5" y="-710.5" font-family="Helvetica,sans-Serif" font-size="10.00">v8::BigIntObject</text>
</a>
</g>
</g>
<!-- Node9&#45;&gt;Node26 -->
<g id="edge26" class="edge">
<title>Node9&#45;&gt;Node26</title>
<path fill="none" stroke="midnightblue" d="M332.48,-492.85C338.35,-495.54 343.83,-499.15 348,-504 404.01,-569.19 326.31,-630.29 384,-694 389.88,-700.49 397.85,-704.81 406.18,-707.67"/>
<polygon fill="midnightblue" stroke="midnightblue" points="333.66,-489.55 323.06,-489.34 331.21,-496.11 333.66,-489.55"/>
</g>
<!-- Node27 -->
<g id="node28" class="node">
<title>Node27</title>
<g id="a_node28"><a xlink:href="classv8_1_1BooleanObject.html" target="_top" xlink:title=" ">
<polygon fill="white" stroke="black" points="402,-665.5 402,-684.5 497,-684.5 497,-665.5 402,-665.5"/>
<text text-anchor="middle" x="449.5" y="-672.5" font-family="Helvetica,sans-Serif" font-size="10.00">v8::BooleanObject</text>
</a>
</g>
</g>
<!-- Node9&#45;&gt;Node27 -->
<g id="edge27" class="edge">
<title>Node9&#45;&gt;Node27</title>
<path fill="none" stroke="midnightblue" d="M332.89,-493.29C338.56,-495.93 343.87,-499.41 348,-504 394.43,-555.62 336.25,-605.6 384,-656 388.9,-661.17 395.12,-664.95 401.77,-667.72"/>
<polygon fill="midnightblue" stroke="midnightblue" points="333.75,-489.87 323.16,-489.59 331.26,-496.41 333.75,-489.87"/>
</g>
<!-- Node28 -->
<g id="node29" class="node">
<title>Node28</title>
<g id="a_node29"><a xlink:href="classv8_1_1Date.html" target="_top" xlink:title=" ">
<polygon fill="white" stroke="black" points="423.5,-627.5 423.5,-646.5 475.5,-646.5 475.5,-627.5 423.5,-627.5"/>
<text text-anchor="middle" x="449.5" y="-634.5" font-family="Helvetica,sans-Serif" font-size="10.00">v8::Date</text>
</a>
</g>
</g>
<!-- Node9&#45;&gt;Node28 -->
<g id="edge28" class="edge">
<title>Node9&#45;&gt;Node28</title>
<path fill="none" stroke="midnightblue" d="M332.79,-493.63C338.42,-496.23 343.75,-499.61 348,-504 384.96,-542.18 346.07,-580.8 384,-618 394.42,-628.22 410.04,-632.99 423.3,-635.19"/>
<polygon fill="midnightblue" stroke="midnightblue" points="333.73,-490.25 323.14,-489.96 331.24,-496.79 333.73,-490.25"/>
</g>
<!-- Node29 -->
<g id="node30" class="node">
<title>Node29</title>
<g id="a_node30"><a xlink:href="classv8_1_1Function.html" target="_top" xlink:title=" ">
<polygon fill="white" stroke="black" points="415,-589.5 415,-608.5 484,-608.5 484,-589.5 415,-589.5"/>
<text text-anchor="middle" x="449.5" y="-596.5" font-family="Helvetica,sans-Serif" font-size="10.00">v8::Function</text>
</a>
</g>
</g>
<!-- Node9&#45;&gt;Node29 -->
<g id="edge29" class="edge">
<title>Node9&#45;&gt;Node29</title>
<path fill="none" stroke="midnightblue" d="M332.64,-494.31C338.21,-496.82 343.55,-499.99 348,-504 375.77,-529.02 355.59,-555.71 384,-580 392.61,-587.36 403.95,-591.87 414.72,-594.63"/>
<polygon fill="midnightblue" stroke="midnightblue" points="333.76,-490.99 323.17,-490.68 331.25,-497.53 333.76,-490.99"/>
</g>
<!-- Node30 -->
<g id="node31" class="node">
<title>Node30</title>
<g id="a_node31"><a xlink:href="classv8_1_1Map.html" target="_top" xlink:title=" ">
<polygon fill="white" stroke="black" points="424.5,-551.5 424.5,-570.5 474.5,-570.5 474.5,-551.5 424.5,-551.5"/>
<text text-anchor="middle" x="449.5" y="-558.5" font-family="Helvetica,sans-Serif" font-size="10.00">v8::Map</text>
</a>
</g>
</g>
<!-- Node9&#45;&gt;Node30 -->
<g id="edge30" class="edge">
<title>Node9&#45;&gt;Node30</title>
<path fill="none" stroke="midnightblue" d="M332.76,-496.1C338.07,-498.34 343.31,-500.96 348,-504 367.52,-516.66 364.16,-529.85 384,-542 396.25,-549.5 411.61,-554.18 424.28,-557.02"/>
<polygon fill="midnightblue" stroke="midnightblue" points="333.8,-492.75 323.2,-492.47 331.31,-499.29 333.8,-492.75"/>
</g>
<!-- Node31 -->
<g id="node32" class="node">
<title>Node31</title>
<g id="a_node32"><a xlink:href="classv8_1_1NumberObject.html" target="_top" xlink:title=" ">
<polygon fill="white" stroke="black" points="402,-513.5 402,-532.5 497,-532.5 497,-513.5 402,-513.5"/>
<text text-anchor="middle" x="449.5" y="-520.5" font-family="Helvetica,sans-Serif" font-size="10.00">v8::NumberObject</text>
</a>
</g>
</g>
<!-- Node9&#45;&gt;Node31 -->
<g id="edge31" class="edge">
<title>Node9&#45;&gt;Node31</title>
<path fill="none" stroke="midnightblue" d="M333.02,-494.6C356.48,-500.37 386.22,-507.68 409.65,-513.44"/>
<polygon fill="midnightblue" stroke="midnightblue" points="333.61,-491.14 323.06,-492.15 331.93,-497.93 333.61,-491.14"/>
</g>
<!-- Node32 -->
<g id="node33" class="node">
<title>Node32</title>
<g id="a_node33"><a xlink:href="classv8_1_1Promise.html" target="_top" xlink:title=" ">
<polygon fill="white" stroke="black" points="415.5,-475.5 415.5,-494.5 483.5,-494.5 483.5,-475.5 415.5,-475.5"/>
<text text-anchor="middle" x="449.5" y="-482.5" font-family="Helvetica,sans-Serif" font-size="10.00">v8::Promise</text>
</a>
</g>
</g>
<!-- Node9&#45;&gt;Node32 -->
<g id="edge32" class="edge">
<title>Node9&#45;&gt;Node32</title>
<path fill="none" stroke="midnightblue" d="M333.09,-485C358.46,-485 391.17,-485 415.28,-485"/>
<polygon fill="midnightblue" stroke="midnightblue" points="333.06,-481.5 323.06,-485 333.06,-488.5 333.06,-481.5"/>
</g>
<!-- Node33 -->
<g id="node34" class="node">
<title>Node33</title>
<g id="a_node34"><a xlink:href="classv8_1_1Promise_1_1Resolver.html" target="_top" xlink:title=" ">
<polygon fill="white" stroke="black" points="394.5,-437.5 394.5,-456.5 504.5,-456.5 504.5,-437.5 394.5,-437.5"/>
<text text-anchor="middle" x="449.5" y="-444.5" font-family="Helvetica,sans-Serif" font-size="10.00">v8::Promise::Resolver</text>
</a>
</g>
</g>
<!-- Node9&#45;&gt;Node33 -->
<g id="edge33" class="edge">
<title>Node9&#45;&gt;Node33</title>
<path fill="none" stroke="midnightblue" d="M333.02,-475.4C356.48,-469.63 386.22,-462.32 409.65,-456.56"/>
<polygon fill="midnightblue" stroke="midnightblue" points="331.93,-472.07 323.06,-477.85 333.61,-478.86 331.93,-472.07"/>
</g>
<!-- Node34 -->
<g id="node35" class="node">
<title>Node34</title>
<g id="a_node35"><a xlink:href="classv8_1_1Proxy.html" target="_top" xlink:title=" ">
<polygon fill="white" stroke="black" points="421.5,-399.5 421.5,-418.5 477.5,-418.5 477.5,-399.5 421.5,-399.5"/>
<text text-anchor="middle" x="449.5" y="-406.5" font-family="Helvetica,sans-Serif" font-size="10.00">v8::Proxy</text>
</a>
</g>
</g>
<!-- Node9&#45;&gt;Node34 -->
<g id="edge34" class="edge">
<title>Node9&#45;&gt;Node34</title>
<path fill="none" stroke="midnightblue" d="M315.17,-469.2C332.82,-456.62 359.04,-439.31 384,-428 395.8,-422.65 409.5,-418.37 421.22,-415.23"/>
<polygon fill="midnightblue" stroke="midnightblue" points="312.81,-466.59 306.76,-475.29 316.92,-472.26 312.81,-466.59"/>
</g>
<!-- Node35 -->
<g id="node36" class="node">
<title>Node35</title>
<g id="a_node36"><a xlink:href="classv8_1_1RegExp.html" target="_top" xlink:title=" ">
<polygon fill="white" stroke="black" points="417,-361.5 417,-380.5 482,-380.5 482,-361.5 417,-361.5"/>
<text text-anchor="middle" x="449.5" y="-368.5" font-family="Helvetica,sans-Serif" font-size="10.00">v8::RegExp</text>
</a>
</g>
</g>
<!-- Node9&#45;&gt;Node35 -->
<g id="edge35" class="edge">
<title>Node9&#45;&gt;Node35</title>
<path fill="none" stroke="midnightblue" d="M306.32,-467.1C321.97,-445.7 350.94,-410.24 384,-390 393.96,-383.9 405.98,-379.67 416.93,-376.78"/>
<polygon fill="midnightblue" stroke="midnightblue" points="303.41,-465.15 300.46,-475.33 309.11,-469.22 303.41,-465.15"/>
</g>
<!-- Node36 -->
<g id="node37" class="node">
<title>Node36</title>
<g id="a_node37"><a xlink:href="classv8_1_1Set.html" target="_top" xlink:title=" ">
<polygon fill="white" stroke="black" points="426,-323.5 426,-342.5 473,-342.5 473,-323.5 426,-323.5"/>
<text text-anchor="middle" x="449.5" y="-330.5" font-family="Helvetica,sans-Serif" font-size="10.00">v8::Set</text>
</a>
</g>
</g>
<!-- Node9&#45;&gt;Node36 -->
<g id="edge36" class="edge">
<title>Node9&#45;&gt;Node36</title>
<path fill="none" stroke="midnightblue" d="M301.82,-465.87C314.65,-436.88 342.9,-382.04 384,-352 396.25,-343.04 412.69,-338.29 425.91,-335.77"/>
<polygon fill="midnightblue" stroke="midnightblue" points="298.51,-464.71 297.8,-475.28 304.95,-467.46 298.51,-464.71"/>
</g>
<!-- Node37 -->
<g id="node38" class="node">
<title>Node37</title>
<g id="a_node38"><a xlink:href="classv8_1_1SharedArrayBuffer.html" target="_top" xlink:title=" ">
<polygon fill="white" stroke="black" points="394.5,-285.5 394.5,-304.5 504.5,-304.5 504.5,-285.5 394.5,-285.5"/>
<text text-anchor="middle" x="449.5" y="-292.5" font-family="Helvetica,sans-Serif" font-size="10.00">v8::SharedArrayBuffer</text>
</a>
</g>
</g>
<!-- Node9&#45;&gt;Node37 -->
<g id="edge37" class="edge">
<title>Node9&#45;&gt;Node37</title>
<path fill="none" stroke="midnightblue" d="M298.97,-465.04C308.89,-429.33 334.59,-354.48 384,-314 388.7,-310.15 394.14,-307.08 399.85,-304.64"/>
<polygon fill="midnightblue" stroke="midnightblue" points="295.46,-464.6 296.29,-475.16 302.23,-466.39 295.46,-464.6"/>
</g>
<!-- Node38 -->
<g id="node39" class="node">
<title>Node38</title>
<g id="a_node39"><a xlink:href="classv8_1_1StringObject.html" target="_top" xlink:title=" ">
<polygon fill="white" stroke="black" points="406.5,-247.5 406.5,-266.5 492.5,-266.5 492.5,-247.5 406.5,-247.5"/>
<text text-anchor="middle" x="449.5" y="-254.5" font-family="Helvetica,sans-Serif" font-size="10.00">v8::StringObject</text>
</a>
</g>
</g>
<!-- Node9&#45;&gt;Node38 -->
<g id="edge38" class="edge">
<title>Node9&#45;&gt;Node38</title>
<path fill="none" stroke="midnightblue" d="M296.81,-465.32C303.76,-423.99 325.63,-327.74 384,-276 390.29,-270.42 398.14,-266.48 406.18,-263.7"/>
<polygon fill="midnightblue" stroke="midnightblue" points="293.32,-465.01 295.23,-475.43 300.23,-466.09 293.32,-465.01"/>
</g>
<!-- Node39 -->
<g id="node40" class="node">
<title>Node39</title>
<g id="a_node40"><a xlink:href="classv8_1_1SymbolObject.html" target="_top" xlink:title=" ">
<polygon fill="white" stroke="black" points="403.5,-209.5 403.5,-228.5 495.5,-228.5 495.5,-209.5 403.5,-209.5"/>
<text text-anchor="middle" x="449.5" y="-216.5" font-family="Helvetica,sans-Serif" font-size="10.00">v8::SymbolObject</text>
</a>
</g>
</g>
<!-- Node9&#45;&gt;Node39 -->
<g id="edge39" class="edge">
<title>Node9&#45;&gt;Node39</title>
<path fill="none" stroke="midnightblue" d="M295.33,-465.31C299.56,-418.78 316.68,-301.21 384,-238 389.45,-232.89 396.2,-229.14 403.27,-226.4"/>
<polygon fill="midnightblue" stroke="midnightblue" points="291.84,-465.05 294.53,-475.3 298.82,-465.61 291.84,-465.05"/>
</g>
<!-- Node40 -->
<g id="node41" class="node">
<title>Node40</title>
<g id="a_node41"><a xlink:href="classv8_1_1WasmCompiledModule.html" target="_top" xlink:title=" ">
<polygon fill="white" stroke="black" points="384,-171.5 384,-190.5 515,-190.5 515,-171.5 384,-171.5"/>
<text text-anchor="middle" x="449.5" y="-178.5" font-family="Helvetica,sans-Serif" font-size="10.00">v8::WasmCompiledModule</text>
</a>
</g>
</g>
<!-- Node9&#45;&gt;Node40 -->
<g id="edge40" class="edge">
<title>Node9&#45;&gt;Node40</title>
<path fill="none" stroke="midnightblue" d="M294.23,-465.14C295.92,-413.68 307.72,-274.82 384,-200 387.92,-196.16 392.57,-193.09 397.56,-190.63"/>
<polygon fill="midnightblue" stroke="midnightblue" points="290.73,-465.17 293.99,-475.25 297.72,-465.34 290.73,-465.17"/>
</g>
<!-- Node13 -->
<g id="node14" class="node">
<title>Node13</title>
<g id="a_node14"><a xlink:href="classv8_1_1DataView.html" target="_top" xlink:title=" ">
<polygon fill="white" stroke="black" points="554,-760.5 554,-779.5 628,-779.5 628,-760.5 554,-760.5"/>
<text text-anchor="middle" x="591" y="-767.5" font-family="Helvetica,sans-Serif" font-size="10.00">v8::DataView</text>
</a>
</g>
</g>
<!-- Node12&#45;&gt;Node13 -->
<g id="edge13" class="edge">
<title>Node12&#45;&gt;Node13</title>
<path fill="none" stroke="midnightblue" d="M510.2,-759.13C525.01,-761.15 540.44,-763.25 553.74,-765.06"/>
<polygon fill="midnightblue" stroke="midnightblue" points="510.46,-755.63 500.08,-757.75 509.51,-762.57 510.46,-755.63"/>
</g>
<!-- Node14 -->
<g id="node15" class="node">
<title>Node14</title>
<g id="a_node15"><a xlink:href="classv8_1_1TypedArray.html" target="_top" xlink:title=" ">
<polygon fill="white" stroke="black" points="551,-722.5 551,-741.5 631,-741.5 631,-722.5 551,-722.5"/>
<text text-anchor="middle" x="591" y="-729.5" font-family="Helvetica,sans-Serif" font-size="10.00">v8::TypedArray</text>
</a>
</g>
</g>
<!-- Node12&#45;&gt;Node14 -->
<g id="edge14" class="edge">
<title>Node12&#45;&gt;Node14</title>
<path fill="none" stroke="midnightblue" d="M510.36,-742.85C523.99,-740.99 538.14,-739.06 550.66,-737.36"/>
<polygon fill="midnightblue" stroke="midnightblue" points="509.51,-739.43 500.08,-744.25 510.46,-746.37 509.51,-739.43"/>
</g>
<!-- Node15 -->
<g id="node16" class="node">
<title>Node15</title>
<g id="a_node16"><a xlink:href="classv8_1_1BigInt64Array.html" target="_top" xlink:title=" ">
<polygon fill="white" stroke="black" points="680,-912.5 680,-931.5 770,-931.5 770,-912.5 680,-912.5"/>
<text text-anchor="middle" x="725" y="-919.5" font-family="Helvetica,sans-Serif" font-size="10.00">v8::BigInt64Array</text>
</a>
</g>
</g>
<!-- Node14&#45;&gt;Node15 -->
<g id="edge15" class="edge">
<title>Node14&#45;&gt;Node15</title>
<path fill="none" stroke="midnightblue" d="M627.92,-747.67C629.03,-748.72 630.06,-749.82 631,-751 674.38,-805.2 620.15,-851.77 667,-903 670.59,-906.93 675.01,-910.04 679.79,-912.51"/>
<polygon fill="midnightblue" stroke="midnightblue" points="629.94,-744.81 619.82,-741.68 625.78,-750.44 629.94,-744.81"/>
</g>
<!-- Node16 -->
<g id="node17" class="node">
<title>Node16</title>
<g id="a_node17"><a xlink:href="classv8_1_1BigUint64Array.html" target="_top" xlink:title=" ">
<polygon fill="white" stroke="black" points="676.5,-874.5 676.5,-893.5 773.5,-893.5 773.5,-874.5 676.5,-874.5"/>
<text text-anchor="middle" x="725" y="-881.5" font-family="Helvetica,sans-Serif" font-size="10.00">v8::BigUint64Array</text>
</a>
</g>
</g>
<!-- Node14&#45;&gt;Node16 -->
<g id="edge16" class="edge">
<title>Node14&#45;&gt;Node16</title>
<path fill="none" stroke="midnightblue" d="M627.71,-747.67C628.88,-748.71 629.99,-749.82 631,-751 665.7,-791.24 629.73,-827.13 667,-865 670.8,-868.87 675.42,-871.95 680.35,-874.4"/>
<polygon fill="midnightblue" stroke="midnightblue" points="629.38,-744.56 619.2,-741.64 625.34,-750.28 629.38,-744.56"/>
</g>
<!-- Node17 -->
<g id="node18" class="node">
<title>Node17</title>
<g id="a_node18"><a xlink:href="classv8_1_1Float32Array.html" target="_top" xlink:title=" ">
<polygon fill="white" stroke="black" points="682,-836.5 682,-855.5 768,-855.5 768,-836.5 682,-836.5"/>
<text text-anchor="middle" x="725" y="-843.5" font-family="Helvetica,sans-Serif" font-size="10.00">v8::Float32Array</text>
</a>
</g>
</g>
<!-- Node14&#45;&gt;Node17 -->
<g id="edge17" class="edge">
<title>Node14&#45;&gt;Node17</title>
<path fill="none" stroke="midnightblue" d="M626.49,-747.05C628.09,-748.28 629.61,-749.59 631,-751 657.28,-777.57 639.03,-802.21 667,-827 671.37,-830.87 676.56,-833.96 681.99,-836.42"/>
<polygon fill="midnightblue" stroke="midnightblue" points="628.28,-744.03 617.98,-741.58 624.5,-749.93 628.28,-744.03"/>
</g>
<!-- Node18 -->
<g id="node19" class="node">
<title>Node18</title>
<g id="a_node19"><a xlink:href="classv8_1_1Float64Array.html" target="_top" xlink:title=" ">
<polygon fill="white" stroke="black" points="682,-798.5 682,-817.5 768,-817.5 768,-798.5 682,-798.5"/>
<text text-anchor="middle" x="725" y="-805.5" font-family="Helvetica,sans-Serif" font-size="10.00">v8::Float64Array</text>
</a>
</g>
</g>
<!-- Node14&#45;&gt;Node18 -->
<g id="edge18" class="edge">
<title>Node14&#45;&gt;Node18</title>
<path fill="none" stroke="midnightblue" d="M624.01,-746.4C626.44,-747.85 628.8,-749.39 631,-751 649.76,-764.76 647.38,-776.5 667,-789 672.98,-792.81 679.81,-795.94 686.61,-798.47"/>
<polygon fill="midnightblue" stroke="midnightblue" points="625.52,-743.24 615.07,-741.54 622.18,-749.39 625.52,-743.24"/>
</g>
<!-- Node19 -->
<g id="node20" class="node">
<title>Node19</title>
<g id="a_node20"><a xlink:href="classv8_1_1Int16Array.html" target="_top" xlink:title=" ">
<polygon fill="white" stroke="black" points="687,-760.5 687,-779.5 763,-779.5 763,-760.5 687,-760.5"/>
<text text-anchor="middle" x="725" y="-767.5" font-family="Helvetica,sans-Serif" font-size="10.00">v8::Int16Array</text>
</a>
</g>
</g>
<!-- Node14&#45;&gt;Node19 -->
<g id="edge19" class="edge">
<title>Node14&#45;&gt;Node19</title>
<path fill="none" stroke="midnightblue" d="M635.04,-744.39C653.12,-749.59 673.82,-755.55 690.7,-760.41"/>
<polygon fill="midnightblue" stroke="midnightblue" points="635.89,-740.99 625.31,-741.59 633.95,-747.72 635.89,-740.99"/>
</g>
<!-- Node20 -->
<g id="node21" class="node">
<title>Node20</title>
<g id="a_node21"><a xlink:href="classv8_1_1Int32Array.html" target="_top" xlink:title=" ">
<polygon fill="white" stroke="black" points="687,-722.5 687,-741.5 763,-741.5 763,-722.5 687,-722.5"/>
<text text-anchor="middle" x="725" y="-729.5" font-family="Helvetica,sans-Serif" font-size="10.00">v8::Int32Array</text>
</a>
</g>
</g>
<!-- Node14&#45;&gt;Node20 -->
<g id="edge20" class="edge">
<title>Node14&#45;&gt;Node20</title>
<path fill="none" stroke="midnightblue" d="M641.45,-732C656.52,-732 672.83,-732 686.94,-732"/>
<polygon fill="midnightblue" stroke="midnightblue" points="641.25,-728.5 631.25,-732 641.25,-735.5 641.25,-728.5"/>
</g>
<!-- Node21 -->
<g id="node22" class="node">
<title>Node21</title>
<g id="a_node22"><a xlink:href="classv8_1_1Int8Array.html" target="_top" xlink:title=" ">
<polygon fill="white" stroke="black" points="689.5,-684.5 689.5,-703.5 760.5,-703.5 760.5,-684.5 689.5,-684.5"/>
<text text-anchor="middle" x="725" y="-691.5" font-family="Helvetica,sans-Serif" font-size="10.00">v8::Int8Array</text>
</a>
</g>
</g>
<!-- Node14&#45;&gt;Node21 -->
<g id="edge21" class="edge">
<title>Node14&#45;&gt;Node21</title>
<path fill="none" stroke="midnightblue" d="M635.04,-719.61C653.12,-714.41 673.82,-708.45 690.7,-703.59"/>
<polygon fill="midnightblue" stroke="midnightblue" points="633.95,-716.28 625.31,-722.41 635.89,-723.01 633.95,-716.28"/>
</g>
<!-- Node22 -->
<g id="node23" class="node">
<title>Node22</title>
<g id="a_node23"><a xlink:href="classv8_1_1Uint16Array.html" target="_top" xlink:title=" ">
<polygon fill="white" stroke="black" points="683.5,-646.5 683.5,-665.5 766.5,-665.5 766.5,-646.5 683.5,-646.5"/>
<text text-anchor="middle" x="725" y="-653.5" font-family="Helvetica,sans-Serif" font-size="10.00">v8::Uint16Array</text>
</a>
</g>
</g>
<!-- Node14&#45;&gt;Node22 -->
<g id="edge22" class="edge">
<title>Node14&#45;&gt;Node22</title>
<path fill="none" stroke="midnightblue" d="M610.11,-715.51C624.62,-702.99 645.96,-686.11 667,-675 673.92,-671.35 681.68,-668.2 689.19,-665.58"/>
<polygon fill="midnightblue" stroke="midnightblue" points="607.6,-713.05 602.41,-722.29 612.23,-718.31 607.6,-713.05"/>
</g>
<!-- Node23 -->
<g id="node24" class="node">
<title>Node23</title>
<g id="a_node24"><a xlink:href="classv8_1_1Uint32Array.html" target="_top" xlink:title=" ">
<polygon fill="white" stroke="black" points="683.5,-608.5 683.5,-627.5 766.5,-627.5 766.5,-608.5 683.5,-608.5"/>
<text text-anchor="middle" x="725" y="-615.5" font-family="Helvetica,sans-Serif" font-size="10.00">v8::Uint32Array</text>
</a>
</g>
</g>
<!-- Node14&#45;&gt;Node23 -->
<g id="edge23" class="edge">
<title>Node14&#45;&gt;Node23</title>
<path fill="none" stroke="midnightblue" d="M602.01,-713.65C614.53,-692.31 637.92,-657.42 667,-637 672.46,-633.16 678.76,-630.06 685.13,-627.56"/>
<polygon fill="midnightblue" stroke="midnightblue" points="598.93,-711.98 597.03,-722.4 605.02,-715.43 598.93,-711.98"/>
</g>
<!-- Node24 -->
<g id="node25" class="node">
<title>Node24</title>
<g id="a_node25"><a xlink:href="classv8_1_1Uint8Array.html" target="_top" xlink:title=" ">
<polygon fill="white" stroke="black" points="686.5,-570.5 686.5,-589.5 763.5,-589.5 763.5,-570.5 686.5,-570.5"/>
<text text-anchor="middle" x="725" y="-577.5" font-family="Helvetica,sans-Serif" font-size="10.00">v8::Uint8Array</text>
</a>
</g>
</g>
<!-- Node14&#45;&gt;Node24 -->
<g id="edge24" class="edge">
<title>Node14&#45;&gt;Node24</title>
<path fill="none" stroke="midnightblue" d="M597.88,-712.67C607.63,-683.83 629.82,-629.66 667,-599 672.63,-594.35 679.45,-590.83 686.38,-588.16"/>
<polygon fill="midnightblue" stroke="midnightblue" points="594.49,-711.79 594.75,-722.38 601.15,-713.94 594.49,-711.79"/>
</g>
<!-- Node25 -->
<g id="node26" class="node">
<title>Node25</title>
<g id="a_node26"><a xlink:href="classv8_1_1Uint8ClampedArray.html" target="_top" xlink:title=" ">
<polygon fill="white" stroke="black" points="667,-532.5 667,-551.5 783,-551.5 783,-532.5 667,-532.5"/>
<text text-anchor="middle" x="725" y="-539.5" font-family="Helvetica,sans-Serif" font-size="10.00">v8::Uint8ClampedArray</text>
</a>
</g>
</g>
<!-- Node14&#45;&gt;Node25 -->
<g id="edge25" class="edge">
<title>Node14&#45;&gt;Node25</title>
<path fill="none" stroke="midnightblue" d="M595.27,-712.26C602.15,-676.91 621.4,-602.6 667,-561 671.24,-557.13 676.29,-554.05 681.6,-551.59"/>
<polygon fill="midnightblue" stroke="midnightblue" points="591.79,-711.82 593.45,-722.28 598.68,-713.06 591.79,-711.82"/>
</g>
<!-- Node42 -->
<g id="node43" class="node">
<title>Node42</title>
<g id="a_node43"><a xlink:href="classv8_1_1BigInt.html" target="_top" xlink:title=" ">
<polygon fill="white" stroke="black" points="421,-133.5 421,-152.5 478,-152.5 478,-133.5 421,-133.5"/>
<text text-anchor="middle" x="449.5" y="-140.5" font-family="Helvetica,sans-Serif" font-size="10.00">v8::BigInt</text>
</a>
</g>
</g>
<!-- Node41&#45;&gt;Node42 -->
<g id="edge42" class="edge">
<title>Node41&#45;&gt;Node42</title>
<path fill="none" stroke="midnightblue" d="M338.16,-115.86C364.85,-122.43 398.03,-130.59 421,-136.24"/>
<polygon fill="midnightblue" stroke="midnightblue" points="338.84,-112.42 328.29,-113.43 337.16,-119.22 338.84,-112.42"/>
</g>
<!-- Node43 -->
<g id="node44" class="node">
<title>Node43</title>
<g id="a_node44"><a xlink:href="classv8_1_1Boolean.html" target="_top" xlink:title=" ">
<polygon fill="white" stroke="black" points="416,-95.5 416,-114.5 483,-114.5 483,-95.5 416,-95.5"/>
<text text-anchor="middle" x="449.5" y="-102.5" font-family="Helvetica,sans-Serif" font-size="10.00">v8::Boolean</text>
</a>
</g>
</g>
<!-- Node41&#45;&gt;Node43 -->
<g id="edge43" class="edge">
<title>Node41&#45;&gt;Node43</title>
<path fill="none" stroke="midnightblue" d="M338.5,-105C363.21,-105 393.4,-105 415.89,-105"/>
<polygon fill="midnightblue" stroke="midnightblue" points="338.29,-101.5 328.29,-105 338.29,-108.5 338.29,-101.5"/>
</g>
<!-- Node44 -->
<g id="node45" class="node">
<title>Node44</title>
<g id="a_node45"><a xlink:href="classv8_1_1Name.html" target="_top" xlink:title=" ">
<polygon fill="white" stroke="black" points="420.5,-57.5 420.5,-76.5 478.5,-76.5 478.5,-57.5 420.5,-57.5"/>
<text text-anchor="middle" x="449.5" y="-64.5" font-family="Helvetica,sans-Serif" font-size="10.00">v8::Name</text>
</a>
</g>
</g>
<!-- Node41&#45;&gt;Node44 -->
<g id="edge44" class="edge">
<title>Node41&#45;&gt;Node44</title>
<path fill="none" stroke="midnightblue" d="M338.1,-94.15C364.6,-87.64 397.53,-79.54 420.5,-73.89"/>
<polygon fill="midnightblue" stroke="midnightblue" points="337.16,-90.78 328.29,-96.57 338.84,-97.58 337.16,-90.78"/>
</g>
<!-- Node47 -->
<g id="node48" class="node">
<title>Node47</title>
<g id="a_node48"><a xlink:href="classv8_1_1Number.html" target="_top" xlink:title=" ">
<polygon fill="white" stroke="black" points="416.5,-19.5 416.5,-38.5 482.5,-38.5 482.5,-19.5 416.5,-19.5"/>
<text text-anchor="middle" x="449.5" y="-26.5" font-family="Helvetica,sans-Serif" font-size="10.00">v8::Number</text>
</a>
</g>
</g>
<!-- Node41&#45;&gt;Node47 -->
<g id="edge47" class="edge">
<title>Node41&#45;&gt;Node47</title>
<path fill="none" stroke="midnightblue" d="M315.17,-89.2C332.82,-76.62 359.04,-59.31 384,-48 394.21,-43.37 405.83,-39.55 416.37,-36.57"/>
<polygon fill="midnightblue" stroke="midnightblue" points="312.81,-86.59 306.76,-95.29 316.92,-92.26 312.81,-86.59"/>
</g>
<!-- Node45 -->
<g id="node46" class="node">
<title>Node45</title>
<g id="a_node46"><a xlink:href="classv8_1_1String.html" target="_top" xlink:title=" ">
<polygon fill="white" stroke="black" points="562.5,-95.5 562.5,-114.5 619.5,-114.5 619.5,-95.5 562.5,-95.5"/>
<text text-anchor="middle" x="591" y="-102.5" font-family="Helvetica,sans-Serif" font-size="10.00">v8::String</text>
</a>
</g>
</g>
<!-- Node44&#45;&gt;Node45 -->
<g id="edge45" class="edge">
<title>Node44&#45;&gt;Node45</title>
<path fill="none" stroke="midnightblue" d="M488.63,-77.39C511.93,-83.73 541.2,-91.71 562.29,-97.45"/>
<polygon fill="midnightblue" stroke="midnightblue" points="489.3,-73.94 478.73,-74.69 487.46,-80.7 489.3,-73.94"/>
</g>
<!-- Node46 -->
<g id="node47" class="node">
<title>Node46</title>
<g id="a_node47"><a xlink:href="classv8_1_1Symbol.html" target="_top" xlink:title=" ">
<polygon fill="white" stroke="black" points="559,-57.5 559,-76.5 623,-76.5 623,-57.5 559,-57.5"/>
<text text-anchor="middle" x="591" y="-64.5" font-family="Helvetica,sans-Serif" font-size="10.00">v8::Symbol</text>
</a>
</g>
</g>
<!-- Node44&#45;&gt;Node46 -->
<g id="edge46" class="edge">
<title>Node44&#45;&gt;Node46</title>
<path fill="none" stroke="midnightblue" d="M488.76,-67C510.81,-67 538.18,-67 558.9,-67"/>
<polygon fill="midnightblue" stroke="midnightblue" points="488.73,-63.5 478.73,-67 488.73,-70.5 488.73,-63.5"/>
</g>
<!-- Node48 -->
<g id="node49" class="node">
<title>Node48</title>
<g id="a_node49"><a xlink:href="classv8_1_1Integer.html" target="_top" xlink:title=" ">
<polygon fill="white" stroke="black" points="560,-19.5 560,-38.5 622,-38.5 622,-19.5 560,-19.5"/>
<text text-anchor="middle" x="591" y="-26.5" font-family="Helvetica,sans-Serif" font-size="10.00">v8::Integer</text>
</a>
</g>
</g>
<!-- Node47&#45;&gt;Node48 -->
<g id="edge48" class="edge">
<title>Node47&#45;&gt;Node48</title>
<path fill="none" stroke="midnightblue" d="M492.7,-29C514.26,-29 539.99,-29 559.58,-29"/>
<polygon fill="midnightblue" stroke="midnightblue" points="492.5,-25.5 482.5,-29 492.5,-32.5 492.5,-25.5"/>
</g>
<!-- Node49 -->
<g id="node50" class="node">
<title>Node49</title>
<g id="a_node50"><a xlink:href="classv8_1_1Int32.html" target="_top" xlink:title=" ">
<polygon fill="white" stroke="black" points="698.5,-38.5 698.5,-57.5 751.5,-57.5 751.5,-38.5 698.5,-38.5"/>
<text text-anchor="middle" x="725" y="-45.5" font-family="Helvetica,sans-Serif" font-size="10.00">v8::Int32</text>
</a>
</g>
</g>
<!-- Node48&#45;&gt;Node49 -->
<g id="edge49" class="edge">
<title>Node48&#45;&gt;Node49</title>
<path fill="none" stroke="midnightblue" d="M632.42,-34.82C653.87,-37.91 679.59,-41.61 698.3,-44.3"/>
<polygon fill="midnightblue" stroke="midnightblue" points="632.68,-31.32 622.28,-33.36 631.68,-38.25 632.68,-31.32"/>
</g>
<!-- Node50 -->
<g id="node51" class="node">
<title>Node50</title>
<g id="a_node51"><a xlink:href="classv8_1_1Uint32.html" target="_top" xlink:title=" ">
<polygon fill="white" stroke="black" points="695,-0.5 695,-19.5 755,-19.5 755,-0.5 695,-0.5"/>
<text text-anchor="middle" x="725" y="-7.5" font-family="Helvetica,sans-Serif" font-size="10.00">v8::Uint32</text>
</a>
</g>
</g>
<!-- Node48&#45;&gt;Node50 -->
<g id="edge50" class="edge">
<title>Node48&#45;&gt;Node50</title>
<path fill="none" stroke="midnightblue" d="M632.42,-23.18C652.55,-20.28 676.43,-16.85 694.77,-14.21"/>
<polygon fill="midnightblue" stroke="midnightblue" points="631.68,-19.75 622.28,-24.64 632.68,-26.68 631.68,-19.75"/>
</g>
</g>
</svg>
