<?xml version="1.0" encoding="UTF-8" standalone="no"?>
<!DOCTYPE svg PUBLIC "-//W3C//DTD SVG 1.1//EN"
 "http://www.w3.org/Graphics/SVG/1.1/DTD/svg11.dtd">
<!-- Generated by graphviz version 2.44.0 ()
 -->
<!-- Title: include/libplatform/v8&#45;tracing.h Pages: 1 -->
<svg width="598pt" height="162pt"
 viewBox="0.00 0.00 598.00 162.00" xmlns="http://www.w3.org/2000/svg" xmlns:xlink="http://www.w3.org/1999/xlink">
<g id="graph0" class="graph" transform="scale(1 1) rotate(0) translate(4 158)">
<title>include/libplatform/v8&#45;tracing.h</title>
<polygon fill="white" stroke="transparent" points="-4,4 -4,-158 594,-158 594,4 -4,4"/>
<!-- Node1 -->
<g id="node1" class="node">
<title>Node1</title>
<g id="a_node1"><a xlink:title=" ">
<polygon fill="#bfbfbf" stroke="black" points="136.5,-123.5 136.5,-153.5 231.5,-153.5 231.5,-123.5 136.5,-123.5"/>
<text text-anchor="start" x="144.5" y="-141.5" font-family="Helvetica,sans-Serif" font-size="10.00">include/libplatform</text>
<text text-anchor="middle" x="184" y="-130.5" font-family="Helvetica,sans-Serif" font-size="10.00">/v8&#45;tracing.h</text>
</a>
</g>
</g>
<!-- Node2 -->
<g id="node2" class="node">
<title>Node2</title>
<g id="a_node2"><a xlink:title=" ">
<polygon fill="white" stroke="#bfbfbf" points="0,-62 0,-81 50,-81 50,-62 0,-62"/>
<text text-anchor="middle" x="25" y="-69" font-family="Helvetica,sans-Serif" font-size="10.00">fstream</text>
</a>
</g>
</g>
<!-- Node1&#45;&gt;Node2 -->
<g id="edge1" class="edge">
<title>Node1&#45;&gt;Node2</title>
<path fill="none" stroke="midnightblue" d="M149.5,-123.4C121.35,-111.89 81.99,-95.8 55.11,-84.81"/>
<polygon fill="midnightblue" stroke="midnightblue" points="56.39,-81.55 45.81,-81.01 53.74,-88.03 56.39,-81.55"/>
</g>
<!-- Node3 -->
<g id="node3" class="node">
<title>Node3</title>
<g id="a_node3"><a xlink:title=" ">
<polygon fill="white" stroke="#bfbfbf" points="126.5,-0.5 126.5,-19.5 177.5,-19.5 177.5,-0.5 126.5,-0.5"/>
<text text-anchor="middle" x="152" y="-7.5" font-family="Helvetica,sans-Serif" font-size="10.00">memory</text>
</a>
</g>
</g>
<!-- Node1&#45;&gt;Node3 -->
<g id="edge2" class="edge">
<title>Node1&#45;&gt;Node3</title>
<path fill="none" stroke="midnightblue" d="M141.19,-123.42C124.31,-115.52 106.67,-103.8 97,-87 90.13,-75.06 91.1,-68.45 97,-56 103.13,-43.07 114.99,-32.62 126.14,-25.05"/>
<polygon fill="midnightblue" stroke="midnightblue" points="128.19,-27.9 134.8,-19.61 124.47,-21.97 128.19,-27.9"/>
</g>
<!-- Node4 -->
<g id="node4" class="node">
<title>Node4</title>
<g id="a_node4"><a xlink:title=" ">
<polygon fill="white" stroke="#bfbfbf" points="106,-62 106,-81 184,-81 184,-62 106,-62"/>
<text text-anchor="middle" x="145" y="-69" font-family="Helvetica,sans-Serif" font-size="10.00">unordered_set</text>
</a>
</g>
</g>
<!-- Node1&#45;&gt;Node4 -->
<g id="edge3" class="edge">
<title>Node1&#45;&gt;Node4</title>
<path fill="none" stroke="midnightblue" d="M175.54,-123.4C169.64,-113.56 161.73,-100.38 155.44,-89.89"/>
<polygon fill="midnightblue" stroke="midnightblue" points="158.36,-87.97 150.22,-81.19 152.36,-91.57 158.36,-87.97"/>
</g>
<!-- Node5 -->
<g id="node5" class="node">
<title>Node5</title>
<g id="a_node5"><a xlink:title=" ">
<polygon fill="white" stroke="#bfbfbf" points="202,-62 202,-81 246,-81 246,-62 202,-62"/>
<text text-anchor="middle" x="224" y="-69" font-family="Helvetica,sans-Serif" font-size="10.00">vector</text>
</a>
</g>
</g>
<!-- Node1&#45;&gt;Node5 -->
<g id="edge4" class="edge">
<title>Node1&#45;&gt;Node5</title>
<path fill="none" stroke="midnightblue" d="M192.68,-123.4C198.73,-113.56 206.84,-100.38 213.3,-89.89"/>
<polygon fill="midnightblue" stroke="midnightblue" points="216.39,-91.55 218.65,-81.19 210.43,-87.88 216.39,-91.55"/>
</g>
<!-- Node6 -->
<g id="node6" class="node">
<title>Node6</title>
<g id="a_node6"><a xlink:href="libplatform-export_8h.html" target="_top" xlink:title=" ">
<polygon fill="white" stroke="black" points="264,-56.5 264,-86.5 374,-86.5 374,-56.5 264,-56.5"/>
<text text-anchor="start" x="272" y="-74.5" font-family="Helvetica,sans-Serif" font-size="10.00">libplatform/libplatform</text>
<text text-anchor="middle" x="319" y="-63.5" font-family="Helvetica,sans-Serif" font-size="10.00">&#45;export.h</text>
</a>
</g>
</g>
<!-- Node1&#45;&gt;Node6 -->
<g id="edge5" class="edge">
<title>Node1&#45;&gt;Node6</title>
<path fill="none" stroke="midnightblue" d="M213.29,-123.4C233.02,-113.9 259.23,-101.28 280.62,-90.98"/>
<polygon fill="midnightblue" stroke="midnightblue" points="282.27,-94.07 289.76,-86.58 279.24,-87.76 282.27,-94.07"/>
</g>
<!-- Node7 -->
<g id="node7" class="node">
<title>Node7</title>
<g id="a_node7"><a xlink:href="v8-platform_8h.html" target="_top" xlink:title=" ">
<polygon fill="white" stroke="black" points="392.5,-62 392.5,-81 465.5,-81 465.5,-62 392.5,-62"/>
<text text-anchor="middle" x="429" y="-69" font-family="Helvetica,sans-Serif" font-size="10.00">v8&#45;platform.h</text>
</a>
</g>
</g>
<!-- Node1&#45;&gt;Node7 -->
<g id="edge6" class="edge">
<title>Node1&#45;&gt;Node7</title>
<path fill="none" stroke="midnightblue" d="M231.65,-126.21C272.09,-116.44 331.57,-101.62 383,-87 386.32,-86.06 389.77,-85.04 393.21,-84"/>
<polygon fill="midnightblue" stroke="midnightblue" points="394.28,-87.33 402.81,-81.04 392.22,-80.64 394.28,-87.33"/>
</g>
<!-- Node7&#45;&gt;Node3 -->
<g id="edge10" class="edge">
<title>Node7&#45;&gt;Node3</title>
<path fill="none" stroke="midnightblue" d="M403.36,-61.85C396.77,-59.79 389.65,-57.69 383,-56 314.48,-38.59 233.06,-24.16 187.48,-16.63"/>
<polygon fill="midnightblue" stroke="midnightblue" points="187.94,-13.16 177.5,-15 186.81,-20.07 187.94,-13.16"/>
</g>
<!-- Node8 -->
<g id="node8" class="node">
<title>Node8</title>
<g id="a_node8"><a xlink:title=" ">
<polygon fill="white" stroke="#bfbfbf" points="269.5,-0.5 269.5,-19.5 320.5,-19.5 320.5,-0.5 269.5,-0.5"/>
<text text-anchor="middle" x="295" y="-7.5" font-family="Helvetica,sans-Serif" font-size="10.00">stddef.h</text>
</a>
</g>
</g>
<!-- Node7&#45;&gt;Node8 -->
<g id="edge7" class="edge">
<title>Node7&#45;&gt;Node8</title>
<path fill="none" stroke="midnightblue" d="M409.8,-61.98C387.21,-51.95 349.5,-35.2 323.5,-23.65"/>
<polygon fill="midnightblue" stroke="midnightblue" points="324.72,-20.37 314.16,-19.51 321.88,-26.77 324.72,-20.37"/>
</g>
<!-- Node9 -->
<g id="node9" class="node">
<title>Node9</title>
<g id="a_node9"><a xlink:title=" ">
<polygon fill="white" stroke="#bfbfbf" points="339,-0.5 339,-19.5 387,-19.5 387,-0.5 339,-0.5"/>
<text text-anchor="middle" x="363" y="-7.5" font-family="Helvetica,sans-Serif" font-size="10.00">stdint.h</text>
</a>
</g>
</g>
<!-- Node7&#45;&gt;Node9 -->
<g id="edge8" class="edge">
<title>Node7&#45;&gt;Node9</title>
<path fill="none" stroke="midnightblue" d="M419.54,-61.98C409.25,-52.7 392.58,-37.67 380.01,-26.33"/>
<polygon fill="midnightblue" stroke="midnightblue" points="382.21,-23.61 372.44,-19.51 377.52,-28.8 382.21,-23.61"/>
</g>
<!-- Node10 -->
<g id="node10" class="node">
<title>Node10</title>
<g id="a_node10"><a xlink:title=" ">
<polygon fill="white" stroke="#bfbfbf" points="405.5,-0.5 405.5,-19.5 452.5,-19.5 452.5,-0.5 405.5,-0.5"/>
<text text-anchor="middle" x="429" y="-7.5" font-family="Helvetica,sans-Serif" font-size="10.00">stdlib.h</text>
</a>
</g>
</g>
<!-- Node7&#45;&gt;Node10 -->
<g id="edge9" class="edge">
<title>Node7&#45;&gt;Node10</title>
<path fill="none" stroke="midnightblue" d="M429,-61.98C429,-53.58 429,-40.48 429,-29.66"/>
<polygon fill="midnightblue" stroke="midnightblue" points="432.5,-29.51 429,-19.51 425.5,-29.51 432.5,-29.51"/>
</g>
<!-- Node11 -->
<g id="node11" class="node">
<title>Node11</title>
<g id="a_node11"><a xlink:title=" ">
<polygon fill="white" stroke="#bfbfbf" points="470.5,-0.5 470.5,-19.5 511.5,-19.5 511.5,-0.5 470.5,-0.5"/>
<text text-anchor="middle" x="491" y="-7.5" font-family="Helvetica,sans-Serif" font-size="10.00">string</text>
</a>
</g>
</g>
<!-- Node7&#45;&gt;Node11 -->
<g id="edge11" class="edge">
<title>Node7&#45;&gt;Node11</title>
<path fill="none" stroke="midnightblue" d="M437.88,-61.98C447.46,-52.78 462.91,-37.96 474.69,-26.66"/>
<polygon fill="midnightblue" stroke="midnightblue" points="477.34,-28.96 482.13,-19.51 472.49,-23.91 477.34,-28.96"/>
</g>
<!-- Node12 -->
<g id="node12" class="node">
<title>Node12</title>
<g id="a_node12"><a xlink:href="v8config_8h.html" target="_top" xlink:title=" ">
<polygon fill="white" stroke="black" points="530,-0.5 530,-19.5 590,-19.5 590,-0.5 530,-0.5"/>
<text text-anchor="middle" x="560" y="-7.5" font-family="Helvetica,sans-Serif" font-size="10.00">v8config.h</text>
</a>
</g>
</g>
<!-- Node7&#45;&gt;Node12 -->
<g id="edge12" class="edge">
<title>Node7&#45;&gt;Node12</title>
<path fill="none" stroke="midnightblue" d="M447.77,-61.98C469.85,-51.95 506.72,-35.2 532.14,-23.65"/>
<polygon fill="midnightblue" stroke="midnightblue" points="533.61,-26.83 541.27,-19.51 530.71,-20.46 533.61,-26.83"/>
</g>
</g>
</svg>
