<?xml version="1.0" encoding="UTF-8" standalone="no"?>
<!DOCTYPE svg PUBLIC "-//W3C//DTD SVG 1.1//EN"
 "http://www.w3.org/Graphics/SVG/1.1/DTD/svg11.dtd">
<!-- Generated by graphviz version 2.44.0 ()
 -->
<!-- Title: include/libplatform/libplatform.h Pages: 1 -->
<svg width="657pt" height="218pt"
 viewBox="0.00 0.00 657.00 218.00" xmlns="http://www.w3.org/2000/svg" xmlns:xlink="http://www.w3.org/1999/xlink">
<g id="graph0" class="graph" transform="scale(1 1) rotate(0) translate(4 214)">
<title>include/libplatform/libplatform.h</title>
<polygon fill="white" stroke="transparent" points="-4,4 -4,-214 653,-214 653,4 -4,4"/>
<!-- Node1 -->
<g id="node1" class="node">
<title>Node1</title>
<g id="a_node1"><a xlink:title=" ">
<polygon fill="#bfbfbf" stroke="black" points="361.5,-179.5 361.5,-209.5 456.5,-209.5 456.5,-179.5 361.5,-179.5"/>
<text text-anchor="start" x="369.5" y="-197.5" font-family="Helvetica,sans-Serif" font-size="10.00">include/libplatform</text>
<text text-anchor="middle" x="409" y="-186.5" font-family="Helvetica,sans-Serif" font-size="10.00">/libplatform.h</text>
</a>
</g>
</g>
<!-- Node2 -->
<g id="node2" class="node">
<title>Node2</title>
<g id="a_node2"><a xlink:href="libplatform-export_8h.html" target="_top" xlink:title=" ">
<polygon fill="white" stroke="black" points="0,-56.5 0,-86.5 110,-86.5 110,-56.5 0,-56.5"/>
<text text-anchor="start" x="8" y="-74.5" font-family="Helvetica,sans-Serif" font-size="10.00">libplatform/libplatform</text>
<text text-anchor="middle" x="55" y="-63.5" font-family="Helvetica,sans-Serif" font-size="10.00">&#45;export.h</text>
</a>
</g>
</g>
<!-- Node1&#45;&gt;Node2 -->
<g id="edge1" class="edge">
<title>Node1&#45;&gt;Node2</title>
<path fill="none" stroke="midnightblue" d="M361.36,-181.44C325.27,-171.95 274.63,-157.88 231,-143 184.3,-127.07 131.94,-105.62 96.57,-90.58"/>
<polygon fill="midnightblue" stroke="midnightblue" points="97.63,-87.23 87.06,-86.52 94.88,-93.67 97.63,-87.23"/>
</g>
<!-- Node3 -->
<g id="node3" class="node">
<title>Node3</title>
<g id="a_node3"><a xlink:href="v8-tracing_8h.html" target="_top" xlink:title=" ">
<polygon fill="white" stroke="black" points="240.5,-123.5 240.5,-142.5 355.5,-142.5 355.5,-123.5 240.5,-123.5"/>
<text text-anchor="middle" x="298" y="-130.5" font-family="Helvetica,sans-Serif" font-size="10.00">libplatform/v8&#45;tracing.h</text>
</a>
</g>
</g>
<!-- Node1&#45;&gt;Node3 -->
<g id="edge2" class="edge">
<title>Node1&#45;&gt;Node3</title>
<path fill="none" stroke="midnightblue" d="M382.69,-179.4C364.74,-169.77 341.08,-157.09 323.33,-147.58"/>
<polygon fill="midnightblue" stroke="midnightblue" points="324.62,-144.3 314.15,-142.66 321.31,-150.47 324.62,-144.3"/>
</g>
<!-- Node9 -->
<g id="node9" class="node">
<title>Node9</title>
<g id="a_node9"><a xlink:href="v8-platform_8h.html" target="_top" xlink:title=" ">
<polygon fill="white" stroke="black" points="456.5,-62 456.5,-81 529.5,-81 529.5,-62 456.5,-62"/>
<text text-anchor="middle" x="493" y="-69" font-family="Helvetica,sans-Serif" font-size="10.00">v8&#45;platform.h</text>
</a>
</g>
</g>
<!-- Node1&#45;&gt;Node9 -->
<g id="edge16" class="edge">
<title>Node1&#45;&gt;Node9</title>
<path fill="none" stroke="midnightblue" d="M418.97,-179.14C434.54,-156.71 464.59,-113.42 481.22,-89.47"/>
<polygon fill="midnightblue" stroke="midnightblue" points="484.24,-91.26 487.06,-81.05 478.49,-87.27 484.24,-91.26"/>
</g>
<!-- Node14 -->
<g id="node14" class="node">
<title>Node14</title>
<g id="a_node14"><a xlink:href="v8config_8h.html" target="_top" xlink:title=" ">
<polygon fill="white" stroke="black" points="589,-0.5 589,-19.5 649,-19.5 649,-0.5 589,-0.5"/>
<text text-anchor="middle" x="619" y="-7.5" font-family="Helvetica,sans-Serif" font-size="10.00">v8config.h</text>
</a>
</g>
</g>
<!-- Node1&#45;&gt;Node14 -->
<g id="edge17" class="edge">
<title>Node1&#45;&gt;Node14</title>
<path fill="none" stroke="midnightblue" d="M427.01,-179.43C452.42,-159.43 500.06,-121.36 539,-87 561.75,-66.92 586.97,-42.6 602.9,-26.96"/>
<polygon fill="midnightblue" stroke="midnightblue" points="605.65,-29.16 610.32,-19.65 600.74,-24.18 605.65,-29.16"/>
</g>
<!-- Node3&#45;&gt;Node2 -->
<g id="edge8" class="edge">
<title>Node3&#45;&gt;Node2</title>
<path fill="none" stroke="midnightblue" d="M263.18,-123.48C226.02,-114.37 166.27,-99.74 120.29,-88.49"/>
<polygon fill="midnightblue" stroke="midnightblue" points="120.95,-85.05 110.41,-86.07 119.29,-91.84 120.95,-85.05"/>
</g>
<!-- Node4 -->
<g id="node4" class="node">
<title>Node4</title>
<g id="a_node4"><a xlink:title=" ">
<polygon fill="white" stroke="#bfbfbf" points="128,-62 128,-81 174,-81 174,-62 128,-62"/>
<text text-anchor="middle" x="151" y="-69" font-family="Helvetica,sans-Serif" font-size="10.00">atomic</text>
</a>
</g>
</g>
<!-- Node3&#45;&gt;Node4 -->
<g id="edge3" class="edge">
<title>Node3&#45;&gt;Node4</title>
<path fill="none" stroke="midnightblue" d="M274.95,-123.39C251.63,-114.58 214.61,-100.33 183,-87 181.63,-86.42 180.23,-85.82 178.82,-85.21"/>
<polygon fill="midnightblue" stroke="midnightblue" points="180.1,-81.95 169.54,-81.1 177.27,-88.35 180.1,-81.95"/>
</g>
<!-- Node5 -->
<g id="node5" class="node">
<title>Node5</title>
<g id="a_node5"><a xlink:title=" ">
<polygon fill="white" stroke="#bfbfbf" points="192,-62 192,-81 242,-81 242,-62 192,-62"/>
<text text-anchor="middle" x="217" y="-69" font-family="Helvetica,sans-Serif" font-size="10.00">fstream</text>
</a>
</g>
</g>
<!-- Node3&#45;&gt;Node5 -->
<g id="edge4" class="edge">
<title>Node3&#45;&gt;Node5</title>
<path fill="none" stroke="midnightblue" d="M286.39,-123.48C273.52,-114.02 252.53,-98.6 236.99,-87.19"/>
<polygon fill="midnightblue" stroke="midnightblue" points="238.72,-84.11 228.58,-81.01 234.57,-89.75 238.72,-84.11"/>
</g>
<!-- Node6 -->
<g id="node6" class="node">
<title>Node6</title>
<g id="a_node6"><a xlink:title=" ">
<polygon fill="white" stroke="#bfbfbf" points="254.5,-0.5 254.5,-19.5 305.5,-19.5 305.5,-0.5 254.5,-0.5"/>
<text text-anchor="middle" x="280" y="-7.5" font-family="Helvetica,sans-Serif" font-size="10.00">memory</text>
</a>
</g>
</g>
<!-- Node3&#45;&gt;Node6 -->
<g id="edge5" class="edge">
<title>Node3&#45;&gt;Node6</title>
<path fill="none" stroke="midnightblue" d="M296.07,-123.41C294.09,-114.38 291.03,-99.75 289,-87 285.94,-67.76 283.43,-45.63 281.85,-30.23"/>
<polygon fill="midnightblue" stroke="midnightblue" points="285.3,-29.53 280.82,-19.92 278.33,-30.22 285.3,-29.53"/>
</g>
<!-- Node7 -->
<g id="node7" class="node">
<title>Node7</title>
<g id="a_node7"><a xlink:title=" ">
<polygon fill="white" stroke="#bfbfbf" points="298,-62 298,-81 376,-81 376,-62 298,-62"/>
<text text-anchor="middle" x="337" y="-69" font-family="Helvetica,sans-Serif" font-size="10.00">unordered_set</text>
</a>
</g>
</g>
<!-- Node3&#45;&gt;Node7 -->
<g id="edge6" class="edge">
<title>Node3&#45;&gt;Node7</title>
<path fill="none" stroke="midnightblue" d="M303.59,-123.48C309.38,-114.64 318.59,-100.59 325.87,-89.48"/>
<polygon fill="midnightblue" stroke="midnightblue" points="328.87,-91.29 331.42,-81.01 323.01,-87.45 328.87,-91.29"/>
</g>
<!-- Node8 -->
<g id="node8" class="node">
<title>Node8</title>
<g id="a_node8"><a xlink:title=" ">
<polygon fill="white" stroke="#bfbfbf" points="394,-62 394,-81 438,-81 438,-62 394,-62"/>
<text text-anchor="middle" x="416" y="-69" font-family="Helvetica,sans-Serif" font-size="10.00">vector</text>
</a>
</g>
</g>
<!-- Node3&#45;&gt;Node8 -->
<g id="edge7" class="edge">
<title>Node3&#45;&gt;Node8</title>
<path fill="none" stroke="midnightblue" d="M314.91,-123.48C334.53,-113.58 367.13,-97.14 389.99,-85.62"/>
<polygon fill="midnightblue" stroke="midnightblue" points="391.77,-88.64 399.12,-81.01 388.62,-82.39 391.77,-88.64"/>
</g>
<!-- Node3&#45;&gt;Node9 -->
<g id="edge9" class="edge">
<title>Node3&#45;&gt;Node9</title>
<path fill="none" stroke="midnightblue" d="M326.6,-123.48C356.61,-114.5 405.17,-99.91 447,-87 449.95,-86.09 452.99,-85.14 456.06,-84.19"/>
<polygon fill="midnightblue" stroke="midnightblue" points="457.28,-87.47 465.77,-81.14 455.19,-80.79 457.28,-87.47"/>
</g>
<!-- Node9&#45;&gt;Node6 -->
<g id="edge13" class="edge">
<title>Node9&#45;&gt;Node6</title>
<path fill="none" stroke="midnightblue" d="M466.3,-61.87C459.99,-59.89 453.27,-57.83 447,-56 401.81,-42.8 349.34,-28.89 315.45,-20.09"/>
<polygon fill="midnightblue" stroke="midnightblue" points="316.11,-16.65 305.56,-17.53 314.36,-23.42 316.11,-16.65"/>
</g>
<!-- Node10 -->
<g id="node10" class="node">
<title>Node10</title>
<g id="a_node10"><a xlink:title=" ">
<polygon fill="white" stroke="#bfbfbf" points="328.5,-0.5 328.5,-19.5 379.5,-19.5 379.5,-0.5 328.5,-0.5"/>
<text text-anchor="middle" x="354" y="-7.5" font-family="Helvetica,sans-Serif" font-size="10.00">stddef.h</text>
</a>
</g>
</g>
<!-- Node9&#45;&gt;Node10 -->
<g id="edge10" class="edge">
<title>Node9&#45;&gt;Node10</title>
<path fill="none" stroke="midnightblue" d="M473.08,-61.98C449.55,-51.9 410.19,-35.05 383.21,-23.5"/>
<polygon fill="midnightblue" stroke="midnightblue" points="384.45,-20.23 373.88,-19.51 381.69,-26.66 384.45,-20.23"/>
</g>
<!-- Node11 -->
<g id="node11" class="node">
<title>Node11</title>
<g id="a_node11"><a xlink:title=" ">
<polygon fill="white" stroke="#bfbfbf" points="398,-0.5 398,-19.5 446,-19.5 446,-0.5 398,-0.5"/>
<text text-anchor="middle" x="422" y="-7.5" font-family="Helvetica,sans-Serif" font-size="10.00">stdint.h</text>
</a>
</g>
</g>
<!-- Node9&#45;&gt;Node11 -->
<g id="edge11" class="edge">
<title>Node9&#45;&gt;Node11</title>
<path fill="none" stroke="midnightblue" d="M482.83,-61.98C471.65,-52.61 453.48,-37.38 439.91,-26.01"/>
<polygon fill="midnightblue" stroke="midnightblue" points="442.07,-23.25 432.15,-19.51 437.57,-28.61 442.07,-23.25"/>
</g>
<!-- Node12 -->
<g id="node12" class="node">
<title>Node12</title>
<g id="a_node12"><a xlink:title=" ">
<polygon fill="white" stroke="#bfbfbf" points="464.5,-0.5 464.5,-19.5 511.5,-19.5 511.5,-0.5 464.5,-0.5"/>
<text text-anchor="middle" x="488" y="-7.5" font-family="Helvetica,sans-Serif" font-size="10.00">stdlib.h</text>
</a>
</g>
</g>
<!-- Node9&#45;&gt;Node12 -->
<g id="edge12" class="edge">
<title>Node9&#45;&gt;Node12</title>
<path fill="none" stroke="midnightblue" d="M492.28,-61.98C491.58,-53.58 490.48,-40.48 489.57,-29.66"/>
<polygon fill="midnightblue" stroke="midnightblue" points="493.04,-29.18 488.72,-19.51 486.06,-29.77 493.04,-29.18"/>
</g>
<!-- Node13 -->
<g id="node13" class="node">
<title>Node13</title>
<g id="a_node13"><a xlink:title=" ">
<polygon fill="white" stroke="#bfbfbf" points="529.5,-0.5 529.5,-19.5 570.5,-19.5 570.5,-0.5 529.5,-0.5"/>
<text text-anchor="middle" x="550" y="-7.5" font-family="Helvetica,sans-Serif" font-size="10.00">string</text>
</a>
</g>
</g>
<!-- Node9&#45;&gt;Node13 -->
<g id="edge14" class="edge">
<title>Node9&#45;&gt;Node13</title>
<path fill="none" stroke="midnightblue" d="M501.17,-61.98C509.89,-52.87 523.9,-38.24 534.69,-26.98"/>
<polygon fill="midnightblue" stroke="midnightblue" points="537.46,-29.15 541.85,-19.51 532.4,-24.31 537.46,-29.15"/>
</g>
<!-- Node9&#45;&gt;Node14 -->
<g id="edge15" class="edge">
<title>Node9&#45;&gt;Node14</title>
<path fill="none" stroke="midnightblue" d="M511.05,-61.98C532.2,-51.99 567.44,-35.35 591.88,-23.81"/>
<polygon fill="midnightblue" stroke="midnightblue" points="593.43,-26.94 600.98,-19.51 590.44,-20.61 593.43,-26.94"/>
</g>
</g>
</svg>
