<?xml version="1.0" encoding="UTF-8" standalone="no"?>
<!DOCTYPE svg PUBLIC "-//W3C//DTD SVG 1.1//EN"
 "http://www.w3.org/Graphics/SVG/1.1/DTD/svg11.dtd">
<!-- Generated by graphviz version 2.44.0 ()
 -->
<!-- Title: v8::Local::IsEmpty Pages: 1 -->
<svg width="243pt" height="78pt"
 viewBox="0.00 0.00 243.00 77.50" xmlns="http://www.w3.org/2000/svg" xmlns:xlink="http://www.w3.org/1999/xlink">
<g id="graph0" class="graph" transform="scale(1 1) rotate(0) translate(4 73.5)">
<title>v8::Local::IsEmpty</title>
<polygon fill="white" stroke="transparent" points="-4,4 -4,-73.5 239,-73.5 239,4 -4,4"/>
<!-- Node1 -->
<g id="node1" class="node">
<title>Node1</title>
<g id="a_node1"><a xlink:title=" ">
<polygon fill="#bfbfbf" stroke="black" points="140,-22.5 140,-41.5 235,-41.5 235,-22.5 140,-22.5"/>
<text text-anchor="middle" x="187.5" y="-29.5" font-family="Helvetica,sans-Serif" font-size="10.00">v8::Local::IsEmpty</text>
</a>
</g>
</g>
<!-- Node2 -->
<g id="node2" class="node">
<title>Node2</title>
<g id="a_node2"><a xlink:href="classv8_1_1PersistentBase.html#a1d3ad48623c429889afb03b557c926e0" target="_top" xlink:title=" ">
<polygon fill="white" stroke="black" points="3,-39 3,-69 101,-69 101,-39 3,-39"/>
<text text-anchor="start" x="11" y="-57" font-family="Helvetica,sans-Serif" font-size="10.00">v8::PersistentBase</text>
<text text-anchor="middle" x="52" y="-46" font-family="Helvetica,sans-Serif" font-size="10.00">::Reset</text>
</a>
</g>
</g>
<!-- Node1&#45;&gt;Node2 -->
<g id="edge1" class="edge">
<title>Node1&#45;&gt;Node2</title>
<path fill="none" stroke="midnightblue" d="M129.68,-41.36C120.21,-42.92 110.48,-44.53 101.25,-46.05"/>
<polygon fill="midnightblue" stroke="midnightblue" points="130.51,-44.77 139.81,-39.69 129.37,-37.87 130.51,-44.77"/>
</g>
<!-- Node3 -->
<g id="node3" class="node">
<title>Node3</title>
<g id="a_node3"><a xlink:href="classv8_1_1ReturnValue.html#a523c0ab2f3bed6038943f71474e12b87" target="_top" xlink:title=" ">
<polygon fill="white" stroke="black" points="0,-0.5 0,-19.5 104,-19.5 104,-0.5 0,-0.5"/>
<text text-anchor="middle" x="52" y="-7.5" font-family="Helvetica,sans-Serif" font-size="10.00">v8::ReturnValue::Set</text>
</a>
</g>
</g>
<!-- Node1&#45;&gt;Node3 -->
<g id="edge2" class="edge">
<title>Node1&#45;&gt;Node3</title>
<path fill="none" stroke="midnightblue" d="M129.72,-22.64C121.33,-21.26 112.72,-19.84 104.45,-18.48"/>
<polygon fill="midnightblue" stroke="midnightblue" points="129.37,-26.13 139.81,-24.31 130.51,-19.23 129.37,-26.13"/>
</g>
</g>
</svg>
