<?xml version="1.0" encoding="UTF-8" standalone="no"?>
<!DOCTYPE svg PUBLIC "-//W3C//DTD SVG 1.1//EN"
 "http://www.w3.org/Graphics/SVG/1.1/DTD/svg11.dtd">
<!-- Generated by graphviz version 2.44.0 ()
 -->
<!-- Title: v8::Value Pages: 1 -->
<svg width="672pt" height="636pt"
 viewBox="0.00 0.00 672.00 636.00" xmlns="http://www.w3.org/2000/svg" xmlns:xlink="http://www.w3.org/1999/xlink">
<g id="graph0" class="graph" transform="scale(1 1) rotate(0) translate(4 632)">
<title>v8::Value</title>
<polygon fill="white" stroke="transparent" points="-4,4 -4,-632 668,-632 668,4 -4,4"/>
<!-- Node1 -->
<g id="node1" class="node">
<title>Node1</title>
<g id="a_node1"><a xlink:title=" ">
<polygon fill="#bfbfbf" stroke="black" points="88,-323.5 88,-342.5 144,-342.5 144,-323.5 88,-323.5"/>
<text text-anchor="middle" x="116" y="-330.5" font-family="Helvetica,sans-Serif" font-size="10.00">v8::Value</text>
</a>
</g>
</g>
<!-- Node3 -->
<g id="node3" class="node">
<title>Node3</title>
<g id="a_node3"><a xlink:href="classv8_1_1External.html" target="_top" xlink:title=" ">
<polygon fill="white" stroke="black" points="182,-361.5 182,-380.5 248,-380.5 248,-361.5 182,-361.5"/>
<text text-anchor="middle" x="215" y="-368.5" font-family="Helvetica,sans-Serif" font-size="10.00">v8::External</text>
</a>
</g>
</g>
<!-- Node1&#45;&gt;Node3 -->
<g id="edge2" class="edge">
<title>Node1&#45;&gt;Node3</title>
<path fill="none" stroke="midnightblue" d="M150.86,-346.26C163.59,-351.25 177.81,-356.82 189.53,-361.41"/>
<polygon fill="midnightblue" stroke="midnightblue" points="152.06,-342.98 141.48,-342.59 149.51,-349.5 152.06,-342.98"/>
</g>
<!-- Node4 -->
<g id="node4" class="node">
<title>Node4</title>
<g id="a_node4"><a xlink:href="classv8_1_1Object.html" target="_top" xlink:title=" ">
<polygon fill="white" stroke="black" points="185,-323.5 185,-342.5 245,-342.5 245,-323.5 185,-323.5"/>
<text text-anchor="middle" x="215" y="-330.5" font-family="Helvetica,sans-Serif" font-size="10.00">v8::Object</text>
</a>
</g>
</g>
<!-- Node1&#45;&gt;Node4 -->
<g id="edge3" class="edge">
<title>Node1&#45;&gt;Node4</title>
<path fill="none" stroke="midnightblue" d="M154.23,-333C164.34,-333 175.14,-333 184.75,-333"/>
<polygon fill="midnightblue" stroke="midnightblue" points="154.02,-329.5 144.02,-333 154.02,-336.5 154.02,-329.5"/>
</g>
<!-- Node28 -->
<g id="node28" class="node">
<title>Node28</title>
<g id="a_node28"><a xlink:href="classv8_1_1Primitive.html" target="_top" xlink:title=" ">
<polygon fill="white" stroke="black" points="180,-76.5 180,-95.5 250,-95.5 250,-76.5 180,-76.5"/>
<text text-anchor="middle" x="215" y="-83.5" font-family="Helvetica,sans-Serif" font-size="10.00">v8::Primitive</text>
</a>
</g>
</g>
<!-- Node1&#45;&gt;Node28 -->
<g id="edge27" class="edge">
<title>Node1&#45;&gt;Node28</title>
<path fill="none" stroke="midnightblue" d="M124.56,-313.75C144.11,-263.97 195.81,-132.31 210.22,-95.62"/>
<polygon fill="midnightblue" stroke="midnightblue" points="121.2,-312.73 120.8,-323.32 127.72,-315.29 121.2,-312.73"/>
</g>
<!-- Node2 -->
<g id="node2" class="node">
<title>Node2</title>
<g id="a_node2"><a xlink:href="classv8_1_1Data.html" target="_top" xlink:title=" ">
<polygon fill="white" stroke="black" points="0,-323.5 0,-342.5 52,-342.5 52,-323.5 0,-323.5"/>
<text text-anchor="middle" x="26" y="-330.5" font-family="Helvetica,sans-Serif" font-size="10.00">v8::Data</text>
</a>
</g>
</g>
<!-- Node2&#45;&gt;Node1 -->
<g id="edge1" class="edge">
<title>Node2&#45;&gt;Node1</title>
<path fill="none" stroke="midnightblue" d="M62.72,-333C71.08,-333 79.84,-333 87.76,-333"/>
<polygon fill="midnightblue" stroke="midnightblue" points="62.45,-329.5 52.45,-333 62.45,-336.5 62.45,-329.5"/>
</g>
<!-- Node5 -->
<g id="node5" class="node">
<title>Node5</title>
<g id="a_node5"><a xlink:href="classv8_1_1Array.html" target="_top" xlink:title=" ">
<polygon fill="white" stroke="black" points="314,-551.5 314,-570.5 368,-570.5 368,-551.5 314,-551.5"/>
<text text-anchor="middle" x="341" y="-558.5" font-family="Helvetica,sans-Serif" font-size="10.00">v8::Array</text>
</a>
</g>
</g>
<!-- Node4&#45;&gt;Node5 -->
<g id="edge4" class="edge">
<title>Node4&#45;&gt;Node5</title>
<path fill="none" stroke="midnightblue" d="M247.52,-349C248.41,-349.95 249.24,-350.95 250,-352 300.23,-421.74 229.99,-476.81 286,-542 293,-550.14 303.7,-554.79 313.74,-557.45"/>
<polygon fill="midnightblue" stroke="midnightblue" points="249.69,-346.26 239.73,-342.65 245.27,-351.69 249.69,-346.26"/>
</g>
<!-- Node6 -->
<g id="node6" class="node">
<title>Node6</title>
<g id="a_node6"><a xlink:href="classv8_1_1ArrayBuffer.html" target="_top" xlink:title=" ">
<polygon fill="white" stroke="black" points="301,-513.5 301,-532.5 381,-532.5 381,-513.5 301,-513.5"/>
<text text-anchor="middle" x="341" y="-520.5" font-family="Helvetica,sans-Serif" font-size="10.00">v8::ArrayBuffer</text>
</a>
</g>
</g>
<!-- Node4&#45;&gt;Node6 -->
<g id="edge5" class="edge">
<title>Node4&#45;&gt;Node6</title>
<path fill="none" stroke="midnightblue" d="M247.38,-348.96C248.32,-349.93 249.2,-350.94 250,-352 291.84,-407.4 239.57,-452.38 286,-504 290.05,-508.51 295.24,-511.95 300.79,-514.57"/>
<polygon fill="midnightblue" stroke="midnightblue" points="249.26,-345.99 239.25,-342.53 244.92,-351.48 249.26,-345.99"/>
</g>
<!-- Node7 -->
<g id="node7" class="node">
<title>Node7</title>
<g id="a_node7"><a xlink:href="classv8_1_1ArrayBufferView.html" target="_top" xlink:title=" ">
<polygon fill="white" stroke="black" points="290.5,-475.5 290.5,-494.5 391.5,-494.5 391.5,-475.5 290.5,-475.5"/>
<text text-anchor="middle" x="341" y="-482.5" font-family="Helvetica,sans-Serif" font-size="10.00">v8::ArrayBufferView</text>
</a>
</g>
</g>
<!-- Node4&#45;&gt;Node7 -->
<g id="edge6" class="edge">
<title>Node4&#45;&gt;Node7</title>
<path fill="none" stroke="midnightblue" d="M247.28,-349.04C248.25,-349.98 249.16,-350.97 250,-352 283.56,-393.2 249.04,-427.82 286,-466 289.73,-469.86 294.29,-472.93 299.17,-475.38"/>
<polygon fill="midnightblue" stroke="midnightblue" points="249.09,-346.02 239.03,-342.7 244.83,-351.57 249.09,-346.02"/>
</g>
<!-- Node19 -->
<g id="node19" class="node">
<title>Node19</title>
<g id="a_node19"><a xlink:href="classv8_1_1BooleanObject.html" target="_top" xlink:title=" ">
<polygon fill="white" stroke="black" points="293.5,-437.5 293.5,-456.5 388.5,-456.5 388.5,-437.5 293.5,-437.5"/>
<text text-anchor="middle" x="341" y="-444.5" font-family="Helvetica,sans-Serif" font-size="10.00">v8::BooleanObject</text>
</a>
</g>
</g>
<!-- Node4&#45;&gt;Node19 -->
<g id="edge18" class="edge">
<title>Node4&#45;&gt;Node19</title>
<path fill="none" stroke="midnightblue" d="M246.2,-348.42C247.55,-349.55 248.83,-350.74 250,-352 275.53,-379.3 258.23,-402.98 286,-428 290.28,-431.86 295.4,-434.94 300.74,-437.41"/>
<polygon fill="midnightblue" stroke="midnightblue" points="248.13,-345.5 237.94,-342.61 244.11,-351.22 248.13,-345.5"/>
</g>
<!-- Node20 -->
<g id="node20" class="node">
<title>Node20</title>
<g id="a_node20"><a xlink:href="classv8_1_1Date.html" target="_top" xlink:title=" ">
<polygon fill="white" stroke="black" points="315,-399.5 315,-418.5 367,-418.5 367,-399.5 315,-399.5"/>
<text text-anchor="middle" x="341" y="-406.5" font-family="Helvetica,sans-Serif" font-size="10.00">v8::Date</text>
</a>
</g>
</g>
<!-- Node4&#45;&gt;Node20 -->
<g id="edge19" class="edge">
<title>Node4&#45;&gt;Node20</title>
<path fill="none" stroke="midnightblue" d="M244.39,-347.98C246.33,-349.27 248.22,-350.62 250,-352 268.36,-366.28 266.48,-377.34 286,-390 294.76,-395.68 305.41,-399.89 314.94,-402.89"/>
<polygon fill="midnightblue" stroke="midnightblue" points="246.06,-344.9 235.7,-342.68 242.42,-350.88 246.06,-344.9"/>
</g>
<!-- Node21 -->
<g id="node21" class="node">
<title>Node21</title>
<g id="a_node21"><a xlink:href="classv8_1_1Function.html" target="_top" xlink:title=" ">
<polygon fill="white" stroke="black" points="306.5,-361.5 306.5,-380.5 375.5,-380.5 375.5,-361.5 306.5,-361.5"/>
<text text-anchor="middle" x="341" y="-368.5" font-family="Helvetica,sans-Serif" font-size="10.00">v8::Function</text>
</a>
</g>
</g>
<!-- Node4&#45;&gt;Node21 -->
<g id="edge20" class="edge">
<title>Node4&#45;&gt;Node21</title>
<path fill="none" stroke="midnightblue" d="M254.94,-344.93C272.35,-350.27 292.58,-356.47 308.94,-361.48"/>
<polygon fill="midnightblue" stroke="midnightblue" points="255.66,-341.49 245.07,-341.91 253.61,-348.19 255.66,-341.49"/>
</g>
<!-- Node22 -->
<g id="node22" class="node">
<title>Node22</title>
<g id="a_node22"><a xlink:href="classv8_1_1NumberObject.html" target="_top" xlink:title=" ">
<polygon fill="white" stroke="black" points="293.5,-323.5 293.5,-342.5 388.5,-342.5 388.5,-323.5 293.5,-323.5"/>
<text text-anchor="middle" x="341" y="-330.5" font-family="Helvetica,sans-Serif" font-size="10.00">v8::NumberObject</text>
</a>
</g>
</g>
<!-- Node4&#45;&gt;Node22 -->
<g id="edge21" class="edge">
<title>Node4&#45;&gt;Node22</title>
<path fill="none" stroke="midnightblue" d="M255.26,-333C267.3,-333 280.67,-333 293.16,-333"/>
<polygon fill="midnightblue" stroke="midnightblue" points="255.07,-329.5 245.07,-333 255.07,-336.5 255.07,-329.5"/>
</g>
<!-- Node23 -->
<g id="node23" class="node">
<title>Node23</title>
<g id="a_node23"><a xlink:href="classv8_1_1Promise.html" target="_top" xlink:title=" ">
<polygon fill="white" stroke="black" points="307,-285.5 307,-304.5 375,-304.5 375,-285.5 307,-285.5"/>
<text text-anchor="middle" x="341" y="-292.5" font-family="Helvetica,sans-Serif" font-size="10.00">v8::Promise</text>
</a>
</g>
</g>
<!-- Node4&#45;&gt;Node23 -->
<g id="edge22" class="edge">
<title>Node4&#45;&gt;Node23</title>
<path fill="none" stroke="midnightblue" d="M254.94,-321.07C272.35,-315.73 292.58,-309.53 308.94,-304.52"/>
<polygon fill="midnightblue" stroke="midnightblue" points="253.61,-317.81 245.07,-324.09 255.66,-324.51 253.61,-317.81"/>
</g>
<!-- Node24 -->
<g id="node24" class="node">
<title>Node24</title>
<g id="a_node24"><a xlink:href="classv8_1_1Promise_1_1Resolver.html" target="_top" xlink:title=" ">
<polygon fill="white" stroke="black" points="286,-247.5 286,-266.5 396,-266.5 396,-247.5 286,-247.5"/>
<text text-anchor="middle" x="341" y="-254.5" font-family="Helvetica,sans-Serif" font-size="10.00">v8::Promise::Resolver</text>
</a>
</g>
</g>
<!-- Node4&#45;&gt;Node24 -->
<g id="edge23" class="edge">
<title>Node4&#45;&gt;Node24</title>
<path fill="none" stroke="midnightblue" d="M233.14,-316.18C246.6,-303.71 266.3,-287.04 286,-276 292.5,-272.36 299.83,-269.22 306.94,-266.6"/>
<polygon fill="midnightblue" stroke="midnightblue" points="230.47,-313.88 225.62,-323.31 235.29,-318.96 230.47,-313.88"/>
</g>
<!-- Node25 -->
<g id="node25" class="node">
<title>Node25</title>
<g id="a_node25"><a xlink:href="classv8_1_1RegExp.html" target="_top" xlink:title=" ">
<polygon fill="white" stroke="black" points="308.5,-209.5 308.5,-228.5 373.5,-228.5 373.5,-209.5 308.5,-209.5"/>
<text text-anchor="middle" x="341" y="-216.5" font-family="Helvetica,sans-Serif" font-size="10.00">v8::RegExp</text>
</a>
</g>
</g>
<!-- Node4&#45;&gt;Node25 -->
<g id="edge24" class="edge">
<title>Node4&#45;&gt;Node25</title>
<path fill="none" stroke="midnightblue" d="M225.25,-314.43C236.75,-293.13 258.28,-258.51 286,-238 292.63,-233.09 300.64,-229.37 308.43,-226.58"/>
<polygon fill="midnightblue" stroke="midnightblue" points="222.07,-312.95 220.56,-323.44 228.28,-316.18 222.07,-312.95"/>
</g>
<!-- Node26 -->
<g id="node26" class="node">
<title>Node26</title>
<g id="a_node26"><a xlink:href="classv8_1_1StringObject.html" target="_top" xlink:title=" ">
<polygon fill="white" stroke="black" points="298,-171.5 298,-190.5 384,-190.5 384,-171.5 298,-171.5"/>
<text text-anchor="middle" x="341" y="-178.5" font-family="Helvetica,sans-Serif" font-size="10.00">v8::StringObject</text>
</a>
</g>
</g>
<!-- Node4&#45;&gt;Node26 -->
<g id="edge25" class="edge">
<title>Node4&#45;&gt;Node26</title>
<path fill="none" stroke="midnightblue" d="M221.19,-313.76C229.89,-285.03 250.1,-231 286,-200 290.51,-196.1 295.88,-192.99 301.44,-190.5"/>
<polygon fill="midnightblue" stroke="midnightblue" points="217.81,-312.85 218.41,-323.43 224.53,-314.79 217.81,-312.85"/>
</g>
<!-- Node27 -->
<g id="node27" class="node">
<title>Node27</title>
<g id="a_node27"><a xlink:href="classv8_1_1SymbolObject.html" target="_top" xlink:title=" ">
<polygon fill="white" stroke="black" points="295,-133.5 295,-152.5 387,-152.5 387,-133.5 295,-133.5"/>
<text text-anchor="middle" x="341" y="-140.5" font-family="Helvetica,sans-Serif" font-size="10.00">v8::SymbolObject</text>
</a>
</g>
</g>
<!-- Node4&#45;&gt;Node27 -->
<g id="edge26" class="edge">
<title>Node4&#45;&gt;Node27</title>
<path fill="none" stroke="midnightblue" d="M218.72,-313.36C224.6,-278.16 241.74,-204.09 286,-162 290.1,-158.1 295.06,-154.99 300.28,-152.52"/>
<polygon fill="midnightblue" stroke="midnightblue" points="215.24,-312.91 217.18,-323.33 222.16,-313.98 215.24,-312.91"/>
</g>
<!-- Node8 -->
<g id="node8" class="node">
<title>Node8</title>
<g id="a_node8"><a xlink:href="classv8_1_1DataView.html" target="_top" xlink:title=" ">
<polygon fill="white" stroke="black" points="435,-494.5 435,-513.5 509,-513.5 509,-494.5 435,-494.5"/>
<text text-anchor="middle" x="472" y="-501.5" font-family="Helvetica,sans-Serif" font-size="10.00">v8::DataView</text>
</a>
</g>
</g>
<!-- Node7&#45;&gt;Node8 -->
<g id="edge7" class="edge">
<title>Node7&#45;&gt;Node8</title>
<path fill="none" stroke="midnightblue" d="M401.73,-493.8C412.97,-495.45 424.4,-497.14 434.65,-498.65"/>
<polygon fill="midnightblue" stroke="midnightblue" points="401.91,-490.29 391.51,-492.29 400.89,-497.21 401.91,-490.29"/>
</g>
<!-- Node9 -->
<g id="node9" class="node">
<title>Node9</title>
<g id="a_node9"><a xlink:href="classv8_1_1TypedArray.html" target="_top" xlink:title=" ">
<polygon fill="white" stroke="black" points="432,-456.5 432,-475.5 512,-475.5 512,-456.5 432,-456.5"/>
<text text-anchor="middle" x="472" y="-463.5" font-family="Helvetica,sans-Serif" font-size="10.00">v8::TypedArray</text>
</a>
</g>
</g>
<!-- Node7&#45;&gt;Node9 -->
<g id="edge8" class="edge">
<title>Node7&#45;&gt;Node9</title>
<path fill="none" stroke="midnightblue" d="M401.66,-476.21C411.9,-474.7 422.31,-473.17 431.84,-471.77"/>
<polygon fill="midnightblue" stroke="midnightblue" points="400.89,-472.79 391.51,-477.71 401.91,-479.71 400.89,-472.79"/>
</g>
<!-- Node10 -->
<g id="node10" class="node">
<title>Node10</title>
<g id="a_node10"><a xlink:href="classv8_1_1Float32Array.html" target="_top" xlink:title=" ">
<polygon fill="white" stroke="black" points="563,-608.5 563,-627.5 649,-627.5 649,-608.5 563,-608.5"/>
<text text-anchor="middle" x="606" y="-615.5" font-family="Helvetica,sans-Serif" font-size="10.00">v8::Float32Array</text>
</a>
</g>
</g>
<!-- Node9&#45;&gt;Node10 -->
<g id="edge9" class="edge">
<title>Node9&#45;&gt;Node10</title>
<path fill="none" stroke="midnightblue" d="M508.71,-481.67C509.88,-482.71 510.99,-483.82 512,-485 546.7,-525.24 510.73,-561.13 548,-599 552.17,-603.24 557.31,-606.53 562.78,-609.09"/>
<polygon fill="midnightblue" stroke="midnightblue" points="510.38,-478.56 500.2,-475.64 506.34,-484.28 510.38,-478.56"/>
</g>
<!-- Node11 -->
<g id="node11" class="node">
<title>Node11</title>
<g id="a_node11"><a xlink:href="classv8_1_1Float64Array.html" target="_top" xlink:title=" ">
<polygon fill="white" stroke="black" points="563,-570.5 563,-589.5 649,-589.5 649,-570.5 563,-570.5"/>
<text text-anchor="middle" x="606" y="-577.5" font-family="Helvetica,sans-Serif" font-size="10.00">v8::Float64Array</text>
</a>
</g>
</g>
<!-- Node9&#45;&gt;Node11 -->
<g id="edge10" class="edge">
<title>Node9&#45;&gt;Node11</title>
<path fill="none" stroke="midnightblue" d="M507.49,-481.05C509.09,-482.28 510.61,-483.59 512,-485 538.28,-511.57 520.03,-536.21 548,-561 552.37,-564.87 557.56,-567.96 562.99,-570.42"/>
<polygon fill="midnightblue" stroke="midnightblue" points="509.28,-478.03 498.98,-475.58 505.5,-483.93 509.28,-478.03"/>
</g>
<!-- Node12 -->
<g id="node12" class="node">
<title>Node12</title>
<g id="a_node12"><a xlink:href="classv8_1_1Int16Array.html" target="_top" xlink:title=" ">
<polygon fill="white" stroke="black" points="568,-532.5 568,-551.5 644,-551.5 644,-532.5 568,-532.5"/>
<text text-anchor="middle" x="606" y="-539.5" font-family="Helvetica,sans-Serif" font-size="10.00">v8::Int16Array</text>
</a>
</g>
</g>
<!-- Node9&#45;&gt;Node12 -->
<g id="edge11" class="edge">
<title>Node9&#45;&gt;Node12</title>
<path fill="none" stroke="midnightblue" d="M505.01,-480.4C507.44,-481.85 509.8,-483.39 512,-485 530.76,-498.76 528.38,-510.5 548,-523 554.07,-526.87 561.01,-530.03 567.91,-532.59"/>
<polygon fill="midnightblue" stroke="midnightblue" points="506.52,-477.24 496.07,-475.54 503.18,-483.39 506.52,-477.24"/>
</g>
<!-- Node13 -->
<g id="node13" class="node">
<title>Node13</title>
<g id="a_node13"><a xlink:href="classv8_1_1Int32Array.html" target="_top" xlink:title=" ">
<polygon fill="white" stroke="black" points="568,-494.5 568,-513.5 644,-513.5 644,-494.5 568,-494.5"/>
<text text-anchor="middle" x="606" y="-501.5" font-family="Helvetica,sans-Serif" font-size="10.00">v8::Int32Array</text>
</a>
</g>
</g>
<!-- Node9&#45;&gt;Node13 -->
<g id="edge12" class="edge">
<title>Node9&#45;&gt;Node13</title>
<path fill="none" stroke="midnightblue" d="M516.04,-478.39C534.12,-483.59 554.82,-489.55 571.7,-494.41"/>
<polygon fill="midnightblue" stroke="midnightblue" points="516.89,-474.99 506.31,-475.59 514.95,-481.72 516.89,-474.99"/>
</g>
<!-- Node14 -->
<g id="node14" class="node">
<title>Node14</title>
<g id="a_node14"><a xlink:href="classv8_1_1Int8Array.html" target="_top" xlink:title=" ">
<polygon fill="white" stroke="black" points="570.5,-456.5 570.5,-475.5 641.5,-475.5 641.5,-456.5 570.5,-456.5"/>
<text text-anchor="middle" x="606" y="-463.5" font-family="Helvetica,sans-Serif" font-size="10.00">v8::Int8Array</text>
</a>
</g>
</g>
<!-- Node9&#45;&gt;Node14 -->
<g id="edge13" class="edge">
<title>Node9&#45;&gt;Node14</title>
<path fill="none" stroke="midnightblue" d="M522.44,-466C538.32,-466 555.56,-466 570.17,-466"/>
<polygon fill="midnightblue" stroke="midnightblue" points="522.25,-462.5 512.25,-466 522.25,-469.5 522.25,-462.5"/>
</g>
<!-- Node15 -->
<g id="node15" class="node">
<title>Node15</title>
<g id="a_node15"><a xlink:href="classv8_1_1Uint16Array.html" target="_top" xlink:title=" ">
<polygon fill="white" stroke="black" points="564.5,-418.5 564.5,-437.5 647.5,-437.5 647.5,-418.5 564.5,-418.5"/>
<text text-anchor="middle" x="606" y="-425.5" font-family="Helvetica,sans-Serif" font-size="10.00">v8::Uint16Array</text>
</a>
</g>
</g>
<!-- Node9&#45;&gt;Node15 -->
<g id="edge14" class="edge">
<title>Node9&#45;&gt;Node15</title>
<path fill="none" stroke="midnightblue" d="M516.04,-453.61C534.12,-448.41 554.82,-442.45 571.7,-437.59"/>
<polygon fill="midnightblue" stroke="midnightblue" points="514.95,-450.28 506.31,-456.41 516.89,-457.01 514.95,-450.28"/>
</g>
<!-- Node16 -->
<g id="node16" class="node">
<title>Node16</title>
<g id="a_node16"><a xlink:href="classv8_1_1Uint32Array.html" target="_top" xlink:title=" ">
<polygon fill="white" stroke="black" points="564.5,-380.5 564.5,-399.5 647.5,-399.5 647.5,-380.5 564.5,-380.5"/>
<text text-anchor="middle" x="606" y="-387.5" font-family="Helvetica,sans-Serif" font-size="10.00">v8::Uint32Array</text>
</a>
</g>
</g>
<!-- Node9&#45;&gt;Node16 -->
<g id="edge15" class="edge">
<title>Node9&#45;&gt;Node16</title>
<path fill="none" stroke="midnightblue" d="M491.11,-449.51C505.62,-436.99 526.96,-420.11 548,-409 554.92,-405.35 562.68,-402.2 570.19,-399.58"/>
<polygon fill="midnightblue" stroke="midnightblue" points="488.6,-447.05 483.41,-456.29 493.23,-452.31 488.6,-447.05"/>
</g>
<!-- Node17 -->
<g id="node17" class="node">
<title>Node17</title>
<g id="a_node17"><a xlink:href="classv8_1_1Uint8Array.html" target="_top" xlink:title=" ">
<polygon fill="white" stroke="black" points="567.5,-342.5 567.5,-361.5 644.5,-361.5 644.5,-342.5 567.5,-342.5"/>
<text text-anchor="middle" x="606" y="-349.5" font-family="Helvetica,sans-Serif" font-size="10.00">v8::Uint8Array</text>
</a>
</g>
</g>
<!-- Node9&#45;&gt;Node17 -->
<g id="edge16" class="edge">
<title>Node9&#45;&gt;Node17</title>
<path fill="none" stroke="midnightblue" d="M483.01,-447.65C495.53,-426.31 518.92,-391.42 548,-371 553.81,-366.92 560.55,-363.67 567.32,-361.1"/>
<polygon fill="midnightblue" stroke="midnightblue" points="479.93,-445.98 478.03,-456.4 486.02,-449.43 479.93,-445.98"/>
</g>
<!-- Node18 -->
<g id="node18" class="node">
<title>Node18</title>
<g id="a_node18"><a xlink:href="classv8_1_1Uint8ClampedArray.html" target="_top" xlink:title=" ">
<polygon fill="white" stroke="black" points="548,-304.5 548,-323.5 664,-323.5 664,-304.5 548,-304.5"/>
<text text-anchor="middle" x="606" y="-311.5" font-family="Helvetica,sans-Serif" font-size="10.00">v8::Uint8ClampedArray</text>
</a>
</g>
</g>
<!-- Node9&#45;&gt;Node18 -->
<g id="edge17" class="edge">
<title>Node9&#45;&gt;Node18</title>
<path fill="none" stroke="midnightblue" d="M478.88,-446.67C488.63,-417.83 510.82,-363.66 548,-333 552.67,-329.15 558.15,-326.07 563.83,-323.61"/>
<polygon fill="midnightblue" stroke="midnightblue" points="475.49,-445.79 475.75,-456.38 482.15,-447.94 475.49,-445.79"/>
</g>
<!-- Node29 -->
<g id="node29" class="node">
<title>Node29</title>
<g id="a_node29"><a xlink:href="classv8_1_1Boolean.html" target="_top" xlink:title=" ">
<polygon fill="white" stroke="black" points="307.5,-95.5 307.5,-114.5 374.5,-114.5 374.5,-95.5 307.5,-95.5"/>
<text text-anchor="middle" x="341" y="-102.5" font-family="Helvetica,sans-Serif" font-size="10.00">v8::Boolean</text>
</a>
</g>
</g>
<!-- Node28&#45;&gt;Node29 -->
<g id="edge28" class="edge">
<title>Node28&#45;&gt;Node29</title>
<path fill="none" stroke="midnightblue" d="M260.12,-92.76C275.63,-95.14 292.77,-97.76 307.18,-99.97"/>
<polygon fill="midnightblue" stroke="midnightblue" points="260.63,-89.3 250.21,-91.24 259.57,-96.22 260.63,-89.3"/>
</g>
<!-- Node30 -->
<g id="node30" class="node">
<title>Node30</title>
<g id="a_node30"><a xlink:href="classv8_1_1Name.html" target="_top" xlink:title=" ">
<polygon fill="white" stroke="black" points="312,-57.5 312,-76.5 370,-76.5 370,-57.5 312,-57.5"/>
<text text-anchor="middle" x="341" y="-64.5" font-family="Helvetica,sans-Serif" font-size="10.00">v8::Name</text>
</a>
</g>
</g>
<!-- Node28&#45;&gt;Node30 -->
<g id="edge29" class="edge">
<title>Node28&#45;&gt;Node30</title>
<path fill="none" stroke="midnightblue" d="M260.54,-79.17C277.62,-76.56 296.62,-73.65 311.76,-71.33"/>
<polygon fill="midnightblue" stroke="midnightblue" points="259.57,-75.78 250.21,-80.76 260.63,-82.7 259.57,-75.78"/>
</g>
<!-- Node33 -->
<g id="node33" class="node">
<title>Node33</title>
<g id="a_node33"><a xlink:href="classv8_1_1Number.html" target="_top" xlink:title=" ">
<polygon fill="white" stroke="black" points="308,-19.5 308,-38.5 374,-38.5 374,-19.5 308,-19.5"/>
<text text-anchor="middle" x="341" y="-26.5" font-family="Helvetica,sans-Serif" font-size="10.00">v8::Number</text>
</a>
</g>
</g>
<!-- Node28&#45;&gt;Node33 -->
<g id="edge32" class="edge">
<title>Node28&#45;&gt;Node33</title>
<path fill="none" stroke="midnightblue" d="M240.95,-71.2C254.09,-63.72 270.64,-54.82 286,-48 293.72,-44.57 302.27,-41.33 310.24,-38.52"/>
<polygon fill="midnightblue" stroke="midnightblue" points="238.95,-68.31 232.04,-76.34 242.45,-74.38 238.95,-68.31"/>
</g>
<!-- Node31 -->
<g id="node31" class="node">
<title>Node31</title>
<g id="a_node31"><a xlink:href="classv8_1_1String.html" target="_top" xlink:title=" ">
<polygon fill="white" stroke="black" points="443.5,-95.5 443.5,-114.5 500.5,-114.5 500.5,-95.5 443.5,-95.5"/>
<text text-anchor="middle" x="472" y="-102.5" font-family="Helvetica,sans-Serif" font-size="10.00">v8::String</text>
</a>
</g>
</g>
<!-- Node30&#45;&gt;Node31 -->
<g id="edge30" class="edge">
<title>Node30&#45;&gt;Node31</title>
<path fill="none" stroke="midnightblue" d="M380.16,-78.24C400.38,-84.2 424.78,-91.39 443.2,-96.81"/>
<polygon fill="midnightblue" stroke="midnightblue" points="380.89,-74.81 370.31,-75.34 378.91,-81.52 380.89,-74.81"/>
</g>
<!-- Node32 -->
<g id="node32" class="node">
<title>Node32</title>
<g id="a_node32"><a xlink:href="classv8_1_1Symbol.html" target="_top" xlink:title=" ">
<polygon fill="white" stroke="black" points="440,-57.5 440,-76.5 504,-76.5 504,-57.5 440,-57.5"/>
<text text-anchor="middle" x="472" y="-64.5" font-family="Helvetica,sans-Serif" font-size="10.00">v8::Symbol</text>
</a>
</g>
</g>
<!-- Node30&#45;&gt;Node32 -->
<g id="edge31" class="edge">
<title>Node30&#45;&gt;Node32</title>
<path fill="none" stroke="midnightblue" d="M380.38,-67C399.26,-67 421.74,-67 439.59,-67"/>
<polygon fill="midnightblue" stroke="midnightblue" points="380.31,-63.5 370.31,-67 380.31,-70.5 380.31,-63.5"/>
</g>
<!-- Node34 -->
<g id="node34" class="node">
<title>Node34</title>
<g id="a_node34"><a xlink:href="classv8_1_1Integer.html" target="_top" xlink:title=" ">
<polygon fill="white" stroke="black" points="441,-19.5 441,-38.5 503,-38.5 503,-19.5 441,-19.5"/>
<text text-anchor="middle" x="472" y="-26.5" font-family="Helvetica,sans-Serif" font-size="10.00">v8::Integer</text>
</a>
</g>
</g>
<!-- Node33&#45;&gt;Node34 -->
<g id="edge33" class="edge">
<title>Node33&#45;&gt;Node34</title>
<path fill="none" stroke="midnightblue" d="M384.44,-29C402.92,-29 424.15,-29 440.96,-29"/>
<polygon fill="midnightblue" stroke="midnightblue" points="384.22,-25.5 374.22,-29 384.22,-32.5 384.22,-25.5"/>
</g>
<!-- Node35 -->
<g id="node35" class="node">
<title>Node35</title>
<g id="a_node35"><a xlink:href="classv8_1_1Int32.html" target="_top" xlink:title=" ">
<polygon fill="white" stroke="black" points="579.5,-38.5 579.5,-57.5 632.5,-57.5 632.5,-38.5 579.5,-38.5"/>
<text text-anchor="middle" x="606" y="-45.5" font-family="Helvetica,sans-Serif" font-size="10.00">v8::Int32</text>
</a>
</g>
</g>
<!-- Node34&#45;&gt;Node35 -->
<g id="edge34" class="edge">
<title>Node34&#45;&gt;Node35</title>
<path fill="none" stroke="midnightblue" d="M513.42,-34.82C534.87,-37.91 560.59,-41.61 579.3,-44.3"/>
<polygon fill="midnightblue" stroke="midnightblue" points="513.68,-31.32 503.28,-33.36 512.68,-38.25 513.68,-31.32"/>
</g>
<!-- Node36 -->
<g id="node36" class="node">
<title>Node36</title>
<g id="a_node36"><a xlink:href="classv8_1_1Uint32.html" target="_top" xlink:title=" ">
<polygon fill="white" stroke="black" points="576,-0.5 576,-19.5 636,-19.5 636,-0.5 576,-0.5"/>
<text text-anchor="middle" x="606" y="-7.5" font-family="Helvetica,sans-Serif" font-size="10.00">v8::Uint32</text>
</a>
</g>
</g>
<!-- Node34&#45;&gt;Node36 -->
<g id="edge35" class="edge">
<title>Node34&#45;&gt;Node36</title>
<path fill="none" stroke="midnightblue" d="M513.42,-23.18C533.55,-20.28 557.43,-16.85 575.77,-14.21"/>
<polygon fill="midnightblue" stroke="midnightblue" points="512.68,-19.75 503.28,-24.64 513.68,-26.68 512.68,-19.75"/>
</g>
</g>
</svg>
