<?xml version="1.0" encoding="UTF-8" standalone="no"?>
<!DOCTYPE svg PUBLIC "-//W3C//DTD SVG 1.1//EN"
 "http://www.w3.org/Graphics/SVG/1.1/DTD/svg11.dtd">
<!-- Generated by graphviz version 2.44.0 ()
 -->
<!-- Title: Graphical Class Hierarchy Pages: 1 -->
<svg width="770pt" height="636pt"
 viewBox="0.00 0.00 770.00 636.00" xmlns="http://www.w3.org/2000/svg" xmlns:xlink="http://www.w3.org/1999/xlink">
<g id="graph0" class="graph" transform="scale(1 1) rotate(0) translate(4 632)">
<title>Graphical Class Hierarchy</title>
<polygon fill="white" stroke="transparent" points="-4,4 -4,-632 766,-632 766,4 -4,4"/>
<!-- Node0 -->
<g id="node1" class="node">
<title>Node0</title>
<g id="a_node1"><a xlink:href="classv8_1_1Data.html" target="_top" xlink:title=" ">
<polygon fill="white" stroke="black" points="0,-437.5 0,-456.5 52,-456.5 52,-437.5 0,-437.5"/>
<text text-anchor="middle" x="26" y="-444.5" font-family="Helvetica,sans-Serif" font-size="10.00">v8::Data</text>
</a>
</g>
</g>
<!-- Node1 -->
<g id="node2" class="node">
<title>Node1</title>
<g id="a_node2"><a xlink:href="classv8_1_1AccessorSignature.html" target="_top" xlink:title=" ">
<polygon fill="white" stroke="black" points="88,-551.5 88,-570.5 202,-570.5 202,-551.5 88,-551.5"/>
<text text-anchor="middle" x="145" y="-558.5" font-family="Helvetica,sans-Serif" font-size="10.00">v8::AccessorSignature</text>
</a>
</g>
</g>
<!-- Node0&#45;&gt;Node1 -->
<g id="edge1" class="edge">
<title>Node0&#45;&gt;Node1</title>
<path fill="none" stroke="midnightblue" d="M34.54,-465.93C43.99,-487.32 62.12,-521.77 88,-542 92.93,-545.86 98.7,-548.96 104.61,-551.44"/>
<polygon fill="midnightblue" stroke="midnightblue" points="37.72,-464.46 30.61,-456.6 31.27,-467.18 37.72,-464.46"/>
</g>
<!-- Node2 -->
<g id="node3" class="node">
<title>Node2</title>
<g id="a_node3"><a xlink:href="classv8_1_1NativeWeakMap.html" target="_top" xlink:title=" ">
<polygon fill="white" stroke="black" points="93,-513.5 93,-532.5 197,-532.5 197,-513.5 93,-513.5"/>
<text text-anchor="middle" x="145" y="-520.5" font-family="Helvetica,sans-Serif" font-size="10.00">v8::NativeWeakMap</text>
</a>
</g>
</g>
<!-- Node0&#45;&gt;Node2 -->
<g id="edge2" class="edge">
<title>Node0&#45;&gt;Node2</title>
<path fill="none" stroke="midnightblue" d="M41.83,-464.36C53.33,-476.88 70.25,-493.38 88,-504 94.25,-507.74 101.35,-510.87 108.33,-513.44"/>
<polygon fill="midnightblue" stroke="midnightblue" points="44.37,-461.95 35.11,-456.81 39.14,-466.61 44.37,-461.95"/>
</g>
<!-- Node3 -->
<g id="node4" class="node">
<title>Node3</title>
<g id="a_node4"><a xlink:href="classv8_1_1Private.html" target="_top" xlink:title=" ">
<polygon fill="white" stroke="black" points="114,-475.5 114,-494.5 176,-494.5 176,-475.5 114,-475.5"/>
<text text-anchor="middle" x="145" y="-482.5" font-family="Helvetica,sans-Serif" font-size="10.00">v8::Private</text>
</a>
</g>
</g>
<!-- Node0&#45;&gt;Node3 -->
<g id="edge3" class="edge">
<title>Node0&#45;&gt;Node3</title>
<path fill="none" stroke="midnightblue" d="M62.03,-458.38C78.72,-463.8 98.46,-470.21 114.39,-475.38"/>
<polygon fill="midnightblue" stroke="midnightblue" points="62.69,-454.91 52.1,-455.15 60.53,-461.57 62.69,-454.91"/>
</g>
<!-- Node4 -->
<g id="node5" class="node">
<title>Node4</title>
<g id="a_node5"><a xlink:href="classv8_1_1Signature.html" target="_top" xlink:title=" ">
<polygon fill="white" stroke="black" points="108.5,-437.5 108.5,-456.5 181.5,-456.5 181.5,-437.5 108.5,-437.5"/>
<text text-anchor="middle" x="145" y="-444.5" font-family="Helvetica,sans-Serif" font-size="10.00">v8::Signature</text>
</a>
</g>
</g>
<!-- Node0&#45;&gt;Node4 -->
<g id="edge4" class="edge">
<title>Node0&#45;&gt;Node4</title>
<path fill="none" stroke="midnightblue" d="M62.24,-447C76.8,-447 93.67,-447 108.29,-447"/>
<polygon fill="midnightblue" stroke="midnightblue" points="62.1,-443.5 52.1,-447 62.1,-450.5 62.1,-443.5"/>
</g>
<!-- Node5 -->
<g id="node6" class="node">
<title>Node5</title>
<g id="a_node6"><a xlink:href="classv8_1_1Template.html" target="_top" xlink:title=" ">
<polygon fill="white" stroke="black" points="109,-399.5 109,-418.5 181,-418.5 181,-399.5 109,-399.5"/>
<text text-anchor="middle" x="145" y="-406.5" font-family="Helvetica,sans-Serif" font-size="10.00">v8::Template</text>
</a>
</g>
</g>
<!-- Node0&#45;&gt;Node5 -->
<g id="edge5" class="edge">
<title>Node0&#45;&gt;Node5</title>
<path fill="none" stroke="midnightblue" d="M62.03,-435.62C78.72,-430.2 98.46,-423.79 114.39,-418.62"/>
<polygon fill="midnightblue" stroke="midnightblue" points="60.53,-432.43 52.1,-438.85 62.69,-439.09 60.53,-432.43"/>
</g>
<!-- Node8 -->
<g id="node9" class="node">
<title>Node8</title>
<g id="a_node9"><a xlink:href="classv8_1_1TypeSwitch.html" target="_top" xlink:title=" ">
<polygon fill="white" stroke="black" points="103.5,-361.5 103.5,-380.5 186.5,-380.5 186.5,-361.5 103.5,-361.5"/>
<text text-anchor="middle" x="145" y="-368.5" font-family="Helvetica,sans-Serif" font-size="10.00">v8::TypeSwitch</text>
</a>
</g>
</g>
<!-- Node0&#45;&gt;Node8 -->
<g id="edge8" class="edge">
<title>Node0&#45;&gt;Node8</title>
<path fill="none" stroke="midnightblue" d="M41.83,-429.64C53.33,-417.12 70.25,-400.62 88,-390 94.25,-386.26 101.35,-383.13 108.33,-380.56"/>
<polygon fill="midnightblue" stroke="midnightblue" points="39.14,-427.39 35.11,-437.19 44.37,-432.05 39.14,-427.39"/>
</g>
<!-- Node9 -->
<g id="node10" class="node">
<title>Node9</title>
<g id="a_node10"><a xlink:href="classv8_1_1Value.html" target="_top" xlink:title=" ">
<polygon fill="white" stroke="black" points="117,-323.5 117,-342.5 173,-342.5 173,-323.5 117,-323.5"/>
<text text-anchor="middle" x="145" y="-330.5" font-family="Helvetica,sans-Serif" font-size="10.00">v8::Value</text>
</a>
</g>
</g>
<!-- Node0&#45;&gt;Node9 -->
<g id="edge9" class="edge">
<title>Node0&#45;&gt;Node9</title>
<path fill="none" stroke="midnightblue" d="M34.54,-428.07C43.99,-406.68 62.12,-372.23 88,-352 96.33,-345.49 107.02,-341.14 116.83,-338.27"/>
<polygon fill="midnightblue" stroke="midnightblue" points="31.27,-426.82 30.61,-437.4 37.72,-429.54 31.27,-426.82"/>
</g>
<!-- Node6 -->
<g id="node7" class="node">
<title>Node6</title>
<g id="a_node7"><a xlink:href="classv8_1_1FunctionTemplate.html" target="_top" xlink:title=" ">
<polygon fill="white" stroke="black" points="238,-437.5 238,-456.5 348,-456.5 348,-437.5 238,-437.5"/>
<text text-anchor="middle" x="293" y="-444.5" font-family="Helvetica,sans-Serif" font-size="10.00">v8::FunctionTemplate</text>
</a>
</g>
</g>
<!-- Node5&#45;&gt;Node6 -->
<g id="edge6" class="edge">
<title>Node5&#45;&gt;Node6</title>
<path fill="none" stroke="midnightblue" d="M191.17,-420.76C211.82,-426.13 235.97,-432.42 255.46,-437.49"/>
<polygon fill="midnightblue" stroke="midnightblue" points="191.9,-417.33 181.34,-418.2 190.14,-424.1 191.9,-417.33"/>
</g>
<!-- Node7 -->
<g id="node8" class="node">
<title>Node7</title>
<g id="a_node8"><a xlink:href="classv8_1_1ObjectTemplate.html" target="_top" xlink:title=" ">
<polygon fill="white" stroke="black" points="242.5,-399.5 242.5,-418.5 343.5,-418.5 343.5,-399.5 242.5,-399.5"/>
<text text-anchor="middle" x="293" y="-406.5" font-family="Helvetica,sans-Serif" font-size="10.00">v8::ObjectTemplate</text>
</a>
</g>
</g>
<!-- Node5&#45;&gt;Node7 -->
<g id="edge7" class="edge">
<title>Node5&#45;&gt;Node7</title>
<path fill="none" stroke="midnightblue" d="M191.6,-409C207.72,-409 225.92,-409 242.36,-409"/>
<polygon fill="midnightblue" stroke="midnightblue" points="191.34,-405.5 181.34,-409 191.34,-412.5 191.34,-405.5"/>
</g>
<!-- Node10 -->
<g id="node11" class="node">
<title>Node10</title>
<g id="a_node11"><a xlink:href="classv8_1_1External.html" target="_top" xlink:title=" ">
<polygon fill="white" stroke="black" points="260,-361.5 260,-380.5 326,-380.5 326,-361.5 260,-361.5"/>
<text text-anchor="middle" x="293" y="-368.5" font-family="Helvetica,sans-Serif" font-size="10.00">v8::External</text>
</a>
</g>
</g>
<!-- Node9&#45;&gt;Node10 -->
<g id="edge10" class="edge">
<title>Node9&#45;&gt;Node10</title>
<path fill="none" stroke="midnightblue" d="M182.84,-342.59C206.59,-348.77 237.18,-356.73 259.94,-362.65"/>
<polygon fill="midnightblue" stroke="midnightblue" points="183.68,-339.19 173.12,-340.06 181.92,-345.96 183.68,-339.19"/>
</g>
<!-- Node11 -->
<g id="node12" class="node">
<title>Node11</title>
<g id="a_node12"><a xlink:href="classv8_1_1Object.html" target="_top" xlink:title=" ">
<polygon fill="white" stroke="black" points="263,-323.5 263,-342.5 323,-342.5 323,-323.5 263,-323.5"/>
<text text-anchor="middle" x="293" y="-330.5" font-family="Helvetica,sans-Serif" font-size="10.00">v8::Object</text>
</a>
</g>
</g>
<!-- Node9&#45;&gt;Node11 -->
<g id="edge11" class="edge">
<title>Node9&#45;&gt;Node11</title>
<path fill="none" stroke="midnightblue" d="M183.22,-333C207.92,-333 239.89,-333 262.77,-333"/>
<polygon fill="midnightblue" stroke="midnightblue" points="183.12,-329.5 173.12,-333 183.12,-336.5 183.12,-329.5"/>
</g>
<!-- Node35 -->
<g id="node36" class="node">
<title>Node35</title>
<g id="a_node36"><a xlink:href="classv8_1_1Primitive.html" target="_top" xlink:title=" ">
<polygon fill="white" stroke="black" points="258,-76.5 258,-95.5 328,-95.5 328,-76.5 258,-76.5"/>
<text text-anchor="middle" x="293" y="-83.5" font-family="Helvetica,sans-Serif" font-size="10.00">v8::Primitive</text>
</a>
</g>
</g>
<!-- Node9&#45;&gt;Node35 -->
<g id="edge35" class="edge">
<title>Node9&#45;&gt;Node35</title>
<path fill="none" stroke="midnightblue" d="M156.83,-314.68C185.82,-265.63 264.49,-132.54 286.32,-95.62"/>
<polygon fill="midnightblue" stroke="midnightblue" points="153.8,-312.93 151.72,-323.32 159.82,-316.49 153.8,-312.93"/>
</g>
<!-- Node12 -->
<g id="node13" class="node">
<title>Node12</title>
<g id="a_node13"><a xlink:href="classv8_1_1Array.html" target="_top" xlink:title=" ">
<polygon fill="white" stroke="black" points="412,-551.5 412,-570.5 466,-570.5 466,-551.5 412,-551.5"/>
<text text-anchor="middle" x="439" y="-558.5" font-family="Helvetica,sans-Serif" font-size="10.00">v8::Array</text>
</a>
</g>
</g>
<!-- Node11&#45;&gt;Node12 -->
<g id="edge12" class="edge">
<title>Node11&#45;&gt;Node12</title>
<path fill="none" stroke="midnightblue" d="M332.48,-340.85C338.35,-343.54 343.83,-347.15 348,-352 404.01,-417.19 327.99,-476.81 384,-542 391,-550.14 401.7,-554.79 411.74,-557.45"/>
<polygon fill="midnightblue" stroke="midnightblue" points="333.66,-337.55 323.06,-337.34 331.21,-344.11 333.66,-337.55"/>
</g>
<!-- Node13 -->
<g id="node14" class="node">
<title>Node13</title>
<g id="a_node14"><a xlink:href="classv8_1_1ArrayBuffer.html" target="_top" xlink:title=" ">
<polygon fill="white" stroke="black" points="399,-513.5 399,-532.5 479,-532.5 479,-513.5 399,-513.5"/>
<text text-anchor="middle" x="439" y="-520.5" font-family="Helvetica,sans-Serif" font-size="10.00">v8::ArrayBuffer</text>
</a>
</g>
</g>
<!-- Node11&#45;&gt;Node13 -->
<g id="edge13" class="edge">
<title>Node11&#45;&gt;Node13</title>
<path fill="none" stroke="midnightblue" d="M332.89,-341.29C338.56,-343.93 343.87,-347.41 348,-352 394.43,-403.62 337.57,-452.38 384,-504 388.05,-508.51 393.24,-511.95 398.79,-514.57"/>
<polygon fill="midnightblue" stroke="midnightblue" points="333.75,-337.87 323.16,-337.59 331.26,-344.41 333.75,-337.87"/>
</g>
<!-- Node14 -->
<g id="node15" class="node">
<title>Node14</title>
<g id="a_node15"><a xlink:href="classv8_1_1ArrayBufferView.html" target="_top" xlink:title=" ">
<polygon fill="white" stroke="black" points="388.5,-475.5 388.5,-494.5 489.5,-494.5 489.5,-475.5 388.5,-475.5"/>
<text text-anchor="middle" x="439" y="-482.5" font-family="Helvetica,sans-Serif" font-size="10.00">v8::ArrayBufferView</text>
</a>
</g>
</g>
<!-- Node11&#45;&gt;Node14 -->
<g id="edge14" class="edge">
<title>Node11&#45;&gt;Node14</title>
<path fill="none" stroke="midnightblue" d="M332.79,-341.63C338.42,-344.23 343.75,-347.61 348,-352 384.96,-390.18 347.04,-427.82 384,-466 387.73,-469.86 392.29,-472.93 397.17,-475.38"/>
<polygon fill="midnightblue" stroke="midnightblue" points="333.73,-338.25 323.14,-337.96 331.24,-344.79 333.73,-338.25"/>
</g>
<!-- Node26 -->
<g id="node27" class="node">
<title>Node26</title>
<g id="a_node27"><a xlink:href="classv8_1_1BooleanObject.html" target="_top" xlink:title=" ">
<polygon fill="white" stroke="black" points="391.5,-437.5 391.5,-456.5 486.5,-456.5 486.5,-437.5 391.5,-437.5"/>
<text text-anchor="middle" x="439" y="-444.5" font-family="Helvetica,sans-Serif" font-size="10.00">v8::BooleanObject</text>
</a>
</g>
</g>
<!-- Node11&#45;&gt;Node26 -->
<g id="edge26" class="edge">
<title>Node11&#45;&gt;Node26</title>
<path fill="none" stroke="midnightblue" d="M332.64,-342.31C338.21,-344.82 343.55,-347.99 348,-352 375.77,-377.02 356.23,-402.98 384,-428 388.28,-431.86 393.4,-434.94 398.74,-437.41"/>
<polygon fill="midnightblue" stroke="midnightblue" points="333.76,-338.99 323.17,-338.68 331.25,-345.53 333.76,-338.99"/>
</g>
<!-- Node27 -->
<g id="node28" class="node">
<title>Node27</title>
<g id="a_node28"><a xlink:href="classv8_1_1Date.html" target="_top" xlink:title=" ">
<polygon fill="white" stroke="black" points="413,-399.5 413,-418.5 465,-418.5 465,-399.5 413,-399.5"/>
<text text-anchor="middle" x="439" y="-406.5" font-family="Helvetica,sans-Serif" font-size="10.00">v8::Date</text>
</a>
</g>
</g>
<!-- Node11&#45;&gt;Node27 -->
<g id="edge27" class="edge">
<title>Node11&#45;&gt;Node27</title>
<path fill="none" stroke="midnightblue" d="M332.76,-344.1C338.07,-346.34 343.31,-348.96 348,-352 367.52,-364.66 364.48,-377.34 384,-390 392.76,-395.68 403.41,-399.89 412.94,-402.89"/>
<polygon fill="midnightblue" stroke="midnightblue" points="333.8,-340.75 323.2,-340.47 331.31,-347.29 333.8,-340.75"/>
</g>
<!-- Node28 -->
<g id="node29" class="node">
<title>Node28</title>
<g id="a_node29"><a xlink:href="classv8_1_1Function.html" target="_top" xlink:title=" ">
<polygon fill="white" stroke="black" points="404.5,-361.5 404.5,-380.5 473.5,-380.5 473.5,-361.5 404.5,-361.5"/>
<text text-anchor="middle" x="439" y="-368.5" font-family="Helvetica,sans-Serif" font-size="10.00">v8::Function</text>
</a>
</g>
</g>
<!-- Node11&#45;&gt;Node28 -->
<g id="edge28" class="edge">
<title>Node11&#45;&gt;Node28</title>
<path fill="none" stroke="midnightblue" d="M332.97,-343.28C355.28,-349.17 383,-356.49 404.36,-362.12"/>
<polygon fill="midnightblue" stroke="midnightblue" points="333.7,-339.86 323.14,-340.69 331.92,-346.63 333.7,-339.86"/>
</g>
<!-- Node29 -->
<g id="node30" class="node">
<title>Node29</title>
<g id="a_node30"><a xlink:href="classv8_1_1NumberObject.html" target="_top" xlink:title=" ">
<polygon fill="white" stroke="black" points="391.5,-323.5 391.5,-342.5 486.5,-342.5 486.5,-323.5 391.5,-323.5"/>
<text text-anchor="middle" x="439" y="-330.5" font-family="Helvetica,sans-Serif" font-size="10.00">v8::NumberObject</text>
</a>
</g>
</g>
<!-- Node11&#45;&gt;Node29 -->
<g id="edge29" class="edge">
<title>Node11&#45;&gt;Node29</title>
<path fill="none" stroke="midnightblue" d="M333.26,-333C351.19,-333 372.57,-333 391.33,-333"/>
<polygon fill="midnightblue" stroke="midnightblue" points="333.14,-329.5 323.14,-333 333.14,-336.5 333.14,-329.5"/>
</g>
<!-- Node30 -->
<g id="node31" class="node">
<title>Node30</title>
<g id="a_node31"><a xlink:href="classv8_1_1Promise.html" target="_top" xlink:title=" ">
<polygon fill="white" stroke="black" points="405,-285.5 405,-304.5 473,-304.5 473,-285.5 405,-285.5"/>
<text text-anchor="middle" x="439" y="-292.5" font-family="Helvetica,sans-Serif" font-size="10.00">v8::Promise</text>
</a>
</g>
</g>
<!-- Node11&#45;&gt;Node30 -->
<g id="edge30" class="edge">
<title>Node11&#45;&gt;Node30</title>
<path fill="none" stroke="midnightblue" d="M333.04,-322.7C355.52,-316.76 383.47,-309.39 404.87,-303.74"/>
<polygon fill="midnightblue" stroke="midnightblue" points="331.92,-319.37 323.14,-325.31 333.7,-326.14 331.92,-319.37"/>
</g>
<!-- Node31 -->
<g id="node32" class="node">
<title>Node31</title>
<g id="a_node32"><a xlink:href="classv8_1_1Promise_1_1Resolver.html" target="_top" xlink:title=" ">
<polygon fill="white" stroke="black" points="384,-247.5 384,-266.5 494,-266.5 494,-247.5 384,-247.5"/>
<text text-anchor="middle" x="439" y="-254.5" font-family="Helvetica,sans-Serif" font-size="10.00">v8::Promise::Resolver</text>
</a>
</g>
</g>
<!-- Node11&#45;&gt;Node31 -->
<g id="edge31" class="edge">
<title>Node11&#45;&gt;Node31</title>
<path fill="none" stroke="midnightblue" d="M315.63,-317.33C333.38,-304.97 359.48,-287.89 384,-276 391.24,-272.49 399.31,-269.3 406.95,-266.57"/>
<polygon fill="midnightblue" stroke="midnightblue" points="313.32,-314.68 307.17,-323.31 317.35,-320.4 313.32,-314.68"/>
</g>
<!-- Node32 -->
<g id="node33" class="node">
<title>Node32</title>
<g id="a_node33"><a xlink:href="classv8_1_1RegExp.html" target="_top" xlink:title=" ">
<polygon fill="white" stroke="black" points="406.5,-209.5 406.5,-228.5 471.5,-228.5 471.5,-209.5 406.5,-209.5"/>
<text text-anchor="middle" x="439" y="-216.5" font-family="Helvetica,sans-Serif" font-size="10.00">v8::RegExp</text>
</a>
</g>
</g>
<!-- Node11&#45;&gt;Node32 -->
<g id="edge32" class="edge">
<title>Node11&#45;&gt;Node32</title>
<path fill="none" stroke="midnightblue" d="M306.5,-315.39C322.33,-294.27 351.48,-259.09 384,-238 390.75,-233.62 398.64,-230.11 406.27,-227.36"/>
<polygon fill="midnightblue" stroke="midnightblue" points="303.65,-313.36 300.56,-323.5 309.3,-317.5 303.65,-313.36"/>
</g>
<!-- Node33 -->
<g id="node34" class="node">
<title>Node33</title>
<g id="a_node34"><a xlink:href="classv8_1_1StringObject.html" target="_top" xlink:title=" ">
<polygon fill="white" stroke="black" points="396,-171.5 396,-190.5 482,-190.5 482,-171.5 396,-171.5"/>
<text text-anchor="middle" x="439" y="-178.5" font-family="Helvetica,sans-Serif" font-size="10.00">v8::StringObject</text>
</a>
</g>
</g>
<!-- Node11&#45;&gt;Node33 -->
<g id="edge33" class="edge">
<title>Node11&#45;&gt;Node33</title>
<path fill="none" stroke="midnightblue" d="M302.02,-314.13C315.1,-285.49 343.7,-231.09 384,-200 388.96,-196.18 394.75,-193.08 400.65,-190.59"/>
<polygon fill="midnightblue" stroke="midnightblue" points="298.75,-312.86 297.9,-323.42 305.15,-315.7 298.75,-312.86"/>
</g>
<!-- Node34 -->
<g id="node35" class="node">
<title>Node34</title>
<g id="a_node35"><a xlink:href="classv8_1_1SymbolObject.html" target="_top" xlink:title=" ">
<polygon fill="white" stroke="black" points="393,-133.5 393,-152.5 485,-152.5 485,-133.5 393,-133.5"/>
<text text-anchor="middle" x="439" y="-140.5" font-family="Helvetica,sans-Serif" font-size="10.00">v8::SymbolObject</text>
</a>
</g>
</g>
<!-- Node11&#45;&gt;Node34 -->
<g id="edge34" class="edge">
<title>Node11&#45;&gt;Node34</title>
<path fill="none" stroke="midnightblue" d="M299.18,-313.29C309.44,-277.98 335.66,-203.75 384,-162 388.51,-158.1 393.88,-154.99 399.44,-152.5"/>
<polygon fill="midnightblue" stroke="midnightblue" points="295.7,-312.72 296.4,-323.3 302.45,-314.6 295.7,-312.72"/>
</g>
<!-- Node15 -->
<g id="node16" class="node">
<title>Node15</title>
<g id="a_node16"><a xlink:href="classv8_1_1DataView.html" target="_top" xlink:title=" ">
<polygon fill="white" stroke="black" points="533,-494.5 533,-513.5 607,-513.5 607,-494.5 533,-494.5"/>
<text text-anchor="middle" x="570" y="-501.5" font-family="Helvetica,sans-Serif" font-size="10.00">v8::DataView</text>
</a>
</g>
</g>
<!-- Node14&#45;&gt;Node15 -->
<g id="edge15" class="edge">
<title>Node14&#45;&gt;Node15</title>
<path fill="none" stroke="midnightblue" d="M499.73,-493.8C510.97,-495.45 522.4,-497.14 532.65,-498.65"/>
<polygon fill="midnightblue" stroke="midnightblue" points="499.91,-490.29 489.51,-492.29 498.89,-497.21 499.91,-490.29"/>
</g>
<!-- Node16 -->
<g id="node17" class="node">
<title>Node16</title>
<g id="a_node17"><a xlink:href="classv8_1_1TypedArray.html" target="_top" xlink:title=" ">
<polygon fill="white" stroke="black" points="530,-456.5 530,-475.5 610,-475.5 610,-456.5 530,-456.5"/>
<text text-anchor="middle" x="570" y="-463.5" font-family="Helvetica,sans-Serif" font-size="10.00">v8::TypedArray</text>
</a>
</g>
</g>
<!-- Node14&#45;&gt;Node16 -->
<g id="edge16" class="edge">
<title>Node14&#45;&gt;Node16</title>
<path fill="none" stroke="midnightblue" d="M499.66,-476.21C509.9,-474.7 520.31,-473.17 529.84,-471.77"/>
<polygon fill="midnightblue" stroke="midnightblue" points="498.89,-472.79 489.51,-477.71 499.91,-479.71 498.89,-472.79"/>
</g>
<!-- Node17 -->
<g id="node18" class="node">
<title>Node17</title>
<g id="a_node18"><a xlink:href="classv8_1_1Float32Array.html" target="_top" xlink:title=" ">
<polygon fill="white" stroke="black" points="661,-608.5 661,-627.5 747,-627.5 747,-608.5 661,-608.5"/>
<text text-anchor="middle" x="704" y="-615.5" font-family="Helvetica,sans-Serif" font-size="10.00">v8::Float32Array</text>
</a>
</g>
</g>
<!-- Node16&#45;&gt;Node17 -->
<g id="edge17" class="edge">
<title>Node16&#45;&gt;Node17</title>
<path fill="none" stroke="midnightblue" d="M606.71,-481.67C607.88,-482.71 608.99,-483.82 610,-485 644.7,-525.24 608.73,-561.13 646,-599 650.17,-603.24 655.31,-606.53 660.78,-609.09"/>
<polygon fill="midnightblue" stroke="midnightblue" points="608.38,-478.56 598.2,-475.64 604.34,-484.28 608.38,-478.56"/>
</g>
<!-- Node18 -->
<g id="node19" class="node">
<title>Node18</title>
<g id="a_node19"><a xlink:href="classv8_1_1Float64Array.html" target="_top" xlink:title=" ">
<polygon fill="white" stroke="black" points="661,-570.5 661,-589.5 747,-589.5 747,-570.5 661,-570.5"/>
<text text-anchor="middle" x="704" y="-577.5" font-family="Helvetica,sans-Serif" font-size="10.00">v8::Float64Array</text>
</a>
</g>
</g>
<!-- Node16&#45;&gt;Node18 -->
<g id="edge18" class="edge">
<title>Node16&#45;&gt;Node18</title>
<path fill="none" stroke="midnightblue" d="M605.49,-481.05C607.09,-482.28 608.61,-483.59 610,-485 636.28,-511.57 618.03,-536.21 646,-561 650.37,-564.87 655.56,-567.96 660.99,-570.42"/>
<polygon fill="midnightblue" stroke="midnightblue" points="607.28,-478.03 596.98,-475.58 603.5,-483.93 607.28,-478.03"/>
</g>
<!-- Node19 -->
<g id="node20" class="node">
<title>Node19</title>
<g id="a_node20"><a xlink:href="classv8_1_1Int16Array.html" target="_top" xlink:title=" ">
<polygon fill="white" stroke="black" points="666,-532.5 666,-551.5 742,-551.5 742,-532.5 666,-532.5"/>
<text text-anchor="middle" x="704" y="-539.5" font-family="Helvetica,sans-Serif" font-size="10.00">v8::Int16Array</text>
</a>
</g>
</g>
<!-- Node16&#45;&gt;Node19 -->
<g id="edge19" class="edge">
<title>Node16&#45;&gt;Node19</title>
<path fill="none" stroke="midnightblue" d="M603.01,-480.4C605.44,-481.85 607.8,-483.39 610,-485 628.76,-498.76 626.38,-510.5 646,-523 652.07,-526.87 659.01,-530.03 665.91,-532.59"/>
<polygon fill="midnightblue" stroke="midnightblue" points="604.52,-477.24 594.07,-475.54 601.18,-483.39 604.52,-477.24"/>
</g>
<!-- Node20 -->
<g id="node21" class="node">
<title>Node20</title>
<g id="a_node21"><a xlink:href="classv8_1_1Int32Array.html" target="_top" xlink:title=" ">
<polygon fill="white" stroke="black" points="666,-494.5 666,-513.5 742,-513.5 742,-494.5 666,-494.5"/>
<text text-anchor="middle" x="704" y="-501.5" font-family="Helvetica,sans-Serif" font-size="10.00">v8::Int32Array</text>
</a>
</g>
</g>
<!-- Node16&#45;&gt;Node20 -->
<g id="edge20" class="edge">
<title>Node16&#45;&gt;Node20</title>
<path fill="none" stroke="midnightblue" d="M614.04,-478.39C632.12,-483.59 652.82,-489.55 669.7,-494.41"/>
<polygon fill="midnightblue" stroke="midnightblue" points="614.89,-474.99 604.31,-475.59 612.95,-481.72 614.89,-474.99"/>
</g>
<!-- Node21 -->
<g id="node22" class="node">
<title>Node21</title>
<g id="a_node22"><a xlink:href="classv8_1_1Int8Array.html" target="_top" xlink:title=" ">
<polygon fill="white" stroke="black" points="668.5,-456.5 668.5,-475.5 739.5,-475.5 739.5,-456.5 668.5,-456.5"/>
<text text-anchor="middle" x="704" y="-463.5" font-family="Helvetica,sans-Serif" font-size="10.00">v8::Int8Array</text>
</a>
</g>
</g>
<!-- Node16&#45;&gt;Node21 -->
<g id="edge21" class="edge">
<title>Node16&#45;&gt;Node21</title>
<path fill="none" stroke="midnightblue" d="M620.44,-466C636.32,-466 653.56,-466 668.17,-466"/>
<polygon fill="midnightblue" stroke="midnightblue" points="620.25,-462.5 610.25,-466 620.25,-469.5 620.25,-462.5"/>
</g>
<!-- Node22 -->
<g id="node23" class="node">
<title>Node22</title>
<g id="a_node23"><a xlink:href="classv8_1_1Uint16Array.html" target="_top" xlink:title=" ">
<polygon fill="white" stroke="black" points="662.5,-418.5 662.5,-437.5 745.5,-437.5 745.5,-418.5 662.5,-418.5"/>
<text text-anchor="middle" x="704" y="-425.5" font-family="Helvetica,sans-Serif" font-size="10.00">v8::Uint16Array</text>
</a>
</g>
</g>
<!-- Node16&#45;&gt;Node22 -->
<g id="edge22" class="edge">
<title>Node16&#45;&gt;Node22</title>
<path fill="none" stroke="midnightblue" d="M614.04,-453.61C632.12,-448.41 652.82,-442.45 669.7,-437.59"/>
<polygon fill="midnightblue" stroke="midnightblue" points="612.95,-450.28 604.31,-456.41 614.89,-457.01 612.95,-450.28"/>
</g>
<!-- Node23 -->
<g id="node24" class="node">
<title>Node23</title>
<g id="a_node24"><a xlink:href="classv8_1_1Uint32Array.html" target="_top" xlink:title=" ">
<polygon fill="white" stroke="black" points="662.5,-380.5 662.5,-399.5 745.5,-399.5 745.5,-380.5 662.5,-380.5"/>
<text text-anchor="middle" x="704" y="-387.5" font-family="Helvetica,sans-Serif" font-size="10.00">v8::Uint32Array</text>
</a>
</g>
</g>
<!-- Node16&#45;&gt;Node23 -->
<g id="edge23" class="edge">
<title>Node16&#45;&gt;Node23</title>
<path fill="none" stroke="midnightblue" d="M589.11,-449.51C603.62,-436.99 624.96,-420.11 646,-409 652.92,-405.35 660.68,-402.2 668.19,-399.58"/>
<polygon fill="midnightblue" stroke="midnightblue" points="586.6,-447.05 581.41,-456.29 591.23,-452.31 586.6,-447.05"/>
</g>
<!-- Node24 -->
<g id="node25" class="node">
<title>Node24</title>
<g id="a_node25"><a xlink:href="classv8_1_1Uint8Array.html" target="_top" xlink:title=" ">
<polygon fill="white" stroke="black" points="665.5,-342.5 665.5,-361.5 742.5,-361.5 742.5,-342.5 665.5,-342.5"/>
<text text-anchor="middle" x="704" y="-349.5" font-family="Helvetica,sans-Serif" font-size="10.00">v8::Uint8Array</text>
</a>
</g>
</g>
<!-- Node16&#45;&gt;Node24 -->
<g id="edge24" class="edge">
<title>Node16&#45;&gt;Node24</title>
<path fill="none" stroke="midnightblue" d="M581.01,-447.65C593.53,-426.31 616.92,-391.42 646,-371 651.81,-366.92 658.55,-363.67 665.32,-361.1"/>
<polygon fill="midnightblue" stroke="midnightblue" points="577.93,-445.98 576.03,-456.4 584.02,-449.43 577.93,-445.98"/>
</g>
<!-- Node25 -->
<g id="node26" class="node">
<title>Node25</title>
<g id="a_node26"><a xlink:href="classv8_1_1Uint8ClampedArray.html" target="_top" xlink:title=" ">
<polygon fill="white" stroke="black" points="646,-304.5 646,-323.5 762,-323.5 762,-304.5 646,-304.5"/>
<text text-anchor="middle" x="704" y="-311.5" font-family="Helvetica,sans-Serif" font-size="10.00">v8::Uint8ClampedArray</text>
</a>
</g>
</g>
<!-- Node16&#45;&gt;Node25 -->
<g id="edge25" class="edge">
<title>Node16&#45;&gt;Node25</title>
<path fill="none" stroke="midnightblue" d="M576.88,-446.67C586.63,-417.83 608.82,-363.66 646,-333 650.67,-329.15 656.15,-326.07 661.83,-323.61"/>
<polygon fill="midnightblue" stroke="midnightblue" points="573.49,-445.79 573.75,-456.38 580.15,-447.94 573.49,-445.79"/>
</g>
<!-- Node36 -->
<g id="node37" class="node">
<title>Node36</title>
<g id="a_node37"><a xlink:href="classv8_1_1Boolean.html" target="_top" xlink:title=" ">
<polygon fill="white" stroke="black" points="405.5,-95.5 405.5,-114.5 472.5,-114.5 472.5,-95.5 405.5,-95.5"/>
<text text-anchor="middle" x="439" y="-102.5" font-family="Helvetica,sans-Serif" font-size="10.00">v8::Boolean</text>
</a>
</g>
</g>
<!-- Node35&#45;&gt;Node36 -->
<g id="edge36" class="edge">
<title>Node35&#45;&gt;Node36</title>
<path fill="none" stroke="midnightblue" d="M338.05,-91.81C359.66,-94.66 385.24,-98.04 405.11,-100.66"/>
<polygon fill="midnightblue" stroke="midnightblue" points="338.5,-88.34 328.13,-90.5 337.58,-95.28 338.5,-88.34"/>
</g>
<!-- Node37 -->
<g id="node38" class="node">
<title>Node37</title>
<g id="a_node38"><a xlink:href="classv8_1_1Name.html" target="_top" xlink:title=" ">
<polygon fill="white" stroke="black" points="410,-57.5 410,-76.5 468,-76.5 468,-57.5 410,-57.5"/>
<text text-anchor="middle" x="439" y="-64.5" font-family="Helvetica,sans-Serif" font-size="10.00">v8::Name</text>
</a>
</g>
</g>
<!-- Node35&#45;&gt;Node37 -->
<g id="edge37" class="edge">
<title>Node35&#45;&gt;Node37</title>
<path fill="none" stroke="midnightblue" d="M338.16,-80.17C361.53,-77.09 389.53,-73.4 409.92,-70.7"/>
<polygon fill="midnightblue" stroke="midnightblue" points="337.58,-76.72 328.13,-81.5 338.5,-83.66 337.58,-76.72"/>
</g>
<!-- Node40 -->
<g id="node41" class="node">
<title>Node40</title>
<g id="a_node41"><a xlink:href="classv8_1_1Number.html" target="_top" xlink:title=" ">
<polygon fill="white" stroke="black" points="406,-19.5 406,-38.5 472,-38.5 472,-19.5 406,-19.5"/>
<text text-anchor="middle" x="439" y="-26.5" font-family="Helvetica,sans-Serif" font-size="10.00">v8::Number</text>
</a>
</g>
</g>
<!-- Node35&#45;&gt;Node40 -->
<g id="edge40" class="edge">
<title>Node35&#45;&gt;Node40</title>
<path fill="none" stroke="midnightblue" d="M325.23,-72.26C342.46,-64.82 364.3,-55.62 384,-48 392.34,-44.77 401.49,-41.47 409.85,-38.54"/>
<polygon fill="midnightblue" stroke="midnightblue" points="323.45,-69.22 315.67,-76.41 326.24,-75.64 323.45,-69.22"/>
</g>
<!-- Node38 -->
<g id="node39" class="node">
<title>Node38</title>
<g id="a_node39"><a xlink:href="classv8_1_1String.html" target="_top" xlink:title=" ">
<polygon fill="white" stroke="black" points="541.5,-95.5 541.5,-114.5 598.5,-114.5 598.5,-95.5 541.5,-95.5"/>
<text text-anchor="middle" x="570" y="-102.5" font-family="Helvetica,sans-Serif" font-size="10.00">v8::String</text>
</a>
</g>
</g>
<!-- Node37&#45;&gt;Node38 -->
<g id="edge38" class="edge">
<title>Node37&#45;&gt;Node38</title>
<path fill="none" stroke="midnightblue" d="M478.16,-78.24C498.38,-84.2 522.78,-91.39 541.2,-96.81"/>
<polygon fill="midnightblue" stroke="midnightblue" points="478.89,-74.81 468.31,-75.34 476.91,-81.52 478.89,-74.81"/>
</g>
<!-- Node39 -->
<g id="node40" class="node">
<title>Node39</title>
<g id="a_node40"><a xlink:href="classv8_1_1Symbol.html" target="_top" xlink:title=" ">
<polygon fill="white" stroke="black" points="538,-57.5 538,-76.5 602,-76.5 602,-57.5 538,-57.5"/>
<text text-anchor="middle" x="570" y="-64.5" font-family="Helvetica,sans-Serif" font-size="10.00">v8::Symbol</text>
</a>
</g>
</g>
<!-- Node37&#45;&gt;Node39 -->
<g id="edge39" class="edge">
<title>Node37&#45;&gt;Node39</title>
<path fill="none" stroke="midnightblue" d="M478.38,-67C497.26,-67 519.74,-67 537.59,-67"/>
<polygon fill="midnightblue" stroke="midnightblue" points="478.31,-63.5 468.31,-67 478.31,-70.5 478.31,-63.5"/>
</g>
<!-- Node41 -->
<g id="node42" class="node">
<title>Node41</title>
<g id="a_node42"><a xlink:href="classv8_1_1Integer.html" target="_top" xlink:title=" ">
<polygon fill="white" stroke="black" points="539,-19.5 539,-38.5 601,-38.5 601,-19.5 539,-19.5"/>
<text text-anchor="middle" x="570" y="-26.5" font-family="Helvetica,sans-Serif" font-size="10.00">v8::Integer</text>
</a>
</g>
</g>
<!-- Node40&#45;&gt;Node41 -->
<g id="edge41" class="edge">
<title>Node40&#45;&gt;Node41</title>
<path fill="none" stroke="midnightblue" d="M482.44,-29C500.92,-29 522.15,-29 538.96,-29"/>
<polygon fill="midnightblue" stroke="midnightblue" points="482.22,-25.5 472.22,-29 482.22,-32.5 482.22,-25.5"/>
</g>
<!-- Node42 -->
<g id="node43" class="node">
<title>Node42</title>
<g id="a_node43"><a xlink:href="classv8_1_1Int32.html" target="_top" xlink:title=" ">
<polygon fill="white" stroke="black" points="677.5,-38.5 677.5,-57.5 730.5,-57.5 730.5,-38.5 677.5,-38.5"/>
<text text-anchor="middle" x="704" y="-45.5" font-family="Helvetica,sans-Serif" font-size="10.00">v8::Int32</text>
</a>
</g>
</g>
<!-- Node41&#45;&gt;Node42 -->
<g id="edge42" class="edge">
<title>Node41&#45;&gt;Node42</title>
<path fill="none" stroke="midnightblue" d="M611.42,-34.82C632.87,-37.91 658.59,-41.61 677.3,-44.3"/>
<polygon fill="midnightblue" stroke="midnightblue" points="611.68,-31.32 601.28,-33.36 610.68,-38.25 611.68,-31.32"/>
</g>
<!-- Node43 -->
<g id="node44" class="node">
<title>Node43</title>
<g id="a_node44"><a xlink:href="classv8_1_1Uint32.html" target="_top" xlink:title=" ">
<polygon fill="white" stroke="black" points="674,-0.5 674,-19.5 734,-19.5 734,-0.5 674,-0.5"/>
<text text-anchor="middle" x="704" y="-7.5" font-family="Helvetica,sans-Serif" font-size="10.00">v8::Uint32</text>
</a>
</g>
</g>
<!-- Node41&#45;&gt;Node43 -->
<g id="edge43" class="edge">
<title>Node41&#45;&gt;Node43</title>
<path fill="none" stroke="midnightblue" d="M611.42,-23.18C631.55,-20.28 655.43,-16.85 673.77,-14.21"/>
<polygon fill="midnightblue" stroke="midnightblue" points="610.68,-19.75 601.28,-24.64 611.68,-26.68 610.68,-19.75"/>
</g>
</g>
</svg>
