<?xml version="1.0" encoding="UTF-8" standalone="no"?>
<!DOCTYPE svg PUBLIC "-//W3C//DTD SVG 1.1//EN"
 "http://www.w3.org/Graphics/SVG/1.1/DTD/svg11.dtd">
<!-- Generated by graphviz version 2.44.0 ()
 -->
<!-- Title: v8::internal::IntToSmi Pages: 1 -->
<svg width="256pt" height="78pt"
 viewBox="0.00 0.00 256.00 77.50" xmlns="http://www.w3.org/2000/svg" xmlns:xlink="http://www.w3.org/1999/xlink">
<g id="graph0" class="graph" transform="scale(1 1) rotate(0) translate(4 73.5)">
<title>v8::internal::IntToSmi</title>
<polygon fill="white" stroke="transparent" points="-4,4 -4,-73.5 252,-73.5 252,4 -4,4"/>
<!-- Node1 -->
<g id="node1" class="node">
<title>Node1</title>
<g id="a_node1"><a xlink:title=" ">
<polygon fill="#bfbfbf" stroke="black" points="141,-22.5 141,-41.5 248,-41.5 248,-22.5 141,-22.5"/>
<text text-anchor="middle" x="194.5" y="-29.5" font-family="Helvetica,sans-Serif" font-size="10.00">v8::internal::IntToSmi</text>
</a>
</g>
</g>
<!-- Node2 -->
<g id="node2" class="node">
<title>Node2</title>
<g id="a_node2"><a xlink:href="classv8_1_1internal_1_1Internals.html#a94ffd89fdf64fad84fb4ef16a9749850" target="_top" xlink:title=" ">
<polygon fill="white" stroke="black" points="0,-39 0,-69 105,-69 105,-39 0,-39"/>
<text text-anchor="start" x="8" y="-57" font-family="Helvetica,sans-Serif" font-size="10.00">v8::internal::Internals</text>
<text text-anchor="middle" x="52.5" y="-46" font-family="Helvetica,sans-Serif" font-size="10.00">::IntToSmi</text>
</a>
</g>
</g>
<!-- Node1&#45;&gt;Node2 -->
<g id="edge1" class="edge">
<title>Node1&#45;&gt;Node2</title>
<path fill="none" stroke="midnightblue" d="M131.02,-41.82C122.46,-43.16 113.74,-44.53 105.39,-45.85"/>
<polygon fill="midnightblue" stroke="midnightblue" points="131.64,-45.26 140.97,-40.25 130.55,-38.35 131.64,-45.26"/>
</g>
<!-- Node3 -->
<g id="node3" class="node">
<title>Node3</title>
<g id="a_node3"><a xlink:href="classv8_1_1ReturnValue.html#ab214555052e3d03b8c44a7e8779bcbc2" target="_top" xlink:title=" ">
<polygon fill="white" stroke="black" points="0.5,-0.5 0.5,-19.5 104.5,-19.5 104.5,-0.5 0.5,-0.5"/>
<text text-anchor="middle" x="52.5" y="-7.5" font-family="Helvetica,sans-Serif" font-size="10.00">v8::ReturnValue::Set</text>
</a>
</g>
</g>
<!-- Node1&#45;&gt;Node3 -->
<g id="edge2" class="edge">
<title>Node1&#45;&gt;Node3</title>
<path fill="none" stroke="midnightblue" d="M130.88,-22.16C122.21,-20.8 113.37,-19.41 104.93,-18.08"/>
<polygon fill="midnightblue" stroke="midnightblue" points="130.55,-25.65 140.97,-23.75 131.64,-18.74 130.55,-25.65"/>
</g>
</g>
</svg>
