<?xml version="1.0" encoding="UTF-8" standalone="no"?>
<!DOCTYPE svg PUBLIC "-//W3C//DTD SVG 1.1//EN"
 "http://www.w3.org/Graphics/SVG/1.1/DTD/svg11.dtd">
<!-- Generated by graphviz version 2.44.0 ()
 -->
<!-- Title: include/cppgc/internal/api&#45;constants.h Pages: 1 -->
<svg width="517pt" height="486pt"
 viewBox="0.00 0.00 516.50 486.00" xmlns="http://www.w3.org/2000/svg" xmlns:xlink="http://www.w3.org/1999/xlink">
<g id="graph0" class="graph" transform="scale(1 1) rotate(0) translate(4 482)">
<title>include/cppgc/internal/api&#45;constants.h</title>
<polygon fill="white" stroke="transparent" points="-4,4 -4,-482 512.5,-482 512.5,4 -4,4"/>
<!-- Node1 -->
<g id="node1" class="node">
<title>Node1</title>
<g id="a_node1"><a xlink:title=" ">
<polygon fill="#bfbfbf" stroke="black" points="191,-447.5 191,-477.5 302,-477.5 302,-447.5 191,-447.5"/>
<text text-anchor="start" x="199" y="-465.5" font-family="Helvetica,sans-Serif" font-size="10.00">include/cppgc/internal</text>
<text text-anchor="middle" x="246.5" y="-454.5" font-family="Helvetica,sans-Serif" font-size="10.00">/api&#45;constants.h</text>
</a>
</g>
</g>
<!-- Node2 -->
<g id="node2" class="node">
<title>Node2</title>
<g id="a_node2"><a xlink:href="garbage-collected_8h.html" target="_top" xlink:title=" ">
<polygon fill="white" stroke="black" points="124.5,-380.5 124.5,-410.5 238.5,-410.5 238.5,-380.5 124.5,-380.5"/>
<text text-anchor="start" x="132.5" y="-398.5" font-family="Helvetica,sans-Serif" font-size="10.00">include/cppgc/garbage</text>
<text text-anchor="middle" x="181.5" y="-387.5" font-family="Helvetica,sans-Serif" font-size="10.00">&#45;collected.h</text>
</a>
</g>
</g>
<!-- Node1&#45;&gt;Node2 -->
<g id="edge1" class="edge">
<title>Node1&#45;&gt;Node2</title>
<path fill="none" stroke="midnightblue" d="M225.31,-440.31C215.56,-430.56 204.26,-419.26 195.58,-410.58"/>
<polygon fill="midnightblue" stroke="midnightblue" points="222.85,-442.8 232.4,-447.4 227.8,-437.85 222.85,-442.8"/>
</g>
<!-- Node3 -->
<g id="node3" class="node">
<title>Node3</title>
<g id="a_node3"><a xlink:href="allocation_8h.html" target="_top" xlink:title=" ">
<polygon fill="white" stroke="black" points="27.5,-319 27.5,-338 155.5,-338 155.5,-319 27.5,-319"/>
<text text-anchor="middle" x="91.5" y="-326" font-family="Helvetica,sans-Serif" font-size="10.00">include/cppgc/allocation.h</text>
</a>
</g>
</g>
<!-- Node1&#45;&gt;Node3 -->
<g id="edge8" class="edge">
<title>Node1&#45;&gt;Node3</title>
<path fill="none" stroke="midnightblue" d="M181.36,-449.07C157.8,-441.6 132.78,-429.75 115.5,-411 96.31,-390.17 92.4,-354.74 91.65,-338.33"/>
<polygon fill="midnightblue" stroke="midnightblue" points="180.41,-452.44 190.99,-451.92 182.39,-445.73 180.41,-452.44"/>
</g>
<!-- Node8 -->
<g id="node8" class="node">
<title>Node8</title>
<g id="a_node8"><a xlink:href="write-barrier_8h.html" target="_top" xlink:title=" ">
<polygon fill="white" stroke="black" points="257,-380.5 257,-410.5 368,-410.5 368,-380.5 257,-380.5"/>
<text text-anchor="start" x="265" y="-398.5" font-family="Helvetica,sans-Serif" font-size="10.00">include/cppgc/internal</text>
<text text-anchor="middle" x="312.5" y="-387.5" font-family="Helvetica,sans-Serif" font-size="10.00">/write&#45;barrier.h</text>
</a>
</g>
</g>
<!-- Node1&#45;&gt;Node8 -->
<g id="edge9" class="edge">
<title>Node1&#45;&gt;Node8</title>
<path fill="none" stroke="midnightblue" d="M268.01,-440.31C277.91,-430.56 289.39,-419.26 298.21,-410.58"/>
<polygon fill="midnightblue" stroke="midnightblue" points="265.49,-437.89 260.82,-447.4 270.4,-442.87 265.49,-437.89"/>
</g>
<!-- Node15 -->
<g id="node15" class="node">
<title>Node15</title>
<g id="a_node15"><a xlink:href="caged-heap-local-data_8h.html" target="_top" xlink:title=" ">
<polygon fill="white" stroke="black" points="386.5,-380.5 386.5,-410.5 508.5,-410.5 508.5,-380.5 386.5,-380.5"/>
<text text-anchor="start" x="394.5" y="-398.5" font-family="Helvetica,sans-Serif" font-size="10.00">include/cppgc/internal</text>
<text text-anchor="middle" x="447.5" y="-387.5" font-family="Helvetica,sans-Serif" font-size="10.00">/caged&#45;heap&#45;local&#45;data.h</text>
</a>
</g>
</g>
<!-- Node1&#45;&gt;Node15 -->
<g id="edge23" class="edge">
<title>Node1&#45;&gt;Node15</title>
<path fill="none" stroke="midnightblue" d="M299.91,-444.23C332.43,-433.71 373.44,-420.45 403.97,-410.58"/>
<polygon fill="midnightblue" stroke="midnightblue" points="298.55,-440.99 290.11,-447.4 300.71,-447.65 298.55,-440.99"/>
</g>
<!-- Node2&#45;&gt;Node3 -->
<g id="edge2" class="edge">
<title>Node2&#45;&gt;Node3</title>
<path fill="none" stroke="midnightblue" d="M153.54,-374.31C136.64,-362.1 115.98,-347.18 103.28,-338.01"/>
<polygon fill="midnightblue" stroke="midnightblue" points="151.82,-377.38 161.97,-380.4 155.91,-371.7 151.82,-377.38"/>
</g>
<!-- Node4 -->
<g id="node4" class="node">
<title>Node4</title>
<g id="a_node4"><a xlink:href="visitor_8h.html" target="_top" xlink:title=" ">
<polygon fill="white" stroke="black" points="222,-129 222,-148 335,-148 335,-129 222,-129"/>
<text text-anchor="middle" x="278.5" y="-136" font-family="Helvetica,sans-Serif" font-size="10.00">include/cppgc/visitor.h</text>
</a>
</g>
</g>
<!-- Node2&#45;&gt;Node4 -->
<g id="edge3" class="edge">
<title>Node2&#45;&gt;Node4</title>
<path fill="none" stroke="midnightblue" d="M183.68,-370.16C188.07,-330.38 200.45,-249.86 232.5,-190 241.57,-173.06 257.58,-157.34 268.12,-148.08"/>
<polygon fill="midnightblue" stroke="midnightblue" points="180.18,-369.95 182.64,-380.25 187.15,-370.66 180.18,-369.95"/>
</g>
<!-- Node5 -->
<g id="node5" class="node">
<title>Node5</title>
<g id="a_node5"><a xlink:href="persistent_8h.html" target="_top" xlink:title=" ">
<polygon fill="white" stroke="black" points="323.5,-67.5 323.5,-86.5 453.5,-86.5 453.5,-67.5 323.5,-67.5"/>
<text text-anchor="middle" x="388.5" y="-74.5" font-family="Helvetica,sans-Serif" font-size="10.00">include/cppgc/persistent.h</text>
</a>
</g>
</g>
<!-- Node4&#45;&gt;Node5 -->
<g id="edge4" class="edge">
<title>Node4&#45;&gt;Node5</title>
<path fill="none" stroke="midnightblue" d="M303.07,-124.21C324.37,-112.69 354.57,-96.36 372.77,-86.51"/>
<polygon fill="midnightblue" stroke="midnightblue" points="301.39,-121.14 294.26,-128.98 304.72,-127.3 301.39,-121.14"/>
</g>
<!-- Node6 -->
<g id="node6" class="node">
<title>Node6</title>
<g id="a_node6"><a xlink:href="cross-thread-persistent_8h.html" target="_top" xlink:title=" ">
<polygon fill="white" stroke="black" points="336.5,-0.5 336.5,-30.5 440.5,-30.5 440.5,-0.5 336.5,-0.5"/>
<text text-anchor="start" x="344.5" y="-18.5" font-family="Helvetica,sans-Serif" font-size="10.00">include/cppgc/cross</text>
<text text-anchor="middle" x="388.5" y="-7.5" font-family="Helvetica,sans-Serif" font-size="10.00">&#45;thread&#45;persistent.h</text>
</a>
</g>
</g>
<!-- Node4&#45;&gt;Node6 -->
<g id="edge6" class="edge">
<title>Node4&#45;&gt;Node6</title>
<path fill="none" stroke="midnightblue" d="M284.94,-119.11C290.9,-103.92 300.91,-82.44 314.5,-67 327.66,-52.06 346.16,-39.43 361.37,-30.54"/>
<polygon fill="midnightblue" stroke="midnightblue" points="281.51,-118.28 281.31,-128.87 288.07,-120.71 281.51,-118.28"/>
</g>
<!-- Node7 -->
<g id="node7" class="node">
<title>Node7</title>
<g id="a_node7"><a xlink:href="v8-cppgc_8h.html" target="_top" xlink:title=" ">
<polygon fill="white" stroke="black" points="169.5,-67.5 169.5,-86.5 267.5,-86.5 267.5,-67.5 169.5,-67.5"/>
<text text-anchor="middle" x="218.5" y="-74.5" font-family="Helvetica,sans-Serif" font-size="10.00">include/v8&#45;cppgc.h</text>
</a>
</g>
</g>
<!-- Node4&#45;&gt;Node7 -->
<g id="edge7" class="edge">
<title>Node4&#45;&gt;Node7</title>
<path fill="none" stroke="midnightblue" d="M262.69,-121.82C251.29,-110.52 236.34,-95.69 227.08,-86.51"/>
<polygon fill="midnightblue" stroke="midnightblue" points="260.34,-124.42 269.9,-128.98 265.27,-119.45 260.34,-124.42"/>
</g>
<!-- Node5&#45;&gt;Node6 -->
<g id="edge5" class="edge">
<title>Node5&#45;&gt;Node6</title>
<path fill="none" stroke="midnightblue" d="M388.5,-57.23C388.5,-48.59 388.5,-38.5 388.5,-30.52"/>
<polygon fill="midnightblue" stroke="midnightblue" points="385,-57.48 388.5,-67.48 392,-57.48 385,-57.48"/>
</g>
<!-- Node9 -->
<g id="node9" class="node">
<title>Node9</title>
<g id="a_node9"><a xlink:href="pointer-policies_8h.html" target="_top" xlink:title=" ">
<polygon fill="white" stroke="black" points="350,-313.5 350,-343.5 461,-343.5 461,-313.5 350,-313.5"/>
<text text-anchor="start" x="358" y="-331.5" font-family="Helvetica,sans-Serif" font-size="10.00">include/cppgc/internal</text>
<text text-anchor="middle" x="405.5" y="-320.5" font-family="Helvetica,sans-Serif" font-size="10.00">/pointer&#45;policies.h</text>
</a>
</g>
</g>
<!-- Node8&#45;&gt;Node9 -->
<g id="edge10" class="edge">
<title>Node8&#45;&gt;Node9</title>
<path fill="none" stroke="midnightblue" d="M341.19,-374.45C355.49,-364.45 372.45,-352.6 385.36,-343.58"/>
<polygon fill="midnightblue" stroke="midnightblue" points="338.87,-371.8 332.68,-380.4 342.88,-377.54 338.87,-371.8"/>
</g>
<!-- Node9&#45;&gt;Node4 -->
<g id="edge22" class="edge">
<title>Node9&#45;&gt;Node4</title>
<path fill="none" stroke="midnightblue" d="M408.69,-303.13C411.22,-273.46 410.98,-223.19 386.5,-190 370.22,-167.93 341.86,-155.17 318.29,-148.01"/>
<polygon fill="midnightblue" stroke="midnightblue" points="405.17,-303.11 407.63,-313.42 412.14,-303.83 405.17,-303.11"/>
</g>
<!-- Node9&#45;&gt;Node5 -->
<g id="edge12" class="edge">
<title>Node9&#45;&gt;Node5</title>
<path fill="none" stroke="midnightblue" d="M415.25,-303.79C418.19,-295.47 421.03,-285.96 422.5,-277 434.57,-203.33 403.02,-114.49 392.08,-86.72"/>
<polygon fill="midnightblue" stroke="midnightblue" points="411.94,-302.64 411.69,-313.23 418.49,-305.11 411.94,-302.64"/>
</g>
<!-- Node9&#45;&gt;Node6 -->
<g id="edge11" class="edge">
<title>Node9&#45;&gt;Node6</title>
<path fill="none" stroke="midnightblue" d="M429.21,-306.3C451.51,-283.92 481.5,-246.39 481.5,-206.5 481.5,-206.5 481.5,-206.5 481.5,-137.5 481.5,-105.05 481.29,-93.46 462.5,-67 451.42,-51.4 433.91,-39.14 418.7,-30.6"/>
<polygon fill="midnightblue" stroke="midnightblue" points="426.73,-303.82 421.99,-313.3 431.61,-308.85 426.73,-303.82"/>
</g>
<!-- Node10 -->
<g id="node10" class="node">
<title>Node10</title>
<g id="a_node10"><a xlink:href="member_8h.html" target="_top" xlink:title=" ">
<polygon fill="white" stroke="black" points="232.5,-257.5 232.5,-276.5 354.5,-276.5 354.5,-257.5 232.5,-257.5"/>
<text text-anchor="middle" x="293.5" y="-264.5" font-family="Helvetica,sans-Serif" font-size="10.00">include/cppgc/member.h</text>
</a>
</g>
</g>
<!-- Node9&#45;&gt;Node10 -->
<g id="edge13" class="edge">
<title>Node9&#45;&gt;Node10</title>
<path fill="none" stroke="midnightblue" d="M370.02,-308.65C349.83,-297.93 325.52,-285.01 309.8,-276.66"/>
<polygon fill="midnightblue" stroke="midnightblue" points="368.48,-311.8 378.96,-313.4 371.77,-305.62 368.48,-311.8"/>
</g>
<!-- Node10&#45;&gt;Node4 -->
<g id="edge21" class="edge">
<title>Node10&#45;&gt;Node4</title>
<path fill="none" stroke="midnightblue" d="M268.78,-251.9C257.97,-244.28 246.42,-233.79 240.5,-221 228.17,-194.36 254.45,-162.9 269.27,-148.06"/>
<polygon fill="midnightblue" stroke="midnightblue" points="266.88,-254.84 277.17,-257.39 270.71,-248.98 266.88,-254.84"/>
</g>
<!-- Node11 -->
<g id="node11" class="node">
<title>Node11</title>
<g id="a_node11"><a xlink:href="ephemeron-pair_8h.html" target="_top" xlink:title=" ">
<polygon fill="white" stroke="black" points="249.5,-190.5 249.5,-220.5 377.5,-220.5 377.5,-190.5 249.5,-190.5"/>
<text text-anchor="start" x="257.5" y="-208.5" font-family="Helvetica,sans-Serif" font-size="10.00">include/cppgc/ephemeron</text>
<text text-anchor="middle" x="313.5" y="-197.5" font-family="Helvetica,sans-Serif" font-size="10.00">&#45;pair.h</text>
</a>
</g>
</g>
<!-- Node10&#45;&gt;Node11 -->
<g id="edge14" class="edge">
<title>Node10&#45;&gt;Node11</title>
<path fill="none" stroke="midnightblue" d="M299.61,-247.82C302.56,-239.04 306.05,-228.68 308.79,-220.52"/>
<polygon fill="midnightblue" stroke="midnightblue" points="296.23,-246.88 296.37,-257.48 302.87,-249.11 296.23,-246.88"/>
</g>
<!-- Node12 -->
<g id="node12" class="node">
<title>Node12</title>
<g id="a_node12"><a xlink:href="liveness-broker_8h.html" target="_top" xlink:title=" ">
<polygon fill="white" stroke="black" points="39.5,-190.5 39.5,-220.5 155.5,-220.5 155.5,-190.5 39.5,-190.5"/>
<text text-anchor="start" x="47.5" y="-208.5" font-family="Helvetica,sans-Serif" font-size="10.00">include/cppgc/liveness</text>
<text text-anchor="middle" x="97.5" y="-197.5" font-family="Helvetica,sans-Serif" font-size="10.00">&#45;broker.h</text>
</a>
</g>
</g>
<!-- Node10&#45;&gt;Node12 -->
<g id="edge16" class="edge">
<title>Node10&#45;&gt;Node12</title>
<path fill="none" stroke="midnightblue" d="M255.56,-254.48C223.61,-244.78 177.78,-230.87 143.69,-220.52"/>
<polygon fill="midnightblue" stroke="midnightblue" points="254.83,-257.92 265.42,-257.48 256.87,-251.22 254.83,-257.92"/>
</g>
<!-- Node11&#45;&gt;Node4 -->
<g id="edge15" class="edge">
<title>Node11&#45;&gt;Node4</title>
<path fill="none" stroke="midnightblue" d="M301,-181.29C294.82,-169.8 287.72,-156.63 283.18,-148.19"/>
<polygon fill="midnightblue" stroke="midnightblue" points="298.08,-183.25 305.91,-190.4 304.25,-179.93 298.08,-183.25"/>
</g>
<!-- Node12&#45;&gt;Node4 -->
<g id="edge17" class="edge">
<title>Node12&#45;&gt;Node4</title>
<path fill="none" stroke="midnightblue" d="M146.38,-186.95C181.54,-174.32 227.4,-157.85 254.81,-148.01"/>
<polygon fill="midnightblue" stroke="midnightblue" points="145,-183.72 136.77,-190.4 147.37,-190.31 145,-183.72"/>
</g>
<!-- Node13 -->
<g id="node13" class="node">
<title>Node13</title>
<g id="a_node13"><a xlink:href="prefinalizer-handler_8h.html" target="_top" xlink:title=" ">
<polygon fill="white" stroke="black" points="59,-123.5 59,-153.5 170,-153.5 170,-123.5 59,-123.5"/>
<text text-anchor="start" x="67" y="-141.5" font-family="Helvetica,sans-Serif" font-size="10.00">include/cppgc/internal</text>
<text text-anchor="middle" x="114.5" y="-130.5" font-family="Helvetica,sans-Serif" font-size="10.00">/prefinalizer&#45;handler.h</text>
</a>
</g>
</g>
<!-- Node12&#45;&gt;Node13 -->
<g id="edge18" class="edge">
<title>Node12&#45;&gt;Node13</title>
<path fill="none" stroke="midnightblue" d="M103.73,-180.7C106.11,-171.59 108.75,-161.49 110.82,-153.58"/>
<polygon fill="midnightblue" stroke="midnightblue" points="100.33,-179.84 101.19,-190.4 107.11,-181.61 100.33,-179.84"/>
</g>
<!-- Node14 -->
<g id="node14" class="node">
<title>Node14</title>
<g id="a_node14"><a xlink:href="prefinalizer_8h.html" target="_top" xlink:title=" ">
<polygon fill="white" stroke="black" points="0,-67.5 0,-86.5 133,-86.5 133,-67.5 0,-67.5"/>
<text text-anchor="middle" x="66.5" y="-74.5" font-family="Helvetica,sans-Serif" font-size="10.00">include/cppgc/prefinalizer.h</text>
</a>
</g>
</g>
<!-- Node12&#45;&gt;Node14 -->
<g id="edge20" class="edge">
<title>Node12&#45;&gt;Node14</title>
<path fill="none" stroke="midnightblue" d="M70.63,-183.5C62.21,-175.3 53.97,-165.18 49.5,-154 40.17,-130.65 53.37,-101.11 61.29,-86.7"/>
<polygon fill="midnightblue" stroke="midnightblue" points="68.54,-186.33 78.3,-190.45 73.25,-181.14 68.54,-186.33"/>
</g>
<!-- Node13&#45;&gt;Node14 -->
<g id="edge19" class="edge">
<title>Node13&#45;&gt;Node14</title>
<path fill="none" stroke="midnightblue" d="M96.67,-115.4C88.61,-105.41 79.55,-94.18 73.48,-86.66"/>
<polygon fill="midnightblue" stroke="midnightblue" points="94.12,-117.81 103.12,-123.4 99.57,-113.42 94.12,-117.81"/>
</g>
</g>
</svg>
