<?xml version="1.0" encoding="UTF-8" standalone="no"?>
<!DOCTYPE svg PUBLIC "-//W3C//DTD SVG 1.1//EN"
 "http://www.w3.org/Graphics/SVG/1.1/DTD/svg11.dtd">
<!-- Generated by graphviz version 2.44.0 ()
 -->
<!-- Title: v8::JSVisitor::Trace Pages: 1 -->
<svg width="437pt" height="78pt"
 viewBox="0.00 0.00 437.00 77.50" xmlns="http://www.w3.org/2000/svg" xmlns:xlink="http://www.w3.org/1999/xlink">
<g id="graph0" class="graph" transform="scale(1 1) rotate(0) translate(4 73.5)">
<title>v8::JSVisitor::Trace</title>
<polygon fill="white" stroke="transparent" points="-4,4 -4,-73.5 433,-73.5 433,4 -4,4"/>
<!-- Node1 -->
<g id="node1" class="node">
<title>Node1</title>
<g id="a_node1"><a xlink:title=" ">
<polygon fill="#bfbfbf" stroke="black" points="0,-22.5 0,-41.5 101,-41.5 101,-22.5 0,-22.5"/>
<text text-anchor="middle" x="50.5" y="-29.5" font-family="Helvetica,sans-Serif" font-size="10.00">v8::JSVisitor::Trace</text>
</a>
</g>
</g>
<!-- Node2 -->
<g id="node2" class="node">
<title>Node2</title>
<g id="a_node2"><a xlink:href="classv8_1_1TracedReferenceBase.html#af999bfa19acca2508138d165daf85a54" target="_top" xlink:title=" ">
<polygon fill="white" stroke="black" points="137,-39 137,-69 265,-69 265,-39 137,-39"/>
<text text-anchor="start" x="145" y="-57" font-family="Helvetica,sans-Serif" font-size="10.00">v8::TracedReferenceBase</text>
<text text-anchor="middle" x="201" y="-46" font-family="Helvetica,sans-Serif" font-size="10.00">::IsEmptyThreadSafe</text>
</a>
</g>
</g>
<!-- Node1&#45;&gt;Node2 -->
<g id="edge1" class="edge">
<title>Node1&#45;&gt;Node2</title>
<path fill="none" stroke="midnightblue" d="M101.36,-39.39C109.54,-40.6 118.16,-41.88 126.76,-43.15"/>
<polygon fill="midnightblue" stroke="midnightblue" points="126.41,-46.64 136.82,-44.64 127.44,-39.71 126.41,-46.64"/>
</g>
<!-- Node4 -->
<g id="node4" class="node">
<title>Node4</title>
<g id="a_node4"><a xlink:href="classv8_1_1JSVisitor.html#a403cc250b8317f0cca51445a67399749" target="_top" xlink:title=" ">
<polygon fill="white" stroke="black" points="153.5,-0.5 153.5,-19.5 248.5,-19.5 248.5,-0.5 153.5,-0.5"/>
<text text-anchor="middle" x="201" y="-7.5" font-family="Helvetica,sans-Serif" font-size="10.00">v8::JSVisitor::Visit</text>
</a>
</g>
</g>
<!-- Node1&#45;&gt;Node4 -->
<g id="edge3" class="edge">
<title>Node1&#45;&gt;Node4</title>
<path fill="none" stroke="midnightblue" d="M101.36,-24.61C114.66,-22.64 129.12,-20.5 142.78,-18.48"/>
<polygon fill="midnightblue" stroke="midnightblue" points="143.65,-21.89 153.03,-16.96 142.63,-14.96 143.65,-21.89"/>
</g>
<!-- Node3 -->
<g id="node3" class="node">
<title>Node3</title>
<g id="a_node3"><a xlink:href="classv8_1_1TracedReferenceBase.html#abb55f922b775fd5d30a53bd8b312c0bf" target="_top" xlink:title=" ">
<polygon fill="white" stroke="black" points="301,-39 301,-69 429,-69 429,-39 301,-39"/>
<text text-anchor="start" x="309" y="-57" font-family="Helvetica,sans-Serif" font-size="10.00">v8::TracedReferenceBase</text>
<text text-anchor="middle" x="365" y="-46" font-family="Helvetica,sans-Serif" font-size="10.00">::GetSlotThreadSafe</text>
</a>
</g>
</g>
<!-- Node2&#45;&gt;Node3 -->
<g id="edge2" class="edge">
<title>Node2&#45;&gt;Node3</title>
<path fill="none" stroke="midnightblue" d="M265.1,-54C273.43,-54 282.04,-54 290.53,-54"/>
<polygon fill="midnightblue" stroke="midnightblue" points="290.81,-57.5 300.81,-54 290.81,-50.5 290.81,-57.5"/>
</g>
</g>
</svg>
