<?xml version="1.0" encoding="UTF-8" standalone="no"?>
<!DOCTYPE svg PUBLIC "-//W3C//DTD SVG 1.1//EN"
 "http://www.w3.org/Graphics/SVG/1.1/DTD/svg11.dtd">
<!-- Generated by graphviz version 2.44.0 ()
 -->
<!-- Title: cppgc::internal::BasicCrossThreadPersistent::BasicCrossThreadPersistent Pages: 1 -->
<svg width="850pt" height="112pt"
 viewBox="0.00 0.00 850.00 112.00" xmlns="http://www.w3.org/2000/svg" xmlns:xlink="http://www.w3.org/1999/xlink">
<g id="graph0" class="graph" transform="scale(1 1) rotate(0) translate(4 108)">
<title>cppgc::internal::BasicCrossThreadPersistent::BasicCrossThreadPersistent</title>
<polygon fill="white" stroke="transparent" points="-4,4 -4,-108 846,-108 846,4 -4,4"/>
<!-- Node1 -->
<g id="node1" class="node">
<title>Node1</title>
<g id="a_node1"><a xlink:title=" ">
<polygon fill="#bfbfbf" stroke="black" points="0,-19 0,-60 176,-60 176,-19 0,-19"/>
<text text-anchor="start" x="8" y="-48" font-family="Helvetica,sans-Serif" font-size="10.00">cppgc::internal::BasicCross</text>
<text text-anchor="start" x="8" y="-37" font-family="Helvetica,sans-Serif" font-size="10.00">ThreadPersistent::BasicCrossThread</text>
<text text-anchor="middle" x="88" y="-26" font-family="Helvetica,sans-Serif" font-size="10.00">Persistent</text>
</a>
</g>
</g>
<!-- Node2 -->
<g id="node2" class="node">
<title>Node2</title>
<g id="a_node2"><a xlink:href="classcppgc_1_1internal_1_1PersistentRegion.html#a25973373213a5e0257ce287132ca8f1c" target="_top" xlink:title=" ">
<polygon fill="white" stroke="black" points="212,-49.5 212,-79.5 340,-79.5 340,-49.5 212,-49.5"/>
<text text-anchor="start" x="220" y="-67.5" font-family="Helvetica,sans-Serif" font-size="10.00">cppgc::internal::Persistent</text>
<text text-anchor="middle" x="276" y="-56.5" font-family="Helvetica,sans-Serif" font-size="10.00">Region::AllocateNode</text>
</a>
</g>
</g>
<!-- Node1&#45;&gt;Node2 -->
<g id="edge1" class="edge">
<title>Node1&#45;&gt;Node2</title>
<path fill="none" stroke="midnightblue" d="M176.01,-51.19C184.61,-52.35 193.29,-53.52 201.73,-54.65"/>
<polygon fill="midnightblue" stroke="midnightblue" points="201.52,-58.16 211.9,-56.02 202.45,-51.22 201.52,-58.16"/>
</g>
<!-- Node7 -->
<g id="node7" class="node">
<title>Node7</title>
<g id="a_node7"><a xlink:href="classcppgc_1_1internal_1_1PersistentBase.html#af84e1d2f71c9cbd3f0a4424339c725cb" target="_top" xlink:title=" ">
<polygon fill="white" stroke="black" points="212,-0.5 212,-30.5 340,-30.5 340,-0.5 212,-0.5"/>
<text text-anchor="start" x="220" y="-18.5" font-family="Helvetica,sans-Serif" font-size="10.00">cppgc::internal::Persistent</text>
<text text-anchor="middle" x="276" y="-7.5" font-family="Helvetica,sans-Serif" font-size="10.00">Base::SetNode</text>
</a>
</g>
</g>
<!-- Node1&#45;&gt;Node7 -->
<g id="edge7" class="edge">
<title>Node1&#45;&gt;Node7</title>
<path fill="none" stroke="midnightblue" d="M176.01,-28.27C184.61,-27.16 193.29,-26.04 201.73,-24.95"/>
<polygon fill="midnightblue" stroke="midnightblue" points="202.43,-28.39 211.9,-23.64 201.53,-21.45 202.43,-28.39"/>
</g>
<!-- Node3 -->
<g id="node3" class="node">
<title>Node3</title>
<g id="a_node3"><a xlink:href="classcppgc_1_1internal_1_1PersistentNode.html#aa3d1960fd3dc51e1a6bf03bd316569ef" target="_top" xlink:title=" ">
<polygon fill="white" stroke="black" points="550,-73.5 550,-103.5 678,-103.5 678,-73.5 550,-73.5"/>
<text text-anchor="start" x="558" y="-91.5" font-family="Helvetica,sans-Serif" font-size="10.00">cppgc::internal::Persistent</text>
<text text-anchor="middle" x="614" y="-80.5" font-family="Helvetica,sans-Serif" font-size="10.00">Node::FreeListNext</text>
</a>
</g>
</g>
<!-- Node2&#45;&gt;Node3 -->
<g id="edge2" class="edge">
<title>Node2&#45;&gt;Node3</title>
<path fill="none" stroke="midnightblue" d="M340.2,-69.01C396.9,-73.06 480.11,-79.01 539.7,-83.26"/>
<polygon fill="midnightblue" stroke="midnightblue" points="539.58,-86.76 549.8,-83.99 540.07,-79.78 539.58,-86.76"/>
</g>
<!-- Node5 -->
<g id="node5" class="node">
<title>Node5</title>
<g id="a_node5"><a xlink:href="classcppgc_1_1internal_1_1PersistentNode.html#a18c4a9bce10409fd47e53cc0cdf8acab" target="_top" xlink:title=" ">
<polygon fill="white" stroke="black" points="376,-26.5 376,-56.5 514,-56.5 514,-26.5 376,-26.5"/>
<text text-anchor="start" x="384" y="-44.5" font-family="Helvetica,sans-Serif" font-size="10.00">cppgc::internal::Persistent</text>
<text text-anchor="middle" x="445" y="-33.5" font-family="Helvetica,sans-Serif" font-size="10.00">Node::InitializeAsUsedNode</text>
</a>
</g>
</g>
<!-- Node2&#45;&gt;Node5 -->
<g id="edge4" class="edge">
<title>Node2&#45;&gt;Node5</title>
<path fill="none" stroke="midnightblue" d="M340.14,-55.8C348.5,-54.65 357.16,-53.46 365.74,-52.28"/>
<polygon fill="midnightblue" stroke="midnightblue" points="366.33,-55.73 375.75,-50.9 365.37,-48.8 366.33,-55.73"/>
</g>
<!-- Node4 -->
<g id="node4" class="node">
<title>Node4</title>
<g id="a_node4"><a xlink:href="classcppgc_1_1internal_1_1PersistentNode.html#a6117a8f66c181bb22827a21b3fbd3457" target="_top" xlink:title=" ">
<polygon fill="white" stroke="black" points="714,-48.5 714,-78.5 842,-78.5 842,-48.5 714,-48.5"/>
<text text-anchor="start" x="722" y="-66.5" font-family="Helvetica,sans-Serif" font-size="10.00">cppgc::internal::Persistent</text>
<text text-anchor="middle" x="778" y="-55.5" font-family="Helvetica,sans-Serif" font-size="10.00">Node::IsUsed</text>
</a>
</g>
</g>
<!-- Node3&#45;&gt;Node4 -->
<g id="edge3" class="edge">
<title>Node3&#45;&gt;Node4</title>
<path fill="none" stroke="midnightblue" d="M678.1,-78.76C686.53,-77.46 695.23,-76.12 703.81,-74.79"/>
<polygon fill="midnightblue" stroke="midnightblue" points="704.46,-78.24 713.81,-73.25 703.39,-71.32 704.46,-78.24"/>
</g>
<!-- Node6 -->
<g id="node6" class="node">
<title>Node6</title>
<g id="a_node6"><a xlink:href="classcppgc_1_1internal_1_1PersistentNode.html#afb99622120d5c6d6eb763d26b244bc5f" target="_top" xlink:title=" ">
<polygon fill="white" stroke="black" points="550,-24.5 550,-54.5 678,-54.5 678,-24.5 550,-24.5"/>
<text text-anchor="start" x="558" y="-42.5" font-family="Helvetica,sans-Serif" font-size="10.00">cppgc::internal::Persistent</text>
<text text-anchor="middle" x="614" y="-31.5" font-family="Helvetica,sans-Serif" font-size="10.00">Node::owner</text>
</a>
</g>
</g>
<!-- Node5&#45;&gt;Node6 -->
<g id="edge5" class="edge">
<title>Node5&#45;&gt;Node6</title>
<path fill="none" stroke="midnightblue" d="M514.41,-40.68C522.73,-40.58 531.26,-40.48 539.66,-40.38"/>
<polygon fill="midnightblue" stroke="midnightblue" points="539.85,-43.88 549.8,-40.26 539.76,-36.88 539.85,-43.88"/>
</g>
<!-- Node6&#45;&gt;Node4 -->
<g id="edge6" class="edge">
<title>Node6&#45;&gt;Node4</title>
<path fill="none" stroke="midnightblue" d="M678.1,-48.85C686.53,-50.1 695.23,-51.39 703.81,-52.66"/>
<polygon fill="midnightblue" stroke="midnightblue" points="703.4,-56.13 713.81,-54.14 704.43,-49.21 703.4,-56.13"/>
</g>
</g>
</svg>
