<?xml version="1.0" encoding="UTF-8" standalone="no"?>
<!DOCTYPE svg PUBLIC "-//W3C//DTD SVG 1.1//EN"
 "http://www.w3.org/Graphics/SVG/1.1/DTD/svg11.dtd">
<!-- Generated by graphviz version 2.44.0 ()
 -->
<!-- Title: cppgc::MakeGarbageCollectedTrait::Call Pages: 1 -->
<svg width="579pt" height="94pt"
 viewBox="0.00 0.00 579.00 93.50" xmlns="http://www.w3.org/2000/svg" xmlns:xlink="http://www.w3.org/1999/xlink">
<g id="graph0" class="graph" transform="scale(1 1) rotate(0) translate(4 89.5)">
<title>cppgc::MakeGarbageCollectedTrait::Call</title>
<polygon fill="white" stroke="transparent" points="-4,4 -4,-89.5 575,-89.5 575,4 -4,4"/>
<!-- Node1 -->
<g id="node1" class="node">
<title>Node1</title>
<g id="a_node1"><a xlink:title=" ">
<polygon fill="#bfbfbf" stroke="black" points="0,-30 0,-60 149,-60 149,-30 0,-30"/>
<text text-anchor="start" x="8" y="-48" font-family="Helvetica,sans-Serif" font-size="10.00">cppgc::MakeGarbageCollected</text>
<text text-anchor="middle" x="74.5" y="-37" font-family="Helvetica,sans-Serif" font-size="10.00">Trait::Call</text>
</a>
</g>
</g>
<!-- Node2 -->
<g id="node2" class="node">
<title>Node2</title>
<g id="a_node2"><a xlink:href="classcppgc_1_1MakeGarbageCollectedTraitBase.html#ab68f8a381088df7c073d8655d733fb98" target="_top" xlink:title=" ">
<polygon fill="white" stroke="black" points="209.5,-55 209.5,-85 358.5,-85 358.5,-55 209.5,-55"/>
<text text-anchor="start" x="217.5" y="-73" font-family="Helvetica,sans-Serif" font-size="10.00">cppgc::MakeGarbageCollected</text>
<text text-anchor="middle" x="284" y="-62" font-family="Helvetica,sans-Serif" font-size="10.00">TraitBase::Allocate</text>
</a>
</g>
</g>
<!-- Node1&#45;&gt;Node2 -->
<g id="edge1" class="edge">
<title>Node1&#45;&gt;Node2</title>
<path fill="none" stroke="midnightblue" d="M149.24,-53.88C165.45,-55.84 182.72,-57.92 199.29,-59.91"/>
<polygon fill="midnightblue" stroke="midnightblue" points="199.15,-63.42 209.5,-61.14 199.99,-56.47 199.15,-63.42"/>
</g>
<!-- Node3 -->
<g id="node3" class="node">
<title>Node3</title>
<g id="a_node3"><a xlink:href="classcppgc_1_1MakeGarbageCollectedTraitBase.html#abf4c708d0ab67598b320f05e5ff0b6e1" target="_top" xlink:title=" ">
<polygon fill="white" stroke="black" points="185,-6 185,-36 383,-36 383,-6 185,-6"/>
<text text-anchor="start" x="193" y="-24" font-family="Helvetica,sans-Serif" font-size="10.00">cppgc::MakeGarbageCollected</text>
<text text-anchor="middle" x="284" y="-13" font-family="Helvetica,sans-Serif" font-size="10.00">TraitBase::MarkObjectAsFullyConstructed</text>
</a>
</g>
</g>
<!-- Node1&#45;&gt;Node3 -->
<g id="edge2" class="edge">
<title>Node1&#45;&gt;Node3</title>
<path fill="none" stroke="midnightblue" d="M149.24,-36.47C157.53,-35.51 166.1,-34.52 174.71,-33.53"/>
<polygon fill="midnightblue" stroke="midnightblue" points="175.29,-36.98 184.82,-32.36 174.48,-30.03 175.29,-36.98"/>
</g>
<!-- Node4 -->
<g id="node4" class="node">
<title>Node4</title>
<g id="a_node4"><a xlink:href="classcppgc_1_1internal_1_1MakeGarbageCollectedTraitInternal.html#af0b49ea167f0710a3d4260bdeed1bf46" target="_top" xlink:title=" ">
<polygon fill="white" stroke="black" points="419,-0.5 419,-41.5 571,-41.5 571,-0.5 419,-0.5"/>
<text text-anchor="start" x="427" y="-29.5" font-family="Helvetica,sans-Serif" font-size="10.00">cppgc::internal::MakeGarbage</text>
<text text-anchor="start" x="427" y="-18.5" font-family="Helvetica,sans-Serif" font-size="10.00">CollectedTraitInternal::</text>
<text text-anchor="middle" x="495" y="-7.5" font-family="Helvetica,sans-Serif" font-size="10.00">MarkObjectAsFullyConstructed</text>
</a>
</g>
</g>
<!-- Node3&#45;&gt;Node4 -->
<g id="edge3" class="edge">
<title>Node3&#45;&gt;Node4</title>
<path fill="none" stroke="midnightblue" d="M383.07,-21C391.59,-21 400.17,-21 408.58,-21"/>
<polygon fill="midnightblue" stroke="midnightblue" points="408.73,-24.5 418.73,-21 408.73,-17.5 408.73,-24.5"/>
</g>
</g>
</svg>
