<?xml version="1.0" encoding="UTF-8" standalone="no"?>
<!DOCTYPE svg PUBLIC "-//W3C//DTD SVG 1.1//EN"
 "http://www.w3.org/Graphics/SVG/1.1/DTD/svg11.dtd">
<!-- Generated by graphviz version 2.44.0 ()
 -->
<!-- Title: v8::StdGlobalValueMap&lt; K, V, Traits &gt; Pages: 1 -->
<svg width="903pt" height="99pt"
 viewBox="0.00 0.00 903.00 98.50" xmlns="http://www.w3.org/2000/svg" xmlns:xlink="http://www.w3.org/1999/xlink">
<g id="graph0" class="graph" transform="scale(1 1) rotate(0) translate(4 94.5)">
<title>v8::StdGlobalValueMap&lt; K, V, Traits &gt;</title>
<polygon fill="white" stroke="transparent" points="-4,4 -4,-94.5 899,-94.5 899,4 -4,4"/>
<!-- Node1 -->
<g id="node1" class="node">
<title>Node1</title>
<g id="a_node1"><a xlink:title=" ">
<polygon fill="#bfbfbf" stroke="black" points="777,-28.5 777,-58.5 895,-58.5 895,-28.5 777,-28.5"/>
<text text-anchor="start" x="785" y="-46.5" font-family="Helvetica,sans-Serif" font-size="10.00">v8::StdGlobalValueMap</text>
<text text-anchor="middle" x="836" y="-35.5" font-family="Helvetica,sans-Serif" font-size="10.00">&lt; K, V, Traits &gt;</text>
</a>
</g>
</g>
<!-- Node2 -->
<g id="node2" class="node">
<title>Node2</title>
<g id="a_node2"><a xlink:href="classv8_1_1GlobalValueMap.html" target="_top" xlink:title=" ">
<polygon fill="white" stroke="black" points="589,-23 589,-64 740,-64 740,-23 589,-23"/>
<text text-anchor="start" x="597" y="-52" font-family="Helvetica,sans-Serif" font-size="10.00">v8::GlobalValueMap</text>
<text text-anchor="start" x="597" y="-41" font-family="Helvetica,sans-Serif" font-size="10.00">&lt; K, V, DefaultGlobalMapTraits</text>
<text text-anchor="middle" x="664.5" y="-30" font-family="Helvetica,sans-Serif" font-size="10.00">&lt; K, V &gt; &gt;</text>
</a>
</g>
</g>
<!-- Node2&#45;&gt;Node1 -->
<g id="edge1" class="edge">
<title>Node2&#45;&gt;Node1</title>
<path fill="none" stroke="midnightblue" d="M750.42,-43.5C759.37,-43.5 768.31,-43.5 776.85,-43.5"/>
<polygon fill="midnightblue" stroke="midnightblue" points="750.34,-40 740.34,-43.5 750.34,-47 750.34,-40"/>
</g>
<!-- Node3 -->
<g id="node3" class="node">
<title>Node3</title>
<g id="a_node3"><a xlink:href="classv8_1_1PersistentValueMapBase.html" target="_top" xlink:title=" ">
<polygon fill="white" stroke="black" points="290,-49 290,-90 441,-90 441,-49 290,-49"/>
<text text-anchor="start" x="298" y="-78" font-family="Helvetica,sans-Serif" font-size="10.00">v8::PersistentValueMapBase</text>
<text text-anchor="start" x="298" y="-67" font-family="Helvetica,sans-Serif" font-size="10.00">&lt; K, V, DefaultGlobalMapTraits</text>
<text text-anchor="middle" x="365.5" y="-56" font-family="Helvetica,sans-Serif" font-size="10.00">&lt; K, V &gt; &gt;</text>
</a>
</g>
</g>
<!-- Node3&#45;&gt;Node2 -->
<g id="edge2" class="edge">
<title>Node3&#45;&gt;Node2</title>
<path fill="none" stroke="midnightblue" d="M451.04,-62.1C494.49,-58.3 546.98,-53.7 588.91,-50.03"/>
<polygon fill="midnightblue" stroke="midnightblue" points="450.72,-58.61 441.06,-62.97 451.33,-65.59 450.72,-58.61"/>
</g>
<!-- Node4 -->
<g id="node4" class="node">
<title>Node4</title>
<g id="a_node4"><a xlink:href="classv8_1_1PersistentValueMapBase.html" target="_top" xlink:title=" ">
<polygon fill="white" stroke="black" points="0,-26.5 0,-56.5 142,-56.5 142,-26.5 0,-26.5"/>
<text text-anchor="start" x="8" y="-44.5" font-family="Helvetica,sans-Serif" font-size="10.00">v8::PersistentValueMapBase</text>
<text text-anchor="middle" x="71" y="-33.5" font-family="Helvetica,sans-Serif" font-size="10.00">&lt; K, V, Traits &gt;</text>
</a>
</g>
</g>
<!-- Node4&#45;&gt;Node3 -->
<g id="edge3" class="edge">
<title>Node4&#45;&gt;Node3</title>
<path fill="none" stroke="orange" stroke-dasharray="5,2" d="M152.2,-49.18C195.18,-53.29 247.8,-58.33 289.9,-62.36"/>
<polygon fill="orange" stroke="orange" points="152.35,-45.68 142.06,-48.21 151.68,-52.64 152.35,-45.68"/>
<text text-anchor="start" x="160" y="-73.5" font-family="Helvetica,sans-Serif" font-size="10.00"> &lt; K, V, DefaultGlobalMap</text>
<text text-anchor="middle" x="216" y="-62.5" font-family="Helvetica,sans-Serif" font-size="10.00">Traits&lt; K, V &gt; &gt;</text>
</g>
<!-- Node5 -->
<g id="node5" class="node">
<title>Node5</title>
<g id="a_node5"><a xlink:href="classv8_1_1GlobalValueMap.html" target="_top" xlink:title=" ">
<polygon fill="white" stroke="black" points="314,-0.5 314,-30.5 417,-30.5 417,-0.5 314,-0.5"/>
<text text-anchor="start" x="322" y="-18.5" font-family="Helvetica,sans-Serif" font-size="10.00">v8::GlobalValueMap</text>
<text text-anchor="middle" x="365.5" y="-7.5" font-family="Helvetica,sans-Serif" font-size="10.00">&lt; K, V, Traits &gt;</text>
</a>
</g>
</g>
<!-- Node4&#45;&gt;Node5 -->
<g id="edge5" class="edge">
<title>Node4&#45;&gt;Node5</title>
<path fill="none" stroke="midnightblue" d="M152.19,-34.37C203.79,-29.79 269.28,-23.96 313.79,-20.01"/>
<polygon fill="midnightblue" stroke="midnightblue" points="151.71,-30.9 142.06,-35.27 152.33,-37.87 151.71,-30.9"/>
</g>
<!-- Node5&#45;&gt;Node2 -->
<g id="edge4" class="edge">
<title>Node5&#45;&gt;Node2</title>
<path fill="none" stroke="orange" stroke-dasharray="5,2" d="M427.15,-16.19C467.94,-17.21 522.85,-19.67 571,-25.5 576.85,-26.21 582.88,-27.07 588.93,-28.04"/>
<polygon fill="orange" stroke="orange" points="427.17,-12.69 417.09,-15.96 427.01,-19.69 427.17,-12.69"/>
<text text-anchor="start" x="459" y="-39.5" font-family="Helvetica,sans-Serif" font-size="10.00"> &lt; K, V, DefaultGlobalMap</text>
<text text-anchor="middle" x="515" y="-28.5" font-family="Helvetica,sans-Serif" font-size="10.00">Traits&lt; K, V &gt; &gt;</text>
</g>
</g>
</svg>
