<?xml version="1.0" encoding="UTF-8" standalone="no"?>
<!DOCTYPE svg PUBLIC "-//W3C//DTD SVG 1.1//EN"
 "http://www.w3.org/Graphics/SVG/1.1/DTD/svg11.dtd">
<!-- Generated by graphviz version 2.44.0 ()
 -->
<!-- Title: cppgc::internal::BasicMember::Get Pages: 1 -->
<svg width="351pt" height="431pt"
 viewBox="0.00 0.00 351.00 431.00" xmlns="http://www.w3.org/2000/svg" xmlns:xlink="http://www.w3.org/1999/xlink">
<g id="graph0" class="graph" transform="scale(1 1) rotate(0) translate(4 427)">
<title>cppgc::internal::BasicMember::Get</title>
<polygon fill="white" stroke="transparent" points="-4,4 -4,-427 347,-427 347,4 -4,4"/>
<!-- Node1 -->
<g id="node1" class="node">
<title>Node1</title>
<g id="a_node1"><a xlink:title=" ">
<polygon fill="#bfbfbf" stroke="black" points="179,-202 179,-221 343,-221 343,-202 179,-202"/>
<text text-anchor="middle" x="261" y="-209" font-family="Helvetica,sans-Serif" font-size="10.00">cppgc::internal::BasicMember::Get</text>
</a>
</g>
</g>
<!-- Node2 -->
<g id="node2" class="node">
<title>Node2</title>
<g id="a_node2"><a xlink:href="classcppgc_1_1internal_1_1BasicMember.html#a04b6b0de171d43db9495b3bf9da05383" target="_top" xlink:title=" ">
<polygon fill="white" stroke="black" points="0,-392.5 0,-422.5 143,-422.5 143,-392.5 0,-392.5"/>
<text text-anchor="start" x="8" y="-410.5" font-family="Helvetica,sans-Serif" font-size="10.00">cppgc::internal::BasicMember</text>
<text text-anchor="middle" x="71.5" y="-399.5" font-family="Helvetica,sans-Serif" font-size="10.00">&lt; K &gt;::BasicMember</text>
</a>
</g>
</g>
<!-- Node1&#45;&gt;Node2 -->
<g id="edge1" class="edge">
<title>Node1&#45;&gt;Node2</title>
<path fill="none" stroke="midnightblue" d="M252.07,-230.47C236.41,-265.71 198.18,-341.48 143,-383.5 138.47,-386.95 133.42,-389.92 128.16,-392.47"/>
<polygon fill="midnightblue" stroke="midnightblue" points="255.29,-231.86 256.05,-221.3 248.86,-229.08 255.29,-231.86"/>
</g>
<!-- Node3 -->
<g id="node3" class="node">
<title>Node3</title>
<g id="a_node3"><a xlink:href="classcppgc_1_1LivenessBroker.html#aee6371e43c399799c9ed0f3b84674cfa" target="_top" xlink:title=" ">
<polygon fill="white" stroke="black" points="13.5,-343.5 13.5,-373.5 129.5,-373.5 129.5,-343.5 13.5,-343.5"/>
<text text-anchor="start" x="21.5" y="-361.5" font-family="Helvetica,sans-Serif" font-size="10.00">cppgc::LivenessBroker</text>
<text text-anchor="middle" x="71.5" y="-350.5" font-family="Helvetica,sans-Serif" font-size="10.00">::IsHeapObjectAlive</text>
</a>
</g>
</g>
<!-- Node1&#45;&gt;Node3 -->
<g id="edge2" class="edge">
<title>Node1&#45;&gt;Node3</title>
<path fill="none" stroke="midnightblue" d="M247.23,-229.72C227.68,-256.33 187.86,-305.8 143,-334.5 137.66,-337.91 131.79,-340.9 125.77,-343.5"/>
<polygon fill="midnightblue" stroke="midnightblue" points="250.27,-231.49 253.27,-221.33 244.59,-227.39 250.27,-231.49"/>
</g>
<!-- Node4 -->
<g id="node4" class="node">
<title>Node4</title>
<g id="a_node4"><a xlink:href="classcppgc_1_1internal_1_1BasicMember.html#aa11d97f26b6d1076c5d38d3cd7aa3642" target="_top" xlink:title=" ">
<polygon fill="white" stroke="black" points="0,-294.5 0,-324.5 143,-324.5 143,-294.5 0,-294.5"/>
<text text-anchor="start" x="8" y="-312.5" font-family="Helvetica,sans-Serif" font-size="10.00">cppgc::internal::BasicMember</text>
<text text-anchor="middle" x="71.5" y="-301.5" font-family="Helvetica,sans-Serif" font-size="10.00">&lt; K &gt;::operator bool</text>
</a>
</g>
</g>
<!-- Node1&#45;&gt;Node4 -->
<g id="edge3" class="edge">
<title>Node1&#45;&gt;Node4</title>
<path fill="none" stroke="midnightblue" d="M238.65,-227.18C215.85,-243.4 178.22,-268.66 143,-285.5 136.23,-288.74 128.92,-291.74 121.64,-294.44"/>
<polygon fill="midnightblue" stroke="midnightblue" points="240.83,-229.92 246.91,-221.24 236.75,-224.24 240.83,-229.92"/>
</g>
<!-- Node5 -->
<g id="node5" class="node">
<title>Node5</title>
<g id="a_node5"><a xlink:href="classcppgc_1_1internal_1_1BasicMember.html#ad581b62049b232e53bd60812295b9e89" target="_top" xlink:title=" ">
<polygon fill="white" stroke="black" points="0,-245.5 0,-275.5 143,-275.5 143,-245.5 0,-245.5"/>
<text text-anchor="start" x="8" y="-263.5" font-family="Helvetica,sans-Serif" font-size="10.00">cppgc::internal::BasicMember</text>
<text text-anchor="middle" x="71.5" y="-252.5" font-family="Helvetica,sans-Serif" font-size="10.00">&lt; V &gt;::operator V*</text>
</a>
</g>
</g>
<!-- Node1&#45;&gt;Node5 -->
<g id="edge4" class="edge">
<title>Node1&#45;&gt;Node5</title>
<path fill="none" stroke="midnightblue" d="M213.69,-223.6C188.41,-230.21 156.89,-238.45 130.04,-245.46"/>
<polygon fill="midnightblue" stroke="midnightblue" points="214.61,-226.98 223.4,-221.06 212.84,-220.21 214.61,-226.98"/>
</g>
<!-- Node6 -->
<g id="node6" class="node">
<title>Node6</title>
<g id="a_node6"><a xlink:href="classcppgc_1_1internal_1_1BasicMember.html#a2ffdbed44f32dbe4b4a37c81bc0d319a" target="_top" xlink:title=" ">
<polygon fill="white" stroke="black" points="0,-196.5 0,-226.5 143,-226.5 143,-196.5 0,-196.5"/>
<text text-anchor="start" x="8" y="-214.5" font-family="Helvetica,sans-Serif" font-size="10.00">cppgc::internal::BasicMember</text>
<text text-anchor="middle" x="71.5" y="-203.5" font-family="Helvetica,sans-Serif" font-size="10.00">&lt; K &gt;::operator*</text>
</a>
</g>
</g>
<!-- Node1&#45;&gt;Node6 -->
<g id="edge5" class="edge">
<title>Node1&#45;&gt;Node6</title>
<path fill="none" stroke="midnightblue" d="M168.78,-211.5C160.18,-211.5 151.55,-211.5 143.18,-211.5"/>
<polygon fill="midnightblue" stroke="midnightblue" points="168.85,-215 178.85,-211.5 168.85,-208 168.85,-215"/>
</g>
<!-- Node7 -->
<g id="node7" class="node">
<title>Node7</title>
<g id="a_node7"><a xlink:href="classcppgc_1_1internal_1_1BasicMember.html#aaf8e4f3c0185a764e3da679e901ee4d2" target="_top" xlink:title=" ">
<polygon fill="white" stroke="black" points="0,-147.5 0,-177.5 143,-177.5 143,-147.5 0,-147.5"/>
<text text-anchor="start" x="8" y="-165.5" font-family="Helvetica,sans-Serif" font-size="10.00">cppgc::internal::BasicMember</text>
<text text-anchor="middle" x="71.5" y="-154.5" font-family="Helvetica,sans-Serif" font-size="10.00">&lt; K &gt;::operator&#45;&gt;</text>
</a>
</g>
</g>
<!-- Node1&#45;&gt;Node7 -->
<g id="edge6" class="edge">
<title>Node1&#45;&gt;Node7</title>
<path fill="none" stroke="midnightblue" d="M213.69,-199.4C188.41,-192.79 156.89,-184.55 130.04,-177.54"/>
<polygon fill="midnightblue" stroke="midnightblue" points="212.84,-202.79 223.4,-201.94 214.61,-196.02 212.84,-202.79"/>
</g>
<!-- Node8 -->
<g id="node8" class="node">
<title>Node8</title>
<g id="a_node8"><a xlink:href="classcppgc_1_1internal_1_1BasicMember.html#af37b4bc0e96e5bbc2e646f6f5da31308" target="_top" xlink:title=" ">
<polygon fill="white" stroke="black" points="0,-98.5 0,-128.5 143,-128.5 143,-98.5 0,-98.5"/>
<text text-anchor="start" x="8" y="-116.5" font-family="Helvetica,sans-Serif" font-size="10.00">cppgc::internal::BasicMember</text>
<text text-anchor="middle" x="71.5" y="-105.5" font-family="Helvetica,sans-Serif" font-size="10.00">&lt; K &gt;::operator=</text>
</a>
</g>
</g>
<!-- Node1&#45;&gt;Node8 -->
<g id="edge7" class="edge">
<title>Node1&#45;&gt;Node8</title>
<path fill="none" stroke="midnightblue" d="M238.58,-196.14C215.71,-180.24 178.03,-155.39 143,-138.5 135.51,-134.89 127.36,-131.52 119.35,-128.5"/>
<polygon fill="midnightblue" stroke="midnightblue" points="236.66,-199.08 246.86,-201.97 240.69,-193.35 236.66,-199.08"/>
</g>
<!-- Node9 -->
<g id="node9" class="node">
<title>Node9</title>
<g id="a_node9"><a xlink:href="classcppgc_1_1internal_1_1BasicMember.html#a63971bb466d9d4a4cf28346f9827d852" target="_top" xlink:title=" ">
<polygon fill="white" stroke="black" points="0,-49.5 0,-79.5 143,-79.5 143,-49.5 0,-49.5"/>
<text text-anchor="start" x="8" y="-67.5" font-family="Helvetica,sans-Serif" font-size="10.00">cppgc::internal::BasicMember</text>
<text text-anchor="middle" x="71.5" y="-56.5" font-family="Helvetica,sans-Serif" font-size="10.00">&lt; K &gt;::Release</text>
</a>
</g>
</g>
<!-- Node1&#45;&gt;Node9 -->
<g id="edge8" class="edge">
<title>Node1&#45;&gt;Node9</title>
<path fill="none" stroke="midnightblue" d="M247.15,-193.51C227.5,-167.21 187.54,-118.27 143,-89.5 137.11,-85.69 130.57,-82.38 123.91,-79.52"/>
<polygon fill="midnightblue" stroke="midnightblue" points="244.49,-195.8 253.23,-201.8 250.13,-191.66 244.49,-195.8"/>
</g>
<!-- Node10 -->
<g id="node10" class="node">
<title>Node10</title>
<g id="a_node10"><a xlink:href="classcppgc_1_1internal_1_1BasicMember.html#a3c3517914f2c32b5e0375915d4cf843f" target="_top" xlink:title=" ">
<polygon fill="white" stroke="black" points="0,-0.5 0,-30.5 143,-30.5 143,-0.5 0,-0.5"/>
<text text-anchor="start" x="8" y="-18.5" font-family="Helvetica,sans-Serif" font-size="10.00">cppgc::internal::BasicMember</text>
<text text-anchor="middle" x="71.5" y="-7.5" font-family="Helvetica,sans-Serif" font-size="10.00">&lt; K &gt;::Swap</text>
</a>
</g>
</g>
<!-- Node1&#45;&gt;Node10 -->
<g id="edge9" class="edge">
<title>Node1&#45;&gt;Node10</title>
<path fill="none" stroke="midnightblue" d="M251.79,-192.25C235.87,-157.13 197.52,-82.44 143,-40.5 138.06,-36.7 132.49,-33.44 126.71,-30.67"/>
<polygon fill="midnightblue" stroke="midnightblue" points="248.76,-194.06 256,-201.8 255.17,-191.23 248.76,-194.06"/>
</g>
</g>
</svg>
