<?xml version="1.0" encoding="UTF-8" standalone="no"?>
<!DOCTYPE svg PUBLIC "-//W3C//DTD SVG 1.1//EN"
 "http://www.w3.org/Graphics/SVG/1.1/DTD/svg11.dtd">
<!-- Generated by graphviz version 2.44.0 ()
 -->
<!-- Title: cppgc::internal::BasicCrossThreadPersistent&lt; T, WeaknessPolicy, LocationPolicy, CheckingPolicy &gt; Pages: 1 -->
<svg width="465pt" height="106pt"
 viewBox="0.00 0.00 464.50 106.00" xmlns="http://www.w3.org/2000/svg" xmlns:xlink="http://www.w3.org/1999/xlink">
<g id="graph0" class="graph" transform="scale(1 1) rotate(0) translate(4 102)">
<title>cppgc::internal::BasicCrossThreadPersistent&lt; T, WeaknessPolicy, LocationPolicy, CheckingPolicy &gt;</title>
<polygon fill="white" stroke="transparent" points="-4,4 -4,-102 460.5,-102 460.5,4 -4,4"/>
<!-- Node1 -->
<g id="node1" class="node">
<title>Node1</title>
<g id="a_node1"><a xlink:title=" ">
<polygon fill="#bfbfbf" stroke="black" points="166.5,-0.5 166.5,-41.5 351.5,-41.5 351.5,-0.5 166.5,-0.5"/>
<text text-anchor="start" x="174.5" y="-29.5" font-family="Helvetica,sans-Serif" font-size="10.00">cppgc::internal::BasicCross</text>
<text text-anchor="start" x="174.5" y="-18.5" font-family="Helvetica,sans-Serif" font-size="10.00">ThreadPersistent&lt; T, WeaknessPolicy,</text>
<text text-anchor="middle" x="259" y="-7.5" font-family="Helvetica,sans-Serif" font-size="10.00"> LocationPolicy, CheckingPolicy &gt;</text>
</a>
</g>
</g>
<!-- Node2 -->
<g id="node2" class="node">
<title>Node2</title>
<g id="a_node2"><a xlink:href="classcppgc_1_1internal_1_1PersistentBase.html" target="_top" xlink:title=" ">
<polygon fill="white" stroke="black" points="0,-78.5 0,-97.5 150,-97.5 150,-78.5 0,-78.5"/>
<text text-anchor="middle" x="75" y="-85.5" font-family="Helvetica,sans-Serif" font-size="10.00">cppgc::internal::PersistentBase</text>
</a>
</g>
</g>
<!-- Node2&#45;&gt;Node1 -->
<g id="edge1" class="edge">
<title>Node2&#45;&gt;Node1</title>
<path fill="none" stroke="midnightblue" d="M109,-74.99C135.45,-65.65 172.69,-52.49 203.44,-41.63"/>
<polygon fill="midnightblue" stroke="midnightblue" points="107.7,-71.74 99.43,-78.37 110.03,-78.34 107.7,-71.74"/>
</g>
<!-- Node3 -->
<g id="node3" class="node">
<title>Node3</title>
<g id="a_node3"><a xlink:title=" ">
<polygon fill="white" stroke="#bfbfbf" points="168,-78.5 168,-97.5 248,-97.5 248,-78.5 168,-78.5"/>
<text text-anchor="middle" x="208" y="-85.5" font-family="Helvetica,sans-Serif" font-size="10.00">LocationPolicy</text>
</a>
</g>
</g>
<!-- Node3&#45;&gt;Node1 -->
<g id="edge2" class="edge">
<title>Node3&#45;&gt;Node1</title>
<path fill="none" stroke="midnightblue" d="M221.13,-70.27C228.01,-61.5 236.48,-50.7 243.67,-41.54"/>
<polygon fill="midnightblue" stroke="midnightblue" points="218.3,-68.21 214.88,-78.23 223.8,-72.53 218.3,-68.21"/>
</g>
<!-- Node4 -->
<g id="node4" class="node">
<title>Node4</title>
<g id="a_node4"><a xlink:title=" ">
<polygon fill="white" stroke="#bfbfbf" points="266.5,-78.5 266.5,-97.5 355.5,-97.5 355.5,-78.5 266.5,-78.5"/>
<text text-anchor="middle" x="311" y="-85.5" font-family="Helvetica,sans-Serif" font-size="10.00">WeaknessPolicy</text>
</a>
</g>
</g>
<!-- Node4&#45;&gt;Node1 -->
<g id="edge3" class="edge">
<title>Node4&#45;&gt;Node1</title>
<path fill="none" stroke="#8b1a1a" d="M297.62,-70.27C290.6,-61.5 281.96,-50.7 274.63,-41.54"/>
<polygon fill="#8b1a1a" stroke="#8b1a1a" points="295.01,-72.61 303.99,-78.23 300.47,-68.24 295.01,-72.61"/>
</g>
<!-- Node5 -->
<g id="node5" class="node">
<title>Node5</title>
<g id="a_node5"><a xlink:title=" ">
<polygon fill="white" stroke="#bfbfbf" points="373.5,-78.5 373.5,-97.5 456.5,-97.5 456.5,-78.5 373.5,-78.5"/>
<text text-anchor="middle" x="415" y="-85.5" font-family="Helvetica,sans-Serif" font-size="10.00">CheckingPolicy</text>
</a>
</g>
</g>
<!-- Node5&#45;&gt;Node1 -->
<g id="edge4" class="edge">
<title>Node5&#45;&gt;Node1</title>
<path fill="none" stroke="#8b1a1a" d="M384.98,-74.49C362.64,-65.18 331.72,-52.3 306.1,-41.63"/>
<polygon fill="#8b1a1a" stroke="#8b1a1a" points="383.71,-77.75 394.28,-78.37 386.4,-71.29 383.71,-77.75"/>
</g>
</g>
</svg>
