<?xml version="1.0" encoding="UTF-8" standalone="no"?>
<!DOCTYPE svg PUBLIC "-//W3C//DTD SVG 1.1//EN"
 "http://www.w3.org/Graphics/SVG/1.1/DTD/svg11.dtd">
<!-- Generated by graphviz version 2.44.0 ()
 -->
<!-- Title: cppgc::internal::BasicCrossThreadPersistent::operator&#45;&gt; Pages: 1 -->
<svg width="482pt" height="39pt"
 viewBox="0.00 0.00 482.00 39.00" xmlns="http://www.w3.org/2000/svg" xmlns:xlink="http://www.w3.org/1999/xlink">
<g id="graph0" class="graph" transform="scale(1 1) rotate(0) translate(4 35)">
<title>cppgc::internal::BasicCrossThreadPersistent::operator&#45;&gt;</title>
<polygon fill="white" stroke="transparent" points="-4,4 -4,-35 478,-35 478,4 -4,4"/>
<!-- Node1 -->
<g id="node1" class="node">
<title>Node1</title>
<g id="a_node1"><a xlink:title=" ">
<polygon fill="#bfbfbf" stroke="black" points="0,-0.5 0,-30.5 140,-30.5 140,-0.5 0,-0.5"/>
<text text-anchor="start" x="8" y="-18.5" font-family="Helvetica,sans-Serif" font-size="10.00">cppgc::internal::BasicCross</text>
<text text-anchor="middle" x="70" y="-7.5" font-family="Helvetica,sans-Serif" font-size="10.00">ThreadPersistent::operator&#45;&gt;</text>
</a>
</g>
</g>
<!-- Node2 -->
<g id="node2" class="node">
<title>Node2</title>
<g id="a_node2"><a xlink:href="classcppgc_1_1internal_1_1BasicCrossThreadPersistent.html#a8df84a9926b1bc95c305c213d14508c9" target="_top" xlink:title=" ">
<polygon fill="white" stroke="black" points="176,-0.5 176,-30.5 310,-30.5 310,-0.5 176,-0.5"/>
<text text-anchor="start" x="184" y="-18.5" font-family="Helvetica,sans-Serif" font-size="10.00">cppgc::internal::BasicCross</text>
<text text-anchor="middle" x="243" y="-7.5" font-family="Helvetica,sans-Serif" font-size="10.00">ThreadPersistent::Get</text>
</a>
</g>
</g>
<!-- Node1&#45;&gt;Node2 -->
<g id="edge1" class="edge">
<title>Node1&#45;&gt;Node2</title>
<path fill="none" stroke="midnightblue" d="M140.06,-15.5C148.43,-15.5 157.02,-15.5 165.48,-15.5"/>
<polygon fill="midnightblue" stroke="midnightblue" points="165.73,-19 175.73,-15.5 165.73,-12 165.73,-19"/>
</g>
<!-- Node3 -->
<g id="node3" class="node">
<title>Node3</title>
<g id="a_node3"><a xlink:href="classcppgc_1_1internal_1_1PersistentBase.html#aa77630a5fd5a70f8391e5e36db76780c" target="_top" xlink:title=" ">
<polygon fill="white" stroke="black" points="346,-0.5 346,-30.5 474,-30.5 474,-0.5 346,-0.5"/>
<text text-anchor="start" x="354" y="-18.5" font-family="Helvetica,sans-Serif" font-size="10.00">cppgc::internal::Persistent</text>
<text text-anchor="middle" x="410" y="-7.5" font-family="Helvetica,sans-Serif" font-size="10.00">Base::GetValue</text>
</a>
</g>
</g>
<!-- Node2&#45;&gt;Node3 -->
<g id="edge2" class="edge">
<title>Node2&#45;&gt;Node3</title>
<path fill="none" stroke="midnightblue" d="M310.16,-15.5C318.51,-15.5 327.09,-15.5 335.55,-15.5"/>
<polygon fill="midnightblue" stroke="midnightblue" points="335.77,-19 345.77,-15.5 335.77,-12 335.77,-19"/>
</g>
</g>
</svg>
