<?xml version="1.0" encoding="UTF-8" standalone="no"?>
<!DOCTYPE svg PUBLIC "-//W3C//DTD SVG 1.1//EN"
 "http://www.w3.org/Graphics/SVG/1.1/DTD/svg11.dtd">
<!-- Generated by graphviz version 2.44.0 ()
 -->
<!-- Title: v8::TracedReferenceBase::IsEmpty Pages: 1 -->
<svg width="321pt" height="176pt"
 viewBox="0.00 0.00 321.00 175.50" xmlns="http://www.w3.org/2000/svg" xmlns:xlink="http://www.w3.org/1999/xlink">
<g id="graph0" class="graph" transform="scale(1 1) rotate(0) translate(4 171.5)">
<title>v8::TracedReferenceBase::IsEmpty</title>
<polygon fill="white" stroke="transparent" points="-4,4 -4,-171.5 317,-171.5 317,4 -4,4"/>
<!-- Node1 -->
<g id="node1" class="node">
<title>Node1</title>
<g id="a_node1"><a xlink:title=" ">
<polygon fill="#bfbfbf" stroke="black" points="185,-73.5 185,-103.5 313,-103.5 313,-73.5 185,-73.5"/>
<text text-anchor="start" x="193" y="-91.5" font-family="Helvetica,sans-Serif" font-size="10.00">v8::TracedReferenceBase</text>
<text text-anchor="middle" x="249" y="-80.5" font-family="Helvetica,sans-Serif" font-size="10.00">::IsEmpty</text>
</a>
</g>
</g>
<!-- Node2 -->
<g id="node2" class="node">
<title>Node2</title>
<g id="a_node2"><a xlink:href="classv8_1_1TracedReferenceBase.html#a7e87dcba911a55d7ca64fe7dd7904e56" target="_top" xlink:title=" ">
<polygon fill="white" stroke="black" points="0,-148 0,-167 149,-167 149,-148 0,-148"/>
<text text-anchor="middle" x="74.5" y="-155" font-family="Helvetica,sans-Serif" font-size="10.00">v8::TracedReferenceBase::Get</text>
</a>
</g>
</g>
<!-- Node1&#45;&gt;Node2 -->
<g id="edge1" class="edge">
<title>Node1&#45;&gt;Node2</title>
<path fill="none" stroke="midnightblue" d="M212.85,-108.58C194.3,-118.57 170.89,-130.25 149,-138.5 139.38,-142.12 128.8,-145.3 118.74,-147.97"/>
<polygon fill="midnightblue" stroke="midnightblue" points="214.72,-111.55 221.81,-103.68 211.36,-105.41 214.72,-111.55"/>
</g>
<!-- Node3 -->
<g id="node3" class="node">
<title>Node3</title>
<g id="a_node3"><a xlink:href="classv8_1_1TracedReferenceBase.html#a50c7297683f3c9864710ceca4aba546a" target="_top" xlink:title=" ">
<polygon fill="white" stroke="black" points="10.5,-98.5 10.5,-128.5 138.5,-128.5 138.5,-98.5 10.5,-98.5"/>
<text text-anchor="start" x="18.5" y="-116.5" font-family="Helvetica,sans-Serif" font-size="10.00">v8::TracedReferenceBase</text>
<text text-anchor="middle" x="74.5" y="-105.5" font-family="Helvetica,sans-Serif" font-size="10.00">::Reset</text>
</a>
</g>
</g>
<!-- Node1&#45;&gt;Node3 -->
<g id="edge2" class="edge">
<title>Node1&#45;&gt;Node3</title>
<path fill="none" stroke="midnightblue" d="M174.78,-99.11C162.79,-100.85 150.46,-102.64 138.75,-104.33"/>
<polygon fill="midnightblue" stroke="midnightblue" points="175.35,-102.57 184.75,-97.67 174.35,-95.64 175.35,-102.57"/>
</g>
<!-- Node4 -->
<g id="node4" class="node">
<title>Node4</title>
<g id="a_node4"><a xlink:href="classv8_1_1TracedReferenceBase.html#a7ea40db9556e49ad7ee4a2dfb235b655" target="_top" xlink:title=" ">
<polygon fill="white" stroke="black" points="10.5,-49.5 10.5,-79.5 138.5,-79.5 138.5,-49.5 10.5,-49.5"/>
<text text-anchor="start" x="18.5" y="-67.5" font-family="Helvetica,sans-Serif" font-size="10.00">v8::TracedReferenceBase</text>
<text text-anchor="middle" x="74.5" y="-56.5" font-family="Helvetica,sans-Serif" font-size="10.00">::SetWrapperClassId</text>
</a>
</g>
</g>
<!-- Node1&#45;&gt;Node4 -->
<g id="edge3" class="edge">
<title>Node1&#45;&gt;Node4</title>
<path fill="none" stroke="midnightblue" d="M174.78,-78.31C162.79,-76.65 150.46,-74.93 138.75,-73.3"/>
<polygon fill="midnightblue" stroke="midnightblue" points="174.36,-81.79 184.75,-79.7 175.32,-74.85 174.36,-81.79"/>
</g>
<!-- Node5 -->
<g id="node5" class="node">
<title>Node5</title>
<g id="a_node5"><a xlink:href="classv8_1_1TracedReferenceBase.html#a0b7354f15b126d889414f603b5a7cb9c" target="_top" xlink:title=" ">
<polygon fill="white" stroke="black" points="10.5,-0.5 10.5,-30.5 138.5,-30.5 138.5,-0.5 10.5,-0.5"/>
<text text-anchor="start" x="18.5" y="-18.5" font-family="Helvetica,sans-Serif" font-size="10.00">v8::TracedReferenceBase</text>
<text text-anchor="middle" x="74.5" y="-7.5" font-family="Helvetica,sans-Serif" font-size="10.00">::WrapperClassId</text>
</a>
</g>
</g>
<!-- Node1&#45;&gt;Node5 -->
<g id="edge4" class="edge">
<title>Node1&#45;&gt;Node5</title>
<path fill="none" stroke="midnightblue" d="M210.26,-68.84C192,-59.68 169.61,-48.97 149,-40.5 140.52,-37.02 131.36,-33.62 122.48,-30.51"/>
<polygon fill="midnightblue" stroke="midnightblue" points="208.9,-72.08 219.4,-73.47 212.06,-65.83 208.9,-72.08"/>
</g>
</g>
</svg>
