<?xml version="1.0" encoding="UTF-8" standalone="no"?>
<!DOCTYPE svg PUBLIC "-//W3C//DTD SVG 1.1//EN"
 "http://www.w3.org/Graphics/SVG/1.1/DTD/svg11.dtd">
<!-- Generated by graphviz version 2.44.0 ()
 -->
<!-- Title: include/cppgc/common.h Pages: 1 -->
<svg width="715pt" height="341pt"
 viewBox="0.00 0.00 715.00 341.00" xmlns="http://www.w3.org/2000/svg" xmlns:xlink="http://www.w3.org/1999/xlink">
<g id="graph0" class="graph" transform="scale(1 1) rotate(0) translate(4 337)">
<title>include/cppgc/common.h</title>
<polygon fill="white" stroke="transparent" points="-4,4 -4,-337 711,-337 711,4 -4,4"/>
<!-- Node1 -->
<g id="node1" class="node">
<title>Node1</title>
<g id="a_node1"><a xlink:title=" ">
<polygon fill="#bfbfbf" stroke="black" points="201,-313.5 201,-332.5 326,-332.5 326,-313.5 201,-313.5"/>
<text text-anchor="middle" x="263.5" y="-320.5" font-family="Helvetica,sans-Serif" font-size="10.00">include/cppgc/common.h</text>
</a>
</g>
</g>
<!-- Node2 -->
<g id="node2" class="node">
<title>Node2</title>
<g id="a_node2"><a xlink:href="heap_8h.html" target="_top" xlink:title=" ">
<polygon fill="white" stroke="black" points="85.5,-257.5 85.5,-276.5 193.5,-276.5 193.5,-257.5 85.5,-257.5"/>
<text text-anchor="middle" x="139.5" y="-264.5" font-family="Helvetica,sans-Serif" font-size="10.00">include/cppgc/heap.h</text>
</a>
</g>
</g>
<!-- Node1&#45;&gt;Node2 -->
<g id="edge1" class="edge">
<title>Node1&#45;&gt;Node2</title>
<path fill="none" stroke="midnightblue" d="M234.49,-309.37C211.27,-299.26 179.34,-285.35 159.06,-276.52"/>
<polygon fill="midnightblue" stroke="midnightblue" points="233.29,-312.66 243.85,-313.44 236.08,-306.24 233.29,-312.66"/>
</g>
<!-- Node10 -->
<g id="node10" class="node">
<title>Node10</title>
<g id="a_node10"><a xlink:href="v8_8h.html" target="_top" xlink:title=" ">
<polygon fill="white" stroke="black" points="408.5,-257.5 408.5,-276.5 476.5,-276.5 476.5,-257.5 408.5,-257.5"/>
<text text-anchor="middle" x="442.5" y="-264.5" font-family="Helvetica,sans-Serif" font-size="10.00">include/v8.h</text>
</a>
</g>
</g>
<!-- Node1&#45;&gt;Node10 -->
<g id="edge12" class="edge">
<title>Node1&#45;&gt;Node10</title>
<path fill="none" stroke="midnightblue" d="M301.83,-310.44C335.58,-300.26 383.95,-285.66 414.27,-276.52"/>
<polygon fill="midnightblue" stroke="midnightblue" points="300.43,-307.2 291.86,-313.44 302.45,-313.91 300.43,-307.2"/>
</g>
<!-- Node3 -->
<g id="node3" class="node">
<title>Node3</title>
<g id="a_node3"><a xlink:href="liveness-broker_8h.html" target="_top" xlink:title=" ">
<polygon fill="white" stroke="black" points="81.5,-190.5 81.5,-220.5 197.5,-220.5 197.5,-190.5 81.5,-190.5"/>
<text text-anchor="start" x="89.5" y="-208.5" font-family="Helvetica,sans-Serif" font-size="10.00">include/cppgc/liveness</text>
<text text-anchor="middle" x="139.5" y="-197.5" font-family="Helvetica,sans-Serif" font-size="10.00">&#45;broker.h</text>
</a>
</g>
</g>
<!-- Node2&#45;&gt;Node3 -->
<g id="edge2" class="edge">
<title>Node2&#45;&gt;Node3</title>
<path fill="none" stroke="midnightblue" d="M139.5,-247.23C139.5,-238.59 139.5,-228.5 139.5,-220.52"/>
<polygon fill="midnightblue" stroke="midnightblue" points="136,-247.48 139.5,-257.48 143,-247.48 136,-247.48"/>
</g>
<!-- Node8 -->
<g id="node8" class="node">
<title>Node8</title>
<g id="a_node8"><a xlink:href="prefinalizer-handler_8h.html" target="_top" xlink:title=" ">
<polygon fill="white" stroke="black" points="0,-123.5 0,-153.5 111,-153.5 111,-123.5 0,-123.5"/>
<text text-anchor="start" x="8" y="-141.5" font-family="Helvetica,sans-Serif" font-size="10.00">include/cppgc/internal</text>
<text text-anchor="middle" x="55.5" y="-130.5" font-family="Helvetica,sans-Serif" font-size="10.00">/prefinalizer&#45;handler.h</text>
</a>
</g>
</g>
<!-- Node2&#45;&gt;Node8 -->
<g id="edge11" class="edge">
<title>Node2&#45;&gt;Node8</title>
<path fill="none" stroke="midnightblue" d="M110.07,-252.79C96.64,-245.31 81.72,-234.69 72.5,-221 58.7,-200.5 55.75,-171.02 55.31,-153.71"/>
<polygon fill="midnightblue" stroke="midnightblue" points="108.55,-255.95 119.03,-257.46 111.78,-249.74 108.55,-255.95"/>
</g>
<!-- Node4 -->
<g id="node4" class="node">
<title>Node4</title>
<g id="a_node4"><a xlink:href="visitor_8h.html" target="_top" xlink:title=" ">
<polygon fill="white" stroke="black" points="382,-129 382,-148 495,-148 495,-129 382,-129"/>
<text text-anchor="middle" x="438.5" y="-136" font-family="Helvetica,sans-Serif" font-size="10.00">include/cppgc/visitor.h</text>
</a>
</g>
</g>
<!-- Node3&#45;&gt;Node4 -->
<g id="edge3" class="edge">
<title>Node3&#45;&gt;Node4</title>
<path fill="none" stroke="midnightblue" d="M207.53,-189.71C266.76,-176.84 350.55,-158.62 399.24,-148.03"/>
<polygon fill="midnightblue" stroke="midnightblue" points="206.53,-186.35 197.5,-191.89 208.02,-193.19 206.53,-186.35"/>
</g>
<!-- Node3&#45;&gt;Node8 -->
<g id="edge8" class="edge">
<title>Node3&#45;&gt;Node8</title>
<path fill="none" stroke="midnightblue" d="M113.22,-184.17C100.38,-174.23 85.24,-162.51 73.69,-153.58"/>
<polygon fill="midnightblue" stroke="midnightblue" points="111.22,-187.04 121.27,-190.4 115.51,-181.51 111.22,-187.04"/>
</g>
<!-- Node9 -->
<g id="node9" class="node">
<title>Node9</title>
<g id="a_node9"><a xlink:href="prefinalizer_8h.html" target="_top" xlink:title=" ">
<polygon fill="white" stroke="black" points="31,-67.5 31,-86.5 164,-86.5 164,-67.5 31,-67.5"/>
<text text-anchor="middle" x="97.5" y="-74.5" font-family="Helvetica,sans-Serif" font-size="10.00">include/cppgc/prefinalizer.h</text>
</a>
</g>
</g>
<!-- Node3&#45;&gt;Node9 -->
<g id="edge10" class="edge">
<title>Node3&#45;&gt;Node9</title>
<path fill="none" stroke="midnightblue" d="M135.02,-180.5C131.61,-164.05 126.34,-141.88 119.5,-123 114.76,-109.92 107.35,-95.61 102.46,-86.72"/>
<polygon fill="midnightblue" stroke="midnightblue" points="131.61,-181.26 136.99,-190.39 138.47,-179.9 131.61,-181.26"/>
</g>
<!-- Node5 -->
<g id="node5" class="node">
<title>Node5</title>
<g id="a_node5"><a xlink:href="persistent_8h.html" target="_top" xlink:title=" ">
<polygon fill="white" stroke="black" points="304.5,-67.5 304.5,-86.5 434.5,-86.5 434.5,-67.5 304.5,-67.5"/>
<text text-anchor="middle" x="369.5" y="-74.5" font-family="Helvetica,sans-Serif" font-size="10.00">include/cppgc/persistent.h</text>
</a>
</g>
</g>
<!-- Node4&#45;&gt;Node5 -->
<g id="edge4" class="edge">
<title>Node4&#45;&gt;Node5</title>
<path fill="none" stroke="midnightblue" d="M420.7,-122.15C407.54,-110.81 390.12,-95.78 379.37,-86.51"/>
<polygon fill="midnightblue" stroke="midnightblue" points="418.76,-125.1 428.61,-128.98 423.33,-119.79 418.76,-125.1"/>
</g>
<!-- Node6 -->
<g id="node6" class="node">
<title>Node6</title>
<g id="a_node6"><a xlink:href="cross-thread-persistent_8h.html" target="_top" xlink:title=" ">
<polygon fill="white" stroke="black" points="363.5,-0.5 363.5,-30.5 467.5,-30.5 467.5,-0.5 363.5,-0.5"/>
<text text-anchor="start" x="371.5" y="-18.5" font-family="Helvetica,sans-Serif" font-size="10.00">include/cppgc/cross</text>
<text text-anchor="middle" x="415.5" y="-7.5" font-family="Helvetica,sans-Serif" font-size="10.00">&#45;thread&#45;persistent.h</text>
</a>
</g>
</g>
<!-- Node4&#45;&gt;Node6 -->
<g id="edge6" class="edge">
<title>Node4&#45;&gt;Node6</title>
<path fill="none" stroke="midnightblue" d="M443.1,-118.53C445.8,-104.17 447.91,-84.06 443.5,-67 440.09,-53.8 432.4,-40.37 425.94,-30.69"/>
<polygon fill="midnightblue" stroke="midnightblue" points="439.6,-118.14 440.91,-128.65 446.44,-119.62 439.6,-118.14"/>
</g>
<!-- Node7 -->
<g id="node7" class="node">
<title>Node7</title>
<g id="a_node7"><a xlink:href="v8-cppgc_8h.html" target="_top" xlink:title=" ">
<polygon fill="white" stroke="black" points="494.5,-67.5 494.5,-86.5 592.5,-86.5 592.5,-67.5 494.5,-67.5"/>
<text text-anchor="middle" x="543.5" y="-74.5" font-family="Helvetica,sans-Serif" font-size="10.00">include/v8&#45;cppgc.h</text>
</a>
</g>
</g>
<!-- Node4&#45;&gt;Node7 -->
<g id="edge7" class="edge">
<title>Node4&#45;&gt;Node7</title>
<path fill="none" stroke="midnightblue" d="M462.5,-123.9C482.8,-112.4 511.26,-96.27 528.48,-86.51"/>
<polygon fill="midnightblue" stroke="midnightblue" points="460.52,-121 453.54,-128.98 463.97,-127.09 460.52,-121"/>
</g>
<!-- Node5&#45;&gt;Node6 -->
<g id="edge5" class="edge">
<title>Node5&#45;&gt;Node6</title>
<path fill="none" stroke="midnightblue" d="M382.23,-59.53C389.28,-50.42 397.94,-39.21 404.66,-30.52"/>
<polygon fill="midnightblue" stroke="midnightblue" points="379.44,-57.42 376.09,-67.48 384.98,-61.7 379.44,-57.42"/>
</g>
<!-- Node8&#45;&gt;Node9 -->
<g id="edge9" class="edge">
<title>Node8&#45;&gt;Node9</title>
<path fill="none" stroke="midnightblue" d="M71.31,-115.1C78.31,-105.19 86.13,-94.11 91.39,-86.66"/>
<polygon fill="midnightblue" stroke="midnightblue" points="68.36,-113.21 65.45,-123.4 74.08,-117.25 68.36,-113.21"/>
</g>
<!-- Node10&#45;&gt;Node7 -->
<g id="edge13" class="edge">
<title>Node10&#45;&gt;Node7</title>
<path fill="none" stroke="midnightblue" d="M486.53,-259.08C509.11,-253.06 534.71,-241.84 548.5,-221 577.02,-177.91 555.89,-110.44 546.97,-86.65"/>
<polygon fill="midnightblue" stroke="midnightblue" points="485.65,-255.69 476.75,-261.43 487.29,-262.5 485.65,-255.69"/>
</g>
<!-- Node11 -->
<g id="node11" class="node">
<title>Node11</title>
<g id="a_node11"><a xlink:href="v8-inspector_8h.html" target="_top" xlink:title=" ">
<polygon fill="white" stroke="black" points="596,-196 596,-215 707,-215 707,-196 596,-196"/>
<text text-anchor="middle" x="651.5" y="-203" font-family="Helvetica,sans-Serif" font-size="10.00">include/v8&#45;inspector.h</text>
</a>
</g>
</g>
<!-- Node10&#45;&gt;Node11 -->
<g id="edge14" class="edge">
<title>Node10&#45;&gt;Node11</title>
<path fill="none" stroke="midnightblue" d="M482.28,-254.68C522.89,-243.11 585.01,-225.43 621.61,-215.01"/>
<polygon fill="midnightblue" stroke="midnightblue" points="481.1,-251.37 472.44,-257.48 483.02,-258.1 481.1,-251.37"/>
</g>
<!-- Node13 -->
<g id="node13" class="node">
<title>Node13</title>
<g id="a_node13"><a xlink:href="v8-metrics_8h.html" target="_top" xlink:title=" ">
<polygon fill="white" stroke="black" points="215.5,-196 215.5,-215 319.5,-215 319.5,-196 215.5,-196"/>
<text text-anchor="middle" x="267.5" y="-203" font-family="Helvetica,sans-Serif" font-size="10.00">include/v8&#45;metrics.h</text>
</a>
</g>
</g>
<!-- Node10&#45;&gt;Node13 -->
<g id="edge16" class="edge">
<title>Node10&#45;&gt;Node13</title>
<path fill="none" stroke="midnightblue" d="M407.89,-254.23C373.87,-242.67 322.78,-225.3 292.53,-215.01"/>
<polygon fill="midnightblue" stroke="midnightblue" points="406.83,-257.57 417.43,-257.48 409.09,-250.94 406.83,-257.57"/>
</g>
<!-- Node14 -->
<g id="node14" class="node">
<title>Node14</title>
<g id="a_node14"><a xlink:href="v8-profiler_8h.html" target="_top" xlink:title=" ">
<polygon fill="white" stroke="black" points="337.5,-196 337.5,-215 437.5,-215 437.5,-196 337.5,-196"/>
<text text-anchor="middle" x="387.5" y="-203" font-family="Helvetica,sans-Serif" font-size="10.00">include/v8&#45;profiler.h</text>
</a>
</g>
</g>
<!-- Node10&#45;&gt;Node14 -->
<g id="edge17" class="edge">
<title>Node10&#45;&gt;Node14</title>
<path fill="none" stroke="midnightblue" d="M427.71,-250C417.3,-238.74 403.77,-224.1 395.37,-215.01"/>
<polygon fill="midnightblue" stroke="midnightblue" points="425.26,-252.51 434.62,-257.48 430.4,-247.76 425.26,-252.51"/>
</g>
<!-- Node15 -->
<g id="node15" class="node">
<title>Node15</title>
<g id="a_node15"><a xlink:href="v8-util_8h.html" target="_top" xlink:title=" ">
<polygon fill="white" stroke="black" points="455.5,-196 455.5,-215 539.5,-215 539.5,-196 455.5,-196"/>
<text text-anchor="middle" x="497.5" y="-203" font-family="Helvetica,sans-Serif" font-size="10.00">include/v8&#45;util.h</text>
</a>
</g>
</g>
<!-- Node10&#45;&gt;Node15 -->
<g id="edge18" class="edge">
<title>Node10&#45;&gt;Node15</title>
<path fill="none" stroke="midnightblue" d="M457.29,-250C467.7,-238.74 481.23,-224.1 489.63,-215.01"/>
<polygon fill="midnightblue" stroke="midnightblue" points="454.6,-247.76 450.38,-257.48 459.74,-252.51 454.6,-247.76"/>
</g>
<!-- Node12 -->
<g id="node12" class="node">
<title>Node12</title>
<g id="a_node12"><a xlink:href="v8-inspector-protocol_8h.html" target="_top" xlink:title=" ">
<polygon fill="white" stroke="black" points="599.5,-123.5 599.5,-153.5 703.5,-153.5 703.5,-123.5 599.5,-123.5"/>
<text text-anchor="start" x="607.5" y="-141.5" font-family="Helvetica,sans-Serif" font-size="10.00">include/v8&#45;inspector</text>
<text text-anchor="middle" x="651.5" y="-130.5" font-family="Helvetica,sans-Serif" font-size="10.00">&#45;protocol.h</text>
</a>
</g>
</g>
<!-- Node11&#45;&gt;Node12 -->
<g id="edge15" class="edge">
<title>Node11&#45;&gt;Node12</title>
<path fill="none" stroke="midnightblue" d="M651.5,-185.41C651.5,-175.22 651.5,-162.9 651.5,-153.59"/>
<polygon fill="midnightblue" stroke="midnightblue" points="648,-185.73 651.5,-195.73 655,-185.73 648,-185.73"/>
</g>
</g>
</svg>
