<?xml version="1.0" encoding="UTF-8" standalone="no"?>
<!DOCTYPE svg PUBLIC "-//W3C//DTD SVG 1.1//EN"
 "http://www.w3.org/Graphics/SVG/1.1/DTD/svg11.dtd">
<!-- Generated by graphviz version 2.44.0 ()
 -->
<!-- Title: include/cppgc/cross&#45;thread&#45;persistent.h Pages: 1 -->
<svg width="1318pt" height="598pt"
 viewBox="0.00 0.00 1318.00 598.00" xmlns="http://www.w3.org/2000/svg" xmlns:xlink="http://www.w3.org/1999/xlink">
<g id="graph0" class="graph" transform="scale(1 1) rotate(0) translate(4 594)">
<title>include/cppgc/cross&#45;thread&#45;persistent.h</title>
<polygon fill="white" stroke="transparent" points="-4,4 -4,-594 1314,-594 1314,4 -4,4"/>
<!-- Node1 -->
<g id="node1" class="node">
<title>Node1</title>
<g id="a_node1"><a xlink:title=" ">
<polygon fill="#bfbfbf" stroke="black" points="614,-559.5 614,-589.5 718,-589.5 718,-559.5 614,-559.5"/>
<text text-anchor="start" x="622" y="-577.5" font-family="Helvetica,sans-Serif" font-size="10.00">include/cppgc/cross</text>
<text text-anchor="middle" x="666" y="-566.5" font-family="Helvetica,sans-Serif" font-size="10.00">&#45;thread&#45;persistent.h</text>
</a>
</g>
</g>
<!-- Node2 -->
<g id="node2" class="node">
<title>Node2</title>
<g id="a_node2"><a xlink:title=" ">
<polygon fill="white" stroke="#bfbfbf" points="965,-0.5 965,-19.5 1011,-19.5 1011,-0.5 965,-0.5"/>
<text text-anchor="middle" x="988" y="-7.5" font-family="Helvetica,sans-Serif" font-size="10.00">atomic</text>
</a>
</g>
</g>
<!-- Node1&#45;&gt;Node2 -->
<g id="edge1" class="edge">
<title>Node1&#45;&gt;Node2</title>
<path fill="none" stroke="midnightblue" d="M613.74,-569.95C456.74,-558.59 0,-520.2 0,-458 0,-458 0,-458 0,-137.5 0,-90.04 26.44,-77.01 69,-56 149.6,-16.21 798.98,-11.6 954.58,-11.07"/>
<polygon fill="midnightblue" stroke="midnightblue" points="954.93,-14.57 964.92,-11.04 954.91,-7.57 954.93,-14.57"/>
</g>
<!-- Node3 -->
<g id="node3" class="node">
<title>Node3</title>
<g id="a_node3"><a xlink:href="persistent-node_8h.html" target="_top" xlink:title=" ">
<polygon fill="white" stroke="black" points="205.5,-380.5 205.5,-410.5 328.5,-410.5 328.5,-380.5 205.5,-380.5"/>
<text text-anchor="start" x="213.5" y="-398.5" font-family="Helvetica,sans-Serif" font-size="10.00">cppgc/internal/persistent</text>
<text text-anchor="middle" x="267" y="-387.5" font-family="Helvetica,sans-Serif" font-size="10.00">&#45;node.h</text>
</a>
</g>
</g>
<!-- Node1&#45;&gt;Node3 -->
<g id="edge2" class="edge">
<title>Node1&#45;&gt;Node3</title>
<path fill="none" stroke="midnightblue" d="M634.36,-559.46C562.62,-527.64 387.69,-450.04 307.89,-414.64"/>
<polygon fill="midnightblue" stroke="midnightblue" points="309.21,-411.39 298.65,-410.54 306.37,-417.79 309.21,-411.39"/>
</g>
<!-- Node14 -->
<g id="node14" class="node">
<title>Node14</title>
<g id="a_node14"><a xlink:href="pointer-policies_8h.html" target="_top" xlink:title=" ">
<polygon fill="white" stroke="black" points="1112,-257.5 1112,-287.5 1222,-287.5 1222,-257.5 1112,-257.5"/>
<text text-anchor="start" x="1120" y="-275.5" font-family="Helvetica,sans-Serif" font-size="10.00">cppgc/internal/pointer</text>
<text text-anchor="middle" x="1167" y="-264.5" font-family="Helvetica,sans-Serif" font-size="10.00">&#45;policies.h</text>
</a>
</g>
</g>
<!-- Node1&#45;&gt;Node14 -->
<g id="edge17" class="edge">
<title>Node1&#45;&gt;Node14</title>
<path fill="none" stroke="midnightblue" d="M718.19,-569.05C865.19,-555.83 1272,-514.16 1272,-458 1272,-458 1272,-458 1272,-394.5 1272,-350.2 1231.35,-314.18 1200.64,-293.29"/>
<polygon fill="midnightblue" stroke="midnightblue" points="1202.17,-290.11 1191.88,-287.56 1198.33,-295.96 1202.17,-290.11"/>
</g>
<!-- Node22 -->
<g id="node22" class="node">
<title>Node22</title>
<g id="a_node22"><a xlink:href="persistent_8h.html" target="_top" xlink:title=" ">
<polygon fill="white" stroke="black" points="817,-503.5 817,-522.5 913,-522.5 913,-503.5 817,-503.5"/>
<text text-anchor="middle" x="865" y="-510.5" font-family="Helvetica,sans-Serif" font-size="10.00">cppgc/persistent.h</text>
</a>
</g>
</g>
<!-- Node1&#45;&gt;Node22 -->
<g id="edge32" class="edge">
<title>Node1&#45;&gt;Node22</title>
<path fill="none" stroke="midnightblue" d="M712.91,-559.47C747.69,-549.08 794.5,-535.08 826.97,-525.37"/>
<polygon fill="midnightblue" stroke="midnightblue" points="827.97,-528.72 836.55,-522.51 825.97,-522.02 827.97,-528.72"/>
</g>
<!-- Node23 -->
<g id="node23" class="node">
<title>Node23</title>
<g id="a_node23"><a xlink:href="visitor_8h.html" target="_top" xlink:title=" ">
<polygon fill="white" stroke="black" points="626,-447.5 626,-466.5 706,-466.5 706,-447.5 626,-447.5"/>
<text text-anchor="middle" x="666" y="-454.5" font-family="Helvetica,sans-Serif" font-size="10.00">cppgc/visitor.h</text>
</a>
</g>
</g>
<!-- Node1&#45;&gt;Node23 -->
<g id="edge82" class="edge">
<title>Node1&#45;&gt;Node23</title>
<path fill="none" stroke="midnightblue" d="M666,-559.34C666,-538.62 666,-500.02 666,-476.9"/>
<polygon fill="midnightblue" stroke="midnightblue" points="669.5,-476.67 666,-466.67 662.5,-476.67 669.5,-476.67"/>
</g>
<!-- Node4 -->
<g id="node4" class="node">
<title>Node4</title>
<g id="a_node4"><a xlink:title=" ">
<polygon fill="white" stroke="#bfbfbf" points="205,-324.5 205,-343.5 243,-343.5 243,-324.5 205,-324.5"/>
<text text-anchor="middle" x="224" y="-331.5" font-family="Helvetica,sans-Serif" font-size="10.00">array</text>
</a>
</g>
</g>
<!-- Node3&#45;&gt;Node4 -->
<g id="edge3" class="edge">
<title>Node3&#45;&gt;Node4</title>
<path fill="none" stroke="midnightblue" d="M256.81,-380.4C250.63,-371.84 242.7,-360.87 236.18,-351.86"/>
<polygon fill="midnightblue" stroke="midnightblue" points="238.95,-349.71 230.26,-343.66 233.28,-353.81 238.95,-349.71"/>
</g>
<!-- Node5 -->
<g id="node5" class="node">
<title>Node5</title>
<g id="a_node5"><a xlink:title=" ">
<polygon fill="white" stroke="#bfbfbf" points="78.5,-62 78.5,-81 129.5,-81 129.5,-62 78.5,-62"/>
<text text-anchor="middle" x="104" y="-69" font-family="Helvetica,sans-Serif" font-size="10.00">memory</text>
</a>
</g>
</g>
<!-- Node3&#45;&gt;Node5 -->
<g id="edge4" class="edge">
<title>Node3&#45;&gt;Node5</title>
<path fill="none" stroke="midnightblue" d="M235.45,-380.42C185.77,-356.22 91.44,-301.43 57,-221 37.2,-174.77 70.97,-117.34 90.93,-89.38"/>
<polygon fill="midnightblue" stroke="midnightblue" points="93.93,-91.2 97.07,-81.08 88.31,-87.04 93.93,-91.2"/>
</g>
<!-- Node6 -->
<g id="node6" class="node">
<title>Node6</title>
<g id="a_node6"><a xlink:title=" ">
<polygon fill="white" stroke="#bfbfbf" points="199,-196 199,-215 243,-215 243,-196 199,-196"/>
<text text-anchor="middle" x="221" y="-203" font-family="Helvetica,sans-Serif" font-size="10.00">vector</text>
</a>
</g>
</g>
<!-- Node3&#45;&gt;Node6 -->
<g id="edge5" class="edge">
<title>Node3&#45;&gt;Node6</title>
<path fill="none" stroke="midnightblue" d="M234.85,-380.34C220.17,-372.03 204.25,-360 196,-344 175.68,-304.61 197.09,-251.43 211.02,-224.19"/>
<polygon fill="midnightblue" stroke="midnightblue" points="214.25,-225.57 215.89,-215.1 208.08,-222.26 214.25,-225.57"/>
</g>
<!-- Node7 -->
<g id="node7" class="node">
<title>Node7</title>
<g id="a_node7"><a xlink:href="logging_8h.html" target="_top" xlink:title=" ">
<polygon fill="white" stroke="black" points="854.5,-324.5 854.5,-343.5 973.5,-343.5 973.5,-324.5 854.5,-324.5"/>
<text text-anchor="middle" x="914" y="-331.5" font-family="Helvetica,sans-Serif" font-size="10.00">cppgc/internal/logging.h</text>
</a>
</g>
</g>
<!-- Node3&#45;&gt;Node7 -->
<g id="edge6" class="edge">
<title>Node3&#45;&gt;Node7</title>
<path fill="none" stroke="midnightblue" d="M328.87,-381.37C331.95,-380.87 335.01,-380.41 338,-380 558.97,-349.74 619.06,-366.36 844.17,-344.13"/>
<polygon fill="midnightblue" stroke="midnightblue" points="844.72,-347.59 854.32,-343.11 844.02,-340.62 844.72,-347.59"/>
</g>
<!-- Node10 -->
<g id="node10" class="node">
<title>Node10</title>
<g id="a_node10"><a xlink:href="v8config_8h.html" target="_top" xlink:title=" ">
<polygon fill="white" stroke="black" points="651,-62 651,-81 711,-81 711,-62 651,-62"/>
<text text-anchor="middle" x="681" y="-69" font-family="Helvetica,sans-Serif" font-size="10.00">v8config.h</text>
</a>
</g>
</g>
<!-- Node3&#45;&gt;Node10 -->
<g id="edge16" class="edge">
<title>Node3&#45;&gt;Node10</title>
<path fill="none" stroke="midnightblue" d="M269.9,-380.19C280.27,-333.26 320.25,-183.62 419,-123 488.39,-80.4 586.02,-72.49 640.39,-71.72"/>
<polygon fill="midnightblue" stroke="midnightblue" points="640.69,-75.22 650.66,-71.65 640.64,-68.22 640.69,-75.22"/>
</g>
<!-- Node11 -->
<g id="node11" class="node">
<title>Node11</title>
<g id="a_node11"><a xlink:href="trace-trait_8h.html" target="_top" xlink:title=" ">
<polygon fill="white" stroke="black" points="481.5,-324.5 481.5,-343.5 576.5,-343.5 576.5,-324.5 481.5,-324.5"/>
<text text-anchor="middle" x="529" y="-331.5" font-family="Helvetica,sans-Serif" font-size="10.00">cppgc/trace&#45;trait.h</text>
</a>
</g>
</g>
<!-- Node3&#45;&gt;Node11 -->
<g id="edge11" class="edge">
<title>Node3&#45;&gt;Node11</title>
<path fill="none" stroke="midnightblue" d="M328.76,-380.47C375.54,-369.85 438.85,-355.47 481.66,-345.75"/>
<polygon fill="midnightblue" stroke="midnightblue" points="482.57,-349.13 491.54,-343.51 481.02,-342.31 482.57,-349.13"/>
</g>
<!-- Node8 -->
<g id="node8" class="node">
<title>Node8</title>
<g id="a_node8"><a xlink:href="source-location_8h.html" target="_top" xlink:title=" ">
<polygon fill="white" stroke="black" points="940.5,-196 940.5,-215 1059.5,-215 1059.5,-196 940.5,-196"/>
<text text-anchor="middle" x="1000" y="-203" font-family="Helvetica,sans-Serif" font-size="10.00">cppgc/source&#45;location.h</text>
</a>
</g>
</g>
<!-- Node7&#45;&gt;Node8 -->
<g id="edge7" class="edge">
<title>Node7&#45;&gt;Node8</title>
<path fill="none" stroke="midnightblue" d="M920.22,-324.43C926.73,-315.42 937.21,-300.8 946,-288 961.1,-266.01 978.01,-240.3 988.82,-223.73"/>
<polygon fill="midnightblue" stroke="midnightblue" points="991.9,-225.42 994.42,-215.13 986.03,-221.6 991.9,-225.42"/>
</g>
<!-- Node7&#45;&gt;Node10 -->
<g id="edge10" class="edge">
<title>Node7&#45;&gt;Node10</title>
<path fill="none" stroke="midnightblue" d="M910.38,-324.14C904.21,-309.5 890.77,-279.64 875,-257 828.8,-190.66 812.61,-176.5 752,-123 736.74,-109.53 717.91,-96.27 703.48,-86.72"/>
<polygon fill="midnightblue" stroke="midnightblue" points="705,-83.54 694.71,-81.02 701.19,-89.41 705,-83.54"/>
</g>
<!-- Node9 -->
<g id="node9" class="node">
<title>Node9</title>
<g id="a_node9"><a xlink:title=" ">
<polygon fill="white" stroke="#bfbfbf" points="447.5,-62 447.5,-81 488.5,-81 488.5,-62 447.5,-62"/>
<text text-anchor="middle" x="468" y="-69" font-family="Helvetica,sans-Serif" font-size="10.00">string</text>
</a>
</g>
</g>
<!-- Node8&#45;&gt;Node9 -->
<g id="edge8" class="edge">
<title>Node8&#45;&gt;Node9</title>
<path fill="none" stroke="midnightblue" d="M965.5,-195.94C867.95,-171.74 591.19,-103.07 498.6,-80.09"/>
<polygon fill="midnightblue" stroke="midnightblue" points="499.29,-76.66 488.74,-77.65 497.6,-83.45 499.29,-76.66"/>
</g>
<!-- Node8&#45;&gt;Node10 -->
<g id="edge9" class="edge">
<title>Node8&#45;&gt;Node10</title>
<path fill="none" stroke="midnightblue" d="M989.4,-195.96C965.9,-177.17 909.82,-133.12 888,-123 833.12,-97.56 763.9,-84.01 721.04,-77.55"/>
<polygon fill="midnightblue" stroke="midnightblue" points="721.4,-74.06 711,-76.09 720.39,-80.99 721.4,-74.06"/>
</g>
<!-- Node11&#45;&gt;Node10 -->
<g id="edge15" class="edge">
<title>Node11&#45;&gt;Node10</title>
<path fill="none" stroke="midnightblue" d="M533.98,-324.08C541.93,-309.85 558.04,-281.15 572,-257 607.61,-195.41 650.84,-122.89 670.43,-90.13"/>
<polygon fill="midnightblue" stroke="midnightblue" points="673.59,-91.68 675.72,-81.3 667.58,-88.08 673.59,-91.68"/>
</g>
<!-- Node12 -->
<g id="node12" class="node">
<title>Node12</title>
<g id="a_node12"><a xlink:title=" ">
<polygon fill="white" stroke="#bfbfbf" points="698,-196 698,-215 760,-215 760,-196 698,-196"/>
<text text-anchor="middle" x="729" y="-203" font-family="Helvetica,sans-Serif" font-size="10.00">type_traits</text>
</a>
</g>
</g>
<!-- Node11&#45;&gt;Node12 -->
<g id="edge12" class="edge">
<title>Node11&#45;&gt;Node12</title>
<path fill="none" stroke="midnightblue" d="M537.56,-324.08C552.55,-308.83 585.01,-277.41 617,-257 641.75,-241.21 672.26,-227.8 695.18,-218.78"/>
<polygon fill="midnightblue" stroke="midnightblue" points="696.74,-221.93 704.82,-215.07 694.23,-215.39 696.74,-221.93"/>
</g>
<!-- Node13 -->
<g id="node13" class="node">
<title>Node13</title>
<g id="a_node13"><a xlink:href="type-traits_8h.html" target="_top" xlink:title=" ">
<polygon fill="white" stroke="black" points="626,-263 626,-282 722,-282 722,-263 626,-263"/>
<text text-anchor="middle" x="674" y="-270" font-family="Helvetica,sans-Serif" font-size="10.00">cppgc/type&#45;traits.h</text>
</a>
</g>
</g>
<!-- Node11&#45;&gt;Node13 -->
<g id="edge13" class="edge">
<title>Node11&#45;&gt;Node13</title>
<path fill="none" stroke="midnightblue" d="M549.77,-324.48C574.43,-314.36 615.75,-297.4 643.9,-285.85"/>
<polygon fill="midnightblue" stroke="midnightblue" points="645.34,-289.04 653.26,-282.01 642.68,-282.57 645.34,-289.04"/>
</g>
<!-- Node13&#45;&gt;Node12 -->
<g id="edge14" class="edge">
<title>Node13&#45;&gt;Node12</title>
<path fill="none" stroke="midnightblue" d="M681.42,-262.73C689.99,-252.6 704.3,-235.69 714.99,-223.06"/>
<polygon fill="midnightblue" stroke="midnightblue" points="717.91,-225.02 721.7,-215.13 712.57,-220.5 717.91,-225.02"/>
</g>
<!-- Node14&#45;&gt;Node8 -->
<g id="edge30" class="edge">
<title>Node14&#45;&gt;Node8</title>
<path fill="none" stroke="midnightblue" d="M1130.76,-257.4C1101.07,-245.84 1059.49,-229.66 1031.25,-218.66"/>
<polygon fill="midnightblue" stroke="midnightblue" points="1032.44,-215.37 1021.86,-215.01 1029.91,-221.9 1032.44,-215.37"/>
</g>
<!-- Node14&#45;&gt;Node10 -->
<g id="edge31" class="edge">
<title>Node14&#45;&gt;Node10</title>
<path fill="none" stroke="midnightblue" d="M1150.63,-257.33C1125.13,-235.34 1077.92,-195.01 1069,-190 1025.99,-165.83 1007.42,-177.43 964,-154 944.21,-143.32 944.42,-132.42 924,-123 856.97,-92.09 770.83,-79.93 721.18,-75.27"/>
<polygon fill="midnightblue" stroke="midnightblue" points="721.42,-71.78 711.15,-74.39 720.81,-78.76 721.42,-71.78"/>
</g>
<!-- Node14&#45;&gt;Node12 -->
<g id="edge19" class="edge">
<title>Node14&#45;&gt;Node12</title>
<path fill="none" stroke="midnightblue" d="M1111.97,-263.33C1023.03,-250.13 849.65,-224.4 770.36,-212.64"/>
<polygon fill="midnightblue" stroke="midnightblue" points="770.67,-209.15 760.27,-211.14 769.65,-216.07 770.67,-209.15"/>
</g>
<!-- Node15 -->
<g id="node15" class="node">
<title>Node15</title>
<g id="a_node15"><a xlink:title=" ">
<polygon fill="white" stroke="#bfbfbf" points="1236,-196 1236,-215 1282,-215 1282,-196 1236,-196"/>
<text text-anchor="middle" x="1259" y="-203" font-family="Helvetica,sans-Serif" font-size="10.00">cstdint</text>
</a>
</g>
</g>
<!-- Node14&#45;&gt;Node15 -->
<g id="edge18" class="edge">
<title>Node14&#45;&gt;Node15</title>
<path fill="none" stroke="midnightblue" d="M1186.96,-257.4C1202.25,-246.6 1223.25,-231.76 1238.64,-220.89"/>
<polygon fill="midnightblue" stroke="midnightblue" points="1240.81,-223.64 1246.96,-215.01 1236.77,-217.92 1240.81,-223.64"/>
</g>
<!-- Node16 -->
<g id="node16" class="node">
<title>Node16</title>
<g id="a_node16"><a xlink:href="write-barrier_8h.html" target="_top" xlink:title=" ">
<polygon fill="white" stroke="black" points="1116.5,-190.5 1116.5,-220.5 1217.5,-220.5 1217.5,-190.5 1116.5,-190.5"/>
<text text-anchor="start" x="1124.5" y="-208.5" font-family="Helvetica,sans-Serif" font-size="10.00">cppgc/internal/write</text>
<text text-anchor="middle" x="1167" y="-197.5" font-family="Helvetica,sans-Serif" font-size="10.00">&#45;barrier.h</text>
</a>
</g>
</g>
<!-- Node14&#45;&gt;Node16 -->
<g id="edge20" class="edge">
<title>Node14&#45;&gt;Node16</title>
<path fill="none" stroke="midnightblue" d="M1167,-257.4C1167,-249.64 1167,-239.81 1167,-230.86"/>
<polygon fill="midnightblue" stroke="midnightblue" points="1170.5,-230.58 1167,-220.58 1163.5,-230.58 1170.5,-230.58"/>
</g>
<!-- Node16&#45;&gt;Node10 -->
<g id="edge29" class="edge">
<title>Node16&#45;&gt;Node10</title>
<path fill="none" stroke="midnightblue" d="M1133.14,-190.47C1079.91,-168.47 980.93,-127.85 964,-123 879.27,-98.71 776.75,-83.9 721.32,-77.05"/>
<polygon fill="midnightblue" stroke="midnightblue" points="721.55,-73.55 711.2,-75.82 720.71,-80.5 721.55,-73.55"/>
</g>
<!-- Node17 -->
<g id="node17" class="node">
<title>Node17</title>
<g id="a_node17"><a xlink:href="api-constants_8h.html" target="_top" xlink:title=" ">
<polygon fill="white" stroke="black" points="259.5,-123.5 259.5,-153.5 352.5,-153.5 352.5,-123.5 259.5,-123.5"/>
<text text-anchor="start" x="267.5" y="-141.5" font-family="Helvetica,sans-Serif" font-size="10.00">cppgc/internal/api</text>
<text text-anchor="middle" x="306" y="-130.5" font-family="Helvetica,sans-Serif" font-size="10.00">&#45;constants.h</text>
</a>
</g>
</g>
<!-- Node16&#45;&gt;Node17 -->
<g id="edge21" class="edge">
<title>Node16&#45;&gt;Node17</title>
<path fill="none" stroke="midnightblue" d="M1116.5,-196.14C1101.27,-193.86 1084.48,-191.58 1069,-190 790,-161.45 718.5,-177.21 439,-154 414,-151.92 386.42,-149.02 362.88,-146.35"/>
<polygon fill="midnightblue" stroke="midnightblue" points="363.06,-142.85 352.72,-145.19 362.26,-149.8 363.06,-142.85"/>
</g>
<!-- Node20 -->
<g id="node20" class="node">
<title>Node20</title>
<g id="a_node20"><a xlink:href="process-heap_8h.html" target="_top" xlink:title=" ">
<polygon fill="white" stroke="black" points="1054.5,-123.5 1054.5,-153.5 1169.5,-153.5 1169.5,-123.5 1054.5,-123.5"/>
<text text-anchor="start" x="1062.5" y="-141.5" font-family="Helvetica,sans-Serif" font-size="10.00">cppgc/internal/process</text>
<text text-anchor="middle" x="1112" y="-130.5" font-family="Helvetica,sans-Serif" font-size="10.00">&#45;heap.h</text>
</a>
</g>
</g>
<!-- Node16&#45;&gt;Node20 -->
<g id="edge25" class="edge">
<title>Node16&#45;&gt;Node20</title>
<path fill="none" stroke="midnightblue" d="M1155.07,-190.4C1147.86,-181.88 1138.52,-170.85 1130.39,-161.23"/>
<polygon fill="midnightblue" stroke="midnightblue" points="1133.04,-158.95 1123.91,-153.58 1127.7,-163.47 1133.04,-158.95"/>
</g>
<!-- Node17&#45;&gt;Node10 -->
<g id="edge24" class="edge">
<title>Node17&#45;&gt;Node10</title>
<path fill="none" stroke="midnightblue" d="M352.55,-126.06C357.42,-124.98 362.3,-123.93 367,-123 464.83,-103.53 580.95,-86.39 640.83,-77.99"/>
<polygon fill="midnightblue" stroke="midnightblue" points="641.57,-81.42 650.99,-76.57 640.61,-74.49 641.57,-81.42"/>
</g>
<!-- Node18 -->
<g id="node18" class="node">
<title>Node18</title>
<g id="a_node18"><a xlink:title=" ">
<polygon fill="white" stroke="#bfbfbf" points="147.5,-62 147.5,-81 198.5,-81 198.5,-62 147.5,-62"/>
<text text-anchor="middle" x="173" y="-69" font-family="Helvetica,sans-Serif" font-size="10.00">stddef.h</text>
</a>
</g>
</g>
<!-- Node17&#45;&gt;Node18 -->
<g id="edge22" class="edge">
<title>Node17&#45;&gt;Node18</title>
<path fill="none" stroke="midnightblue" d="M277.14,-123.4C254.11,-112.14 222.11,-96.5 199.68,-85.54"/>
<polygon fill="midnightblue" stroke="midnightblue" points="200.93,-82.25 190.41,-81.01 197.85,-88.54 200.93,-82.25"/>
</g>
<!-- Node19 -->
<g id="node19" class="node">
<title>Node19</title>
<g id="a_node19"><a xlink:title=" ">
<polygon fill="white" stroke="#bfbfbf" points="282,-62 282,-81 330,-81 330,-62 282,-62"/>
<text text-anchor="middle" x="306" y="-69" font-family="Helvetica,sans-Serif" font-size="10.00">stdint.h</text>
</a>
</g>
</g>
<!-- Node17&#45;&gt;Node19 -->
<g id="edge23" class="edge">
<title>Node17&#45;&gt;Node19</title>
<path fill="none" stroke="midnightblue" d="M306,-123.4C306,-114.06 306,-101.71 306,-91.52"/>
<polygon fill="midnightblue" stroke="midnightblue" points="309.5,-91.19 306,-81.19 302.5,-91.19 309.5,-91.19"/>
</g>
<!-- Node20&#45;&gt;Node10 -->
<g id="edge28" class="edge">
<title>Node20&#45;&gt;Node10</title>
<path fill="none" stroke="midnightblue" d="M1054.29,-125.57C1049.46,-124.66 1044.65,-123.79 1040,-123 924.87,-103.33 788.01,-85.64 721.42,-77.4"/>
<polygon fill="midnightblue" stroke="midnightblue" points="721.71,-73.9 711.35,-76.16 720.85,-80.85 721.71,-73.9"/>
</g>
<!-- Node21 -->
<g id="node21" class="node">
<title>Node21</title>
<g id="a_node21"><a xlink:href="atomic-entry-flag_8h.html" target="_top" xlink:title=" ">
<polygon fill="white" stroke="black" points="1036,-56.5 1036,-86.5 1146,-86.5 1146,-56.5 1036,-56.5"/>
<text text-anchor="start" x="1044" y="-74.5" font-family="Helvetica,sans-Serif" font-size="10.00">cppgc/internal/atomic</text>
<text text-anchor="middle" x="1091" y="-63.5" font-family="Helvetica,sans-Serif" font-size="10.00">&#45;entry&#45;flag.h</text>
</a>
</g>
</g>
<!-- Node20&#45;&gt;Node21 -->
<g id="edge26" class="edge">
<title>Node20&#45;&gt;Node21</title>
<path fill="none" stroke="midnightblue" d="M1107.44,-123.4C1104.88,-115.47 1101.62,-105.38 1098.68,-96.27"/>
<polygon fill="midnightblue" stroke="midnightblue" points="1101.95,-95.02 1095.55,-86.58 1095.29,-97.17 1101.95,-95.02"/>
</g>
<!-- Node21&#45;&gt;Node2 -->
<g id="edge27" class="edge">
<title>Node21&#45;&gt;Node2</title>
<path fill="none" stroke="midnightblue" d="M1066.59,-56.4C1050.08,-46.86 1028.38,-34.32 1011.96,-24.84"/>
<polygon fill="midnightblue" stroke="midnightblue" points="1013.4,-21.63 1002.99,-19.66 1009.9,-27.69 1013.4,-21.63"/>
</g>
<!-- Node22&#45;&gt;Node3 -->
<g id="edge34" class="edge">
<title>Node22&#45;&gt;Node3</title>
<path fill="none" stroke="midnightblue" d="M816.94,-503.55C766.95,-494.7 686.41,-480.26 617,-467 495.93,-443.87 463.58,-436.47 338.54,-411.11"/>
<polygon fill="midnightblue" stroke="midnightblue" points="339.07,-407.64 328.57,-409.09 337.68,-414.5 339.07,-407.64"/>
</g>
<!-- Node22&#45;&gt;Node8 -->
<g id="edge36" class="edge">
<title>Node22&#45;&gt;Node8</title>
<path fill="none" stroke="midnightblue" d="M913.06,-507.75C977.53,-499.11 1084,-473.23 1084,-396.5 1084,-396.5 1084,-396.5 1084,-333 1084,-286.34 1043.85,-243.73 1019.06,-221.88"/>
<polygon fill="midnightblue" stroke="midnightblue" points="1021.21,-219.11 1011.33,-215.28 1016.67,-224.43 1021.21,-219.11"/>
</g>
<!-- Node22&#45;&gt;Node10 -->
<g id="edge81" class="edge">
<title>Node22&#45;&gt;Node10</title>
<path fill="none" stroke="midnightblue" d="M913.44,-509.73C966.25,-505.85 1052.39,-495.35 1121,-467 1215.69,-427.87 1310,-437.46 1310,-335 1310,-335 1310,-335 1310,-204.5 1310,-83.79 860.7,-72.83 721.57,-72.33"/>
<polygon fill="midnightblue" stroke="midnightblue" points="721.34,-68.83 711.34,-72.31 721.33,-75.83 721.34,-68.83"/>
</g>
<!-- Node22&#45;&gt;Node12 -->
<g id="edge33" class="edge">
<title>Node22&#45;&gt;Node12</title>
<path fill="none" stroke="midnightblue" d="M878.05,-503.39C916.24,-477.08 1022.63,-395.22 983,-324 940.12,-246.94 830.37,-220.09 770.12,-210.98"/>
<polygon fill="midnightblue" stroke="midnightblue" points="770.57,-207.51 760.18,-209.57 769.59,-214.44 770.57,-207.51"/>
</g>
<!-- Node22&#45;&gt;Node13 -->
<g id="edge37" class="edge">
<title>Node22&#45;&gt;Node13</title>
<path fill="none" stroke="midnightblue" d="M856.89,-503.3C840.93,-486.08 804.52,-446.25 776,-411 741.87,-368.81 704.54,-316.86 685.93,-290.53"/>
<polygon fill="midnightblue" stroke="midnightblue" points="688.59,-288.22 679.97,-282.06 682.86,-292.25 688.59,-288.22"/>
</g>
<!-- Node22&#45;&gt;Node14 -->
<g id="edge35" class="edge">
<title>Node22&#45;&gt;Node14</title>
<path fill="none" stroke="midnightblue" d="M913.14,-508.09C972.9,-502.33 1070.34,-489.72 1098,-467 1149.99,-424.29 1162.82,-339.45 1165.98,-297.77"/>
<polygon fill="midnightblue" stroke="midnightblue" points="1169.48,-297.89 1166.62,-287.69 1162.49,-297.45 1169.48,-297.89"/>
</g>
<!-- Node22&#45;&gt;Node23 -->
<g id="edge38" class="edge">
<title>Node22&#45;&gt;Node23</title>
<path fill="none" stroke="midnightblue" d="M833.47,-503.44C799.41,-494.2 744.99,-479.44 707.48,-469.26"/>
<polygon fill="midnightblue" stroke="midnightblue" points="707.95,-465.76 697.38,-466.52 706.12,-472.51 707.95,-465.76"/>
</g>
<!-- Node23&#45;&gt;Node7 -->
<g id="edge63" class="edge">
<title>Node23&#45;&gt;Node7</title>
<path fill="none" stroke="midnightblue" d="M706.15,-454.73C769.46,-451.79 887.99,-442.16 914,-411 927.18,-395.21 924.31,-370.48 920.05,-353.54"/>
<polygon fill="midnightblue" stroke="midnightblue" points="923.35,-352.34 917.2,-343.71 916.62,-354.29 923.35,-352.34"/>
</g>
<!-- Node23&#45;&gt;Node8 -->
<g id="edge78" class="edge">
<title>Node23&#45;&gt;Node8</title>
<path fill="none" stroke="midnightblue" d="M706.17,-452.83C770.86,-447.12 894.68,-433.57 932,-411 996.23,-372.16 1001.55,-268.62 1000.85,-225.62"/>
<polygon fill="midnightblue" stroke="midnightblue" points="1004.34,-225.31 1000.54,-215.42 997.34,-225.52 1004.34,-225.31"/>
</g>
<!-- Node23&#45;&gt;Node11 -->
<g id="edge79" class="edge">
<title>Node23&#45;&gt;Node11</title>
<path fill="none" stroke="midnightblue" d="M625.85,-455.31C592.83,-452.36 547.89,-442.33 525,-411 512.85,-394.37 516.98,-369.82 522.07,-353.16"/>
<polygon fill="midnightblue" stroke="midnightblue" points="525.44,-354.1 525.39,-343.51 518.82,-351.82 525.44,-354.1"/>
</g>
<!-- Node23&#45;&gt;Node13 -->
<g id="edge80" class="edge">
<title>Node23&#45;&gt;Node13</title>
<path fill="none" stroke="midnightblue" d="M666.39,-447.2C667.61,-419.19 671.45,-331.71 673.16,-292.66"/>
<polygon fill="midnightblue" stroke="midnightblue" points="676.68,-292.36 673.62,-282.21 669.68,-292.05 676.68,-292.36"/>
</g>
<!-- Node23&#45;&gt;Node14 -->
<g id="edge64" class="edge">
<title>Node23&#45;&gt;Node14</title>
<path fill="none" stroke="midnightblue" d="M706.02,-455.31C793.77,-453.19 1000.04,-444.66 1060,-411 1106.85,-384.7 1140.2,-328.7 1156.23,-296.88"/>
<polygon fill="midnightblue" stroke="midnightblue" points="1159.4,-298.36 1160.64,-287.84 1153.11,-295.29 1159.4,-298.36"/>
</g>
<!-- Node24 -->
<g id="node24" class="node">
<title>Node24</title>
<g id="a_node24"><a xlink:href="custom-space_8h.html" target="_top" xlink:title=" ">
<polygon fill="white" stroke="black" points="66.5,-196 66.5,-215 181.5,-215 181.5,-196 66.5,-196"/>
<text text-anchor="middle" x="124" y="-203" font-family="Helvetica,sans-Serif" font-size="10.00">cppgc/custom&#45;space.h</text>
</a>
</g>
</g>
<!-- Node23&#45;&gt;Node24 -->
<g id="edge39" class="edge">
<title>Node23&#45;&gt;Node24</title>
<path fill="none" stroke="midnightblue" d="M625.78,-454.6C518.17,-450.52 229.53,-437.23 196,-411 136.93,-364.79 126.19,-266.61 124.34,-225.37"/>
<polygon fill="midnightblue" stroke="midnightblue" points="127.83,-225.22 124.02,-215.34 120.84,-225.44 127.83,-225.22"/>
</g>
<!-- Node25 -->
<g id="node25" class="node">
<title>Node25</title>
<g id="a_node25"><a xlink:href="ephemeron-pair_8h.html" target="_top" xlink:title=" ">
<polygon fill="white" stroke="black" points="785,-386 785,-405 905,-405 905,-386 785,-386"/>
<text text-anchor="middle" x="845" y="-393" font-family="Helvetica,sans-Serif" font-size="10.00">cppgc/ephemeron&#45;pair.h</text>
</a>
</g>
</g>
<!-- Node23&#45;&gt;Node25 -->
<g id="edge41" class="edge">
<title>Node23&#45;&gt;Node25</title>
<path fill="none" stroke="midnightblue" d="M691.65,-447.48C722.62,-437.18 774.87,-419.81 809.65,-408.25"/>
<polygon fill="midnightblue" stroke="midnightblue" points="811.02,-411.48 819.4,-405.01 808.81,-404.84 811.02,-411.48"/>
</g>
<!-- Node26 -->
<g id="node26" class="node">
<title>Node26</title>
<g id="a_node26"><a xlink:href="member_8h.html" target="_top" xlink:title=" ">
<polygon fill="white" stroke="black" points="747.5,-324.5 747.5,-343.5 836.5,-343.5 836.5,-324.5 747.5,-324.5"/>
<text text-anchor="middle" x="792" y="-331.5" font-family="Helvetica,sans-Serif" font-size="10.00">cppgc/member.h</text>
</a>
</g>
</g>
<!-- Node23&#45;&gt;Node26 -->
<g id="edge77" class="edge">
<title>Node23&#45;&gt;Node26</title>
<path fill="none" stroke="midnightblue" d="M675.06,-447.3C696.13,-427.07 748.66,-376.62 775.56,-350.79"/>
<polygon fill="midnightblue" stroke="midnightblue" points="778.23,-353.07 783.02,-343.62 773.38,-348.03 778.23,-353.07"/>
</g>
<!-- Node28 -->
<g id="node28" class="node">
<title>Node28</title>
<g id="a_node28"><a xlink:href="garbage-collected_8h.html" target="_top" xlink:title=" ">
<polygon fill="white" stroke="black" points="347,-386 347,-405 477,-405 477,-386 347,-386"/>
<text text-anchor="middle" x="412" y="-393" font-family="Helvetica,sans-Serif" font-size="10.00">cppgc/garbage&#45;collected.h</text>
</a>
</g>
</g>
<!-- Node23&#45;&gt;Node28 -->
<g id="edge49" class="edge">
<title>Node23&#45;&gt;Node28</title>
<path fill="none" stroke="midnightblue" d="M629.61,-447.48C584.43,-436.89 507.35,-418.84 458.09,-407.3"/>
<polygon fill="midnightblue" stroke="midnightblue" points="458.86,-403.88 448.32,-405.01 457.26,-410.7 458.86,-403.88"/>
</g>
<!-- Node32 -->
<g id="node32" class="node">
<title>Node32</title>
<g id="a_node32"><a xlink:href="liveness-broker_8h.html" target="_top" xlink:title=" ">
<polygon fill="white" stroke="black" points="533.5,-386 533.5,-405 652.5,-405 652.5,-386 533.5,-386"/>
<text text-anchor="middle" x="593" y="-393" font-family="Helvetica,sans-Serif" font-size="10.00">cppgc/liveness&#45;broker.h</text>
</a>
</g>
</g>
<!-- Node23&#45;&gt;Node32 -->
<g id="edge65" class="edge">
<title>Node23&#45;&gt;Node32</title>
<path fill="none" stroke="midnightblue" d="M655.54,-447.48C644.05,-438.11 625.37,-422.88 611.41,-411.51"/>
<polygon fill="midnightblue" stroke="midnightblue" points="613.4,-408.61 603.44,-405.01 608.98,-414.04 613.4,-408.61"/>
</g>
<!-- Node24&#45;&gt;Node18 -->
<g id="edge40" class="edge">
<title>Node24&#45;&gt;Node18</title>
<path fill="none" stroke="midnightblue" d="M127.22,-195.84C135.11,-174.58 155.57,-119.46 166.26,-90.65"/>
<polygon fill="midnightblue" stroke="midnightblue" points="169.64,-91.61 169.84,-81.02 163.08,-89.18 169.64,-91.61"/>
</g>
<!-- Node25&#45;&gt;Node26 -->
<g id="edge42" class="edge">
<title>Node25&#45;&gt;Node26</title>
<path fill="none" stroke="midnightblue" d="M837.41,-385.98C829.3,-376.87 816.27,-362.24 806.24,-350.98"/>
<polygon fill="midnightblue" stroke="midnightblue" points="808.84,-348.65 799.58,-343.51 803.62,-353.3 808.84,-348.65"/>
</g>
<!-- Node26&#45;&gt;Node2 -->
<g id="edge43" class="edge">
<title>Node26&#45;&gt;Node2</title>
<path fill="none" stroke="midnightblue" d="M817.48,-324.49C835.63,-317.28 859.47,-305.33 875,-288 911.64,-247.11 964.84,-84.81 982.25,-29.54"/>
<polygon fill="midnightblue" stroke="midnightblue" points="985.68,-30.31 985.32,-19.72 979,-28.22 985.68,-30.31"/>
</g>
<!-- Node26&#45;&gt;Node10 -->
<g id="edge48" class="edge">
<title>Node26&#45;&gt;Node10</title>
<path fill="none" stroke="midnightblue" d="M792.03,-324.22C791.79,-301.22 789.23,-237.69 769,-190 751.7,-149.22 717.33,-109.66 697.04,-88.45"/>
<polygon fill="midnightblue" stroke="midnightblue" points="699.51,-85.97 690.02,-81.26 694.5,-90.86 699.51,-85.97"/>
</g>
<!-- Node26&#45;&gt;Node12 -->
<g id="edge45" class="edge">
<title>Node26&#45;&gt;Node12</title>
<path fill="none" stroke="midnightblue" d="M787.67,-324.31C777.46,-303.81 751.73,-252.15 737.99,-224.54"/>
<polygon fill="midnightblue" stroke="midnightblue" points="740.95,-222.65 733.36,-215.26 734.69,-225.77 740.95,-222.65"/>
</g>
<!-- Node26&#45;&gt;Node13 -->
<g id="edge47" class="edge">
<title>Node26&#45;&gt;Node13</title>
<path fill="none" stroke="midnightblue" d="M775.09,-324.48C755.47,-314.58 722.87,-298.14 700.01,-286.62"/>
<polygon fill="midnightblue" stroke="midnightblue" points="701.38,-283.39 690.88,-282.01 698.23,-289.64 701.38,-283.39"/>
</g>
<!-- Node26&#45;&gt;Node14 -->
<g id="edge46" class="edge">
<title>Node26&#45;&gt;Node14</title>
<path fill="none" stroke="midnightblue" d="M836.78,-325.5C839.9,-324.99 843,-324.49 846,-324 934.54,-309.66 1036.92,-293.65 1101.8,-283.58"/>
<polygon fill="midnightblue" stroke="midnightblue" points="1102.53,-287.01 1111.88,-282.02 1101.46,-280.09 1102.53,-287.01"/>
</g>
<!-- Node27 -->
<g id="node27" class="node">
<title>Node27</title>
<g id="a_node27"><a xlink:title=" ">
<polygon fill="white" stroke="#bfbfbf" points="816.5,-263 816.5,-282 865.5,-282 865.5,-263 816.5,-263"/>
<text text-anchor="middle" x="841" y="-270" font-family="Helvetica,sans-Serif" font-size="10.00">cstddef</text>
</a>
</g>
</g>
<!-- Node26&#45;&gt;Node27 -->
<g id="edge44" class="edge">
<title>Node26&#45;&gt;Node27</title>
<path fill="none" stroke="midnightblue" d="M799.02,-324.48C806.44,-315.46 818.33,-301.02 827.57,-289.81"/>
<polygon fill="midnightblue" stroke="midnightblue" points="830.34,-291.95 833.99,-282.01 824.93,-287.5 830.34,-291.95"/>
</g>
<!-- Node28&#45;&gt;Node11 -->
<g id="edge61" class="edge">
<title>Node28&#45;&gt;Node11</title>
<path fill="none" stroke="midnightblue" d="M428.76,-385.98C448.22,-376.08 480.55,-359.64 503.21,-348.12"/>
<polygon fill="midnightblue" stroke="midnightblue" points="504.94,-351.16 512.27,-343.51 501.77,-344.92 504.94,-351.16"/>
</g>
<!-- Node28&#45;&gt;Node12 -->
<g id="edge50" class="edge">
<title>Node28&#45;&gt;Node12</title>
<path fill="none" stroke="midnightblue" d="M418.48,-385.6C428.96,-371.54 450.73,-343.78 473,-324 512.72,-288.72 524.23,-280.26 572,-257 609.63,-238.68 655.48,-224.81 687.89,-216.29"/>
<polygon fill="midnightblue" stroke="midnightblue" points="689.1,-219.59 697.91,-213.71 687.35,-212.82 689.1,-219.59"/>
</g>
<!-- Node28&#45;&gt;Node13 -->
<g id="edge62" class="edge">
<title>Node28&#45;&gt;Node13</title>
<path fill="none" stroke="midnightblue" d="M459.69,-385.95C495.77,-378.24 545.8,-364.87 586,-344 614.07,-329.42 641.76,-305.17 658.37,-289.25"/>
<polygon fill="midnightblue" stroke="midnightblue" points="660.89,-291.69 665.59,-282.19 655.99,-286.68 660.89,-291.69"/>
</g>
<!-- Node28&#45;&gt;Node17 -->
<g id="edge51" class="edge">
<title>Node28&#45;&gt;Node17</title>
<path fill="none" stroke="midnightblue" d="M403.74,-385.93C387.75,-368.83 352.62,-328.6 335,-288 317.03,-246.58 310.11,-193.83 307.51,-163.64"/>
<polygon fill="midnightblue" stroke="midnightblue" points="311,-163.3 306.74,-153.6 304.02,-163.84 311,-163.3"/>
</g>
<!-- Node29 -->
<g id="node29" class="node">
<title>Node29</title>
<g id="a_node29"><a xlink:href="platform_8h.html" target="_top" xlink:title=" ">
<polygon fill="white" stroke="black" points="375.5,-196 375.5,-215 464.5,-215 464.5,-196 375.5,-196"/>
<text text-anchor="middle" x="420" y="-203" font-family="Helvetica,sans-Serif" font-size="10.00">cppgc/platform.h</text>
</a>
</g>
</g>
<!-- Node28&#45;&gt;Node29 -->
<g id="edge52" class="edge">
<title>Node28&#45;&gt;Node29</title>
<path fill="none" stroke="midnightblue" d="M414.02,-385.83C418.84,-364.17 430.37,-305.87 427,-257 426.26,-246.34 424.67,-234.5 423.18,-224.96"/>
<polygon fill="midnightblue" stroke="midnightblue" points="426.63,-224.34 421.55,-215.04 419.72,-225.48 426.63,-224.34"/>
</g>
<!-- Node29&#45;&gt;Node10 -->
<g id="edge60" class="edge">
<title>Node29&#45;&gt;Node10</title>
<path fill="none" stroke="midnightblue" d="M419.26,-195.94C418.32,-179.34 418.84,-142.7 439,-123 467.22,-95.43 579.74,-81.41 640.91,-75.7"/>
<polygon fill="midnightblue" stroke="midnightblue" points="641.34,-79.18 650.98,-74.79 640.71,-72.21 641.34,-79.18"/>
</g>
<!-- Node30 -->
<g id="node30" class="node">
<title>Node30</title>
<g id="a_node30"><a xlink:href="v8-platform_8h.html" target="_top" xlink:title=" ">
<polygon fill="white" stroke="black" points="168.5,-129 168.5,-148 241.5,-148 241.5,-129 168.5,-129"/>
<text text-anchor="middle" x="205" y="-136" font-family="Helvetica,sans-Serif" font-size="10.00">v8&#45;platform.h</text>
</a>
</g>
</g>
<!-- Node29&#45;&gt;Node30 -->
<g id="edge53" class="edge">
<title>Node29&#45;&gt;Node30</title>
<path fill="none" stroke="midnightblue" d="M390.46,-195.95C356.5,-186.06 299.12,-169.21 250,-154 247.04,-153.08 243.97,-152.12 240.89,-151.15"/>
<polygon fill="midnightblue" stroke="midnightblue" points="241.73,-147.74 231.14,-148.04 239.61,-154.41 241.73,-147.74"/>
</g>
<!-- Node30&#45;&gt;Node5 -->
<g id="edge57" class="edge">
<title>Node30&#45;&gt;Node5</title>
<path fill="none" stroke="midnightblue" d="M191.38,-128.73C174.57,-117.92 145.77,-99.38 125.86,-86.57"/>
<polygon fill="midnightblue" stroke="midnightblue" points="127.71,-83.6 117.41,-81.13 123.92,-89.48 127.71,-83.6"/>
</g>
<!-- Node30&#45;&gt;Node9 -->
<g id="edge58" class="edge">
<title>Node30&#45;&gt;Node9</title>
<path fill="none" stroke="midnightblue" d="M230.12,-129C236.56,-126.93 243.51,-124.79 250,-123 316.28,-104.68 395.12,-87.55 437.47,-78.73"/>
<polygon fill="midnightblue" stroke="midnightblue" points="438.34,-82.12 447.42,-76.66 436.92,-75.27 438.34,-82.12"/>
</g>
<!-- Node30&#45;&gt;Node10 -->
<g id="edge59" class="edge">
<title>Node30&#45;&gt;Node10</title>
<path fill="none" stroke="midnightblue" d="M228.58,-128.95C235.42,-126.73 242.94,-124.54 250,-123 324.16,-106.87 548.57,-84.85 640.78,-76.2"/>
<polygon fill="midnightblue" stroke="midnightblue" points="641.2,-79.68 650.84,-75.26 640.55,-72.71 641.2,-79.68"/>
</g>
<!-- Node30&#45;&gt;Node18 -->
<g id="edge54" class="edge">
<title>Node30&#45;&gt;Node18</title>
<path fill="none" stroke="midnightblue" d="M200.68,-128.73C195.84,-118.89 187.85,-102.66 181.69,-90.16"/>
<polygon fill="midnightblue" stroke="midnightblue" points="184.8,-88.55 177.25,-81.13 178.52,-91.64 184.8,-88.55"/>
</g>
<!-- Node30&#45;&gt;Node19 -->
<g id="edge55" class="edge">
<title>Node30&#45;&gt;Node19</title>
<path fill="none" stroke="midnightblue" d="M218.62,-128.73C235.43,-117.92 264.23,-99.38 284.14,-86.57"/>
<polygon fill="midnightblue" stroke="midnightblue" points="286.08,-89.48 292.59,-81.13 282.29,-83.6 286.08,-89.48"/>
</g>
<!-- Node31 -->
<g id="node31" class="node">
<title>Node31</title>
<g id="a_node31"><a xlink:title=" ">
<polygon fill="white" stroke="#bfbfbf" points="216.5,-62 216.5,-81 263.5,-81 263.5,-62 216.5,-62"/>
<text text-anchor="middle" x="240" y="-69" font-family="Helvetica,sans-Serif" font-size="10.00">stdlib.h</text>
</a>
</g>
</g>
<!-- Node30&#45;&gt;Node31 -->
<g id="edge56" class="edge">
<title>Node30&#45;&gt;Node31</title>
<path fill="none" stroke="midnightblue" d="M209.72,-128.73C215.02,-118.89 223.76,-102.66 230.49,-90.16"/>
<polygon fill="midnightblue" stroke="midnightblue" points="233.7,-91.59 235.35,-81.13 227.53,-88.27 233.7,-91.59"/>
</g>
<!-- Node32&#45;&gt;Node10 -->
<g id="edge76" class="edge">
<title>Node32&#45;&gt;Node10</title>
<path fill="none" stroke="midnightblue" d="M593.98,-385.69C596.54,-363.71 604.14,-304.73 617,-257 629.69,-209.89 639.14,-200.14 655,-154 662.38,-132.55 670.21,-107.68 675.32,-91.11"/>
<polygon fill="midnightblue" stroke="midnightblue" points="678.8,-91.69 678.39,-81.11 672.11,-89.64 678.8,-91.69"/>
</g>
<!-- Node32&#45;&gt;Node11 -->
<g id="edge75" class="edge">
<title>Node32&#45;&gt;Node11</title>
<path fill="none" stroke="midnightblue" d="M583.83,-385.98C573.85,-376.7 557.69,-361.67 545.49,-350.33"/>
<polygon fill="midnightblue" stroke="midnightblue" points="547.86,-347.75 538.15,-343.51 543.09,-352.88 547.86,-347.75"/>
</g>
<!-- Node32&#45;&gt;Node26 -->
<g id="edge74" class="edge">
<title>Node32&#45;&gt;Node26</title>
<path fill="none" stroke="midnightblue" d="M621.51,-385.98C656.24,-375.59 715.04,-358.01 753.69,-346.45"/>
<polygon fill="midnightblue" stroke="midnightblue" points="754.96,-349.73 763.54,-343.51 752.96,-343.02 754.96,-349.73"/>
</g>
<!-- Node33 -->
<g id="node33" class="node">
<title>Node33</title>
<g id="a_node33"><a xlink:href="heap_8h.html" target="_top" xlink:title=" ">
<polygon fill="white" stroke="black" points="344,-263 344,-282 418,-282 418,-263 344,-263"/>
<text text-anchor="middle" x="381" y="-270" font-family="Helvetica,sans-Serif" font-size="10.00">cppgc/heap.h</text>
</a>
</g>
</g>
<!-- Node32&#45;&gt;Node33 -->
<g id="edge66" class="edge">
<title>Node32&#45;&gt;Node33</title>
<path fill="none" stroke="midnightblue" d="M567.28,-385.85C542.36,-376.97 503.88,-361.93 473,-344 445.18,-327.85 416.24,-304.38 398.42,-289.03"/>
<polygon fill="midnightblue" stroke="midnightblue" points="400.45,-286.16 390.61,-282.22 395.84,-291.43 400.45,-286.16"/>
</g>
<!-- Node33&#45;&gt;Node5 -->
<g id="edge67" class="edge">
<title>Node33&#45;&gt;Node5</title>
<path fill="none" stroke="midnightblue" d="M369.01,-262.81C346.76,-246.92 297.19,-212.75 252,-190 212.41,-170.07 193.65,-181.64 159,-154 137.48,-136.84 121.25,-108.96 112.18,-90.68"/>
<polygon fill="midnightblue" stroke="midnightblue" points="115.23,-88.94 107.79,-81.4 108.91,-91.94 115.23,-88.94"/>
</g>
<!-- Node33&#45;&gt;Node6 -->
<g id="edge68" class="edge">
<title>Node33&#45;&gt;Node6</title>
<path fill="none" stroke="midnightblue" d="M359.75,-262.87C332.06,-251.62 283.44,-231.87 251.73,-218.99"/>
<polygon fill="midnightblue" stroke="midnightblue" points="252.66,-215.58 242.08,-215.06 250.03,-222.07 252.66,-215.58"/>
</g>
<!-- Node33&#45;&gt;Node10 -->
<g id="edge73" class="edge">
<title>Node33&#45;&gt;Node10</title>
<path fill="none" stroke="midnightblue" d="M405.02,-262.93C428.72,-254.01 465.57,-238.85 495,-221 562.78,-179.88 633.43,-116.99 664.58,-88.05"/>
<polygon fill="midnightblue" stroke="midnightblue" points="667.05,-90.54 671.96,-81.15 662.27,-85.43 667.05,-90.54"/>
</g>
<!-- Node33&#45;&gt;Node24 -->
<g id="edge71" class="edge">
<title>Node33&#45;&gt;Node24</title>
<path fill="none" stroke="midnightblue" d="M347.14,-262.94C301.01,-251.27 218.37,-230.37 167.64,-217.54"/>
<polygon fill="midnightblue" stroke="midnightblue" points="168.49,-214.14 157.94,-215.08 166.77,-220.93 168.49,-214.14"/>
</g>
<!-- Node33&#45;&gt;Node29 -->
<g id="edge72" class="edge">
<title>Node33&#45;&gt;Node29</title>
<path fill="none" stroke="midnightblue" d="M386.26,-262.73C392.22,-252.79 402.1,-236.34 409.63,-223.79"/>
<polygon fill="midnightblue" stroke="midnightblue" points="412.68,-225.5 414.82,-215.13 406.68,-221.9 412.68,-225.5"/>
</g>
<!-- Node34 -->
<g id="node34" class="node">
<title>Node34</title>
<g id="a_node34"><a xlink:href="common_8h.html" target="_top" xlink:title=" ">
<polygon fill="white" stroke="black" points="447.5,-129 447.5,-148 538.5,-148 538.5,-129 447.5,-129"/>
<text text-anchor="middle" x="493" y="-136" font-family="Helvetica,sans-Serif" font-size="10.00">cppgc/common.h</text>
</a>
</g>
</g>
<!-- Node33&#45;&gt;Node34 -->
<g id="edge69" class="edge">
<title>Node33&#45;&gt;Node34</title>
<path fill="none" stroke="midnightblue" d="M410.06,-262.88C430.92,-255.21 458.08,-241.9 474,-221 487.94,-202.71 491.9,-175.89 492.9,-158.07"/>
<polygon fill="midnightblue" stroke="midnightblue" points="496.4,-158.18 493.2,-148.07 489.4,-157.96 496.4,-158.18"/>
</g>
<!-- Node34&#45;&gt;Node10 -->
<g id="edge70" class="edge">
<title>Node34&#45;&gt;Node10</title>
<path fill="none" stroke="midnightblue" d="M517.96,-128.87C550.92,-117.47 609.12,-97.35 646.33,-84.49"/>
<polygon fill="midnightblue" stroke="midnightblue" points="647.92,-87.64 656.23,-81.06 645.64,-81.02 647.92,-87.64"/>
</g>
</g>
</svg>
