<?xml version="1.0" encoding="UTF-8" standalone="no"?>
<!DOCTYPE svg PUBLIC "-//W3C//DTD SVG 1.1//EN"
 "http://www.w3.org/Graphics/SVG/1.1/DTD/svg11.dtd">
<!-- Generated by graphviz version 2.44.0 ()
 -->
<!-- Title: include/cppgc/ephemeron&#45;pair.h Pages: 1 -->
<svg width="525pt" height="419pt"
 viewBox="0.00 0.00 525.01 419.00" xmlns="http://www.w3.org/2000/svg" xmlns:xlink="http://www.w3.org/1999/xlink">
<g id="graph0" class="graph" transform="scale(1 1) rotate(0) translate(4 415)">
<title>include/cppgc/ephemeron&#45;pair.h</title>
<polygon fill="white" stroke="transparent" points="-4,4 -4,-415 521.01,-415 521.01,4 -4,4"/>
<!-- Node1 -->
<g id="node1" class="node">
<title>Node1</title>
<g id="a_node1"><a xlink:title=" ">
<polygon fill="#bfbfbf" stroke="black" points="81.43,-380.5 81.43,-410.5 209.43,-410.5 209.43,-380.5 81.43,-380.5"/>
<text text-anchor="start" x="89.43" y="-398.5" font-family="Helvetica,sans-Serif" font-size="10.00">include/cppgc/ephemeron</text>
<text text-anchor="middle" x="145.43" y="-387.5" font-family="Helvetica,sans-Serif" font-size="10.00">&#45;pair.h</text>
</a>
</g>
</g>
<!-- Node2 -->
<g id="node2" class="node">
<title>Node2</title>
<g id="a_node2"><a xlink:href="member_8h.html" target="_top" xlink:title=" ">
<polygon fill="white" stroke="black" points="100.93,-324.5 100.93,-343.5 189.93,-343.5 189.93,-324.5 100.93,-324.5"/>
<text text-anchor="middle" x="145.43" y="-331.5" font-family="Helvetica,sans-Serif" font-size="10.00">cppgc/member.h</text>
</a>
</g>
</g>
<!-- Node1&#45;&gt;Node2 -->
<g id="edge1" class="edge">
<title>Node1&#45;&gt;Node2</title>
<path fill="none" stroke="midnightblue" d="M145.43,-380.4C145.43,-372.47 145.43,-362.46 145.43,-353.86"/>
<polygon fill="midnightblue" stroke="midnightblue" points="148.93,-353.66 145.43,-343.66 141.93,-353.66 148.93,-353.66"/>
</g>
<!-- Node3 -->
<g id="node3" class="node">
<title>Node3</title>
<g id="a_node3"><a xlink:title=" ">
<polygon fill="white" stroke="#bfbfbf" points="90.43,-0.5 90.43,-19.5 136.43,-19.5 136.43,-0.5 90.43,-0.5"/>
<text text-anchor="middle" x="113.43" y="-7.5" font-family="Helvetica,sans-Serif" font-size="10.00">atomic</text>
</a>
</g>
</g>
<!-- Node2&#45;&gt;Node3 -->
<g id="edge2" class="edge">
<title>Node2&#45;&gt;Node3</title>
<path fill="none" stroke="midnightblue" d="M100.71,-327.69C73.77,-322.17 40.82,-310.92 20.43,-288 -4.29,-260.21 1.43,-243.69 1.43,-206.5 1.43,-206.5 1.43,-206.5 1.43,-137.5 1.43,-100.09 -1.14,-85.04 22.43,-56 37.09,-37.94 60.83,-26.54 80.38,-19.73"/>
<polygon fill="midnightblue" stroke="midnightblue" points="81.71,-22.98 90.15,-16.58 79.56,-16.32 81.71,-22.98"/>
</g>
<!-- Node4 -->
<g id="node4" class="node">
<title>Node4</title>
<g id="a_node4"><a xlink:title=" ">
<polygon fill="white" stroke="#bfbfbf" points="29.93,-263 29.93,-282 78.93,-282 78.93,-263 29.93,-263"/>
<text text-anchor="middle" x="54.43" y="-270" font-family="Helvetica,sans-Serif" font-size="10.00">cstddef</text>
</a>
</g>
</g>
<!-- Node2&#45;&gt;Node4 -->
<g id="edge3" class="edge">
<title>Node2&#45;&gt;Node4</title>
<path fill="none" stroke="midnightblue" d="M132.39,-324.48C117.66,-314.84 93.46,-299.02 75.92,-287.55"/>
<polygon fill="midnightblue" stroke="midnightblue" points="77.73,-284.55 67.44,-282.01 73.9,-290.41 77.73,-284.55"/>
</g>
<!-- Node5 -->
<g id="node5" class="node">
<title>Node5</title>
<g id="a_node5"><a xlink:title=" ">
<polygon fill="white" stroke="#bfbfbf" points="76.43,-196 76.43,-215 138.43,-215 138.43,-196 76.43,-196"/>
<text text-anchor="middle" x="107.43" y="-203" font-family="Helvetica,sans-Serif" font-size="10.00">type_traits</text>
</a>
</g>
</g>
<!-- Node2&#45;&gt;Node5 -->
<g id="edge4" class="edge">
<title>Node2&#45;&gt;Node5</title>
<path fill="none" stroke="midnightblue" d="M141.19,-324.21C137,-315.26 130.63,-300.9 126.43,-288 119.57,-266.89 114.13,-241.96 110.86,-225.28"/>
<polygon fill="midnightblue" stroke="midnightblue" points="114.25,-224.37 108.95,-215.2 107.37,-225.67 114.25,-224.37"/>
</g>
<!-- Node6 -->
<g id="node6" class="node">
<title>Node6</title>
<g id="a_node6"><a xlink:href="pointer-policies_8h.html" target="_top" xlink:title=" ">
<polygon fill="white" stroke="black" points="249.43,-257.5 249.43,-287.5 359.43,-287.5 359.43,-257.5 249.43,-257.5"/>
<text text-anchor="start" x="257.43" y="-275.5" font-family="Helvetica,sans-Serif" font-size="10.00">cppgc/internal/pointer</text>
<text text-anchor="middle" x="304.43" y="-264.5" font-family="Helvetica,sans-Serif" font-size="10.00">&#45;policies.h</text>
</a>
</g>
</g>
<!-- Node2&#45;&gt;Node6 -->
<g id="edge5" class="edge">
<title>Node2&#45;&gt;Node6</title>
<path fill="none" stroke="midnightblue" d="M168.21,-324.48C191.36,-315.81 227.88,-302.15 257.29,-291.14"/>
<polygon fill="midnightblue" stroke="midnightblue" points="258.82,-294.31 266.96,-287.52 256.37,-287.75 258.82,-294.31"/>
</g>
<!-- Node12 -->
<g id="node12" class="node">
<title>Node12</title>
<g id="a_node12"><a xlink:href="v8config_8h.html" target="_top" xlink:title=" ">
<polygon fill="white" stroke="black" points="309.43,-62 309.43,-81 369.43,-81 369.43,-62 309.43,-62"/>
<text text-anchor="middle" x="339.43" y="-69" font-family="Helvetica,sans-Serif" font-size="10.00">v8config.h</text>
</a>
</g>
</g>
<!-- Node2&#45;&gt;Node12 -->
<g id="edge24" class="edge">
<title>Node2&#45;&gt;Node12</title>
<path fill="none" stroke="midnightblue" d="M190.11,-326.42C279.16,-312.24 473.14,-275.6 507.43,-221 532.36,-181.3 504.03,-153.5 468.43,-123 442.89,-101.12 406.77,-88.08 379.24,-80.74"/>
<polygon fill="midnightblue" stroke="midnightblue" points="380.07,-77.34 369.52,-78.29 378.36,-84.13 380.07,-77.34"/>
</g>
<!-- Node17 -->
<g id="node17" class="node">
<title>Node17</title>
<g id="a_node17"><a xlink:href="type-traits_8h.html" target="_top" xlink:title=" ">
<polygon fill="white" stroke="black" points="135.43,-263 135.43,-282 231.43,-282 231.43,-263 135.43,-263"/>
<text text-anchor="middle" x="183.43" y="-270" font-family="Helvetica,sans-Serif" font-size="10.00">cppgc/type&#45;traits.h</text>
</a>
</g>
</g>
<!-- Node2&#45;&gt;Node17 -->
<g id="edge22" class="edge">
<title>Node2&#45;&gt;Node17</title>
<path fill="none" stroke="midnightblue" d="M150.88,-324.48C156.52,-315.64 165.49,-301.59 172.59,-290.48"/>
<polygon fill="midnightblue" stroke="midnightblue" points="175.56,-292.32 178,-282.01 169.66,-288.55 175.56,-292.32"/>
</g>
<!-- Node6&#45;&gt;Node5 -->
<g id="edge7" class="edge">
<title>Node6&#45;&gt;Node5</title>
<path fill="none" stroke="midnightblue" d="M259.28,-257.46C227.83,-247.56 184.95,-233.83 147.43,-221 145.05,-220.18 142.59,-219.33 140.11,-218.46"/>
<polygon fill="midnightblue" stroke="midnightblue" points="141.24,-215.14 130.65,-215.08 138.89,-221.74 141.24,-215.14"/>
</g>
<!-- Node7 -->
<g id="node7" class="node">
<title>Node7</title>
<g id="a_node7"><a xlink:title=" ">
<polygon fill="white" stroke="#bfbfbf" points="156.43,-196 156.43,-215 202.43,-215 202.43,-196 156.43,-196"/>
<text text-anchor="middle" x="179.43" y="-203" font-family="Helvetica,sans-Serif" font-size="10.00">cstdint</text>
</a>
</g>
</g>
<!-- Node6&#45;&gt;Node7 -->
<g id="edge6" class="edge">
<title>Node6&#45;&gt;Node7</title>
<path fill="none" stroke="midnightblue" d="M277.31,-257.4C255.76,-246.19 225.86,-230.64 204.79,-219.69"/>
<polygon fill="midnightblue" stroke="midnightblue" points="206.28,-216.52 195.79,-215.01 203.05,-222.73 206.28,-216.52"/>
</g>
<!-- Node8 -->
<g id="node8" class="node">
<title>Node8</title>
<g id="a_node8"><a xlink:href="write-barrier_8h.html" target="_top" xlink:title=" ">
<polygon fill="white" stroke="black" points="220.93,-190.5 220.93,-220.5 321.93,-220.5 321.93,-190.5 220.93,-190.5"/>
<text text-anchor="start" x="228.93" y="-208.5" font-family="Helvetica,sans-Serif" font-size="10.00">cppgc/internal/write</text>
<text text-anchor="middle" x="271.43" y="-197.5" font-family="Helvetica,sans-Serif" font-size="10.00">&#45;barrier.h</text>
</a>
</g>
</g>
<!-- Node6&#45;&gt;Node8 -->
<g id="edge8" class="edge">
<title>Node6&#45;&gt;Node8</title>
<path fill="none" stroke="midnightblue" d="M297.27,-257.4C293.16,-249.3 287.9,-238.94 283.2,-229.69"/>
<polygon fill="midnightblue" stroke="midnightblue" points="286.23,-227.91 278.58,-220.58 279.98,-231.08 286.23,-227.91"/>
</g>
<!-- Node6&#45;&gt;Node12 -->
<g id="edge21" class="edge">
<title>Node6&#45;&gt;Node12</title>
<path fill="none" stroke="midnightblue" d="M313.87,-257.14C319.76,-247.38 326.88,-233.93 330.43,-221 342.87,-175.69 342.18,-119.78 340.73,-91.22"/>
<polygon fill="midnightblue" stroke="midnightblue" points="344.22,-90.85 340.12,-81.07 337.23,-91.26 344.22,-90.85"/>
</g>
<!-- Node15 -->
<g id="node15" class="node">
<title>Node15</title>
<g id="a_node15"><a xlink:href="source-location_8h.html" target="_top" xlink:title=" ">
<polygon fill="white" stroke="black" points="378.93,-196 378.93,-215 497.93,-215 497.93,-196 378.93,-196"/>
<text text-anchor="middle" x="438.43" y="-203" font-family="Helvetica,sans-Serif" font-size="10.00">cppgc/source&#45;location.h</text>
</a>
</g>
</g>
<!-- Node6&#45;&gt;Node15 -->
<g id="edge18" class="edge">
<title>Node6&#45;&gt;Node15</title>
<path fill="none" stroke="midnightblue" d="M333.51,-257.4C356.81,-246.09 389.24,-230.36 411.86,-219.39"/>
<polygon fill="midnightblue" stroke="midnightblue" points="413.42,-222.52 420.89,-215.01 410.37,-216.22 413.42,-222.52"/>
</g>
<!-- Node9 -->
<g id="node9" class="node">
<title>Node9</title>
<g id="a_node9"><a xlink:href="api-constants_8h.html" target="_top" xlink:title=" ">
<polygon fill="white" stroke="black" points="57.93,-123.5 57.93,-153.5 150.93,-153.5 150.93,-123.5 57.93,-123.5"/>
<text text-anchor="start" x="65.93" y="-141.5" font-family="Helvetica,sans-Serif" font-size="10.00">cppgc/internal/api</text>
<text text-anchor="middle" x="104.43" y="-130.5" font-family="Helvetica,sans-Serif" font-size="10.00">&#45;constants.h</text>
</a>
</g>
</g>
<!-- Node8&#45;&gt;Node9 -->
<g id="edge9" class="edge">
<title>Node8&#45;&gt;Node9</title>
<path fill="none" stroke="midnightblue" d="M235.19,-190.4C210.25,-180.69 176.91,-167.71 150.13,-157.29"/>
<polygon fill="midnightblue" stroke="midnightblue" points="151.19,-153.94 140.6,-153.58 148.65,-160.47 151.19,-153.94"/>
</g>
<!-- Node8&#45;&gt;Node12 -->
<g id="edge17" class="edge">
<title>Node8&#45;&gt;Node12</title>
<path fill="none" stroke="midnightblue" d="M278.71,-190.37C291.23,-166.08 316.8,-116.44 330.42,-90"/>
<polygon fill="midnightblue" stroke="midnightblue" points="333.53,-91.59 335,-81.1 327.31,-88.38 333.53,-91.59"/>
</g>
<!-- Node13 -->
<g id="node13" class="node">
<title>Node13</title>
<g id="a_node13"><a xlink:href="process-heap_8h.html" target="_top" xlink:title=" ">
<polygon fill="white" stroke="black" points="168.93,-123.5 168.93,-153.5 283.93,-153.5 283.93,-123.5 168.93,-123.5"/>
<text text-anchor="start" x="176.93" y="-141.5" font-family="Helvetica,sans-Serif" font-size="10.00">cppgc/internal/process</text>
<text text-anchor="middle" x="226.43" y="-130.5" font-family="Helvetica,sans-Serif" font-size="10.00">&#45;heap.h</text>
</a>
</g>
</g>
<!-- Node8&#45;&gt;Node13 -->
<g id="edge13" class="edge">
<title>Node8&#45;&gt;Node13</title>
<path fill="none" stroke="midnightblue" d="M261.67,-190.4C255.89,-182.05 248.44,-171.29 241.88,-161.81"/>
<polygon fill="midnightblue" stroke="midnightblue" points="244.75,-159.81 236.18,-153.58 238.99,-163.79 244.75,-159.81"/>
</g>
<!-- Node10 -->
<g id="node10" class="node">
<title>Node10</title>
<g id="a_node10"><a xlink:title=" ">
<polygon fill="white" stroke="#bfbfbf" points="31.93,-62 31.93,-81 82.93,-81 82.93,-62 31.93,-62"/>
<text text-anchor="middle" x="57.43" y="-69" font-family="Helvetica,sans-Serif" font-size="10.00">stddef.h</text>
</a>
</g>
</g>
<!-- Node9&#45;&gt;Node10 -->
<g id="edge10" class="edge">
<title>Node9&#45;&gt;Node10</title>
<path fill="none" stroke="midnightblue" d="M94.23,-123.4C87.05,-113.46 77.39,-100.11 69.78,-89.57"/>
<polygon fill="midnightblue" stroke="midnightblue" points="72.41,-87.25 63.72,-81.19 66.74,-91.35 72.41,-87.25"/>
</g>
<!-- Node11 -->
<g id="node11" class="node">
<title>Node11</title>
<g id="a_node11"><a xlink:title=" ">
<polygon fill="white" stroke="#bfbfbf" points="101.43,-62 101.43,-81 149.43,-81 149.43,-62 101.43,-62"/>
<text text-anchor="middle" x="125.43" y="-69" font-family="Helvetica,sans-Serif" font-size="10.00">stdint.h</text>
</a>
</g>
</g>
<!-- Node9&#45;&gt;Node11 -->
<g id="edge11" class="edge">
<title>Node9&#45;&gt;Node11</title>
<path fill="none" stroke="midnightblue" d="M108.99,-123.4C112.07,-113.86 116.16,-101.18 119.5,-90.86"/>
<polygon fill="midnightblue" stroke="midnightblue" points="122.88,-91.79 122.62,-81.19 116.22,-89.63 122.88,-91.79"/>
</g>
<!-- Node9&#45;&gt;Node12 -->
<g id="edge12" class="edge">
<title>Node9&#45;&gt;Node12</title>
<path fill="none" stroke="midnightblue" d="M151.25,-124.94C188.68,-114.84 242.48,-100.21 289.43,-87 293.04,-85.99 296.78,-84.92 300.53,-83.84"/>
<polygon fill="midnightblue" stroke="midnightblue" points="301.73,-87.14 310.37,-81.01 299.79,-80.42 301.73,-87.14"/>
</g>
<!-- Node13&#45;&gt;Node12 -->
<g id="edge16" class="edge">
<title>Node13&#45;&gt;Node12</title>
<path fill="none" stroke="midnightblue" d="M250.95,-123.4C270.16,-112.34 296.73,-97.06 315.73,-86.13"/>
<polygon fill="midnightblue" stroke="midnightblue" points="317.72,-89.03 324.64,-81.01 314.23,-82.96 317.72,-89.03"/>
</g>
<!-- Node14 -->
<g id="node14" class="node">
<title>Node14</title>
<g id="a_node14"><a xlink:href="atomic-entry-flag_8h.html" target="_top" xlink:title=" ">
<polygon fill="white" stroke="black" points="170.43,-56.5 170.43,-86.5 280.43,-86.5 280.43,-56.5 170.43,-56.5"/>
<text text-anchor="start" x="178.43" y="-74.5" font-family="Helvetica,sans-Serif" font-size="10.00">cppgc/internal/atomic</text>
<text text-anchor="middle" x="225.43" y="-63.5" font-family="Helvetica,sans-Serif" font-size="10.00">&#45;entry&#45;flag.h</text>
</a>
</g>
</g>
<!-- Node13&#45;&gt;Node14 -->
<g id="edge14" class="edge">
<title>Node13&#45;&gt;Node14</title>
<path fill="none" stroke="midnightblue" d="M226.21,-123.4C226.09,-115.64 225.94,-105.81 225.81,-96.86"/>
<polygon fill="midnightblue" stroke="midnightblue" points="229.3,-96.52 225.65,-86.58 222.3,-96.63 229.3,-96.52"/>
</g>
<!-- Node14&#45;&gt;Node3 -->
<g id="edge15" class="edge">
<title>Node14&#45;&gt;Node3</title>
<path fill="none" stroke="midnightblue" d="M198.89,-56.4C180.77,-46.77 156.89,-34.09 138.99,-24.58"/>
<polygon fill="midnightblue" stroke="midnightblue" points="140.2,-21.26 129.73,-19.66 136.92,-27.44 140.2,-21.26"/>
</g>
<!-- Node15&#45;&gt;Node12 -->
<g id="edge20" class="edge">
<title>Node15&#45;&gt;Node12</title>
<path fill="none" stroke="midnightblue" d="M431.94,-195.84C415.71,-174.21 373.19,-117.51 351.92,-89.15"/>
<polygon fill="midnightblue" stroke="midnightblue" points="354.62,-86.92 345.82,-81.02 349.02,-91.12 354.62,-86.92"/>
</g>
<!-- Node16 -->
<g id="node16" class="node">
<title>Node16</title>
<g id="a_node16"><a xlink:title=" ">
<polygon fill="white" stroke="#bfbfbf" points="417.93,-129 417.93,-148 458.93,-148 458.93,-129 417.93,-129"/>
<text text-anchor="middle" x="438.43" y="-136" font-family="Helvetica,sans-Serif" font-size="10.00">string</text>
</a>
</g>
</g>
<!-- Node15&#45;&gt;Node16 -->
<g id="edge19" class="edge">
<title>Node15&#45;&gt;Node16</title>
<path fill="none" stroke="midnightblue" d="M438.43,-195.73C438.43,-186.18 438.43,-170.62 438.43,-158.28"/>
<polygon fill="midnightblue" stroke="midnightblue" points="441.93,-158.13 438.43,-148.13 434.93,-158.13 441.93,-158.13"/>
</g>
<!-- Node17&#45;&gt;Node5 -->
<g id="edge23" class="edge">
<title>Node17&#45;&gt;Node5</title>
<path fill="none" stroke="midnightblue" d="M173.18,-262.73C160.99,-252.31 140.41,-234.71 125.52,-221.97"/>
<polygon fill="midnightblue" stroke="midnightblue" points="127.39,-218.97 117.52,-215.13 122.84,-224.29 127.39,-218.97"/>
</g>
</g>
</svg>
