<?xml version="1.0" encoding="UTF-8" standalone="no"?>
<!DOCTYPE svg PUBLIC "-//W3C//DTD SVG 1.1//EN"
 "http://www.w3.org/Graphics/SVG/1.1/DTD/svg11.dtd">
<!-- Generated by graphviz version 2.44.0 ()
 -->
<!-- Title: Graphical Class Hierarchy Pages: 1 -->
<svg width="300pt" height="604pt"
 viewBox="0.00 0.00 300.00 603.50" xmlns="http://www.w3.org/2000/svg" xmlns:xlink="http://www.w3.org/1999/xlink">
<g id="graph0" class="graph" transform="scale(1 1) rotate(0) translate(4 599.5)">
<title>Graphical Class Hierarchy</title>
<polygon fill="white" stroke="transparent" points="-4,4 -4,-599.5 296,-599.5 296,4 -4,4"/>
<!-- Node33 -->
<g id="node1" class="node">
<title>Node33</title>
<g id="a_node1"><a xlink:title=" ">
<polygon fill="white" stroke="#bfbfbf" points="0,-274 0,-293 56,-293 56,-274 0,-274"/>
<text text-anchor="middle" x="28" y="-281" font-family="Helvetica,sans-Serif" font-size="10.00">true_type</text>
</a>
</g>
</g>
<!-- Node0 -->
<g id="node2" class="node">
<title>Node0</title>
<g id="a_node2"><a xlink:href="structcppgc_1_1internal_1_1HasFinalizeGarbageCollectedObject_3_01T_00_01void__t_3_01decltype_07sa61520700171f43425adcc1b691e5825.html" target="_top" xlink:title=" ">
<polygon fill="white" stroke="black" points="95.5,-532 95.5,-595 288.5,-595 288.5,-532 95.5,-532"/>
<text text-anchor="start" x="103.5" y="-583" font-family="Helvetica,sans-Serif" font-size="10.00">cppgc::internal::HasFinalize</text>
<text text-anchor="start" x="103.5" y="-572" font-family="Helvetica,sans-Serif" font-size="10.00">GarbageCollectedObject&lt;</text>
<text text-anchor="start" x="103.5" y="-561" font-family="Helvetica,sans-Serif" font-size="10.00"> T, void_t&lt; decltype(std</text>
<text text-anchor="start" x="103.5" y="-550" font-family="Helvetica,sans-Serif" font-size="10.00">::declval&lt; T &gt;().FinalizeGarbageCollected</text>
<text text-anchor="middle" x="192" y="-539" font-family="Helvetica,sans-Serif" font-size="10.00">Object())&gt; &gt;</text>
</a>
</g>
</g>
<!-- Node33&#45;&gt;Node0 -->
<g id="edge1" class="edge">
<title>Node33&#45;&gt;Node0</title>
<path fill="none" stroke="midnightblue" d="M28.62,-303.16C28.81,-347.75 35.39,-457.69 92,-522.5 94.94,-525.86 98.19,-528.96 101.68,-531.8"/>
<polygon fill="midnightblue" stroke="midnightblue" points="32.12,-303.1 28.68,-293.08 25.12,-303.05 32.12,-303.1"/>
</g>
<!-- Node35 -->
<g id="node3" class="node">
<title>Node35</title>
<g id="a_node3"><a xlink:href="structcppgc_1_1internal_1_1IsGarbageCollectedMixinType_3_01T_00_01void__t_3_01typename_01std_1_14b46fbef65c16ddacb2df750491360da.html" target="_top" xlink:title=" ">
<polygon fill="white" stroke="black" points="97.5,-450 97.5,-513 286.5,-513 286.5,-450 97.5,-450"/>
<text text-anchor="start" x="105.5" y="-501" font-family="Helvetica,sans-Serif" font-size="10.00">cppgc::internal::IsGarbage</text>
<text text-anchor="start" x="105.5" y="-490" font-family="Helvetica,sans-Serif" font-size="10.00">CollectedMixinType&lt; T,</text>
<text text-anchor="start" x="105.5" y="-479" font-family="Helvetica,sans-Serif" font-size="10.00"> void_t&lt; typename std::remove</text>
<text text-anchor="start" x="105.5" y="-468" font-family="Helvetica,sans-Serif" font-size="10.00">_const_t&lt; T &gt;::IsGarbageCollectedMixin</text>
<text text-anchor="middle" x="192" y="-457" font-family="Helvetica,sans-Serif" font-size="10.00">TypeMarker &gt; &gt;</text>
</a>
</g>
</g>
<!-- Node33&#45;&gt;Node35 -->
<g id="edge2" class="edge">
<title>Node33&#45;&gt;Node35</title>
<path fill="none" stroke="midnightblue" d="M31.85,-303.08C37.57,-335.71 53.39,-401.46 92,-440.5 95.27,-443.81 98.85,-446.86 102.64,-449.67"/>
<polygon fill="midnightblue" stroke="midnightblue" points="35.28,-302.33 30.23,-293.02 28.36,-303.45 35.28,-302.33"/>
</g>
<!-- Node36 -->
<g id="node4" class="node">
<title>Node36</title>
<g id="a_node4"><a xlink:href="structcppgc_1_1internal_1_1IsGarbageCollectedType_3_01T_00_01void__t_3_01typename_01std_1_1remov242c3cc73022aacbda81955038f7dedf.html" target="_top" xlink:title=" ">
<polygon fill="white" stroke="black" points="108.5,-368 108.5,-431 275.5,-431 275.5,-368 108.5,-368"/>
<text text-anchor="start" x="116.5" y="-419" font-family="Helvetica,sans-Serif" font-size="10.00">cppgc::internal::IsGarbage</text>
<text text-anchor="start" x="116.5" y="-408" font-family="Helvetica,sans-Serif" font-size="10.00">CollectedType&lt; T, void</text>
<text text-anchor="start" x="116.5" y="-397" font-family="Helvetica,sans-Serif" font-size="10.00">_t&lt; typename std::remove</text>
<text text-anchor="start" x="116.5" y="-386" font-family="Helvetica,sans-Serif" font-size="10.00">_const_t&lt; T &gt;::IsGarbageCollected</text>
<text text-anchor="middle" x="192" y="-375" font-family="Helvetica,sans-Serif" font-size="10.00">TypeMarker &gt; &gt;</text>
</a>
</g>
</g>
<!-- Node33&#45;&gt;Node36 -->
<g id="edge3" class="edge">
<title>Node33&#45;&gt;Node36</title>
<path fill="none" stroke="midnightblue" d="M40.65,-301.88C52.01,-318.56 70.67,-342.87 92,-358.5 97.1,-362.24 102.59,-365.71 108.29,-368.91"/>
<polygon fill="midnightblue" stroke="midnightblue" points="43.26,-299.48 34.83,-293.06 37.42,-303.34 43.26,-299.48"/>
</g>
<!-- Node37 -->
<g id="node5" class="node">
<title>Node37</title>
<g id="a_node5"><a xlink:href="structcppgc_1_1internal_1_1IsTraceable_3_01T_00_01void__t_3_01decltype_07std_1_1declval_3_01T_0168466c9ac6c89dfb7a8449cb1b8ecb7f.html" target="_top" xlink:title=" ">
<polygon fill="white" stroke="black" points="125,-296.5 125,-348.5 259,-348.5 259,-296.5 125,-296.5"/>
<text text-anchor="start" x="133" y="-336.5" font-family="Helvetica,sans-Serif" font-size="10.00">cppgc::internal::IsTraceable</text>
<text text-anchor="start" x="133" y="-325.5" font-family="Helvetica,sans-Serif" font-size="10.00">&lt; T, void_t&lt; decltype(std</text>
<text text-anchor="start" x="133" y="-314.5" font-family="Helvetica,sans-Serif" font-size="10.00">::declval&lt; T &gt;().Trace(std</text>
<text text-anchor="middle" x="192" y="-303.5" font-family="Helvetica,sans-Serif" font-size="10.00">::declval&lt; Visitor * &gt;()))&gt; &gt;</text>
</a>
</g>
</g>
<!-- Node33&#45;&gt;Node37 -->
<g id="edge4" class="edge">
<title>Node33&#45;&gt;Node37</title>
<path fill="none" stroke="midnightblue" d="M65.92,-292.39C83.4,-296.6 104.83,-301.75 124.97,-306.6"/>
<polygon fill="midnightblue" stroke="midnightblue" points="66.66,-288.97 56.12,-290.03 65.02,-295.77 66.66,-288.97"/>
</g>
<!-- Node38 -->
<g id="node6" class="node">
<title>Node38</title>
<g id="a_node6"><a xlink:href="structcppgc_1_1internal_1_1IsTraceMethodConst_3_01T_00_01void__t_3_01decltype_07std_1_1declval_340f310667d584b91bf9e1fcf69c55d0e.html" target="_top" xlink:title=" ">
<polygon fill="white" stroke="black" points="128,-214 128,-277 256,-277 256,-214 128,-214"/>
<text text-anchor="start" x="136" y="-265" font-family="Helvetica,sans-Serif" font-size="10.00">cppgc::internal::IsTrace</text>
<text text-anchor="start" x="136" y="-254" font-family="Helvetica,sans-Serif" font-size="10.00">MethodConst&lt; T, void_t</text>
<text text-anchor="start" x="136" y="-243" font-family="Helvetica,sans-Serif" font-size="10.00">&lt; decltype(std::declval</text>
<text text-anchor="start" x="136" y="-232" font-family="Helvetica,sans-Serif" font-size="10.00">&lt; const T &gt;().Trace(std</text>
<text text-anchor="middle" x="192" y="-221" font-family="Helvetica,sans-Serif" font-size="10.00">::declval&lt; Visitor * &gt;()))&gt; &gt;</text>
</a>
</g>
</g>
<!-- Node33&#45;&gt;Node38 -->
<g id="edge5" class="edge">
<title>Node33&#45;&gt;Node38</title>
<path fill="none" stroke="midnightblue" d="M66.05,-274.81C84.32,-270.52 106.85,-265.24 127.73,-260.34"/>
<polygon fill="midnightblue" stroke="midnightblue" points="65.05,-271.45 56.12,-277.14 66.65,-278.26 65.05,-271.45"/>
</g>
<!-- Node39 -->
<g id="node7" class="node">
<title>Node39</title>
<g id="a_node7"><a xlink:href="structcppgc_1_1internal_1_1IsWeak_3_01BasicCrossThreadPersistent_3_01T_00_01internal_1_1WeakCros6251904fc881150f13e418ea64da9a91.html" target="_top" xlink:title=" ">
<polygon fill="white" stroke="black" points="92,-142.5 92,-194.5 292,-194.5 292,-142.5 92,-142.5"/>
<text text-anchor="start" x="100" y="-182.5" font-family="Helvetica,sans-Serif" font-size="10.00">cppgc::internal::IsWeak</text>
<text text-anchor="start" x="100" y="-171.5" font-family="Helvetica,sans-Serif" font-size="10.00">&lt; BasicCrossThreadPersistent</text>
<text text-anchor="start" x="100" y="-160.5" font-family="Helvetica,sans-Serif" font-size="10.00">&lt; T, internal::WeakCrossThreadPersistent</text>
<text text-anchor="middle" x="192" y="-149.5" font-family="Helvetica,sans-Serif" font-size="10.00">Policy, LocationPolicy, CheckingPolicy &gt; &gt;</text>
</a>
</g>
</g>
<!-- Node33&#45;&gt;Node39 -->
<g id="edge6" class="edge">
<title>Node33&#45;&gt;Node39</title>
<path fill="none" stroke="midnightblue" d="M39.6,-264.95C50.62,-247.19 69.4,-220.74 92,-204.5 97.05,-200.87 102.5,-197.57 108.17,-194.58"/>
<polygon fill="midnightblue" stroke="midnightblue" points="36.43,-263.43 34.31,-273.81 42.44,-267.03 36.43,-263.43"/>
</g>
<!-- Node40 -->
<g id="node8" class="node">
<title>Node40</title>
<g id="a_node8"><a xlink:href="structcppgc_1_1internal_1_1IsWeak_3_01BasicPersistent_3_01T_00_01internal_1_1WeakPersistentPolica0137f7022c128522e140d084b881692.html" target="_top" xlink:title=" ">
<polygon fill="white" stroke="black" points="106.5,-71.5 106.5,-123.5 277.5,-123.5 277.5,-71.5 106.5,-71.5"/>
<text text-anchor="start" x="114.5" y="-111.5" font-family="Helvetica,sans-Serif" font-size="10.00">cppgc::internal::IsWeak</text>
<text text-anchor="start" x="114.5" y="-100.5" font-family="Helvetica,sans-Serif" font-size="10.00">&lt; BasicPersistent&lt; T,</text>
<text text-anchor="start" x="114.5" y="-89.5" font-family="Helvetica,sans-Serif" font-size="10.00"> internal::WeakPersistentPolicy,</text>
<text text-anchor="middle" x="192" y="-78.5" font-family="Helvetica,sans-Serif" font-size="10.00"> LocationPolicy, CheckingPolicy &gt; &gt;</text>
</a>
</g>
</g>
<!-- Node33&#45;&gt;Node40 -->
<g id="edge7" class="edge">
<title>Node33&#45;&gt;Node40</title>
<path fill="none" stroke="midnightblue" d="M32.09,-263.73C38.07,-231.99 54.11,-169.58 92,-133.5 96.37,-129.34 101.26,-125.65 106.46,-122.39"/>
<polygon fill="midnightblue" stroke="midnightblue" points="28.58,-263.48 30.33,-273.93 35.48,-264.67 28.58,-263.48"/>
</g>
<!-- Node41 -->
<g id="node9" class="node">
<title>Node41</title>
<g id="a_node9"><a xlink:href="structcppgc_1_1internal_1_1IsWeak_3_01internal_1_1BasicMember_3_01T_00_01WeakMemberTag_00_01Writdeb64fe096629f63a5b8562f6a14743b.html" target="_top" xlink:title=" ">
<polygon fill="white" stroke="black" points="107.5,-0.5 107.5,-52.5 276.5,-52.5 276.5,-0.5 107.5,-0.5"/>
<text text-anchor="start" x="115.5" y="-40.5" font-family="Helvetica,sans-Serif" font-size="10.00">cppgc::internal::IsWeak</text>
<text text-anchor="start" x="115.5" y="-29.5" font-family="Helvetica,sans-Serif" font-size="10.00">&lt; internal::BasicMember</text>
<text text-anchor="start" x="115.5" y="-18.5" font-family="Helvetica,sans-Serif" font-size="10.00">&lt; T, WeakMemberTag, WriteBarrier</text>
<text text-anchor="middle" x="192" y="-7.5" font-family="Helvetica,sans-Serif" font-size="10.00">Policy, CheckingPolicy &gt; &gt;</text>
</a>
</g>
</g>
<!-- Node33&#45;&gt;Node41 -->
<g id="edge8" class="edge">
<title>Node33&#45;&gt;Node41</title>
<path fill="none" stroke="midnightblue" d="M28.95,-263.42C29.93,-220.75 38.2,-120.27 92,-62.5 96.49,-57.68 101.67,-53.51 107.26,-49.89"/>
<polygon fill="midnightblue" stroke="midnightblue" points="25.45,-263.58 28.83,-273.62 32.45,-263.66 25.45,-263.58"/>
</g>
</g>
</svg>
