<?xml version="1.0" encoding="UTF-8" standalone="no"?>
<!DOCTYPE svg PUBLIC "-//W3C//DTD SVG 1.1//EN"
 "http://www.w3.org/Graphics/SVG/1.1/DTD/svg11.dtd">
<!-- Generated by graphviz version 2.44.0 ()
 -->
<!-- Title: include/cppgc/persistent.h Pages: 1 -->
<svg width="1154pt" height="531pt"
 viewBox="0.00 0.00 1154.22 531.00" xmlns="http://www.w3.org/2000/svg" xmlns:xlink="http://www.w3.org/1999/xlink">
<g id="graph0" class="graph" transform="scale(1 1) rotate(0) translate(4 527)">
<title>include/cppgc/persistent.h</title>
<polygon fill="white" stroke="transparent" points="-4,4 -4,-527 1150.22,-527 1150.22,4 -4,4"/>
<!-- Node1 -->
<g id="node1" class="node">
<title>Node1</title>
<g id="a_node1"><a xlink:title=" ">
<polygon fill="#bfbfbf" stroke="black" points="296.22,-503.5 296.22,-522.5 426.22,-522.5 426.22,-503.5 296.22,-503.5"/>
<text text-anchor="middle" x="361.22" y="-510.5" font-family="Helvetica,sans-Serif" font-size="10.00">include/cppgc/persistent.h</text>
</a>
</g>
</g>
<!-- Node2 -->
<g id="node2" class="node">
<title>Node2</title>
<g id="a_node2"><a xlink:title=" ">
<polygon fill="white" stroke="#bfbfbf" points="1070.22,-196 1070.22,-215 1132.22,-215 1132.22,-196 1070.22,-196"/>
<text text-anchor="middle" x="1101.22" y="-203" font-family="Helvetica,sans-Serif" font-size="10.00">type_traits</text>
</a>
</g>
</g>
<!-- Node1&#45;&gt;Node2 -->
<g id="edge1" class="edge">
<title>Node1&#45;&gt;Node2</title>
<path fill="none" stroke="midnightblue" d="M426.4,-510.02C563.63,-505.41 878.26,-492.35 982.22,-467 1059.3,-448.21 1146.22,-475.84 1146.22,-396.5 1146.22,-396.5 1146.22,-396.5 1146.22,-333 1146.22,-292 1124.99,-247.63 1111.69,-223.87"/>
<polygon fill="midnightblue" stroke="midnightblue" points="1114.6,-221.92 1106.56,-215.02 1108.55,-225.43 1114.6,-221.92"/>
</g>
<!-- Node3 -->
<g id="node3" class="node">
<title>Node3</title>
<g id="a_node3"><a xlink:href="persistent-node_8h.html" target="_top" xlink:title=" ">
<polygon fill="white" stroke="black" points="30.72,-380.5 30.72,-410.5 153.72,-410.5 153.72,-380.5 30.72,-380.5"/>
<text text-anchor="start" x="38.72" y="-398.5" font-family="Helvetica,sans-Serif" font-size="10.00">cppgc/internal/persistent</text>
<text text-anchor="middle" x="92.22" y="-387.5" font-family="Helvetica,sans-Serif" font-size="10.00">&#45;node.h</text>
</a>
</g>
</g>
<!-- Node1&#45;&gt;Node3 -->
<g id="edge2" class="edge">
<title>Node1&#45;&gt;Node3</title>
<path fill="none" stroke="midnightblue" d="M296.14,-505.35C257.25,-499.35 207.87,-488.07 168.22,-467 145.49,-454.92 124.43,-434.32 110.27,-418.5"/>
<polygon fill="midnightblue" stroke="midnightblue" points="112.73,-415.99 103.53,-410.73 107.44,-420.58 112.73,-415.99"/>
</g>
<!-- Node8 -->
<g id="node8" class="node">
<title>Node8</title>
<g id="a_node8"><a xlink:href="source-location_8h.html" target="_top" xlink:title=" ">
<polygon fill="white" stroke="black" points="356.72,-196 356.72,-215 475.72,-215 475.72,-196 356.72,-196"/>
<text text-anchor="middle" x="416.22" y="-203" font-family="Helvetica,sans-Serif" font-size="10.00">cppgc/source&#45;location.h</text>
</a>
</g>
</g>
<!-- Node1&#45;&gt;Node8 -->
<g id="edge32" class="edge">
<title>Node1&#45;&gt;Node8</title>
<path fill="none" stroke="midnightblue" d="M362.81,-503.19C370.32,-461.46 402.39,-283.33 412.89,-225.04"/>
<polygon fill="midnightblue" stroke="midnightblue" points="416.36,-225.52 414.68,-215.06 409.47,-224.28 416.36,-225.52"/>
</g>
<!-- Node10 -->
<g id="node10" class="node">
<title>Node10</title>
<g id="a_node10"><a xlink:href="v8config_8h.html" target="_top" xlink:title=" ">
<polygon fill="white" stroke="black" points="470.22,-62 470.22,-81 530.22,-81 530.22,-62 470.22,-62"/>
<text text-anchor="middle" x="500.22" y="-69" font-family="Helvetica,sans-Serif" font-size="10.00">v8config.h</text>
</a>
</g>
</g>
<!-- Node1&#45;&gt;Node10 -->
<g id="edge77" class="edge">
<title>Node1&#45;&gt;Node10</title>
<path fill="none" stroke="midnightblue" d="M352.87,-503.38C326.2,-476.04 240.35,-389.16 163.22,-324 142.85,-306.79 129.7,-310.4 115.22,-288 75.42,-226.41 59.79,-173.23 113.22,-123 138.24,-99.49 366.16,-81.56 460.07,-75.1"/>
<polygon fill="midnightblue" stroke="midnightblue" points="460.31,-78.59 470.05,-74.42 459.84,-71.61 460.31,-78.59"/>
</g>
<!-- Node12 -->
<g id="node12" class="node">
<title>Node12</title>
<g id="a_node12"><a xlink:href="type-traits_8h.html" target="_top" xlink:title=" ">
<polygon fill="white" stroke="black" points="982.22,-263 982.22,-282 1078.22,-282 1078.22,-263 982.22,-263"/>
<text text-anchor="middle" x="1030.22" y="-270" font-family="Helvetica,sans-Serif" font-size="10.00">cppgc/type&#45;traits.h</text>
</a>
</g>
</g>
<!-- Node1&#45;&gt;Node12 -->
<g id="edge33" class="edge">
<title>Node1&#45;&gt;Node12</title>
<path fill="none" stroke="midnightblue" d="M426.5,-512.62C582.67,-512.6 970.97,-503.07 1053.22,-411 1083.23,-377.42 1057.47,-320.02 1041.15,-291.16"/>
<polygon fill="midnightblue" stroke="midnightblue" points="1043.98,-289.06 1035.88,-282.23 1037.95,-292.62 1043.98,-289.06"/>
</g>
<!-- Node13 -->
<g id="node13" class="node">
<title>Node13</title>
<g id="a_node13"><a xlink:href="pointer-policies_8h.html" target="_top" xlink:title=" ">
<polygon fill="white" stroke="black" points="461.22,-257.5 461.22,-287.5 571.22,-287.5 571.22,-257.5 461.22,-257.5"/>
<text text-anchor="start" x="469.22" y="-275.5" font-family="Helvetica,sans-Serif" font-size="10.00">cppgc/internal/pointer</text>
<text text-anchor="middle" x="516.22" y="-264.5" font-family="Helvetica,sans-Serif" font-size="10.00">&#45;policies.h</text>
</a>
</g>
</g>
<!-- Node1&#45;&gt;Node13 -->
<g id="edge17" class="edge">
<title>Node1&#45;&gt;Node13</title>
<path fill="none" stroke="midnightblue" d="M366.71,-503.34C383.69,-476.55 436.98,-392.73 482.22,-324 488.26,-314.83 495,-304.78 500.88,-296.08"/>
<polygon fill="midnightblue" stroke="midnightblue" points="503.91,-297.84 506.62,-287.6 498.12,-293.92 503.91,-297.84"/>
</g>
<!-- Node22 -->
<g id="node22" class="node">
<title>Node22</title>
<g id="a_node22"><a xlink:href="visitor_8h.html" target="_top" xlink:title=" ">
<polygon fill="white" stroke="black" points="611.22,-447.5 611.22,-466.5 691.22,-466.5 691.22,-447.5 611.22,-447.5"/>
<text text-anchor="middle" x="651.22" y="-454.5" font-family="Helvetica,sans-Serif" font-size="10.00">cppgc/visitor.h</text>
</a>
</g>
</g>
<!-- Node1&#45;&gt;Node22 -->
<g id="edge34" class="edge">
<title>Node1&#45;&gt;Node22</title>
<path fill="none" stroke="midnightblue" d="M407.18,-503.44C459.99,-493.61 546.39,-477.52 600.96,-467.36"/>
<polygon fill="midnightblue" stroke="midnightblue" points="601.9,-470.74 611.09,-465.47 600.62,-463.86 601.9,-470.74"/>
</g>
<!-- Node4 -->
<g id="node4" class="node">
<title>Node4</title>
<g id="a_node4"><a xlink:title=" ">
<polygon fill="white" stroke="#bfbfbf" points="116.22,-324.5 116.22,-343.5 154.22,-343.5 154.22,-324.5 116.22,-324.5"/>
<text text-anchor="middle" x="135.22" y="-331.5" font-family="Helvetica,sans-Serif" font-size="10.00">array</text>
</a>
</g>
</g>
<!-- Node3&#45;&gt;Node4 -->
<g id="edge3" class="edge">
<title>Node3&#45;&gt;Node4</title>
<path fill="none" stroke="midnightblue" d="M102.42,-380.4C108.6,-371.84 116.53,-360.87 123.04,-351.86"/>
<polygon fill="midnightblue" stroke="midnightblue" points="125.95,-353.81 128.97,-343.66 120.27,-349.71 125.95,-353.81"/>
</g>
<!-- Node5 -->
<g id="node5" class="node">
<title>Node5</title>
<g id="a_node5"><a xlink:title=" ">
<polygon fill="white" stroke="#bfbfbf" points="226.72,-62 226.72,-81 277.72,-81 277.72,-62 226.72,-62"/>
<text text-anchor="middle" x="252.22" y="-69" font-family="Helvetica,sans-Serif" font-size="10.00">memory</text>
</a>
</g>
</g>
<!-- Node3&#45;&gt;Node5 -->
<g id="edge4" class="edge">
<title>Node3&#45;&gt;Node5</title>
<path fill="none" stroke="midnightblue" d="M66.21,-380.45C52.05,-371.64 35.23,-359.09 24.22,-344 4.72,-317.26 0.22,-306.6 0.22,-273.5 0.22,-273.5 0.22,-273.5 0.22,-204.5 0.22,-166.74 -3.37,-148.77 24.22,-123 51.77,-97.28 159.57,-82.28 216.52,-76"/>
<polygon fill="midnightblue" stroke="midnightblue" points="216.96,-79.47 226.53,-74.93 216.22,-72.51 216.96,-79.47"/>
</g>
<!-- Node6 -->
<g id="node6" class="node">
<title>Node6</title>
<g id="a_node6"><a xlink:title=" ">
<polygon fill="white" stroke="#bfbfbf" points="180.22,-196 180.22,-215 224.22,-215 224.22,-196 180.22,-196"/>
<text text-anchor="middle" x="202.22" y="-203" font-family="Helvetica,sans-Serif" font-size="10.00">vector</text>
</a>
</g>
</g>
<!-- Node3&#45;&gt;Node6 -->
<g id="edge5" class="edge">
<title>Node3&#45;&gt;Node6</title>
<path fill="none" stroke="midnightblue" d="M93.28,-380.37C94.81,-365.67 98.5,-342.3 107.22,-324 126.84,-282.84 163.61,-243.41 185.2,-222.33"/>
<polygon fill="midnightblue" stroke="midnightblue" points="187.86,-224.63 192.66,-215.19 183.02,-219.58 187.86,-224.63"/>
</g>
<!-- Node7 -->
<g id="node7" class="node">
<title>Node7</title>
<g id="a_node7"><a xlink:href="logging_8h.html" target="_top" xlink:title=" ">
<polygon fill="white" stroke="black" points="210.72,-324.5 210.72,-343.5 329.72,-343.5 329.72,-324.5 210.72,-324.5"/>
<text text-anchor="middle" x="270.22" y="-331.5" font-family="Helvetica,sans-Serif" font-size="10.00">cppgc/internal/logging.h</text>
</a>
</g>
</g>
<!-- Node3&#45;&gt;Node7 -->
<g id="edge6" class="edge">
<title>Node3&#45;&gt;Node7</title>
<path fill="none" stroke="midnightblue" d="M134.41,-380.4C165.03,-370.16 205.99,-356.47 234.9,-346.81"/>
<polygon fill="midnightblue" stroke="midnightblue" points="236.21,-350.06 244.58,-343.57 233.99,-343.42 236.21,-350.06"/>
</g>
<!-- Node3&#45;&gt;Node10 -->
<g id="edge16" class="edge">
<title>Node3&#45;&gt;Node10</title>
<path fill="none" stroke="midnightblue" d="M81.04,-380.15C65.22,-358.38 38.22,-315.14 38.22,-273.5 38.22,-273.5 38.22,-273.5 38.22,-204.5 38.22,-166.74 33.33,-147.31 62.22,-123 77.37,-110.25 354.12,-85.13 459.73,-75.95"/>
<polygon fill="midnightblue" stroke="midnightblue" points="460.33,-79.42 469.99,-75.07 459.73,-72.44 460.33,-79.42"/>
</g>
<!-- Node11 -->
<g id="node11" class="node">
<title>Node11</title>
<g id="a_node11"><a xlink:href="trace-trait_8h.html" target="_top" xlink:title=" ">
<polygon fill="white" stroke="black" points="817.72,-324.5 817.72,-343.5 912.72,-343.5 912.72,-324.5 817.72,-324.5"/>
<text text-anchor="middle" x="865.22" y="-331.5" font-family="Helvetica,sans-Serif" font-size="10.00">cppgc/trace&#45;trait.h</text>
</a>
</g>
</g>
<!-- Node3&#45;&gt;Node11 -->
<g id="edge11" class="edge">
<title>Node3&#45;&gt;Node11</title>
<path fill="none" stroke="midnightblue" d="M153.85,-390.79C274.82,-383.33 551.82,-365.38 784.22,-344 791.77,-343.31 799.7,-342.51 807.53,-341.68"/>
<polygon fill="midnightblue" stroke="midnightblue" points="808.15,-345.13 817.71,-340.58 807.4,-338.18 808.15,-345.13"/>
</g>
<!-- Node7&#45;&gt;Node8 -->
<g id="edge7" class="edge">
<title>Node7&#45;&gt;Node8</title>
<path fill="none" stroke="midnightblue" d="M277.95,-324.04C290.9,-309.26 318.14,-279.2 344.22,-257 360.02,-243.56 379.32,-230.17 393.96,-220.55"/>
<polygon fill="midnightblue" stroke="midnightblue" points="395.91,-223.46 402.4,-215.09 392.1,-217.59 395.91,-223.46"/>
</g>
<!-- Node7&#45;&gt;Node10 -->
<g id="edge10" class="edge">
<title>Node7&#45;&gt;Node10</title>
<path fill="none" stroke="midnightblue" d="M229.22,-324.48C194.64,-316.37 149.07,-303.16 138.22,-288 95.55,-228.36 90.09,-178.32 138.22,-123 159.14,-98.97 369.96,-81.57 459.91,-75.18"/>
<polygon fill="midnightblue" stroke="midnightblue" points="460.27,-78.66 470,-74.47 459.78,-71.68 460.27,-78.66"/>
</g>
<!-- Node9 -->
<g id="node9" class="node">
<title>Node9</title>
<g id="a_node9"><a xlink:title=" ">
<polygon fill="white" stroke="#bfbfbf" points="808.72,-62 808.72,-81 849.72,-81 849.72,-62 808.72,-62"/>
<text text-anchor="middle" x="829.22" y="-69" font-family="Helvetica,sans-Serif" font-size="10.00">string</text>
</a>
</g>
</g>
<!-- Node8&#45;&gt;Node9 -->
<g id="edge8" class="edge">
<title>Node8&#45;&gt;Node9</title>
<path fill="none" stroke="midnightblue" d="M475.92,-196.33C491.33,-194.24 507.89,-192.02 523.22,-190 585.86,-181.76 757.14,-194.97 805.22,-154 823.35,-138.56 828.16,-110.19 829.24,-91.33"/>
<polygon fill="midnightblue" stroke="midnightblue" points="832.74,-91.35 829.52,-81.26 825.74,-91.16 832.74,-91.35"/>
</g>
<!-- Node8&#45;&gt;Node10 -->
<g id="edge9" class="edge">
<title>Node8&#45;&gt;Node10</title>
<path fill="none" stroke="midnightblue" d="M421.74,-195.84C435.44,-174.3 471.27,-118 489.39,-89.52"/>
<polygon fill="midnightblue" stroke="midnightblue" points="492.39,-91.34 494.8,-81.02 486.48,-87.58 492.39,-91.34"/>
</g>
<!-- Node11&#45;&gt;Node2 -->
<g id="edge12" class="edge">
<title>Node11&#45;&gt;Node2</title>
<path fill="none" stroke="midnightblue" d="M875.71,-324.33C894.39,-309.19 935.08,-277.57 973.22,-257 1002.78,-241.07 1038.46,-227.41 1064.64,-218.33"/>
<polygon fill="midnightblue" stroke="midnightblue" points="1065.83,-221.62 1074.17,-215.08 1063.58,-214.99 1065.83,-221.62"/>
</g>
<!-- Node11&#45;&gt;Node10 -->
<g id="edge15" class="edge">
<title>Node11&#45;&gt;Node10</title>
<path fill="none" stroke="midnightblue" d="M855.86,-324.4C838.77,-309.08 800.91,-276.82 764.22,-257 722.67,-234.55 704.72,-245.31 664.22,-221 626.19,-198.16 621.58,-185.39 590.22,-154 577.1,-140.86 575.68,-135.79 562.22,-123 548.81,-110.26 532.57,-97.1 520.07,-87.41"/>
<polygon fill="midnightblue" stroke="midnightblue" points="522.16,-84.6 512.1,-81.3 517.91,-90.16 522.16,-84.6"/>
</g>
<!-- Node11&#45;&gt;Node12 -->
<g id="edge13" class="edge">
<title>Node11&#45;&gt;Node12</title>
<path fill="none" stroke="midnightblue" d="M888.87,-324.48C917.17,-314.27 964.76,-297.11 996.81,-285.55"/>
<polygon fill="midnightblue" stroke="midnightblue" points="998.41,-288.69 1006.63,-282.01 996.03,-282.11 998.41,-288.69"/>
</g>
<!-- Node12&#45;&gt;Node2 -->
<g id="edge14" class="edge">
<title>Node12&#45;&gt;Node2</title>
<path fill="none" stroke="midnightblue" d="M1039.8,-262.73C1051.19,-252.31 1070.41,-234.71 1084.32,-221.97"/>
<polygon fill="midnightblue" stroke="midnightblue" points="1086.79,-224.46 1091.8,-215.13 1082.06,-219.3 1086.79,-224.46"/>
</g>
<!-- Node13&#45;&gt;Node2 -->
<g id="edge19" class="edge">
<title>Node13&#45;&gt;Node2</title>
<path fill="none" stroke="midnightblue" d="M571.28,-266.61C683.87,-256.51 937.08,-233.28 1023.22,-221 1035.25,-219.29 1048.24,-217.03 1060.11,-214.82"/>
<polygon fill="midnightblue" stroke="midnightblue" points="1061.03,-218.2 1070.2,-212.89 1059.72,-211.33 1061.03,-218.2"/>
</g>
<!-- Node13&#45;&gt;Node8 -->
<g id="edge30" class="edge">
<title>Node13&#45;&gt;Node8</title>
<path fill="none" stroke="midnightblue" d="M494.53,-257.4C477.76,-246.5 454.65,-231.48 437.89,-220.58"/>
<polygon fill="midnightblue" stroke="midnightblue" points="439.6,-217.52 429.31,-215.01 435.79,-223.39 439.6,-217.52"/>
</g>
<!-- Node13&#45;&gt;Node10 -->
<g id="edge31" class="edge">
<title>Node13&#45;&gt;Node10</title>
<path fill="none" stroke="midnightblue" d="M515.07,-257.19C512.24,-221.99 504.94,-131.17 501.75,-91.51"/>
<polygon fill="midnightblue" stroke="midnightblue" points="505.23,-91.05 500.94,-81.36 498.25,-91.61 505.23,-91.05"/>
</g>
<!-- Node14 -->
<g id="node14" class="node">
<title>Node14</title>
<g id="a_node14"><a xlink:title=" ">
<polygon fill="white" stroke="#bfbfbf" points="532.22,-196 532.22,-215 578.22,-215 578.22,-196 532.22,-196"/>
<text text-anchor="middle" x="555.22" y="-203" font-family="Helvetica,sans-Serif" font-size="10.00">cstdint</text>
</a>
</g>
</g>
<!-- Node13&#45;&gt;Node14 -->
<g id="edge18" class="edge">
<title>Node13&#45;&gt;Node14</title>
<path fill="none" stroke="midnightblue" d="M524.69,-257.4C530.59,-247.56 538.5,-234.38 544.79,-223.89"/>
<polygon fill="midnightblue" stroke="midnightblue" points="547.86,-225.57 550.01,-215.19 541.86,-221.97 547.86,-225.57"/>
</g>
<!-- Node15 -->
<g id="node15" class="node">
<title>Node15</title>
<g id="a_node15"><a xlink:href="write-barrier_8h.html" target="_top" xlink:title=" ">
<polygon fill="white" stroke="black" points="779.72,-190.5 779.72,-220.5 880.72,-220.5 880.72,-190.5 779.72,-190.5"/>
<text text-anchor="start" x="787.72" y="-208.5" font-family="Helvetica,sans-Serif" font-size="10.00">cppgc/internal/write</text>
<text text-anchor="middle" x="830.22" y="-197.5" font-family="Helvetica,sans-Serif" font-size="10.00">&#45;barrier.h</text>
</a>
</g>
</g>
<!-- Node13&#45;&gt;Node15 -->
<g id="edge20" class="edge">
<title>Node13&#45;&gt;Node15</title>
<path fill="none" stroke="midnightblue" d="M571.34,-261.33C620.87,-252.03 695.82,-237.53 769.5,-221.34"/>
<polygon fill="midnightblue" stroke="midnightblue" points="770.4,-224.72 779.41,-219.14 768.89,-217.88 770.4,-224.72"/>
</g>
<!-- Node15&#45;&gt;Node10 -->
<g id="edge29" class="edge">
<title>Node15&#45;&gt;Node10</title>
<path fill="none" stroke="midnightblue" d="M780.56,-190.42C741.81,-179.09 691.43,-163.55 672.22,-154 650.81,-143.35 649.28,-134.36 628.22,-123 598.68,-107.06 562.99,-93.4 536.82,-84.32"/>
<polygon fill="midnightblue" stroke="midnightblue" points="537.88,-80.99 527.28,-81.07 535.62,-87.61 537.88,-80.99"/>
</g>
<!-- Node16 -->
<g id="node16" class="node">
<title>Node16</title>
<g id="a_node16"><a xlink:href="api-constants_8h.html" target="_top" xlink:title=" ">
<polygon fill="white" stroke="black" points="943.72,-123.5 943.72,-153.5 1036.72,-153.5 1036.72,-123.5 943.72,-123.5"/>
<text text-anchor="start" x="951.72" y="-141.5" font-family="Helvetica,sans-Serif" font-size="10.00">cppgc/internal/api</text>
<text text-anchor="middle" x="990.22" y="-130.5" font-family="Helvetica,sans-Serif" font-size="10.00">&#45;constants.h</text>
</a>
</g>
</g>
<!-- Node15&#45;&gt;Node16 -->
<g id="edge21" class="edge">
<title>Node15&#45;&gt;Node16</title>
<path fill="none" stroke="midnightblue" d="M864.94,-190.4C888.74,-180.73 920.51,-167.82 946.1,-157.43"/>
<polygon fill="midnightblue" stroke="midnightblue" points="947.63,-160.58 955.58,-153.58 944.99,-154.1 947.63,-160.58"/>
</g>
<!-- Node19 -->
<g id="node19" class="node">
<title>Node19</title>
<g id="a_node19"><a xlink:href="process-heap_8h.html" target="_top" xlink:title=" ">
<polygon fill="white" stroke="black" points="680.72,-123.5 680.72,-153.5 795.72,-153.5 795.72,-123.5 680.72,-123.5"/>
<text text-anchor="start" x="688.72" y="-141.5" font-family="Helvetica,sans-Serif" font-size="10.00">cppgc/internal/process</text>
<text text-anchor="middle" x="738.22" y="-130.5" font-family="Helvetica,sans-Serif" font-size="10.00">&#45;heap.h</text>
</a>
</g>
</g>
<!-- Node15&#45;&gt;Node19 -->
<g id="edge25" class="edge">
<title>Node15&#45;&gt;Node19</title>
<path fill="none" stroke="midnightblue" d="M810.26,-190.4C797.48,-181.37 780.71,-169.51 766.56,-159.52"/>
<polygon fill="midnightblue" stroke="midnightblue" points="768.34,-156.49 758.15,-153.58 764.3,-162.21 768.34,-156.49"/>
</g>
<!-- Node16&#45;&gt;Node10 -->
<g id="edge24" class="edge">
<title>Node16&#45;&gt;Node10</title>
<path fill="none" stroke="midnightblue" d="M943.52,-124.7C940.72,-124.09 937.94,-123.51 935.22,-123 859.87,-108.77 633.17,-85.61 540.43,-76.43"/>
<polygon fill="midnightblue" stroke="midnightblue" points="540.62,-72.93 530.32,-75.43 539.93,-79.9 540.62,-72.93"/>
</g>
<!-- Node17 -->
<g id="node17" class="node">
<title>Node17</title>
<g id="a_node17"><a xlink:title=" ">
<polygon fill="white" stroke="#bfbfbf" points="999.72,-62 999.72,-81 1050.72,-81 1050.72,-62 999.72,-62"/>
<text text-anchor="middle" x="1025.22" y="-69" font-family="Helvetica,sans-Serif" font-size="10.00">stddef.h</text>
</a>
</g>
</g>
<!-- Node16&#45;&gt;Node17 -->
<g id="edge22" class="edge">
<title>Node16&#45;&gt;Node17</title>
<path fill="none" stroke="midnightblue" d="M997.82,-123.4C1003.06,-113.66 1010.07,-100.65 1015.69,-90.21"/>
<polygon fill="midnightblue" stroke="midnightblue" points="1018.88,-91.66 1020.54,-81.19 1012.72,-88.34 1018.88,-91.66"/>
</g>
<!-- Node18 -->
<g id="node18" class="node">
<title>Node18</title>
<g id="a_node18"><a xlink:title=" ">
<polygon fill="white" stroke="#bfbfbf" points="933.22,-62 933.22,-81 981.22,-81 981.22,-62 933.22,-62"/>
<text text-anchor="middle" x="957.22" y="-69" font-family="Helvetica,sans-Serif" font-size="10.00">stdint.h</text>
</a>
</g>
</g>
<!-- Node16&#45;&gt;Node18 -->
<g id="edge23" class="edge">
<title>Node16&#45;&gt;Node18</title>
<path fill="none" stroke="midnightblue" d="M983.06,-123.4C978.12,-113.66 971.51,-100.65 966.22,-90.21"/>
<polygon fill="midnightblue" stroke="midnightblue" points="969.29,-88.53 961.64,-81.19 963.05,-91.7 969.29,-88.53"/>
</g>
<!-- Node19&#45;&gt;Node10 -->
<g id="edge28" class="edge">
<title>Node19&#45;&gt;Node10</title>
<path fill="none" stroke="midnightblue" d="M686.88,-123.48C642.91,-111.47 580.5,-94.42 540.18,-83.41"/>
<polygon fill="midnightblue" stroke="midnightblue" points="541,-80.01 530.43,-80.75 539.16,-86.76 541,-80.01"/>
</g>
<!-- Node20 -->
<g id="node20" class="node">
<title>Node20</title>
<g id="a_node20"><a xlink:href="atomic-entry-flag_8h.html" target="_top" xlink:title=" ">
<polygon fill="white" stroke="black" points="680.22,-56.5 680.22,-86.5 790.22,-86.5 790.22,-56.5 680.22,-56.5"/>
<text text-anchor="start" x="688.22" y="-74.5" font-family="Helvetica,sans-Serif" font-size="10.00">cppgc/internal/atomic</text>
<text text-anchor="middle" x="735.22" y="-63.5" font-family="Helvetica,sans-Serif" font-size="10.00">&#45;entry&#45;flag.h</text>
</a>
</g>
</g>
<!-- Node19&#45;&gt;Node20 -->
<g id="edge26" class="edge">
<title>Node19&#45;&gt;Node20</title>
<path fill="none" stroke="midnightblue" d="M737.57,-123.4C737.22,-115.64 736.76,-105.81 736.35,-96.86"/>
<polygon fill="midnightblue" stroke="midnightblue" points="739.83,-96.4 735.87,-86.58 732.84,-96.73 739.83,-96.4"/>
</g>
<!-- Node21 -->
<g id="node21" class="node">
<title>Node21</title>
<g id="a_node21"><a xlink:title=" ">
<polygon fill="white" stroke="#bfbfbf" points="897.22,-0.5 897.22,-19.5 943.22,-19.5 943.22,-0.5 897.22,-0.5"/>
<text text-anchor="middle" x="920.22" y="-7.5" font-family="Helvetica,sans-Serif" font-size="10.00">atomic</text>
</a>
</g>
</g>
<!-- Node20&#45;&gt;Node21 -->
<g id="edge27" class="edge">
<title>Node20&#45;&gt;Node21</title>
<path fill="none" stroke="midnightblue" d="M779.07,-56.4C812.28,-45.72 857.2,-31.27 887.36,-21.57"/>
<polygon fill="midnightblue" stroke="midnightblue" points="888.54,-24.87 896.99,-18.47 886.4,-18.2 888.54,-24.87"/>
</g>
<!-- Node22&#45;&gt;Node7 -->
<g id="edge59" class="edge">
<title>Node22&#45;&gt;Node7</title>
<path fill="none" stroke="midnightblue" d="M610.84,-451.33C564.6,-445.24 487.01,-432.7 423.22,-411 374.83,-394.54 322.25,-365.79 293.06,-348.77"/>
<polygon fill="midnightblue" stroke="midnightblue" points="294.83,-345.75 284.43,-343.68 291.27,-351.78 294.83,-345.75"/>
</g>
<!-- Node22&#45;&gt;Node8 -->
<g id="edge74" class="edge">
<title>Node22&#45;&gt;Node8</title>
<path fill="none" stroke="midnightblue" d="M611.12,-456.14C572.43,-454.09 514.66,-444.95 479.22,-411 426.13,-360.13 417.48,-265.68 416.28,-225.44"/>
<polygon fill="midnightblue" stroke="midnightblue" points="419.78,-225.35 416.11,-215.41 412.78,-225.47 419.78,-225.35"/>
</g>
<!-- Node22&#45;&gt;Node11 -->
<g id="edge75" class="edge">
<title>Node22&#45;&gt;Node11</title>
<path fill="none" stroke="midnightblue" d="M691.36,-451.68C741.85,-445.43 824.6,-432.24 846.22,-411 861.43,-396.07 865.14,-370.95 865.73,-353.7"/>
<polygon fill="midnightblue" stroke="midnightblue" points="869.23,-353.7 865.76,-343.69 862.23,-353.68 869.23,-353.7"/>
</g>
<!-- Node22&#45;&gt;Node12 -->
<g id="edge76" class="edge">
<title>Node22&#45;&gt;Node12</title>
<path fill="none" stroke="midnightblue" d="M691.25,-454.23C784.47,-449.69 1009.82,-436.2 1032.22,-411 1061.48,-378.09 1047.54,-321.23 1037.46,-292.01"/>
<polygon fill="midnightblue" stroke="midnightblue" points="1040.62,-290.46 1033.89,-282.27 1034.05,-292.87 1040.62,-290.46"/>
</g>
<!-- Node22&#45;&gt;Node13 -->
<g id="edge60" class="edge">
<title>Node22&#45;&gt;Node13</title>
<path fill="none" stroke="midnightblue" d="M611.15,-450.07C569.46,-442.98 508.3,-429.68 494.22,-411 469,-377.52 488.04,-326.31 502.95,-296.75"/>
<polygon fill="midnightblue" stroke="midnightblue" points="506.2,-298.09 507.78,-287.61 500.01,-294.82 506.2,-298.09"/>
</g>
<!-- Node23 -->
<g id="node23" class="node">
<title>Node23</title>
<g id="a_node23"><a xlink:href="custom-space_8h.html" target="_top" xlink:title=" ">
<polygon fill="white" stroke="black" points="898.72,-196 898.72,-215 1013.72,-215 1013.72,-196 898.72,-196"/>
<text text-anchor="middle" x="956.22" y="-203" font-family="Helvetica,sans-Serif" font-size="10.00">cppgc/custom&#45;space.h</text>
</a>
</g>
</g>
<!-- Node22&#45;&gt;Node23 -->
<g id="edge35" class="edge">
<title>Node22&#45;&gt;Node23</title>
<path fill="none" stroke="midnightblue" d="M650.12,-447.13C646.74,-415.67 640.02,-308.46 697.22,-257 762.1,-198.64 804.71,-238.36 890.22,-221 896.04,-219.82 902.14,-218.54 908.18,-217.24"/>
<polygon fill="midnightblue" stroke="midnightblue" points="909.2,-220.6 918.23,-215.06 907.71,-213.76 909.2,-220.6"/>
</g>
<!-- Node24 -->
<g id="node24" class="node">
<title>Node24</title>
<g id="a_node24"><a xlink:href="ephemeron-pair_8h.html" target="_top" xlink:title=" ">
<polygon fill="white" stroke="black" points="717.22,-386 717.22,-405 837.22,-405 837.22,-386 717.22,-386"/>
<text text-anchor="middle" x="777.22" y="-393" font-family="Helvetica,sans-Serif" font-size="10.00">cppgc/ephemeron&#45;pair.h</text>
</a>
</g>
</g>
<!-- Node22&#45;&gt;Node24 -->
<g id="edge37" class="edge">
<title>Node22&#45;&gt;Node24</title>
<path fill="none" stroke="midnightblue" d="M669.28,-447.48C690.42,-437.49 725.67,-420.85 750.1,-409.31"/>
<polygon fill="midnightblue" stroke="midnightblue" points="751.66,-412.44 759.21,-405.01 748.67,-406.11 751.66,-412.44"/>
</g>
<!-- Node25 -->
<g id="node25" class="node">
<title>Node25</title>
<g id="a_node25"><a xlink:href="member_8h.html" target="_top" xlink:title=" ">
<polygon fill="white" stroke="black" points="685.72,-324.5 685.72,-343.5 774.72,-343.5 774.72,-324.5 685.72,-324.5"/>
<text text-anchor="middle" x="730.22" y="-331.5" font-family="Helvetica,sans-Serif" font-size="10.00">cppgc/member.h</text>
</a>
</g>
</g>
<!-- Node22&#45;&gt;Node25 -->
<g id="edge73" class="edge">
<title>Node22&#45;&gt;Node25</title>
<path fill="none" stroke="midnightblue" d="M656.91,-447.3C669.89,-427.41 701.92,-378.35 719.03,-352.15"/>
<polygon fill="midnightblue" stroke="midnightblue" points="722.06,-353.91 724.59,-343.62 716.2,-350.08 722.06,-353.91"/>
</g>
<!-- Node27 -->
<g id="node27" class="node">
<title>Node27</title>
<g id="a_node27"><a xlink:href="garbage-collected_8h.html" target="_top" xlink:title=" ">
<polygon fill="white" stroke="black" points="893.22,-386 893.22,-405 1023.22,-405 1023.22,-386 893.22,-386"/>
<text text-anchor="middle" x="958.22" y="-393" font-family="Helvetica,sans-Serif" font-size="10.00">cppgc/garbage&#45;collected.h</text>
</a>
</g>
</g>
<!-- Node22&#45;&gt;Node27 -->
<g id="edge45" class="edge">
<title>Node22&#45;&gt;Node27</title>
<path fill="none" stroke="midnightblue" d="M691.36,-448.22C745.83,-437.67 843.32,-418.77 904.18,-406.97"/>
<polygon fill="midnightblue" stroke="midnightblue" points="905.21,-410.34 914.36,-405 903.88,-403.47 905.21,-410.34"/>
</g>
<!-- Node31 -->
<g id="node31" class="node">
<title>Node31</title>
<g id="a_node31"><a xlink:href="liveness-broker_8h.html" target="_top" xlink:title=" ">
<polygon fill="white" stroke="black" points="503.72,-386 503.72,-405 622.72,-405 622.72,-386 503.72,-386"/>
<text text-anchor="middle" x="563.22" y="-393" font-family="Helvetica,sans-Serif" font-size="10.00">cppgc/liveness&#45;broker.h</text>
</a>
</g>
</g>
<!-- Node22&#45;&gt;Node31 -->
<g id="edge61" class="edge">
<title>Node22&#45;&gt;Node31</title>
<path fill="none" stroke="midnightblue" d="M638.62,-447.48C624.5,-437.93 601.39,-422.31 584.48,-410.87"/>
<polygon fill="midnightblue" stroke="midnightblue" points="586.05,-407.71 575.81,-405.01 582.13,-413.51 586.05,-407.71"/>
</g>
<!-- Node23&#45;&gt;Node17 -->
<g id="edge36" class="edge">
<title>Node23&#45;&gt;Node17</title>
<path fill="none" stroke="midnightblue" d="M987.55,-195.96C1008.19,-188.53 1033.64,-175.49 1046.22,-154 1058.06,-133.79 1046.84,-106.93 1036.79,-89.68"/>
<polygon fill="midnightblue" stroke="midnightblue" points="1039.76,-87.81 1031.49,-81.18 1033.82,-91.52 1039.76,-87.81"/>
</g>
<!-- Node24&#45;&gt;Node25 -->
<g id="edge38" class="edge">
<title>Node24&#45;&gt;Node25</title>
<path fill="none" stroke="midnightblue" d="M770.49,-385.98C763.44,-377.05 752.19,-362.81 743.37,-351.64"/>
<polygon fill="midnightblue" stroke="midnightblue" points="745.89,-349.19 736.95,-343.51 740.4,-353.53 745.89,-349.19"/>
</g>
<!-- Node25&#45;&gt;Node2 -->
<g id="edge41" class="edge">
<title>Node25&#45;&gt;Node2</title>
<path fill="none" stroke="midnightblue" d="M749.25,-324.42C782.99,-309.42 855.77,-278 919.22,-257 978.99,-237.22 995.8,-238.66 1056.22,-221 1059.38,-220.08 1062.64,-219.09 1065.91,-218.08"/>
<polygon fill="midnightblue" stroke="midnightblue" points="1067.11,-221.37 1075.6,-215.02 1065.01,-214.7 1067.11,-221.37"/>
</g>
<!-- Node25&#45;&gt;Node10 -->
<g id="edge44" class="edge">
<title>Node25&#45;&gt;Node10</title>
<path fill="none" stroke="midnightblue" d="M721.5,-324.36C696.04,-299.01 620.02,-222.34 562.22,-154 544.01,-132.47 524.57,-106.33 512.41,-89.56"/>
<polygon fill="midnightblue" stroke="midnightblue" points="515.14,-87.36 506.46,-81.29 509.46,-91.45 515.14,-87.36"/>
</g>
<!-- Node25&#45;&gt;Node12 -->
<g id="edge43" class="edge">
<title>Node25&#45;&gt;Node12</title>
<path fill="none" stroke="midnightblue" d="M773.21,-324.48C827.01,-313.8 919.13,-295.53 977.24,-284.01"/>
<polygon fill="midnightblue" stroke="midnightblue" points="978.19,-287.39 987.32,-282.01 976.83,-280.52 978.19,-287.39"/>
</g>
<!-- Node25&#45;&gt;Node13 -->
<g id="edge42" class="edge">
<title>Node25&#45;&gt;Node13</title>
<path fill="none" stroke="midnightblue" d="M699.56,-324.48C667.53,-315.57 616.46,-301.37 576.34,-290.22"/>
<polygon fill="midnightblue" stroke="midnightblue" points="577.23,-286.83 566.66,-287.52 575.36,-293.57 577.23,-286.83"/>
</g>
<!-- Node25&#45;&gt;Node21 -->
<g id="edge39" class="edge">
<title>Node25&#45;&gt;Node21</title>
<path fill="none" stroke="midnightblue" d="M738.78,-324.31C755.14,-308.25 792.67,-274 831.22,-257 910.67,-221.98 952.29,-271.06 1023.22,-221 1051.38,-201.13 1053.25,-187.27 1062.22,-154 1067.26,-135.36 1068.03,-66.37 1060.22,-56 1035.51,-23.14 986.47,-13.81 953.51,-11.42"/>
<polygon fill="midnightblue" stroke="midnightblue" points="953.59,-7.92 943.42,-10.86 953.21,-14.91 953.59,-7.92"/>
</g>
<!-- Node26 -->
<g id="node26" class="node">
<title>Node26</title>
<g id="a_node26"><a xlink:title=" ">
<polygon fill="white" stroke="#bfbfbf" points="705.72,-263 705.72,-282 754.72,-282 754.72,-263 705.72,-263"/>
<text text-anchor="middle" x="730.22" y="-270" font-family="Helvetica,sans-Serif" font-size="10.00">cstddef</text>
</a>
</g>
</g>
<!-- Node25&#45;&gt;Node26 -->
<g id="edge40" class="edge">
<title>Node25&#45;&gt;Node26</title>
<path fill="none" stroke="midnightblue" d="M730.22,-324.48C730.22,-316.08 730.22,-302.98 730.22,-292.16"/>
<polygon fill="midnightblue" stroke="midnightblue" points="733.72,-292.01 730.22,-282.01 726.72,-292.01 733.72,-292.01"/>
</g>
<!-- Node27&#45;&gt;Node2 -->
<g id="edge46" class="edge">
<title>Node27&#45;&gt;Node2</title>
<path fill="none" stroke="midnightblue" d="M974.9,-385.95C1003.11,-370.53 1059.84,-335.24 1087.22,-288 1098.4,-268.73 1101.17,-242.87 1101.62,-225.49"/>
<polygon fill="midnightblue" stroke="midnightblue" points="1105.12,-225.01 1101.64,-215.01 1098.12,-225 1105.12,-225.01"/>
</g>
<!-- Node27&#45;&gt;Node11 -->
<g id="edge57" class="edge">
<title>Node27&#45;&gt;Node11</title>
<path fill="none" stroke="midnightblue" d="M944.9,-385.98C929.85,-376.34 905.11,-360.52 887.19,-349.05"/>
<polygon fill="midnightblue" stroke="midnightblue" points="888.83,-345.95 878.52,-343.51 885.06,-351.85 888.83,-345.95"/>
</g>
<!-- Node27&#45;&gt;Node12 -->
<g id="edge58" class="edge">
<title>Node27&#45;&gt;Node12</title>
<path fill="none" stroke="midnightblue" d="M963.4,-385.8C975.18,-366 1004.17,-317.28 1019.82,-290.99"/>
<polygon fill="midnightblue" stroke="midnightblue" points="1022.99,-292.51 1025.09,-282.12 1016.97,-288.93 1022.99,-292.51"/>
</g>
<!-- Node27&#45;&gt;Node16 -->
<g id="edge47" class="edge">
<title>Node27&#45;&gt;Node16</title>
<path fill="none" stroke="midnightblue" d="M982.84,-385.96C1004.87,-377.54 1037.28,-363.16 1061.22,-344 1112.14,-303.26 1125.68,-284.33 1141.22,-221 1144.51,-207.62 1149.28,-201.18 1141.22,-190 1119.85,-160.32 1080.24,-147.83 1046.94,-142.69"/>
<polygon fill="midnightblue" stroke="midnightblue" points="1047.22,-139.19 1036.84,-141.32 1046.28,-146.13 1047.22,-139.19"/>
</g>
<!-- Node28 -->
<g id="node28" class="node">
<title>Node28</title>
<g id="a_node28"><a xlink:href="platform_8h.html" target="_top" xlink:title=" ">
<polygon fill="white" stroke="black" points="672.72,-196 672.72,-215 761.72,-215 761.72,-196 672.72,-196"/>
<text text-anchor="middle" x="717.22" y="-203" font-family="Helvetica,sans-Serif" font-size="10.00">cppgc/platform.h</text>
</a>
</g>
</g>
<!-- Node27&#45;&gt;Node28 -->
<g id="edge48" class="edge">
<title>Node27&#45;&gt;Node28</title>
<path fill="none" stroke="midnightblue" d="M955.67,-385.8C948.01,-361.36 922.88,-291.61 876.22,-257 866.49,-249.78 801.46,-230.39 757.64,-217.85"/>
<polygon fill="midnightblue" stroke="midnightblue" points="758.39,-214.43 747.82,-215.05 756.48,-221.16 758.39,-214.43"/>
</g>
<!-- Node28&#45;&gt;Node10 -->
<g id="edge56" class="edge">
<title>Node28&#45;&gt;Node10</title>
<path fill="none" stroke="midnightblue" d="M703.79,-195.94C688.06,-185.91 661.23,-168.78 638.22,-154 616.86,-140.27 611.98,-136.11 590.22,-123 568.53,-109.93 543.36,-95.89 525.16,-85.95"/>
<polygon fill="midnightblue" stroke="midnightblue" points="526.79,-82.85 516.33,-81.14 523.44,-89 526.79,-82.85"/>
</g>
<!-- Node29 -->
<g id="node29" class="node">
<title>Node29</title>
<g id="a_node29"><a xlink:href="v8-platform_8h.html" target="_top" xlink:title=" ">
<polygon fill="white" stroke="black" points="852.72,-129 852.72,-148 925.72,-148 925.72,-129 852.72,-129"/>
<text text-anchor="middle" x="889.22" y="-136" font-family="Helvetica,sans-Serif" font-size="10.00">v8&#45;platform.h</text>
</a>
</g>
</g>
<!-- Node28&#45;&gt;Node29 -->
<g id="edge49" class="edge">
<title>Node28&#45;&gt;Node29</title>
<path fill="none" stroke="midnightblue" d="M740.07,-195.87C770.09,-184.52 823.01,-164.52 857.07,-151.65"/>
<polygon fill="midnightblue" stroke="midnightblue" points="858.45,-154.87 866.56,-148.06 855.97,-148.32 858.45,-154.87"/>
</g>
<!-- Node29&#45;&gt;Node5 -->
<g id="edge53" class="edge">
<title>Node29&#45;&gt;Node5</title>
<path fill="none" stroke="midnightblue" d="M852.52,-130.51C837.85,-127.89 820.78,-125.05 805.22,-123 610.74,-97.38 376.06,-80.58 287.95,-74.77"/>
<polygon fill="midnightblue" stroke="midnightblue" points="288.15,-71.27 277.94,-74.11 287.69,-78.26 288.15,-71.27"/>
</g>
<!-- Node29&#45;&gt;Node9 -->
<g id="edge54" class="edge">
<title>Node29&#45;&gt;Node9</title>
<path fill="none" stroke="midnightblue" d="M881.13,-128.73C871.69,-118.5 855.87,-101.36 844.17,-88.69"/>
<polygon fill="midnightblue" stroke="midnightblue" points="846.54,-86.1 837.19,-81.13 841.4,-90.85 846.54,-86.1"/>
</g>
<!-- Node29&#45;&gt;Node10 -->
<g id="edge55" class="edge">
<title>Node29&#45;&gt;Node10</title>
<path fill="none" stroke="midnightblue" d="M852.43,-131.09C837.75,-128.55 820.69,-125.62 805.22,-123 710.37,-106.96 598.83,-88.63 540.46,-79.07"/>
<polygon fill="midnightblue" stroke="midnightblue" points="540.97,-75.61 530.54,-77.45 539.84,-82.52 540.97,-75.61"/>
</g>
<!-- Node29&#45;&gt;Node17 -->
<g id="edge50" class="edge">
<title>Node29&#45;&gt;Node17</title>
<path fill="none" stroke="midnightblue" d="M907.28,-128.87C930.45,-117.8 970.85,-98.49 997.82,-85.6"/>
<polygon fill="midnightblue" stroke="midnightblue" points="999.58,-88.64 1007.09,-81.17 996.56,-82.32 999.58,-88.64"/>
</g>
<!-- Node29&#45;&gt;Node18 -->
<g id="edge51" class="edge">
<title>Node29&#45;&gt;Node18</title>
<path fill="none" stroke="midnightblue" d="M898.4,-128.73C909.2,-118.4 927.37,-101.04 940.66,-88.33"/>
<polygon fill="midnightblue" stroke="midnightblue" points="943.39,-90.57 948.2,-81.13 938.55,-85.51 943.39,-90.57"/>
</g>
<!-- Node30 -->
<g id="node30" class="node">
<title>Node30</title>
<g id="a_node30"><a xlink:title=" ">
<polygon fill="white" stroke="#bfbfbf" points="867.72,-62 867.72,-81 914.72,-81 914.72,-62 867.72,-62"/>
<text text-anchor="middle" x="891.22" y="-69" font-family="Helvetica,sans-Serif" font-size="10.00">stdlib.h</text>
</a>
</g>
</g>
<!-- Node29&#45;&gt;Node30 -->
<g id="edge52" class="edge">
<title>Node29&#45;&gt;Node30</title>
<path fill="none" stroke="midnightblue" d="M889.49,-128.73C889.79,-119.18 890.27,-103.62 890.65,-91.28"/>
<polygon fill="midnightblue" stroke="midnightblue" points="894.15,-91.23 890.96,-81.13 887.15,-91.01 894.15,-91.23"/>
</g>
<!-- Node31&#45;&gt;Node10 -->
<g id="edge72" class="edge">
<title>Node31&#45;&gt;Node10</title>
<path fill="none" stroke="midnightblue" d="M536.98,-385.98C495.08,-372.45 410.45,-345.39 338.22,-324 281.15,-307.1 256.12,-324.66 209.22,-288 182.25,-266.92 179.96,-254.1 171.22,-221 138.71,-97.77 365.5,-76.61 460.11,-73.12"/>
<polygon fill="midnightblue" stroke="midnightblue" points="460.29,-76.62 470.17,-72.8 460.07,-69.62 460.29,-76.62"/>
</g>
<!-- Node31&#45;&gt;Node11 -->
<g id="edge71" class="edge">
<title>Node31&#45;&gt;Node11</title>
<path fill="none" stroke="midnightblue" d="M606.49,-385.98C660.65,-375.3 753.39,-357.03 811.89,-345.51"/>
<polygon fill="midnightblue" stroke="midnightblue" points="812.9,-348.88 822.04,-343.51 811.55,-342.01 812.9,-348.88"/>
</g>
<!-- Node31&#45;&gt;Node25 -->
<g id="edge70" class="edge">
<title>Node31&#45;&gt;Node25</title>
<path fill="none" stroke="midnightblue" d="M587.15,-385.98C615.92,-375.72 664.38,-358.46 696.83,-346.9"/>
<polygon fill="midnightblue" stroke="midnightblue" points="698.1,-350.16 706.34,-343.51 695.75,-343.57 698.1,-350.16"/>
</g>
<!-- Node32 -->
<g id="node32" class="node">
<title>Node32</title>
<g id="a_node32"><a xlink:href="heap_8h.html" target="_top" xlink:title=" ">
<polygon fill="white" stroke="black" points="218.22,-263 218.22,-282 292.22,-282 292.22,-263 218.22,-263"/>
<text text-anchor="middle" x="255.22" y="-270" font-family="Helvetica,sans-Serif" font-size="10.00">cppgc/heap.h</text>
</a>
</g>
</g>
<!-- Node31&#45;&gt;Node32 -->
<g id="edge62" class="edge">
<title>Node31&#45;&gt;Node32</title>
<path fill="none" stroke="midnightblue" d="M556.22,-385.54C543.82,-370.35 516.48,-339.68 486.22,-324 427.49,-293.55 351.15,-281.42 302.65,-276.62"/>
<polygon fill="midnightblue" stroke="midnightblue" points="302.72,-273.11 292.44,-275.68 302.08,-280.08 302.72,-273.11"/>
</g>
<!-- Node32&#45;&gt;Node5 -->
<g id="edge63" class="edge">
<title>Node32&#45;&gt;Node5</title>
<path fill="none" stroke="midnightblue" d="M255.1,-262.95C254.65,-233.16 253.14,-133.51 252.51,-91.47"/>
<polygon fill="midnightblue" stroke="midnightblue" points="256.01,-91.19 252.36,-81.24 249.01,-91.29 256.01,-91.19"/>
</g>
<!-- Node32&#45;&gt;Node6 -->
<g id="edge64" class="edge">
<title>Node32&#45;&gt;Node6</title>
<path fill="none" stroke="midnightblue" d="M248.08,-262.73C239.81,-252.6 226.03,-235.69 215.72,-223.06"/>
<polygon fill="midnightblue" stroke="midnightblue" points="218.29,-220.67 209.26,-215.13 212.87,-225.09 218.29,-220.67"/>
</g>
<!-- Node32&#45;&gt;Node10 -->
<g id="edge69" class="edge">
<title>Node32&#45;&gt;Node10</title>
<path fill="none" stroke="midnightblue" d="M258.12,-262.82C267.86,-234.1 300.1,-142.86 323.22,-123 361.83,-89.84 420.91,-78.39 460.04,-74.48"/>
<polygon fill="midnightblue" stroke="midnightblue" points="460.38,-77.96 470.03,-73.6 459.76,-70.99 460.38,-77.96"/>
</g>
<!-- Node32&#45;&gt;Node23 -->
<g id="edge67" class="edge">
<title>Node32&#45;&gt;Node23</title>
<path fill="none" stroke="midnightblue" d="M292.43,-268.68C423.92,-258.71 860.52,-225.42 890.22,-221 897.09,-219.98 904.3,-218.66 911.33,-217.22"/>
<polygon fill="midnightblue" stroke="midnightblue" points="912.4,-220.58 921.45,-215.07 910.94,-213.73 912.4,-220.58"/>
</g>
<!-- Node32&#45;&gt;Node28 -->
<g id="edge68" class="edge">
<title>Node32&#45;&gt;Node28</title>
<path fill="none" stroke="midnightblue" d="M292.25,-266.29C373.44,-254.87 567.46,-227.57 662.66,-214.18"/>
<polygon fill="midnightblue" stroke="midnightblue" points="663.25,-217.63 672.66,-212.77 662.27,-210.7 663.25,-217.63"/>
</g>
<!-- Node33 -->
<g id="node33" class="node">
<title>Node33</title>
<g id="a_node33"><a xlink:href="common_8h.html" target="_top" xlink:title=" ">
<polygon fill="white" stroke="black" points="332.72,-129 332.72,-148 423.72,-148 423.72,-129 332.72,-129"/>
<text text-anchor="middle" x="378.22" y="-136" font-family="Helvetica,sans-Serif" font-size="10.00">cppgc/common.h</text>
</a>
</g>
</g>
<!-- Node32&#45;&gt;Node33 -->
<g id="edge65" class="edge">
<title>Node32&#45;&gt;Node33</title>
<path fill="none" stroke="midnightblue" d="M263.99,-262.65C273.86,-252.63 290.35,-235.79 304.22,-221 325.16,-198.69 348.85,-172.41 363.67,-155.85"/>
<polygon fill="midnightblue" stroke="midnightblue" points="366.49,-157.94 370.54,-148.15 361.27,-153.28 366.49,-157.94"/>
</g>
<!-- Node33&#45;&gt;Node10 -->
<g id="edge66" class="edge">
<title>Node33&#45;&gt;Node10</title>
<path fill="none" stroke="midnightblue" d="M394.43,-128.87C415.03,-117.89 450.82,-98.82 475,-85.94"/>
<polygon fill="midnightblue" stroke="midnightblue" points="476.78,-88.96 483.96,-81.17 473.49,-82.78 476.78,-88.96"/>
</g>
</g>
</svg>
