<?xml version="1.0" encoding="UTF-8" standalone="no"?>
<!DOCTYPE svg PUBLIC "-//W3C//DTD SVG 1.1//EN"
 "http://www.w3.org/Graphics/SVG/1.1/DTD/svg11.dtd">
<!-- Generated by graphviz version 2.44.0 ()
 -->
<!-- Title: include/cppgc/internal/persistent&#45;node.h Pages: 1 -->
<svg width="176pt" height="162pt"
 viewBox="0.00 0.00 175.50 162.00" xmlns="http://www.w3.org/2000/svg" xmlns:xlink="http://www.w3.org/1999/xlink">
<g id="graph0" class="graph" transform="scale(1 1) rotate(0) translate(4 158)">
<title>include/cppgc/internal/persistent&#45;node.h</title>
<polygon fill="white" stroke="transparent" points="-4,4 -4,-158 171.5,-158 171.5,4 -4,4"/>
<!-- Node1 -->
<g id="node1" class="node">
<title>Node1</title>
<g id="a_node1"><a xlink:title=" ">
<polygon fill="#bfbfbf" stroke="black" points="0,-123.5 0,-153.5 111,-153.5 111,-123.5 0,-123.5"/>
<text text-anchor="start" x="8" y="-141.5" font-family="Helvetica,sans-Serif" font-size="10.00">include/cppgc/internal</text>
<text text-anchor="middle" x="55.5" y="-130.5" font-family="Helvetica,sans-Serif" font-size="10.00">/persistent&#45;node.h</text>
</a>
</g>
</g>
<!-- Node2 -->
<g id="node2" class="node">
<title>Node2</title>
<g id="a_node2"><a xlink:href="cross-thread-persistent_8h.html" target="_top" xlink:title=" ">
<polygon fill="white" stroke="black" points="3.5,-0.5 3.5,-30.5 107.5,-30.5 107.5,-0.5 3.5,-0.5"/>
<text text-anchor="start" x="11.5" y="-18.5" font-family="Helvetica,sans-Serif" font-size="10.00">include/cppgc/cross</text>
<text text-anchor="middle" x="55.5" y="-7.5" font-family="Helvetica,sans-Serif" font-size="10.00">&#45;thread&#45;persistent.h</text>
</a>
</g>
</g>
<!-- Node1&#45;&gt;Node2 -->
<g id="edge1" class="edge">
<title>Node1&#45;&gt;Node2</title>
<path fill="none" stroke="midnightblue" d="M40.16,-114.54C35.45,-106.23 30.89,-96.53 28.5,-87 23.47,-66.91 34.93,-44.77 44.45,-30.75"/>
<polygon fill="midnightblue" stroke="midnightblue" points="37.26,-116.51 45.43,-123.26 43.25,-112.89 37.26,-116.51"/>
</g>
<!-- Node3 -->
<g id="node3" class="node">
<title>Node3</title>
<g id="a_node3"><a xlink:href="persistent_8h.html" target="_top" xlink:title=" ">
<polygon fill="white" stroke="black" points="37.5,-67.5 37.5,-86.5 167.5,-86.5 167.5,-67.5 37.5,-67.5"/>
<text text-anchor="middle" x="102.5" y="-74.5" font-family="Helvetica,sans-Serif" font-size="10.00">include/cppgc/persistent.h</text>
</a>
</g>
</g>
<!-- Node1&#45;&gt;Node3 -->
<g id="edge2" class="edge">
<title>Node1&#45;&gt;Node3</title>
<path fill="none" stroke="midnightblue" d="M72.95,-115.4C80.85,-105.41 89.72,-94.18 95.66,-86.66"/>
<polygon fill="midnightblue" stroke="midnightblue" points="70.09,-113.38 66.64,-123.4 75.58,-117.72 70.09,-113.38"/>
</g>
<!-- Node3&#45;&gt;Node2 -->
<g id="edge3" class="edge">
<title>Node3&#45;&gt;Node2</title>
<path fill="none" stroke="midnightblue" d="M89.49,-59.53C82.29,-50.42 73.44,-39.21 66.58,-30.52"/>
<polygon fill="midnightblue" stroke="midnightblue" points="86.82,-61.8 95.77,-67.48 92.31,-57.46 86.82,-61.8"/>
</g>
</g>
</svg>
