<?xml version="1.0" encoding="UTF-8" standalone="no"?>
<!DOCTYPE svg PUBLIC "-//W3C//DTD SVG 1.1//EN"
 "http://www.w3.org/Graphics/SVG/1.1/DTD/svg11.dtd">
<!-- Generated by graphviz version 2.44.0 ()
 -->
<!-- Title: cppgc::EphemeronPair&lt; K, V &gt; Pages: 1 -->
<svg width="596pt" height="66pt"
 viewBox="0.00 0.00 596.00 66.00" xmlns="http://www.w3.org/2000/svg" xmlns:xlink="http://www.w3.org/1999/xlink">
<g id="graph0" class="graph" transform="scale(1 1) rotate(0) translate(4 62)">
<title>cppgc::EphemeronPair&lt; K, V &gt;</title>
<polygon fill="white" stroke="transparent" points="-4,4 -4,-62 592,-62 592,4 -4,4"/>
<!-- Node1 -->
<g id="node1" class="node">
<title>Node1</title>
<g id="a_node1"><a xlink:title=" ">
<polygon fill="#bfbfbf" stroke="black" points="475,-14 475,-44 588,-44 588,-14 475,-14"/>
<text text-anchor="start" x="483" y="-32" font-family="Helvetica,sans-Serif" font-size="10.00">cppgc::EphemeronPair</text>
<text text-anchor="middle" x="531.5" y="-21" font-family="Helvetica,sans-Serif" font-size="10.00">&lt; K, V &gt;</text>
</a>
</g>
</g>
<!-- Node2 -->
<g id="node2" class="node">
<title>Node2</title>
<g id="a_node2"><a xlink:href="classcppgc_1_1internal_1_1BasicMember.html" target="_top" xlink:title=" ">
<polygon fill="white" stroke="black" points="246,-38.5 246,-57.5 413,-57.5 413,-38.5 246,-38.5"/>
<text text-anchor="middle" x="329.5" y="-45.5" font-family="Helvetica,sans-Serif" font-size="10.00">cppgc::internal::BasicMember&lt; K &gt;</text>
</a>
</g>
</g>
<!-- Node2&#45;&gt;Node1 -->
<g id="edge1" class="edge">
<title>Node2&#45;&gt;Node1</title>
<path fill="none" stroke="#9a32cd" stroke-dasharray="5,2" d="M423.34,-39.18C441,-37.5 458.95,-35.8 474.98,-34.27"/>
<polygon fill="#9a32cd" stroke="#9a32cd" points="422.63,-35.73 413,-40.16 423.29,-42.7 422.63,-35.73"/>
<text text-anchor="middle" x="444" y="-40" font-family="Helvetica,sans-Serif" font-size="10.00"> key</text>
</g>
<!-- Node3 -->
<g id="node3" class="node">
<title>Node3</title>
<g id="a_node3"><a xlink:href="classcppgc_1_1internal_1_1BasicMember.html" target="_top" xlink:title=" ">
<polygon fill="white" stroke="black" points="0,-8.5 0,-49.5 184,-49.5 184,-8.5 0,-8.5"/>
<text text-anchor="start" x="8" y="-37.5" font-family="Helvetica,sans-Serif" font-size="10.00">cppgc::internal::BasicMember</text>
<text text-anchor="start" x="8" y="-26.5" font-family="Helvetica,sans-Serif" font-size="10.00">&lt; T, WeaknessTag, WriteBarrierPolicy,</text>
<text text-anchor="middle" x="92" y="-15.5" font-family="Helvetica,sans-Serif" font-size="10.00"> CheckingPolicy &gt;</text>
</a>
</g>
</g>
<!-- Node3&#45;&gt;Node2 -->
<g id="edge2" class="edge">
<title>Node3&#45;&gt;Node2</title>
<path fill="none" stroke="orange" stroke-dasharray="5,2" d="M194.13,-37.16C211.37,-38.55 229.09,-39.98 245.78,-41.33"/>
<polygon fill="orange" stroke="orange" points="194.3,-33.66 184.05,-36.35 193.74,-40.64 194.3,-33.66"/>
<text text-anchor="middle" x="215" y="-42" font-family="Helvetica,sans-Serif" font-size="10.00"> &lt; K &gt;</text>
</g>
<!-- Node4 -->
<g id="node4" class="node">
<title>Node4</title>
<g id="a_node4"><a xlink:href="classcppgc_1_1internal_1_1BasicMember.html" target="_top" xlink:title=" ">
<polygon fill="white" stroke="black" points="246,-0.5 246,-19.5 413,-19.5 413,-0.5 246,-0.5"/>
<text text-anchor="middle" x="329.5" y="-7.5" font-family="Helvetica,sans-Serif" font-size="10.00">cppgc::internal::BasicMember&lt; V &gt;</text>
</a>
</g>
</g>
<!-- Node3&#45;&gt;Node4 -->
<g id="edge4" class="edge">
<title>Node3&#45;&gt;Node4</title>
<path fill="none" stroke="orange" stroke-dasharray="5,2" d="M194.13,-20.84C211.37,-19.45 229.09,-18.02 245.78,-16.67"/>
<polygon fill="orange" stroke="orange" points="193.74,-17.36 184.05,-21.65 194.3,-24.34 193.74,-17.36"/>
<text text-anchor="middle" x="215" y="-23" font-family="Helvetica,sans-Serif" font-size="10.00"> &lt; V &gt;</text>
</g>
<!-- Node4&#45;&gt;Node1 -->
<g id="edge3" class="edge">
<title>Node4&#45;&gt;Node1</title>
<path fill="none" stroke="#9a32cd" stroke-dasharray="5,2" d="M423.18,-17.83C434.57,-18.86 446.05,-19.93 457,-21 462.75,-21.56 468.75,-22.17 474.73,-22.8"/>
<polygon fill="#9a32cd" stroke="#9a32cd" points="423.47,-14.34 413.2,-16.93 422.85,-21.31 423.47,-14.34"/>
<text text-anchor="middle" x="444" y="-24" font-family="Helvetica,sans-Serif" font-size="10.00"> value</text>
</g>
</g>
</svg>
