<?xml version="1.0" encoding="UTF-8" standalone="no"?>
<!DOCTYPE svg PUBLIC "-//W3C//DTD SVG 1.1//EN"
 "http://www.w3.org/Graphics/SVG/1.1/DTD/svg11.dtd">
<!-- Generated by graphviz version 2.44.0 ()
 -->
<!-- Title: include/cppgc/trace&#45;trait.h Pages: 1 -->
<svg width="579pt" height="296pt"
 viewBox="0.00 0.00 579.00 296.00" xmlns="http://www.w3.org/2000/svg" xmlns:xlink="http://www.w3.org/1999/xlink">
<g id="graph0" class="graph" transform="scale(1 1) rotate(0) translate(4 292)">
<title>include/cppgc/trace&#45;trait.h</title>
<polygon fill="white" stroke="transparent" points="-4,4 -4,-292 575,-292 575,4 -4,4"/>
<!-- Node1 -->
<g id="node1" class="node">
<title>Node1</title>
<g id="a_node1"><a xlink:title=" ">
<polygon fill="#bfbfbf" stroke="black" points="235,-257.5 235,-287.5 336,-287.5 336,-257.5 235,-257.5"/>
<text text-anchor="start" x="243" y="-275.5" font-family="Helvetica,sans-Serif" font-size="10.00">include/cppgc/trace</text>
<text text-anchor="middle" x="285.5" y="-264.5" font-family="Helvetica,sans-Serif" font-size="10.00">&#45;trait.h</text>
</a>
</g>
</g>
<!-- Node2 -->
<g id="node2" class="node">
<title>Node2</title>
<g id="a_node2"><a xlink:href="garbage-collected_8h.html" target="_top" xlink:title=" ">
<polygon fill="white" stroke="black" points="228.5,-190.5 228.5,-220.5 342.5,-220.5 342.5,-190.5 228.5,-190.5"/>
<text text-anchor="start" x="236.5" y="-208.5" font-family="Helvetica,sans-Serif" font-size="10.00">include/cppgc/garbage</text>
<text text-anchor="middle" x="285.5" y="-197.5" font-family="Helvetica,sans-Serif" font-size="10.00">&#45;collected.h</text>
</a>
</g>
</g>
<!-- Node1&#45;&gt;Node2 -->
<g id="edge1" class="edge">
<title>Node1&#45;&gt;Node2</title>
<path fill="none" stroke="midnightblue" d="M285.5,-247.11C285.5,-238.15 285.5,-228.32 285.5,-220.58"/>
<polygon fill="midnightblue" stroke="midnightblue" points="282,-247.4 285.5,-257.4 289,-247.4 282,-247.4"/>
</g>
<!-- Node4 -->
<g id="node4" class="node">
<title>Node4</title>
<g id="a_node4"><a xlink:href="visitor_8h.html" target="_top" xlink:title=" ">
<polygon fill="white" stroke="black" points="276,-129 276,-148 389,-148 389,-129 276,-129"/>
<text text-anchor="middle" x="332.5" y="-136" font-family="Helvetica,sans-Serif" font-size="10.00">include/cppgc/visitor.h</text>
</a>
</g>
</g>
<!-- Node1&#45;&gt;Node4 -->
<g id="edge18" class="edge">
<title>Node1&#45;&gt;Node4</title>
<path fill="none" stroke="midnightblue" d="M323,-251.83C334.28,-243.88 345.29,-233.58 351.5,-221 363.73,-196.25 347.34,-163.34 338.08,-148.02"/>
<polygon fill="midnightblue" stroke="midnightblue" points="320.87,-249.05 314.41,-257.45 324.7,-254.91 320.87,-249.05"/>
</g>
<!-- Node8 -->
<g id="node8" class="node">
<title>Node8</title>
<g id="a_node8"><a xlink:href="gc-info_8h.html" target="_top" xlink:title=" ">
<polygon fill="white" stroke="black" points="99,-190.5 99,-220.5 210,-220.5 210,-190.5 99,-190.5"/>
<text text-anchor="start" x="107" y="-208.5" font-family="Helvetica,sans-Serif" font-size="10.00">include/cppgc/internal</text>
<text text-anchor="middle" x="154.5" y="-197.5" font-family="Helvetica,sans-Serif" font-size="10.00">/gc&#45;info.h</text>
</a>
</g>
</g>
<!-- Node1&#45;&gt;Node8 -->
<g id="edge8" class="edge">
<title>Node1&#45;&gt;Node8</title>
<path fill="none" stroke="midnightblue" d="M247.92,-252.85C227.21,-242.58 201.91,-230.03 182.87,-220.58"/>
<polygon fill="midnightblue" stroke="midnightblue" points="246.56,-256.09 257.07,-257.4 249.67,-249.82 246.56,-256.09"/>
</g>
<!-- Node9 -->
<g id="node9" class="node">
<title>Node9</title>
<g id="a_node9"><a xlink:href="persistent-node_8h.html" target="_top" xlink:title=" ">
<polygon fill="white" stroke="black" points="0,-123.5 0,-153.5 111,-153.5 111,-123.5 0,-123.5"/>
<text text-anchor="start" x="8" y="-141.5" font-family="Helvetica,sans-Serif" font-size="10.00">include/cppgc/internal</text>
<text text-anchor="middle" x="55.5" y="-130.5" font-family="Helvetica,sans-Serif" font-size="10.00">/persistent&#45;node.h</text>
</a>
</g>
</g>
<!-- Node1&#45;&gt;Node9 -->
<g id="edge10" class="edge">
<title>Node1&#45;&gt;Node9</title>
<path fill="none" stroke="midnightblue" d="M224.53,-269.67C182.15,-265.37 126.8,-253.31 89.5,-221 69.22,-203.43 60.78,-171.8 57.47,-153.54"/>
<polygon fill="midnightblue" stroke="midnightblue" points="224.46,-273.18 234.73,-270.58 225.08,-266.21 224.46,-273.18"/>
</g>
<!-- Node10 -->
<g id="node10" class="node">
<title>Node10</title>
<g id="a_node10"><a xlink:href="liveness-broker_8h.html" target="_top" xlink:title=" ">
<polygon fill="white" stroke="black" points="401.5,-190.5 401.5,-220.5 517.5,-220.5 517.5,-190.5 401.5,-190.5"/>
<text text-anchor="start" x="409.5" y="-208.5" font-family="Helvetica,sans-Serif" font-size="10.00">include/cppgc/liveness</text>
<text text-anchor="middle" x="459.5" y="-197.5" font-family="Helvetica,sans-Serif" font-size="10.00">&#45;broker.h</text>
</a>
</g>
</g>
<!-- Node1&#45;&gt;Node10 -->
<g id="edge13" class="edge">
<title>Node1&#45;&gt;Node10</title>
<path fill="none" stroke="midnightblue" d="M332.83,-253.82C360.8,-243.37 395.73,-230.32 421.82,-220.58"/>
<polygon fill="midnightblue" stroke="midnightblue" points="331.4,-250.62 323.26,-257.4 333.85,-257.18 331.4,-250.62"/>
</g>
<!-- Node3 -->
<g id="node3" class="node">
<title>Node3</title>
<g id="a_node3"><a xlink:href="allocation_8h.html" target="_top" xlink:title=" ">
<polygon fill="white" stroke="black" points="129.5,-129 129.5,-148 257.5,-148 257.5,-129 129.5,-129"/>
<text text-anchor="middle" x="193.5" y="-136" font-family="Helvetica,sans-Serif" font-size="10.00">include/cppgc/allocation.h</text>
</a>
</g>
</g>
<!-- Node2&#45;&gt;Node3 -->
<g id="edge2" class="edge">
<title>Node2&#45;&gt;Node3</title>
<path fill="none" stroke="midnightblue" d="M256.92,-184.31C239.64,-172.1 218.52,-157.18 205.54,-148.01"/>
<polygon fill="midnightblue" stroke="midnightblue" points="255.35,-187.48 265.54,-190.4 259.39,-181.77 255.35,-187.48"/>
</g>
<!-- Node2&#45;&gt;Node4 -->
<g id="edge3" class="edge">
<title>Node2&#45;&gt;Node4</title>
<path fill="none" stroke="midnightblue" d="M301.79,-181.97C310.21,-170.33 319.99,-156.8 326.21,-148.19"/>
<polygon fill="midnightblue" stroke="midnightblue" points="298.72,-180.24 295.7,-190.4 304.39,-184.34 298.72,-180.24"/>
</g>
<!-- Node5 -->
<g id="node5" class="node">
<title>Node5</title>
<g id="a_node5"><a xlink:href="persistent_8h.html" target="_top" xlink:title=" ">
<polygon fill="white" stroke="black" points="83.5,-67.5 83.5,-86.5 213.5,-86.5 213.5,-67.5 83.5,-67.5"/>
<text text-anchor="middle" x="148.5" y="-74.5" font-family="Helvetica,sans-Serif" font-size="10.00">include/cppgc/persistent.h</text>
</a>
</g>
</g>
<!-- Node4&#45;&gt;Node5 -->
<g id="edge4" class="edge">
<title>Node4&#45;&gt;Node5</title>
<path fill="none" stroke="midnightblue" d="M296.57,-125.88C260.8,-114.32 206.76,-96.84 174.81,-86.51"/>
<polygon fill="midnightblue" stroke="midnightblue" points="295.55,-129.23 306.14,-128.98 297.7,-122.57 295.55,-129.23"/>
</g>
<!-- Node6 -->
<g id="node6" class="node">
<title>Node6</title>
<g id="a_node6"><a xlink:href="cross-thread-persistent_8h.html" target="_top" xlink:title=" ">
<polygon fill="white" stroke="black" points="96.5,-0.5 96.5,-30.5 200.5,-30.5 200.5,-0.5 96.5,-0.5"/>
<text text-anchor="start" x="104.5" y="-18.5" font-family="Helvetica,sans-Serif" font-size="10.00">include/cppgc/cross</text>
<text text-anchor="middle" x="148.5" y="-7.5" font-family="Helvetica,sans-Serif" font-size="10.00">&#45;thread&#45;persistent.h</text>
</a>
</g>
</g>
<!-- Node4&#45;&gt;Node6 -->
<g id="edge6" class="edge">
<title>Node4&#45;&gt;Node6</title>
<path fill="none" stroke="midnightblue" d="M340.39,-119.11C345.68,-103.63 349.82,-81.72 338.5,-67 321.75,-45.22 250.92,-30.86 200.66,-23.2"/>
<polygon fill="midnightblue" stroke="midnightblue" points="337.05,-118.04 336.72,-128.63 343.59,-120.56 337.05,-118.04"/>
</g>
<!-- Node7 -->
<g id="node7" class="node">
<title>Node7</title>
<g id="a_node7"><a xlink:href="v8-cppgc_8h.html" target="_top" xlink:title=" ">
<polygon fill="white" stroke="black" points="231.5,-67.5 231.5,-86.5 329.5,-86.5 329.5,-67.5 231.5,-67.5"/>
<text text-anchor="middle" x="280.5" y="-74.5" font-family="Helvetica,sans-Serif" font-size="10.00">include/v8&#45;cppgc.h</text>
</a>
</g>
</g>
<!-- Node4&#45;&gt;Node7 -->
<g id="edge7" class="edge">
<title>Node4&#45;&gt;Node7</title>
<path fill="none" stroke="midnightblue" d="M318.23,-121.17C308.42,-109.95 295.81,-95.52 287.94,-86.51"/>
<polygon fill="midnightblue" stroke="midnightblue" points="315.83,-123.75 325.05,-128.98 321.1,-119.14 315.83,-123.75"/>
</g>
<!-- Node5&#45;&gt;Node6 -->
<g id="edge5" class="edge">
<title>Node5&#45;&gt;Node6</title>
<path fill="none" stroke="midnightblue" d="M148.5,-57.23C148.5,-48.59 148.5,-38.5 148.5,-30.52"/>
<polygon fill="midnightblue" stroke="midnightblue" points="145,-57.48 148.5,-67.48 152,-57.48 145,-57.48"/>
</g>
<!-- Node8&#45;&gt;Node3 -->
<g id="edge9" class="edge">
<title>Node8&#45;&gt;Node3</title>
<path fill="none" stroke="midnightblue" d="M168.22,-181.63C175.16,-170.07 183.17,-156.71 188.28,-148.19"/>
<polygon fill="midnightblue" stroke="midnightblue" points="165.11,-180.02 162.96,-190.4 171.11,-183.62 165.11,-180.02"/>
</g>
<!-- Node9&#45;&gt;Node5 -->
<g id="edge12" class="edge">
<title>Node9&#45;&gt;Node5</title>
<path fill="none" stroke="midnightblue" d="M86.33,-117.78C102.81,-107.23 122.27,-94.78 134.97,-86.66"/>
<polygon fill="midnightblue" stroke="midnightblue" points="84.08,-115.06 77.54,-123.4 87.85,-120.96 84.08,-115.06"/>
</g>
<!-- Node9&#45;&gt;Node6 -->
<g id="edge11" class="edge">
<title>Node9&#45;&gt;Node6</title>
<path fill="none" stroke="midnightblue" d="M57.8,-113.07C60.16,-98.6 64.91,-80.51 74.5,-67 85.58,-51.4 103.09,-39.14 118.3,-30.6"/>
<polygon fill="midnightblue" stroke="midnightblue" points="54.29,-112.92 56.43,-123.3 61.23,-113.85 54.29,-112.92"/>
</g>
<!-- Node10&#45;&gt;Node4 -->
<g id="edge14" class="edge">
<title>Node10&#45;&gt;Node4</title>
<path fill="none" stroke="midnightblue" d="M422.97,-185.8C398.62,-173.34 367.78,-157.56 349.12,-148.01"/>
<polygon fill="midnightblue" stroke="midnightblue" points="421.45,-188.96 431.94,-190.4 424.64,-182.72 421.45,-188.96"/>
</g>
<!-- Node11 -->
<g id="node11" class="node">
<title>Node11</title>
<g id="a_node11"><a xlink:href="prefinalizer-handler_8h.html" target="_top" xlink:title=" ">
<polygon fill="white" stroke="black" points="407,-123.5 407,-153.5 518,-153.5 518,-123.5 407,-123.5"/>
<text text-anchor="start" x="415" y="-141.5" font-family="Helvetica,sans-Serif" font-size="10.00">include/cppgc/internal</text>
<text text-anchor="middle" x="462.5" y="-130.5" font-family="Helvetica,sans-Serif" font-size="10.00">/prefinalizer&#45;handler.h</text>
</a>
</g>
</g>
<!-- Node10&#45;&gt;Node11 -->
<g id="edge15" class="edge">
<title>Node10&#45;&gt;Node11</title>
<path fill="none" stroke="midnightblue" d="M460.61,-180.4C461.03,-171.37 461.49,-161.41 461.85,-153.58"/>
<polygon fill="midnightblue" stroke="midnightblue" points="457.12,-180.25 460.15,-190.4 464.11,-180.57 457.12,-180.25"/>
</g>
<!-- Node12 -->
<g id="node12" class="node">
<title>Node12</title>
<g id="a_node12"><a xlink:href="prefinalizer_8h.html" target="_top" xlink:title=" ">
<polygon fill="white" stroke="black" points="438,-67.5 438,-86.5 571,-86.5 571,-67.5 438,-67.5"/>
<text text-anchor="middle" x="504.5" y="-74.5" font-family="Helvetica,sans-Serif" font-size="10.00">include/cppgc/prefinalizer.h</text>
</a>
</g>
</g>
<!-- Node10&#45;&gt;Node12 -->
<g id="edge17" class="edge">
<title>Node10&#45;&gt;Node12</title>
<path fill="none" stroke="midnightblue" d="M497.84,-184.75C509.18,-176.83 520.23,-166.57 526.5,-154 537.9,-131.13 521.12,-101.38 511.09,-86.81"/>
<polygon fill="midnightblue" stroke="midnightblue" points="495.69,-181.97 489.19,-190.34 499.48,-187.85 495.69,-181.97"/>
</g>
<!-- Node11&#45;&gt;Node12 -->
<g id="edge16" class="edge">
<title>Node11&#45;&gt;Node12</title>
<path fill="none" stroke="midnightblue" d="M478.31,-115.1C485.31,-105.19 493.13,-94.11 498.39,-86.66"/>
<polygon fill="midnightblue" stroke="midnightblue" points="475.36,-113.21 472.45,-123.4 481.08,-117.25 475.36,-113.21"/>
</g>
</g>
</svg>
