<?xml version="1.0" encoding="UTF-8" standalone="no"?>
<!DOCTYPE svg PUBLIC "-//W3C//DTD SVG 1.1//EN"
 "http://www.w3.org/Graphics/SVG/1.1/DTD/svg11.dtd">
<!-- Generated by graphviz version 2.44.0 ()
 -->
<!-- Title: include/cppgc/type&#45;traits.h Pages: 1 -->
<svg width="737pt" height="363pt"
 viewBox="0.00 0.00 736.50 363.00" xmlns="http://www.w3.org/2000/svg" xmlns:xlink="http://www.w3.org/1999/xlink">
<g id="graph0" class="graph" transform="scale(1 1) rotate(0) translate(4 359)">
<title>include/cppgc/type&#45;traits.h</title>
<polygon fill="white" stroke="transparent" points="-4,4 -4,-359 732.5,-359 732.5,4 -4,4"/>
<!-- Node1 -->
<g id="node1" class="node">
<title>Node1</title>
<g id="a_node1"><a xlink:title=" ">
<polygon fill="#bfbfbf" stroke="black" points="399.5,-324.5 399.5,-354.5 497.5,-354.5 497.5,-324.5 399.5,-324.5"/>
<text text-anchor="start" x="407.5" y="-342.5" font-family="Helvetica,sans-Serif" font-size="10.00">include/cppgc/type</text>
<text text-anchor="middle" x="448.5" y="-331.5" font-family="Helvetica,sans-Serif" font-size="10.00">&#45;traits.h</text>
</a>
</g>
</g>
<!-- Node2 -->
<g id="node2" class="node">
<title>Node2</title>
<g id="a_node2"><a xlink:href="trace-trait_8h.html" target="_top" xlink:title=" ">
<polygon fill="white" stroke="black" points="290,-257.5 290,-287.5 391,-287.5 391,-257.5 290,-257.5"/>
<text text-anchor="start" x="298" y="-275.5" font-family="Helvetica,sans-Serif" font-size="10.00">include/cppgc/trace</text>
<text text-anchor="middle" x="340.5" y="-264.5" font-family="Helvetica,sans-Serif" font-size="10.00">&#45;trait.h</text>
</a>
</g>
</g>
<!-- Node1&#45;&gt;Node2 -->
<g id="edge1" class="edge">
<title>Node1&#45;&gt;Node2</title>
<path fill="none" stroke="midnightblue" d="M416.13,-319.02C399.32,-308.9 379.16,-296.77 363.89,-287.58"/>
<polygon fill="midnightblue" stroke="midnightblue" points="414.69,-322.24 425.07,-324.4 418.3,-316.24 414.69,-322.24"/>
</g>
<!-- Node3 -->
<g id="node3" class="node">
<title>Node3</title>
<g id="a_node3"><a xlink:href="garbage-collected_8h.html" target="_top" xlink:title=" ">
<polygon fill="white" stroke="black" points="129.5,-190.5 129.5,-220.5 243.5,-220.5 243.5,-190.5 129.5,-190.5"/>
<text text-anchor="start" x="137.5" y="-208.5" font-family="Helvetica,sans-Serif" font-size="10.00">include/cppgc/garbage</text>
<text text-anchor="middle" x="186.5" y="-197.5" font-family="Helvetica,sans-Serif" font-size="10.00">&#45;collected.h</text>
</a>
</g>
</g>
<!-- Node1&#45;&gt;Node3 -->
<g id="edge20" class="edge">
<title>Node1&#45;&gt;Node3</title>
<path fill="none" stroke="midnightblue" d="M389.23,-327.14C355.91,-319.2 314.35,-306.63 280.5,-288 247.57,-269.88 215.98,-238.74 199.12,-220.65"/>
<polygon fill="midnightblue" stroke="midnightblue" points="388.76,-330.62 399.29,-329.45 390.33,-323.8 388.76,-330.62"/>
</g>
<!-- Node5 -->
<g id="node5" class="node">
<title>Node5</title>
<g id="a_node5"><a xlink:href="visitor_8h.html" target="_top" xlink:title=" ">
<polygon fill="white" stroke="black" points="479,-129 479,-148 592,-148 592,-129 479,-129"/>
<text text-anchor="middle" x="535.5" y="-136" font-family="Helvetica,sans-Serif" font-size="10.00">include/cppgc/visitor.h</text>
</a>
</g>
</g>
<!-- Node1&#45;&gt;Node5 -->
<g id="edge29" class="edge">
<title>Node1&#45;&gt;Node5</title>
<path fill="none" stroke="midnightblue" d="M504.52,-320.81C548.14,-303.44 604.53,-271.99 624.5,-221 629.52,-208.17 631.43,-201.91 624.5,-190 612.07,-168.66 586.9,-155.61 566.49,-148.13"/>
<polygon fill="midnightblue" stroke="midnightblue" points="503.22,-317.56 495.14,-324.41 505.73,-324.1 503.22,-317.56"/>
</g>
<!-- Node6 -->
<g id="node6" class="node">
<title>Node6</title>
<g id="a_node6"><a xlink:href="persistent_8h.html" target="_top" xlink:title=" ">
<polygon fill="white" stroke="black" points="598.5,-67.5 598.5,-86.5 728.5,-86.5 728.5,-67.5 598.5,-67.5"/>
<text text-anchor="middle" x="663.5" y="-74.5" font-family="Helvetica,sans-Serif" font-size="10.00">include/cppgc/persistent.h</text>
</a>
</g>
</g>
<!-- Node1&#45;&gt;Node6 -->
<g id="edge23" class="edge">
<title>Node1&#45;&gt;Node6</title>
<path fill="none" stroke="midnightblue" d="M507.65,-328.41C537.29,-321.06 572.33,-308.64 598.5,-288 664.13,-236.24 665.04,-119.35 663.93,-86.65"/>
<polygon fill="midnightblue" stroke="midnightblue" points="506.77,-325.02 497.83,-330.72 508.37,-331.84 506.77,-325.02"/>
</g>
<!-- Node14 -->
<g id="node14" class="node">
<title>Node14</title>
<g id="a_node14"><a xlink:href="finalizer-trait_8h.html" target="_top" xlink:title=" ">
<polygon fill="white" stroke="black" points="47,-257.5 47,-287.5 158,-287.5 158,-257.5 47,-257.5"/>
<text text-anchor="start" x="55" y="-275.5" font-family="Helvetica,sans-Serif" font-size="10.00">include/cppgc/internal</text>
<text text-anchor="middle" x="102.5" y="-264.5" font-family="Helvetica,sans-Serif" font-size="10.00">/finalizer&#45;trait.h</text>
</a>
</g>
</g>
<!-- Node1&#45;&gt;Node14 -->
<g id="edge21" class="edge">
<title>Node1&#45;&gt;Node14</title>
<path fill="none" stroke="midnightblue" d="M389.24,-327.37C324.44,-315.19 221.44,-295.84 158.12,-283.95"/>
<polygon fill="midnightblue" stroke="midnightblue" points="388.82,-330.85 399.29,-329.26 390.11,-323.97 388.82,-330.85"/>
</g>
<!-- Node15 -->
<g id="node15" class="node">
<title>Node15</title>
<g id="a_node15"><a xlink:href="member_8h.html" target="_top" xlink:title=" ">
<polygon fill="white" stroke="black" points="431.5,-263 431.5,-282 553.5,-282 553.5,-263 431.5,-263"/>
<text text-anchor="middle" x="492.5" y="-270" font-family="Helvetica,sans-Serif" font-size="10.00">include/cppgc/member.h</text>
</a>
</g>
</g>
<!-- Node1&#45;&gt;Node15 -->
<g id="edge24" class="edge">
<title>Node1&#45;&gt;Node15</title>
<path fill="none" stroke="midnightblue" d="M463.75,-315.97C471.63,-304.33 480.79,-290.8 486.61,-282.19"/>
<polygon fill="midnightblue" stroke="midnightblue" points="460.75,-314.15 458.05,-324.4 466.55,-318.08 460.75,-314.15"/>
</g>
<!-- Node2&#45;&gt;Node3 -->
<g id="edge2" class="edge">
<title>Node2&#45;&gt;Node3</title>
<path fill="none" stroke="midnightblue" d="M297.63,-253.41C273.05,-243.03 242.64,-230.2 219.85,-220.58"/>
<polygon fill="midnightblue" stroke="midnightblue" points="296.51,-256.73 307.08,-257.4 299.23,-250.28 296.51,-256.73"/>
</g>
<!-- Node2&#45;&gt;Node5 -->
<g id="edge19" class="edge">
<title>Node2&#45;&gt;Node5</title>
<path fill="none" stroke="midnightblue" d="M369.76,-251.69C412.97,-222.44 492.05,-168.91 522.8,-148.1"/>
<polygon fill="midnightblue" stroke="midnightblue" points="367.69,-248.87 361.37,-257.37 371.61,-254.67 367.69,-248.87"/>
</g>
<!-- Node9 -->
<g id="node9" class="node">
<title>Node9</title>
<g id="a_node9"><a xlink:href="gc-info_8h.html" target="_top" xlink:title=" ">
<polygon fill="white" stroke="black" points="0,-190.5 0,-220.5 111,-220.5 111,-190.5 0,-190.5"/>
<text text-anchor="start" x="8" y="-208.5" font-family="Helvetica,sans-Serif" font-size="10.00">include/cppgc/internal</text>
<text text-anchor="middle" x="55.5" y="-197.5" font-family="Helvetica,sans-Serif" font-size="10.00">/gc&#45;info.h</text>
</a>
</g>
</g>
<!-- Node2&#45;&gt;Node9 -->
<g id="edge9" class="edge">
<title>Node2&#45;&gt;Node9</title>
<path fill="none" stroke="midnightblue" d="M279.85,-257.67C229.86,-246.27 159.53,-230.23 111.01,-219.16"/>
<polygon fill="midnightblue" stroke="midnightblue" points="279.35,-261.14 289.88,-259.95 280.9,-254.32 279.35,-261.14"/>
</g>
<!-- Node10 -->
<g id="node10" class="node">
<title>Node10</title>
<g id="a_node10"><a xlink:href="persistent-node_8h.html" target="_top" xlink:title=" ">
<polygon fill="white" stroke="black" points="350,-123.5 350,-153.5 461,-153.5 461,-123.5 350,-123.5"/>
<text text-anchor="start" x="358" y="-141.5" font-family="Helvetica,sans-Serif" font-size="10.00">include/cppgc/internal</text>
<text text-anchor="middle" x="405.5" y="-130.5" font-family="Helvetica,sans-Serif" font-size="10.00">/persistent&#45;node.h</text>
</a>
</g>
</g>
<!-- Node2&#45;&gt;Node10 -->
<g id="edge11" class="edge">
<title>Node2&#45;&gt;Node10</title>
<path fill="none" stroke="midnightblue" d="M364.53,-250.06C372.58,-241.71 380.92,-231.61 386.5,-221 397.99,-199.14 402.6,-170.37 404.4,-153.51"/>
<polygon fill="midnightblue" stroke="midnightblue" points="361.96,-247.67 357.3,-257.19 366.87,-252.66 361.96,-247.67"/>
</g>
<!-- Node11 -->
<g id="node11" class="node">
<title>Node11</title>
<g id="a_node11"><a xlink:href="liveness-broker_8h.html" target="_top" xlink:title=" ">
<polygon fill="white" stroke="black" points="261.5,-190.5 261.5,-220.5 377.5,-220.5 377.5,-190.5 261.5,-190.5"/>
<text text-anchor="start" x="269.5" y="-208.5" font-family="Helvetica,sans-Serif" font-size="10.00">include/cppgc/liveness</text>
<text text-anchor="middle" x="319.5" y="-197.5" font-family="Helvetica,sans-Serif" font-size="10.00">&#45;broker.h</text>
</a>
</g>
</g>
<!-- Node2&#45;&gt;Node11 -->
<g id="edge14" class="edge">
<title>Node2&#45;&gt;Node11</title>
<path fill="none" stroke="midnightblue" d="M332.81,-247.7C329.87,-238.59 326.61,-228.49 324.05,-220.58"/>
<polygon fill="midnightblue" stroke="midnightblue" points="329.54,-248.96 335.94,-257.4 336.2,-246.8 329.54,-248.96"/>
</g>
<!-- Node4 -->
<g id="node4" class="node">
<title>Node4</title>
<g id="a_node4"><a xlink:href="allocation_8h.html" target="_top" xlink:title=" ">
<polygon fill="white" stroke="black" points="12.5,-129 12.5,-148 140.5,-148 140.5,-129 12.5,-129"/>
<text text-anchor="middle" x="76.5" y="-136" font-family="Helvetica,sans-Serif" font-size="10.00">include/cppgc/allocation.h</text>
</a>
</g>
</g>
<!-- Node3&#45;&gt;Node4 -->
<g id="edge3" class="edge">
<title>Node3&#45;&gt;Node4</title>
<path fill="none" stroke="midnightblue" d="M154.02,-185.31C133.07,-172.93 106.84,-157.43 90.9,-148.01"/>
<polygon fill="midnightblue" stroke="midnightblue" points="152.24,-188.32 162.63,-190.4 155.8,-182.3 152.24,-188.32"/>
</g>
<!-- Node3&#45;&gt;Node5 -->
<g id="edge4" class="edge">
<title>Node3&#45;&gt;Node5</title>
<path fill="none" stroke="midnightblue" d="M253.59,-189.85C350.18,-171.55 376.6,-171.9 469.5,-154 478.83,-152.2 488.86,-150.09 498.22,-148.04"/>
<polygon fill="midnightblue" stroke="midnightblue" points="252.86,-186.43 243.7,-191.74 254.18,-193.3 252.86,-186.43"/>
</g>
<!-- Node5&#45;&gt;Node6 -->
<g id="edge5" class="edge">
<title>Node5&#45;&gt;Node6</title>
<path fill="none" stroke="midnightblue" d="M563.09,-124.67C587.93,-113.13 623.73,-96.49 645.19,-86.51"/>
<polygon fill="midnightblue" stroke="midnightblue" points="561.43,-121.59 553.84,-128.98 564.38,-127.93 561.43,-121.59"/>
</g>
<!-- Node7 -->
<g id="node7" class="node">
<title>Node7</title>
<g id="a_node7"><a xlink:href="cross-thread-persistent_8h.html" target="_top" xlink:title=" ">
<polygon fill="white" stroke="black" points="402.5,-0.5 402.5,-30.5 506.5,-30.5 506.5,-0.5 402.5,-0.5"/>
<text text-anchor="start" x="410.5" y="-18.5" font-family="Helvetica,sans-Serif" font-size="10.00">include/cppgc/cross</text>
<text text-anchor="middle" x="454.5" y="-7.5" font-family="Helvetica,sans-Serif" font-size="10.00">&#45;thread&#45;persistent.h</text>
</a>
</g>
</g>
<!-- Node5&#45;&gt;Node7 -->
<g id="edge7" class="edge">
<title>Node5&#45;&gt;Node7</title>
<path fill="none" stroke="midnightblue" d="M511.62,-123.34C498.56,-114.45 483.13,-101.86 473.5,-87 462.19,-69.56 457.57,-45.53 455.72,-30.51"/>
<polygon fill="midnightblue" stroke="midnightblue" points="509.88,-126.39 520.18,-128.89 513.69,-120.51 509.88,-126.39"/>
</g>
<!-- Node8 -->
<g id="node8" class="node">
<title>Node8</title>
<g id="a_node8"><a xlink:href="v8-cppgc_8h.html" target="_top" xlink:title=" ">
<polygon fill="white" stroke="black" points="482.5,-67.5 482.5,-86.5 580.5,-86.5 580.5,-67.5 482.5,-67.5"/>
<text text-anchor="middle" x="531.5" y="-74.5" font-family="Helvetica,sans-Serif" font-size="10.00">include/v8&#45;cppgc.h</text>
</a>
</g>
</g>
<!-- Node5&#45;&gt;Node8 -->
<g id="edge8" class="edge">
<title>Node5&#45;&gt;Node8</title>
<path fill="none" stroke="midnightblue" d="M534.24,-118.82C533.52,-108 532.64,-94.9 532.07,-86.51"/>
<polygon fill="midnightblue" stroke="midnightblue" points="530.76,-119.23 534.93,-128.98 537.75,-118.76 530.76,-119.23"/>
</g>
<!-- Node6&#45;&gt;Node7 -->
<g id="edge6" class="edge">
<title>Node6&#45;&gt;Node7</title>
<path fill="none" stroke="midnightblue" d="M623.93,-64.73C589.82,-55.02 540.42,-40.96 503.76,-30.52"/>
<polygon fill="midnightblue" stroke="midnightblue" points="622.98,-68.1 633.56,-67.48 624.9,-61.37 622.98,-68.1"/>
</g>
<!-- Node9&#45;&gt;Node4 -->
<g id="edge10" class="edge">
<title>Node9&#45;&gt;Node4</title>
<path fill="none" stroke="midnightblue" d="M63.22,-180.6C66.88,-169.28 71.02,-156.46 73.69,-148.19"/>
<polygon fill="midnightblue" stroke="midnightblue" points="59.8,-179.8 60.06,-190.4 66.46,-181.96 59.8,-179.8"/>
</g>
<!-- Node10&#45;&gt;Node6 -->
<g id="edge13" class="edge">
<title>Node10&#45;&gt;Node6</title>
<path fill="none" stroke="midnightblue" d="M471.11,-122.37C520.41,-111 586.16,-95.84 626.63,-86.5"/>
<polygon fill="midnightblue" stroke="midnightblue" points="470.12,-119 461.16,-124.66 471.7,-125.83 470.12,-119"/>
</g>
<!-- Node10&#45;&gt;Node7 -->
<g id="edge12" class="edge">
<title>Node10&#45;&gt;Node7</title>
<path fill="none" stroke="midnightblue" d="M415.11,-113.78C425.1,-89.11 440.41,-51.29 448.69,-30.84"/>
<polygon fill="midnightblue" stroke="midnightblue" points="411.82,-112.56 411.31,-123.14 418.31,-115.19 411.82,-112.56"/>
</g>
<!-- Node11&#45;&gt;Node5 -->
<g id="edge15" class="edge">
<title>Node11&#45;&gt;Node5</title>
<path fill="none" stroke="midnightblue" d="M375.69,-187.59C417.88,-174.9 473.88,-158.04 507.16,-148.03"/>
<polygon fill="midnightblue" stroke="midnightblue" points="374.67,-184.24 366.1,-190.48 376.69,-190.95 374.67,-184.24"/>
</g>
<!-- Node12 -->
<g id="node12" class="node">
<title>Node12</title>
<g id="a_node12"><a xlink:href="prefinalizer-handler_8h.html" target="_top" xlink:title=" ">
<polygon fill="white" stroke="black" points="181,-123.5 181,-153.5 292,-153.5 292,-123.5 181,-123.5"/>
<text text-anchor="start" x="189" y="-141.5" font-family="Helvetica,sans-Serif" font-size="10.00">include/cppgc/internal</text>
<text text-anchor="middle" x="236.5" y="-130.5" font-family="Helvetica,sans-Serif" font-size="10.00">/prefinalizer&#45;handler.h</text>
</a>
</g>
</g>
<!-- Node11&#45;&gt;Node12 -->
<g id="edge16" class="edge">
<title>Node11&#45;&gt;Node12</title>
<path fill="none" stroke="midnightblue" d="M293.54,-184.17C280.85,-174.23 265.89,-162.51 254.47,-153.58"/>
<polygon fill="midnightblue" stroke="midnightblue" points="291.46,-186.99 301.49,-190.4 295.78,-181.47 291.46,-186.99"/>
</g>
<!-- Node13 -->
<g id="node13" class="node">
<title>Node13</title>
<g id="a_node13"><a xlink:href="prefinalizer_8h.html" target="_top" xlink:title=" ">
<polygon fill="white" stroke="black" points="212,-67.5 212,-86.5 345,-86.5 345,-67.5 212,-67.5"/>
<text text-anchor="middle" x="278.5" y="-74.5" font-family="Helvetica,sans-Serif" font-size="10.00">include/cppgc/prefinalizer.h</text>
</a>
</g>
</g>
<!-- Node11&#45;&gt;Node13 -->
<g id="edge18" class="edge">
<title>Node11&#45;&gt;Node13</title>
<path fill="none" stroke="midnightblue" d="M315.38,-180.49C312.2,-164.04 307.21,-141.86 300.5,-123 295.84,-109.89 288.41,-95.59 283.49,-86.71"/>
<polygon fill="midnightblue" stroke="midnightblue" points="311.95,-181.18 317.21,-190.38 318.84,-179.91 311.95,-181.18"/>
</g>
<!-- Node12&#45;&gt;Node13 -->
<g id="edge17" class="edge">
<title>Node12&#45;&gt;Node13</title>
<path fill="none" stroke="midnightblue" d="M252.31,-115.1C259.31,-105.19 267.13,-94.11 272.39,-86.66"/>
<polygon fill="midnightblue" stroke="midnightblue" points="249.36,-113.21 246.45,-123.4 255.08,-117.25 249.36,-113.21"/>
</g>
<!-- Node14&#45;&gt;Node9 -->
<g id="edge22" class="edge">
<title>Node14&#45;&gt;Node9</title>
<path fill="none" stroke="midnightblue" d="M86.34,-249.16C79.49,-239.68 71.71,-228.92 65.68,-220.58"/>
<polygon fill="midnightblue" stroke="midnightblue" points="83.61,-251.34 92.3,-257.4 89.28,-247.24 83.61,-251.34"/>
</g>
<!-- Node15&#45;&gt;Node5 -->
<g id="edge28" class="edge">
<title>Node15&#45;&gt;Node5</title>
<path fill="none" stroke="midnightblue" d="M552.02,-259.91C573.56,-252.53 595.71,-240.52 608.5,-221 616.05,-209.48 614.9,-202.2 608.5,-190 597.91,-169.8 575.17,-156.08 557.86,-148.09"/>
<polygon fill="midnightblue" stroke="midnightblue" points="550.7,-256.66 542.2,-262.98 552.79,-263.34 550.7,-256.66"/>
</g>
<!-- Node15&#45;&gt;Node11 -->
<g id="edge27" class="edge">
<title>Node15&#45;&gt;Node11</title>
<path fill="none" stroke="midnightblue" d="M460.15,-259.35C430.83,-248.33 387.62,-232.09 356.84,-220.53"/>
<polygon fill="midnightblue" stroke="midnightblue" points="458.93,-262.63 469.53,-262.87 461.4,-256.07 458.93,-262.63"/>
</g>
<!-- Node16 -->
<g id="node16" class="node">
<title>Node16</title>
<g id="a_node16"><a xlink:href="ephemeron-pair_8h.html" target="_top" xlink:title=" ">
<polygon fill="white" stroke="black" points="471.5,-190.5 471.5,-220.5 599.5,-220.5 599.5,-190.5 471.5,-190.5"/>
<text text-anchor="start" x="479.5" y="-208.5" font-family="Helvetica,sans-Serif" font-size="10.00">include/cppgc/ephemeron</text>
<text text-anchor="middle" x="535.5" y="-197.5" font-family="Helvetica,sans-Serif" font-size="10.00">&#45;pair.h</text>
</a>
</g>
</g>
<!-- Node15&#45;&gt;Node16 -->
<g id="edge25" class="edge">
<title>Node15&#45;&gt;Node16</title>
<path fill="none" stroke="midnightblue" d="M503.84,-254.35C510.81,-243.82 519.62,-230.5 526.18,-220.59"/>
<polygon fill="midnightblue" stroke="midnightblue" points="500.9,-252.46 498.3,-262.73 506.74,-256.32 500.9,-252.46"/>
</g>
<!-- Node16&#45;&gt;Node5 -->
<g id="edge26" class="edge">
<title>Node16&#45;&gt;Node5</title>
<path fill="none" stroke="midnightblue" d="M535.5,-180.25C535.5,-169.02 535.5,-156.38 535.5,-148.19"/>
<polygon fill="midnightblue" stroke="midnightblue" points="532,-180.4 535.5,-190.4 539,-180.4 532,-180.4"/>
</g>
</g>
</svg>
