<?xml version="1.0" encoding="UTF-8" standalone="no"?>
<!DOCTYPE svg PUBLIC "-//W3C//DTD SVG 1.1//EN"
 "http://www.w3.org/Graphics/SVG/1.1/DTD/svg11.dtd">
<!-- Generated by graphviz version 2.44.0 ()
 -->
<!-- Title: include/v8&#45;inspector.h Pages: 1 -->
<svg width="804pt" height="196pt"
 viewBox="0.00 0.00 803.69 196.00" xmlns="http://www.w3.org/2000/svg" xmlns:xlink="http://www.w3.org/1999/xlink">
<g id="graph0" class="graph" transform="scale(1 1) rotate(0) translate(4 192)">
<title>include/v8&#45;inspector.h</title>
<polygon fill="white" stroke="transparent" points="-4,4 -4,-192 799.69,-192 799.69,4 -4,4"/>
<!-- Node1 -->
<g id="node1" class="node">
<title>Node1</title>
<g id="a_node1"><a xlink:title=" ">
<polygon fill="#bfbfbf" stroke="black" points="301.19,-168.5 301.19,-187.5 412.19,-187.5 412.19,-168.5 301.19,-168.5"/>
<text text-anchor="middle" x="356.69" y="-175.5" font-family="Helvetica,sans-Serif" font-size="10.00">include/v8&#45;inspector.h</text>
</a>
</g>
</g>
<!-- Node2 -->
<g id="node2" class="node">
<title>Node2</title>
<g id="a_node2"><a xlink:title=" ">
<polygon fill="white" stroke="#bfbfbf" points="69.69,-0.5 69.69,-19.5 117.69,-19.5 117.69,-0.5 69.69,-0.5"/>
<text text-anchor="middle" x="93.69" y="-7.5" font-family="Helvetica,sans-Serif" font-size="10.00">stdint.h</text>
</a>
</g>
</g>
<!-- Node1&#45;&gt;Node2 -->
<g id="edge1" class="edge">
<title>Node1&#45;&gt;Node2</title>
<path fill="none" stroke="midnightblue" d="M300.92,-169.44C210.65,-155.91 39.14,-124.35 4.69,-76 -13.41,-50.58 27.69,-31.16 59.9,-20.42"/>
<polygon fill="midnightblue" stroke="midnightblue" points="61.06,-23.72 69.54,-17.37 58.95,-17.05 61.06,-23.72"/>
</g>
<!-- Node3 -->
<g id="node3" class="node">
<title>Node3</title>
<g id="a_node3"><a xlink:title=" ">
<polygon fill="white" stroke="#bfbfbf" points="392.19,-112.5 392.19,-131.5 437.19,-131.5 437.19,-112.5 392.19,-112.5"/>
<text text-anchor="middle" x="414.69" y="-119.5" font-family="Helvetica,sans-Serif" font-size="10.00">cctype</text>
</a>
</g>
</g>
<!-- Node1&#45;&gt;Node3 -->
<g id="edge2" class="edge">
<title>Node1&#45;&gt;Node3</title>
<path fill="none" stroke="midnightblue" d="M366.01,-168.32C374.59,-160.34 387.51,-148.31 397.88,-138.65"/>
<polygon fill="midnightblue" stroke="midnightblue" points="400.27,-141.21 405.21,-131.83 395.5,-136.09 400.27,-141.21"/>
</g>
<!-- Node4 -->
<g id="node4" class="node">
<title>Node4</title>
<g id="a_node4"><a xlink:title=" ">
<polygon fill="white" stroke="#bfbfbf" points="14.19,-56.5 14.19,-75.5 65.19,-75.5 65.19,-56.5 14.19,-56.5"/>
<text text-anchor="middle" x="39.69" y="-63.5" font-family="Helvetica,sans-Serif" font-size="10.00">memory</text>
</a>
</g>
</g>
<!-- Node1&#45;&gt;Node4 -->
<g id="edge3" class="edge">
<title>Node1&#45;&gt;Node4</title>
<path fill="none" stroke="midnightblue" d="M332.08,-168.46C276.02,-149.01 138.7,-101.36 74.21,-78.98"/>
<polygon fill="midnightblue" stroke="midnightblue" points="75.1,-75.58 64.51,-75.61 72.81,-82.2 75.1,-75.58"/>
</g>
<!-- Node5 -->
<g id="node5" class="node">
<title>Node5</title>
<g id="a_node5"><a xlink:title=" ">
<polygon fill="white" stroke="#bfbfbf" points="455.19,-112.5 455.19,-131.5 538.19,-131.5 538.19,-112.5 455.19,-112.5"/>
<text text-anchor="middle" x="496.69" y="-119.5" font-family="Helvetica,sans-Serif" font-size="10.00">unordered_map</text>
</a>
</g>
</g>
<!-- Node1&#45;&gt;Node5 -->
<g id="edge4" class="edge">
<title>Node1&#45;&gt;Node5</title>
<path fill="none" stroke="midnightblue" d="M378.88,-168.44C402.12,-159.48 438.84,-145.31 465.11,-135.18"/>
<polygon fill="midnightblue" stroke="midnightblue" points="466.54,-138.38 474.61,-131.52 464.03,-131.85 466.54,-138.38"/>
</g>
<!-- Node6 -->
<g id="node6" class="node">
<title>Node6</title>
<g id="a_node6"><a xlink:href="v8_8h.html" target="_top" xlink:title=" ">
<polygon fill="white" stroke="black" points="339.19,-112.5 339.19,-131.5 374.19,-131.5 374.19,-112.5 339.19,-112.5"/>
<text text-anchor="middle" x="356.69" y="-119.5" font-family="Helvetica,sans-Serif" font-size="10.00">v8.h</text>
</a>
</g>
</g>
<!-- Node1&#45;&gt;Node6 -->
<g id="edge5" class="edge">
<title>Node1&#45;&gt;Node6</title>
<path fill="none" stroke="midnightblue" d="M356.69,-168.08C356.69,-161.01 356.69,-150.86 356.69,-141.99"/>
<polygon fill="midnightblue" stroke="midnightblue" points="360.19,-141.75 356.69,-131.75 353.19,-141.75 360.19,-141.75"/>
</g>
<!-- Node6&#45;&gt;Node2 -->
<g id="edge7" class="edge">
<title>Node6&#45;&gt;Node2</title>
<path fill="none" stroke="midnightblue" d="M339.14,-120.1C288.95,-117.17 146.27,-106.31 112.69,-76 99.76,-64.32 95.43,-44.38 94.08,-29.65"/>
<polygon fill="midnightblue" stroke="midnightblue" points="97.58,-29.43 93.54,-19.63 90.59,-29.81 97.58,-29.43"/>
</g>
<!-- Node6&#45;&gt;Node4 -->
<g id="edge10" class="edge">
<title>Node6&#45;&gt;Node4</title>
<path fill="none" stroke="midnightblue" d="M339.13,-118.52C295.23,-112.25 177.27,-94.89 79.69,-76 78.25,-75.72 76.78,-75.43 75.3,-75.13"/>
<polygon fill="midnightblue" stroke="midnightblue" points="75.98,-71.69 65.47,-73.04 74.52,-78.54 75.98,-71.69"/>
</g>
<!-- Node7 -->
<g id="node7" class="node">
<title>Node7</title>
<g id="a_node7"><a xlink:title=" ">
<polygon fill="white" stroke="#bfbfbf" points="664.19,-0.5 664.19,-19.5 715.19,-19.5 715.19,-0.5 664.19,-0.5"/>
<text text-anchor="middle" x="689.69" y="-7.5" font-family="Helvetica,sans-Serif" font-size="10.00">stddef.h</text>
</a>
</g>
</g>
<!-- Node6&#45;&gt;Node7 -->
<g id="edge6" class="edge">
<title>Node6&#45;&gt;Node7</title>
<path fill="none" stroke="midnightblue" d="M374.45,-114.3C377.19,-113.43 380,-112.63 382.69,-112 445.73,-97.33 622.71,-118.3 671.69,-76 684.83,-64.66 688.79,-44.66 689.79,-29.83"/>
<polygon fill="midnightblue" stroke="midnightblue" points="693.3,-29.83 690.09,-19.73 686.3,-29.62 693.3,-29.83"/>
</g>
<!-- Node8 -->
<g id="node8" class="node">
<title>Node8</title>
<g id="a_node8"><a xlink:title=" ">
<polygon fill="white" stroke="#bfbfbf" points="270.19,-56.5 270.19,-75.5 315.19,-75.5 315.19,-56.5 270.19,-56.5"/>
<text text-anchor="middle" x="292.69" y="-63.5" font-family="Helvetica,sans-Serif" font-size="10.00">stdio.h</text>
</a>
</g>
</g>
<!-- Node6&#45;&gt;Node8 -->
<g id="edge8" class="edge">
<title>Node6&#45;&gt;Node8</title>
<path fill="none" stroke="midnightblue" d="M346.41,-112.32C336.86,-104.26 322.41,-92.08 310.91,-82.37"/>
<polygon fill="midnightblue" stroke="midnightblue" points="313.06,-79.61 303.16,-75.83 308.55,-84.96 313.06,-79.61"/>
</g>
<!-- Node9 -->
<g id="node9" class="node">
<title>Node9</title>
<g id="a_node9"><a xlink:title=" ">
<polygon fill="white" stroke="#bfbfbf" points="333.69,-56.5 333.69,-75.5 379.69,-75.5 379.69,-56.5 333.69,-56.5"/>
<text text-anchor="middle" x="356.69" y="-63.5" font-family="Helvetica,sans-Serif" font-size="10.00">atomic</text>
</a>
</g>
</g>
<!-- Node6&#45;&gt;Node9 -->
<g id="edge9" class="edge">
<title>Node6&#45;&gt;Node9</title>
<path fill="none" stroke="midnightblue" d="M356.69,-112.08C356.69,-105.01 356.69,-94.86 356.69,-85.99"/>
<polygon fill="midnightblue" stroke="midnightblue" points="360.19,-85.75 356.69,-75.75 353.19,-85.75 360.19,-85.75"/>
</g>
<!-- Node10 -->
<g id="node10" class="node">
<title>Node10</title>
<g id="a_node10"><a xlink:title=" ">
<polygon fill="white" stroke="#bfbfbf" points="398.19,-56.5 398.19,-75.5 439.19,-75.5 439.19,-56.5 398.19,-56.5"/>
<text text-anchor="middle" x="418.69" y="-63.5" font-family="Helvetica,sans-Serif" font-size="10.00">string</text>
</a>
</g>
</g>
<!-- Node6&#45;&gt;Node10 -->
<g id="edge11" class="edge">
<title>Node6&#45;&gt;Node10</title>
<path fill="none" stroke="midnightblue" d="M366.66,-112.32C375.82,-104.34 389.63,-92.31 400.72,-82.65"/>
<polygon fill="midnightblue" stroke="midnightblue" points="403.31,-85.04 408.55,-75.83 398.71,-79.76 403.31,-85.04"/>
</g>
<!-- Node11 -->
<g id="node11" class="node">
<title>Node11</title>
<g id="a_node11"><a xlink:title=" ">
<polygon fill="white" stroke="#bfbfbf" points="733.69,-0.5 733.69,-19.5 795.69,-19.5 795.69,-0.5 733.69,-0.5"/>
<text text-anchor="middle" x="764.69" y="-7.5" font-family="Helvetica,sans-Serif" font-size="10.00">type_traits</text>
</a>
</g>
</g>
<!-- Node6&#45;&gt;Node11 -->
<g id="edge12" class="edge">
<title>Node6&#45;&gt;Node11</title>
<path fill="none" stroke="midnightblue" d="M374.45,-114.28C377.18,-113.42 379.99,-112.62 382.69,-112 517.48,-81.2 565.55,-132.6 691.69,-76 716.25,-64.98 738.41,-42.66 751.7,-27.28"/>
<polygon fill="midnightblue" stroke="midnightblue" points="754.42,-29.48 758.14,-19.56 749.05,-25 754.42,-29.48"/>
</g>
<!-- Node12 -->
<g id="node12" class="node">
<title>Node12</title>
<g id="a_node12"><a xlink:title=" ">
<polygon fill="white" stroke="#bfbfbf" points="457.19,-56.5 457.19,-75.5 496.19,-75.5 496.19,-56.5 457.19,-56.5"/>
<text text-anchor="middle" x="476.69" y="-63.5" font-family="Helvetica,sans-Serif" font-size="10.00">utility</text>
</a>
</g>
</g>
<!-- Node6&#45;&gt;Node12 -->
<g id="edge13" class="edge">
<title>Node6&#45;&gt;Node12</title>
<path fill="none" stroke="midnightblue" d="M374.4,-113.03C393.91,-104.25 425.56,-90.01 448.49,-79.69"/>
<polygon fill="midnightblue" stroke="midnightblue" points="450.04,-82.83 457.73,-75.54 447.17,-76.45 450.04,-82.83"/>
</g>
<!-- Node13 -->
<g id="node13" class="node">
<title>Node13</title>
<g id="a_node13"><a xlink:title=" ">
<polygon fill="white" stroke="#bfbfbf" points="514.69,-56.5 514.69,-75.5 558.69,-75.5 558.69,-56.5 514.69,-56.5"/>
<text text-anchor="middle" x="536.69" y="-63.5" font-family="Helvetica,sans-Serif" font-size="10.00">vector</text>
</a>
</g>
</g>
<!-- Node6&#45;&gt;Node13 -->
<g id="edge14" class="edge">
<title>Node6&#45;&gt;Node13</title>
<path fill="none" stroke="midnightblue" d="M374.28,-114.78C377.09,-113.83 379.96,-112.87 382.69,-112 388.62,-110.11 461.29,-88.94 504.65,-76.32"/>
<polygon fill="midnightblue" stroke="midnightblue" points="505.84,-79.62 514.47,-73.46 503.89,-72.9 505.84,-79.62"/>
</g>
<!-- Node14 -->
<g id="node14" class="node">
<title>Node14</title>
<g id="a_node14"><a xlink:href="common_8h.html" target="_top" xlink:title=" ">
<polygon fill="white" stroke="black" points="122.19,-56.5 122.19,-75.5 213.19,-75.5 213.19,-56.5 122.19,-56.5"/>
<text text-anchor="middle" x="167.69" y="-63.5" font-family="Helvetica,sans-Serif" font-size="10.00">cppgc/common.h</text>
</a>
</g>
</g>
<!-- Node6&#45;&gt;Node14 -->
<g id="edge15" class="edge">
<title>Node6&#45;&gt;Node14</title>
<path fill="none" stroke="midnightblue" d="M338.91,-115.92C309.01,-107.38 247.95,-89.93 207.42,-78.35"/>
<polygon fill="midnightblue" stroke="midnightblue" points="208.17,-74.92 197.59,-75.54 206.24,-81.65 208.17,-74.92"/>
</g>
<!-- Node15 -->
<g id="node15" class="node">
<title>Node15</title>
<g id="a_node15"><a xlink:href="v8config_8h.html" target="_top" xlink:title=" ">
<polygon fill="white" stroke="black" points="211.69,-0.5 211.69,-19.5 271.69,-19.5 271.69,-0.5 211.69,-0.5"/>
<text text-anchor="middle" x="241.69" y="-7.5" font-family="Helvetica,sans-Serif" font-size="10.00">v8config.h</text>
</a>
</g>
</g>
<!-- Node6&#45;&gt;Node15 -->
<g id="edge25" class="edge">
<title>Node6&#45;&gt;Node15</title>
<path fill="none" stroke="midnightblue" d="M339.12,-117.41C317.55,-112.09 281.29,-100.04 260.69,-76 249.59,-63.04 244.97,-43.87 243.05,-29.71"/>
<polygon fill="midnightblue" stroke="midnightblue" points="246.52,-29.23 242.02,-19.63 239.56,-29.94 246.52,-29.23"/>
</g>
<!-- Node16 -->
<g id="node16" class="node">
<title>Node16</title>
<g id="a_node16"><a xlink:href="v8-internal_8h.html" target="_top" xlink:title=" ">
<polygon fill="white" stroke="black" points="577.19,-56.5 577.19,-75.5 646.19,-75.5 646.19,-56.5 577.19,-56.5"/>
<text text-anchor="middle" x="611.69" y="-63.5" font-family="Helvetica,sans-Serif" font-size="10.00">v8&#45;internal.h</text>
</a>
</g>
</g>
<!-- Node6&#45;&gt;Node16 -->
<g id="edge17" class="edge">
<title>Node6&#45;&gt;Node16</title>
<path fill="none" stroke="midnightblue" d="M374.21,-114.56C377.03,-113.63 379.93,-112.74 382.69,-112 460.58,-91.05 483.84,-92.27 567.2,-76.06"/>
<polygon fill="midnightblue" stroke="midnightblue" points="567.98,-79.47 577.11,-74.11 566.63,-72.61 567.98,-79.47"/>
</g>
<!-- Node18 -->
<g id="node18" class="node">
<title>Node18</title>
<g id="a_node18"><a xlink:href="v8-version_8h.html" target="_top" xlink:title=" ">
<polygon fill="white" stroke="black" points="577.19,-0.5 577.19,-19.5 646.19,-19.5 646.19,-0.5 577.19,-0.5"/>
<text text-anchor="middle" x="611.69" y="-7.5" font-family="Helvetica,sans-Serif" font-size="10.00">v8&#45;version.h</text>
</a>
</g>
</g>
<!-- Node6&#45;&gt;Node18 -->
<g id="edge24" class="edge">
<title>Node6&#45;&gt;Node18</title>
<path fill="none" stroke="midnightblue" d="M374.46,-114.32C377.19,-113.45 380,-112.64 382.69,-112 442.24,-97.92 615.35,-122.01 655.69,-76 669.67,-60.06 650.42,-39.5 633.16,-25.81"/>
<polygon fill="midnightblue" stroke="midnightblue" points="635.1,-22.89 625,-19.69 630.9,-28.49 635.1,-22.89"/>
</g>
<!-- Node14&#45;&gt;Node15 -->
<g id="edge16" class="edge">
<title>Node14&#45;&gt;Node15</title>
<path fill="none" stroke="midnightblue" d="M179.58,-56.32C190.84,-48.11 207.98,-35.6 221.4,-25.81"/>
<polygon fill="midnightblue" stroke="midnightblue" points="223.57,-28.56 229.59,-19.83 219.45,-22.9 223.57,-28.56"/>
</g>
<!-- Node16&#45;&gt;Node2 -->
<g id="edge19" class="edge">
<title>Node16&#45;&gt;Node2</title>
<path fill="none" stroke="midnightblue" d="M577.17,-57.57C573.97,-57 570.78,-56.46 567.69,-56 524.46,-49.55 229.09,-23.04 127.74,-14.02"/>
<polygon fill="midnightblue" stroke="midnightblue" points="128,-10.53 117.73,-13.13 127.38,-17.5 128,-10.53"/>
</g>
<!-- Node16&#45;&gt;Node7 -->
<g id="edge18" class="edge">
<title>Node16&#45;&gt;Node7</title>
<path fill="none" stroke="midnightblue" d="M624.23,-56.32C636.28,-47.98 654.72,-35.21 668.96,-25.35"/>
<polygon fill="midnightblue" stroke="midnightblue" points="670.96,-28.22 677.19,-19.65 666.98,-22.47 670.96,-28.22"/>
</g>
<!-- Node16&#45;&gt;Node11 -->
<g id="edge21" class="edge">
<title>Node16&#45;&gt;Node11</title>
<path fill="none" stroke="midnightblue" d="M635.94,-56.44C661.57,-47.4 702.18,-33.06 730.93,-22.92"/>
<polygon fill="midnightblue" stroke="midnightblue" points="732.3,-26.15 740.56,-19.52 729.97,-19.54 732.3,-26.15"/>
</g>
<!-- Node16&#45;&gt;Node15 -->
<g id="edge23" class="edge">
<title>Node16&#45;&gt;Node15</title>
<path fill="none" stroke="midnightblue" d="M577.15,-57.71C573.96,-57.11 570.77,-56.53 567.69,-56 465.22,-38.47 343.71,-23.12 282,-15.71"/>
<polygon fill="midnightblue" stroke="midnightblue" points="282.25,-12.22 271.91,-14.51 281.42,-19.17 282.25,-12.22"/>
</g>
<!-- Node17 -->
<g id="node17" class="node">
<title>Node17</title>
<g id="a_node17"><a xlink:title=" ">
<polygon fill="white" stroke="#bfbfbf" points="510.69,-0.5 510.69,-19.5 558.69,-19.5 558.69,-0.5 510.69,-0.5"/>
<text text-anchor="middle" x="534.69" y="-7.5" font-family="Helvetica,sans-Serif" font-size="10.00">string.h</text>
</a>
</g>
</g>
<!-- Node16&#45;&gt;Node17 -->
<g id="edge20" class="edge">
<title>Node16&#45;&gt;Node17</title>
<path fill="none" stroke="midnightblue" d="M599.32,-56.32C587.54,-48.06 569.56,-35.45 555.56,-25.63"/>
<polygon fill="midnightblue" stroke="midnightblue" points="557.23,-22.53 547.04,-19.65 553.21,-28.26 557.23,-22.53"/>
</g>
<!-- Node16&#45;&gt;Node18 -->
<g id="edge22" class="edge">
<title>Node16&#45;&gt;Node18</title>
<path fill="none" stroke="midnightblue" d="M611.69,-56.08C611.69,-49.01 611.69,-38.86 611.69,-29.99"/>
<polygon fill="midnightblue" stroke="midnightblue" points="615.19,-29.75 611.69,-19.75 608.19,-29.75 615.19,-29.75"/>
</g>
</g>
</svg>
