<?xml version="1.0" encoding="UTF-8" standalone="no"?>
<!DOCTYPE svg PUBLIC "-//W3C//DTD SVG 1.1//EN"
 "http://www.w3.org/Graphics/SVG/1.1/DTD/svg11.dtd">
<!-- Generated by graphviz version 2.44.0 ()
 -->
<!-- Title: include/v8&#45;metrics.h Pages: 1 -->
<svg width="796pt" height="196pt"
 viewBox="0.00 0.00 795.50 196.00" xmlns="http://www.w3.org/2000/svg" xmlns:xlink="http://www.w3.org/1999/xlink">
<g id="graph0" class="graph" transform="scale(1 1) rotate(0) translate(4 192)">
<title>include/v8&#45;metrics.h</title>
<polygon fill="white" stroke="transparent" points="-4,4 -4,-192 791.5,-192 791.5,4 -4,4"/>
<!-- Node1 -->
<g id="node1" class="node">
<title>Node1</title>
<g id="a_node1"><a xlink:title=" ">
<polygon fill="#bfbfbf" stroke="black" points="349.5,-168.5 349.5,-187.5 453.5,-187.5 453.5,-168.5 349.5,-168.5"/>
<text text-anchor="middle" x="401.5" y="-175.5" font-family="Helvetica,sans-Serif" font-size="10.00">include/v8&#45;metrics.h</text>
</a>
</g>
</g>
<!-- Node2 -->
<g id="node2" class="node">
<title>Node2</title>
<g id="a_node2"><a xlink:href="v8_8h.html" target="_top" xlink:title=" ">
<polygon fill="white" stroke="black" points="384,-112.5 384,-131.5 419,-131.5 419,-112.5 384,-112.5"/>
<text text-anchor="middle" x="401.5" y="-119.5" font-family="Helvetica,sans-Serif" font-size="10.00">v8.h</text>
</a>
</g>
</g>
<!-- Node1&#45;&gt;Node2 -->
<g id="edge1" class="edge">
<title>Node1&#45;&gt;Node2</title>
<path fill="none" stroke="midnightblue" d="M401.5,-168.08C401.5,-161.01 401.5,-150.86 401.5,-141.99"/>
<polygon fill="midnightblue" stroke="midnightblue" points="405,-141.75 401.5,-131.75 398,-141.75 405,-141.75"/>
</g>
<!-- Node3 -->
<g id="node3" class="node">
<title>Node3</title>
<g id="a_node3"><a xlink:title=" ">
<polygon fill="white" stroke="#bfbfbf" points="0,-0.5 0,-19.5 51,-19.5 51,-0.5 0,-0.5"/>
<text text-anchor="middle" x="25.5" y="-7.5" font-family="Helvetica,sans-Serif" font-size="10.00">stddef.h</text>
</a>
</g>
</g>
<!-- Node2&#45;&gt;Node3 -->
<g id="edge2" class="edge">
<title>Node2&#45;&gt;Node3</title>
<path fill="none" stroke="midnightblue" d="M383.91,-121.08C337.83,-120.69 210.47,-115.8 114.5,-76 86.51,-64.39 59.08,-42.26 42.24,-27.08"/>
<polygon fill="midnightblue" stroke="midnightblue" points="44.17,-24.09 34.45,-19.86 39.41,-29.23 44.17,-24.09"/>
</g>
<!-- Node4 -->
<g id="node4" class="node">
<title>Node4</title>
<g id="a_node4"><a xlink:title=" ">
<polygon fill="white" stroke="#bfbfbf" points="69.5,-0.5 69.5,-19.5 117.5,-19.5 117.5,-0.5 69.5,-0.5"/>
<text text-anchor="middle" x="93.5" y="-7.5" font-family="Helvetica,sans-Serif" font-size="10.00">stdint.h</text>
</a>
</g>
</g>
<!-- Node2&#45;&gt;Node4 -->
<g id="edge3" class="edge">
<title>Node2&#45;&gt;Node4</title>
<path fill="none" stroke="midnightblue" d="M383.8,-119.75C331.65,-115.8 179.71,-102.26 138.5,-76 121.01,-64.85 108.49,-44.21 101.16,-29.18"/>
<polygon fill="midnightblue" stroke="midnightblue" points="104.25,-27.5 96.92,-19.84 97.87,-30.4 104.25,-27.5"/>
</g>
<!-- Node5 -->
<g id="node5" class="node">
<title>Node5</title>
<g id="a_node5"><a xlink:title=" ">
<polygon fill="white" stroke="#bfbfbf" points="430,-56.5 430,-75.5 475,-75.5 475,-56.5 430,-56.5"/>
<text text-anchor="middle" x="452.5" y="-63.5" font-family="Helvetica,sans-Serif" font-size="10.00">stdio.h</text>
</a>
</g>
</g>
<!-- Node2&#45;&gt;Node5 -->
<g id="edge4" class="edge">
<title>Node2&#45;&gt;Node5</title>
<path fill="none" stroke="midnightblue" d="M409.92,-112.08C417.35,-104.22 428.35,-92.57 437.31,-83.08"/>
<polygon fill="midnightblue" stroke="midnightblue" points="439.91,-85.42 444.24,-75.75 434.82,-80.62 439.91,-85.42"/>
</g>
<!-- Node6 -->
<g id="node6" class="node">
<title>Node6</title>
<g id="a_node6"><a xlink:title=" ">
<polygon fill="white" stroke="#bfbfbf" points="493.5,-56.5 493.5,-75.5 539.5,-75.5 539.5,-56.5 493.5,-56.5"/>
<text text-anchor="middle" x="516.5" y="-63.5" font-family="Helvetica,sans-Serif" font-size="10.00">atomic</text>
</a>
</g>
</g>
<!-- Node2&#45;&gt;Node6 -->
<g id="edge5" class="edge">
<title>Node2&#45;&gt;Node6</title>
<path fill="none" stroke="midnightblue" d="M419.47,-112.56C438.09,-103.82 467.45,-90.03 488.99,-79.92"/>
<polygon fill="midnightblue" stroke="midnightblue" points="490.71,-82.98 498.28,-75.56 487.74,-76.64 490.71,-82.98"/>
</g>
<!-- Node7 -->
<g id="node7" class="node">
<title>Node7</title>
<g id="a_node7"><a xlink:title=" ">
<polygon fill="white" stroke="#bfbfbf" points="558,-56.5 558,-75.5 609,-75.5 609,-56.5 558,-56.5"/>
<text text-anchor="middle" x="583.5" y="-63.5" font-family="Helvetica,sans-Serif" font-size="10.00">memory</text>
</a>
</g>
</g>
<!-- Node2&#45;&gt;Node7 -->
<g id="edge6" class="edge">
<title>Node2&#45;&gt;Node7</title>
<path fill="none" stroke="midnightblue" d="M419.28,-115.72C449.01,-106.91 509.32,-89.01 548,-77.53"/>
<polygon fill="midnightblue" stroke="midnightblue" points="549.22,-80.82 557.81,-74.62 547.23,-74.11 549.22,-80.82"/>
</g>
<!-- Node8 -->
<g id="node8" class="node">
<title>Node8</title>
<g id="a_node8"><a xlink:title=" ">
<polygon fill="white" stroke="#bfbfbf" points="627,-56.5 627,-75.5 668,-75.5 668,-56.5 627,-56.5"/>
<text text-anchor="middle" x="647.5" y="-63.5" font-family="Helvetica,sans-Serif" font-size="10.00">string</text>
</a>
</g>
</g>
<!-- Node2&#45;&gt;Node8 -->
<g id="edge7" class="edge">
<title>Node2&#45;&gt;Node8</title>
<path fill="none" stroke="midnightblue" d="M419.07,-117.95C454.65,-111.65 537.9,-96.28 616.87,-76.24"/>
<polygon fill="midnightblue" stroke="midnightblue" points="618.16,-79.52 626.97,-73.64 616.42,-72.74 618.16,-79.52"/>
</g>
<!-- Node9 -->
<g id="node9" class="node">
<title>Node9</title>
<g id="a_node9"><a xlink:title=" ">
<polygon fill="white" stroke="#bfbfbf" points="135.5,-0.5 135.5,-19.5 197.5,-19.5 197.5,-0.5 135.5,-0.5"/>
<text text-anchor="middle" x="166.5" y="-7.5" font-family="Helvetica,sans-Serif" font-size="10.00">type_traits</text>
</a>
</g>
</g>
<!-- Node2&#45;&gt;Node9 -->
<g id="edge8" class="edge">
<title>Node2&#45;&gt;Node9</title>
<path fill="none" stroke="midnightblue" d="M383.9,-120.68C331.45,-119.33 177.93,-112.29 147.5,-76 136.1,-62.4 144.75,-42.24 153.77,-27.99"/>
<polygon fill="midnightblue" stroke="midnightblue" points="156.75,-29.82 159.54,-19.6 150.99,-25.85 156.75,-29.82"/>
</g>
<!-- Node10 -->
<g id="node10" class="node">
<title>Node10</title>
<g id="a_node10"><a xlink:title=" ">
<polygon fill="white" stroke="#bfbfbf" points="686,-56.5 686,-75.5 725,-75.5 725,-56.5 686,-56.5"/>
<text text-anchor="middle" x="705.5" y="-63.5" font-family="Helvetica,sans-Serif" font-size="10.00">utility</text>
</a>
</g>
</g>
<!-- Node2&#45;&gt;Node10 -->
<g id="edge9" class="edge">
<title>Node2&#45;&gt;Node10</title>
<path fill="none" stroke="midnightblue" d="M419.12,-119.05C461.75,-114.15 573.9,-100.1 675.88,-76.11"/>
<polygon fill="midnightblue" stroke="midnightblue" points="676.81,-79.49 685.72,-73.76 675.18,-72.68 676.81,-79.49"/>
</g>
<!-- Node11 -->
<g id="node11" class="node">
<title>Node11</title>
<g id="a_node11"><a xlink:title=" ">
<polygon fill="white" stroke="#bfbfbf" points="743.5,-56.5 743.5,-75.5 787.5,-75.5 787.5,-56.5 743.5,-56.5"/>
<text text-anchor="middle" x="765.5" y="-63.5" font-family="Helvetica,sans-Serif" font-size="10.00">vector</text>
</a>
</g>
</g>
<!-- Node2&#45;&gt;Node11 -->
<g id="edge10" class="edge">
<title>Node2&#45;&gt;Node11</title>
<path fill="none" stroke="midnightblue" d="M419.35,-119.53C468.13,-115.3 607.86,-101.9 733.11,-76.02"/>
<polygon fill="midnightblue" stroke="midnightblue" points="734.18,-79.37 743.25,-73.89 732.74,-72.52 734.18,-79.37"/>
</g>
<!-- Node12 -->
<g id="node12" class="node">
<title>Node12</title>
<g id="a_node12"><a xlink:href="common_8h.html" target="_top" xlink:title=" ">
<polygon fill="white" stroke="black" points="244,-56.5 244,-75.5 335,-75.5 335,-56.5 244,-56.5"/>
<text text-anchor="middle" x="289.5" y="-63.5" font-family="Helvetica,sans-Serif" font-size="10.00">cppgc/common.h</text>
</a>
</g>
</g>
<!-- Node2&#45;&gt;Node12 -->
<g id="edge11" class="edge">
<title>Node2&#45;&gt;Node12</title>
<path fill="none" stroke="midnightblue" d="M383.51,-112.32C365.46,-103.62 337.45,-90.12 316.7,-80.11"/>
<polygon fill="midnightblue" stroke="midnightblue" points="317.98,-76.84 307.45,-75.65 314.94,-83.15 317.98,-76.84"/>
</g>
<!-- Node13 -->
<g id="node13" class="node">
<title>Node13</title>
<g id="a_node13"><a xlink:href="v8config_8h.html" target="_top" xlink:title=" ">
<polygon fill="white" stroke="black" points="281.5,-0.5 281.5,-19.5 341.5,-19.5 341.5,-0.5 281.5,-0.5"/>
<text text-anchor="middle" x="311.5" y="-7.5" font-family="Helvetica,sans-Serif" font-size="10.00">v8config.h</text>
</a>
</g>
</g>
<!-- Node2&#45;&gt;Node13 -->
<g id="edge21" class="edge">
<title>Node2&#45;&gt;Node13</title>
<path fill="none" stroke="midnightblue" d="M394.44,-112.37C379.45,-94.05 344.27,-51.05 324.89,-27.36"/>
<polygon fill="midnightblue" stroke="midnightblue" points="327.57,-25.11 318.53,-19.59 322.15,-29.55 327.57,-25.11"/>
</g>
<!-- Node14 -->
<g id="node14" class="node">
<title>Node14</title>
<g id="a_node14"><a xlink:href="v8-internal_8h.html" target="_top" xlink:title=" ">
<polygon fill="white" stroke="black" points="157,-56.5 157,-75.5 226,-75.5 226,-56.5 157,-56.5"/>
<text text-anchor="middle" x="191.5" y="-63.5" font-family="Helvetica,sans-Serif" font-size="10.00">v8&#45;internal.h</text>
</a>
</g>
</g>
<!-- Node2&#45;&gt;Node14 -->
<g id="edge13" class="edge">
<title>Node2&#45;&gt;Node14</title>
<path fill="none" stroke="midnightblue" d="M383.96,-116.49C351.35,-108.11 280.57,-89.9 234.53,-78.06"/>
<polygon fill="midnightblue" stroke="midnightblue" points="235.38,-74.67 224.82,-75.57 233.63,-81.45 235.38,-74.67"/>
</g>
<!-- Node16 -->
<g id="node16" class="node">
<title>Node16</title>
<g id="a_node16"><a xlink:href="v8-version_8h.html" target="_top" xlink:title=" ">
<polygon fill="white" stroke="black" points="365,-0.5 365,-19.5 434,-19.5 434,-0.5 365,-0.5"/>
<text text-anchor="middle" x="399.5" y="-7.5" font-family="Helvetica,sans-Serif" font-size="10.00">v8&#45;version.h</text>
</a>
</g>
</g>
<!-- Node2&#45;&gt;Node16 -->
<g id="edge20" class="edge">
<title>Node2&#45;&gt;Node16</title>
<path fill="none" stroke="midnightblue" d="M401.34,-112.37C401.02,-94.62 400.28,-53.67 399.84,-29.6"/>
<polygon fill="midnightblue" stroke="midnightblue" points="403.34,-29.53 399.66,-19.59 396.34,-29.65 403.34,-29.53"/>
</g>
<!-- Node12&#45;&gt;Node13 -->
<g id="edge12" class="edge">
<title>Node12&#45;&gt;Node13</title>
<path fill="none" stroke="midnightblue" d="M293.13,-56.08C296.11,-48.77 300.43,-38.18 304.12,-29.1"/>
<polygon fill="midnightblue" stroke="midnightblue" points="307.4,-30.33 307.93,-19.75 300.92,-27.69 307.4,-30.33"/>
</g>
<!-- Node14&#45;&gt;Node3 -->
<g id="edge14" class="edge">
<title>Node14&#45;&gt;Node3</title>
<path fill="none" stroke="midnightblue" d="M165.2,-56.44C136.98,-47.27 92.03,-32.64 60.77,-22.47"/>
<polygon fill="midnightblue" stroke="midnightblue" points="61.73,-19.1 51.13,-19.34 59.56,-25.76 61.73,-19.1"/>
</g>
<!-- Node14&#45;&gt;Node4 -->
<g id="edge15" class="edge">
<title>Node14&#45;&gt;Node4</title>
<path fill="none" stroke="midnightblue" d="M175.75,-56.32C160.18,-47.74 136.12,-34.49 118.04,-24.52"/>
<polygon fill="midnightblue" stroke="midnightblue" points="119.65,-21.42 109.21,-19.65 116.28,-27.55 119.65,-21.42"/>
</g>
<!-- Node14&#45;&gt;Node9 -->
<g id="edge17" class="edge">
<title>Node14&#45;&gt;Node9</title>
<path fill="none" stroke="midnightblue" d="M187.37,-56.08C183.99,-48.77 179.08,-38.18 174.88,-29.1"/>
<polygon fill="midnightblue" stroke="midnightblue" points="177.93,-27.36 170.55,-19.75 171.58,-30.3 177.93,-27.36"/>
</g>
<!-- Node14&#45;&gt;Node13 -->
<g id="edge19" class="edge">
<title>Node14&#45;&gt;Node13</title>
<path fill="none" stroke="midnightblue" d="M210.51,-56.44C230.09,-47.64 260.81,-33.81 283.23,-23.72"/>
<polygon fill="midnightblue" stroke="midnightblue" points="284.89,-26.81 292.57,-19.52 282.02,-20.43 284.89,-26.81"/>
</g>
<!-- Node15 -->
<g id="node15" class="node">
<title>Node15</title>
<g id="a_node15"><a xlink:title=" ">
<polygon fill="white" stroke="#bfbfbf" points="215.5,-0.5 215.5,-19.5 263.5,-19.5 263.5,-0.5 215.5,-0.5"/>
<text text-anchor="middle" x="239.5" y="-7.5" font-family="Helvetica,sans-Serif" font-size="10.00">string.h</text>
</a>
</g>
</g>
<!-- Node14&#45;&gt;Node15 -->
<g id="edge16" class="edge">
<title>Node14&#45;&gt;Node15</title>
<path fill="none" stroke="midnightblue" d="M199.43,-56.08C206.35,-48.3 216.57,-36.8 224.95,-27.37"/>
<polygon fill="midnightblue" stroke="midnightblue" points="227.69,-29.55 231.72,-19.75 222.46,-24.9 227.69,-29.55"/>
</g>
<!-- Node14&#45;&gt;Node16 -->
<g id="edge18" class="edge">
<title>Node14&#45;&gt;Node16</title>
<path fill="none" stroke="midnightblue" d="M224.46,-56.44C260.29,-47.14 317.66,-32.25 356.89,-22.06"/>
<polygon fill="midnightblue" stroke="midnightblue" points="357.9,-25.42 366.7,-19.52 356.14,-18.64 357.9,-25.42"/>
</g>
</g>
</svg>
