<?xml version="1.0" encoding="UTF-8" standalone="no"?>
<!DOCTYPE svg PUBLIC "-//W3C//DTD SVG 1.1//EN"
 "http://www.w3.org/Graphics/SVG/1.1/DTD/svg11.dtd">
<!-- Generated by graphviz version 2.44.0 ()
 -->
<!-- Title: include/v8&#45;version.h Pages: 1 -->
<svg width="577pt" height="274pt"
 viewBox="0.00 0.00 577.00 274.00" xmlns="http://www.w3.org/2000/svg" xmlns:xlink="http://www.w3.org/1999/xlink">
<g id="graph0" class="graph" transform="scale(1 1) rotate(0) translate(4 270)">
<title>include/v8&#45;version.h</title>
<polygon fill="white" stroke="transparent" points="-4,4 -4,-270 573,-270 573,4 -4,4"/>
<!-- Node1 -->
<g id="node1" class="node">
<title>Node1</title>
<g id="a_node1"><a xlink:title=" ">
<polygon fill="#bfbfbf" stroke="black" points="182.5,-246.5 182.5,-265.5 285.5,-265.5 285.5,-246.5 182.5,-246.5"/>
<text text-anchor="middle" x="234" y="-253.5" font-family="Helvetica,sans-Serif" font-size="10.00">include/v8&#45;version.h</text>
</a>
</g>
</g>
<!-- Node2 -->
<g id="node2" class="node">
<title>Node2</title>
<g id="a_node2"><a xlink:href="v8-internal_8h.html" target="_top" xlink:title=" ">
<polygon fill="white" stroke="black" points="102.5,-185 102.5,-204 205.5,-204 205.5,-185 102.5,-185"/>
<text text-anchor="middle" x="154" y="-192" font-family="Helvetica,sans-Serif" font-size="10.00">include/v8&#45;internal.h</text>
</a>
</g>
</g>
<!-- Node1&#45;&gt;Node2 -->
<g id="edge1" class="edge">
<title>Node1&#45;&gt;Node2</title>
<path fill="none" stroke="midnightblue" d="M214.23,-240.29C198.88,-228.88 178.14,-213.46 165.44,-204.01"/>
<polygon fill="midnightblue" stroke="midnightblue" points="212.43,-243.32 222.54,-246.48 216.6,-237.7 212.43,-243.32"/>
</g>
<!-- Node4 -->
<g id="node4" class="node">
<title>Node4</title>
<g id="a_node4"><a xlink:href="v8_8h.html" target="_top" xlink:title=" ">
<polygon fill="white" stroke="black" points="200,-123.5 200,-142.5 268,-142.5 268,-123.5 200,-123.5"/>
<text text-anchor="middle" x="234" y="-130.5" font-family="Helvetica,sans-Serif" font-size="10.00">include/v8.h</text>
</a>
</g>
</g>
<!-- Node1&#45;&gt;Node4 -->
<g id="edge10" class="edge">
<title>Node1&#45;&gt;Node4</title>
<path fill="none" stroke="midnightblue" d="M234,-235.99C234,-209.35 234,-162 234,-142.62"/>
<polygon fill="midnightblue" stroke="midnightblue" points="230.5,-236.3 234,-246.3 237.5,-236.3 230.5,-236.3"/>
</g>
<!-- Node10 -->
<g id="node10" class="node">
<title>Node10</title>
<g id="a_node10"><a xlink:href="v8-version-string_8h.html" target="_top" xlink:title=" ">
<polygon fill="white" stroke="black" points="262.5,-179.5 262.5,-209.5 357.5,-209.5 357.5,-179.5 262.5,-179.5"/>
<text text-anchor="start" x="270.5" y="-197.5" font-family="Helvetica,sans-Serif" font-size="10.00">include/v8&#45;version</text>
<text text-anchor="middle" x="310" y="-186.5" font-family="Helvetica,sans-Serif" font-size="10.00">&#45;string.h</text>
</a>
</g>
</g>
<!-- Node1&#45;&gt;Node10 -->
<g id="edge11" class="edge">
<title>Node1&#45;&gt;Node10</title>
<path fill="none" stroke="midnightblue" d="M252.91,-240.2C264.89,-230.81 280.3,-218.75 292.09,-209.52"/>
<polygon fill="midnightblue" stroke="midnightblue" points="250.61,-237.55 244.89,-246.48 254.92,-243.07 250.61,-237.55"/>
</g>
<!-- Node3 -->
<g id="node3" class="node">
<title>Node3</title>
<g id="a_node3"><a xlink:href="v8-cppgc_8h.html" target="_top" xlink:title=" ">
<polygon fill="white" stroke="black" points="0,-67.5 0,-86.5 98,-86.5 98,-67.5 0,-67.5"/>
<text text-anchor="middle" x="49" y="-74.5" font-family="Helvetica,sans-Serif" font-size="10.00">include/v8&#45;cppgc.h</text>
</a>
</g>
</g>
<!-- Node2&#45;&gt;Node3 -->
<g id="edge2" class="edge">
<title>Node2&#45;&gt;Node3</title>
<path fill="none" stroke="midnightblue" d="M139.29,-177.32C116.79,-152.56 74.55,-106.11 56.98,-86.78"/>
<polygon fill="midnightblue" stroke="midnightblue" points="136.79,-179.77 146.11,-184.82 141.97,-175.06 136.79,-179.77"/>
</g>
<!-- Node2&#45;&gt;Node4 -->
<g id="edge3" class="edge">
<title>Node2&#45;&gt;Node4</title>
<path fill="none" stroke="midnightblue" d="M173.77,-178.79C189.12,-167.38 209.86,-151.96 222.56,-142.51"/>
<polygon fill="midnightblue" stroke="midnightblue" points="171.4,-176.2 165.46,-184.98 175.57,-181.82 171.4,-176.2"/>
</g>
<!-- Node4&#45;&gt;Node3 -->
<g id="edge4" class="edge">
<title>Node4&#45;&gt;Node3</title>
<path fill="none" stroke="midnightblue" d="M194.83,-120.57C159.93,-110.38 109.65,-95.7 78.18,-86.52"/>
<polygon fill="midnightblue" stroke="midnightblue" points="194.11,-124 204.69,-123.44 196.07,-117.28 194.11,-124"/>
</g>
<!-- Node5 -->
<g id="node5" class="node">
<title>Node5</title>
<g id="a_node5"><a xlink:href="v8-inspector_8h.html" target="_top" xlink:title=" ">
<polygon fill="white" stroke="black" points="115.5,-67.5 115.5,-86.5 226.5,-86.5 226.5,-67.5 115.5,-67.5"/>
<text text-anchor="middle" x="171" y="-74.5" font-family="Helvetica,sans-Serif" font-size="10.00">include/v8&#45;inspector.h</text>
</a>
</g>
</g>
<!-- Node4&#45;&gt;Node5 -->
<g id="edge5" class="edge">
<title>Node4&#45;&gt;Node5</title>
<path fill="none" stroke="midnightblue" d="M215.96,-116.54C204.73,-106.91 190.68,-94.87 181.31,-86.83"/>
<polygon fill="midnightblue" stroke="midnightblue" points="214.01,-119.47 223.88,-123.32 218.56,-114.16 214.01,-119.47"/>
</g>
<!-- Node7 -->
<g id="node7" class="node">
<title>Node7</title>
<g id="a_node7"><a xlink:href="v8-metrics_8h.html" target="_top" xlink:title=" ">
<polygon fill="white" stroke="black" points="245,-67.5 245,-86.5 349,-86.5 349,-67.5 245,-67.5"/>
<text text-anchor="middle" x="297" y="-74.5" font-family="Helvetica,sans-Serif" font-size="10.00">include/v8&#45;metrics.h</text>
</a>
</g>
</g>
<!-- Node4&#45;&gt;Node7 -->
<g id="edge7" class="edge">
<title>Node4&#45;&gt;Node7</title>
<path fill="none" stroke="midnightblue" d="M252.04,-116.54C263.27,-106.91 277.32,-94.87 286.69,-86.83"/>
<polygon fill="midnightblue" stroke="midnightblue" points="249.44,-114.16 244.12,-123.32 253.99,-119.47 249.44,-114.16"/>
</g>
<!-- Node8 -->
<g id="node8" class="node">
<title>Node8</title>
<g id="a_node8"><a xlink:href="v8-profiler_8h.html" target="_top" xlink:title=" ">
<polygon fill="white" stroke="black" points="367,-67.5 367,-86.5 467,-86.5 467,-67.5 367,-67.5"/>
<text text-anchor="middle" x="417" y="-74.5" font-family="Helvetica,sans-Serif" font-size="10.00">include/v8&#45;profiler.h</text>
</a>
</g>
</g>
<!-- Node4&#45;&gt;Node8 -->
<g id="edge8" class="edge">
<title>Node4&#45;&gt;Node8</title>
<path fill="none" stroke="midnightblue" d="M272.74,-120.57C307.26,-110.38 357.01,-95.7 388.14,-86.52"/>
<polygon fill="midnightblue" stroke="midnightblue" points="271.6,-117.26 263,-123.44 273.58,-123.97 271.6,-117.26"/>
</g>
<!-- Node9 -->
<g id="node9" class="node">
<title>Node9</title>
<g id="a_node9"><a xlink:href="v8-util_8h.html" target="_top" xlink:title=" ">
<polygon fill="white" stroke="black" points="485,-67.5 485,-86.5 569,-86.5 569,-67.5 485,-67.5"/>
<text text-anchor="middle" x="527" y="-74.5" font-family="Helvetica,sans-Serif" font-size="10.00">include/v8&#45;util.h</text>
</a>
</g>
</g>
<!-- Node4&#45;&gt;Node9 -->
<g id="edge9" class="edge">
<title>Node4&#45;&gt;Node9</title>
<path fill="none" stroke="midnightblue" d="M278.13,-123.87C333.97,-113.58 429.49,-95.97 484.53,-85.83"/>
<polygon fill="midnightblue" stroke="midnightblue" points="277.38,-120.45 268.18,-125.7 278.65,-127.33 277.38,-120.45"/>
</g>
<!-- Node6 -->
<g id="node6" class="node">
<title>Node6</title>
<g id="a_node6"><a xlink:href="v8-inspector-protocol_8h.html" target="_top" xlink:title=" ">
<polygon fill="white" stroke="black" points="119,-0.5 119,-30.5 223,-30.5 223,-0.5 119,-0.5"/>
<text text-anchor="start" x="127" y="-18.5" font-family="Helvetica,sans-Serif" font-size="10.00">include/v8&#45;inspector</text>
<text text-anchor="middle" x="171" y="-7.5" font-family="Helvetica,sans-Serif" font-size="10.00">&#45;protocol.h</text>
</a>
</g>
</g>
<!-- Node5&#45;&gt;Node6 -->
<g id="edge6" class="edge">
<title>Node5&#45;&gt;Node6</title>
<path fill="none" stroke="midnightblue" d="M171,-57.23C171,-48.59 171,-38.5 171,-30.52"/>
<polygon fill="midnightblue" stroke="midnightblue" points="167.5,-57.48 171,-67.48 174.5,-57.48 167.5,-57.48"/>
</g>
</g>
</svg>
