<?xml version="1.0" encoding="UTF-8" standalone="no"?>
<!DOCTYPE svg PUBLIC "-//W3C//DTD SVG 1.1//EN"
 "http://www.w3.org/Graphics/SVG/1.1/DTD/svg11.dtd">
<!-- Generated by graphviz version 2.44.0 ()
 -->
<!-- Title: include/cppgc/visitor.h Pages: 1 -->
<svg width="1036pt" height="464pt"
 viewBox="0.00 0.00 1036.24 464.00" xmlns="http://www.w3.org/2000/svg" xmlns:xlink="http://www.w3.org/1999/xlink">
<g id="graph0" class="graph" transform="scale(1 1) rotate(0) translate(4 460)">
<title>include/cppgc/visitor.h</title>
<polygon fill="white" stroke="transparent" points="-4,4 -4,-460 1032.24,-460 1032.24,4 -4,4"/>
<!-- Node1 -->
<g id="node1" class="node">
<title>Node1</title>
<g id="a_node1"><a xlink:title=" ">
<polygon fill="#bfbfbf" stroke="black" points="477.57,-436.5 477.57,-455.5 590.57,-455.5 590.57,-436.5 477.57,-436.5"/>
<text text-anchor="middle" x="534.07" y="-443.5" font-family="Helvetica,sans-Serif" font-size="10.00">include/cppgc/visitor.h</text>
</a>
</g>
</g>
<!-- Node2 -->
<g id="node2" class="node">
<title>Node2</title>
<g id="a_node2"><a xlink:href="custom-space_8h.html" target="_top" xlink:title=" ">
<polygon fill="white" stroke="black" points="23.57,-196 23.57,-215 138.57,-215 138.57,-196 23.57,-196"/>
<text text-anchor="middle" x="81.07" y="-203" font-family="Helvetica,sans-Serif" font-size="10.00">cppgc/custom&#45;space.h</text>
</a>
</g>
</g>
<!-- Node1&#45;&gt;Node2 -->
<g id="edge1" class="edge">
<title>Node1&#45;&gt;Node2</title>
<path fill="none" stroke="midnightblue" d="M477.32,-443.16C394.28,-439.5 244.64,-428.99 200.07,-400 134.49,-357.35 99.1,-264.63 86.48,-225.03"/>
<polygon fill="midnightblue" stroke="midnightblue" points="89.79,-223.89 83.52,-215.36 83.1,-225.94 89.79,-223.89"/>
</g>
<!-- Node4 -->
<g id="node4" class="node">
<title>Node4</title>
<g id="a_node4"><a xlink:href="ephemeron-pair_8h.html" target="_top" xlink:title=" ">
<polygon fill="white" stroke="black" points="209.07,-380.5 209.07,-399.5 329.07,-399.5 329.07,-380.5 209.07,-380.5"/>
<text text-anchor="middle" x="269.07" y="-387.5" font-family="Helvetica,sans-Serif" font-size="10.00">cppgc/ephemeron&#45;pair.h</text>
</a>
</g>
</g>
<!-- Node1&#45;&gt;Node4 -->
<g id="edge3" class="edge">
<title>Node1&#45;&gt;Node4</title>
<path fill="none" stroke="midnightblue" d="M492.08,-436.44C445.66,-426.98 370.84,-411.74 320.83,-401.55"/>
<polygon fill="midnightblue" stroke="midnightblue" points="321.36,-398.08 310.86,-399.52 319.96,-404.94 321.36,-398.08"/>
</g>
<!-- Node5 -->
<g id="node5" class="node">
<title>Node5</title>
<g id="a_node5"><a xlink:href="member_8h.html" target="_top" xlink:title=" ">
<polygon fill="white" stroke="black" points="277.57,-324.5 277.57,-343.5 366.57,-343.5 366.57,-324.5 277.57,-324.5"/>
<text text-anchor="middle" x="322.07" y="-331.5" font-family="Helvetica,sans-Serif" font-size="10.00">cppgc/member.h</text>
</a>
</g>
</g>
<!-- Node1&#45;&gt;Node5 -->
<g id="edge61" class="edge">
<title>Node1&#45;&gt;Node5</title>
<path fill="none" stroke="midnightblue" d="M479.37,-436.46C448.75,-429.9 410.86,-418.68 381.07,-400 361.18,-387.53 343.86,-366.54 333.23,-351.79"/>
<polygon fill="midnightblue" stroke="midnightblue" points="336.08,-349.76 327.5,-343.55 330.33,-353.76 336.08,-349.76"/>
</g>
<!-- Node9 -->
<g id="node9" class="node">
<title>Node9</title>
<g id="a_node9"><a xlink:href="pointer-policies_8h.html" target="_top" xlink:title=" ">
<polygon fill="white" stroke="black" points="291.07,-257.5 291.07,-287.5 401.07,-287.5 401.07,-257.5 291.07,-257.5"/>
<text text-anchor="start" x="299.07" y="-275.5" font-family="Helvetica,sans-Serif" font-size="10.00">cppgc/internal/pointer</text>
<text text-anchor="middle" x="346.07" y="-264.5" font-family="Helvetica,sans-Serif" font-size="10.00">&#45;policies.h</text>
</a>
</g>
</g>
<!-- Node1&#45;&gt;Node9 -->
<g id="edge48" class="edge">
<title>Node1&#45;&gt;Node9</title>
<path fill="none" stroke="midnightblue" d="M488.78,-436.48C464.3,-429.95 434.9,-418.76 414.07,-400 386,-374.73 394.17,-357.14 376.07,-324 371.12,-314.93 365.38,-305.13 360.26,-296.59"/>
<polygon fill="midnightblue" stroke="midnightblue" points="363.19,-294.67 355.02,-287.92 357.2,-298.29 363.19,-294.67"/>
</g>
<!-- Node17 -->
<g id="node17" class="node">
<title>Node17</title>
<g id="a_node17"><a xlink:href="source-location_8h.html" target="_top" xlink:title=" ">
<polygon fill="white" stroke="black" points="894.57,-196 894.57,-215 1013.57,-215 1013.57,-196 894.57,-196"/>
<text text-anchor="middle" x="954.07" y="-203" font-family="Helvetica,sans-Serif" font-size="10.00">cppgc/source&#45;location.h</text>
</a>
</g>
</g>
<!-- Node1&#45;&gt;Node17 -->
<g id="edge62" class="edge">
<title>Node1&#45;&gt;Node17</title>
<path fill="none" stroke="midnightblue" d="M590.72,-439.19C652.21,-432.07 745.68,-418.61 776.07,-400 844.45,-358.12 828.89,-313.22 886.07,-257 900,-243.3 917.79,-230.21 931.68,-220.8"/>
<polygon fill="midnightblue" stroke="midnightblue" points="933.77,-223.62 940.17,-215.17 929.9,-217.78 933.77,-223.62"/>
</g>
<!-- Node19 -->
<g id="node19" class="node">
<title>Node19</title>
<g id="a_node19"><a xlink:href="type-traits_8h.html" target="_top" xlink:title=" ">
<polygon fill="white" stroke="black" points="533.07,-263 533.07,-282 629.07,-282 629.07,-263 533.07,-263"/>
<text text-anchor="middle" x="581.07" y="-270" font-family="Helvetica,sans-Serif" font-size="10.00">cppgc/type&#45;traits.h</text>
</a>
</g>
</g>
<!-- Node1&#45;&gt;Node19 -->
<g id="edge64" class="edge">
<title>Node1&#45;&gt;Node19</title>
<path fill="none" stroke="midnightblue" d="M541.03,-436.26C547.56,-427.59 557.04,-413.64 562.07,-400 575.58,-363.31 579.49,-317.26 580.62,-292.08"/>
<polygon fill="midnightblue" stroke="midnightblue" points="584.12,-292.2 580.97,-282.08 577.12,-291.95 584.12,-292.2"/>
</g>
<!-- Node20 -->
<g id="node20" class="node">
<title>Node20</title>
<g id="a_node20"><a xlink:href="garbage-collected_8h.html" target="_top" xlink:title=" ">
<polygon fill="white" stroke="black" points="423.07,-380.5 423.07,-399.5 553.07,-399.5 553.07,-380.5 423.07,-380.5"/>
<text text-anchor="middle" x="488.07" y="-387.5" font-family="Helvetica,sans-Serif" font-size="10.00">cppgc/garbage&#45;collected.h</text>
</a>
</g>
</g>
<!-- Node1&#45;&gt;Node20 -->
<g id="edge28" class="edge">
<title>Node1&#45;&gt;Node20</title>
<path fill="none" stroke="midnightblue" d="M526.47,-436.08C519.84,-428.3 510.05,-416.8 502.01,-407.37"/>
<polygon fill="midnightblue" stroke="midnightblue" points="504.67,-405.09 495.52,-399.75 499.34,-409.63 504.67,-405.09"/>
</g>
<!-- Node25 -->
<g id="node25" class="node">
<title>Node25</title>
<g id="a_node25"><a xlink:href="trace-trait_8h.html" target="_top" xlink:title=" ">
<polygon fill="white" stroke="black" points="609.57,-324.5 609.57,-343.5 704.57,-343.5 704.57,-324.5 609.57,-324.5"/>
<text text-anchor="middle" x="657.07" y="-331.5" font-family="Helvetica,sans-Serif" font-size="10.00">cppgc/trace&#45;trait.h</text>
</a>
</g>
</g>
<!-- Node1&#45;&gt;Node25 -->
<g id="edge63" class="edge">
<title>Node1&#45;&gt;Node25</title>
<path fill="none" stroke="midnightblue" d="M547.18,-436.31C559.89,-427.67 579.47,-413.75 595.07,-400 612.51,-384.63 630.66,-365.12 642.78,-351.51"/>
<polygon fill="midnightblue" stroke="midnightblue" points="645.51,-353.7 649.49,-343.88 640.26,-349.08 645.51,-353.7"/>
</g>
<!-- Node26 -->
<g id="node26" class="node">
<title>Node26</title>
<g id="a_node26"><a xlink:href="logging_8h.html" target="_top" xlink:title=" ">
<polygon fill="white" stroke="black" points="894.57,-263 894.57,-282 1013.57,-282 1013.57,-263 894.57,-263"/>
<text text-anchor="middle" x="954.07" y="-270" font-family="Helvetica,sans-Serif" font-size="10.00">cppgc/internal/logging.h</text>
</a>
</g>
</g>
<!-- Node1&#45;&gt;Node26 -->
<g id="edge45" class="edge">
<title>Node1&#45;&gt;Node26</title>
<path fill="none" stroke="midnightblue" d="M590.62,-443.54C676.03,-440.37 832.86,-430.45 879.07,-400 918.22,-374.2 939.79,-320.33 948.86,-291.93"/>
<polygon fill="midnightblue" stroke="midnightblue" points="952.29,-292.68 951.82,-282.09 945.59,-290.66 952.29,-292.68"/>
</g>
<!-- Node27 -->
<g id="node27" class="node">
<title>Node27</title>
<g id="a_node27"><a xlink:href="liveness-broker_8h.html" target="_top" xlink:title=" ">
<polygon fill="white" stroke="black" points="647.57,-380.5 647.57,-399.5 766.57,-399.5 766.57,-380.5 647.57,-380.5"/>
<text text-anchor="middle" x="707.07" y="-387.5" font-family="Helvetica,sans-Serif" font-size="10.00">cppgc/liveness&#45;broker.h</text>
</a>
</g>
</g>
<!-- Node1&#45;&gt;Node27 -->
<g id="edge49" class="edge">
<title>Node1&#45;&gt;Node27</title>
<path fill="none" stroke="midnightblue" d="M561.48,-436.44C590.84,-427.28 637.59,-412.69 670.16,-402.52"/>
<polygon fill="midnightblue" stroke="midnightblue" points="671.28,-405.84 679.78,-399.52 669.2,-399.16 671.28,-405.84"/>
</g>
<!-- Node3 -->
<g id="node3" class="node">
<title>Node3</title>
<g id="a_node3"><a xlink:title=" ">
<polygon fill="white" stroke="#bfbfbf" points="87.57,-62 87.57,-81 138.57,-81 138.57,-62 87.57,-62"/>
<text text-anchor="middle" x="113.07" y="-69" font-family="Helvetica,sans-Serif" font-size="10.00">stddef.h</text>
</a>
</g>
</g>
<!-- Node2&#45;&gt;Node3 -->
<g id="edge2" class="edge">
<title>Node2&#45;&gt;Node3</title>
<path fill="none" stroke="midnightblue" d="M83,-195.92C86.37,-181.05 93.56,-149.53 100.07,-123 102.67,-112.38 105.71,-100.55 108.2,-91"/>
<polygon fill="midnightblue" stroke="midnightblue" points="111.65,-91.62 110.8,-81.06 104.88,-89.85 111.65,-91.62"/>
</g>
<!-- Node4&#45;&gt;Node5 -->
<g id="edge4" class="edge">
<title>Node4&#45;&gt;Node5</title>
<path fill="none" stroke="midnightblue" d="M277.82,-380.08C285.54,-372.22 296.97,-360.57 306.29,-351.08"/>
<polygon fill="midnightblue" stroke="midnightblue" points="308.97,-353.34 313.48,-343.75 303.98,-348.44 308.97,-353.34"/>
</g>
<!-- Node6 -->
<g id="node6" class="node">
<title>Node6</title>
<g id="a_node6"><a xlink:title=" ">
<polygon fill="white" stroke="#bfbfbf" points="113.07,-0.5 113.07,-19.5 159.07,-19.5 159.07,-0.5 113.07,-0.5"/>
<text text-anchor="middle" x="136.07" y="-7.5" font-family="Helvetica,sans-Serif" font-size="10.00">atomic</text>
</a>
</g>
</g>
<!-- Node5&#45;&gt;Node6 -->
<g id="edge5" class="edge">
<title>Node5&#45;&gt;Node6</title>
<path fill="none" stroke="midnightblue" d="M277.35,-332.11C207,-327.98 72.49,-308.39 14.07,-221 -19.21,-171.22 9.91,-140.59 78.07,-56 87.75,-43.98 101.26,-33.26 112.8,-25.3"/>
<polygon fill="midnightblue" stroke="midnightblue" points="114.74,-28.21 121.15,-19.78 110.88,-22.38 114.74,-28.21"/>
</g>
<!-- Node7 -->
<g id="node7" class="node">
<title>Node7</title>
<g id="a_node7"><a xlink:title=" ">
<polygon fill="white" stroke="#bfbfbf" points="185.57,-263 185.57,-282 234.57,-282 234.57,-263 185.57,-263"/>
<text text-anchor="middle" x="210.07" y="-270" font-family="Helvetica,sans-Serif" font-size="10.00">cstddef</text>
</a>
</g>
</g>
<!-- Node5&#45;&gt;Node7 -->
<g id="edge6" class="edge">
<title>Node5&#45;&gt;Node7</title>
<path fill="none" stroke="midnightblue" d="M306.02,-324.48C287.48,-314.62 256.73,-298.29 235.05,-286.77"/>
<polygon fill="midnightblue" stroke="midnightblue" points="236.56,-283.61 226.09,-282.01 233.28,-289.79 236.56,-283.61"/>
</g>
<!-- Node8 -->
<g id="node8" class="node">
<title>Node8</title>
<g id="a_node8"><a xlink:title=" ">
<polygon fill="white" stroke="#bfbfbf" points="455.07,-196 455.07,-215 517.07,-215 517.07,-196 455.07,-196"/>
<text text-anchor="middle" x="486.07" y="-203" font-family="Helvetica,sans-Serif" font-size="10.00">type_traits</text>
</a>
</g>
</g>
<!-- Node5&#45;&gt;Node8 -->
<g id="edge7" class="edge">
<title>Node5&#45;&gt;Node8</title>
<path fill="none" stroke="midnightblue" d="M343.9,-324.38C362.49,-316.46 389.39,-303.61 410.07,-288 435.32,-268.95 459.32,-240.99 473.36,-223.27"/>
<polygon fill="midnightblue" stroke="midnightblue" points="476.38,-225.08 479.75,-215.04 470.85,-220.79 476.38,-225.08"/>
</g>
<!-- Node5&#45;&gt;Node9 -->
<g id="edge8" class="edge">
<title>Node5&#45;&gt;Node9</title>
<path fill="none" stroke="midnightblue" d="M325.51,-324.48C328.39,-317.32 332.66,-306.75 336.56,-297.08"/>
<polygon fill="midnightblue" stroke="midnightblue" points="339.92,-298.11 340.41,-287.52 333.43,-295.49 339.92,-298.11"/>
</g>
<!-- Node14 -->
<g id="node14" class="node">
<title>Node14</title>
<g id="a_node14"><a xlink:href="v8config_8h.html" target="_top" xlink:title=" ">
<polygon fill="white" stroke="black" points="549.07,-62 549.07,-81 609.07,-81 609.07,-62 549.07,-62"/>
<text text-anchor="middle" x="579.07" y="-69" font-family="Helvetica,sans-Serif" font-size="10.00">v8config.h</text>
</a>
</g>
</g>
<!-- Node5&#45;&gt;Node14 -->
<g id="edge27" class="edge">
<title>Node5&#45;&gt;Node14</title>
<path fill="none" stroke="midnightblue" d="M310.8,-324.43C301.1,-316.27 287.79,-303.05 282.07,-288 277.17,-275.12 277.04,-269.83 282.07,-257 296.87,-219.22 314.86,-218.15 344.07,-190 360.52,-174.14 402.13,-134.16 422.07,-123 459.15,-102.24 506.01,-88.57 538.85,-80.76"/>
<polygon fill="midnightblue" stroke="midnightblue" points="540.03,-84.08 548.99,-78.42 538.46,-77.26 540.03,-84.08"/>
</g>
<!-- Node5&#45;&gt;Node19 -->
<g id="edge25" class="edge">
<title>Node5&#45;&gt;Node19</title>
<path fill="none" stroke="midnightblue" d="M359.18,-324.48C405.24,-313.89 483.84,-295.84 534.07,-284.3"/>
<polygon fill="midnightblue" stroke="midnightblue" points="535.07,-287.66 544.03,-282.01 533.5,-280.84 535.07,-287.66"/>
</g>
<!-- Node9&#45;&gt;Node8 -->
<g id="edge10" class="edge">
<title>Node9&#45;&gt;Node8</title>
<path fill="none" stroke="midnightblue" d="M376.45,-257.4C400.9,-246.04 434.98,-230.22 458.62,-219.24"/>
<polygon fill="midnightblue" stroke="midnightblue" points="460.15,-222.39 467.75,-215.01 457.2,-216.04 460.15,-222.39"/>
</g>
<!-- Node10 -->
<g id="node10" class="node">
<title>Node10</title>
<g id="a_node10"><a xlink:title=" ">
<polygon fill="white" stroke="#bfbfbf" points="353.07,-196 353.07,-215 399.07,-215 399.07,-196 353.07,-196"/>
<text text-anchor="middle" x="376.07" y="-203" font-family="Helvetica,sans-Serif" font-size="10.00">cstdint</text>
</a>
</g>
</g>
<!-- Node9&#45;&gt;Node10 -->
<g id="edge9" class="edge">
<title>Node9&#45;&gt;Node10</title>
<path fill="none" stroke="midnightblue" d="M352.58,-257.4C357.02,-247.76 362.95,-234.91 367.74,-224.54"/>
<polygon fill="midnightblue" stroke="midnightblue" points="371.04,-225.74 372.06,-215.19 364.69,-222.81 371.04,-225.74"/>
</g>
<!-- Node11 -->
<g id="node11" class="node">
<title>Node11</title>
<g id="a_node11"><a xlink:href="write-barrier_8h.html" target="_top" xlink:title=" ">
<polygon fill="white" stroke="black" points="195.57,-190.5 195.57,-220.5 296.57,-220.5 296.57,-190.5 195.57,-190.5"/>
<text text-anchor="start" x="203.57" y="-208.5" font-family="Helvetica,sans-Serif" font-size="10.00">cppgc/internal/write</text>
<text text-anchor="middle" x="246.07" y="-197.5" font-family="Helvetica,sans-Serif" font-size="10.00">&#45;barrier.h</text>
</a>
</g>
</g>
<!-- Node9&#45;&gt;Node11 -->
<g id="edge11" class="edge">
<title>Node9&#45;&gt;Node11</title>
<path fill="none" stroke="midnightblue" d="M324.37,-257.4C310.35,-248.28 291.9,-236.29 276.43,-226.24"/>
<polygon fill="midnightblue" stroke="midnightblue" points="278.02,-223.09 267.72,-220.58 274.2,-228.96 278.02,-223.09"/>
</g>
<!-- Node9&#45;&gt;Node14 -->
<g id="edge24" class="edge">
<title>Node9&#45;&gt;Node14</title>
<path fill="none" stroke="midnightblue" d="M363.44,-257.35C375.87,-247.23 393,-233.28 408.07,-221 424.96,-207.23 427.94,-202.1 446.07,-190 474.18,-171.23 487.03,-175.56 513.07,-154 535.79,-135.19 556.18,-107.55 568.1,-89.79"/>
<polygon fill="midnightblue" stroke="midnightblue" points="571.26,-91.34 573.8,-81.05 565.4,-87.51 571.26,-91.34"/>
</g>
<!-- Node9&#45;&gt;Node17 -->
<g id="edge21" class="edge">
<title>Node9&#45;&gt;Node17</title>
<path fill="none" stroke="midnightblue" d="M401.37,-266.55C493.77,-258.14 685.37,-240.1 847.07,-221 859.07,-219.58 871.81,-217.96 884.15,-216.32"/>
<polygon fill="midnightblue" stroke="midnightblue" points="884.96,-219.75 894.41,-214.95 884.03,-212.81 884.96,-219.75"/>
</g>
<!-- Node12 -->
<g id="node12" class="node">
<title>Node12</title>
<g id="a_node12"><a xlink:href="api-constants_8h.html" target="_top" xlink:title=" ">
<polygon fill="white" stroke="black" points="109.57,-123.5 109.57,-153.5 202.57,-153.5 202.57,-123.5 109.57,-123.5"/>
<text text-anchor="start" x="117.57" y="-141.5" font-family="Helvetica,sans-Serif" font-size="10.00">cppgc/internal/api</text>
<text text-anchor="middle" x="156.07" y="-130.5" font-family="Helvetica,sans-Serif" font-size="10.00">&#45;constants.h</text>
</a>
</g>
</g>
<!-- Node11&#45;&gt;Node12 -->
<g id="edge12" class="edge">
<title>Node11&#45;&gt;Node12</title>
<path fill="none" stroke="midnightblue" d="M226.54,-190.4C214.04,-181.37 197.63,-169.51 183.79,-159.52"/>
<polygon fill="midnightblue" stroke="midnightblue" points="185.72,-156.59 175.56,-153.58 181.62,-162.27 185.72,-156.59"/>
</g>
<!-- Node11&#45;&gt;Node14 -->
<g id="edge20" class="edge">
<title>Node11&#45;&gt;Node14</title>
<path fill="none" stroke="midnightblue" d="M276.24,-190.29C295.93,-180.7 321.97,-167.39 344.07,-154 364.53,-141.6 366.39,-133.11 388.07,-123 414.72,-110.58 491.32,-92.15 539.03,-81.33"/>
<polygon fill="midnightblue" stroke="midnightblue" points="540.04,-84.69 549.03,-79.07 538.5,-77.86 540.04,-84.69"/>
</g>
<!-- Node15 -->
<g id="node15" class="node">
<title>Node15</title>
<g id="a_node15"><a xlink:href="process-heap_8h.html" target="_top" xlink:title=" ">
<polygon fill="white" stroke="black" points="220.57,-123.5 220.57,-153.5 335.57,-153.5 335.57,-123.5 220.57,-123.5"/>
<text text-anchor="start" x="228.57" y="-141.5" font-family="Helvetica,sans-Serif" font-size="10.00">cppgc/internal/process</text>
<text text-anchor="middle" x="278.07" y="-130.5" font-family="Helvetica,sans-Serif" font-size="10.00">&#45;heap.h</text>
</a>
</g>
</g>
<!-- Node11&#45;&gt;Node15 -->
<g id="edge16" class="edge">
<title>Node11&#45;&gt;Node15</title>
<path fill="none" stroke="midnightblue" d="M253.01,-190.4C257,-182.3 262.1,-171.94 266.65,-162.69"/>
<polygon fill="midnightblue" stroke="midnightblue" points="269.86,-164.09 271.14,-153.58 263.58,-161 269.86,-164.09"/>
</g>
<!-- Node12&#45;&gt;Node3 -->
<g id="edge13" class="edge">
<title>Node12&#45;&gt;Node3</title>
<path fill="none" stroke="midnightblue" d="M146.74,-123.4C140.17,-113.46 131.33,-100.11 124.36,-89.57"/>
<polygon fill="midnightblue" stroke="midnightblue" points="127.26,-87.6 118.82,-81.19 121.42,-91.47 127.26,-87.6"/>
</g>
<!-- Node13 -->
<g id="node13" class="node">
<title>Node13</title>
<g id="a_node13"><a xlink:title=" ">
<polygon fill="white" stroke="#bfbfbf" points="157.07,-62 157.07,-81 205.07,-81 205.07,-62 157.07,-62"/>
<text text-anchor="middle" x="181.07" y="-69" font-family="Helvetica,sans-Serif" font-size="10.00">stdint.h</text>
</a>
</g>
</g>
<!-- Node12&#45;&gt;Node13 -->
<g id="edge14" class="edge">
<title>Node12&#45;&gt;Node13</title>
<path fill="none" stroke="midnightblue" d="M161.49,-123.4C165.2,-113.76 170.14,-100.91 174.13,-90.54"/>
<polygon fill="midnightblue" stroke="midnightblue" points="177.4,-91.78 177.72,-81.19 170.87,-89.27 177.4,-91.78"/>
</g>
<!-- Node12&#45;&gt;Node14 -->
<g id="edge15" class="edge">
<title>Node12&#45;&gt;Node14</title>
<path fill="none" stroke="midnightblue" d="M202.78,-124.73C205.58,-124.11 208.35,-123.52 211.07,-123 338.16,-98.45 372.14,-106.69 500.07,-87 512.67,-85.06 526.34,-82.66 538.71,-80.37"/>
<polygon fill="midnightblue" stroke="midnightblue" points="539.57,-83.77 548.75,-78.49 538.28,-76.89 539.57,-83.77"/>
</g>
<!-- Node15&#45;&gt;Node14 -->
<g id="edge19" class="edge">
<title>Node15&#45;&gt;Node14</title>
<path fill="none" stroke="midnightblue" d="M335.75,-125.04C395.28,-112.19 486.61,-92.47 538.79,-81.2"/>
<polygon fill="midnightblue" stroke="midnightblue" points="539.65,-84.59 548.68,-79.06 538.17,-77.75 539.65,-84.59"/>
</g>
<!-- Node16 -->
<g id="node16" class="node">
<title>Node16</title>
<g id="a_node16"><a xlink:href="atomic-entry-flag_8h.html" target="_top" xlink:title=" ">
<polygon fill="white" stroke="black" points="223.07,-56.5 223.07,-86.5 333.07,-86.5 333.07,-56.5 223.07,-56.5"/>
<text text-anchor="start" x="231.07" y="-74.5" font-family="Helvetica,sans-Serif" font-size="10.00">cppgc/internal/atomic</text>
<text text-anchor="middle" x="278.07" y="-63.5" font-family="Helvetica,sans-Serif" font-size="10.00">&#45;entry&#45;flag.h</text>
</a>
</g>
</g>
<!-- Node15&#45;&gt;Node16 -->
<g id="edge17" class="edge">
<title>Node15&#45;&gt;Node16</title>
<path fill="none" stroke="midnightblue" d="M278.07,-123.4C278.07,-115.64 278.07,-105.81 278.07,-96.86"/>
<polygon fill="midnightblue" stroke="midnightblue" points="281.57,-96.58 278.07,-86.58 274.57,-96.58 281.57,-96.58"/>
</g>
<!-- Node16&#45;&gt;Node6 -->
<g id="edge18" class="edge">
<title>Node16&#45;&gt;Node6</title>
<path fill="none" stroke="midnightblue" d="M244.42,-56.4C220.59,-46.42 188.92,-33.15 165.98,-23.53"/>
<polygon fill="midnightblue" stroke="midnightblue" points="167.31,-20.29 156.73,-19.66 164.6,-26.75 167.31,-20.29"/>
</g>
<!-- Node17&#45;&gt;Node14 -->
<g id="edge23" class="edge">
<title>Node17&#45;&gt;Node14</title>
<path fill="none" stroke="midnightblue" d="M945.03,-195.85C924.98,-176.84 876.98,-132.35 857.07,-123 778.45,-86.06 675.57,-76.06 619.62,-73.41"/>
<polygon fill="midnightblue" stroke="midnightblue" points="619.54,-69.9 609.4,-72.98 619.25,-76.89 619.54,-69.9"/>
</g>
<!-- Node18 -->
<g id="node18" class="node">
<title>Node18</title>
<g id="a_node18"><a xlink:title=" ">
<polygon fill="white" stroke="#bfbfbf" points="900.57,-62 900.57,-81 941.57,-81 941.57,-62 900.57,-62"/>
<text text-anchor="middle" x="921.07" y="-69" font-family="Helvetica,sans-Serif" font-size="10.00">string</text>
</a>
</g>
</g>
<!-- Node17&#45;&gt;Node18 -->
<g id="edge22" class="edge">
<title>Node17&#45;&gt;Node18</title>
<path fill="none" stroke="midnightblue" d="M958.18,-195.62C964.68,-180.3 975.64,-148.13 966.07,-123 960.84,-109.28 949.99,-96.92 940.26,-87.86"/>
<polygon fill="midnightblue" stroke="midnightblue" points="942.32,-85.02 932.49,-81.07 937.71,-90.29 942.32,-85.02"/>
</g>
<!-- Node19&#45;&gt;Node8 -->
<g id="edge26" class="edge">
<title>Node19&#45;&gt;Node8</title>
<path fill="none" stroke="midnightblue" d="M568.26,-262.73C552.59,-252.01 525.85,-233.72 507.14,-220.91"/>
<polygon fill="midnightblue" stroke="midnightblue" points="508.91,-217.89 498.68,-215.13 504.95,-223.66 508.91,-217.89"/>
</g>
<!-- Node20&#45;&gt;Node8 -->
<g id="edge29" class="edge">
<title>Node20&#45;&gt;Node8</title>
<path fill="none" stroke="midnightblue" d="M487.97,-380.2C487.67,-352.19 486.71,-264.71 486.28,-225.66"/>
<polygon fill="midnightblue" stroke="midnightblue" points="489.77,-225.18 486.16,-215.21 482.77,-225.25 489.77,-225.18"/>
</g>
<!-- Node20&#45;&gt;Node12 -->
<g id="edge30" class="edge">
<title>Node20&#45;&gt;Node12</title>
<path fill="none" stroke="midnightblue" d="M422.69,-381.48C378.27,-374.96 318.78,-363.42 269.07,-344 224.13,-326.45 202.56,-328.32 176.07,-288 151.15,-250.08 150.9,-194.89 153.28,-163.57"/>
<polygon fill="midnightblue" stroke="midnightblue" points="156.77,-163.83 154.19,-153.56 149.8,-163.2 156.77,-163.83"/>
</g>
<!-- Node20&#45;&gt;Node19 -->
<g id="edge44" class="edge">
<title>Node20&#45;&gt;Node19</title>
<path fill="none" stroke="midnightblue" d="M495.06,-380.32C510.48,-361.17 547.62,-315.04 567.68,-290.13"/>
<polygon fill="midnightblue" stroke="midnightblue" points="570.45,-292.27 574,-282.28 565,-287.88 570.45,-292.27"/>
</g>
<!-- Node21 -->
<g id="node21" class="node">
<title>Node21</title>
<g id="a_node21"><a xlink:href="platform_8h.html" target="_top" xlink:title=" ">
<polygon fill="white" stroke="black" points="534.57,-196 534.57,-215 623.57,-215 623.57,-196 534.57,-196"/>
<text text-anchor="middle" x="579.07" y="-203" font-family="Helvetica,sans-Serif" font-size="10.00">cppgc/platform.h</text>
</a>
</g>
</g>
<!-- Node20&#45;&gt;Node21 -->
<g id="edge31" class="edge">
<title>Node20&#45;&gt;Node21</title>
<path fill="none" stroke="midnightblue" d="M488.77,-380.32C490.89,-358.21 498.74,-298.59 524.07,-257 532.67,-242.88 546.34,-230.3 557.91,-221.23"/>
<polygon fill="midnightblue" stroke="midnightblue" points="560.31,-223.8 566.22,-215.01 556.12,-218.2 560.31,-223.8"/>
</g>
<!-- Node20&#45;&gt;Node25 -->
<g id="edge40" class="edge">
<title>Node20&#45;&gt;Node25</title>
<path fill="none" stroke="midnightblue" d="M514.85,-380.44C543.4,-371.32 588.8,-356.81 620.61,-346.65"/>
<polygon fill="midnightblue" stroke="midnightblue" points="621.96,-349.89 630.42,-343.52 619.82,-343.23 621.96,-349.89"/>
</g>
<!-- Node21&#45;&gt;Node14 -->
<g id="edge39" class="edge">
<title>Node21&#45;&gt;Node14</title>
<path fill="none" stroke="midnightblue" d="M579.07,-195.84C579.07,-174.67 579.07,-119.95 579.07,-91.03"/>
<polygon fill="midnightblue" stroke="midnightblue" points="582.57,-91.02 579.07,-81.02 575.57,-91.02 582.57,-91.02"/>
</g>
<!-- Node22 -->
<g id="node22" class="node">
<title>Node22</title>
<g id="a_node22"><a xlink:href="v8-platform_8h.html" target="_top" xlink:title=" ">
<polygon fill="white" stroke="black" points="430.57,-129 430.57,-148 503.57,-148 503.57,-129 430.57,-129"/>
<text text-anchor="middle" x="467.07" y="-136" font-family="Helvetica,sans-Serif" font-size="10.00">v8&#45;platform.h</text>
</a>
</g>
</g>
<!-- Node21&#45;&gt;Node22 -->
<g id="edge32" class="edge">
<title>Node21&#45;&gt;Node22</title>
<path fill="none" stroke="midnightblue" d="M563.96,-195.73C545.16,-184.82 512.81,-166.05 490.71,-153.22"/>
<polygon fill="midnightblue" stroke="midnightblue" points="492.34,-150.12 481.93,-148.13 488.83,-156.17 492.34,-150.12"/>
</g>
<!-- Node22&#45;&gt;Node3 -->
<g id="edge33" class="edge">
<title>Node22&#45;&gt;Node3</title>
<path fill="none" stroke="midnightblue" d="M430.33,-132.79C358.23,-123.37 200.69,-101.84 148.07,-87 145.63,-86.31 143.14,-85.5 140.65,-84.63"/>
<polygon fill="midnightblue" stroke="midnightblue" points="141.9,-81.35 131.31,-81.01 139.37,-87.88 141.9,-81.35"/>
</g>
<!-- Node22&#45;&gt;Node13 -->
<g id="edge34" class="edge">
<title>Node22&#45;&gt;Node13</title>
<path fill="none" stroke="midnightblue" d="M430.42,-132.73C380.64,-125.69 289.25,-110.71 214.07,-87 212.14,-86.39 210.18,-85.71 208.22,-84.98"/>
<polygon fill="midnightblue" stroke="midnightblue" points="209.19,-81.59 198.61,-81.05 206.54,-88.07 209.19,-81.59"/>
</g>
<!-- Node22&#45;&gt;Node14 -->
<g id="edge38" class="edge">
<title>Node22&#45;&gt;Node14</title>
<path fill="none" stroke="midnightblue" d="M482.17,-128.73C500.98,-117.82 533.32,-99.05 555.43,-86.22"/>
<polygon fill="midnightblue" stroke="midnightblue" points="557.31,-89.17 564.2,-81.13 553.8,-83.12 557.31,-89.17"/>
</g>
<!-- Node22&#45;&gt;Node18 -->
<g id="edge37" class="edge">
<title>Node22&#45;&gt;Node18</title>
<path fill="none" stroke="midnightblue" d="M503.57,-132.43C568.2,-123.44 706.99,-104.03 824.07,-87 846.25,-83.77 871.26,-80.03 890.33,-77.16"/>
<polygon fill="midnightblue" stroke="midnightblue" points="890.9,-80.61 900.26,-75.66 889.85,-73.69 890.9,-80.61"/>
</g>
<!-- Node23 -->
<g id="node23" class="node">
<title>Node23</title>
<g id="a_node23"><a xlink:title=" ">
<polygon fill="white" stroke="#bfbfbf" points="443.57,-62 443.57,-81 490.57,-81 490.57,-62 443.57,-62"/>
<text text-anchor="middle" x="467.07" y="-69" font-family="Helvetica,sans-Serif" font-size="10.00">stdlib.h</text>
</a>
</g>
</g>
<!-- Node22&#45;&gt;Node23 -->
<g id="edge35" class="edge">
<title>Node22&#45;&gt;Node23</title>
<path fill="none" stroke="midnightblue" d="M467.07,-128.73C467.07,-119.18 467.07,-103.62 467.07,-91.28"/>
<polygon fill="midnightblue" stroke="midnightblue" points="470.57,-91.13 467.07,-81.13 463.57,-91.13 470.57,-91.13"/>
</g>
<!-- Node24 -->
<g id="node24" class="node">
<title>Node24</title>
<g id="a_node24"><a xlink:title=" ">
<polygon fill="white" stroke="#bfbfbf" points="763.57,-62 763.57,-81 814.57,-81 814.57,-62 763.57,-62"/>
<text text-anchor="middle" x="789.07" y="-69" font-family="Helvetica,sans-Serif" font-size="10.00">memory</text>
</a>
</g>
</g>
<!-- Node22&#45;&gt;Node24 -->
<g id="edge36" class="edge">
<title>Node22&#45;&gt;Node24</title>
<path fill="none" stroke="midnightblue" d="M503.69,-130.11C566.02,-117.53 691.94,-92.11 753.52,-79.68"/>
<polygon fill="midnightblue" stroke="midnightblue" points="754.43,-83.06 763.54,-77.65 753.05,-76.2 754.43,-83.06"/>
</g>
<!-- Node25&#45;&gt;Node8 -->
<g id="edge41" class="edge">
<title>Node25&#45;&gt;Node8</title>
<path fill="none" stroke="midnightblue" d="M657.45,-324.21C657.64,-308.59 655.73,-275.87 638.07,-257 602.34,-218.83 575.54,-237.91 526.07,-221 523.68,-220.18 521.22,-219.33 518.75,-218.46"/>
<polygon fill="midnightblue" stroke="midnightblue" points="519.88,-215.14 509.28,-215.08 517.53,-221.74 519.88,-215.14"/>
</g>
<!-- Node25&#45;&gt;Node14 -->
<g id="edge43" class="edge">
<title>Node25&#45;&gt;Node14</title>
<path fill="none" stroke="midnightblue" d="M658.45,-324.47C660.48,-310.32 663.59,-281.13 659.07,-257 646.89,-191.97 608.91,-122.12 590,-90.22"/>
<polygon fill="midnightblue" stroke="midnightblue" points="592.75,-88 584.58,-81.25 586.75,-91.62 592.75,-88"/>
</g>
<!-- Node25&#45;&gt;Node19 -->
<g id="edge42" class="edge">
<title>Node25&#45;&gt;Node19</title>
<path fill="none" stroke="midnightblue" d="M646.18,-324.48C634.1,-315.02 614.4,-299.6 599.83,-288.19"/>
<polygon fill="midnightblue" stroke="midnightblue" points="601.97,-285.42 591.94,-282.01 597.65,-290.93 601.97,-285.42"/>
</g>
<!-- Node26&#45;&gt;Node14 -->
<g id="edge47" class="edge">
<title>Node26&#45;&gt;Node14</title>
<path fill="none" stroke="midnightblue" d="M974.58,-262.91C991.04,-254.78 1012.99,-240.86 1023.07,-221 1029.3,-208.71 1030.29,-201.73 1023.07,-190 980.16,-120.33 720.68,-86.85 619.46,-76.31"/>
<polygon fill="midnightblue" stroke="midnightblue" points="619.63,-72.81 609.32,-75.28 618.92,-79.77 619.63,-72.81"/>
</g>
<!-- Node26&#45;&gt;Node17 -->
<g id="edge46" class="edge">
<title>Node26&#45;&gt;Node17</title>
<path fill="none" stroke="midnightblue" d="M954.07,-262.73C954.07,-253.18 954.07,-237.62 954.07,-225.28"/>
<polygon fill="midnightblue" stroke="midnightblue" points="957.57,-225.13 954.07,-215.13 950.57,-225.13 957.57,-225.13"/>
</g>
<!-- Node27&#45;&gt;Node5 -->
<g id="edge58" class="edge">
<title>Node27&#45;&gt;Node5</title>
<path fill="none" stroke="midnightblue" d="M647.33,-380.62C573.35,-370.25 448.36,-352.71 376.78,-342.67"/>
<polygon fill="midnightblue" stroke="midnightblue" points="377.01,-339.17 366.62,-341.25 376.04,-346.1 377.01,-339.17"/>
</g>
<!-- Node27&#45;&gt;Node14 -->
<g id="edge60" class="edge">
<title>Node27&#45;&gt;Node14</title>
<path fill="none" stroke="midnightblue" d="M709.73,-380.09C713.11,-367.5 718.04,-343.81 714.07,-324 695,-228.9 683.39,-203.35 629.07,-123 620.24,-109.93 607.76,-97.33 597.48,-87.98"/>
<polygon fill="midnightblue" stroke="midnightblue" points="599.63,-85.21 589.81,-81.23 595.01,-90.46 599.63,-85.21"/>
</g>
<!-- Node27&#45;&gt;Node25 -->
<g id="edge59" class="edge">
<title>Node27&#45;&gt;Node25</title>
<path fill="none" stroke="midnightblue" d="M698.81,-380.08C691.6,-372.3 680.96,-360.8 672.22,-351.37"/>
<polygon fill="midnightblue" stroke="midnightblue" points="674.53,-348.71 665.17,-343.75 669.4,-353.47 674.53,-348.71"/>
</g>
<!-- Node28 -->
<g id="node28" class="node">
<title>Node28</title>
<g id="a_node28"><a xlink:href="heap_8h.html" target="_top" xlink:title=" ">
<polygon fill="white" stroke="black" points="761.07,-263 761.07,-282 835.07,-282 835.07,-263 761.07,-263"/>
<text text-anchor="middle" x="798.07" y="-270" font-family="Helvetica,sans-Serif" font-size="10.00">cppgc/heap.h</text>
</a>
</g>
</g>
<!-- Node27&#45;&gt;Node28 -->
<g id="edge50" class="edge">
<title>Node27&#45;&gt;Node28</title>
<path fill="none" stroke="midnightblue" d="M715.31,-380.26C723.59,-371.36 736.6,-357.04 747.07,-344 761.19,-326.41 776.18,-305.36 786.23,-290.87"/>
<polygon fill="midnightblue" stroke="midnightblue" points="789.28,-292.62 792.06,-282.39 783.51,-288.65 789.28,-292.62"/>
</g>
<!-- Node28&#45;&gt;Node2 -->
<g id="edge55" class="edge">
<title>Node28&#45;&gt;Node2</title>
<path fill="none" stroke="midnightblue" d="M760.9,-268.02C728.48,-265 680.17,-260.58 638.07,-257 437.27,-239.91 386.41,-242.79 186.07,-221 173.8,-219.67 160.75,-218.03 148.17,-216.35"/>
<polygon fill="midnightblue" stroke="midnightblue" points="148.59,-212.88 138.21,-215 147.65,-219.82 148.59,-212.88"/>
</g>
<!-- Node28&#45;&gt;Node14 -->
<g id="edge57" class="edge">
<title>Node28&#45;&gt;Node14</title>
<path fill="none" stroke="midnightblue" d="M794.82,-262.81C785.01,-237.68 753.27,-164.04 704.07,-123 679.37,-102.39 645.16,-89.36 618.77,-81.7"/>
<polygon fill="midnightblue" stroke="midnightblue" points="619.65,-78.31 609.08,-79.03 617.79,-85.06 619.65,-78.31"/>
</g>
<!-- Node28&#45;&gt;Node21 -->
<g id="edge56" class="edge">
<title>Node28&#45;&gt;Node21</title>
<path fill="none" stroke="midnightblue" d="M768.99,-262.87C730.02,-251.3 660.77,-230.75 617.53,-217.91"/>
<polygon fill="midnightblue" stroke="midnightblue" points="618.5,-214.55 607.92,-215.06 616.51,-221.26 618.5,-214.55"/>
</g>
<!-- Node28&#45;&gt;Node24 -->
<g id="edge51" class="edge">
<title>Node28&#45;&gt;Node24</title>
<path fill="none" stroke="midnightblue" d="M809.92,-262.91C821.43,-253.87 838.4,-238.52 847.07,-221 866.48,-181.75 876.74,-162.11 857.07,-123 848.88,-106.73 832.7,-94.38 818.17,-85.97"/>
<polygon fill="midnightblue" stroke="midnightblue" points="819.43,-82.67 808.97,-81.01 816.11,-88.83 819.43,-82.67"/>
</g>
<!-- Node29 -->
<g id="node29" class="node">
<title>Node29</title>
<g id="a_node29"><a xlink:title=" ">
<polygon fill="white" stroke="#bfbfbf" points="794.07,-196 794.07,-215 838.07,-215 838.07,-196 794.07,-196"/>
<text text-anchor="middle" x="816.07" y="-203" font-family="Helvetica,sans-Serif" font-size="10.00">vector</text>
</a>
</g>
</g>
<!-- Node28&#45;&gt;Node29 -->
<g id="edge52" class="edge">
<title>Node28&#45;&gt;Node29</title>
<path fill="none" stroke="midnightblue" d="M800.5,-262.73C803.17,-253.09 807.54,-237.3 810.97,-224.91"/>
<polygon fill="midnightblue" stroke="midnightblue" points="814.38,-225.7 813.68,-215.13 807.64,-223.83 814.38,-225.7"/>
</g>
<!-- Node30 -->
<g id="node30" class="node">
<title>Node30</title>
<g id="a_node30"><a xlink:href="common_8h.html" target="_top" xlink:title=" ">
<polygon fill="white" stroke="black" points="756.57,-129 756.57,-148 847.57,-148 847.57,-129 756.57,-129"/>
<text text-anchor="middle" x="802.07" y="-136" font-family="Helvetica,sans-Serif" font-size="10.00">cppgc/common.h</text>
</a>
</g>
</g>
<!-- Node28&#45;&gt;Node30 -->
<g id="edge53" class="edge">
<title>Node28&#45;&gt;Node30</title>
<path fill="none" stroke="midnightblue" d="M794.88,-262.93C789.77,-248.08 780.71,-216.58 785.07,-190 786.87,-178.99 790.75,-167.14 794.35,-157.7"/>
<polygon fill="midnightblue" stroke="midnightblue" points="797.67,-158.8 798.16,-148.22 791.18,-156.19 797.67,-158.8"/>
</g>
<!-- Node30&#45;&gt;Node14 -->
<g id="edge54" class="edge">
<title>Node30&#45;&gt;Node14</title>
<path fill="none" stroke="midnightblue" d="M772.46,-128.87C732.78,-117.3 662.26,-96.75 618.23,-83.91"/>
<polygon fill="midnightblue" stroke="midnightblue" points="619.03,-80.5 608.45,-81.06 617.07,-87.22 619.03,-80.5"/>
</g>
</g>
</svg>
