<?xml version="1.0" encoding="UTF-8" standalone="no"?>
<!DOCTYPE svg PUBLIC "-//W3C//DTD SVG 1.1//EN"
 "http://www.w3.org/Graphics/SVG/1.1/DTD/svg11.dtd">
<!-- Generated by graphviz version 2.44.0 ()
 -->
<!-- Title: v8::Data Pages: 1 -->
<svg width="791pt" height="921pt"
 viewBox="0.00 0.00 791.00 921.00" xmlns="http://www.w3.org/2000/svg" xmlns:xlink="http://www.w3.org/1999/xlink">
<g id="graph0" class="graph" transform="scale(1 1) rotate(0) translate(4 917)">
<title>v8::Data</title>
<polygon fill="white" stroke="transparent" points="-4,4 -4,-917 787,-917 787,4 -4,4"/>
<!-- Node1 -->
<g id="node1" class="node">
<title>Node1</title>
<g id="a_node1"><a xlink:title=" ">
<polygon fill="#bfbfbf" stroke="black" points="0,-570.5 0,-589.5 52,-589.5 52,-570.5 0,-570.5"/>
<text text-anchor="middle" x="26" y="-577.5" font-family="Helvetica,sans-Serif" font-size="10.00">v8::Data</text>
</a>
</g>
</g>
<!-- Node2 -->
<g id="node2" class="node">
<title>Node2</title>
<g id="a_node2"><a xlink:href="classv8_1_1AccessorSignature.html" target="_top" xlink:title=" ">
<polygon fill="white" stroke="black" points="88,-646.5 88,-665.5 202,-665.5 202,-646.5 88,-646.5"/>
<text text-anchor="middle" x="145" y="-653.5" font-family="Helvetica,sans-Serif" font-size="10.00">v8::AccessorSignature</text>
</a>
</g>
</g>
<!-- Node1&#45;&gt;Node2 -->
<g id="edge1" class="edge">
<title>Node1&#45;&gt;Node2</title>
<path fill="none" stroke="midnightblue" d="M41.83,-597.36C53.33,-609.88 70.25,-626.38 88,-637 94.25,-640.74 101.35,-643.87 108.33,-646.44"/>
<polygon fill="midnightblue" stroke="midnightblue" points="44.37,-594.95 35.11,-589.81 39.14,-599.61 44.37,-594.95"/>
</g>
<!-- Node3 -->
<g id="node3" class="node">
<title>Node3</title>
<g id="a_node3"><a xlink:href="classv8_1_1Private.html" target="_top" xlink:title=" ">
<polygon fill="white" stroke="black" points="114,-608.5 114,-627.5 176,-627.5 176,-608.5 114,-608.5"/>
<text text-anchor="middle" x="145" y="-615.5" font-family="Helvetica,sans-Serif" font-size="10.00">v8::Private</text>
</a>
</g>
</g>
<!-- Node1&#45;&gt;Node3 -->
<g id="edge2" class="edge">
<title>Node1&#45;&gt;Node3</title>
<path fill="none" stroke="midnightblue" d="M62.03,-591.38C78.72,-596.8 98.46,-603.21 114.39,-608.38"/>
<polygon fill="midnightblue" stroke="midnightblue" points="62.69,-587.91 52.1,-588.15 60.53,-594.57 62.69,-587.91"/>
</g>
<!-- Node4 -->
<g id="node4" class="node">
<title>Node4</title>
<g id="a_node4"><a xlink:href="classv8_1_1Signature.html" target="_top" xlink:title=" ">
<polygon fill="white" stroke="black" points="108.5,-570.5 108.5,-589.5 181.5,-589.5 181.5,-570.5 108.5,-570.5"/>
<text text-anchor="middle" x="145" y="-577.5" font-family="Helvetica,sans-Serif" font-size="10.00">v8::Signature</text>
</a>
</g>
</g>
<!-- Node1&#45;&gt;Node4 -->
<g id="edge3" class="edge">
<title>Node1&#45;&gt;Node4</title>
<path fill="none" stroke="midnightblue" d="M62.24,-580C76.8,-580 93.67,-580 108.29,-580"/>
<polygon fill="midnightblue" stroke="midnightblue" points="62.1,-576.5 52.1,-580 62.1,-583.5 62.1,-576.5"/>
</g>
<!-- Node5 -->
<g id="node5" class="node">
<title>Node5</title>
<g id="a_node5"><a xlink:href="classv8_1_1Template.html" target="_top" xlink:title=" ">
<polygon fill="white" stroke="black" points="109,-532.5 109,-551.5 181,-551.5 181,-532.5 109,-532.5"/>
<text text-anchor="middle" x="145" y="-539.5" font-family="Helvetica,sans-Serif" font-size="10.00">v8::Template</text>
</a>
</g>
</g>
<!-- Node1&#45;&gt;Node5 -->
<g id="edge4" class="edge">
<title>Node1&#45;&gt;Node5</title>
<path fill="none" stroke="midnightblue" d="M62.03,-568.62C78.72,-563.2 98.46,-556.79 114.39,-551.62"/>
<polygon fill="midnightblue" stroke="midnightblue" points="60.53,-565.43 52.1,-571.85 62.69,-572.09 60.53,-565.43"/>
</g>
<!-- Node8 -->
<g id="node8" class="node">
<title>Node8</title>
<g id="a_node8"><a xlink:href="classv8_1_1Value.html" target="_top" xlink:title=" ">
<polygon fill="white" stroke="black" points="117,-475.5 117,-494.5 173,-494.5 173,-475.5 117,-475.5"/>
<text text-anchor="middle" x="145" y="-482.5" font-family="Helvetica,sans-Serif" font-size="10.00">v8::Value</text>
</a>
</g>
</g>
<!-- Node1&#45;&gt;Node8 -->
<g id="edge7" class="edge">
<title>Node1&#45;&gt;Node8</title>
<path fill="none" stroke="midnightblue" d="M43.6,-563.16C55.52,-551.4 72.21,-535.61 88,-523 101.04,-512.59 116.84,-502.04 128.33,-494.7"/>
<polygon fill="midnightblue" stroke="midnightblue" points="41.12,-560.69 36.51,-570.23 46.06,-565.64 41.12,-560.69"/>
</g>
<!-- Node6 -->
<g id="node6" class="node">
<title>Node6</title>
<g id="a_node6"><a xlink:href="classv8_1_1FunctionTemplate.html" target="_top" xlink:title=" ">
<polygon fill="white" stroke="black" points="238,-570.5 238,-589.5 348,-589.5 348,-570.5 238,-570.5"/>
<text text-anchor="middle" x="293" y="-577.5" font-family="Helvetica,sans-Serif" font-size="10.00">v8::FunctionTemplate</text>
</a>
</g>
</g>
<!-- Node5&#45;&gt;Node6 -->
<g id="edge5" class="edge">
<title>Node5&#45;&gt;Node6</title>
<path fill="none" stroke="midnightblue" d="M191.17,-553.76C211.82,-559.13 235.97,-565.42 255.46,-570.49"/>
<polygon fill="midnightblue" stroke="midnightblue" points="191.9,-550.33 181.34,-551.2 190.14,-557.1 191.9,-550.33"/>
</g>
<!-- Node7 -->
<g id="node7" class="node">
<title>Node7</title>
<g id="a_node7"><a xlink:href="classv8_1_1ObjectTemplate.html" target="_top" xlink:title=" ">
<polygon fill="white" stroke="black" points="242.5,-532.5 242.5,-551.5 343.5,-551.5 343.5,-532.5 242.5,-532.5"/>
<text text-anchor="middle" x="293" y="-539.5" font-family="Helvetica,sans-Serif" font-size="10.00">v8::ObjectTemplate</text>
</a>
</g>
</g>
<!-- Node5&#45;&gt;Node7 -->
<g id="edge6" class="edge">
<title>Node5&#45;&gt;Node7</title>
<path fill="none" stroke="midnightblue" d="M191.6,-542C207.72,-542 225.92,-542 242.36,-542"/>
<polygon fill="midnightblue" stroke="midnightblue" points="191.34,-538.5 181.34,-542 191.34,-545.5 191.34,-538.5"/>
</g>
<!-- Node9 -->
<g id="node9" class="node">
<title>Node9</title>
<g id="a_node9"><a xlink:href="classv8_1_1External.html" target="_top" xlink:title=" ">
<polygon fill="white" stroke="black" points="260,-494.5 260,-513.5 326,-513.5 326,-494.5 260,-494.5"/>
<text text-anchor="middle" x="293" y="-501.5" font-family="Helvetica,sans-Serif" font-size="10.00">v8::External</text>
</a>
</g>
</g>
<!-- Node8&#45;&gt;Node9 -->
<g id="edge8" class="edge">
<title>Node8&#45;&gt;Node9</title>
<path fill="none" stroke="midnightblue" d="M183.16,-489.84C206.87,-492.92 237.29,-496.88 259.94,-499.83"/>
<polygon fill="midnightblue" stroke="midnightblue" points="183.49,-486.35 173.12,-488.53 182.58,-493.29 183.49,-486.35"/>
</g>
<!-- Node10 -->
<g id="node10" class="node">
<title>Node10</title>
<g id="a_node10"><a xlink:href="classv8_1_1Object.html" target="_top" xlink:title=" ">
<polygon fill="white" stroke="black" points="263,-456.5 263,-475.5 323,-475.5 323,-456.5 263,-456.5"/>
<text text-anchor="middle" x="293" y="-463.5" font-family="Helvetica,sans-Serif" font-size="10.00">v8::Object</text>
</a>
</g>
</g>
<!-- Node8&#45;&gt;Node10 -->
<g id="edge9" class="edge">
<title>Node8&#45;&gt;Node10</title>
<path fill="none" stroke="midnightblue" d="M183.22,-480.16C207.92,-476.94 239.89,-472.78 262.77,-469.8"/>
<polygon fill="midnightblue" stroke="midnightblue" points="182.58,-476.71 173.12,-481.47 183.49,-483.65 182.58,-476.71"/>
</g>
<!-- Node42 -->
<g id="node42" class="node">
<title>Node42</title>
<g id="a_node42"><a xlink:href="classv8_1_1Primitive.html" target="_top" xlink:title=" ">
<polygon fill="white" stroke="black" points="258,-76.5 258,-95.5 328,-95.5 328,-76.5 258,-76.5"/>
<text text-anchor="middle" x="293" y="-83.5" font-family="Helvetica,sans-Serif" font-size="10.00">v8::Primitive</text>
</a>
</g>
</g>
<!-- Node8&#45;&gt;Node42 -->
<g id="edge41" class="edge">
<title>Node8&#45;&gt;Node42</title>
<path fill="none" stroke="midnightblue" d="M153.11,-465.56C179.27,-394.07 269.62,-147.17 288.52,-95.52"/>
<polygon fill="midnightblue" stroke="midnightblue" points="149.76,-464.54 149.61,-475.14 156.33,-466.95 149.76,-464.54"/>
</g>
<!-- Node11 -->
<g id="node11" class="node">
<title>Node11</title>
<g id="a_node11"><a xlink:href="classv8_1_1Array.html" target="_top" xlink:title=" ">
<polygon fill="white" stroke="black" points="422.5,-798.5 422.5,-817.5 476.5,-817.5 476.5,-798.5 422.5,-798.5"/>
<text text-anchor="middle" x="449.5" y="-805.5" font-family="Helvetica,sans-Serif" font-size="10.00">v8::Array</text>
</a>
</g>
</g>
<!-- Node10&#45;&gt;Node11 -->
<g id="edge10" class="edge">
<title>Node10&#45;&gt;Node11</title>
<path fill="none" stroke="midnightblue" d="M332.59,-473.53C338.5,-476.25 343.96,-479.96 348,-485 433.04,-591.2 296.24,-685.04 384,-789 393.34,-800.06 408.76,-804.86 422.19,-806.88"/>
<polygon fill="midnightblue" stroke="midnightblue" points="333.67,-470.2 323.08,-470.01 331.24,-476.76 333.67,-470.2"/>
</g>
<!-- Node12 -->
<g id="node12" class="node">
<title>Node12</title>
<g id="a_node12"><a xlink:href="classv8_1_1ArrayBuffer.html" target="_top" xlink:title=" ">
<polygon fill="white" stroke="black" points="409.5,-760.5 409.5,-779.5 489.5,-779.5 489.5,-760.5 409.5,-760.5"/>
<text text-anchor="middle" x="449.5" y="-767.5" font-family="Helvetica,sans-Serif" font-size="10.00">v8::ArrayBuffer</text>
</a>
</g>
</g>
<!-- Node10&#45;&gt;Node12 -->
<g id="edge11" class="edge">
<title>Node10&#45;&gt;Node12</title>
<path fill="none" stroke="midnightblue" d="M332.52,-473.59C338.44,-476.3 343.92,-479.99 348,-485 423.34,-577.5 306.29,-660.48 384,-751 390.46,-758.53 399.75,-763.15 409.26,-765.97"/>
<polygon fill="midnightblue" stroke="midnightblue" points="333.6,-470.25 323.01,-470.07 331.17,-476.82 333.6,-470.25"/>
</g>
<!-- Node13 -->
<g id="node13" class="node">
<title>Node13</title>
<g id="a_node13"><a xlink:href="classv8_1_1ArrayBufferView.html" target="_top" xlink:title=" ">
<polygon fill="white" stroke="black" points="399,-722.5 399,-741.5 500,-741.5 500,-722.5 399,-722.5"/>
<text text-anchor="middle" x="449.5" y="-729.5" font-family="Helvetica,sans-Serif" font-size="10.00">v8::ArrayBufferView</text>
</a>
</g>
</g>
<!-- Node10&#45;&gt;Node13 -->
<g id="edge12" class="edge">
<title>Node10&#45;&gt;Node13</title>
<path fill="none" stroke="midnightblue" d="M332.61,-473.74C338.47,-476.45 343.91,-480.09 348,-485 413.66,-563.82 316.32,-635.9 384,-713 388.08,-717.65 393.24,-721.19 398.85,-723.88"/>
<polygon fill="midnightblue" stroke="midnightblue" points="333.79,-470.45 323.19,-470.23 331.34,-477.01 333.79,-470.45"/>
</g>
<!-- Node27 -->
<g id="node27" class="node">
<title>Node27</title>
<g id="a_node27"><a xlink:href="classv8_1_1BigIntObject.html" target="_top" xlink:title=" ">
<polygon fill="white" stroke="black" points="406.5,-684.5 406.5,-703.5 492.5,-703.5 492.5,-684.5 406.5,-684.5"/>
<text text-anchor="middle" x="449.5" y="-691.5" font-family="Helvetica,sans-Serif" font-size="10.00">v8::BigIntObject</text>
</a>
</g>
</g>
<!-- Node10&#45;&gt;Node27 -->
<g id="edge26" class="edge">
<title>Node10&#45;&gt;Node27</title>
<path fill="none" stroke="midnightblue" d="M332.48,-473.85C338.35,-476.54 343.83,-480.15 348,-485 404.01,-550.19 326.31,-611.29 384,-675 389.88,-681.49 397.85,-685.81 406.18,-688.67"/>
<polygon fill="midnightblue" stroke="midnightblue" points="333.66,-470.55 323.06,-470.34 331.21,-477.11 333.66,-470.55"/>
</g>
<!-- Node28 -->
<g id="node28" class="node">
<title>Node28</title>
<g id="a_node28"><a xlink:href="classv8_1_1BooleanObject.html" target="_top" xlink:title=" ">
<polygon fill="white" stroke="black" points="402,-646.5 402,-665.5 497,-665.5 497,-646.5 402,-646.5"/>
<text text-anchor="middle" x="449.5" y="-653.5" font-family="Helvetica,sans-Serif" font-size="10.00">v8::BooleanObject</text>
</a>
</g>
</g>
<!-- Node10&#45;&gt;Node28 -->
<g id="edge27" class="edge">
<title>Node10&#45;&gt;Node28</title>
<path fill="none" stroke="midnightblue" d="M332.89,-474.29C338.56,-476.93 343.87,-480.41 348,-485 394.43,-536.62 336.25,-586.6 384,-637 388.9,-642.17 395.12,-645.95 401.77,-648.72"/>
<polygon fill="midnightblue" stroke="midnightblue" points="333.75,-470.87 323.16,-470.59 331.26,-477.41 333.75,-470.87"/>
</g>
<!-- Node29 -->
<g id="node29" class="node">
<title>Node29</title>
<g id="a_node29"><a xlink:href="classv8_1_1Date.html" target="_top" xlink:title=" ">
<polygon fill="white" stroke="black" points="423.5,-608.5 423.5,-627.5 475.5,-627.5 475.5,-608.5 423.5,-608.5"/>
<text text-anchor="middle" x="449.5" y="-615.5" font-family="Helvetica,sans-Serif" font-size="10.00">v8::Date</text>
</a>
</g>
</g>
<!-- Node10&#45;&gt;Node29 -->
<g id="edge28" class="edge">
<title>Node10&#45;&gt;Node29</title>
<path fill="none" stroke="midnightblue" d="M332.79,-474.63C338.42,-477.23 343.75,-480.61 348,-485 384.96,-523.18 346.07,-561.8 384,-599 394.42,-609.22 410.04,-613.99 423.3,-616.19"/>
<polygon fill="midnightblue" stroke="midnightblue" points="333.73,-471.25 323.14,-470.96 331.24,-477.79 333.73,-471.25"/>
</g>
<!-- Node30 -->
<g id="node30" class="node">
<title>Node30</title>
<g id="a_node30"><a xlink:href="classv8_1_1Function.html" target="_top" xlink:title=" ">
<polygon fill="white" stroke="black" points="415,-570.5 415,-589.5 484,-589.5 484,-570.5 415,-570.5"/>
<text text-anchor="middle" x="449.5" y="-577.5" font-family="Helvetica,sans-Serif" font-size="10.00">v8::Function</text>
</a>
</g>
</g>
<!-- Node10&#45;&gt;Node30 -->
<g id="edge29" class="edge">
<title>Node10&#45;&gt;Node30</title>
<path fill="none" stroke="midnightblue" d="M332.64,-475.31C338.21,-477.82 343.55,-480.99 348,-485 375.77,-510.02 355.59,-536.71 384,-561 392.61,-568.36 403.95,-572.87 414.72,-575.63"/>
<polygon fill="midnightblue" stroke="midnightblue" points="333.76,-471.99 323.17,-471.68 331.25,-478.53 333.76,-471.99"/>
</g>
<!-- Node31 -->
<g id="node31" class="node">
<title>Node31</title>
<g id="a_node31"><a xlink:href="classv8_1_1Map.html" target="_top" xlink:title=" ">
<polygon fill="white" stroke="black" points="424.5,-532.5 424.5,-551.5 474.5,-551.5 474.5,-532.5 424.5,-532.5"/>
<text text-anchor="middle" x="449.5" y="-539.5" font-family="Helvetica,sans-Serif" font-size="10.00">v8::Map</text>
</a>
</g>
</g>
<!-- Node10&#45;&gt;Node31 -->
<g id="edge30" class="edge">
<title>Node10&#45;&gt;Node31</title>
<path fill="none" stroke="midnightblue" d="M332.76,-477.1C338.07,-479.34 343.31,-481.96 348,-485 367.52,-497.66 364.16,-510.85 384,-523 396.25,-530.5 411.61,-535.18 424.28,-538.02"/>
<polygon fill="midnightblue" stroke="midnightblue" points="333.8,-473.75 323.2,-473.47 331.31,-480.29 333.8,-473.75"/>
</g>
<!-- Node32 -->
<g id="node32" class="node">
<title>Node32</title>
<g id="a_node32"><a xlink:href="classv8_1_1NumberObject.html" target="_top" xlink:title=" ">
<polygon fill="white" stroke="black" points="402,-494.5 402,-513.5 497,-513.5 497,-494.5 402,-494.5"/>
<text text-anchor="middle" x="449.5" y="-501.5" font-family="Helvetica,sans-Serif" font-size="10.00">v8::NumberObject</text>
</a>
</g>
</g>
<!-- Node10&#45;&gt;Node32 -->
<g id="edge31" class="edge">
<title>Node10&#45;&gt;Node32</title>
<path fill="none" stroke="midnightblue" d="M333.02,-475.6C356.48,-481.37 386.22,-488.68 409.65,-494.44"/>
<polygon fill="midnightblue" stroke="midnightblue" points="333.61,-472.14 323.06,-473.15 331.93,-478.93 333.61,-472.14"/>
</g>
<!-- Node33 -->
<g id="node33" class="node">
<title>Node33</title>
<g id="a_node33"><a xlink:href="classv8_1_1Promise.html" target="_top" xlink:title=" ">
<polygon fill="white" stroke="black" points="415.5,-456.5 415.5,-475.5 483.5,-475.5 483.5,-456.5 415.5,-456.5"/>
<text text-anchor="middle" x="449.5" y="-463.5" font-family="Helvetica,sans-Serif" font-size="10.00">v8::Promise</text>
</a>
</g>
</g>
<!-- Node10&#45;&gt;Node33 -->
<g id="edge32" class="edge">
<title>Node10&#45;&gt;Node33</title>
<path fill="none" stroke="midnightblue" d="M333.09,-466C358.46,-466 391.17,-466 415.28,-466"/>
<polygon fill="midnightblue" stroke="midnightblue" points="333.06,-462.5 323.06,-466 333.06,-469.5 333.06,-462.5"/>
</g>
<!-- Node34 -->
<g id="node34" class="node">
<title>Node34</title>
<g id="a_node34"><a xlink:href="classv8_1_1Promise_1_1Resolver.html" target="_top" xlink:title=" ">
<polygon fill="white" stroke="black" points="394.5,-418.5 394.5,-437.5 504.5,-437.5 504.5,-418.5 394.5,-418.5"/>
<text text-anchor="middle" x="449.5" y="-425.5" font-family="Helvetica,sans-Serif" font-size="10.00">v8::Promise::Resolver</text>
</a>
</g>
</g>
<!-- Node10&#45;&gt;Node34 -->
<g id="edge33" class="edge">
<title>Node10&#45;&gt;Node34</title>
<path fill="none" stroke="midnightblue" d="M333.02,-456.4C356.48,-450.63 386.22,-443.32 409.65,-437.56"/>
<polygon fill="midnightblue" stroke="midnightblue" points="331.93,-453.07 323.06,-458.85 333.61,-459.86 331.93,-453.07"/>
</g>
<!-- Node35 -->
<g id="node35" class="node">
<title>Node35</title>
<g id="a_node35"><a xlink:href="classv8_1_1Proxy.html" target="_top" xlink:title=" ">
<polygon fill="white" stroke="black" points="421.5,-380.5 421.5,-399.5 477.5,-399.5 477.5,-380.5 421.5,-380.5"/>
<text text-anchor="middle" x="449.5" y="-387.5" font-family="Helvetica,sans-Serif" font-size="10.00">v8::Proxy</text>
</a>
</g>
</g>
<!-- Node10&#45;&gt;Node35 -->
<g id="edge34" class="edge">
<title>Node10&#45;&gt;Node35</title>
<path fill="none" stroke="midnightblue" d="M315.17,-450.2C332.82,-437.62 359.04,-420.31 384,-409 395.8,-403.65 409.5,-399.37 421.22,-396.23"/>
<polygon fill="midnightblue" stroke="midnightblue" points="312.81,-447.59 306.76,-456.29 316.92,-453.26 312.81,-447.59"/>
</g>
<!-- Node36 -->
<g id="node36" class="node">
<title>Node36</title>
<g id="a_node36"><a xlink:href="classv8_1_1RegExp.html" target="_top" xlink:title=" ">
<polygon fill="white" stroke="black" points="417,-342.5 417,-361.5 482,-361.5 482,-342.5 417,-342.5"/>
<text text-anchor="middle" x="449.5" y="-349.5" font-family="Helvetica,sans-Serif" font-size="10.00">v8::RegExp</text>
</a>
</g>
</g>
<!-- Node10&#45;&gt;Node36 -->
<g id="edge35" class="edge">
<title>Node10&#45;&gt;Node36</title>
<path fill="none" stroke="midnightblue" d="M306.32,-448.1C321.97,-426.7 350.94,-391.24 384,-371 393.96,-364.9 405.98,-360.67 416.93,-357.78"/>
<polygon fill="midnightblue" stroke="midnightblue" points="303.41,-446.15 300.46,-456.33 309.11,-450.22 303.41,-446.15"/>
</g>
<!-- Node37 -->
<g id="node37" class="node">
<title>Node37</title>
<g id="a_node37"><a xlink:href="classv8_1_1Set.html" target="_top" xlink:title=" ">
<polygon fill="white" stroke="black" points="426,-304.5 426,-323.5 473,-323.5 473,-304.5 426,-304.5"/>
<text text-anchor="middle" x="449.5" y="-311.5" font-family="Helvetica,sans-Serif" font-size="10.00">v8::Set</text>
</a>
</g>
</g>
<!-- Node10&#45;&gt;Node37 -->
<g id="edge36" class="edge">
<title>Node10&#45;&gt;Node37</title>
<path fill="none" stroke="midnightblue" d="M301.82,-446.87C314.65,-417.88 342.9,-363.04 384,-333 396.25,-324.04 412.69,-319.29 425.91,-316.77"/>
<polygon fill="midnightblue" stroke="midnightblue" points="298.51,-445.71 297.8,-456.28 304.95,-448.46 298.51,-445.71"/>
</g>
<!-- Node38 -->
<g id="node38" class="node">
<title>Node38</title>
<g id="a_node38"><a xlink:href="classv8_1_1SharedArrayBuffer.html" target="_top" xlink:title=" ">
<polygon fill="white" stroke="black" points="394.5,-266.5 394.5,-285.5 504.5,-285.5 504.5,-266.5 394.5,-266.5"/>
<text text-anchor="middle" x="449.5" y="-273.5" font-family="Helvetica,sans-Serif" font-size="10.00">v8::SharedArrayBuffer</text>
</a>
</g>
</g>
<!-- Node10&#45;&gt;Node38 -->
<g id="edge37" class="edge">
<title>Node10&#45;&gt;Node38</title>
<path fill="none" stroke="midnightblue" d="M298.97,-446.04C308.89,-410.33 334.59,-335.48 384,-295 388.7,-291.15 394.14,-288.08 399.85,-285.64"/>
<polygon fill="midnightblue" stroke="midnightblue" points="295.46,-445.6 296.29,-456.16 302.23,-447.39 295.46,-445.6"/>
</g>
<!-- Node39 -->
<g id="node39" class="node">
<title>Node39</title>
<g id="a_node39"><a xlink:href="classv8_1_1StringObject.html" target="_top" xlink:title=" ">
<polygon fill="white" stroke="black" points="406.5,-228.5 406.5,-247.5 492.5,-247.5 492.5,-228.5 406.5,-228.5"/>
<text text-anchor="middle" x="449.5" y="-235.5" font-family="Helvetica,sans-Serif" font-size="10.00">v8::StringObject</text>
</a>
</g>
</g>
<!-- Node10&#45;&gt;Node39 -->
<g id="edge38" class="edge">
<title>Node10&#45;&gt;Node39</title>
<path fill="none" stroke="midnightblue" d="M296.81,-446.32C303.76,-404.99 325.63,-308.74 384,-257 390.29,-251.42 398.14,-247.48 406.18,-244.7"/>
<polygon fill="midnightblue" stroke="midnightblue" points="293.32,-446.01 295.23,-456.43 300.23,-447.09 293.32,-446.01"/>
</g>
<!-- Node40 -->
<g id="node40" class="node">
<title>Node40</title>
<g id="a_node40"><a xlink:href="classv8_1_1SymbolObject.html" target="_top" xlink:title=" ">
<polygon fill="white" stroke="black" points="403.5,-190.5 403.5,-209.5 495.5,-209.5 495.5,-190.5 403.5,-190.5"/>
<text text-anchor="middle" x="449.5" y="-197.5" font-family="Helvetica,sans-Serif" font-size="10.00">v8::SymbolObject</text>
</a>
</g>
</g>
<!-- Node10&#45;&gt;Node40 -->
<g id="edge39" class="edge">
<title>Node10&#45;&gt;Node40</title>
<path fill="none" stroke="midnightblue" d="M295.33,-446.31C299.56,-399.78 316.68,-282.21 384,-219 389.45,-213.89 396.2,-210.14 403.27,-207.4"/>
<polygon fill="midnightblue" stroke="midnightblue" points="291.84,-446.05 294.53,-456.3 298.82,-446.61 291.84,-446.05"/>
</g>
<!-- Node41 -->
<g id="node41" class="node">
<title>Node41</title>
<g id="a_node41"><a xlink:href="classv8_1_1WasmCompiledModule.html" target="_top" xlink:title=" ">
<polygon fill="white" stroke="black" points="384,-152.5 384,-171.5 515,-171.5 515,-152.5 384,-152.5"/>
<text text-anchor="middle" x="449.5" y="-159.5" font-family="Helvetica,sans-Serif" font-size="10.00">v8::WasmCompiledModule</text>
</a>
</g>
</g>
<!-- Node10&#45;&gt;Node41 -->
<g id="edge40" class="edge">
<title>Node10&#45;&gt;Node41</title>
<path fill="none" stroke="midnightblue" d="M294.23,-446.14C295.92,-394.68 307.72,-255.82 384,-181 387.92,-177.16 392.57,-174.09 397.56,-171.63"/>
<polygon fill="midnightblue" stroke="midnightblue" points="290.73,-446.17 293.99,-456.25 297.72,-446.34 290.73,-446.17"/>
</g>
<!-- Node14 -->
<g id="node14" class="node">
<title>Node14</title>
<g id="a_node14"><a xlink:href="classv8_1_1DataView.html" target="_top" xlink:title=" ">
<polygon fill="white" stroke="black" points="554,-741.5 554,-760.5 628,-760.5 628,-741.5 554,-741.5"/>
<text text-anchor="middle" x="591" y="-748.5" font-family="Helvetica,sans-Serif" font-size="10.00">v8::DataView</text>
</a>
</g>
</g>
<!-- Node13&#45;&gt;Node14 -->
<g id="edge13" class="edge">
<title>Node13&#45;&gt;Node14</title>
<path fill="none" stroke="midnightblue" d="M510.2,-740.13C525.01,-742.15 540.44,-744.25 553.74,-746.06"/>
<polygon fill="midnightblue" stroke="midnightblue" points="510.46,-736.63 500.08,-738.75 509.51,-743.57 510.46,-736.63"/>
</g>
<!-- Node15 -->
<g id="node15" class="node">
<title>Node15</title>
<g id="a_node15"><a xlink:href="classv8_1_1TypedArray.html" target="_top" xlink:title=" ">
<polygon fill="white" stroke="black" points="551,-703.5 551,-722.5 631,-722.5 631,-703.5 551,-703.5"/>
<text text-anchor="middle" x="591" y="-710.5" font-family="Helvetica,sans-Serif" font-size="10.00">v8::TypedArray</text>
</a>
</g>
</g>
<!-- Node13&#45;&gt;Node15 -->
<g id="edge14" class="edge">
<title>Node13&#45;&gt;Node15</title>
<path fill="none" stroke="midnightblue" d="M510.36,-723.85C523.99,-721.99 538.14,-720.06 550.66,-718.36"/>
<polygon fill="midnightblue" stroke="midnightblue" points="509.51,-720.43 500.08,-725.25 510.46,-727.37 509.51,-720.43"/>
</g>
<!-- Node16 -->
<g id="node16" class="node">
<title>Node16</title>
<g id="a_node16"><a xlink:href="classv8_1_1BigInt64Array.html" target="_top" xlink:title=" ">
<polygon fill="white" stroke="black" points="680,-893.5 680,-912.5 770,-912.5 770,-893.5 680,-893.5"/>
<text text-anchor="middle" x="725" y="-900.5" font-family="Helvetica,sans-Serif" font-size="10.00">v8::BigInt64Array</text>
</a>
</g>
</g>
<!-- Node15&#45;&gt;Node16 -->
<g id="edge15" class="edge">
<title>Node15&#45;&gt;Node16</title>
<path fill="none" stroke="midnightblue" d="M627.92,-728.67C629.03,-729.72 630.06,-730.82 631,-732 674.38,-786.2 620.15,-832.77 667,-884 670.59,-887.93 675.01,-891.04 679.79,-893.51"/>
<polygon fill="midnightblue" stroke="midnightblue" points="629.94,-725.81 619.82,-722.68 625.78,-731.44 629.94,-725.81"/>
</g>
<!-- Node17 -->
<g id="node17" class="node">
<title>Node17</title>
<g id="a_node17"><a xlink:href="classv8_1_1BigUint64Array.html" target="_top" xlink:title=" ">
<polygon fill="white" stroke="black" points="676.5,-855.5 676.5,-874.5 773.5,-874.5 773.5,-855.5 676.5,-855.5"/>
<text text-anchor="middle" x="725" y="-862.5" font-family="Helvetica,sans-Serif" font-size="10.00">v8::BigUint64Array</text>
</a>
</g>
</g>
<!-- Node15&#45;&gt;Node17 -->
<g id="edge16" class="edge">
<title>Node15&#45;&gt;Node17</title>
<path fill="none" stroke="midnightblue" d="M627.71,-728.67C628.88,-729.71 629.99,-730.82 631,-732 665.7,-772.24 629.73,-808.13 667,-846 670.8,-849.87 675.42,-852.95 680.35,-855.4"/>
<polygon fill="midnightblue" stroke="midnightblue" points="629.38,-725.56 619.2,-722.64 625.34,-731.28 629.38,-725.56"/>
</g>
<!-- Node18 -->
<g id="node18" class="node">
<title>Node18</title>
<g id="a_node18"><a xlink:href="classv8_1_1Float32Array.html" target="_top" xlink:title=" ">
<polygon fill="white" stroke="black" points="682,-817.5 682,-836.5 768,-836.5 768,-817.5 682,-817.5"/>
<text text-anchor="middle" x="725" y="-824.5" font-family="Helvetica,sans-Serif" font-size="10.00">v8::Float32Array</text>
</a>
</g>
</g>
<!-- Node15&#45;&gt;Node18 -->
<g id="edge17" class="edge">
<title>Node15&#45;&gt;Node18</title>
<path fill="none" stroke="midnightblue" d="M626.49,-728.05C628.09,-729.28 629.61,-730.59 631,-732 657.28,-758.57 639.03,-783.21 667,-808 671.37,-811.87 676.56,-814.96 681.99,-817.42"/>
<polygon fill="midnightblue" stroke="midnightblue" points="628.28,-725.03 617.98,-722.58 624.5,-730.93 628.28,-725.03"/>
</g>
<!-- Node19 -->
<g id="node19" class="node">
<title>Node19</title>
<g id="a_node19"><a xlink:href="classv8_1_1Float64Array.html" target="_top" xlink:title=" ">
<polygon fill="white" stroke="black" points="682,-779.5 682,-798.5 768,-798.5 768,-779.5 682,-779.5"/>
<text text-anchor="middle" x="725" y="-786.5" font-family="Helvetica,sans-Serif" font-size="10.00">v8::Float64Array</text>
</a>
</g>
</g>
<!-- Node15&#45;&gt;Node19 -->
<g id="edge18" class="edge">
<title>Node15&#45;&gt;Node19</title>
<path fill="none" stroke="midnightblue" d="M624.01,-727.4C626.44,-728.85 628.8,-730.39 631,-732 649.76,-745.76 647.38,-757.5 667,-770 672.98,-773.81 679.81,-776.94 686.61,-779.47"/>
<polygon fill="midnightblue" stroke="midnightblue" points="625.52,-724.24 615.07,-722.54 622.18,-730.39 625.52,-724.24"/>
</g>
<!-- Node20 -->
<g id="node20" class="node">
<title>Node20</title>
<g id="a_node20"><a xlink:href="classv8_1_1Int16Array.html" target="_top" xlink:title=" ">
<polygon fill="white" stroke="black" points="687,-741.5 687,-760.5 763,-760.5 763,-741.5 687,-741.5"/>
<text text-anchor="middle" x="725" y="-748.5" font-family="Helvetica,sans-Serif" font-size="10.00">v8::Int16Array</text>
</a>
</g>
</g>
<!-- Node15&#45;&gt;Node20 -->
<g id="edge19" class="edge">
<title>Node15&#45;&gt;Node20</title>
<path fill="none" stroke="midnightblue" d="M635.04,-725.39C653.12,-730.59 673.82,-736.55 690.7,-741.41"/>
<polygon fill="midnightblue" stroke="midnightblue" points="635.89,-721.99 625.31,-722.59 633.95,-728.72 635.89,-721.99"/>
</g>
<!-- Node21 -->
<g id="node21" class="node">
<title>Node21</title>
<g id="a_node21"><a xlink:href="classv8_1_1Int32Array.html" target="_top" xlink:title=" ">
<polygon fill="white" stroke="black" points="687,-703.5 687,-722.5 763,-722.5 763,-703.5 687,-703.5"/>
<text text-anchor="middle" x="725" y="-710.5" font-family="Helvetica,sans-Serif" font-size="10.00">v8::Int32Array</text>
</a>
</g>
</g>
<!-- Node15&#45;&gt;Node21 -->
<g id="edge20" class="edge">
<title>Node15&#45;&gt;Node21</title>
<path fill="none" stroke="midnightblue" d="M641.45,-713C656.52,-713 672.83,-713 686.94,-713"/>
<polygon fill="midnightblue" stroke="midnightblue" points="641.25,-709.5 631.25,-713 641.25,-716.5 641.25,-709.5"/>
</g>
<!-- Node22 -->
<g id="node22" class="node">
<title>Node22</title>
<g id="a_node22"><a xlink:href="classv8_1_1Int8Array.html" target="_top" xlink:title=" ">
<polygon fill="white" stroke="black" points="689.5,-665.5 689.5,-684.5 760.5,-684.5 760.5,-665.5 689.5,-665.5"/>
<text text-anchor="middle" x="725" y="-672.5" font-family="Helvetica,sans-Serif" font-size="10.00">v8::Int8Array</text>
</a>
</g>
</g>
<!-- Node15&#45;&gt;Node22 -->
<g id="edge21" class="edge">
<title>Node15&#45;&gt;Node22</title>
<path fill="none" stroke="midnightblue" d="M635.04,-700.61C653.12,-695.41 673.82,-689.45 690.7,-684.59"/>
<polygon fill="midnightblue" stroke="midnightblue" points="633.95,-697.28 625.31,-703.41 635.89,-704.01 633.95,-697.28"/>
</g>
<!-- Node23 -->
<g id="node23" class="node">
<title>Node23</title>
<g id="a_node23"><a xlink:href="classv8_1_1Uint16Array.html" target="_top" xlink:title=" ">
<polygon fill="white" stroke="black" points="683.5,-627.5 683.5,-646.5 766.5,-646.5 766.5,-627.5 683.5,-627.5"/>
<text text-anchor="middle" x="725" y="-634.5" font-family="Helvetica,sans-Serif" font-size="10.00">v8::Uint16Array</text>
</a>
</g>
</g>
<!-- Node15&#45;&gt;Node23 -->
<g id="edge22" class="edge">
<title>Node15&#45;&gt;Node23</title>
<path fill="none" stroke="midnightblue" d="M610.11,-696.51C624.62,-683.99 645.96,-667.11 667,-656 673.92,-652.35 681.68,-649.2 689.19,-646.58"/>
<polygon fill="midnightblue" stroke="midnightblue" points="607.6,-694.05 602.41,-703.29 612.23,-699.31 607.6,-694.05"/>
</g>
<!-- Node24 -->
<g id="node24" class="node">
<title>Node24</title>
<g id="a_node24"><a xlink:href="classv8_1_1Uint32Array.html" target="_top" xlink:title=" ">
<polygon fill="white" stroke="black" points="683.5,-589.5 683.5,-608.5 766.5,-608.5 766.5,-589.5 683.5,-589.5"/>
<text text-anchor="middle" x="725" y="-596.5" font-family="Helvetica,sans-Serif" font-size="10.00">v8::Uint32Array</text>
</a>
</g>
</g>
<!-- Node15&#45;&gt;Node24 -->
<g id="edge23" class="edge">
<title>Node15&#45;&gt;Node24</title>
<path fill="none" stroke="midnightblue" d="M602.01,-694.65C614.53,-673.31 637.92,-638.42 667,-618 672.46,-614.16 678.76,-611.06 685.13,-608.56"/>
<polygon fill="midnightblue" stroke="midnightblue" points="598.93,-692.98 597.03,-703.4 605.02,-696.43 598.93,-692.98"/>
</g>
<!-- Node25 -->
<g id="node25" class="node">
<title>Node25</title>
<g id="a_node25"><a xlink:href="classv8_1_1Uint8Array.html" target="_top" xlink:title=" ">
<polygon fill="white" stroke="black" points="686.5,-551.5 686.5,-570.5 763.5,-570.5 763.5,-551.5 686.5,-551.5"/>
<text text-anchor="middle" x="725" y="-558.5" font-family="Helvetica,sans-Serif" font-size="10.00">v8::Uint8Array</text>
</a>
</g>
</g>
<!-- Node15&#45;&gt;Node25 -->
<g id="edge24" class="edge">
<title>Node15&#45;&gt;Node25</title>
<path fill="none" stroke="midnightblue" d="M597.88,-693.67C607.63,-664.83 629.82,-610.66 667,-580 672.63,-575.35 679.45,-571.83 686.38,-569.16"/>
<polygon fill="midnightblue" stroke="midnightblue" points="594.49,-692.79 594.75,-703.38 601.15,-694.94 594.49,-692.79"/>
</g>
<!-- Node26 -->
<g id="node26" class="node">
<title>Node26</title>
<g id="a_node26"><a xlink:href="classv8_1_1Uint8ClampedArray.html" target="_top" xlink:title=" ">
<polygon fill="white" stroke="black" points="667,-513.5 667,-532.5 783,-532.5 783,-513.5 667,-513.5"/>
<text text-anchor="middle" x="725" y="-520.5" font-family="Helvetica,sans-Serif" font-size="10.00">v8::Uint8ClampedArray</text>
</a>
</g>
</g>
<!-- Node15&#45;&gt;Node26 -->
<g id="edge25" class="edge">
<title>Node15&#45;&gt;Node26</title>
<path fill="none" stroke="midnightblue" d="M595.27,-693.26C602.15,-657.91 621.4,-583.6 667,-542 671.24,-538.13 676.29,-535.05 681.6,-532.59"/>
<polygon fill="midnightblue" stroke="midnightblue" points="591.79,-692.82 593.45,-703.28 598.68,-694.06 591.79,-692.82"/>
</g>
<!-- Node43 -->
<g id="node43" class="node">
<title>Node43</title>
<g id="a_node43"><a xlink:href="classv8_1_1BigInt.html" target="_top" xlink:title=" ">
<polygon fill="white" stroke="black" points="421,-114.5 421,-133.5 478,-133.5 478,-114.5 421,-114.5"/>
<text text-anchor="middle" x="449.5" y="-121.5" font-family="Helvetica,sans-Serif" font-size="10.00">v8::BigInt</text>
</a>
</g>
</g>
<!-- Node42&#45;&gt;Node43 -->
<g id="edge42" class="edge">
<title>Node42&#45;&gt;Node43</title>
<path fill="none" stroke="midnightblue" d="M338.16,-96.86C364.85,-103.43 398.03,-111.59 421,-117.24"/>
<polygon fill="midnightblue" stroke="midnightblue" points="338.84,-93.42 328.29,-94.43 337.16,-100.22 338.84,-93.42"/>
</g>
<!-- Node44 -->
<g id="node44" class="node">
<title>Node44</title>
<g id="a_node44"><a xlink:href="classv8_1_1Boolean.html" target="_top" xlink:title=" ">
<polygon fill="white" stroke="black" points="416,-76.5 416,-95.5 483,-95.5 483,-76.5 416,-76.5"/>
<text text-anchor="middle" x="449.5" y="-83.5" font-family="Helvetica,sans-Serif" font-size="10.00">v8::Boolean</text>
</a>
</g>
</g>
<!-- Node42&#45;&gt;Node44 -->
<g id="edge43" class="edge">
<title>Node42&#45;&gt;Node44</title>
<path fill="none" stroke="midnightblue" d="M338.5,-86C363.21,-86 393.4,-86 415.89,-86"/>
<polygon fill="midnightblue" stroke="midnightblue" points="338.29,-82.5 328.29,-86 338.29,-89.5 338.29,-82.5"/>
</g>
<!-- Node45 -->
<g id="node45" class="node">
<title>Node45</title>
<g id="a_node45"><a xlink:href="classv8_1_1Name.html" target="_top" xlink:title=" ">
<polygon fill="white" stroke="black" points="420.5,-38.5 420.5,-57.5 478.5,-57.5 478.5,-38.5 420.5,-38.5"/>
<text text-anchor="middle" x="449.5" y="-45.5" font-family="Helvetica,sans-Serif" font-size="10.00">v8::Name</text>
</a>
</g>
</g>
<!-- Node42&#45;&gt;Node45 -->
<g id="edge44" class="edge">
<title>Node42&#45;&gt;Node45</title>
<path fill="none" stroke="midnightblue" d="M338.1,-75.15C364.6,-68.64 397.53,-60.54 420.5,-54.89"/>
<polygon fill="midnightblue" stroke="midnightblue" points="337.16,-71.78 328.29,-77.57 338.84,-78.58 337.16,-71.78"/>
</g>
<!-- Node48 -->
<g id="node48" class="node">
<title>Node48</title>
<g id="a_node48"><a xlink:href="classv8_1_1Number.html" target="_top" xlink:title=" ">
<polygon fill="white" stroke="black" points="416.5,-0.5 416.5,-19.5 482.5,-19.5 482.5,-0.5 416.5,-0.5"/>
<text text-anchor="middle" x="449.5" y="-7.5" font-family="Helvetica,sans-Serif" font-size="10.00">v8::Number</text>
</a>
</g>
</g>
<!-- Node42&#45;&gt;Node48 -->
<g id="edge47" class="edge">
<title>Node42&#45;&gt;Node48</title>
<path fill="none" stroke="midnightblue" d="M315.17,-70.2C332.82,-57.62 359.04,-40.31 384,-29 394.21,-24.37 405.83,-20.55 416.37,-17.57"/>
<polygon fill="midnightblue" stroke="midnightblue" points="312.81,-67.59 306.76,-76.29 316.92,-73.26 312.81,-67.59"/>
</g>
<!-- Node46 -->
<g id="node46" class="node">
<title>Node46</title>
<g id="a_node46"><a xlink:href="classv8_1_1String.html" target="_top" xlink:title=" ">
<polygon fill="white" stroke="black" points="562.5,-76.5 562.5,-95.5 619.5,-95.5 619.5,-76.5 562.5,-76.5"/>
<text text-anchor="middle" x="591" y="-83.5" font-family="Helvetica,sans-Serif" font-size="10.00">v8::String</text>
</a>
</g>
</g>
<!-- Node45&#45;&gt;Node46 -->
<g id="edge45" class="edge">
<title>Node45&#45;&gt;Node46</title>
<path fill="none" stroke="midnightblue" d="M488.63,-58.39C511.93,-64.73 541.2,-72.71 562.29,-78.45"/>
<polygon fill="midnightblue" stroke="midnightblue" points="489.3,-54.94 478.73,-55.69 487.46,-61.7 489.3,-54.94"/>
</g>
<!-- Node47 -->
<g id="node47" class="node">
<title>Node47</title>
<g id="a_node47"><a xlink:href="classv8_1_1Symbol.html" target="_top" xlink:title=" ">
<polygon fill="white" stroke="black" points="559,-38.5 559,-57.5 623,-57.5 623,-38.5 559,-38.5"/>
<text text-anchor="middle" x="591" y="-45.5" font-family="Helvetica,sans-Serif" font-size="10.00">v8::Symbol</text>
</a>
</g>
</g>
<!-- Node45&#45;&gt;Node47 -->
<g id="edge46" class="edge">
<title>Node45&#45;&gt;Node47</title>
<path fill="none" stroke="midnightblue" d="M488.76,-48C510.81,-48 538.18,-48 558.9,-48"/>
<polygon fill="midnightblue" stroke="midnightblue" points="488.73,-44.5 478.73,-48 488.73,-51.5 488.73,-44.5"/>
</g>
<!-- Node49 -->
<g id="node49" class="node">
<title>Node49</title>
<g id="a_node49"><a xlink:href="classv8_1_1Integer.html" target="_top" xlink:title=" ">
<polygon fill="white" stroke="red" points="560,-0.5 560,-19.5 622,-19.5 622,-0.5 560,-0.5"/>
<text text-anchor="middle" x="591" y="-7.5" font-family="Helvetica,sans-Serif" font-size="10.00">v8::Integer</text>
</a>
</g>
</g>
<!-- Node48&#45;&gt;Node49 -->
<g id="edge48" class="edge">
<title>Node48&#45;&gt;Node49</title>
<path fill="none" stroke="midnightblue" d="M492.7,-10C514.26,-10 539.99,-10 559.58,-10"/>
<polygon fill="midnightblue" stroke="midnightblue" points="492.5,-6.5 482.5,-10 492.5,-13.5 492.5,-6.5"/>
</g>
</g>
</svg>
